<?xml version="1.0" encoding="UTF-8" standalone="no"?>
<svg
   xmlns:dc="http://purl.org/dc/elements/1.1/"
   xmlns:cc="http://creativecommons.org/ns#"
   xmlns:rdf="http://www.w3.org/1999/02/22-rdf-syntax-ns#"
   xmlns:svg="http://www.w3.org/2000/svg"
   xmlns="http://www.w3.org/2000/svg"
   xmlns:xlink="http://www.w3.org/1999/xlink"
   xmlns:sodipodi="http://sodipodi.sourceforge.net/DTD/sodipodi-0.dtd"
   xmlns:inkscape="http://www.inkscape.org/namespaces/inkscape"
   height="48"
   viewBox="0 0 48 48"
   width="48"
   id="svg2"
   version="1.1"
   inkscape:version="0.92.2 5c3e80d, 2017-08-06"
   sodipodi:docname="org.gnome.ChromeGnomeShell.svg"
   enable-background="new">
  <title
     id="title4675">Template icons dark</title>
  <metadata
     id="metadata24">
    <rdf:RDF>
      <cc:Work
         rdf:about="">
        <dc:format>image/svg+xml</dc:format>
        <dc:type
           rdf:resource="http://purl.org/dc/dcmitype/StillImage" />
        <dc:title>Template icons dark</dc:title>
        <dc:date>17/05/13</dc:date>
        <dc:creator>
          <cc:Agent>
            <dc:title>wfpaisa</dc:title>
          </cc:Agent>
        </dc:creator>
        <dc:rights>
          <cc:Agent>
            <dc:title>License: GPLv3</dc:title>
          </cc:Agent>
        </dc:rights>
        <dc:language>es-en</dc:language>
        <dc:subject>
          <rdf:Bag>
            <rdf:li>plane-icon-theme</rdf:li>
          </rdf:Bag>
        </dc:subject>
        <dc:description>Template for create set icons</dc:description>
        <cc:license
           rdf:resource="https://www.gnu.org/licenses/gpl-3.0.en.html" />
      </cc:Work>
    </rdf:RDF>
  </metadata>
  <defs
     id="defs22">
    <linearGradient
       inkscape:collect="always"
       id="linearGradient24388">
      <stop
         style="stop-color:#e9e9e9;stop-opacity:1"
         offset="0"
         id="stop24384" />
      <stop
         style="stop-color:#ffffff;stop-opacity:1"
         offset="1"
         id="stop24386" />
    </linearGradient>
    <linearGradient
       inkscape:collect="always"
       xlink:href="#linearGradient24388"
       id="linearGradient24390"
       x1="168"
       y1="201.74074"
       x2="168"
       y2="114.33071"
       gradientUnits="userSpaceOnUse" />
    <linearGradient
       gradientTransform="matrix(0.17390774,0,0,0.17390774,-91.825276,-91.825242)"
       inkscape:collect="always"
       xlink:href="#linearGradient24388"
       id="linearGradient24390-3"
       x1="168"
       y1="201.74074"
       x2="168"
       y2="114.33071"
       gradientUnits="userSpaceOnUse" />
    <linearGradient
       gradientTransform="matrix(0.26087493,0,0,0.26087493,-85.740023,-85.739992)"
       inkscape:collect="always"
       xlink:href="#linearGradient24388"
       id="linearGradient24390-35"
       x1="168"
       y1="201.74074"
       x2="168"
       y2="114.33071"
       gradientUnits="userSpaceOnUse" />
    <linearGradient
       gradientTransform="matrix(0.34044067,0,0,0.34044067,-70.470159,-70.471989)"
       inkscape:collect="always"
       xlink:href="#linearGradient24388"
       id="linearGradient24390-1"
       x1="168"
       y1="201.74074"
       x2="168"
       y2="114.33071"
       gradientUnits="userSpaceOnUse" />
    <linearGradient
       gradientTransform="matrix(0.51065451,0,0,0.51065451,-57.704463,-57.703546)"
       inkscape:collect="always"
       xlink:href="#linearGradient24388"
       id="linearGradient24390-6"
       x1="168"
       y1="201.74074"
       x2="168"
       y2="114.33071"
       gradientUnits="userSpaceOnUse" />
    <linearGradient
       gradientTransform="matrix(0.68086833,0,0,0.68086833,-28.938763,-28.939647)"
       inkscape:collect="always"
       xlink:href="#linearGradient24388"
       id="linearGradient24390-18"
       x1="168"
       y1="201.74074"
       x2="168"
       y2="114.33071"
       gradientUnits="userSpaceOnUse" />
    <linearGradient
       gradientTransform="matrix(1.2766363,0,0,1.2766363,67.738053,67.738821)"
       inkscape:collect="always"
       xlink:href="#linearGradient24388"
       id="linearGradient24390-37"
       x1="168"
       y1="201.74074"
       x2="168"
       y2="114.33071"
       gradientUnits="userSpaceOnUse" />
  </defs>
  <sodipodi:namedview
     pagecolor="#383c4a"
     bordercolor="#ffffff"
     borderopacity="0.62745098"
     objecttolerance="4"
     gridtolerance="10"
     guidetolerance="4"
     inkscape:pageopacity="0"
     inkscape:pageshadow="2"
     inkscape:window-width="640"
     inkscape:window-height="480"
     id="namedview20"
     showgrid="true"
     inkscape:zoom="5.8456083"
     inkscape:cx="271.48334"
     inkscape:cy="-238.29924"
     inkscape:current-layer="layer12"
     inkscape:snap-smooth-nodes="false"
     showguides="true"
     borderlayer="true"
     inkscape:showpageshadow="false"
     inkscape:guide-bbox="true"
     guidecolor="#bd4fff"
     guideopacity="0.78431373"
     inkscape:snap-nodes="true"
     inkscape:lockguides="false"
     fit-margin-top="0"
     fit-margin-left="0"
     fit-margin-right="0"
     fit-margin-bottom="0"
     guidehicolor="#ff0101"
     guidehiopacity="0.78431373"
     inkscape:snap-page="true"
     inkscape:object-nodes="true"
     inkscape:snap-bbox="true"
     inkscape:snap-global="true"
     inkscape:snap-object-midpoints="false"
     inkscape:snap-bbox-edge-midpoints="false">
    <inkscape:grid
       type="xygrid"
       id="grid4171"
       empspacing="4"
       dotted="false"
       originx="2.7755576e-17"
       originy="0"
       spacingx="1"
       spacingy="1"
       color="#5a5a5a"
       opacity="0.23529412"
       empcolor="#5a5a5a"
       empopacity="0.47058824"
       visible="true" />
    <sodipodi:guide
       position="48,0"
       orientation="1,0"
       id="guide4568"
       inkscape:locked="false"
       inkscape:label=""
       inkscape:color="rgb(189,79,255)" />
    <sodipodi:guide
       position="111.99996,-3.9999999e-05"
       orientation="0,1"
       id="guide4570"
       inkscape:locked="false"
       inkscape:label=""
       inkscape:color="rgb(189,79,255)" />
    <sodipodi:guide
       position="0,0"
       orientation="1,0"
       id="guide4572"
       inkscape:locked="false"
       inkscape:label=""
       inkscape:color="rgb(189,79,255)" />
    <sodipodi:guide
       position="0,48"
       orientation="0,1"
       id="guide4574"
       inkscape:locked="false"
       inkscape:label=""
       inkscape:color="rgb(189,79,255)" />
    <sodipodi:guide
       position="0,80"
       orientation="0,1"
       id="guide4576"
       inkscape:locked="false"
       inkscape:label=""
       inkscape:color="rgb(189,79,255)" />
    <sodipodi:guide
       position="-32,48"
       orientation="1,0"
       id="guide4578"
       inkscape:locked="false"
       inkscape:label=""
       inkscape:color="rgb(189,79,255)" />
    <sodipodi:guide
       position="-32,104"
       orientation="0,1"
       id="guide4580"
       inkscape:locked="false"
       inkscape:label=""
       inkscape:color="rgb(189,79,255)" />
    <sodipodi:guide
       position="-56,80"
       orientation="1,0"
       id="guide4582"
       inkscape:locked="false"
       inkscape:label=""
       inkscape:color="rgb(189,79,255)" />
    <sodipodi:guide
       position="48,-64"
       orientation="0,1"
       id="guide4584"
       inkscape:locked="false"
       inkscape:label=""
       inkscape:color="rgb(189,79,255)" />
    <sodipodi:guide
       position="0,0"
       orientation="-0.70710678,0.70710678"
       id="guide4588"
       inkscape:locked="false"
       inkscape:label=""
       inkscape:color="rgb(189,79,255)" />
    <sodipodi:guide
       position="-56,80"
       orientation="-0.70710678,0.70710678"
       id="guide4573"
       inkscape:locked="false"
       inkscape:label=""
       inkscape:color="rgb(189,79,255)" />
    <sodipodi:guide
       position="-32,48"
       orientation="-0.70710678,0.70710678"
       id="guide4575"
       inkscape:locked="false"
       inkscape:label=""
       inkscape:color="rgb(189,79,255)" />
    <sodipodi:guide
       position="48,-64"
       orientation="-0.70710678,0.70710678"
       id="guide4577"
       inkscape:locked="false"
       inkscape:label=""
       inkscape:color="rgb(189,79,255)" />
    <sodipodi:guide
       position="47.999962,0"
       orientation="0.70710678,0.70710678"
       id="guide4697"
       inkscape:locked="false"
       inkscape:label=""
       inkscape:color="rgb(189,79,255)" />
    <inkscape:grid
       type="axonomgrid"
       id="grid4699"
       units="mm"
       empspacing="4"
       color="#5a5a5a"
       opacity="0.23529412"
       empcolor="#5a5a5a"
       empopacity="0.47058824"
       gridanglex="45"
       gridanglez="45"
       spacingy="3.7795276"
       visible="false"
       originx="1.3228346"
       originy="1.3228346" />
    <sodipodi:guide
       position="207.99995,-288"
       orientation="0,1"
       id="guide7833"
       inkscape:locked="false" />
    <sodipodi:guide
       position="335.99994,-288"
       orientation="1,0"
       id="guide7835"
       inkscape:locked="false"
       inkscape:label=""
       inkscape:color="rgb(189,79,255)" />
    <sodipodi:guide
       position="111.99996,-64"
       orientation="1,0"
       id="guide7915"
       inkscape:locked="false" />
    <sodipodi:guide
       position="111.99996,-160"
       orientation="0,1"
       id="guide7917"
       inkscape:locked="false" />
    <sodipodi:guide
       position="207.99996,-160"
       orientation="1,0"
       id="guide7919"
       inkscape:locked="false" />
    <sodipodi:guide
       position="111.99996,-160"
       orientation="-0.70710678,0.70710678"
       id="guide7921"
       inkscape:locked="false"
       inkscape:label=""
       inkscape:color="rgb(189,79,255)" />
    <sodipodi:guide
       position="207.99996,-288"
       orientation="-0.70710678,0.70710678"
       id="guide7923"
       inkscape:locked="false"
       inkscape:label=""
       inkscape:color="rgb(189,79,255)" />
    <sodipodi:guide
       position="-72,104"
       orientation="1,0"
       id="guide7824"
       inkscape:locked="false" />
    <sodipodi:guide
       position="-56,120"
       orientation="0,1"
       id="guide7826"
       inkscape:locked="false" />
    <sodipodi:guide
       position="-72,104"
       orientation="-0.70710678,0.70710678"
       id="guide7828"
       inkscape:locked="false"
       inkscape:label=""
       inkscape:color="rgb(189,79,255)" />
  </sodipodi:namedview>
  <g
     inkscape:groupmode="layer"
     id="layer1"
     inkscape:label="icon_16"
     style="display:inline">
    <g
       inkscape:groupmode="layer"
       id="layer5"
       inkscape:label="frame"
       style="display:none">
      <rect
         inkscape:label="frame_16"
         y="-72"
         x="-72"
         height="16"
         width="16"
         id="frame_16"
         style="color:#000000;clip-rule:nonzero;display:block;overflow:visible;visibility:visible;opacity:1;isolation:auto;mix-blend-mode:normal;color-interpolation:sRGB;color-interpolation-filters:linearRGB;solid-color:#000000;solid-opacity:1;vector-effect:none;fill:#000000;fill-opacity:1;fill-rule:nonzero;stroke:#ff24f7;stroke-width:0;stroke-linecap:square;stroke-linejoin:miter;stroke-miterlimit:4;stroke-dasharray:none;stroke-dashoffset:0;stroke-opacity:0.99481865;marker:none;marker-start:none;marker-mid:none;marker-end:none;paint-order:normal;color-rendering:auto;image-rendering:auto;shape-rendering:auto;text-rendering:auto;enable-background:accumulate" />
      <text
         id="txt_16"
         y="-61.087891"
         x="-69.279297"
         style="font-size:8px;line-height:1000%;font-family:sans-serif;letter-spacing:0px;word-spacing:0px;display:inline;opacity:1;fill:#ffffff;fill-opacity:1;stroke:none;stroke-width:0.07214338px;stroke-linecap:butt;stroke-linejoin:miter;stroke-opacity:1"
         xml:space="preserve"
         inkscape:label="txt_16"><tspan
           style="font-size:8px;fill:#ffffff;fill-opacity:1;stroke:none;stroke-width:0.07214338px"
           y="-61.087891"
           x="-69.279297"
           id="tspan4768-6"
           sodipodi:role="line">16</tspan></text>
    </g>
    <g
       inkscape:groupmode="layer"
       id="layer6"
       inkscape:label="icon"
       style="display:inline">
      <path
         style="display:inline;fill:url(#linearGradient24390-3);fill-opacity:1;stroke-width:0.14678125"
         d="m -64.739716,-56.183113 c -1.119322,-0.37184 -1.91254,-0.876879 -2.805211,-1.78607 -0.997973,-1.016435 -1.58558,-2.080039 -1.832971,-3.317777 -0.342229,-1.712231 0.566079,-3.281787 2.481726,-4.288433 2.311759,-1.214792 5.472339,-1.329606 6.637572,-0.241125 0.357166,0.333642 0.436056,0.525475 0.436056,1.06033 0,1.021706 -0.564122,1.6544 -2.769557,3.106235 -2.663919,1.753656 -2.94223,2.183064 -2.015513,3.109782 0.378977,0.378976 0.62368,0.499056 1.016983,0.499056 0.508823,0 0.967369,-0.293354 0.991476,-0.634306 0.07063,-0.99902 0.220915,-1.183689 1.167711,-1.434926 0.7946,-0.210857 1.697076,-0.07591 1.888865,0.282447 0.219108,0.409411 -0.306408,1.723834 -0.958459,2.397299 -1.216372,1.256318 -2.804822,1.723817 -4.238678,1.247488 z m -5.143371,-9.687471 c -0.801426,-0.801424 -0.863784,-1.848929 -0.129976,-2.183274 0.32318,-0.147249 0.417909,-0.120149 0.75369,0.215632 0.637459,0.637462 0.644998,2.458048 0.01017,2.458048 -0.07891,0 -0.364168,-0.220682 -0.633892,-0.490406 z m 2.236091,-1.533209 c -0.296431,-0.327553 -0.688862,-1.251236 -0.688862,-1.621408 0,-0.470507 0.563878,-1.051978 1.02015,-1.051978 0.547953,0 0.771206,0.303904 0.853661,1.162008 0.09426,0.981041 -0.180471,1.773619 -0.614803,1.773619 -0.18305,0 -0.439612,-0.118007 -0.570146,-0.262241 z m 6.177511,-0.04064 c -0.696137,-0.405736 -0.597549,-2.271178 0.176509,-3.339732 1.086113,-1.499338 3.818931,-1.656796 3.818931,-0.220035 0,0.973972 -1.407267,2.860087 -2.544867,3.410785 -0.691539,0.334769 -1.065849,0.373218 -1.450573,0.148982 z m -3.492133,-0.908058 c -0.822414,-1.348294 -0.318276,-3.045712 0.904589,-3.045712 0.575764,0 0.858515,0.358806 0.858515,1.089445 0,1.130303 -0.635299,2.433308 -1.1864,2.433308 -0.164818,0 -0.408859,-0.20187 -0.576704,-0.477041 z"
         id="path24380-5"
         inkscape:connector-curvature="0" />
    </g>
  </g>
  <g
     inkscape:groupmode="layer"
     id="layer2"
     inkscape:label="icon_24"
     style="display:inline">
    <g
       inkscape:groupmode="layer"
       id="layer7"
       inkscape:label="frame"
       style="display:none">
      <rect
         style="color:#000000;clip-rule:nonzero;display:block;overflow:visible;visibility:visible;opacity:1;isolation:auto;mix-blend-mode:normal;color-interpolation:sRGB;color-interpolation-filters:linearRGB;solid-color:#000000;solid-opacity:1;vector-effect:none;fill:#000000;fill-opacity:0.99481865;fill-rule:nonzero;stroke:#ff24f7;stroke-width:0;stroke-linecap:square;stroke-linejoin:miter;stroke-miterlimit:4;stroke-dasharray:none;stroke-dashoffset:0;stroke-opacity:0.99481865;marker:none;marker-start:none;marker-mid:none;marker-end:none;paint-order:normal;color-rendering:auto;image-rendering:auto;shape-rendering:auto;text-rendering:auto;enable-background:accumulate"
         id="frame_24"
         width="24"
         height="24"
         x="-56"
         y="-56"
         inkscape:label="frame_24" />
      <text
         id="txt_24"
         y="-40.041668"
         x="-50.880211"
         style="font-size:10.66666698px;line-height:1000%;font-family:sans-serif;letter-spacing:0px;word-spacing:0px;display:inline;opacity:1;fill:#ffffff;fill-opacity:1;stroke:none;stroke-width:0.11166908px;stroke-linecap:butt;stroke-linejoin:miter;stroke-opacity:1"
         xml:space="preserve"
         inkscape:label="txt_24"><tspan
           id="tspan4835-2-5"
           style="font-size:10.66666698px;fill:#ffffff;fill-opacity:1;stroke:none;stroke-width:0.11166908px"
           y="-40.041668"
           x="-50.880211"
           sodipodi:role="line">24</tspan></text>
    </g>
    <g
       inkscape:groupmode="layer"
       id="layer8"
       inkscape:label="icon"
       style="display:inline">
      <path
         style="display:inline;fill:url(#linearGradient24390-35);fill-opacity:1;stroke-width:0.22018313"
         d="m -45.109608,-32.274068 c -1.679069,-0.55779 -2.868956,-1.315386 -4.208032,-2.679243 -1.497036,-1.524731 -2.378491,-3.120218 -2.749596,-4.97692 -0.51337,-2.568478 0.849161,-4.922932 3.722779,-6.432977 3.467816,-1.822282 8.208928,-1.994512 9.956866,-0.361706 0.535777,0.500489 0.654118,0.788252 0.654118,1.590575 0,1.532638 -0.846226,2.481727 -4.154548,4.659592 -3.996082,2.630618 -4.413571,3.274763 -3.023423,4.66491 0.568493,0.568494 0.935568,0.748623 1.525552,0.748623 0.763273,0 1.451127,-0.440055 1.48729,-0.951508 0.105957,-1.498606 0.331389,-1.775624 1.751655,-2.1525 1.191961,-0.3163 2.545745,-0.113866 2.833443,0.423693 0.328679,0.614149 -0.459635,2.585883 -1.437762,3.596132 -1.824651,1.884573 -4.207449,2.585857 -6.358342,1.871329 z m -7.715451,-14.531949 c -1.202201,-1.202198 -1.295742,-2.773537 -0.194973,-3.275079 0.484794,-0.220885 0.626896,-0.180233 1.130593,0.323464 0.956237,0.956242 0.967546,3.687261 0.01526,3.687261 -0.118377,0 -0.54628,-0.33104 -0.950886,-0.735646 z m 3.354309,-2.299931 c -0.444669,-0.491356 -1.033347,-1.876951 -1.033347,-2.432236 0,-0.705797 0.845861,-1.578048 1.530303,-1.578048 0.821973,0 1.156868,0.455879 1.280557,1.743101 0.141404,1.471637 -0.270721,2.660564 -0.92225,2.660564 -0.27459,0 -0.659453,-0.177019 -0.855263,-0.393381 z m 9.266739,-0.06096 c -1.044259,-0.608635 -0.896369,-3.406941 0.264778,-5.009853 1.629252,-2.249123 5.728688,-2.485322 5.728688,-0.330069 0,1.461032 -2.111008,4.290349 -3.817495,5.116438 -1.037362,0.502179 -1.598856,0.559856 -2.175971,0.223484 z m -5.238468,-1.362156 c -1.233683,-2.022545 -0.477437,-4.568802 1.356954,-4.568802 0.863689,0 1.287838,0.538237 1.287838,1.634251 0,1.695541 -0.952997,3.650149 -1.779691,3.650149 -0.247239,0 -0.61332,-0.302821 -0.865101,-0.715598 z"
         id="path24380-9"
         inkscape:connector-curvature="0" />
    </g>
  </g>
  <g
     style="display:inline"
     inkscape:label="icon_32"
     id="g7816"
     inkscape:groupmode="layer">
    <g
       style="display:none"
       inkscape:label="frame"
       id="g7802"
       inkscape:groupmode="layer">
      <rect
         style="color:#000000;clip-rule:nonzero;display:block;overflow:visible;visibility:visible;opacity:1;isolation:auto;mix-blend-mode:normal;color-interpolation:sRGB;color-interpolation-filters:linearRGB;solid-color:#000000;solid-opacity:1;vector-effect:none;fill:#000000;fill-opacity:1;fill-rule:nonzero;stroke:#ff24f7;stroke-width:0;stroke-linecap:square;stroke-linejoin:miter;stroke-miterlimit:4;stroke-dasharray:none;stroke-dashoffset:0;stroke-opacity:0.99481865;marker:none;marker-start:none;marker-mid:none;marker-end:none;paint-order:normal;color-rendering:auto;image-rendering:auto;shape-rendering:auto;text-rendering:auto;enable-background:accumulate"
         id="rect7792"
         width="32"
         height="32"
         x="-32"
         y="-32"
         inkscape:label="frame_32" />
      <text
         inkscape:label="txt_32"
         id="text7796"
         y="-11.470053"
         x="-23.799042"
         style="font-size:12.4444437px;line-height:1000%;font-family:sans-serif;letter-spacing:0px;word-spacing:0px;display:inline;opacity:1;fill:#ffffff;fill-opacity:1;stroke:none;stroke-width:0.07444605px;stroke-linecap:butt;stroke-linejoin:miter;stroke-opacity:1"
         xml:space="preserve"><tspan
           id="tspan7794"
           style="font-size:12.4444437px;fill:#ffffff;fill-opacity:1;stroke:none;stroke-width:0.07444605px"
           y="-11.470053"
           x="-23.799042"
           sodipodi:role="line">32</tspan></text>
    </g>
    <g
       style="display:inline"
       inkscape:label="icon"
       id="g7814"
       inkscape:groupmode="layer">
      <path
         inkscape:connector-curvature="0"
         id="path24382-0"
         d="m -17.447642,-0.69918729 c -2.191178,-0.72791321 -3.743976,-1.71657331 -5.491465,-3.49640051 -1.953625,-1.9897668 -3.10392,-4.0718713 -3.58821,-6.4948592 -0.669946,-3.351853 1.108151,-6.424405 4.858211,-8.395008 4.525484,-2.37807 10.712616,-2.602829 12.9936668,-0.472024 0.6991868,0.653135 0.8536209,1.028665 0.8536209,2.075694 0,2.000085 -1.1043215,3.238642 -5.4216677,6.080747 -5.21487,3.4329454 -5.759691,4.2735513 -3.945554,6.0876881 0.741882,0.7418815 1.220912,0.976949 1.990839,0.976949 0.996068,0 1.893715,-0.5742689 1.940907,-1.2417131 0.138273,-1.955675 0.432462,-2.3171821 2.285902,-2.8090031 1.5555045,-0.4127707 3.3221873,-0.1485956 3.6976321,0.5529165 0.4289246,0.801462 -0.5998224,3.374567 -1.8762741,4.6929371 -2.381161,2.45936038 -5.490702,3.37453298 -8.297608,2.44207621 z M -27.516273,-19.663319 c -1.568867,-1.568863 -1.690939,-3.619453 -0.254439,-4.273963 0.632655,-0.288255 0.818096,-0.235204 1.475419,0.422119 1.247885,1.247892 1.262643,4.81186 0.01992,4.81186 -0.154482,0 -0.712893,-0.432006 -1.240903,-0.960016 z m 4.377358,-3.0014 c -0.580291,-0.641216 -1.348512,-2.449412 -1.348512,-3.174057 0,-0.921063 1.103845,-2.059346 1.997038,-2.059346 1.072671,0 1.509708,0.59492 1.671121,2.274739 0.184533,1.92048 -0.353288,3.472025 -1.203532,3.472025 -0.358338,0 -0.860583,-0.231009 -1.116115,-0.513361 z m 12.093055,-0.07955 c -1.362753,-0.794265 -1.169757,-4.446043 0.345534,-6.537836 2.1261679,-2.935096 7.4759138,-3.243334 7.4759138,-0.430739 0,1.906641 -2.7548561,5.598887 -4.9818147,6.67693 -1.3537521,0.655341 -2.0864991,0.730609 -2.8396331,0.291645 z m -6.836177,-1.777607 c -1.609951,-2.639413 -0.623055,-5.962267 1.770819,-5.962267 1.12711,0 1.680622,0.702397 1.680622,2.13269 0,2.212674 -1.243656,4.763429 -2.322489,4.763429 -0.322646,0 -0.80038,-0.39518 -1.128952,-0.933852 z"
         style="display:inline;fill:none;fill-opacity:1;stroke:#000000;stroke-width:0.68088132;stroke-miterlimit:4;stroke-dasharray:none;stroke-opacity:0.17582421" />
      <path
         style="display:inline;fill:url(#linearGradient24390-1);fill-opacity:1;stroke-width:0.28733805"
         d="m -17.447642,-0.69918729 c -2.191178,-0.72791321 -3.743976,-1.71657331 -5.491465,-3.49640051 -1.953625,-1.9897668 -3.10392,-4.0718713 -3.58821,-6.4948592 -0.669946,-3.351853 1.108151,-6.424405 4.858211,-8.395008 4.525484,-2.37807 10.712616,-2.602829 12.9936668,-0.472024 0.6991868,0.653135 0.8536209,1.028665 0.8536209,2.075694 0,2.000085 -1.1043215,3.238642 -5.4216677,6.080747 -5.21487,3.4329454 -5.759691,4.2735513 -3.945554,6.0876881 0.741882,0.7418815 1.220912,0.976949 1.990839,0.976949 0.996068,0 1.893715,-0.5742689 1.940907,-1.2417131 0.138273,-1.955675 0.432462,-2.3171821 2.285902,-2.8090031 1.5555045,-0.4127707 3.3221873,-0.1485956 3.6976321,0.5529165 0.4289246,0.801462 -0.5998224,3.374567 -1.8762741,4.6929371 -2.381161,2.45936038 -5.490702,3.37453298 -8.297608,2.44207621 z M -27.516273,-19.663319 c -1.568867,-1.568863 -1.690939,-3.619453 -0.254439,-4.273963 0.632655,-0.288255 0.818096,-0.235204 1.475419,0.422119 1.247885,1.247892 1.262643,4.81186 0.01992,4.81186 -0.154482,0 -0.712893,-0.432006 -1.240903,-0.960016 z m 4.377358,-3.0014 c -0.580291,-0.641216 -1.348512,-2.449412 -1.348512,-3.174057 0,-0.921063 1.103845,-2.059346 1.997038,-2.059346 1.072671,0 1.509708,0.59492 1.671121,2.274739 0.184533,1.92048 -0.353288,3.472025 -1.203532,3.472025 -0.358338,0 -0.860583,-0.231009 -1.116115,-0.513361 z m 12.093055,-0.07955 c -1.362753,-0.794265 -1.169757,-4.446043 0.345534,-6.537836 2.1261679,-2.935096 7.4759138,-3.243334 7.4759138,-0.430739 0,1.906641 -2.7548561,5.598887 -4.9818147,6.67693 -1.3537521,0.655341 -2.0864991,0.730609 -2.8396331,0.291645 z m -6.836177,-1.777607 c -1.609951,-2.639413 -0.623055,-5.962267 1.770819,-5.962267 1.12711,0 1.680622,0.702397 1.680622,2.13269 0,2.212674 -1.243656,4.763429 -2.322489,4.763429 -0.322646,0 -0.80038,-0.39518 -1.128952,-0.933852 z"
         id="path24380-93"
         inkscape:connector-curvature="0" />
    </g>
  </g>
  <g
     inkscape:groupmode="layer"
     id="layer3"
     inkscape:label="icon_48"
     style="display:inline">
    <g
       inkscape:groupmode="layer"
       id="layer9"
       inkscape:label="frame"
       style="display:none">
      <rect
         inkscape:label="frame_48"
         y="4.5367432e-07"
         x="-6.8969723e-07"
         height="48"
         width="48"
         id="frame_48"
         style="color:#000000;clip-rule:nonzero;display:block;overflow:visible;visibility:visible;opacity:1;isolation:auto;mix-blend-mode:normal;color-interpolation:sRGB;color-interpolation-filters:linearRGB;solid-color:#000000;solid-opacity:1;vector-effect:none;fill:#000000;fill-opacity:1;fill-rule:nonzero;stroke:#ff24f7;stroke-width:0;stroke-linecap:square;stroke-linejoin:miter;stroke-miterlimit:4;stroke-dasharray:none;stroke-dashoffset:0;stroke-opacity:0.99481865;marker:none;marker-start:none;marker-mid:none;marker-end:none;paint-order:normal;color-rendering:auto;image-rendering:auto;shape-rendering:auto;text-rendering:auto;enable-background:accumulate" />
      <text
         xml:space="preserve"
         style="font-size:18.66666603px;line-height:1000%;font-family:sans-serif;letter-spacing:0px;word-spacing:0px;display:inline;opacity:1;fill:#ffffff;fill-opacity:1;stroke:none;stroke-width:0.11166908px;stroke-linecap:butt;stroke-linejoin:miter;stroke-opacity:1"
         x="12.301435"
         y="30.794922"
         id="txt_48"
         inkscape:label="txt_48"><tspan
           sodipodi:role="line"
           x="12.301435"
           y="30.794922"
           style="font-size:18.66666603px;fill:#ffffff;fill-opacity:1;stroke:none;stroke-width:0.11166908px"
           id="tspan5049-1">48</tspan></text>
      <text
         xml:space="preserve"
         style="font-size:2.66666675px;line-height:1000%;font-family:sans-serif;letter-spacing:0px;word-spacing:0px;display:inline;opacity:1;fill:#ffffff;fill-opacity:0.44791667;stroke:none;stroke-width:0.0588377px;stroke-linecap:butt;stroke-linejoin:miter;stroke-opacity:1"
         x="25.824219"
         y="45.962238"
         id="txt_scalable_32-64"
         inkscape:label="txt_scalable_32-64"><tspan
           sodipodi:role="line"
           x="25.824219"
           y="45.962238"
           style="font-size:2.66666675px;fill:#ffffff;fill-opacity:0.44791667;stroke:none;stroke-width:0.0588377px"
           id="tspan5049-1-6">Scalable:32-64</tspan></text>
    </g>
    <g
       inkscape:groupmode="layer"
       id="layer10"
       inkscape:label="icon"
       style="display:inline">
      <path
         inkscape:connector-curvature="0"
         id="path24382-2"
         d="M 21.8283,46.954324 C 18.541575,45.862468 16.212408,44.379497 13.591208,41.70979 10.660807,38.725178 8.9353874,35.602061 8.2089609,31.967625 7.2040541,26.93991 9.8711668,22.331141 15.496185,19.375273 c 6.78814,-3.567059 16.068719,-3.904193 19.490252,-0.708027 1.048767,0.97969 1.280415,1.542978 1.280415,3.113501 0,3.00009 -1.656461,4.857902 -8.132397,9.121005 -7.822206,5.149353 -8.639427,6.410246 -5.918256,9.131416 1.112808,1.112808 1.831345,1.465405 2.98622,1.465405 1.494084,0 2.840537,-0.861392 2.911324,-1.862546 0.207407,-2.933475 0.648684,-3.475729 3.42881,-4.213451 2.333226,-0.619148 4.983217,-0.22289 5.546377,0.829364 0.643378,1.202178 -0.899723,5.061786 -2.814376,7.039316 -3.571696,3.688994 -8.235948,5.061736 -12.446254,3.663068 z M 6.7255453,18.508488 c -2.3532697,-2.353264 -2.5363751,-5.42911 -0.381653,-6.410864 0.9489698,-0.432376 1.2271284,-0.352801 2.2131001,0.633171 1.8718036,1.871814 1.8939406,7.217698 0.029873,7.217698 -0.2317197,0 -1.0693259,-0.648 -1.8613306,-1.440005 z M 13.2915,14.006446 c -0.870426,-0.961813 -2.022743,-3.674073 -2.022743,-4.7610259 0,-1.3815757 1.655746,-3.0889797 2.995519,-3.0889797 1.608986,0 2.264534,0.8923687 2.50665,3.4120657 0.276795,2.8806839 -0.529926,5.2079709 -1.805276,5.2079709 -0.537499,0 -1.290858,-0.34651 -1.67415,-0.770031 z m 18.139352,-0.11933 c -2.044104,-1.191382 -1.754614,-6.668979 0.518294,-9.8066292 3.189211,-4.40258739 11.213728,-4.86493909 11.213728,-0.6461005 0,2.8599257 -4.132232,8.3982237 -7.472627,10.0152677 -2.030602,0.982999 -3.12971,1.0959 -4.259395,0.437462 z M 21.176715,11.220739 C 18.76182,7.2616703 20.242146,2.2774525 23.83291,2.2774525 c 1.690645,0 2.520903,1.0535824 2.520903,3.1989952 0,3.3189684 -1.865462,7.1450523 -3.483691,7.1450523 -0.483962,0 -1.200553,-0.592763 -1.693407,-1.400761 z"
         style="display:inline;fill:none;fill-opacity:1;stroke:#000000;stroke-width:1.02130902;stroke-miterlimit:4;stroke-dasharray:none;stroke-opacity:0.17582421" />
      <path
         style="display:inline;fill:url(#linearGradient24390-6);fill-opacity:1;stroke-width:0.4310016"
         d="M 21.8283,46.954324 C 18.541575,45.862468 16.212408,44.379497 13.591208,41.70979 10.660807,38.725178 8.9353874,35.602061 8.2089609,31.967625 7.2040541,26.93991 9.8711668,22.331141 15.496185,19.375273 c 6.78814,-3.567059 16.068719,-3.904193 19.490252,-0.708027 1.048767,0.97969 1.280415,1.542978 1.280415,3.113501 0,3.00009 -1.656461,4.857902 -8.132397,9.121005 -7.822206,5.149353 -8.639427,6.410246 -5.918256,9.131416 1.112808,1.112808 1.831345,1.465405 2.98622,1.465405 1.494084,0 2.840537,-0.861392 2.911324,-1.862546 0.207407,-2.933475 0.648684,-3.475729 3.42881,-4.213451 2.333226,-0.619148 4.983217,-0.22289 5.546377,0.829364 0.643378,1.202178 -0.899723,5.061786 -2.814376,7.039316 -3.571696,3.688994 -8.235948,5.061736 -12.446254,3.663068 z M 6.7255453,18.508488 c -2.3532697,-2.353264 -2.5363751,-5.42911 -0.381653,-6.410864 0.9489698,-0.432376 1.2271284,-0.352801 2.2131001,0.633171 1.8718036,1.871814 1.8939406,7.217698 0.029873,7.217698 -0.2317197,0 -1.0693259,-0.648 -1.8613306,-1.440005 z M 13.2915,14.006446 c -0.870426,-0.961813 -2.022743,-3.674073 -2.022743,-4.7610259 0,-1.3815757 1.655746,-3.0889797 2.995519,-3.0889797 1.608986,0 2.264534,0.8923687 2.50665,3.4120657 0.276795,2.8806839 -0.529926,5.2079709 -1.805276,5.2079709 -0.537499,0 -1.290858,-0.34651 -1.67415,-0.770031 z m 18.139352,-0.11933 c -2.044104,-1.191382 -1.754614,-6.668979 0.518294,-9.8066292 3.189211,-4.40258739 11.213728,-4.86493909 11.213728,-0.6461005 0,2.8599257 -4.132232,8.3982237 -7.472627,10.0152677 -2.030602,0.982999 -3.12971,1.0959 -4.259395,0.437462 z M 21.176715,11.220739 C 18.76182,7.2616703 20.242146,2.2774525 23.83291,2.2774525 c 1.690645,0 2.520903,1.0535824 2.520903,3.1989952 0,3.3189684 -1.865462,7.1450523 -3.483691,7.1450523 -0.483962,0 -1.200553,-0.592763 -1.693407,-1.400761 z"
         id="path24380-6"
         inkscape:connector-curvature="0" />
    </g>
  </g>
  <g
     inkscape:groupmode="layer"
     id="g7907"
     inkscape:label="icon_64"
     style="display:inline">
    <g
       inkscape:groupmode="layer"
       id="g7843"
       inkscape:label="frame"
       style="display:none">
      <rect
         inkscape:label="frame_64"
         y="48"
         x="48"
         height="64"
         width="64"
         id="rect7837"
         style="color:#000000;clip-rule:nonzero;display:inline;overflow:visible;visibility:visible;opacity:1;isolation:auto;mix-blend-mode:normal;color-interpolation:sRGB;color-interpolation-filters:linearRGB;solid-color:#000000;solid-opacity:1;vector-effect:none;fill:#000000;fill-opacity:1;fill-rule:nonzero;stroke:#ff24f7;stroke-width:0;stroke-linecap:square;stroke-linejoin:miter;stroke-miterlimit:4;stroke-dasharray:none;stroke-dashoffset:0;stroke-opacity:0.99481865;marker:none;marker-start:none;marker-mid:none;marker-end:none;paint-order:normal;color-rendering:auto;image-rendering:auto;shape-rendering:auto;text-rendering:auto;enable-background:accumulate" />
      <text
         xml:space="preserve"
         style="font-size:16px;line-height:0%;font-family:sans-serif;letter-spacing:0px;word-spacing:0px;display:inline;opacity:1;fill:#ffffff;fill-opacity:1;stroke:none;stroke-width:0.03278551px;stroke-linecap:butt;stroke-linejoin:miter;stroke-opacity:1"
         x="69.816406"
         y="85.824219"
         id="text7841"
         inkscape:label="txt_64"><tspan
           sodipodi:role="line"
           x="69.816406"
           y="85.824219"
           style="font-size:16px;line-height:0%;fill:#ffffff;fill-opacity:1;stroke:none;stroke-width:0.03278551px"
           id="tspan7839">64</tspan></text>
    </g>
    <g
       inkscape:groupmode="layer"
       id="g7905"
       inkscape:label="icon"
       style="display:inline">
      <path
         inkscape:connector-curvature="0"
         id="path24382-20"
         d="m 77.104243,110.60329 c -4.382272,-1.4558 -7.487808,-3.43308 -10.982719,-6.99267 -3.907176,-3.979458 -6.207722,-8.143588 -7.176284,-12.989471 -1.339867,-6.703577 2.21626,-12.848564 9.716236,-16.789695 9.050796,-4.756049 21.424823,-5.205559 25.98684,-0.944031 1.398347,1.306246 1.707209,2.057291 1.707209,4.151309 0,4.000094 -2.208601,6.477161 -10.84313,12.161261 -10.429541,6.865761 -11.519162,8.54694 -7.890957,12.175147 1.483734,1.48373 2.441777,1.95386 3.981602,1.95386 1.992098,0 3.787357,-1.14852 3.881739,-2.48338 0.276542,-3.911276 0.864907,-4.634276 4.571718,-5.617899 3.110949,-0.825526 6.644249,-0.297186 7.395124,1.105811 0.857833,1.602894 -1.199622,6.749008 -3.752476,9.385698 -4.762234,4.91862 -10.981197,6.74893 -16.594902,4.88406 z M 56.967365,72.675748 c -3.137673,-3.137666 -3.381811,-7.238767 -0.508867,-8.547764 1.265285,-0.576498 1.63616,-0.470398 2.950781,0.844222 2.495723,2.495737 2.525239,9.623536 0.03983,9.623536 -0.308958,0 -1.425759,-0.863995 -2.481758,-1.919994 z m 8.754551,-6.002685 c -1.160561,-1.282409 -2.696974,-4.898732 -2.696974,-6.347994 0,-1.842089 2.207647,-4.118614 3.994001,-4.118614 2.1453,0 3.019358,1.189818 3.342178,4.549392 0.369058,3.840888 -0.706564,6.943918 -2.407019,6.943918 -0.716662,0 -1.721133,-0.46201 -2.232186,-1.026702 z m 24.185648,-0.159105 c -2.725455,-1.5885 -2.339471,-8.891916 0.691054,-13.075423 4.252256,-5.870079 14.951542,-6.486544 14.951542,-0.861462 0,3.81321 -5.50961,11.197561 -9.963437,13.353605 -2.707455,1.310658 -4.172922,1.461191 -5.679159,0.58328 z M 76.235469,62.95881 c -3.21984,-5.278724 -1.246084,-11.924305 3.541571,-11.924305 2.254178,0 3.361181,1.404767 3.361181,4.265299 0,4.425263 -2.487266,9.526676 -4.64489,9.526676 -0.64528,0 -1.600729,-0.790345 -2.257862,-1.86767 z"
         style="display:inline;fill:none;fill-opacity:1;stroke:#000000;stroke-width:1.36173666;stroke-miterlimit:4;stroke-dasharray:none;stroke-opacity:0.17582421" />
      <path
         style="display:inline;fill:url(#linearGradient24390-18);fill-opacity:1;stroke-width:0.57466513"
         d="m 77.104243,110.60329 c -4.382272,-1.4558 -7.487808,-3.43308 -10.982719,-6.99267 -3.907176,-3.979458 -6.207722,-8.143588 -7.176284,-12.989471 -1.339867,-6.703577 2.21626,-12.848564 9.716236,-16.789695 9.050796,-4.756049 21.424823,-5.205559 25.98684,-0.944031 1.398347,1.306246 1.707209,2.057291 1.707209,4.151309 0,4.000094 -2.208601,6.477161 -10.84313,12.161261 -10.429541,6.865761 -11.519162,8.54694 -7.890957,12.175147 1.483734,1.48373 2.441777,1.95386 3.981602,1.95386 1.992098,0 3.787357,-1.14852 3.881739,-2.48338 0.276542,-3.911276 0.864907,-4.634276 4.571718,-5.617899 3.110949,-0.825526 6.644249,-0.297186 7.395124,1.105811 0.857833,1.602894 -1.199622,6.749008 -3.752476,9.385698 -4.762234,4.91862 -10.981197,6.74893 -16.594902,4.88406 z M 56.967365,72.675748 c -3.137673,-3.137666 -3.381811,-7.238767 -0.508867,-8.547764 1.265285,-0.576498 1.63616,-0.470398 2.950781,0.844222 2.495723,2.495737 2.525239,9.623536 0.03983,9.623536 -0.308958,0 -1.425759,-0.863995 -2.481758,-1.919994 z m 8.754551,-6.002685 c -1.160561,-1.282409 -2.696974,-4.898732 -2.696974,-6.347994 0,-1.842089 2.207647,-4.118614 3.994001,-4.118614 2.1453,0 3.019358,1.189818 3.342178,4.549392 0.369058,3.840888 -0.706564,6.943918 -2.407019,6.943918 -0.716662,0 -1.721133,-0.46201 -2.232186,-1.026702 z m 24.185648,-0.159105 c -2.725455,-1.5885 -2.339471,-8.891916 0.691054,-13.075423 4.252256,-5.870079 14.951542,-6.486544 14.951542,-0.861462 0,3.81321 -5.50961,11.197561 -9.963437,13.353605 -2.707455,1.310658 -4.172922,1.461191 -5.679159,0.58328 z M 76.235469,62.95881 c -3.21984,-5.278724 -1.246084,-11.924305 3.541571,-11.924305 2.254178,0 3.361181,1.404767 3.361181,4.265299 0,4.425263 -2.487266,9.526676 -4.64489,9.526676 -0.64528,0 -1.600729,-0.790345 -2.257862,-1.86767 z"
         id="path24380-2"
         inkscape:connector-curvature="0" />
    </g>
  </g>
  <g
     style="display:inline"
     inkscape:label="icon_96"
     id="g8840"
     inkscape:groupmode="layer">
    <g
       style="display:none"
       inkscape:label="frame"
       id="g8776"
       inkscape:groupmode="layer">
      <rect
         style="color:#000000;clip-rule:nonzero;display:inline;overflow:visible;visibility:visible;opacity:1;isolation:auto;mix-blend-mode:normal;color-interpolation:sRGB;color-interpolation-filters:linearRGB;solid-color:#000000;solid-opacity:1;vector-effect:none;fill:#000000;fill-opacity:1;fill-rule:nonzero;stroke:#ff24f7;stroke-width:0;stroke-linecap:square;stroke-linejoin:miter;stroke-miterlimit:4;stroke-dasharray:none;stroke-dashoffset:0;stroke-opacity:0.99481865;marker:none;marker-start:none;marker-mid:none;marker-end:none;paint-order:normal;color-rendering:auto;image-rendering:auto;shape-rendering:auto;text-rendering:auto;enable-background:accumulate"
         id="rect_96"
         width="96"
         height="96"
         x="111.99996"
         y="112"
         inkscape:label="frame_96" />
      <text
         inkscape:label="txt_96"
         id="text_96"
         y="168.73633"
         x="144.72458"
         style="font-size:24px;line-height:0%;font-family:sans-serif;letter-spacing:0px;word-spacing:0px;display:inline;opacity:1;fill:#ffffff;fill-opacity:1;stroke:none;stroke-width:0.04917826px;stroke-linecap:butt;stroke-linejoin:miter;stroke-opacity:1"
         xml:space="preserve"><tspan
           id="tspan8768"
           style="font-size:24px;line-height:0%;fill:#ffffff;fill-opacity:1;stroke:none;stroke-width:0.04917826px"
           y="168.73633"
           x="144.72458"
           sodipodi:role="line">96</tspan></text>
    </g>
    <g
       style="display:inline"
       inkscape:label="icon"
       id="g8838"
       inkscape:groupmode="layer">
      <path
         inkscape:connector-curvature="0"
         id="path24382"
         d="m 155.74672,204.94849 c -6.4363,-2.13815 -10.99744,-5.04221 -16.13046,-10.27022 -5.73852,-5.84468 -9.11736,-11.96059 -10.5399,-19.0778 -1.96788,-9.84563 3.25505,-18.87085 14.27036,-24.65924 13.29302,-6.98527 31.46691,-7.64547 38.1672,-1.38651 2.05377,1.9185 2.5074,3.02157 2.5074,6.09708 0,5.87499 -3.2438,9.51309 -15.92544,17.8614 -15.318,10.08383 -16.91834,12.553 -11.58955,17.88179 2.17918,2.17918 3.58627,2.86966 5.84783,2.86966 2.92582,0 5.56254,-1.68684 5.70116,-3.64737 0.40616,-5.74454 1.2703,-6.80642 6.71454,-8.25108 4.56909,-1.21246 9.75849,-0.43648 10.86131,1.62412 1.25991,2.35419 -1.7619,9.91235 -5.51131,13.78489 -6.99435,7.22405 -16.12822,9.91225 -24.37314,7.17328 z m -29.57529,-55.70466 c -4.60834,-4.60833 -4.96691,-10.63167 -0.74738,-12.55421 1.85834,-0.84671 2.40305,-0.69088 4.33385,1.23992 3.6655,3.66552 3.70885,14.13421 0.0585,14.13421 -0.45377,0 -2.09403,-1.26896 -3.64499,-2.81992 z m 12.85792,-8.81622 c -1.70453,-1.88349 -3.96108,-7.19483 -3.96108,-9.32338 0,-2.7055 3.2424,-6.04906 5.86604,-6.04906 3.15083,0 4.43457,1.7475 4.9087,6.68175 0.54204,5.64116 -1.03774,10.19862 -3.53522,10.19862 -1.05257,0 -2.52785,-0.67856 -3.27844,-1.50793 z m 35.52177,-0.23368 c -4.00291,-2.33305 -3.43601,-13.05967 1.01496,-19.20404 6.24534,-8.62146 21.95952,-9.52687 21.95952,-1.26524 0,5.60051 -8.09203,16.446 -14.63343,19.61261 -3.97647,1.92498 -6.12882,2.14607 -8.34105,0.85667 z m -20.08038,-5.22149 c -4.72902,-7.75293 -1.83014,-17.51338 5.20155,-17.51338 3.31074,0 4.93661,2.0632 4.93661,6.2645 0,6.49944 -3.65308,13.99195 -6.82201,13.99195 -0.94773,0 -2.35101,-1.16079 -3.31615,-2.74307 z"
         style="fill:none;fill-opacity:1;stroke:#000000;stroke-width:2;stroke-miterlimit:4;stroke-dasharray:none;stroke-opacity:0.17582421" />
      <path
         style="fill:url(#linearGradient24390);fill-opacity:1;stroke-width:0.84401798"
         d="m 155.74672,204.94849 c -6.4363,-2.13815 -10.99744,-5.04221 -16.13046,-10.27022 -5.73852,-5.84468 -9.11736,-11.96059 -10.5399,-19.0778 -1.96788,-9.84563 3.25505,-18.87085 14.27036,-24.65924 13.29302,-6.98527 31.46691,-7.64547 38.1672,-1.38651 2.05377,1.9185 2.5074,3.02157 2.5074,6.09708 0,5.87499 -3.2438,9.51309 -15.92544,17.8614 -15.318,10.08383 -16.91834,12.553 -11.58955,17.88179 2.17918,2.17918 3.58627,2.86966 5.84783,2.86966 2.92582,0 5.56254,-1.68684 5.70116,-3.64737 0.40616,-5.74454 1.2703,-6.80642 6.71454,-8.25108 4.56909,-1.21246 9.75849,-0.43648 10.86131,1.62412 1.25991,2.35419 -1.7619,9.91235 -5.51131,13.78489 -6.99435,7.22405 -16.12822,9.91225 -24.37314,7.17328 z m -29.57529,-55.70466 c -4.60834,-4.60833 -4.96691,-10.63167 -0.74738,-12.55421 1.85834,-0.84671 2.40305,-0.69088 4.33385,1.23992 3.6655,3.66552 3.70885,14.13421 0.0585,14.13421 -0.45377,0 -2.09403,-1.26896 -3.64499,-2.81992 z m 12.85792,-8.81622 c -1.70453,-1.88349 -3.96108,-7.19483 -3.96108,-9.32338 0,-2.7055 3.2424,-6.04906 5.86604,-6.04906 3.15083,0 4.43457,1.7475 4.9087,6.68175 0.54204,5.64116 -1.03774,10.19862 -3.53522,10.19862 -1.05257,0 -2.52785,-0.67856 -3.27844,-1.50793 z m 35.52177,-0.23368 c -4.00291,-2.33305 -3.43601,-13.05967 1.01496,-19.20404 6.24534,-8.62146 21.95952,-9.52687 21.95952,-1.26524 0,5.60051 -8.09203,16.446 -14.63343,19.61261 -3.97647,1.92498 -6.12882,2.14607 -8.34105,0.85667 z m -20.08038,-5.22149 c -4.72902,-7.75293 -1.83014,-17.51338 5.20155,-17.51338 3.31074,0 4.93661,2.0632 4.93661,6.2645 0,6.49944 -3.65308,13.99195 -6.82201,13.99195 -0.94773,0 -2.35101,-1.16079 -3.31615,-2.74307 z"
         id="path24380"
         inkscape:connector-curvature="0" />
    </g>
  </g>
  <g
     inkscape:groupmode="layer"
     id="layer4"
     inkscape:label="icon_128"
     style="display:inline">
    <g
       inkscape:groupmode="layer"
       id="layer11"
       inkscape:label="frame"
       style="display:none">
      <rect
         inkscape:label="frame_128"
         y="208"
         x="207.99995"
         height="128"
         width="128"
         id="frame_128"
         style="color:#000000;clip-rule:nonzero;display:inline;overflow:visible;visibility:visible;opacity:1;isolation:auto;mix-blend-mode:normal;color-interpolation:sRGB;color-interpolation-filters:linearRGB;solid-color:#000000;solid-opacity:1;vector-effect:none;fill:#000000;fill-opacity:1;fill-rule:nonzero;stroke:#ff24f7;stroke-width:0;stroke-linecap:square;stroke-linejoin:miter;stroke-miterlimit:4;stroke-dasharray:none;stroke-dashoffset:0;stroke-opacity:0.99481865;marker:none;marker-start:none;marker-mid:none;marker-end:none;paint-order:normal;color-rendering:auto;image-rendering:auto;shape-rendering:auto;text-rendering:auto;enable-background:accumulate" />
      <text
         xml:space="preserve"
         style="font-size:38.46457672px;line-height:0%;font-family:sans-serif;letter-spacing:0px;word-spacing:0px;display:inline;opacity:1;fill:#ffffff;fill-opacity:1;stroke:none;stroke-width:0.07881754px;stroke-linecap:butt;stroke-linejoin:miter;stroke-opacity:1"
         x="236.17479"
         y="283.34512"
         id="txt_128"
         inkscape:label="txt_128"><tspan
           sodipodi:role="line"
           x="236.17479"
           y="283.34512"
           style="font-size:38.46457672px;line-height:0%;fill:#ffffff;fill-opacity:1;stroke:none;stroke-width:0.07881754px"
           id="tspan5069-6">128</tspan></text>
      <text
         xml:space="preserve"
         style="font-size:7.43228436px;line-height:1000%;font-family:sans-serif;letter-spacing:0px;word-spacing:0px;display:inline;opacity:1;fill:#ffffff;fill-opacity:0.42156863;stroke:none;stroke-width:0.16398695px;stroke-linecap:butt;stroke-linejoin:miter;stroke-opacity:1"
         x="265.97781"
         y="330.1329"
         id="txt_scalable_64_512"
         inkscape:label="txt_scalable_64_512"><tspan
           sodipodi:role="line"
           x="265.97781"
           y="330.1329"
           style="font-size:8.08990479px;fill:#ffffff;fill-opacity:0.42156863;stroke:none;stroke-width:0.16398695px"
           id="tspan5049-1-6-6">Scalable:96-512</tspan></text>
    </g>
    <g
       inkscape:groupmode="layer"
       id="layer12"
       inkscape:label="icon"
       style="display:inline">
      <path
         inkscape:connector-curvature="0"
         id="path24382-22"
         d="m 266.56996,329.38349 c -8.21681,-2.72964 -14.03973,-6.43706 -20.59273,-13.11133 -7.326,-7.46153 -11.63955,-15.26932 -13.45562,-24.35541 -2.51226,-12.56929 4.15552,-24.09121 18.21806,-31.48088 16.97035,-8.91765 40.1718,-9.76049 48.72563,-1.77007 2.62192,2.44922 3.20104,3.85744 3.20104,7.78375 0,7.50023 -4.14115,12.14476 -20.33099,22.80251 -19.55552,12.87339 -21.59857,16.02562 -14.79564,22.82854 2.78202,2.78202 4.57836,3.66352 7.46555,3.66352 3.73521,0 7.10134,-2.15348 7.27831,-4.65637 0.51852,-7.33369 1.62171,-8.68932 8.57202,-10.53363 5.83307,-1.54787 12.45804,-0.55722 13.86594,2.07341 1.60845,3.00545 -2.2493,12.65447 -7.03593,17.59829 -8.92924,9.22249 -20.58987,12.65434 -31.11564,9.15767 z M 228.81307,258.2689 c -5.88317,-5.88316 -6.34093,-13.57277 -0.95413,-16.02716 2.37243,-1.08094 3.06782,-0.882 5.53275,1.58293 4.67951,4.67954 4.73485,18.04425 0.0747,18.04425 -0.57929,0 -2.67331,-1.62 -4.65332,-3.60002 z m 16.41489,-11.2551 c -2.17606,-2.40453 -5.05686,-9.18518 -5.05686,-11.90257 0,-3.45394 4.13937,-7.72245 7.4888,-7.72245 4.02247,0 5.66133,2.23093 6.26663,8.53017 0.69198,7.20171 -1.32482,13.01993 -4.51319,13.01993 -1.34375,0 -3.22715,-0.86628 -4.18538,-1.92508 z m 45.34838,-0.29833 c -5.11026,-2.97845 -4.38653,-16.67244 1.29574,-24.51657 7.97302,-11.00647 28.03432,-12.16235 28.03432,-1.61525 0,7.14981 -10.33058,20.99556 -18.68157,25.03817 -5.07651,2.4575 -7.82428,2.73975 -10.64849,1.09365 z M 264.941,240.04953 c -6.03724,-9.89767 -2.33642,-22.35822 6.64049,-22.35822 4.22661,0 6.30225,2.63396 6.30225,7.99749 0,8.29742 -4.66365,17.86263 -8.70922,17.86263 -1.20991,0 -3.00139,-1.4819 -4.23352,-3.5019 z"
         style="display:inline;fill:none;fill-opacity:1;stroke:#000000;stroke-width:2.55327249;stroke-miterlimit:4;stroke-dasharray:none;stroke-opacity:0.17582421" />
      <path
         style="display:inline;fill:url(#linearGradient24390-37);fill-opacity:1;stroke-width:1.07750392"
         d="m 266.56996,329.38349 c -8.21681,-2.72964 -14.03973,-6.43706 -20.59273,-13.11133 -7.326,-7.46153 -11.63955,-15.26932 -13.45562,-24.35541 -2.51226,-12.56929 4.15552,-24.09121 18.21806,-31.48088 16.97035,-8.91765 40.1718,-9.76049 48.72563,-1.77007 2.62192,2.44922 3.20104,3.85744 3.20104,7.78375 0,7.50023 -4.14115,12.14476 -20.33099,22.80251 -19.55552,12.87339 -21.59857,16.02562 -14.79564,22.82854 2.78202,2.78202 4.57836,3.66352 7.46555,3.66352 3.73521,0 7.10134,-2.15348 7.27831,-4.65637 0.51852,-7.33369 1.62171,-8.68932 8.57202,-10.53363 5.83307,-1.54787 12.45804,-0.55722 13.86594,2.07341 1.60845,3.00545 -2.2493,12.65447 -7.03593,17.59829 -8.92924,9.22249 -20.58987,12.65434 -31.11564,9.15767 z M 228.81307,258.2689 c -5.88317,-5.88316 -6.34093,-13.57277 -0.95413,-16.02716 2.37243,-1.08094 3.06782,-0.882 5.53275,1.58293 4.67951,4.67954 4.73485,18.04425 0.0747,18.04425 -0.57929,0 -2.67331,-1.62 -4.65332,-3.60002 z m 16.41489,-11.2551 c -2.17606,-2.40453 -5.05686,-9.18518 -5.05686,-11.90257 0,-3.45394 4.13937,-7.72245 7.4888,-7.72245 4.02247,0 5.66133,2.23093 6.26663,8.53017 0.69198,7.20171 -1.32482,13.01993 -4.51319,13.01993 -1.34375,0 -3.22715,-0.86628 -4.18538,-1.92508 z m 45.34838,-0.29833 c -5.11026,-2.97845 -4.38653,-16.67244 1.29574,-24.51657 7.97302,-11.00647 28.03432,-12.16235 28.03432,-1.61525 0,7.14981 -10.33058,20.99556 -18.68157,25.03817 -5.07651,2.4575 -7.82428,2.73975 -10.64849,1.09365 z M 264.941,240.04953 c -6.03724,-9.89767 -2.33642,-22.35822 6.64049,-22.35822 4.22661,0 6.30225,2.63396 6.30225,7.99749 0,8.29742 -4.66365,17.86263 -8.70922,17.86263 -1.20991,0 -3.00139,-1.4819 -4.23352,-3.5019 z"
         id="path24380-8"
         inkscape:connector-curvature="0" />
    </g>
  </g>
</svg>
