<?xml version="1.0" encoding="UTF-8" standalone="yes"?>
<svg xmlns:dc="http://purl.org/dc/elements/1.1/" xmlns:cc="http://creativecommons.org/ns#" xmlns:rdf="http://www.w3.org/1999/02/22-rdf-syntax-ns#" xmlns:svg="http://www.w3.org/2000/svg" xmlns="http://www.w3.org/2000/svg" xmlns:xlink="http://www.w3.org/1999/xlink" xmlns:sodipodi="http://sodipodi.sourceforge.net/DTD/sodipodi-0.dtd" xmlns:inkscape="http://www.inkscape.org/namespaces/inkscape" height="48" viewBox="0 0 48 48" width="48" id="svg2" version="1.1" inkscape:version="0.92.1 r" sodipodi:docname="atom.svg" enable-background="new" folder="48">
  <title id="title4675">Template icons dark</title>
  <metadata id="metadata24">
    <rdf:RDF>
      <cc:Work rdf:about="">
        <dc:format>image/svg+xml</dc:format>
        <dc:type rdf:resource="http://purl.org/dc/dcmitype/StillImage"/>
        <dc:title>Template icons dark</dc:title>
        <dc:date>17/05/13</dc:date>
        <dc:creator>
          <cc:Agent>
            <dc:title>wfpaisa</dc:title>
          </cc:Agent>
        </dc:creator>
        <dc:rights>
          <cc:Agent>
            <dc:title>License: GPLv3</dc:title>
          </cc:Agent>
        </dc:rights>
        <dc:language>es-en</dc:language>
        <dc:subject>
          <rdf:Bag>
            <rdf:li>plane-icon-theme</rdf:li>
          </rdf:Bag>
        </dc:subject>
        <dc:description>Template for create set icons</dc:description>
        <cc:license rdf:resource="https://www.gnu.org/licenses/gpl-3.0.en.html"/>
      </cc:Work>
    </rdf:RDF>
  </metadata>
  <defs id="defs22">
    <linearGradient inkscape:collect="always" id="linearGradient7774">
      <stop style="stop-color:#ff053c;stop-opacity:1" offset="0" id="stop7770"/>
      <stop style="stop-color:#0b31ff;stop-opacity:0.97395831" offset="1" id="stop7772"/>
    </linearGradient>
    <linearGradient inkscape:collect="always" xlink:href="#linearGradient5467" id="linearGradient5473" x1="24.53476" y1="7.9960122" x2="24.704725" y2="38.249725" gradientUnits="userSpaceOnUse" gradientTransform="matrix(2.1310889,0,0,2.1310889,108.68013,105.53144)"/>
    <linearGradient inkscape:collect="always" id="linearGradient5467">
      <stop style="stop-color:#20c686;stop-opacity:1" offset="0" id="stop5469"/>
      <stop style="stop-color:#259d68;stop-opacity:1" offset="1" id="stop5471"/>
    </linearGradient>
    <linearGradient inkscape:collect="always" xlink:href="#linearGradient7774" id="linearGradient7776" x1="122" y1="183" x2="196" y2="142" gradientUnits="userSpaceOnUse"/>
    <linearGradient gradientTransform="matrix(0.5106383,0,0,0.5106383,-57.702128,-57.702128)" inkscape:collect="always" xlink:href="#linearGradient7774" id="linearGradient7776-3" x1="122" y1="183" x2="196" y2="142" gradientUnits="userSpaceOnUse"/>
    <linearGradient inkscape:collect="always" xlink:href="#linearGradient5467" id="linearGradient5473-5" x1="24.53476" y1="7.9960122" x2="24.704725" y2="38.249725" gradientUnits="userSpaceOnUse" gradientTransform="matrix(1.0882156,0,0,1.0882156,-2.205891,-3.8137327)"/>
    <linearGradient inkscape:collect="always" xlink:href="#linearGradient5467" id="linearGradient7902" gradientUnits="userSpaceOnUse" gradientTransform="matrix(1.4056119,0,0,1.4056119,46.150729,44.073933)" x1="24.53476" y1="7.9960122" x2="24.704725" y2="38.249725"/>
    <linearGradient inkscape:collect="always" xlink:href="#linearGradient7774" id="linearGradient7904" gradientUnits="userSpaceOnUse" gradientTransform="matrix(0.65957449,0,0,0.65957449,-25.531913,-25.531913)" x1="122" y1="183" x2="196" y2="142"/>
    <linearGradient inkscape:collect="always" xlink:href="#linearGradient5467" id="linearGradient5473-7" x1="24.53476" y1="7.9960122" x2="24.704725" y2="38.249725" gradientUnits="userSpaceOnUse" gradientTransform="matrix(2.8112236,0,0,2.8112236,204.30144,200.14785)"/>
    <linearGradient gradientTransform="matrix(1.3191489,0,0,1.3191489,60.936166,60.936166)" inkscape:collect="always" xlink:href="#linearGradient7774" id="linearGradient7776-2" x1="122" y1="183" x2="196" y2="142" gradientUnits="userSpaceOnUse"/>
    <linearGradient inkscape:collect="always" xlink:href="#linearGradient5467" id="linearGradient5473-9" x1="24.53476" y1="7.9960122" x2="24.704725" y2="38.249725" gradientUnits="userSpaceOnUse" gradientTransform="matrix(0.72547707,0,0,0.72547707,-33.470593,-34.542488)"/>
    <linearGradient gradientTransform="matrix(0.34042553,0,0,0.34042553,-70.468084,-70.468084)" inkscape:collect="always" xlink:href="#linearGradient7774" id="linearGradient7776-8" x1="122" y1="183" x2="196" y2="142" gradientUnits="userSpaceOnUse"/>
    <linearGradient inkscape:collect="always" xlink:href="#linearGradient5467" id="linearGradient5473-9-1" x1="24.53476" y1="7.9960122" x2="24.704725" y2="38.249725" gradientUnits="userSpaceOnUse" gradientTransform="matrix(0.5441078,0,0,0.5441078,-57.102945,-57.906866)"/>
    <linearGradient gradientTransform="matrix(0.25531915,0,0,0.25531915,-84.851063,-84.851063)" inkscape:collect="always" xlink:href="#linearGradient7774" id="linearGradient7776-8-4" x1="122" y1="183" x2="196" y2="142" gradientUnits="userSpaceOnUse"/>
  </defs>
  <sodipodi:namedview pagecolor="#383c4a" bordercolor="#ffffff" borderopacity="0.62745098" objecttolerance="4" gridtolerance="10" guidetolerance="4" inkscape:pageopacity="0" inkscape:pageshadow="2" inkscape:window-width="640" inkscape:window-height="480" id="namedview20" showgrid="true" inkscape:zoom="16.386532" inkscape:cx="100.73209" inkscape:cy="-55.455318" inkscape:current-layer="g7905" inkscape:snap-smooth-nodes="false" showguides="true" borderlayer="true" inkscape:showpageshadow="false" inkscape:guide-bbox="true" guidecolor="#bd4fff" guideopacity="0.78431373" inkscape:snap-nodes="true" inkscape:lockguides="false" fit-margin-top="0" fit-margin-left="0" fit-margin-right="0" fit-margin-bottom="0" guidehicolor="#ff0101" guidehiopacity="0.78431373" inkscape:snap-page="true" inkscape:object-nodes="true" inkscape:snap-bbox="true" inkscape:snap-global="true" inkscape:snap-object-midpoints="false" inkscape:snap-bbox-edge-midpoints="false">
    <inkscape:grid type="xygrid" id="grid4171" empspacing="4" dotted="false" originx="2.7755576e-17" originy="0" spacingx="1" spacingy="1" color="#5a5a5a" opacity="0.23529412" empcolor="#5a5a5a" empopacity="0.47058824" visible="true"/>
    <inkscape:grid type="axonomgrid" id="grid4699" units="mm" empspacing="4" color="#5a5a5a" opacity="0.23529412" empcolor="#5a5a5a" empopacity="0.47058824" gridanglex="45" gridanglez="45" spacingy="3.7795276" visible="false" originx="1.3228346" originy="1.3228346"/>
    <sodipodi:guide position="48,0" orientation="1,0" id="guide4568" inkscape:locked="false" inkscape:label="" inkscape:color="rgb(189,79,255)"/>
    <sodipodi:guide position="111.99996,-3.9999999e-05" orientation="0,1" id="guide4570" inkscape:locked="false" inkscape:label="" inkscape:color="rgb(189,79,255)"/>
    <sodipodi:guide position="0,0" orientation="1,0" id="guide4572" inkscape:locked="false" inkscape:label="" inkscape:color="rgb(189,79,255)"/>
    <sodipodi:guide position="0,48" orientation="0,1" id="guide4574" inkscape:locked="false" inkscape:label="" inkscape:color="rgb(189,79,255)"/>
    <sodipodi:guide position="0,80" orientation="0,1" id="guide4576" inkscape:locked="false" inkscape:label="" inkscape:color="rgb(189,79,255)"/>
    <sodipodi:guide position="-32,48" orientation="1,0" id="guide4578" inkscape:locked="false" inkscape:label="" inkscape:color="rgb(189,79,255)"/>
    <sodipodi:guide position="-32,104" orientation="0,1" id="guide4580" inkscape:locked="false" inkscape:label="" inkscape:color="rgb(189,79,255)"/>
    <sodipodi:guide position="-56,80" orientation="1,0" id="guide4582" inkscape:locked="false" inkscape:label="" inkscape:color="rgb(189,79,255)"/>
    <sodipodi:guide position="48,-64" orientation="0,1" id="guide4584" inkscape:locked="false" inkscape:label="" inkscape:color="rgb(189,79,255)"/>
    <sodipodi:guide position="0,0" orientation="-0.70710678,0.70710678" id="guide4588" inkscape:locked="false" inkscape:label="" inkscape:color="rgb(189,79,255)"/>
    <sodipodi:guide position="-56,80" orientation="-0.70710678,0.70710678" id="guide4573" inkscape:locked="false" inkscape:label="" inkscape:color="rgb(189,79,255)"/>
    <sodipodi:guide position="-32,48" orientation="-0.70710678,0.70710678" id="guide4575" inkscape:locked="false" inkscape:label="" inkscape:color="rgb(189,79,255)"/>
    <sodipodi:guide position="48,-64" orientation="-0.70710678,0.70710678" id="guide4577" inkscape:locked="false" inkscape:label="" inkscape:color="rgb(189,79,255)"/>
    <sodipodi:guide position="47.999962,0" orientation="0.70710678,0.70710678" id="guide4697" inkscape:locked="false" inkscape:label="" inkscape:color="rgb(189,79,255)"/>
    <sodipodi:guide position="207.99995,-288" orientation="0,1" id="guide7833" inkscape:locked="false"/>
    <sodipodi:guide position="335.99994,-288" orientation="1,0" id="guide7835" inkscape:locked="false" inkscape:label="" inkscape:color="rgb(189,79,255)"/>
    <sodipodi:guide position="111.99996,-64" orientation="1,0" id="guide7915" inkscape:locked="false"/>
    <sodipodi:guide position="111.99996,-160" orientation="0,1" id="guide7917" inkscape:locked="false"/>
    <sodipodi:guide position="207.99996,-160" orientation="1,0" id="guide7919" inkscape:locked="false"/>
    <sodipodi:guide position="111.99996,-160" orientation="-0.70710678,0.70710678" id="guide7921" inkscape:locked="false" inkscape:label="" inkscape:color="rgb(189,79,255)"/>
    <sodipodi:guide position="207.99996,-288" orientation="-0.70710678,0.70710678" id="guide7923" inkscape:locked="false" inkscape:label="" inkscape:color="rgb(189,79,255)"/>
    <sodipodi:guide position="-72,104" orientation="1,0" id="guide7824" inkscape:locked="false"/>
    <sodipodi:guide position="-56,120" orientation="0,1" id="guide7826" inkscape:locked="false"/>
    <sodipodi:guide position="-72,104" orientation="-0.70710678,0.70710678" id="guide7828" inkscape:locked="false" inkscape:label="" inkscape:color="rgb(189,79,255)"/>
  </sodipodi:namedview>
  <g inkscape:groupmode="layer" id="layer3" inkscape:label="icon_48" style="display:inline" transform="translate(6.8969723e-7,-4.5367432e-7)">
    <g inkscape:groupmode="layer" id="layer9" inkscape:label="frame" style="display:none">
      <rect inkscape:label="frame_48" y="4.5367432e-07" x="-6.8969723e-07" height="48" width="48" id="frame_48" style="color:#000000;clip-rule:nonzero;display:block;overflow:visible;visibility:visible;opacity:1;isolation:auto;mix-blend-mode:normal;color-interpolation:sRGB;color-interpolation-filters:linearRGB;solid-color:#000000;solid-opacity:1;vector-effect:none;fill:#000000;fill-opacity:1;fill-rule:nonzero;stroke:#ff24f7;stroke-width:0;stroke-linecap:square;stroke-linejoin:miter;stroke-miterlimit:4;stroke-dasharray:none;stroke-dashoffset:0;stroke-opacity:0.99481865;marker:none;marker-start:none;marker-mid:none;marker-end:none;paint-order:normal;color-rendering:auto;image-rendering:auto;shape-rendering:auto;text-rendering:auto;enable-background:accumulate"/>
      <text xml:space="preserve" style="font-size:18.66666603px;line-height:1000%;font-family:sans-serif;letter-spacing:0px;word-spacing:0px;display:inline;opacity:1;fill:#ffffff;fill-opacity:1;stroke:none;stroke-width:0.11166908px;stroke-linecap:butt;stroke-linejoin:miter;stroke-opacity:1" x="12.301435" y="30.794922" id="txt_48" inkscape:label="txt_48">
        <tspan sodipodi:role="line" x="12.301435" y="30.794922" style="font-size:18.66666603px;fill:#ffffff;fill-opacity:1;stroke:none;stroke-width:0.11166908px" id="tspan5049-1">48</tspan>
      </text>
      <text xml:space="preserve" style="font-size:2.66666675px;line-height:1000%;font-family:sans-serif;letter-spacing:0px;word-spacing:0px;display:inline;opacity:1;fill:#ffffff;fill-opacity:0.44791667;stroke:none;stroke-width:0.0588377px;stroke-linecap:butt;stroke-linejoin:miter;stroke-opacity:1" x="25.824219" y="45.962238" id="txt_scalable_32-64" inkscape:label="txt_scalable_32-64">
        <tspan sodipodi:role="line" x="25.824219" y="45.962238" style="font-size:2.66666675px;fill:#ffffff;fill-opacity:0.44791667;stroke:none;stroke-width:0.0588377px" id="tspan5049-1-6">Scalable:32-64</tspan>
      </text>
    </g>
    <g inkscape:groupmode="layer" id="layer10" inkscape:label="icon" style="display:inline">
      <circle style="color:#000000;clip-rule:nonzero;display:block;overflow:visible;visibility:visible;opacity:1;isolation:auto;mix-blend-mode:normal;color-interpolation:sRGB;color-interpolation-filters:linearRGB;solid-color:#000000;solid-opacity:1;fill:#000000;fill-opacity:0.15686275;fill-rule:nonzero;stroke:none;stroke-width:1.04168296;stroke-linecap:butt;stroke-linejoin:miter;stroke-miterlimit:4;stroke-dasharray:none;stroke-dashoffset:0;stroke-opacity:1;marker:none;marker-start:none;marker-mid:none;marker-end:none;color-rendering:auto;image-rendering:auto;shape-rendering:auto;text-rendering:auto;enable-background:accumulate" id="path5465-5-6" cx="24" cy="24" r="24" inkscape:label="sombra"/>
      <circle style="color:#000000;clip-rule:nonzero;display:inline;overflow:visible;visibility:visible;opacity:1;isolation:auto;mix-blend-mode:normal;color-interpolation:sRGB;color-interpolation-filters:linearRGB;solid-color:#000000;solid-opacity:1;fill:url(#linearGradient5473-5);fill-opacity:1;fill-rule:nonzero;stroke:#ffffff;stroke-width:1.26657462;stroke-linecap:butt;stroke-linejoin:miter;stroke-miterlimit:4;stroke-dasharray:none;stroke-dashoffset:0;stroke-opacity:1;marker:none;marker-start:none;marker-mid:none;marker-end:none;color-rendering:auto;image-rendering:auto;shape-rendering:auto;text-rendering:auto;enable-background:accumulate" id="path5465-2" cx="24" cy="24.000015" r="22.727312" inkscape:label="circle"/>
      <circle inkscape:label="circle" r="22.727312" cy="24.000015" cx="24" id="circle7768-9" style="color:#000000;clip-rule:nonzero;display:inline;overflow:visible;visibility:visible;opacity:0.10899999;isolation:auto;mix-blend-mode:normal;color-interpolation:sRGB;color-interpolation-filters:linearRGB;solid-color:#000000;solid-opacity:1;fill:url(#linearGradient7776-3);fill-opacity:1;fill-rule:nonzero;stroke:#ffffff;stroke-width:1.26657462;stroke-linecap:butt;stroke-linejoin:miter;stroke-miterlimit:4;stroke-dasharray:none;stroke-dashoffset:0;stroke-opacity:1;marker:none;marker-start:none;marker-mid:none;marker-end:none;color-rendering:auto;image-rendering:auto;shape-rendering:auto;text-rendering:auto;enable-background:accumulate"/>
      <circle inkscape:label="circle" r="3.8675735" cy="24.000015" cx="24" id="circle7778-2" style="color:#000000;clip-rule:nonzero;display:inline;overflow:visible;visibility:visible;opacity:1;isolation:auto;mix-blend-mode:normal;color-interpolation:sRGB;color-interpolation-filters:linearRGB;solid-color:#000000;solid-opacity:1;fill:#efefef;fill-opacity:0.21354167;fill-rule:nonzero;stroke:none;stroke-width:0.21553671;stroke-linecap:butt;stroke-linejoin:miter;stroke-miterlimit:4;stroke-dasharray:none;stroke-dashoffset:0;stroke-opacity:1;marker:none;marker-start:none;marker-mid:none;marker-end:none;color-rendering:auto;image-rendering:auto;shape-rendering:auto;text-rendering:auto;enable-background:accumulate"/>
      <circle style="color:#000000;clip-rule:nonzero;display:inline;overflow:visible;visibility:visible;opacity:1;isolation:auto;mix-blend-mode:normal;color-interpolation:sRGB;color-interpolation-filters:linearRGB;solid-color:#000000;solid-opacity:1;fill:none;fill-opacity:0.21354167;fill-rule:nonzero;stroke:#ffffff;stroke-width:0.88499999;stroke-linecap:butt;stroke-linejoin:miter;stroke-miterlimit:4;stroke-dasharray:0.885, 3.54;stroke-dashoffset:0;stroke-opacity:0.34375;marker:none;marker-start:none;marker-mid:none;marker-end:none;color-rendering:auto;image-rendering:auto;shape-rendering:auto;text-rendering:auto;enable-background:accumulate" id="circle7786-3" cx="24" cy="24.000015" r="18.699154" inkscape:label="circle"/>
      <path inkscape:connector-curvature="0" id="path7745-1" d="m 29.766827,40.427173 c -2.57231,-0.427175 -5.912941,-3.371806 -8.962922,-7.900438 -1.279573,-1.899932 -2.588809,-4.246248 -3.443439,-6.171089 -0.171431,-0.386099 -0.234086,-0.478953 -0.28588,-0.42362 -0.103742,0.110788 -0.848293,1.729756 -1.240571,2.697344 -0.659852,1.627593 -1.124946,3.179413 -1.391458,4.642841 -0.170743,0.937512 -0.185423,2.754046 -0.02676,3.316815 0.368558,1.307679 1.167769,1.851197 2.414732,1.642172 0.898856,-0.150679 1.986945,-0.64299 3.141432,-1.421356 0.512711,-0.345672 0.647555,-0.411452 0.845851,-0.412611 0.303217,-0.002 0.529558,0.163174 0.635617,0.46322 0.07029,0.198929 0.07008,0.256637 -0.002,0.446747 -0.06923,0.182462 -0.189146,0.290436 -0.730305,0.657391 -0.747411,0.506844 -2.026151,1.16015 -2.680345,1.369394 -1.714009,0.548277 -3.047449,0.34729 -3.987544,-0.601006 -0.862346,-0.869867 -1.233876,-2.277171 -1.119381,-4.240039 0.149015,-2.554463 1.272006,-6.041781 3.046397,-9.460244 l 0.444955,-0.857213 -0.336087,-0.90935 c -0.321641,-0.870265 -0.957779,-2.887833 -0.957779,-3.0377 0,-0.11039 -0.194629,-0.08771 -1.047906,0.12219 -1.955076,0.480935 -3.407709,1.093037 -4.4494927,1.874906 -2.0477413,1.536847 -1.5053362,3.270367 1.5633297,4.996509 0.48866,0.274871 0.601537,0.422895 0.601537,0.788859 0,0.191245 -0.03534,0.26973 -0.192041,0.426424 -0.335556,0.335576 -0.648016,0.265629 -1.6840291,-0.376922 C 8.4243268,27.131081 7.4769804,26.07362 7.1432936,24.957942 7.0214349,24.550478 7.0210009,23.729724 7.142783,23.319917 c 0.1770485,-0.597488 0.4750366,-1.072034 1.0128817,-1.613 1.2053362,-1.212326 3.2041843,-2.1432 5.9455913,-2.768864 0.558378,-0.127445 0.687324,-0.175098 0.666291,-0.246266 -0.01435,-0.04856 -0.07815,-0.367843 -0.141819,-0.709567 -0.372465,-1.999599 -0.383796,-4.292232 -0.02747,-5.563624 0.41086,-1.465992 1.154727,-2.338535 2.340874,-2.7457637 0.484304,-0.166274 1.453695,-0.1399046 2.118132,0.057554 0.668242,0.1986383 1.497937,0.6071847 2.231102,1.0986077 0.873758,0.585661 1.131406,0.831391 1.168386,1.114386 0.08495,0.650237 -0.586815,1.000897 -1.135251,0.59255 -1.71959,-1.280379 -2.947037,-1.767579 -3.930495,-1.560092 -0.7147,0.150782 -1.261032,0.88559 -1.536766,2.06687 -0.10964,0.469813 -0.124647,0.692798 -0.125173,1.861129 -5.11e-4,1.326081 0.01843,1.539354 0.260538,2.929736 l 0.12168,0.69864 0.286835,-0.03472 c 1.316472,-0.15913 2.450998,-0.269795 3.150598,-0.307312 l 0.830339,-0.04448 0.129497,-0.166488 c 1.402525,-1.803289 3.442341,-3.909146 4.987839,-5.149318 2.959746,-2.375009 5.498216,-3.1998226 7.244492,-2.353914 0.986456,0.47785 1.609904,1.454359 1.851676,2.900262 0.157849,0.943966 0.03314,3.178355 -0.212507,3.807717 -0.08484,0.217461 -0.357013,0.374119 -0.650308,0.374375 -0.184586,1.89e-4 -0.281234,-0.03738 -0.42362,-0.164564 C 33.137339,17.243 33.12178,17.201031 33.12296,16.89955 c 5.1e-4,-0.181205 0.0482,-0.698012 0.105651,-1.148472 0.166851,-1.309639 0.05216,-2.520224 -0.305168,-3.220606 -0.173433,-0.339972 -0.528291,-0.702939 -0.835169,-0.854226 -0.230206,-0.113489 -0.348751,-0.130723 -0.88703,-0.128967 -0.565629,0.002 -0.67629,0.02083 -1.23453,0.211144 -1.727085,0.589047 -3.705993,2.004904 -5.830222,4.171353 -0.406234,0.414302 -1.015456,1.070998 -1.353825,1.459328 l -0.615233,0.706039 0.534812,0.01277 c 7.486177,0.177467 13.795767,1.896592 16.769975,4.569222 0.669273,0.60141 1.245968,1.497391 1.413528,2.196128 0.08495,0.35424 0.08654,1.042059 0.0031,1.410311 -0.307144,1.35886 -1.801118,2.69472 -3.979118,3.558031 -0.344272,0.136468 -0.416992,0.147539 -0.603033,0.09174 -0.304719,-0.09131 -0.50231,-0.348715 -0.50231,-0.654408 0,-0.359209 0.173071,-0.531743 0.794972,-0.792531 1.352859,-0.567319 2.401971,-1.362669 2.800315,-2.122989 0.138413,-0.264215 0.159278,-0.366945 0.159207,-0.784157 -5.2e-5,-0.43395 -0.01833,-0.515407 -0.189463,-0.847256 -0.241404,-0.467985 -1.039225,-1.268007 -1.701069,-1.705751 -3.251571,-2.150605 -9.378837,-3.546981 -15.564985,-3.54718 l -1.020475,-3.1e-5 -0.384572,0.522475 c -0.575275,0.781563 -1.823612,2.681398 -2.320361,3.531324 l -0.438066,0.74951 0.301001,0.690822 c 3.019578,6.930113 7.707457,12.781323 11.165101,13.935825 0.751716,0.250994 1.320536,0.263224 1.780325,0.0383 0.860426,-0.420955 1.31109,-1.513726 1.380307,-3.346851 0.115506,-3.059433 -0.986416,-7.287876 -3.041158,-11.669837 -0.213048,-0.454335 -0.340938,-0.801089 -0.340938,-0.924352 0,-0.370601 0.304325,-0.662027 0.685844,-0.656763 0.338772,0.0041 0.487373,0.140334 0.745766,0.680794 1.66632,3.485315 2.777117,6.976876 3.191893,10.033072 0.139486,1.027705 0.140324,3.119433 0.002,3.866921 -0.221934,1.195562 -0.616805,2.056876 -1.221039,2.663448 -0.73609,0.73893 -1.691423,1.021144 -2.821501,0.833485 z M 17.813101,21.823108 c 0.21095,-0.341739 0.621554,-0.969539 0.912465,-1.395145 0.290911,-0.425597 0.528924,-0.791086 0.528924,-0.812176 0,-0.07264 -2.668876,0.197479 -2.749644,0.278247 -0.04856,0.04841 0.111442,0.643159 0.4668,1.735956 0.258439,0.794711 0.328391,0.95616 0.386711,0.892345 0.03917,-0.04289 0.243784,-0.357508 0.454744,-0.699227 z m 5.694593,5.066446 c -0.848574,-0.302987 -1.344465,-1.010987 -1.33317,-1.903379 0.0064,-0.467229 0.112453,-0.787644 0.385629,-1.159787 0.692242,-0.943016 2.105908,-1.050265 2.956964,-0.224344 0.977545,0.948674 0.688182,2.641379 -0.548314,3.207467 -0.425514,0.194809 -1.044709,0.22872 -1.461109,0.08007 z" style="display:inline;opacity:1;fill:#000000;fill-opacity:0.23529412;stroke:none;stroke-width:0.22472881;stroke-miterlimit:4;stroke-dasharray:none;stroke-opacity:1" inkscape:label="sombra atom"/>
      <path style="display:inline;opacity:1;fill:#ffffff;fill-opacity:1;stroke:#ffffff;stroke-width:0.22472881;stroke-miterlimit:4;stroke-dasharray:none;stroke-opacity:1" d="m 29.766827,39.405896 c -2.57231,-0.427174 -5.912941,-3.371806 -8.962922,-7.900437 -1.279573,-1.899932 -2.588809,-4.246249 -3.443439,-6.17109 -0.171431,-0.386098 -0.234086,-0.478953 -0.28588,-0.42362 -0.103742,0.110788 -0.848293,1.729757 -1.240571,2.697345 -0.659852,1.627593 -1.124946,3.179412 -1.391458,4.64284 -0.170743,0.937512 -0.185423,2.754046 -0.02676,3.316816 0.368558,1.307678 1.167769,1.851196 2.414732,1.642172 0.898856,-0.150679 1.986945,-0.642991 3.141432,-1.421357 0.512711,-0.345671 0.647555,-0.411452 0.845851,-0.412611 0.303217,-0.002 0.529558,0.163175 0.635617,0.46322 0.07029,0.19893 0.07008,0.256637 -0.002,0.446748 -0.06923,0.182461 -0.189146,0.290435 -0.730305,0.65739 -0.747411,0.506845 -2.026151,1.16015 -2.680345,1.369394 -1.714009,0.548278 -3.047449,0.347291 -3.987544,-0.601006 -0.862346,-0.869867 -1.233876,-2.277171 -1.119381,-4.240039 0.149015,-2.554463 1.272006,-6.04178 3.046397,-9.460243 l 0.444955,-0.857214 -0.336087,-0.90935 c -0.321641,-0.870265 -0.957779,-2.887833 -0.957779,-3.0377 0,-0.11039 -0.194629,-0.08771 -1.047906,0.122191 -1.955076,0.480934 -3.407709,1.093036 -4.4494927,1.874905 -2.0477413,1.536848 -1.5053362,3.270368 1.5633297,4.996509 0.48866,0.274872 0.601537,0.422895 0.601537,0.78886 0,0.191244 -0.03534,0.269729 -0.192041,0.426424 C 11.271171,27.751619 10.958711,27.681671 9.9226979,27.03912 8.4243268,26.109804 7.4769804,25.052344 7.1432936,23.936666 7.0214349,23.529202 7.0210009,22.708448 7.142783,22.29864 c 0.1770485,-0.597488 0.4750366,-1.072034 1.0128817,-1.612999 1.2053362,-1.212327 3.2041843,-2.1432 5.9455913,-2.768865 0.558378,-0.127445 0.687324,-0.175098 0.666291,-0.246265 -0.01435,-0.04856 -0.07815,-0.367844 -0.141819,-0.709568 -0.372465,-1.999598 -0.383796,-4.292232 -0.02747,-5.563624 0.41086,-1.4659913 1.154727,-2.3385343 2.340874,-2.7457633 0.484304,-0.166274 1.453695,-0.1399046 2.118132,0.057554 0.668242,0.1986383 1.497937,0.6071847 2.231102,1.0986076 0.873758,0.5856617 1.131406,0.8313907 1.168386,1.1143867 0.08495,0.650236 -0.586815,1.000897 -1.135251,0.59255 -1.71959,-1.28038 -2.947037,-1.7675801 -3.930495,-1.5600924 -0.7147,0.1507814 -1.261032,0.8855894 -1.536766,2.0668694 -0.10964,0.469813 -0.124647,0.692799 -0.125173,1.861129 -5.11e-4,1.326082 0.01843,1.539355 0.260538,2.929736 l 0.12168,0.69864 0.286835,-0.03472 c 1.316472,-0.15913 2.450998,-0.269796 3.150598,-0.307313 l 0.830339,-0.04448 0.129497,-0.166489 c 1.402525,-1.803288 3.442341,-3.909145 4.987839,-5.149317 2.959746,-2.3750096 5.498216,-3.1998232 7.244492,-2.3539151 0.986456,0.4778502 1.609904,1.4543591 1.851676,2.9002621 0.157849,0.943966 0.03314,3.178356 -0.212507,3.807718 -0.08484,0.21746 -0.357013,0.374119 -0.650308,0.374374 -0.184586,1.89e-4 -0.281234,-0.03738 -0.42362,-0.164563 -0.168787,-0.150771 -0.184346,-0.192741 -0.183166,-0.494222 5.1e-4,-0.181205 0.0482,-0.698012 0.105651,-1.148471 0.166851,-1.309639 0.05216,-2.520225 -0.305168,-3.220606 -0.173433,-0.339973 -0.528291,-0.70294 -0.835169,-0.854226 -0.230206,-0.11349 -0.348751,-0.130724 -0.88703,-0.128967 -0.565629,0.002 -0.67629,0.02083 -1.23453,0.211144 -1.727085,0.589046 -3.705993,2.004903 -5.830222,4.171353 -0.406234,0.414301 -1.015456,1.070997 -1.353825,1.459327 l -0.615233,0.70604 0.534812,0.01277 c 7.486177,0.177468 13.795767,1.896593 16.769975,4.569223 0.669273,0.601409 1.245968,1.49739 1.413528,2.196127 0.08495,0.35424 0.08654,1.04206 0.0031,1.410312 -0.307144,1.358859 -1.801118,2.69472 -3.979118,3.55803 -0.344272,0.136468 -0.416992,0.147539 -0.603033,0.09174 -0.304719,-0.09131 -0.50231,-0.348715 -0.50231,-0.654409 0,-0.359208 0.173071,-0.531743 0.794972,-0.792531 1.352859,-0.567319 2.401971,-1.362669 2.800315,-2.122989 0.138413,-0.264214 0.159278,-0.366945 0.159207,-0.784156 -5.2e-5,-0.433951 -0.01833,-0.515408 -0.189463,-0.847257 -0.241404,-0.467984 -1.039225,-1.268006 -1.701069,-1.705751 -3.251571,-2.150604 -9.378837,-3.546981 -15.564985,-3.54718 l -1.020475,-3e-5 -0.384572,0.522475 c -0.575275,0.781562 -1.823612,2.681397 -2.320361,3.531324 l -0.438066,0.74951 0.301001,0.690822 c 3.019578,6.930112 7.707457,12.781322 11.165101,13.935824 0.751716,0.250994 1.320536,0.263224 1.780325,0.0383 0.860426,-0.420955 1.31109,-1.513726 1.380307,-3.346851 0.115506,-3.059433 -0.986416,-7.287875 -3.041158,-11.669836 -0.213048,-0.454336 -0.340938,-0.80109 -0.340938,-0.924353 0,-0.370601 0.304325,-0.662027 0.685844,-0.656762 0.338772,0.0041 0.487373,0.140333 0.745766,0.680793 1.66632,3.485316 2.777117,6.976877 3.191893,10.033072 0.139486,1.027706 0.140324,3.119433 0.002,3.866921 -0.221934,1.195563 -0.616805,2.056877 -1.221039,2.663449 -0.73609,0.738929 -1.691423,1.021143 -2.821501,0.833484 z M 17.813101,20.801831 c 0.21095,-0.341739 0.621554,-0.969538 0.912465,-1.395145 0.290911,-0.425597 0.528924,-0.791086 0.528924,-0.812175 0,-0.07264 -2.668876,0.197479 -2.749644,0.278246 -0.04856,0.04841 0.111442,0.64316 0.4668,1.735956 0.258439,0.794712 0.328391,0.95616 0.386711,0.892346 0.03917,-0.04289 0.243784,-0.357508 0.454744,-0.699228 z m 5.694593,5.066446 c -0.848574,-0.302987 -1.344465,-1.010987 -1.33317,-1.903378 0.0064,-0.467229 0.112453,-0.787645 0.385629,-1.159788 0.692242,-0.943016 2.105908,-1.050265 2.956964,-0.224343 0.977545,0.948674 0.688182,2.641378 -0.548314,3.207467 -0.425514,0.194808 -1.044709,0.22872 -1.461109,0.08007 z" id="path4662-7" inkscape:connector-curvature="0" inkscape:label="atom"/>
      <path style="color:#000000;clip-rule:nonzero;display:inline;overflow:visible;visibility:visible;opacity:1;isolation:auto;mix-blend-mode:normal;color-interpolation:sRGB;color-interpolation-filters:linearRGB;solid-color:#000000;solid-opacity:1;fill:#000000;fill-opacity:0.296875;fill-rule:nonzero;stroke:none;stroke-width:1.24938095;stroke-linecap:butt;stroke-linejoin:miter;stroke-miterlimit:4;stroke-dasharray:none;stroke-dashoffset:0;stroke-opacity:1;marker:none;marker-start:none;marker-mid:none;marker-end:none;color-rendering:auto;image-rendering:auto;shape-rendering:auto;text-rendering:auto;enable-background:accumulate" d="M 46.103862,23.190158 A 22.114457,22.727312 0 0 1 24,45.706116 22.114457,22.727312 0 0 1 1.8961379,23.277927 22.114457,22.727312 0 0 0 1.8854655,23.489362 22.114457,22.727312 0 0 0 24,46.216754 22.114457,22.727312 0 0 0 46.114534,23.489362 22.114457,22.727312 0 0 0 46.103862,23.190158 Z" id="circle7747-0" inkscape:connector-curvature="0"/>
      <path inkscape:connector-curvature="0" id="path7766-9" d="M 46.206225,24.955813 A 22.216867,22.727312 0 0 0 24,2.4398553 22.216867,22.727312 0 0 0 1.7937753,24.868044 22.216867,22.727312 0 0 1 1.7830519,24.656609 22.216867,22.727312 0 0 1 24,1.929217 a 22.216867,22.727312 0 0 1 22.216948,22.727392 22.216867,22.727312 0 0 1 -0.01072,0.299204 z" style="color:#000000;clip-rule:nonzero;display:inline;overflow:visible;visibility:visible;opacity:1;isolation:auto;mix-blend-mode:normal;color-interpolation:sRGB;color-interpolation-filters:linearRGB;solid-color:#000000;solid-opacity:1;fill:#242424;fill-opacity:0.47058824;fill-rule:nonzero;stroke:none;stroke-width:1.25227046;stroke-linecap:butt;stroke-linejoin:miter;stroke-miterlimit:4;stroke-dasharray:none;stroke-dashoffset:0;stroke-opacity:1;marker:none;marker-start:none;marker-mid:none;marker-end:none;color-rendering:auto;image-rendering:auto;shape-rendering:auto;text-rendering:auto;enable-background:accumulate"/>
    </g>
  </g>
</svg>