<?xml version="1.0" encoding="UTF-8" standalone="yes"?>
<svg xmlns:dc="http://purl.org/dc/elements/1.1/" xmlns:cc="http://creativecommons.org/ns#" xmlns:rdf="http://www.w3.org/1999/02/22-rdf-syntax-ns#" xmlns:svg="http://www.w3.org/2000/svg" xmlns="http://www.w3.org/2000/svg" xmlns:xlink="http://www.w3.org/1999/xlink" xmlns:sodipodi="http://sodipodi.sourceforge.net/DTD/sodipodi-0.dtd" xmlns:inkscape="http://www.inkscape.org/namespaces/inkscape" height="48" viewBox="0 0 48 48" width="48" id="svg2" version="1.1" inkscape:version="0.92.1 r" sodipodi:docname="flash-player-properties.svg" enable-background="new" folder="48">
  <title id="title4675">Template icons dark</title>
  <metadata id="metadata24">
    <rdf:RDF>
      <cc:Work rdf:about="">
        <dc:format>image/svg+xml</dc:format>
        <dc:type rdf:resource="http://purl.org/dc/dcmitype/StillImage"/>
        <dc:title>Template icons dark</dc:title>
        <dc:date>17/05/13</dc:date>
        <dc:creator>
          <cc:Agent>
            <dc:title>wfpaisa</dc:title>
          </cc:Agent>
        </dc:creator>
        <dc:rights>
          <cc:Agent>
            <dc:title>License: GPLv3</dc:title>
          </cc:Agent>
        </dc:rights>
        <dc:language>es-en</dc:language>
        <dc:subject>
          <rdf:Bag>
            <rdf:li>plane-icon-theme</rdf:li>
          </rdf:Bag>
        </dc:subject>
        <dc:description>Template for create set icons</dc:description>
        <cc:license rdf:resource="https://www.gnu.org/licenses/gpl-3.0.en.html"/>
      </cc:Work>
    </rdf:RDF>
  </metadata>
  <defs id="defs22">
    <linearGradient inkscape:collect="always" id="linearGradient7769">
      <stop style="stop-color:#ffffff;stop-opacity:0.171875" offset="0" id="stop7765"/>
      <stop style="stop-color:#000000;stop-opacity:0;" offset="1" id="stop7767"/>
    </linearGradient>
    <linearGradient id="linearGradient7744" inkscape:collect="always">
      <stop id="stop7740" offset="0" style="stop-color:#730216;stop-opacity:0.78125"/>
      <stop id="stop7742" offset="1" style="stop-color:#d9042a;stop-opacity:0.02745098"/>
    </linearGradient>
    <linearGradient inkscape:collect="always" id="linearGradient7748">
      <stop style="stop-color:#d40e0e;stop-opacity:1" offset="0" id="stop7744"/>
      <stop style="stop-color:#910404;stop-opacity:0.96470588" offset="1" id="stop7746"/>
    </linearGradient>
    <linearGradient inkscape:collect="always" xlink:href="#linearGradient7748" id="linearGradient7750" x1="160.85533" y1="121.50957" x2="160.85533" y2="200.85536" gradientUnits="userSpaceOnUse"/>
    <linearGradient inkscape:collect="always" xlink:href="#linearGradient7744" id="linearGradient7738" gradientUnits="userSpaceOnUse" x1="198.31935" y1="122.53598" x2="175.15457" y2="144.16115" gradientTransform="translate(1.9073486e-5,-319.99998)"/>
    <linearGradient inkscape:collect="always" xlink:href="#linearGradient7769" id="linearGradient7771" x1="160" y1="197.92126" x2="160" y2="120" gradientUnits="userSpaceOnUse"/>
    <linearGradient gradientTransform="matrix(1.3282359,0,0,1.3282359,59.610776,58.612616)" inkscape:collect="always" xlink:href="#linearGradient7769" id="linearGradient7771-3" x1="160" y1="197.92126" x2="160" y2="120" gradientUnits="userSpaceOnUse"/>
    <linearGradient inkscape:collect="always" xlink:href="#linearGradient7744" id="linearGradient7738-5" gradientUnits="userSpaceOnUse" x1="198.31935" y1="122.53598" x2="175.15457" y2="144.16115" gradientTransform="matrix(1.3282359,0,0,1.3282359,58.612642,-484.64619)"/>
    <linearGradient gradientTransform="matrix(1.3282359,0,0,1.3282359,59.610776,58.612616)" inkscape:collect="always" xlink:href="#linearGradient7748" id="linearGradient7750-6" x1="160.85533" y1="121.50957" x2="160.85533" y2="200.85536" gradientUnits="userSpaceOnUse"/>
    <linearGradient gradientTransform="matrix(0.67421035,0,0,0.67421035,-28.926023,-28.914299)" inkscape:collect="always" xlink:href="#linearGradient7769" id="linearGradient7771-6" x1="160" y1="197.92126" x2="160" y2="120" gradientUnits="userSpaceOnUse"/>
    <linearGradient inkscape:collect="always" xlink:href="#linearGradient7744" id="linearGradient7738-7" gradientUnits="userSpaceOnUse" x1="198.31935" y1="122.53598" x2="175.15457" y2="144.16115" gradientTransform="matrix(0.67421035,0,0,0.67421035,-28.914286,-186.82128)"/>
    <linearGradient gradientTransform="matrix(0.67421035,0,0,0.67421035,-28.926023,-28.914299)" inkscape:collect="always" xlink:href="#linearGradient7748" id="linearGradient7750-0" x1="160.85533" y1="121.50957" x2="160.85533" y2="200.85536" gradientUnits="userSpaceOnUse"/>
    <linearGradient gradientTransform="matrix(0.5,0,0,0.5,-56.999671,-57.000623)" inkscape:collect="always" xlink:href="#linearGradient7769" id="linearGradient7771-1" x1="160" y1="197.92126" x2="160" y2="120" gradientUnits="userSpaceOnUse"/>
    <linearGradient inkscape:collect="always" xlink:href="#linearGradient7744" id="linearGradient7738-3" gradientUnits="userSpaceOnUse" x1="198.31935" y1="122.53598" x2="175.15457" y2="144.16115" gradientTransform="matrix(0.5,0,0,0.5,-57.000613,-103.00032)"/>
    <linearGradient gradientTransform="matrix(0.5,0,0,0.5,-56.999671,-57.000623)" inkscape:collect="always" xlink:href="#linearGradient7748" id="linearGradient7750-4" x1="160.85533" y1="121.50957" x2="160.85533" y2="200.85536" gradientUnits="userSpaceOnUse"/>
    <linearGradient gradientTransform="matrix(0.36363218,0,0,0.36363218,-74.908599,-74.908229)" inkscape:collect="always" xlink:href="#linearGradient7769" id="linearGradient7771-5" x1="160" y1="197.92126" x2="160" y2="120" gradientUnits="userSpaceOnUse"/>
    <linearGradient inkscape:collect="always" xlink:href="#linearGradient7744" id="linearGradient7738-76" gradientUnits="userSpaceOnUse" x1="198.31935" y1="122.53598" x2="175.15457" y2="144.16115" gradientTransform="matrix(0.36363218,0,0,0.36363218,-74.908221,-41.453692)"/>
    <linearGradient gradientTransform="matrix(0.36363218,0,0,0.36363218,-74.908599,-74.908229)" inkscape:collect="always" xlink:href="#linearGradient7748" id="linearGradient7750-9" x1="160.85533" y1="121.50957" x2="160.85533" y2="200.85536" gradientUnits="userSpaceOnUse"/>
    <linearGradient gradientTransform="matrix(0.275,0,0,0.275,-87.999989,-88.000001)" inkscape:collect="always" xlink:href="#linearGradient7748" id="linearGradient7750-9-8" x1="160.85533" y1="121.50957" x2="160.85533" y2="200.85536" gradientUnits="userSpaceOnUse"/>
    <linearGradient gradientTransform="matrix(0.17499999,0,0,0.17499999,-91.999991,-91.999994)" inkscape:collect="always" xlink:href="#linearGradient7748" id="linearGradient7750-9-8-9" x1="160.85533" y1="199.99998" x2="160.85533" y2="211.42854" gradientUnits="userSpaceOnUse"/>
    <symbol id="icon-cog" viewBox="0 0 24 28">
      <title id="title12501">cog</title>
      <path d="M16 14c0-2.203-1.797-4-4-4s-4 1.797-4 4 1.797 4 4 4 4-1.797 4-4zM24 12.297v3.469c0 0.234-0.187 0.516-0.438 0.562l-2.891 0.438c-0.172 0.5-0.359 0.969-0.609 1.422 0.531 0.766 1.094 1.453 1.672 2.156 0.094 0.109 0.156 0.25 0.156 0.391s-0.047 0.25-0.141 0.359c-0.375 0.5-2.484 2.797-3.016 2.797-0.141 0-0.281-0.063-0.406-0.141l-2.156-1.687c-0.453 0.234-0.938 0.438-1.422 0.594-0.109 0.953-0.203 1.969-0.453 2.906-0.063 0.25-0.281 0.438-0.562 0.438h-3.469c-0.281 0-0.531-0.203-0.562-0.469l-0.438-2.875c-0.484-0.156-0.953-0.344-1.406-0.578l-2.203 1.672c-0.109 0.094-0.25 0.141-0.391 0.141s-0.281-0.063-0.391-0.172c-0.828-0.75-1.922-1.719-2.578-2.625-0.078-0.109-0.109-0.234-0.109-0.359 0-0.141 0.047-0.25 0.125-0.359 0.531-0.719 1.109-1.406 1.641-2.141-0.266-0.5-0.484-1.016-0.641-1.547l-2.859-0.422c-0.266-0.047-0.453-0.297-0.453-0.562v-3.469c0-0.234 0.187-0.516 0.422-0.562l2.906-0.438c0.156-0.5 0.359-0.969 0.609-1.437-0.531-0.75-1.094-1.453-1.672-2.156-0.094-0.109-0.156-0.234-0.156-0.375s0.063-0.25 0.141-0.359c0.375-0.516 2.484-2.797 3.016-2.797 0.141 0 0.281 0.063 0.406 0.156l2.156 1.672c0.453-0.234 0.938-0.438 1.422-0.594 0.109-0.953 0.203-1.969 0.453-2.906 0.063-0.25 0.281-0.438 0.562-0.438h3.469c0.281 0 0.531 0.203 0.562 0.469l0.438 2.875c0.484 0.156 0.953 0.344 1.406 0.578l2.219-1.672c0.094-0.094 0.234-0.141 0.375-0.141s0.281 0.063 0.391 0.156c0.828 0.766 1.922 1.734 2.578 2.656 0.078 0.094 0.109 0.219 0.109 0.344 0 0.141-0.047 0.25-0.125 0.359-0.531 0.719-1.109 1.406-1.641 2.141 0.266 0.5 0.484 1.016 0.641 1.531l2.859 0.438c0.266 0.047 0.453 0.297 0.453 0.562z" id="path12503"/>
    </symbol>
  </defs>
  <sodipodi:namedview pagecolor="#383c4a" bordercolor="#ffffff" borderopacity="0.62745098" objecttolerance="4" gridtolerance="10" guidetolerance="4" inkscape:pageopacity="0" inkscape:pageshadow="2" inkscape:window-width="640" inkscape:window-height="480" id="namedview20" showgrid="true" inkscape:zoom="11.621654" inkscape:cx="-73.27909" inkscape:cy="95.331744" inkscape:current-layer="layer6" inkscape:snap-smooth-nodes="false" showguides="true" borderlayer="true" inkscape:showpageshadow="false" inkscape:guide-bbox="true" guidecolor="#bd4fff" guideopacity="0.78431373" inkscape:snap-nodes="true" inkscape:lockguides="false" fit-margin-top="0" fit-margin-left="0" fit-margin-right="0" fit-margin-bottom="0" guidehicolor="#ff0101" guidehiopacity="0.78431373" inkscape:snap-page="true" inkscape:object-nodes="true" inkscape:snap-bbox="true" inkscape:snap-global="true" inkscape:snap-object-midpoints="false" inkscape:snap-bbox-edge-midpoints="false" inkscape:bbox-nodes="true">
    <inkscape:grid type="xygrid" id="grid4171" empspacing="4" dotted="false" originx="2.7755576e-17" originy="0" spacingx="1" spacingy="1" color="#5a5a5a" opacity="0.23529412" empcolor="#5a5a5a" empopacity="0.47058824" visible="true"/>
    <inkscape:grid type="axonomgrid" id="grid4699" units="mm" empspacing="4" color="#5a5a5a" opacity="0.23529412" empcolor="#5a5a5a" empopacity="0.47058824" gridanglex="45" gridanglez="45" spacingy="3.7795276" visible="false" originx="1.3228346" originy="1.3228346"/>
    <sodipodi:guide position="48,0" orientation="1,0" id="guide4568" inkscape:locked="false" inkscape:label="" inkscape:color="rgb(189,79,255)"/>
    <sodipodi:guide position="111.99996,-3.9999999e-05" orientation="0,1" id="guide4570" inkscape:locked="false" inkscape:label="" inkscape:color="rgb(189,79,255)"/>
    <sodipodi:guide position="0,0" orientation="1,0" id="guide4572" inkscape:locked="false" inkscape:label="" inkscape:color="rgb(189,79,255)"/>
    <sodipodi:guide position="0,48" orientation="0,1" id="guide4574" inkscape:locked="false" inkscape:label="" inkscape:color="rgb(189,79,255)"/>
    <sodipodi:guide position="0,80" orientation="0,1" id="guide4576" inkscape:locked="false" inkscape:label="" inkscape:color="rgb(189,79,255)"/>
    <sodipodi:guide position="-32,48" orientation="1,0" id="guide4578" inkscape:locked="false" inkscape:label="" inkscape:color="rgb(189,79,255)"/>
    <sodipodi:guide position="-32,104" orientation="0,1" id="guide4580" inkscape:locked="false" inkscape:label="" inkscape:color="rgb(189,79,255)"/>
    <sodipodi:guide position="-56,80" orientation="1,0" id="guide4582" inkscape:locked="false" inkscape:label="" inkscape:color="rgb(189,79,255)"/>
    <sodipodi:guide position="48,-64" orientation="0,1" id="guide4584" inkscape:locked="false" inkscape:label="" inkscape:color="rgb(189,79,255)"/>
    <sodipodi:guide position="0,0" orientation="-0.70710678,0.70710678" id="guide4588" inkscape:locked="false" inkscape:label="" inkscape:color="rgb(189,79,255)"/>
    <sodipodi:guide position="-56,80" orientation="-0.70710678,0.70710678" id="guide4573" inkscape:locked="false" inkscape:label="" inkscape:color="rgb(189,79,255)"/>
    <sodipodi:guide position="-32,48" orientation="-0.70710678,0.70710678" id="guide4575" inkscape:locked="false" inkscape:label="" inkscape:color="rgb(189,79,255)"/>
    <sodipodi:guide position="48,-64" orientation="-0.70710678,0.70710678" id="guide4577" inkscape:locked="false" inkscape:label="" inkscape:color="rgb(189,79,255)"/>
    <sodipodi:guide position="47.999962,0" orientation="0.70710678,0.70710678" id="guide4697" inkscape:locked="false" inkscape:label="" inkscape:color="rgb(189,79,255)"/>
    <sodipodi:guide position="207.99995,-288" orientation="0,1" id="guide7833" inkscape:locked="false"/>
    <sodipodi:guide position="335.99994,-288" orientation="1,0" id="guide7835" inkscape:locked="false" inkscape:label="" inkscape:color="rgb(189,79,255)"/>
    <sodipodi:guide position="111.99996,-64" orientation="1,0" id="guide7915" inkscape:locked="false"/>
    <sodipodi:guide position="111.99996,-160" orientation="0,1" id="guide7917" inkscape:locked="false"/>
    <sodipodi:guide position="207.99996,-160" orientation="1,0" id="guide7919" inkscape:locked="false"/>
    <sodipodi:guide position="111.99996,-160" orientation="-0.70710678,0.70710678" id="guide7921" inkscape:locked="false" inkscape:label="" inkscape:color="rgb(189,79,255)"/>
    <sodipodi:guide position="207.99996,-288" orientation="-0.70710678,0.70710678" id="guide7923" inkscape:locked="false" inkscape:label="" inkscape:color="rgb(189,79,255)"/>
    <sodipodi:guide position="-72,104" orientation="1,0" id="guide7824" inkscape:locked="false"/>
    <sodipodi:guide position="-56,120" orientation="0,1" id="guide7826" inkscape:locked="false"/>
    <sodipodi:guide position="-72,104" orientation="-0.70710678,0.70710678" id="guide7828" inkscape:locked="false" inkscape:label="" inkscape:color="rgb(189,79,255)"/>
  </sodipodi:namedview>
  <g inkscape:groupmode="layer" id="layer3" inkscape:label="icon_48" style="display:inline" transform="translate(6.8969723e-7,-4.5367432e-7)">
    <g inkscape:groupmode="layer" id="layer9" inkscape:label="frame" style="display:none">
      <rect inkscape:label="frame_48" y="4.5367432e-07" x="-6.8969723e-07" height="48" width="48" id="frame_48" style="color:#000000;clip-rule:nonzero;display:block;overflow:visible;visibility:visible;opacity:1;isolation:auto;mix-blend-mode:normal;color-interpolation:sRGB;color-interpolation-filters:linearRGB;solid-color:#000000;solid-opacity:1;vector-effect:none;fill:#000000;fill-opacity:1;fill-rule:nonzero;stroke:#ff24f7;stroke-width:0;stroke-linecap:square;stroke-linejoin:miter;stroke-miterlimit:4;stroke-dasharray:none;stroke-dashoffset:0;stroke-opacity:0.99481865;marker:none;marker-start:none;marker-mid:none;marker-end:none;paint-order:normal;color-rendering:auto;image-rendering:auto;shape-rendering:auto;text-rendering:auto;enable-background:accumulate"/>
      <text xml:space="preserve" style="font-size:18.66666603px;line-height:1000%;font-family:sans-serif;letter-spacing:0px;word-spacing:0px;display:inline;opacity:1;fill:#ffffff;fill-opacity:1;stroke:none;stroke-width:0.11166908px;stroke-linecap:butt;stroke-linejoin:miter;stroke-opacity:1" x="12.301435" y="30.794922" id="txt_48" inkscape:label="txt_48">
        <tspan sodipodi:role="line" x="12.301435" y="30.794922" style="font-size:18.66666603px;fill:#ffffff;fill-opacity:1;stroke:none;stroke-width:0.11166908px" id="tspan5049-1">48</tspan>
      </text>
      <text xml:space="preserve" style="font-size:2.66666675px;line-height:1000%;font-family:sans-serif;letter-spacing:0px;word-spacing:0px;display:inline;opacity:1;fill:#ffffff;fill-opacity:0.44791667;stroke:none;stroke-width:0.0588377px;stroke-linecap:butt;stroke-linejoin:miter;stroke-opacity:1" x="25.824219" y="45.962238" id="txt_scalable_32-64" inkscape:label="txt_scalable_32-64">
        <tspan sodipodi:role="line" x="25.824219" y="45.962238" style="font-size:2.66666675px;fill:#ffffff;fill-opacity:0.44791667;stroke:none;stroke-width:0.0588377px" id="tspan5049-1-6">Scalable:32-64</tspan>
      </text>
    </g>
    <g inkscape:groupmode="layer" id="layer10" inkscape:label="icon" style="display:inline">
      <rect inkscape:label="sombra" style="color:#000000;clip-rule:nonzero;display:block;overflow:visible;visibility:visible;opacity:1;isolation:auto;mix-blend-mode:normal;color-interpolation:sRGB;color-interpolation-filters:linearRGB;solid-color:#000000;solid-opacity:1;vector-effect:none;fill:#000000;fill-opacity:0.07843137;fill-rule:nonzero;stroke:none;stroke-width:0.51862764px;stroke-linecap:butt;stroke-linejoin:miter;stroke-miterlimit:4;stroke-dasharray:none;stroke-dashoffset:0;stroke-opacity:1;marker:none;marker-start:none;marker-mid:none;marker-end:none;paint-order:fill markers stroke;color-rendering:auto;image-rendering:auto;shape-rendering:auto;text-rendering:auto;enable-background:accumulate" id="rect7759-4" width="41.5" height="42" x="2.0003259" y="1.9993763"/>
      <rect y="2.4993763" x="2.5003071" height="41" width="41.000019" id="rect29472-50" style="color:#000000;clip-rule:nonzero;display:block;overflow:visible;visibility:visible;opacity:1;isolation:auto;mix-blend-mode:normal;color-interpolation:sRGB;color-interpolation-filters:linearRGB;solid-color:#000000;solid-opacity:1;vector-effect:none;fill:#000000;fill-opacity:0.07843137;fill-rule:nonzero;stroke:none;stroke-width:0.51250005px;stroke-linecap:butt;stroke-linejoin:miter;stroke-miterlimit:4;stroke-dasharray:none;stroke-dashoffset:0;stroke-opacity:1;marker:none;marker-start:none;marker-mid:none;marker-end:none;paint-order:fill markers stroke;color-rendering:auto;image-rendering:auto;shape-rendering:auto;text-rendering:auto;enable-background:accumulate" inkscape:label="sombra"/>
      <rect style="color:#000000;clip-rule:nonzero;display:inline;overflow:visible;visibility:visible;opacity:1;isolation:auto;mix-blend-mode:normal;color-interpolation:sRGB;color-interpolation-filters:linearRGB;solid-color:#000000;solid-opacity:1;vector-effect:none;fill:url(#linearGradient7750-4);fill-opacity:1;fill-rule:nonzero;stroke:none;stroke-width:0.5px;stroke-linecap:butt;stroke-linejoin:miter;stroke-miterlimit:4;stroke-dasharray:none;stroke-dashoffset:0;stroke-opacity:1;marker:none;marker-start:none;marker-mid:none;marker-end:none;paint-order:fill markers stroke;color-rendering:auto;image-rendering:auto;shape-rendering:auto;text-rendering:auto;enable-background:accumulate" id="rect7742-3" width="40.000019" height="40" x="3.0003071" y="2.9993763" inkscape:label="base"/>
      <rect y="-43.000317" x="2.9993649" height="40" width="40.000019" id="rect7736-6" style="color:#000000;clip-rule:nonzero;display:block;overflow:visible;visibility:visible;opacity:1;isolation:auto;mix-blend-mode:normal;color-interpolation:sRGB;color-interpolation-filters:linearRGB;solid-color:#000000;solid-opacity:1;vector-effect:none;fill:url(#linearGradient7738-3);fill-opacity:1;fill-rule:nonzero;stroke:none;stroke-width:0.5px;stroke-linecap:butt;stroke-linejoin:miter;stroke-miterlimit:4;stroke-dasharray:none;stroke-dashoffset:0;stroke-opacity:1;marker:none;marker-start:none;marker-mid:none;marker-end:none;paint-order:fill markers stroke;color-rendering:auto;image-rendering:auto;shape-rendering:auto;text-rendering:auto;enable-background:accumulate" inkscape:label="brillo" transform="rotate(90)"/>
      <path sodipodi:nodetypes="cccccccccc" inkscape:connector-curvature="0" id="path29510-1" d="m 16.000326,27.999376 v 3.5 c 2.688055,0.22407 6.08125,-0.805245 8,-6.5 h 4 v -3.5 h -2.5 c 1.174915,-1.450205 2.820165,-2.64808 4.5,-3 v -3.5 c -6.107865,0.609205 -6.89016,4.077995 -8.5,7 -2.210365,4.099275 -3.52726,4.900305 -5.5,6 z" style="display:inline;fill:#000000;fill-opacity:0.15104167;fill-rule:evenodd;stroke:none;stroke-width:0.5px;stroke-linecap:butt;stroke-linejoin:miter;stroke-opacity:1"/>
      <path style="display:inline;fill:#fefefe;fill-opacity:1;fill-rule:evenodd;stroke:none;stroke-width:0.5px;stroke-linecap:butt;stroke-linejoin:miter;stroke-opacity:1" d="m 16.000326,27.499376 v 3.5 c 2.688055,0.22407 6.08125,-0.805245 8,-6.5 h 4 v -3.5 h -2.5 c 1.174915,-1.450205 2.820165,-2.64808 4.5,-3 v -3.5 c -6.107865,0.609205 -6.89016,4.077995 -8.5,7 -2.210365,4.099275 -3.52726,4.900305 -5.5,6 z" id="path7736-0" inkscape:connector-curvature="0" sodipodi:nodetypes="cccccccccc"/>
      <path style="font-style:normal;font-variant:normal;font-weight:bold;font-stretch:normal;font-size:medium;line-height:1000%;font-family:sans-serif;-inkscape-font-specification:'sans-serif Bold';letter-spacing:0px;word-spacing:0px;display:inline;fill:#ffffff;fill-opacity:1;stroke:none;stroke-width:0.09891679px;stroke-linecap:butt;stroke-linejoin:miter;stroke-opacity:1" d="m 23.000326,29.999376 v 0.224785 h 0.38291 v 0.929065 h 0.298285 v -0.929065 h 0.38205 v -0.224785 z m 1.216235,0 v 1.15385 h 0.282055 v -0.843595 l 0.26581,0.622225 h 0.18889 l 0.265815,-0.622225 v 0.843595 h 0.281195 v -1.15385 h -0.377775 l -0.26411,0.61795 -0.263245,-0.61795 z" id="path29502-63" inkscape:connector-curvature="0"/>
      <path style="color:#000000;font-style:normal;font-variant:normal;font-weight:normal;font-stretch:normal;font-size:medium;line-height:normal;font-family:sans-serif;font-variant-ligatures:normal;font-variant-position:normal;font-variant-caps:normal;font-variant-numeric:normal;font-variant-alternates:normal;font-feature-settings:normal;text-indent:0;text-align:start;text-decoration:none;text-decoration-line:none;text-decoration-style:solid;text-decoration-color:#000000;letter-spacing:normal;word-spacing:normal;text-transform:none;writing-mode:lr-tb;direction:ltr;text-orientation:mixed;dominant-baseline:auto;baseline-shift:baseline;text-anchor:start;white-space:normal;shape-padding:0;clip-rule:nonzero;display:inline;overflow:visible;visibility:visible;opacity:1;isolation:auto;mix-blend-mode:normal;color-interpolation:sRGB;color-interpolation-filters:linearRGB;solid-color:#000000;solid-opacity:1;vector-effect:none;fill:url(#linearGradient7771-1);fill-opacity:1;fill-rule:nonzero;stroke:none;stroke-width:0.5px;stroke-linecap:butt;stroke-linejoin:miter;stroke-miterlimit:4;stroke-dasharray:none;stroke-dashoffset:0;stroke-opacity:1;marker:none;paint-order:fill markers stroke;color-rendering:auto;image-rendering:auto;shape-rendering:auto;text-rendering:auto;enable-background:accumulate" d="M 43.000306,2.9993762 H 3.0003258 V 42.999356 l 40.0000002,4e-5 z m -0.49998,0.5 -2e-5,38.9999998 H 3.5003058 l 2e-5,-38.9999998 z" id="rect7761-2" inkscape:connector-curvature="0" sodipodi:nodetypes="cccccccccc"/>
      <path id="path29517-0" d="m 41.324641,39.735121 c 0,-1.149905 -0.937955,-2.087905 -2.08783,-2.087905 -1.14987,0 -2.08782,0.938 -2.08782,2.087905 0,1.149935 0.93795,2.08792 2.08782,2.08792 1.149875,0 2.08783,-0.937985 2.08783,-2.08792 z m 4.175685,-0.888935 v 1.81075 c 0,0.122095 -0.09762,0.269335 -0.228605,0.293355 l -1.508995,0.22863 c -0.08978,0.260975 -0.18738,0.50578 -0.317875,0.74224 0.27715,0.399825 0.57103,0.758445 0.87271,1.12539 0.04905,0.05676 0.08138,0.130475 0.08138,0.20408 0,0.07366 -0.0246,0.130485 -0.07357,0.187405 -0.195745,0.260975 -1.29654,1.459955 -1.57423,1.459955 -0.07357,0 -0.146695,-0.033 -0.21191,-0.07357 l -1.125355,-0.88056 c -0.23644,0.122085 -0.489605,0.228625 -0.74223,0.310045 -0.05676,0.49745 -0.10587,1.027785 -0.23644,1.516855 -0.033,0.130475 -0.146665,0.22862 -0.29333,0.22862 h -1.810705 c -0.146655,0 -0.27715,-0.106005 -0.293315,-0.244795 l -0.22862,-1.50068 c -0.252645,-0.08138 -0.497425,-0.17957 -0.733885,-0.3017 l -1.149875,0.87274 c -0.05677,0.04905 -0.13048,0.07357 -0.20408,0.07357 -0.07357,0 -0.146675,-0.03305 -0.204085,-0.08978 -0.43219,-0.391485 -1.00321,-0.8973 -1.34563,-1.3702 -0.04075,-0.05676 -0.05676,-0.1221 -0.05676,-0.187375 0,-0.07357 0.0246,-0.13049 0.06517,-0.187405 0.27716,-0.37528 0.578855,-0.73389 0.856545,-1.11755 -0.13884,-0.26097 -0.252645,-0.530325 -0.33457,-0.807485 l -1.49228,-0.22028 c -0.138865,-0.0246 -0.23645,-0.155025 -0.23645,-0.293345 v -1.81074 c 0,-0.1221 0.09761,-0.26934 0.22026,-0.293365 l 1.5168,-0.228605 c 0.08137,-0.260995 0.1874,-0.50582 0.317885,-0.75009 -0.27716,-0.391485 -0.57103,-0.75843 -0.87271,-1.125375 -0.04905,-0.05676 -0.08138,-0.12209 -0.08138,-0.19575 0,-0.07357 0.033,-0.13049 0.07357,-0.18739 0.19573,-0.269335 1.29654,-1.45996 1.57422,-1.45996 0.07357,0 0.146675,0.03305 0.21192,0.08138 l 1.125345,0.872745 c 0.236455,-0.122095 0.4896,-0.22861 0.742245,-0.310045 0.05676,-0.49746 0.105995,-1.02777 0.23644,-1.51688 0.033,-0.130485 0.146655,-0.22863 0.29334,-0.22863 h 1.81068 c 0.146675,0 0.277165,0.10587 0.29335,0.244825 l 0.2286,1.500685 c 0.252645,0.08137 0.497435,0.17954 0.733885,0.301685 l 1.158225,-0.87273 c 0.04915,-0.04905 0.12209,-0.07357 0.19573,-0.07357 0.07357,0 0.146675,0.033 0.20411,0.08138 0.43217,0.399835 1.00318,0.905115 1.345595,1.38637 0.04075,0.04905 0.05676,0.1144 0.05676,0.179565 0,0.07358 -0.0246,0.130485 -0.06517,0.187395 -0.277145,0.37531 -0.578825,0.73389 -0.856515,1.11754 0.13883,0.260975 0.25261,0.530345 0.334565,0.79915 l 1.49229,0.228615 c 0.138835,0.0246 0.23643,0.15504 0.23643,0.293365 z" inkscape:connector-curvature="0" style="display:inline;fill:#000000;fill-opacity:0.27083333;stroke:none;stroke-width:0.52196801" inkscape:label="rueda"/>
      <path style="display:inline;fill:#fbfbfb;fill-opacity:1;stroke:none;stroke-width:0.52196801" inkscape:connector-curvature="0" d="m 40.851646,39.262101 c 0,-1.149905 -0.93796,-2.0879 -2.08784,-2.0879 -1.14986,0 -2.08782,0.937995 -2.08782,2.0879 0,1.149935 0.93796,2.087925 2.08782,2.087925 1.14988,0 2.08784,-0.93799 2.08784,-2.087925 z m 4.175685,-0.888925 v 1.81075 c 0,0.122095 -0.09763,0.269335 -0.22861,0.293355 l -1.50899,0.228625 c -0.08979,0.26098 -0.187385,0.505785 -0.31788,0.742235 0.277145,0.399835 0.571025,0.758445 0.872715,1.125395 0.04905,0.05676 0.08137,0.13047 0.08137,0.20408 0,0.07365 -0.0246,0.13049 -0.07357,0.1874 -0.19574,0.26098 -1.296535,1.459965 -1.574225,1.459965 -0.07357,0 -0.146695,-0.033 -0.21191,-0.07358 l -1.12536,-0.88057 c -0.236445,0.122095 -0.4896,0.22863 -0.742225,0.31005 -0.05676,0.49745 -0.10587,1.027785 -0.23644,1.51685 -0.033,0.130485 -0.14667,0.22863 -0.293335,0.22863 h -1.810705 c -0.146655,0 -0.277145,-0.10601 -0.29332,-0.2448 l -0.22861,-1.50068 c -0.252645,-0.08138 -0.497425,-0.17957 -0.733885,-0.3017 l -1.14988,0.872745 c -0.05677,0.04905 -0.130475,0.07357 -0.204075,0.07357 -0.07357,0 -0.14668,-0.033 -0.20409,-0.08979 -0.43219,-0.39148 -1.003215,-0.89729 -1.34563,-1.370195 -0.04075,-0.05676 -0.05676,-0.122095 -0.05676,-0.187375 0,-0.07357 0.0246,-0.130485 0.06517,-0.1874 0.277155,-0.375285 0.578855,-0.733895 0.856545,-1.117555 -0.13884,-0.26097 -0.252645,-0.530325 -0.334575,-0.807485 l -1.49227,-0.22028 c -0.138865,-0.0246 -0.23645,-0.155025 -0.23645,-0.293345 v -1.81074 c 0,-0.1221 0.09761,-0.269335 0.220255,-0.293365 l 1.516805,-0.228605 c 0.08137,-0.26099 0.187395,-0.505815 0.31788,-0.750085 -0.277165,-0.391485 -0.571035,-0.75843 -0.87271,-1.12538 -0.04905,-0.05676 -0.08138,-0.1221 -0.08138,-0.19575 0,-0.07357 0.033,-0.130485 0.07357,-0.18739 0.195735,-0.269335 1.29654,-1.45996 1.574225,-1.45996 0.07357,0 0.146675,0.03305 0.21192,0.08138 l 1.12534,0.872745 c 0.23645,-0.122095 0.489605,-0.22861 0.742245,-0.31005 0.05677,-0.497455 0.106,-1.02776 0.236445,-1.516875 0.033,-0.130485 0.14665,-0.228625 0.293335,-0.228625 h 1.810685 c 0.146675,0 0.27716,0.105865 0.29334,0.244825 l 0.22861,1.500675 c 0.25264,0.08138 0.497435,0.17955 0.733885,0.301695 l 1.15822,-0.872735 c 0.04915,-0.04905 0.12209,-0.07357 0.195735,-0.07357 0.07357,0 0.146675,0.03305 0.204105,0.08137 0.43217,0.39984 1.003175,0.90512 1.345595,1.38637 0.04075,0.04905 0.05677,0.1144 0.05677,0.179565 0,0.07357 -0.0246,0.13049 -0.06517,0.187395 -0.27715,0.37531 -0.578825,0.73389 -0.856515,1.11754 0.13883,0.260975 0.25261,0.530345 0.334565,0.799145 l 1.492285,0.228625 c 0.138845,0.0246 0.236435,0.155035 0.236435,0.29336 z" id="path29458-61" inkscape:label="rueda"/>
    </g>
  </g>
</svg>