<?xml version="1.0" encoding="UTF-8" standalone="yes"?>
<svg xmlns:dc="http://purl.org/dc/elements/1.1/" xmlns:cc="http://creativecommons.org/ns#" xmlns:rdf="http://www.w3.org/1999/02/22-rdf-syntax-ns#" xmlns:svg="http://www.w3.org/2000/svg" xmlns="http://www.w3.org/2000/svg" xmlns:xlink="http://www.w3.org/1999/xlink" xmlns:sodipodi="http://sodipodi.sourceforge.net/DTD/sodipodi-0.dtd" xmlns:inkscape="http://www.inkscape.org/namespaces/inkscape" height="48" viewBox="0 0 48 48" width="48" id="svg2" version="1.1" inkscape:version="0.92.1 r" sodipodi:docname="help-browser.svg" enable-background="new" folder="48">
  <title id="title4675">Template icons dark</title>
  <metadata id="metadata24">
    <rdf:RDF>
      <cc:Work rdf:about="">
        <dc:format>image/svg+xml</dc:format>
        <dc:type rdf:resource="http://purl.org/dc/dcmitype/StillImage"/>
        <dc:title>Template icons dark</dc:title>
        <dc:date>17/05/13</dc:date>
        <dc:creator>
          <cc:Agent>
            <dc:title>wfpaisa</dc:title>
          </cc:Agent>
        </dc:creator>
        <dc:rights>
          <cc:Agent>
            <dc:title>License: GPLv3</dc:title>
          </cc:Agent>
        </dc:rights>
        <dc:language>es-en</dc:language>
        <dc:subject>
          <rdf:Bag>
            <rdf:li>plane-icon-theme</rdf:li>
          </rdf:Bag>
        </dc:subject>
        <dc:description>Template for create set icons</dc:description>
        <cc:license rdf:resource="https://www.gnu.org/licenses/gpl-3.0.en.html"/>
      </cc:Work>
    </rdf:RDF>
  </metadata>
  <defs id="defs22">
    <linearGradient id="linearGradient7842" inkscape:collect="always">
      <stop id="stop7836" offset="0" style="stop-color:#ff2a0b;stop-opacity:1"/>
      <stop style="stop-color:#110200;stop-opacity:0.453125" offset="0.49622226" id="stop7854"/>
      <stop style="stop-color:#000000;stop-opacity:0.13020833" offset="0.53191489" id="stop7848"/>
      <stop style="stop-color:#ffcdc5;stop-opacity:0.10588235;" offset="0.61702126" id="stop7846"/>
      <stop id="stop7850" offset="0.70212764" style="stop-color:#ffd2cb;stop-opacity:0.16145833"/>
      <stop style="stop-color:#ffe2dd;stop-opacity:0" offset="0.77759355" id="stop7844"/>
      <stop style="stop-color:#ffffff;stop-opacity:0.109375" offset="0.87234044" id="stop7838"/>
      <stop id="stop7852" offset="0.93617022" style="stop-color:#ffffff;stop-opacity:0.078125"/>
      <stop id="stop7840" offset="1" style="stop-color:#000000;stop-opacity:0.35416666"/>
    </linearGradient>
    <linearGradient id="linearGradient7816" inkscape:collect="always">
      <stop id="stop7808" offset="0" style="stop-color:#000000;stop-opacity:0"/>
      <stop style="stop-color:#000000;stop-opacity:0" offset="0.49738139" id="stop7810"/>
      <stop style="stop-color:#000000;stop-opacity:0.27083334" offset="0.74869066" id="stop7812"/>
      <stop id="stop7814" offset="1" style="stop-color:#000000;stop-opacity:0"/>
    </linearGradient>
    <linearGradient inkscape:collect="always" id="linearGradient7800">
      <stop style="stop-color:#c5c5c5;stop-opacity:1" offset="0" id="stop7796"/>
      <stop style="stop-color:#f4f4f4;stop-opacity:1" offset="1" id="stop7798"/>
    </linearGradient>
    <linearGradient inkscape:collect="always" id="linearGradient7790">
      <stop style="stop-color:#cd3a00;stop-opacity:1" offset="0" id="stop7786"/>
      <stop style="stop-color:#cf6e53;stop-opacity:1" offset="1" id="stop7788"/>
    </linearGradient>
    <linearGradient inkscape:collect="always" id="linearGradient7730">
      <stop style="stop-color:#ffffff;stop-opacity:0" offset="0" id="stop7726"/>
      <stop id="stop7754" offset="0.65650702" style="stop-color:#ffffff;stop-opacity:0"/>
      <stop id="stop7752" offset="0.82896906" style="stop-color:#fff8f4;stop-opacity:0.26041666"/>
      <stop style="stop-color:#ffffff;stop-opacity:0" offset="1" id="stop7728"/>
    </linearGradient>
    <linearGradient inkscape:collect="always" xlink:href="#linearGradient7790" id="linearGradient7792" x1="160" y1="205" x2="160" y2="113" gradientUnits="userSpaceOnUse"/>
    <linearGradient inkscape:collect="always" xlink:href="#linearGradient7800" id="linearGradient7802" x1="170" y1="201.25058" x2="170" y2="119" gradientUnits="userSpaceOnUse"/>
    <linearGradient gradientTransform="matrix(1.2916667,0,0,1.2916667,65.414517,65.800307)" inkscape:collect="always" xlink:href="#linearGradient7790" id="linearGradient7792-0" x1="160" y1="205" x2="160" y2="113" gradientUnits="userSpaceOnUse"/>
    <linearGradient gradientTransform="matrix(1.2916667,0,0,1.2916667,65.414517,65.800307)" inkscape:collect="always" xlink:href="#linearGradient7800" id="linearGradient7802-7" x1="170" y1="201.25058" x2="170" y2="119" gradientUnits="userSpaceOnUse"/>
    <linearGradient gradientTransform="matrix(0.66666665,0,0,0.66666665,-26.557583,-26.743496)" inkscape:collect="always" xlink:href="#linearGradient7800" id="linearGradient7802-9" x1="170" y1="201.25058" x2="170" y2="119" gradientUnits="userSpaceOnUse"/>
    <linearGradient gradientTransform="matrix(0.66666665,0,0,0.66666665,-26.557583,-26.743496)" inkscape:collect="always" xlink:href="#linearGradient7790" id="linearGradient7792-4" x1="160" y1="205" x2="160" y2="113" gradientUnits="userSpaceOnUse"/>
    <linearGradient gradientTransform="matrix(0.5,0,0,0.5,-56.000002,-55.999999)" inkscape:collect="always" xlink:href="#linearGradient7800" id="linearGradient7802-1" x1="170" y1="201.25058" x2="170" y2="119" gradientUnits="userSpaceOnUse"/>
    <linearGradient gradientTransform="matrix(0.5,0,0,0.5,-56.000002,-55.999999)" inkscape:collect="always" xlink:href="#linearGradient7790" id="linearGradient7792-00" x1="160" y1="205" x2="160" y2="113" gradientUnits="userSpaceOnUse"/>
    <linearGradient gradientTransform="matrix(0.33333333,0,0,0.33333333,-69.333334,-69.333332)" inkscape:collect="always" xlink:href="#linearGradient7800" id="linearGradient7802-2" x1="170" y1="201.25058" x2="170" y2="119" gradientUnits="userSpaceOnUse"/>
    <linearGradient gradientTransform="matrix(0.33333333,0,0,0.33333333,-69.333334,-69.333332)" inkscape:collect="always" xlink:href="#linearGradient7790" id="linearGradient7792-2" x1="160" y1="205" x2="160" y2="113" gradientUnits="userSpaceOnUse"/>
    <linearGradient gradientTransform="matrix(0.25,0,0,0.25,-84,-84)" inkscape:collect="always" xlink:href="#linearGradient7800" id="linearGradient7802-2-6" x1="170" y1="201.25058" x2="170" y2="119" gradientUnits="userSpaceOnUse"/>
    <linearGradient gradientTransform="matrix(0.25,0,0,0.25,-84,-84)" inkscape:collect="always" xlink:href="#linearGradient7790" id="linearGradient7792-2-3" x1="160" y1="205" x2="160" y2="113" gradientUnits="userSpaceOnUse"/>
    <linearGradient gradientTransform="matrix(0.16666666,0,0,0.16666666,-90.666669,-90.666665)" inkscape:collect="always" xlink:href="#linearGradient7800" id="linearGradient7802-2-3" x1="170" y1="201.25058" x2="170" y2="119" gradientUnits="userSpaceOnUse"/>
    <linearGradient gradientTransform="matrix(0.16666666,0,0,0.16666666,-90.666669,-90.666665)" inkscape:collect="always" xlink:href="#linearGradient7790" id="linearGradient7792-2-8" x1="160" y1="205" x2="160" y2="113" gradientUnits="userSpaceOnUse"/>
    <radialGradient inkscape:collect="always" xlink:href="#linearGradient7730" id="radialGradient7750" cx="160.03294" cy="154.04303" fx="160.03294" fy="154.04303" r="47" gradientUnits="userSpaceOnUse" gradientTransform="matrix(0.93644398,0,0,0.93617029,10.138119,9.7894953)"/>
    <radialGradient inkscape:collect="always" xlink:href="#linearGradient7816" id="radialGradient7806" gradientUnits="userSpaceOnUse" gradientTransform="matrix(1.0420069,0,0,0.87187823,-6.6414605,26.640695)" cx="158.17044" cy="167.51665" fx="158.17044" fy="167.51665" r="47"/>
    <radialGradient inkscape:collect="always" xlink:href="#linearGradient7842" id="radialGradient7834" cx="160" cy="160" fx="160" fy="160" r="47" gradientUnits="userSpaceOnUse"/>
    <radialGradient gradientTransform="matrix(1.2916667,0,0,1.2916667,65.414517,65.800307)" inkscape:collect="always" xlink:href="#linearGradient7842" id="radialGradient7834-2" cx="160" cy="160" fx="160" fy="160" r="47" gradientUnits="userSpaceOnUse"/>
    <radialGradient gradientTransform="matrix(0.66666665,0,0,0.66666665,-26.557583,-26.743496)" inkscape:collect="always" xlink:href="#linearGradient7842" id="radialGradient7834-6" cx="160" cy="160" fx="160" fy="160" r="47" gradientUnits="userSpaceOnUse"/>
    <radialGradient gradientTransform="matrix(0.5,0,0,0.5,-56.000002,-55.999999)" inkscape:collect="always" xlink:href="#linearGradient7842" id="radialGradient7834-60" cx="160" cy="160" fx="160" fy="160" r="47" gradientUnits="userSpaceOnUse"/>
    <radialGradient gradientTransform="matrix(0.33333333,0,0,0.33333333,-69.333334,-69.333332)" inkscape:collect="always" xlink:href="#linearGradient7842" id="radialGradient7834-9" cx="160" cy="160" fx="160" fy="160" r="47" gradientUnits="userSpaceOnUse"/>
    <radialGradient gradientTransform="matrix(0.25,0,0,0.25,-84,-84)" inkscape:collect="always" xlink:href="#linearGradient7842" id="radialGradient7834-9-3" cx="160" cy="160" fx="160" fy="160" r="47" gradientUnits="userSpaceOnUse"/>
  </defs>
  <sodipodi:namedview pagecolor="#383c4a" bordercolor="#ffffff" borderopacity="0.62745098" objecttolerance="4" gridtolerance="10" guidetolerance="4" inkscape:pageopacity="0" inkscape:pageshadow="2" inkscape:window-width="640" inkscape:window-height="480" id="namedview20" showgrid="true" inkscape:zoom="21.128842" inkscape:cx="-50.912361" inkscape:cy="106.50951" inkscape:current-layer="layer8" inkscape:snap-smooth-nodes="false" showguides="true" borderlayer="true" inkscape:showpageshadow="false" inkscape:guide-bbox="true" guidecolor="#bd4fff" guideopacity="0.78431373" inkscape:snap-nodes="true" inkscape:lockguides="false" fit-margin-top="0" fit-margin-left="0" fit-margin-right="0" fit-margin-bottom="0" guidehicolor="#ff0101" guidehiopacity="0.78431373" inkscape:snap-page="true" inkscape:object-nodes="true" inkscape:snap-bbox="true" inkscape:snap-global="false" inkscape:snap-object-midpoints="false" inkscape:snap-bbox-edge-midpoints="false">
    <inkscape:grid type="xygrid" id="grid4171" empspacing="4" dotted="false" originx="2.7755576e-17" originy="0" spacingx="1" spacingy="1" color="#5a5a5a" opacity="0.23529412" empcolor="#5a5a5a" empopacity="0.47058824" visible="true"/>
    <inkscape:grid type="axonomgrid" id="grid4699" units="mm" empspacing="4" color="#5a5a5a" opacity="0.23529412" empcolor="#5a5a5a" empopacity="0.47058824" gridanglex="45" gridanglez="45" spacingy="3.7795276" visible="false" originx="1.3228346" originy="1.3228346"/>
    <sodipodi:guide position="48,0" orientation="1,0" id="guide4568" inkscape:locked="false" inkscape:label="" inkscape:color="rgb(189,79,255)"/>
    <sodipodi:guide position="111.99996,-3.9999999e-05" orientation="0,1" id="guide4570" inkscape:locked="false" inkscape:label="" inkscape:color="rgb(189,79,255)"/>
    <sodipodi:guide position="0,0" orientation="1,0" id="guide4572" inkscape:locked="false" inkscape:label="" inkscape:color="rgb(189,79,255)"/>
    <sodipodi:guide position="0,48" orientation="0,1" id="guide4574" inkscape:locked="false" inkscape:label="" inkscape:color="rgb(189,79,255)"/>
    <sodipodi:guide position="0,80" orientation="0,1" id="guide4576" inkscape:locked="false" inkscape:label="" inkscape:color="rgb(189,79,255)"/>
    <sodipodi:guide position="-32,48" orientation="1,0" id="guide4578" inkscape:locked="false" inkscape:label="" inkscape:color="rgb(189,79,255)"/>
    <sodipodi:guide position="-32,104" orientation="0,1" id="guide4580" inkscape:locked="false" inkscape:label="" inkscape:color="rgb(189,79,255)"/>
    <sodipodi:guide position="-56,80" orientation="1,0" id="guide4582" inkscape:locked="false" inkscape:label="" inkscape:color="rgb(189,79,255)"/>
    <sodipodi:guide position="48,-64" orientation="0,1" id="guide4584" inkscape:locked="false" inkscape:label="" inkscape:color="rgb(189,79,255)"/>
    <sodipodi:guide position="0,0" orientation="-0.70710678,0.70710678" id="guide4588" inkscape:locked="false" inkscape:label="" inkscape:color="rgb(189,79,255)"/>
    <sodipodi:guide position="-56,80" orientation="-0.70710678,0.70710678" id="guide4573" inkscape:locked="false" inkscape:label="" inkscape:color="rgb(189,79,255)"/>
    <sodipodi:guide position="-32,48" orientation="-0.70710678,0.70710678" id="guide4575" inkscape:locked="false" inkscape:label="" inkscape:color="rgb(189,79,255)"/>
    <sodipodi:guide position="48,-64" orientation="-0.70710678,0.70710678" id="guide4577" inkscape:locked="false" inkscape:label="" inkscape:color="rgb(189,79,255)"/>
    <sodipodi:guide position="47.999962,0" orientation="0.70710678,0.70710678" id="guide4697" inkscape:locked="false" inkscape:label="" inkscape:color="rgb(189,79,255)"/>
    <sodipodi:guide position="207.99995,-288" orientation="0,1" id="guide7833" inkscape:locked="false"/>
    <sodipodi:guide position="335.99994,-288" orientation="1,0" id="guide7835" inkscape:locked="false" inkscape:label="" inkscape:color="rgb(189,79,255)"/>
    <sodipodi:guide position="111.99996,-64" orientation="1,0" id="guide7915" inkscape:locked="false"/>
    <sodipodi:guide position="111.99996,-160" orientation="0,1" id="guide7917" inkscape:locked="false"/>
    <sodipodi:guide position="207.99996,-160" orientation="1,0" id="guide7919" inkscape:locked="false"/>
    <sodipodi:guide position="111.99996,-160" orientation="-0.70710678,0.70710678" id="guide7921" inkscape:locked="false" inkscape:label="" inkscape:color="rgb(189,79,255)"/>
    <sodipodi:guide position="207.99996,-288" orientation="-0.70710678,0.70710678" id="guide7923" inkscape:locked="false" inkscape:label="" inkscape:color="rgb(189,79,255)"/>
    <sodipodi:guide position="-72,104" orientation="1,0" id="guide7824" inkscape:locked="false"/>
    <sodipodi:guide position="-56,120" orientation="0,1" id="guide7826" inkscape:locked="false"/>
    <sodipodi:guide position="-72,104" orientation="-0.70710678,0.70710678" id="guide7828" inkscape:locked="false" inkscape:label="" inkscape:color="rgb(189,79,255)"/>
  </sodipodi:namedview>
  <g inkscape:groupmode="layer" id="layer3" inkscape:label="icon_48" style="display:inline" transform="translate(6.8969723e-7,-4.5367432e-7)">
    <g inkscape:groupmode="layer" id="layer9" inkscape:label="frame" style="display:none">
      <rect inkscape:label="frame_48" y="4.5367432e-07" x="-6.8969723e-07" height="48" width="48" id="frame_48" style="color:#000000;clip-rule:nonzero;display:block;overflow:visible;visibility:visible;opacity:1;isolation:auto;mix-blend-mode:normal;color-interpolation:sRGB;color-interpolation-filters:linearRGB;solid-color:#000000;solid-opacity:1;vector-effect:none;fill:#000000;fill-opacity:1;fill-rule:nonzero;stroke:#ff24f7;stroke-width:0;stroke-linecap:square;stroke-linejoin:miter;stroke-miterlimit:4;stroke-dasharray:none;stroke-dashoffset:0;stroke-opacity:0.99481865;marker:none;marker-start:none;marker-mid:none;marker-end:none;paint-order:normal;color-rendering:auto;image-rendering:auto;shape-rendering:auto;text-rendering:auto;enable-background:accumulate"/>
      <text xml:space="preserve" style="font-size:18.66666603px;line-height:1000%;font-family:sans-serif;letter-spacing:0px;word-spacing:0px;display:inline;opacity:1;fill:#ffffff;fill-opacity:1;stroke:none;stroke-width:0.11166908px;stroke-linecap:butt;stroke-linejoin:miter;stroke-opacity:1" x="12.301435" y="30.794922" id="txt_48" inkscape:label="txt_48">
        <tspan sodipodi:role="line" x="12.301435" y="30.794922" style="font-size:18.66666603px;fill:#ffffff;fill-opacity:1;stroke:none;stroke-width:0.11166908px" id="tspan5049-1">48</tspan>
      </text>
      <text xml:space="preserve" style="font-size:2.66666675px;line-height:1000%;font-family:sans-serif;letter-spacing:0px;word-spacing:0px;display:inline;opacity:1;fill:#ffffff;fill-opacity:0.44791667;stroke:none;stroke-width:0.0588377px;stroke-linecap:butt;stroke-linejoin:miter;stroke-opacity:1" x="25.824219" y="45.962238" id="txt_scalable_32-64" inkscape:label="txt_scalable_32-64">
        <tspan sodipodi:role="line" x="25.824219" y="45.962238" style="font-size:2.66666675px;fill:#ffffff;fill-opacity:0.44791667;stroke:none;stroke-width:0.0588377px" id="tspan5049-1-6">Scalable:32-64</tspan>
      </text>
    </g>
    <g inkscape:groupmode="layer" id="layer10" inkscape:label="icon" style="display:inline">
      <path style="display:inline;fill:none;fill-rule:evenodd;stroke:#ffffff;stroke-width:0.64999998;stroke-linecap:butt;stroke-linejoin:miter;stroke-miterlimit:4;stroke-dasharray:none;stroke-dashoffset:0;stroke-opacity:1" d="m 8.2236347,1.4999972 c -2.2047248,0 -2.0503648,3.29793 -3.4511748,4.61035 C 3.6278449,7.182742 1.018755,6.4999272 0.83008,8.678707 0.595515,11.38734 0.79308,16.468535 1.5185549,17.873045 L 17.073239,2.4999972 c 0,0 -6.839165,-1 -8.8496043,-1 z m 31.0712843,0 c -2.01044,0 -8.84961,1 -8.84961,1 l 15.55469,15.3730478 c 0.725475,-1.40451 0.92304,-6.485705 0.688475,-9.194338 -0.188675,-2.1787798 -2.797765,-1.495965 -3.94238,-2.5683598 -1.40081,-1.31242 -1.24645,-4.61035 -3.451175,-4.61035 z M 1.5185549,30.487305 C 0.79308,31.891815 0.595515,36.97301 0.83008,39.68164 c 0.188675,2.17878 2.7977649,1.495965 3.9423799,2.56836 1.40081,1.31242 1.24645,4.61035 3.4511748,4.61035 2.0104393,0 8.8496043,-1 8.8496043,-1 z m 44.4814441,0 -15.55469,15.373045 c 0,0 6.83917,1 8.84961,1 2.204725,0 2.050365,-3.29793 3.451175,-4.61035 1.144615,-1.072395 3.753705,-0.38958 3.94238,-2.56836 0.234565,-2.70863 0.037,-7.789825 -0.688475,-9.194335 z" id="path7931-4" inkscape:connector-curvature="0" inkscape:label="n"/>
      <path style="display:inline;fill:none;fill-rule:evenodd;stroke:#9c8456;stroke-width:0.64999998;stroke-linecap:butt;stroke-linejoin:miter;stroke-miterlimit:4;stroke-dasharray:1.3, 0.65;stroke-dashoffset:0;stroke-opacity:1" d="m 8.2236347,1.4999972 c -2.2047248,0 -2.0503648,3.29793 -3.4511748,4.61035 C 3.6278449,7.182742 1.018755,6.4999272 0.83008,8.678707 0.595515,11.38734 0.79308,16.468535 1.5185549,17.873045 L 17.073239,2.4999972 c 0,0 -6.839165,-1 -8.8496043,-1 z m 31.0712843,0 c -2.01044,0 -8.84961,1 -8.84961,1 l 15.55469,15.3730478 c 0.725475,-1.40451 0.92304,-6.485705 0.688475,-9.194338 -0.188675,-2.1787798 -2.797765,-1.495965 -3.94238,-2.5683598 -1.40081,-1.31242 -1.24645,-4.61035 -3.451175,-4.61035 z M 1.5185549,30.487305 C 0.79308,31.891815 0.595515,36.97301 0.83008,39.68164 c 0.188675,2.17878 2.7977649,1.495965 3.9423799,2.56836 1.40081,1.31242 1.24645,4.61035 3.4511748,4.61035 2.0104393,0 8.8496043,-1 8.8496043,-1 z m 44.4814441,0 -15.55469,15.373045 c 0,0 6.83917,1 8.84961,1 2.204725,0 2.050365,-3.29793 3.451175,-4.61035 1.144615,-1.072395 3.753705,-0.38958 3.94238,-2.56836 0.234565,-2.70863 0.037,-7.789825 -0.688475,-9.194335 z" id="path7933-2" inkscape:connector-curvature="0" inkscape:label="a"/>
      <path inkscape:connector-curvature="0" id="path7780-49" d="M 23.999999,-3.01e-6 C 10.745164,-3.01e-6 0,10.745165 0,24 c 0,13.254835 10.745164,24 23.999999,24 13.254835,0 24,-10.745165 24,-24 0,-13.254835 -10.745165,-24.00000301 -24,-24.00000301 z M 23.999999,13 c 6.07513,0 11,4.92487 11,11 0,6.07513 -4.92487,11 -11,11 -6.07513,0 -11,-4.92487 -11,-11 0,-6.07513 4.92487,-11 11,-11 z" style="color:#000000;clip-rule:nonzero;display:block;overflow:visible;visibility:visible;opacity:1;isolation:auto;mix-blend-mode:normal;color-interpolation:sRGB;color-interpolation-filters:linearRGB;solid-color:#000000;solid-opacity:1;vector-effect:none;fill:#000000;fill-opacity:0.05208333;fill-rule:nonzero;stroke:none;stroke-width:0.52173913;stroke-linecap:butt;stroke-linejoin:miter;stroke-miterlimit:4;stroke-dasharray:none;stroke-dashoffset:0;stroke-opacity:0.36979167;marker:none;marker-start:none;marker-mid:none;marker-end:none;paint-order:fill markers stroke;color-rendering:auto;image-rendering:auto;shape-rendering:auto;text-rendering:auto;enable-background:accumulate" sodipodi:nodetypes="ssssssssss" inkscape:label="base sombra"/>
      <path style="color:#000000;clip-rule:nonzero;display:block;overflow:visible;visibility:visible;opacity:1;isolation:auto;mix-blend-mode:normal;color-interpolation:sRGB;color-interpolation-filters:linearRGB;solid-color:#000000;solid-opacity:1;vector-effect:none;fill:url(#linearGradient7792-00);fill-opacity:1;fill-rule:nonzero;stroke:none;stroke-width:0.51086956;stroke-linecap:butt;stroke-linejoin:miter;stroke-miterlimit:4;stroke-dasharray:none;stroke-dashoffset:0;stroke-opacity:0.36979167;marker:none;marker-start:none;marker-mid:none;marker-end:none;paint-order:fill markers stroke;color-rendering:auto;image-rendering:auto;shape-rendering:auto;text-rendering:auto;enable-background:accumulate" d="M 23.999999,0.49999699 A 23.5,23.5 0 0 0 0.5,24 a 23.5,23.5 0 0 0 23.499999,23.5 23.5,23.5 0 0 0 23.5,-23.5 23.5,23.5 0 0 0 -23.5,-23.50000301 z m 0,12.00000301 a 11.5,11.5 0 0 1 11.5,11.5 11.5,11.5 0 0 1 -11.5,11.5 11.5,11.5 0 0 1 -11.5,-11.5 11.5,11.5 0 0 1 11.5,-11.5 z" id="path7721-9" inkscape:connector-curvature="0" inkscape:label="base"/>
      <path style="color:#000000;clip-rule:nonzero;display:inline;overflow:visible;visibility:visible;opacity:1;isolation:auto;mix-blend-mode:normal;color-interpolation:sRGB;color-interpolation-filters:linearRGB;solid-color:#000000;solid-opacity:1;vector-effect:none;fill:url(#linearGradient7802-1);fill-opacity:1;fill-rule:nonzero;stroke:#441201;stroke-width:0.60468018;stroke-linecap:butt;stroke-linejoin:miter;stroke-miterlimit:4;stroke-dasharray:none;stroke-dashoffset:0;stroke-opacity:0.390625;marker:none;marker-start:none;marker-mid:none;marker-end:none;paint-order:fill markers stroke;color-rendering:auto;image-rendering:auto;shape-rendering:auto;text-rendering:auto;enable-background:accumulate" d="M 12.084959,3.7470672 C 8.6480147,5.7734872 5.7734899,8.648012 3.7470699,12.08496 l 9.5605441,8.089845 a 11.37008,11.37008 0 0 1 6.866215,-6.870115 z m 23.83008,0 -8.089845,9.5605478 a 11.37008,11.37008 0 0 1 6.870115,6.866215 l 9.55762,-8.08887 C 42.226509,8.648012 39.351984,5.7734872 35.915039,3.7470672 Z M 13.305664,27.828125 3.7470699,35.91504 c 2.026275,3.436705 4.9002898,6.311495 8.3369141,8.33789 l 8.088865,-9.561525 a 11.37008,11.37008 0 0 1 -6.867185,-6.86328 z m 21.38574,0 a 11.37008,11.37008 0 0 1 -6.86328,6.86621 l 8.086915,9.558595 c 3.436705,-2.026275 6.311495,-4.90029 8.33789,-8.336915 z" id="rect7741-94" inkscape:connector-curvature="0" inkscape:label="four"/>
      <path inkscape:label="base" inkscape:connector-curvature="0" id="path7822-98" d="M 23.999999,0.49999699 A 23.5,23.5 0 0 0 0.5,24 a 23.5,23.5 0 0 0 23.499999,23.5 23.5,23.5 0 0 0 23.5,-23.5 23.5,23.5 0 0 0 -23.5,-23.50000301 z m 0,12.00000301 a 11.5,11.5 0 0 1 11.5,11.5 11.5,11.5 0 0 1 -11.5,11.5 11.5,11.5 0 0 1 -11.5,-11.5 11.5,11.5 0 0 1 11.5,-11.5 z" style="color:#000000;clip-rule:nonzero;display:inline;overflow:visible;visibility:visible;opacity:1;isolation:auto;mix-blend-mode:normal;color-interpolation:sRGB;color-interpolation-filters:linearRGB;solid-color:#000000;solid-opacity:1;vector-effect:none;fill:url(#radialGradient7834-60);fill-opacity:1;fill-rule:nonzero;stroke:none;stroke-width:0.51086956;stroke-linecap:butt;stroke-linejoin:miter;stroke-miterlimit:4;stroke-dasharray:none;stroke-dashoffset:0;stroke-opacity:0.36979167;marker:none;marker-start:none;marker-mid:none;marker-end:none;paint-order:fill markers stroke;color-rendering:auto;image-rendering:auto;shape-rendering:auto;text-rendering:auto;enable-background:accumulate"/>
      <path style="display:inline;fill:none;fill-rule:evenodd;stroke:#ffffff;stroke-width:0.5px;stroke-linecap:butt;stroke-linejoin:miter;stroke-opacity:0.21354167" d="M 12.574219,3.4999972 20.696289,13 Z m 22.795895,0 L 27.248044,13 Z M 3.4443349,12.5 12.944334,20.62207 Z m 9.4999991,14.95801 -9.4999991,8.12207 z m 22.055665,0 9.5,8.12207 z m -14.30371,7.62207 -8.12207,9.5 z m 6.551755,0 8.12207,9.5 z" id="path7867-1" inkscape:connector-curvature="0" inkscape:label="brillos"/>
      <path style="color:#000000;clip-rule:nonzero;display:block;overflow:visible;visibility:visible;opacity:1;isolation:auto;mix-blend-mode:normal;color-interpolation:sRGB;color-interpolation-filters:linearRGB;solid-color:#000000;solid-opacity:1;vector-effect:none;fill:#000000;fill-opacity:0.11979167;fill-rule:nonzero;stroke:none;stroke-width:0.64999998;stroke-linecap:butt;stroke-linejoin:miter;stroke-miterlimit:4;stroke-dasharray:none;stroke-dashoffset:0;stroke-opacity:1;marker:none;marker-start:none;marker-mid:none;marker-end:none;paint-order:fill markers stroke;color-rendering:auto;image-rendering:auto;shape-rendering:auto;text-rendering:auto;enable-background:accumulate" d="m 37.725584,6.1708972 c -0.19168,0.0035 -0.38215,0.08093 -0.526365,0.230465 -0.288435,0.29908 -0.280525,0.7721148 0.01855,1.0605498 l 3.239255,3.124028 c 0.29908,0.28843 0.772115,0.279545 1.06055,-0.01955 0.28843,-0.299075 0.279545,-0.7721162 -0.01955,-1.0605478 l -3.23828,-3.124025 c -0.14954,-0.144215 -0.342495,-0.21441 -0.53418,-0.210935 z m -27.454675,0.328695 c -0.191685,-0.0035 -0.3846643,0.0667 -0.5341793,0.21094 l -3.2382798,3.124027 c -0.299035,0.2884758 -0.30801,0.7615158 -0.01955,1.0605458 0.288475,0.29903 0.7615148,0.307035 1.0605448,0.01855 L 10.777724,7.789627 c 0.299035,-0.288475 0.30801,-0.761515 0.01955,-1.0605448 -0.144235,-0.149515 -0.33468,-0.22605 -0.526365,-0.229495 z M 34.750974,9.145507 c -0.19168,0.0035 -0.38229,0.080795 -0.526365,0.230465 -0.288155,0.299351 -0.27884,0.772398 0.0205,1.060553 l 3.241215,3.120115 c 0.299345,0.288155 0.77239,0.279815 1.060545,-0.01955 0.288155,-0.299345 0.279815,-0.772395 -0.01955,-1.06055 l -3.24219,-3.121093 c -0.14967,-0.14408 -0.3425,-0.213615 -0.53418,-0.20996 z m -21.30078,0.179685 c -0.191685,-0.0035 -0.384665,0.0667 -0.53418,0.2109402 L 9.6777347,12.661135 c -0.299035,0.288475 -0.30801,0.760535 -0.01955,1.05957 0.288475,0.29903 0.7615143,0.30801 1.0605443,0.01955 l 3.23828,-3.124025 c 0.299035,-0.28848 0.30801,-0.7615158 0.01955,-1.0605474 C 13.832324,9.406167 13.641879,9.328657 13.450194,9.325212 Z m 18.206055,2.792973 c -0.19168,0.0035 -0.381315,0.0808 -0.52539,0.23047 -0.288155,0.299345 -0.279815,0.77239 0.01955,1.060545 l 3.24219,3.120115 c 0.299345,0.288155 0.77239,0.279815 1.060545,-0.01955 0.288155,-0.299345 0.279815,-0.772395 -0.01955,-1.060545 l -3.24219,-3.121095 c -0.14967,-0.144075 -0.343475,-0.213615 -0.535155,-0.20996 z m -15.2334,0.42285 c -0.19168,-0.0035 -0.38466,0.06572 -0.53418,0.20996 l -3.239255,3.125 c -0.299035,0.28848 -0.307035,0.761515 -0.01855,1.06055 0.28848,0.29903 0.761515,0.30703 1.060545,0.01855 l 3.238285,-3.124025 c 0.29903,-0.28848 0.30801,-0.761515 0.01955,-1.060545 -0.14424,-0.14952 -0.334685,-0.22605 -0.52637,-0.229495 z m 18.259765,18.25879 c -0.19168,-0.0035 -0.38466,0.0667 -0.534175,0.210935 l -3.23926,3.124025 c -0.29903,0.28848 -0.307035,0.761515 -0.01855,1.060545 0.28848,0.299035 0.761515,0.308015 1.060545,0.01955 l 3.238285,-3.124025 c 0.29903,-0.28848 0.30703,-0.761515 0.01855,-1.060545 -0.14424,-0.14952 -0.33371,-0.227025 -0.525395,-0.23047 z m -21.46484,0.12207 c -0.191685,0.0035 -0.382155,0.07995 -0.52637,0.22949 -0.28843,0.29908 -0.28052,0.772115 0.01855,1.06055 l 3.23926,3.124025 c 0.299075,0.28843 0.772115,0.279545 1.060545,-0.01955 0.288435,-0.299075 0.280525,-0.772115 -0.01855,-1.060545 l -3.239255,-3.12305 c -0.14954,-0.144215 -0.3425,-0.21441 -0.53418,-0.210935 z m -2.97461,2.973635 c -0.191679,0.0035 -0.3822893,0.08079 -0.5263693,0.230465 -0.28815,0.29935 -0.278835,0.772395 0.0205,1.06055 l 3.2412093,3.12109 c 0.299345,0.288155 0.772395,0.27884 1.060545,-0.0205 0.288155,-0.299345 0.279815,-0.772395 -0.01955,-1.06055 l -3.242185,-3.12109 c -0.149675,-0.14408 -0.3425,-0.213615 -0.53418,-0.20996 z m 27.41113,0.120115 c -0.19168,-0.0035 -0.38466,0.06572 -0.53418,0.20996 l -3.23828,3.125 c -0.29903,0.28848 -0.30801,0.761515 -0.01955,1.06055 0.28848,0.29903 0.761515,0.30703 1.060545,0.01855 l 3.23926,-3.124025 c 0.29903,-0.28848 0.307035,-0.761515 0.01855,-1.06055 -0.14424,-0.149515 -0.334685,-0.226045 -0.52637,-0.22949 z m 3.16234,2.786705 c -0.191695,-0.0025 -0.384375,0.06794 -0.5332,0.212895 l -3.223635,3.139645 c -0.29765,0.289905 -0.303575,0.7629 -0.01365,1.06055 0.289905,0.29765 0.762895,0.30455 1.060545,0.01465 l 3.223635,-3.140625 c 0.29765,-0.289905 0.303575,-0.762895 0.01365,-1.060545 -0.14495,-0.148825 -0.335645,-0.224035 -0.527345,-0.226565 z M 7.1494147,36.86816 c -0.1916798,0.0035 -0.3822898,0.0808 -0.5263698,0.23047 -0.28815,0.299345 -0.278835,0.77239 0.0205,1.060545 l 3.2412098,3.121095 c 0.2993443,0.28815 0.7723943,0.278835 1.0605443,-0.0205 0.288155,-0.299345 0.279815,-0.772395 -0.01955,-1.060545 l -3.2421843,-3.12109 c -0.149675,-0.144075 -0.3425,-0.213615 -0.53418,-0.20996 z" id="rect7945-3" inkscape:connector-curvature="0" inkscape:label="dec" sodipodi:nodetypes="ccccccccccscccccccccccccccccccccccccccccccccccccscccccccccccccccccccccccccccsccccccccccscccccccccccccccccccc"/>
    </g>
  </g>
</svg>