<?xml version="1.0" encoding="UTF-8" standalone="no"?>
<svg
   xmlns:osb="http://www.openswatchbook.org/uri/2009/osb"
   xmlns:dc="http://purl.org/dc/elements/1.1/"
   xmlns:cc="http://creativecommons.org/ns#"
   xmlns:rdf="http://www.w3.org/1999/02/22-rdf-syntax-ns#"
   xmlns:svg="http://www.w3.org/2000/svg"
   xmlns="http://www.w3.org/2000/svg"
   xmlns:xlink="http://www.w3.org/1999/xlink"
   xmlns:sodipodi="http://sodipodi.sourceforge.net/DTD/sodipodi-0.dtd"
   xmlns:inkscape="http://www.inkscape.org/namespaces/inkscape"
   viewBox="0 0 16 16"
   version="1.1"
   id="svg6"
   sodipodi:docname="edit-clone.svg"
   inkscape:version="0.92.2 5c3e80d, 2017-08-06">
  <metadata
     id="metadata10">
    <rdf:RDF>
      <cc:Work
         rdf:about="">
        <dc:format>image/svg+xml</dc:format>
        <dc:type
           rdf:resource="http://purl.org/dc/dcmitype/StillImage" />
      </cc:Work>
    </rdf:RDF>
  </metadata>
  <sodipodi:namedview
     pagecolor="#ffffff"
     bordercolor="#666666"
     borderopacity="1"
     objecttolerance="10"
     gridtolerance="10"
     guidetolerance="10"
     inkscape:pageopacity="0"
     inkscape:pageshadow="2"
     inkscape:window-width="640"
     inkscape:window-height="480"
     id="namedview8"
     showgrid="false"
     inkscape:zoom="41.875"
     inkscape:cx="3.4865672"
     inkscape:cy="5.8746269"
     inkscape:current-layer="svg6" />
  <defs
     id="defs3051">
    <style
       type="text/css"
       id="current-color-scheme">
      .ColorScheme-Text {
        color:#f2f2f2;
      }
      </style>
    <linearGradient
       inkscape:collect="always"
       xlink:href="#default_color"
       id="linearGradient846"
       gradientUnits="userSpaceOnUse"
       gradientTransform="translate(67,515.00001)"
       x1="3"
       y1="-436.5"
       x2="15.000001"
       y2="-436.5" />
    <linearGradient
       id="default_color"
       osb:paint="solid">
      <stop
         style="stop-color:#000000;stop-opacity:1;"
         offset="0"
         id="stop823" />
    </linearGradient>
  </defs>
  <path
     style="fill:url(#linearGradient846);fill-opacity:1;stroke:none;font-variant-east_asian:normal;opacity:0.63999999;vector-effect:none;stroke-width:0.12990442;stroke-linecap:round;stroke-linejoin:round;stroke-miterlimit:4;stroke-dasharray:none;stroke-dashoffset:0;stroke-opacity:0.96354167;marker:none;marker-start:none;marker-mid:none;marker-end:none;paint-order:normal"
     d="M 2 2 L 2 13 L 5 13 L 5 14 L 7 14 L 7 13 L 6 13 L 6 5 L 12 5 L 12 6 L 13 6 L 13 4 L 12 4 L 12 2 L 2.7851562 2 L 2 2 z M 3 3 L 11 3 L 11 4 L 5 4 L 5 12 L 3 12 L 3 3 z M 11.003906 7 A 2 2 0 0 0 9.0039062 9 L 9.0039062 11 L 8.0039062 11 L 8.0039062 14 L 14.003906 14 L 14.003906 11 L 13.003906 11 L 13.003906 9 A 2 2 0 0 0 11.003906 7 z M 11.003906 8 A 1 1 0 0 1 12.003906 9 L 12.003906 11 L 10.003906 11 L 10.003906 9 A 1 1 0 0 1 11.003906 8 z "
     class="ColorScheme-Text"
     id="path4" />
</svg>
