<?xml version="1.0" encoding="UTF-8" standalone="no"?>
<svg
   xmlns:osb="http://www.openswatchbook.org/uri/2009/osb"
   xmlns:dc="http://purl.org/dc/elements/1.1/"
   xmlns:cc="http://creativecommons.org/ns#"
   xmlns:rdf="http://www.w3.org/1999/02/22-rdf-syntax-ns#"
   xmlns:svg="http://www.w3.org/2000/svg"
   xmlns="http://www.w3.org/2000/svg"
   xmlns:xlink="http://www.w3.org/1999/xlink"
   xmlns:sodipodi="http://sodipodi.sourceforge.net/DTD/sodipodi-0.dtd"
   xmlns:inkscape="http://www.inkscape.org/namespaces/inkscape"
   viewBox="0 0 16 16"
   version="1.1"
   id="svg6"
   sodipodi:docname="object-flip-vertical.svg"
   inkscape:version="0.92.2 5c3e80d, 2017-08-06">
  <metadata
     id="metadata10">
    <rdf:RDF>
      <cc:Work
         rdf:about="">
        <dc:format>image/svg+xml</dc:format>
        <dc:type
           rdf:resource="http://purl.org/dc/dcmitype/StillImage" />
      </cc:Work>
    </rdf:RDF>
  </metadata>
  <sodipodi:namedview
     pagecolor="#ffffff"
     bordercolor="#666666"
     borderopacity="1"
     objecttolerance="10"
     gridtolerance="10"
     guidetolerance="10"
     inkscape:pageopacity="0"
     inkscape:pageshadow="2"
     inkscape:window-width="640"
     inkscape:window-height="480"
     id="namedview8"
     showgrid="false"
     inkscape:zoom="41.875"
     inkscape:cx="3.3910448"
     inkscape:cy="7.9044776"
     inkscape:current-layer="svg6" />
  <defs
     id="defs3051">
    <style
       type="text/css"
       id="current-color-scheme">
      .ColorScheme-Text {
        color:#f2f2f2;
      }
      </style>
    <linearGradient
       inkscape:collect="always"
       xlink:href="#default_color"
       id="linearGradient846"
       gradientUnits="userSpaceOnUse"
       gradientTransform="translate(67,515.00001)"
       x1="3"
       y1="-436.5"
       x2="15.000001"
       y2="-436.5" />
    <linearGradient
       id="default_color"
       osb:paint="solid">
      <stop
         style="stop-color:#000000;stop-opacity:1;"
         offset="0"
         id="stop823" />
    </linearGradient>
  </defs>
  <path
     style="fill:url(#linearGradient846);fill-opacity:1;stroke:none;font-variant-east_asian:normal;opacity:0.63999999;vector-effect:none;stroke-width:0.12990442;stroke-linecap:round;stroke-linejoin:round;stroke-miterlimit:4;stroke-dasharray:none;stroke-dashoffset:0;stroke-opacity:0.96354167;marker:none;marker-start:none;marker-mid:none;marker-end:none;paint-order:normal"
     d="M 4 2 L 4 7 L 6 7 L 6 9 L 4 9 L 4 14 L 12 14 L 12 9 L 10 9 L 10 7 L 12 7 L 12 2 L 4 2 z M 5 3 L 11 3 L 11 6 L 5 6 L 5 3 z M 2 4 L 2 5 L 3 5 L 3 4 L 2 4 z M 13 4 L 13 5 L 14 5 L 14 4 L 13 4 z M 7 7 L 9 7 L 9 9 L 7 9 L 7 7 z M 5 10 L 11 10 L 11 13 L 5 13 L 5 10 z M 2 11 L 2 12 L 3 12 L 3 11 L 2 11 z M 6 11 L 6 12 L 10 12 L 10 11 L 6 11 z M 13 11 L 13 12 L 14 12 L 14 11 L 13 11 z "
     class="ColorScheme-Text"
     id="path4" />
</svg>
