<?xml version="1.0" encoding="UTF-8" standalone="yes"?>
<svg xmlns:dc="http://purl.org/dc/elements/1.1/" xmlns:cc="http://creativecommons.org/ns#" xmlns:rdf="http://www.w3.org/1999/02/22-rdf-syntax-ns#" xmlns:svg="http://www.w3.org/2000/svg" xmlns="http://www.w3.org/2000/svg" xmlns:xlink="http://www.w3.org/1999/xlink" xmlns:sodipodi="http://sodipodi.sourceforge.net/DTD/sodipodi-0.dtd" xmlns:inkscape="http://www.inkscape.org/namespaces/inkscape" height="32" viewBox="0 0 32 32" width="32" id="svg2" version="1.1" inkscape:version="0.92.1 r" sodipodi:docname="network-workgroup.svg" enable-background="new" folder="32">
  <title id="title4675">Template icons dark</title>
  <metadata id="metadata24">
    <rdf:RDF>
      <cc:Work rdf:about="">
        <dc:format>image/svg+xml</dc:format>
        <dc:type rdf:resource="http://purl.org/dc/dcmitype/StillImage"/>
        <dc:title>Template icons dark</dc:title>
        <dc:date>17/05/13</dc:date>
        <dc:creator>
          <cc:Agent>
            <dc:title>wfpaisa</dc:title>
          </cc:Agent>
        </dc:creator>
        <dc:rights>
          <cc:Agent>
            <dc:title>License: GPLv3</dc:title>
          </cc:Agent>
        </dc:rights>
        <dc:language>es-en</dc:language>
        <dc:subject>
          <rdf:Bag>
            <rdf:li>plane-icon-theme</rdf:li>
          </rdf:Bag>
        </dc:subject>
        <dc:description>Template for create set icons</dc:description>
        <cc:license rdf:resource="https://www.gnu.org/licenses/gpl-3.0.en.html"/>
      </cc:Work>
    </rdf:RDF>
  </metadata>
  <defs id="defs22">
    <linearGradient id="linearGradient8578">
      <stop style="stop-color:#4ba8dc;stop-opacity:1;" offset="0" id="stop8574"/>
      <stop style="stop-color:#32b69b;stop-opacity:1;" offset="1" id="stop8576"/>
    </linearGradient>
    <linearGradient id="linearGradient7727">
      <stop style="stop-color:#0386ea;stop-opacity:1;" offset="0" id="stop7723"/>
      <stop style="stop-color:#11b4ff;stop-opacity:1;" offset="1" id="stop7725"/>
    </linearGradient>
    <clipPath clipPathUnits="userSpaceOnUse" id="clipPath88">
      <path d="m 4251.24,3890.73 c 2.61,8.02 5.1,16.09 7.46,24.19 -139.9,197.7 -370.37,326.77 -630.98,326.77 -426.63,0 -772.48,-345.85 -772.48,-772.48 0,-109.19 22.69,-213.05 63.55,-307.21 7.9,-1.64 15.83,-3.11 23.77,-4.51 118.52,-260.07 380.71,-440.86 685.16,-440.86 415.63,0 752.58,336.94 752.58,752.58 0,156.19 -47.59,301.26 -129.06,421.52 z" id="path86" inkscape:connector-curvature="0"/>
    </clipPath>
    <radialGradient inkscape:collect="always" xlink:href="#linearGradient8578" id="radialGradient8580" cx="15.713943" cy="18.263794" fx="15.713943" fy="18.263794" r="21.544892" gradientUnits="userSpaceOnUse" gradientTransform="matrix(1.4436277,0,0,1.4098437,-6.6116658,-7.4712195)"/>
    <radialGradient inkscape:collect="always" xlink:href="#linearGradient8578" id="radialGradient8580-3" cx="15.713943" cy="18.263794" fx="15.713943" fy="18.263794" r="21.544891" gradientUnits="userSpaceOnUse" gradientTransform="matrix(0.90918676,0,0,0.88790983,-35.197574,-35.777007)"/>
    <radialGradient inkscape:collect="always" xlink:href="#linearGradient8578" id="radialGradient8580-6" cx="15.713943" cy="18.263794" fx="15.713943" fy="18.263794" r="21.544891" gradientUnits="userSpaceOnUse" gradientTransform="matrix(2.7899588,0,0,2.7246677,100.63465,99.069437)"/>
    <radialGradient inkscape:collect="always" xlink:href="#linearGradient8578" id="radialGradient8580-8" cx="15.713943" cy="18.263794" fx="15.713943" fy="18.263794" r="21.544891" gradientUnits="userSpaceOnUse" gradientTransform="matrix(3.6390859,0,0,3.5539234,194.49978,192.4895)"/>
    <radialGradient inkscape:collect="always" xlink:href="#linearGradient8578" id="radialGradient8580-36" cx="15.713943" cy="18.263794" fx="15.713943" fy="18.263794" r="21.544891" gradientUnits="userSpaceOnUse" gradientTransform="matrix(1.8801872,0,0,1.8361868,40.064702,38.976336)"/>
  </defs>
  <sodipodi:namedview pagecolor="#383c4a" bordercolor="#ffffff" borderopacity="0.62745098" objecttolerance="4" gridtolerance="10" guidetolerance="4" inkscape:pageopacity="0" inkscape:pageshadow="2" inkscape:window-width="640" inkscape:window-height="480" id="namedview20" showgrid="true" inkscape:zoom="1.4789492" inkscape:cx="214.31045" inkscape:cy="-90.797206" inkscape:current-layer="layer8" inkscape:snap-smooth-nodes="true" showguides="true" borderlayer="true" inkscape:showpageshadow="false" inkscape:guide-bbox="true" guidecolor="#bd4fff" guideopacity="0.78431373" inkscape:snap-nodes="true" inkscape:lockguides="false" fit-margin-top="0" fit-margin-left="0" fit-margin-right="0" fit-margin-bottom="0" guidehicolor="#ff0101" guidehiopacity="0.78431373" inkscape:snap-page="true" inkscape:object-nodes="true" inkscape:snap-bbox="true" inkscape:snap-global="true" inkscape:snap-object-midpoints="false" inkscape:snap-bbox-edge-midpoints="false">
    <inkscape:grid type="xygrid" id="grid4171" empspacing="4" dotted="false" originx="2.7755576e-17" originy="0" spacingx="1" spacingy="1" color="#5a5a5a" opacity="0.23529412" empcolor="#5a5a5a" empopacity="0.47058824" visible="true"/>
    <inkscape:grid type="axonomgrid" id="grid4699" units="mm" empspacing="4" color="#5a5a5a" opacity="0.23529412" empcolor="#5a5a5a" empopacity="0.47058824" gridanglex="45" gridanglez="45" spacingy="3.7795276" visible="false" originx="1.3228346" originy="1.3228346"/>
    <sodipodi:guide position="48,0" orientation="1,0" id="guide4568" inkscape:locked="false" inkscape:label="" inkscape:color="rgb(189,79,255)"/>
    <sodipodi:guide position="111.99996,-3.9999999e-05" orientation="0,1" id="guide4570" inkscape:locked="false" inkscape:label="" inkscape:color="rgb(189,79,255)"/>
    <sodipodi:guide position="0,0" orientation="1,0" id="guide4572" inkscape:locked="false" inkscape:label="" inkscape:color="rgb(189,79,255)"/>
    <sodipodi:guide position="0,48" orientation="0,1" id="guide4574" inkscape:locked="false" inkscape:label="" inkscape:color="rgb(189,79,255)"/>
    <sodipodi:guide position="0,80" orientation="0,1" id="guide4576" inkscape:locked="false" inkscape:label="" inkscape:color="rgb(189,79,255)"/>
    <sodipodi:guide position="-32,48" orientation="1,0" id="guide4578" inkscape:locked="false" inkscape:label="" inkscape:color="rgb(189,79,255)"/>
    <sodipodi:guide position="-32,104" orientation="0,1" id="guide4580" inkscape:locked="false" inkscape:label="" inkscape:color="rgb(189,79,255)"/>
    <sodipodi:guide position="-56,80" orientation="1,0" id="guide4582" inkscape:locked="false" inkscape:label="" inkscape:color="rgb(189,79,255)"/>
    <sodipodi:guide position="48,-64" orientation="0,1" id="guide4584" inkscape:locked="false" inkscape:label="" inkscape:color="rgb(189,79,255)"/>
    <sodipodi:guide position="27.439936,27.439936" orientation="-0.70710678,0.70710678" id="guide4588" inkscape:locked="false" inkscape:label="" inkscape:color="rgb(189,79,255)"/>
    <sodipodi:guide position="-56,80" orientation="-0.70710678,0.70710678" id="guide4573" inkscape:locked="false" inkscape:label="" inkscape:color="rgb(189,79,255)"/>
    <sodipodi:guide position="-32,48" orientation="-0.70710678,0.70710678" id="guide4575" inkscape:locked="false" inkscape:label="" inkscape:color="rgb(189,79,255)"/>
    <sodipodi:guide position="48,-64" orientation="-0.70710678,0.70710678" id="guide4577" inkscape:locked="false" inkscape:label="" inkscape:color="rgb(189,79,255)"/>
    <sodipodi:guide position="47.999962,0" orientation="0.70710678,0.70710678" id="guide4697" inkscape:locked="false" inkscape:label="" inkscape:color="rgb(189,79,255)"/>
    <sodipodi:guide position="207.99995,-288" orientation="0,1" id="guide7833" inkscape:locked="false"/>
    <sodipodi:guide position="335.99994,-288" orientation="1,0" id="guide7835" inkscape:locked="false" inkscape:label="" inkscape:color="rgb(189,79,255)"/>
    <sodipodi:guide position="111.99996,-64" orientation="1,0" id="guide7915" inkscape:locked="false"/>
    <sodipodi:guide position="111.99996,-160" orientation="0,1" id="guide7917" inkscape:locked="false"/>
    <sodipodi:guide position="207.99996,-160" orientation="1,0" id="guide7919" inkscape:locked="false"/>
    <sodipodi:guide position="111.99996,-160" orientation="-0.70710678,0.70710678" id="guide7921" inkscape:locked="false" inkscape:label="" inkscape:color="rgb(189,79,255)"/>
    <sodipodi:guide position="207.99996,-288" orientation="-0.70710678,0.70710678" id="guide7923" inkscape:locked="false" inkscape:label="" inkscape:color="rgb(189,79,255)"/>
    <sodipodi:guide position="-72,104" orientation="1,0" id="guide7824" inkscape:locked="false"/>
    <sodipodi:guide position="-56,120" orientation="0,1" id="guide7826" inkscape:locked="false"/>
    <sodipodi:guide position="-72,104" orientation="-0.70710678,0.70710678" id="guide7828" inkscape:locked="false" inkscape:label="" inkscape:color="rgb(189,79,255)"/>
  </sodipodi:namedview>
  <g style="display:inline" inkscape:label="icon_32" id="g7816" inkscape:groupmode="layer" transform="translate(32,32)">
    <g style="display:none" inkscape:label="frame" id="g7802" inkscape:groupmode="layer">
      <rect style="color:#000000;clip-rule:nonzero;display:block;overflow:visible;visibility:visible;opacity:1;isolation:auto;mix-blend-mode:normal;color-interpolation:sRGB;color-interpolation-filters:linearRGB;solid-color:#000000;solid-opacity:1;vector-effect:none;fill:#000000;fill-opacity:1;fill-rule:nonzero;stroke:#ff24f7;stroke-width:0;stroke-linecap:square;stroke-linejoin:miter;stroke-miterlimit:4;stroke-dasharray:none;stroke-dashoffset:0;stroke-opacity:0.99481865;marker:none;marker-start:none;marker-mid:none;marker-end:none;paint-order:normal;color-rendering:auto;image-rendering:auto;shape-rendering:auto;text-rendering:auto;enable-background:accumulate" id="rect7792" width="32" height="32" x="-32" y="-32" inkscape:label="frame_32"/>
      <text inkscape:label="txt_32" id="text7796" y="-11.470053" x="-23.799042" style="font-size:12.4444437px;line-height:1000%;font-family:sans-serif;letter-spacing:0px;word-spacing:0px;display:inline;opacity:1;fill:#ffffff;fill-opacity:1;stroke:none;stroke-width:0.07444605px;stroke-linecap:butt;stroke-linejoin:miter;stroke-opacity:1" xml:space="preserve">
        <tspan id="tspan7794" style="font-size:12.4444437px;fill:#ffffff;fill-opacity:1;stroke:none;stroke-width:0.07444605px" y="-11.470053" x="-23.799042" sodipodi:role="line">32</tspan>
      </text>
    </g>
    <g style="display:inline" inkscape:label="icon" id="g7814" inkscape:groupmode="layer">
      <path d="m -3.3226956,-15.95665 c 0,-6.956362 -5.6395025,-12.595862 -12.5958624,-12.595862 -6.956528,0 -12.595862,5.6395 -12.595862,12.595862 0,6.956528 5.639334,12.5958617 12.595862,12.5958617 6.9563599,0 12.5958624,-5.6393337 12.5958624,-12.5958617" style="display:inline;fill:url(#radialGradient8580-3);fill-opacity:1;fill-rule:nonzero;stroke:none;stroke-width:0.0167369" id="path78-5" inkscape:connector-curvature="0" inkscape:label="cirtulo"/>
      <path style="display:inline;fill:#90e2a3;fill-opacity:0.50520833;fill-rule:nonzero;stroke:none;stroke-width:0.0167369" d="m -27.596792,-11.286095 c 0.07047,0.01524 0.133443,0.04825 0.204191,0.06273 1.265153,0.258886 2.574838,0.394851 3.916526,0.394851 1.341657,0 2.651391,-0.135965 3.916526,-0.394851 1.265135,-0.258886 2.485811,-0.639937 3.648372,-1.131659 1.16256,-0.491723 2.26756,-1.093696 3.301493,-1.792204 1.033933,-0.698509 1.996639,-1.493551 2.8758911,-2.372795 0.8792529,-0.879245 1.674276,-1.843191 2.3727953,-2.877122 0.6985186,-1.03393 1.3004718,-2.138926 1.7922041,-3.301493 0.040628,-0.09605 0.054364,-0.204532 0.093485,-0.301366 -2.263722,-3.34972 -6.0961465,-5.552512 -10.4432495,-5.552512 -6.956527,0 -12.595862,5.6395 -12.595862,12.595862 0,1.653585 0.338404,3.223869 0.917628,4.670555 z" id="path8613-3" inkscape:connector-curvature="0" inkscape:label="brillo"/>
      <path style="display:inline;fill:#207fa2;fill-opacity:0.92708333;fill-rule:nonzero;stroke:none;stroke-width:0.01590123" d="m -16.136612,-28.396611 -2.194649,0.05967 -1.944049,0.653079 1.498176,0.510964 1.146685,-0.237582 0.09764,0.379697 0.249515,0.653079 -0.449128,0.53483 0.09981,1.068576 0.697558,0.237582 0.449128,-1.247576 0.847266,-0.177915 0.948159,-0.771328 -0.748547,-1.425491 z m -4.920873,1.734673 -1.761795,0.675862 -2.83688,2.028666 -1.173806,1.97985 -0.929715,1.496006 0.04882,3.573492 0.39163,-0.193104 0.09764,-1.641375 0.341727,2.559158 0.978533,0.579309 0.83208,0.627042 0.586903,0.772413 1.199842,-0.142116 -0.195273,0.190934 0.263618,0.965515 -0.632466,0.531576 0.211545,0.916697 1.158619,1.8355639 0.684539,0.096552 0.580395,0.4827578 0.420921,1.8832968 0.263618,1.0132489 1.285545,2.1252186 1.471055,0.4089889 -0.965515,-1.3267706 -0.210461,-0.9655151 0.78977,-0.8689646 0.632467,-1.545909 1.001316,-0.1442843 0.632466,-1.8832983 0.789769,-0.675861 -0.684539,-0.868963 -2.423551,-0.435024 -0.315692,-1.062068 -1.159703,-0.04774 -0.737697,-0.821231 -0.948157,-0.04881 -1.264934,-0.386206 -0.636806,0.620533 -0.867879,-0.52398 -0.245176,-0.772413 -0.830995,-0.289655 0.244092,-0.820145 -0.782176,0.53049 -0.391631,-0.289654 0.04882,-1.641376 1.271442,-0.579309 0.586903,0.09655 0.147539,1.109801 0.586903,-0.09655 0.146455,-1.834479 0.978534,-0.289655 v -0.868964 l 1.124987,-0.868963 1.222625,-0.04882 -0.439363,-0.916697 1.663073,-0.580394 -1.027352,-1.302904 -0.635721,0.289655 -0.196357,-0.917782 -0.635722,0.193103 -0.929715,1.834479 -0.341728,-0.723594 -0.635721,-0.57931 1.417897,-0.965515 c 0,0 0.978222,-0.338473 1.173806,-0.338473 0.195745,0 0.586903,0.435025 0.586903,0.435025 l 0.78326,-0.579308 -0.245175,-0.676946 -0.977448,0.09655 z m 10.565341,0.435025 -1.07617,0.144285 0.342812,1.835563 0.783261,0.09655 0.7821755,0.627042 v -0.675861 l -0.6845395,-1.013249 1.3690786,0.868964 0.048815,1.109801 -1.2226246,0.145369 -0.538085,1.014334 0.538085,0.916697 -1.271443,-0.144285 0.244091,1.448274 0.734443,0.337387 0.8798116,-0.820146 0.1475397,-1.062066 0.5869036,0.144284 0.6357213,0.628128 -0.4404489,0.627042 0.7333575,0.194188 0.245176,-0.724679 0.3916305,0.724679 0.4881822,-0.531576 0.39163,0.820146 0.7344427,0.194188 -0.049899,0.916697 -1.0761696,-0.433939 -0.2440909,0.289654 -1.3213468,-0.482757 -0.341727,-0.628128 -2.3920919,0.477333 -1.536145,2.354123 0.341727,1.876788 1.36691,1.347382 1.9256055,-0.310267 0.7344433,0.821231 -0.4404489,1.303988 0.341727,1.593642 -0.9774484,1.3517223 -0.8808965,2.0764001 1.3202604,-0.2419211 2.1035222,-1.9798491 1.0273512,-1.8832972 0.6856243,-1.931031 0.7821759,-0.868964 -0.6357213,-0.628127 -0.5869029,-3.428121 0.6845391,1.303987 v 1.690195 l 0.6357182,-0.724679 -0.1952724,-2.366055 -0.4892661,-1.351722 -0.4892674,-1.883297 -1.5676067,-2.210922 -0.8776425,-1.361485 -1.7617946,-0.870049 z" id="path90-5" inkscape:connector-curvature="0" inkscape:label="continentes sombra"/>
      <path style="display:inline;fill:#f6fef6;fill-opacity:1;fill-rule:nonzero;stroke:none;stroke-width:0.01590123" d="m -16.226074,-28.376613 -2.252248,0.05043 -1.996395,0.563369 1.433025,0.204191 1.177172,-0.204191 0.205421,0.56337 0.255853,0.56214 -0.461274,0.461274 0.102096,0.921318 0.717127,0.204191 0.461274,-1.075076 0.869656,-0.152529 0.972981,-0.665464 -0.76879,-1.228835 z m -5.067866,1.075076 -1.842637,0.715898 -2.968146,2.150153 -1.228835,2.097261 -0.971751,1.588013 0.05043,3.787369 0.409612,-0.205421 0.103325,-1.740541 0.357949,2.713522 0.103325,0.06151 0.918859,0.552299 0.872115,0.665465 0.613803,0.819223 1.206693,-0.145148 -0.184509,0.196811 0.257083,1.023413 -0.615032,0.56214 0.152528,0.720818 0.05289,0.252163 1.126739,1.9447324 0.664235,0.1033251 0.563369,0.5104769 0.409612,1.997625 0.255854,1.0738464 0.921318,1.4330256 1.433025,0.8192229 -0.613802,-0.9717513 -0.205421,-1.0246438 0.768791,-0.921318 0.613802,-1.6372164 0.971751,-0.1537577 0.613803,-1.9963951 0.76879,-0.717128 -0.665465,-0.920088 -2.355574,-0.461274 -0.05166,-0.19066 -0.254623,-0.936079 -1.126739,-0.05043 -0.715898,-0.869656 -0.920088,-0.05166 -1.230065,-0.409611 -0.602731,0.640864 -0.880727,-0.537539 -0.255853,-0.819223 -0.870886,-0.307516 0.18574,-0.629793 0.07134,-0.239863 -0.55353,0.37886 -0.265694,0.18451 -0.113165,-0.0861 -0.296446,-0.221412 0.05166,-1.741772 1.3297,-0.613802 0.615032,0.103325 0.152528,1.177172 0.613803,-0.103325 0.154988,-1.943502 1.022183,-0.307516 v -0.922549 l 1.178402,-0.920088 1.279268,-0.05166 -0.460045,-0.97298 1.740542,-0.613803 -1.075076,-1.382593 -0.665466,0.307516 -0.205421,-0.971751 -0.665464,0.204191 -0.971751,1.945963 -0.357949,-0.768791 -0.666695,-0.613802 1.484688,-1.023414 c 0,0 1.024187,-0.357949 1.228835,-0.357949 0.204649,0 0.613802,0.460045 0.613802,0.460045 l 0.819223,-0.615033 -0.255854,-0.715898 -1.023414,0.102096 z m 11.055821,0.460045 -1.126739,0.153758 0.359178,1.944732 0.817993,0.102096 0.8192239,0.665464 v -0.715898 l -0.7158979,-1.075076 1.433025,0.920089 0.051662,1.178401 -1.2792672,0.152529 -0.5633698,1.075076 0.5633698,0.972981 -1.3309308,-0.153758 0.255854,1.53512 0.76633,0.35918 0.9225488,-0.870886 0.1525284,-1.125509 0.615032,0.153758 0.6654652,0.664235 -0.4612743,0.666695 0.3887001,0.103325 0.3800902,0.100866 0.2558534,-0.767561 0.4083812,0.767561 0.5129375,-0.56337 0.4096112,0.870886 0.7663303,0.204191 -0.050434,0.97298 -1.125509,-0.461274 -0.257084,0.307516 -1.3813624,-0.511706 -0.2509329,-0.467425 -0.1070157,-0.198041 -2.046827,0.461275 -1.588014,2.354343 0.100865,1.007424 0.104556,1.039404 1.53512,1.483458 1.5867834,-0.255853 0.7675603,0.870886 -0.4600437,1.381362 0.3579486,1.6888789 -1.0234138,1.4330249 -0.9225487,2.2018159 1.382593,-0.2558534 2.2018159,-2.0984902 1.0750764,-1.9963951 0.7158978,-2.048057 0.8179929,-0.921319 -0.6642353,-0.664235 -0.613802,-3.634841 0.7158978,1.382593 v 1.790974 l 0.6654646,-0.76756 -0.2041903,-2.508102 -0.5129375,-1.433026 -0.5117069,-1.995165 -1.3038682,-1.866007 -0.3358076,-0.478496 -0.9188587,-1.444095 -1.8426367,-0.921319 z" id="path98-6" inkscape:connector-curvature="0" inkscape:label="continentes"/>
      <ellipse inkscape:label="red2" transform="matrix(0.918118,-0.39630712,0.3323136,0.94316895,0,0)" ry="3.6430511" rx="14.673836" cy="-25.542271" cx="-9.057992" id="ellipse8631-2" style="color:#000000;clip-rule:nonzero;display:inline;overflow:visible;visibility:visible;opacity:1;isolation:auto;mix-blend-mode:normal;color-interpolation:sRGB;color-interpolation-filters:linearRGB;solid-color:#000000;solid-opacity:1;vector-effect:none;fill:none;fill-opacity:0.359375;fill-rule:nonzero;stroke:#000000;stroke-width:0.31526902;stroke-linecap:butt;stroke-linejoin:miter;stroke-miterlimit:4;stroke-dasharray:0.63053801, 0.31526901, 0.1576345, 0.31526901;stroke-dashoffset:0;stroke-opacity:0.16145833;marker:none;marker-start:none;marker-mid:none;marker-end:none;paint-order:fill markers stroke;color-rendering:auto;image-rendering:auto;shape-rendering:auto;text-rendering:auto;enable-background:accumulate"/>
      <ellipse inkscape:label="red2" style="color:#000000;clip-rule:nonzero;display:inline;overflow:visible;visibility:visible;opacity:1;isolation:auto;mix-blend-mode:normal;color-interpolation:sRGB;color-interpolation-filters:linearRGB;solid-color:#000000;solid-opacity:1;vector-effect:none;fill:none;fill-opacity:0.359375;fill-rule:nonzero;stroke:#000000;stroke-width:0.31092402;stroke-linecap:butt;stroke-linejoin:miter;stroke-miterlimit:4;stroke-dasharray:0.62184804, 0.31092402, 0.15546201, 0.31092402;stroke-dashoffset:0;stroke-opacity:0.16145833;marker:none;marker-start:none;marker-mid:none;marker-end:none;paint-order:fill markers stroke;color-rendering:auto;image-rendering:auto;shape-rendering:auto;text-rendering:auto;enable-background:accumulate" id="ellipse8633-9" cx="-22.043047" cy="-9.5718718" rx="15.923765" ry="3.9533691" transform="matrix(0.91225052,0.40963276,-0.47132018,0.88196218,0,0)"/>
      <ellipse inkscape:label="red2" transform="matrix(0.35540442,0.93471263,-0.95691513,0.29036774,0,0)" ry="3.8499708" rx="15.507286" cy="12.180967" cx="-20.625313" id="ellipse8635-1" style="color:#000000;clip-rule:nonzero;display:inline;overflow:visible;visibility:visible;opacity:1;isolation:auto;mix-blend-mode:normal;color-interpolation:sRGB;color-interpolation-filters:linearRGB;solid-color:#000000;solid-opacity:1;vector-effect:none;fill:none;fill-opacity:0.359375;fill-rule:nonzero;stroke:#000000;stroke-width:0.31526902;stroke-linecap:butt;stroke-linejoin:miter;stroke-miterlimit:4;stroke-dasharray:0.63053801, 0.31526901, 0.1576345, 0.31526901;stroke-dashoffset:0;stroke-opacity:0.16145833;marker:none;marker-start:none;marker-mid:none;marker-end:none;paint-order:fill markers stroke;color-rendering:auto;image-rendering:auto;shape-rendering:auto;text-rendering:auto;enable-background:accumulate"/>
      <ellipse inkscape:label="red2" style="color:#000000;clip-rule:nonzero;display:inline;overflow:visible;visibility:visible;opacity:1;isolation:auto;mix-blend-mode:normal;color-interpolation:sRGB;color-interpolation-filters:linearRGB;solid-color:#000000;solid-opacity:1;vector-effect:none;fill:none;fill-opacity:0.359375;fill-rule:nonzero;stroke:#000000;stroke-width:0.30998367;stroke-linecap:butt;stroke-linejoin:miter;stroke-miterlimit:4;stroke-dasharray:0.61996733, 0.30998366, 0.15499183, 0.30998366;stroke-dashoffset:0;stroke-opacity:0.16145833;marker:none;marker-start:none;marker-mid:none;marker-end:none;paint-order:fill markers stroke;color-rendering:auto;image-rendering:auto;shape-rendering:auto;text-rendering:auto;enable-background:accumulate" id="ellipse8637-2" cx="-3.6281874" cy="24.774103" rx="15.247313" ry="3.7854278" transform="matrix(-0.50038712,0.86580178,-0.82938999,-0.55867007,0,0)"/>
      <ellipse style="color:#000000;clip-rule:nonzero;display:inline;overflow:visible;visibility:visible;opacity:1;isolation:auto;mix-blend-mode:normal;color-interpolation:sRGB;color-interpolation-filters:linearRGB;solid-color:#000000;solid-opacity:1;vector-effect:none;fill:none;fill-opacity:0.359375;fill-rule:nonzero;stroke:#ffffff;stroke-width:0.31526902;stroke-linecap:butt;stroke-linejoin:miter;stroke-miterlimit:4;stroke-dasharray:0.63053801, 0.31526901, 0.1576345, 0.31526901;stroke-dashoffset:0;stroke-opacity:1;marker:none;marker-start:none;marker-mid:none;marker-end:none;paint-order:fill markers stroke;color-rendering:auto;image-rendering:auto;shape-rendering:auto;text-rendering:auto;enable-background:accumulate" id="path8605-7" cx="-9.2574263" cy="-25.845564" rx="14.673836" ry="3.6430511" transform="matrix(0.918118,-0.39630712,0.3323136,0.94316895,0,0)" inkscape:label="red"/>
      <ellipse transform="matrix(0.91225052,0.40963276,-0.47132018,0.88196218,0,0)" ry="3.9533691" rx="15.923765" cy="-9.6436062" cx="-22.387012" id="ellipse8607-0" style="color:#000000;clip-rule:nonzero;display:inline;overflow:visible;visibility:visible;opacity:1;isolation:auto;mix-blend-mode:normal;color-interpolation:sRGB;color-interpolation-filters:linearRGB;solid-color:#000000;solid-opacity:1;vector-effect:none;fill:none;fill-opacity:0.359375;fill-rule:nonzero;stroke:#ffffff;stroke-width:0.31092402;stroke-linecap:butt;stroke-linejoin:miter;stroke-miterlimit:4;stroke-dasharray:0.62184804, 0.31092402, 0.15546201, 0.31092402;stroke-dashoffset:0;stroke-opacity:1;marker:none;marker-start:none;marker-mid:none;marker-end:none;paint-order:fill markers stroke;color-rendering:auto;image-rendering:auto;shape-rendering:auto;text-rendering:auto;enable-background:accumulate" inkscape:label="red"/>
      <ellipse style="color:#000000;clip-rule:nonzero;display:inline;overflow:visible;visibility:visible;opacity:1;isolation:auto;mix-blend-mode:normal;color-interpolation:sRGB;color-interpolation-filters:linearRGB;solid-color:#000000;solid-opacity:1;vector-effect:none;fill:none;fill-opacity:0.359375;fill-rule:nonzero;stroke:#ffffff;stroke-width:0.31526902;stroke-linecap:butt;stroke-linejoin:miter;stroke-miterlimit:4;stroke-dasharray:0.63053801, 0.31526901, 0.1576345, 0.31526901;stroke-dashoffset:0;stroke-opacity:1;marker:none;marker-start:none;marker-mid:none;marker-end:none;paint-order:fill markers stroke;color-rendering:auto;image-rendering:auto;shape-rendering:auto;text-rendering:auto;enable-background:accumulate" id="ellipse8609-9" cx="-20.906519" cy="12.373199" rx="15.507286" ry="3.8499708" transform="matrix(0.35540442,0.93471263,-0.95691513,0.29036774,0,0)" inkscape:label="red"/>
      <ellipse transform="matrix(-0.50038712,0.86580178,-0.82938999,-0.55867007,0,0)" ry="3.7854278" rx="15.247313" cy="25.118443" cx="-3.6410997" id="ellipse8611-3" style="color:#000000;clip-rule:nonzero;display:inline;overflow:visible;visibility:visible;opacity:1;isolation:auto;mix-blend-mode:normal;color-interpolation:sRGB;color-interpolation-filters:linearRGB;solid-color:#000000;solid-opacity:1;vector-effect:none;fill:none;fill-opacity:0.359375;fill-rule:nonzero;stroke:#ffffff;stroke-width:0.30998367;stroke-linecap:butt;stroke-linejoin:miter;stroke-miterlimit:4;stroke-dasharray:0.61996733, 0.30998366, 0.15499183, 0.30998366;stroke-dashoffset:0;stroke-opacity:1;marker:none;marker-start:none;marker-mid:none;marker-end:none;paint-order:fill markers stroke;color-rendering:auto;image-rendering:auto;shape-rendering:auto;text-rendering:auto;enable-background:accumulate" inkscape:label="red"/>
    </g>
  </g>
</svg>