<?xml version="1.0" encoding="UTF-8" standalone="no"?>
<!-- Created with Inkscape (http://www.inkscape.org/) -->

<svg
   xmlns:dc="http://purl.org/dc/elements/1.1/"
   xmlns:cc="http://creativecommons.org/ns#"
   xmlns:rdf="http://www.w3.org/1999/02/22-rdf-syntax-ns#"
   xmlns:svg="http://www.w3.org/2000/svg"
   xmlns="http://www.w3.org/2000/svg"
   xmlns:xlink="http://www.w3.org/1999/xlink"
   xmlns:sodipodi="http://sodipodi.sourceforge.net/DTD/sodipodi-0.dtd"
   xmlns:inkscape="http://www.inkscape.org/namespaces/inkscape"
   width="1024"
   height="1024"
   viewBox="0 0 270.93333 270.93334"
   version="1.1"
   id="svg8"
   inkscape:version="0.92.4 (5da689c313, 2019-01-14)"
   sodipodi:docname="addressbook.svg">
  <defs
     id="defs2">
    <linearGradient
       id="linearGradient1091">
      <stop
         style="stop-color:#cecece;stop-opacity:1"
         offset="0"
         id="stop1083" />
      <stop
         id="stop1085"
         offset="0.14285712"
         style="stop-color:#f2f2f2;stop-opacity:1" />
      <stop
         id="stop1087"
         offset="0.71428603"
         style="stop-color:#ffffff;stop-opacity:1" />
      <stop
         style="stop-color:#b3b3b3;stop-opacity:1"
         offset="1"
         id="stop1089" />
    </linearGradient>
    <mask
       maskUnits="userSpaceOnUse"
       id="mask1423">
      <g
         id="g1427"
         transform="matrix(0.39801054,0,0,0.39801054,-65.23909,-35.182402)">
        <path
           style="fill:#f3f5f6"
           inkscape:connector-curvature="0"
           id="path1425"
           d="M 777.6,216.5 H 511 l -14.4,33 -13.6,40 -12,46.7 -8.7,43.3 -7.3,44.7 -4.7,46 -1.3,24 c 0,7.6 6,13.7 13.3,13.7 h 66 c 7.2,0 13,5.8 13,13 v 18.7 43.3 31 l 1.7,33 3.3,39 4.3,40 4,25.3 5.3,31.3 2.9,16 h 214.7 c 15.9,0 29,-13.1 29,-29 v -524 c 0.1,-16 -12.9,-29 -28.9,-29 z" />
      </g>
    </mask>
    <linearGradient
       gradientTransform="matrix(0.26458333,0,0,0.26458333,-186.10792,29.929567)"
       y2="798.46222"
       x2="375.13599"
       y1="216.4622"
       x1="375.13599"
       gradientUnits="userSpaceOnUse"
       id="SVGID_1_">
      <stop
         id="stop60"
         style="stop-color:#1FD4FF"
         offset="0" />
      <stop
         id="stop62"
         style="stop-color:#1F74F4"
         offset="1" />
    </linearGradient>
    <linearGradient
       id="linearGradient868">
      <stop
         id="stop864"
         offset="0"
         style="stop-color:#cecece;stop-opacity:1" />
      <stop
         style="stop-color:#f2f2f2;stop-opacity:1"
         offset="0.64285713"
         id="stop885" />
      <stop
         style="stop-color:#ffffff;stop-opacity:1"
         offset="0.8214286"
         id="stop883" />
      <stop
         id="stop866"
         offset="1"
         style="stop-color:#b3b3b3;stop-opacity:1" />
    </linearGradient>
    <clipPath
       clipPathUnits="userSpaceOnUse"
       id="clipPath868">
      <rect
         style="opacity:0.5;fill:#cccccc;fill-opacity:1;fill-rule:evenodd;stroke:none;stroke-width:3.2194519;stroke-linecap:butt;stroke-linejoin:round;stroke-miterlimit:4;stroke-dasharray:none;stroke-opacity:0;paint-order:stroke fill markers"
         id="rect870"
         width="56.787552"
         height="261.22275"
         x="62.750687"
         y="-43.840023"
         transform="matrix(0.25881905,0.96592583,0.96592583,-0.25881905,0,0)" />
    </clipPath>
    <clipPath
       clipPathUnits="userSpaceOnUse"
       id="clipPath911">
      <rect
         style="opacity:0.5;fill:#cccccc;fill-opacity:1;fill-rule:evenodd;stroke:none;stroke-width:3.2194519;stroke-linecap:butt;stroke-linejoin:round;stroke-miterlimit:4;stroke-dasharray:none;stroke-opacity:0;paint-order:stroke fill markers"
         id="rect913"
         width="34.072529"
         height="62.466305"
         x="284.22214"
         y="-32.48251"
         transform="matrix(0.25881905,0.96592583,0.96592583,-0.25881905,0,0)" />
    </clipPath>
    <linearGradient
       id="linearGradient4829">
      <stop
         id="stop4831"
         offset="0"
         style="stop-color:#f4fbfc;stop-opacity:1;" />
      <stop
         id="stop4833"
         offset="1"
         style="stop-color:#ffffff;stop-opacity:1" />
    </linearGradient>
    <clipPath
       clipPathUnits="userSpaceOnUse"
       id="clipPath1153">
      <path
         inkscape:connector-curvature="0"
         id="path1155"
         style="fill:url(#linearGradient1157);fill-opacity:1;stroke-width:0.29476589"
         d="m 14.028376,177.84024 c 1.32e-4,-0.0373 2.4e-4,-0.0747 4.01e-4,-0.11206 0.335669,-0.32741 0.692241,-0.63743 1.063134,-0.93478 0.248139,-0.15317 0.498696,-0.30238 0.747418,-0.45461 l 0.09875,0.36854 c -0.601539,0.41769 -1.247643,0.78449 -1.909703,1.13291 z m 1.187955,-17.10469 c 0.08542,-0.62467 0.175342,-1.24878 0.269967,-1.87223 -0.0946,0.62346 -0.184564,1.24756 -0.269967,1.87223 z m 33.31326,73.47673 c -0.194923,-0.72855 -0.351927,-1.4615 -0.426529,-2.20462 -0.777762,-7.45228 -1.686521,-14.87889 -1.919753,-22.33478 -0.406026,-14.22593 0.279715,-28.36043 6.3349,-41.6281 4.134977,-9.08646 9.678884,-16.93288 19.596819,-20.38728 5.182307,-1.79654 10.512023,-3.1677 15.788882,-4.62907 8.612659,-2.35993 17.27358,-4.55754 25.84743,-7.04463 1.40792,-0.41046 3.49815,-1.83348 3.54943,-2.88129 0.17963,-3.79072 2.40416,-4.48169 5.43431,-4.78607 2.07253,-0.2138 4.11019,-1.03484 6.17166,-1.11286 5.74437,-0.23001 11.46088,-0.38641 17.20211,-0.27405 4.27969,0.11028 8.60637,1.35144 12.80334,0.90518 8.37268,-0.90105 16.15454,0.20605 23.66482,3.99967 1.24537,0.62922 3.12758,0.85509 4.41032,0.40228 6.09099,-2.08745 12.09517,-4.3745 18.00949,-6.85575 1.17557,-0.48102 2.60833,-2.23122 2.54445,-3.31933 -0.25635,-4.33798 2.73412,-5.81714 5.66298,-7.65024 3.87585,-2.42361 7.74359,-4.94989 11.38327,-7.67072 1.13467,-0.86377 2.13528,-2.49325 2.34522,-3.88716 1.22304,-8.163888 2.15802,-16.392779 3.27065,-24.579268 0.63094,-4.52833 1.20995,-9.066291 1.84471,-13.59304 28.20949,18.931788 46.81944,45.231228 55.83997,78.896298 9.01206,33.63346 6.06256,65.69746 -8.86454,96.17413 -7.83299,-9.98305 -15.4128,-20.16666 -22.87796,-30.4413 -1.12666,-1.56704 -3.01574,-3.32329 -4.77747,-3.59596 -4.75212,-0.77585 -9.6012,-0.92341 -14.44084,-1.08762 -3.0693,-0.1073 -5.96289,-0.14299 -8.18568,-2.91525 -0.56728,-0.754 -2.4233,-1.05832 -3.46626,-0.75514 -10.32144,2.92216 -21.7991,3.44062 -28.77276,13.51064 -0.21328,0.33701 -0.597,0.5158 -0.89596,0.7809 -7.95214,6.54218 -18.09874,10.06268 -24.97773,18.09611 -0.14027,0.18463 -0.4205,0.32607 -0.65798,0.41342 -6.23228,2.40992 -12.47024,4.81677 -18.75494,7.0842 -0.79448,0.27454 -2.39805,-0.0643 -2.81729,-0.67297 -1.99803,-2.88941 -4.48098,-2.02982 -7.05319,-1.32637 -12.57105,3.3779 -25.12958,6.73332 -37.69329,10.08554 -7.300375,1.94664 -14.376666,1.54218 -20.811043,-2.64408 -7.335232,-4.75126 -14.523124,-9.75029 -21.714302,-14.72515 -3.456053,-2.41809 -5.577095,-2.15371 -7.705673,1.53309 -0.937181,1.6362 -1.400685,3.53469 -2.07294,5.3276 -0.580192,-0.2003 -1.155123,-0.39761 -1.738239,-0.57341 -0.326112,-1.21707 -0.755629,-2.41925 -1.080392,-3.63354 z" />
    </clipPath>
    <linearGradient
       inkscape:collect="always"
       xlink:href="#linearGradient4829"
       id="linearGradient1157"
       gradientUnits="userSpaceOnUse"
       gradientTransform="matrix(0.07033079,0.26247808,0.26247808,-0.07033079,-16.898855,81.207411)"
       x1="520"
       y1="4"
       x2="520.03137"
       y2="1026.0078" />
    <linearGradient
       inkscape:collect="always"
       xlink:href="#linearGradient4829"
       id="linearGradient1187"
       x1="123.89062"
       y1="512"
       x2="200"
       y2="512"
       gradientUnits="userSpaceOnUse" />
    <linearGradient
       inkscape:collect="always"
       xlink:href="#linearGradient868"
       id="linearGradient881"
       x1="76.947578"
       y1="174.0822"
       x2="116.69886"
       y2="174.0822"
       gradientUnits="userSpaceOnUse"
       gradientTransform="translate(-5.678755)" />
    <radialGradient
       inkscape:collect="always"
       xlink:href="#linearGradient1091"
       id="radialGradient1081"
       cx="96.823219"
       cy="174.0822"
       fx="96.823219"
       fy="174.0822"
       r="19.875641"
       gradientTransform="matrix(1,0,0,0.2499999,-5.678755,130.56167)"
       gradientUnits="userSpaceOnUse" />
    <linearGradient
       inkscape:collect="always"
       xlink:href="#linearGradient868"
       id="linearGradient1158"
       gradientUnits="userSpaceOnUse"
       gradientTransform="translate(-5.678755,-164.68395)"
       x1="76.947578"
       y1="174.0822"
       x2="116.69886"
       y2="174.0822" />
    <radialGradient
       inkscape:collect="always"
       xlink:href="#linearGradient1091"
       id="radialGradient1160"
       gradientUnits="userSpaceOnUse"
       gradientTransform="matrix(1,0,0,0.2499999,-5.678755,-34.12225)"
       cx="96.823219"
       cy="174.0822"
       fx="96.823219"
       fy="174.0822"
       r="19.875641" />
  </defs>
  <sodipodi:namedview
     id="base"
     pagecolor="#ffffff"
     bordercolor="#666666"
     borderopacity="1.0"
     inkscape:pageopacity="0.0"
     inkscape:pageshadow="2"
     inkscape:zoom="0.94212562"
     inkscape:cx="502.93199"
     inkscape:cy="512.99993"
     inkscape:document-units="mm"
     inkscape:current-layer="g870"
     showgrid="true"
     showguides="true"
     inkscape:pagecheckerboard="true"
     units="px"
     inkscape:window-width="1920"
     inkscape:window-height="1029"
     inkscape:window-x="0"
     inkscape:window-y="25"
     inkscape:window-maximized="1">
    <inkscape:grid
       type="xygrid"
       id="grid815" />
  </sodipodi:namedview>
  <metadata
     id="metadata5">
    <rdf:RDF>
      <cc:Work
         rdf:about="">
        <dc:format>image/svg+xml</dc:format>
        <dc:type
           rdf:resource="http://purl.org/dc/dcmitype/StillImage" />
        <dc:title />
      </cc:Work>
    </rdf:RDF>
  </metadata>
  <g
     inkscape:label="Layer 1"
     inkscape:groupmode="layer"
     id="layer1"
     transform="translate(0,-26.06665)">
    <g
       id="g844">
      <g
         id="g848"
         transform="matrix(0.24117683,0.90008417,0.90008417,-0.24117683,-42.598331,78.560014)">
        <g
           id="g870">
          <rect
             transform="rotate(-15)"
             rx="11.4"
             y="80.891594"
             x="-30.019646"
             height="220.39792"
             width="238.125"
             id="rect1383"
             style="opacity:1;fill:#c4ccdf;fill-opacity:1;fill-rule:evenodd;stroke:none;stroke-width:20.83175087;stroke-linejoin:round;stroke-miterlimit:4;stroke-dasharray:none;stroke-opacity:0;paint-order:stroke markers fill" />
          <rect
             transform="rotate(-15)"
             style="opacity:1;fill:#c4ccdf;fill-opacity:1;fill-rule:evenodd;stroke:none;stroke-width:20.83175087;stroke-linejoin:round;stroke-miterlimit:4;stroke-dasharray:none;stroke-opacity:0;paint-order:stroke markers fill"
             id="rect852"
             width="238.125"
             height="220.39792"
             x="-30.019646"
             y="86.570381"
             rx="11.4" />
          <g
             transform="translate(-2.7531806,-8.0809071)"
             clip-path="url(#clipPath1153)"
             id="g1151"
             style="fill:#ffffff;fill-opacity:1">
            <rect
               transform="rotate(-15)"
               rx="11.4"
               y="80.891594"
               x="-30.019646"
               height="220.39792"
               width="238.125"
               id="rect1147"
               style="opacity:1;fill:#ffffff;fill-opacity:1;fill-rule:evenodd;stroke:none;stroke-width:20.83175087;stroke-linejoin:round;stroke-miterlimit:4;stroke-dasharray:none;stroke-opacity:0;paint-order:stroke markers fill" />
            <rect
               style="opacity:1;fill:#ffffff;fill-opacity:1;fill-rule:evenodd;stroke:none;stroke-width:20.83175087;stroke-linejoin:round;stroke-miterlimit:4;stroke-dasharray:none;stroke-opacity:0;paint-order:stroke markers fill"
               id="rect1149"
               width="238.125"
               height="220.39792"
               x="-30.019646"
               y="86.570381"
               rx="11.4"
               transform="rotate(-15)" />
          </g>
          <path
             transform="matrix(0.0734885,0.27426281,0.27426281,-0.0734885,-42.582009,58.736868)"
             id="rect1178"
             d="M 164.04102 92.673828 C 141.79811 92.673828 123.89062 110.58132 123.89062 132.82422 L 123.89062 891.17578 C 123.89063 913.41868 141.79811 931.32617 164.04102 931.32617 L 200 931.32617 L 200 92.673828 L 164.04102 92.673828 z "
             style="opacity:1;fill:url(#linearGradient1187);fill-opacity:1.0;fill-rule:evenodd;stroke:none;stroke-width:73.3673172;stroke-linejoin:round;stroke-miterlimit:4;stroke-dasharray:none;stroke-opacity:0;paint-order:stroke markers fill" />
          <circle
             style="opacity:1;fill:#000000;fill-opacity:0.60619465;fill-rule:evenodd;stroke:none;stroke-width:4.56300259;stroke-linecap:butt;stroke-linejoin:round;stroke-miterlimit:4;stroke-dasharray:none;stroke-opacity:0;paint-order:stroke fill markers"
             id="circle858"
             cx="107.43906"
             cy="173.90747"
             r="8.0486288"
             transform="matrix(0.25881905,0.96592582,0.96592582,-0.25881905,0,0)" />
          <rect
             rx="5.3657527"
             ry="0"
             transform="matrix(0.25881905,0.96592582,0.96592582,-0.25881905,0,0)"
             y="169.1133"
             x="71.268822"
             height="9.9378166"
             width="39.751282"
             id="rect873"
             style="opacity:1;fill:url(#linearGradient881);fill-opacity:1;fill-rule:evenodd;stroke:none;stroke-width:3.2194519;stroke-linecap:butt;stroke-linejoin:round;stroke-miterlimit:4;stroke-dasharray:none;stroke-opacity:0;paint-order:stroke fill markers" />
          <rect
             style="opacity:0.2;fill:url(#radialGradient1081);fill-opacity:1;fill-rule:evenodd;stroke:none;stroke-width:3.2194519;stroke-linecap:butt;stroke-linejoin:round;stroke-miterlimit:4;stroke-dasharray:none;stroke-opacity:0;paint-order:stroke fill markers"
             id="rect887"
             width="39.751282"
             height="9.9378166"
             x="71.268822"
             y="169.1133"
             transform="matrix(0.25881905,0.96592582,0.96592582,-0.25881905,0,0)"
             ry="0"
             rx="5.3657527" />
          <circle
             transform="matrix(0.25881905,0.96592582,0.96592582,-0.25881905,0,0)"
             r="8.0486288"
             cy="9.2235413"
             cx="107.43906"
             id="circle1151"
             style="opacity:1;fill:#000000;fill-opacity:0.60619465;fill-rule:evenodd;stroke:none;stroke-width:4.56300259;stroke-linecap:butt;stroke-linejoin:round;stroke-miterlimit:4;stroke-dasharray:none;stroke-opacity:0;paint-order:stroke fill markers" />
          <rect
             style="opacity:1;fill:url(#linearGradient1158);fill-opacity:1;fill-rule:evenodd;stroke:none;stroke-width:3.2194519;stroke-linecap:butt;stroke-linejoin:round;stroke-miterlimit:4;stroke-dasharray:none;stroke-opacity:0;paint-order:stroke fill markers"
             id="rect1153"
             width="39.751282"
             height="9.9378166"
             x="71.268822"
             y="4.429369"
             transform="matrix(0.25881905,0.96592582,0.96592582,-0.25881905,0,0)"
             ry="0"
             rx="5.3657527" />
          <rect
             rx="5.3657527"
             ry="0"
             transform="matrix(0.25881905,0.96592582,0.96592582,-0.25881905,0,0)"
             y="4.429369"
             x="71.268822"
             height="9.9378166"
             width="39.751282"
             id="rect1155"
             style="opacity:0.2;fill:url(#radialGradient1160);fill-opacity:1;fill-rule:evenodd;stroke:none;stroke-width:3.2194519;stroke-linecap:butt;stroke-linejoin:round;stroke-miterlimit:4;stroke-dasharray:none;stroke-opacity:0;paint-order:stroke fill markers" />
        </g>
      </g>
    </g>
  </g>
</svg>
