<?xml version="1.0" encoding="UTF-8" standalone="no"?>
<svg
   xmlns:dc="http://purl.org/dc/elements/1.1/"
   xmlns:cc="http://creativecommons.org/ns#"
   xmlns:rdf="http://www.w3.org/1999/02/22-rdf-syntax-ns#"
   xmlns:svg="http://www.w3.org/2000/svg"
   xmlns="http://www.w3.org/2000/svg"
   xmlns:sodipodi="http://sodipodi.sourceforge.net/DTD/sodipodi-0.dtd"
   xmlns:inkscape="http://www.inkscape.org/namespaces/inkscape"
   height="128"
   width="128"
   version="1.1"
   id="svg49"
   sodipodi:docname="deja-dup.svg"
   inkscape:version="0.92.4 5da689c313, 2019-01-14">
  <metadata
     id="metadata55">
    <rdf:RDF>
      <cc:Work
         rdf:about="">
        <dc:format>image/svg+xml</dc:format>
        <dc:type
           rdf:resource="http://purl.org/dc/dcmitype/StillImage" />
      </cc:Work>
    </rdf:RDF>
  </metadata>
  <defs
     id="defs53" />
  <sodipodi:namedview
     pagecolor="#ffffff"
     bordercolor="#666666"
     borderopacity="1"
     objecttolerance="10"
     gridtolerance="10"
     guidetolerance="10"
     inkscape:pageopacity="0"
     inkscape:pageshadow="2"
     inkscape:window-width="640"
     inkscape:window-height="480"
     id="namedview51"
     showgrid="false"
     inkscape:zoom="5.921875"
     inkscape:cx="35.799472"
     inkscape:cy="63.324538"
     inkscape:current-layer="g47" />
  <linearGradient
     id="a"
     gradientUnits="userSpaceOnUse"
     x1="64.82804851385"
     x2="64.82804851385"
     y1="927.26634117623"
     y2="1049.84959293671">
    <stop
       offset="0"
       stop-color="#fff"
       id="stop2" />
    <stop
       offset="1"
       stop-color="#d7d7d7"
       id="stop4" />
  </linearGradient>
  <linearGradient
     id="b"
     gradientUnits="userSpaceOnUse"
     x1="69.1972452"
     x2="69.1972452"
     y1="934.99487158935"
     y2="1050.60303683657">
    <stop
       offset="0"
       stop-color="#08a299"
       id="stop7"
       style="stop-color:#0177c2;stop-opacity:1;" />
    <stop
       offset="1"
       stop-color="#024343"
       id="stop9"
       style="stop-color:#60407b;stop-opacity:1;" />
  </linearGradient>
  <radialGradient
     id="c"
     cx="511.5"
     cy="540.86218"
     gradientTransform="matrix(.06706465 -.00614329 .00713416 .0778818 25.194461 950.02454)"
     gradientUnits="userSpaceOnUse"
     r="470.5">
    <stop
       offset="0"
       stop-color="#23bfb4"
       id="stop12"
       style="stop-color:#153972;stop-opacity:1;" />
    <stop
       offset="1"
       stop-color="#23bfb4"
       stop-opacity="0"
       id="stop14" />
  </radialGradient>
  <filter
     id="d"
     color-interpolation-filters="sRGB"
     height="1.066783"
     width="1.062931"
     x="-.031466"
     y="-.033392">
    <feGaussianBlur
       stdDeviation=".73305274"
       id="feGaussianBlur17" />
  </filter>
  <filter
     id="e"
     color-interpolation-filters="sRGB"
     height="1.2928"
     width="1.2928"
     x="-.1464"
     y="-.1464">
    <feGaussianBlur
       stdDeviation="6.9125251"
       id="feGaussianBlur20" />
  </filter>
  <g
     transform="translate(0,-924.36218)"
     id="g47">
    <circle
       cx="63.416836"
       cy="988.94537"
       r="61.416836"
       id="circle23"
       style="fill:url(#a)" />
    <circle
       cx="63.356625"
       cy="989.00555"
       r="56.660042"
       id="circle25"
       style="fill:url(#b)" />
    <circle
       cx="63.356625"
       cy="989.00555"
       r="56.660042"
       id="circle27"
       style="display:inline;fill:url(#c);filter:url(#e)" />
    <g
       transform="matrix(1.3886875,0,0,1.3886875,-97.694566,-350.78746)"
       id="g45">
      <g
         id="g35"
         style="opacity:0.58300003;filter:url(#d)">
        <path
           d="m 115.1428,966.20062 c 0.45573,-6.25 0.83765,-18.75 1.36719,-18.75 0.57923,0 0.91146,12.23958 1.36719,18.35938 2.99479,3.28775 9.33802,9.50962 8.98437,9.86327 -0.33998,0.33998 -7.8125,-6.3151 -11.71875,-9.47265 z"
           id="path29"
           inkscape:connector-curvature="0" />
        <path
           d="m 87.007284,962.45466 h 12.91298 l -6.40691,11.0971 z"
           id="path31"
           inkscape:connector-curvature="0" />
        <path
           d="m 116.79515,938.40374 c -14.40817,0 -26.156246,11.79916 -26.156246,26.3125 0,0.42264 0.0115,0.86339 0.0312,1.28125 l 4.96875,-1.28125 c 5e-5,-11.80129 9.440516,-21.28125 21.156296,-21.28125 11.71578,0 21.15625,9.47996 21.15625,21.28125 0,11.80129 -9.44047,21.34375 -21.15625,21.34375 -5.89796,0 -11.19476,-2.43862 -15.03125,-6.34375 0,0 -0.67902,-0.69462 -1.09111,-1.08783 -0.754946,-0.72037 -1.361936,-0.46313 -1.878276,-0.0472 -0.60421,0.48338 -1.13116,0.89515 -1.71811,1.44757 -0.48341,0.39706 -0.76297,1.05697 -0.3125,1.59375 4.805206,5.77177 11.997886,9.46875 20.031246,9.46875 14.40817,0 26.125,-11.86167 26.125,-26.375 0,-14.51334 -11.71683,-26.3125 -26.125,-26.3125 z"
           id="path33"
           inkscape:connector-curvature="0" />
      </g>
      <g
         id="g43"
         style="fill:#ffffff">
        <path
           d="m 115.1428,966.20062 c 0.45573,-6.25 0.83765,-18.75 1.36719,-18.75 0.57923,0 0.91146,12.23958 1.36719,18.35938 2.99479,3.28775 9.33802,9.50962 8.98437,9.86327 -0.33998,0.33998 -7.8125,-6.3151 -11.71875,-9.47265 z"
           id="path37"
           inkscape:connector-curvature="0" />
        <path
           d="m 87.007284,962.45466 h 12.91298 l -6.40691,11.0971 z"
           id="path39"
           inkscape:connector-curvature="0" />
        <path
           d="m 116.79515,938.40374 c -14.40817,0 -26.156246,11.79916 -26.156246,26.3125 0,0.42264 0.0115,0.86339 0.0312,1.28125 l 4.96875,-1.28125 c 5e-5,-11.80129 9.440516,-21.28125 21.156296,-21.28125 11.71578,0 21.15625,9.47996 21.15625,21.28125 0,11.80129 -9.44047,21.34375 -21.15625,21.34375 -5.89796,0 -11.19476,-2.43862 -15.03125,-6.34375 0,0 -0.67902,-0.69462 -1.09111,-1.08783 -0.754946,-0.72037 -1.361936,-0.46313 -1.878276,-0.0472 -0.60421,0.48338 -1.13116,0.89515 -1.71811,1.44757 -0.48341,0.39706 -0.76297,1.05697 -0.3125,1.59375 4.805206,5.77177 11.997886,9.46875 20.031246,9.46875 14.40817,0 26.125,-11.86167 26.125,-26.375 0,-14.51334 -11.71683,-26.3125 -26.125,-26.3125 z"
           id="path41"
           inkscape:connector-curvature="0" />
      </g>
    </g>
  </g>
</svg>
