<?xml version="1.0" encoding="UTF-8" standalone="no"?>
<svg
   xmlns:dc="http://purl.org/dc/elements/1.1/"
   xmlns:cc="http://creativecommons.org/ns#"
   xmlns:rdf="http://www.w3.org/1999/02/22-rdf-syntax-ns#"
   xmlns:svg="http://www.w3.org/2000/svg"
   xmlns="http://www.w3.org/2000/svg"
   xmlns:xlink="http://www.w3.org/1999/xlink"
   xmlns:sodipodi="http://sodipodi.sourceforge.net/DTD/sodipodi-0.dtd"
   xmlns:inkscape="http://www.inkscape.org/namespaces/inkscape"
   height="64"
   width="64"
   version="1"
   id="svg16"
   sodipodi:docname="fontforge.svg"
   inkscape:version="0.92.2 2405546, 2018-03-11">
  <metadata
     id="metadata22">
    <rdf:RDF>
      <cc:Work
         rdf:about="">
        <dc:format>image/svg+xml</dc:format>
        <dc:type
           rdf:resource="http://purl.org/dc/dcmitype/StillImage" />
      </cc:Work>
    </rdf:RDF>
  </metadata>
  <defs
     id="defs20">
    <linearGradient
       inkscape:collect="always"
       id="linearGradient849">
      <stop
         style="stop-color:#000000;stop-opacity:1;"
         offset="0"
         id="stop845" />
      <stop
         style="stop-color:#000000;stop-opacity:0;"
         offset="1"
         id="stop847" />
    </linearGradient>
    <linearGradient
       inkscape:collect="always"
       id="linearGradient835">
      <stop
         style="stop-color:#fbfbfb;stop-opacity:1"
         offset="0"
         id="stop831" />
      <stop
         style="stop-color:#e5e5e5;stop-opacity:1"
         offset="1"
         id="stop833" />
    </linearGradient>
    <linearGradient
       inkscape:collect="always"
       xlink:href="#linearGradient835"
       id="linearGradient837"
       x1="32"
       y1="5"
       x2="32.582699"
       y2="77.353569"
       gradientUnits="userSpaceOnUse" />
    <linearGradient
       inkscape:collect="always"
       xlink:href="#linearGradient849"
       id="linearGradient851"
       x1="48.596081"
       y1="44.516109"
       x2="48.596081"
       y2="48.292385"
       gradientUnits="userSpaceOnUse"
       gradientTransform="matrix(1.7199431,0,0,1.7199431,-40.194111,-33.393287)" />
  </defs>
  <sodipodi:namedview
     pagecolor="#ffffff"
     bordercolor="#666666"
     borderopacity="1"
     objecttolerance="10"
     gridtolerance="10"
     guidetolerance="10"
     inkscape:pageopacity="0"
     inkscape:pageshadow="2"
     inkscape:window-width="640"
     inkscape:window-height="480"
     id="namedview18"
     showgrid="false"
     inkscape:zoom="20.471217"
     inkscape:cx="46.760897"
     inkscape:cy="23.780904"
     inkscape:current-layer="svg16" />
  <path
     id="path829"
     d="M 32,2.5449912 C 15.681925,2.5449912 2.5449912,15.681925 2.5449912,32 2.5449912,48.318075 15.681925,61.455009 32,61.455009 48.318075,61.455009 61.455009,48.318075 61.455009,32 61.455009,15.681925 48.318075,2.5449912 32,2.5449912 Z"
     style="fill:#000000;fill-opacity:0.07894737;stroke-width:1.05196464"
     inkscape:connector-curvature="0" />
  <path
     d="M 32,5 C 16.488,5 4,17.488 4,33 4,48.512 16.488,61 32,61 47.512,61 60,48.512 60,33 60,17.488 47.512,5 32,5 Z"
     style="display:inline;opacity:0.2;fill:#000000;fill-opacity:1"
     id="path2"
     inkscape:connector-curvature="0" />
  <path
     style="fill:url(#linearGradient837);fill-opacity:1"
     d="M 32,4 C 16.488,4 4,16.488 4,32 4,47.512 16.488,60 32,60 47.512,60 60,47.512 60,32 60,16.488 47.512,4 32,4 Z"
     id="path4" />
  <path
     id="path841"
     d="M 33.738281 18 C 30.038929 18 27.790644 22.138038 26.375 25.816406 L 25.65625 28 L 19 28 L 19 30 L 24.998047 30 L 24.597656 31.21875 L 22.335938 38.460938 C 21.633949 40.498764 21.139416 43.738426 19 44 C 18.06416 44.11442 18.104569 42 17 42 C 15.895431 42 15 42.89543 15 44 C 15 45.10457 15.895431 46 17 46 L 18.261719 46 C 22.539518 46 24.979182 40.618384 26.8125 34.695312 L 27.839844 31.351562 L 28.259766 30 L 31 30 L 35 30 L 36.998047 30 L 36.597656 31.21875 L 34.335938 38.460938 C 33.633949 40.498764 33.139416 43.738426 31 44 C 30.06416 44.11442 30.104569 42 29 42 C 27.895431 42 27 42.89543 27 44 C 27 45.10457 27.895431 46 29 46 L 30.261719 46 C 34.539518 46 36.979182 40.618384 38.8125 34.695312 L 39.839844 31.351562 L 40.259766 30 L 47 30 L 47 28 L 40.880859 28 L 41.480469 26.074219 C 42.327223 23.892723 42.679716 20.30364 45 20 C 45.934838 19.877664 45.89543 22 47 22 C 48.10457 22 49 21.10457 49 20 C 49 18.895431 48.10457 18 47 18 L 45.738281 18 C 42.038929 18 39.790644 22.138038 38.375 25.816406 L 37.65625 28 L 35 28 L 31 28 L 28.880859 28 L 29.480469 26.074219 C 30.327223 23.892723 30.679716 20.30364 33 20 C 33.934838 19.877664 33.89543 22 35 22 C 36.10457 22 37 21.10457 37 20 C 37 18.895431 36.10457 18 35 18 L 33.738281 18 z "
     style="fill:none;fill-opacity:1;enable-background:new;stroke:#000000;stroke-opacity:0.11052632;stroke-width:2;stroke-miterlimit:4;stroke-dasharray:none" />
  <path
     style="fill:#2e3e52;fill-opacity:1;enable-background:new"
     d="M 33.738281 18 C 30.038929 18 27.790644 22.138038 26.375 25.816406 L 25.65625 28 L 19 28 L 19 30 L 24.998047 30 L 24.597656 31.21875 L 22.335938 38.460938 C 21.633949 40.498764 21.139416 43.738426 19 44 C 18.06416 44.11442 18.104569 42 17 42 C 15.895431 42 15 42.89543 15 44 C 15 45.10457 15.895431 46 17 46 L 18.261719 46 C 22.539518 46 24.979182 40.618384 26.8125 34.695312 L 27.839844 31.351562 L 28.259766 30 L 31 30 L 35 30 L 36.998047 30 L 36.597656 31.21875 L 34.335938 38.460938 C 33.633949 40.498764 33.139416 43.738426 31 44 C 30.06416 44.11442 30.104569 42 29 42 C 27.895431 42 27 42.89543 27 44 C 27 45.10457 27.895431 46 29 46 L 30.261719 46 C 34.539518 46 36.979182 40.618384 38.8125 34.695312 L 39.839844 31.351562 L 40.259766 30 L 47 30 L 47 28 L 40.880859 28 L 41.480469 26.074219 C 42.327223 23.892723 42.679716 20.30364 45 20 C 45.934838 19.877664 45.89543 22 47 22 C 48.10457 22 49 21.10457 49 20 C 49 18.895431 48.10457 18 47 18 L 45.738281 18 C 42.038929 18 39.790644 22.138038 38.375 25.816406 L 37.65625 28 L 35 28 L 31 28 L 28.880859 28 L 29.480469 26.074219 C 30.327223 23.892723 30.679716 20.30364 33 20 C 33.934838 19.877664 33.89543 22 35 22 C 36.10457 22 37 21.10457 37 20 C 37 18.895431 36.10457 18 35 18 L 33.738281 18 z "
     id="path6" />
  <path
     style="opacity:0.2;fill:#ffffff;fill-opacity:1"
     d="M 32 4 C 16.488 4 4 16.488 4 32 C 4 32.11345 4.0112805 32.224113 4.0175781 32.335938 C 4.3691213 17.134181 16.710728 5 32 5 C 47.289272 5 59.630879 17.134181 59.982422 32.335938 C 59.98872 32.224113 60 32.11345 60 32 C 60 16.488 47.512 4 32 4 z"
     id="path14" />
  <path
     style="color:#000000;clip-rule:nonzero;display:block;overflow:visible;visibility:visible;opacity:1;isolation:auto;mix-blend-mode:normal;color-interpolation:sRGB;color-interpolation-filters:linearRGB;solid-color:#000000;solid-opacity:1;vector-effect:none;fill:#d17203;fill-opacity:1;fill-rule:nonzero;stroke:url(#linearGradient851);stroke-width:1.71994305;stroke-linecap:round;stroke-linejoin:round;stroke-miterlimit:4;stroke-dasharray:none;stroke-dashoffset:0;stroke-opacity:0.21052635;marker:none;marker-start:none;marker-mid:none;marker-end:none;paint-order:stroke fill markers;color-rendering:auto;image-rendering:auto;shape-rendering:auto;text-rendering:auto;enable-background:accumulate"
     d="m 46.163212,46.032067 a 2.7560848,2.7560848 0 0 1 -2.756085,2.756085 2.7560848,2.7560848 0 0 1 -2.756084,-2.756085 2.7560848,2.7560848 0 0 1 2.756084,-2.756084 2.7560848,2.7560848 0 0 1 2.756085,2.756084 z"
     id="path843"
     inkscape:connector-curvature="0" />
</svg>
