<?xml version="1.0" encoding="UTF-8" standalone="no"?>
<!-- Created with Inkscape (http://www.inkscape.org/) -->

<svg
   xmlns:dc="http://purl.org/dc/elements/1.1/"
   xmlns:cc="http://creativecommons.org/ns#"
   xmlns:rdf="http://www.w3.org/1999/02/22-rdf-syntax-ns#"
   xmlns:svg="http://www.w3.org/2000/svg"
   xmlns="http://www.w3.org/2000/svg"
   xmlns:xlink="http://www.w3.org/1999/xlink"
   xmlns:sodipodi="http://sodipodi.sourceforge.net/DTD/sodipodi-0.dtd"
   xmlns:inkscape="http://www.inkscape.org/namespaces/inkscape"
   width="128"
   height="128"
   viewBox="0 0 33.866666 33.866666"
   version="1.1"
   id="svg8"
   inkscape:version="0.92.2 2405546, 2018-03-11"
   sodipodi:docname="java10-openjdk.svg">
  <defs
     id="defs2">
    <linearGradient
       id="linearGradient881">
      <stop
         style="stop-color:#1b1d38;stop-opacity:1;"
         offset="0"
         id="stop877" />
      <stop
         style="stop-color:#1e1338;stop-opacity:1;"
         offset="1"
         id="stop879" />
    </linearGradient>
    <linearGradient
       id="linearGradient857">
      <stop
         style="stop-color:#6b74e5;stop-opacity:1;"
         offset="0"
         id="stop853" />
      <stop
         style="stop-color:#f0a2fb;stop-opacity:0.97254902;"
         offset="1"
         id="stop855" />
    </linearGradient>
    <linearGradient
       inkscape:collect="always"
       id="linearGradient1064">
      <stop
         style="stop-color:#000000;stop-opacity:0.45263159"
         offset="0"
         id="stop1060" />
      <stop
         style="stop-color:#ffffff;stop-opacity:0.79473686"
         offset="1"
         id="stop1062" />
    </linearGradient>
    <linearGradient
       id="linearGradient1056">
      <stop
         style="stop-color:#000000;stop-opacity:1;"
         offset="0"
         id="stop1052" />
      <stop
         style="stop-color:#ffffff;stop-opacity:0"
         offset="1"
         id="stop1054" />
    </linearGradient>
    <linearGradient
       id="linearGradient1048">
      <stop
         style="stop-color:#d1d1d1;stop-opacity:1;"
         offset="0"
         id="stop1044" />
      <stop
         style="stop-color:#ffffff;stop-opacity:1;"
         offset="1"
         id="stop1046" />
    </linearGradient>
    <linearGradient
       id="linearGradient1000">
      <stop
         style="stop-color:#0c0c0c;stop-opacity:0.83152175;"
         offset="0"
         id="stop996" />
      <stop
         style="stop-color:#202020;stop-opacity:0;"
         offset="1"
         id="stop998" />
    </linearGradient>
    <linearGradient
       id="linearGradient992">
      <stop
         style="stop-color:#eaeaea;stop-opacity:1;"
         offset="0"
         id="stop988" />
      <stop
         style="stop-color:#dfdfdf;stop-opacity:0.9894737;"
         offset="1"
         id="stop990" />
    </linearGradient>
    <linearGradient
       inkscape:collect="always"
       xlink:href="#linearGradient1064"
       id="linearGradient1066"
       x1="16.952883"
       y1="265.72894"
       x2="16.952883"
       y2="293.86972"
       gradientUnits="userSpaceOnUse"
       gradientTransform="translate(-0.32827098,0.39650732)" />
    <linearGradient
       inkscape:collect="always"
       xlink:href="#linearGradient857"
       id="linearGradient875"
       x1="38.002098"
       y1="232.72964"
       x2="95.607117"
       y2="232.72964"
       gradientUnits="userSpaceOnUse"
       gradientTransform="translate(-1.2399104,1.4976455)" />
    <linearGradient
       inkscape:collect="always"
       xlink:href="#linearGradient881"
       id="linearGradient883"
       x1="9.2545662"
       y1="290.45013"
       x2="24.927504"
       y2="267.38919"
       gradientUnits="userSpaceOnUse"
       gradientTransform="matrix(1.0222657,0,0,1.0222657,-0.7126127,-5.830545)" />
    <linearGradient
       inkscape:collect="always"
       xlink:href="#linearGradient857"
       id="linearGradient891"
       x1="1.5587807"
       y1="279.67017"
       x2="32.964428"
       y2="279.67017"
       gradientUnits="userSpaceOnUse"
       gradientTransform="matrix(1.004499,0,0,1.004499,-0.40593101,-0.86173008)" />
  </defs>
  <sodipodi:namedview
     id="base"
     pagecolor="#33363d"
     bordercolor="#666666"
     borderopacity="1.0"
     inkscape:pageopacity="0"
     inkscape:pageshadow="2"
     inkscape:zoom="7.7097461"
     inkscape:cx="77.71078"
     inkscape:cy="51.128547"
     inkscape:document-units="mm"
     inkscape:current-layer="layer1"
     showgrid="false"
     inkscape:snap-global="false"
     inkscape:showpageshadow="false"
     units="px" />
  <metadata
     id="metadata5">
    <rdf:RDF>
      <cc:Work
         rdf:about="">
        <dc:format>image/svg+xml</dc:format>
        <dc:type
           rdf:resource="http://purl.org/dc/dcmitype/StillImage" />
        <dc:title />
      </cc:Work>
    </rdf:RDF>
  </metadata>
  <g
     inkscape:label="Layer 1"
     inkscape:groupmode="layer"
     id="layer1"
     transform="translate(0,-263.13334)">
    <circle
       r="16.487848"
       cy="280.06668"
       cx="16.933332"
       id="circle893"
       style="color:#000000;clip-rule:nonzero;display:inline;overflow:visible;visibility:visible;opacity:1;isolation:auto;mix-blend-mode:normal;color-interpolation:sRGB;color-interpolation-filters:linearRGB;solid-color:#000000;solid-opacity:1;vector-effect:none;fill:#000000;fill-opacity:0.06842107;fill-rule:nonzero;stroke:none;stroke-width:0.57128644;stroke-linecap:round;stroke-linejoin:round;stroke-miterlimit:4;stroke-dasharray:none;stroke-dashoffset:0;stroke-opacity:1;marker:none;marker-start:none;marker-mid:none;marker-end:none;paint-order:stroke fill markers;color-rendering:auto;image-rendering:auto;shape-rendering:auto;text-rendering:auto;enable-background:accumulate" />
    <circle
       r="15.773473"
       cy="280.06668"
       cx="16.933332"
       id="circle843"
       style="color:#000000;clip-rule:nonzero;display:block;overflow:visible;visibility:visible;opacity:1;isolation:auto;mix-blend-mode:normal;color-interpolation:sRGB;color-interpolation-filters:linearRGB;solid-color:#000000;solid-opacity:1;vector-effect:none;fill:url(#linearGradient891);fill-opacity:1;fill-rule:nonzero;stroke:none;stroke-width:0.54653388;stroke-linecap:round;stroke-linejoin:round;stroke-miterlimit:4;stroke-dasharray:none;stroke-dashoffset:0;stroke-opacity:1;marker:none;marker-start:none;marker-mid:none;marker-end:none;paint-order:stroke fill markers;color-rendering:auto;image-rendering:auto;shape-rendering:auto;text-rendering:auto;enable-background:accumulate" />
    <circle
       style="color:#000000;clip-rule:nonzero;display:inline;overflow:visible;visibility:visible;opacity:1;isolation:auto;mix-blend-mode:normal;color-interpolation:sRGB;color-interpolation-filters:linearRGB;solid-color:#000000;solid-opacity:1;vector-effect:none;fill:url(#linearGradient883);fill-opacity:1;fill-rule:nonzero;stroke:none;stroke-width:0.52769464;stroke-linecap:round;stroke-linejoin:round;stroke-miterlimit:4;stroke-dasharray:none;stroke-dashoffset:0;stroke-opacity:1;marker:none;marker-start:none;marker-mid:none;marker-end:none;paint-order:stroke fill markers;color-rendering:auto;image-rendering:auto;shape-rendering:auto;text-rendering:auto;enable-background:accumulate"
       id="path841"
       cx="16.933332"
       cy="280.06668"
       r="15.229749" />
    <g
       transform="matrix(0.26475379,0,0,0.26475379,-0.75343984,218.45059)"
       inkscape:label="icon"
       id="g1018"
       style="display:inline;stroke:#f7f7f7;stroke-opacity:1">
      <path
         style="display:inline;fill:none;stroke:url(#linearGradient875);stroke-width:3.08210874;stroke-miterlimit:4;stroke-dasharray:none;stroke-opacity:0.85263157"
         d="m 83.128255,283.24457 c -0.77336,-0.14002 -1.865783,-1.03968 -2.842975,-2.34131 -0.271084,-0.3611 -1.05964,-1.48745 -1.752347,-2.50302 -2.074765,-3.0418 -3.217236,-4.45956 -4.577187,-5.68011 -3.503459,-3.14429 -7.561947,-3.48881 -12.24664,-1.03959 -1.832,0.95779 -3.56621,2.19697 -6.947,4.96396 -3.111936,2.54693 -4.652233,3.63594 -5.913369,4.18083 -1.035163,0.44725 -1.578522,0.55474 -2.567026,0.50782 -1.058968,-0.0502 -1.521904,-0.21251 -2.095082,-0.73423 -1.049136,-0.95496 -1.331836,-2.73755 -1.071004,-6.75334 0.0733,-1.12841 0.156257,-2.41173 0.184368,-2.85181 0.05473,-0.85671 -0.0022,-0.97596 -0.254517,-0.53342 -0.08365,0.14668 -0.283753,0.4052 -0.444679,0.57446 -0.278676,0.29311 -0.317584,0.30775 -0.818037,0.30775 -0.64623,0 -1.366979,-0.18026 -2.001633,-0.50065 -1.633385,-0.82453 -1.938316,-2.44606 -0.78564,-4.17779 0.164989,-0.24788 0.745817,-0.98618 1.290727,-1.64064 1.601098,-1.92304 2.264049,-3.02745 2.650377,-4.41528 0.151368,-0.54379 0.17637,-0.85471 0.179481,-2.23207 0.0042,-1.83825 -0.05603,-2.20458 -0.707906,-4.30848 -0.64529,-2.08266 -0.749107,-2.70143 -0.750401,-4.47259 -9.57e-4,-1.30508 0.02383,-1.60899 0.176521,-2.16476 0.337642,-1.22893 0.793924,-2.02 2.466327,-4.27594 2.522972,-3.40327 3.755188,-5.71526 4.638984,-8.7041 0.663263,-2.24305 0.776562,-2.93598 1.15337,-7.05408 0.636714,-6.95858 0.958724,-13.8019 0.959606,-20.39341 7.97e-4,-6.00295 -0.235624,-9.33194 -0.797028,-11.22254 -0.03015,-0.10162 -0.02088,-0.18465 0.02061,-0.18465 0.0415,0 0.475495,0.26041 0.964441,0.57869 3.732739,2.42979 9.027796,7.24375 13.761115,12.51085 4.663256,5.18912 8.919288,10.87971 12.53474,16.75976 0.283719,0.46143 0.633154,0.93813 0.776535,1.05933 1.864905,1.57646 5.253454,0.0336 6.151562,-2.80101 0.16834,-0.5313 0.181526,-0.72553 0.175436,-2.58507 -0.0071,-2.15504 -0.09954,-2.9634 -0.495828,-4.33371 -0.243412,-0.84167 -0.520302,-1.39824 -0.910505,-1.83014 -0.384018,-0.42505 -0.772883,-0.62003 -1.453489,-0.72876 -0.990864,-0.1583 -1.55212,-0.40062 -2.998137,-1.29451 -2.478346,-1.53205 -3.218894,-1.66886 -5.665742,-1.04666 -0.976801,0.2484 -1.302694,0.29761 -1.819337,0.27476 -0.869194,-0.0383 -1.215661,-0.28118 -1.668467,-1.16896 -0.311955,-0.61161 -0.328265,-0.68078 -0.328265,-1.39225 0,-0.6769 0.02338,-0.79088 0.244071,-1.18933 0.635972,-1.14823 2.355482,-2.07388 4.906814,-2.64141 0.41683,-0.0928 0.793251,-0.20377 0.836483,-0.24677 0.04998,-0.0498 -0.07327,-0.23483 -0.338408,-0.50838 -1.907286,-1.96749 -3.574643,-4.72928 -4.908516,-8.1304 -1.715814,-4.37497 -1.550292,-6.15405 0.674888,-7.25381 0.560689,-0.2771 0.694811,-0.31027 1.254575,-0.31027 0.556352,0 0.664932,0.0264 0.966431,0.23538 0.503369,0.34884 0.991478,1.13338 1.844792,2.9652 0.420523,0.90272 0.920917,1.90857 1.111993,2.23519 0.721822,1.23391 1.900717,2.59849 2.085368,2.41385 0.04033,-0.0403 -0.09294,-0.70886 -0.306887,-1.53951 -0.89072,-3.45815 -1.111722,-5.18267 -0.967634,-7.55047 0.06872,-1.12911 0.129061,-1.57323 0.261565,-1.92458 0.370983,-0.98374 1.276116,-1.38659 2.745278,-1.22183 1.87955,0.21078 2.450953,1.1542 3.178873,5.24846 0.347497,1.95456 0.469646,2.50534 0.746248,3.36472 0.320145,0.99468 0.927398,2.05164 1.178728,2.05164 0.06538,0 0.118921,-0.0143 0.118921,-0.0319 0,-0.14941 1.037159,-3.8793 1.236797,-4.44784 0.387741,-1.10426 0.927725,-2.08797 1.472437,-2.68243 1.245791,-1.35956 3.500534,-1.79396 4.546184,-0.87586 0.909874,0.79888 0.847699,2.27285 -0.195397,4.63224 -0.882109,1.99525 -1.134435,2.93157 -1.205308,4.4726 -0.05891,1.28049 0.06449,2.20391 0.619587,4.63714 0.61214,2.68327 0.697633,3.64057 0.457401,5.12187 -0.335061,2.06604 -0.99643,3.2058 -2.61911,4.51364 -1.216221,0.98024 -1.635532,1.44896 -2.025091,2.26367 -0.545692,1.14127 -0.594012,1.61413 -0.574256,5.62053 0.02663,5.40431 -0.138684,6.41782 -1.353088,8.29509 -1.66643,2.57604 -2.239603,6.37862 -1.472907,9.7717 0.122611,0.54263 0.44337,1.46435 0.868827,2.49665 3.311004,8.03349 5.230997,15.62262 5.947086,23.50703 0.450179,4.95659 0.31722,10.36148 -0.337899,13.73625 -0.489059,2.51934 -1.413898,4.43797 -2.599785,5.39337 -0.794336,0.63998 -2.043736,1.099 -3.232638,1.18766 -0.30727,0.023 -0.669452,0.0524 -0.804859,0.0656 -0.135414,0.0132 -0.375495,7.4e-4 -0.533526,-0.0281 z m 2.418125,-2.84541 c 1.732936,-0.59047 2.363189,-3.75322 2.630606,-13.20093 0.239755,-8.47069 -2.25916,-18.69801 -7.429218,-30.40549 -0.85993,-1.94729 -2.871062,-6.04188 -3.849443,-7.8373 -1.001992,-1.83876 -2.615019,-4.58024 -2.885673,-4.90444 l -0.215185,-0.25775 -0.820077,0.0961 c -1.053478,0.1236 -1.1203,0.15009 -1.060933,0.42053 0.332447,1.51446 0.377091,1.84612 0.378095,2.80872 0.0031,2.75818 -0.967609,5.12648 -2.906187,7.09212 -0.966199,0.97969 -1.878467,1.64376 -3.09392,2.25219 -3.203359,1.60349 -6.748212,1.7102 -9.632402,0.28996 -1.305346,-0.64279 -2.284641,-1.44488 -3.209702,-2.62887 l -0.255323,-0.32678 -0.423316,0.28723 c -0.313799,0.21293 -0.44334,0.36154 -0.500716,0.57446 -0.105025,0.38975 -1.334261,6.18441 -2.176106,10.25826 -2.273191,11.0004 -3.665202,19.21685 -4.282256,25.27635 -0.105678,1.03772 -0.146691,2.14197 -0.147842,3.98021 -0.0017,2.76455 0.05219,3.19812 0.490707,3.94641 0.252331,0.43057 0.558013,0.56209 1.172394,0.50446 1.328526,-0.1246 2.500547,-0.9231 6.044579,-4.11812 2.638616,-2.37878 3.855112,-3.36251 5.462332,-4.41713 2.186981,-1.43506 4.158733,-2.26013 6.344198,-2.65472 1.009946,-0.18233 2.96945,-0.18576 3.959888,-0.007 2.619444,0.47301 5.016673,1.8746 7.341571,4.29238 1.281704,1.33291 2.225877,2.55733 4.216456,5.46795 1.36664,1.99831 1.958435,2.74896 2.44519,3.10156 0.321396,0.23282 0.376125,0.24423 1.171903,0.24423 0.558943,0 0.965483,-0.0445 1.23038,-0.1348 z m -40.217303,-25.2031 c 0.02543,-0.12413 0.215298,-1.18585 0.421942,-2.3594 0.206644,-1.17355 0.561312,-3.07543 0.788149,-4.2264 0.450916,-2.28795 0.515821,-3.04964 0.289315,-3.39533 -0.228392,-0.34858 -0.44638,-0.27657 -1.039167,0.34325 -1.06542,1.11399 -1.973881,3.15853 -2.103686,4.73443 -0.06814,0.82727 0.171323,1.86001 0.827563,3.56904 0.303127,0.78943 0.568491,1.46339 0.589697,1.4977 0.07948,0.12859 0.181489,0.0549 0.226187,-0.16329 z m 17.323789,-19.4804 c 0.874691,-0.14977 2.773255,-0.7389 3.405741,-1.05681 0.338524,-0.17016 0.843263,-0.4806 1.121643,-0.68989 0.700636,-0.52676 1.665152,-1.5784 1.934102,-2.10884 0.541108,-1.06721 1.089698,-2.61661 1.217811,-3.4395 0.121782,-0.78221 0.05094,-2.5035 -0.129938,-3.15816 -0.448611,-1.62351 -1.50274,-2.86056 -3.117791,-3.65881 -2.111103,-1.04344 -4.472419,-1.13342 -6.965934,-0.26549 -1.753812,0.61046 -3.348254,1.59187 -4.568751,2.81215 -0.898666,0.8985 -1.441009,1.71666 -1.770834,2.67142 -0.196072,0.56755 -0.226949,0.7844 -0.227881,1.60029 -0.0056,4.92754 4.030674,8.162 9.101832,7.29364 z"
         id="path1006"
         inkscape:connector-curvature="0" />
      <path
         inkscape:connector-curvature="0"
         id="path1008"
         d="m 64.744086,227.53395 a 4.7470223,4.8148374 0 0 1 -4.747022,4.81486 4.7470223,4.8148374 0 0 1 -4.747022,-4.81486 4.7470223,4.8148374 0 0 1 4.747022,-4.81482 4.7470223,4.8148374 0 0 1 4.747022,4.81482 z"
         style="color:#000000;clip-rule:nonzero;display:inline;overflow:visible;visibility:visible;opacity:1;isolation:auto;mix-blend-mode:normal;color-interpolation:sRGB;color-interpolation-filters:linearRGB;solid-color:#000000;solid-opacity:1;vector-effect:none;fill:#ffffff;fill-opacity:1;fill-rule:nonzero;stroke:#f7f7f7;stroke-width:1.31490707;stroke-linecap:butt;stroke-linejoin:miter;stroke-miterlimit:4;stroke-dasharray:none;stroke-dashoffset:0;stroke-opacity:1;marker:none;marker-start:none;marker-mid:none;marker-end:none;paint-order:normal;color-rendering:auto;image-rendering:auto;shape-rendering:auto;text-rendering:auto;enable-background:accumulate" />
      <path
         sodipodi:nodetypes="cccccccccccsccccssccsscscssscc"
         inkscape:connector-curvature="0"
         id="path1010"
         d="m 73.563563,222.38494 -0.855323,0.10092 c -1.098765,0.12977 -1.168469,0.15771 -1.106553,0.44162 0.346739,1.58981 0.393365,1.93793 0.394417,2.94843 0.0031,2.89543 -1.009164,5.38154 -3.031085,7.44501 -1.007732,1.02842 -1.959277,1.72565 -3.226986,2.36434 -3.341071,1.68328 -7.038435,1.79523 -10.046619,0.3043 -1.361462,-0.67477 -2.382781,-1.51681 -3.347609,-2.75971 l -0.266202,-0.3431 -0.441542,0.30172 c -0.327288,0.2235 -0.462379,0.37946 -0.522221,0.60297 -0.109547,0.40915 -1.391784,6.49216 -2.269816,10.7687 -2.370915,11.5478 -3.822754,20.17302 -4.466339,26.53403 -0.110211,1.08933 -0.152969,2.24867 -0.154169,4.17837 -0.0019,2.90211 0.05446,3.35725 0.511835,4.14278 0.263177,0.45199 0.581981,0.59012 1.222776,0.52963 1.38564,-0.13082 2.608013,-0.96906 6.304399,-4.32308 2.752051,-2.49715 4.020991,-3.52992 5.697306,-4.63704 2.280997,-1.50645 4.337515,-2.37263 6.616932,-2.78684 1.053362,-0.19143 3.097028,-0.19501 4.130041,-0.007 2.732057,0.49655 5.232345,1.9679 7.657184,4.50599 1.336799,1.39923 2.321492,2.68466 4.397641,5.74012 1.425396,2.09773 2.042725,2.88584 2.550396,3.25598 0.33522,0.24438 0.39219,0.25627 1.222185,0.25627 0.582968,0 1.006994,-0.0469 1.283283,-0.14152 1.807429,-0.61984 2.464796,-3.94 2.743707,-13.85783 0.250063,-8.8922 -2.356129,-19.62834 -7.748444,-31.9184 -0.896907,-2.0442 -2.994579,-6.34251 -4.015011,-8.22725 -1.045071,-1.93026 -2.727427,-4.80825 -3.009716,-5.14858 z"
         style="color:#000000;clip-rule:nonzero;display:inline;overflow:visible;visibility:visible;opacity:1;isolation:auto;mix-blend-mode:normal;color-interpolation:sRGB;color-interpolation-filters:linearRGB;solid-color:#000000;solid-opacity:1;vector-effect:none;fill:#f3f3f3;fill-opacity:0.98947371;fill-rule:nonzero;stroke:#f7f7f7;stroke-width:0.2564472;stroke-linecap:butt;stroke-linejoin:miter;stroke-miterlimit:4;stroke-dasharray:none;stroke-dashoffset:0;stroke-opacity:1;marker:none;marker-start:none;marker-mid:none;marker-end:none;paint-order:normal;color-rendering:auto;image-rendering:auto;shape-rendering:auto;text-rendering:auto;enable-background:accumulate" />
      <path
         inkscape:connector-curvature="0"
         id="path1012"
         d="m 61.828228,219.14263 a 9.3424117,8.7428984 0 0 0 -9.34244,8.74296 9.3424117,8.7428984 0 0 0 9.34244,8.74294 9.3424117,8.7428984 0 0 0 9.342436,-8.74294 9.3424117,8.7428984 0 0 0 -9.342436,-8.74296 z m -3.435946,4.37818 c 0.158345,-0.006 0.296869,0.0228 0.402281,0.0919 0.570374,0.37373 -0.136895,1.47633 -1.299896,2.02652 -0.59445,0.28123 -0.971804,0.30472 -1.201862,0.0747 -0.207155,-0.20716 -0.20627,-0.35365 0.0048,-0.78963 0.350043,-0.72309 1.408529,-1.38009 2.094691,-1.40349 z"
         style="display:inline;fill:#f85ad2;fill-opacity:1;stroke:#f7f7f7;stroke-width:0.08206607;stroke-opacity:1" />
      <path
         inkscape:connector-curvature="0"
         id="path1014"
         d="m 61.828228,219.14263 a 9.3424117,8.7428984 0 0 0 -9.34244,8.74296 9.3424117,8.7428984 0 0 0 9.34244,8.74294 9.3424117,8.7428984 0 0 0 9.342436,-8.74294 9.3424117,8.7428984 0 0 0 -9.342436,-8.74296 z m 1.440053,1.69893 c 1.353748,0.006 2.747271,0.33755 3.541637,0.84133 0.318758,0.20213 0.38039,0.29069 0.498205,0.71514 0.344001,1.23932 0.386812,3.04118 0.104163,4.38488 -0.149823,0.71221 -0.686946,2.09202 -1.051365,2.70108 -0.200925,0.33579 -0.451104,0.57978 -1.009818,0.98473 -1.054651,0.76441 -1.490165,1.16236 -2.13356,1.94974 -0.458962,0.56168 -0.65783,0.73561 -1.061898,0.92903 -0.569153,0.27243 -1.574078,0.59488 -2.293056,0.73562 -0.675024,0.13214 -2.266201,0.17298 -2.913228,0.0748 -0.637497,-0.0966 -0.975901,-0.31074 -1.644545,-1.04044 -1.297212,-1.41567 -1.999168,-3.98196 -1.601845,-5.85653 0.506339,-2.38893 3.222607,-4.84711 6.556729,-5.93388 1.130486,-0.36847 1.889444,-0.49101 3.008584,-0.48557 z"
         style="display:inline;fill:#9611f6;fill-opacity:1;stroke:none;stroke-width:0.08206607;stroke-opacity:1" />
      <path
         inkscape:connector-curvature="0"
         id="path1016"
         d="m 83.128255,283.24457 c -0.77336,-0.14002 -1.865783,-1.03968 -2.842975,-2.34131 -0.271084,-0.3611 -1.05964,-1.48745 -1.752347,-2.50302 -2.074765,-3.0418 -3.217236,-4.45956 -4.577187,-5.68011 -3.503459,-3.14429 -7.561947,-3.48881 -12.24664,-1.03959 -1.832,0.95779 -3.56621,2.19697 -6.947,4.96396 -3.111936,2.54693 -4.652233,3.63594 -5.913369,4.18083 -1.035163,0.44725 -1.578522,0.55474 -2.567026,0.50782 -1.058968,-0.0502 -1.521904,-0.21251 -2.095082,-0.73423 -1.049136,-0.95496 -1.331836,-2.73755 -1.071004,-6.75334 0.0733,-1.12841 0.156257,-2.41173 0.184368,-2.85181 0.05473,-0.85671 -0.0022,-0.97596 -0.254517,-0.53342 -0.08365,0.14668 -0.283753,0.4052 -0.444679,0.57446 -0.278676,0.29311 -0.317584,0.30775 -0.818037,0.30775 -0.64623,0 -1.366979,-0.18026 -2.001633,-0.50065 -1.633385,-0.82453 -1.938316,-2.44606 -0.78564,-4.17779 0.164989,-0.24788 0.745817,-0.98618 1.290727,-1.64064 1.601098,-1.92304 2.264049,-3.02745 2.650377,-4.41528 0.151368,-0.54379 0.17637,-0.85471 0.179481,-2.23207 0.0042,-1.83825 -0.05603,-2.20458 -0.707906,-4.30848 -0.64529,-2.08266 -0.749107,-2.70143 -0.750401,-4.47259 -9.57e-4,-1.30508 0.02383,-1.60899 0.176521,-2.16476 0.337642,-1.22893 0.793924,-2.02 2.466327,-4.27594 2.522972,-3.40327 3.755188,-5.71526 4.638984,-8.7041 0.663263,-2.24305 0.776562,-2.93598 1.15337,-7.05408 0.636714,-6.95858 0.958724,-13.8019 0.959606,-20.39341 7.97e-4,-6.00295 -0.235624,-9.33194 -0.797028,-11.22254 -0.03015,-0.10162 -0.02088,-0.18465 0.02061,-0.18465 0.0415,0 0.475495,0.26041 0.964441,0.57869 3.732739,2.42979 9.027796,7.24375 13.761115,12.51085 4.663256,5.18912 8.919288,10.87971 12.53474,16.75976 0.283719,0.46143 0.633154,0.93813 0.776535,1.05933 1.864905,1.57646 5.253454,0.0336 6.151562,-2.80101 0.16834,-0.5313 0.181526,-0.72553 0.175436,-2.58507 -0.0071,-2.15504 -0.09954,-2.9634 -0.495828,-4.33371 -0.243412,-0.84167 -0.520302,-1.39824 -0.910505,-1.83014 -0.384018,-0.42505 -0.772883,-0.62003 -1.453489,-0.72876 -0.990864,-0.1583 -1.55212,-0.40062 -2.998137,-1.29451 -2.478346,-1.53205 -3.218894,-1.66886 -5.665742,-1.04666 -0.976801,0.2484 -1.302694,0.29761 -1.819337,0.27476 -0.869194,-0.0383 -1.215661,-0.28118 -1.668467,-1.16896 -0.311955,-0.61161 -0.328265,-0.68078 -0.328265,-1.39225 0,-0.6769 0.02338,-0.79088 0.244071,-1.18933 0.635972,-1.14823 2.355482,-2.07388 4.906814,-2.64141 0.41683,-0.0928 0.793251,-0.20377 0.836483,-0.24677 0.04998,-0.0498 -0.07327,-0.23483 -0.338408,-0.50838 -1.907286,-1.96749 -3.574643,-4.72928 -4.908516,-8.1304 -1.715814,-4.37497 -1.550292,-6.15405 0.674888,-7.25381 0.560689,-0.2771 0.694811,-0.31027 1.254575,-0.31027 0.556352,0 0.664932,0.0264 0.966431,0.23538 0.503369,0.34884 0.991478,1.13338 1.844792,2.9652 0.420523,0.90272 0.920917,1.90857 1.111993,2.23519 0.721822,1.23391 1.900717,2.59849 2.085368,2.41385 0.04033,-0.0403 -0.09294,-0.70886 -0.306887,-1.53951 -0.89072,-3.45815 -1.111722,-5.18267 -0.967634,-7.55047 0.06872,-1.12911 0.129061,-1.57323 0.261565,-1.92458 0.370983,-0.98374 1.276116,-1.38659 2.745278,-1.22183 1.87955,0.21078 2.450953,1.1542 3.178873,5.24846 0.347497,1.95456 0.469646,2.50534 0.746248,3.36472 0.320145,0.99468 0.927398,2.05164 1.178728,2.05164 0.06538,0 0.118921,-0.0143 0.118921,-0.0319 0,-0.14941 1.037159,-3.8793 1.236797,-4.44784 0.387741,-1.10426 0.927725,-2.08797 1.472437,-2.68243 1.245791,-1.35956 3.500534,-1.79396 4.546184,-0.87586 0.909874,0.79888 0.847699,2.27285 -0.195397,4.63224 -0.882109,1.99525 -1.134435,2.93157 -1.205308,4.4726 -0.05891,1.28049 0.06449,2.20391 0.619587,4.63714 0.61214,2.68327 0.697633,3.64057 0.457401,5.12187 -0.335061,2.06604 -0.99643,3.2058 -2.61911,4.51364 -1.216221,0.98024 -1.635532,1.44896 -2.025091,2.26367 -0.545692,1.14127 -0.594012,1.61413 -0.574256,5.62053 0.02663,5.40431 -0.138684,6.41782 -1.353088,8.29509 -1.66643,2.57604 -2.239603,6.37862 -1.472907,9.7717 0.122611,0.54263 0.44337,1.46435 0.868827,2.49665 3.311004,8.03349 5.230997,15.62262 5.947086,23.50703 0.450179,4.95659 0.31722,10.36148 -0.337899,13.73625 -0.489059,2.51934 -1.413898,4.43797 -2.599785,5.39337 -0.794336,0.63998 -2.043736,1.099 -3.232638,1.18766 -0.30727,0.023 -0.669452,0.0524 -0.804859,0.0656 -0.135414,0.0132 -0.375495,7.4e-4 -0.533526,-0.0281 z m 2.418125,-2.84541 c 1.732936,-0.59047 2.363189,-3.75322 2.630606,-13.20093 0.239755,-8.47069 -2.25916,-18.69801 -7.429218,-30.40549 -0.85993,-1.94729 -2.871062,-6.04188 -3.849443,-7.8373 -1.001992,-1.83876 -2.615019,-4.58024 -2.885673,-4.90444 l -0.215185,-0.25775 -0.820077,0.0961 c -1.053478,0.1236 -1.1203,0.15009 -1.060933,0.42053 0.332447,1.51446 0.377091,1.84612 0.378095,2.80872 0.0031,2.75818 -0.967609,5.12648 -2.906187,7.09212 -0.966199,0.97969 -1.878467,1.64376 -3.09392,2.25219 -3.203359,1.60349 -6.748212,1.7102 -9.632402,0.28996 -1.305346,-0.64279 -2.284641,-1.44488 -3.209702,-2.62887 l -0.255323,-0.32678 -0.423316,0.28723 c -0.313799,0.21293 -0.44334,0.36154 -0.500716,0.57446 -0.105025,0.38975 -1.334261,6.18441 -2.176106,10.25826 -2.273191,11.0004 -3.665202,19.21685 -4.282256,25.27635 -0.105678,1.03772 -0.146691,2.14197 -0.147842,3.98021 -0.0017,2.76455 0.05219,3.19812 0.490707,3.94641 0.252331,0.43057 0.558013,0.56209 1.172394,0.50446 1.328526,-0.1246 2.500547,-0.9231 6.044579,-4.11812 2.638616,-2.37878 3.855112,-3.36251 5.462332,-4.41713 2.186981,-1.43506 4.158733,-2.26013 6.344198,-2.65472 1.009946,-0.18233 2.96945,-0.18576 3.959888,-0.007 2.619444,0.47301 5.016673,1.8746 7.341571,4.29238 1.281704,1.33291 2.225877,2.55733 4.216456,5.46795 1.36664,1.99831 1.958435,2.74896 2.44519,3.10156 0.321396,0.23282 0.376125,0.24423 1.171903,0.24423 0.558943,0 0.965483,-0.0445 1.23038,-0.1348 z m -40.217303,-25.2031 c 0.02543,-0.12413 0.215298,-1.18585 0.421942,-2.3594 0.206644,-1.17355 0.561312,-3.07543 0.788149,-4.2264 0.450916,-2.28795 0.515821,-3.04964 0.289315,-3.39533 -0.228392,-0.34858 -0.44638,-0.27657 -1.039167,0.34325 -1.06542,1.11399 -1.973881,3.15853 -2.103686,4.73443 -0.06814,0.82727 0.171323,1.86001 0.827563,3.56904 0.303127,0.78943 0.568491,1.46339 0.589697,1.4977 0.07948,0.12859 0.181489,0.0549 0.226187,-0.16329 z m 17.323789,-19.4804 c 0.874691,-0.14977 2.773255,-0.7389 3.405741,-1.05681 0.338524,-0.17016 0.843263,-0.4806 1.121643,-0.68989 0.700636,-0.52676 1.665152,-1.5784 1.934102,-2.10884 0.541108,-1.06721 1.089698,-2.61661 1.217811,-3.4395 0.121782,-0.78221 0.05094,-2.5035 -0.129938,-3.15816 -0.448611,-1.62351 -1.50274,-2.86056 -3.117791,-3.65881 -2.111103,-1.04344 -4.472419,-1.13342 -6.965934,-0.26549 -1.753812,0.61046 -3.348254,1.59187 -4.568751,2.81215 -0.898666,0.8985 -1.441009,1.71666 -1.770834,2.67142 -0.196072,0.56755 -0.226949,0.7844 -0.227881,1.60029 -0.0056,4.92754 4.030674,8.162 9.101832,7.29364 z"
         style="display:inline;fill:#16172b;fill-opacity:1;stroke:none;stroke-width:0.08206607;stroke-opacity:1" />
    </g>
    <rect
       ry="5.2557616"
       y="266.15735"
       x="2.153496"
       height="28.626083"
       width="28.903133"
       id="rect986"
       style="color:#000000;clip-rule:nonzero;display:none;overflow:visible;visibility:visible;opacity:1;isolation:auto;mix-blend-mode:normal;color-interpolation:sRGB;color-interpolation-filters:linearRGB;solid-color:#000000;solid-opacity:1;vector-effect:none;fill:none;fill-opacity:0.98947371;fill-rule:nonzero;stroke:url(#linearGradient1066);stroke-width:0.4435645;stroke-linecap:butt;stroke-linejoin:miter;stroke-miterlimit:4;stroke-dasharray:none;stroke-dashoffset:0;stroke-opacity:1;marker:none;marker-start:none;marker-mid:none;marker-end:none;paint-order:normal;color-rendering:auto;image-rendering:auto;shape-rendering:auto;text-rendering:auto;enable-background:accumulate" />
  </g>
</svg>
