<?xml version="1.0" encoding="UTF-8" standalone="no"?>
<svg
   xmlns:dc="http://purl.org/dc/elements/1.1/"
   xmlns:cc="http://creativecommons.org/ns#"
   xmlns:rdf="http://www.w3.org/1999/02/22-rdf-syntax-ns#"
   xmlns:svg="http://www.w3.org/2000/svg"
   xmlns="http://www.w3.org/2000/svg"
   xmlns:xlink="http://www.w3.org/1999/xlink"
   xmlns:sodipodi="http://sodipodi.sourceforge.net/DTD/sodipodi-0.dtd"
   xmlns:inkscape="http://www.inkscape.org/namespaces/inkscape"
   width="64"
   version="1.1"
   height="64"
   viewBox="0 0 64 64"
   id="svg14"
   sodipodi:docname="org.gnome.Lollypop.svg"
   inkscape:version="0.92.4 5da689c313, 2019-01-14">
  <metadata
     id="metadata20">
    <rdf:RDF>
      <cc:Work
         rdf:about="">
        <dc:format>image/svg+xml</dc:format>
        <dc:type
           rdf:resource="http://purl.org/dc/dcmitype/StillImage" />
        <dc:title />
      </cc:Work>
    </rdf:RDF>
  </metadata>
  <defs
     id="defs18">
    <linearGradient
       id="linearGradient833">
      <stop
         style="stop-color:#ec2261;stop-opacity:1"
         offset="0"
         id="stop829" />
      <stop
         style="stop-color:#f35093;stop-opacity:1"
         offset="1"
         id="stop831" />
    </linearGradient>
    <linearGradient
       inkscape:collect="always"
       xlink:href="#linearGradient833"
       id="linearGradient835"
       x1="6.4279213"
       y1="49.77338"
       x2="56.406677"
       y2="6.1679192"
       gradientUnits="userSpaceOnUse" />
  </defs>
  <sodipodi:namedview
     pagecolor="#282b36"
     bordercolor="#666666"
     borderopacity="1"
     objecttolerance="10"
     gridtolerance="10"
     guidetolerance="10"
     inkscape:pageopacity="0"
     inkscape:pageshadow="2"
     inkscape:window-width="640"
     inkscape:window-height="480"
     id="namedview16"
     showgrid="false"
     inkscape:zoom="11.621654"
     inkscape:cx="29.528358"
     inkscape:cy="23.958987"
     inkscape:current-layer="svg14"
     inkscape:snap-global="false" />
  <circle
     style="color:#000000;clip-rule:nonzero;display:none;overflow:visible;visibility:visible;opacity:1;isolation:auto;mix-blend-mode:normal;color-interpolation:sRGB;color-interpolation-filters:linearRGB;solid-color:#000000;solid-opacity:1;vector-effect:none;fill:#000000;fill-opacity:0.04210528;fill-rule:nonzero;stroke:none;stroke-width:5.86278248;stroke-linecap:round;stroke-linejoin:round;stroke-miterlimit:4;stroke-dasharray:none;stroke-dashoffset:0;stroke-opacity:0.09411765;marker:none;marker-start:none;marker-mid:none;marker-end:none;paint-order:stroke fill markers;color-rendering:auto;image-rendering:auto;shape-rendering:auto;text-rendering:auto;enable-background:accumulate"
     id="path827"
     cx="32"
     cy="32"
     r="29.426403" />
  <circle
     style="display:inline;fill:url(#linearGradient835);fill-opacity:1"
     r="28"
     cx="32"
     cy="32.000999"
     id="circle4" />
  <path
     style="opacity:0.2"
     d="M 26.679608,5.4009174 C 25.96146,5.5329152 25.248553,5.6975123 24.542845,5.8853091 23.644581,6.1345047 22.755536,6.4264997 21.886691,6.7640939 21.017926,7.101888 20.170561,7.4822814 19.339935,7.9048741 18.509329,8.3278668 17.698443,8.7920588 16.914177,9.29545 c -0.784446,0.503991 -1.543173,1.045382 -2.273361,1.624972 -0.730167,0.57919 -1.428935,1.194179 -2.097563,1.843568 -0.08595,0.09 -0.173099,0.181997 -0.257816,0.273595 0.533311,3.660537 3.166745,8.060861 6.015496,11.574 a 15.999723,15.999723 0 0 0 -2.30116,8.399855 15.999723,15.999723 0 0 0 0.03516,0.992183 C 11.846201,31.717262 7.5800745,28.140524 5.6093086,23.917797 5.5061724,24.187392 5.4032721,24.457788 5.3085338,24.730383 5.0331185,25.620768 4.8061825,26.523752 4.6210457,27.437336 4.4357989,28.35072 4.2962113,29.271904 4.2030929,30.199088 4.1131005,31.096673 4.0692712,31.996257 4.0663773,32.898242 a 27.999516,27.999516 0 0 0 1.5820126,7.49587 c 3.410141,1.13418 8.1756581,1.045782 12.3825861,0.378993 a 15.999723,15.999723 0 0 0 6.882681,6.562287 c -3.536539,2.157963 -7.949063,3.878333 -12.089591,4.03113 A 27.999516,27.999516 0 0 0 26.351232,58.429 c 2.210161,-2.450758 4.101929,-6.010496 5.413906,-9.429637 a 15.999723,15.999723 0 0 0 0.234376,0.02 15.999723,15.999723 0 0 0 8.886646,-2.710953 c 0.09668,3.915932 -0.54873,8.306456 -2.253961,11.874794 a 27.999516,27.999516 0 0 0 12.769379,-6.992079 c -0.936143,-3.299543 -3.220944,-6.971679 -5.671702,-9.991827 a 15.999723,15.999723 0 0 0 2.267961,-7.999861 15.999723,15.999723 0 0 0 -0.03516,-1.058582 c 3.941932,2.143163 7.935463,5.442706 10.050626,9.339638 a 27.999516,27.999516 0 0 0 1.929647,-9.21064 c -0.0106,-0.356794 -0.01,-0.713988 -0.03516,-1.070382 -0.06606,-0.929984 -0.177377,-1.854768 -0.335934,-2.773352 -0.146917,-0.827186 -0.333914,-1.646371 -0.55467,-2.456957 -4.154929,-1.480775 -9.101043,-1.221979 -13.073974,-0.57419 a 15.999723,15.999723 0 0 0 -6.87088,-6.527288 c 4.080729,-2.501956 9.339438,-4.432723 14.003757,-4.02733 -0.323914,-0.389793 -0.659268,-0.768987 -1.003882,-1.14058 -0.649429,-0.668589 -1.326097,-1.305778 -2.038965,-1.906167 -0.712888,-0.60059 -1.457255,-1.16118 -2.226561,-1.687571 C 47.037374,9.579845 46.241928,9.088054 45.423922,8.6412614 44.605896,8.1942691 43.76299,7.7894761 42.904365,7.4264824 42.04572,7.0632887 41.170015,6.7448942 40.279411,6.469499 39.945537,6.3775005 39.612582,6.291502 39.275528,6.2117034 36.372378,8.5066637 33.876822,12.987986 32.26005,17.211513 A 15.999723,15.999723 0 0 0 32.000054,17.011517 15.999723,15.999723 0 0 0 23.152607,19.69107 C 23.032729,14.910553 23.998412,9.400048 26.679946,5.5703145 Z"
     id="path6" />
  <path
     style="display:inline;fill:#ffffff"
     d="m 26.679608,4.401018 c -0.718148,0.1319978 -1.431055,0.2965949 -2.136763,0.4843917 -0.898264,0.2491956 -1.787309,0.5411906 -2.656154,0.8787848 -0.868765,0.3377941 -1.71613,0.7179875 -2.546756,1.1407802 -0.830606,0.4229927 -1.641492,0.8871847 -2.425758,1.390576 -0.784446,0.5039912 -1.543173,1.0453819 -2.273361,1.6249719 -0.730167,0.5791904 -1.428935,1.1941794 -2.097563,1.8435684 -0.08595,0.09 -0.173099,0.181997 -0.257816,0.273595 0.533311,3.660337 3.166745,8.06086 6.015496,11.574 a 15.999723,15.999723 0 0 0 -2.30116,8.399854 15.999723,15.999723 0 0 0 0.03516,0.992183 C 11.846201,30.717363 7.5800745,27.140825 5.6093086,22.917898 c -0.1031362,0.269595 -0.2060365,0.53999 -0.3007748,0.812586 -0.2754153,0.890384 -0.5023513,1.793369 -0.6874881,2.706953 -0.1852468,0.913384 -0.3248344,1.834568 -0.4179528,2.761752 -0.092986,0.927584 -0.1407076,1.856768 -0.1406216,2.788952 -1.036e-4,0.659788 0.023734,1.322177 0.070311,1.980366 0.066065,0.929783 0.1773649,1.854767 0.3359342,2.773352 0.1464155,0.823385 0.3311743,1.638371 0.5507705,2.445357 3.4325406,1.367377 8.546852,1.293778 13.011575,0.58599 a 15.999723,15.999723 0 0 0 6.882681,6.562287 c -4.07333,2.485357 -9.309639,4.395524 -13.952959,3.99213 0.323914,0.389594 0.659269,0.768987 1.003883,1.140581 0.649428,0.668588 1.333897,1.305777 2.046764,1.906167 0.712888,0.600589 1.453355,1.16498 2.222562,1.691371 0.769306,0.52639 1.564753,1.014182 2.382759,1.460974 0.818025,0.446793 1.657031,0.851786 2.515556,1.214779 0.858645,0.362994 1.73437,0.685588 2.624955,0.960984 0.336674,0.092 0.675708,0.173997 1.015602,0.253995 2.89135,-2.28716 5.376307,-6.746083 6.992079,-10.95701 a 15.999723,15.999723 0 0 0 0.234376,0.02 15.999723,15.999723 0 0 0 8.886646,-2.710953 c 0.117958,4.777718 -0.844165,10.282622 -3.523339,14.109156 0.718148,-0.131997 1.431055,-0.292595 2.136763,-0.480391 0.898265,-0.249396 1.783409,-0.545191 2.652354,-0.882785 0.868765,-0.337794 1.720031,-0.717788 2.550756,-1.14058 0.830606,-0.422793 1.637572,-0.886985 2.421758,-1.390576 0.784447,-0.503592 1.543174,-1.045382 2.273361,-1.624972 0.730167,-0.57919 1.432835,-1.19458 2.101564,-1.843768 0.08594,-0.09 0.173097,-0.181997 0.257815,-0.273396 -0.533891,-3.664536 -3.174945,-8.06706 -6.027296,-11.581999 a 15.999723,15.999723 0 0 0 2.267961,-8.199858 15.999723,15.999723 0 0 0 -0.03516,-1.058582 c 4.202527,2.28476 8.490853,5.875698 10.468619,10.113025 0.103118,-0.269595 0.202136,-0.539791 0.296875,-0.812386 0.275395,-0.890585 0.506271,-1.793569 0.691388,-2.706953 0.185236,-0.913384 0.324834,-1.838368 0.417952,-2.765552 0.09298,-0.927784 0.136798,-1.860768 0.136718,-2.792952 1.04e-4,-0.659789 -0.0198,-1.318377 -0.0664,-1.976566 -0.06606,-0.929984 -0.177377,-1.854768 -0.335934,-2.773352 -0.146917,-0.827186 -0.333914,-1.646371 -0.55467,-2.456957 -4.154929,-1.480975 -9.101043,-1.222179 -13.073974,-0.57419 A 15.999723,15.999723 0 0 0 39.071996,17.66759 c 4.080729,-2.501957 9.339438,-4.432724 14.003757,-4.027331 -0.323914,-0.389793 -0.659268,-0.768986 -1.003882,-1.14058 -0.649427,-0.66859 -1.326095,-1.305778 -2.038963,-1.906168 C 49.32002,9.9929213 48.575653,9.432331 47.806347,8.9059401 47.03704,8.3797492 46.241594,7.8879577 45.423588,7.4411654 44.605562,6.9941732 43.762657,6.5893802 42.904031,6.2263865 42.045386,5.8631927 41.169681,5.5447983 40.279077,5.269403 39.945203,5.1774046 39.612248,5.0914061 39.275194,5.0116075 36.372044,7.3065678 33.876488,11.78769 32.259716,16.011417 a 15.999723,15.999723 0 0 0 -0.259996,0 15.999723,15.999723 0 0 0 -8.847447,2.679554 C 23.032395,13.910454 23.998078,8.4001489 26.679612,4.5702151 Z"
     id="path8"
     inkscape:connector-curvature="0" />
  <circle
     style="color:#000000;clip-rule:nonzero;display:inline;overflow:visible;visibility:visible;opacity:0.8;isolation:auto;mix-blend-mode:normal;color-interpolation:sRGB;color-interpolation-filters:linearRGB;solid-color:#000000;solid-opacity:1;vector-effect:none;fill:#6393f5;fill-opacity:0.14136125;fill-rule:nonzero;stroke:none;stroke-width:15.12251186;stroke-linecap:round;stroke-linejoin:round;stroke-miterlimit:4;stroke-dasharray:none;stroke-dashoffset:0;stroke-opacity:0.15706805;marker:none;marker-start:none;marker-mid:none;marker-end:none;paint-order:stroke markers fill;color-rendering:auto;image-rendering:auto;shape-rendering:auto;text-rendering:auto;enable-background:accumulate"
     id="path830"
     cx="32"
     cy="32"
     r="11.571369" />
  <path
     style="color:#000000;clip-rule:nonzero;display:block;overflow:visible;visibility:visible;opacity:0.8;isolation:auto;mix-blend-mode:normal;color-interpolation:sRGB;color-interpolation-filters:linearRGB;solid-color:#000000;solid-opacity:1;vector-effect:none;fill:#a431a1;fill-opacity:0.16230367;fill-rule:nonzero;stroke:none;stroke-width:15.12251186;stroke-linecap:round;stroke-linejoin:round;stroke-miterlimit:4;stroke-dasharray:none;stroke-dashoffset:0;stroke-opacity:0.15706805;marker:none;marker-start:none;marker-mid:none;marker-end:none;paint-order:stroke markers fill;color-rendering:auto;image-rendering:auto;shape-rendering:auto;text-rendering:auto;enable-background:accumulate;font-variant-east_asian:normal"
     d="M 43.550781,31.414062 A 11.571369,11.571369 0 0 1 32,42.572266 11.571369,11.571369 0 0 1 20.449219,31.585938 11.571369,11.571369 0 0 0 20.427734,32 11.571369,11.571369 0 0 0 32,43.572266 11.571369,11.571369 0 0 0 43.572266,32 11.571369,11.571369 0 0 0 43.550781,31.414062 Z"
     id="circle832"
     inkscape:connector-curvature="0" />
  <path
     style="fill:#ea317d;fill-opacity:1"
     d="m 26.887604,24.000679 c -0.486931,-0.02 -0.887844,0.382593 -0.888004,0.872785 l 0,14.251153 c -6e-6,0.672189 0.722987,1.092181 1.301497,0.756387 l 6.132094,-3.562938 6.132494,-3.562738 c 0.57821,-0.336195 0.57821,-1.17598 0,-1.512174 l -6.132494,-3.562939 -6.132094,-3.562738 c -0.125938,-0.074 -0.268115,-0.113998 -0.413493,-0.117998 z"
     id="path10" />
  <path
     style="display:inline;opacity:0.2;fill:#ffffff"
     d="m 32,3.9726562 v 0.029297 A 27.999516,27.999516 0 0 0 4,32 27.999516,27.999516 0 0 0 4.0175781,32.492188 27.999516,27.999516 0 0 1 32,5 V 4.9726562 A 27.999516,27.999516 0 0 1 59.974609,32.455078 27.999516,27.999516 0 0 0 60,31.972656 27.999516,27.999516 0 0 0 32,3.9726562 Z"
     id="path12"
     inkscape:connector-curvature="0" />
  <path
     style="display:inline;fill:#000000;fill-opacity:0.20526315"
     d="M 26.886719,24 C 26.399788,23.98 26.00016,24.382855 26,24.873047 v 1 C 26.00016,25.382855 26.399788,24.98 26.886719,25 c 0.145378,0.004 0.288124,0.04319 0.414062,0.117188 l 6.132813,3.5625 6.132812,3.5625 c 0.115296,0.06704 0.200216,0.158714 0.269532,0.257812 0.279405,-0.397892 0.193882,-0.988365 -0.269532,-1.257812 l -6.132812,-3.5625 -6.132813,-3.5625 C 27.174843,24.043187 27.032097,24.004 26.886719,24 Z"
     id="path839"
     inkscape:connector-curvature="0" />
  <path
     style="color:#000000;font-style:normal;font-variant:normal;font-weight:normal;font-stretch:normal;font-size:medium;line-height:normal;font-family:sans-serif;font-variant-ligatures:normal;font-variant-position:normal;font-variant-caps:normal;font-variant-numeric:normal;font-variant-alternates:normal;font-feature-settings:normal;text-indent:0;text-align:start;text-decoration:none;text-decoration-line:none;text-decoration-style:solid;text-decoration-color:#000000;letter-spacing:normal;word-spacing:normal;text-transform:none;writing-mode:lr-tb;direction:ltr;text-orientation:mixed;dominant-baseline:auto;baseline-shift:baseline;text-anchor:start;white-space:normal;shape-padding:0;clip-rule:nonzero;display:inline;overflow:visible;visibility:visible;opacity:1;isolation:auto;mix-blend-mode:normal;color-interpolation:sRGB;color-interpolation-filters:linearRGB;solid-color:#000000;solid-opacity:1;vector-effect:none;fill:#000000;fill-opacity:0.15183246;fill-rule:nonzero;stroke:none;stroke-width:4.99882889;stroke-linecap:round;stroke-linejoin:round;stroke-miterlimit:4;stroke-dasharray:none;stroke-dashoffset:0;stroke-opacity:1;marker:none;paint-order:stroke fill markers;color-rendering:auto;image-rendering:auto;shape-rendering:auto;text-rendering:auto;enable-background:accumulate;"
     d="M 31.999999,4.4127074 C 16.793665,4.4127075 4.4127075,16.793665 4.4127074,31.999999 c 0,15.206335 12.3809566,27.587291 27.5872916,27.587291 15.206335,0 27.587291,-12.380956 27.587291,-27.587291 0,-15.206335 -12.380956,-27.5872916 -27.587291,-27.5872916 z m 0,4.9998492 c 12.504767,0 22.587441,10.0826744 22.587441,22.5874424 0,12.504767 -10.082674,22.587441 -22.587441,22.587441 C 19.495231,54.58744 9.4125566,44.504766 9.4125566,31.999999 9.4125567,19.495231 19.495231,9.4125567 31.999999,9.4125566 Z"
     id="circle823"
     inkscape:connector-curvature="0"
     transform="matrix(1.0240649,0,0,1.0240649,-0.7700759,-0.7700759)" />
  <path
     id="path828"
     d="m 26.887604,24.000679 c -0.486931,-0.02 -0.887844,0.382593 -0.888004,0.872785 l -0.04885,6.630697 c 3.641804,-5.572578 6.728289,3.76337 13.614934,-0.261007 l -6.132494,-3.562939 -6.132094,-3.562738 c -0.125938,-0.074 -0.268115,-0.113998 -0.413493,-0.117998 z"
     style="fill:#ffffff;fill-opacity:0.2303665"
     inkscape:connector-curvature="0"
     sodipodi:nodetypes="cccccccc" />
  <path
     inkscape:connector-curvature="0"
     id="path837"
     d="M 43.550781,32.572266 A 11.571369,11.571369 0 0 0 32,21.414062 11.571369,11.571369 0 0 0 20.449219,32.40039 11.571369,11.571369 0 0 1 20.427734,31.986328 11.571369,11.571369 0 0 1 32,20.414062 a 11.571369,11.571369 0 0 1 11.572266,11.572266 11.571369,11.571369 0 0 1 -0.02148,0.585938 z"
     style="color:#000000;clip-rule:nonzero;display:block;overflow:visible;visibility:visible;opacity:0.8;isolation:auto;mix-blend-mode:normal;color-interpolation:sRGB;color-interpolation-filters:linearRGB;solid-color:#000000;solid-opacity:1;vector-effect:none;fill:#a431a1;fill-opacity:0.16230367;fill-rule:nonzero;stroke:none;stroke-width:15.12251186;stroke-linecap:round;stroke-linejoin:round;stroke-miterlimit:4;stroke-dasharray:none;stroke-dashoffset:0;stroke-opacity:0.15706805;marker:none;marker-start:none;marker-mid:none;marker-end:none;paint-order:stroke markers fill;color-rendering:auto;image-rendering:auto;shape-rendering:auto;text-rendering:auto;enable-background:accumulate" />
</svg>
