<?xml version="1.0" encoding="UTF-8" standalone="no"?>
<svg
   xmlns:dc="http://purl.org/dc/elements/1.1/"
   xmlns:cc="http://creativecommons.org/ns#"
   xmlns:rdf="http://www.w3.org/1999/02/22-rdf-syntax-ns#"
   xmlns:svg="http://www.w3.org/2000/svg"
   xmlns="http://www.w3.org/2000/svg"
   xmlns:xlink="http://www.w3.org/1999/xlink"
   xmlns:sodipodi="http://sodipodi.sourceforge.net/DTD/sodipodi-0.dtd"
   xmlns:inkscape="http://www.inkscape.org/namespaces/inkscape"
   height="128"
   viewBox="0 0 128 128"
   width="128"
   version="1.1"
   id="svg11"
   sodipodi:docname="obs.svg"
   inkscape:version="0.92.4 5da689c313, 2019-01-14">
  <metadata
     id="metadata17">
    <rdf:RDF>
      <cc:Work
         rdf:about="">
        <dc:format>image/svg+xml</dc:format>
        <dc:type
           rdf:resource="http://purl.org/dc/dcmitype/StillImage" />
        <dc:title />
      </cc:Work>
    </rdf:RDF>
  </metadata>
  <defs
     id="defs15">
    <linearGradient
       inkscape:collect="always"
       id="linearGradient4562">
      <stop
         style="stop-color:#ffffff;stop-opacity:1;"
         offset="0"
         id="stop4558" />
      <stop
         style="stop-color:#eae9e9;stop-opacity:1"
         offset="1"
         id="stop4560" />
    </linearGradient>
    <linearGradient
       id="linearGradient4552">
      <stop
         style="stop-color:#010204;stop-opacity:1"
         offset="0"
         id="stop4548" />
      <stop
         id="stop836"
         offset="0.88796431"
         style="stop-color:#201721;stop-opacity:1;" />
      <stop
         style="stop-color:#2e1538;stop-opacity:1;"
         offset="1"
         id="stop4550" />
    </linearGradient>
    <linearGradient
       inkscape:collect="always"
       id="linearGradient4542">
      <stop
         style="stop-color:#cfe6ec;stop-opacity:1"
         offset="0"
         id="stop4538" />
      <stop
         style="stop-color:#747472;stop-opacity:1"
         offset="1"
         id="stop4540" />
    </linearGradient>
    <linearGradient
       inkscape:collect="always"
       xlink:href="#linearGradient4542"
       id="linearGradient4546"
       gradientUnits="userSpaceOnUse"
       x1="68.618904"
       y1="7.4112773"
       x2="68.618904"
       y2="123.61649" />
    <linearGradient
       inkscape:collect="always"
       xlink:href="#linearGradient4562"
       id="linearGradient4564"
       x1="179.00589"
       y1="86.676208"
       x2="178.91"
       y2="106.81076"
       gradientUnits="userSpaceOnUse"
       gradientTransform="translate(31.394448,-1.7627119)" />
    <radialGradient
       inkscape:collect="always"
       xlink:href="#linearGradient4552"
       id="radialGradient834"
       cx="64.614258"
       cy="64.170898"
       fx="64.614258"
       fy="64.170898"
       r="57.029297"
       gradientUnits="userSpaceOnUse" />
  </defs>
  <sodipodi:namedview
     pagecolor="#ffffff"
     bordercolor="#666666"
     borderopacity="1"
     objecttolerance="10"
     gridtolerance="10"
     guidetolerance="10"
     inkscape:pageopacity="0"
     inkscape:pageshadow="2"
     inkscape:window-width="1920"
     inkscape:window-height="1031"
     id="namedview13"
     showgrid="false"
     showguides="false"
     inkscape:measure-start="0,0"
     inkscape:measure-end="0,0"
     inkscape:zoom="3.6875"
     inkscape:cx="27.499983"
     inkscape:cy="39.686125"
     inkscape:window-x="0"
     inkscape:window-y="26"
     inkscape:window-maximized="1"
     inkscape:current-layer="svg11"
     inkscape:snap-global="false" />
  <linearGradient
     id="a"
     gradientUnits="userSpaceOnUse"
     x1="65.74801314374"
     x2="63.89039439825"
     y1="22.24717790909"
     y2="117.19711481587">
    <stop
       offset="0"
       stop-color="#ff4b83"
       id="stop2" />
    <stop
       offset="1"
       stop-color="#ee3a3a"
       id="stop4" />
  </linearGradient>
  <path
     style="color:#000000;font-style:normal;font-variant:normal;font-weight:normal;font-stretch:normal;font-size:medium;line-height:normal;font-family:sans-serif;text-indent:0;text-align:start;text-decoration:none;text-decoration-line:none;text-decoration-style:solid;text-decoration-color:#000000;letter-spacing:normal;word-spacing:normal;text-transform:none;direction:ltr;block-progression:tb;writing-mode:lr-tb;baseline-shift:baseline;text-anchor:start;white-space:normal;clip-rule:nonzero;display:inline;overflow:visible;visibility:visible;opacity:1;isolation:auto;mix-blend-mode:normal;color-interpolation:sRGB;color-interpolation-filters:linearRGB;solid-color:#000000;solid-opacity:1;fill:url(#linearGradient4546);fill-opacity:1;fill-rule:nonzero;stroke:none;stroke-width:5.61155891;stroke-linecap:butt;stroke-linejoin:miter;stroke-miterlimit:4;stroke-dasharray:none;stroke-dashoffset:0;stroke-opacity:1;color-rendering:auto;image-rendering:auto;shape-rendering:auto;text-rendering:auto;enable-background:accumulate"
     d="M 64.613281,1.4882812 C 30.027905,1.4882813 1.9316406,29.586499 1.9316406,64.171875 c 0,34.585376 28.0962644,62.681645 62.6816404,62.681645 34.585377,0 62.683599,-28.096269 62.683599,-62.681645 C 127.29687,29.586499 99.198658,1.4882812 64.613281,1.4882812 Z"
     id="circle7"
     inkscape:connector-curvature="0"
     sodipodi:nodetypes="sssss" />
  <circle
     style="fill:url(#radialGradient834);fill-opacity:1;stroke:none;stroke-width:5.61155891"
     id="circle4157"
     cy="64.170898"
     cx="64.614258"
     r="57.029297" />
  <g
     aria-label="@"
     style="font-style:normal;font-variant:normal;font-weight:bold;font-stretch:normal;font-size:40px;line-height:1.25;font-family:Carlito;-inkscape-font-specification:'Carlito Bold';letter-spacing:0px;word-spacing:0px;fill:#ffffff;fill-opacity:1;stroke:none"
     id="text4607"
     transform="matrix(1.0741909,0,0,1.0741909,-130.69831,19.317802)" />
  <g
     id="g4618"
     transform="translate(0.19175822)"
     style="display:inline;stroke:#da0000;stroke-opacity:0.79924245" />
  <path
     style="display:inline;fill:#ffffff;fill-opacity:0.06806282;stroke-width:0.24769285"
     inkscape:connector-curvature="0"
     d="M 104.01182,33.698588 C 99.263963,27.843328 92.061327,24.063648 84.536786,23.517284 71.637781,22.279292 58.750857,31.272249 55.405805,43.776137 c 3.407102,6.181596 3.06102,14.159687 -0.795605,20.0591 -5.029343,8.239127 -16.469002,11.50145 -25.093859,7.174325 -8.81977,-3.922341 -13.540119,-14.850544 -10.350016,-23.959678 0.06742,-0.208196 0.137964,-0.41513 0.208342,-0.622312 -2.697789,7.041784 -2.368996,15.170834 0.919911,21.959834 5.376942,11.790267 19.608794,18.453682 32.110574,15.099422 3.649745,-6.04129 10.732118,-9.730042 17.769102,-9.339911 9.648963,0.235318 18.195212,8.510609 18.759769,18.143708 1.013595,9.598645 -6.090601,19.151005 -15.57521,20.942535 -0.214317,0.0456 -0.428803,0.089 -0.643842,0.13155 7.447262,-1.18368 14.322359,-5.53316 18.558827,-11.77744 7.522799,-10.550798 6.177754,-26.207811 -2.97818,-35.356453 -2.975588,-0.05925 -5.892911,-0.85866 -8.511842,-2.232161 -0.09157,-0.04762 -0.18322,-0.09474 -0.274074,-0.143816 -0.02169,-0.01083 -0.04009,-0.02251 -0.06138,-0.03258 -1.312981,-0.713559 -2.556206,-1.583804 -3.700734,-2.605751 -0.01079,-0.0099 -0.02333,-0.01853 -0.03327,-0.03139 -0.111054,-0.0973 -0.218456,-0.198299 -0.32631,-0.29972 -1.650662,-1.537526 -3.042768,-3.351791 -4.065876,-5.374208 -1.769686,-3.246285 -2.433171,-6.941478 -2.13,-10.563864 0.01253,-0.161111 0.02885,-0.321946 0.04518,-0.482799 0.0091,-0.08432 0.01741,-0.168958 0.02778,-0.253334 0.256224,-2.241194 0.891906,-4.436578 1.896401,-6.48278 0.09778,-0.202374 0.199531,-0.40279 0.30382,-0.60196 0.0062,-0.0093 0.01081,-0.02169 0.01703,-0.0312 1.44918,-2.751351 3.531953,-5.162666 6.174252,-6.90203 2.933014,-2.132534 6.432883,-3.269571 9.993401,-3.470486 2.062728,-0.129012 4.13196,0.06993 6.130584,0.577586 0.02758,0.0063 0.0553,0.01266 0.08093,0.02076 0.21117,0.05466 0.421824,0.111041 0.631253,0.172755 0.203481,0.05828 0.405271,0.121466 0.60667,0.186427 0.03706,0.0125 0.07717,0.02405 0.115812,0.03721 3.199633,1.050378 6.130815,2.894524 8.364325,5.491414 1.5e-4,1.54e-4 3.8e-4,5.69e-4 5.5e-4,7.18e-4 0.0424,0.04938 0.0875,0.09666 0.13031,0.146223 0.101,0.114118 0.20206,0.228159 0.30327,0.342092 z"
     id="path838" />
  <path
     id="path34-5"
     d="m 65.434338,23.902846 c -6.340222,0.172254 -12.551427,3.046168 -16.768631,7.790398 -7.430604,7.978529 -8.024064,21.187028 -1.388115,29.822173 5.871671,0.890011 11.021262,5.205699 12.985646,10.801055 2.926146,7.576234 -0.75255,16.884462 -8.057419,20.427673 -7.134389,3.880587 -16.847611,1.437236 -21.296296,-5.356406 -0.104508,-0.151586 -0.206568,-0.304626 -0.308852,-0.457702 3.320421,5.406498 8.916323,9.348874 15.133026,10.628783 10.624986,2.4463 22.360403,-3.64443 26.521499,-13.708882 -2.165029,-5.529863 -1.001892,-12.147159 2.86138,-16.645844 5.097189,-6.321903 14.997906,-7.79125 21.718727,-3.236244 6.927727,4.237557 9.668407,13.871467 6.008647,21.12135 -0.0793,0.166469 -0.16008,0.331877 -0.2418,0.497224 3.02253,-5.578372 3.63841,-12.395557 1.63823,-18.421093 -3.193,-10.424583 -14.335444,-17.542599 -25.131426,-16.113319 -1.563001,1.956394 -3.590357,3.49494 -5.84825,4.540333 -0.07868,0.03677 -0.157063,0.07382 -0.23634,0.109367 -0.01832,0.009 -0.03555,0.01524 -0.05318,0.02431 -1.148646,0.511319 -2.366192,0.895842 -3.634497,1.136799 -0.01214,0.0022 -0.02431,0.0061 -0.03798,0.0061 -0.121822,0.02431 -0.244239,0.04436 -0.36718,0.06441 -1.871669,0.314957 -3.795741,0.315564 -5.669871,-0.03677 -3.073508,-0.480454 -5.880391,-1.929325 -8.143754,-3.986331 -0.101156,-0.09085 -0.200187,-0.18409 -0.299222,-0.277349 -0.05165,-0.04922 -0.103893,-0.09813 -0.15492,-0.148252 -1.365211,-1.31852 -2.505563,-2.866939 -3.35748,-4.585232 -0.08506,-0.168897 -0.166778,-0.339442 -0.246364,-0.511045 -0.0031,-0.009 -0.009,-0.01832 -0.01214,-0.02734 -1.09506,-2.376217 -1.638701,-5.001379 -1.44723,-7.656097 0.07776,-3.050118 1.110492,-5.969036 2.799256,-8.449172 0.969936,-1.443284 2.162173,-2.723011 3.524376,-3.797537 0.01833,-0.01524 0.03677,-0.03039 0.05529,-0.04343 0.144608,-0.113009 0.290107,-0.224796 0.438533,-0.333031 0.143085,-0.106016 0.288591,-0.208401 0.435072,-0.309612 0.02734,-0.01832 0.0556,-0.03919 0.08415,-0.05831 2.339458,-1.598543 5.071457,-2.611464 7.948847,-2.773164 1.83e-4,-3e-5 5.79e-4,2.9e-5 7.6e-4,0 0.05467,-0.0031 0.109367,-0.009 0.164348,-0.01214 0.127894,-0.009 0.255783,-0.0181 0.383674,-0.02734 z"
     inkscape:connector-curvature="0"
     style="fill:#ffffff;stroke-width:0.20840292" />
  <path
     style="fill:#ffffff;fill-opacity:0.20418848;stroke:none;stroke-width:5.61155891"
     d="M 121.56055 61.839844 A 57.029297 57.029297 0 0 1 64.613281 117.19922 A 57.029297 57.029297 0 0 1 7.6679688 62.509766 A 57.029297 57.029297 0 0 0 7.5859375 64.171875 A 57.029297 57.029297 0 0 0 64.613281 121.19922 A 57.029297 57.029297 0 0 0 121.64453 64.171875 A 57.029297 57.029297 0 0 0 121.56055 61.839844 z "
     id="circle840" />
  <path
     id="path849"
     d="M 121.56055,66.19922 A 57.029297,57.029297 0 0 0 64.613281,10.839844 57.029297,57.029297 0 0 0 7.6679688,65.5293 57.029297,57.029297 0 0 1 7.5859375,63.86719 57.029297,57.029297 0 0 1 64.613281,6.839844 57.029297,57.029297 0 0 1 121.64453,63.86719 a 57.029297,57.029297 0 0 1 -0.084,2.33203 z"
     style="fill:#000000;fill-opacity:0.98952878;stroke:none;stroke-width:5.61155891"
     inkscape:connector-curvature="0" />
  <path
     style="fill:#583a61;fill-opacity:0.2303665;stroke-width:0.18271334"
     inkscape:connector-curvature="0"
     d="m 65.750604,28.475767 c -5.558671,0.15102 -11.004228,2.670671 -14.701582,6.830085 -6.514643,6.995026 -7.034948,18.575329 -1.217004,26.14603 5.147877,0.780301 9.662684,4.563999 11.384921,9.469622 2.565444,6.642321 -0.659784,14.803135 -7.064191,17.909579 -6.254941,3.402232 -14.770826,1.26007 -18.671127,-4.696128 -0.09163,-0.132901 -0.181105,-0.267076 -0.270781,-0.401282 2.911117,4.740046 7.817219,8.19645 13.267597,9.318586 9.315257,2.144747 19.604063,-3.195186 23.252226,-12.019005 -1.898149,-4.848204 -0.87839,-10.649794 2.508661,-14.593931 4.468865,-5.54261 13.149133,-6.830832 19.041486,-2.837316 6.073755,3.715198 8.47659,12.161548 5.267969,18.517747 -0.06952,0.145948 -0.140348,0.290967 -0.211994,0.435931 2.649945,-4.890732 3.189905,-10.867571 1.436287,-16.150347 -2.799402,-9.139557 -12.568331,-15.380144 -22.033505,-14.12705 -1.370332,1.715232 -3.147778,3.064123 -5.127344,3.980652 -0.06898,0.03224 -0.137702,0.06472 -0.207206,0.09588 -0.01606,0.0079 -0.03117,0.01336 -0.04663,0.02131 -1.007054,0.448289 -2.074514,0.785412 -3.186477,0.996667 -0.01064,0.0019 -0.02131,0.0053 -0.0333,0.0053 -0.106805,0.02131 -0.214132,0.03889 -0.321918,0.05647 -1.640951,0.276133 -3.327845,0.276665 -4.970953,-0.03224 -2.694641,-0.421229 -5.155523,-1.6915 -7.139884,-3.494941 -0.08869,-0.07965 -0.17551,-0.161397 -0.262337,-0.24316 -0.04528,-0.04315 -0.09109,-0.08603 -0.135823,-0.129978 -1.196923,-1.155987 -2.196705,-2.513535 -2.943608,-4.020016 -0.07457,-0.148077 -0.146219,-0.297599 -0.215995,-0.448049 -0.0027,-0.0079 -0.0079,-0.01606 -0.01064,-0.02397 -0.960074,-2.083303 -1.436701,-4.384865 -1.268832,-6.712339 0.06818,-2.674134 0.973603,-5.23324 2.454195,-7.407653 0.850373,-1.265372 1.895645,-2.387348 3.089931,-3.329419 0.01607,-0.01336 0.03224,-0.02664 0.04847,-0.03808 0.126782,-0.09908 0.254346,-0.197086 0.384476,-0.291979 0.125447,-0.09295 0.253016,-0.182712 0.381441,-0.271447 0.02397,-0.01606 0.04875,-0.03436 0.07378,-0.05112 2.051076,-1.401492 4.446305,-2.289552 6.969002,-2.431319 1.61e-4,-2.7e-5 5.08e-4,2.5e-5 6.66e-4,0 0.04793,-0.0027 0.09589,-0.0079 0.144089,-0.01064 0.112129,-0.0079 0.224253,-0.01587 0.336379,-0.02397 z"
     id="path855" />
</svg>
