<?xml version="1.0" encoding="UTF-8" standalone="no"?>
<svg
   xmlns:dc="http://purl.org/dc/elements/1.1/"
   xmlns:cc="http://creativecommons.org/ns#"
   xmlns:rdf="http://www.w3.org/1999/02/22-rdf-syntax-ns#"
   xmlns:svg="http://www.w3.org/2000/svg"
   xmlns="http://www.w3.org/2000/svg"
   xmlns:sodipodi="http://sodipodi.sourceforge.net/DTD/sodipodi-0.dtd"
   xmlns:inkscape="http://www.inkscape.org/namespaces/inkscape"
   width="64"
   height="64"
   version="1"
   id="svg22"
   sodipodi:docname="pidgin.svg"
   inkscape:version="0.92.4 5da689c313, 2019-01-14">
  <metadata
     id="metadata28">
    <rdf:RDF>
      <cc:Work
         rdf:about="">
        <dc:format>image/svg+xml</dc:format>
        <dc:type
           rdf:resource="http://purl.org/dc/dcmitype/StillImage" />
      </cc:Work>
    </rdf:RDF>
  </metadata>
  <defs
     id="defs26" />
  <sodipodi:namedview
     pagecolor="#ffffff"
     bordercolor="#666666"
     borderopacity="1"
     objecttolerance="10"
     gridtolerance="10"
     guidetolerance="10"
     inkscape:pageopacity="0"
     inkscape:pageshadow="2"
     inkscape:window-width="640"
     inkscape:window-height="480"
     id="namedview24"
     showgrid="false"
     inkscape:zoom="10.3125"
     inkscape:cx="15.806061"
     inkscape:cy="31.612121"
     inkscape:current-layer="svg22" />
  <path
     d="M 47.886878,44.438315 C 55.25067,44.438315 61,35 61,33.873782 60.933906,33.218617 60.998,32.569714 61,31.987969 60.950573,24.146452 57.554771,17.413885 49.502611,9.184418 47.251728,6.883976 45.102773,5 44.723965,5 44.345153,5 42.906908,6.069607 41.529522,7.372474 l -2.504339,2.368128 c 2.793669,3.70437 5.070565,7.296809 6.566837,11.624725 -6.47871,1.021664 -8.586491,7.735315 -8.592009,14.301326 0,7.37213 3.523075,8.771662 10.886867,8.771662 z"
     style="opacity:.2"
     id="path2" />
  <path
     d="m17.113122 22.561685c-7.3637916 0-13.113122 9.438315-13.113122 10.564533 0.066094 0.655165 2e-3 1.304068 0 1.885813 0.049427 7.841517 3.4452291 14.574084 11.497389 22.803551 2.250883 2.300442 4.399838 4.184418 4.778646 4.184418 0.378812 0 1.817057-1.069607 3.194443-2.372474l2.504339-2.368128c-2.793669-3.70437-5.070565-7.296809-6.566837-11.624725 6.47871-1.021664 8.586491-7.735315 8.592009-14.301326 0-7.37213-3.523075-8.771662-10.886867-8.771662z"
     style="opacity:.2"
     id="path4" />
  <path
     d="m17.113122 21.561685c-7.3637916 0-13.113122 9.438315-13.113122 10.564533 0.066094 0.655165 2e-3 1.304068 0 1.885813 0.049427 7.841517 3.4452291 14.574084 11.497389 22.803551 2.250883 2.300442 4.399838 4.184418 4.778646 4.184418 0.378812 0 1.817057-1.069607 3.194443-2.372474l2.504339-2.368128c-2.793669-3.70437-5.070565-7.296809-6.566837-11.624725 6.47871-1.021664 8.586491-7.735315 8.592009-14.301326 0-7.37213-3.523075-8.771662-10.886867-8.771662z"
     style="fill:#8b3391"
     id="path6" />
  <circle
     cx="17.5"
     cy="33.5"
     r="13.5"
     style="opacity:.2"
     id="circle8" />
  <circle
     cx="17.5"
     cy="32.5"
     r="13.5"
     style="fill:#bb3ecc"
     id="circle10" />
  <path
     d="M 47.886878,43.438315 C 55.25067,43.438315 61,34 61,32.873782 60.933906,32.218617 60.998,31.569714 61,30.987969 60.950573,23.146452 57.554771,16.413885 49.502611,8.184418 47.251728,5.883976 45.102773,4 44.723965,4 44.345153,4 42.906908,5.069607 41.529522,6.372474 l -2.504339,2.368128 c 2.793669,3.70437 5.070565,7.296809 6.566837,11.624725 -6.47871,1.021664 -8.586491,7.735315 -8.592009,14.301326 0,7.37213 3.523075,8.771662 10.886867,8.771662 z"
     style="fill:#8b3391"
     id="path12" />
  <circle
     transform="scale(-1)"
     cx="-47.5"
     cy="-33.5"
     r="13.5"
     style="opacity:.2"
     id="circle14" />
  <circle
     transform="scale(-1)"
     cx="-47.5"
     cy="-32.5"
     r="13.5"
     style="fill:#bb3ecc"
     id="circle16" />
  <path
     d="M 17.5 19 A 13.5 13.5 0 0 0 4 32.5 A 13.5 13.5 0 0 0 4.0214844 33.09375 A 13.5 13.5 0 0 1 17.5 20 A 13.5 13.5 0 0 1 30.978516 32.90625 A 13.5 13.5 0 0 0 31 32.5 A 13.5 13.5 0 0 0 17.5 19 z "
     style="fill:#ffffff;opacity:.1"
     id="path18" />
  <path
     d="M 47.5,19 A 13.5,13.5 0 0 0 34,32.5 13.5,13.5 0 0 0 34.021484,33.09375 13.5,13.5 0 0 1 47.5,20 13.5,13.5 0 0 1 60.978516,32.90625 13.5,13.5 0 0 0 61,32.5 13.5,13.5 0 0 0 47.5,19 Z"
     style="display:inline;opacity:0.1;fill:#ffffff"
     id="path20"
     inkscape:connector-curvature="0" />
</svg>
