<?xml version="1.0" encoding="UTF-8" standalone="no"?>
<!-- Created with Inkscape (http://www.inkscape.org/) -->

<svg
   xmlns:dc="http://purl.org/dc/elements/1.1/"
   xmlns:cc="http://creativecommons.org/ns#"
   xmlns:rdf="http://www.w3.org/1999/02/22-rdf-syntax-ns#"
   xmlns:svg="http://www.w3.org/2000/svg"
   xmlns="http://www.w3.org/2000/svg"
   xmlns:xlink="http://www.w3.org/1999/xlink"
   xmlns:sodipodi="http://sodipodi.sourceforge.net/DTD/sodipodi-0.dtd"
   xmlns:inkscape="http://www.inkscape.org/namespaces/inkscape"
   width="128"
   height="128"
   viewBox="0 0 33.866666 33.866666"
   version="1.1"
   id="svg8"
   inkscape:version="0.92.2 2405546, 2018-03-11"
   sodipodi:docname="robo3t.svg">
  <defs
     id="defs2">
    <linearGradient
       inkscape:collect="always"
       id="linearGradient825">
      <stop
         style="stop-color:#4d974d;stop-opacity:1"
         offset="0"
         id="stop821" />
      <stop
         style="stop-color:#83b529;stop-opacity:1"
         offset="1"
         id="stop823" />
    </linearGradient>
    <linearGradient
       inkscape:collect="always"
       xlink:href="#linearGradient825"
       id="linearGradient827"
       x1="12.456284"
       y1="288.04483"
       x2="24.200453"
       y2="270.49844"
       gradientUnits="userSpaceOnUse"
       gradientTransform="matrix(1.0932324,0,0,1.0932324,-1.5787329,-25.327604)" />
  </defs>
  <sodipodi:namedview
     id="base"
     pagecolor="#2c2f3b"
     bordercolor="#666666"
     borderopacity="1.0"
     inkscape:pageopacity="0"
     inkscape:pageshadow="2"
     inkscape:zoom="15.861074"
     inkscape:cx="63.166707"
     inkscape:cy="45.321073"
     inkscape:document-units="mm"
     inkscape:current-layer="layer1"
     showgrid="false"
     units="px"
     inkscape:showpageshadow="false"
     showguides="true"
     inkscape:guide-bbox="true"
     inkscape:snap-global="false" />
  <metadata
     id="metadata5">
    <rdf:RDF>
      <cc:Work
         rdf:about="">
        <dc:format>image/svg+xml</dc:format>
        <dc:type
           rdf:resource="http://purl.org/dc/dcmitype/StillImage" />
        <dc:title />
      </cc:Work>
    </rdf:RDF>
  </metadata>
  <g
     inkscape:label="Layer 1"
     inkscape:groupmode="layer"
     id="layer1"
     transform="translate(0,-263.13335)">
    <path
       inkscape:connector-curvature="0"
       id="path838"
       d="m 14.476784,296.99373 c -2.033105,-0.0655 -3.735681,-0.22709 -4.274681,-0.40585 -0.2066919,-0.0686 -0.2681211,-0.18094 -0.137208,-0.251 0.215252,-0.11524 1.040666,-0.24163 2.164409,-0.33151 1.389078,-0.11111 2.344093,-0.13943 4.704029,-0.13943 2.359938,0 3.314951,0.0284 4.70403,0.13943 1.123744,0.0898 1.949154,0.2163 2.164407,0.33151 0.130913,0.0701 0.06949,0.18243 -0.137206,0.251 -0.997314,0.3308 -5.432248,0.52669 -9.18778,0.40585 z"
       style="display:inline;fill:#000000;fill-opacity:0.23157895;stroke-width:0.03484467"
       sodipodi:nodetypes="ccccscccc"
       inkscape:label="sombra inf" />
    <path
       style="color:#000000;clip-rule:nonzero;display:block;overflow:visible;visibility:visible;opacity:1;isolation:auto;mix-blend-mode:normal;color-interpolation:sRGB;color-interpolation-filters:linearRGB;solid-color:#000000;solid-opacity:1;vector-effect:none;fill:none;fill-opacity:1;fill-rule:nonzero;stroke:#000000;stroke-width:1.63984847;stroke-linecap:square;stroke-linejoin:miter;stroke-miterlimit:4;stroke-dasharray:none;stroke-dashoffset:20;stroke-opacity:0.09411765;marker:none;marker-start:none;marker-mid:none;marker-end:none;paint-order:normal;color-rendering:auto;image-rendering:auto;shape-rendering:auto;text-rendering:auto;enable-background:accumulate"
       d="m 16.947791,264.06897 c -0.05204,0.001 -1.814948,1.70996 -2.479206,2.40303 -2.641271,2.75587 -4.442042,5.18509 -5.6700907,7.6489 -0.5819711,1.16761 -1.0460525,2.40269 -1.258785,3.3499 -0.037051,0.16495 -0.08328,0.32146 -0.10286,0.3475 -0.019577,0.026 -0.1501794,0.12323 -0.2902321,0.21628 -0.4370407,0.29055 -0.7934004,0.7441 -0.9885684,1.25935 -0.038975,0.10289 -0.081897,0.1986 -0.1173161,0.27521 -0.00558,-0.005 -0.010111,-0.007 -0.012788,10e-4 -0.33476,0.36016 -0.7136902,0.84468 -0.9585444,1.21764 -0.7127136,1.08563 -1.1758106,2.30674 -1.395561,3.68239 -0.096483,0.60398 -0.096483,2.23049 0,2.83449 0.1707651,1.06898 0.5124959,2.1124 0.9713324,2.96793 0.2187006,0.40779 0.4393327,0.76412 0.4848325,0.7823 0.017181,0.007 0.031136,0.0582 0.031136,0.11396 6.548e-4,10e-4 0.00157,0.002 0.00221,0.003 0.030563,0.26635 0.1084804,0.53531 0.2146162,0.7128 0.095183,0.15919 0.1016118,0.19849 0.1045283,0.63827 0.00342,0.51476 0.058604,0.78368 0.243528,1.19151 0.3694193,0.81475 1.1234781,1.39997 2.0099412,1.56015 0.3693134,0.0668 0.4115119,0.0682 0.5849125,0.02 0.4602444,-0.12781 0.7393375,-0.79988 0.5042923,-1.21486 -0.099476,-0.17562 -0.3452089,-0.33669 -0.6082646,-0.39866 -0.4742777,-0.11181 -0.5850482,-0.15447 -0.7617203,-0.29411 -0.2708639,-0.21411 -0.4003201,-0.49384 -0.4003201,-0.86403 0,-0.22076 0.019118,-0.32016 0.089516,-0.46315 0.1945937,-0.39531 0.5842256,-0.63881 1.0163687,-0.63775 0.2831074,0.001 0.4595776,0.0678 0.7289168,0.273 0.3079335,0.23489 0.4231751,0.27986 0.7144599,0.2808 0.3642677,10e-4 0.5606629,-0.10692 0.7027849,-0.38755 0.132525,-0.26163 0.137114,-0.51055 0.01389,-0.77117 -0.208143,-0.44029 -0.9074052,-0.85317 -1.6591062,-0.98022 -0.3161181,-0.0535 -0.4214144,-0.0557 -0.7678368,-0.0162 -0.3546297,0.0405 -0.4150767,0.039 -0.5181924,-0.0144 -0.1067028,-0.0553 -0.3221821,-0.11757 -0.5204163,-0.16014 -0.1096848,-0.0226 -0.1365254,-0.0652 -0.3191443,-0.43645 -0.5153233,-1.04768 -0.7733962,-2.15666 -0.7733962,-3.32266 0,-0.8813 0.1242553,-1.61602 0.4169999,-2.46699 0.160407,-0.46626 0.5052612,-1.20707 0.5621166,-1.20707 0.019831,0 0.02303,-0.0208 0.00723,-0.0467 -1.896e-4,-3.1e-4 -0.00797,-0.0317 -0.00835,-0.0328 0.0191,0.0155 0.038361,0.0334 0.057268,0.0462 0.079305,0.0535 0.2596954,0.17474 0.4008766,0.26911 0.1411817,0.0943 0.2639078,0.17822 0.2724399,0.18681 0.00858,0.008 0.082181,0.28221 0.1640203,0.60772 0.3349147,1.33209 0.8399397,2.52126 1.5390098,3.62511 0.4394715,0.69393 0.8424441,1.1998 1.5184361,1.90541 0.331328,0.34585 0.385273,0.4212 0.444245,0.61884 0.08131,0.27247 0.306258,0.70112 0.540431,1.03082 0.219678,0.3093 0.841619,0.95209 1.207078,1.24767 0.304581,0.24635 1.00133,0.72241 1.342742,0.91685 0.465213,0.26494 1.24302,0.5267 1.866491,0.62827 v -5.6e-4 c 0.465842,0.0759 1.415836,0.0497 1.880948,-0.0522 0.660551,-0.14479 1.581115,-0.50941 1.857599,-0.73559 0.06548,-0.0537 0.286265,-0.20679 0.490392,-0.34028 1.062907,-0.69514 2.034917,-1.78829 2.295169,-2.58095 0.05257,-0.16012 0.140434,-0.26704 0.572125,-0.69556 1.019668,-1.01214 1.775299,-2.09968 2.366894,-3.40715 0.358002,-0.79123 0.59111,-1.51425 0.879593,-2.72885 0.0097,-0.0405 0.177682,-0.19145 0.343051,-0.32417 0.216053,-0.16175 0.297068,-0.20463 0.335268,-0.17291 0.0865,0.0719 0.413978,0.78155 0.569902,1.23488 0.29527,0.85852 0.419223,1.59049 0.419223,2.4742 0,1.16555 -0.25809,2.27505 -0.77284,3.32154 l -0.199605,0.40644 c -0.201894,0.0317 -0.475274,0.10352 -0.63106,0.17236 -0.158317,0.0699 -0.196345,0.0721 -0.548772,0.0311 -0.32268,-0.0376 -0.43323,-0.0351 -0.746152,0.0179 -0.752631,0.12715 -1.451415,0.54029 -1.659662,0.98079 -0.123197,0.26062 -0.118615,0.50955 0.01389,0.77117 0.142118,0.28059 0.338516,0.38848 0.702783,0.38754 0.291286,-10e-4 0.406529,-0.0462 0.714461,-0.28078 0.269335,-0.20527 0.445811,-0.27205 0.728916,-0.27301 0.432146,-0.002 0.821773,0.24245 1.016369,0.63774 0.07037,0.14301 0.08952,0.24238 0.08952,0.46315 0,0.37016 -0.129457,0.64991 -0.400318,0.86403 -0.176673,0.13964 -0.287443,0.18233 -0.761722,0.29411 -0.263055,0.0619 -0.508794,0.22305 -0.608264,0.39866 -0.227596,0.40186 0.01788,1.03756 0.463705,1.20152 0.09465,0.0342 0.216082,0.0456 0.350836,0.0317 1.00942,-0.10463 1.828939,-0.66317 2.249577,-1.53401 0.219418,-0.45427 0.275544,-0.71025 0.278556,-1.2749 0.0025,-0.45243 0.0096,-0.50193 0.104524,-0.69334 0.06197,-0.12501 0.125039,-0.33203 0.168466,-0.52208 0.01874,-0.0795 0.03689,-0.14588 0.04615,-0.1529 0.03652,-0.0296 0.352048,-0.55287 0.519863,-0.86236 0.44295,-0.8169 0.800745,-1.91163 0.969661,-2.96904 0.09648,-0.604 0.09648,-2.23051 0,-2.83449 -0.29883,-1.87066 -1.099367,-3.5611 -2.27515,-4.80608 -0.08997,-0.0954 -0.204395,-0.27709 -0.262989,-0.41755 -0.100036,-0.23973 -0.223735,-0.45217 -0.369741,-0.64273 -0.159544,-0.21325 -0.338308,-0.3847 -0.566006,-0.54541 -0.134311,-0.0948 -0.254972,-0.18756 -0.267991,-0.20629 -0.01306,-0.0187 -0.0869,-0.28101 -0.16402,-0.58268 -0.892705,-3.49254 -3.489732,-7.59571 -7.085669,-11.19562 -0.877694,-0.87868 -2.146307,-2.00602 -2.253469,-2.00496 z"
       id="circle821"
       inkscape:connector-curvature="0"
       inkscape:label="sombra" />
    <circle
       style="color:#000000;clip-rule:nonzero;display:block;overflow:visible;visibility:visible;opacity:1;isolation:auto;mix-blend-mode:normal;color-interpolation:sRGB;color-interpolation-filters:linearRGB;solid-color:#000000;solid-opacity:1;vector-effect:none;fill:#eaf7ea;fill-opacity:1;fill-rule:nonzero;stroke:none;stroke-width:0.56208438;stroke-linecap:square;stroke-linejoin:miter;stroke-miterlimit:4;stroke-dasharray:none;stroke-dashoffset:20;stroke-opacity:0.90526321;marker:none;marker-start:none;marker-mid:none;marker-end:none;paint-order:normal;color-rendering:auto;image-rendering:auto;shape-rendering:auto;text-rendering:auto;enable-background:accumulate"
       id="path820"
       cx="16.95134"
       cy="279.28314"
       r="5.2084236"
       inkscape:label="ojo" />
    <path
       inkscape:connector-curvature="0"
       id="path840"
       d="m 16.691108,282.24929 c -1.266043,-0.19872 -2.289618,-1.14082 -2.595174,-2.38865 -0.08658,-0.35359 -0.08425,-1.06988 0.0047,-1.41493 0.202946,-0.78812 0.661587,-1.44222 1.314455,-1.87468 0.566972,-0.37555 1.045032,-0.51958 1.72455,-0.51958 0.679521,0 1.157582,0.14403 1.724554,0.51958 0.652263,0.43206 1.13082,1.11572 1.319046,1.8844 0.08333,0.34037 0.08308,1.06582 -4.32e-4,1.40728 -0.276816,1.13092 -1.159908,2.03299 -2.267593,2.31629 -0.336841,0.0862 -0.912271,0.11911 -1.223947,0.0702 z m -0.790001,-3.72069 c 0.13885,-0.29259 0.43597,-0.55267 0.779169,-0.68203 0.20268,-0.0765 0.212655,-0.11181 0.09811,-0.34837 -0.09745,-0.2013 -0.308986,-0.36132 -0.556039,-0.42056 -0.559252,-0.13416 -1.115442,0.41717 -0.976882,0.96834 0.05877,0.23376 0.167213,0.40149 0.331995,0.51345 0.182016,0.12373 0.253547,0.11684 0.323631,-0.0309 z"
       style="display:inline;fill:#10534f;fill-opacity:0.41052629;stroke-width:0.0374903"
       sodipodi:nodetypes="cccsscccccccccccccc" />
    <path
       inkscape:connector-curvature="0"
       id="path836"
       d="m 16.711982,280.47209 c -0.3934,-0.12779 -0.768278,-0.50889 -0.886292,-0.90104 -0.05509,-0.18302 -0.07379,-0.60044 -0.03178,-0.70986 0.01729,-0.045 0.07816,-0.0594 0.25306,-0.0603 0.489784,-10e-4 0.860542,-0.3257 0.919988,-0.80377 l 0.02349,-0.18891 0.26555,0.001 c 0.210566,10e-4 0.309058,0.0233 0.475663,0.10484 0.264474,0.1294 0.522338,0.3888 0.654968,0.65886 0.09101,0.1853 0.102574,0.25112 0.102574,0.58375 0,0.33531 -0.01112,0.39765 -0.10566,0.59008 -0.134275,0.27343 -0.379819,0.51943 -0.65088,0.65203 -0.172221,0.0844 -0.272681,0.10583 -0.533841,0.11468 -0.205421,0.005 -0.381378,-0.008 -0.486817,-0.0427 z"
       style="display:inline;fill:#125218;fill-opacity:1;stroke-width:0.0374903"
       sodipodi:nodetypes="cccccccccsccccc" />
    <path
       inkscape:connector-curvature="0"
       id="path834"
       d="m 26.450887,277.85205 c 0.01301,0.0187 0.133624,0.11144 0.267935,0.20628 0.418948,0.29569 0.726219,0.6859 0.935837,1.18835 0.0586,0.14046 0.173161,0.32224 0.263117,0.4175 1.175786,1.24497 1.975988,2.9357 2.27482,4.80636 0.09648,0.60398 0.09648,2.23006 0,2.83406 -0.168916,1.0574 -0.526383,2.15242 -0.969333,2.96933 -0.167813,0.30948 -0.4832,0.83276 -0.519715,0.86227 -0.01277,0.009 -0.04309,0.11992 -0.06738,0.2437 -0.37849,0.42585 -1.36835,-0.15741 -1.686617,-1.72521 l 0.175013,-0.0257 0.206601,-0.42005 c 0.514751,-1.0465 0.772903,-2.15587 0.772903,-3.32141 0,-0.88371 -0.124079,-1.61585 -0.419349,-2.47436 -0.155924,-0.45335 -0.483603,-1.16318 -0.570108,-1.23496 -0.03977,-0.033 -0.117528,0.007 -0.354805,0.18674 -0.168655,0.12705 -0.403337,0.43181 -0.308062,-0.45859 0.183142,-0.63398 -0.01389,-4.07295 -8.52e-4,-4.05434 z m -19.7017426,4.31461 c 0.015802,0.0259 0.012513,0.0469 -0.00731,0.0469 -0.056855,0 -0.4018832,0.74046 -0.56229,1.20672 -0.2927447,0.85096 -0.4169699,1.58603 -0.4169699,2.46733 0,1.16601 0.2581292,2.27486 0.7734527,3.32253 0.2067806,0.4204 0.2074211,0.42118 0.362867,0.44634 0.5560454,0.75423 -1.2163653,2.48424 -1.7375097,1.51241 0,-0.0558 -0.014047,-0.10702 -0.031228,-0.11396 -0.0455,-0.0182 -0.2662856,-0.37422 -0.4849862,-0.782 -0.4588368,-0.85554 -0.8003316,-1.89941 -0.9710966,-2.96837 -0.096483,-0.604 -0.096483,-2.2301 0,-2.83406 0.2197506,-1.37565 0.6824162,-2.59685 1.3951296,-3.68247 0.2448544,-0.37296 0.6239774,-0.85761 0.9587373,-1.21777 0.052857,-0.16049 0.7053946,2.57054 0.7212055,2.59637 z"
       style="display:inline;fill:#888960;stroke-width:0.0374903"
       sodipodi:nodetypes="ccccscccccccsccccccscscccccccccc" />
    <path
       inkscape:connector-curvature="0"
       id="path832"
       d="m 7.7358085,295.27532 c -0.8864632,-0.16019 -1.6404733,-0.7455 -2.0098925,-1.56025 -0.1849244,-0.40784 -0.2398741,-0.677 -0.2432875,-1.19176 -0.00291,-0.43978 -0.00937,-0.47906 -0.1045545,-0.63825 -0.1335642,-0.22336 -0.2262192,-0.59248 -0.2303191,-0.91758 -0.00376,-0.30191 0.1005223,-0.56261 0.3346002,-0.83607 0.2530523,-0.29562 0.6949082,-0.5234 1.0343239,-0.53318 0.1818393,-0.005 0.6795217,0.1155 0.8592226,0.20839 0.103116,0.0534 0.1635867,0.055 0.5182165,0.0144 0.3464226,-0.0396 0.4517192,-0.0375 0.7678375,0.0161 0.7516992,0.12704 1.4505764,0.54004 1.6587184,0.98032 0.123213,0.26062 0.11877,0.50954 -0.01376,0.7712 -0.142123,0.28058 -0.3386761,0.38899 -0.7029435,0.38764 -0.291285,-9.3e-4 -0.4062728,-0.0463 -0.7142064,-0.28103 -0.2693388,-0.20531 -0.4460635,-0.27146 -0.729171,-0.27284 -0.4321431,-0.001 -0.8217071,0.24222 -1.0163005,0.63754 -0.070397,0.14299 -0.089659,0.24254 -0.089659,0.46328 0,0.3702 0.1298133,0.65022 0.4006772,0.8643 0.1766721,0.13966 0.2872447,0.18237 0.7615224,0.2942 0.2630555,0.0619 0.5086763,0.22305 0.6081515,0.39868 0.2350449,0.415 -0.043788,1.08704 -0.5040285,1.21485 -0.1734005,0.0483 -0.2158421,0.0467 -0.5851555,-0.0201 z m 17.7692055,0.005 c -0.445822,-0.16396 -0.690932,-0.79946 -0.463337,-1.20131 0.09947,-0.17563 0.345097,-0.33664 0.608152,-0.39866 0.474278,-0.1118 0.58485,-0.15456 0.761521,-0.29421 0.270862,-0.2141 0.400679,-0.49413 0.400679,-0.8643 0,-0.22075 -0.01928,-0.32031 -0.08965,-0.46332 -0.194597,-0.3953 -0.584156,-0.63965 -1.016302,-0.63751 -0.283107,9.4e-4 -0.459833,0.0676 -0.729168,0.27284 -0.307933,0.23471 -0.422925,0.27997 -0.71421,0.28103 -0.364267,9.5e-4 -0.560823,-0.10703 -0.702942,-0.38765 -0.132519,-0.26162 -0.136959,-0.51057 -0.01377,-0.7712 0.208247,-0.44051 0.907011,-0.85333 1.659643,-0.98048 0.312921,-0.0527 0.423352,-0.0556 0.746031,-0.018 0.352428,0.0409 0.390566,0.0387 0.548883,-0.0312 0.212312,-0.0938 0.644817,-0.19456 0.814053,-0.18944 0.277921,0.008 0.665305,0.18163 0.91642,0.40979 0.236843,0.21517 0.464433,0.65712 0.47782,0.92788 0.0089,0.17762 -0.111554,0.65622 -0.220002,0.87499 -0.09491,0.19142 -0.102428,0.24115 -0.104884,0.69358 -0.0029,0.56465 -0.05894,0.8204 -0.278361,1.27467 -0.420638,0.87083 -1.240152,1.42984 -2.249572,1.53446 -0.134754,0.014 -0.256375,0.002 -0.351014,-0.032 z m -8.290555,-2.46857 c -2.324187,0.0424 -5.343626,-1.36382 -6.07734,-3.42034 -0.05897,-0.19764 -0.112919,-0.27276 -0.444241,-0.61861 -0.675993,-0.70559 -1.078942,-1.21117 -1.5184145,-1.90511 -0.699069,-1.10385 -1.2040094,-2.2934 -1.5389242,-3.6255 -0.081838,-0.32552 -0.1558146,-0.59885 -0.1643894,-0.60742 -0.00853,-0.008 -0.1311037,-0.0928 -0.2722856,-0.18712 -0.1411808,-0.0943 -0.3215786,-0.21531 -0.4008817,-0.26882 -0.3041205,-0.20528 -0.6405999,-0.76788 -0.7741054,-1.29435 -0.096639,-0.3811 -0.1052269,-1.07025 -0.015455,-1.24056 0.032606,-0.062 0.099984,-0.21992 0.1497352,-0.35125 0.1951682,-0.51524 0.5511418,-0.96893 0.9881826,-1.25948 0.1400528,-0.0931 0.2706585,-0.19055 0.290237,-0.21653 0.01958,-0.026 0.065904,-0.18222 0.1029551,-0.34717 0.2127323,-0.94721 0.6768793,-2.18235 1.2588498,-3.34997 1.2280491,-2.46383 3.0289281,-4.89321 5.6702001,-7.64906 0.664257,-0.69308 2.427316,-2.40186 2.479353,-2.40302 0.107159,-10e-4 1.375868,1.12644 2.253563,2.0051 3.595935,3.59992 6.192754,7.70311 7.085458,11.19564 0.07712,0.30167 0.150881,0.56374 0.163933,0.58237 0.013,0.0187 0.133623,0.11144 0.267938,0.20627 0.437694,0.30894 0.69903,0.64928 0.977952,1.27351 0.150565,0.33699 0.157546,0.36945 0.174113,0.80932 0.01562,0.41411 0.0076,0.49176 -0.0824,0.80607 -0.05482,0.19126 -0.1564,0.44929 -0.225733,0.57337 -0.138799,0.2484 -0.420116,0.61793 -0.470426,0.61793 -0.07377,0 -0.637984,0.46201 -0.655795,0.53701 -0.288481,1.2146 -0.521462,1.93747 -0.879463,2.7287 -0.591595,1.30747 -1.347152,2.39519 -2.366822,3.40735 -0.431692,0.42851 -0.519637,0.53542 -0.572206,0.69554 -2.279936,2.1523 -3.292346,3.26763 -5.403582,3.30613 z m 0.303796,-10.03772 c 0.557483,-0.0698 0.959081,-0.20477 1.464359,-0.49175 0.334974,-0.19025 0.881159,-0.69086 1.117847,-1.02458 0.514991,-0.72608 0.761529,-1.66153 0.659585,-2.50269 -0.108744,-0.89722 -0.466638,-1.61865 -1.114024,-2.24562 -0.476708,-0.46167 -0.983765,-0.74505 -1.644531,-0.91907 -0.318982,-0.0841 -0.452499,-0.0986 -0.899451,-0.0986 -0.446947,0 -0.580467,0.0146 -0.899446,0.0986 -0.660768,0.17402 -1.167822,0.4574 -1.644534,0.91907 -0.647388,0.62697 -1.005278,1.3484 -1.114022,2.24562 -0.101957,0.84116 0.144592,1.77661 0.659586,2.50269 0.236684,0.33372 0.782872,0.83433 1.117848,1.02458 0.758208,0.43064 1.506477,0.59083 2.296783,0.49175 z"
       style="display:inline;fill:url(#linearGradient827);fill-opacity:1;stroke-width:0.0374903"
       sodipodi:nodetypes="ccccccccccccccccsccccccccccsccccccccccccccccccaccccccccccccccccccccccccsccccaccccccscccccc" />
    <path
       inkscape:connector-curvature="0"
       id="path830"
       d="m 16.904438,293.26813 c -4.595642,0.008 -5.821011,-4.02167 -5.821011,-4.02167 0,0 2.404891,2.69912 5.756317,2.6618 3.351425,-0.0373 5.933943,-2.69551 5.933943,-2.69551 0,0 -1.273608,4.04682 -5.869249,4.05538 z M 5.4050546,291.87061 c -0.1495033,-0.25512 -0.2119964,-0.49185 -0.2188308,-0.82893 -0.00544,-0.27043 0.00629,-0.32573 0.1164099,-0.54956 0.2290663,-0.46533 0.691282,-0.79318 1.1896537,-0.8438 0.2191298,-0.0224 0.6234512,0.0633 0.8537039,0.18091 0.1575737,0.0804 0.1579656,0.0812 0.064806,0.11802 -0.3264137,0.12912 -0.6501652,0.30228 -0.8551227,0.45734 -0.4152838,0.3142 -0.7758777,0.83845 -0.9287055,1.35022 -0.036948,0.12373 -0.079202,0.23927 -0.093908,0.25679 -0.014705,0.0177 -0.07231,-0.046 -0.1280082,-0.14096 z m 22.8526174,-0.0649 c -0.07167,-0.2796 -0.308342,-0.72854 -0.523376,-0.99275 -0.295282,-0.3628 -0.749924,-0.67541 -1.22219,-0.84035 l -0.18745,-0.0655 0.206194,-0.0957 c 0.248943,-0.11552 0.66385,-0.1923 0.864714,-0.1602 0.601067,0.0962 1.113808,0.5722 1.239569,1.1509 0.05355,0.24644 0.05447,0.21728 -0.01738,0.55047 -0.05423,0.25153 -0.228988,0.64575 -0.286254,0.64575 -0.01345,0 -0.04668,-0.0867 -0.07384,-0.19274 z m -11.602834,-4.25254 c -0.05096,-0.0509 -0.05892,-0.21235 -0.05892,-1.19702 0,-0.98462 0.0079,-1.14603 0.05892,-1.197 0.0423,-0.0424 0.132736,-0.0589 0.32113,-0.0589 0.441415,0 0.407252,-0.10539 0.407252,1.25593 0,1.36127 0.03417,1.25592 -0.407252,1.25592 -0.188394,0 -0.278807,-0.0165 -0.32113,-0.0589 z m -0.939939,-0.17275 c -0.08248,-0.0208 -0.213225,-0.0539 -0.290546,-0.0732 l -0.14059,-0.0355 v -1.06311 c 0,-0.93475 0.0071,-1.06575 0.05929,-1.08577 0.08682,-0.0334 0.588767,-0.0265 0.644209,0.008 0.03688,0.0234 0.04523,0.2795 0.03747,1.15227 -0.01112,1.26624 0.01366,1.17822 -0.309865,1.09664 z m 2.253433,-0.0152 c -0.01246,-0.0327 -0.02278,-0.53813 -0.02278,-1.12338 0,-1.23069 -0.03173,-1.14171 0.407251,-1.14171 0.399273,0 0.380046,-0.0558 0.380046,1.10146 0,0.73109 -0.01208,0.99851 -0.04686,1.0415 -0.0258,0.0319 -0.178091,0.0857 -0.338482,0.11971 -0.356371,0.0755 -0.351186,0.0755 -0.379192,0.001 z m -3.639791,-0.7291 c -0.143909,-0.0798 -0.283092,-0.17465 -0.309296,-0.2105 -0.03357,-0.0461 -0.04765,-0.23359 -0.04765,-0.63641 0,-0.68455 0.0023,-0.68908 0.355769,-0.68908 0.385078,0 0.356548,-0.0693 0.356548,0.8663 0,0.63314 -0.0106,0.82011 -0.04687,0.81789 -0.02579,-10e-4 -0.164606,-0.0683 -0.308513,-0.1482 z m 4.929194,-0.66969 c 0,-0.93562 -0.02855,-0.8663 0.356541,-0.8663 0.355822,0 0.355775,-1.1e-4 0.355775,0.72657 0,0.43012 -0.01377,0.62627 -0.04687,0.66847 -0.04603,0.0588 -0.545336,0.29201 -0.624872,0.29201 -0.02787,0 -0.04059,-0.25693 -0.04059,-0.82075 z m -2.58169,-2.5586 c -1.726513,-0.18057 -3.212913,-1.44389 -3.659704,-3.11043 -0.39956,-1.49038 0.01308,-3.03426 1.101987,-4.12317 1.088918,-1.08894 2.632784,-1.50154 4.123165,-1.10199 1.425002,0.38203 2.601709,1.55875 2.983737,2.98374 0.39764,1.48321 -0.01837,3.04189 -1.10083,4.12433 -0.537242,0.53724 -1.233867,0.93706 -1.949229,1.11873 -0.259344,0.0658 -0.972236,0.15883 -1.123962,0.14657 -0.03391,-10e-4 -0.202726,-0.0197 -0.375164,-0.0378 z m 1.344509,-0.70475 c 1.286689,-0.33553 2.313948,-1.35393 2.668382,-2.64538 0.06931,-0.25254 0.08232,-0.3976 0.08232,-0.91851 0,-0.73748 -0.05902,-1.00784 -0.347784,-1.59334 -0.393972,-0.79876 -0.975653,-1.3691 -1.779867,-1.74512 -0.532141,-0.24879 -0.852504,-0.31407 -1.541559,-0.31407 -0.689051,0 -1.009418,0.0653 -1.541554,0.31407 -0.804219,0.37602 -1.385899,0.94636 -1.779869,1.74512 -0.288768,0.5855 -0.347783,0.85586 -0.347783,1.59334 0,0.71255 0.05788,0.99513 0.313198,1.52924 0.200599,0.41961 0.38303,0.68742 0.685752,1.00662 0.519793,0.54812 1.238153,0.93881 1.995429,1.08525 0.393153,0.0759 1.19243,0.0473 1.593339,-0.0571 z m -10.7997988,-0.0395 c -0.5051971,-0.33576 -0.7821088,-0.63889 -1.0024604,-1.09743 -0.2530254,-0.52656 -0.3357073,-0.92763 -0.3087013,-1.49739 0.011655,-0.24575 0.041856,-0.48346 0.067138,-0.52829 0.02527,-0.045 0.104513,-0.22668 0.176069,-0.4041 0.1493338,-0.37021 0.4529412,-0.82293 0.703899,-1.04961 0.2258832,-0.20404 0.6308816,-0.47191 0.6637536,-0.43904 0.014196,0.0142 -0.00409,0.21994 -0.040704,0.4572 -0.2089183,1.35426 -0.1959525,2.80461 0.037858,4.2354 0.096153,0.5884 0.098421,0.58593 -0.2968471,0.32326 z M 26.42759,282.46213 c 0.01337,-0.10393 0.05145,-0.39489 0.0847,-0.64658 0.157142,-1.19022 0.09886,-3.04188 -0.123627,-3.92836 -0.03125,-0.12449 0.03523,-0.11497 0.255762,0.0368 0.466337,0.32085 0.75929,0.69476 1.032242,1.31754 0.16398,0.37412 0.179428,0.43829 0.199197,0.82721 0.03455,0.67986 -0.159846,1.33908 -0.545521,1.84989 -0.14151,0.18746 -0.804985,0.73252 -0.891613,0.73252 -0.01946,0 0.03268,-0.14348 -0.01102,-0.18899 -2.7e-5,-2e-5 -1.18e-4,-10e-6 -1.18e-4,-10e-6 z"
       style="display:inline;fill:#10534f;fill-opacity:1;stroke-width:0.0374903"
       sodipodi:nodetypes="zczczcccccccccccccccccccscccscssscccccsccccccsssccccccsssccccsscscccscccccccccssccsccsccccccccccsccccccccccccsac" />
    <path
       inkscape:connector-curvature="0"
       id="path828"
       d="m 16.670905,286.35616 v -1.18094 h 0.318666 0.31867 v 1.18094 1.18095 h -0.31867 -0.318666 z m 0.543608,0 v -1.08721 H 16.989571 16.76463 l -0.0099,1.04921 c -0.0054,0.57708 -0.0014,1.0714 0.009,1.0985 0.01334,0.0347 0.08269,0.0459 0.234923,0.0379 l 0.216023,-0.0119 z m -1.499614,0.96813 c -0.123722,-0.0276 -0.262902,-0.0588 -0.309295,-0.0693 l -0.08436,-0.0192 v -1.03025 -1.03029 h 0.337417 0.337411 v 1.08501 c 0,0.59677 -0.0126,1.09157 -0.02812,1.09959 -0.01548,0.008 -0.129341,-0.007 -0.25306,-0.0355 z m 0.168711,-1.06184 v -1.01225 h -0.225577 -0.225577 l 0.01003,0.96338 0.01003,0.96339 0.187452,0.0443 c 0.103096,0.0243 0.200104,0.0464 0.215572,0.0489 0.01544,10e-4 0.02812,-0.45105 0.02812,-1.00776 z m 2.157822,1.09559 c -0.01149,-0.012 -0.02088,-0.50733 -0.02088,-1.10185 v -1.08097 h 0.318669 0.318666 v 1.03027 1.03027 l -0.103096,0.0233 c -0.05671,0.0127 -0.19071,0.0451 -0.297793,0.0717 -0.107071,0.0265 -0.204085,0.0387 -0.215565,0.0274 z m 0.401529,-0.16392 0.141228,-0.0352 -0.01003,-0.945 -0.01003,-0.94502 h -0.224942 -0.224944 l -0.01003,0.95536 c -0.0054,0.52543 -0.0022,0.9754 0.007,0.99995 0.01691,0.0441 0.0434,0.0417 0.331632,-0.0303 z m -4.133946,-0.62674 -0.243688,-0.13723 -0.01024,-0.62748 -0.01024,-0.62745 h 0.300828 0.300831 v 0.76855 c 0,0.5919 -0.01082,0.76766 -0.04686,0.7647 -0.02579,-10e-4 -0.156523,-0.0656 -0.290551,-0.14109 z m 0.253944,-0.65172 -0.01024,-0.64671 H 14.34651 14.140313 l -0.01034,0.53441 -0.01034,0.53441 0.177077,0.11229 c 0.09739,0.0618 0.199477,0.11228 0.226856,0.11228 0.03985,0 0.04775,-0.12896 0.03954,-0.64669 z m 4.732263,0.0322 v -0.7726 h 0.299923 0.299924 v 0.65332 0.65333 l -0.212771,0.0972 c -0.117024,0.0538 -0.251989,0.10714 -0.299923,0.11935 l -0.08715,0.0217 z m 0.413618,0.52017 0.113182,-0.0585 -0.01024,-0.57028 -0.01024,-0.57025 H 19.59528 19.389084 l -0.01024,0.61714 c -0.0055,0.33944 -0.0022,0.63871 0.0079,0.66505 0.01971,0.0515 0.104276,0.0294 0.322196,-0.0831 z m -3.2659,-3.12791 c -0.575453,-0.10495 -1.223977,-0.36564 -1.688639,-0.67842 -0.329481,-0.22181 -0.856963,-0.74388 -1.085315,-1.07418 -0.255929,-0.37025 -0.498097,-0.89235 -0.62356,-1.34443 -0.09513,-0.3427 -0.103503,-0.42705 -0.10413,-1.04754 -7.34e-4,-0.71817 0.03712,-0.96858 0.219703,-1.4536 0.225776,-0.59978 0.535489,-1.08247 0.984698,-1.53467 0.520648,-0.5241 1.170298,-0.90057 1.90878,-1.10615 0.345516,-0.0961 0.423385,-0.10373 1.066307,-0.10373 0.643798,0 0.720474,0.007 1.068473,0.10435 0.437249,0.12171 1.023119,0.39508 1.365828,0.63738 0.327986,0.23191 0.789988,0.69791 1.015939,1.02477 0.258415,0.37381 0.503363,0.90001 0.625868,1.34449 0.09553,0.34665 0.103326,0.42713 0.103326,1.06848 0,0.64132 -0.0077,0.7218 -0.103326,1.06845 -0.206447,0.74904 -0.589736,1.39868 -1.142467,1.93636 -0.386596,0.37607 -0.680157,0.58128 -1.149567,0.80367 -0.582218,0.27579 -0.950652,0.35803 -1.671602,0.37319 -0.340224,0.007 -0.695866,-9.4e-4 -0.790318,-0.0184 z m 1.378199,-0.58559 c 0.7084,-0.14633 1.318101,-0.46607 1.834979,-0.96228 0.816508,-0.78388 1.176648,-1.687 1.128609,-2.83019 -0.04171,-0.99252 -0.398167,-1.77443 -1.128609,-2.47568 -0.706882,-0.67864 -1.563498,-1.02112 -2.554078,-1.02112 -0.990572,0 -1.847191,0.34248 -2.554072,1.02112 -0.770167,0.73938 -1.139476,1.60426 -1.138229,2.6656 0.0013,1.02995 0.380662,1.91298 1.131954,2.63426 0.513767,0.49323 1.123188,0.81725 1.817177,0.96613 0.348751,0.0749 1.105096,0.0759 1.462269,0.001 z"
       style="display:inline;fill:#23715d;fill-opacity:1;stroke-width:0.0374903" />
    <path
       style="display:inline;fill:#ffffff;fill-opacity:0.36842107;stroke-width:0.0374903"
       d="m 16.948023,264.06812 c -0.05204,10e-4 -1.815279,1.70963 -2.479537,2.40271 -2.641272,2.75586 -4.442288,5.18551 -5.6703375,7.64934 -0.5819705,1.16761 -1.0459616,2.40234 -1.2586938,3.34955 -0.037051,0.16494 -0.083241,0.32141 -0.1028193,0.34743 -0.01958,0.026 -0.1503281,0.12334 -0.2903812,0.21638 -0.4370406,0.29055 -0.7929178,0.74458 -0.9880859,1.25982 -0.04975,0.13133 -0.1171033,0.28884 -0.14971,0.35083 -0.059526,0.11293 -0.071982,0.45378 -0.048021,0.78189 0.010351,-0.0897 0.026383,-0.16233 0.048021,-0.20338 0.032606,-0.0619 0.099959,-0.2195 0.14971,-0.35083 0.1951681,-0.51524 0.5510453,-0.96928 0.9880859,-1.25983 0.1400531,-0.0931 0.2708026,-0.19038 0.2903812,-0.21637 0.019579,-0.026 0.065769,-0.18249 0.1028193,-0.34745 0.2127322,-0.94721 0.6767233,-2.18192 1.2586938,-3.34954 1.2280495,-2.46383 3.0290655,-4.89348 5.6703375,-7.64934 0.664258,-0.69307 2.4275,-2.40154 2.479537,-2.4027 0.107158,-0.001 1.375864,1.12632 2.25356,2.00498 3.595935,3.59992 6.192815,7.70294 7.085521,11.19549 0.07712,0.30166 0.150781,0.56382 0.163832,0.58246 0.01302,0.0187 0.133471,0.11137 0.267784,0.2062 0.437696,0.30894 0.698993,0.64915 0.977918,1.27338 0.134672,0.30142 0.153818,0.3741 0.168353,0.69771 0.01449,-0.11754 0.01406,-0.24327 0.0056,-0.46665 -0.01658,-0.43987 -0.02343,-0.47257 -0.174002,-0.80956 -0.278925,-0.62424 -0.540223,-0.96444 -0.977917,-1.27338 -0.134315,-0.0948 -0.254774,-0.18752 -0.267784,-0.20621 -0.01305,-0.0186 -0.08672,-0.28079 -0.163834,-0.58246 -0.892696,-3.49253 -3.489576,-7.59556 -7.085511,-11.19548 -0.877696,-0.87866 -2.146402,-2.00606 -2.25356,-2.00499 z m 10.366713,25.52924 c -0.169235,-0.005 -0.601771,0.0955 -0.814085,0.18925 -0.158315,0.07 -0.196697,0.0725 -0.549125,0.0317 -0.322679,-0.0376 -0.432804,-0.0353 -0.745725,0.0176 -0.752631,0.12714 -1.451557,0.54023 -1.659803,0.98074 -0.10575,0.22372 -0.111433,0.43907 -0.02881,0.66098 0.01024,-0.0275 0.01572,-0.0547 0.02881,-0.0825 0.208246,-0.44051 0.907172,-0.85361 1.659803,-0.98075 0.312921,-0.0528 0.423046,-0.0551 0.745725,-0.0175 0.352428,0.0408 0.39081,0.0383 0.549125,-0.0317 0.212314,-0.0938 0.64485,-0.19438 0.814085,-0.18926 0.277921,0.008 0.66522,0.18143 0.916337,0.40959 0.176336,0.1602 0.346734,0.44638 0.428227,0.69375 0.03131,-0.13892 0.05343,-0.26959 0.04972,-0.34405 -0.01339,-0.27077 -0.2411,-0.71303 -0.477944,-0.9282 -0.251117,-0.22816 -0.638416,-0.40084 -0.916337,-0.40958 z m -20.7978292,0.001 c -0.3394156,0.009 -0.7813591,0.23711 -1.0344115,0.53274 -0.2340776,0.27345 -0.338772,0.53421 -0.3350115,0.83612 0.00131,0.10226 0.014324,0.20796 0.031637,0.31298 0.044628,-0.19575 0.1407655,-0.38063 0.3033747,-0.57059 0.2530524,-0.29564 0.6949959,-0.52296 1.0344115,-0.53275 0.1818393,-0.005 0.6790131,0.11503 0.858714,0.20791 0.1031159,0.0534 0.1639883,0.0554 0.5186181,0.0147 0.3464228,-0.0396 0.4516401,-0.0377 0.7677582,0.0158 0.7516994,0.12704 1.4505317,0.54046 1.6586737,0.98074 0.01316,0.0278 0.01914,0.0548 0.02937,0.0825 0.08255,-0.22186 0.07636,-0.43733 -0.02937,-0.66098 -0.208142,-0.44027 -0.9069743,-0.85369 -1.6586737,-0.98074 -0.3161181,-0.0536 -0.4213354,-0.0554 -0.7677582,-0.0159 -0.3546298,0.0406 -0.4155021,0.0387 -0.5186181,-0.0147 -0.1797009,-0.0929 -0.6768747,-0.21337 -0.858714,-0.2079 z m 20.2656512,3.2004 c -0.05136,0.23747 -0.172535,0.43053 -0.371168,0.58754 -0.17667,0.13966 -0.287264,0.18254 -0.761543,0.29434 -0.263054,0.062 -0.508972,0.22322 -0.608444,0.39885 -0.108136,0.19093 -0.106619,0.43399 -0.03051,0.65477 0.01024,-0.0255 0.01691,-0.0522 0.03051,-0.0763 0.09947,-0.17562 0.34539,-0.33683 0.608444,-0.39885 0.474279,-0.1118 0.584873,-0.15468 0.761543,-0.29433 0.270863,-0.21411 0.400546,-0.4942 0.400546,-0.86436 0,-0.13289 -0.0085,-0.22072 -0.02937,-0.30169 z m -19.6984479,10e-4 c -0.020849,0.0808 -0.029377,0.16896 -0.029377,0.30168 0,0.37018 0.129681,0.65028 0.4005449,0.86436 0.176672,0.13966 0.287266,0.18251 0.7615437,0.29434 0.2630556,0.0619 0.5089691,0.22265 0.6084443,0.39828 0.012892,0.0228 0.018393,0.0487 0.028249,0.0729 0.075073,-0.22022 0.078967,-0.46208 -0.028249,-0.65138 C 8.72579,293.90431 8.4798773,293.74364 8.2168217,293.68165 7.742544,293.56983 7.63195,293.52697 7.455278,293.38732 7.2567847,293.23043 7.1355321,293.03701 7.0841103,292.79978 Z"
       id="path831"
       inkscape:connector-curvature="0"
       sodipodi:nodetypes="cccccccccccccccccccccccccccccccccccccccccccccccccccccccccccccccccccccccccscccsccccccccc" />
  </g>
</svg>
