<?xml version="1.0" encoding="UTF-8" standalone="no"?>
<!-- Created with Inkscape (http://www.inkscape.org/) -->

<svg
   xmlns:dc="http://purl.org/dc/elements/1.1/"
   xmlns:cc="http://creativecommons.org/ns#"
   xmlns:rdf="http://www.w3.org/1999/02/22-rdf-syntax-ns#"
   xmlns:svg="http://www.w3.org/2000/svg"
   xmlns="http://www.w3.org/2000/svg"
   xmlns:sodipodi="http://sodipodi.sourceforge.net/DTD/sodipodi-0.dtd"
   xmlns:inkscape="http://www.inkscape.org/namespaces/inkscape"
   width="128"
   height="128"
   viewBox="0 0 33.866666 33.866666"
   version="1.1"
   id="svg8"
   inkscape:version="0.92.2 2405546, 2018-03-11"
   sodipodi:docname="robomongo.svg">
  <defs
     id="defs2" />
  <sodipodi:namedview
     id="base"
     pagecolor="#2c2f3b"
     bordercolor="#666666"
     borderopacity="1.0"
     inkscape:pageopacity="0"
     inkscape:pageshadow="2"
     inkscape:zoom="15.861074"
     inkscape:cx="80.093208"
     inkscape:cy="60.975263"
     inkscape:document-units="mm"
     inkscape:current-layer="layer1"
     showgrid="false"
     units="px"
     inkscape:showpageshadow="false"
     showguides="true"
     inkscape:guide-bbox="true" />
  <metadata
     id="metadata5">
    <rdf:RDF>
      <cc:Work
         rdf:about="">
        <dc:format>image/svg+xml</dc:format>
        <dc:type
           rdf:resource="http://purl.org/dc/dcmitype/StillImage" />
        <dc:title></dc:title>
      </cc:Work>
    </rdf:RDF>
  </metadata>
  <g
     inkscape:label="Layer 1"
     inkscape:groupmode="layer"
     id="layer1"
     transform="translate(0,-263.13335)">
    <path
       inkscape:connector-curvature="0"
       id="path838"
       d="m 14.476784,296.99373 c -2.033105,-0.0655 -3.735681,-0.22709 -4.274681,-0.40585 -0.2066919,-0.0686 -0.2681211,-0.18094 -0.137208,-0.251 0.215252,-0.11524 1.040666,-0.24163 2.164409,-0.33151 1.389078,-0.11111 2.344093,-0.13943 4.704029,-0.13943 2.359938,0 3.314951,0.0284 4.70403,0.13943 1.123744,0.0898 1.949154,0.2163 2.164407,0.33151 0.130913,0.0701 0.06949,0.18243 -0.137206,0.251 -0.997314,0.3308 -5.432248,0.52669 -9.18778,0.40585 z"
       style="display:inline;fill:#000000;fill-opacity:0.37894742;stroke-width:0.03484467"
       sodipodi:nodetypes="ccccscccc"
       inkscape:label="sombra inf" />
    <path
       style="color:#000000;clip-rule:nonzero;display:block;overflow:visible;visibility:visible;opacity:1;isolation:auto;mix-blend-mode:normal;color-interpolation:sRGB;color-interpolation-filters:linearRGB;solid-color:#000000;solid-opacity:1;vector-effect:none;fill:none;fill-opacity:1;fill-rule:nonzero;stroke:#000000;stroke-width:1;stroke-linecap:square;stroke-linejoin:miter;stroke-miterlimit:4;stroke-dasharray:none;stroke-dashoffset:20;stroke-opacity:0.07894737;marker:none;marker-start:none;marker-mid:none;marker-end:none;paint-order:normal;color-rendering:auto;image-rendering:auto;shape-rendering:auto;text-rendering:auto;enable-background:accumulate"
       d="m 16.946557,264.71645 c -0.0476,10e-4 -1.660166,1.56414 -2.267776,2.1981 -2.41602,2.52084 -4.063219,4.7429 -5.1865378,6.99659 -0.5323398,1.06804 -0.9568437,2.19779 -1.151434,3.06422 -0.033891,0.15088 -0.076178,0.29404 -0.094088,0.31786 -0.017907,0.0238 -0.1373719,0.11272 -0.2654807,0.19784 -0.3997693,0.26577 -0.7257382,0.68064 -0.904262,1.15195 -0.035651,0.0941 -0.074913,0.18166 -0.1073112,0.25174 -0.0051,-0.005 -0.00925,-0.007 -0.011698,0.001 -0.3062112,0.32944 -0.6528257,0.77264 -0.8767985,1.1138 -0.6519323,0.99304 -1.0755358,2.11002 -1.2765456,3.36835 -0.088255,0.55247 -0.088255,2.04027 0,2.59276 0.1562021,0.97781 0.4687896,1.93225 0.8884959,2.71482 0.2000495,0.37301 0.4018658,0.69895 0.4434853,0.71558 0.015715,0.007 0.02848,0.0532 0.02848,0.10424 5.99e-4,0.001 0.00143,0.002 0.00203,0.003 0.027957,0.24364 0.099229,0.48966 0.1963134,0.65201 0.087065,0.14561 0.092946,0.18157 0.095614,0.58384 0.00312,0.47086 0.053606,0.71685 0.2227596,1.0899 0.3379148,0.74527 1.0276663,1.28057 1.8385307,1.42709 0.3378179,0.0611 0.3764176,0.0624 0.5350304,0.0183 0.4209941,-0.11691 0.6762857,-0.73166 0.4612856,-1.11126 -0.090992,-0.16064 -0.3157691,-0.30797 -0.556391,-0.36466 -0.4338307,-0.10227 -0.5351545,-0.14129 -0.6967598,-0.26903 -0.2477642,-0.19585 -0.3661803,-0.45172 -0.3661803,-0.79035 0,-0.20192 0.017488,-0.29284 0.081882,-0.42365 0.1779984,-0.36159 0.534402,-0.58433 0.9296914,-0.58335 0.2589636,10e-4 0.4203842,0.062 0.6667538,0.24972 0.2816726,0.21485 0.3870862,0.25598 0.6535298,0.25684 0.333202,0.001 0.512849,-0.0978 0.642851,-0.35449 0.121223,-0.23933 0.12542,-0.46701 0.01271,-0.70541 -0.190391,-0.40273 -0.83002,-0.78041 -1.5176149,-0.89662 -0.2891591,-0.0489 -0.3854756,-0.0509 -0.7023546,-0.0148 -0.3243865,0.0371 -0.3796785,0.0356 -0.4740003,-0.0132 -0.097603,-0.0505 -0.2947059,-0.10753 -0.4760345,-0.14648 -0.1003307,-0.0206 -0.1248823,-0.0596 -0.2919272,-0.39923 -0.4713758,-0.95832 -0.7074399,-1.97274 -0.7074399,-3.0393 0,-0.80614 0.1136586,-1.4782 0.3814376,-2.25659 0.1467272,-0.4265 0.4621718,-1.10413 0.5141785,-1.10413 0.018139,0 0.021066,-0.019 0.00661,-0.0427 -1.734e-4,-2.9e-4 -0.00729,-0.029 -0.00763,-0.03 0.017472,0.0141 0.035089,0.0306 0.052384,0.0422 0.072541,0.0489 0.2375482,0.15984 0.3666893,0.24615 0.1291415,0.0863 0.2414014,0.16302 0.2492059,0.17089 0.00784,0.008 0.075173,0.25813 0.1500323,0.55588 0.3063528,1.21849 0.7683086,2.30626 1.4077611,3.31597 0.4019927,0.63475 0.7705987,1.09748 1.3889417,1.74291 0.303072,0.31635 0.352416,0.38528 0.406359,0.56606 0.07437,0.24923 0.28014,0.64133 0.494343,0.94292 0.200942,0.28292 0.769843,0.87089 1.104136,1.14126 0.278606,0.22534 0.915935,0.6608 1.228231,0.83866 0.425539,0.24234 1.137014,0.48178 1.707314,0.57469 v -5.2e-4 c 0.426115,0.0695 1.295091,0.0455 1.720539,-0.0478 0.604217,-0.13244 1.446275,-0.46597 1.69918,-0.67285 0.0599,-0.0491 0.261852,-0.18916 0.448571,-0.31126 0.97226,-0.63586 1.861376,-1.63579 2.099434,-2.36085 0.04809,-0.14646 0.128457,-0.24426 0.523333,-0.63624 0.93271,-0.92582 1.623899,-1.92062 2.165042,-3.11659 0.327471,-0.72375 0.540699,-1.38511 0.80458,-2.49613 0.0089,-0.0371 0.162529,-0.17511 0.313795,-0.29651 0.197628,-0.14797 0.271734,-0.18719 0.306676,-0.15817 0.07912,0.0657 0.378674,0.71489 0.5213,1.12956 0.270089,0.78531 0.383471,1.45485 0.383471,2.2632 0,1.06615 -0.23608,2.08103 -0.706931,3.03828 l -0.182582,0.37178 c -0.184677,0.029 -0.434742,0.0947 -0.577243,0.15766 -0.144815,0.0639 -0.1796,0.0659 -0.501972,0.0285 -0.295161,-0.0344 -0.396283,-0.0321 -0.682519,0.0163 -0.688446,0.11631 -1.327636,0.49421 -1.518123,0.89715 -0.112691,0.23839 -0.1085,0.46609 0.01271,0.7054 0.129998,0.25666 0.309648,0.35535 0.642849,0.35449 0.266444,-9.7e-4 0.371859,-0.0422 0.653531,-0.25684 0.246365,-0.18776 0.407791,-0.24885 0.666753,-0.24972 0.395292,-0.002 0.751691,0.22177 0.929692,0.58335 0.06437,0.13081 0.08188,0.22171 0.08188,0.42365 0,0.3386 -0.118417,0.59449 -0.366179,0.79035 -0.161606,0.12773 -0.262929,0.16678 -0.696761,0.26903 -0.240621,0.0567 -0.465404,0.20402 -0.55639,0.36466 -0.208186,0.36758 0.01636,0.94907 0.424159,1.09905 0.08657,0.0312 0.197654,0.0418 0.320916,0.029 0.923336,-0.0957 1.672965,-0.60661 2.05773,-1.40318 0.200706,-0.41553 0.252046,-0.64968 0.254801,-1.16618 0.0023,-0.41385 0.0088,-0.45912 0.09561,-0.63421 0.05669,-0.11435 0.114376,-0.30371 0.154099,-0.47756 0.01714,-0.0727 0.03375,-0.13344 0.04221,-0.13986 0.0334,-0.027 0.322026,-0.50572 0.475529,-0.78881 0.405174,-0.74724 0.732457,-1.74861 0.886967,-2.71584 0.08826,-0.55249 0.08826,-2.04029 0,-2.59276 -0.273346,-1.71113 -1.005611,-3.2574 -2.081122,-4.39621 -0.08229,-0.0872 -0.186964,-0.25346 -0.240561,-0.38194 -0.0915,-0.21929 -0.204655,-0.41361 -0.338209,-0.58792 -0.145938,-0.19506 -0.309457,-0.35189 -0.517736,-0.4989 -0.122857,-0.0868 -0.233228,-0.17156 -0.245137,-0.18869 -0.01194,-0.0171 -0.07949,-0.25705 -0.150032,-0.53299 -0.816574,-3.19469 -3.192123,-6.94794 -6.481393,-10.24085 -0.802844,-0.80374 -1.963267,-1.83494 -2.061291,-1.83396 z"
       id="circle821"
       inkscape:connector-curvature="0"
       inkscape:label="sombra" />
    <circle
       style="color:#000000;clip-rule:nonzero;display:block;overflow:visible;visibility:visible;opacity:1;isolation:auto;mix-blend-mode:normal;color-interpolation:sRGB;color-interpolation-filters:linearRGB;solid-color:#000000;solid-opacity:1;vector-effect:none;fill:#eaf7ea;fill-opacity:1;fill-rule:nonzero;stroke:none;stroke-width:0.51414907;stroke-linecap:square;stroke-linejoin:miter;stroke-miterlimit:4;stroke-dasharray:none;stroke-dashoffset:20;stroke-opacity:0.90526321;marker:none;marker-start:none;marker-mid:none;marker-end:none;paint-order:normal;color-rendering:auto;image-rendering:auto;shape-rendering:auto;text-rendering:auto;enable-background:accumulate"
       id="path820"
       cx="16.949802"
       cy="278.63318"
       r="4.7642422"
       inkscape:label="ojo" />
    <path
       inkscape:connector-curvature="0"
       id="path840"
       d="m 16.711764,281.34633 c -1.158073,-0.18177 -2.094356,-1.04353 -2.373854,-2.18494 -0.0792,-0.32344 -0.07707,-0.97864 0.0043,-1.29426 0.185638,-0.72091 0.605165,-1.31923 1.202355,-1.71481 0.51862,-0.34352 0.955911,-0.47527 1.577479,-0.47527 0.62157,0 1.058862,0.13175 1.577482,0.47527 0.596637,0.39521 1.034382,1.02057 1.206556,1.7237 0.07623,0.31134 0.076,0.97492 -3.96e-4,1.28726 -0.253208,1.03448 -1.060989,1.85962 -2.074209,2.11876 -0.308115,0.0788 -0.834472,0.10895 -1.119568,0.0642 z m -0.722629,-3.40338 c 0.12701,-0.26764 0.39879,-0.50554 0.712721,-0.62387 0.185395,-0.0699 0.194519,-0.10227 0.08975,-0.31866 -0.08913,-0.18413 -0.282634,-0.3305 -0.508619,-0.38469 -0.511558,-0.12272 -1.020316,0.38159 -0.893572,0.88576 0.05375,0.21382 0.152953,0.36725 0.303682,0.46966 0.166493,0.11318 0.231924,0.10687 0.296032,-0.0283 z"
       style="display:inline;fill:#8cd3a5;stroke-width:0.03429308"
       sodipodi:nodetypes="cccsscccccccccccccc" />
    <path
       inkscape:connector-curvature="0"
       id="path836"
       d="m 16.730858,279.72069 c -0.35985,-0.11689 -0.702758,-0.46549 -0.810708,-0.82419 -0.05039,-0.16742 -0.06749,-0.54924 -0.02907,-0.64933 0.01581,-0.0412 0.0715,-0.0544 0.23148,-0.0551 0.448014,-9.9e-4 0.787154,-0.29792 0.84153,-0.73522 l 0.02149,-0.1728 0.242904,9.8e-4 c 0.192608,9.9e-4 0.2827,0.0213 0.435097,0.0959 0.24192,0.11837 0.477792,0.35564 0.599112,0.60267 0.08325,0.1695 0.09383,0.2297 0.09383,0.53397 0,0.30671 -0.01018,0.36373 -0.09665,0.53976 -0.122823,0.25011 -0.347427,0.47513 -0.595372,0.59642 -0.157533,0.0772 -0.249425,0.0968 -0.488313,0.1049 -0.187903,0.005 -0.348854,-0.008 -0.445301,-0.0391 z"
       style="display:inline;fill:#294d2d;fill-opacity:1;stroke-width:0.03429308"
       sodipodi:nodetypes="cccccccccsccccc" />
    <path
       inkscape:connector-curvature="0"
       id="path834"
       d="m 25.639216,277.32409 c 0.01191,0.0171 0.122229,0.10194 0.245086,0.18869 0.383218,0.27048 0.664285,0.62741 0.856027,1.08701 0.0536,0.12848 0.158393,0.29476 0.240677,0.38189 1.075514,1.1388 1.807474,2.68534 2.080821,4.39647 0.08826,0.55247 0.08826,2.03988 0,2.59237 -0.154511,0.96722 -0.481492,1.96886 -0.886667,2.7161 -0.153502,0.28309 -0.441992,0.76174 -0.475393,0.78873 -0.01168,0.009 -0.03941,0.1097 -0.06164,0.22292 -0.346212,0.38953 -1.251656,-0.14399 -1.542781,-1.57808 l 0.160089,-0.0235 0.188981,-0.38423 c 0.470853,-0.95725 0.706989,-1.97201 0.706989,-3.03815 0,-0.80835 -0.113497,-1.47805 -0.383587,-2.26335 -0.142626,-0.41468 -0.44236,-1.06398 -0.521488,-1.12964 -0.03637,-0.0302 -0.107504,0.007 -0.324547,0.17082 -0.154271,0.11621 -0.368939,0.39498 -0.28179,-0.41948 0.167524,-0.57992 -0.01271,-3.72561 -7.78e-4,-3.70858 z m -18.0215513,3.94666 c 0.014454,0.0237 0.011446,0.0429 -0.00669,0.0429 -0.052007,0 -0.3676101,0.67731 -0.5143371,1.10381 -0.267779,0.77839 -0.3814102,1.45077 -0.3814102,2.25691 0,1.06657 0.2361156,2.08086 0.7074916,3.03918 0.1891461,0.38455 0.189732,0.38526 0.3319213,0.40828 0.5086251,0.68991 -1.1126321,2.27238 -1.5893326,1.38343 0,-0.051 -0.012849,-0.0979 -0.028564,-0.10424 -0.04162,-0.0166 -0.2435765,-0.34231 -0.4436259,-0.71532 -0.4197067,-0.78257 -0.7320783,-1.73742 -0.8882802,-2.71522 -0.088255,-0.55249 -0.088255,-2.03991 0,-2.59237 0.2010099,-1.25833 0.6242188,-2.37538 1.276151,-3.36842 0.2239729,-0.34115 0.5707638,-0.78447 0.8769749,-1.11392 0.048349,-0.1468 0.6452376,2.35132 0.6597001,2.37495 z"
       style="display:inline;fill:#888960;stroke-width:0.03429308"
       sodipodi:nodetypes="ccccscccccccsccccccscscccccccccc" />
    <path
       inkscape:connector-curvature="0"
       id="path832"
       d="m 8.5201848,293.26149 c -0.8108645,-0.14653 -1.5005716,-0.68193 -1.8384862,-1.42719 -0.1691538,-0.37306 -0.2194173,-0.61927 -0.2225396,-1.09013 -0.00267,-0.40227 -0.00857,-0.43821 -0.095638,-0.58382 -0.1221737,-0.20431 -0.2069269,-0.54195 -0.2106772,-0.83933 -0.00344,-0.27616 0.09195,-0.51463 0.3060651,-0.76476 0.2314717,-0.27042 0.6356455,-0.47877 0.9461154,-0.48772 0.1663318,-0.005 0.6215711,0.10566 0.7859469,0.19062 0.094322,0.0488 0.1496358,0.0504 0.4740223,0.0132 0.3168792,-0.0362 0.413196,-0.0343 0.7023552,0.0147 0.6875933,0.11621 1.3268693,0.49399 1.5172603,0.89672 0.112705,0.23839 0.108642,0.46609 -0.01258,0.70543 -0.130003,0.25665 -0.309794,0.35581 -0.642996,0.35458 -0.2664438,-8.5e-4 -0.3716253,-0.0423 -0.6532979,-0.25706 -0.2463693,-0.1878 -0.4080226,-0.24831 -0.6669863,-0.24957 -0.3952894,-9.8e-4 -0.7516309,0.22156 -0.9296291,0.58316 -0.064393,0.1308 -0.082013,0.22186 -0.082013,0.42378 0,0.33862 0.1187427,0.59476 0.366507,0.79059 0.1616052,0.12775 0.262748,0.16682 0.6965788,0.26911 0.2406217,0.0567 0.4652956,0.20403 0.5562874,0.36468 0.215,0.3796 -0.040054,0.99434 -0.4610442,1.11125 -0.1586127,0.0441 -0.1974348,0.0427 -0.5352526,-0.0184 z m 16.2538232,0.005 c -0.407801,-0.14998 -0.632008,-0.73128 -0.423823,-1.09886 0.09099,-0.16065 0.315667,-0.30793 0.556288,-0.36466 0.433832,-0.10227 0.534974,-0.14138 0.696578,-0.26912 0.247763,-0.19585 0.366508,-0.45199 0.366508,-0.79059 0,-0.20193 -0.01764,-0.293 -0.08201,-0.42381 -0.178001,-0.36159 -0.534338,-0.5851 -0.92963,-0.58314 -0.258963,8.6e-4 -0.420618,0.0618 -0.666984,0.24957 -0.281672,0.21469 -0.386857,0.25609 -0.653301,0.25706 -0.333202,8.7e-4 -0.512995,-0.0979 -0.642994,-0.35459 -0.121218,-0.23931 -0.125279,-0.46703 -0.01259,-0.70543 0.190487,-0.40294 0.82966,-0.78056 1.518106,-0.89686 0.286235,-0.0483 0.387248,-0.0508 0.682409,-0.0164 0.322372,0.0374 0.357258,0.0354 0.502073,-0.0286 0.194206,-0.0858 0.589827,-0.17797 0.744629,-0.17328 0.254221,0.008 0.608567,0.16614 0.838268,0.37484 0.216644,0.19682 0.424825,0.60108 0.43707,0.84875 0.0081,0.16247 -0.10204,0.60026 -0.20124,0.80037 -0.08681,0.17509 -0.09369,0.22058 -0.09594,0.63443 -0.0027,0.5165 -0.05392,0.75043 -0.254621,1.16596 -0.384766,0.79657 -1.13439,1.3079 -2.057726,1.4036 -0.123262,0.0128 -0.234511,0.002 -0.321079,-0.0292 z m -7.583525,-2.25805 c -2.125977,0.0388 -4.887914,-1.24751 -5.559056,-3.12865 -0.05394,-0.18078 -0.103289,-0.2495 -0.406356,-0.56585 -0.618343,-0.64542 -0.986928,-1.10788 -1.3889217,-1.74264 -0.6394515,-1.00971 -1.1013298,-2.09782 -1.4076827,-3.31631 -0.074858,-0.29776 -0.1425264,-0.54778 -0.15037,-0.55562 -0.00781,-0.008 -0.119923,-0.0849 -0.2490647,-0.17116 -0.1291408,-0.0863 -0.294154,-0.19695 -0.366694,-0.2459 -0.2781847,-0.18777 -0.5859687,-0.70239 -0.7080886,-1.18396 -0.088397,-0.3486 -0.096253,-0.97898 -0.014137,-1.13477 0.029826,-0.0567 0.091458,-0.20116 0.1369656,-0.32129 0.178524,-0.4713 0.5041397,-0.8863 0.903909,-1.15207 0.1281089,-0.0851 0.2475764,-0.1743 0.2654852,-0.19807 0.01791,-0.0238 0.060284,-0.16668 0.094175,-0.31756 0.1945903,-0.86643 0.6191542,-1.99624 1.1514934,-3.06428 1.1233195,-2.25371 2.7706165,-4.47591 5.1866375,-6.99674 0.607609,-0.63397 2.220312,-2.19702 2.267911,-2.19808 0.09802,-9.9e-4 1.258532,1.03037 2.061376,1.8341 3.289269,3.29291 5.664627,7.04617 6.481201,10.24086 0.07054,0.27594 0.138013,0.51566 0.149952,0.5327 0.0119,0.0171 0.122228,0.10194 0.245087,0.18868 0.400368,0.2826 0.639416,0.59391 0.894552,1.16491 0.137725,0.30825 0.14411,0.33794 0.159265,0.7403 0.01428,0.37879 0.007,0.44982 -0.07538,0.73732 -0.05014,0.17495 -0.143062,0.41098 -0.206481,0.52448 -0.126963,0.22721 -0.384288,0.56523 -0.430308,0.56523 -0.06747,0 -0.583576,0.42261 -0.599867,0.49121 -0.263879,1.11102 -0.476992,1.77224 -0.804462,2.49599 -0.541143,1.19597 -1.232265,2.19093 -2.164976,3.11677 -0.394877,0.39197 -0.475322,0.48976 -0.523408,0.63622 -2.0855,1.96875 -3.01157,2.98897 -4.942757,3.02418 z m 0.277888,-9.18169 c 0.50994,-0.0638 0.877289,-0.1873 1.339476,-0.44981 0.306408,-0.17403 0.806013,-0.63194 1.022516,-0.9372 0.471072,-0.66416 0.696584,-1.51984 0.603334,-2.28926 -0.09947,-0.8207 -0.426842,-1.48061 -1.019018,-2.05411 -0.436054,-0.4223 -0.899868,-0.68151 -1.504283,-0.84069 -0.291779,-0.0769 -0.413909,-0.0902 -0.822744,-0.0902 -0.408831,0 -0.530965,0.0134 -0.82274,0.0902 -0.604418,0.15918 -1.06823,0.41839 -1.504286,0.84069 -0.592178,0.5735 -0.919547,1.23341 -1.019017,2.05411 -0.09326,0.76942 0.132261,1.6251 0.603335,2.28926 0.2165,0.30526 0.716108,0.76317 1.022516,0.9372 0.693548,0.39391 1.378003,0.54044 2.100911,0.44981 z"
       style="display:inline;fill:#3ea03e;stroke-width:0.03429308"
       sodipodi:nodetypes="ccccccccccccccccsccccccccccsccccccccccccccccccaccccccccccccccccccccccccsccccaccccccscccccc" />
    <path
       inkscape:connector-curvature="0"
       id="path830"
       d="m 16.906901,291.42547 c -4.203719,0.008 -5.324587,-3.6787 -5.324587,-3.6787 0,0 2.199798,2.46894 5.26541,2.4348 3.065612,-0.0341 5.427888,-2.46563 5.427888,-2.46563 0,0 -1.164992,3.7017 -5.368711,3.70953 z M 6.3882007,290.14713 c -0.1367535,-0.23336 -0.193917,-0.4499 -0.2001686,-0.75824 -0.00498,-0.24736 0.00575,-0.29795 0.1064823,-0.50269 0.2095312,-0.42564 0.6323285,-0.72553 1.0881984,-0.77184 0.2004421,-0.0204 0.5702824,0.0579 0.7808989,0.16548 0.1441356,0.0736 0.1444941,0.0742 0.05928,0.10796 -0.2985767,0.11811 -0.5947182,0.2765 -0.7821967,0.41834 -0.3798678,0.2874 -0.7097098,0.76694 -0.8495043,1.23507 -0.033796,0.11318 -0.072448,0.21886 -0.0859,0.23489 -0.013451,0.0161 -0.066144,-0.042 -0.1170915,-0.12894 z m 20.9037153,-0.0593 c -0.06555,-0.25575 -0.282046,-0.66641 -0.478742,-0.90808 -0.2701,-0.33186 -0.68597,-0.61781 -1.11796,-0.76869 l -0.171464,-0.0599 0.18861,-0.0875 c 0.227713,-0.10566 0.607236,-0.1759 0.79097,-0.14653 0.549807,0.088 1.01882,0.5234 1.133857,1.05275 0.04899,0.22542 0.04983,0.19875 -0.0159,0.50352 -0.04961,0.23008 -0.20946,0.59068 -0.261842,0.59068 -0.01231,0 -0.0427,-0.0793 -0.06754,-0.1763 z m -10.613328,-3.88987 c -0.04662,-0.0465 -0.0539,-0.19425 -0.0539,-1.09494 0,-0.90065 0.0073,-1.0483 0.0539,-1.09492 0.0387,-0.0388 0.121416,-0.0539 0.293743,-0.0539 0.40377,0 0.372521,-0.0964 0.372521,1.14883 0,1.24518 0.03125,1.14881 -0.372521,1.14881 -0.172327,0 -0.25503,-0.0151 -0.293743,-0.0539 z m -0.859781,-0.15802 c -0.07544,-0.019 -0.195041,-0.0493 -0.265768,-0.067 l -0.1286,-0.0325 V 284.968 c 0,-0.85504 0.0065,-0.97487 0.05423,-0.99318 0.07942,-0.0306 0.538557,-0.0243 0.589271,0.008 0.03374,0.0214 0.04137,0.25566 0.03427,1.05401 -0.01018,1.15824 0.0125,1.07774 -0.283439,1.00312 z m 2.061258,-0.0139 c -0.0114,-0.0299 -0.02084,-0.49224 -0.02084,-1.02757 0,-1.12574 -0.02903,-1.04435 0.37252,-1.04435 0.365222,0 0.347635,-0.051 0.347635,1.00753 0,0.66874 -0.01105,0.91335 -0.04286,0.95268 -0.0236,0.0291 -0.162903,0.0783 -0.309616,0.1095 -0.325979,0.0691 -0.321236,0.0691 -0.346854,9.8e-4 z m -3.329385,-0.66692 c -0.131636,-0.073 -0.258949,-0.15976 -0.282919,-0.19255 -0.03071,-0.0421 -0.04359,-0.21367 -0.04359,-0.58213 0,-0.62617 0.0021,-0.63032 0.325429,-0.63032 0.352238,0 0.32614,-0.0634 0.32614,0.79242 0,0.57915 -0.0097,0.75017 -0.04287,0.74814 -0.02359,-9.8e-4 -0.150568,-0.0625 -0.282203,-0.13556 z m 4.508826,-0.61258 c 0,-0.85583 -0.02611,-0.79242 0.326135,-0.79242 0.325476,0 0.325433,-10e-5 0.325433,0.66461 0,0.39344 -0.01259,0.57286 -0.04287,0.61146 -0.04211,0.0538 -0.49883,0.26711 -0.571582,0.26711 -0.02549,0 -0.03713,-0.23502 -0.03713,-0.75076 z m -2.36152,-2.3404 c -1.579274,-0.16517 -2.938912,-1.32075 -3.3476,-2.84517 -0.365485,-1.36327 0.01196,-2.77549 1.008008,-3.77154 0.996054,-0.99607 2.408257,-1.37348 3.771536,-1.00801 1.303476,0.34945 2.379832,1.42582 2.729281,2.72929 0.363728,1.35672 -0.01681,2.78247 -1.00695,3.7726 -0.491426,0.49142 -1.128642,0.85714 -1.782997,1.02332 -0.237227,0.0602 -0.889322,0.14529 -1.028109,0.13407 -0.03101,-9.9e-4 -0.185437,-0.0181 -0.343169,-0.0346 z m 1.229847,-0.64465 c 1.176959,-0.30691 2.116612,-1.23846 2.440819,-2.41977 0.0634,-0.23101 0.0753,-0.3637 0.0753,-0.84018 0,-0.67459 -0.05398,-0.92189 -0.318124,-1.45746 -0.360374,-0.73064 -0.892448,-1.25234 -1.628077,-1.59629 -0.48676,-0.22758 -0.779802,-0.28729 -1.410093,-0.28729 -0.630288,0 -0.923333,0.0597 -1.410089,0.28729 -0.735633,0.34395 -1.267707,0.86565 -1.628079,1.59629 -0.264141,0.53557 -0.318123,0.78287 -0.318123,1.45746 0,0.65178 0.05294,0.91026 0.286488,1.39882 0.183491,0.38383 0.350364,0.6288 0.62727,0.92078 0.475465,0.50137 1.132561,0.85874 1.825256,0.99269 0.359624,0.0695 1.090738,0.0433 1.457457,-0.0523 z m -9.8787771,-0.0361 c -0.4621132,-0.30712 -0.7154095,-0.5844 -0.9169692,-1.00384 -0.2314471,-0.48165 -0.3070778,-0.84852 -0.2823749,-1.36969 0.010661,-0.22479 0.038286,-0.44223 0.061412,-0.48324 0.023115,-0.0412 0.0956,-0.20734 0.1610536,-0.36963 0.1365984,-0.33864 0.4143138,-0.75275 0.6438695,-0.9601 0.2066196,-0.18664 0.5770793,-0.43167 0.6071479,-0.4016 0.012986,0.013 -0.00375,0.20118 -0.037232,0.41821 -0.1911015,1.23877 -0.1792414,2.56543 0.03463,3.8742 0.087953,0.53822 0.090027,0.53596 -0.2715316,0.29569 z m 17.5688501,-0.18436 c 0.01223,-0.0951 0.04707,-0.36121 0.07748,-0.59144 0.143741,-1.08871 0.09043,-2.78246 -0.113083,-3.59334 -0.02859,-0.11388 0.03223,-0.10517 0.23395,0.0336 0.426567,0.29349 0.694536,0.63551 0.94421,1.20518 0.149996,0.34222 0.164126,0.40091 0.182209,0.75667 0.03161,0.62188 -0.146214,1.22488 -0.498997,1.69213 -0.129442,0.17147 -0.736335,0.67004 -0.815575,0.67004 -0.0178,0 0.0299,-0.13124 -0.01008,-0.17287 -2.5e-5,-2e-5 -1.08e-4,-10e-6 -1.08e-4,-10e-6 z"
       style="display:inline;fill:#1a6f25;fill-opacity:1;stroke-width:0.03429308"
       sodipodi:nodetypes="zczczcccccccccccccccccccscccscssscccccsccccccsssccccccsssccccsscscccscccccccccssccsccsccccccccccsccccccccccccsac" />
    <path
       inkscape:connector-curvature="0"
       id="path828"
       d="m 16.693284,285.10296 v -1.08023 h 0.29149 0.291493 v 1.08023 1.08024 h -0.291493 -0.29149 z m 0.497249,0 v -0.99449 h -0.205759 -0.205758 l -0.0091,0.95973 c -0.005,0.52787 -0.0012,0.98003 0.0082,1.00482 0.0122,0.0317 0.07563,0.042 0.214889,0.0347 l 0.1976,-0.0109 z m -1.371726,0.88557 c -0.11317,-0.0252 -0.24048,-0.0538 -0.282917,-0.0634 l -0.07716,-0.0176 v -0.94239 -0.94242 h 0.308641 0.308637 v 0.99248 c 0,0.54587 -0.01152,0.99848 -0.02572,1.00581 -0.01416,0.008 -0.118311,-0.007 -0.23148,-0.0325 z m 0.154323,-0.97129 v -0.92592 h -0.206339 -0.206339 l 0.0092,0.88122 0.0092,0.88123 0.171466,0.0405 c 0.0943,0.0223 0.183039,0.0424 0.197187,0.0447 0.01412,9.9e-4 0.02572,-0.41258 0.02572,-0.92182 z m 1.973801,1.00216 c -0.01051,-0.011 -0.0191,-0.46406 -0.0191,-1.00788 v -0.98879 h 0.291492 0.29149 v 0.94241 0.94241 l -0.0943,0.0213 c -0.05187,0.0117 -0.174446,0.0413 -0.272397,0.0656 -0.09794,0.0243 -0.18668,0.0354 -0.197182,0.025 z m 0.367286,-0.14994 0.129184,-0.0322 -0.0092,-0.86441 -0.0092,-0.86442 h -0.205759 -0.205761 l -0.0092,0.87388 c -0.005,0.48062 -0.002,0.89222 0.0064,0.91467 0.01547,0.0403 0.0397,0.0381 0.30335,-0.0277 z m -3.781398,-0.57329 -0.222906,-0.12553 -0.0094,-0.57396 -0.0094,-0.57395 h 0.275174 0.275175 v 0.70301 c 0,0.54142 -0.0099,0.7022 -0.04286,0.69949 -0.02359,-9.8e-4 -0.143174,-0.06 -0.265772,-0.12906 z m 0.232288,-0.59614 -0.0094,-0.59156 H 14.56708 14.378468 l -0.0095,0.48884 -0.0095,0.48883 0.161975,0.10271 c 0.08909,0.0566 0.182466,0.10271 0.20751,0.10271 0.03645,0 0.04367,-0.11796 0.03616,-0.59154 z m 4.328689,0.0294 v -0.70672 h 0.274345 0.274346 v 0.59761 0.59761 l -0.194626,0.089 c -0.107044,0.0492 -0.230499,0.098 -0.274345,0.10917 l -0.07971,0.0199 z m 0.378344,0.47581 0.103529,-0.0535 -0.0094,-0.52164 -0.0094,-0.52162 h -0.188678 -0.188612 l -0.0094,0.56451 c -0.0051,0.31049 -0.002,0.58424 0.0073,0.60833 0.01803,0.0471 0.09538,0.0269 0.29472,-0.0761 z m -2.98738,-2.86116 c -0.526377,-0.096 -1.119595,-0.33446 -1.544629,-0.62057 -0.301383,-0.20289 -0.783881,-0.68044 -0.992758,-0.98257 -0.234103,-0.33867 -0.455619,-0.81625 -0.570382,-1.22977 -0.08701,-0.31348 -0.09468,-0.39063 -0.09525,-0.95821 -6.71e-4,-0.65692 0.03396,-0.88598 0.200967,-1.32963 0.206521,-0.54863 0.489822,-0.99016 0.900721,-1.40379 0.476246,-0.47941 1.070494,-0.82377 1.745997,-1.01182 0.31605,-0.0879 0.387278,-0.0949 0.975371,-0.0949 0.588894,0 0.659031,0.007 0.977352,0.0954 0.39996,0.11133 0.935866,0.36139 1.249349,0.58303 0.300014,0.21213 0.722616,0.63839 0.929297,0.93737 0.236377,0.34193 0.460437,0.82325 0.572494,1.22983 0.08739,0.31709 0.09451,0.39071 0.09451,0.97736 0,0.58662 -0.0071,0.66024 -0.09451,0.97733 -0.188841,0.68516 -0.539442,1.2794 -1.045036,1.77122 -0.353627,0.34401 -0.622152,0.53172 -1.05153,0.73513 -0.532566,0.25227 -0.869579,0.32751 -1.529046,0.34137 -0.311209,0.007 -0.636521,-8.6e-4 -0.722919,-0.0168 z m 1.260665,-0.53565 c 0.647986,-0.13385 1.205691,-0.42632 1.678489,-0.88022 0.746875,-0.71703 1.076302,-1.54313 1.03236,-2.58882 -0.03815,-0.90788 -0.364211,-1.62311 -1.03236,-2.26456 -0.646598,-0.62076 -1.430161,-0.93403 -2.336262,-0.93403 -0.906096,0 -1.689661,0.31327 -2.336258,0.93403 -0.704486,0.67633 -1.0423,1.46745 -1.041159,2.43828 0.0011,0.94211 0.348198,1.74984 1.03542,2.4096 0.469951,0.45117 1.0274,0.74756 1.662205,0.88374 0.319009,0.0685 1.010852,0.0695 1.337565,9.7e-4 z"
       style="display:inline;fill:#226e28;stroke-width:0.03429308" />
  </g>
</svg>
