<?xml version="1.0" encoding="UTF-8" standalone="no"?>
<!-- Created with Inkscape (http://www.inkscape.org/) -->

<svg
   xmlns:dc="http://purl.org/dc/elements/1.1/"
   xmlns:cc="http://creativecommons.org/ns#"
   xmlns:rdf="http://www.w3.org/1999/02/22-rdf-syntax-ns#"
   xmlns:svg="http://www.w3.org/2000/svg"
   xmlns="http://www.w3.org/2000/svg"
   xmlns:sodipodi="http://sodipodi.sourceforge.net/DTD/sodipodi-0.dtd"
   xmlns:inkscape="http://www.inkscape.org/namespaces/inkscape"
   width="256"
   height="256"
   viewBox="0 0 67.733331 67.733331"
   version="1.1"
   id="svg8"
   inkscape:version="0.92.2 5c3e80d, 2017-08-06"
   sodipodi:docname="robomongo.svg">
  <defs
     id="defs2" />
  <sodipodi:namedview
     id="base"
     pagecolor="#000000"
     bordercolor="#666666"
     borderopacity="1.0"
     inkscape:pageopacity="0"
     inkscape:pageshadow="2"
     inkscape:zoom="2.8460141"
     inkscape:cx="207.79865"
     inkscape:cy="119.72387"
     inkscape:document-units="mm"
     inkscape:current-layer="layer1"
     showgrid="false"
     units="px"
     inkscape:showpageshadow="false" />
  <metadata
     id="metadata5">
    <rdf:RDF>
      <cc:Work
         rdf:about="">
        <dc:format>image/svg+xml</dc:format>
        <dc:type
           rdf:resource="http://purl.org/dc/dcmitype/StillImage" />
        <dc:title></dc:title>
      </cc:Work>
    </rdf:RDF>
  </metadata>
  <g
     inkscape:label="Layer 1"
     inkscape:groupmode="layer"
     id="layer1"
     transform="translate(0,-229.26668)">
    <path
       style="fill:#eaf7ea;fill-opacity:1;stroke-width:0.06635828"
       d="m 17.721366,286.51978 c -1.56905,-0.28351 -2.903658,-1.31954 -3.557534,-2.76164 -0.327318,-0.72188 -0.424579,-1.19831 -0.430622,-2.10942 -0.0052,-0.77841 -0.01656,-0.84796 -0.185061,-1.12973 -0.236411,-0.39532 -0.400411,-1.04869 -0.407668,-1.62414 -0.0067,-0.53438 0.177927,-0.9958 0.592247,-1.47984 0.447905,-0.52328 1.229996,-0.92643 1.830765,-0.94375 0.321857,-0.009 1.202761,0.20437 1.520835,0.36886 0.182515,0.0944 0.289549,0.0974 0.917249,0.0257 0.613172,-0.07 0.799548,-0.0662 1.35908,0.0284 1.330517,0.22479 2.56754,0.95588 2.93595,1.73518 0.218085,0.4613 0.210231,0.90193 -0.02434,1.36503 -0.251556,0.49664 -0.599459,0.6885 -1.244218,0.68615 -0.515578,-0.002 -0.719109,-0.0819 -1.264153,-0.49744 -0.476732,-0.3634 -0.789538,-0.48045 -1.29064,-0.48292 -0.764899,-0.004 -1.454432,0.42873 -1.798865,1.12841 -0.124603,0.25311 -0.158704,0.42932 -0.158704,0.82007 0,0.65521 0.229771,1.15085 0.709204,1.52982 0.312711,0.24718 0.508426,0.32279 1.347903,0.52074 0.465611,0.10978 0.900364,0.39478 1.076436,0.70565 0.416031,0.73454 -0.0775,1.92408 -0.892138,2.15031 -0.306919,0.0853 -0.38204,0.0827 -1.035731,-0.0355 z m 31.4517,0.0115 c -0.78911,-0.29022 -1.222957,-1.41508 -0.820111,-2.12634 0.176078,-0.31087 0.610826,-0.59587 1.076437,-0.70565 0.839479,-0.19795 1.035192,-0.27355 1.347902,-0.52074 0.47943,-0.37897 0.709205,-0.87461 0.709205,-1.52982 0,-0.39075 -0.03412,-0.56696 -0.158702,-0.82007 -0.344438,-0.69968 -1.033963,-1.13221 -1.798865,-1.12841 -0.501102,0.002 -0.813912,0.11952 -1.290639,0.48292 -0.545044,0.41546 -0.748581,0.49555 -1.264158,0.49744 -0.644758,0.002 -0.992662,-0.18951 -1.244217,-0.68615 -0.234562,-0.4631 -0.242417,-0.90373 -0.02435,-1.36504 0.368599,-0.77969 1.605419,-1.51038 2.937587,-1.73544 0.553876,-0.0935 0.749337,-0.0983 1.320482,-0.0319 0.623802,0.0725 0.69131,0.0686 0.97153,-0.0553 0.375799,-0.16623 1.141334,-0.34438 1.440884,-0.33529 0.491927,0.0148 1.177596,0.3215 1.622077,0.72532 0.419213,0.38086 0.822051,1.16312 0.845746,1.64234 0.01557,0.31442 -0.197445,1.16155 -0.389409,1.54877 -0.167971,0.33881 -0.181277,0.42682 -0.185651,1.22763 -0.0053,0.99945 -0.104313,1.45212 -0.492698,2.25619 -0.744535,1.54139 -2.195083,2.53082 -3.981771,2.716 -0.238516,0.0248 -0.453787,0.005 -0.6213,-0.0564 z m -16.658429,-3.65564 c -1.103554,-0.17985 -2.47943,-0.6431 -3.302865,-1.11203 -0.6043,-0.34416 -1.838256,-1.18611 -2.377369,-1.62214 -0.646871,-0.52318 -1.747858,-1.66134 -2.136687,-2.20881 -0.414493,-0.5836 -0.812092,-1.34256 -0.955991,-1.82484 -0.104365,-0.3498 -0.199861,-0.48278 -0.786311,-1.09492 -1.196518,-1.24894 -1.909739,-2.14381 -2.687612,-3.37207 -1.237361,-1.95381 -2.131111,-4.05938 -2.723914,-6.4172 -0.144856,-0.57615 -0.275793,-1.05997 -0.290971,-1.07514 -0.01517,-0.0152 -0.232055,-0.16421 -0.481948,-0.33118 -0.249893,-0.16699 -0.569198,-0.38111 -0.709566,-0.47585 -0.538297,-0.36331 -1.133869,-1.35914 -1.370175,-2.291 -0.171053,-0.67455 -0.186252,-1.89434 -0.02736,-2.1958 0.05772,-0.10949 0.176976,-0.38928 0.265033,-0.62174 0.345451,-0.91195 0.975527,-1.715 1.749095,-2.22927 0.247895,-0.1648 0.479069,-0.33727 0.513723,-0.38326 0.03465,-0.0461 0.116659,-0.32252 0.182234,-0.6145 0.376539,-1.67657 1.198084,-3.8628 2.22818,-5.92948 2.17366,-4.361 5.361236,-8.66103 10.03632,-13.53894 1.175744,-1.22675 4.29638,-4.25131 4.388484,-4.25336 0.189681,-0.004 2.435302,1.9938 3.988833,3.54905 6.364849,6.37189 10.961248,13.63458 12.541345,19.81639 0.136488,0.53396 0.26706,0.99783 0.290161,1.03081 0.02305,0.033 0.236516,0.19728 0.474253,0.3651 0.774727,0.54685 1.237293,1.14922 1.73099,2.25416 0.266503,0.59646 0.278855,0.65392 0.308185,1.4325 0.02763,0.73297 0.01358,0.87043 -0.145871,1.42671 -0.09704,0.33857 -0.276831,0.79528 -0.399547,1.01491 -0.245677,0.43967 -0.743612,1.09373 -0.832662,1.09373 -0.130571,0 -1.129241,0.8178 -1.160762,0.95053 -0.510615,2.14986 -0.922995,3.42933 -1.556662,4.82982 -1.047129,2.31424 -2.384474,4.23954 -4.189301,6.03105 -0.7641,0.75847 -0.919765,0.94769 -1.012816,1.2311 -0.460649,1.40303 -2.181876,3.33843 -4.063233,4.56882 -0.361309,0.23628 -0.751742,0.50717 -0.86764,0.60198 -0.489377,0.40034 -2.119134,1.04554 -3.288317,1.3018 -0.823256,0.18046 -2.50471,0.22746 -3.329256,0.093 z"
       id="path822"
       inkscape:connector-curvature="0"
       sodipodi:nodetypes="ccccccccccccccccsccccccccccscccccccccccccccccccccccccscccccscccsccscccscccsccccccccc" />
    <path
       inkscape:connector-curvature="0"
       id="path840"
       d="m 29.322838,295.71089 c -3.871849,-0.1246 -7.11424,-0.43245 -8.140711,-0.77291 -0.393625,-0.13057 -0.510611,-0.34457 -0.261299,-0.478 0.409927,-0.21939 1.981844,-0.46015 4.121903,-0.63133 2.645364,-0.2116 4.464098,-0.26551 8.958364,-0.26551 4.494272,0 6.313,0.0539 8.958366,0.26551 2.140058,0.17118 3.711972,0.41194 4.121902,0.63133 0.24931,0.13343 0.132327,0.34743 -0.261297,0.478 -1.899289,0.62997 -10.345186,1.00305 -17.497228,0.77291 z m -11.648186,-9.05154 c -1.827264,-0.36442 -3.244561,-1.616 -3.849365,-3.3993 -0.201256,-0.59341 -0.22101,-0.72348 -0.230112,-1.51511 -0.0098,-0.85261 -0.01364,-0.87331 -0.248565,-1.34292 -0.142088,-0.28401 -0.257754,-0.63162 -0.285941,-0.85933 -0.03743,-0.30247 -0.131125,-0.52112 -0.448171,-1.04599 -1.713179,-2.83615 -2.555167,-6.35877 -2.313763,-9.68008 0.09091,-1.25075 0.197313,-1.93025 0.48449,-3.09389 0.603918,-2.44708 1.834201,-4.79492 3.487646,-6.65572 0.243984,-0.27459 0.433598,-0.56034 0.484351,-0.72994 0.133978,-0.44773 0.434418,-0.99294 0.797874,-1.44794 0.332288,-0.41597 1.178373,-1.15125 1.408961,-1.22444 0.06455,-0.0205 0.134736,-0.11738 0.155955,-0.21532 0.02122,-0.0979 0.158205,-0.62598 0.304412,-1.17343 1.392509,-5.2141 5.060638,-11.17429 10.597835,-17.21998 1.808459,-1.97452 5.817797,-5.90588 6.02303,-5.90588 0.150304,0 1.770061,1.37709 3.054998,2.59731 4.725642,4.48766 8.842687,9.91943 11.334848,14.95445 1.109478,2.24155 1.901045,4.34888 2.361649,6.28724 0.141718,0.59641 0.172063,0.65903 0.389524,0.80391 0.914422,0.60924 1.683561,1.57652 1.985989,2.49763 0.0419,0.12773 0.287732,0.47114 0.546196,0.7631 1.990271,2.24831 3.27859,4.98471 3.807579,8.08735 0.462918,2.71509 0.173979,5.88685 -0.774537,8.50222 -0.332544,0.91693 -0.992005,2.27953 -1.467587,3.03237 -0.260471,0.41231 -0.377539,0.67136 -0.409983,0.90725 -0.02497,0.18158 -0.137319,0.51911 -0.249654,0.75006 -0.196407,0.40379 -0.204598,0.45558 -0.21337,1.34893 -0.0085,0.86041 -0.02481,0.97479 -0.22234,1.54893 -0.42196,1.22677 -1.029961,2.02502 -2.069703,2.71736 -0.789796,0.5259 -2.294829,0.91841 -2.890104,0.75373 -0.94382,-0.2611 -1.478947,-1.60097 -0.96382,-2.41324 0.238676,-0.37635 0.629964,-0.61472 1.238536,-0.75449 0.993869,-0.22827 1.327452,-0.43669 1.652499,-1.0324 0.503057,-0.92192 0.06474,-2.13456 -0.920331,-2.54614 -0.131808,-0.0551 -0.434656,-0.0979 -0.686027,-0.0972 -0.525417,10e-4 -0.841937,0.12481 -1.346635,0.52375 -0.875947,0.6924 -2.049282,0.59113 -2.550545,-0.22013 -0.163947,-0.26533 -0.205263,-0.41219 -0.22405,-0.7963 -0.0203,-0.41576 -6.49e-4,-0.51374 0.16849,-0.83576 0.295527,-0.56288 1.122074,-1.17883 2.042808,-1.52231 0.82941,-0.30941 1.710951,-0.40184 2.543735,-0.2667 0.381257,0.0619 0.458261,0.0532 0.829478,-0.0933 0.225066,-0.0888 0.537257,-0.1823 0.693769,-0.20767 0.282297,-0.0458 0.287107,-0.0512 0.605429,-0.68689 0.619879,-1.2378 1.074154,-2.70892 1.273646,-4.12454 0.125991,-0.89404 0.111731,-2.71779 -0.02832,-3.62676 -0.13345,-0.86586 -0.477903,-2.16325 -0.768032,-2.89275 -0.348972,-0.87744 -0.798156,-1.71974 -0.888161,-1.66544 -0.04451,0.0269 -0.22553,0.1625 -0.402264,0.30142 -0.176727,0.13893 -0.364302,0.27664 -0.416832,0.30604 -0.05488,0.0307 -0.165245,0.36228 -0.259471,0.77957 -0.706067,3.12707 -2.050939,6.0072 -3.948922,8.45688 -0.268633,0.34672 -0.955043,1.10818 -1.525355,1.69214 -0.629391,0.64443 -1.071544,1.15301 -1.124997,1.29398 -0.642155,1.69355 -2.275454,3.51201 -4.386373,4.88364 l -0.636003,0.41327 -0.109837,0.4538 c -0.06038,0.24958 -0.248967,0.73634 -0.419022,1.0817 -0.261135,0.53033 -0.403021,0.72109 -0.913108,1.22764 -0.802058,0.79648 -1.472382,1.18109 -2.56953,1.4743 -0.579733,0.15495 -1.925826,0.15495 -2.505558,0 -1.097141,-0.29321 -1.767474,-0.67782 -2.569527,-1.4743 -0.51009,-0.50655 -0.651973,-0.69731 -0.913113,-1.22764 -0.170051,-0.34536 -0.358509,-0.83171 -0.418794,-1.0808 l -0.109611,-0.45289 -0.735769,-0.48032 c -2.142037,-1.39834 -3.757913,-3.25513 -4.34043,-4.98754 -0.115381,-0.34315 -0.232961,-0.49765 -0.897157,-1.17882 -2.581752,-2.64773 -4.446502,-6.09382 -5.352584,-9.89167 -0.128884,-0.54022 -0.229217,-0.82619 -0.305499,-0.87075 -0.06247,-0.0365 -0.30451,-0.2082 -0.537861,-0.38157 -0.233353,-0.17335 -0.447733,-0.3152 -0.4764,-0.3152 -0.06278,0 -0.73088,1.39879 -0.934986,1.95757 -0.224327,0.61413 -0.57604,2.05405 -0.672661,2.75387 -0.112406,0.81415 -0.111703,2.64425 0.0013,3.45063 0.197945,1.41222 0.652835,2.88583 1.273294,4.12478 l 0.320993,0.64098 0.344758,0.074 c 0.189616,0.0406 0.48185,0.1348 0.649408,0.20919 0.281977,0.12517 0.346389,0.12934 0.865521,0.056 0.329104,-0.0465 0.792672,-0.0613 1.121827,-0.0362 1.373454,0.10558 2.950487,0.95246 3.412588,1.83262 0.169069,0.32201 0.188821,0.42 0.168489,0.83575 -0.01879,0.38411 -0.0601,0.53098 -0.224045,0.79631 -0.501263,0.81125 -1.6746,0.91252 -2.550545,0.22013 -0.504701,-0.39894 -0.821221,-0.52206 -1.346637,-0.52375 -0.251375,-7.7e-4 -0.554221,0.0421 -0.686025,0.0972 -0.98506,0.41158 -1.423387,1.62423 -0.920338,2.54615 0.325056,0.59571 0.658635,0.80411 1.652502,1.03239 0.608575,0.13978 0.999864,0.37814 1.238538,0.75449 0.392162,0.61838 0.201278,1.57176 -0.421409,2.10477 -0.433392,0.37096 -0.81043,0.43198 -1.643158,0.26591 z m 18.312729,-22.59147 c 1.055956,-0.3083 1.914291,-0.8022 2.716737,-1.56323 0.821164,-0.77878 1.363682,-1.66583 1.713326,-2.80138 0.166123,-0.53953 0.179567,-0.67011 0.179567,-1.74444 0,-1.07416 -0.01344,-1.205 -0.179445,-1.74403 -0.666714,-2.16522 -2.274584,-3.7404 -4.465865,-4.3751 -0.454321,-0.13159 -0.673731,-0.15173 -1.651995,-0.15173 -0.978264,0 -1.197673,0.0202 -1.651987,0.15173 -2.191287,0.6347 -3.799156,2.20988 -4.465871,4.3751 -0.165979,0.53903 -0.179441,0.66987 -0.179441,1.74403 0,1.07433 0.01344,1.20491 0.179565,1.74444 0.318372,1.03399 0.776226,1.83197 1.468853,2.56002 0.926115,0.97349 2.039998,1.60728 3.329935,1.89472 0.683799,0.15237 2.346816,0.10252 3.006621,-0.0902 z m -2.415033,-0.60433 c -2.24091,-0.3517 -4.052648,-2.01925 -4.593486,-4.22793 -0.153254,-0.62587 -0.149139,-1.89369 0.0082,-2.50443 0.359218,-1.39497 1.171016,-2.55278 2.326597,-3.31821 1.003549,-0.66473 1.849722,-0.91967 3.052479,-0.91967 1.202758,0 2.048931,0.25494 3.05248,0.91967 1.15451,0.76472 2.001561,1.97483 2.334724,3.3354 0.147519,0.60245 0.147084,1.88651 -7.64e-4,2.4909 -0.489964,2.00179 -2.053052,3.59844 -4.013666,4.09988 -0.596214,0.15249 -1.614732,0.21097 -2.166402,0.12439 z m -1.398309,-6.58563 c 0.245768,-0.51792 0.771673,-0.97826 1.37914,-1.20722 0.358744,-0.13522 0.376401,-0.19789 0.173681,-0.61665 -0.172467,-0.35627 -0.546907,-0.63947 -0.984196,-0.74436 -0.989884,-0.23747 -1.974347,0.7384 -1.72909,1.714 0.104009,0.41372 0.295969,0.71061 0.587633,0.90879 0.322169,0.21892 0.44878,0.20687 0.572832,-0.0546 z"
       style="fill:#8cd3a5;stroke-width:0.06635828" />
    <path
       inkscape:connector-curvature="0"
       id="path838"
       d="m 29.322838,295.71089 c -3.871849,-0.1246 -7.11424,-0.43245 -8.140711,-0.77291 -0.393625,-0.13057 -0.510611,-0.34457 -0.261299,-0.478 0.409927,-0.21939 1.981844,-0.46015 4.121903,-0.63133 2.645364,-0.2116 4.464098,-0.26551 8.958364,-0.26551 4.494272,0 6.313,0.0539 8.958366,0.26551 2.140058,0.17118 3.711972,0.41194 4.121902,0.63133 0.24931,0.13343 0.132327,0.34743 -0.261297,0.478 -1.899289,0.62997 -10.345186,1.00305 -17.497228,0.77291 z m -11.41362,-9.09313 c -0.182486,-0.0323 -0.387004,-0.0457 -0.454483,-0.0299 -0.06748,0.0158 -0.105571,0.0116 -0.08465,-0.009 0.05563,-0.0556 -0.830597,-0.35314 -0.908501,-0.305 -0.03627,0.0225 -0.04656,0.009 -0.02288,-0.029 0.05249,-0.085 -0.137224,-0.16752 -0.244199,-0.10632 -0.04233,0.0242 -0.05475,0.0196 -0.02761,-0.0104 0.06454,-0.0713 -0.195025,-0.25258 -0.283361,-0.19798 -0.03734,0.0231 -0.05968,0.0119 -0.04965,-0.0248 0.02586,-0.0947 -0.417892,-0.41181 -0.505948,-0.36165 -0.04017,0.0229 -0.05005,0.0163 -0.02192,-0.0146 0.05612,-0.0617 -0.410294,-0.57369 -0.482171,-0.52926 -0.02448,0.0152 -0.04558,-0.008 -0.0469,-0.0526 -0.0028,-0.0957 -0.592762,-0.97795 -0.629399,-0.9413 -0.01401,0.014 -0.02863,-0.0254 -0.03248,-0.0875 -0.0092,-0.14916 -0.327087,-1.01284 -0.36047,-0.97945 -0.03394,0.034 -0.05187,-0.27822 -0.07409,-1.29016 -0.01687,-0.76836 -0.03166,-0.85235 -0.200701,-1.13991 -0.100362,-0.17073 -0.182484,-0.34419 -0.182484,-0.38548 0,-0.0413 -0.02708,-0.0583 -0.06017,-0.0378 -0.03309,0.0205 -0.04333,-0.0273 -0.02273,-0.10599 0.0206,-0.0788 0.01035,-0.12668 -0.02278,-0.10651 -0.03313,0.0202 -0.06379,-0.1021 -0.06814,-0.27165 -0.0066,-0.25416 -0.07467,-0.41322 -0.387872,-0.90554 -1.767371,-2.77803 -2.683181,-6.4907 -2.436897,-9.87917 0.163672,-2.25188 0.649963,-4.16392 1.542375,-6.06446 0.612006,-1.30337 1.68307,-2.90169 2.588438,-3.86268 0.355223,-0.37704 0.490898,-0.62266 0.430657,-0.77965 -0.01932,-0.0503 -0.01084,-0.0765 0.01883,-0.0582 0.07501,0.0463 0.355439,-0.54933 0.300474,-0.63828 -0.02672,-0.0432 -0.0139,-0.0533 0.03194,-0.025 0.06956,0.0429 0.107384,-0.0397 0.08283,-0.18108 -0.0052,-0.0301 0.01797,-0.0377 0.05154,-0.0169 0.06141,0.0379 0.172909,-0.14649 0.150204,-0.24846 -0.0067,-0.0301 0.01515,-0.0378 0.04857,-0.0171 0.05511,0.0341 0.301664,-0.26468 0.30579,-0.37053 0.0024,-0.0609 0.101398,-0.15484 0.163251,-0.15484 0.10194,0 0.663697,-0.47981 0.616736,-0.52678 -0.02657,-0.0265 -0.01845,-0.0423 0.01804,-0.035 0.140262,0.0283 0.238374,-0.005 0.199544,-0.0679 -0.0223,-0.036 2e-4,-0.05 0.05005,-0.0308 0.156407,0.06 0.330293,-0.20896 0.339277,-0.52482 0.0046,-0.16171 0.03508,-0.27773 0.06775,-0.25785 0.03267,0.02 0.04444,-0.042 0.02618,-0.13757 -0.02032,-0.10632 -0.0075,-0.15783 0.03318,-0.13272 0.04063,0.0251 0.05351,-0.0264 0.03318,-0.13272 -0.01827,-0.0956 -0.01014,-0.15946 0.01815,-0.142 0.07067,0.0437 0.149874,-0.34569 0.09002,-0.44254 -0.029,-0.0469 -0.01985,-0.0606 0.02286,-0.0342 0.08584,0.0531 0.180187,-0.31648 0.109855,-0.43029 -0.03239,-0.0523 -0.01961,-0.0605 0.03871,-0.0245 0.06486,0.0401 0.07752,0.0174 0.04962,-0.0893 -0.02059,-0.0788 -0.01481,-0.12918 0.01287,-0.11209 0.07046,0.0436 0.219166,-0.48152 0.16238,-0.57339 -0.0305,-0.0494 -0.01655,-0.0568 0.04056,-0.0214 0.06486,0.04 0.07752,0.0172 0.04962,-0.0893 -0.02059,-0.0788 -0.01579,-0.1298 0.01067,-0.11345 0.07091,0.0438 0.22136,-0.4138 0.165662,-0.50392 -0.02956,-0.0479 -0.01858,-0.059 0.02902,-0.0297 0.07113,0.044 0.102735,-0.048 0.09455,-0.27497 -0.0016,-0.0452 0.02823,-0.063 0.06636,-0.0394 0.04369,0.0271 0.05548,-0.0105 0.03187,-0.10032 -0.02059,-0.0788 -0.01532,-0.12951 0.01171,-0.1128 0.07394,0.0458 0.354857,-0.67694 0.298553,-0.76804 -0.03299,-0.0534 -0.02033,-0.0613 0.03908,-0.0247 0.06435,0.0398 0.07619,0.0238 0.04419,-0.0596 -0.02404,-0.0626 -0.01837,-0.0982 0.01257,-0.0791 0.07256,0.0448 0.283885,-0.48907 0.228836,-0.57815 -0.02572,-0.0416 -0.008,-0.0466 0.0462,-0.0132 0.06435,0.0398 0.07619,0.0238 0.04419,-0.0596 -0.02403,-0.0626 -0.02,-0.0992 0.009,-0.0813 0.07475,0.0462 0.688223,-1.21262 0.633841,-1.30062 -0.02471,-0.04 -0.01483,-0.0541 0.02197,-0.0314 0.0846,0.0522 0.236014,-0.26952 0.176057,-0.37421 -0.02457,-0.0428 -0.01988,-0.0555 0.01045,-0.028 0.07683,0.0697 0.382852,-0.46273 0.324373,-0.56436 -0.02621,-0.0456 -0.02307,-0.0605 0.007,-0.0332 0.07305,0.0661 0.313695,-0.33612 0.256448,-0.42875 -0.02468,-0.0399 -0.01667,-0.0552 0.01781,-0.0339 0.071,0.0439 0.792686,-1.13226 0.77735,-1.26687 -0.0055,-0.0481 0.0069,-0.0705 0.02741,-0.0499 0.05757,0.0576 0.62388,-0.8198 0.577547,-0.89477 -0.02245,-0.0364 -0.0013,-0.0579 0.04706,-0.0478 0.0486,0.0104 0.08381,-0.0333 0.07878,-0.0972 -0.005,-0.0635 0.01356,-0.10136 0.04126,-0.0843 0.05805,0.0358 0.553999,-0.68711 0.553999,-0.80762 0,-0.0441 0.03234,-0.0744 0.07189,-0.0673 0.03953,0.007 0.0678,-0.039 0.06279,-0.10252 -0.005,-0.0634 0.01413,-0.10105 0.04251,-0.0835 0.05967,0.0369 0.287318,-0.28792 0.287318,-0.40993 0,-0.0451 0.02339,-0.0676 0.05197,-0.0499 0.06953,0.0429 0.199676,-0.20659 0.139241,-0.26702 -0.02608,-0.0261 -0.01216,-0.0375 0.03093,-0.0254 0.09443,0.0266 0.429988,-0.40462 0.379005,-0.48712 -0.01975,-0.032 -0.0059,-0.0499 0.03081,-0.0398 0.0922,0.0252 0.412874,-0.41735 0.362027,-0.49961 -0.02269,-0.0367 -0.0083,-0.0463 0.03205,-0.0214 0.06473,0.04 0.252993,-0.20405 0.223871,-0.29021 -0.0062,-0.0183 0.01483,-0.0332 0.04667,-0.0332 0.09434,0 0.997911,-1.18355 0.955702,-1.25185 -0.0213,-0.0344 -0.0098,-0.0447 0.02556,-0.0229 0.07319,0.0453 1.459007,-1.59137 1.431053,-1.69004 -0.01003,-0.0354 0.0097,-0.0471 0.04394,-0.0259 0.0598,0.037 0.441876,-0.3899 0.47105,-0.52625 0.0078,-0.0365 0.03891,-0.0597 0.06909,-0.0514 0.05887,0.0161 0.570443,-0.568 0.594346,-0.67856 0.0078,-0.0365 0.03893,-0.0597 0.06897,-0.0514 0.06237,0.017 0.737867,-0.74374 0.732151,-0.82454 -0.0021,-0.0292 0.01864,-0.0537 0.04602,-0.0547 0.07093,-0.002 3.766645,-3.70541 3.750376,-3.7578 -0.0076,-0.0239 0.03039,-0.0798 0.08394,-0.12426 0.05359,-0.0444 0.09741,-0.0591 0.09741,-0.0327 0,0.0264 0.20824,-0.13649 0.462749,-0.36213 0.25451,-0.22564 0.456078,-0.43028 0.447917,-0.45475 -0.0082,-0.0245 0.003,-0.0445 0.02474,-0.0445 0.02176,0 0.08149,-0.0327 0.132717,-0.0726 0.13048,-0.10179 0.340178,-0.17084 0.294557,-0.097 -0.04901,0.0793 0.231265,0.27622 0.317345,0.22302 0.03619,-0.0224 0.04588,-0.008 0.0216,0.0308 -0.05306,0.0858 0.314382,0.36391 0.39021,0.2954 0.02908,-0.0262 0.03344,-0.0137 0.0096,0.0279 -0.04374,0.0766 0.274121,0.33273 0.375286,0.30239 0.03008,-0.009 0.03786,0.0109 0.01725,0.0442 -0.04718,0.0764 0.392654,0.41816 0.456275,0.35455 0.0258,-0.0258 0.03695,-0.002 0.02481,0.0526 -0.01222,0.0552 0.0171,0.0914 0.06573,0.0813 0.04832,-0.0104 0.071,0.009 0.05038,0.0423 -0.03848,0.0622 0.406174,0.43734 0.525295,0.44314 0.03649,0.001 0.06008,0.0355 0.05245,0.0752 -0.01481,0.0764 1.237912,1.2583 1.310198,1.2362 0.02336,-0.007 0.203117,0.14962 0.39941,0.34838 0.196285,0.19875 0.332849,0.36138 0.303474,0.36138 -0.0294,0 0.221668,0.29811 0.557876,0.66246 0.336209,0.36435 0.638216,0.64582 0.671134,0.62547 0.03291,-0.0204 0.05169,-0.008 0.0416,0.0275 -0.0294,0.10398 0.614269,0.81461 0.693479,0.76566 0.03954,-0.0245 0.05374,-0.0151 0.0316,0.0208 -0.05832,0.0944 0.346376,0.56281 0.439892,0.50927 0.04268,-0.0245 0.05603,-0.0206 0.02962,0.008 -0.07054,0.0781 0.34353,0.57447 0.435381,0.5219 0.04245,-0.0242 0.05557,-0.0203 0.02931,0.008 -0.07123,0.0788 0.210133,0.44229 0.301725,0.38984 0.04283,-0.0245 0.05634,-0.0208 0.03007,0.008 -0.07123,0.0788 0.210133,0.44229 0.301726,0.38983 0.04283,-0.0245 0.05634,-0.0208 0.03007,0.008 -0.06855,0.0758 0.209607,0.44323 0.29539,0.39022 0.03931,-0.0242 0.05321,-0.0145 0.03084,0.0216 -0.05749,0.0931 0.146946,0.36435 0.234028,0.31053 0.03962,-0.0246 0.05374,-0.0149 0.03146,0.0212 -0.05749,0.093 0.146946,0.36435 0.234028,0.31054 0.04008,-0.0248 0.05321,-0.014 0.02962,0.0242 -0.05428,0.0878 0.343605,0.58952 0.444122,0.56007 0.04153,-0.0121 0.0542,-7.6e-4 0.02809,0.0254 -0.07169,0.0717 0.07639,0.30587 0.160551,0.25385 0.04054,-0.0251 0.05474,-0.0153 0.03176,0.0219 -0.05077,0.0821 0.469582,0.79007 0.562029,0.76456 0.03634,-0.0104 0.0497,0.008 0.0297,0.0405 -0.04672,0.0755 0.408372,0.713 0.493292,0.69101 0.0352,-0.009 0.06054,0.006 0.05619,0.0332 -0.01954,0.12374 0.01275,0.22049 0.06313,0.18933 0.03038,-0.0188 0.05527,0.003 0.05527,0.0479 0,0.122 0.227653,0.44679 0.287321,0.40991 0.02839,-0.0175 0.04749,0.0201 0.04252,0.0835 -0.0053,0.0639 0.03016,0.10726 0.07878,0.0972 0.04832,-0.0104 0.07245,0.007 0.05352,0.0373 -0.04863,0.0787 0.189727,0.42394 0.250655,0.36301 0.02771,-0.0276 0.04428,-0.0205 0.03695,0.016 -0.02862,0.14206 0.0053,0.23815 0.07031,0.19806 0.03741,-0.0231 0.06375,-0.0174 0.05848,0.0126 -0.02236,0.12863 0.01053,0.22574 0.06511,0.19204 0.03236,-0.02 0.05474,0.0156 0.04977,0.079 -0.0053,0.0639 0.03016,0.10727 0.07877,0.0972 0.04832,-0.0104 0.06932,0.0118 0.04657,0.0486 -0.05282,0.0855 0.258922,0.54952 0.324871,0.48357 0.02718,-0.0272 0.04336,-0.0195 0.03603,0.0169 -0.02725,0.1349 0.0039,0.23902 0.06123,0.20371 0.03236,-0.02 0.05481,5.8e-4 0.04977,0.0459 -0.01474,0.13353 0.706395,1.30612 0.776605,1.26273 0.03543,-0.0218 0.04305,-0.005 0.01702,0.0367 -0.05557,0.0899 0.158993,0.48302 0.237249,0.43466 0.02939,-0.0182 0.03374,0.0183 0.0097,0.0809 -0.02947,0.0767 -0.01863,0.0983 0.03321,0.0664 0.05183,-0.032 0.0626,-0.0104 0.03321,0.0664 -0.03199,0.0834 -0.02016,0.0993 0.0442,0.0596 0.05672,-0.0351 0.07199,-0.0286 0.04298,0.0183 -0.05458,0.0884 0.182346,0.49774 0.249311,0.43078 0.02619,-0.0261 0.02596,0.008 -3.2e-4,0.0774 -0.03313,0.0864 -0.0242,0.11032 0.02894,0.0774 0.05183,-0.032 0.0626,-0.0104 0.03321,0.0663 -0.03199,0.0834 -0.02016,0.0993 0.0442,0.0596 0.0558,-0.0345 0.07199,-0.0285 0.04428,0.0163 -0.06191,0.10011 0.02305,0.28954 0.106708,0.23786 0.03931,-0.0242 0.05008,-0.0114 0.02481,0.0296 -0.05954,0.0964 0.42951,1.07951 0.511751,1.02868 0.0352,-0.0217 0.04435,-0.007 0.02031,0.031 -0.06191,0.10011 0.02305,0.28954 0.106708,0.23787 0.03832,-0.0236 0.05092,-0.0127 0.02794,0.0245 -0.05504,0.089 0.156282,0.62299 0.228836,0.57815 0.03099,-0.0191 0.03665,0.0165 0.01259,0.0791 -0.03199,0.0834 -0.02015,0.0993 0.0442,0.0596 0.05504,-0.034 0.07192,-0.0285 0.04527,0.0146 -0.05756,0.0931 0.08603,0.49175 0.160551,0.44568 0.03252,-0.0201 0.04351,0.004 0.02443,0.0539 -0.04573,0.11915 0.197835,0.66019 0.268396,0.59622 0.03,-0.0272 0.0329,-0.0119 0.0061,0.0341 -0.06649,0.11548 0.02008,0.35978 0.108212,0.30531 0.04291,-0.0265 0.05267,-0.0135 0.0242,0.0326 -0.05573,0.0901 0.09475,0.54777 0.165665,0.50393 0.02649,-0.0163 0.03122,0.0347 0.01069,0.11346 -0.02794,0.10666 -0.01527,0.12946 0.04962,0.0893 0.0571,-0.0352 0.07107,-0.0279 0.04054,0.0214 -0.0568,0.0918 0.09191,0.61696 0.162383,0.57339 0.02771,-0.0171 0.03344,0.0333 0.01291,0.1121 -0.02397,0.0917 -0.01206,0.1275 0.03321,0.0996 0.04527,-0.0279 0.05718,0.007 0.03321,0.0995 -0.02786,0.10667 -0.01527,0.12946 0.04962,0.0893 0.0597,-0.0369 0.07115,-0.028 0.03649,0.028 -0.06924,0.11208 0.095,0.67731 0.181339,0.62395 0.04015,-0.0249 0.04816,-0.009 0.01938,0.037 -0.05809,0.0939 0.230102,1.34103 0.299915,1.29787 0.02633,-0.0163 0.03344,0.026 0.01557,0.0941 -0.03672,0.14051 0.281236,0.43299 0.394585,0.36295 0.03786,-0.0234 0.04947,-0.0112 0.02573,0.0271 -0.04199,0.0679 0.134197,0.18307 0.243142,0.15881 0.03008,-0.007 0.03779,0.0152 0.01718,0.0486 -0.03405,0.0552 0.264678,0.30167 0.370524,0.3058 0.0571,0.002 0.154336,0.0995 0.156565,0.15656 0.0039,0.10585 0.250677,0.40458 0.305787,0.37052 0.03344,-0.0206 0.05527,-0.0129 0.04855,0.0171 -0.02268,0.10199 0.08879,0.28641 0.150207,0.24846 0.03359,-0.0208 0.0568,-0.0132 0.05153,0.0169 -0.02458,0.14138 0.01328,0.22407 0.08283,0.18108 0.0458,-0.0283 0.05862,-0.0183 0.03192,0.025 -0.05497,0.0889 0.225462,0.68463 0.300474,0.63827 0.0297,-0.0183 0.03839,0.007 0.01938,0.0567 -0.04061,0.10577 0.123564,0.52814 0.198888,0.51176 0.06596,-0.0143 0.805423,0.82405 1.267119,1.43665 2.263026,3.00265 3.441477,7.07824 3.161294,10.93312 -0.173185,2.38275 -0.675524,4.27882 -1.672339,6.31227 -0.250478,0.51095 -0.626125,1.18282 -0.834753,1.49305 -0.302054,0.44913 -0.380623,0.62016 -0.385647,0.83945 -0.0039,0.15147 -0.03344,0.25878 -0.06657,0.23847 -0.03321,-0.0204 -0.04268,0.0302 -0.02107,0.11272 0.02153,0.0823 0.02305,0.13356 0.003,0.11388 -0.0197,-0.0197 -0.124534,0.13052 -0.232998,0.33379 -0.187627,0.3516 -0.19504,0.39581 -0.152366,0.90847 0.05397,0.64823 -0.08715,1.57242 -0.332117,2.17529 -0.09034,0.22233 -0.145107,0.4378 -0.121693,0.47883 0.02344,0.041 0.01802,0.0523 -0.01206,0.0251 -0.06878,-0.0624 -0.31539,0.33338 -0.261769,0.42014 0.02176,0.0352 0.0095,0.0558 -0.02718,0.0458 -0.0922,-0.0252 -0.412869,0.41733 -0.362027,0.49961 0.02268,0.0367 0.0116,0.0484 -0.02458,0.026 -0.08618,-0.0533 -0.570115,0.4428 -0.503485,0.5161 0.02809,0.0309 0.01825,0.0375 -0.02191,0.0146 -0.08806,-0.0502 -0.531813,0.26703 -0.505949,0.36164 0.01003,0.0367 -0.01229,0.0478 -0.04962,0.0248 -0.08835,-0.0546 -0.347904,0.12677 -0.283366,0.19799 0.02718,0.0299 0.01473,0.0347 -0.02763,0.0104 -0.106975,-0.0612 -0.296687,0.0214 -0.244196,0.10632 0.02367,0.0383 0.01335,0.0513 -0.0229,0.0289 -0.06703,-0.0414 -0.96818,0.24532 -0.920598,0.2929 0.01427,0.0143 -0.06863,0.0301 -0.184185,0.0352 -0.115571,0.005 -0.470033,0.0224 -0.78769,0.0385 -0.37502,0.0189 -0.563182,0.006 -0.53657,-0.0371 0.02527,-0.041 -0.0069,-0.048 -0.08401,-0.0183 -0.06878,0.0263 -0.106418,0.0294 -0.08372,0.007 0.02268,-0.0227 -0.08687,-0.1594 -0.243501,-0.30378 -0.156634,-0.14439 -0.321429,-0.35097 -0.36621,-0.45908 -0.04481,-0.10811 -0.105028,-0.18196 -0.133884,-0.16414 -0.02885,0.0178 -0.03566,-0.032 -0.01504,-0.11075 0.02061,-0.0788 0.01035,-0.12644 -0.02275,-0.10597 -0.03382,0.0209 -0.06023,-0.16098 -0.06023,-0.41462 0,-0.2485 0.01894,-0.44013 0.04206,-0.42583 0.02313,0.0143 0.07813,-0.061 0.122188,-0.16744 0.04405,-0.10638 0.136413,-0.24437 0.20521,-0.30664 0.06878,-0.0623 0.108646,-0.13981 0.08854,-0.17233 -0.02007,-0.0325 -0.01191,-0.0549 0.01817,-0.0496 0.141374,0.0246 0.224066,-0.0133 0.181078,-0.0829 -0.02786,-0.0451 -0.01832,-0.0587 0.02328,-0.033 0.08171,0.0505 0.293863,-0.0161 0.254449,-0.0798 -0.0145,-0.0235 0.03786,-0.0466 0.11651,-0.0511 0.331757,-0.0194 0.968783,-0.17615 0.935406,-0.23014 -0.01993,-0.0322 0.01115,-0.0404 0.06894,-0.0183 0.06245,0.0239 0.252623,-0.0576 0.467955,-0.2005 0.327949,-0.21776 0.395104,-0.30023 0.370638,-0.45519 -0.0046,-0.0274 0.02764,-0.0423 0.07114,-0.0332 0.12854,0.0271 0.381233,-0.67517 0.383492,-1.06565 7.64e-4,-0.19377 -0.02351,-0.33651 -0.05474,-0.31721 -0.03122,0.0193 -0.04183,-0.0432 -0.02351,-0.13866 0.02268,-0.11879 0.0094,-0.15904 -0.04199,-0.12727 -0.04848,0.0299 -0.06107,0.009 -0.0355,-0.0571 0.06703,-0.17474 -0.456955,-0.87041 -0.592512,-0.78662 -0.03672,0.0227 -0.04596,0.008 -0.02069,-0.033 0.05405,-0.0876 -0.326078,-0.2954 -0.748015,-0.40901 -0.309513,-0.0833 -0.962982,-0.0326 -0.89965,0.0699 0.02016,0.0327 -0.0069,0.0426 -0.06031,0.0222 -0.05336,-0.0205 -0.181803,0.007 -0.285465,0.0607 -0.282572,0.14674 -0.721869,0.51496 -0.701105,0.58767 0.01003,0.0351 -0.01145,0.0455 -0.04779,0.0231 -0.03634,-0.0225 -0.163978,0.0106 -0.283664,0.0734 -0.150008,0.0787 -0.386058,0.11617 -0.759832,0.12063 -0.298222,0.004 -0.529219,-0.0146 -0.513317,-0.0403 0.01587,-0.0257 -0.02878,-0.0651 -0.0993,-0.0875 -0.243623,-0.0773 -0.488109,-0.32452 -0.635422,-0.64248 -0.08131,-0.1755 -0.159688,-0.30725 -0.17417,-0.29278 -0.0145,0.0145 -0.02633,-0.1628 -0.02633,-0.39395 0,-0.23114 0.01183,-0.40842 0.02633,-0.39394 0.0145,0.0145 0.09265,-0.11491 0.173704,-0.28755 0.08106,-0.17263 0.225065,-0.38541 0.320009,-0.47282 0.09495,-0.0875 0.154008,-0.18909 0.131251,-0.22592 -0.02275,-0.0368 -0.01137,-0.0484 0.02534,-0.0257 0.08227,0.0509 0.524813,-0.26982 0.499614,-0.36202 -0.01003,-0.0367 0.01053,-0.0489 0.0458,-0.0272 0.08254,0.051 0.485024,-0.19177 0.422159,-0.25463 -0.02619,-0.0262 0.0088,-0.0259 0.07749,3.1e-4 0.09368,0.036 0.111379,0.0259 0.0707,-0.0399 -0.0329,-0.0532 -0.02839,-0.0719 0.01138,-0.0473 0.0361,0.0223 0.272159,-0.0306 0.524531,-0.11763 0.747,-0.25758 1.463778,-0.33352 2.228382,-0.23608 0.613727,0.0782 0.668829,0.0752 0.939027,-0.0518 0.157878,-0.0742 0.404364,-0.15615 0.547746,-0.18207 0.418769,-0.0758 0.47765,-0.13426 0.817126,-0.81214 0.621665,-1.24138 1.075704,-2.71092 1.27541,-4.12805 0.12599,-0.89404 0.11173,-2.7178 -0.02832,-3.62677 -0.209881,-1.36187 -0.653422,-2.76915 -1.246576,-3.95518 -0.371111,-0.74206 -0.364896,-0.73612 -0.593542,-0.56708 -0.104723,0.0774 -0.174429,0.16663 -0.154901,0.19823 0.01954,0.0316 0.01092,0.052 -0.01917,0.0453 -0.108944,-0.0242 -0.285152,0.0908 -0.243149,0.15882 0.02412,0.039 0.01145,0.0502 -0.02871,0.0253 -0.03947,-0.0245 -0.150297,0.0232 -0.246218,0.10587 -0.141603,0.12199 -0.176826,0.21446 -0.187285,0.4916 -0.0069,0.18776 -0.03016,0.33101 -0.05123,0.31833 -0.06291,-0.0378 -0.27477,0.95527 -0.221988,1.04067 0.02924,0.0473 0.02023,0.0611 -0.02259,0.0347 -0.08585,-0.0531 -0.180184,0.31649 -0.109852,0.43029 0.03236,0.0524 0.01962,0.0605 -0.03871,0.0245 -0.06489,-0.04 -0.07752,-0.0174 -0.04962,0.0893 0.02061,0.0788 0.01542,0.12955 -0.01153,0.11291 -0.07038,-0.0435 -0.286777,0.67989 -0.230554,0.77086 0.03099,0.0502 0.01733,0.0577 -0.04008,0.0222 -0.06488,-0.04 -0.07752,-0.0173 -0.04962,0.0894 0.02061,0.0788 0.0158,0.1298 -0.01069,0.11345 -0.07091,-0.0438 -0.221355,0.4138 -0.165657,0.50392 0.02839,0.0461 0.0187,0.0591 -0.02428,0.0326 -0.08697,-0.0537 -0.175665,0.19046 -0.1086,0.29898 0.02817,0.0455 0.01893,0.0594 -0.02245,0.0339 -0.08268,-0.0511 -0.234447,0.33713 -0.171566,0.43887 0.02344,0.0379 0.01259,0.0505 -0.02405,0.0278 -0.0807,-0.0498 -0.433328,0.73904 -0.373569,0.83574 0.02619,0.0423 0.0088,0.0476 -0.0458,0.0138 -0.06435,-0.0398 -0.07618,-0.0238 -0.0442,0.0596 0.02947,0.0767 0.01862,0.0983 -0.03321,0.0664 -0.05313,-0.0328 -0.06206,-0.009 -0.02894,0.0774 0.02633,0.0687 0.02619,0.10325 -3.28e-4,0.0766 -0.06741,-0.0674 -0.697372,1.07808 -0.644155,1.17123 0.02374,0.0416 0.01871,0.0534 -0.0113,0.0262 -0.07497,-0.0679 -0.382607,0.39838 -0.324658,0.49216 0.02863,0.0463 0.01702,0.0572 -0.03,0.0281 -0.06954,-0.0429 -0.107387,0.0397 -0.08283,0.18108 0.0053,0.0301 -0.02107,0.0358 -0.05848,0.0127 -0.06222,-0.0383 -0.09776,0.0509 -0.07421,0.18641 0.0053,0.0301 -0.02107,0.0358 -0.05848,0.0126 -0.06107,-0.0377 -0.09693,0.0481 -0.07588,0.18148 0.0046,0.0274 -0.02947,0.0423 -0.07511,0.0332 -0.04565,-0.009 -0.07899,0.0345 -0.07421,0.097 0.0046,0.0625 -0.0155,0.10722 -0.0452,0.0996 -0.08358,-0.0217 -0.395761,0.42867 -0.349293,0.50385 0.02268,0.0367 0.0084,0.0464 -0.03206,0.0214 -0.08553,-0.0528 -0.230691,0.18127 -0.16055,0.25895 0.0261,0.029 0.01213,0.0323 -0.03099,0.007 -0.09259,-0.0531 -0.29968,0.21416 -0.240363,0.31015 0.02236,0.0362 0.0095,0.0466 -0.02855,0.023 -0.08215,-0.0508 -0.431297,0.38278 -0.363148,0.45094 0.0258,0.0258 0.01702,0.0381 -0.01947,0.0274 -0.07669,-0.0227 -1.798193,1.67563 -1.774352,1.75044 0.0087,0.0274 -0.02145,0.0423 -0.0671,0.0332 -0.04733,-0.009 -0.08084,0.0461 -0.07803,0.12942 0.0023,0.0802 -0.0197,0.1308 -0.04977,0.11221 -0.03008,-0.0186 -0.05466,0.008 -0.05466,0.059 0,0.0511 -0.146008,0.3796 -0.324467,0.73012 -0.17846,0.35052 -0.305375,0.6587 -0.282022,0.68487 0.02336,0.0262 0.0053,0.0261 -0.04046,-2e-4 -0.07581,-0.0436 -0.114502,0.0349 -0.08916,0.18069 0.0053,0.0301 -0.01633,0.0387 -0.04794,0.0191 -0.06763,-0.0418 -0.350453,0.32149 -0.373736,0.48011 -0.0089,0.0602 -0.04786,0.10957 -0.08669,0.10957 -0.10238,0 -0.352377,0.33762 -0.296122,0.39991 0.02619,0.029 0.0155,0.0344 -0.02374,0.0121 -0.06802,-0.0387 -0.934034,0.77652 -0.972135,0.91513 -0.01003,0.0365 -0.03527,0.0607 -0.05603,0.0537 -0.06137,-0.0205 -0.9867,0.75662 -0.954149,0.80126 0.01633,0.0225 0.01092,0.027 -0.01213,0.0105 -0.06985,-0.0514 -0.296512,0.0992 -0.253633,0.16854 0.02199,0.0355 0.01534,0.0604 -0.01473,0.0552 -0.135526,-0.0235 -0.224843,0.012 -0.186407,0.0742 0.02313,0.0374 0.01741,0.0637 -0.01268,0.0585 -0.135519,-0.0235 -0.224844,0.012 -0.186399,0.0742 0.02313,0.0374 0.01741,0.0637 -0.01268,0.0585 -0.141374,-0.0246 -0.224073,0.0133 -0.181078,0.0829 0.02931,0.0474 0.01817,0.0586 -0.02917,0.0293 -0.08202,-0.0507 -0.366286,0.11324 -0.304138,0.17539 0.02046,0.0205 -0.01358,0.0327 -0.07558,0.0273 -0.06199,-0.005 -0.120045,0.0348 -0.128946,0.0895 -0.07329,0.45077 -0.281197,1.06278 -0.540219,1.5901 -0.260906,0.53117 -0.401471,0.7203 -0.912352,1.22764 -0.802058,0.79649 -1.472389,1.18111 -2.569531,1.47431 -0.579731,0.15494 -1.925825,0.15494 -2.505557,0 -1.097141,-0.2932 -1.767474,-0.67782 -2.569531,-1.47431 -0.510883,-0.50734 -0.651448,-0.69647 -0.912355,-1.22764 -0.251631,-0.51229 -0.472833,-1.16078 -0.531064,-1.55692 -0.01461,-0.0994 -0.45539,-0.36396 -0.529755,-0.31801 -0.03569,0.0221 -0.04339,0.005 -0.0172,-0.0367 0.04299,-0.0696 -0.0397,-0.10739 -0.181081,-0.0829 -0.03009,0.005 -0.03579,-0.0211 -0.01268,-0.0585 0.03843,-0.0622 -0.05088,-0.0978 -0.186403,-0.0742 -0.03009,0.005 -0.03579,-0.0211 -0.01268,-0.0585 0.03844,-0.0622 -0.05088,-0.0978 -0.1864,-0.0742 -0.03009,0.005 -0.03579,-0.0211 -0.01268,-0.0585 0.03844,-0.0622 -0.05088,-0.0977 -0.186402,-0.0742 -0.03008,0.005 -0.03671,-0.0197 -0.01473,-0.0552 0.04917,-0.0795 -0.191315,-0.2178 -0.264274,-0.15194 -0.02889,0.0261 -0.03199,0.0116 -0.0069,-0.0322 0.04528,-0.0789 -0.202156,-0.26287 -0.311354,-0.23145 -0.03009,0.008 -0.0372,-0.0125 -0.01581,-0.0471 0.0494,-0.0799 -0.324459,-0.351 -0.395537,-0.28678 -0.0291,0.0263 -0.03471,0.0158 -0.01246,-0.0234 0.05101,-0.0898 -1.03615,-1.1791 -1.106491,-1.10876 -0.02851,0.0285 -0.04271,0.0219 -0.03155,-0.0145 0.03024,-0.099 -0.213256,-0.43609 -0.283562,-0.39265 -0.03341,0.0207 -0.05272,0.0128 -0.04293,-0.0171 0.03029,-0.093 -0.287538,-0.55554 -0.353636,-0.51469 -0.03429,0.0212 -0.05806,0.0139 -0.05284,-0.0162 0.02354,-0.13551 -0.01202,-0.22483 -0.07422,-0.18639 -0.0374,0.0231 -0.06372,0.0174 -0.0585,-0.0127 0.02234,-0.12863 -0.01056,-0.22574 -0.06508,-0.19205 -0.03238,0.02 -0.05639,-6.5e-4 -0.05335,-0.0459 0.003,-0.0452 -0.10485,-0.3117 -0.239746,-0.59216 -0.134918,-0.28045 -0.245288,-0.54349 -0.245288,-0.58454 0,-0.0411 -0.0224,-0.0609 -0.04976,-0.0441 -0.02738,0.0168 -0.05198,-0.0703 -0.05469,-0.19362 -0.005,-0.2284 -0.184919,-0.49864 -0.315171,-0.47341 -0.03962,0.007 -0.07474,-0.0308 -0.07806,-0.0856 -0.0032,-0.0548 -0.04422,-0.0913 -0.09089,-0.0813 -0.04667,0.0104 -0.06901,-0.007 -0.04963,-0.0388 0.03512,-0.0568 -0.506345,-0.63028 -0.582507,-0.6169 -0.02205,0.004 -0.03261,-0.002 -0.0235,-0.0137 0.04684,-0.0585 -0.570153,-0.70347 -0.636637,-0.66543 -0.0422,0.0241 -0.0552,0.0201 -0.02891,-0.009 0.06851,-0.0758 -0.209603,-0.44324 -0.295388,-0.39023 -0.04049,0.0251 -0.0525,0.0134 -0.02766,-0.0267 0.02413,-0.0391 -0.02662,-0.15563 -0.112775,-0.25909 -0.08616,-0.10345 -0.321307,-0.41849 -0.522554,-0.70008 -0.201246,-0.28158 -0.38956,-0.49061 -0.418476,-0.46451 -0.02892,0.0261 -0.03449,0.0157 -0.01237,-0.0233 0.05291,-0.0931 -0.311502,-0.64159 -0.383109,-0.5766 -0.03038,0.0276 -0.0338,0.0129 -0.0075,-0.0327 0.0576,-0.10011 -0.115176,-0.36816 -0.192281,-0.2983 -0.02995,0.0272 -0.035,0.0154 -0.01123,-0.0263 0.05321,-0.0931 -0.576777,-1.23861 -0.644161,-1.17121 -0.02662,0.0266 -0.0268,-0.008 -3.91e-4,-0.0766 0.03316,-0.0864 0.02422,-0.11032 -0.02891,-0.0774 -0.0518,0.0321 -0.06263,0.0104 -0.03318,-0.0664 0.032,-0.0834 0.02016,-0.0994 -0.04419,-0.0596 -0.05458,0.0337 -0.07193,0.0284 -0.04577,-0.0138 0.05976,-0.0967 -0.292871,-0.8856 -0.373567,-0.83572 -0.03669,0.0227 -0.04752,0.0105 -0.02407,-0.0278 0.06288,-0.10178 -0.08888,-0.48997 -0.171565,-0.43886 -0.03858,0.0238 -0.05114,0.0125 -0.02792,-0.025 0.05502,-0.089 -0.150376,-0.69246 -0.220862,-0.6489 -0.02965,0.0183 -0.03707,-0.0311 -0.01648,-0.10987 0.02547,-0.0974 0.01313,-0.12815 -0.0386,-0.0961 -0.0458,0.0283 -0.06382,0.0127 -0.0453,-0.0394 0.04508,-0.12665 -0.393111,-1.39466 -0.460683,-1.33311 -0.03156,0.0288 -0.03545,0.0142 -0.0087,-0.0323 0.05967,-0.10356 -0.01812,-0.49309 -0.08963,-0.44889 -0.02826,0.0174 -0.03642,-0.0464 -0.01815,-0.14199 0.025,-0.13075 0.01187,-0.16056 -0.05301,-0.12046 -0.0564,0.0349 -0.0701,0.0272 -0.03958,-0.0223 0.06904,-0.11172 -0.02758,-0.5492 -0.110033,-0.49824 -0.04112,0.0254 -0.04946,0.0107 -0.02048,-0.0362 0.07239,-0.11712 -0.02573,-0.6145 -0.110839,-0.5619 -0.0431,0.0267 -0.05117,0.012 -0.02065,-0.0373 0.0604,-0.0977 -0.157506,-0.28096 -0.281862,-0.23698 -0.04752,0.0168 -0.06815,7.6e-4 -0.04584,-0.035 0.03718,-0.0602 -0.05409,-0.0951 -0.187886,-0.0719 -0.03009,0.005 -0.03771,-0.018 -0.01697,-0.0515 0.03794,-0.0614 -0.146489,-0.17291 -0.248464,-0.1502 -0.03009,0.007 -0.03781,-0.0152 -0.01716,-0.0486 0.04996,-0.0809 -0.251644,-0.27496 -0.339937,-0.21878 -0.03803,0.0242 -0.192569,0.2901 -0.343428,0.59092 -0.913273,1.82109 -1.360079,3.73012 -1.362974,5.82345 -0.0023,1.66935 0.252035,3.1331 0.798631,4.59612 0.27272,0.72996 0.831004,1.87796 0.965237,1.98482 0.0489,0.0389 0.20621,0.092 0.349591,0.11782 0.143381,0.0259 0.392314,0.10894 0.553184,0.18456 0.273723,0.12866 0.333643,0.13255 0.933757,0.0606 0.674917,-0.081 1.708333,-0.0769 1.579525,0.006 -0.0436,0.0281 -0.0053,0.0497 0.09029,0.0512 0.09124,0.001 0.372261,0.0751 0.624488,0.16422 0.252226,0.089 0.488264,0.14349 0.524528,0.12108 0.04007,-0.0248 0.04462,-0.006 0.01162,0.0471 -0.04071,0.0658 -0.02301,0.0759 0.07067,0.0399 0.06874,-0.0264 0.103613,-0.0265 0.07749,-3.2e-4 -0.06287,0.0629 0.33963,0.30563 0.422157,0.25464 0.03521,-0.0217 0.0558,-0.009 0.04578,0.0272 -0.0252,0.0922 0.417338,0.41288 0.49961,0.36203 0.03669,-0.0227 0.04809,-0.0111 0.02532,0.0257 -0.02276,0.0368 0.0363,0.13848 0.131246,0.22591 0.09495,0.0875 0.238953,0.3002 0.32001,0.47282 0.08106,0.17264 0.159224,0.30203 0.173703,0.28756 0.01447,-0.0145 0.02633,0.16279 0.02633,0.39395 0,0.23114 -0.01185,0.40842 -0.02633,0.39393 -0.01448,-0.0145 -0.09286,0.11729 -0.174172,0.29279 -0.147306,0.31795 -0.391798,0.56516 -0.635417,0.64248 -0.07052,0.0224 -0.115198,0.0618 -0.0993,0.0875 0.01591,0.0257 -0.215092,0.0439 -0.513313,0.0403 -0.373774,-0.004 -0.609826,-0.0419 -0.759835,-0.12061 -0.119687,-0.0627 -0.247337,-0.0957 -0.283667,-0.0733 -0.03633,0.0225 -0.05785,0.0121 -0.04782,-0.0231 0.02075,-0.0726 -0.418538,-0.44093 -0.701109,-0.58768 -0.103654,-0.0538 -0.232121,-0.0811 -0.285467,-0.0607 -0.05335,0.0205 -0.08049,0.0106 -0.06031,-0.0222 0.06333,-0.10252 -0.590137,-0.15323 -0.899651,-0.0699 -0.421936,0.11362 -0.802104,0.32149 -0.748014,0.40901 0.02531,0.041 0.01605,0.0557 -0.02068,0.033 -0.135561,-0.0838 -0.659561,0.61189 -0.59251,0.78662 0.02558,0.0667 0.01295,0.0869 -0.03551,0.0571 -0.05142,-0.0318 -0.06472,0.008 -0.04201,0.12725 0.01827,0.0956 0.0076,0.15797 -0.02355,0.13867 -0.03122,-0.0193 -0.05586,0.12345 -0.05474,0.31722 0.0023,0.39046 0.25495,1.09264 0.383493,1.06563 0.04344,-0.009 0.07544,0.006 0.07112,0.0332 -0.02446,0.15496 0.04269,0.23743 0.370637,0.45518 0.215336,0.14298 0.405527,0.22447 0.467956,0.20052 0.05784,-0.0223 0.08888,-0.014 0.06896,0.0182 -0.03338,0.054 0.603645,0.21075 0.935402,0.23015 0.07864,0.004 0.131061,0.0276 0.116507,0.0511 -0.03941,0.0638 0.17275,0.13037 0.254451,0.0798 0.04162,-0.0257 0.05117,-0.0122 0.02327,0.033 -0.04299,0.0696 0.0397,0.10738 0.181081,0.0829 0.03009,-0.005 0.03826,0.0171 0.01815,0.0496 -0.0201,0.0325 0.01974,0.11008 0.08854,0.17234 0.06879,0.0623 0.161142,0.20025 0.20521,0.30664 0.04407,0.10638 0.09906,0.18174 0.122191,0.16743 0.02314,-0.0143 0.04206,0.17733 0.04206,0.42584 0,0.25363 -0.02642,0.43551 -0.06022,0.41461 -0.03313,-0.0205 -0.04338,0.0273 -0.02278,0.10598 0.02059,0.0788 0.01384,0.12858 -0.01503,0.11075 -0.02885,-0.0178 -0.08911,0.056 -0.133887,0.16414 -0.04478,0.1081 -0.209574,0.31468 -0.366207,0.45907 -0.156632,0.14438 -0.26621,0.28108 -0.243506,0.30378 0.02271,0.0227 -0.01496,0.0197 -0.08371,-0.007 -0.07123,-0.0273 -0.109014,-0.0216 -0.08784,0.0131 0.04939,0.0812 -0.560998,0.0936 -0.97757,0.02 z m 17.94702,-22.42003 c 0.669354,-0.16518 1.651719,-0.61754 2.216038,-1.02042 0.920842,-0.65742 1.808513,-1.78842 2.227971,-2.83869 0.346491,-0.8676 0.42777,-1.31943 0.428068,-2.37979 1.99e-4,-0.77058 -0.02802,-1.07042 -0.141809,-1.50558 -0.301436,-1.15275 -0.827028,-2.09532 -1.634451,-2.93108 -0.598115,-0.61913 -1.123799,-0.99544 -1.912321,-1.36897 -0.938697,-0.44466 -1.614351,-0.5902 -2.740028,-0.5902 -1.125669,0 -1.80133,0.14554 -2.740027,0.5902 -0.807187,0.38237 -1.321859,0.75415 -1.939953,1.40134 -0.802945,0.84075 -1.353284,1.84566 -1.635652,2.98668 -0.155848,0.62976 -0.155848,2.20544 0,2.83519 0.282368,1.14103 0.832707,2.14594 1.635652,2.98668 1.007148,1.05457 2.126413,1.65525 3.614909,1.94003 0.643515,0.12312 1.90039,0.0726 2.621603,-0.10539 z m -2.246942,-3.87985 c -0.696319,-0.22617 -1.359857,-0.90072 -1.568745,-1.5948 -0.0975,-0.32398 -0.130602,-1.06285 -0.05626,-1.25652 0.03061,-0.0797 0.138359,-0.10531 0.447924,-0.10642 0.866923,-0.003 1.523172,-0.57646 1.62839,-1.42267 l 0.0416,-0.33437 0.470025,0.004 c 0.372706,0.003 0.547036,0.0415 0.841929,0.18572 0.468124,0.22903 0.924544,0.68815 1.159304,1.16616 0.161085,0.32801 0.181552,0.4445 0.181552,1.03326 0,0.59349 -0.01977,0.70382 -0.187025,1.04445 -0.237669,0.48398 -0.672287,0.91938 -1.152068,1.15412 -0.304832,0.14914 -0.482643,0.18734 -0.944904,0.20298 -0.363598,0.0123 -0.675042,-0.015 -0.86167,-0.0757 z m 4.837801,-25.20538 c 0,-0.0104 -0.156771,-0.16728 -0.348377,-0.34839 l -0.348384,-0.32929 0.329299,0.34837 c 0.305994,0.32373 0.367462,0.37882 0.367462,0.32931 z M 18.46082,279.81172 c 0.0479,-0.0191 0.105137,-0.0168 0.127187,0.005 0.02205,0.022 -0.01714,0.0377 -0.08709,0.0349 -0.0773,-0.003 -0.09303,-0.0189 -0.0401,-0.0401 z m 30.989306,0 c 0.04786,-0.0191 0.105135,-0.0168 0.12719,0.005 0.02206,0.022 -0.0171,0.0377 -0.08709,0.0349 -0.0773,-0.003 -0.09303,-0.0189 -0.04008,-0.0401 z"
       style="fill:#a8aba6;stroke-width:0.06635828" />
    <path
       inkscape:connector-curvature="0"
       id="path836"
       d="m 17.721366,286.58615 c -1.631008,-0.29472 -3.048195,-1.43857 -3.688782,-2.97733 -0.274817,-0.66014 -0.429241,-1.58636 -0.37295,-2.23693 0.04112,-0.47523 0.03236,-0.5276 -0.131573,-0.78729 -0.22409,-0.35498 -0.334573,-0.67047 -0.394692,-1.12704 -0.0335,-0.25449 -0.133099,-0.50305 -0.331807,-0.82815 -1.172223,-1.91775 -1.901957,-3.91706 -2.269515,-6.21795 -0.170777,-1.06906 -0.170777,-3.94724 0,-5.0163 0.510031,-3.19277 1.750803,-5.90459 3.75583,-8.20872 0.246241,-0.28297 0.457863,-0.60713 0.541497,-0.82948 0.390631,-1.03847 1.079414,-1.92197 1.945005,-2.49483 l 0.391402,-0.25903 0.223498,-0.89583 c 1.642505,-6.58358 6.905495,-14.30239 14.976327,-21.96459 0.864984,-0.82118 1.602435,-1.50324 1.638779,-1.51568 0.18017,-0.0617 2.255232,1.77234 4.111947,3.63428 3.475669,3.48547 6.478726,7.29946 8.76415,11.1308 0.809637,1.35729 2.173311,4.09763 2.669337,5.3641 0.421701,1.07668 0.893481,2.54504 1.146959,3.56976 l 0.177201,0.71636 0.488735,0.36782 c 0.811172,0.61051 1.225552,1.14292 1.650674,2.12085 0.12838,0.29532 0.359705,0.6613 0.571969,0.90491 2.134255,2.44944 3.363128,5.0937 3.884789,8.35928 0.170779,1.06906 0.170779,3.94724 0,5.0163 -0.372012,2.32877 -1.0662,4.22026 -2.306357,6.28432 -0.218583,0.36378 -0.340926,0.65618 -0.388744,0.92902 -0.03841,0.21898 -0.161727,0.57464 -0.274122,0.79035 -0.195094,0.37446 -0.202316,0.41649 -0.159658,0.92901 0.172361,2.07078 -1.100247,4.13208 -3.052936,4.94499 -0.664547,0.27665 -1.639215,0.44028 -2.016861,0.33858 -0.606825,-0.1634 -1.134151,-0.89757 -1.135417,-1.58079 -0.0016,-0.8084 0.495048,-1.26018 1.649451,-1.50076 0.81189,-0.16919 1.316924,-0.58598 1.565563,-1.29198 0.423793,-1.20339 -0.524295,-2.49799 -1.822133,-2.4881 -0.501285,0.004 -0.816203,0.12177 -1.290639,0.48341 -0.54693,0.41691 -0.748124,0.49578 -1.264158,0.49554 -0.708593,-3.4e-4 -1.086125,-0.22955 -1.355238,-0.82283 -0.270197,-0.59568 -0.102076,-1.36337 0.401509,-1.83351 0.695838,-0.64964 1.613115,-1.09051 2.624373,-1.26137 0.565946,-0.0956 0.741489,-0.0992 1.334093,-0.0267 0.622451,0.0761 0.704059,0.0729 0.929109,-0.0348 0.135702,-0.065 0.455756,-0.16611 0.711236,-0.22464 l 0.464504,-0.10642 0.343263,-0.69434 c 1.330603,-2.69151 1.697088,-5.90245 1.009357,-8.84338 -0.289023,-1.23591 -1.176702,-3.44623 -1.421821,-3.54029 -0.125962,-0.0483 -1.158428,0.75805 -1.158428,0.90477 0,0.23498 -0.475192,2.00692 -0.765482,2.85443 -1.06288,3.10305 -2.651015,5.67434 -4.877329,7.89667 -0.857129,0.8556 -0.981632,1.00848 -1.117837,1.3727 -0.582694,1.55811 -2.535521,3.6589 -4.477164,4.81638 -0.474017,0.2826 -0.51189,0.33435 -0.642545,0.87836 -0.160359,0.66767 -0.622956,1.50485 -1.133731,2.05178 -1.065421,1.14084 -2.345205,1.69653 -3.907271,1.69653 -1.553958,0 -2.842582,-0.55648 -3.892808,-1.68105 -0.618629,-0.66242 -1.033311,-1.47644 -1.243815,-2.44162 -0.02809,-0.12882 -0.171296,-0.25821 -0.540296,-0.48821 -0.859929,-0.53596 -1.560908,-1.0906 -2.342182,-1.85319 -1.158426,-1.13073 -1.890226,-2.18513 -2.203189,-3.17441 -0.14318,-0.4526 -0.196225,-0.52605 -0.921983,-1.27653 -2.623809,-2.7132 -4.339043,-5.84683 -5.317699,-9.71511 -0.142233,-0.56219 -0.266453,-1.02848 -0.276045,-1.03621 -0.0096,-0.007 -0.151815,-0.0973 -0.316052,-0.19905 -0.164237,-0.10178 -0.402465,-0.27001 -0.529395,-0.37391 -0.126932,-0.10387 -0.280778,-0.18888 -0.341881,-0.18888 -0.242609,0 -1.126516,2.14119 -1.443533,3.49684 -0.452155,1.93353 -0.454836,4.07188 -0.0075,5.98463 0.204822,0.87581 0.636413,2.08913 1.017739,2.86117 l 0.344147,0.69677 0.430443,0.10481 c 0.236744,0.0577 0.543318,0.15853 0.681273,0.22418 0.230333,0.10959 0.309172,0.1124 0.96486,0.0344 0.623464,-0.0741 0.796365,-0.071 1.363165,0.0248 1.008688,0.17043 1.926586,0.61188 2.621806,1.26093 0.503594,0.47015 0.671703,1.23784 0.401508,1.83352 -0.269112,0.59329 -0.646646,0.8225 -1.355238,0.82283 -0.516034,2.7e-4 -0.717228,-0.0786 -1.264153,-0.49552 -0.474443,-0.36165 -0.789354,-0.4796 -1.29064,-0.48342 -1.297842,-0.009 -2.245928,1.2847 -1.822132,2.48808 0.248634,0.70601 0.753671,1.1228 1.56556,1.292 1.154402,0.24057 1.650939,0.69235 1.649446,1.50076 -0.0016,0.83593 -0.760677,1.66948 -1.492413,1.63868 -0.07299,-0.003 -0.366555,-0.0479 -0.652358,-0.0995 z m 18.134872,-22.38842 c 0.669354,-0.16518 1.651719,-0.61754 2.216038,-1.02042 0.920842,-0.65742 1.808513,-1.78842 2.227971,-2.83869 0.346491,-0.8676 0.42777,-1.31943 0.428068,-2.37979 1.99e-4,-0.77058 -0.02802,-1.07042 -0.141809,-1.50558 -0.301436,-1.15275 -0.827028,-2.09532 -1.634451,-2.93108 -0.598115,-0.61913 -1.123799,-0.99545 -1.912321,-1.36897 -0.938697,-0.44466 -1.614351,-0.5902 -2.740028,-0.5902 -1.125669,0 -1.80133,0.14554 -2.740027,0.5902 -0.807187,0.38237 -1.321859,0.75415 -1.939953,1.40134 -0.802945,0.84075 -1.353284,1.84566 -1.635652,2.98668 -0.155848,0.62976 -0.155848,2.20544 0,2.83519 0.282368,1.14103 0.832707,2.14594 1.635652,2.98668 1.007148,1.05457 2.126413,1.65525 3.614909,1.94003 0.643515,0.12312 1.90039,0.0726 2.621603,-0.10539 z m -2.246942,-3.87985 c -0.696319,-0.22617 -1.359857,-0.90072 -1.568745,-1.5948 -0.0975,-0.32398 -0.130602,-1.06285 -0.05626,-1.25652 0.03061,-0.0797 0.138359,-0.10531 0.447924,-0.10642 0.866923,-0.003 1.523172,-0.57646 1.62839,-1.42267 l 0.0416,-0.33437 0.470025,0.004 c 0.372706,0.003 0.547036,0.0415 0.841929,0.18572 0.468124,0.22903 0.924544,0.68815 1.159304,1.16616 0.161085,0.32801 0.181552,0.4445 0.181552,1.03326 0,0.59349 -0.01977,0.70382 -0.187025,1.04445 -0.237669,0.48398 -0.672287,0.91938 -1.152068,1.15412 -0.304832,0.14914 -0.482643,0.18734 -0.944904,0.20298 -0.363598,0.0123 -0.675042,-0.015 -0.86167,-0.0757 z"
       style="fill:#61ab68;stroke-width:0.06635828" />
    <path
       inkscape:connector-curvature="0"
       id="path834"
       d="m 17.721366,286.51978 c -1.56905,-0.28351 -2.903658,-1.31954 -3.557534,-2.76164 -0.327318,-0.72188 -0.424579,-1.19831 -0.430622,-2.10942 -0.0052,-0.77725 -0.01675,-0.84828 -0.184067,-1.12809 -0.187414,-0.31342 -0.384543,-0.96405 -0.384543,-1.26922 0,-0.0988 -0.02487,-0.18956 -0.05527,-0.20172 -0.08053,-0.0322 -0.47133,-0.66237 -0.858432,-1.38416 -0.812146,-1.51432 -1.416596,-3.36197 -1.718853,-5.25407 -0.170776,-1.06906 -0.170776,-3.94724 0,-5.0163 0.388962,-2.43489 1.207886,-4.59644 2.469396,-6.51799 0.433396,-0.66015 1.104448,-1.51802 1.513739,-1.93516 0.142657,-0.14539 0.307501,-0.4242 0.406831,-0.68809 0.350291,-0.93064 0.97482,-1.73097 1.755985,-2.25028 0.247894,-0.1648 0.47907,-0.33727 0.513723,-0.38326 0.03465,-0.046 0.116658,-0.32252 0.182233,-0.6145 0.376541,-1.67656 1.198086,-3.86279 2.228183,-5.92947 2.173659,-4.36099 5.361236,-8.66102 10.036319,-13.53893 1.175742,-1.22676 4.296377,-4.25132 4.388481,-4.25336 0.189682,-0.004 2.435303,1.9938 3.988834,3.54905 6.364849,6.37189 10.961248,13.63458 12.541345,19.81639 0.136488,0.53396 0.267059,0.99783 0.29016,1.03081 0.02305,0.033 0.236516,0.19727 0.474254,0.36509 0.741534,0.52342 1.285411,1.21406 1.656437,2.10342 0.103728,0.24862 0.306497,0.57036 0.465719,0.73895 2.081154,2.20364 3.497525,5.19624 4.026461,8.50733 0.170779,1.06906 0.170779,3.94724 0,5.0163 -0.298985,1.87164 -0.931705,3.80984 -1.71573,5.25576 -0.297032,0.54781 -0.855273,1.47401 -0.919903,1.52625 -0.02259,0.0183 -0.07626,0.21233 -0.119273,0.43133 -0.04306,0.21898 -0.160009,0.56238 -0.259961,0.76311 -0.168993,0.33938 -0.182063,0.42547 -0.186444,1.22763 -0.003,0.60346 -0.0397,0.99111 -0.121251,1.29015 -0.532074,1.95182 -2.001219,3.29309 -3.97171,3.626 -0.492919,0.0833 -0.6817,0.0897 -0.901512,0.0305 -0.839853,-0.22616 -1.345131,-1.40912 -0.921407,-2.15724 0.176078,-0.31086 0.610826,-0.59586 1.076437,-0.70565 0.839479,-0.19795 1.035192,-0.27355 1.347902,-0.52074 0.47943,-0.37897 0.709205,-0.87461 0.709205,-1.52982 0,-0.39075 -0.03412,-0.56696 -0.158702,-0.82008 -0.344438,-0.69967 -1.033963,-1.13221 -1.798865,-1.12841 -0.501103,0.002 -0.813912,0.11954 -1.290639,0.48293 -0.545044,0.41546 -0.748581,0.49555 -1.264158,0.49744 -0.644758,0.002 -0.992662,-0.1895 -1.244217,-0.68615 -0.234562,-0.4631 -0.242417,-0.90372 -0.02435,-1.36503 0.368698,-0.77991 1.605419,-1.51039 2.938405,-1.73559 0.552799,-0.0934 0.750107,-0.0983 1.308945,-0.0327 0.633888,0.0743 0.672875,0.0713 1.062612,-0.0836 0.222524,-0.0884 0.54399,-0.18125 0.714366,-0.20628 l 0.309779,-0.0455 0.365683,-0.74345 c 0.911116,-1.85232 1.368048,-3.8159 1.368048,-5.87894 0,-1.56417 -0.219622,-2.86005 -0.742252,-4.37966 -0.275984,-0.80242 -0.855983,-2.05882 -1.009098,-2.18589 -0.07038,-0.0584 -0.208034,0.014 -0.62801,0.33054 -0.298519,0.22495 -0.553173,0.46959 -0.572205,0.54971 -0.510615,2.14987 -0.922994,3.42933 -1.556661,4.82981 -1.04713,2.31426 -2.384475,4.23954 -4.189301,6.03107 -0.764093,0.75845 -0.919758,0.94767 -1.012817,1.2311 -0.460169,1.40157 -2.172852,3.3283 -4.063233,4.57105 -0.361301,0.23752 -0.717274,0.4738 -0.791057,0.52507 -0.07375,0.0513 -0.14103,0.17909 -0.149442,0.28405 -0.0555,0.69158 -0.60307,1.78392 -1.231797,2.45716 -1.05023,1.12457 -2.338854,1.68104 -3.892813,1.68104 -1.553959,0 -2.84259,-0.55647 -3.892814,-1.68104 -0.628515,-0.67301 -1.176334,-1.76559 -1.231752,-2.45664 -0.0131,-0.16339 -0.118653,-0.25789 -0.746672,-0.66848 -0.979689,-0.64053 -1.594749,-1.14703 -2.393117,-1.97073 -0.995473,-1.02707 -1.658947,-2.03971 -1.928658,-2.94367 -0.104376,-0.34979 -0.199862,-0.48276 -0.786311,-1.0949 -1.196519,-1.24895 -1.909739,-2.1438 -2.687614,-3.37207 -1.379768,-2.17867 -2.260679,-4.36642 -2.945831,-7.31598 -0.02752,-0.11846 -0.196572,-0.27501 -0.55563,-0.51454 -0.283844,-0.18936 -0.58946,-0.39641 -0.679147,-0.46015 -0.08968,-0.0637 -0.140182,-0.0786 -0.112211,-0.0329 0.02797,0.0457 0.02215,0.083 -0.01292,0.083 -0.100645,0 -0.711339,1.31062 -0.995261,2.13591 -0.518161,1.50621 -0.73804,2.80729 -0.73804,4.3672 0,2.06385 0.456891,4.02654 1.36902,5.88091 0.366003,0.74409 0.367138,0.74548 0.642278,0.79005 0.151598,0.0246 0.460636,0.11767 0.686755,0.20694 0.399238,0.1576 0.430941,0.15999 1.096609,0.0827 0.588103,-0.0685 0.777844,-0.0641 1.335588,0.0302 1.332167,0.22507 2.568987,0.95575 2.937591,1.73545 0.218086,0.46131 0.210231,0.90193 -0.02434,1.36504 -0.251556,0.49664 -0.599458,0.68849 -1.244216,0.68614 -0.515579,-0.002 -0.719111,-0.082 -1.264155,-0.49744 -0.476732,-0.3634 -0.789538,-0.48044 -1.290639,-0.48292 -0.7649,-0.004 -1.454433,0.42873 -1.798865,1.12841 -0.124604,0.25311 -0.158704,0.42932 -0.158704,0.82007 0,0.65522 0.22977,1.15085 0.709205,1.52983 0.31271,0.24718 0.508424,0.32278 1.347902,0.52073 0.465611,0.10979 0.900363,0.39478 1.076435,0.70566 0.416031,0.73453 -0.0775,1.92407 -0.892136,2.1503 -0.306921,0.0853 -0.382042,0.0827 -1.035733,-0.0354 z m 17.315043,-22.12482 c 0.986753,-0.12373 1.697584,-0.36243 2.591936,-0.87038 0.592908,-0.33674 1.559661,-1.22282 1.978599,-1.81348 0.911544,-1.2852 1.347917,-2.94097 1.167473,-4.42982 -0.192476,-1.5881 -0.825952,-2.86505 -1.971836,-3.97478 -0.843776,-0.81717 -1.741273,-1.31875 -2.910838,-1.62677 -0.564602,-0.14869 -0.800926,-0.17462 -1.592037,-0.17462 -0.791102,0 -1.027435,0.0259 -1.592029,0.17462 -1.169572,0.30802 -2.067061,0.8096 -2.910845,1.62677 -1.145886,1.10973 -1.779357,2.38668 -1.971833,3.97478 -0.180445,1.48885 0.25593,3.14462 1.167474,4.42982 0.418934,0.59066 1.385693,1.47674 1.978602,1.81348 1.34204,0.76222 2.666483,1.04578 4.065334,0.87038 z"
       style="fill:#888960;stroke-width:0.06635828" />
    <path
       inkscape:connector-curvature="0"
       id="path832"
       d="m 17.721366,286.51978 c -1.56905,-0.28351 -2.903658,-1.31954 -3.557534,-2.76164 -0.327318,-0.72188 -0.424579,-1.19831 -0.430622,-2.10942 -0.0052,-0.77841 -0.01656,-0.84796 -0.185061,-1.12973 -0.236411,-0.39532 -0.400411,-1.04869 -0.407668,-1.62414 -0.0067,-0.53438 0.177927,-0.9958 0.592247,-1.47984 0.447905,-0.52328 1.229996,-0.92643 1.830765,-0.94375 0.321857,-0.009 1.202761,0.20437 1.520835,0.36886 0.182515,0.0944 0.289549,0.0974 0.917249,0.0257 0.613172,-0.07 0.799548,-0.0662 1.35908,0.0284 1.330517,0.22479 2.56754,0.95588 2.93595,1.73518 0.218085,0.4613 0.210231,0.90193 -0.02434,1.36503 -0.251556,0.49664 -0.599459,0.6885 -1.244218,0.68615 -0.515578,-0.002 -0.719109,-0.0819 -1.264153,-0.49744 -0.476732,-0.3634 -0.789538,-0.48045 -1.29064,-0.48292 -0.764899,-0.004 -1.454432,0.42873 -1.798865,1.12841 -0.124603,0.25311 -0.158704,0.42932 -0.158704,0.82007 0,0.65521 0.229771,1.15085 0.709204,1.52982 0.312711,0.24718 0.508426,0.32279 1.347903,0.52074 0.465611,0.10978 0.900364,0.39478 1.076436,0.70565 0.416031,0.73454 -0.0775,1.92408 -0.892138,2.15031 -0.306919,0.0853 -0.38204,0.0827 -1.035731,-0.0355 z m 31.4517,0.0115 c -0.78911,-0.29022 -1.222957,-1.41508 -0.820111,-2.12634 0.176078,-0.31087 0.610826,-0.59587 1.076437,-0.70565 0.839479,-0.19795 1.035192,-0.27355 1.347902,-0.52074 0.47943,-0.37897 0.709205,-0.87461 0.709205,-1.52982 0,-0.39075 -0.03412,-0.56696 -0.158702,-0.82007 -0.344438,-0.69968 -1.033963,-1.13221 -1.798865,-1.12841 -0.501102,0.002 -0.813912,0.11952 -1.290639,0.48292 -0.545044,0.41546 -0.748581,0.49555 -1.264158,0.49744 -0.644758,0.002 -0.992662,-0.18951 -1.244217,-0.68615 -0.234562,-0.4631 -0.242417,-0.90373 -0.02435,-1.36504 0.368599,-0.77969 1.605419,-1.51038 2.937587,-1.73544 0.553876,-0.0935 0.749337,-0.0983 1.320482,-0.0319 0.623802,0.0725 0.69131,0.0686 0.97153,-0.0553 0.375799,-0.16623 1.141334,-0.34438 1.440884,-0.33529 0.491927,0.0148 1.177596,0.3215 1.622077,0.72532 0.419213,0.38086 0.822051,1.16312 0.845746,1.64234 0.01557,0.31442 -0.197445,1.16155 -0.389409,1.54877 -0.167971,0.33881 -0.181277,0.42682 -0.185651,1.22763 -0.0053,0.99945 -0.104313,1.45212 -0.492698,2.25619 -0.744535,1.54139 -2.195083,2.53082 -3.981771,2.716 -0.238516,0.0248 -0.453787,0.005 -0.6213,-0.0564 z m -16.658429,-3.65564 c -1.103554,-0.17985 -2.47943,-0.6431 -3.302865,-1.11203 -0.6043,-0.34416 -1.838256,-1.18611 -2.377369,-1.62214 -0.646871,-0.52318 -1.747858,-1.66134 -2.136687,-2.20881 -0.414493,-0.5836 -0.812092,-1.34256 -0.955991,-1.82484 -0.104365,-0.3498 -0.199861,-0.48278 -0.786311,-1.09492 -1.196518,-1.24894 -1.909739,-2.14381 -2.687612,-3.37207 -1.237361,-1.95381 -2.131111,-4.05938 -2.723914,-6.4172 -0.144856,-0.57615 -0.275793,-1.05997 -0.290971,-1.07514 -0.01517,-0.0152 -0.232055,-0.16421 -0.481948,-0.33118 -0.249893,-0.16699 -0.569198,-0.38111 -0.709566,-0.47585 -0.538297,-0.36331 -1.133869,-1.35914 -1.370175,-2.291 -0.171053,-0.67455 -0.186252,-1.89434 -0.02736,-2.1958 0.05772,-0.10949 0.176976,-0.38928 0.265033,-0.62174 0.345451,-0.91195 0.975527,-1.715 1.749095,-2.22927 0.247895,-0.1648 0.479069,-0.33727 0.513723,-0.38326 0.03465,-0.0461 0.116659,-0.32252 0.182234,-0.6145 0.376539,-1.67657 1.198084,-3.8628 2.22818,-5.92948 2.17366,-4.361 5.361236,-8.66103 10.03632,-13.53894 1.175744,-1.22675 4.29638,-4.25131 4.388484,-4.25336 0.189681,-0.004 2.435302,1.9938 3.988833,3.54905 6.364849,6.37189 10.961248,13.63458 12.541345,19.81639 0.136488,0.53396 0.26706,0.99783 0.290161,1.03081 0.02305,0.033 0.236516,0.19728 0.474253,0.3651 0.774727,0.54685 1.237293,1.14922 1.73099,2.25416 0.266503,0.59646 0.278855,0.65392 0.308185,1.4325 0.02763,0.73297 0.01358,0.87043 -0.145871,1.42671 -0.09704,0.33857 -0.276831,0.79528 -0.399547,1.01491 -0.245677,0.43967 -0.743612,1.09373 -0.832662,1.09373 -0.130571,0 -1.129241,0.8178 -1.160762,0.95053 -0.510615,2.14986 -0.922995,3.42933 -1.556662,4.82982 -1.047129,2.31424 -2.384474,4.23954 -4.189301,6.03105 -0.7641,0.75847 -0.919765,0.94769 -1.012816,1.2311 -0.460649,1.40303 -2.181876,3.33843 -4.063233,4.56882 -0.361309,0.23628 -0.751742,0.50717 -0.86764,0.60198 -0.489377,0.40034 -2.119134,1.04554 -3.288317,1.3018 -0.823256,0.18046 -2.50471,0.22746 -3.329256,0.093 z m 2.521772,-18.48067 c 0.986753,-0.12374 1.697584,-0.36243 2.591936,-0.87038 0.592908,-0.33675 1.559661,-1.22283 1.978599,-1.81349 0.911544,-1.28519 1.347917,-2.94096 1.167473,-4.42981 -0.192476,-1.58811 -0.825952,-2.86505 -1.971836,-3.97479 -0.843776,-0.81717 -1.741273,-1.31874 -2.910838,-1.62676 -0.564602,-0.14869 -0.800926,-0.17462 -1.592037,-0.17462 -0.791102,0 -1.027435,0.0259 -1.592029,0.17462 -1.169572,0.30802 -2.067061,0.80959 -2.910845,1.62676 -1.145886,1.10974 -1.779357,2.38668 -1.971833,3.97479 -0.180445,1.48885 0.25593,3.14462 1.167474,4.42981 0.418934,0.59066 1.385693,1.47674 1.978602,1.81349 1.34204,0.76222 2.666483,1.04577 4.065334,0.87038 z"
       style="fill:#3ea03e;stroke-width:0.06635828" />
    <path
       inkscape:connector-curvature="0"
       id="path830"
       d="m 33.005723,282.86342 c -0.549471,-0.0588 -1.400721,-0.24334 -1.988339,-0.43095 -0.743961,-0.23752 -2.025789,-0.79834 -2.221316,-0.97186 -0.07525,-0.0668 -0.345841,-0.25046 -0.601319,-0.40819 -1.574343,-0.97198 -3.13492,-2.5178 -3.937601,-3.90037 -0.289969,-0.49945 -0.566132,-1.20842 -0.53125,-1.36385 0.01637,-0.0729 0.182879,0.0297 0.586892,0.36173 0.876652,0.72045 2.062353,1.4789 3.152017,2.01625 4.167983,2.05534 8.925092,2.06902 13.084636,0.0376 1.266944,-0.61873 2.142019,-1.17943 3.466355,-2.22104 0.155917,-0.12263 0.04023,0.29861 -0.229722,0.83654 -0.523928,1.04396 -1.62387,2.34635 -2.748737,3.25464 -0.605268,0.48873 -1.860464,1.3305 -2.416607,1.62063 -1.745945,0.91085 -3.878613,1.3548 -5.615009,1.16885 z m -19.409819,-2.37003 c -0.264622,-0.45154 -0.375236,-0.87054 -0.387333,-1.46718 -0.0097,-0.47867 0.01104,-0.57657 0.206048,-0.97273 0.40545,-0.82364 1.223576,-1.40393 2.105701,-1.49355 0.387861,-0.0394 1.103515,0.11225 1.511065,0.32021 0.278908,0.14232 0.279602,0.14359 0.114712,0.20883 -0.577757,0.22857 -1.1508,0.53506 -1.513577,0.80952 -0.735058,0.55613 -1.373313,1.48405 -1.643821,2.38989 -0.0654,0.21898 -0.140193,0.42351 -0.166219,0.45452 -0.02602,0.031 -0.127985,-0.0813 -0.226576,-0.24951 z m 40.4494,-0.11484 c -0.126831,-0.49488 -0.545769,-1.28951 -0.926384,-1.75714 -0.522653,-0.64216 -1.327374,-1.19547 -2.163287,-1.48743 l -0.331789,-0.1159 0.364965,-0.16926 c 0.440634,-0.20433 1.175024,-0.34037 1.530554,-0.28352 1.063894,0.17013 1.971453,1.01275 2.194052,2.03709 0.0948,0.43621 0.09642,0.38459 -0.03077,0.97434 -0.09599,0.4452 -0.405311,1.14298 -0.506675,1.14298 -0.02382,0 -0.08262,-0.15352 -0.130701,-0.34116 z m -20.53715,-7.52704 c -0.09023,-0.0902 -0.104281,-0.37588 -0.104281,-2.11873 0,-1.74283 0.01405,-2.02851 0.104281,-2.11872 0.07489,-0.0749 0.234943,-0.1043 0.568404,-0.1043 0.781307,0 0.720839,-0.18647 0.720839,2.223 0,2.40948 0.06046,2.22301 -0.720839,2.22301 -0.333461,0 -0.493492,-0.0294 -0.568404,-0.1043 z m -1.663705,-0.30579 c -0.145985,-0.0368 -0.377409,-0.0951 -0.514271,-0.12961 l -0.248845,-0.0627 v -1.88156 c 0,-1.65451 0.01268,-1.88641 0.104967,-1.92183 0.153664,-0.0589 1.042123,-0.0472 1.140258,0.015 0.06527,0.0415 0.08004,0.49467 0.06634,2.0395 -0.01984,2.24126 0.0242,2.08549 -0.548464,1.9411 z m 3.988604,-0.0268 c -0.02213,-0.0577 -0.04031,-0.95251 -0.04031,-1.98841 0,-2.17832 -0.05619,-2.02084 0.720839,-2.02084 0.706717,0 0.672684,-0.0986 0.672684,1.94962 0,1.29403 -0.0213,1.76736 -0.08294,1.84345 -0.04566,0.0563 -0.315222,0.1516 -0.599114,0.21176 -0.630782,0.13368 -0.621605,0.13361 -0.671181,0.004 z m -6.442474,-1.29053 c -0.254719,-0.1415 -0.501074,-0.30915 -0.547456,-0.37258 -0.05946,-0.0813 -0.08433,-0.41345 -0.08433,-1.12646 0,-1.21164 0.0041,-1.21968 0.629717,-1.21968 0.681594,0 0.63109,-0.1227 0.63109,1.53334 0,1.1207 -0.01897,1.45162 -0.08294,1.44771 -0.04563,-0.003 -0.291355,-0.12086 -0.546074,-0.26233 z m 8.72473,-1.18538 c 0,-1.65604 -0.05054,-1.53334 0.631086,-1.53334 0.629804,0 0.62972,-2e-4 0.62972,1.28604 0,0.76135 -0.02435,1.10852 -0.08294,1.18322 -0.08148,0.10388 -0.965255,0.51686 -1.106033,0.51686 -0.04931,0 -0.07183,-0.45478 -0.07183,-1.45278 z m -4.569619,-4.52877 c -3.055952,-0.31962 -5.686895,-2.5557 -6.477721,-5.50551 -0.707224,-2.63799 0.02313,-5.37066 1.950528,-7.29805 1.927402,-1.92741 4.660063,-2.65775 7.298055,-1.95053 2.522268,0.6762 4.605055,2.75899 5.281251,5.28125 0.703823,2.62529 -0.03252,5.38417 -1.948483,7.30009 -0.950927,0.95093 -2.183961,1.65862 -3.450164,1.98019 -0.459039,0.11658 -1.720867,0.28112 -1.989423,0.25942 -0.06001,-0.004 -0.358828,-0.035 -0.664043,-0.0669 z m 2.379795,-1.24743 c 2.277454,-0.59388 4.095717,-2.39646 4.72307,-4.68232 0.122686,-0.44703 0.145695,-0.7038 0.145695,-1.62579 0,-1.30535 -0.104459,-1.78391 -0.615582,-2.82022 -0.697333,-1.41385 -1.726914,-2.42333 -3.150385,-3.08889 -0.941896,-0.4404 -1.50894,-0.55592 -2.728577,-0.55592 -1.219627,0 -1.78668,0.11552 -2.728569,0.55592 -1.423476,0.66556 -2.453056,1.67504 -3.150388,3.08889 -0.511123,1.03631 -0.61558,1.51487 -0.61558,2.82022 0,1.26124 0.102432,1.76138 0.554367,2.70677 0.35506,0.74274 0.677965,1.21673 1.213787,1.78175 0.920041,0.97015 2.191542,1.66168 3.531932,1.92087 0.695883,0.13457 2.110614,0.0837 2.82023,-0.10126 z m -19.210717,-0.54074 c -0.799357,-0.53124 -1.237506,-1.0109 -1.586162,-1.73645 -0.400355,-0.83314 -0.53118,-1.46772 -0.488449,-2.36924 0.01842,-0.38883 0.06623,-0.765 0.106232,-0.83593 0.03999,-0.071 0.165364,-0.35865 0.278588,-0.63936 0.236286,-0.58579 0.716674,-1.30211 1.113758,-1.66078 0.357408,-0.32282 0.998224,-0.74668 1.050236,-0.69467 0.02248,0.0225 -0.0065,0.34801 -0.06441,0.72341 -0.330564,2.14281 -0.310048,4.43766 0.05991,6.70155 0.152141,0.931 0.155722,0.9271 -0.469692,0.51147 z m 34.163319,-0.11032 c 0.02229,-0.17336 0.08582,-0.6586 0.141236,-1.07833 0.262074,-1.985 0.164885,-5.07314 -0.20618,-6.5516 -0.05213,-0.20763 0.05878,-0.1917 0.426549,0.0613 0.777743,0.5351 1.266318,1.15871 1.72154,2.19734 0.27348,0.62397 0.299245,0.73097 0.332216,1.37963 0.05763,1.13385 -0.266586,2.23327 -0.909803,3.0852 -0.236005,0.31258 -1.342528,1.22165 -1.487001,1.22165 -0.03245,0 -0.04084,-0.14185 -0.01855,-0.3152 z"
       style="fill:#1e802a;stroke-width:0.06635828" />
    <path
       inkscape:connector-curvature="0"
       id="path828"
       d="m 33.536591,270.73278 v -2.09028 h 0.564044 0.564045 v 2.09028 2.09029 h -0.564045 -0.564044 z m 0.962194,0 v -1.92438 h -0.39815 -0.398151 l -0.01763,1.85713 c -0.0097,1.02143 -0.0023,1.89636 0.0158,1.94432 0.02359,0.0614 0.146329,0.0813 0.415816,0.0673 l 0.382363,-0.02 z m -2.654336,1.71359 c -0.218981,-0.0488 -0.465337,-0.10398 -0.547455,-0.12269 l -0.149306,-0.0341 v -1.82358 -1.82359 h 0.597229 0.597222 v 1.92047 c 0,1.05627 -0.02236,1.93208 -0.04977,1.94627 -0.02741,0.0142 -0.228935,-0.0141 -0.447923,-0.0629 z m 0.298619,-1.87947 v -1.79168 h -0.399273 -0.399272 l 0.01771,1.70519 0.01771,1.7052 0.331795,0.0786 c 0.182483,0.0433 0.354186,0.0821 0.381561,0.0865 0.02733,0.004 0.04977,-0.79837 0.04977,-1.78378 z m 3.819373,1.93921 c -0.0203,-0.0203 -0.03695,-0.89796 -0.03695,-1.95028 v -1.91333 h 0.564044 0.564045 v 1.82359 1.82359 l -0.182482,0.0413 c -0.100363,0.0227 -0.33756,0.0797 -0.527097,0.12669 -0.189529,0.047 -0.361232,0.0688 -0.381554,0.0485 z m 0.710709,-0.29014 0.249975,-0.0622 -0.01771,-1.67268 -0.01771,-1.67268 h -0.39815 -0.398151 l -0.01779,1.69099 c -0.0098,0.93005 -0.0039,1.72652 0.01252,1.76993 0.02993,0.0779 0.07681,0.0737 0.586992,-0.0534 z m -7.317133,-1.10933 -0.431328,-0.24292 -0.01819,-1.11061 -0.0182,-1.11061 h 0.532472 0.53247 v 1.36034 c 0,1.04768 -0.01907,1.35879 -0.08294,1.35354 -0.04563,-0.004 -0.277045,-0.11612 -0.514277,-0.24974 z m 0.449486,-1.15357 -0.01815,-1.14467 h -0.364969 -0.364972 l -0.01841,0.94591 -0.01841,0.94591 0.313428,0.19877 c 0.172385,0.10932 0.353078,0.19877 0.401539,0.19877 0.07054,0 0.08449,-0.22828 0.06995,-1.14469 z m 8.376161,0.057 v -1.36753 h 0.530867 0.530868 v 1.1564 1.1564 l -0.376608,0.17242 c -0.207133,0.0949 -0.446024,0.18984 -0.530867,0.21113 l -0.15426,0.0387 z m 0.732106,0.92071 0.200339,-0.10356 -0.01832,-1.00938 -0.01832,-1.00937 h -0.364973 -0.364973 l -0.01832,1.09237 c -0.01003,0.60079 -0.0039,1.1305 0.0142,1.17712 0.03489,0.0909 0.184582,0.0523 0.57029,-0.14714 z m -5.780681,-5.53643 c -1.018557,-0.186 -2.166456,-0.6472 -2.988908,-1.20084 -0.583187,-0.39258 -1.516838,-1.31665 -1.921021,-1.90132 -0.452997,-0.65529 -0.881639,-1.57944 -1.103708,-2.3796 -0.168362,-0.60663 -0.1832,-0.75591 -0.184307,-1.8542 -0.0013,-1.27117 0.06571,-1.71438 0.388877,-2.57288 0.399624,-1.06161 0.947821,-1.91598 1.742924,-2.71636 0.921553,-0.92767 2.071443,-1.59406 3.378565,-1.95793 0.611566,-0.17024 0.749397,-0.18366 1.887373,-0.18366 1.139532,0 1.275249,0.0133 1.891212,0.18466 0.773934,0.21538 1.810934,0.69931 2.417531,1.12819 0.580541,0.41047 1.398286,1.2353 1.798223,1.81383 0.457397,0.66166 0.890962,1.59302 1.107797,2.37976 0.169116,0.6136 0.182896,0.75606 0.182896,1.89121 0,1.13515 -0.01382,1.27762 -0.182896,1.89121 -0.365415,1.3258 -1.04384,2.47565 -2.022181,3.42735 -0.68428,0.66565 -1.203887,1.0289 -2.034747,1.42249 -1.030534,0.48816 -1.682668,0.63376 -2.958757,0.66058 -0.602199,0.0126 -1.23169,-0.002 -1.398873,-0.0324 z m 2.439432,-1.0365 c 1.253873,-0.25901 2.333052,-0.82494 3.247932,-1.70326 1.445227,-1.38747 2.082681,-2.986 1.997652,-5.00944 -0.07382,-1.7568 -0.704761,-3.1408 -1.997652,-4.38203 -1.251188,-1.20119 -2.767412,-1.80738 -4.520747,-1.80738 -1.753327,0 -3.269551,0.60619 -4.520741,1.80738 -1.363203,1.30872 -2.016885,2.83958 -2.014674,4.71816 0.0021,1.823 0.673773,3.386 2.003571,4.66266 0.909374,0.87303 1.988056,1.44654 3.216425,1.71007 0.617292,0.13243 1.956033,0.13442 2.588234,0.004 z"
       style="fill:#226e28;stroke-width:0.06635828" />
  </g>
</svg>
