<?xml version="1.0" encoding="UTF-8" standalone="no"?>
<!-- Created with Inkscape (http://www.inkscape.org/) -->

<svg
   xmlns:dc="http://purl.org/dc/elements/1.1/"
   xmlns:cc="http://creativecommons.org/ns#"
   xmlns:rdf="http://www.w3.org/1999/02/22-rdf-syntax-ns#"
   xmlns:svg="http://www.w3.org/2000/svg"
   xmlns="http://www.w3.org/2000/svg"
   xmlns:xlink="http://www.w3.org/1999/xlink"
   xmlns:sodipodi="http://sodipodi.sourceforge.net/DTD/sodipodi-0.dtd"
   xmlns:inkscape="http://www.inkscape.org/namespaces/inkscape"
   width="1024"
   height="1024"
   id="svg2"
   version="1.1"
   inkscape:version="0.92.4 5da689c313, 2019-01-14"
   sodipodi:docname="skype.svg">
  <defs
     id="defs4">
    <linearGradient
       id="linearGradient1046">
      <stop
         id="stop1042"
         offset="0"
         style="stop-color:#ffffff;stop-opacity:1" />
      <stop
         id="stop1044"
         offset="1"
         style="stop-color:#d7d7d7;stop-opacity:1" />
    </linearGradient>
    <linearGradient
       inkscape:collect="always"
       id="linearGradient948">
      <stop
         style="stop-color:#ffffff;stop-opacity:1;"
         offset="0"
         id="stop944" />
      <stop
         style="stop-color:#d7d7d7;stop-opacity:1"
         offset="1"
         id="stop946" />
    </linearGradient>
    <linearGradient
       id="linearGradient4829">
      <stop
         style="stop-color:#f4fbfc;stop-opacity:1;"
         offset="0"
         id="stop4831" />
      <stop
         style="stop-color:#d6d6d6;stop-opacity:1;"
         offset="1"
         id="stop4833" />
    </linearGradient>
    <clipPath
       clipPathUnits="userSpaceOnUse"
       id="clipPath4282">
      <rect
         style="color:#000000;display:inline;overflow:visible;visibility:visible;fill:#4d4d4d;fill-opacity:1;fill-rule:nonzero;stroke:none;stroke-width:9.13434315;marker:none;enable-background:accumulate"
         id="rect4284"
         width="246.875"
         height="234.375"
         x="462.5"
         y="1646.1122"
         ry="17"
         rx="17" />
    </clipPath>
    <linearGradient
       inkscape:collect="always"
       xlink:href="#linearGradient1046"
       id="linearGradient4835"
       x1="102.29776"
       y1="-0.42686829"
       x2="102.29776"
       y2="199.16539"
       gradientUnits="userSpaceOnUse"
       gradientTransform="matrix(5.1,0,0,5.1,2,30.362175)" />
    <linearGradient
       inkscape:collect="always"
       xlink:href="#linearGradient5423"
       id="linearGradient5429"
       x1="408.66196"
       y1="44.604382"
       x2="408.66196"
       y2="562.04968"
       gradientUnits="userSpaceOnUse" />
    <linearGradient
       id="linearGradient5423">
      <stop
         style="stop-color:#00b6ff;stop-opacity:1;"
         offset="0"
         id="stop5425" />
      <stop
         style="stop-color:#0194cf;stop-opacity:1;"
         offset="1"
         id="stop5427" />
    </linearGradient>
    <linearGradient
       inkscape:collect="always"
       xlink:href="#h"
       id="linearGradient6197"
       gradientUnits="userSpaceOnUse"
       x1="99.036476"
       y1="-0.50471628"
       x2="99.036476"
       y2="199.83986"
       gradientTransform="matrix(4.6866211,0,0,4.6866211,42.839828,72.198085)" />
    <linearGradient
       inkscape:collect="always"
       xlink:href="#linearGradient4829"
       id="linearGradient6211"
       x1="100.89178"
       y1="0"
       x2="100.89178"
       y2="200"
       gradientUnits="userSpaceOnUse" />
    <clipPath
       clipPathUnits="userSpaceOnUse"
       id="clipPath6245">
      <rect
         style="color:#000000;display:inline;overflow:visible;visibility:visible;opacity:0.85;fill:#ffffff;fill-opacity:1;fill-rule:nonzero;stroke:none;stroke-width:1.5;marker:none;enable-background:accumulate"
         id="rect6247"
         width="300"
         height="259.375"
         x="-901.5625"
         y="792.98718"
         rx="16.46875"
         ry="16.46875" />
    </clipPath>
    <linearGradient
       inkscape:collect="always"
       xlink:href="#linearGradient948"
       id="linearGradient950"
       x1="13.784445"
       y1="0.40288898"
       x2="13.784445"
       y2="23.336222"
       gradientUnits="userSpaceOnUse"
       gradientTransform="matrix(5.12,0,0,5.12,29.819645,-127.64036)" />
    <filter
       inkscape:collect="always"
       style="color-interpolation-filters:sRGB"
       id="filter1038"
       x="-0.034693355"
       width="1.0693867"
       y="-0.03740892"
       height="1.0748178">
      <feGaussianBlur
         inkscape:collect="always"
         stdDeviation="1.7822209"
         id="feGaussianBlur1040" />
    </filter>
    <filter
       id="p"
       width="1.3280001"
       height="1.229"
       x="-0.16399999"
       y="-0.102"
       filterUnits="objectBoundingBox">
      <feOffset
         dy="1"
         in="SourceAlpha"
         result="shadowOffsetOuter1"
         id="feOffset102" />
      <feGaussianBlur
         in="shadowOffsetOuter1"
         result="shadowBlurOuter1"
         stdDeviation="3"
         id="feGaussianBlur104" />
      <feColorMatrix
         in="shadowBlurOuter1"
         result="shadowMatrixOuter1"
         values="0 0 0 0 0   0 0 0 0 0   0 0 0 0 0  0 0 0 0.1 0"
         id="feColorMatrix106" />
      <feOffset
         dy="1"
         in="SourceAlpha"
         result="shadowOffsetOuter2"
         id="feOffset108" />
      <feGaussianBlur
         in="shadowOffsetOuter2"
         result="shadowBlurOuter2"
         stdDeviation=".5"
         id="feGaussianBlur110" />
      <feColorMatrix
         in="shadowBlurOuter2"
         result="shadowMatrixOuter2"
         values="0 0 0 0 0   0 0 0 0 0   0 0 0 0 0  0 0 0 0.1 0"
         id="feColorMatrix112" />
      <feMerge
         id="feMerge118">
        <feMergeNode
           in="shadowMatrixOuter1"
           id="feMergeNode114" />
        <feMergeNode
           in="shadowMatrixOuter2"
           id="feMergeNode116" />
      </feMerge>
    </filter>
    <linearGradient
       gradientUnits="userSpaceOnUse"
       id="r"
       x1="0.29468"
       x2="0.97962999"
       y1="0.5"
       y2="0.5"
       gradientTransform="translate(0,-28.36218)">
      <stop
         offset="0%"
         stop-color="#F0F0F0"
         id="stop96" />
      <stop
         offset="100%"
         stop-color="#FFF"
         id="stop98" />
    </linearGradient>
    <filter
       id="o"
       width="1.007"
       height="1.007"
       x="-0.003"
       y="-0.003"
       filterUnits="objectBoundingBox">
      <feOffset
         dx="-1"
         dy="-1"
         in="SourceAlpha"
         result="shadowOffsetInner1"
         id="feOffset89" />
      <feComposite
         k4="0"
         k1="0"
         in="shadowOffsetInner1"
         in2="SourceAlpha"
         k2="-1"
         k3="1"
         operator="arithmetic"
         result="shadowInnerInner1"
         id="feComposite91" />
      <feColorMatrix
         in="shadowInnerInner1"
         values="0 0 0 0 1   0 0 0 0 1   0 0 0 0 1  0 0 0 0.05 0"
         id="feColorMatrix93" />
    </filter>
    <linearGradient
       gradientUnits="userSpaceOnUse"
       id="h"
       x1="1.01173"
       x2="0.1225"
       y1="1"
       y2="0.063490003"
       gradientTransform="translate(0,-28.36218)">
      <stop
         offset="0"
         stop-color="#006AF3"
         id="stop42"
         style="stop-color:#0596ff;stop-opacity:1;" />
      <stop
         offset="1"
         stop-color="#025FAD"
         id="stop44"
         style="stop-color:#0255c9;stop-opacity:1;" />
    </linearGradient>
    <pattern
       id="j"
       width="512"
       height="512"
       x="-449"
       y="-448"
       patternUnits="userSpaceOnUse">
      <use
         xlink:href="#b"
         id="use48" />
    </pattern>
    <filter
       id="k"
       width="1.33"
       height="1.33"
       x="-0.16500001"
       y="-0.16500001"
       filterUnits="objectBoundingBox">
      <feOffset
         dx="-1"
         dy="-1"
         in="SourceAlpha"
         result="shadowOffsetInner1"
         id="feOffset51" />
      <feComposite
         k4="0"
         k1="0"
         in="shadowOffsetInner1"
         in2="SourceAlpha"
         k2="-1"
         k3="1"
         operator="arithmetic"
         result="shadowInnerInner1"
         id="feComposite53" />
      <feColorMatrix
         in="shadowInnerInner1"
         result="shadowMatrixInner1"
         values="0 0 0 0 1   0 0 0 0 1   0 0 0 0 1  0 0 0 0.05 0"
         id="feColorMatrix55" />
      <feGaussianBlur
         in="SourceAlpha"
         result="shadowBlurInner2"
         stdDeviation="10"
         id="feGaussianBlur57" />
      <feOffset
         dy="11"
         in="shadowBlurInner2"
         result="shadowOffsetInner2"
         id="feOffset59" />
      <feComposite
         k4="0"
         k1="0"
         in="shadowOffsetInner2"
         in2="SourceAlpha"
         k2="-1"
         k3="1"
         operator="arithmetic"
         result="shadowInnerInner2"
         id="feComposite61" />
      <feColorMatrix
         in="shadowInnerInner2"
         result="shadowMatrixInner2"
         values="0 0 0 0 0   0 0 0 0 0   0 0 0 0 0  0 0 0 0.14 0"
         id="feColorMatrix63" />
      <feOffset
         dx="1"
         dy="1"
         in="SourceAlpha"
         result="shadowOffsetInner3"
         id="feOffset65" />
      <feComposite
         k4="0"
         k1="0"
         in="shadowOffsetInner3"
         in2="SourceAlpha"
         k2="-1"
         k3="1"
         operator="arithmetic"
         result="shadowInnerInner3"
         id="feComposite67" />
      <feColorMatrix
         in="shadowInnerInner3"
         result="shadowMatrixInner3"
         values="0 0 0 0 0   0 0 0 0 0   0 0 0 0 0  0 0 0 0.1 0"
         id="feColorMatrix69" />
      <feMerge
         id="feMerge77">
        <feMergeNode
           in="shadowMatrixInner1"
           id="feMergeNode71" />
        <feMergeNode
           in="shadowMatrixInner2"
           id="feMergeNode73" />
        <feMergeNode
           in="shadowMatrixInner3"
           id="feMergeNode75" />
      </feMerge>
    </filter>
    <filter
       id="g"
       width="1.33"
       height="1.33"
       x="-0.16500001"
       y="-0.16500001"
       filterUnits="objectBoundingBox">
      <feGaussianBlur
         in="SourceAlpha"
         result="shadowBlurInner1"
         stdDeviation="7"
         id="feGaussianBlur11" />
      <feOffset
         dx="6"
         dy="7"
         in="shadowBlurInner1"
         result="shadowOffsetInner1"
         id="feOffset13" />
      <feComposite
         k4="0"
         k1="0"
         in="shadowOffsetInner1"
         in2="SourceAlpha"
         k2="-1"
         k3="1"
         operator="arithmetic"
         result="shadowInnerInner1"
         id="feComposite15" />
      <feColorMatrix
         in="shadowInnerInner1"
         result="shadowMatrixInner1"
         values="0 0 0 0 1   0 0 0 0 1   0 0 0 0 1  0 0 0 0.15 0"
         id="feColorMatrix17" />
      <feGaussianBlur
         in="SourceAlpha"
         result="shadowBlurInner2"
         stdDeviation="10"
         id="feGaussianBlur19" />
      <feOffset
         dy="11"
         in="shadowBlurInner2"
         result="shadowOffsetInner2"
         id="feOffset21" />
      <feComposite
         k4="0"
         k1="0"
         in="shadowOffsetInner2"
         in2="SourceAlpha"
         k2="-1"
         k3="1"
         operator="arithmetic"
         result="shadowInnerInner2"
         id="feComposite23" />
      <feColorMatrix
         in="shadowInnerInner2"
         result="shadowMatrixInner2"
         values="0 0 0 0 0   0 0 0 0 0   0 0 0 0 0  0 0 0 0.14 0"
         id="feColorMatrix25" />
      <feOffset
         dx="1"
         dy="1"
         in="SourceAlpha"
         result="shadowOffsetInner3"
         id="feOffset27" />
      <feComposite
         k4="0"
         k1="0"
         in="shadowOffsetInner3"
         in2="SourceAlpha"
         k2="-1"
         k3="1"
         operator="arithmetic"
         result="shadowInnerInner3"
         id="feComposite29" />
      <feColorMatrix
         in="shadowInnerInner3"
         result="shadowMatrixInner3"
         values="0 0 0 0 0   0 0 0 0 0   0 0 0 0 0  0 0 0 0.1 0"
         id="feColorMatrix31" />
      <feMerge
         id="feMerge39">
        <feMergeNode
           in="shadowMatrixInner1"
           id="feMergeNode33" />
        <feMergeNode
           in="shadowMatrixInner2"
           id="feMergeNode35" />
        <feMergeNode
           in="shadowMatrixInner3"
           id="feMergeNode37" />
      </feMerge>
    </filter>
    <pattern
       id="f"
       width="512"
       height="512"
       x="-512"
       y="-512"
       patternUnits="userSpaceOnUse">
      <use
         xlink:href="#a"
         id="use8" />
    </pattern>
    <linearGradient
       gradientUnits="userSpaceOnUse"
       id="d"
       x1="0.53605002"
       x2="0.29268"
       y1="0.74607003"
       y2="0.02863"
       gradientTransform="matrix(6.293207,0,0,6.293207,-38.008726,-65.320939)">
      <stop
         offset="0%"
         stop-color="#0359DE"
         id="stop2" />
      <stop
         offset="100%"
         stop-color="#0045A7"
         id="stop4" />
    </linearGradient>
  </defs>
  <sodipodi:namedview
     id="base"
     pagecolor="#ffffff"
     bordercolor="#666666"
     borderopacity="1.0"
     inkscape:pageopacity="0.0"
     inkscape:pageshadow="2"
     inkscape:zoom="0.546875"
     inkscape:cx="512.29452"
     inkscape:cy="496.06731"
     inkscape:document-units="px"
     inkscape:current-layer="layer1"
     showgrid="true"
     inkscape:window-width="1440"
     inkscape:window-height="779"
     inkscape:window-x="0"
     inkscape:window-y="25"
     inkscape:window-maximized="1"
     inkscape:snap-from-guide="true"
     showguides="true"
     inkscape:guide-bbox="true"
     inkscape:pagecheckerboard="true"
     inkscape:snap-global="false">
    <sodipodi:guide
       position="0,0"
       orientation="0,200"
       id="guide3764"
       inkscape:locked="false" />
    <sodipodi:guide
       position="200,0"
       orientation="-200,0"
       id="guide3766"
       inkscape:locked="false" />
    <sodipodi:guide
       position="200,200"
       orientation="0,-200"
       id="guide3768"
       inkscape:locked="false" />
    <sodipodi:guide
       position="0,200"
       orientation="200,0"
       id="guide3770"
       inkscape:locked="false" />
    <inkscape:grid
       type="xygrid"
       id="grid942" />
  </sodipodi:namedview>
  <metadata
     id="metadata7">
    <rdf:RDF>
      <cc:Work
         rdf:about="">
        <dc:format>image/svg+xml</dc:format>
        <dc:type
           rdf:resource="http://purl.org/dc/dcmitype/StillImage" />
        <dc:title />
      </cc:Work>
    </rdf:RDF>
  </metadata>
  <g
     inkscape:label="Layer 1"
     inkscape:groupmode="layer"
     id="layer1"
     transform="translate(0,-28.36218)">
    <circle
       style="color:#000000;display:inline;overflow:visible;visibility:visible;fill:url(#linearGradient4835);fill-opacity:1;fill-rule:nonzero;stroke:none;stroke-width:46.58515167;marker:none;enable-background:accumulate"
       id="path4188"
       cx="512"
       cy="540.36218"
       r="510" />
    <circle
       style="color:#000000;display:inline;overflow:visible;visibility:visible;fill:url(#linearGradient6197);fill-opacity:1;fill-rule:nonzero;stroke:none;stroke-width:42.80920792;marker:none;enable-background:accumulate"
       id="path4188-6"
       cx="511.50195"
       cy="540.86023"
       r="468.66211" />
    <g
       transform="matrix(5.2121184,0,0,5.2121184,30.023495,907.49825)"
       id="g1016"
       style="opacity:0.2;fill:#000000;fill-opacity:1;filter:url(#filter1038)">
      <g
         id="g984"
         style="fill:#000000;fill-opacity:1">
        <path
           style="fill:#000000;fill-opacity:1;stroke-width:5.11999989"
           inkscape:connector-curvature="0"
           d="m 147.72813,-58.551076 c 1.7408,2.46272 3.06688,5.13536 3.9936,8.064 0.9216,2.9184 1.38752,5.9392 1.38752,9.06752 0,4.48 -0.90624,8.68864 -2.69824,12.63104 -1.79712,3.93216 -4.27008,7.3984 -7.424,10.40896 -3.15392,2.97984 -6.82496,5.31968 -11.04384,7.01952 -4.21888,1.6998401 -8.65792,2.5344001 -13.37856,2.5344001 -6.72256,0 -12.75392,-1.5872001 -18.10432,-4.7564801 -1.484805,0.2048 -2.979845,0.35328 -4.490245,0.46592 -1.51552,0.1024 -3.01568,0.14336 -4.51584,0.14336 -7.85408,0 -15.22688,-1.408 -22.12352,-4.21376 -6.88128,-2.82112 -12.90752,-6.65088 -18.0992,-11.53024 -5.17632,-4.85888 -9.25696,-10.58816 -12.19584,-17.14688 -2.96448,-6.55872 -4.44416,-13.568 -4.44416,-21.0176 0,-1.44384 0.07168,-2.816 0.22528,-4.08576 0.13824,-1.26976 0.32768,-2.56512 0.52224,-3.86048 -3.6864,-5.11488 -5.51936,-10.60864 -5.51936,-16.50176 0,-4.38272 0.90624,-8.5248 2.70336,-12.421124 1.792,-3.8912 4.2496,-7.27552 7.40352,-10.14784 3.15392,-2.87744 6.84544,-5.14048 11.03872,-6.79936 4.20352,-1.65888 8.66304,-2.46784 13.38368,-2.46784 3.39968,0 6.58944,0.39936 9.62048,1.21344 3.03104,0.82432 5.86752,1.9712 8.48384,3.47136 1.47968,-0.20992 2.9952,-0.3584 4.49024,-0.47616 1.51552,-0.0922 3.03104,-0.14848 4.51072,-0.14848 7.87968,0 15.278085,1.37216 22.195205,4.10112 6.90176,2.70848 12.94336,6.46144 18.13504,11.22304 5.19168,4.782084 9.28256,10.316804 12.25216,16.614404 2.95936,6.30784 4.43904,13.07648 4.43904,20.28544 0.005,2.65728 -0.24064,5.43744 -0.74752,8.33024 z m -29.16352,16.39424 c 2.42688,-3.19488 3.62496,-6.94784 3.62496,-11.25888 0,-3.39456 -0.67584,-6.2464 -2.00704,-8.56064 -1.38752,-2.304 -3.34336,-4.23424 -5.86752,-5.77536 -2.31936,-1.49504 -5.33504,-2.82112 -9.02656,-4.00896 -3.712,-0.93184 -7.649285,-1.8432 -11.811845,-2.77504 l -4.56192,-1.03936 c -1.22368,-0.26112 -2.19648,-0.48128 -2.92864,-0.68096 -0.81408,-0.19968 -1.56672,-0.41984 -2.28352,-0.68096 -0.67584,-0.24064 -1.39264,-0.52224 -2.10944,-0.82944 -1.39264,-0.58368 -2.56,-1.37728 -3.48672,-2.30912 -0.7168,-0.80384 -1.0752,-1.88416 -1.0752,-3.2256 0,-1.96096 1.16736,-3.712 3.48672,-5.26336 2.62656,-1.44896 5.8368,-2.14528 9.6512,-2.0992 4.40832,0 7.50592,0.65024 9.25184,1.95584 2.109445,1.54624 3.763205,3.45088 4.945925,5.69856 1.02912,1.64864 2.0736,2.87744 3.15392,3.6864 1.02912,0.78848 2.4576,1.21344 4.25472,1.26976 2.0224,0 3.69664,-0.67072 5.10464,-2.0224 1.37728,-1.25952 2.03776,-2.67776 2.00192,-4.2752 0,-1.84832 -0.52224,-3.66592 -1.54624,-5.41696 -1.01376,-1.64352 -2.71872,-3.39456 -5.0688,-5.25312 -1.18784,-0.79872 -2.49344,-1.53088 -3.90144,-2.2016 -1.41312,-0.67584 -3.00032,-1.26976 -4.72576,-1.77152 -1.80736,-0.49152 -3.706885,-0.8704 -5.708805,-1.126404 -2.00704,-0.25088 -4.1984,-0.36864 -6.62528,-0.36864 -6.11328,0 -11.26912,0.747524 -15.46752,2.242564 -4.51072,1.55648 -7.92576,3.69664 -10.24,6.47168 -2.31424,2.64192 -3.47136,5.81632 -3.47136,9.5232 0,3.90144 1.12128,7.07584 3.33312,9.5232 2.2272,2.64704 5.24288,4.64896 9.05728,6.00576 3.62496,1.44896 8.25856,2.71872 13.94176,3.8144 2.1248,0.50176 3.98336,0.92672 5.62688,1.24928 1.61792,0.31744 3.08736,0.68096 4.37248,1.0752 2.421765,0.66048 4.387845,1.7664 5.888005,3.33824 1.60256,1.36192 2.4064,3.11296 2.4064,5.2736 0,2.98496 -1.46432,5.4016 -4.35712,7.2448 -2.734085,1.88928 -6.430725,2.82112 -11.084805,2.75456 -3.72736,0 -6.4256,-0.43008 -8.13568,-1.30048 -2.1248,-0.96768 -3.69152,-2.19648 -4.72064,-3.6608 -1.3056,-1.66912 -2.35008,-3.52256 -3.18976,-5.52448 -0.73216,-1.89952 -1.72032,-3.33312 -3.01056,-4.3008 -1.2032,-0.97792 -2.6112,-1.46432 -4.26496,-1.46432 -2.10944,0 -3.85024,0.5888 -5.22752,1.74592 -1.37728,1.31584 -2.03776,2.85696 -2.00704,4.58752 0,3.01568 1.11616,6.03136 3.328,9.05216 2.19648,3.10784 5.0176,5.53472 8.45312,7.28064 5.03296,2.60096 11.35616,3.9168 18.95424,3.968 6.20032,0 11.724805,-0.9216 16.532485,-2.75968 4.72064,-2.09408 8.2432,-4.68992 10.54208,-7.808 z"
           id="path952" />
        <g
           id="g954"
           style="fill:#000000;fill-opacity:1" />
        <g
           id="g956"
           style="fill:#000000;fill-opacity:1" />
        <g
           id="g958"
           style="fill:#000000;fill-opacity:1" />
        <g
           id="g960"
           style="fill:#000000;fill-opacity:1" />
        <g
           id="g962"
           style="fill:#000000;fill-opacity:1" />
        <g
           id="g964"
           style="fill:#000000;fill-opacity:1" />
        <g
           id="g966"
           style="fill:#000000;fill-opacity:1" />
        <g
           id="g968"
           style="fill:#000000;fill-opacity:1" />
        <g
           id="g970"
           style="fill:#000000;fill-opacity:1" />
        <g
           id="g972"
           style="fill:#000000;fill-opacity:1" />
        <g
           id="g974"
           style="fill:#000000;fill-opacity:1" />
        <g
           id="g976"
           style="fill:#000000;fill-opacity:1" />
        <g
           id="g978"
           style="fill:#000000;fill-opacity:1" />
        <g
           id="g980"
           style="fill:#000000;fill-opacity:1" />
        <g
           id="g982"
           style="fill:#000000;fill-opacity:1" />
      </g>
      <g
         id="g986"
         style="fill:#000000;fill-opacity:1" />
      <g
         id="g988"
         style="fill:#000000;fill-opacity:1" />
      <g
         id="g990"
         style="fill:#000000;fill-opacity:1" />
      <g
         id="g992"
         style="fill:#000000;fill-opacity:1" />
      <g
         id="g994"
         style="fill:#000000;fill-opacity:1" />
      <g
         id="g996"
         style="fill:#000000;fill-opacity:1" />
      <g
         id="g998"
         style="fill:#000000;fill-opacity:1" />
      <g
         id="g1000"
         style="fill:#000000;fill-opacity:1" />
      <g
         id="g1002"
         style="fill:#000000;fill-opacity:1" />
      <g
         id="g1004"
         style="fill:#000000;fill-opacity:1" />
      <g
         id="g1006"
         style="fill:#000000;fill-opacity:1" />
      <g
         id="g1008"
         style="fill:#000000;fill-opacity:1" />
      <g
         id="g1010"
         style="fill:#000000;fill-opacity:1" />
      <g
         id="g1012"
         style="fill:#000000;fill-opacity:1" />
      <g
         id="g1014"
         style="fill:#000000;fill-opacity:1" />
    </g>
    <g
       id="g940"
       transform="matrix(5.2121184,0,0,5.2121184,30.023495,897.53732)">
      <g
         id="g869">
        <path
           id="path837"
           d="m 147.72813,-58.551076 c 1.7408,2.46272 3.06688,5.13536 3.9936,8.064 0.9216,2.9184 1.38752,5.9392 1.38752,9.06752 0,4.48 -0.90624,8.68864 -2.69824,12.63104 -1.79712,3.93216 -4.27008,7.3984 -7.424,10.40896 -3.15392,2.97984 -6.82496,5.31968 -11.04384,7.01952 -4.21888,1.6998401 -8.65792,2.5344001 -13.37856,2.5344001 -6.72256,0 -12.75392,-1.5872001 -18.10432,-4.7564801 -1.484805,0.2048 -2.979845,0.35328 -4.490245,0.46592 -1.51552,0.1024 -3.01568,0.14336 -4.51584,0.14336 -7.85408,0 -15.22688,-1.408 -22.12352,-4.21376 -6.88128,-2.82112 -12.90752,-6.65088 -18.0992,-11.53024 -5.17632,-4.85888 -9.25696,-10.58816 -12.19584,-17.14688 -2.96448,-6.55872 -4.44416,-13.568 -4.44416,-21.0176 0,-1.44384 0.07168,-2.816 0.22528,-4.08576 0.13824,-1.26976 0.32768,-2.56512 0.52224,-3.86048 -3.6864,-5.11488 -5.51936,-10.60864 -5.51936,-16.50176 0,-4.38272 0.90624,-8.5248 2.70336,-12.421124 1.792,-3.8912 4.2496,-7.27552 7.40352,-10.14784 3.15392,-2.87744 6.84544,-5.14048 11.03872,-6.79936 4.20352,-1.65888 8.66304,-2.46784 13.38368,-2.46784 3.39968,0 6.58944,0.39936 9.62048,1.21344 3.03104,0.82432 5.86752,1.9712 8.48384,3.47136 1.47968,-0.20992 2.9952,-0.3584 4.49024,-0.47616 1.51552,-0.0922 3.03104,-0.14848 4.51072,-0.14848 7.87968,0 15.278085,1.37216 22.195205,4.10112 6.90176,2.70848 12.94336,6.46144 18.13504,11.22304 5.19168,4.782084 9.28256,10.316804 12.25216,16.614404 2.95936,6.30784 4.43904,13.07648 4.43904,20.28544 0.005,2.65728 -0.24064,5.43744 -0.74752,8.33024 z m -29.16352,16.39424 c 2.42688,-3.19488 3.62496,-6.94784 3.62496,-11.25888 0,-3.39456 -0.67584,-6.2464 -2.00704,-8.56064 -1.38752,-2.304 -3.34336,-4.23424 -5.86752,-5.77536 -2.31936,-1.49504 -5.33504,-2.82112 -9.02656,-4.00896 -3.712,-0.93184 -7.649285,-1.8432 -11.811845,-2.77504 l -4.56192,-1.03936 c -1.22368,-0.26112 -2.19648,-0.48128 -2.92864,-0.68096 -0.81408,-0.19968 -1.56672,-0.41984 -2.28352,-0.68096 -0.67584,-0.24064 -1.39264,-0.52224 -2.10944,-0.82944 -1.39264,-0.58368 -2.56,-1.37728 -3.48672,-2.30912 -0.7168,-0.80384 -1.0752,-1.88416 -1.0752,-3.2256 0,-1.96096 1.16736,-3.712 3.48672,-5.26336 2.62656,-1.44896 5.8368,-2.14528 9.6512,-2.0992 4.40832,0 7.50592,0.65024 9.25184,1.95584 2.109445,1.54624 3.763205,3.45088 4.945925,5.69856 1.02912,1.64864 2.0736,2.87744 3.15392,3.6864 1.02912,0.78848 2.4576,1.21344 4.25472,1.26976 2.0224,0 3.69664,-0.67072 5.10464,-2.0224 1.37728,-1.25952 2.03776,-2.67776 2.00192,-4.2752 0,-1.84832 -0.52224,-3.66592 -1.54624,-5.41696 -1.01376,-1.64352 -2.71872,-3.39456 -5.0688,-5.25312 -1.18784,-0.79872 -2.49344,-1.53088 -3.90144,-2.2016 -1.41312,-0.67584 -3.00032,-1.26976 -4.72576,-1.77152 -1.80736,-0.49152 -3.706885,-0.8704 -5.708805,-1.126404 -2.00704,-0.25088 -4.1984,-0.36864 -6.62528,-0.36864 -6.11328,0 -11.26912,0.747524 -15.46752,2.242564 -4.51072,1.55648 -7.92576,3.69664 -10.24,6.47168 -2.31424,2.64192 -3.47136,5.81632 -3.47136,9.5232 0,3.90144 1.12128,7.07584 3.33312,9.5232 2.2272,2.64704 5.24288,4.64896 9.05728,6.00576 3.62496,1.44896 8.25856,2.71872 13.94176,3.8144 2.1248,0.50176 3.98336,0.92672 5.62688,1.24928 1.61792,0.31744 3.08736,0.68096 4.37248,1.0752 2.421765,0.66048 4.387845,1.7664 5.888005,3.33824 1.60256,1.36192 2.4064,3.11296 2.4064,5.2736 0,2.98496 -1.46432,5.4016 -4.35712,7.2448 -2.734085,1.88928 -6.430725,2.82112 -11.084805,2.75456 -3.72736,0 -6.4256,-0.43008 -8.13568,-1.30048 -2.1248,-0.96768 -3.69152,-2.19648 -4.72064,-3.6608 -1.3056,-1.66912 -2.35008,-3.52256 -3.18976,-5.52448 -0.73216,-1.89952 -1.72032,-3.33312 -3.01056,-4.3008 -1.2032,-0.97792 -2.6112,-1.46432 -4.26496,-1.46432 -2.10944,0 -3.85024,0.5888 -5.22752,1.74592 -1.37728,1.31584 -2.03776,2.85696 -2.00704,4.58752 0,3.01568 1.11616,6.03136 3.328,9.05216 2.19648,3.10784 5.0176,5.53472 8.45312,7.28064 5.03296,2.60096 11.35616,3.9168 18.95424,3.968 6.20032,0 11.724805,-0.9216 16.532485,-2.75968 4.72064,-2.09408 8.2432,-4.68992 10.54208,-7.808 z"
           inkscape:connector-curvature="0"
           style="fill:url(#linearGradient950);fill-opacity:1;stroke-width:5.11999989" />
        <g
           id="g839" />
        <g
           id="g841" />
        <g
           id="g843" />
        <g
           id="g845" />
        <g
           id="g847" />
        <g
           id="g849" />
        <g
           id="g851" />
        <g
           id="g853" />
        <g
           id="g855" />
        <g
           id="g857" />
        <g
           id="g859" />
        <g
           id="g861" />
        <g
           id="g863" />
        <g
           id="g865" />
        <g
           id="g867" />
      </g>
      <g
         id="g871" />
      <g
         id="g873" />
      <g
         id="g875" />
      <g
         id="g877" />
      <g
         id="g879" />
      <g
         id="g881" />
      <g
         id="g883" />
      <g
         id="g885" />
      <g
         id="g887" />
      <g
         id="g889" />
      <g
         id="g891" />
      <g
         id="g893" />
      <g
         id="g895" />
      <g
         id="g897" />
      <g
         id="g899" />
    </g>
  </g>
</svg>
