<?xml version="1.0" encoding="UTF-8" standalone="yes"?>
<svg xmlns:dc="http://purl.org/dc/elements/1.1/" xmlns:cc="http://creativecommons.org/ns#" xmlns:rdf="http://www.w3.org/1999/02/22-rdf-syntax-ns#" xmlns:svg="http://www.w3.org/2000/svg" xmlns="http://www.w3.org/2000/svg" xmlns:xlink="http://www.w3.org/1999/xlink" xmlns:sodipodi="http://sodipodi.sourceforge.net/DTD/sodipodi-0.dtd" xmlns:inkscape="http://www.inkscape.org/namespaces/inkscape" height="64" viewBox="0 0 64 64" width="64" id="svg2" version="1.1" inkscape:version="0.92.1 r" sodipodi:docname="flash-player-properties.svg" enable-background="new" folder="64">
  <title id="title4675">Template icons dark</title>
  <metadata id="metadata24">
    <rdf:RDF>
      <cc:Work rdf:about="">
        <dc:format>image/svg+xml</dc:format>
        <dc:type rdf:resource="http://purl.org/dc/dcmitype/StillImage"/>
        <dc:title>Template icons dark</dc:title>
        <dc:date>17/05/13</dc:date>
        <dc:creator>
          <cc:Agent>
            <dc:title>wfpaisa</dc:title>
          </cc:Agent>
        </dc:creator>
        <dc:rights>
          <cc:Agent>
            <dc:title>License: GPLv3</dc:title>
          </cc:Agent>
        </dc:rights>
        <dc:language>es-en</dc:language>
        <dc:subject>
          <rdf:Bag>
            <rdf:li>plane-icon-theme</rdf:li>
          </rdf:Bag>
        </dc:subject>
        <dc:description>Template for create set icons</dc:description>
        <cc:license rdf:resource="https://www.gnu.org/licenses/gpl-3.0.en.html"/>
      </cc:Work>
    </rdf:RDF>
  </metadata>
  <defs id="defs22">
    <linearGradient inkscape:collect="always" id="linearGradient7769">
      <stop style="stop-color:#ffffff;stop-opacity:0.171875" offset="0" id="stop7765"/>
      <stop style="stop-color:#000000;stop-opacity:0;" offset="1" id="stop7767"/>
    </linearGradient>
    <linearGradient id="linearGradient7744" inkscape:collect="always">
      <stop id="stop7740" offset="0" style="stop-color:#730216;stop-opacity:0.78125"/>
      <stop id="stop7742" offset="1" style="stop-color:#d9042a;stop-opacity:0.02745098"/>
    </linearGradient>
    <linearGradient inkscape:collect="always" id="linearGradient7748">
      <stop style="stop-color:#d40e0e;stop-opacity:1" offset="0" id="stop7744"/>
      <stop style="stop-color:#910404;stop-opacity:0.96470588" offset="1" id="stop7746"/>
    </linearGradient>
    <linearGradient inkscape:collect="always" xlink:href="#linearGradient7748" id="linearGradient7750" x1="160.85533" y1="121.50957" x2="160.85533" y2="200.85536" gradientUnits="userSpaceOnUse"/>
    <linearGradient inkscape:collect="always" xlink:href="#linearGradient7744" id="linearGradient7738" gradientUnits="userSpaceOnUse" x1="198.31935" y1="122.53598" x2="175.15457" y2="144.16115" gradientTransform="translate(1.9073486e-5,-319.99998)"/>
    <linearGradient inkscape:collect="always" xlink:href="#linearGradient7769" id="linearGradient7771" x1="160" y1="197.92126" x2="160" y2="120" gradientUnits="userSpaceOnUse"/>
    <linearGradient gradientTransform="matrix(1.3282359,0,0,1.3282359,59.610776,58.612616)" inkscape:collect="always" xlink:href="#linearGradient7769" id="linearGradient7771-3" x1="160" y1="197.92126" x2="160" y2="120" gradientUnits="userSpaceOnUse"/>
    <linearGradient inkscape:collect="always" xlink:href="#linearGradient7744" id="linearGradient7738-5" gradientUnits="userSpaceOnUse" x1="198.31935" y1="122.53598" x2="175.15457" y2="144.16115" gradientTransform="matrix(1.3282359,0,0,1.3282359,58.612642,-484.64619)"/>
    <linearGradient gradientTransform="matrix(1.3282359,0,0,1.3282359,59.610776,58.612616)" inkscape:collect="always" xlink:href="#linearGradient7748" id="linearGradient7750-6" x1="160.85533" y1="121.50957" x2="160.85533" y2="200.85536" gradientUnits="userSpaceOnUse"/>
    <linearGradient gradientTransform="matrix(0.67421035,0,0,0.67421035,-28.926023,-28.914299)" inkscape:collect="always" xlink:href="#linearGradient7769" id="linearGradient7771-6" x1="160" y1="197.92126" x2="160" y2="120" gradientUnits="userSpaceOnUse"/>
    <linearGradient inkscape:collect="always" xlink:href="#linearGradient7744" id="linearGradient7738-7" gradientUnits="userSpaceOnUse" x1="198.31935" y1="122.53598" x2="175.15457" y2="144.16115" gradientTransform="matrix(0.67421035,0,0,0.67421035,-28.914286,-186.82128)"/>
    <linearGradient gradientTransform="matrix(0.67421035,0,0,0.67421035,-28.926023,-28.914299)" inkscape:collect="always" xlink:href="#linearGradient7748" id="linearGradient7750-0" x1="160.85533" y1="121.50957" x2="160.85533" y2="200.85536" gradientUnits="userSpaceOnUse"/>
    <linearGradient gradientTransform="matrix(0.5,0,0,0.5,-56.999671,-57.000623)" inkscape:collect="always" xlink:href="#linearGradient7769" id="linearGradient7771-1" x1="160" y1="197.92126" x2="160" y2="120" gradientUnits="userSpaceOnUse"/>
    <linearGradient inkscape:collect="always" xlink:href="#linearGradient7744" id="linearGradient7738-3" gradientUnits="userSpaceOnUse" x1="198.31935" y1="122.53598" x2="175.15457" y2="144.16115" gradientTransform="matrix(0.5,0,0,0.5,-57.000613,-103.00032)"/>
    <linearGradient gradientTransform="matrix(0.5,0,0,0.5,-56.999671,-57.000623)" inkscape:collect="always" xlink:href="#linearGradient7748" id="linearGradient7750-4" x1="160.85533" y1="121.50957" x2="160.85533" y2="200.85536" gradientUnits="userSpaceOnUse"/>
    <linearGradient gradientTransform="matrix(0.36363218,0,0,0.36363218,-74.908599,-74.908229)" inkscape:collect="always" xlink:href="#linearGradient7769" id="linearGradient7771-5" x1="160" y1="197.92126" x2="160" y2="120" gradientUnits="userSpaceOnUse"/>
    <linearGradient inkscape:collect="always" xlink:href="#linearGradient7744" id="linearGradient7738-76" gradientUnits="userSpaceOnUse" x1="198.31935" y1="122.53598" x2="175.15457" y2="144.16115" gradientTransform="matrix(0.36363218,0,0,0.36363218,-74.908221,-41.453692)"/>
    <linearGradient gradientTransform="matrix(0.36363218,0,0,0.36363218,-74.908599,-74.908229)" inkscape:collect="always" xlink:href="#linearGradient7748" id="linearGradient7750-9" x1="160.85533" y1="121.50957" x2="160.85533" y2="200.85536" gradientUnits="userSpaceOnUse"/>
    <linearGradient gradientTransform="matrix(0.275,0,0,0.275,-87.999989,-88.000001)" inkscape:collect="always" xlink:href="#linearGradient7748" id="linearGradient7750-9-8" x1="160.85533" y1="121.50957" x2="160.85533" y2="200.85536" gradientUnits="userSpaceOnUse"/>
    <linearGradient gradientTransform="matrix(0.17499999,0,0,0.17499999,-91.999991,-91.999994)" inkscape:collect="always" xlink:href="#linearGradient7748" id="linearGradient7750-9-8-9" x1="160.85533" y1="199.99998" x2="160.85533" y2="211.42854" gradientUnits="userSpaceOnUse"/>
    <symbol id="icon-cog" viewBox="0 0 24 28">
      <title id="title12501">cog</title>
      <path d="M16 14c0-2.203-1.797-4-4-4s-4 1.797-4 4 1.797 4 4 4 4-1.797 4-4zM24 12.297v3.469c0 0.234-0.187 0.516-0.438 0.562l-2.891 0.438c-0.172 0.5-0.359 0.969-0.609 1.422 0.531 0.766 1.094 1.453 1.672 2.156 0.094 0.109 0.156 0.25 0.156 0.391s-0.047 0.25-0.141 0.359c-0.375 0.5-2.484 2.797-3.016 2.797-0.141 0-0.281-0.063-0.406-0.141l-2.156-1.687c-0.453 0.234-0.938 0.438-1.422 0.594-0.109 0.953-0.203 1.969-0.453 2.906-0.063 0.25-0.281 0.438-0.562 0.438h-3.469c-0.281 0-0.531-0.203-0.562-0.469l-0.438-2.875c-0.484-0.156-0.953-0.344-1.406-0.578l-2.203 1.672c-0.109 0.094-0.25 0.141-0.391 0.141s-0.281-0.063-0.391-0.172c-0.828-0.75-1.922-1.719-2.578-2.625-0.078-0.109-0.109-0.234-0.109-0.359 0-0.141 0.047-0.25 0.125-0.359 0.531-0.719 1.109-1.406 1.641-2.141-0.266-0.5-0.484-1.016-0.641-1.547l-2.859-0.422c-0.266-0.047-0.453-0.297-0.453-0.562v-3.469c0-0.234 0.187-0.516 0.422-0.562l2.906-0.438c0.156-0.5 0.359-0.969 0.609-1.437-0.531-0.75-1.094-1.453-1.672-2.156-0.094-0.109-0.156-0.234-0.156-0.375s0.063-0.25 0.141-0.359c0.375-0.516 2.484-2.797 3.016-2.797 0.141 0 0.281 0.063 0.406 0.156l2.156 1.672c0.453-0.234 0.938-0.438 1.422-0.594 0.109-0.953 0.203-1.969 0.453-2.906 0.063-0.25 0.281-0.438 0.562-0.438h3.469c0.281 0 0.531 0.203 0.562 0.469l0.438 2.875c0.484 0.156 0.953 0.344 1.406 0.578l2.219-1.672c0.094-0.094 0.234-0.141 0.375-0.141s0.281 0.063 0.391 0.156c0.828 0.766 1.922 1.734 2.578 2.656 0.078 0.094 0.109 0.219 0.109 0.344 0 0.141-0.047 0.25-0.125 0.359-0.531 0.719-1.109 1.406-1.641 2.141 0.266 0.5 0.484 1.016 0.641 1.531l2.859 0.438c0.266 0.047 0.453 0.297 0.453 0.562z" id="path12503"/>
    </symbol>
  </defs>
  <sodipodi:namedview pagecolor="#383c4a" bordercolor="#ffffff" borderopacity="0.62745098" objecttolerance="4" gridtolerance="10" guidetolerance="4" inkscape:pageopacity="0" inkscape:pageshadow="2" inkscape:window-width="640" inkscape:window-height="480" id="namedview20" showgrid="true" inkscape:zoom="11.621654" inkscape:cx="-73.27909" inkscape:cy="95.331744" inkscape:current-layer="layer6" inkscape:snap-smooth-nodes="false" showguides="true" borderlayer="true" inkscape:showpageshadow="false" inkscape:guide-bbox="true" guidecolor="#bd4fff" guideopacity="0.78431373" inkscape:snap-nodes="true" inkscape:lockguides="false" fit-margin-top="0" fit-margin-left="0" fit-margin-right="0" fit-margin-bottom="0" guidehicolor="#ff0101" guidehiopacity="0.78431373" inkscape:snap-page="true" inkscape:object-nodes="true" inkscape:snap-bbox="true" inkscape:snap-global="true" inkscape:snap-object-midpoints="false" inkscape:snap-bbox-edge-midpoints="false" inkscape:bbox-nodes="true">
    <inkscape:grid type="xygrid" id="grid4171" empspacing="4" dotted="false" originx="2.7755576e-17" originy="0" spacingx="1" spacingy="1" color="#5a5a5a" opacity="0.23529412" empcolor="#5a5a5a" empopacity="0.47058824" visible="true"/>
    <inkscape:grid type="axonomgrid" id="grid4699" units="mm" empspacing="4" color="#5a5a5a" opacity="0.23529412" empcolor="#5a5a5a" empopacity="0.47058824" gridanglex="45" gridanglez="45" spacingy="3.7795276" visible="false" originx="1.3228346" originy="1.3228346"/>
    <sodipodi:guide position="48,0" orientation="1,0" id="guide4568" inkscape:locked="false" inkscape:label="" inkscape:color="rgb(189,79,255)"/>
    <sodipodi:guide position="111.99996,-3.9999999e-05" orientation="0,1" id="guide4570" inkscape:locked="false" inkscape:label="" inkscape:color="rgb(189,79,255)"/>
    <sodipodi:guide position="0,0" orientation="1,0" id="guide4572" inkscape:locked="false" inkscape:label="" inkscape:color="rgb(189,79,255)"/>
    <sodipodi:guide position="0,48" orientation="0,1" id="guide4574" inkscape:locked="false" inkscape:label="" inkscape:color="rgb(189,79,255)"/>
    <sodipodi:guide position="0,80" orientation="0,1" id="guide4576" inkscape:locked="false" inkscape:label="" inkscape:color="rgb(189,79,255)"/>
    <sodipodi:guide position="-32,48" orientation="1,0" id="guide4578" inkscape:locked="false" inkscape:label="" inkscape:color="rgb(189,79,255)"/>
    <sodipodi:guide position="-32,104" orientation="0,1" id="guide4580" inkscape:locked="false" inkscape:label="" inkscape:color="rgb(189,79,255)"/>
    <sodipodi:guide position="-56,80" orientation="1,0" id="guide4582" inkscape:locked="false" inkscape:label="" inkscape:color="rgb(189,79,255)"/>
    <sodipodi:guide position="48,-64" orientation="0,1" id="guide4584" inkscape:locked="false" inkscape:label="" inkscape:color="rgb(189,79,255)"/>
    <sodipodi:guide position="0,0" orientation="-0.70710678,0.70710678" id="guide4588" inkscape:locked="false" inkscape:label="" inkscape:color="rgb(189,79,255)"/>
    <sodipodi:guide position="-56,80" orientation="-0.70710678,0.70710678" id="guide4573" inkscape:locked="false" inkscape:label="" inkscape:color="rgb(189,79,255)"/>
    <sodipodi:guide position="-32,48" orientation="-0.70710678,0.70710678" id="guide4575" inkscape:locked="false" inkscape:label="" inkscape:color="rgb(189,79,255)"/>
    <sodipodi:guide position="48,-64" orientation="-0.70710678,0.70710678" id="guide4577" inkscape:locked="false" inkscape:label="" inkscape:color="rgb(189,79,255)"/>
    <sodipodi:guide position="47.999962,0" orientation="0.70710678,0.70710678" id="guide4697" inkscape:locked="false" inkscape:label="" inkscape:color="rgb(189,79,255)"/>
    <sodipodi:guide position="207.99995,-288" orientation="0,1" id="guide7833" inkscape:locked="false"/>
    <sodipodi:guide position="335.99994,-288" orientation="1,0" id="guide7835" inkscape:locked="false" inkscape:label="" inkscape:color="rgb(189,79,255)"/>
    <sodipodi:guide position="111.99996,-64" orientation="1,0" id="guide7915" inkscape:locked="false"/>
    <sodipodi:guide position="111.99996,-160" orientation="0,1" id="guide7917" inkscape:locked="false"/>
    <sodipodi:guide position="207.99996,-160" orientation="1,0" id="guide7919" inkscape:locked="false"/>
    <sodipodi:guide position="111.99996,-160" orientation="-0.70710678,0.70710678" id="guide7921" inkscape:locked="false" inkscape:label="" inkscape:color="rgb(189,79,255)"/>
    <sodipodi:guide position="207.99996,-288" orientation="-0.70710678,0.70710678" id="guide7923" inkscape:locked="false" inkscape:label="" inkscape:color="rgb(189,79,255)"/>
    <sodipodi:guide position="-72,104" orientation="1,0" id="guide7824" inkscape:locked="false"/>
    <sodipodi:guide position="-56,120" orientation="0,1" id="guide7826" inkscape:locked="false"/>
    <sodipodi:guide position="-72,104" orientation="-0.70710678,0.70710678" id="guide7828" inkscape:locked="false" inkscape:label="" inkscape:color="rgb(189,79,255)"/>
  </sodipodi:namedview>
  <g inkscape:groupmode="layer" id="g7907" inkscape:label="icon_64" style="display:inline" transform="translate(-48,-48)">
    <g inkscape:groupmode="layer" id="g7843" inkscape:label="frame" style="display:none">
      <rect inkscape:label="frame_64" y="48" x="48" height="64" width="64" id="rect7837" style="color:#000000;clip-rule:nonzero;display:inline;overflow:visible;visibility:visible;opacity:1;isolation:auto;mix-blend-mode:normal;color-interpolation:sRGB;color-interpolation-filters:linearRGB;solid-color:#000000;solid-opacity:1;vector-effect:none;fill:#000000;fill-opacity:1;fill-rule:nonzero;stroke:#ff24f7;stroke-width:0;stroke-linecap:square;stroke-linejoin:miter;stroke-miterlimit:4;stroke-dasharray:none;stroke-dashoffset:0;stroke-opacity:0.99481865;marker:none;marker-start:none;marker-mid:none;marker-end:none;paint-order:normal;color-rendering:auto;image-rendering:auto;shape-rendering:auto;text-rendering:auto;enable-background:accumulate"/>
      <text xml:space="preserve" style="font-size:16px;line-height:0%;font-family:sans-serif;letter-spacing:0px;word-spacing:0px;display:inline;opacity:1;fill:#ffffff;fill-opacity:1;stroke:none;stroke-width:0.03278551px;stroke-linecap:butt;stroke-linejoin:miter;stroke-opacity:1" x="69.816406" y="85.824219" id="text7841" inkscape:label="txt_64">
        <tspan sodipodi:role="line" x="69.816406" y="85.824219" style="font-size:16px;line-height:0%;fill:#ffffff;fill-opacity:1;stroke:none;stroke-width:0.03278551px" id="tspan7839">64</tspan>
      </text>
    </g>
    <g inkscape:groupmode="layer" id="g7905" inkscape:label="icon" style="display:inline">
      <rect inkscape:label="sombra" style="color:#000000;clip-rule:nonzero;display:block;overflow:visible;visibility:visible;opacity:1;isolation:auto;mix-blend-mode:normal;color-interpolation:sRGB;color-interpolation-filters:linearRGB;solid-color:#000000;solid-opacity:1;vector-effect:none;fill:#000000;fill-opacity:0.07843137;fill-rule:nonzero;stroke:none;stroke-width:0.69932824px;stroke-linecap:butt;stroke-linejoin:miter;stroke-miterlimit:4;stroke-dasharray:none;stroke-dashoffset:0;stroke-opacity:1;marker:none;marker-start:none;marker-mid:none;marker-end:none;paint-order:fill markers stroke;color-rendering:auto;image-rendering:auto;shape-rendering:auto;text-rendering:auto;enable-background:accumulate" id="rect7759-7" width="55.959461" height="56.633671" x="50.630798" y="50.642525"/>
      <rect y="51.316734" x="51.304981" height="55.285252" width="55.285275" id="rect29472-5" style="color:#000000;clip-rule:nonzero;display:block;overflow:visible;visibility:visible;opacity:1;isolation:auto;mix-blend-mode:normal;color-interpolation:sRGB;color-interpolation-filters:linearRGB;solid-color:#000000;solid-opacity:1;vector-effect:none;fill:#000000;fill-opacity:0.07843137;fill-rule:nonzero;stroke:none;stroke-width:0.69106567px;stroke-linecap:butt;stroke-linejoin:miter;stroke-miterlimit:4;stroke-dasharray:none;stroke-dashoffset:0;stroke-opacity:1;marker:none;marker-start:none;marker-mid:none;marker-end:none;paint-order:fill markers stroke;color-rendering:auto;image-rendering:auto;shape-rendering:auto;text-rendering:auto;enable-background:accumulate" inkscape:label="sombra"/>
      <rect style="color:#000000;clip-rule:nonzero;display:inline;overflow:visible;visibility:visible;opacity:1;isolation:auto;mix-blend-mode:normal;color-interpolation:sRGB;color-interpolation-filters:linearRGB;solid-color:#000000;solid-opacity:1;vector-effect:none;fill:url(#linearGradient7750-0);fill-opacity:1;fill-rule:nonzero;stroke:none;stroke-width:0.67421037px;stroke-linecap:butt;stroke-linejoin:miter;stroke-miterlimit:4;stroke-dasharray:none;stroke-dashoffset:0;stroke-opacity:1;marker:none;marker-start:none;marker-mid:none;marker-end:none;paint-order:fill markers stroke;color-rendering:auto;image-rendering:auto;shape-rendering:auto;text-rendering:auto;enable-background:accumulate" id="rect7742-9" width="53.936855" height="53.936829" x="51.979191" y="51.990944" inkscape:label="base"/>
      <rect y="-105.91603" x="51.990929" height="53.936829" width="53.936855" id="rect7736-2" style="color:#000000;clip-rule:nonzero;display:block;overflow:visible;visibility:visible;opacity:1;isolation:auto;mix-blend-mode:normal;color-interpolation:sRGB;color-interpolation-filters:linearRGB;solid-color:#000000;solid-opacity:1;vector-effect:none;fill:url(#linearGradient7738-7);fill-opacity:1;fill-rule:nonzero;stroke:none;stroke-width:0.67421037px;stroke-linecap:butt;stroke-linejoin:miter;stroke-miterlimit:4;stroke-dasharray:none;stroke-dashoffset:0;stroke-opacity:1;marker:none;marker-start:none;marker-mid:none;marker-end:none;paint-order:fill markers stroke;color-rendering:auto;image-rendering:auto;shape-rendering:auto;text-rendering:auto;enable-background:accumulate" inkscape:label="brillo" transform="rotate(90)"/>
      <path sodipodi:nodetypes="cccccccccc" inkscape:connector-curvature="0" id="path29510-2" d="m 69.508688,85.701461 v 4.719473 c 3.624629,0.30214 8.200084,-1.085809 10.787367,-8.764735 h 5.393682 v -4.719472 h -3.371051 c 1.584279,-1.955487 3.802768,-3.570726 6.067893,-4.045262 v -4.719473 c -8.235972,0.821464 -9.290835,5.498853 -11.461577,9.438945 -2.980501,5.527548 -4.75623,6.607673 -7.416314,8.090524 z" style="display:inline;fill:#000000;fill-opacity:0.15104167;fill-rule:evenodd;stroke:none;stroke-width:0.67421037px;stroke-linecap:butt;stroke-linejoin:miter;stroke-opacity:1"/>
      <path style="display:inline;fill:#fefefe;fill-opacity:1;fill-rule:evenodd;stroke:none;stroke-width:0.67421037px;stroke-linecap:butt;stroke-linejoin:miter;stroke-opacity:1" d="m 69.508688,85.027251 v 4.719472 c 3.624629,0.302141 8.200084,-1.085809 10.787367,-8.764734 h 5.393682 v -4.719473 h -3.371051 c 1.584279,-1.955486 3.802768,-3.570726 6.067893,-4.045262 v -4.719473 c -8.235972,0.821466 -9.290835,5.498854 -11.461577,9.438946 -2.980501,5.527547 -4.75623,6.607673 -7.416314,8.090524 z" id="path7736-8" inkscape:connector-curvature="0" sodipodi:nodetypes="cccccccccc"/>
      <path style="font-style:normal;font-variant:normal;font-weight:bold;font-stretch:normal;font-size:medium;line-height:1000%;font-family:sans-serif;-inkscape-font-specification:'sans-serif Bold';letter-spacing:0px;word-spacing:0px;display:inline;fill:#ffffff;fill-opacity:1;stroke:none;stroke-width:0.13338144px;stroke-linecap:butt;stroke-linejoin:miter;stroke-opacity:1" d="m 78.947633,88.398303 v 0.303105 h 0.516324 v 1.25277 h 0.402214 v -1.25277 h 0.515164 v -0.303105 z m 1.639997,0 v 1.555875 h 0.380329 v -1.137521 l 0.358424,0.839021 h 0.254703 l 0.35843,-0.839021 v 1.137521 h 0.37917 v -1.555875 h -0.5094 l -0.356132,0.833256 -0.354965,-0.833256 z" id="path29502-9" inkscape:connector-curvature="0"/>
      <path style="color:#000000;font-style:normal;font-variant:normal;font-weight:normal;font-stretch:normal;font-size:medium;line-height:normal;font-family:sans-serif;font-variant-ligatures:normal;font-variant-position:normal;font-variant-caps:normal;font-variant-numeric:normal;font-variant-alternates:normal;font-feature-settings:normal;text-indent:0;text-align:start;text-decoration:none;text-decoration-line:none;text-decoration-style:solid;text-decoration-color:#000000;letter-spacing:normal;word-spacing:normal;text-transform:none;writing-mode:lr-tb;direction:ltr;text-orientation:mixed;dominant-baseline:auto;baseline-shift:baseline;text-anchor:start;white-space:normal;shape-padding:0;clip-rule:nonzero;display:inline;overflow:visible;visibility:visible;opacity:1;isolation:auto;mix-blend-mode:normal;color-interpolation:sRGB;color-interpolation-filters:linearRGB;solid-color:#000000;solid-opacity:1;vector-effect:none;fill:url(#linearGradient7771-6);fill-opacity:1;fill-rule:nonzero;stroke:none;stroke-width:0.67421037px;stroke-linecap:butt;stroke-linejoin:miter;stroke-miterlimit:4;stroke-dasharray:none;stroke-dashoffset:0;stroke-opacity:1;marker:none;paint-order:fill markers stroke;color-rendering:auto;image-rendering:auto;shape-rendering:auto;text-rendering:auto;enable-background:accumulate" d="M 105.91602,51.990943 H 51.979219 v 53.936807 l 53.936831,5e-5 z m -0.67418,0.674211 -3e-5,52.588416 H 52.653402 l 2.8e-5,-52.588416 z" id="rect7761-7" inkscape:connector-curvature="0" sodipodi:nodetypes="cccccccccc"/>
      <path id="path29517-3" d="m 103.65653,101.52619 c 0,-1.550562 -1.26477,-2.815378 -2.81528,-2.815378 -1.55051,0 -2.815262,1.264816 -2.815262,2.815378 0,1.55059 1.264752,2.81539 2.815262,2.81539 1.55051,0 2.81528,-1.2648 2.81528,-2.81539 z m 5.63057,-1.19866 v 2.44165 c 0,0.16464 -0.13163,0.36318 -0.30826,0.39557 l -2.03475,0.30829 c -0.12107,0.3519 -0.25267,0.682 -0.42863,1.00085 0.37371,0.53913 0.76998,1.0227 1.17677,1.5175 0.0662,0.0765 0.10973,0.17593 0.10973,0.27518 0,0.0993 -0.0332,0.17595 -0.0992,0.25271 -0.26394,0.3519 -1.74828,1.96863 -2.12272,1.96863 -0.0992,0 -0.19781,-0.0445 -0.28575,-0.0992 l -1.51745,-1.18737 c -0.31882,0.16462 -0.6602,0.30828 -1.00084,0.41807 -0.0765,0.67078 -0.14276,1.38589 -0.31882,2.04536 -0.0445,0.17594 -0.19776,0.30828 -0.39553,0.30828 h -2.441592 c -0.197753,0 -0.373715,-0.14294 -0.395512,-0.33009 l -0.308276,-2.02355 c -0.340672,-0.10973 -0.670738,-0.24214 -0.989586,-0.40682 l -1.550515,1.17682 c -0.07654,0.0662 -0.175942,0.0992 -0.275186,0.0992 -0.0992,0 -0.19778,-0.0445 -0.275193,-0.12107 -0.582773,-0.52788 -1.352748,-1.20993 -1.814474,-1.84759 -0.05495,-0.0765 -0.07654,-0.16465 -0.07654,-0.25267 0,-0.0992 0.03317,-0.17595 0.08787,-0.2527 0.373727,-0.50604 0.780539,-0.98959 1.154982,-1.50692 -0.187214,-0.3519 -0.340672,-0.71511 -0.451141,-1.08884 L 92.71426,103.1218 c -0.187248,-0.0332 -0.318833,-0.20904 -0.318833,-0.39556 v -2.44164 c 0,-0.16464 0.131625,-0.363184 0.297003,-0.395576 l 2.045286,-0.308258 c 0.109722,-0.351931 0.252695,-0.682058 0.428643,-1.011437 -0.373729,-0.527886 -0.769989,-1.022683 -1.17678,-1.517479 -0.06614,-0.07653 -0.109728,-0.164629 -0.109728,-0.263953 0,-0.0992 0.0445,-0.175956 0.0992,-0.252681 0.263927,-0.363177 1.748282,-1.96864 2.122711,-1.96864 0.0992,0 0.19778,0.04457 0.285758,0.109734 l 1.517438,1.176827 c 0.318841,-0.164635 0.660187,-0.308262 1.000859,-0.418071 0.07654,-0.670785 0.142925,-1.385866 0.31882,-2.045395 0.0445,-0.175949 0.197753,-0.30829 0.395545,-0.30829 h 2.441558 c 0.19777,0 0.37372,0.142757 0.39555,0.330128 l 0.30825,2.023557 c 0.34067,0.109729 0.67076,0.242096 0.98959,0.406799 l 1.56178,-1.176807 c 0.0663,-0.06614 0.16462,-0.09921 0.26391,-0.09921 0.0992,0 0.19778,0.0445 0.27523,0.109728 0.58275,0.539146 1.35271,1.220476 1.81443,1.869411 0.0549,0.06614 0.0765,0.154259 0.0765,0.242129 0,0.09921 -0.0332,0.175949 -0.0879,0.252687 -0.37371,0.506075 -0.7805,0.989593 -1.15494,1.506914 0.18721,0.351904 0.34062,0.715129 0.45113,1.07759 l 2.01224,0.308267 c 0.1872,0.03318 0.3188,0.209056 0.3188,0.395576 z" inkscape:connector-curvature="0" style="display:inline;fill:#000000;fill-opacity:0.27083333;stroke:none;stroke-width:0.70383245" inkscape:label="rueda"/>
      <path style="display:inline;fill:#fbfbfb;fill-opacity:1;stroke:none;stroke-width:0.70383245" inkscape:connector-curvature="0" d="m 103.01873,100.88835 c 0,-1.550549 -1.26477,-2.815361 -2.81529,-2.815361 -1.550497,0 -2.815261,1.264812 -2.815261,2.815361 0,1.5506 1.264764,2.81541 2.815261,2.81541 1.55052,0 2.81529,-1.26481 2.81529,-2.81541 z m 5.63058,-1.198638 v 2.441648 c 0,0.16464 -0.13165,0.36318 -0.30827,0.39557 l -2.03475,0.30828 c -0.12108,0.35192 -0.25268,0.68202 -0.42864,1.00084 0.37371,0.53915 0.76999,1.02271 1.17679,1.51752 0.0662,0.0765 0.10972,0.17592 0.10972,0.27518 0,0.0993 -0.0332,0.17595 -0.0992,0.25269 -0.26394,0.35191 -1.74827,1.96865 -2.12272,1.96865 -0.0992,0 -0.19781,-0.0445 -0.28575,-0.0992 l -1.51745,-1.18738 c -0.31883,0.16464 -0.66019,0.30829 -1.00083,0.41808 -0.0765,0.67077 -0.14276,1.38588 -0.31882,2.04535 -0.0445,0.17595 -0.19778,0.30829 -0.39554,0.30829 h -2.441595 c -0.197753,0 -0.373708,-0.14294 -0.395518,-0.33009 l -0.308263,-2.02355 c -0.340672,-0.10973 -0.670739,-0.24213 -0.989586,-0.40681 l -1.550522,1.17682 c -0.07654,0.0662 -0.175935,0.0992 -0.275179,0.0992 -0.0992,0 -0.197786,-0.0445 -0.275199,-0.12108 -0.582774,-0.52788 -1.352757,-1.20992 -1.814477,-1.8476 -0.05495,-0.0765 -0.07654,-0.16464 -0.07654,-0.25266 0,-0.0992 0.03317,-0.17595 0.08787,-0.2527 0.373724,-0.50604 0.780543,-0.98959 1.154985,-1.50693 -0.187214,-0.3519 -0.340671,-0.7151 -0.451148,-1.08883 l -2.01221,-0.29703 c -0.187248,-0.0332 -0.318833,-0.20904 -0.318833,-0.39555 v -2.441642 c 0,-0.164642 0.131625,-0.363177 0.296996,-0.39558 l 2.045293,-0.308256 c 0.109721,-0.351923 0.252688,-0.682051 0.428636,-1.01143 -0.373735,-0.527886 -0.769995,-1.022682 -1.176782,-1.517485 -0.06614,-0.07654 -0.109727,-0.164642 -0.109727,-0.263953 0,-0.09921 0.0445,-0.175949 0.0992,-0.252681 0.263934,-0.363177 1.748284,-1.968641 2.12272,-1.968641 0.0992,0 0.19778,0.04457 0.285757,0.109735 l 1.517432,1.176827 c 0.318835,-0.164635 0.660194,-0.308262 1.000859,-0.418078 0.07654,-0.670778 0.142932,-1.385856 0.318827,-2.045388 0.0445,-0.175949 0.197746,-0.308283 0.395539,-0.308283 h 2.441565 c 0.19778,0 0.37373,0.14275 0.39554,0.330127 l 0.30826,2.023544 c 0.34067,0.109735 0.67076,0.242109 0.98959,0.406812 l 1.56177,-1.176814 c 0.0663,-0.06614 0.16463,-0.09921 0.26393,-0.09921 0.0992,0 0.19778,0.04457 0.27523,0.109728 0.58274,0.539153 1.3527,1.220483 1.81442,1.86941 0.0549,0.06614 0.0765,0.154259 0.0765,0.242129 0,0.0992 -0.0332,0.175955 -0.0879,0.252688 -0.37372,0.506075 -0.7805,0.989592 -1.15495,1.506914 0.1872,0.351904 0.34063,0.715128 0.45114,1.077584 l 2.01223,0.308282 c 0.18722,0.03317 0.31881,0.209052 0.31881,0.395573 z" id="path29458-6" inkscape:label="rueda"/>
    </g>
  </g>
</svg>