<?xml version="1.0" encoding="UTF-8" standalone="yes"?>
<svg xmlns:dc="http://purl.org/dc/elements/1.1/" xmlns:cc="http://creativecommons.org/ns#" xmlns:rdf="http://www.w3.org/1999/02/22-rdf-syntax-ns#" xmlns:svg="http://www.w3.org/2000/svg" xmlns="http://www.w3.org/2000/svg" xmlns:xlink="http://www.w3.org/1999/xlink" xmlns:sodipodi="http://sodipodi.sourceforge.net/DTD/sodipodi-0.dtd" xmlns:inkscape="http://www.inkscape.org/namespaces/inkscape" height="64" viewBox="0 0 64 64" width="64" id="svg2" version="1.1" inkscape:version="0.92.2 5c3e80d, 2017-08-06" sodipodi:docname="hexchat.svg" enable-background="new" folder="64">
  <title id="title4675">Template icons dark</title>
  <metadata id="metadata24">
    <rdf:RDF>
      <cc:Work rdf:about="">
        <dc:format>image/svg+xml</dc:format>
        <dc:type rdf:resource="http://purl.org/dc/dcmitype/StillImage"/>
        <dc:title>Template icons dark</dc:title>
        <dc:date>17/05/13</dc:date>
        <dc:creator>
          <cc:Agent>
            <dc:title>wfpaisa</dc:title>
          </cc:Agent>
        </dc:creator>
        <dc:rights>
          <cc:Agent>
            <dc:title>License: GPLv3</dc:title>
          </cc:Agent>
        </dc:rights>
        <dc:language>es-en</dc:language>
        <dc:subject>
          <rdf:Bag>
            <rdf:li>plane-icon-theme</rdf:li>
          </rdf:Bag>
        </dc:subject>
        <dc:description>Template for create set icons</dc:description>
        <cc:license rdf:resource="https://www.gnu.org/licenses/gpl-3.0.en.html"/>
      </cc:Work>
    </rdf:RDF>
  </metadata>
  <defs id="defs22">
    <linearGradient inkscape:collect="always" id="linearGradient1062">
      <stop style="stop-color:#6e685c;stop-opacity:1" offset="0" id="stop1058"/>
      <stop style="stop-color:#7f6a7f;stop-opacity:1" offset="1" id="stop1060"/>
    </linearGradient>
    <linearGradient id="linearGradient1011">
      <stop style="stop-color:#fadd9a;stop-opacity:0.26373628" offset="0" id="stop1007"/>
      <stop style="stop-color:#ffffff;stop-opacity:0" offset="1" id="stop1009"/>
    </linearGradient>
    <linearGradient id="linearGradient1003">
      <stop id="stop999" offset="0" style="stop-color:#000000;stop-opacity:0.02197802"/>
      <stop id="stop1001" offset="1" style="stop-color:#ffffff;stop-opacity:0"/>
    </linearGradient>
    <linearGradient id="linearGradient951">
      <stop style="stop-color:#000000;stop-opacity:0.02197802" offset="0" id="stop947"/>
      <stop style="stop-color:#111111;stop-opacity:0.55128205;" offset="1" id="stop949"/>
    </linearGradient>
    <linearGradient inkscape:collect="always" id="linearGradient937">
      <stop style="stop-color:#262532;stop-opacity:1" offset="0" id="stop933"/>
      <stop style="stop-color:#39343d;stop-opacity:1" offset="1" id="stop935"/>
    </linearGradient>
    <linearGradient inkscape:collect="always" id="linearGradient919">
      <stop style="stop-color:#f75100;stop-opacity:1" offset="0" id="stop915"/>
      <stop style="stop-color:#ffae11;stop-opacity:1" offset="1" id="stop917"/>
    </linearGradient>
    <linearGradient inkscape:collect="always" id="linearGradient890">
      <stop style="stop-color:#23211d;stop-opacity:1" offset="0" id="stop886"/>
      <stop style="stop-color:#3f474b;stop-opacity:1" offset="1" id="stop888"/>
    </linearGradient>
    <linearGradient inkscape:collect="always" xlink:href="#linearGradient890" id="linearGradient892" x1="163.84251" y1="197.85826" x2="163.84251" y2="124" gradientUnits="userSpaceOnUse"/>
    <linearGradient inkscape:collect="always" xlink:href="#linearGradient919" id="linearGradient921" x1="160" y1="182.11389" x2="160" y2="138" gradientUnits="userSpaceOnUse"/>
    <linearGradient inkscape:collect="always" xlink:href="#linearGradient937" id="linearGradient939" x1="165.5748" y1="196.64023" x2="165.5748" y2="124" gradientUnits="userSpaceOnUse"/>
    <linearGradient inkscape:collect="always" xlink:href="#linearGradient951" id="linearGradient957" gradientUnits="userSpaceOnUse" x1="157.44095" y1="165" x2="152.50394" y2="178" gradientTransform="matrix(-1,0,0,1,319.97656,0)"/>
    <linearGradient inkscape:collect="always" xlink:href="#linearGradient951" id="linearGradient963" gradientUnits="userSpaceOnUse" x1="157.44095" y1="165" x2="152.50394" y2="178" gradientTransform="matrix(1,0,0,-1,0,321.42)"/>
    <linearGradient inkscape:collect="always" xlink:href="#linearGradient951" id="linearGradient965" gradientUnits="userSpaceOnUse" gradientTransform="rotate(-180,159.98828,160.71002)" x1="157.44095" y1="165" x2="152.50394" y2="178"/>
    <linearGradient inkscape:collect="always" xlink:href="#linearGradient951" id="linearGradient991" gradientUnits="userSpaceOnUse" x1="152.96036" y1="169.59766" x2="150.53516" y2="166.59766" gradientTransform="matrix(1,0,0,-1,-9.53516,354.59766)"/>
    <linearGradient inkscape:collect="always" xlink:href="#linearGradient951" id="linearGradient957-3" gradientUnits="userSpaceOnUse" x1="157.44095" y1="165" x2="152.50394" y2="178" gradientTransform="matrix(-1,0,0,1,159.98828,-160.75391)"/>
    <linearGradient inkscape:collect="always" xlink:href="#linearGradient951" id="linearGradient1036" gradientUnits="userSpaceOnUse" gradientTransform="matrix(-1,0,0,1,319.97656,0)" x1="162.53561" y1="165" x2="171.25215" y2="173"/>
    <linearGradient inkscape:collect="always" xlink:href="#linearGradient1062" id="linearGradient1064" x1="166.3307" y1="203.9016" x2="166.3307" y2="116" gradientUnits="userSpaceOnUse"/>
    <linearGradient inkscape:collect="always" xlink:href="#linearGradient937" id="linearGradient1073" gradientUnits="userSpaceOnUse" x1="165.5748" y1="196.64023" x2="165.5748" y2="124"/>
    <linearGradient gradientTransform="matrix(1.3333331,0,0,1.3333331,58.666708,58.666698)" inkscape:collect="always" xlink:href="#linearGradient937" id="linearGradient1073-3" gradientUnits="userSpaceOnUse" x1="165.5748" y1="196.64023" x2="165.5748" y2="124"/>
    <linearGradient gradientTransform="matrix(1.3333331,0,0,1.3333331,58.666708,58.666698)" inkscape:collect="always" xlink:href="#linearGradient919" id="linearGradient921-2" x1="160" y1="182.11389" x2="160" y2="138" gradientUnits="userSpaceOnUse"/>
    <linearGradient inkscape:collect="always" xlink:href="#linearGradient951" id="linearGradient1036-2" gradientUnits="userSpaceOnUse" gradientTransform="matrix(-1.3333331,0,0,1.3333331,485.30205,58.666698)" x1="162.53561" y1="165" x2="171.25215" y2="173"/>
    <linearGradient inkscape:collect="always" xlink:href="#linearGradient951" id="linearGradient957-9" gradientUnits="userSpaceOnUse" x1="157.44095" y1="165" x2="152.50394" y2="178" gradientTransform="matrix(-1.3333331,0,0,1.3333331,485.30205,58.666698)"/>
    <linearGradient inkscape:collect="always" xlink:href="#linearGradient951" id="linearGradient963-3" gradientUnits="userSpaceOnUse" x1="157.44095" y1="165" x2="152.50394" y2="178" gradientTransform="matrix(1.3333331,0,0,-1.3333331,58.666708,487.22662)"/>
    <linearGradient inkscape:collect="always" xlink:href="#linearGradient951" id="linearGradient965-6" gradientUnits="userSpaceOnUse" gradientTransform="matrix(-1.3333331,0,0,-1.3333331,485.30207,487.22668)" x1="157.44095" y1="165" x2="152.50394" y2="178"/>
    <linearGradient gradientTransform="matrix(0.66667093,0,0,0.66667093,-26.667364,-26.667346)" inkscape:collect="always" xlink:href="#linearGradient937" id="linearGradient1073-5" gradientUnits="userSpaceOnUse" x1="165.5748" y1="196.64023" x2="165.5748" y2="124"/>
    <linearGradient gradientTransform="matrix(0.66667093,0,0,0.66667093,-26.667364,-26.667346)" inkscape:collect="always" xlink:href="#linearGradient919" id="linearGradient921-28" x1="160" y1="182.11389" x2="160" y2="138" gradientUnits="userSpaceOnUse"/>
    <linearGradient inkscape:collect="always" xlink:href="#linearGradient951" id="linearGradient1036-3" gradientUnits="userSpaceOnUse" gradientTransform="matrix(-0.66667093,0,0,0.66667093,186.65171,-26.667346)" x1="162.53561" y1="165" x2="171.25215" y2="173"/>
    <linearGradient inkscape:collect="always" xlink:href="#linearGradient951" id="linearGradient957-2" gradientUnits="userSpaceOnUse" x1="157.44095" y1="165" x2="152.50394" y2="178" gradientTransform="matrix(-0.66667093,0,0,0.66667093,186.65171,-26.667346)"/>
    <linearGradient inkscape:collect="always" xlink:href="#linearGradient951" id="linearGradient963-9" gradientUnits="userSpaceOnUse" x1="157.44095" y1="165" x2="152.50394" y2="178" gradientTransform="matrix(0.66667093,0,0,-0.66667093,-26.667364,187.61402)"/>
    <linearGradient inkscape:collect="always" xlink:href="#linearGradient951" id="linearGradient965-3" gradientUnits="userSpaceOnUse" gradientTransform="matrix(-0.66667093,0,0,-0.66667093,186.65171,187.61405)" x1="157.44095" y1="165" x2="152.50394" y2="178"/>
    <linearGradient gradientTransform="matrix(0.49999736,0,0,0.49999736,-55.999599,-55.999578)" inkscape:collect="always" xlink:href="#linearGradient937" id="linearGradient1073-32" gradientUnits="userSpaceOnUse" x1="165.5748" y1="196.64023" x2="165.5748" y2="124"/>
    <linearGradient gradientTransform="matrix(0.49999736,0,0,0.49999736,-55.999599,-55.999578)" inkscape:collect="always" xlink:href="#linearGradient919" id="linearGradient921-1" x1="160" y1="182.11389" x2="160" y2="138" gradientUnits="userSpaceOnUse"/>
    <linearGradient inkscape:collect="always" xlink:href="#linearGradient951" id="linearGradient1036-4" gradientUnits="userSpaceOnUse" gradientTransform="matrix(-0.49999736,0,0,0.49999736,103.98784,-55.999578)" x1="162.53561" y1="165" x2="171.25215" y2="173"/>
    <linearGradient inkscape:collect="always" xlink:href="#linearGradient951" id="linearGradient957-5" gradientUnits="userSpaceOnUse" x1="157.44095" y1="165" x2="152.50394" y2="178" gradientTransform="matrix(-0.49999736,0,0,0.49999736,103.98784,-55.999578)"/>
    <linearGradient inkscape:collect="always" xlink:href="#linearGradient951" id="linearGradient963-6" gradientUnits="userSpaceOnUse" x1="157.44095" y1="165" x2="152.50394" y2="178" gradientTransform="matrix(0.49999736,0,0,-0.49999736,-55.999599,104.70957)"/>
    <linearGradient inkscape:collect="always" xlink:href="#linearGradient951" id="linearGradient965-9" gradientUnits="userSpaceOnUse" gradientTransform="matrix(-0.49999736,0,0,-0.49999736,103.98784,104.70959)" x1="157.44095" y1="165" x2="152.50394" y2="178"/>
    <linearGradient gradientTransform="matrix(0.33333546,0,0,0.33333546,-69.333702,-69.333674)" inkscape:collect="always" xlink:href="#linearGradient937" id="linearGradient1073-8" gradientUnits="userSpaceOnUse" x1="165.5748" y1="196.64023" x2="165.5748" y2="124"/>
    <linearGradient gradientTransform="matrix(0.33333546,0,0,0.33333546,-69.333702,-69.333674)" inkscape:collect="always" xlink:href="#linearGradient919" id="linearGradient921-14" x1="160" y1="182.11389" x2="160" y2="138" gradientUnits="userSpaceOnUse"/>
    <linearGradient gradientTransform="matrix(0.27426685,0,0,0.27426685,-87.882725,-87.943515)" inkscape:collect="always" xlink:href="#linearGradient919" id="linearGradient921-14-9" x1="160" y1="182.11389" x2="160" y2="138" gradientUnits="userSpaceOnUse"/>
    <linearGradient gradientTransform="matrix(0.24124709,0,0,0.24124709,-82.599567,-82.599535)" inkscape:collect="always" xlink:href="#linearGradient937" id="linearGradient1073-8-0" gradientUnits="userSpaceOnUse" x1="165.5748" y1="196.64023" x2="165.5748" y2="124"/>
    <linearGradient gradientTransform="matrix(0.14893698,0,0,0.14893698,-87.829957,-87.829915)" inkscape:collect="always" xlink:href="#linearGradient937" id="linearGradient1073-8-0-9" gradientUnits="userSpaceOnUse" x1="165.5748" y1="196.64023" x2="165.5748" y2="124"/>
    <linearGradient gradientTransform="matrix(0.19618943,0,0,0.19618943,-95.39034,-95.464324)" inkscape:collect="always" xlink:href="#linearGradient919" id="linearGradient921-14-9-6" x1="160" y1="182.11389" x2="160" y2="138" gradientUnits="userSpaceOnUse"/>
  </defs>
  <sodipodi:namedview pagecolor="#383c4a" bordercolor="#ffffff" borderopacity="0.62745098" objecttolerance="4" gridtolerance="10" guidetolerance="4" inkscape:pageopacity="0" inkscape:pageshadow="2" inkscape:window-width="640" inkscape:window-height="480" id="namedview20" showgrid="true" inkscape:zoom="32.578064" inkscape:cx="-61.617454" inkscape:cy="112.57787" inkscape:current-layer="layer6" inkscape:snap-smooth-nodes="false" showguides="true" borderlayer="true" inkscape:showpageshadow="false" inkscape:guide-bbox="true" guidecolor="#bd4fff" guideopacity="0.78431373" inkscape:snap-nodes="true" inkscape:lockguides="false" fit-margin-top="0" fit-margin-left="0" fit-margin-right="0" fit-margin-bottom="0" guidehicolor="#ff0101" guidehiopacity="0.78431373" inkscape:snap-page="true" inkscape:object-nodes="true" inkscape:snap-bbox="true" inkscape:snap-global="true" inkscape:snap-object-midpoints="false" inkscape:snap-bbox-edge-midpoints="false">
    <inkscape:grid type="xygrid" id="grid4171" empspacing="4" dotted="false" originx="2.7755576e-17" originy="0" spacingx="1" spacingy="1" color="#5a5a5a" opacity="0.23529412" empcolor="#5a5a5a" empopacity="0.47058824" visible="true"/>
    <inkscape:grid type="axonomgrid" id="grid4699" units="mm" empspacing="4" color="#5a5a5a" opacity="0.23529412" empcolor="#5a5a5a" empopacity="0.47058824" gridanglex="45" gridanglez="45" spacingy="3.7795276" visible="false" originx="1.3228346" originy="1.3228346"/>
    <sodipodi:guide position="48,0" orientation="1,0" id="guide4568" inkscape:locked="false" inkscape:label="" inkscape:color="rgb(189,79,255)"/>
    <sodipodi:guide position="111.99996,-3.9999999e-05" orientation="0,1" id="guide4570" inkscape:locked="false" inkscape:label="" inkscape:color="rgb(189,79,255)"/>
    <sodipodi:guide position="0,0" orientation="1,0" id="guide4572" inkscape:locked="false" inkscape:label="" inkscape:color="rgb(189,79,255)"/>
    <sodipodi:guide position="0,48" orientation="0,1" id="guide4574" inkscape:locked="false" inkscape:label="" inkscape:color="rgb(189,79,255)"/>
    <sodipodi:guide position="0,80" orientation="0,1" id="guide4576" inkscape:locked="false" inkscape:label="" inkscape:color="rgb(189,79,255)"/>
    <sodipodi:guide position="-32,48" orientation="1,0" id="guide4578" inkscape:locked="false" inkscape:label="" inkscape:color="rgb(189,79,255)"/>
    <sodipodi:guide position="-32,104" orientation="0,1" id="guide4580" inkscape:locked="false" inkscape:label="" inkscape:color="rgb(189,79,255)"/>
    <sodipodi:guide position="-56,80" orientation="1,0" id="guide4582" inkscape:locked="false" inkscape:label="" inkscape:color="rgb(189,79,255)"/>
    <sodipodi:guide position="48,-64" orientation="0,1" id="guide4584" inkscape:locked="false" inkscape:label="" inkscape:color="rgb(189,79,255)"/>
    <sodipodi:guide position="0,0" orientation="-0.70710678,0.70710678" id="guide4588" inkscape:locked="false" inkscape:label="" inkscape:color="rgb(189,79,255)"/>
    <sodipodi:guide position="-56,80" orientation="-0.70710678,0.70710678" id="guide4573" inkscape:locked="false" inkscape:label="" inkscape:color="rgb(189,79,255)"/>
    <sodipodi:guide position="-32,48" orientation="-0.70710678,0.70710678" id="guide4575" inkscape:locked="false" inkscape:label="" inkscape:color="rgb(189,79,255)"/>
    <sodipodi:guide position="48,-64" orientation="-0.70710678,0.70710678" id="guide4577" inkscape:locked="false" inkscape:label="" inkscape:color="rgb(189,79,255)"/>
    <sodipodi:guide position="47.999962,0" orientation="0.70710678,0.70710678" id="guide4697" inkscape:locked="false" inkscape:label="" inkscape:color="rgb(189,79,255)"/>
    <sodipodi:guide position="207.99995,-288" orientation="0,1" id="guide7833" inkscape:locked="false"/>
    <sodipodi:guide position="335.99994,-288" orientation="1,0" id="guide7835" inkscape:locked="false" inkscape:label="" inkscape:color="rgb(189,79,255)"/>
    <sodipodi:guide position="111.99996,-64" orientation="1,0" id="guide7915" inkscape:locked="false"/>
    <sodipodi:guide position="111.99996,-160" orientation="0,1" id="guide7917" inkscape:locked="false"/>
    <sodipodi:guide position="207.99996,-160" orientation="1,0" id="guide7919" inkscape:locked="false"/>
    <sodipodi:guide position="111.99996,-160" orientation="-0.70710678,0.70710678" id="guide7921" inkscape:locked="false" inkscape:label="" inkscape:color="rgb(189,79,255)"/>
    <sodipodi:guide position="207.99996,-288" orientation="-0.70710678,0.70710678" id="guide7923" inkscape:locked="false" inkscape:label="" inkscape:color="rgb(189,79,255)"/>
    <sodipodi:guide position="-72,104" orientation="1,0" id="guide7824" inkscape:locked="false"/>
    <sodipodi:guide position="-56,120" orientation="0,1" id="guide7826" inkscape:locked="false"/>
    <sodipodi:guide position="-72,104" orientation="-0.70710678,0.70710678" id="guide7828" inkscape:locked="false" inkscape:label="" inkscape:color="rgb(189,79,255)"/>
  </sodipodi:namedview>
  <g inkscape:groupmode="layer" id="g7907" inkscape:label="icon_64" style="display:inline" transform="translate(-48,-48)">
    <g inkscape:groupmode="layer" id="g7843" inkscape:label="frame" style="display:none">
      <rect inkscape:label="frame_64" y="48" x="48" height="64" width="64" id="rect7837" style="color:#000000;clip-rule:nonzero;display:inline;overflow:visible;visibility:visible;opacity:1;isolation:auto;mix-blend-mode:normal;color-interpolation:sRGB;color-interpolation-filters:linearRGB;solid-color:#000000;solid-opacity:1;vector-effect:none;fill:#000000;fill-opacity:1;fill-rule:nonzero;stroke:#ff24f7;stroke-width:0;stroke-linecap:square;stroke-linejoin:miter;stroke-miterlimit:4;stroke-dasharray:none;stroke-dashoffset:0;stroke-opacity:0.99481865;marker:none;marker-start:none;marker-mid:none;marker-end:none;paint-order:normal;color-rendering:auto;image-rendering:auto;shape-rendering:auto;text-rendering:auto;enable-background:accumulate"/>
      <text xml:space="preserve" style="font-size:16px;line-height:0%;font-family:sans-serif;letter-spacing:0px;word-spacing:0px;display:inline;opacity:1;fill:#ffffff;fill-opacity:1;stroke:none;stroke-width:0.03278551px;stroke-linecap:butt;stroke-linejoin:miter;stroke-opacity:1" x="69.816406" y="85.824219" id="text7841" inkscape:label="txt_64">
        <tspan sodipodi:role="line" x="69.816406" y="85.824219" style="font-size:16px;line-height:0%;fill:#ffffff;fill-opacity:1;stroke:none;stroke-width:0.03278551px" id="tspan7839">64</tspan>
      </text>
    </g>
    <g inkscape:groupmode="layer" id="g7905" inkscape:label="icon" style="display:inline">
      <path d="m 112.00016,80 c 0,2.240015 -14.060191,26.59299 -16.000101,27.71299 -1.939909,1.12001 -30.0603,1.12001 -32.00021,0 C 62.05994,106.59299 47.999744,82.240015 47.999744,80 c 0,-2.240015 14.060196,-26.592987 16.000105,-27.712995 1.93991,-1.120007 30.060301,-1.120007 32.00021,0 C 97.939969,53.407013 112.00016,77.759985 112.00016,80 Z" inkscape:randomized="0" inkscape:rounded="0.07" inkscape:flatsided="true" sodipodi:arg2="0.52359878" sodipodi:arg1="0" sodipodi:r2="27.712994" sodipodi:r1="32.00021" sodipodi:cy="80" sodipodi:cx="79.999954" sodipodi:sides="6" id="path941-1" style="color:#000000;clip-rule:nonzero;display:block;overflow:visible;visibility:visible;opacity:1;isolation:auto;mix-blend-mode:normal;color-interpolation:sRGB;color-interpolation-filters:linearRGB;solid-color:#000000;solid-opacity:1;vector-effect:none;fill:#000000;fill-opacity:0.42307691;fill-rule:nonzero;stroke:none;stroke-width:5.95369911;stroke-linecap:butt;stroke-linejoin:miter;stroke-miterlimit:4;stroke-dasharray:none;stroke-dashoffset:0;stroke-opacity:1;marker:none;marker-start:none;marker-mid:none;marker-end:none;paint-order:fill markers stroke;color-rendering:auto;image-rendering:auto;shape-rendering:auto;text-rendering:auto;enable-background:accumulate" sodipodi:type="star"/>
      <path sodipodi:type="star" style="color:#000000;clip-rule:nonzero;display:block;overflow:visible;visibility:visible;opacity:1;isolation:auto;mix-blend-mode:normal;color-interpolation:sRGB;color-interpolation-filters:linearRGB;solid-color:#000000;solid-opacity:1;vector-effect:none;fill:url(#linearGradient1073-5);fill-opacity:1;fill-rule:nonzero;stroke:none;stroke-width:5.82966852;stroke-linecap:butt;stroke-linejoin:miter;stroke-miterlimit:4;stroke-dasharray:none;stroke-dashoffset:0;stroke-opacity:1;marker:none;marker-start:none;marker-mid:none;marker-end:none;paint-order:fill markers stroke;color-rendering:auto;image-rendering:auto;shape-rendering:auto;text-rendering:auto;enable-background:accumulate" id="path931-9" sodipodi:sides="6" sodipodi:cx="79.999954" sodipodi:cy="80" sodipodi:r1="31.333565" sodipodi:r2="27.135664" sodipodi:arg1="0" sodipodi:arg2="0.52359878" inkscape:flatsided="true" inkscape:rounded="0.07" inkscape:randomized="0" d="m 111.33352,80 c 0,2.19335 -13.767287,26.03899 -15.666783,27.13566 -1.899497,1.09668 -29.434069,1.09668 -31.333565,0 C 62.433675,106.03899 48.666389,82.19335 48.666389,80 c 0,-2.19335 13.767286,-26.038988 15.666783,-27.135663 1.899496,-1.096675 29.434068,-1.096675 31.333565,0 C 97.566233,53.961012 111.33352,77.80665 111.33352,80 Z"/>
      <path d="m 106.66682,80 c 0,1.866681 -11.716839,22.16084 -13.333432,23.09419 -1.616593,0.93334 -25.050275,0.93334 -26.666868,0 C 65.049927,102.16084 53.333086,81.866681 53.333086,80 c 0,-1.866681 11.716841,-22.160845 13.333434,-23.094185 1.616593,-0.933341 25.050275,-0.933341 26.666868,0 C 94.949981,57.839155 106.66682,78.133319 106.66682,80 Z" inkscape:randomized="0" inkscape:rounded="0.07" inkscape:flatsided="true" sodipodi:arg2="0.52359878" sodipodi:arg1="0" sodipodi:r2="23.094185" sodipodi:r1="26.666868" sodipodi:cy="80" sodipodi:cx="79.999954" sodipodi:sides="6" id="path927-4" style="color:#000000;clip-rule:nonzero;display:block;overflow:visible;visibility:visible;opacity:1;isolation:auto;mix-blend-mode:normal;color-interpolation:sRGB;color-interpolation-filters:linearRGB;solid-color:#000000;solid-opacity:1;vector-effect:none;fill:#f6f5f4;fill-opacity:0.09890113;fill-rule:nonzero;stroke:none;stroke-width:4.96142054;stroke-linecap:butt;stroke-linejoin:miter;stroke-miterlimit:4;stroke-dasharray:none;stroke-dashoffset:0;stroke-opacity:1;marker:none;marker-start:none;marker-mid:none;marker-end:none;paint-order:fill markers stroke;color-rendering:auto;image-rendering:auto;shape-rendering:auto;text-rendering:auto;enable-background:accumulate" sodipodi:type="star"/>
      <path sodipodi:type="star" style="color:#000000;clip-rule:nonzero;display:block;overflow:visible;visibility:visible;opacity:1;isolation:auto;mix-blend-mode:normal;color-interpolation:sRGB;color-interpolation-filters:linearRGB;solid-color:#000000;solid-opacity:1;vector-effect:none;fill:#f6f5f4;fill-opacity:0.09890113;fill-rule:nonzero;stroke:none;stroke-width:4.34124374;stroke-linecap:butt;stroke-linejoin:miter;stroke-miterlimit:4;stroke-dasharray:none;stroke-dashoffset:0;stroke-opacity:1;marker:none;marker-start:none;marker-mid:none;marker-end:none;paint-order:fill markers stroke;color-rendering:auto;image-rendering:auto;shape-rendering:auto;text-rendering:auto;enable-background:accumulate" id="path925-7" sodipodi:sides="6" sodipodi:cx="79.999954" sodipodi:cy="80" sodipodi:r1="23.333513" sodipodi:r2="20.207415" sodipodi:arg1="0" sodipodi:arg2="0.52359878" inkscape:flatsided="true" inkscape:rounded="0.07" inkscape:randomized="0" d="m 103.33347,80 c 0,1.633346 -10.25224,19.390742 -11.666759,20.20742 -1.414519,0.81667 -21.918994,0.81667 -23.333513,0 C 66.918679,99.390742 56.666441,81.633346 56.666441,80 c 0,-1.633346 10.252238,-19.390742 11.666757,-20.207415 1.414519,-0.816673 21.918994,-0.816673 23.333513,0 C 93.08123,60.609258 103.33347,78.366654 103.33347,80 Z"/>
      <path inkscape:connector-curvature="0" id="path982-8" d="m 79.999987,52.041487 c -7.358514,0 -14.717021,0.274582 -15.666767,0.822926 -1.899499,1.096673 -15.666767,24.942239 -15.666767,27.135586 0,0.08012 0.02313,0.197602 0.0586,0.333336 0.93608,-3.58019 13.778062,-25.745638 15.608174,-26.802252 1.899498,-1.09668 29.434032,-1.09668 31.333531,0 1.830112,1.056614 14.672092,23.222062 15.608172,26.802252 0.0355,-0.135734 0.0586,-0.253215 0.0586,-0.333336 0,-2.193347 -13.767266,-26.038913 -15.666765,-27.135586 C 94.717019,52.316069 87.358514,52.041487 80,52.041487 Z" style="color:#000000;clip-rule:nonzero;display:inline;overflow:visible;visibility:visible;opacity:1;isolation:auto;mix-blend-mode:normal;color-interpolation:sRGB;color-interpolation-filters:linearRGB;solid-color:#000000;solid-opacity:1;vector-effect:none;fill:#f5deb2;fill-opacity:0.24725276;fill-rule:nonzero;stroke:none;stroke-width:5.82966852;stroke-linecap:butt;stroke-linejoin:miter;stroke-miterlimit:4;stroke-dasharray:none;stroke-dashoffset:0;stroke-opacity:1;marker:none;marker-start:none;marker-mid:none;marker-end:none;paint-order:fill markers stroke;color-rendering:auto;image-rendering:auto;shape-rendering:auto;text-rendering:auto;enable-background:accumulate"/>
      <path style="color:#000000;font-style:normal;font-variant:normal;font-weight:normal;font-stretch:normal;font-size:medium;line-height:normal;font-family:sans-serif;font-variant-ligatures:normal;font-variant-position:normal;font-variant-caps:normal;font-variant-numeric:normal;font-variant-alternates:normal;font-feature-settings:normal;text-indent:0;text-align:start;text-decoration:none;text-decoration-line:none;text-decoration-style:solid;text-decoration-color:#000000;letter-spacing:normal;word-spacing:normal;text-transform:none;writing-mode:lr-tb;direction:ltr;text-orientation:mixed;dominant-baseline:auto;baseline-shift:baseline;text-anchor:start;white-space:normal;shape-padding:0;clip-rule:nonzero;display:block;overflow:visible;visibility:visible;opacity:1;isolation:auto;mix-blend-mode:normal;color-interpolation:sRGB;color-interpolation-filters:linearRGB;solid-color:#000000;solid-opacity:1;vector-effect:none;fill:#000000;fill-opacity:0.2142857;fill-rule:nonzero;stroke:none;stroke-width:4.00002575;stroke-linecap:butt;stroke-linejoin:miter;stroke-miterlimit:4;stroke-dasharray:none;stroke-dashoffset:0;stroke-opacity:1;marker:none;paint-order:fill markers stroke;color-rendering:auto;image-rendering:auto;shape-rendering:auto;text-rendering:auto;enable-background:accumulate" d="m 79.999987,64.00901 c -2.10616,0 -4.2089,0.037 -5.886758,0.114588 -0.838925,0.0388 -1.567643,0.08704 -2.16928,0.151041 -0.300822,0.032 -0.567964,0.06726 -0.830739,0.117187 -0.262768,0.04993 -0.461423,0.03667 -0.988286,0.332036 -0.52687,0.295348 -0.617058,0.470676 -0.792972,0.666671 -0.175928,0.195994 -0.340582,0.402376 -0.519537,0.639324 -0.357909,0.473896 -0.764698,1.062686 -1.218761,1.748711 -0.908139,1.372055 -1.992506,3.122253 -3.045586,4.893258 -1.05308,1.771004 -2.070153,3.556896 -2.839865,5.006545 -0.384862,0.724831 -0.708098,1.361849 -0.951826,1.899752 -0.121867,0.268949 -0.224348,0.51059 -0.311202,0.756512 -0.08685,0.245921 -0.197921,0.408009 -0.197921,0.998706 0,0.590697 0.111074,0.752785 0.197921,0.998707 0.08685,0.245921 0.189335,0.487563 0.311202,0.756511 0.243728,0.537904 0.566964,1.174921 0.951826,1.899752 0.769712,1.449649 1.786785,3.235541 2.839865,5.006546 0.679098,1.142067 1.353142,2.232801 2.002613,3.26174 l -2.783498,8.073843 7.043945,-3.112877 c 0.103854,0.02147 0.201455,0.0382 0.302082,0.05727 0.262775,0.04993 0.529917,0.08519 0.830739,0.117188 0.601637,0.064 1.330355,0.112247 2.16928,0.151041 1.677858,0.07759 3.780598,0.114587 5.886758,0.114587 2.106167,0 4.2076,-0.037 5.885451,-0.114587 0.838925,-0.0388 1.56895,-0.08704 2.170587,-0.151041 0.300822,-0.032 0.567957,-0.06726 0.830739,-0.117188 0.262768,-0.04993 0.461416,-0.03667 0.988286,-0.332035 0.52687,-0.295349 0.617057,-0.470677 0.792972,-0.666671 0.175921,-0.195995 0.340582,-0.402376 0.519536,-0.639324 0.357903,-0.473897 0.764698,-1.062687 1.218761,-1.748711 0.90814,-1.372056 1.992498,-3.122254 3.045585,-4.893259 1.05308,-1.771005 2.070146,-3.556896 2.839864,-5.006545 0.384863,-0.724832 0.706798,-1.361849 0.950526,-1.899753 0.121868,-0.268948 0.225649,-0.51059 0.312502,-0.756511 0.08685,-0.245922 0.197922,-0.408009 0.197922,-0.998706 0,-0.590698 -0.111068,-0.752785 -0.197922,-0.998707 C 99.467946,80.08869 99.364162,79.847048 99.242294,79.5781 98.99856,79.040193 98.676631,78.403176 98.291768,77.678344 97.52205,76.228695 96.504984,74.442804 95.451904,72.671799 94.398817,70.900794 93.314445,69.150597 92.406319,67.778541 91.95225,67.092517 91.545461,66.503726 91.187558,66.02983 91.008604,65.792882 90.843943,65.586501 90.668022,65.390506 90.492107,65.194511 90.40192,65.019184 89.87505,64.723835 89.34818,64.428486 89.149532,64.441733 88.886764,64.3918 c -0.262782,-0.04993 -0.529917,-0.08519 -0.830739,-0.117188 -0.601637,-0.064 -1.331655,-0.112247 -2.170587,-0.151041 -1.677851,-0.07759 -3.779284,-0.114587 -5.885451,-0.114587 z m 0,3.941432 c 2.055746,0 4.116186,0.03773 5.694049,0.110681 0.228409,0.01053 0.349489,0.027 0.555991,0.03907 l -6.285194,9.356833 -6.363327,-9.34772 c 0.253208,-0.01567 0.415082,-0.0348 0.704431,-0.0482 1.57787,-0.07297 3.63831,-0.110681 5.69405,-0.110681 z m 9.937563,3.440129 c 0.642091,1.014573 1.316422,2.103893 1.998713,3.251321 1.027873,1.728611 2.024858,3.479215 2.748709,4.842477 0.361929,0.681638 0.656164,1.269862 0.842459,1.681004 0.03493,0.07711 0.0436,0.104921 0.07031,0.167968 -0.02673,0.06307 -0.0354,0.09085 -0.07031,0.167968 -0.186295,0.411143 -0.48053,0.999366 -0.842459,1.681004 -0.723851,1.363262 -1.720836,3.113867 -2.748709,4.842478 -0.782025,1.315155 -1.556743,2.560636 -2.272154,3.67841 l -6.73051,-9.886783 z m -19.948041,0.113281 7.033899,10.332099 -6.658896,9.911517 C 69.641981,90.619967 68.856102,89.357386 68.06371,88.024791 67.035837,86.29618 66.038851,84.545575 65.315,83.182313 c -0.361929,-0.681638 -0.656165,-1.269861 -0.842459,-1.681004 -0.03493,-0.07711 -0.0436,-0.104927 -0.07031,-0.167968 0.02673,-0.06307 0.0354,-0.09085 0.07031,-0.167968 0.186294,-0.411142 0.48053,-0.999366 0.842459,-1.681004 0.723851,-1.363262 1.720837,-3.113866 2.74871,-4.842477 0.655798,-1.102874 1.304562,-2.153634 1.925799,-3.13804 z m 10.002664,14.6915 5.723997,8.408908 c -0.0091,4.2e-4 -0.01307,6.33e-4 -0.02213,0.0013 -1.577863,0.07297 -3.638303,0.110681 -5.694049,0.110681 -2.042193,0 -4.085126,-0.0374 -5.65889,-0.109374 z" id="path923-4" inkscape:connector-curvature="0" sodipodi:nodetypes="ccccccscscccsccccccccccsccccccccscssscsccccscccccccccccccccscccscccccccsscccscccccscc"/>
      <path style="color:#000000;font-style:normal;font-variant:normal;font-weight:normal;font-stretch:normal;font-size:medium;line-height:normal;font-family:sans-serif;font-variant-ligatures:normal;font-variant-position:normal;font-variant-caps:normal;font-variant-numeric:normal;font-variant-alternates:normal;font-feature-settings:normal;text-indent:0;text-align:start;text-decoration:none;text-decoration-line:none;text-decoration-style:solid;text-decoration-color:#000000;letter-spacing:normal;word-spacing:normal;text-transform:none;writing-mode:lr-tb;direction:ltr;text-orientation:mixed;dominant-baseline:auto;baseline-shift:baseline;text-anchor:start;white-space:normal;shape-padding:0;clip-rule:nonzero;display:block;overflow:visible;visibility:visible;opacity:1;isolation:auto;mix-blend-mode:normal;color-interpolation:sRGB;color-interpolation-filters:linearRGB;solid-color:#000000;solid-opacity:1;vector-effect:none;fill:url(#linearGradient921-28);fill-opacity:1;fill-rule:nonzero;stroke:none;stroke-width:0.66667092;stroke-linecap:butt;stroke-linejoin:miter;stroke-miterlimit:4;stroke-dasharray:none;stroke-dashoffset:0;stroke-opacity:0.28021982;marker:none;paint-order:fill markers stroke;color-rendering:auto;image-rendering:auto;shape-rendering:auto;text-rendering:auto;enable-background:accumulate" d="m 79.999987,62.675669 c -2.10616,0 -4.2089,0.037 -5.886758,0.114587 -0.838925,0.0388 -1.567643,0.08704 -2.16928,0.151041 -0.300822,0.032 -0.567964,0.06726 -0.830739,0.117187 -0.262768,0.04993 -0.461423,0.03667 -0.988286,0.332036 -0.52687,0.295348 -0.617058,0.470676 -0.792972,0.666671 -0.175928,0.195994 -0.340582,0.402376 -0.519537,0.639324 -0.357909,0.473896 -0.764698,1.062687 -1.218761,1.748711 -0.908139,1.372055 -1.992506,3.122253 -3.045586,4.893258 -1.05308,1.771005 -2.070153,3.556896 -2.839865,5.006545 -0.384862,0.724832 -0.708098,1.361849 -0.951826,1.899752 -0.121867,0.268949 -0.224348,0.51059 -0.311202,0.756512 -0.08685,0.245922 -0.197921,0.408009 -0.197921,0.998706 0,0.590697 0.111074,0.752785 0.197921,0.998707 0.08685,0.245921 0.189335,0.487563 0.311202,0.756511 0.243728,0.537904 0.566964,1.174921 0.951826,1.899752 0.769712,1.44965 1.786785,3.235541 2.839865,5.006546 0.672891,1.131627 1.341382,2.212981 1.985686,3.234394 l -2.743504,8.770891 6.884157,-3.815132 c 0.167995,0.04953 0.295949,0.06267 0.438803,0.08985 0.262775,0.04993 0.529917,0.08519 0.830739,0.117187 0.601637,0.064 1.330355,0.112248 2.16928,0.151041 1.677858,0.07759 3.780598,0.114588 5.886758,0.114588 2.106167,0 4.2076,-0.037 5.885451,-0.114588 0.838925,-0.0388 1.56895,-0.08704 2.170587,-0.151041 0.300822,-0.032 0.567957,-0.06726 0.830739,-0.117187 0.262768,-0.04993 0.461416,-0.03667 0.988286,-0.332035 0.52687,-0.295349 0.617057,-0.470677 0.792972,-0.666671 0.175921,-0.195995 0.340582,-0.402376 0.519536,-0.639324 0.357903,-0.473897 0.764698,-1.062687 1.218761,-1.748712 0.90814,-1.372056 1.992498,-3.122254 3.045585,-4.893258 1.05308,-1.771005 2.070146,-3.556896 2.839864,-5.006546 0.384863,-0.724831 0.706798,-1.361848 0.950526,-1.899752 0.121868,-0.268948 0.225649,-0.51059 0.312502,-0.756511 0.08685,-0.245922 0.197922,-0.40801 0.197922,-0.998707 0,-0.590697 -0.111068,-0.752784 -0.197922,-0.998706 -0.08685,-0.245922 -0.190634,-0.487563 -0.312502,-0.756512 -0.243734,-0.537903 -0.565663,-1.17492 -0.950526,-1.899752 -0.769718,-1.449649 -1.786784,-3.23554 -2.839864,-5.006545 -1.053087,-1.771005 -2.137459,-3.521203 -3.045585,-4.893258 -0.454069,-0.686024 -0.860858,-1.274815 -1.218761,-1.748711 -0.178954,-0.236948 -0.343615,-0.44333 -0.519536,-0.639324 -0.175915,-0.195995 -0.266102,-0.371323 -0.792972,-0.666671 -0.52687,-0.295349 -0.725518,-0.282102 -0.988286,-0.332036 -0.262782,-0.04993 -0.529917,-0.08519 -0.830739,-0.117187 -0.601637,-0.064 -1.331655,-0.112247 -2.170587,-0.151041 -1.677851,-0.07759 -3.779284,-0.114587 -5.885451,-0.114587 z m 0,3.941431 c 2.055746,0 4.116186,0.03773 5.694049,0.110681 0.228409,0.01053 0.349489,0.027 0.555991,0.03907 l -6.285194,9.356833 -6.363327,-9.34772 c 0.253208,-0.01567 0.415082,-0.0348 0.704431,-0.0482 1.57787,-0.07297 3.63831,-0.110681 5.69405,-0.110681 z m 9.937563,3.440129 c 0.642091,1.014573 1.316422,2.103894 1.998713,3.251321 1.027873,1.728611 2.024858,3.479215 2.748709,4.842478 0.361929,0.681637 0.656164,1.269861 0.842459,1.681004 0.03493,0.07711 0.0436,0.10492 0.07031,0.167967 -0.02673,0.06307 -0.0354,0.09085 -0.07031,0.167968 -0.186295,0.411143 -0.48053,0.999366 -0.842459,1.681004 -0.723851,1.363262 -1.720836,3.113867 -2.748709,4.842478 -0.782025,1.315155 -1.556743,2.560636 -2.272154,3.67841 l -6.73051,-9.886783 z m -19.948041,0.113281 7.033899,10.332099 -6.658896,9.911517 C 69.641981,89.286625 68.856102,88.024044 68.06371,86.691449 67.035837,84.962838 66.038851,83.212233 65.315,81.848971 64.953071,81.167333 64.658835,80.57911 64.472541,80.167967 c -0.03493,-0.07711 -0.0436,-0.104927 -0.07031,-0.167968 0.02673,-0.06307 0.0354,-0.09085 0.07031,-0.167967 0.186294,-0.411143 0.48053,-0.999367 0.842459,-1.681004 0.723851,-1.363263 1.720837,-3.113867 2.74871,-4.842478 0.655798,-1.102874 1.304562,-2.153634 1.925799,-3.13804 z m 10.002664,14.6915 5.723997,8.408908 c -0.0091,4.2e-4 -0.01307,6.33e-4 -0.02213,0.0013 -1.577863,0.07297 -3.638303,0.110681 -5.694049,0.110681 -2.042193,0 -4.085126,-0.0374 -5.65889,-0.109374 z" id="path902-5" inkscape:connector-curvature="0" sodipodi:nodetypes="scccccscscccscccsccccccsccccccccscssscsccccscccsccccccccccscccscccccccsscccscccccscc"/>
      <path style="display:inline;opacity:1;vector-effect:none;fill:url(#linearGradient1036-3);fill-opacity:1;fill-rule:evenodd;stroke:none;stroke-width:0.66667092px;stroke-linecap:butt;stroke-linejoin:miter;stroke-miterlimit:4;stroke-dasharray:none;stroke-dashoffset:0;stroke-opacity:1" d="M 70.364512,90.414126 79.992173,84.86201 77.023408,80.502609 Z" id="path945-0" inkscape:connector-curvature="0" sodipodi:nodetypes="cccc"/>
      <path sodipodi:nodetypes="cccc" inkscape:connector-curvature="0" id="path955-3" d="M 89.664109,90.369859 79.992173,84.86201 82.960939,80.502609 Z" style="display:inline;fill:url(#linearGradient957-2);fill-opacity:1;fill-rule:evenodd;stroke:none;stroke-width:0.66667092px;stroke-linecap:butt;stroke-linejoin:miter;stroke-opacity:1"/>
      <path sodipodi:nodetypes="cccc" inkscape:connector-curvature="0" id="path959-6" d="m 69.989509,70.17051 9.975324,5.953171 -2.941425,4.378928 z" style="display:inline;fill:url(#linearGradient963-9);fill-opacity:1;fill-rule:evenodd;stroke:none;stroke-width:0.66667092px;stroke-linecap:butt;stroke-linejoin:miter;stroke-opacity:1"/>
      <path style="display:inline;fill:url(#linearGradient965-3);fill-opacity:1;fill-rule:evenodd;stroke:none;stroke-width:0.66667092px;stroke-linecap:butt;stroke-linejoin:miter;stroke-opacity:1" d="m 90.000051,70.083929 -10.035218,6.039752 2.968766,4.359395 z" id="path961-1" inkscape:connector-curvature="0" sodipodi:nodetypes="cccc"/>
      <path style="color:#000000;font-style:normal;font-variant:normal;font-weight:normal;font-stretch:normal;font-size:medium;line-height:normal;font-family:sans-serif;font-variant-ligatures:normal;font-variant-position:normal;font-variant-caps:normal;font-variant-numeric:normal;font-variant-alternates:normal;font-feature-settings:normal;text-indent:0;text-align:start;text-decoration:none;text-decoration-line:none;text-decoration-style:solid;text-decoration-color:#000000;letter-spacing:normal;word-spacing:normal;text-transform:none;writing-mode:lr-tb;direction:ltr;text-orientation:mixed;dominant-baseline:auto;baseline-shift:baseline;text-anchor:start;white-space:normal;shape-padding:0;clip-rule:nonzero;display:block;overflow:visible;visibility:visible;opacity:1;isolation:auto;mix-blend-mode:normal;color-interpolation:sRGB;color-interpolation-filters:linearRGB;solid-color:#000000;solid-opacity:1;vector-effect:none;fill:#f5edb2;fill-opacity:0.38461543;fill-rule:nonzero;stroke:none;stroke-width:0.66667092;stroke-linecap:butt;stroke-linejoin:miter;stroke-miterlimit:4;stroke-dasharray:none;stroke-dashoffset:0;stroke-opacity:0.28021982;marker:none;paint-order:fill markers stroke;color-rendering:auto;image-rendering:auto;shape-rendering:auto;text-rendering:auto;enable-background:accumulate" d="m 79.999987,62.675669 c -2.10616,0 -4.2089,0.037 -5.886758,0.114587 -0.838925,0.0388 -1.567643,0.08704 -2.16928,0.151041 -0.300822,0.032 -0.567964,0.06726 -0.830739,0.117187 -0.262768,0.04993 -0.461423,0.03667 -0.988286,0.332036 -0.52687,0.295348 -0.617058,0.470676 -0.792972,0.666671 -0.175928,0.195994 -0.340582,0.402376 -0.519537,0.639324 -0.357909,0.473896 -0.764698,1.062687 -1.218761,1.748711 -0.908139,1.372055 -1.992506,3.122253 -3.045586,4.893258 -1.05308,1.771005 -2.070153,3.556896 -2.839865,5.006545 -0.384862,0.724832 -0.708098,1.361849 -0.951826,1.899752 -0.121867,0.268949 -0.224348,0.51059 -0.311202,0.756512 -0.08685,0.245922 -0.197921,0.408009 -0.197921,0.998706 0,0.132661 0.0073,0.238109 0.01693,0.333336 0.0334,-0.328802 0.113648,-0.474677 0.180995,-0.665371 0.08685,-0.245922 0.189334,-0.487563 0.311202,-0.756512 0.243728,-0.537903 0.566963,-1.17492 0.951826,-1.899752 0.769711,-1.449649 1.786785,-3.23554 2.839865,-5.006545 1.05308,-1.771005 2.137447,-3.521203 3.045586,-4.893258 0.454063,-0.686024 0.860852,-1.274815 1.218761,-1.748711 0.178954,-0.236948 0.343609,-0.44333 0.519537,-0.639324 0.175914,-0.195995 0.266101,-0.371323 0.792971,-0.666671 0.526864,-0.295369 0.725518,-0.282102 0.988287,-0.332036 0.262775,-0.04993 0.529916,-0.08519 0.830738,-0.117187 0.601637,-0.064 1.330355,-0.112241 2.169281,-0.151041 1.677857,-0.07759 3.780597,-0.114587 5.886757,-0.114587 2.106167,0 4.207601,0.037 5.885451,0.114587 0.838932,0.0388 1.56895,0.08704 2.170588,0.151041 0.300822,0.032 0.567957,0.06725 0.830738,0.117187 0.262769,0.04993 0.461417,0.03667 0.988287,0.332036 0.52687,0.295348 0.617057,0.470676 0.792971,0.666671 0.175921,0.195994 0.340582,0.402376 0.519537,0.639324 0.357902,0.473896 0.764691,1.062687 1.218761,1.748711 0.908119,1.372055 1.992497,3.122253 3.045584,4.893258 1.05308,1.771005 2.070147,3.556896 2.839865,5.006545 0.384862,0.724832 0.706791,1.361849 0.950526,1.899752 0.121868,0.268949 0.225648,0.51059 0.312502,0.756512 0.06735,0.190694 0.147601,0.336569 0.180995,0.665371 0.0097,-0.09523 0.01693,-0.200675 0.01693,-0.333336 0,-0.590697 -0.111067,-0.752784 -0.197921,-0.998706 -0.08685,-0.245922 -0.190635,-0.487563 -0.312502,-0.756512 -0.243735,-0.537903 -0.565664,-1.17492 -0.950526,-1.899752 -0.769719,-1.449649 -1.786785,-3.23554 -2.839865,-5.006545 -1.053087,-1.771005 -2.137465,-3.521203 -3.045584,-4.893258 -0.45407,-0.686024 -0.860859,-1.274815 -1.218761,-1.748711 -0.178955,-0.236948 -0.343616,-0.44333 -0.519537,-0.639324 -0.175915,-0.195995 -0.266102,-0.371323 -0.792972,-0.666671 -0.52687,-0.295349 -0.725518,-0.282102 -0.988286,-0.332036 -0.262782,-0.04993 -0.529917,-0.08519 -0.830739,-0.117187 -0.601637,-0.064 -1.331655,-0.112247 -2.170587,-0.151041 C 84.2076,62.712662 82.106167,62.675669 80,62.675669 Z m 5.822957,4.727896 -5.858111,8.72011 -5.929731,-8.710996 c -0.137681,0.01013 -0.277729,0.02033 -0.433596,0.02993 l 6.363327,9.34772 6.285194,-9.356833 c -0.158621,-0.0093 -0.281909,-0.02013 -0.427083,-0.02993 z m -21.267069,12.92977 c -0.0204,0.04387 -0.065,0.124874 -0.08333,0.165368 -0.03493,0.07711 -0.0436,0.1049 -0.07031,0.167967 0.02673,0.06307 0.0354,0.09085 0.07031,0.167968 0.186294,0.411143 0.48053,0.999366 0.842459,1.681004 0.723851,1.363262 1.720837,3.113867 2.74871,4.842478 0.792392,1.332595 1.578271,2.595176 2.300802,3.722677 L 77.023412,81.16928 76.79815,80.838545 70.364516,90.414126 C 69.641981,89.286625 68.856102,88.024044 68.06371,86.691449 67.035837,84.962838 66.038851,83.212233 65.315,81.848971 64.988711,81.234461 64.742643,80.734697 64.555875,80.333335 Z m 30.888222,0 c -0.186768,0.401362 -0.432836,0.901126 -0.759125,1.515636 -0.723851,1.363262 -1.720836,3.113867 -2.748709,4.842478 -0.782025,1.315155 -1.556743,2.560636 -2.272154,3.67841 l -6.505249,-9.556054 -0.225261,0.335942 6.73051,9.886783 c 0.715411,-1.117774 1.490129,-2.363255 2.272154,-3.67841 1.027873,-1.728611 2.024858,-3.479216 2.748709,-4.842478 0.361929,-0.681638 0.656164,-1.269861 0.842459,-1.681004 0.03493,-0.07711 0.0436,-0.104901 0.07031,-0.167968 -0.02673,-0.06307 -0.0354,-0.09085 -0.07031,-0.167967 -0.01833,-0.04047 -0.06293,-0.121521 -0.08333,-0.165368 z m -29.023624,12.043043 -2.630223,8.290422 0.184894,-0.11328 2.55861,-7.99094 c -0.037,-0.05867 -0.07613,-0.127148 -0.113281,-0.186202 z m 18.851681,0.90886 c -1.520583,0.06207 -3.378955,0.09766 -5.272167,0.09766 -1.873352,0 -3.708217,-0.0356 -5.220087,-0.09635 L 74.341097,93.9402 c 1.573764,0.07197 3.616697,0.109374 5.65889,0.109374 2.055746,0 4.116186,-0.03773 5.694049,-0.110681 0.0091,-6.67e-4 0.01307,-6.67e-4 0.02213,-0.0013 z" id="path977-0" inkscape:connector-curvature="0" sodipodi:nodetypes="scccccscscccsccccscscccccsccccccccscccsscsccccscccsscccccccccccssccccsccccccccccsccccccccccsccsccc"/>
      <path sodipodi:type="star" style="color:#000000;clip-rule:nonzero;display:inline;overflow:visible;visibility:visible;opacity:1;isolation:auto;mix-blend-mode:normal;color-interpolation:sRGB;color-interpolation-filters:linearRGB;solid-color:#000000;solid-opacity:1;vector-effect:none;fill:#000000;fill-opacity:0.1978022;fill-rule:nonzero;stroke:none;stroke-width:0.69607663;stroke-linecap:butt;stroke-linejoin:miter;stroke-miterlimit:4;stroke-dasharray:none;stroke-dashoffset:0;stroke-opacity:0.28021982;marker:none;marker-start:none;marker-mid:none;marker-end:none;paint-order:fill markers stroke;color-rendering:auto;image-rendering:auto;shape-rendering:auto;text-rendering:auto;enable-background:accumulate" id="path987-6" sodipodi:sides="4" sodipodi:cx="79.999954" sodipodi:cy="80.548271" sodipodi:r1="2.7850826" sodipodi:r2="1.0299242" sodipodi:arg1="1.5707963" sodipodi:arg2="2.3561945" inkscape:flatsided="false" inkscape:rounded="0.07" inkscape:randomized="0" d="m 79.999954,83.333354 c -0.152736,0 -0.620266,-1.948816 -0.728266,-2.056816 -0.108001,-0.108001 -2.056816,-0.575531 -2.056816,-0.728267 0,-0.152736 1.948815,-0.620266 2.056816,-0.728266 0.108,-0.108001 0.57553,-2.056816 0.728266,-2.056816 0.152736,0 0.620266,1.948815 0.728267,2.056816 0.108,0.108 2.056816,0.57553 2.056816,0.728266 0,0.152736 -1.948816,0.620266 -2.056816,0.728267 -0.108001,0.108 -0.575531,2.056816 -0.728267,2.056816 z"/>
    </g>
  </g>
</svg>