<?xml version="1.0" encoding="UTF-8" standalone="yes"?>
<svg xmlns:dc="http://purl.org/dc/elements/1.1/" xmlns:cc="http://creativecommons.org/ns#" xmlns:rdf="http://www.w3.org/1999/02/22-rdf-syntax-ns#" xmlns:svg="http://www.w3.org/2000/svg" xmlns="http://www.w3.org/2000/svg" xmlns:sodipodi="http://sodipodi.sourceforge.net/DTD/sodipodi-0.dtd" xmlns:inkscape="http://www.inkscape.org/namespaces/inkscape" height="128" viewBox="0 0 128 128" width="128" id="svg2" version="1.1" inkscape:version="0.92.2 5c3e80d, 2017-08-06" sodipodi:docname="network-server.svg" enable-background="new" folder="128">
  <title id="title4675">Template icons dark</title>
  <metadata id="metadata24">
    <rdf:RDF>
      <cc:Work rdf:about="">
        <dc:format>image/svg+xml</dc:format>
        <dc:type rdf:resource="http://purl.org/dc/dcmitype/StillImage"/>
        <dc:title>Template icons dark</dc:title>
        <dc:date>17/05/13</dc:date>
        <dc:creator>
          <cc:Agent>
            <dc:title>wfpaisa</dc:title>
          </cc:Agent>
        </dc:creator>
        <dc:rights>
          <cc:Agent>
            <dc:title>License: GPLv3</dc:title>
          </cc:Agent>
        </dc:rights>
        <dc:language>es-en</dc:language>
        <dc:subject>
          <rdf:Bag>
            <rdf:li>plane-icon-theme</rdf:li>
          </rdf:Bag>
        </dc:subject>
        <dc:description>Template for create set icons</dc:description>
        <cc:license rdf:resource="https://www.gnu.org/licenses/gpl-3.0.en.html"/>
      </cc:Work>
    </rdf:RDF>
  </metadata>
  <defs id="defs22"/>
  <sodipodi:namedview pagecolor="#ffffff" bordercolor="#ffffff" borderopacity="0.62745098" objecttolerance="4" gridtolerance="10" guidetolerance="4" inkscape:pageopacity="0" inkscape:pageshadow="2" inkscape:window-width="640" inkscape:window-height="480" id="namedview20" showgrid="false" inkscape:zoom="2.9402989" inkscape:cx="250.51704" inkscape:cy="-159.99928" inkscape:current-layer="layer8" inkscape:snap-smooth-nodes="false" showguides="true" borderlayer="true" inkscape:showpageshadow="false" inkscape:guide-bbox="true" guidecolor="#bd4fff" guideopacity="0.78431373" inkscape:snap-nodes="true" inkscape:lockguides="false" fit-margin-top="0" fit-margin-left="0" fit-margin-right="0" fit-margin-bottom="0" guidehicolor="#ff0101" guidehiopacity="0.78431373" inkscape:snap-page="true" inkscape:object-nodes="true" inkscape:snap-bbox="true" inkscape:snap-global="true" inkscape:snap-object-midpoints="false" inkscape:snap-bbox-edge-midpoints="false">
    <inkscape:grid type="xygrid" id="grid4171" empspacing="4" dotted="false" originx="2.7755576e-17" originy="0" spacingx="1" spacingy="1" color="#ffffff" opacity="0.0627451" empcolor="#ffffff" empopacity="0.23529412" visible="true"/>
    <inkscape:grid type="axonomgrid" id="grid4699" units="mm" empspacing="4" color="#5a5a5a" opacity="0.23529412" empcolor="#5a5a5a" empopacity="0.47058824" gridanglex="45" gridanglez="45" spacingy="3.7795276" visible="false" originx="1.3228346" originy="1.3228346"/>
    <sodipodi:guide position="48,0" orientation="1,0" id="guide4568" inkscape:locked="false" inkscape:label="" inkscape:color="rgb(189,79,255)"/>
    <sodipodi:guide position="111.99996,-3.9999999e-05" orientation="0,1" id="guide4570" inkscape:locked="false" inkscape:label="" inkscape:color="rgb(189,79,255)"/>
    <sodipodi:guide position="0,0" orientation="1,0" id="guide4572" inkscape:locked="false" inkscape:label="" inkscape:color="rgb(189,79,255)"/>
    <sodipodi:guide position="0,48" orientation="0,1" id="guide4574" inkscape:locked="false" inkscape:label="" inkscape:color="rgb(189,79,255)"/>
    <sodipodi:guide position="0,80" orientation="0,1" id="guide4576" inkscape:locked="false" inkscape:label="" inkscape:color="rgb(189,79,255)"/>
    <sodipodi:guide position="-32,48" orientation="1,0" id="guide4578" inkscape:locked="false" inkscape:label="" inkscape:color="rgb(189,79,255)"/>
    <sodipodi:guide position="-32,104" orientation="0,1" id="guide4580" inkscape:locked="false" inkscape:label="" inkscape:color="rgb(189,79,255)"/>
    <sodipodi:guide position="-56,80" orientation="1,0" id="guide4582" inkscape:locked="false" inkscape:label="" inkscape:color="rgb(189,79,255)"/>
    <sodipodi:guide position="48,-64" orientation="0,1" id="guide4584" inkscape:locked="false" inkscape:label="" inkscape:color="rgb(189,79,255)"/>
    <sodipodi:guide position="0,0" orientation="-0.70710678,0.70710678" id="guide4588" inkscape:locked="false" inkscape:label="" inkscape:color="rgb(189,79,255)"/>
    <sodipodi:guide position="-56,80" orientation="-0.70710678,0.70710678" id="guide4573" inkscape:locked="false" inkscape:label="" inkscape:color="rgb(189,79,255)"/>
    <sodipodi:guide position="-32,48" orientation="-0.70710678,0.70710678" id="guide4575" inkscape:locked="false" inkscape:label="" inkscape:color="rgb(189,79,255)"/>
    <sodipodi:guide position="48,-64" orientation="-0.70710678,0.70710678" id="guide4577" inkscape:locked="false" inkscape:label="" inkscape:color="rgb(189,79,255)"/>
    <sodipodi:guide position="47.999962,0" orientation="0.70710678,0.70710678" id="guide4697" inkscape:locked="false" inkscape:label="" inkscape:color="rgb(189,79,255)"/>
    <sodipodi:guide position="207.99995,-288" orientation="0,1" id="guide7833" inkscape:locked="false"/>
    <sodipodi:guide position="335.99994,-288" orientation="1,0" id="guide7835" inkscape:locked="false" inkscape:label="" inkscape:color="rgb(189,79,255)"/>
    <sodipodi:guide position="111.99996,-64" orientation="1,0" id="guide7915" inkscape:locked="false"/>
    <sodipodi:guide position="111.99996,-160" orientation="0,1" id="guide7917" inkscape:locked="false"/>
    <sodipodi:guide position="207.99996,-160" orientation="1,0" id="guide7919" inkscape:locked="false"/>
    <sodipodi:guide position="111.99996,-160" orientation="-0.70710678,0.70710678" id="guide7921" inkscape:locked="false" inkscape:label="" inkscape:color="rgb(189,79,255)"/>
    <sodipodi:guide position="207.99996,-288" orientation="-0.70710678,0.70710678" id="guide7923" inkscape:locked="false" inkscape:label="" inkscape:color="rgb(189,79,255)"/>
    <sodipodi:guide position="-72,104" orientation="1,0" id="guide7824" inkscape:locked="false"/>
    <sodipodi:guide position="-56,120" orientation="0,1" id="guide7826" inkscape:locked="false"/>
    <sodipodi:guide position="-72,104" orientation="-0.70710678,0.70710678" id="guide7828" inkscape:locked="false" inkscape:label="" inkscape:color="rgb(189,79,255)"/>
  </sodipodi:namedview>
  <g inkscape:groupmode="layer" id="layer4" inkscape:label="icon_128" style="display:inline" transform="translate(-207.99995,-208)">
    <g inkscape:groupmode="layer" id="layer11" inkscape:label="frame" style="display:none">
      <rect inkscape:label="frame_128" y="208" x="207.99995" height="128" width="128" id="frame_128" style="color:#000000;clip-rule:nonzero;display:inline;overflow:visible;visibility:visible;opacity:1;isolation:auto;mix-blend-mode:normal;color-interpolation:sRGB;color-interpolation-filters:linearRGB;solid-color:#000000;solid-opacity:1;vector-effect:none;fill:#000000;fill-opacity:1;fill-rule:nonzero;stroke:#ff24f7;stroke-width:0;stroke-linecap:square;stroke-linejoin:miter;stroke-miterlimit:4;stroke-dasharray:none;stroke-dashoffset:0;stroke-opacity:0.99481865;marker:none;marker-start:none;marker-mid:none;marker-end:none;paint-order:normal;color-rendering:auto;image-rendering:auto;shape-rendering:auto;text-rendering:auto;enable-background:accumulate"/>
      <text xml:space="preserve" style="font-size:38.46457672px;line-height:0%;font-family:sans-serif;letter-spacing:0px;word-spacing:0px;display:inline;opacity:1;fill:#ffffff;fill-opacity:1;stroke:none;stroke-width:0.07881754px;stroke-linecap:butt;stroke-linejoin:miter;stroke-opacity:1" x="236.17479" y="283.34512" id="txt_128" inkscape:label="txt_128">
        <tspan sodipodi:role="line" x="236.17479" y="283.34512" style="font-size:38.46457672px;line-height:0%;fill:#ffffff;fill-opacity:1;stroke:none;stroke-width:0.07881754px" id="tspan5069-6">128</tspan>
      </text>
      <text xml:space="preserve" style="font-size:7.43228436px;line-height:1000%;font-family:sans-serif;letter-spacing:0px;word-spacing:0px;display:inline;opacity:1;fill:#ffffff;fill-opacity:0.42156863;stroke:none;stroke-width:0.16398695px;stroke-linecap:butt;stroke-linejoin:miter;stroke-opacity:1" x="265.97781" y="330.1329" id="txt_scalable_64_512" inkscape:label="txt_scalable_64_512">
        <tspan sodipodi:role="line" x="265.97781" y="330.1329" style="font-size:8.08990479px;fill:#ffffff;fill-opacity:0.42156863;stroke:none;stroke-width:0.16398695px" id="tspan5049-1-6-6">Scalable:96-512</tspan>
      </text>
    </g>
    <g inkscape:groupmode="layer" id="layer12" inkscape:label="icon" style="display:inline">
      <rect style="opacity:1;fill:none;fill-opacity:1;stroke:none;stroke-width:1;stroke-linecap:butt;stroke-linejoin:miter;stroke-miterlimit:4;stroke-dasharray:none;stroke-dashoffset:0;stroke-opacity:1" id="rect4140-7-5-7" width="128" height="128" x="207.99995" y="208"/>
      <rect ry="1.2314312" rx="1.3196807" style="opacity:1;fill:#636a78;fill-opacity:1;stroke:none;stroke-width:1.27479255;stroke-linecap:butt;stroke-linejoin:miter;stroke-miterlimit:4;stroke-dasharray:none;stroke-dashoffset:0;stroke-opacity:0.26666667" id="rect6209" width="98.001205" height="112.99892" x="222.99876" y="216.00085"/>
      <rect y="215.5" x="222.49995" height="114" width="99.000008" id="rect6209-0" style="opacity:1;fill:none;fill-opacity:1;stroke:#272a2f;stroke-width:1;stroke-linecap:butt;stroke-linejoin:miter;stroke-miterlimit:4;stroke-dasharray:none;stroke-dashoffset:0;stroke-opacity:0.78431373" rx="2" ry="2"/>
      <path style="opacity:1;fill:#000000;fill-opacity:0.15686275;stroke:#484e57;stroke-width:1;stroke-linecap:butt;stroke-linejoin:miter;stroke-miterlimit:4;stroke-dasharray:none;stroke-dashoffset:0;stroke-opacity:1" d="m 227.5,220.5 c -0.554,0 -1,0.446 -1,1 v 14 c 0,0.554 0.446,1 1,1 h 89 c 0.554,0 1,-0.446 1,-1 v -14 c 0,-0.554 -0.446,-1 -1,-1 z m 0,22 c -0.554,0 -1,0.446 -1,1 v 14 c 0,0.554 0.446,1 1,1 h 89 c 0.554,0 1,-0.446 1,-1 v -14 c 0,-0.554 -0.446,-1 -1,-1 z m 0,22 c -0.554,0 -1,0.446 -1,1 v 14 c 0,0.554 0.446,1 1,1 h 89 c 0.554,0 1,-0.446 1,-1 v -14 c 0,-0.554 -0.446,-1 -1,-1 z m 0,22 c -0.554,0 -1,0.446 -1,1 v 14 c 0,0.554 0.446,1 1,1 h 89 c 0.554,0 1,-0.446 1,-1 v -14 c 0,-0.554 -0.446,-1 -1,-1 z m 0,22 c -0.554,0 -1,0.446 -1,1 v 14 c 0,0.554 0.446,1 1,1 h 89 c 0.554,0 1,-0.446 1,-1 v -14 c 0,-0.554 -0.446,-1 -1,-1 z" id="rect8193" inkscape:connector-curvature="0"/>
      <path style="opacity:1;fill:#000000;fill-opacity:0.29591836;stroke:none;stroke-width:1;stroke-linecap:butt;stroke-linejoin:miter;stroke-miterlimit:4;stroke-dasharray:none;stroke-dashoffset:0;stroke-opacity:0.78431373" d="m 230,224 v 9 h 1 v -9 z m 3,0 v 9 h 1 v -9 z m 3,0 v 9 h 1 v -9 z m 3,0 v 9 h 1 v -9 z m 3,0 v 9 h 1 v -9 z m 3,0 v 9 h 1 v -9 z m -15,22 v 9 h 1 v -9 z m 3,0 v 9 h 1 v -9 z m 3,0 v 9 h 1 v -9 z m 3,0 v 9 h 1 v -9 z m 3,0 v 9 h 1 v -9 z m 3,0 v 9 h 1 v -9 z m -15,22 v 9 h 1 v -9 z m 3,0 v 9 h 1 v -9 z m 3,0 v 9 h 1 v -9 z m 3,0 v 9 h 1 v -9 z m 3,0 v 9 h 1 v -9 z m 3,0 v 9 h 1 v -9 z m -15,22 v 9 h 1 v -9 z m 3,0 v 9 h 1 v -9 z m 3,0 v 9 h 1 v -9 z m 3,0 v 9 h 1 v -9 z m 3,0 v 9 h 1 v -9 z m 3,0 v 9 h 1 v -9 z m -15,22 v 9 h 1 v -9 z m 3,0 v 9 h 1 v -9 z m 3,0 v 9 h 1 v -9 z m 3,0 v 9 h 1 v -9 z m 3,0 v 9 h 1 v -9 z m 3,0 v 9 h 1 v -9 z" id="rect8297" inkscape:connector-curvature="0"/>
      <path style="opacity:1;fill:#000000;fill-opacity:0.17647059;stroke:none;stroke-width:1;stroke-linecap:butt;stroke-linejoin:miter;stroke-miterlimit:4;stroke-dasharray:none;stroke-dashoffset:0;stroke-opacity:0.78431373" d="m 254,226 v 5 h 33 v -5 z m 0,22 v 5 h 33 v -5 z m 0,22 v 5 h 33 v -5 z m 0,22 v 5 h 33 v -5 z m 0,22 v 5 h 33 v -5 z" id="rect8297-59-1" inkscape:connector-curvature="0"/>
      <path style="opacity:1;fill:#000000;fill-opacity:0.29591836;stroke:none;stroke-width:1;stroke-linecap:butt;stroke-linejoin:miter;stroke-miterlimit:4;stroke-dasharray:none;stroke-dashoffset:0;stroke-opacity:0.78431373" d="m 307.5,228 a 0.50000691,0.49998915 0 0 0 -0.5,0.5 0.50000691,0.49998915 0 0 0 0.5,0.5 0.50000691,0.49998915 0 0 0 0.5,-0.5 0.50000691,0.49998915 0 0 0 -0.5,-0.5 z m 0,22 a 0.50000691,0.49998915 0 0 0 -0.5,0.5 0.50000691,0.49998915 0 0 0 0.5,0.5 0.50000691,0.49998915 0 0 0 0.5,-0.5 0.50000691,0.49998915 0 0 0 -0.5,-0.5 z m 0,22 a 0.50000691,0.49998915 0 0 0 -0.5,0.5 0.50000691,0.49998915 0 0 0 0.5,0.5 0.50000691,0.49998915 0 0 0 0.5,-0.5 0.50000691,0.49998915 0 0 0 -0.5,-0.5 z m 0,22 a 0.50000691,0.49998915 0 0 0 -0.5,0.5 0.50000691,0.49998915 0 0 0 0.5,0.5 0.50000691,0.49998915 0 0 0 0.5,-0.5 0.50000691,0.49998915 0 0 0 -0.5,-0.5 z m 0,23 a 0.50000691,0.49998915 0 0 0 -0.5,0.5 0.50000691,0.49998915 0 0 0 0.5,0.5 0.50000691,0.49998915 0 0 0 0.5,-0.5 0.50000691,0.49998915 0 0 0 -0.5,-0.5 z" id="path8411-66-13" inkscape:connector-curvature="0"/>
      <path style="opacity:1;fill:#6bdfe7;fill-opacity:1;stroke:none;stroke-width:1;stroke-linecap:butt;stroke-linejoin:miter;stroke-miterlimit:4;stroke-dasharray:none;stroke-dashoffset:0;stroke-opacity:0.78431373" d="m 294.5,228 a 0.5000062,0.49999416 0 0 0 -0.5,0.5 0.5000062,0.49999416 0 0 0 0.5,0.5 0.5000062,0.49999416 0 0 0 0.5,-0.5 0.5000062,0.49999416 0 0 0 -0.5,-0.5 z m 4,0 a 0.5000062,0.49999416 0 0 0 -0.5,0.5 0.5000062,0.49999416 0 0 0 0.5,0.5 0.5000062,0.49999416 0 0 0 0.5,-0.5 0.5000062,0.49999416 0 0 0 -0.5,-0.5 z m 5,0 a 0.5000062,0.49999416 0 0 0 -0.5,0.5 0.5000062,0.49999416 0 0 0 0.5,0.5 0.5000062,0.49999416 0 0 0 0.5,-0.5 0.5000062,0.49999416 0 0 0 -0.5,-0.5 z m -9,22 a 0.5000062,0.49999416 0 0 0 -0.5,0.5 0.5000062,0.49999416 0 0 0 0.5,0.5 0.5000062,0.49999416 0 0 0 0.5,-0.5 0.5000062,0.49999416 0 0 0 -0.5,-0.5 z m 4,0 a 0.5000062,0.49999416 0 0 0 -0.5,0.5 0.5000062,0.49999416 0 0 0 0.5,0.5 0.5000062,0.49999416 0 0 0 0.5,-0.5 0.5000062,0.49999416 0 0 0 -0.5,-0.5 z m 5,0 a 0.5000062,0.49999416 0 0 0 -0.5,0.5 0.5000062,0.49999416 0 0 0 0.5,0.5 0.5000062,0.49999416 0 0 0 0.5,-0.5 0.5000062,0.49999416 0 0 0 -0.5,-0.5 z m -9,22 a 0.5000062,0.49999416 0 0 0 -0.5,0.5 0.5000062,0.49999416 0 0 0 0.5,0.5 0.5000062,0.49999416 0 0 0 0.5,-0.5 0.5000062,0.49999416 0 0 0 -0.5,-0.5 z m 4,0 a 0.5000062,0.49999416 0 0 0 -0.5,0.5 0.5000062,0.49999416 0 0 0 0.5,0.5 0.5000062,0.49999416 0 0 0 0.5,-0.5 0.5000062,0.49999416 0 0 0 -0.5,-0.5 z m 5,0 a 0.5000062,0.49999416 0 0 0 -0.5,0.5 0.5000062,0.49999416 0 0 0 0.5,0.5 0.5000062,0.49999416 0 0 0 0.5,-0.5 0.5000062,0.49999416 0 0 0 -0.5,-0.5 z m -9,22 a 0.5000062,0.49999416 0 0 0 -0.5,0.5 0.5000062,0.49999416 0 0 0 0.5,0.5 0.5000062,0.49999416 0 0 0 0.5,-0.5 0.5000062,0.49999416 0 0 0 -0.5,-0.5 z m 4,0 a 0.5000062,0.49999416 0 0 0 -0.5,0.5 0.5000062,0.49999416 0 0 0 0.5,0.5 0.5000062,0.49999416 0 0 0 0.5,-0.5 0.5000062,0.49999416 0 0 0 -0.5,-0.5 z m 5,0 a 0.5000062,0.49999416 0 0 0 -0.5,0.5 0.5000062,0.49999416 0 0 0 0.5,0.5 0.5000062,0.49999416 0 0 0 0.5,-0.5 0.5000062,0.49999416 0 0 0 -0.5,-0.5 z m -9,23 a 0.5000062,0.49999416 0 0 0 -0.5,0.5 0.5000062,0.49999416 0 0 0 0.5,0.5 0.5000062,0.49999416 0 0 0 0.5,-0.5 0.5000062,0.49999416 0 0 0 -0.5,-0.5 z m 4,0 a 0.5000062,0.49999416 0 0 0 -0.5,0.5 0.5000062,0.49999416 0 0 0 0.5,0.5 0.5000062,0.49999416 0 0 0 0.5,-0.5 0.5000062,0.49999416 0 0 0 -0.5,-0.5 z m 5,0 a 0.5000062,0.49999416 0 0 0 -0.5,0.5 0.5000062,0.49999416 0 0 0 0.5,0.5 0.5000062,0.49999416 0 0 0 0.5,-0.5 0.5000062,0.49999416 0 0 0 -0.5,-0.5 z" id="path8411-7-2-1" inkscape:connector-curvature="0"/>
    </g>
  </g>
</svg>