<?xml version="1.0" encoding="UTF-8" standalone="yes"?>
<svg xmlns:dc="http://purl.org/dc/elements/1.1/" xmlns:cc="http://creativecommons.org/ns#" xmlns:rdf="http://www.w3.org/1999/02/22-rdf-syntax-ns#" xmlns:svg="http://www.w3.org/2000/svg" xmlns="http://www.w3.org/2000/svg" xmlns:xlink="http://www.w3.org/1999/xlink" xmlns:sodipodi="http://sodipodi.sourceforge.net/DTD/sodipodi-0.dtd" xmlns:inkscape="http://www.inkscape.org/namespaces/inkscape" height="96" viewBox="0 0 96 96" width="96" id="svg2" version="1.1" inkscape:version="0.92.1 r" sodipodi:docname="blender.svg" enable-background="new" folder="96">
  <title id="title4675">Template icons dark</title>
  <metadata id="metadata24">
    <rdf:RDF>
      <cc:Work rdf:about="">
        <dc:format>image/svg+xml</dc:format>
        <dc:type rdf:resource="http://purl.org/dc/dcmitype/StillImage"/>
        <dc:title>Template icons dark</dc:title>
        <dc:date>17/05/13</dc:date>
        <dc:creator>
          <cc:Agent>
            <dc:title>wfpaisa</dc:title>
          </cc:Agent>
        </dc:creator>
        <dc:rights>
          <cc:Agent>
            <dc:title>License: GPLv3</dc:title>
          </cc:Agent>
        </dc:rights>
        <dc:language>es-en</dc:language>
        <dc:subject>
          <rdf:Bag>
            <rdf:li>plane-icon-theme</rdf:li>
          </rdf:Bag>
        </dc:subject>
        <dc:description>Template for create set icons</dc:description>
        <cc:license rdf:resource="https://www.gnu.org/licenses/gpl-3.0.en.html"/>
      </cc:Work>
    </rdf:RDF>
  </metadata>
  <defs id="defs22">
    <linearGradient inkscape:collect="always" xlink:href="#linearGradient8666" id="linearGradient8856-9" gradientUnits="userSpaceOnUse" x1="213.2054" y1="165.99998" x2="213.2054" y2="261.88123" gradientTransform="matrix(0.0851244,0,0,0.0851244,-58.753023,-59.09931)"/>
    <linearGradient inkscape:collect="always" id="linearGradient8666">
      <stop style="stop-color:#fbfbfb;stop-opacity:1" offset="0" id="stop8662"/>
      <stop style="stop-color:#cfcfcf;stop-opacity:1" offset="1" id="stop8664"/>
    </linearGradient>
    <linearGradient inkscape:collect="always" xlink:href="#linearGradient8633" id="linearGradient8858-4" gradientUnits="userSpaceOnUse" gradientTransform="matrix(0.49771961,0,0,0.49771961,-55.728848,-55.747898)" x1="2.133321" y1="1.424881" x2="45.916695" y2="45.208263"/>
    <linearGradient id="linearGradient8633">
      <stop id="stop8629" offset="0" style="stop-color:#ff8545;stop-opacity:1"/>
      <stop style="stop-color:#f47200;stop-opacity:1" offset="0.52534759" id="stop8672"/>
      <stop id="stop8631" offset="1" style="stop-color:#ffa04d;stop-opacity:1"/>
    </linearGradient>
    <linearGradient inkscape:collect="always" xlink:href="#linearGradient8633" id="linearGradient8858-9" gradientUnits="userSpaceOnUse" gradientTransform="matrix(1.0443701,0,0,1.0443701,-1.0115932,-0.51698865)" x1="2.133321" y1="1.424881" x2="45.916695" y2="45.208263"/>
    <linearGradient inkscape:collect="always" xlink:href="#linearGradient8666" id="linearGradient8856-4" gradientUnits="userSpaceOnUse" x1="213.2054" y1="165.99998" x2="213.2054" y2="261.88123" gradientTransform="matrix(0.17861737,0,0,0.17861737,-7.3572502,-7.5492915)"/>
    <linearGradient inkscape:collect="always" xlink:href="#linearGradient8782" id="linearGradient8784-0" x1="214" y1="191.32283" x2="214" y2="237.51836" gradientUnits="userSpaceOnUse" gradientTransform="matrix(0.18867359,0,0,0.18867359,-9.501418,-9.6916253)"/>
    <linearGradient inkscape:collect="always" id="linearGradient8782">
      <stop style="stop-color:#2c60d3;stop-opacity:0.609375" offset="0" id="stop8778"/>
      <stop style="stop-color:#2c60d3;stop-opacity:0;" offset="1" id="stop8780"/>
    </linearGradient>
    <linearGradient inkscape:collect="always" xlink:href="#linearGradient8807" id="linearGradient8809-7" x1="164.30165" y1="206.35252" x2="230" y2="226.22047" gradientUnits="userSpaceOnUse" gradientTransform="matrix(0.17861737,0,0,0.17861737,-7.3266944,-7.4270692)"/>
    <linearGradient id="linearGradient8807">
      <stop style="stop-color:#000000;stop-opacity:0.28947368;" offset="0" id="stop8803"/>
      <stop style="stop-color:#c1c1c1;stop-opacity:0;" offset="1" id="stop8805"/>
    </linearGradient>
    <linearGradient inkscape:collect="always" xlink:href="#linearGradient8807" id="linearGradient8813-2" gradientUnits="userSpaceOnUse" x1="164.30165" y1="206.35252" x2="230" y2="226.22047" gradientTransform="matrix(-0.12630154,-0.12630154,0.12630154,-0.12630154,30.59004,84.501919)"/>
    <linearGradient inkscape:collect="always" xlink:href="#linearGradient8807" id="linearGradient8817-7" gradientUnits="userSpaceOnUse" gradientTransform="matrix(-0.12630154,0.12630154,-0.12630154,-0.12630154,84.594033,30.596683)" x1="164.30165" y1="206.35252" x2="230" y2="226.22047"/>
    <linearGradient gradientTransform="matrix(0.18280347,0,0,0.18280347,-7.8761359,-8.0701603)" inkscape:collect="always" xlink:href="#linearGradient8930" id="linearGradient8884-2" x1="153.6378" y1="71.999992" x2="250.77165" y2="141.16536" gradientUnits="userSpaceOnUse"/>
    <linearGradient id="linearGradient8930">
      <stop id="stop8926" offset="0" style="stop-color:#da6607;stop-opacity:0.35526314;"/>
      <stop id="stop8928" offset="1" style="stop-color:#ffffff;stop-opacity:0.24342105;"/>
    </linearGradient>
    <linearGradient inkscape:collect="always" xlink:href="#linearGradient8971" id="linearGradient8973-1" x1="196" y1="124.12598" x2="156.07875" y2="61.999989" gradientUnits="userSpaceOnUse" gradientTransform="matrix(0.17226839,0,0,0.17226839,-6.0388642,-6.220389)"/>
    <linearGradient inkscape:collect="always" id="linearGradient8971">
      <stop style="stop-color:#763704;stop-opacity:1;" offset="0" id="stop8967"/>
      <stop style="stop-color:#763704;stop-opacity:0;" offset="1" id="stop8969"/>
    </linearGradient>
    <linearGradient inkscape:collect="always" xlink:href="#linearGradient8971" id="linearGradient8977-1" gradientUnits="userSpaceOnUse" x1="196" y1="124.12598" x2="156.07875" y2="61.999989" gradientTransform="matrix(0.12181216,-0.12181216,0.12181216,0.12181216,-21.499412,30.416447)"/>
    <linearGradient inkscape:collect="always" xlink:href="#linearGradient8971" id="linearGradient8981-5" gradientUnits="userSpaceOnUse" gradientTransform="matrix(0,-0.17226839,0.17226839,0,-6.0223935,66.782322)" x1="196" y1="124.12598" x2="156.07875" y2="61.999989"/>
    <linearGradient inkscape:collect="always" xlink:href="#linearGradient8633" id="linearGradient8858-4-5" gradientUnits="userSpaceOnUse" gradientTransform="matrix(0.69227462,0,0,0.69227462,-32.429545,-33.818398)" x1="2.133321" y1="1.424881" x2="45.916695" y2="45.208263"/>
    <linearGradient inkscape:collect="always" xlink:href="#linearGradient8666" id="linearGradient8856-9-1" gradientUnits="userSpaceOnUse" x1="213.2054" y1="165.99998" x2="213.2054" y2="261.88123" gradientTransform="matrix(0.11839891,0,0,0.11839891,-36.635848,-38.479853)"/>
    <linearGradient inkscape:collect="always" xlink:href="#linearGradient8633" id="linearGradient8858-9-0" gradientUnits="userSpaceOnUse" gradientTransform="matrix(1.3924931,0,0,1.3924931,46.454761,47.434085)" x1="2.133321" y1="1.424881" x2="45.916695" y2="45.208263"/>
    <linearGradient inkscape:collect="always" xlink:href="#linearGradient8666" id="linearGradient8856-4-1" gradientUnits="userSpaceOnUse" x1="213.2054" y1="165.99998" x2="213.2054" y2="261.88123" gradientTransform="matrix(0.23815643,0,0,0.23815643,37.993887,38.057684)"/>
    <linearGradient inkscape:collect="always" xlink:href="#linearGradient8782" id="linearGradient8784-0-9" x1="214" y1="191.32283" x2="214" y2="237.51836" gradientUnits="userSpaceOnUse" gradientTransform="matrix(0.25156472,0,0,0.25156472,35.134997,35.201239)"/>
    <linearGradient inkscape:collect="always" xlink:href="#linearGradient8807" id="linearGradient8809-7-2" x1="164.30165" y1="206.35252" x2="230" y2="226.22047" gradientUnits="userSpaceOnUse" gradientTransform="matrix(0.23815643,0,0,0.23815643,38.034629,38.220646)"/>
    <linearGradient inkscape:collect="always" xlink:href="#linearGradient8807" id="linearGradient8813-2-5" gradientUnits="userSpaceOnUse" x1="164.30165" y1="206.35252" x2="230" y2="226.22047" gradientTransform="matrix(-0.16840201,-0.16840201,0.16840201,-0.16840201,88.590261,160.7926)"/>
    <linearGradient inkscape:collect="always" xlink:href="#linearGradient8807" id="linearGradient8817-7-9" gradientUnits="userSpaceOnUse" gradientTransform="matrix(-0.16840201,0.16840201,-0.16840201,-0.16840201,160.59557,88.91897)" x1="164.30165" y1="206.35252" x2="230" y2="226.22047"/>
    <linearGradient gradientTransform="matrix(0.2437379,0,0,0.2437379,37.302041,37.363192)" inkscape:collect="always" xlink:href="#linearGradient8930" id="linearGradient8884-2-2" x1="153.6378" y1="71.999992" x2="250.77165" y2="141.16536" gradientUnits="userSpaceOnUse"/>
    <linearGradient inkscape:collect="always" xlink:href="#linearGradient8971" id="linearGradient8973-1-9" x1="196" y1="124.12598" x2="156.07875" y2="61.999989" gradientUnits="userSpaceOnUse" gradientTransform="matrix(0.22969113,0,0,0.22969113,39.751735,39.829553)"/>
    <linearGradient inkscape:collect="always" xlink:href="#linearGradient8971" id="linearGradient8977-1-6" gradientUnits="userSpaceOnUse" x1="196" y1="124.12598" x2="156.07875" y2="61.999989" gradientTransform="matrix(0.16241617,-0.16241617,0.16241617,0.16241617,19.137676,88.678655)"/>
    <linearGradient inkscape:collect="always" xlink:href="#linearGradient8971" id="linearGradient8981-5-1" gradientUnits="userSpaceOnUse" gradientTransform="matrix(0,-0.22969113,0.22969113,0,39.773696,137.16648)" x1="196" y1="124.12598" x2="156.07875" y2="61.999989"/>
    <linearGradient inkscape:collect="always" xlink:href="#linearGradient8633" id="linearGradient8858-9-0-5" gradientUnits="userSpaceOnUse" gradientTransform="matrix(2.0887397,0,0,2.0887397,109.9948,110.85959)" x1="2.133321" y1="1.424881" x2="45.916695" y2="45.208263"/>
    <linearGradient inkscape:collect="always" xlink:href="#linearGradient8666" id="linearGradient8856-4-1-5" gradientUnits="userSpaceOnUse" x1="213.2054" y1="165.99998" x2="213.2054" y2="261.88123" gradientTransform="matrix(0.35723465,0,0,0.35723465,97.303485,96.794988)"/>
    <linearGradient inkscape:collect="always" xlink:href="#linearGradient8782" id="linearGradient8784-0-9-3" x1="214" y1="191.32283" x2="214" y2="237.51836" gradientUnits="userSpaceOnUse" gradientTransform="matrix(0.37734708,0,0,0.37734708,93.01515,92.510328)"/>
    <linearGradient inkscape:collect="always" xlink:href="#linearGradient8807" id="linearGradient8809-7-2-5" x1="164.30165" y1="206.35252" x2="230" y2="226.22047" gradientUnits="userSpaceOnUse" gradientTransform="matrix(0.35723465,0,0,0.35723465,97.364595,97.039428)"/>
    <linearGradient inkscape:collect="always" xlink:href="#linearGradient8807" id="linearGradient8813-2-5-4" gradientUnits="userSpaceOnUse" x1="164.30165" y1="206.35252" x2="230" y2="226.22047" gradientTransform="matrix(-0.25260302,-0.25260302,0.25260302,-0.25260302,173.19805,280.89737)"/>
    <linearGradient inkscape:collect="always" xlink:href="#linearGradient8807" id="linearGradient8817-7-9-7" gradientUnits="userSpaceOnUse" gradientTransform="matrix(-0.25260302,0.25260302,-0.25260302,-0.25260302,281.206,173.08692)" x1="164.30165" y1="206.35252" x2="230" y2="226.22047"/>
    <linearGradient gradientTransform="matrix(0.36560685,0,0,0.36560685,96.265725,95.753253)" inkscape:collect="always" xlink:href="#linearGradient8930" id="linearGradient8884-2-2-4" x1="153.6378" y1="71.999992" x2="250.77165" y2="141.16536" gradientUnits="userSpaceOnUse"/>
    <linearGradient inkscape:collect="always" xlink:href="#linearGradient8971" id="linearGradient8973-1-9-0" x1="196" y1="124.12598" x2="156.07875" y2="61.999989" gradientUnits="userSpaceOnUse" gradientTransform="matrix(0.3445367,0,0,0.3445367,99.94026,99.45279)"/>
    <linearGradient inkscape:collect="always" xlink:href="#linearGradient8971" id="linearGradient8977-1-6-6" gradientUnits="userSpaceOnUse" x1="196" y1="124.12598" x2="156.07875" y2="61.999989" gradientTransform="matrix(0.24362425,-0.24362425,0.24362425,0.24362425,69.019172,172.72644)"/>
    <linearGradient inkscape:collect="always" xlink:href="#linearGradient8971" id="linearGradient8981-5-1-8" gradientUnits="userSpaceOnUse" gradientTransform="matrix(0,-0.3445367,0.3445367,0,99.9732,245.45819)" x1="196" y1="124.12598" x2="156.07875" y2="61.999989"/>
    <linearGradient inkscape:collect="always" xlink:href="#linearGradient8633" id="linearGradient8858-9-0-7" gradientUnits="userSpaceOnUse" gradientTransform="matrix(2.7849862,0,0,2.7849862,204.97078,206.15322)" x1="2.133321" y1="1.424881" x2="45.916695" y2="45.208263"/>
    <linearGradient inkscape:collect="always" xlink:href="#linearGradient8666" id="linearGradient8856-4-1-2" gradientUnits="userSpaceOnUse" x1="213.2054" y1="165.99998" x2="213.2054" y2="261.88123" gradientTransform="matrix(0.47631286,0,0,0.47631286,188.04904,187.4004)"/>
    <linearGradient inkscape:collect="always" xlink:href="#linearGradient8782" id="linearGradient8784-0-9-0" x1="214" y1="191.32283" x2="214" y2="237.51836" gradientUnits="userSpaceOnUse" gradientTransform="matrix(0.50312944,0,0,0.50312944,182.33126,181.68752)"/>
    <linearGradient inkscape:collect="always" xlink:href="#linearGradient8807" id="linearGradient8809-7-2-59" x1="164.30165" y1="206.35252" x2="230" y2="226.22047" gradientUnits="userSpaceOnUse" gradientTransform="matrix(0.47631286,0,0,0.47631286,188.13052,187.72634)"/>
    <linearGradient inkscape:collect="always" xlink:href="#linearGradient8807" id="linearGradient8813-2-5-0" gradientUnits="userSpaceOnUse" x1="164.30165" y1="206.35252" x2="230" y2="226.22047" gradientTransform="matrix(-0.33680402,-0.33680402,0.33680402,-0.33680402,289.24178,432.87024)"/>
    <linearGradient inkscape:collect="always" xlink:href="#linearGradient8807" id="linearGradient8817-7-9-9" gradientUnits="userSpaceOnUse" gradientTransform="matrix(-0.33680402,0.33680402,-0.33680402,-0.33680402,433.2524,289.12298)" x1="164.30165" y1="206.35252" x2="230" y2="226.22047"/>
    <linearGradient gradientTransform="matrix(0.4874758,0,0,0.4874758,186.66534,186.01142)" inkscape:collect="always" xlink:href="#linearGradient8930" id="linearGradient8884-2-2-1" x1="153.6378" y1="71.999992" x2="250.77165" y2="141.16536" gradientUnits="userSpaceOnUse"/>
    <linearGradient inkscape:collect="always" xlink:href="#linearGradient8971" id="linearGradient8973-1-9-1" x1="196" y1="124.12598" x2="156.07875" y2="61.999989" gradientUnits="userSpaceOnUse" gradientTransform="matrix(0.45938226,0,0,0.45938226,191.56472,190.94414)"/>
    <linearGradient inkscape:collect="always" xlink:href="#linearGradient8971" id="linearGradient8977-1-6-9" gradientUnits="userSpaceOnUse" x1="196" y1="124.12598" x2="156.07875" y2="61.999989" gradientTransform="matrix(0.32483234,-0.32483234,0.32483234,0.32483234,150.33662,288.64236)"/>
    <linearGradient inkscape:collect="always" xlink:href="#linearGradient8971" id="linearGradient8981-5-1-7" gradientUnits="userSpaceOnUse" gradientTransform="matrix(0,-0.45938226,0.45938226,0,191.60866,385.618)" x1="196" y1="124.12598" x2="156.07875" y2="61.999989"/>
    <filter inkscape:collect="always" style="color-interpolation-filters:sRGB" id="filter8868-6" x="-0.011991367" width="1.0239826" y="-0.012008646" height="1.0240173">
      <feGaussianBlur inkscape:collect="always" stdDeviation="1.2464968" id="feGaussianBlur8870-8"/>
    </filter>
    <filter inkscape:collect="always" style="color-interpolation-filters:sRGB" id="filter8868-6-3" x="-0.011991367" width="1.0239826" y="-0.012008646" height="1.0240173">
      <feGaussianBlur inkscape:collect="always" stdDeviation="1.2464968" id="feGaussianBlur8870-8-6"/>
    </filter>
    <filter inkscape:collect="always" style="color-interpolation-filters:sRGB" id="filter8868-6-3-1" x="-0.011991367" width="1.0239826" y="-0.012008646" height="1.0240173">
      <feGaussianBlur inkscape:collect="always" stdDeviation="1.2464968" id="feGaussianBlur8870-8-6-5"/>
    </filter>
    <filter inkscape:collect="always" style="color-interpolation-filters:sRGB" id="filter8868-6-3-7" x="-0.011991367" width="1.0239826" y="-0.012008646" height="1.0240173">
      <feGaussianBlur inkscape:collect="always" stdDeviation="1.2464968" id="feGaussianBlur8870-8-6-1"/>
    </filter>
  </defs>
  <sodipodi:namedview pagecolor="#383c4a" bordercolor="#ffffff" borderopacity="0.62745098" objecttolerance="4" gridtolerance="10" guidetolerance="4" inkscape:pageopacity="0" inkscape:pageshadow="2" inkscape:window-width="640" inkscape:window-height="480" id="namedview20" showgrid="true" inkscape:zoom="16.386532" inkscape:cx="-50.133191" inkscape:cy="102.20575" inkscape:current-layer="layer6" inkscape:snap-smooth-nodes="false" showguides="true" borderlayer="true" inkscape:showpageshadow="false" inkscape:guide-bbox="true" guidecolor="#bd4fff" guideopacity="0.78431373" inkscape:snap-nodes="true" inkscape:lockguides="false" fit-margin-top="0" fit-margin-left="0" fit-margin-right="0" fit-margin-bottom="0" guidehicolor="#ff0101" guidehiopacity="0.78431373" inkscape:snap-page="true" inkscape:object-nodes="true" inkscape:snap-bbox="true" inkscape:snap-global="true" inkscape:snap-object-midpoints="false" inkscape:snap-bbox-edge-midpoints="false">
    <inkscape:grid type="xygrid" id="grid4171" empspacing="4" dotted="false" originx="2.7755576e-17" originy="0" spacingx="1" spacingy="1" color="#5a5a5a" opacity="0.23529412" empcolor="#5a5a5a" empopacity="0.47058824" visible="true"/>
    <inkscape:grid type="axonomgrid" id="grid4699" units="mm" empspacing="4" color="#5a5a5a" opacity="0.23529412" empcolor="#5a5a5a" empopacity="0.47058824" gridanglex="45" gridanglez="45" spacingy="3.7795276" visible="false" originx="1.3228346" originy="1.3228346"/>
    <sodipodi:guide position="48,0" orientation="1,0" id="guide4568" inkscape:locked="false" inkscape:label="" inkscape:color="rgb(189,79,255)"/>
    <sodipodi:guide position="111.99996,-3.9999999e-05" orientation="0,1" id="guide4570" inkscape:locked="false" inkscape:label="" inkscape:color="rgb(189,79,255)"/>
    <sodipodi:guide position="0,0" orientation="1,0" id="guide4572" inkscape:locked="false" inkscape:label="" inkscape:color="rgb(189,79,255)"/>
    <sodipodi:guide position="0,48" orientation="0,1" id="guide4574" inkscape:locked="false" inkscape:label="" inkscape:color="rgb(189,79,255)"/>
    <sodipodi:guide position="0,80" orientation="0,1" id="guide4576" inkscape:locked="false" inkscape:label="" inkscape:color="rgb(189,79,255)"/>
    <sodipodi:guide position="-32,48" orientation="1,0" id="guide4578" inkscape:locked="false" inkscape:label="" inkscape:color="rgb(189,79,255)"/>
    <sodipodi:guide position="-32,104" orientation="0,1" id="guide4580" inkscape:locked="false" inkscape:label="" inkscape:color="rgb(189,79,255)"/>
    <sodipodi:guide position="-56,80" orientation="1,0" id="guide4582" inkscape:locked="false" inkscape:label="" inkscape:color="rgb(189,79,255)"/>
    <sodipodi:guide position="48,-64" orientation="0,1" id="guide4584" inkscape:locked="false" inkscape:label="" inkscape:color="rgb(189,79,255)"/>
    <sodipodi:guide position="0,0" orientation="-0.70710678,0.70710678" id="guide4588" inkscape:locked="false" inkscape:label="" inkscape:color="rgb(189,79,255)"/>
    <sodipodi:guide position="-56,80" orientation="-0.70710678,0.70710678" id="guide4573" inkscape:locked="false" inkscape:label="" inkscape:color="rgb(189,79,255)"/>
    <sodipodi:guide position="-32,48" orientation="-0.70710678,0.70710678" id="guide4575" inkscape:locked="false" inkscape:label="" inkscape:color="rgb(189,79,255)"/>
    <sodipodi:guide position="48,-64" orientation="-0.70710678,0.70710678" id="guide4577" inkscape:locked="false" inkscape:label="" inkscape:color="rgb(189,79,255)"/>
    <sodipodi:guide position="47.999962,0" orientation="0.70710678,0.70710678" id="guide4697" inkscape:locked="false" inkscape:label="" inkscape:color="rgb(189,79,255)"/>
    <sodipodi:guide position="207.99995,-288" orientation="0,1" id="guide7833" inkscape:locked="false"/>
    <sodipodi:guide position="335.99994,-288" orientation="1,0" id="guide7835" inkscape:locked="false" inkscape:label="" inkscape:color="rgb(189,79,255)"/>
    <sodipodi:guide position="111.99996,-64" orientation="1,0" id="guide7915" inkscape:locked="false"/>
    <sodipodi:guide position="111.99996,-160" orientation="0,1" id="guide7917" inkscape:locked="false"/>
    <sodipodi:guide position="207.99996,-160" orientation="1,0" id="guide7919" inkscape:locked="false"/>
    <sodipodi:guide position="111.99996,-160" orientation="-0.70710678,0.70710678" id="guide7921" inkscape:locked="false" inkscape:label="" inkscape:color="rgb(189,79,255)"/>
    <sodipodi:guide position="207.99996,-288" orientation="-0.70710678,0.70710678" id="guide7923" inkscape:locked="false" inkscape:label="" inkscape:color="rgb(189,79,255)"/>
    <sodipodi:guide position="-72,104" orientation="1,0" id="guide7824" inkscape:locked="false"/>
    <sodipodi:guide position="-56,120" orientation="0,1" id="guide7826" inkscape:locked="false"/>
    <sodipodi:guide position="-72,104" orientation="-0.70710678,0.70710678" id="guide7828" inkscape:locked="false" inkscape:label="" inkscape:color="rgb(189,79,255)"/>
  </sodipodi:namedview>
  <g style="display:inline" inkscape:label="icon_96" id="g8840" inkscape:groupmode="layer" transform="translate(-111.99996,-112)">
    <g style="display:none" inkscape:label="frame" id="g8776" inkscape:groupmode="layer">
      <rect style="color:#000000;clip-rule:nonzero;display:inline;overflow:visible;visibility:visible;opacity:1;isolation:auto;mix-blend-mode:normal;color-interpolation:sRGB;color-interpolation-filters:linearRGB;solid-color:#000000;solid-opacity:1;vector-effect:none;fill:#000000;fill-opacity:1;fill-rule:nonzero;stroke:#ff24f7;stroke-width:0;stroke-linecap:square;stroke-linejoin:miter;stroke-miterlimit:4;stroke-dasharray:none;stroke-dashoffset:0;stroke-opacity:0.99481865;marker:none;marker-start:none;marker-mid:none;marker-end:none;paint-order:normal;color-rendering:auto;image-rendering:auto;shape-rendering:auto;text-rendering:auto;enable-background:accumulate" id="rect_96" width="96" height="96" x="111.99996" y="112" inkscape:label="frame_96"/>
      <text inkscape:label="txt_96" id="text_96" y="168.73633" x="144.72458" style="font-size:24px;line-height:0%;font-family:sans-serif;letter-spacing:0px;word-spacing:0px;display:inline;opacity:1;fill:#ffffff;fill-opacity:1;stroke:none;stroke-width:0.04917826px;stroke-linecap:butt;stroke-linejoin:miter;stroke-opacity:1" xml:space="preserve">
        <tspan id="tspan8768" style="font-size:24px;line-height:0%;fill:#ffffff;fill-opacity:1;stroke:none;stroke-width:0.04917826px" y="168.73633" x="144.72458" sodipodi:role="line">96</tspan>
      </text>
    </g>
    <g style="display:inline" inkscape:label="icon" id="g8838" inkscape:groupmode="layer">
      <path sodipodi:nodetypes="scccsscccsccccccsccccc" inkscape:connector-curvature="0" id="path8866-9-2-8" d="m 164.15165,51.022459 c -4.39592,0 -8.79217,1.683765 -12.16054,5.052123 -6.7367,6.736779 -6.7367,17.584297 0,24.321065 L 199.76788,128.1724 H 75.214104 c -9.527177,0 -17.196172,7.66901 -17.196172,17.19617 0,9.52712 7.668995,17.19618 17.196172,17.19618 17.90524,-0.0494 43.298866,-0.0556 67.616436,-0.0495 l -88.121625,88.12161 c -6.736779,6.73671 -6.736716,17.58434 0,24.32108 6.736716,6.73671 17.584353,6.73671 24.321066,0 12.934463,-13.00792 31.461609,-31.5437 49.031539,-49.10366 5.84024,42.53217 42.15746,74.2395 85.08871,74.28803 47.48813,-1.4e-4 85.98482,-38.49685 85.98498,-85.98497 -0.0238,-24.81357 -10.76598,-48.40712 -29.46592,-64.71742 -6.36599,-6.34936 -63.54227,-63.379025 -93.35917,-93.365366 -3.36835,-3.368359 -7.76256,-5.052123 -12.15847,-5.052123 z m 50.00939,142.675061 c 11.08341,1.1e-4 20.06828,8.98497 20.06838,20.06839 -1e-4,11.0834 -8.98497,20.06827 -20.06838,20.06837 -11.08342,-1e-4 -20.06828,-8.98497 -20.06838,-20.06837 1e-4,-11.08342 8.98496,-20.06828 20.06838,-20.06839 z" style="display:inline;opacity:1;fill:#000000;fill-opacity:0.203125;stroke:none;stroke-width:0.53740788;stroke-linecap:round;stroke-linejoin:round;stroke-miterlimit:4;stroke-dasharray:none;stroke-opacity:1;filter:url(#filter8868-6-3-1);enable-background:new" transform="matrix(0.34453668,0,0,0.34453668,99.94026,99.45279)"/>
      <path style="display:inline;opacity:1;fill:url(#linearGradient8858-9-0-5);fill-opacity:1;stroke:none;stroke-width:0.18198444;stroke-linecap:round;stroke-linejoin:round;stroke-miterlimit:4;stroke-dasharray:none;stroke-opacity:1;enable-background:new" d="m 156.55701,117.76718 c -1.48861,0 -2.97733,0.57018 -4.11796,1.71081 -2.28128,2.2813 -2.28128,5.95464 0,8.23593 l 16.17882,16.17882 h -42.17813 c -3.22621,0 -5.82319,2.59699 -5.82319,5.82321 0,3.2262 2.59698,5.82319 5.82319,5.82319 6.06333,-0.0168 14.66247,-0.0187 22.89722,-0.0168 L 119.496,185.36336 c -2.2813,2.28127 -2.28127,5.95465 0,8.23593 2.28128,2.28129 5.95466,2.28129 8.23593,0 4.38005,-4.40492 10.65398,-10.68176 16.60374,-16.62815 1.97771,14.40282 14.27594,25.13999 28.81391,25.15643 16.08108,-3e-5 29.11738,-13.03634 29.11743,-29.11742 -0.007,-8.4027 -3.64572,-16.39228 -9.97815,-21.91549 -2.15576,-2.15012 -21.51758,-21.46227 -31.61459,-31.61666 -1.14063,-1.14064 -2.62866,-1.71082 -4.11726,-1.71082 z m 16.93487,48.31458 c 3.75321,3e-5 6.79579,3.0426 6.79582,6.79582 -3e-5,3.75321 -3.04261,6.7958 -6.79582,6.79584 -3.75323,-4e-5 -6.7958,-3.04263 -6.79583,-6.79584 3e-5,-3.75322 3.0426,-6.79579 6.79583,-6.79582 z" id="circle4567-3-4-9-4" inkscape:connector-curvature="0" sodipodi:nodetypes="scccsscccsccccccsccccc"/>
      <path inkscape:connector-curvature="0" id="path8852-9-3-3" d="m 173.46774,150.52965 a 22.370415,22.370415 0 0 0 -22.37016,22.37016 22.370415,22.370415 0 0 0 22.37016,22.37018 22.370415,22.370415 0 0 0 22.37018,-22.37018 22.370415,22.370415 0 0 0 -22.37018,-22.37016 z m 0,13.62098 a 8.749056,8.749056 0 0 1 8.74919,8.74918 8.749056,8.749056 0 0 1 -8.74919,8.74922 8.749056,8.749056 0 0 1 -8.7492,-8.74922 8.749056,8.749056 0 0 1 8.7492,-8.74918 z" style="display:inline;opacity:1;fill:#000000;fill-opacity:0.09895833;stroke:none;stroke-width:0.23302521;stroke-linecap:round;stroke-linejoin:round;stroke-miterlimit:4;stroke-dasharray:none;stroke-opacity:1;enable-background:new"/>
      <path style="display:inline;opacity:1;fill:url(#linearGradient8856-4-1-5);fill-opacity:1;stroke:none;stroke-width:0.18198444;stroke-linecap:round;stroke-linejoin:round;stroke-miterlimit:4;stroke-dasharray:none;stroke-opacity:1;enable-background:new" d="m 173.46774,155.40728 a 17.470506,17.470506 0 0 0 -17.4703,17.4703 17.470506,17.470506 0 0 0 17.4703,17.47032 17.470506,17.470506 0 0 0 17.47034,-17.47032 17.470506,17.470506 0 0 0 -17.47034,-17.4703 z m 0,10.63749 a 6.8327042,6.8327042 0 0 1 6.8328,6.83281 6.8327042,6.8327042 0 0 1 -6.8328,6.83282 6.8327042,6.8327042 0 0 1 -6.83281,-6.83282 6.8327042,6.8327042 0 0 1 6.83281,-6.83281 z" id="circle4575-7-0-1-1" inkscape:connector-curvature="0"/>
      <path inkscape:connector-curvature="0" style="display:inline;opacity:0.88399999;fill:#f5eece;fill-opacity:0.671875;stroke:none;stroke-width:0.18198444;stroke-linecap:round;stroke-linejoin:round;stroke-miterlimit:4;stroke-dasharray:none;stroke-opacity:1;enable-background:new" d="m 156.44627,117.9978 c -1.48859,0 -2.97711,0.57044 -4.11774,1.71107 -1.18713,1.18714 -1.75521,2.7511 -1.70682,4.29973 0.0447,-1.42731 0.61267,-2.84161 1.70682,-3.93576 1.14063,-1.14064 2.62915,-1.71108 4.11774,-1.71108 1.4886,0 2.97712,0.57044 4.11775,1.71108 10.097,10.15439 29.45838,29.4665 31.61412,31.6166 a 29.117511,29.117511 0 0 1 9.97076,21.76633 29.117511,29.117511 0 0 0 0.007,-0.21505 29.117511,29.117511 0 0 0 -9.97823,-21.91526 c -2.15496,-2.15011 -21.51634,-21.46219 -31.61334,-31.61659 -1.14063,-1.14063 -2.62915,-1.71107 -4.11775,-1.71107 z m -30.11664,26.12543 c -3.22623,0 -5.82351,2.59726 -5.82351,5.82348 0,0.0609 0.002,0.12135 0.005,0.18195 0.0957,-3.14118 2.65366,-5.64152 5.81889,-5.64152 h 42.17773 l -0.36396,-0.36397 z m 22.533,11.99425 -29.47686,29.47686 c -1.18713,1.18713 -1.75521,2.75109 -1.70681,4.29975 0.0447,-1.42735 0.61266,-2.84163 1.70681,-3.93579 l 29.84083,-29.84082 c -0.12225,-1e-5 -0.2416,3e-5 -0.36397,0 z" id="path4672-5-9-9-4"/>
      <path inkscape:connector-curvature="0" style="display:inline;opacity:1;fill:#000000;fill-opacity:0.55208333;stroke:none;stroke-width:0.18198444;stroke-linecap:round;stroke-linejoin:round;stroke-miterlimit:4;stroke-dasharray:none;stroke-opacity:1;enable-background:new" d="m 150.80964,123.58712 c -0.0485,1.54863 0.51968,3.11259 1.70682,4.29973 l 15.81486,15.81486 h 0.36399 l -16.17885,-16.17883 c -1.09414,-1.09415 -1.66221,-2.50845 -1.70682,-3.93576 z m -30.11095,26.12008 c -0.002,0.0606 -0.005,0.1209 -0.005,0.18194 0,3.22621 2.59728,5.82349 5.82351,5.82349 5.97333,-0.0168 14.41045,-0.0188 22.533,-0.0168 l 0.36397,-0.36396 c -8.23474,-0.001 -16.83366,-3.4e-4 -22.89697,0.0168 -3.16521,0 -5.72319,-2.50035 -5.81889,-5.64151 z m 81.63816,23.32706 a 29.117511,29.117511 0 0 1 -29.11005,28.90248 29.117511,29.117511 0 0 1 -28.81362,-25.15616 c -5.9498,5.94639 -12.22391,12.22284 -16.60395,16.62777 -2.28128,2.28128 -5.95422,2.28128 -8.2355,0 -1.09414,-1.09414 -1.66222,-2.50845 -1.70682,-3.93577 -0.0484,1.54863 0.51969,3.1126 1.70682,4.29973 2.28128,2.28128 5.95422,2.28128 8.2355,0 4.38004,-4.40493 10.65415,-10.68138 16.60395,-16.62775 a 29.117511,29.117511 0 0 0 28.81362,25.15614 29.117511,29.117511 0 0 0 29.11752,-29.11752 29.117511,29.117511 0 0 0 -0.008,-0.14895 z" id="path4677-2-1-4-9"/>
      <path style="display:inline;opacity:1;fill:#000000;fill-opacity:0.57291667;stroke:none;stroke-width:0.18198444;stroke-linecap:round;stroke-linejoin:round;stroke-miterlimit:4;stroke-dasharray:none;stroke-opacity:1;enable-background:new" d="m 173.46774,155.40728 a 17.470506,17.470506 0 0 0 -17.4703,17.4703 17.470506,17.470506 0 0 0 0.015,0.41724 17.470506,17.470506 0 0 1 17.45565,-17.17308 17.470506,17.470506 0 0 1 17.45566,17.05028 17.470506,17.470506 0 0 0 0.015,-0.29444 17.470506,17.470506 0 0 0 -17.47033,-17.4703 z" id="circle8657-7-7-2" inkscape:connector-curvature="0"/>
      <path inkscape:connector-curvature="0" id="path8670-7-8-0" d="m 173.38604,190.42985 a 17.470506,17.470506 0 0 0 17.47033,-17.47032 17.470506,17.470506 0 0 0 -0.015,-0.41724 17.470506,17.470506 0 0 1 -17.45566,17.17309 17.470506,17.470506 0 0 1 -17.45567,-17.05029 17.470506,17.470506 0 0 0 -0.015,0.29444 17.470506,17.470506 0 0 0 17.47032,17.47032 z" style="display:inline;opacity:1;fill:#f4f4f4;fill-opacity:1;stroke:none;stroke-width:0.18198444;stroke-linecap:round;stroke-linejoin:round;stroke-miterlimit:4;stroke-dasharray:none;stroke-opacity:1;enable-background:new"/>
      <path style="display:inline;opacity:1;fill:url(#linearGradient8809-7-2-5);fill-opacity:1;stroke:none;stroke-width:0.18198444;stroke-linecap:round;stroke-linejoin:round;stroke-miterlimit:4;stroke-dasharray:none;stroke-opacity:1;enable-background:new" d="m 173.52917,156.01733 a 17.470506,17.470506 0 0 0 -17.47031,17.47032 17.470506,17.470506 0 0 0 1.31381,6.62349 l 10.63192,-10.63193 a 6.8327042,6.8327042 0 0 1 5.52458,-2.82438 6.8327042,6.8327042 0 0 1 6.83281,6.83282 6.8327042,6.8327042 0 0 1 -1.68013,4.48077 l 7.52566,7.52565 a 17.470506,17.470506 0 0 0 4.79198,-12.00642 17.470506,17.470506 0 0 0 -17.47032,-17.47032 z" id="path8794-1-5-8" inkscape:connector-curvature="0"/>
      <path inkscape:connector-curvature="0" id="path8811-5-0-9" d="m 161.04525,185.33723 a 17.470506,17.470506 0 0 0 24.70674,0 17.470506,17.470506 0 0 0 3.75452,-5.61252 H 174.4707 a 6.8327042,6.8327042 0 0 1 -5.90361,-1.90934 6.8327042,6.8327042 0 0 1 0,-9.66304 6.8327042,6.8327042 0 0 1 4.35642,-1.98036 v -10.64289 a 17.470506,17.470506 0 0 0 -11.87826,5.10139 17.470506,17.470506 0 0 0 0,24.70676 z" style="display:inline;opacity:1;fill:url(#linearGradient8813-2-5-4);fill-opacity:1;stroke:none;stroke-width:0.18198444;stroke-linecap:round;stroke-linejoin:round;stroke-miterlimit:4;stroke-dasharray:none;stroke-opacity:1;enable-background:new"/>
      <path style="display:inline;opacity:1;fill:url(#linearGradient8817-7-9-7);fill-opacity:1;stroke:none;stroke-width:0.18198444;stroke-linecap:round;stroke-linejoin:round;stroke-miterlimit:4;stroke-dasharray:none;stroke-opacity:1;enable-background:new" d="m 185.64588,185.23971 a 17.470506,17.470506 0 0 0 0,-24.70674 17.470506,17.470506 0 0 0 -5.61252,-3.75453 v 15.03581 a 6.8327042,6.8327042 0 0 1 -1.90932,5.90361 6.8327042,6.8327042 0 0 1 -9.66306,0 6.8327042,6.8327042 0 0 1 -1.98036,-4.35641 h -10.64289 a 17.470506,17.470506 0 0 0 5.10141,11.87826 17.470506,17.470506 0 0 0 24.70674,0 z" id="path8815-9-3-2" inkscape:connector-curvature="0"/>
      <path style="display:inline;opacity:1;fill:#000000;fill-opacity:0.484375;stroke:none;stroke-width:0.73237848;stroke-linecap:round;stroke-linejoin:round;stroke-miterlimit:4;stroke-dasharray:none;stroke-opacity:0.203125;enable-background:new" d="m 173.46774,150.52965 a 22.328897,22.328897 0 0 0 -22.32895,22.32896 22.328897,22.328897 0 0 0 0.0203,0.56778 22.328897,22.328897 0 0 1 22.30872,-21.92558 22.328897,22.328897 0 0 1 22.30873,21.75992 22.328897,22.328897 0 0 0 0.0203,-0.40212 22.328897,22.328897 0 0 0 -22.32897,-22.32896 z" id="circle8736-7-6-6" inkscape:connector-curvature="0"/>
      <path inkscape:connector-curvature="0" id="path8850-7-1-6" d="m 173.39115,195.93708 a 22.292975,22.292974 0 0 0 22.29305,-22.29303 22.292975,22.292974 0 0 0 -0.0203,-0.56686 22.292975,22.292974 0 0 1 -22.27284,21.89031 22.292975,22.292974 0 0 1 -22.27283,-21.72492 22.292975,22.292974 0 0 0 -0.0203,0.40147 22.292975,22.292974 0 0 0 22.29303,22.29303 z" style="display:inline;opacity:1;fill:#ffffff;fill-opacity:0.38020833;stroke:none;stroke-width:0.73120034;stroke-linecap:round;stroke-linejoin:round;stroke-miterlimit:4;stroke-dasharray:none;stroke-opacity:0.203125;enable-background:new"/>
      <path sodipodi:nodetypes="ccccccsc" inkscape:connector-curvature="0" id="path8876-3-3-5" d="m 156.34487,115.18764 c -1.57965,0 -3.15941,0.60506 -4.36982,1.81545 -2.42077,2.42081 -2.42077,6.31878 0,8.7396 l 17.16825,17.16824 25.1186,7.64235 c 0,0 -22.83348,-22.7748 -33.54798,-33.55019 -1.2104,-1.21039 -2.78942,-1.81543 -4.36905,-1.81543 z" style="display:none;opacity:1;fill:url(#linearGradient8884-2-2-4);fill-opacity:1;stroke:none;stroke-width:0.19311367;stroke-linecap:round;stroke-linejoin:round;stroke-miterlimit:4;stroke-dasharray:none;stroke-opacity:1;enable-background:new" inkscape:label="x"/>
      <path inkscape:label="x" style="display:inline;opacity:1;fill:url(#linearGradient8973-1-9-0);fill-opacity:1;stroke:none;stroke-width:0.18198444;stroke-linecap:round;stroke-linejoin:round;stroke-miterlimit:4;stroke-dasharray:none;stroke-opacity:1;enable-background:new" d="m 156.55701,117.76718 c -1.48861,0 -2.97733,0.57018 -4.11796,1.71081 -2.28128,2.2813 -2.28128,5.95464 0,8.23593 l 16.17882,16.17882 z" id="path8965-6-2-0" inkscape:connector-curvature="0" sodipodi:nodetypes="cccccc"/>
      <path sodipodi:nodetypes="cccccc" inkscape:connector-curvature="0" id="path8975-5-0-4" d="m 122.00348,145.64259 c -1.0526,1.05261 -1.70211,2.50847 -1.70211,4.12158 10e-6,3.22623 2.59746,5.82366 5.82369,5.82368 h 22.88031 l -27.00188,-9.94526 z" style="display:inline;opacity:1;fill:url(#linearGradient8977-1-6-6);fill-opacity:1;stroke:none;stroke-width:0.18198444;stroke-linecap:round;stroke-linejoin:round;stroke-miterlimit:4;stroke-dasharray:none;stroke-opacity:1;enable-background:new" inkscape:label="x"/>
      <path inkscape:label="x" style="display:inline;opacity:1;fill:url(#linearGradient8981-5-1-8);fill-opacity:1;stroke:none;stroke-width:0.18198444;stroke-linecap:round;stroke-linejoin:round;stroke-miterlimit:4;stroke-dasharray:none;stroke-opacity:1;enable-background:new" d="m 118.28759,188.84144 c 1e-5,1.48861 0.57018,2.97733 1.71082,4.11798 2.28131,2.28126 5.95464,2.28126 8.23593,-2e-5 l 16.17884,-16.17882 -26.12558,12.06086 z" id="path8979-6-6-8" inkscape:connector-curvature="0" sodipodi:nodetypes="cccccc"/>
      <circle style="color:#000000;clip-rule:nonzero;display:block;overflow:visible;visibility:visible;opacity:1;isolation:auto;mix-blend-mode:normal;color-interpolation:sRGB;color-interpolation-filters:linearRGB;solid-color:#000000;solid-opacity:1;vector-effect:none;fill:url(#linearGradient8784-0-9-3);fill-opacity:1;fill-rule:nonzero;stroke:none;stroke-width:0.75469416;stroke-linecap:butt;stroke-linejoin:miter;stroke-miterlimit:4;stroke-dasharray:none;stroke-dashoffset:0;stroke-opacity:0.203125;marker:none;marker-start:none;marker-mid:none;marker-end:none;paint-order:fill markers stroke;color-rendering:auto;image-rendering:auto;shape-rendering:auto;text-rendering:auto;enable-background:accumulate" id="path8776-1-4-6" cx="173.4722" cy="172.89859" r="8.9434233"/>
      <circle r="14.170289" cy="172.89859" cx="173.4722" id="circle8860-6-0-4" style="color:#000000;clip-rule:nonzero;display:block;overflow:visible;visibility:visible;opacity:1;isolation:auto;mix-blend-mode:normal;color-interpolation:sRGB;color-interpolation-filters:linearRGB;solid-color:#000000;solid-opacity:1;vector-effect:none;fill:none;fill-opacity:1;fill-rule:nonzero;stroke:#f4f4f4;stroke-width:0.19673045;stroke-linecap:butt;stroke-linejoin:miter;stroke-miterlimit:4;stroke-dasharray:none;stroke-dashoffset:0;stroke-opacity:1;marker:none;marker-start:none;marker-mid:none;marker-end:none;paint-order:fill markers stroke;color-rendering:auto;image-rendering:auto;shape-rendering:auto;text-rendering:auto;enable-background:accumulate"/>
      <circle style="color:#000000;clip-rule:nonzero;display:block;overflow:visible;visibility:visible;opacity:1;isolation:auto;mix-blend-mode:normal;color-interpolation:sRGB;color-interpolation-filters:linearRGB;solid-color:#000000;solid-opacity:1;vector-effect:none;fill:none;fill-opacity:1;fill-rule:nonzero;stroke:#f4f4f4;stroke-width:0.161511;stroke-linecap:butt;stroke-linejoin:miter;stroke-miterlimit:4;stroke-dasharray:none;stroke-dashoffset:0;stroke-opacity:1;marker:none;marker-start:none;marker-mid:none;marker-end:none;paint-order:fill markers stroke;color-rendering:auto;image-rendering:auto;shape-rendering:auto;text-rendering:auto;enable-background:accumulate" id="circle8864-7-6-9" cx="173.4722" cy="172.89859" r="11.633466"/>
    </g>
  </g>
</svg>