<?xml version="1.0" encoding="UTF-8" standalone="yes"?>
<svg xmlns:dc="http://purl.org/dc/elements/1.1/" xmlns:cc="http://creativecommons.org/ns#" xmlns:rdf="http://www.w3.org/1999/02/22-rdf-syntax-ns#" xmlns:svg="http://www.w3.org/2000/svg" xmlns="http://www.w3.org/2000/svg" xmlns:xlink="http://www.w3.org/1999/xlink" xmlns:sodipodi="http://sodipodi.sourceforge.net/DTD/sodipodi-0.dtd" xmlns:inkscape="http://www.inkscape.org/namespaces/inkscape" height="96" viewBox="0 0 96 96" width="96" id="svg2" version="1.1" inkscape:version="0.92.2 5c3e80d, 2017-08-06" sodipodi:docname="filezilla.svg" enable-background="new" folder="96">
  <title id="title4675">Template icons dark</title>
  <metadata id="metadata24">
    <rdf:RDF>
      <cc:Work rdf:about="">
        <dc:format>image/svg+xml</dc:format>
        <dc:type rdf:resource="http://purl.org/dc/dcmitype/StillImage"/>
        <dc:title>Template icons dark</dc:title>
        <dc:date>17/05/13</dc:date>
        <dc:creator>
          <cc:Agent>
            <dc:title>wfpaisa</dc:title>
          </cc:Agent>
        </dc:creator>
        <dc:rights>
          <cc:Agent>
            <dc:title>License: GPLv3</dc:title>
          </cc:Agent>
        </dc:rights>
        <dc:language>es-en</dc:language>
        <dc:subject>
          <rdf:Bag>
            <rdf:li>plane-icon-theme</rdf:li>
          </rdf:Bag>
        </dc:subject>
        <dc:description>Template for create set icons</dc:description>
        <cc:license rdf:resource="https://www.gnu.org/licenses/gpl-3.0.en.html"/>
      </cc:Work>
    </rdf:RDF>
  </metadata>
  <defs id="defs22">
    <linearGradient id="linearGradient967" inkscape:collect="always">
      <stop id="stop963" offset="0" style="stop-color:#ffffff;stop-opacity:0.45604396"/>
      <stop id="stop965" offset="1" style="stop-color:#ffffff;stop-opacity:0"/>
    </linearGradient>
    <linearGradient inkscape:collect="always" id="linearGradient946">
      <stop style="stop-color:#c7c7c7;stop-opacity:1" offset="0" id="stop942"/>
      <stop style="stop-color:#ffffff;stop-opacity:0.98901099" offset="1" id="stop944"/>
    </linearGradient>
    <linearGradient inkscape:collect="always" id="linearGradient919">
      <stop style="stop-color:#a61f23;stop-opacity:1" offset="0" id="stop915"/>
      <stop style="stop-color:#ff4955;stop-opacity:1" offset="1" id="stop917"/>
    </linearGradient>
    <linearGradient inkscape:collect="always" id="linearGradient904">
      <stop style="stop-color:#88c1df;stop-opacity:1" offset="0" id="stop900"/>
      <stop style="stop-color:#f0f5f8;stop-opacity:1" offset="1" id="stop902"/>
    </linearGradient>
    <linearGradient inkscape:collect="always" xlink:href="#linearGradient904" id="linearGradient906" x1="170" y1="186" x2="170" y2="118" gradientUnits="userSpaceOnUse" gradientTransform="translate(-1,-1)"/>
    <linearGradient inkscape:collect="always" xlink:href="#linearGradient919" id="linearGradient921" x1="165.92126" y1="192" x2="159" y2="147.66142" gradientUnits="userSpaceOnUse" gradientTransform="matrix(1.5614379,0,0,1.5614379,-89.610624,-90.571879)"/>
    <linearGradient inkscape:collect="always" xlink:href="#linearGradient946" id="linearGradient948" x1="161" y1="192.39384" x2="161" y2="128.88977" gradientUnits="userSpaceOnUse"/>
    <linearGradient gradientUnits="userSpaceOnUse" y2="258.86499" y1="123.859" x2="187.94701" x1="187.94701" id="a" gradientTransform="matrix(0.26323921,0,0,0.26323073,141.52577,105.95773)">
      <stop id="stop2" stop-color="#BF0000" offset="0"/>
      <stop id="stop4" stop-color="#8F0000" offset="1"/>
    </linearGradient>
    <linearGradient inkscape:collect="always" xlink:href="#linearGradient904" id="linearGradient906-2-1" x1="170" y1="186" x2="170" y2="118" gradientUnits="userSpaceOnUse" gradientTransform="matrix(0.17631236,0,0,0.17631236,-92.513198,-91.862573)"/>
    <linearGradient inkscape:collect="always" xlink:href="#linearGradient919" id="linearGradient1101" gradientUnits="userSpaceOnUse" gradientTransform="matrix(1.8908949,0,0,1.8908949,-141.68152,-140.94084)" x1="165.92126" y1="192" x2="159" y2="147.66142"/>
    <linearGradient inkscape:collect="always" xlink:href="#linearGradient919" id="linearGradient1101-3" gradientUnits="userSpaceOnUse" gradientTransform="matrix(2.5148902,0,0,2.5148902,-129.84638,-129.25162)" x1="165.92126" y1="192" x2="159" y2="147.66142"/>
    <linearGradient inkscape:collect="always" xlink:href="#linearGradient904" id="linearGradient906-7" x1="170" y1="186" x2="170" y2="118" gradientUnits="userSpaceOnUse" gradientTransform="matrix(1.33,0,0,1.33,57.260035,56.869697)"/>
    <linearGradient inkscape:collect="always" xlink:href="#linearGradient919" id="linearGradient1101-2" gradientUnits="userSpaceOnUse" gradientTransform="matrix(1.3125166,0,0,1.3125166,-129.59549,-129.6902)" x1="165.92126" y1="192" x2="159" y2="147.66142"/>
    <linearGradient inkscape:collect="always" xlink:href="#linearGradient904" id="linearGradient906-76" x1="170" y1="186" x2="170" y2="118" gradientUnits="userSpaceOnUse" gradientTransform="matrix(0.69412459,0,0,0.69412459,-31.945027,-32.553825)"/>
    <linearGradient inkscape:collect="always" xlink:href="#linearGradient919" id="linearGradient1101-7" gradientUnits="userSpaceOnUse" gradientTransform="matrix(0.98439784,0,0,0.98439784,-133.17307,-133.22042)" x1="165.92126" y1="192" x2="159" y2="147.66142"/>
    <linearGradient inkscape:collect="always" xlink:href="#linearGradient904" id="linearGradient906-9" x1="170" y1="186" x2="170" y2="118" gradientUnits="userSpaceOnUse" gradientTransform="matrix(0.52059892,0,0,0.52059892,-59.934449,-60.367395)"/>
    <linearGradient inkscape:collect="always" xlink:href="#linearGradient919" id="linearGradient1101-27" gradientUnits="userSpaceOnUse" gradientTransform="matrix(0.65625833,0,0,0.65625833,-120.79765,-121.09694)" x1="165.92126" y1="192" x2="159" y2="147.66142"/>
    <linearGradient inkscape:collect="always" xlink:href="#linearGradient904" id="linearGradient906-1" x1="170" y1="186" x2="170" y2="118" gradientUnits="userSpaceOnUse" gradientTransform="matrix(0.3470623,0,0,0.3470623,-71.972378,-72.528771)"/>
    <linearGradient inkscape:collect="always" xlink:href="#linearGradient919" id="linearGradient1101-77" gradientUnits="userSpaceOnUse" gradientTransform="matrix(0.4921886,0,0,0.4921886,-122.62684,-122.69038)" x1="165.92126" y1="192" x2="159" y2="147.66142"/>
    <linearGradient inkscape:collect="always" xlink:href="#linearGradient904" id="linearGradient906-94" x1="170" y1="186" x2="170" y2="118" gradientUnits="userSpaceOnUse" gradientTransform="matrix(0.260294,0,0,0.260294,-86.008268,-86.264618)"/>
    <linearGradient inkscape:collect="always" xlink:href="#linearGradient919" id="linearGradient1101-77-6" gradientUnits="userSpaceOnUse" gradientTransform="matrix(0.25781096,0,0,0.25781096,-105.16377,-104.8453)" x1="165.92126" y1="192" x2="159" y2="147.66142"/>
    <radialGradient inkscape:collect="always" xlink:href="#linearGradient967" id="radialGradient961" cx="190.99977" cy="155.34175" fx="190.99977" fy="155.34175" r="45.37402" gradientTransform="matrix(0.75002159,0,0,0.58055928,45.746051,62.814905)" gradientUnits="userSpaceOnUse"/>
    <radialGradient inkscape:collect="always" xlink:href="#linearGradient967" id="radialGradient971" gradientUnits="userSpaceOnUse" gradientTransform="matrix(0.56451189,0,0,0.43696425,65.348655,86.110566)" cx="105.66889" cy="162.23166" fx="105.66889" fy="162.23166" r="45.37402"/>
    <radialGradient inkscape:collect="always" xlink:href="#linearGradient967" id="radialGradient971-2" gradientUnits="userSpaceOnUse" gradientTransform="matrix(0.75080081,0,0,0.58116245,145.50375,172.72675)" cx="105.66889" cy="162.23166" fx="105.66889" fy="162.23166" r="45.37402"/>
    <radialGradient inkscape:collect="always" xlink:href="#linearGradient967" id="radialGradient961-2" cx="190.99977" cy="155.34175" fx="190.99977" fy="155.34175" r="45.37402" gradientTransform="matrix(0.99752871,0,0,0.77214384,119.43229,141.74353)" gradientUnits="userSpaceOnUse"/>
    <radialGradient inkscape:collect="always" xlink:href="#linearGradient967" id="radialGradient971-1" gradientUnits="userSpaceOnUse" gradientTransform="matrix(0.39184158,0,0,0.30330763,14.109206,27.911761)" cx="105.66889" cy="162.23166" fx="105.66889" fy="162.23166" r="45.37402"/>
    <radialGradient inkscape:collect="always" xlink:href="#linearGradient967" id="radialGradient961-4" cx="190.99977" cy="155.34175" fx="190.99977" fy="155.34175" r="45.37402" gradientTransform="matrix(0.52060843,0,0,0.40298047,0.50255869,11.74167)" gradientUnits="userSpaceOnUse"/>
    <radialGradient inkscape:collect="always" xlink:href="#linearGradient967" id="radialGradient971-88" gradientUnits="userSpaceOnUse" gradientTransform="matrix(0.29388428,0,0,0.22748312,-25.393411,-15.017728)" cx="105.66889" cy="162.23166" fx="105.66889" fy="162.23166" r="45.37402"/>
    <radialGradient inkscape:collect="always" xlink:href="#linearGradient967" id="radialGradient961-14" cx="190.99977" cy="155.34175" fx="190.99977" fy="155.34175" r="45.37402" gradientTransform="matrix(0.39046043,0,0,0.30223853,-35.598505,-27.145424)" gradientUnits="userSpaceOnUse"/>
    <radialGradient inkscape:collect="always" xlink:href="#linearGradient967" id="radialGradient971-6" gradientUnits="userSpaceOnUse" gradientTransform="matrix(0.19592079,0,0,0.15165382,-48.94526,-42.295977)" cx="105.66889" cy="162.23166" fx="105.66889" fy="162.23166" r="45.37402"/>
    <radialGradient inkscape:collect="always" xlink:href="#linearGradient967" id="radialGradient961-6" cx="190.99977" cy="155.34175" fx="190.99977" fy="155.34175" r="45.37402" gradientTransform="matrix(0.26030422,0,0,0.20149024,-55.748586,-50.381025)" gradientUnits="userSpaceOnUse"/>
    <radialGradient inkscape:collect="always" xlink:href="#linearGradient967" id="radialGradient971-3" gradientUnits="userSpaceOnUse" gradientTransform="matrix(0.14693906,0,0,0.11373917,-68.738113,-63.590262)" cx="105.66889" cy="162.23166" fx="105.66889" fy="162.23166" r="45.37402"/>
    <radialGradient inkscape:collect="always" xlink:href="#linearGradient967" id="radialGradient961-63" cx="190.99977" cy="155.34175" fx="190.99977" fy="155.34175" r="45.37402" gradientTransform="matrix(0.19522612,0,0,0.1511161,-73.840552,-69.653983)" gradientUnits="userSpaceOnUse"/>
  </defs>
  <sodipodi:namedview pagecolor="#383c4a" bordercolor="#ffffff" borderopacity="0.62745098" objecttolerance="4" gridtolerance="10" guidetolerance="4" inkscape:pageopacity="0" inkscape:pageshadow="2" inkscape:window-width="640" inkscape:window-height="480" id="namedview20" showgrid="true" inkscape:zoom="16.386532" inkscape:cx="-45.388544" inkscape:cy="107.07527" inkscape:current-layer="layer6" inkscape:snap-smooth-nodes="false" showguides="true" borderlayer="true" inkscape:showpageshadow="false" inkscape:guide-bbox="true" guidecolor="#bd4fff" guideopacity="0.78431373" inkscape:snap-nodes="true" inkscape:lockguides="false" fit-margin-top="0" fit-margin-left="0" fit-margin-right="0" fit-margin-bottom="0" guidehicolor="#ff0101" guidehiopacity="0.78431373" inkscape:snap-page="true" inkscape:object-nodes="true" inkscape:snap-bbox="true" inkscape:snap-global="true" inkscape:snap-object-midpoints="false" inkscape:snap-bbox-edge-midpoints="false">
    <inkscape:grid type="xygrid" id="grid4171" empspacing="4" dotted="false" originx="2.7755576e-17" originy="0" spacingx="1" spacingy="1" color="#5a5a5a" opacity="0.23529412" empcolor="#5a5a5a" empopacity="0.47058824" visible="true"/>
    <inkscape:grid type="axonomgrid" id="grid4699" units="mm" empspacing="4" color="#5a5a5a" opacity="0.23529412" empcolor="#5a5a5a" empopacity="0.47058824" gridanglex="45" gridanglez="45" spacingy="3.7795276" visible="false" originx="1.3228346" originy="1.3228346"/>
    <sodipodi:guide position="48,0" orientation="1,0" id="guide4568" inkscape:locked="false" inkscape:label="" inkscape:color="rgb(189,79,255)"/>
    <sodipodi:guide position="111.99996,-3.9999999e-05" orientation="0,1" id="guide4570" inkscape:locked="false" inkscape:label="" inkscape:color="rgb(189,79,255)"/>
    <sodipodi:guide position="0,0" orientation="1,0" id="guide4572" inkscape:locked="false" inkscape:label="" inkscape:color="rgb(189,79,255)"/>
    <sodipodi:guide position="0,48" orientation="0,1" id="guide4574" inkscape:locked="false" inkscape:label="" inkscape:color="rgb(189,79,255)"/>
    <sodipodi:guide position="0,80" orientation="0,1" id="guide4576" inkscape:locked="false" inkscape:label="" inkscape:color="rgb(189,79,255)"/>
    <sodipodi:guide position="-32,48" orientation="1,0" id="guide4578" inkscape:locked="false" inkscape:label="" inkscape:color="rgb(189,79,255)"/>
    <sodipodi:guide position="-32,104" orientation="0,1" id="guide4580" inkscape:locked="false" inkscape:label="" inkscape:color="rgb(189,79,255)"/>
    <sodipodi:guide position="-56,80" orientation="1,0" id="guide4582" inkscape:locked="false" inkscape:label="" inkscape:color="rgb(189,79,255)"/>
    <sodipodi:guide position="48,-64" orientation="0,1" id="guide4584" inkscape:locked="false" inkscape:label="" inkscape:color="rgb(189,79,255)"/>
    <sodipodi:guide position="0,0" orientation="-0.70710678,0.70710678" id="guide4588" inkscape:locked="false" inkscape:label="" inkscape:color="rgb(189,79,255)"/>
    <sodipodi:guide position="-56,80" orientation="-0.70710678,0.70710678" id="guide4573" inkscape:locked="false" inkscape:label="" inkscape:color="rgb(189,79,255)"/>
    <sodipodi:guide position="-32,48" orientation="-0.70710678,0.70710678" id="guide4575" inkscape:locked="false" inkscape:label="" inkscape:color="rgb(189,79,255)"/>
    <sodipodi:guide position="48,-64" orientation="-0.70710678,0.70710678" id="guide4577" inkscape:locked="false" inkscape:label="" inkscape:color="rgb(189,79,255)"/>
    <sodipodi:guide position="47.999962,0" orientation="0.70710678,0.70710678" id="guide4697" inkscape:locked="false" inkscape:label="" inkscape:color="rgb(189,79,255)"/>
    <sodipodi:guide position="207.99995,-288" orientation="0,1" id="guide7833" inkscape:locked="false"/>
    <sodipodi:guide position="335.99994,-288" orientation="1,0" id="guide7835" inkscape:locked="false" inkscape:label="" inkscape:color="rgb(189,79,255)"/>
    <sodipodi:guide position="111.99996,-64" orientation="1,0" id="guide7915" inkscape:locked="false"/>
    <sodipodi:guide position="111.99996,-160" orientation="0,1" id="guide7917" inkscape:locked="false"/>
    <sodipodi:guide position="207.99996,-160" orientation="1,0" id="guide7919" inkscape:locked="false"/>
    <sodipodi:guide position="111.99996,-160" orientation="-0.70710678,0.70710678" id="guide7921" inkscape:locked="false" inkscape:label="" inkscape:color="rgb(189,79,255)"/>
    <sodipodi:guide position="207.99996,-288" orientation="-0.70710678,0.70710678" id="guide7923" inkscape:locked="false" inkscape:label="" inkscape:color="rgb(189,79,255)"/>
    <sodipodi:guide position="-72,104" orientation="1,0" id="guide7824" inkscape:locked="false"/>
    <sodipodi:guide position="-56,120" orientation="0,1" id="guide7826" inkscape:locked="false"/>
    <sodipodi:guide position="-72,104" orientation="-0.70710678,0.70710678" id="guide7828" inkscape:locked="false" inkscape:label="" inkscape:color="rgb(189,79,255)"/>
  </sodipodi:namedview>
  <g style="display:inline" inkscape:label="icon_96" id="g8840" inkscape:groupmode="layer" transform="translate(-111.99996,-112)">
    <g style="display:none" inkscape:label="frame" id="g8776" inkscape:groupmode="layer">
      <rect style="color:#000000;clip-rule:nonzero;display:inline;overflow:visible;visibility:visible;opacity:1;isolation:auto;mix-blend-mode:normal;color-interpolation:sRGB;color-interpolation-filters:linearRGB;solid-color:#000000;solid-opacity:1;vector-effect:none;fill:#000000;fill-opacity:1;fill-rule:nonzero;stroke:#ff24f7;stroke-width:0;stroke-linecap:square;stroke-linejoin:miter;stroke-miterlimit:4;stroke-dasharray:none;stroke-dashoffset:0;stroke-opacity:0.99481865;marker:none;marker-start:none;marker-mid:none;marker-end:none;paint-order:normal;color-rendering:auto;image-rendering:auto;shape-rendering:auto;text-rendering:auto;enable-background:accumulate" id="rect_96" width="96" height="96" x="111.99996" y="112" inkscape:label="frame_96"/>
      <text inkscape:label="txt_96" id="text_96" y="168.73633" x="144.72458" style="font-size:24px;line-height:0%;font-family:sans-serif;letter-spacing:0px;word-spacing:0px;display:inline;opacity:1;fill:#ffffff;fill-opacity:1;stroke:none;stroke-width:0.04917826px;stroke-linecap:butt;stroke-linejoin:miter;stroke-opacity:1" xml:space="preserve">
        <tspan id="tspan8768" style="font-size:24px;line-height:0%;fill:#ffffff;fill-opacity:1;stroke:none;stroke-width:0.04917826px" y="168.73633" x="144.72458" sodipodi:role="line">96</tspan>
      </text>
    </g>
    <g style="display:inline" inkscape:label="icon" id="g8838" inkscape:groupmode="layer">
      <path inkscape:connector-curvature="0" id="path908" d="m 161.32227,116.75586 a 26.077452,26.077452 0 0 0 -24.95118,18.51953 26.077452,26.077452 0 0 0 -21.42382,25.64649 26.077452,26.077452 0 0 0 10.53906,20.90429 C 129.00851,185.03331 133.68095,187 138.8418,187 h 2.18359 38.59375 1.53906 c 3.65763,0 7.06588,-0.99653 10.00196,-2.70898 a 26.077452,26.077452 0 0 0 14.53515,-23.36914 26.077452,26.077452 0 0 0 -19.27343,-25.14258 26.077452,26.077452 0 0 0 -25.09961,-19.02344 z" style="color:#000000;clip-rule:nonzero;display:block;overflow:visible;visibility:visible;opacity:1;isolation:auto;mix-blend-mode:normal;color-interpolation:sRGB;color-interpolation-filters:linearRGB;solid-color:#000000;solid-opacity:1;vector-effect:none;fill:none;fill-opacity:1;fill-rule:nonzero;stroke:#000000;stroke-width:1.454;stroke-linecap:round;stroke-linejoin:miter;stroke-miterlimit:4;stroke-dasharray:none;stroke-dashoffset:0;stroke-opacity:0.06593407;marker:none;marker-start:none;marker-mid:none;marker-end:none;paint-order:markers stroke fill;color-rendering:auto;image-rendering:auto;shape-rendering:auto;text-rendering:auto;enable-background:accumulate" inkscape:label="nube sombra"/>
      <path style="color:#000000;clip-rule:nonzero;display:inline;overflow:visible;visibility:visible;opacity:1;isolation:auto;mix-blend-mode:normal;color-interpolation:sRGB;color-interpolation-filters:linearRGB;solid-color:#000000;solid-opacity:1;vector-effect:none;fill:url(#linearGradient906);fill-opacity:1;fill-rule:nonzero;stroke:none;stroke-width:0.45352626;stroke-linecap:round;stroke-linejoin:miter;stroke-miterlimit:4;stroke-dasharray:none;stroke-dashoffset:0;stroke-opacity:1;marker:none;marker-start:none;marker-mid:none;marker-end:none;paint-order:markers stroke fill;color-rendering:auto;image-rendering:auto;shape-rendering:auto;text-rendering:auto;enable-background:accumulate" d="m 161.32227,115.75586 a 26.077452,26.077452 0 0 0 -24.95118,18.51953 26.077452,26.077452 0 0 0 -21.42382,25.64649 26.077452,26.077452 0 0 0 10.53906,20.90429 C 129.00851,184.03331 133.68095,186 138.8418,186 h 2.18359 38.59375 1.53906 c 3.65763,0 7.06588,-0.99653 10.00196,-2.70898 a 26.077452,26.077452 0 0 0 14.53515,-23.36914 26.077452,26.077452 0 0 0 -19.27343,-25.14258 26.077452,26.077452 0 0 0 -25.09961,-19.02344 z" id="circle886" inkscape:connector-curvature="0" inkscape:label="nube"/>
      <path style="color:#000000;clip-rule:nonzero;display:inline;overflow:visible;visibility:visible;opacity:1;isolation:auto;mix-blend-mode:normal;color-interpolation:sRGB;color-interpolation-filters:linearRGB;solid-color:#000000;solid-opacity:1;vector-effect:none;fill:#365a83;fill-opacity:0.21978024;fill-rule:nonzero;stroke:none;stroke-width:0.45352626;stroke-linecap:round;stroke-linejoin:miter;stroke-miterlimit:4;stroke-dasharray:none;stroke-dashoffset:0;stroke-opacity:1;marker:none;marker-start:none;marker-mid:none;marker-end:none;paint-order:markers stroke fill;color-rendering:auto;image-rendering:auto;shape-rendering:auto;text-rendering:auto;enable-background:accumulate" d="m 114.99609,158.86523 a 26.077452,26.077452 0 0 0 -0.0488,1.05665 26.077452,26.077452 0 0 0 10.53906,20.90429 C 129.00851,184.03331 133.68095,186 138.8418,186 h 2.18359 38.59375 1.53906 c 3.65763,0 7.06588,-0.99653 10.00196,-2.70898 a 26.077452,26.077452 0 0 0 14.53515,-23.36914 26.077452,26.077452 0 0 0 -0.0488,-0.94922 26.077452,26.077452 0 0 1 -14.48632,22.31836 C 188.22408,183.00347 184.81583,184 181.1582,184 h -1.53906 -38.59375 -2.18359 c -5.16085,0 -9.83329,-1.96669 -13.35547,-5.17383 a 26.077452,26.077452 0 0 1 -10.49024,-19.96094 z" id="path952" inkscape:connector-curvature="0" inkscape:label="nube sombra"/>
      <path inkscape:connector-curvature="0" id="path959" d="m 161.32227,115.75586 a 26.077452,26.077452 0 0 0 -24.95118,18.51953 26.077452,26.077452 0 0 0 -21.42382,25.64649 26.077452,26.077452 0 0 0 10.53906,20.90429 C 129.00851,184.03331 133.68095,186 138.8418,186 h 2.18359 38.59375 1.53906 c 3.65763,0 7.06588,-0.99653 10.00196,-2.70898 a 26.077452,26.077452 0 0 0 14.53515,-23.36914 26.077452,26.077452 0 0 0 -19.27343,-25.14258 26.077452,26.077452 0 0 0 -25.09961,-19.02344 z" style="color:#000000;clip-rule:nonzero;display:inline;overflow:visible;visibility:visible;opacity:1;isolation:auto;mix-blend-mode:normal;color-interpolation:sRGB;color-interpolation-filters:linearRGB;solid-color:#000000;solid-opacity:1;vector-effect:none;fill:url(#radialGradient961);fill-opacity:1;fill-rule:nonzero;stroke:none;stroke-width:0.45352626;stroke-linecap:round;stroke-linejoin:miter;stroke-miterlimit:4;stroke-dasharray:none;stroke-dashoffset:0;stroke-opacity:1;marker:none;marker-start:none;marker-mid:none;marker-end:none;paint-order:markers stroke fill;color-rendering:auto;image-rendering:auto;shape-rendering:auto;text-rendering:auto;enable-background:accumulate" inkscape:label="nube brillo"/>
      <path inkscape:label="nube brillo" style="color:#000000;clip-rule:nonzero;display:inline;overflow:visible;visibility:visible;opacity:1;isolation:auto;mix-blend-mode:normal;color-interpolation:sRGB;color-interpolation-filters:linearRGB;solid-color:#000000;solid-opacity:1;vector-effect:none;fill:url(#radialGradient971);fill-opacity:1;fill-rule:nonzero;stroke:none;stroke-width:0.45352626;stroke-linecap:round;stroke-linejoin:miter;stroke-miterlimit:4;stroke-dasharray:none;stroke-dashoffset:0;stroke-opacity:1;marker:none;marker-start:none;marker-mid:none;marker-end:none;paint-order:markers stroke fill;color-rendering:auto;image-rendering:auto;shape-rendering:auto;text-rendering:auto;enable-background:accumulate" d="m 161.32227,115.75586 a 26.077452,26.077452 0 0 0 -24.95118,18.51953 26.077452,26.077452 0 0 0 -21.42382,25.64649 26.077452,26.077452 0 0 0 10.53906,20.90429 C 129.00851,184.03331 133.68095,186 138.8418,186 h 2.18359 38.59375 1.53906 c 3.65763,0 7.06588,-0.99653 10.00196,-2.70898 a 26.077452,26.077452 0 0 0 14.53515,-23.36914 26.077452,26.077452 0 0 0 -19.27343,-25.14258 26.077452,26.077452 0 0 0 -25.09961,-19.02344 z" id="path969" inkscape:connector-curvature="0"/>
      <path inkscape:connector-curvature="0" id="path913" d="m 161.20879,134.06549 c -1.58144,-7.4e-4 -3.19769,0.71413 -4.38745,2.14201 l -27.10777,35.95656 c -0.99496,2.03261 -0.20885,4.06616 2.63322,4.06616 h 19.76577 l 6.50222,26.49807 c 0.0923,2.49978 1.01362,4.52411 2.27288,4.52411 1.25927,0 2.18054,-2.02433 2.27288,-4.52411 l 6.50559,-26.49807 h 19.90238 c 2.8272,0 2.82563,-3.84675 2.09775,-4.80848 -8.7562,-11.73654 -17.51321,-23.47032 -26.26943,-35.20685 -1.06056,-1.43072 -2.60659,-2.14872 -4.18804,-2.1494 z" style="color:#000000;clip-rule:nonzero;display:inline;overflow:visible;visibility:visible;opacity:1;isolation:auto;mix-blend-mode:normal;color-interpolation:sRGB;color-interpolation-filters:linearRGB;solid-color:#000000;solid-opacity:1;vector-effect:none;fill:#000000;fill-opacity:0.17582421;fill-rule:nonzero;stroke:none;stroke-width:0.42562592;stroke-linecap:round;stroke-linejoin:miter;stroke-miterlimit:4;stroke-dasharray:none;stroke-dashoffset:0;stroke-opacity:1;marker:none;marker-start:none;marker-mid:none;marker-end:none;paint-order:markers stroke fill;color-rendering:auto;image-rendering:auto;shape-rendering:auto;text-rendering:auto;enable-background:accumulate" sodipodi:nodetypes="cccsccsccsccc" inkscape:label="flecha sombra"/>
      <path style="color:#000000;clip-rule:nonzero;display:inline;overflow:visible;visibility:visible;opacity:1;isolation:auto;mix-blend-mode:normal;color-interpolation:sRGB;color-interpolation-filters:linearRGB;solid-color:#000000;solid-opacity:1;vector-effect:none;fill:url(#linearGradient1101);fill-opacity:1;fill-rule:nonzero;stroke:none;stroke-width:0.42562592;stroke-linecap:round;stroke-linejoin:miter;stroke-miterlimit:4;stroke-dasharray:none;stroke-dashoffset:0;stroke-opacity:1;marker:none;marker-start:none;marker-mid:none;marker-end:none;paint-order:markers stroke fill;color-rendering:auto;image-rendering:auto;shape-rendering:auto;text-rendering:auto;enable-background:accumulate" d="m 161.20879,130 c -1.58144,-7.1e-4 -3.19769,0.71416 -4.38745,2.14201 l -27.10777,35.95657 c -0.99496,2.03261 -0.20885,4.06616 2.63322,4.06616 h 19.76577 l 6.50222,26.49806 c 0.0923,2.4998 1.01362,4.52411 2.27288,4.52411 1.25927,0 2.18054,-2.02431 2.27288,-4.52411 l 6.50559,-26.49806 h 19.90238 c 2.8272,0 2.82563,-3.84675 2.09775,-4.80849 -8.7562,-11.73654 -17.51321,-23.47029 -26.26943,-35.20684 -1.06056,-1.43072 -2.60659,-2.14871 -4.18804,-2.14941 z" id="rect892" inkscape:connector-curvature="0" sodipodi:nodetypes="cccsccsccsccc" inkscape:label="flecha"/>
      <path style="color:#000000;clip-rule:nonzero;display:inline;overflow:visible;visibility:visible;opacity:1;isolation:auto;mix-blend-mode:normal;color-interpolation:sRGB;color-interpolation-filters:linearRGB;solid-color:#000000;solid-opacity:1;vector-effect:none;fill:#5d0a0a;fill-opacity:0.43406593;fill-rule:nonzero;stroke:none;stroke-width:0.42562592;stroke-linecap:round;stroke-linejoin:miter;stroke-miterlimit:4;stroke-dasharray:none;stroke-dashoffset:0;stroke-opacity:1;marker:none;marker-start:none;marker-mid:none;marker-end:none;paint-order:markers stroke fill;color-rendering:auto;image-rendering:auto;shape-rendering:auto;text-rendering:auto;enable-background:accumulate" d="m 192.00718,168.34087 c -0.17849,1.23015 -0.8571,2.43718 -2.43989,2.43718 H 169.666 l -6.50502,26.49562 c -0.0923,2.4998 -1.01388,4.52463 -2.27314,4.52463 -1.25926,0 -2.18078,-2.02483 -2.27313,-4.52463 l -6.5023,-26.49562 h -19.76576 c -1.71377,0 -2.66792,-0.74563 -2.94683,-1.7784 -0.38815,1.69037 0.52959,3.16642 2.94683,3.16642 h 19.76576 l 6.5023,26.49562 c 0.0924,2.49979 1.01387,4.52465 2.27313,4.52465 1.25926,0 2.1808,-2.02486 2.27314,-4.52465 l 6.50502,-26.49562 h 19.90129 c 2.21112,0 2.68351,-2.33967 2.43989,-3.8252 z" id="path973" inkscape:connector-curvature="0" inkscape:label="flecha sombtop" sodipodi:nodetypes="csccsccscsccsccsc"/>
      <path style="color:#000000;clip-rule:nonzero;display:inline;overflow:visible;visibility:visible;opacity:1;isolation:auto;mix-blend-mode:normal;color-interpolation:sRGB;color-interpolation-filters:linearRGB;solid-color:#000000;solid-opacity:1;vector-effect:none;fill:#ff0000;fill-opacity:0.36263739;fill-rule:nonzero;stroke:none;stroke-width:0.42562592;stroke-linecap:round;stroke-linejoin:miter;stroke-miterlimit:4;stroke-dasharray:none;stroke-dashoffset:0;stroke-opacity:1;marker:none;marker-start:none;marker-mid:none;marker-end:none;paint-order:markers stroke fill;color-rendering:auto;image-rendering:auto;shape-rendering:auto;text-rendering:auto;enable-background:accumulate" d="m 161.20894,130.00128 c -1.58145,-7e-4 -3.197,0.71435 -4.38678,2.14223 l -27.10793,35.95584 c -0.40775,0.83299 -0.49775,1.65666 -0.28832,2.34994 0.0683,-0.25213 0.16291,-0.50649 0.28832,-0.76266 l 27.10793,-35.95583 c 1.18978,-1.42788 2.80533,-2.14294 4.38678,-2.14222 1.58143,7e-4 3.12777,0.7177 4.18832,2.14842 8.75621,11.73654 17.51161,23.46907 26.26781,35.20561 0.14778,0.19525 0.2552,0.52851 0.32551,0.90523 0.17421,-1.00501 0.009,-2.05162 -0.32551,-2.49253 -8.7562,-11.73654 -17.5116,-23.46906 -26.26781,-35.20561 -1.06055,-1.43072 -2.60689,-2.14772 -4.18832,-2.14842 z" id="path1100" inkscape:connector-curvature="0" sodipodi:nodetypes="ccccccccccccc" inkscape:label="flecha brillo"/>
      <path style="display:inline;fill:#000000;fill-opacity:0.2857143;stroke-width:0.15527412" inkscape:connector-curvature="0" id="path1103" d="m 170.7861,152.89696 h -13.54075 l 0.70652,-3.30605 h 8.25294 l 0.75714,-3.55852 h -11.86221 l -3.73533,17.6162 h 3.58379 l 1.64034,-7.69775 h 8.59612 l -7.46945,7.3948 1.3124,2.32179 c 0.60558,-0.4037 1.59005,-0.45432 2.2714,-0.45432 1.21162,0 2.39779,0.404 3.63409,0.404 1.13353,0 2.29421,-0.0758 4.18735,-0.98441 l 0.66147,-3.1042 c -1.28724,0.5298 -3.19218,1.03474 -4.84882,1.03474 -0.68104,0 -1.31209,-0.1514 -1.96829,-0.25232 l 7.24055,-7.04158 0.58074,-2.37253 z" inkscape:label="logo sombra"/>
      <path d="m 170.7861,151.86456 h -13.54075 l 0.70652,-3.30604 h 8.25294 L 166.96195,145 h -11.86221 l -3.73533,17.61619 h 3.58379 l 1.64034,-7.69775 h 8.59612 l -7.46945,7.39481 1.3124,2.32179 c 0.60558,-0.40371 1.59005,-0.45433 2.2714,-0.45433 1.21162,0 2.39779,0.40401 3.63409,0.40401 1.13353,0 2.29421,-0.0758 4.18735,-0.98442 l 0.66147,-3.1042 c -1.28724,0.52979 -3.19218,1.03474 -4.84882,1.03474 -0.68104,0 -1.31209,-0.1514 -1.96829,-0.25231 l 7.24055,-7.04158 0.58074,-2.37254 z" id="path9" inkscape:connector-curvature="0" style="display:inline;fill:#ffffff;stroke-width:0.15527412" inkscape:label="logo"/>
    </g>
  </g>
</svg>