<?xml version="1.0" encoding="UTF-8" standalone="yes"?>
<svg xmlns:dc="http://purl.org/dc/elements/1.1/" xmlns:cc="http://creativecommons.org/ns#" xmlns:rdf="http://www.w3.org/1999/02/22-rdf-syntax-ns#" xmlns:svg="http://www.w3.org/2000/svg" xmlns="http://www.w3.org/2000/svg" xmlns:xlink="http://www.w3.org/1999/xlink" xmlns:sodipodi="http://sodipodi.sourceforge.net/DTD/sodipodi-0.dtd" xmlns:inkscape="http://www.inkscape.org/namespaces/inkscape" height="96" viewBox="0 0 96 96" width="96" id="svg2" version="1.1" inkscape:version="0.92.2 5c3e80d, 2017-08-06" sodipodi:docname="gnome-disks.svg" enable-background="new" folder="96">
  <title id="title4675">Template icons dark</title>
  <metadata id="metadata24">
    <rdf:RDF>
      <cc:Work rdf:about="">
        <dc:format>image/svg+xml</dc:format>
        <dc:type rdf:resource="http://purl.org/dc/dcmitype/StillImage"/>
        <dc:title>Template icons dark</dc:title>
        <dc:date>17/05/13</dc:date>
        <dc:creator>
          <cc:Agent>
            <dc:title>wfpaisa</dc:title>
          </cc:Agent>
        </dc:creator>
        <dc:rights>
          <cc:Agent>
            <dc:title>License: GPLv3</dc:title>
          </cc:Agent>
        </dc:rights>
        <dc:language>es-en</dc:language>
        <dc:subject>
          <rdf:Bag>
            <rdf:li>plane-icon-theme</rdf:li>
          </rdf:Bag>
        </dc:subject>
        <dc:description>Template for create set icons</dc:description>
        <cc:license rdf:resource="https://www.gnu.org/licenses/gpl-3.0.en.html"/>
      </cc:Work>
    </rdf:RDF>
  </metadata>
  <defs id="defs22">
    <linearGradient inkscape:collect="always" id="linearGradient1756">
      <stop id="stop1754" offset="0" style="stop-color:#2aa591;stop-opacity:1"/>
      <stop id="stop1752" offset="1" style="stop-color:#2498e4;stop-opacity:1"/>
    </linearGradient>
    <linearGradient inkscape:collect="always" id="linearGradient1484">
      <stop id="stop1482" offset="0" style="stop-color:#eeda60;stop-opacity:1"/>
      <stop id="stop1480" offset="1" style="stop-color:#db9918;stop-opacity:1"/>
    </linearGradient>
    <linearGradient inkscape:collect="always" id="linearGradient982">
      <stop style="stop-color:#2a0ff3;stop-opacity:0.13186814" offset="0" id="stop978"/>
      <stop id="stop986" offset="0.52090698" style="stop-color:#3bf963;stop-opacity:0.2912088"/>
      <stop style="stop-color:#ef4cff;stop-opacity:0.29670331" offset="1" id="stop980"/>
    </linearGradient>
    <linearGradient gradientTransform="matrix(2.0982376,0,0,2.0982376,109.7053,109.70531)" inkscape:collect="always" xlink:href="#linearGradient8023" id="linearGradient8025-5" x1="9.1956701" y1="4.4297605" x2="37.228348" y2="43.999989" gradientUnits="userSpaceOnUse"/>
    <linearGradient inkscape:collect="always" id="linearGradient8023">
      <stop style="stop-color:#e1e3e7;stop-opacity:1;" offset="0" id="stop8019"/>
      <stop id="stop8031" offset="0.21010877" style="stop-color:#dee1e4;stop-opacity:1"/>
      <stop id="stop8029" offset="0.37979186" style="stop-color:#f1f2f3;stop-opacity:1"/>
      <stop id="stop8027" offset="0.66977036" style="stop-color:#c2c6cd;stop-opacity:1"/>
      <stop style="stop-color:#d7dadf;stop-opacity:1" offset="1" id="stop8021"/>
    </linearGradient>
    <linearGradient inkscape:collect="always" xlink:href="#linearGradient982" id="linearGradient984" x1="152.50394" y1="152.50398" x2="170" y2="165.24409" gradientUnits="userSpaceOnUse"/>
    <linearGradient id="linearGradient4990" y2="37.585999" xlink:href="#linearGradient5443" gradientUnits="userSpaceOnUse" x2="56.446999" gradientTransform="matrix(1.3532738,0,0,2.8052028,-351.70079,-26.644638)" y1="37.500999" x1="58.548"/>
    <linearGradient id="linearGradient5443">
      <stop id="stop5445" style="stop-color:#fff" offset="0"/>
      <stop id="stop5447" style="stop-color:#fff;stop-opacity:0" offset="1"/>
    </linearGradient>
    <linearGradient id="linearGradient4993" y2="40.376999" xlink:href="#linearGradient6221" gradientUnits="userSpaceOnUse" x2="-10.048" gradientTransform="matrix(0.67492692,0,0,1.8985156,-271.52458,3.7128013)" y1="40.389999" x1="-5.9351001"/>
    <linearGradient id="linearGradient6221">
      <stop id="stop6223" offset="0"/>
      <stop id="stop6225" style="stop-opacity:0" offset="1"/>
    </linearGradient>
    <linearGradient id="linearGradient4996" y2="36.911999" xlink:href="#linearGradient6221" gradientUnits="userSpaceOnUse" x2="-7.0093002" gradientTransform="matrix(0.7873129,0,0,1.9040247,-273.45231,2.8440928)" y1="36.902" x1="-10.535"/>
    <linearGradient id="linearGradient5007" y2="40.949001" gradientUnits="userSpaceOnUse" x2="-10.566" gradientTransform="matrix(1.0786984,-3.6953302e-8,0,2.1496436,-268.32208,-11.242527)" y1="40.972" x1="-2.1966">
      <stop id="stop4101" style="stop-color:#edd563" offset="0"/>
      <stop id="stop4103" style="stop-color:#e08223" offset="1"/>
    </linearGradient>
    <linearGradient id="linearGradient5009" y2="12.324" gradientUnits="userSpaceOnUse" x2="-36.083" gradientTransform="matrix(1.3365968,0,0,1.3365964,-222.20261,61.68125)" y1="7.7140002" x1="-45.569">
      <stop id="stop4095" style="stop-color:#bb5e12" offset="0"/>
      <stop id="stop4097" style="stop-color:#cd8033" offset="1"/>
    </linearGradient>
    <linearGradient id="linearGradient4987" y2="12.585" xlink:href="#linearGradient5443" gradientUnits="userSpaceOnUse" x2="54.721001" gradientTransform="matrix(-0.90023191,-0.90120345,0.90023191,-0.90120345,264.01385,226.8237)" y1="1" x1="54.764999"/>
    <linearGradient id="linearGradient4999" y2="22.476" xlink:href="#linearGradient7381" gradientUnits="userSpaceOnUse" x2="27.368" gradientTransform="matrix(-1.2816435,0,0,-1.2744797,265.2003,187.82583)" y1="20.761999" x1="25.572001"/>
    <linearGradient id="linearGradient7381">
      <stop id="stop7383" style="stop-color:#babdb6" offset="0"/>
      <stop id="stop7385" style="stop-color:#fff" offset="1"/>
    </linearGradient>
    <linearGradient id="linearGradient5001" y2="26.885" xlink:href="#linearGradient7444" gradientUnits="userSpaceOnUse" x2="31.089001" gradientTransform="matrix(1.2871391,0,0,1.2855689,202.6192,114.39453)" y1="35.624001" x1="22.375999"/>
    <linearGradient id="linearGradient7444">
      <stop id="stop7446" style="stop-color:#888a85" offset="0"/>
      <stop id="stop7448" style="stop-color:#555753" offset="1"/>
    </linearGradient>
    <linearGradient id="linearGradient4665" y2="44.139999" xlink:href="#linearGradient6221" gradientUnits="userSpaceOnUse" x2="-9.7747002" gradientTransform="matrix(0.61987975,-0.61783854,1.0518113,1.0483766,214.49493,117.87925)" y1="44.229" x1="-6.3077998"/>
    <linearGradient id="linearGradient4668" y2="35.078999" gradientUnits="userSpaceOnUse" x2="90.221001" gradientTransform="matrix(1.0190342,-1.0166789,0.89134088,0.88922116,125.32342,229.85475)" y1="35.152" x1="97.442001">
      <stop id="stop4958" style="stop-color:#f8b17e" offset="0"/>
      <stop id="stop4960" style="stop-color:#e35d4f" offset=".26238"/>
      <stop id="stop4962" style="stop-color:#c6262e" offset=".66347"/>
      <stop id="stop4964" style="stop-color:#690b54" offset="1"/>
    </linearGradient>
    <linearGradient id="linearGradient4972" y2="27.273001" gradientUnits="userSpaceOnUse" x2="36.000999" gradientTransform="matrix(1.2386604,0,0,1.2365014,214.63268,129.02003)" y1="34.022999" x1="29.278">
      <stop id="stop2492" style="stop-color:#791235" offset="0"/>
      <stop id="stop2494" style="stop-color:#dd3b27" offset="1"/>
    </linearGradient>
    <linearGradient id="linearGradient2919" y2="88.005997" gradientUnits="userSpaceOnUse" x2="317.16" gradientTransform="matrix(1.7051943,0,0,1.6957734,-290.5964,44.367767)" y1="75.574997" x1="326.60001">
      <stop id="stop7423" style="stop-color:#fff" offset="0"/>
      <stop id="stop7425" style="stop-color:#fff;stop-opacity:0" offset="1"/>
    </linearGradient>
    <linearGradient id="linearGradient4734" y2="60.768002" xlink:href="#linearGradient7381" gradientUnits="userSpaceOnUse" x2="308.64999" gradientTransform="matrix(1.7051943,0,0,1.6957734,-290.5964,44.367767)" y1="58.443001" x1="302.29001"/>
    <linearGradient id="linearGradient2907" y2="81.926003" gradientUnits="userSpaceOnUse" x2="335.29999" gradientTransform="matrix(1.7051943,0,0,1.6957734,-290.5964,44.367767)" y1="64.294998" x1="304.76001">
      <stop id="stop4436" style="stop-color:#d3d7cf" offset="0"/>
      <stop id="stop4438" style="stop-color:#babdb6" offset=".18304"/>
      <stop id="stop4440" style="stop-color:#fff" offset=".31893"/>
      <stop id="stop4442" style="stop-color:#babdb6" offset=".87644"/>
      <stop id="stop4444" style="stop-color:#eeeeec" offset="1"/>
    </linearGradient>
    <linearGradient id="linearGradient2909" y2="99.274002" xlink:href="#linearGradient7444" gradientUnits="userSpaceOnUse" x2="330.06" gradientTransform="matrix(1.7051943,0,0,1.6957734,-290.5964,44.367767)" y1="70.281998" x1="324.5"/>
    <linearGradient inkscape:collect="always" xlink:href="#linearGradient1484" id="linearGradient1486" x1="160.06299" y1="200" x2="160" y2="196.53442" gradientUnits="userSpaceOnUse"/>
    <linearGradient gradientTransform="matrix(2.8612458,0,0,2.8612458,203.44353,204.4619)" inkscape:collect="always" xlink:href="#linearGradient8023" id="linearGradient8025-5-9" x1="9.1956701" y1="4.4297605" x2="37.228348" y2="43.999989" gradientUnits="userSpaceOnUse"/>
    <linearGradient gradientTransform="matrix(1.3636424,0,0,1.3636424,53.844724,54.863094)" inkscape:collect="always" xlink:href="#linearGradient1484" id="linearGradient1486-3" x1="160.06299" y1="200" x2="160" y2="196.53442" gradientUnits="userSpaceOnUse"/>
    <linearGradient inkscape:collect="always" xlink:href="#linearGradient1756" id="linearGradient1758" x1="157" y1="190" x2="176" y2="190" gradientUnits="userSpaceOnUse" gradientTransform="translate(0,-64.882359)"/>
    <linearGradient inkscape:collect="always" xlink:href="#linearGradient8023" id="linearGradient8025" x1="9" y1="3.99999" x2="37.228348" y2="43.999989" gradientUnits="userSpaceOnUse"/>
    <linearGradient inkscape:collect="always" xlink:href="#linearGradient8023" id="linearGradient8081-1" gradientUnits="userSpaceOnUse" x1="9.5855684" y1="4.484941" x2="37.77005" y2="43.886402" gradientTransform="matrix(0.66666642,0,0,0.66666642,-59.833331,-59.999993)"/>
    <linearGradient inkscape:collect="always" xlink:href="#linearGradient8023" id="linearGradient8081-1-9" gradientUnits="userSpaceOnUse" x1="9.5855684" y1="4.484941" x2="37.77005" y2="43.886402" gradientTransform="matrix(0.66666642,0,0,0.66666642,-79.833331,-79.999993)"/>
    <linearGradient gradientTransform="matrix(1.5259977,0,0,1.5259977,43.634553,43.421777)" inkscape:collect="always" xlink:href="#linearGradient8023" id="linearGradient8025-5-93" x1="9.1956701" y1="4.4297605" x2="37.228348" y2="43.999989" gradientUnits="userSpaceOnUse"/>
    <linearGradient inkscape:collect="always" xlink:href="#linearGradient8023" id="linearGradient8081" gradientUnits="userSpaceOnUse" x1="9.5855684" y1="4.484941" x2="37.77005" y2="43.886402" gradientTransform="matrix(0.66666642,0,0,0.66666642,-31.833331,-31.999993)"/>
    <radialGradient id="radialGradient5004" xlink:href="#linearGradient5443" gradientUnits="userSpaceOnUse" cy="11.84" cx="-39.458" gradientTransform="matrix(3.0964543,-0.21495459,0.37738808,7.8586392,-154.66412,-25.229961)" r="3.9059999"/>
    <radialGradient id="radialGradient5017" xlink:href="#linearGradient6221" gradientUnits="userSpaceOnUse" cy="21.622999" cx="25.976999" gradientTransform="matrix(-1.3875312,-1.3669229,1.0969534,-1.080663,253.33381,209.6805)" r="2"/>
    <radialGradient id="radialGradient2912" xlink:href="#linearGradient6221" gradientUnits="userSpaceOnUse" cy="34.498001" cx="21.959999" gradientTransform="matrix(0.31004782,0,0,0.0889074,258.07853,180.89617)" r="12.728"/>
    <radialGradient id="radialGradient2915" xlink:href="#linearGradient6221" gradientUnits="userSpaceOnUse" cy="34.498001" cx="21.959999" gradientTransform="matrix(0.75788705,0,0,0.23544557,243.45848,168.48244)" r="12.728"/>
    <radialGradient id="radialGradient2918" xlink:href="#linearGradient6221" gradientUnits="userSpaceOnUse" cy="34.498001" cx="21.959999" gradientTransform="matrix(0.22242305,0,0,0.08888482,212.2327,174.50989)" r="12.728"/>
    <radialGradient id="radialGradient2921" xlink:href="#linearGradient6221" gradientUnits="userSpaceOnUse" cy="34.498001" cx="21.959999" gradientTransform="matrix(0.56841774,0,0,0.23538669,205.41657,167.92545)" r="12.728"/>
  </defs>
  <sodipodi:namedview pagecolor="#383c4a" bordercolor="#ffffff" borderopacity="0.62745098" objecttolerance="4" gridtolerance="10" guidetolerance="4" inkscape:pageopacity="0" inkscape:pageshadow="2" inkscape:window-width="640" inkscape:window-height="480" id="namedview20" showgrid="true" inkscape:zoom="16.386532" inkscape:cx="6.0928915" inkscape:cy="50.126523" inkscape:current-layer="g7814" inkscape:snap-smooth-nodes="false" showguides="true" borderlayer="true" inkscape:showpageshadow="false" inkscape:guide-bbox="true" guidecolor="#bd4fff" guideopacity="0.78431373" inkscape:snap-nodes="true" inkscape:lockguides="false" fit-margin-top="0" fit-margin-left="0" fit-margin-right="0" fit-margin-bottom="0" guidehicolor="#ff0101" guidehiopacity="0.78431373" inkscape:snap-page="true" inkscape:object-nodes="true" inkscape:snap-bbox="true" inkscape:snap-global="true" inkscape:snap-object-midpoints="false" inkscape:snap-bbox-edge-midpoints="false">
    <inkscape:grid type="xygrid" id="grid4171" empspacing="4" dotted="false" originx="2.7755576e-17" originy="0" spacingx="1" spacingy="1" color="#5a5a5a" opacity="0.23529412" empcolor="#5a5a5a" empopacity="0.47058824" visible="true"/>
    <inkscape:grid type="axonomgrid" id="grid4699" units="mm" empspacing="4" color="#5a5a5a" opacity="0.23529412" empcolor="#5a5a5a" empopacity="0.47058824" gridanglex="45" gridanglez="45" spacingy="3.7795276" visible="false" originx="1.3228346" originy="1.3228346"/>
    <sodipodi:guide position="48,0" orientation="1,0" id="guide4568" inkscape:locked="false" inkscape:label="" inkscape:color="rgb(189,79,255)"/>
    <sodipodi:guide position="111.99996,-3.9999999e-05" orientation="0,1" id="guide4570" inkscape:locked="false" inkscape:label="" inkscape:color="rgb(189,79,255)"/>
    <sodipodi:guide position="0,0" orientation="1,0" id="guide4572" inkscape:locked="false" inkscape:label="" inkscape:color="rgb(189,79,255)"/>
    <sodipodi:guide position="0,48" orientation="0,1" id="guide4574" inkscape:locked="false" inkscape:label="" inkscape:color="rgb(189,79,255)"/>
    <sodipodi:guide position="0,80" orientation="0,1" id="guide4576" inkscape:locked="false" inkscape:label="" inkscape:color="rgb(189,79,255)"/>
    <sodipodi:guide position="-32,48" orientation="1,0" id="guide4578" inkscape:locked="false" inkscape:label="" inkscape:color="rgb(189,79,255)"/>
    <sodipodi:guide position="-32,104" orientation="0,1" id="guide4580" inkscape:locked="false" inkscape:label="" inkscape:color="rgb(189,79,255)"/>
    <sodipodi:guide position="-56,80" orientation="1,0" id="guide4582" inkscape:locked="false" inkscape:label="" inkscape:color="rgb(189,79,255)"/>
    <sodipodi:guide position="48,-64" orientation="0,1" id="guide4584" inkscape:locked="false" inkscape:label="" inkscape:color="rgb(189,79,255)"/>
    <sodipodi:guide position="0,0" orientation="-0.70710678,0.70710678" id="guide4588" inkscape:locked="false" inkscape:label="" inkscape:color="rgb(189,79,255)"/>
    <sodipodi:guide position="-56,80" orientation="-0.70710678,0.70710678" id="guide4573" inkscape:locked="false" inkscape:label="" inkscape:color="rgb(189,79,255)"/>
    <sodipodi:guide position="-32,48" orientation="-0.70710678,0.70710678" id="guide4575" inkscape:locked="false" inkscape:label="" inkscape:color="rgb(189,79,255)"/>
    <sodipodi:guide position="48,-64" orientation="-0.70710678,0.70710678" id="guide4577" inkscape:locked="false" inkscape:label="" inkscape:color="rgb(189,79,255)"/>
    <sodipodi:guide position="47.999962,0" orientation="0.70710678,0.70710678" id="guide4697" inkscape:locked="false" inkscape:label="" inkscape:color="rgb(189,79,255)"/>
    <sodipodi:guide position="207.99995,-288" orientation="0,1" id="guide7833" inkscape:locked="false"/>
    <sodipodi:guide position="335.99994,-288" orientation="1,0" id="guide7835" inkscape:locked="false" inkscape:label="" inkscape:color="rgb(189,79,255)"/>
    <sodipodi:guide position="111.99996,-64" orientation="1,0" id="guide7915" inkscape:locked="false"/>
    <sodipodi:guide position="111.99996,-160" orientation="0,1" id="guide7917" inkscape:locked="false"/>
    <sodipodi:guide position="207.99996,-160" orientation="1,0" id="guide7919" inkscape:locked="false"/>
    <sodipodi:guide position="111.99996,-160" orientation="-0.70710678,0.70710678" id="guide7921" inkscape:locked="false" inkscape:label="" inkscape:color="rgb(189,79,255)"/>
    <sodipodi:guide position="207.99996,-288" orientation="-0.70710678,0.70710678" id="guide7923" inkscape:locked="false" inkscape:label="" inkscape:color="rgb(189,79,255)"/>
    <sodipodi:guide position="-72,104" orientation="1,0" id="guide7824" inkscape:locked="false"/>
    <sodipodi:guide position="-56,120" orientation="0,1" id="guide7826" inkscape:locked="false"/>
    <sodipodi:guide position="-72,104" orientation="-0.70710678,0.70710678" id="guide7828" inkscape:locked="false" inkscape:label="" inkscape:color="rgb(189,79,255)"/>
  </sodipodi:namedview>
  <g style="display:inline" inkscape:label="icon_96" id="g8840" inkscape:groupmode="layer" transform="translate(-111.99996,-112)">
    <g style="display:none" inkscape:label="frame" id="g8776" inkscape:groupmode="layer">
      <rect style="color:#000000;clip-rule:nonzero;display:inline;overflow:visible;visibility:visible;opacity:1;isolation:auto;mix-blend-mode:normal;color-interpolation:sRGB;color-interpolation-filters:linearRGB;solid-color:#000000;solid-opacity:1;vector-effect:none;fill:#000000;fill-opacity:1;fill-rule:nonzero;stroke:#ff24f7;stroke-width:0;stroke-linecap:square;stroke-linejoin:miter;stroke-miterlimit:4;stroke-dasharray:none;stroke-dashoffset:0;stroke-opacity:0.99481865;marker:none;marker-start:none;marker-mid:none;marker-end:none;paint-order:normal;color-rendering:auto;image-rendering:auto;shape-rendering:auto;text-rendering:auto;enable-background:accumulate" id="rect_96" width="96" height="96" x="111.99996" y="112" inkscape:label="frame_96"/>
      <text inkscape:label="txt_96" id="text_96" y="168.73633" x="144.72458" style="font-size:24px;line-height:0%;font-family:sans-serif;letter-spacing:0px;word-spacing:0px;display:inline;opacity:1;fill:#ffffff;fill-opacity:1;stroke:none;stroke-width:0.04917826px;stroke-linecap:butt;stroke-linejoin:miter;stroke-opacity:1" xml:space="preserve">
        <tspan id="tspan8768" style="font-size:24px;line-height:0%;fill:#ffffff;fill-opacity:1;stroke:none;stroke-width:0.04917826px" y="168.73633" x="144.72458" sodipodi:role="line">96</tspan>
      </text>
    </g>
    <g style="display:inline" inkscape:label="icon" id="g8838" inkscape:groupmode="layer">
      <path inkscape:connector-curvature="0" id="path946" d="M 126.04725,116 126,204 h 17.05512 L 146,201 h 28 l 3,3 h 17 l 0.0787,-88 z" style="display:inline;opacity:1;fill:#000000;fill-opacity:0.10439561;stroke:none;stroke-width:2.19127989;stroke-linecap:butt;stroke-linejoin:miter;stroke-miterlimit:4;stroke-dasharray:none;stroke-dashoffset:0;stroke-opacity:0.23979594" sodipodi:nodetypes="ccccccccc" inkscape:label="base sombra"/>
      <path sodipodi:nodetypes="ccccccccc" style="display:inline;opacity:1;fill:#565e66;fill-opacity:1;stroke:none;stroke-width:2.09823751;stroke-linecap:butt;stroke-linejoin:miter;stroke-miterlimit:4;stroke-dasharray:none;stroke-dashoffset:0;stroke-opacity:0.23979594" d="m 127,117 v 86 h 16.05512 L 148,196 l 23.97713,3e-5 L 177,203 h 16 v -86 z" id="path8033-93" inkscape:connector-curvature="0" inkscape:label="borde negro"/>
      <path inkscape:connector-curvature="0" id="rect4517-7-2-7" d="m 128,118 v 84 h 15 l 5.02609,-5.99997 h 23.95104 L 177,202 h 15 v -84 z" style="display:inline;opacity:1;fill:url(#linearGradient8025-5);fill-opacity:1;stroke:none;stroke-width:2.09823751;stroke-linecap:butt;stroke-linejoin:miter;stroke-miterlimit:4;stroke-dasharray:none;stroke-dashoffset:0;stroke-opacity:0.23979594" sodipodi:nodetypes="ccccccccc" inkscape:label="base"/>
      <path style="display:inline;fill:#6c7587;fill-opacity:1;fill-rule:evenodd;stroke:none;stroke-width:2.09823775px;stroke-linecap:butt;stroke-linejoin:miter;stroke-opacity:1" d="m 148,196 -3.32886,4.00001 30.65186,-1e-5 -3.34587,-3.99997 z" id="path8005-5" inkscape:connector-curvature="0" sodipodi:nodetypes="ccccc" inkscape:label="baquelita"/>
      <path style="color:#000000;clip-rule:nonzero;display:block;overflow:visible;visibility:visible;opacity:1;isolation:auto;mix-blend-mode:normal;color-interpolation:sRGB;color-interpolation-filters:linearRGB;solid-color:#000000;solid-opacity:1;vector-effect:none;fill:url(#linearGradient1486);fill-opacity:1;fill-rule:nonzero;stroke:none;stroke-width:0.27257034;stroke-linecap:round;stroke-linejoin:round;stroke-miterlimit:4;stroke-dasharray:none;stroke-dashoffset:0;stroke-opacity:0.96354167;marker:none;marker-start:none;marker-mid:none;marker-end:none;paint-order:normal;color-rendering:auto;image-rendering:auto;shape-rendering:auto;text-rendering:auto;enable-background:accumulate" d="m 148,196 v 4 h 2 v -4 z m 4.00781,0 v 4 h 2.00586 v -4 z M 156,196 v 4 h 2 v -4 z m 6,0 v 4 h 2 v -4 z m 4,0 v 4.01562 L 168,200 v -4 z m 4,0 v 4 h 2 v -4 z" id="rect8007-2" inkscape:connector-curvature="0" inkscape:label="contactos"/>
      <path sodipodi:nodetypes="ccccc" inkscape:connector-curvature="0" id="path8207-8" d="m 148,196 -1.67926,2 h 27.32969 l -1.6733,-2 z" style="display:inline;fill:#000000;fill-opacity:0.24725276;fill-rule:evenodd;stroke:none;stroke-width:1.47403872px;stroke-linecap:butt;stroke-linejoin:miter;stroke-opacity:1" inkscape:label="baquelita sombra"/>
      <path style="color:#000000;clip-rule:nonzero;display:block;overflow:visible;visibility:visible;opacity:1;isolation:auto;mix-blend-mode:normal;color-interpolation:sRGB;color-interpolation-filters:linearRGB;solid-color:#000000;solid-opacity:1;vector-effect:none;fill:#000000;fill-opacity:0.21978024;fill-rule:nonzero;stroke:none;stroke-width:0.54514068;stroke-linecap:round;stroke-linejoin:round;stroke-miterlimit:4;stroke-dasharray:none;stroke-dashoffset:0;stroke-opacity:0.96354167;marker:none;marker-start:none;marker-mid:none;marker-end:none;paint-order:normal;color-rendering:auto;image-rendering:auto;shape-rendering:auto;text-rendering:auto;enable-background:accumulate" d="m 143,135 h 34 v 50 h -34 z" id="rect8154-3-4" inkscape:connector-curvature="0" sodipodi:nodetypes="ccccc" inkscape:label="centro recuadro"/>
      <path style="color:#000000;clip-rule:nonzero;display:inline;overflow:visible;visibility:visible;opacity:1;isolation:auto;mix-blend-mode:normal;color-interpolation:sRGB;color-interpolation-filters:linearRGB;solid-color:#000000;solid-opacity:1;vector-effect:none;fill:#ffffff;fill-opacity:0.5;fill-rule:nonzero;stroke:none;stroke-width:1;stroke-linecap:square;stroke-linejoin:miter;stroke-miterlimit:4;stroke-dasharray:2, 2;stroke-dashoffset:9.73946476;stroke-opacity:1;marker:none;marker-start:none;marker-mid:none;marker-end:none;paint-order:markers stroke fill;color-rendering:auto;image-rendering:auto;shape-rendering:auto;text-rendering:auto;enable-background:accumulate" d="m 143,185 h 34 v 1 h -34 z" id="rect956" inkscape:connector-curvature="0" inkscape:label="centro recuadro brillo inf"/>
      <path sodipodi:nodetypes="sssss" inkscape:connector-curvature="0" id="path936" d="m 132,160 c 1.11007,0 2.00375,0.89367 2.00375,2.00375 0,1.11007 -0.89368,2.00374 -2.00375,2.00374 -1.11007,0 -2.00375,-0.89367 -2.00375,-2.00374 C 129.99625,160.89367 130.88993,160 132,160 Z" style="display:inline;opacity:1;fill:#737373;fill-opacity:1;stroke:none;stroke-width:2.67166352;stroke-linecap:butt;stroke-linejoin:miter;stroke-miterlimit:4;stroke-dasharray:none;stroke-dashoffset:0;stroke-opacity:0.64313725" inkscape:label="tornillo"/>
      <path style="display:inline;opacity:1;fill:#737373;fill-opacity:1;stroke:none;stroke-width:2.67166352;stroke-linecap:butt;stroke-linejoin:miter;stroke-miterlimit:4;stroke-dasharray:none;stroke-dashoffset:0;stroke-opacity:0.64313725" d="m 132,196 c 1.11007,0 2.00375,0.89367 2.00375,2.00375 0,1.11007 -0.89368,2.00374 -2.00375,2.00374 -1.11007,0 -2.00375,-0.89367 -2.00375,-2.00374 C 129.99625,196.89367 130.88993,196 132,196 Z" id="path938" inkscape:connector-curvature="0" sodipodi:nodetypes="sssss" inkscape:label="tornillo"/>
      <path sodipodi:nodetypes="sssss" inkscape:connector-curvature="0" id="path940" d="m 188,120 c 1.11007,0 2.00375,0.89367 2.00375,2.00375 0,1.11007 -0.89368,2.00374 -2.00375,2.00374 -1.11007,0 -2.00375,-0.89367 -2.00375,-2.00374 C 185.99625,120.89367 186.88993,120 188,120 Z" style="display:inline;opacity:1;fill:#737373;fill-opacity:1;stroke:none;stroke-width:2.67166352;stroke-linecap:butt;stroke-linejoin:miter;stroke-miterlimit:4;stroke-dasharray:none;stroke-dashoffset:0;stroke-opacity:0.64313725" inkscape:label="tornillo"/>
      <path style="display:inline;opacity:1;fill:#737373;fill-opacity:1;stroke:none;stroke-width:2.67166352;stroke-linecap:butt;stroke-linejoin:miter;stroke-miterlimit:4;stroke-dasharray:none;stroke-dashoffset:0;stroke-opacity:0.64313725" d="m 188,160 c 1.11007,0 2.00375,0.89367 2.00375,2.00375 0,1.11007 -0.89368,2.00374 -2.00375,2.00374 -1.11007,0 -2.00375,-0.89367 -2.00375,-2.00374 C 185.99625,160.89367 186.88993,160 188,160 Z" id="path942" inkscape:connector-curvature="0" sodipodi:nodetypes="sssss" inkscape:label="tornillo"/>
      <path sodipodi:nodetypes="sssss" inkscape:connector-curvature="0" id="path944" d="m 188,196 c 1.11007,0 2.00375,0.89367 2.00375,2.00375 0,1.11007 -0.89368,2.00374 -2.00375,2.00374 -1.11007,0 -2.00375,-0.89367 -2.00375,-2.00374 C 185.99625,196.89367 186.88993,196 188,196 Z" style="display:inline;opacity:1;fill:#737373;fill-opacity:1;stroke:none;stroke-width:2.67166352;stroke-linecap:butt;stroke-linejoin:miter;stroke-miterlimit:4;stroke-dasharray:none;stroke-dashoffset:0;stroke-opacity:0.64313725" inkscape:label="tornillo"/>
      <path sodipodi:nodetypes="sssss" inkscape:connector-curvature="0" id="rect4617-5-3-9-68" d="m 132,120 c 1.11007,0 2.00375,0.89367 2.00375,2.00375 0,1.11007 -0.89368,2.00374 -2.00375,2.00374 -1.11007,0 -2.00375,-0.89367 -2.00375,-2.00374 C 129.99625,120.89367 130.88993,120 132,120 Z" style="display:inline;opacity:1;fill:#737373;fill-opacity:1;stroke:none;stroke-width:2.67166352;stroke-linecap:butt;stroke-linejoin:miter;stroke-miterlimit:4;stroke-dasharray:none;stroke-dashoffset:0;stroke-opacity:0.64313725" inkscape:label="tornillo"/>
      <path style="display:inline;opacity:1;fill:#000000;fill-opacity:0.46153846;stroke:none;stroke-width:2.67166352;stroke-linecap:butt;stroke-linejoin:miter;stroke-miterlimit:4;stroke-dasharray:none;stroke-dashoffset:0;stroke-opacity:0.64313725" d="m 132,120 c -1.11007,0 -2.00391,0.89383 -2.00391,2.00391 0,0.0979 0.0159,0.1911 0.0293,0.28515 0.13974,-0.97168 0.96308,-1.71679 1.97461,-1.71679 1.01153,0 1.83487,0.74511 1.97461,1.71679 0.0134,-0.0941 0.0293,-0.18727 0.0293,-0.28515 C 134.00391,120.89383 133.11007,120 132,120 Z m 56,0 c -1.11007,0 -2.00391,0.89383 -2.00391,2.00391 0,0.0979 0.0159,0.1911 0.0293,0.28515 0.13974,-0.97168 0.96308,-1.71679 1.97461,-1.71679 1.01153,0 1.83487,0.74511 1.97461,1.71679 0.0134,-0.0941 0.0293,-0.18727 0.0293,-0.28515 C 190.00391,120.89383 189.11007,120 188,120 Z m -56,40 c -1.11007,0 -2.00391,0.89383 -2.00391,2.00391 0,0.0979 0.0159,0.1911 0.0293,0.28515 0.13974,-0.97168 0.96308,-1.71679 1.97461,-1.71679 1.01153,0 1.83487,0.74511 1.97461,1.71679 0.0134,-0.0941 0.0293,-0.18727 0.0293,-0.28515 C 134.00391,160.89383 133.11007,160 132,160 Z m 56,0 c -1.11007,0 -2.00391,0.89383 -2.00391,2.00391 0,0.0979 0.0159,0.1911 0.0293,0.28515 0.13974,-0.97168 0.96308,-1.71679 1.97461,-1.71679 1.01153,0 1.83487,0.74511 1.97461,1.71679 0.0134,-0.0941 0.0293,-0.18727 0.0293,-0.28515 C 190.00391,160.89383 189.11007,160 188,160 Z m -56,36 c -1.11007,0 -2.00391,0.89383 -2.00391,2.00391 0,0.0979 0.0159,0.1911 0.0293,0.28515 0.13974,-0.97168 0.96308,-1.71679 1.97461,-1.71679 1.01153,0 1.83487,0.74511 1.97461,1.71679 0.0134,-0.0941 0.0293,-0.18727 0.0293,-0.28515 C 134.00391,196.89383 133.11007,196 132,196 Z m 56,0 c -1.11007,0 -2.00391,0.89383 -2.00391,2.00391 0,0.0979 0.0159,0.1911 0.0293,0.28515 0.13974,-0.97168 0.96308,-1.71679 1.97461,-1.71679 1.01153,0 1.83487,0.74511 1.97461,1.71679 0.0134,-0.0941 0.0293,-0.18727 0.0293,-0.28515 C 190.00391,196.89383 189.11007,196 188,196 Z" id="path958" inkscape:connector-curvature="0" inkscape:label="tornillos sombra"/>
      <path style="color:#000000;clip-rule:nonzero;display:block;overflow:visible;visibility:visible;opacity:1;isolation:auto;mix-blend-mode:normal;color-interpolation:sRGB;color-interpolation-filters:linearRGB;solid-color:#000000;solid-opacity:1;vector-effect:none;fill:#ffffff;fill-opacity:0.27472528;fill-rule:nonzero;stroke:none;stroke-width:0.37935105;stroke-linecap:butt;stroke-linejoin:miter;stroke-miterlimit:4;stroke-dasharray:none;stroke-dashoffset:0;stroke-opacity:0.28021982;marker:none;marker-start:none;marker-mid:none;marker-end:none;paint-order:fill markers stroke;color-rendering:auto;image-rendering:auto;shape-rendering:auto;text-rendering:auto;enable-background:accumulate" d="m 132,121 a 1,1 0 0 0 -1,1 1,1 0 0 0 1,1 1,1 0 0 0 1,-1 1,1 0 0 0 -1,-1 z m 56,0 a 1,1 0 0 0 -1,1 1,1 0 0 0 1,1 1,1 0 0 0 1,-1 1,1 0 0 0 -1,-1 z m -56,40 a 1,1 0 0 0 -1,1 1,1 0 0 0 1,1 1,1 0 0 0 1,-1 1,1 0 0 0 -1,-1 z m 56,0 a 1,1 0 0 0 -1,1 1,1 0 0 0 1,1 1,1 0 0 0 1,-1 1,1 0 0 0 -1,-1 z m -56,36 a 1,1 0 0 0 -1,1 1,1 0 0 0 1,1 1,1 0 0 0 1,-1 1,1 0 0 0 -1,-1 z m 56,0.0371 a 1,1 0 0 0 -1,1 1,1 0 0 0 1,1 1,1 0 0 0 1,-1 1,1 0 0 0 -1,-1 z" id="path1490" inkscape:connector-curvature="0" inkscape:label="tornillo centro"/>
      <path style="color:#000000;clip-rule:nonzero;display:block;overflow:visible;visibility:visible;opacity:1;isolation:auto;mix-blend-mode:normal;color-interpolation:sRGB;color-interpolation-filters:linearRGB;solid-color:#000000;solid-opacity:1;vector-effect:none;fill:#ffffff;fill-opacity:0.3241762;fill-rule:nonzero;stroke:#000000;stroke-width:0.3544383;stroke-linecap:butt;stroke-linejoin:miter;stroke-miterlimit:4;stroke-dasharray:none;stroke-dashoffset:0;stroke-opacity:0.28021982;marker:none;marker-start:none;marker-mid:none;marker-end:none;paint-order:fill markers stroke;color-rendering:auto;image-rendering:auto;shape-rendering:auto;text-rendering:auto;enable-background:accumulate" d="m 161.29492,144.43359 a 13.808927,13.808927 0 0 0 -13.81054,13.8086 13.808927,13.808927 0 0 0 2.26953,7.57422 7.81953,7.81953 0 0 0 -5.98438,7.59179 7.81953,7.81953 0 0 0 7.81836,7.82032 7.81953,7.81953 0 0 0 7.82031,-7.82032 7.81953,7.81953 0 0 0 -0.16015,-1.52734 13.808927,13.808927 0 0 0 2.04687,0.16992 13.808927,13.808927 0 0 0 13.8086,-13.80859 13.808927,13.808927 0 0 0 -13.8086,-13.8086 z" id="path1469" inkscape:connector-curvature="0" inkscape:label="engranaje back"/>
      <path style="color:#000000;clip-rule:nonzero;display:inline;overflow:visible;visibility:visible;opacity:1;isolation:auto;mix-blend-mode:normal;color-interpolation:sRGB;color-interpolation-filters:linearRGB;solid-color:#000000;solid-opacity:1;vector-effect:none;fill:#656c76;fill-opacity:1;fill-rule:nonzero;stroke:#f7f2f8;stroke-width:0.37935105;stroke-linecap:butt;stroke-linejoin:miter;stroke-miterlimit:4;stroke-dasharray:none;stroke-dashoffset:0;stroke-opacity:0.80769228;marker:none;marker-start:none;marker-mid:none;marker-end:none;paint-order:fill markers stroke;color-rendering:auto;image-rendering:auto;shape-rendering:auto;text-rendering:auto;enable-background:accumulate" d="m 160.03125,147.31445 c -0.19083,0 -0.29665,0.15134 -0.34375,0.32617 l -0.68359,2.53711 c -0.6215,0.18097 -1.22141,0.43146 -1.78711,0.7461 l -2.27735,-1.30469 c -0.15714,-0.0899 -0.3377,-0.12127 -0.47265,0.0137 l -1.97071,1.97071 c -0.13506,0.13493 -0.10397,0.3177 -0.0137,0.4746 l 1.32617,2.3086 c -0.30005,0.55495 -0.53834,1.14125 -0.71093,1.74805 l -2.57422,0.70117 c -0.17473,0.0475 -0.32617,0.15291 -0.32617,0.34375 v 2.78711 c 0,0.19083 0.15133,0.2986 0.32617,0.3457 l 2.63281,0.70898 c 0.17804,0.57561 0.41553,1.13199 0.70898,1.65821 l -1.36132,2.38086 c -0.0899,0.15714 -0.12323,0.33772 0.0117,0.47265 l 1.97266,1.97071 c 0.13494,0.13505 0.3177,0.10397 0.47461,0.0137 l 2.42383,-1.39453 c 0.44273,0.23171 1.09962,0.47982 1.59961,0.6582 l 0.73242,2.69531 c 0.0475,0.17473 0.15291,0.32422 0.34375,0.32422 h 2.78906 c 0.19084,0 0.29665,-0.14938 0.34375,-0.32422 l 0.73438,-2.71679 c 0.49878,-0.16152 1.05774,-0.43114 1.59179,-0.65039 l 2.42188,1.38671 c 0.15716,0.0898 0.33966,0.12129 0.47461,-0.0137 l 1.9707,-1.9707 c 0.13496,-0.13496 0.10397,-0.3177 0.0137,-0.47461 l -1.39257,-2.41602 c 0.28082,-0.5139 0.51012,-1.05529 0.68164,-1.61523 l 2.66797,-0.72461 c 0.17472,-0.0475 0.32617,-0.15291 0.32617,-0.34375 v -2.78906 c 0,-0.19083 -0.15135,-0.29665 -0.32617,-0.34375 l -2.625,-0.70899 c -0.16845,-0.59272 -0.39929,-1.1654 -0.68946,-1.70898 l 1.33594,-2.33008 c 0.0898,-0.15714 0.12127,-0.33968 -0.0137,-0.47461 l -1.97071,-1.9707 c -0.13496,-0.13505 -0.31768,-0.10397 -0.4746,-0.0137 l -2.30274,1.32422 c -0.55853,-0.31172 -1.15029,-0.56081 -1.76367,-0.74219 l -0.69141,-2.53907 c -0.0475,-0.17473 -0.1529,-0.32617 -0.34375,-0.32617 z m 1.41211,7.11914 c 2.27151,0 4.11328,1.84182 4.11328,4.11329 0,2.27147 -1.84177,4.11328 -4.11328,4.11328 -2.2715,0 -4.11328,-1.84181 -4.11328,-4.11328 0,-2.27148 1.84179,-4.11329 4.11328,-4.11329 z m -10.86082,13.43264 c -0.0998,0 -0.15694,0.0784 -0.18164,0.16992 l -0.35742,1.32813 c -0.3253,0.0947 -0.63945,0.22593 -0.93554,0.39062 l -1.19141,-0.68164 c -0.0823,-0.0471 -0.17745,-0.0647 -0.24805,0.006 l -1.03125,1.03321 c -0.0706,0.0706 -0.0551,0.16594 -0.008,0.24804 l 0.69531,1.20703 c -0.15705,0.29047 -0.28079,0.59842 -0.37109,0.91602 l -1.34766,0.36719 c -0.0915,0.0249 -0.16992,0.0798 -0.16992,0.17968 v 1.45899 c 0,0.0999 0.0784,0.15499 0.16992,0.17969 l 1.37696,0.37109 c 0.0932,0.30128 0.2175,0.59176 0.37109,0.86719 l -0.71289,1.24804 c -0.0471,0.0822 -0.0628,0.1755 0.008,0.2461 l 1.03125,1.0332 c 0.0706,0.0706 0.16595,0.0532 0.24805,0.006 l 1.26953,-0.73047 c 0.23173,0.12128 0.57424,0.2523 0.83594,0.3457 l 0.38476,1.41016 c 0.0249,0.0915 0.0798,0.16992 0.17969,0.16992 h 1.45898 c 0.0998,0 0.15499,-0.0784 0.17969,-0.16992 l 0.38477,-1.42187 c 0.26107,-0.0845 0.55445,-0.22509 0.83398,-0.33985 l 1.26758,0.72656 c 0.0823,0.0471 0.17745,0.0628 0.24805,-0.008 l 1.03125,-1.03125 c 0.0706,-0.0706 0.0551,-0.16595 0.008,-0.24805 l -0.72871,-1.26571 c 0.14699,-0.26898 0.26567,-0.55262 0.35547,-0.8457 l 1.39649,-0.37891 c 0.0915,-0.0249 0.17187,-0.0798 0.17187,-0.17969 v -1.46093 c 0,-0.0998 -0.0804,-0.15499 -0.17187,-0.17969 l -1.37305,-0.3711 c -0.0882,-0.31023 -0.20945,-0.61001 -0.36133,-0.89453 l 0.69922,-1.21875 c 0.0471,-0.0822 0.0628,-0.17744 -0.008,-0.24804 l -1.03125,-1.03125 c -0.0706,-0.0706 -0.16595,-0.0551 -0.24805,-0.008 l -1.20508,0.69336 c -0.29234,-0.16316 -0.60277,-0.29377 -0.92383,-0.38867 l -0.36132,-1.33008 c -0.0249,-0.0914 -0.0798,-0.16992 -0.17969,-0.16992 z m 0.73829,3.72656 c 1.18893,0 2.15234,0.96344 2.15234,2.15235 0,1.18892 -0.96341,2.15234 -2.15234,2.15234 -1.18893,0 -2.15235,-0.96342 -2.15235,-2.15234 0,-1.18891 0.96343,-2.15235 2.15235,-2.15235 z" id="path1242-7" inkscape:connector-curvature="0" inkscape:label="engranaje" sodipodi:nodetypes="sccccccccccssccccccccccsscccccsccccssccccccccccssssssscccccccccccssccccccccccsscccccsccccsscccccsccccccsssss"/>
      <rect style="color:#000000;clip-rule:nonzero;display:block;overflow:visible;visibility:visible;opacity:1;isolation:auto;mix-blend-mode:normal;color-interpolation:sRGB;color-interpolation-filters:linearRGB;solid-color:#000000;solid-opacity:1;vector-effect:none;fill:#000000;fill-opacity:0.2857143;fill-rule:nonzero;stroke:none;stroke-width:1;stroke-linecap:square;stroke-linejoin:miter;stroke-miterlimit:4;stroke-dasharray:2, 2;stroke-dashoffset:9.73946476;stroke-opacity:1;marker:none;marker-start:none;marker-mid:none;marker-end:none;paint-order:markers stroke fill;color-rendering:auto;image-rendering:auto;shape-rendering:auto;text-rendering:auto;enable-background:accumulate" id="rect954" width="34" height="1" x="143" y="135" inkscape:label="centro recuadro sombra top"/>
    </g>
  </g>
</svg>