<?xml version="1.0" encoding="UTF-8" standalone="yes"?>
<svg xmlns:dc="http://purl.org/dc/elements/1.1/" xmlns:cc="http://creativecommons.org/ns#" xmlns:rdf="http://www.w3.org/1999/02/22-rdf-syntax-ns#" xmlns:svg="http://www.w3.org/2000/svg" xmlns="http://www.w3.org/2000/svg" xmlns:xlink="http://www.w3.org/1999/xlink" xmlns:sodipodi="http://sodipodi.sourceforge.net/DTD/sodipodi-0.dtd" xmlns:inkscape="http://www.inkscape.org/namespaces/inkscape" height="96" viewBox="0 0 96 96" width="96" id="svg2" version="1.1" inkscape:version="0.92.1 r" sodipodi:docname="help-browser.svg" enable-background="new" folder="96">
  <title id="title4675">Template icons dark</title>
  <metadata id="metadata24">
    <rdf:RDF>
      <cc:Work rdf:about="">
        <dc:format>image/svg+xml</dc:format>
        <dc:type rdf:resource="http://purl.org/dc/dcmitype/StillImage"/>
        <dc:title>Template icons dark</dc:title>
        <dc:date>17/05/13</dc:date>
        <dc:creator>
          <cc:Agent>
            <dc:title>wfpaisa</dc:title>
          </cc:Agent>
        </dc:creator>
        <dc:rights>
          <cc:Agent>
            <dc:title>License: GPLv3</dc:title>
          </cc:Agent>
        </dc:rights>
        <dc:language>es-en</dc:language>
        <dc:subject>
          <rdf:Bag>
            <rdf:li>plane-icon-theme</rdf:li>
          </rdf:Bag>
        </dc:subject>
        <dc:description>Template for create set icons</dc:description>
        <cc:license rdf:resource="https://www.gnu.org/licenses/gpl-3.0.en.html"/>
      </cc:Work>
    </rdf:RDF>
  </metadata>
  <defs id="defs22">
    <linearGradient id="linearGradient7842" inkscape:collect="always">
      <stop id="stop7836" offset="0" style="stop-color:#ff2a0b;stop-opacity:1"/>
      <stop style="stop-color:#110200;stop-opacity:0.453125" offset="0.49622226" id="stop7854"/>
      <stop style="stop-color:#000000;stop-opacity:0.13020833" offset="0.53191489" id="stop7848"/>
      <stop style="stop-color:#ffcdc5;stop-opacity:0.10588235;" offset="0.61702126" id="stop7846"/>
      <stop id="stop7850" offset="0.70212764" style="stop-color:#ffd2cb;stop-opacity:0.16145833"/>
      <stop style="stop-color:#ffe2dd;stop-opacity:0" offset="0.77759355" id="stop7844"/>
      <stop style="stop-color:#ffffff;stop-opacity:0.109375" offset="0.87234044" id="stop7838"/>
      <stop id="stop7852" offset="0.93617022" style="stop-color:#ffffff;stop-opacity:0.078125"/>
      <stop id="stop7840" offset="1" style="stop-color:#000000;stop-opacity:0.35416666"/>
    </linearGradient>
    <linearGradient id="linearGradient7816" inkscape:collect="always">
      <stop id="stop7808" offset="0" style="stop-color:#000000;stop-opacity:0"/>
      <stop style="stop-color:#000000;stop-opacity:0" offset="0.49738139" id="stop7810"/>
      <stop style="stop-color:#000000;stop-opacity:0.27083334" offset="0.74869066" id="stop7812"/>
      <stop id="stop7814" offset="1" style="stop-color:#000000;stop-opacity:0"/>
    </linearGradient>
    <linearGradient inkscape:collect="always" id="linearGradient7800">
      <stop style="stop-color:#c5c5c5;stop-opacity:1" offset="0" id="stop7796"/>
      <stop style="stop-color:#f4f4f4;stop-opacity:1" offset="1" id="stop7798"/>
    </linearGradient>
    <linearGradient inkscape:collect="always" id="linearGradient7790">
      <stop style="stop-color:#cd3a00;stop-opacity:1" offset="0" id="stop7786"/>
      <stop style="stop-color:#cf6e53;stop-opacity:1" offset="1" id="stop7788"/>
    </linearGradient>
    <linearGradient inkscape:collect="always" id="linearGradient7730">
      <stop style="stop-color:#ffffff;stop-opacity:0" offset="0" id="stop7726"/>
      <stop id="stop7754" offset="0.65650702" style="stop-color:#ffffff;stop-opacity:0"/>
      <stop id="stop7752" offset="0.82896906" style="stop-color:#fff8f4;stop-opacity:0.26041666"/>
      <stop style="stop-color:#ffffff;stop-opacity:0" offset="1" id="stop7728"/>
    </linearGradient>
    <linearGradient inkscape:collect="always" xlink:href="#linearGradient7790" id="linearGradient7792" x1="160" y1="205" x2="160" y2="113" gradientUnits="userSpaceOnUse"/>
    <linearGradient inkscape:collect="always" xlink:href="#linearGradient7800" id="linearGradient7802" x1="170" y1="201.25058" x2="170" y2="119" gradientUnits="userSpaceOnUse"/>
    <linearGradient gradientTransform="matrix(1.2916667,0,0,1.2916667,65.414517,65.800307)" inkscape:collect="always" xlink:href="#linearGradient7790" id="linearGradient7792-0" x1="160" y1="205" x2="160" y2="113" gradientUnits="userSpaceOnUse"/>
    <linearGradient gradientTransform="matrix(1.2916667,0,0,1.2916667,65.414517,65.800307)" inkscape:collect="always" xlink:href="#linearGradient7800" id="linearGradient7802-7" x1="170" y1="201.25058" x2="170" y2="119" gradientUnits="userSpaceOnUse"/>
    <linearGradient gradientTransform="matrix(0.66666665,0,0,0.66666665,-26.557583,-26.743496)" inkscape:collect="always" xlink:href="#linearGradient7800" id="linearGradient7802-9" x1="170" y1="201.25058" x2="170" y2="119" gradientUnits="userSpaceOnUse"/>
    <linearGradient gradientTransform="matrix(0.66666665,0,0,0.66666665,-26.557583,-26.743496)" inkscape:collect="always" xlink:href="#linearGradient7790" id="linearGradient7792-4" x1="160" y1="205" x2="160" y2="113" gradientUnits="userSpaceOnUse"/>
    <linearGradient gradientTransform="matrix(0.5,0,0,0.5,-56.000002,-55.999999)" inkscape:collect="always" xlink:href="#linearGradient7800" id="linearGradient7802-1" x1="170" y1="201.25058" x2="170" y2="119" gradientUnits="userSpaceOnUse"/>
    <linearGradient gradientTransform="matrix(0.5,0,0,0.5,-56.000002,-55.999999)" inkscape:collect="always" xlink:href="#linearGradient7790" id="linearGradient7792-00" x1="160" y1="205" x2="160" y2="113" gradientUnits="userSpaceOnUse"/>
    <linearGradient gradientTransform="matrix(0.33333333,0,0,0.33333333,-69.333334,-69.333332)" inkscape:collect="always" xlink:href="#linearGradient7800" id="linearGradient7802-2" x1="170" y1="201.25058" x2="170" y2="119" gradientUnits="userSpaceOnUse"/>
    <linearGradient gradientTransform="matrix(0.33333333,0,0,0.33333333,-69.333334,-69.333332)" inkscape:collect="always" xlink:href="#linearGradient7790" id="linearGradient7792-2" x1="160" y1="205" x2="160" y2="113" gradientUnits="userSpaceOnUse"/>
    <linearGradient gradientTransform="matrix(0.25,0,0,0.25,-84,-84)" inkscape:collect="always" xlink:href="#linearGradient7800" id="linearGradient7802-2-6" x1="170" y1="201.25058" x2="170" y2="119" gradientUnits="userSpaceOnUse"/>
    <linearGradient gradientTransform="matrix(0.25,0,0,0.25,-84,-84)" inkscape:collect="always" xlink:href="#linearGradient7790" id="linearGradient7792-2-3" x1="160" y1="205" x2="160" y2="113" gradientUnits="userSpaceOnUse"/>
    <linearGradient gradientTransform="matrix(0.16666666,0,0,0.16666666,-90.666669,-90.666665)" inkscape:collect="always" xlink:href="#linearGradient7800" id="linearGradient7802-2-3" x1="170" y1="201.25058" x2="170" y2="119" gradientUnits="userSpaceOnUse"/>
    <linearGradient gradientTransform="matrix(0.16666666,0,0,0.16666666,-90.666669,-90.666665)" inkscape:collect="always" xlink:href="#linearGradient7790" id="linearGradient7792-2-8" x1="160" y1="205" x2="160" y2="113" gradientUnits="userSpaceOnUse"/>
    <radialGradient inkscape:collect="always" xlink:href="#linearGradient7730" id="radialGradient7750" cx="160.03294" cy="154.04303" fx="160.03294" fy="154.04303" r="47" gradientUnits="userSpaceOnUse" gradientTransform="matrix(0.93644398,0,0,0.93617029,10.138119,9.7894953)"/>
    <radialGradient inkscape:collect="always" xlink:href="#linearGradient7816" id="radialGradient7806" gradientUnits="userSpaceOnUse" gradientTransform="matrix(1.0420069,0,0,0.87187823,-6.6414605,26.640695)" cx="158.17044" cy="167.51665" fx="158.17044" fy="167.51665" r="47"/>
    <radialGradient inkscape:collect="always" xlink:href="#linearGradient7842" id="radialGradient7834" cx="160" cy="160" fx="160" fy="160" r="47" gradientUnits="userSpaceOnUse"/>
    <radialGradient gradientTransform="matrix(1.2916667,0,0,1.2916667,65.414517,65.800307)" inkscape:collect="always" xlink:href="#linearGradient7842" id="radialGradient7834-2" cx="160" cy="160" fx="160" fy="160" r="47" gradientUnits="userSpaceOnUse"/>
    <radialGradient gradientTransform="matrix(0.66666665,0,0,0.66666665,-26.557583,-26.743496)" inkscape:collect="always" xlink:href="#linearGradient7842" id="radialGradient7834-6" cx="160" cy="160" fx="160" fy="160" r="47" gradientUnits="userSpaceOnUse"/>
    <radialGradient gradientTransform="matrix(0.5,0,0,0.5,-56.000002,-55.999999)" inkscape:collect="always" xlink:href="#linearGradient7842" id="radialGradient7834-60" cx="160" cy="160" fx="160" fy="160" r="47" gradientUnits="userSpaceOnUse"/>
    <radialGradient gradientTransform="matrix(0.33333333,0,0,0.33333333,-69.333334,-69.333332)" inkscape:collect="always" xlink:href="#linearGradient7842" id="radialGradient7834-9" cx="160" cy="160" fx="160" fy="160" r="47" gradientUnits="userSpaceOnUse"/>
    <radialGradient gradientTransform="matrix(0.25,0,0,0.25,-84,-84)" inkscape:collect="always" xlink:href="#linearGradient7842" id="radialGradient7834-9-3" cx="160" cy="160" fx="160" fy="160" r="47" gradientUnits="userSpaceOnUse"/>
  </defs>
  <sodipodi:namedview pagecolor="#383c4a" bordercolor="#ffffff" borderopacity="0.62745098" objecttolerance="4" gridtolerance="10" guidetolerance="4" inkscape:pageopacity="0" inkscape:pageshadow="2" inkscape:window-width="640" inkscape:window-height="480" id="namedview20" showgrid="true" inkscape:zoom="21.128842" inkscape:cx="-50.912361" inkscape:cy="106.50951" inkscape:current-layer="layer8" inkscape:snap-smooth-nodes="false" showguides="true" borderlayer="true" inkscape:showpageshadow="false" inkscape:guide-bbox="true" guidecolor="#bd4fff" guideopacity="0.78431373" inkscape:snap-nodes="true" inkscape:lockguides="false" fit-margin-top="0" fit-margin-left="0" fit-margin-right="0" fit-margin-bottom="0" guidehicolor="#ff0101" guidehiopacity="0.78431373" inkscape:snap-page="true" inkscape:object-nodes="true" inkscape:snap-bbox="true" inkscape:snap-global="false" inkscape:snap-object-midpoints="false" inkscape:snap-bbox-edge-midpoints="false">
    <inkscape:grid type="xygrid" id="grid4171" empspacing="4" dotted="false" originx="2.7755576e-17" originy="0" spacingx="1" spacingy="1" color="#5a5a5a" opacity="0.23529412" empcolor="#5a5a5a" empopacity="0.47058824" visible="true"/>
    <inkscape:grid type="axonomgrid" id="grid4699" units="mm" empspacing="4" color="#5a5a5a" opacity="0.23529412" empcolor="#5a5a5a" empopacity="0.47058824" gridanglex="45" gridanglez="45" spacingy="3.7795276" visible="false" originx="1.3228346" originy="1.3228346"/>
    <sodipodi:guide position="48,0" orientation="1,0" id="guide4568" inkscape:locked="false" inkscape:label="" inkscape:color="rgb(189,79,255)"/>
    <sodipodi:guide position="111.99996,-3.9999999e-05" orientation="0,1" id="guide4570" inkscape:locked="false" inkscape:label="" inkscape:color="rgb(189,79,255)"/>
    <sodipodi:guide position="0,0" orientation="1,0" id="guide4572" inkscape:locked="false" inkscape:label="" inkscape:color="rgb(189,79,255)"/>
    <sodipodi:guide position="0,48" orientation="0,1" id="guide4574" inkscape:locked="false" inkscape:label="" inkscape:color="rgb(189,79,255)"/>
    <sodipodi:guide position="0,80" orientation="0,1" id="guide4576" inkscape:locked="false" inkscape:label="" inkscape:color="rgb(189,79,255)"/>
    <sodipodi:guide position="-32,48" orientation="1,0" id="guide4578" inkscape:locked="false" inkscape:label="" inkscape:color="rgb(189,79,255)"/>
    <sodipodi:guide position="-32,104" orientation="0,1" id="guide4580" inkscape:locked="false" inkscape:label="" inkscape:color="rgb(189,79,255)"/>
    <sodipodi:guide position="-56,80" orientation="1,0" id="guide4582" inkscape:locked="false" inkscape:label="" inkscape:color="rgb(189,79,255)"/>
    <sodipodi:guide position="48,-64" orientation="0,1" id="guide4584" inkscape:locked="false" inkscape:label="" inkscape:color="rgb(189,79,255)"/>
    <sodipodi:guide position="0,0" orientation="-0.70710678,0.70710678" id="guide4588" inkscape:locked="false" inkscape:label="" inkscape:color="rgb(189,79,255)"/>
    <sodipodi:guide position="-56,80" orientation="-0.70710678,0.70710678" id="guide4573" inkscape:locked="false" inkscape:label="" inkscape:color="rgb(189,79,255)"/>
    <sodipodi:guide position="-32,48" orientation="-0.70710678,0.70710678" id="guide4575" inkscape:locked="false" inkscape:label="" inkscape:color="rgb(189,79,255)"/>
    <sodipodi:guide position="48,-64" orientation="-0.70710678,0.70710678" id="guide4577" inkscape:locked="false" inkscape:label="" inkscape:color="rgb(189,79,255)"/>
    <sodipodi:guide position="47.999962,0" orientation="0.70710678,0.70710678" id="guide4697" inkscape:locked="false" inkscape:label="" inkscape:color="rgb(189,79,255)"/>
    <sodipodi:guide position="207.99995,-288" orientation="0,1" id="guide7833" inkscape:locked="false"/>
    <sodipodi:guide position="335.99994,-288" orientation="1,0" id="guide7835" inkscape:locked="false" inkscape:label="" inkscape:color="rgb(189,79,255)"/>
    <sodipodi:guide position="111.99996,-64" orientation="1,0" id="guide7915" inkscape:locked="false"/>
    <sodipodi:guide position="111.99996,-160" orientation="0,1" id="guide7917" inkscape:locked="false"/>
    <sodipodi:guide position="207.99996,-160" orientation="1,0" id="guide7919" inkscape:locked="false"/>
    <sodipodi:guide position="111.99996,-160" orientation="-0.70710678,0.70710678" id="guide7921" inkscape:locked="false" inkscape:label="" inkscape:color="rgb(189,79,255)"/>
    <sodipodi:guide position="207.99996,-288" orientation="-0.70710678,0.70710678" id="guide7923" inkscape:locked="false" inkscape:label="" inkscape:color="rgb(189,79,255)"/>
    <sodipodi:guide position="-72,104" orientation="1,0" id="guide7824" inkscape:locked="false"/>
    <sodipodi:guide position="-56,120" orientation="0,1" id="guide7826" inkscape:locked="false"/>
    <sodipodi:guide position="-72,104" orientation="-0.70710678,0.70710678" id="guide7828" inkscape:locked="false" inkscape:label="" inkscape:color="rgb(189,79,255)"/>
  </sodipodi:namedview>
  <g style="display:inline" inkscape:label="icon_96" id="g8840" inkscape:groupmode="layer" transform="translate(-111.99996,-112)">
    <g style="display:none" inkscape:label="frame" id="g8776" inkscape:groupmode="layer">
      <rect style="color:#000000;clip-rule:nonzero;display:inline;overflow:visible;visibility:visible;opacity:1;isolation:auto;mix-blend-mode:normal;color-interpolation:sRGB;color-interpolation-filters:linearRGB;solid-color:#000000;solid-opacity:1;vector-effect:none;fill:#000000;fill-opacity:1;fill-rule:nonzero;stroke:#ff24f7;stroke-width:0;stroke-linecap:square;stroke-linejoin:miter;stroke-miterlimit:4;stroke-dasharray:none;stroke-dashoffset:0;stroke-opacity:0.99481865;marker:none;marker-start:none;marker-mid:none;marker-end:none;paint-order:normal;color-rendering:auto;image-rendering:auto;shape-rendering:auto;text-rendering:auto;enable-background:accumulate" id="rect_96" width="96" height="96" x="111.99996" y="112" inkscape:label="frame_96"/>
      <text inkscape:label="txt_96" id="text_96" y="168.73633" x="144.72458" style="font-size:24px;line-height:0%;font-family:sans-serif;letter-spacing:0px;word-spacing:0px;display:inline;opacity:1;fill:#ffffff;fill-opacity:1;stroke:none;stroke-width:0.04917826px;stroke-linecap:butt;stroke-linejoin:miter;stroke-opacity:1" xml:space="preserve">
        <tspan id="tspan8768" style="font-size:24px;line-height:0%;fill:#ffffff;fill-opacity:1;stroke:none;stroke-width:0.04917826px" y="168.73633" x="144.72458" sodipodi:role="line">96</tspan>
      </text>
    </g>
    <g style="display:inline" inkscape:label="icon" id="g8838" inkscape:groupmode="layer">
      <path style="display:inline;fill:none;fill-rule:evenodd;stroke:#ffffff;stroke-width:1.29999995;stroke-linecap:butt;stroke-linejoin:miter;stroke-miterlimit:4;stroke-dasharray:none;stroke-dashoffset:0;stroke-opacity:1" d="m 128.44727,115 c -4.40945,0 -4.10073,6.59586 -6.90235,9.2207 -2.28923,2.14479 -7.50741,0.77916 -7.88476,5.13672 -0.46913,5.41726 -0.074,15.57965 1.37695,18.38867 L 146.14648,117 c 0,0 -13.67833,-2 -17.69921,-2 z m 62.14257,0 c -4.02088,0 -17.69922,2 -17.69922,2 L 204,147.74609 c 1.45095,-2.80902 1.84608,-12.97141 1.37695,-18.38867 -0.37735,-4.35756 -5.59553,-2.99193 -7.88476,-5.13672 C 194.69057,121.59586 194.99929,115 190.58984,115 Z m -75.55273,57.97461 c -1.45095,2.80902 -1.84608,12.97141 -1.37695,18.38867 0.37735,4.35756 5.59553,2.99193 7.88476,5.13672 2.80162,2.62484 2.4929,9.2207 6.90235,9.2207 4.02088,0 17.69921,-2 17.69921,-2 z m 88.96289,0 -31.10938,30.74609 c 0,0 13.67834,2 17.69922,2 4.40945,0 4.10073,-6.59586 6.90235,-9.2207 2.28923,-2.14479 7.50741,-0.77916 7.88476,-5.13672 0.46913,-5.41726 0.074,-15.57965 -1.37695,-18.38867 z" id="path7931" inkscape:connector-curvature="0" inkscape:label="n"/>
      <path style="display:inline;fill:none;fill-rule:evenodd;stroke:#9c8456;stroke-width:1.29999995;stroke-linecap:butt;stroke-linejoin:miter;stroke-miterlimit:4;stroke-dasharray:2.6, 1.3;stroke-dashoffset:0;stroke-opacity:1" d="m 128.44727,115 c -4.40945,0 -4.10073,6.59586 -6.90235,9.2207 -2.28923,2.14479 -7.50741,0.77916 -7.88476,5.13672 -0.46913,5.41726 -0.074,15.57965 1.37695,18.38867 L 146.14648,117 c 0,0 -13.67833,-2 -17.69921,-2 z m 62.14257,0 c -4.02088,0 -17.69922,2 -17.69922,2 L 204,147.74609 c 1.45095,-2.80902 1.84608,-12.97141 1.37695,-18.38867 -0.37735,-4.35756 -5.59553,-2.99193 -7.88476,-5.13672 C 194.69057,121.59586 194.99929,115 190.58984,115 Z m -75.55273,57.97461 c -1.45095,2.80902 -1.84608,12.97141 -1.37695,18.38867 0.37735,4.35756 5.59553,2.99193 7.88476,5.13672 2.80162,2.62484 2.4929,9.2207 6.90235,9.2207 4.02088,0 17.69921,-2 17.69921,-2 z m 88.96289,0 -31.10938,30.74609 c 0,0 13.67834,2 17.69922,2 4.40945,0 4.10073,-6.59586 6.90235,-9.2207 2.28923,-2.14479 7.50741,-0.77916 7.88476,-5.13672 0.46913,-5.41726 0.074,-15.57965 -1.37695,-18.38867 z" id="path7933" inkscape:connector-curvature="0" inkscape:label="a"/>
      <path inkscape:connector-curvature="0" id="path7780" d="m 160,112 c -26.50967,0 -48,21.49033 -48,48 0,26.50967 21.49033,48 48,48 26.50967,0 48,-21.49033 48,-48 0,-26.50967 -21.49033,-48 -48,-48 z m 0,26 c 12.15026,0 22,9.84974 22,22 0,12.15026 -9.84974,22 -22,22 -12.15026,0 -22,-9.84974 -22,-22 0,-12.15026 9.84974,-22 22,-22 z" style="color:#000000;clip-rule:nonzero;display:block;overflow:visible;visibility:visible;opacity:1;isolation:auto;mix-blend-mode:normal;color-interpolation:sRGB;color-interpolation-filters:linearRGB;solid-color:#000000;solid-opacity:1;vector-effect:none;fill:#000000;fill-opacity:0.05208333;fill-rule:nonzero;stroke:none;stroke-width:1.04347825;stroke-linecap:butt;stroke-linejoin:miter;stroke-miterlimit:4;stroke-dasharray:none;stroke-dashoffset:0;stroke-opacity:0.36979167;marker:none;marker-start:none;marker-mid:none;marker-end:none;paint-order:fill markers stroke;color-rendering:auto;image-rendering:auto;shape-rendering:auto;text-rendering:auto;enable-background:accumulate" sodipodi:nodetypes="ssssssssss" inkscape:label="base sombra"/>
      <path style="color:#000000;clip-rule:nonzero;display:block;overflow:visible;visibility:visible;opacity:1;isolation:auto;mix-blend-mode:normal;color-interpolation:sRGB;color-interpolation-filters:linearRGB;solid-color:#000000;solid-opacity:1;vector-effect:none;fill:url(#linearGradient7792);fill-opacity:1;fill-rule:nonzero;stroke:none;stroke-width:1.02173913;stroke-linecap:butt;stroke-linejoin:miter;stroke-miterlimit:4;stroke-dasharray:none;stroke-dashoffset:0;stroke-opacity:0.36979167;marker:none;marker-start:none;marker-mid:none;marker-end:none;paint-order:fill markers stroke;color-rendering:auto;image-rendering:auto;shape-rendering:auto;text-rendering:auto;enable-background:accumulate" d="m 160,113 a 47,47 0 0 0 -47,47 47,47 0 0 0 47,47 47,47 0 0 0 47,-47 47,47 0 0 0 -47,-47 z m 0,24 a 23,23 0 0 1 23,23 23,23 0 0 1 -23,23 23,23 0 0 1 -23,-23 23,23 0 0 1 23,-23 z" id="path7721" inkscape:connector-curvature="0" inkscape:label="base"/>
      <path style="color:#000000;clip-rule:nonzero;display:inline;overflow:visible;visibility:visible;opacity:1;isolation:auto;mix-blend-mode:normal;color-interpolation:sRGB;color-interpolation-filters:linearRGB;solid-color:#000000;solid-opacity:1;vector-effect:none;fill:url(#linearGradient7802);fill-opacity:1;fill-rule:nonzero;stroke:#441201;stroke-width:1.20936036;stroke-linecap:butt;stroke-linejoin:miter;stroke-miterlimit:4;stroke-dasharray:none;stroke-dashoffset:0;stroke-opacity:0.390625;marker:none;marker-start:none;marker-mid:none;marker-end:none;paint-order:fill markers stroke;color-rendering:auto;image-rendering:auto;shape-rendering:auto;text-rendering:auto;enable-background:accumulate" d="m 136.16992,119.49414 c -6.87389,4.05284 -12.62294,9.80189 -16.67578,16.67578 l 19.12109,16.17969 a 22.74016,22.74016 0 0 1 13.73243,-13.74023 z m 47.66016,0 -16.17969,19.12109 a 22.74016,22.74016 0 0 1 13.74023,13.73243 l 19.11524,-16.17774 c -4.05284,-6.87389 -9.80189,-12.62294 -16.67578,-16.67578 z m -45.21875,48.16211 -19.11719,16.17383 c 4.05255,6.87341 9.80058,12.62299 16.67383,16.67578 l 16.17773,-19.12305 a 22.74016,22.74016 0 0 1 -13.73437,-13.72656 z m 42.77148,0 a 22.74016,22.74016 0 0 1 -13.72656,13.73242 l 16.17383,19.11719 c 6.87341,-4.05255 12.62299,-9.80058 16.67578,-16.67383 z" id="rect7741" inkscape:connector-curvature="0" inkscape:label="four"/>
      <path inkscape:label="base" inkscape:connector-curvature="0" id="path7822" d="m 160,113 a 47,47 0 0 0 -47,47 47,47 0 0 0 47,47 47,47 0 0 0 47,-47 47,47 0 0 0 -47,-47 z m 0,24 a 23,23 0 0 1 23,23 23,23 0 0 1 -23,23 23,23 0 0 1 -23,-23 23,23 0 0 1 23,-23 z" style="color:#000000;clip-rule:nonzero;display:inline;overflow:visible;visibility:visible;opacity:1;isolation:auto;mix-blend-mode:normal;color-interpolation:sRGB;color-interpolation-filters:linearRGB;solid-color:#000000;solid-opacity:1;vector-effect:none;fill:url(#radialGradient7834);fill-opacity:1;fill-rule:nonzero;stroke:none;stroke-width:1.02173913;stroke-linecap:butt;stroke-linejoin:miter;stroke-miterlimit:4;stroke-dasharray:none;stroke-dashoffset:0;stroke-opacity:0.36979167;marker:none;marker-start:none;marker-mid:none;marker-end:none;paint-order:fill markers stroke;color-rendering:auto;image-rendering:auto;shape-rendering:auto;text-rendering:auto;enable-background:accumulate"/>
      <path style="display:inline;fill:none;fill-rule:evenodd;stroke:#ffffff;stroke-width:1px;stroke-linecap:butt;stroke-linejoin:miter;stroke-opacity:0.21354167" d="m 137.14844,119 16.24414,19 z m 45.59179,0 -16.24414,19 z m -63.85156,18 19,16.24414 z m 19,29.91602 -19,16.24414 z m 44.11133,0 19,16.24414 z m -28.60742,15.24414 -16.24414,19 z m 13.10351,0 16.24414,19 z" id="path7867" inkscape:connector-curvature="0" inkscape:label="brillos"/>
      <path style="font-style:normal;font-variant:normal;font-weight:normal;font-stretch:normal;font-size:medium;line-height:1000%;font-family:Z003;-inkscape-font-specification:Z003;letter-spacing:0px;word-spacing:0px;fill:#000000;fill-opacity:0.44270833;stroke:none;stroke-width:0.22966054px;stroke-linecap:butt;stroke-linejoin:miter;stroke-opacity:1" d="m 195.63804,135.63685 c -0.0608,-0.005 -0.11453,0.0146 -0.153,0.0615 -0.0559,0.0681 -0.0921,0.2003 -0.10251,0.38668 -0.0117,0.19958 -0.0183,0.3231 -0.0241,0.37067 -0.13495,-0.17732 -0.20415,-0.26711 -0.20984,-0.27178 -0.0171,-0.014 -0.0531,-0.0114 -0.0694,0.008 -0.0233,0.0285 -0.0895,0.35873 -0.13705,0.67149 l 0.0598,0.0785 c 0.008,-0.0269 0.0233,-0.081 0.0473,-0.15642 0.0188,-0.075 0.0251,-0.0885 0.0438,-0.11126 0.028,-0.034 0.0726,-0.0308 0.12372,0.0112 0.10226,0.0839 0.69447,0.85013 1.17224,1.51328 l -0.0784,0.10718 0.0216,0.15985 c 0.0447,-0.0488 0.0721,-0.083 0.0814,-0.0943 l 0.17154,-0.20213 0.15143,-0.17974 c 0.0187,-0.0227 0.051,-0.0614 0.10648,-0.13472 l 0.001,-0.14689 -0.2786,0.30373 c -0.14294,-0.17914 -0.21021,-0.26378 -0.24633,-0.31244 -0.0479,-0.0632 -0.0989,-0.12306 -0.14975,-0.18854 l -0.0958,-0.13104 c 0.0581,-0.0475 0.0863,-0.0768 0.12593,-0.1251 0.12822,-0.15622 0.13922,-0.1989 0.13643,-0.572 0.003,-0.15952 -0.009,-0.22654 -0.057,-0.33674 -0.11001,-0.24243 -0.2818,-0.48395 -0.4437,-0.61684 -0.0682,-0.0559 -0.137,-0.087 -0.19791,-0.0924 z m -1.44043,0.11826 c -0.0632,0.048 -0.0891,0.0745 -0.12177,0.11423 -0.0932,0.11361 -0.12253,0.23659 -0.11182,0.47834 0.009,0.21586 0.0279,0.28463 0.0998,0.40549 0.0495,0.0787 0.22835,0.32972 0.33001,0.4607 l 0.72111,0.93472 c 0.0147,0.0169 0.0293,0.0332 0.0464,0.0473 0.088,0.0723 0.2127,0.0937 0.25001,0.0482 l 0.0145,-0.0173 0.007,-0.007 c 0.0225,-0.0101 0.0346,-0.15222 0.0742,-0.78533 l -0.062,-0.0524 c -0.0149,0.0876 -0.0152,0.0881 -0.0387,0.27317 -0.0164,0.12433 -0.0336,0.19093 -0.0592,0.22218 -0.0233,0.0284 -0.0755,0.0234 -0.11533,-0.009 l -0.026,-0.0211 -0.026,-0.0211 c -0.0512,-0.0419 -0.49737,-0.62158 -0.81159,-1.05539 -0.32944,-0.45582 -0.35604,-0.52095 -0.25346,-0.64593 0.035,-0.0426 0.0613,-0.069 0.13432,-0.12318 z m 1.45681,0.21121 c 0.0404,0.005 0.0867,0.0278 0.13501,0.0674 0.12781,0.1049 0.25699,0.27801 0.35207,0.47491 0.10747,0.21657 0.11146,0.38112 0.0159,0.49757 -0.0583,0.071 -0.14416,0.12879 -0.23986,0.16434 l -0.0749,-0.0943 -0.15754,-0.20115 -0.15007,-0.19445 c -0.0119,-0.0145 -0.042,-0.0534 -0.0838,-0.10682 0.0184,-0.36994 0.045,-0.50004 0.10555,-0.57389 0.0233,-0.0284 0.0572,-0.0394 0.0976,-0.0336 z m -2.73941,1.35717 c -0.059,0.0372 -0.08,0.0585 -0.12202,0.10951 -0.0303,0.0368 -0.0507,0.0675 -0.0656,0.10294 -0.0355,0.0897 -0.0406,0.32772 -0.013,0.55476 0.0289,0.21387 0.0693,0.31357 0.20577,0.5064 l 0.21271,0.30357 c 0.006,0.01 0.0301,0.0433 0.0667,0.0971 l -0.49575,0.60535 c -0.04,-0.0613 -0.0701,-0.10035 -0.0797,-0.11769 -0.0542,-0.073 -0.10569,-0.14353 -0.15703,-0.2142 -0.0542,-0.073 -0.10799,-0.14651 -0.15984,-0.22234 -0.009,-0.0122 -0.0418,-0.0535 -0.0863,-0.10906 l -0.003,-0.18689 c -0.0663,0.0692 -0.108,0.12045 -0.14064,0.16022 -0.22847,0.27835 -0.33447,0.5106 -0.34677,0.75724 -0.0123,0.24663 0.0632,0.42151 0.24223,0.56838 0.0454,0.0373 0.078,0.0555 0.16012,0.0945 l 0.1039,-0.27191 c -0.11187,-0.049 -0.15868,-0.0778 -0.22117,-0.1291 -0.15621,-0.12822 -0.21611,-0.2874 -0.17396,-0.44297 0.0299,-0.0943 0.0763,-0.1687 0.21853,-0.34196 0.1042,0.15684 0.11704,0.17026 0.41553,0.5769 l 0.0651,0.0877 0.0244,0.19167 0.0661,-0.0699 c 0.41638,0.56997 0.44245,0.69567 0.193,0.99958 -0.0373,0.0454 -0.0656,0.0791 -0.12958,0.14543 l 0.0743,0.2849 c 0.0598,-0.0555 0.0837,-0.0787 0.12568,-0.12983 0.0746,-0.0909 0.12496,-0.16818 0.1517,-0.2413 0.0467,-0.10903 0.0501,-0.34419 0.0179,-0.61778 -0.0326,-0.27876 -0.0429,-0.3022 -0.26135,-0.6384 0.26636,-0.37085 0.34379,-0.47699 0.47149,-0.6384 0.048,0.0632 0.0783,0.10726 0.093,0.12409 l 0.18808,0.26346 c 0.31604,0.4258 0.31651,0.42559 0.35343,0.45589 0.0313,0.0256 0.0826,0.0211 0.1106,-0.013 0.0164,-0.0199 0.0336,-0.0532 0.0508,-0.0915 0.0407,-0.0902 0.0697,-0.14223 0.26703,-0.49845 l -0.0283,-0.10978 c -0.10705,0.15934 -0.14449,0.20939 -0.2051,0.28324 -0.0466,0.0568 -0.10294,0.0679 -0.15122,0.0282 -0.088,-0.0723 -0.0879,-0.0722 -0.64591,-0.83455 -0.48417,-0.70167 -0.48443,-0.70182 -0.51043,-0.7802 -0.0332,-0.0986 -0.0218,-0.17024 0.0435,-0.24976 0.0466,-0.0568 0.0779,-0.0827 0.1519,-0.12648 z m 1.07354,0.28373 c -0.0501,0.005 -0.0979,0.0345 -0.13987,0.0856 -0.0513,0.0625 -0.0713,0.11591 -0.0904,0.21436 -0.0261,0.15923 -0.0293,0.3186 -0.008,0.43136 0.0421,0.21518 0.27562,0.56913 0.50569,0.75796 0.16757,0.13756 0.34469,0.13553 0.46359,-0.009 0.13755,-0.16758 0.18995,-0.48661 0.1461,-0.87914 l -0.0807,-0.0703 c 0.007,0.38575 -0.0222,0.56688 -0.11082,0.6748 -0.0606,0.0739 -0.1558,0.0906 -0.24597,0.0499 -0.0548,-0.0259 -0.0884,-0.0488 -0.17076,-0.11639 0.0249,-0.19826 0.0339,-0.32427 0.0464,-0.59443 0.0118,-0.2518 -0.0357,-0.38597 -0.1635,-0.49088 -0.0497,-0.0408 -0.10196,-0.0587 -0.15203,-0.0535 z m -0.0411,0.27331 c 0.0313,0.003 0.0665,0.0187 0.102,0.0478 0.14201,0.11658 0.16545,0.27402 0.11327,0.72561 -0.26711,-0.30007 -0.39562,-0.61946 -0.29304,-0.74443 0.0187,-0.0227 0.0464,-0.0321 0.0778,-0.029 z" id="path7927" inkscape:connector-curvature="0" inkscape:label="help"/>
      <path style="color:#000000;clip-rule:nonzero;display:block;overflow:visible;visibility:visible;opacity:1;isolation:auto;mix-blend-mode:normal;color-interpolation:sRGB;color-interpolation-filters:linearRGB;solid-color:#000000;solid-opacity:1;vector-effect:none;fill:#000000;fill-opacity:0.11979167;fill-rule:nonzero;stroke:none;stroke-width:1.29999995;stroke-linecap:butt;stroke-linejoin:miter;stroke-miterlimit:4;stroke-dasharray:none;stroke-dashoffset:0;stroke-opacity:1;marker:none;marker-start:none;marker-mid:none;marker-end:none;paint-order:fill markers stroke;color-rendering:auto;image-rendering:auto;shape-rendering:auto;text-rendering:auto;enable-background:accumulate" d="m 187.45117,124.3418 c -0.38336,0.007 -0.7643,0.16186 -1.05273,0.46093 -0.57687,0.59816 -0.56105,1.54423 0.0371,2.1211 l 6.47851,6.24805 c 0.59816,0.57686 1.54423,0.55909 2.1211,-0.0391 0.57686,-0.59815 0.55909,-1.54423 -0.0391,-2.12109 l -6.47656,-6.24805 c -0.29908,-0.28843 -0.68499,-0.42882 -1.06836,-0.42187 z m -54.90935,0.65739 c -0.38337,-0.007 -0.76933,0.1334 -1.06836,0.42188 l -6.47656,6.24805 c -0.59807,0.57695 -0.61602,1.52303 -0.0391,2.12109 0.57695,0.59806 1.52303,0.61407 2.12109,0.0371 l 6.47656,-6.24805 c 0.59807,-0.57695 0.61602,-1.52303 0.0391,-2.12109 -0.28847,-0.29903 -0.66936,-0.4521 -1.05273,-0.45899 z m 48.96013,5.29183 c -0.38336,0.007 -0.76458,0.16159 -1.05273,0.46093 -0.57631,0.5987 -0.55768,1.54479 0.041,2.1211 l 6.48243,6.24023 c 0.59869,0.57631 1.54478,0.55963 2.12109,-0.0391 0.57631,-0.59869 0.55963,-1.54479 -0.0391,-2.1211 l -6.48438,-6.24218 c -0.29934,-0.28816 -0.685,-0.42723 -1.06836,-0.41992 z m -42.60156,0.35937 c -0.38337,-0.007 -0.76933,0.1334 -1.06836,0.42188 l -6.47656,6.25 c -0.59807,0.57695 -0.61602,1.52107 -0.0391,2.11914 0.57695,0.59806 1.52303,0.61602 2.12109,0.0391 l 6.47656,-6.24805 c 0.59807,-0.57696 0.61602,-1.52303 0.0391,-2.12109 -0.28847,-0.29903 -0.66936,-0.45405 -1.05273,-0.46094 z m 36.41211,5.58594 c -0.38336,0.007 -0.76263,0.16159 -1.05078,0.46094 -0.57631,0.59869 -0.55963,1.54478 0.0391,2.12109 l 6.48438,6.24023 c 0.59869,0.57631 1.54478,0.55963 2.12109,-0.0391 0.57631,-0.59869 0.55963,-1.54479 -0.0391,-2.12109 l -6.48438,-6.24219 c -0.29934,-0.28815 -0.68695,-0.42723 -1.07031,-0.41992 z m -30.4668,0.8457 c -0.38336,-0.007 -0.76932,0.13144 -1.06836,0.41992 l -6.47851,6.25 c -0.59807,0.57696 -0.61407,1.52303 -0.0371,2.1211 0.57696,0.59806 1.52303,0.61406 2.12109,0.0371 l 6.47657,-6.24805 c 0.59806,-0.57696 0.61602,-1.52303 0.0391,-2.12109 -0.28848,-0.29904 -0.66937,-0.4521 -1.05274,-0.45899 z m 36.51953,36.51758 c -0.38336,-0.007 -0.76932,0.1334 -1.06835,0.42187 l -6.47852,6.24805 c -0.59806,0.57696 -0.61407,1.52303 -0.0371,2.12109 0.57696,0.59807 1.52303,0.61603 2.12109,0.0391 l 6.47657,-6.24805 c 0.59806,-0.57696 0.61406,-1.52303 0.0371,-2.12109 -0.28848,-0.29904 -0.66742,-0.45405 -1.05079,-0.46094 z m -42.92968,0.24414 c -0.38337,0.007 -0.76431,0.15991 -1.05274,0.45898 -0.57686,0.59816 -0.56104,1.54423 0.0371,2.1211 l 6.47852,6.24805 c 0.59815,0.57686 1.54423,0.55909 2.12109,-0.0391 0.57687,-0.59815 0.56105,-1.54423 -0.0371,-2.12109 l -6.47851,-6.2461 c -0.29908,-0.28843 -0.685,-0.42882 -1.06836,-0.42187 z m -5.94922,5.94727 c -0.38336,0.007 -0.76458,0.16159 -1.05274,0.46093 -0.5763,0.5987 -0.55767,1.54479 0.041,2.1211 l 6.48242,6.24218 c 0.59869,0.57631 1.54479,0.55768 2.12109,-0.041 0.57631,-0.59869 0.55963,-1.54479 -0.0391,-2.1211 l -6.48437,-6.24218 c -0.29935,-0.28816 -0.685,-0.42723 -1.06836,-0.41992 z m 54.82226,0.24023 c -0.38336,-0.007 -0.76932,0.13144 -1.06836,0.41992 l -6.47656,6.25 c -0.59806,0.57696 -0.61602,1.52303 -0.0391,2.1211 0.57696,0.59806 1.52303,0.61406 2.12109,0.0371 l 6.47852,-6.24805 c 0.59806,-0.57696 0.61407,-1.52303 0.0371,-2.1211 -0.28848,-0.29903 -0.66937,-0.45209 -1.05274,-0.45898 z m 6.32468,5.57341 c -0.38339,-0.005 -0.76875,0.13588 -1.0664,0.42579 l -6.44727,6.27929 c -0.5953,0.57981 -0.60715,1.5258 -0.0273,2.1211 0.57981,0.5953 1.52579,0.6091 2.12109,0.0293 l 6.44727,-6.28125 c 0.5953,-0.57981 0.60715,-1.52579 0.0273,-2.12109 -0.2899,-0.29765 -0.67129,-0.44807 -1.05469,-0.45313 z m -67.33444,0.13167 c -0.38336,0.007 -0.76458,0.16159 -1.05274,0.46094 -0.5763,0.59869 -0.55767,1.54478 0.041,2.12109 l 6.48242,6.24219 c 0.59869,0.5763 1.54479,0.55767 2.12109,-0.041 0.57631,-0.59869 0.55963,-1.54479 -0.0391,-2.12109 l -6.48437,-6.24219 c -0.29935,-0.28815 -0.685,-0.42723 -1.06836,-0.41992 z" id="rect7945" inkscape:connector-curvature="0" inkscape:label="dec" sodipodi:nodetypes="ccccccccccscccccccccccccccccccccccccccccccccccccscccccccccccccccccccccccccccsccccccccccscccccccccccccccccccc"/>
    </g>
  </g>
</svg>