<?xml version="1.0" encoding="UTF-8" standalone="yes"?>
<svg xmlns:osb="http://www.openswatchbook.org/uri/2009/osb" xmlns:dc="http://purl.org/dc/elements/1.1/" xmlns:cc="http://creativecommons.org/ns#" xmlns:rdf="http://www.w3.org/1999/02/22-rdf-syntax-ns#" xmlns:svg="http://www.w3.org/2000/svg" xmlns="http://www.w3.org/2000/svg" xmlns:xlink="http://www.w3.org/1999/xlink" xmlns:sodipodi="http://sodipodi.sourceforge.net/DTD/sodipodi-0.dtd" xmlns:inkscape="http://www.inkscape.org/namespaces/inkscape" height="96" viewBox="0 0 96 96" width="96" id="svg2" version="1.1" inkscape:version="0.92.1 r" sodipodi:docname="libreoffice-math.svg" enable-background="new" folder="96">
  <title id="title4675">Template icons dark</title>
  <metadata id="metadata24">
    <rdf:RDF>
      <cc:Work rdf:about="">
        <dc:format>image/svg+xml</dc:format>
        <dc:type rdf:resource="http://purl.org/dc/dcmitype/StillImage"/>
        <dc:title>Template icons dark</dc:title>
        <dc:date>17/05/13</dc:date>
        <dc:creator>
          <cc:Agent>
            <dc:title>wfpaisa</dc:title>
          </cc:Agent>
        </dc:creator>
        <dc:rights>
          <cc:Agent>
            <dc:title>License: GPLv3</dc:title>
          </cc:Agent>
        </dc:rights>
        <dc:language>es-en</dc:language>
        <dc:subject>
          <rdf:Bag>
            <rdf:li>plane-icon-theme</rdf:li>
          </rdf:Bag>
        </dc:subject>
        <dc:description>Template for create set icons</dc:description>
        <cc:license rdf:resource="https://www.gnu.org/licenses/gpl-3.0.en.html"/>
      </cc:Work>
    </rdf:RDF>
  </metadata>
  <defs id="defs22">
    <linearGradient id="linearGradient7995" inkscape:collect="always">
      <stop id="stop7991" offset="0" style="stop-color:#ffffff;stop-opacity:0.05729167"/>
      <stop id="stop7993" offset="1" style="stop-color:#ffffff;stop-opacity:0.63541669"/>
    </linearGradient>
    <linearGradient inkscape:collect="always" id="linearGradient9793">
      <stop style="stop-color:#ffffff;stop-opacity:0.46354166" offset="0" id="stop9789"/>
      <stop style="stop-color:#f6f6f6;stop-opacity:0.21875" offset="1" id="stop9791"/>
    </linearGradient>
    <linearGradient inkscape:collect="always" id="linearGradient9499">
      <stop style="stop-color:#000000;stop-opacity:0.296875" offset="0" id="stop9495"/>
      <stop style="stop-color:#000000;stop-opacity:0.078125" offset="1" id="stop9497"/>
    </linearGradient>
    <linearGradient id="linearGradient9422" osb:paint="solid">
      <stop style="stop-color:#a3bfcf;stop-opacity:1;" offset="0" id="stop9420"/>
    </linearGradient>
    <linearGradient id="linearGradient9052">
      <stop style="stop-color:#000000;stop-opacity:0.41145834" offset="0" id="stop9048"/>
      <stop style="stop-color:#000000;stop-opacity:0.515625" offset="1" id="stop9050"/>
    </linearGradient>
    <linearGradient id="linearGradient7827">
      <stop id="stop7823" offset="0" style="stop-color:#a3bfcf;stop-opacity:1;"/>
      <stop id="stop7825" offset="1" style="stop-color:#6d8aa9;stop-opacity:1;"/>
    </linearGradient>
    <linearGradient inkscape:collect="always" xlink:href="#linearGradient7827" id="linearGradient7785" x1="160" y1="137" x2="160" y2="188" gradientUnits="userSpaceOnUse"/>
    <linearGradient gradientTransform="matrix(0.71910112,0,0,0.71910112,-35.934044,-35.407549)" inkscape:collect="always" xlink:href="#linearGradient7827" id="linearGradient7785-2" x1="160" y1="137" x2="160" y2="188" gradientUnits="userSpaceOnUse"/>
    <linearGradient inkscape:collect="always" xlink:href="#linearGradient9052" id="linearGradient9054" x1="160" y1="119" x2="160" y2="201.5748" gradientUnits="userSpaceOnUse"/>
    <linearGradient inkscape:collect="always" xlink:href="#linearGradient9422" id="linearGradient9424" x1="172" y1="128" x2="194" y2="128" gradientUnits="userSpaceOnUse"/>
    <linearGradient inkscape:collect="always" xlink:href="#linearGradient9499" id="linearGradient9501" x1="160" y1="204" x2="160" y2="119" gradientUnits="userSpaceOnUse"/>
    <linearGradient inkscape:collect="always" xlink:href="#linearGradient9499" id="linearGradient9719" gradientUnits="userSpaceOnUse" x1="75.590553" y1="110.653" x2="75.590553" y2="48"/>
    <linearGradient inkscape:collect="always" xlink:href="#linearGradient9499" id="linearGradient9730" gradientUnits="userSpaceOnUse" x1="21" y1="47.456692" x2="21" y2="2"/>
    <linearGradient inkscape:collect="always" xlink:href="#linearGradient9793" id="linearGradient9795" x1="-64" y1="-57" x2="-64" y2="-71" gradientUnits="userSpaceOnUse"/>
    <linearGradient inkscape:collect="always" xlink:href="#linearGradient9793" id="linearGradient9834" gradientUnits="userSpaceOnUse" x1="-44.031498" y1="-34" x2="-44.031498" y2="-54"/>
    <linearGradient gradientTransform="translate(100,98.000004)" inkscape:collect="always" xlink:href="#linearGradient9052" id="linearGradient9054-3" x1="160" y1="119" x2="160" y2="201.5748" gradientUnits="userSpaceOnUse"/>
    <linearGradient inkscape:collect="always" xlink:href="#linearGradient7995" id="linearGradient8964" gradientUnits="userSpaceOnUse" x1="192.57616" y1="117.25631" x2="192.57616" y2="136.34877"/>
    <linearGradient inkscape:collect="always" xlink:href="#linearGradient7827" id="linearGradient9991" gradientUnits="userSpaceOnUse" x1="273.44882" y1="218.04546" x2="273.44882" y2="328"/>
    <linearGradient inkscape:collect="always" xlink:href="#linearGradient9499" id="linearGradient10016" gradientUnits="userSpaceOnUse" x1="272" y1="328.6929" x2="272" y2="214.4252"/>
    <linearGradient inkscape:collect="always" xlink:href="#linearGradient7827" id="linearGradient8207" gradientUnits="userSpaceOnUse" gradientTransform="matrix(0.71910112,0,0,0.71910112,-35.934044,-35.407549)" x1="86.127029" y1="50.62925" x2="86.127029" y2="112.38956"/>
    <linearGradient inkscape:collect="always" xlink:href="#linearGradient7827" id="linearGradient8285" gradientUnits="userSpaceOnUse" gradientTransform="matrix(0.71910112,0,0,0.71910112,-35.934044,-35.407549)" x1="28.947159" y1="7.5198727" x2="28.947159" y2="46.457375"/>
    <linearGradient inkscape:collect="always" xlink:href="#linearGradient7827" id="linearGradient8287" gradientUnits="userSpaceOnUse" gradientTransform="matrix(0.71910112,0,0,0.71910112,-35.934044,-35.407549)" x1="-11.216721" y1="-25.855127" x2="-11.216721" y2="1.9573728"/>
    <linearGradient inkscape:collect="always" xlink:href="#linearGradient9052" id="linearGradient7937" gradientUnits="userSpaceOnUse" x1="79.842522" y1="50.497295" x2="79.842522" y2="108"/>
    <style type="text/css" id="style51071-8">
   
    .str0 {stroke:#1F1A17;stroke-width:3}
    .fil0 {fill:none}
   
  </style>
    <style id="style2031-6" type="text/css">
   
    .str0 {stroke:#1F1A17;stroke-width:0.0762}
    .fil0 {fill:none}
    .fil1 {fill:none;fill-rule:nonzero}
   
  </style>
    <style id="style5368-2" type="text/css">
   
    .str0 {stroke:#000000;stroke-width:63}
    .str1 {stroke:#09098F;stroke-width:63}
    .fil5 {fill:none}
    .fil1 {fill:#000000}
    .fil2 {fill:#000000}
    .fil3 {fill:#4D66CC}
    .fil0 {fill:#576ECD}
    .fil4 {fill:#89A1D4}
   
  </style>
    <style type="text/css" id="style51071">
   
    .str0 {stroke:#1F1A17;stroke-width:3}
    .fil0 {fill:none}
   
  </style>
    <style id="style2031" type="text/css">
   
    .str0 {stroke:#1F1A17;stroke-width:0.0762}
    .fil0 {fill:none}
    .fil1 {fill:none;fill-rule:nonzero}
   
  </style>
    <style id="style5368" type="text/css">
   
    .str0 {stroke:#000000;stroke-width:63}
    .str1 {stroke:#09098F;stroke-width:63}
    .fil5 {fill:none}
    .fil1 {fill:#000000}
    .fil2 {fill:#000000}
    .fil3 {fill:#4D66CC}
    .fil0 {fill:#576ECD}
    .fil4 {fill:#89A1D4}
   
  </style>
  </defs>
  <sodipodi:namedview pagecolor="#383c4a" bordercolor="#ffffff" borderopacity="0.62745098" objecttolerance="4" gridtolerance="10" guidetolerance="4" inkscape:pageopacity="0" inkscape:pageshadow="2" inkscape:window-width="640" inkscape:window-height="480" id="namedview20" showgrid="true" inkscape:zoom="16.386532" inkscape:cx="-19.689007" inkscape:cy="49.247553" inkscape:current-layer="layer10" inkscape:snap-smooth-nodes="false" showguides="true" borderlayer="true" inkscape:showpageshadow="false" inkscape:guide-bbox="true" guidecolor="#bd4fff" guideopacity="0.78431373" inkscape:snap-nodes="true" inkscape:lockguides="false" fit-margin-top="0" fit-margin-left="0" fit-margin-right="0" fit-margin-bottom="0" guidehicolor="#ff0101" guidehiopacity="0.78431373" inkscape:snap-page="true" inkscape:object-nodes="true" inkscape:snap-bbox="true" inkscape:snap-global="true" inkscape:snap-object-midpoints="false" inkscape:snap-bbox-edge-midpoints="false" inkscape:bbox-nodes="true" inkscape:measure-start="170,-69.0866" inkscape:measure-end="194.079,-69" inkscape:snap-bbox-midpoints="true" inkscape:snap-grids="true">
    <inkscape:grid type="xygrid" id="grid4171" empspacing="4" dotted="false" originx="2.7755576e-17" originy="0" spacingx="1" spacingy="1" color="#5a5a5a" opacity="0.23529412" empcolor="#5a5a5a" empopacity="0.47058824" visible="true"/>
    <inkscape:grid type="axonomgrid" id="grid4699" units="mm" empspacing="4" color="#5a5a5a" opacity="0.23529412" empcolor="#5a5a5a" empopacity="0.47058824" gridanglex="45" gridanglez="45" spacingy="3.7795276" visible="false" originx="1.3228346" originy="1.3228346"/>
    <sodipodi:guide position="48,0" orientation="1,0" id="guide4568" inkscape:locked="false" inkscape:label="" inkscape:color="rgb(189,79,255)"/>
    <sodipodi:guide position="111.99996,-3.9999999e-05" orientation="0,1" id="guide4570" inkscape:locked="false" inkscape:label="" inkscape:color="rgb(189,79,255)"/>
    <sodipodi:guide position="0,0" orientation="1,0" id="guide4572" inkscape:locked="false" inkscape:label="" inkscape:color="rgb(189,79,255)"/>
    <sodipodi:guide position="0,48" orientation="0,1" id="guide4574" inkscape:locked="false" inkscape:label="" inkscape:color="rgb(189,79,255)"/>
    <sodipodi:guide position="0,80" orientation="0,1" id="guide4576" inkscape:locked="false" inkscape:label="" inkscape:color="rgb(189,79,255)"/>
    <sodipodi:guide position="-32,48" orientation="1,0" id="guide4578" inkscape:locked="false" inkscape:label="" inkscape:color="rgb(189,79,255)"/>
    <sodipodi:guide position="-32,104" orientation="0,1" id="guide4580" inkscape:locked="false" inkscape:label="" inkscape:color="rgb(189,79,255)"/>
    <sodipodi:guide position="-56,80" orientation="1,0" id="guide4582" inkscape:locked="false" inkscape:label="" inkscape:color="rgb(189,79,255)"/>
    <sodipodi:guide position="48,-64" orientation="0,1" id="guide4584" inkscape:locked="false" inkscape:label="" inkscape:color="rgb(189,79,255)"/>
    <sodipodi:guide position="0,0" orientation="-0.70710678,0.70710678" id="guide4588" inkscape:locked="false" inkscape:label="" inkscape:color="rgb(189,79,255)"/>
    <sodipodi:guide position="-56,80" orientation="-0.70710678,0.70710678" id="guide4573" inkscape:locked="false" inkscape:label="" inkscape:color="rgb(189,79,255)"/>
    <sodipodi:guide position="-32,48" orientation="-0.70710678,0.70710678" id="guide4575" inkscape:locked="false" inkscape:label="" inkscape:color="rgb(189,79,255)"/>
    <sodipodi:guide position="48,-64" orientation="-0.70710678,0.70710678" id="guide4577" inkscape:locked="false" inkscape:label="" inkscape:color="rgb(189,79,255)"/>
    <sodipodi:guide position="47.999962,0" orientation="0.70710678,0.70710678" id="guide4697" inkscape:locked="false" inkscape:label="" inkscape:color="rgb(189,79,255)"/>
    <sodipodi:guide position="207.99995,-288" orientation="0,1" id="guide7833" inkscape:locked="false"/>
    <sodipodi:guide position="335.99994,-288" orientation="1,0" id="guide7835" inkscape:locked="false" inkscape:label="" inkscape:color="rgb(189,79,255)"/>
    <sodipodi:guide position="111.99996,-64" orientation="1,0" id="guide7915" inkscape:locked="false"/>
    <sodipodi:guide position="111.99996,-160" orientation="0,1" id="guide7917" inkscape:locked="false"/>
    <sodipodi:guide position="207.99996,-160" orientation="1,0" id="guide7919" inkscape:locked="false"/>
    <sodipodi:guide position="160.028,-111.4979" orientation="-0.70710678,0.70710678" id="guide7921" inkscape:locked="false" inkscape:label="" inkscape:color="rgb(189,79,255)"/>
    <sodipodi:guide position="207.99996,-288" orientation="-0.70710678,0.70710678" id="guide7923" inkscape:locked="false" inkscape:label="" inkscape:color="rgb(189,79,255)"/>
    <sodipodi:guide position="-72,104" orientation="1,0" id="guide7824" inkscape:locked="false"/>
    <sodipodi:guide position="-56,120" orientation="0,1" id="guide7826" inkscape:locked="false"/>
    <sodipodi:guide position="-72,104" orientation="-0.70710678,0.70710678" id="guide7828" inkscape:locked="false" inkscape:label="" inkscape:color="rgb(189,79,255)"/>
  </sodipodi:namedview>
  <g style="display:inline" inkscape:label="icon_96" id="g8840" inkscape:groupmode="layer" transform="translate(-111.99996,-112)">
    <g style="display:none" inkscape:label="frame" id="g8776" inkscape:groupmode="layer">
      <rect style="color:#000000;clip-rule:nonzero;display:inline;overflow:visible;visibility:visible;opacity:1;isolation:auto;mix-blend-mode:normal;color-interpolation:sRGB;color-interpolation-filters:linearRGB;solid-color:#000000;solid-opacity:1;vector-effect:none;fill:#000000;fill-opacity:1;fill-rule:nonzero;stroke:#ff24f7;stroke-width:0;stroke-linecap:square;stroke-linejoin:miter;stroke-miterlimit:4;stroke-dasharray:none;stroke-dashoffset:0;stroke-opacity:0.99481865;marker:none;marker-start:none;marker-mid:none;marker-end:none;paint-order:normal;color-rendering:auto;image-rendering:auto;shape-rendering:auto;text-rendering:auto;enable-background:accumulate" id="rect_96" width="96" height="96" x="111.99996" y="112" inkscape:label="frame_96"/>
      <text inkscape:label="txt_96" id="text_96" y="168.73633" x="144.72458" style="font-size:24px;line-height:0%;font-family:sans-serif;letter-spacing:0px;word-spacing:0px;display:inline;opacity:1;fill:#ffffff;fill-opacity:1;stroke:none;stroke-width:0.04917826px;stroke-linecap:butt;stroke-linejoin:miter;stroke-opacity:1" xml:space="preserve">
        <tspan id="tspan8768" style="font-size:24px;line-height:0%;fill:#ffffff;fill-opacity:1;stroke:none;stroke-width:0.04917826px" y="168.73633" x="144.72458" sodipodi:role="line">96</tspan>
      </text>
    </g>
    <g style="display:inline" inkscape:label="icon" id="g8838" inkscape:groupmode="layer">
      <g style="display:inline" inkscape:label="pestana" id="g9013">
        <path sodipodi:nodetypes="ccccc" inkscape:connector-curvature="0" id="path9007" d="M 192.01016,116 H 169 l 26,26 V 119.03505 C 195,117 194,116 192.01016,116 Z" style="display:inline;opacity:1;vector-effect:none;fill:#000000;fill-opacity:0.15686275;fill-rule:evenodd;stroke:none;stroke-width:0.21683232;stroke-linecap:butt;stroke-linejoin:miter;stroke-miterlimit:4;stroke-dasharray:none;stroke-dashoffset:0;stroke-opacity:1;marker:none;marker-start:none;marker-mid:none;marker-end:none;paint-order:fill markers stroke" inkscape:label="sombra"/>
        <path style="display:inline;fill:url(#linearGradient9424);fill-opacity:1;fill-rule:evenodd;stroke:none;stroke-width:1px;stroke-linecap:butt;stroke-linejoin:miter;stroke-opacity:1" d="M 191.00874,117 H 172 l 22,22 V 120.01469 C 194,118 193,117 191.00874,117 Z" id="path9009" inkscape:connector-curvature="0" sodipodi:nodetypes="ccccc" inkscape:label="pestana"/>
        <path sodipodi:nodetypes="ccccccccc" inkscape:connector-curvature="0" id="path9011" d="m 172,117 22,22 V 119.99292 C 194,118 193,117 190.9652,117 Z m 3,1 h 18 v 18 z" style="color:#000000;font-style:normal;font-variant:normal;font-weight:normal;font-stretch:normal;font-size:medium;line-height:normal;font-family:sans-serif;font-variant-ligatures:normal;font-variant-position:normal;font-variant-caps:normal;font-variant-numeric:normal;font-variant-alternates:normal;font-feature-settings:normal;text-indent:0;text-align:start;text-decoration:none;text-decoration-line:none;text-decoration-style:solid;text-decoration-color:#000000;letter-spacing:normal;word-spacing:normal;text-transform:none;writing-mode:lr-tb;direction:ltr;text-orientation:mixed;dominant-baseline:auto;baseline-shift:baseline;text-anchor:start;white-space:normal;shape-padding:0;clip-rule:nonzero;display:inline;overflow:visible;visibility:visible;opacity:1;isolation:auto;mix-blend-mode:normal;color-interpolation:sRGB;color-interpolation-filters:linearRGB;solid-color:#000000;solid-opacity:1;vector-effect:none;fill:#ffffff;fill-opacity:0.3125;fill-rule:evenodd;stroke:none;stroke-width:1;stroke-linecap:butt;stroke-linejoin:miter;stroke-miterlimit:4;stroke-dasharray:none;stroke-dashoffset:0;stroke-opacity:1;color-rendering:auto;image-rendering:auto;shape-rendering:auto;text-rendering:auto;enable-background:accumulate" inkscape:label="brillo in"/>
      </g>
      <path sodipodi:nodetypes="ccccccccccc" inkscape:connector-curvature="0" id="path7759" d="m 127.99442,116 h 32.00819 c 0.99739,0 1.99813,0 3.03031,1.03218 L 193,147 c 1,1 2,2 2.02318,3.05586 l -0.022,51.95431 C 195.00126,204 194,205 191.96075,205 H 128.00646 C 126,205 125,204 125,202.01291 V 119.0068 C 125,117 126,116 127.99442,116 Z" style="color:#000000;clip-rule:nonzero;display:block;overflow:visible;visibility:visible;opacity:1;isolation:auto;mix-blend-mode:normal;color-interpolation:sRGB;color-interpolation-filters:linearRGB;solid-color:#000000;solid-opacity:1;vector-effect:none;fill:#000000;fill-opacity:0.15686275;fill-rule:nonzero;stroke:none;stroke-width:0.21683232;stroke-linecap:butt;stroke-linejoin:miter;stroke-miterlimit:4;stroke-dasharray:none;stroke-dashoffset:0;stroke-opacity:1;marker:none;marker-start:none;marker-mid:none;marker-end:none;paint-order:fill markers stroke;color-rendering:auto;image-rendering:auto;shape-rendering:auto;text-rendering:auto;enable-background:accumulate" inkscape:label="base sombra exterior"/>
      <path style="color:#000000;clip-rule:nonzero;display:block;overflow:visible;visibility:visible;opacity:1;isolation:auto;mix-blend-mode:normal;color-interpolation:sRGB;color-interpolation-filters:linearRGB;solid-color:#000000;solid-opacity:1;vector-effect:none;fill:url(#linearGradient7785);fill-opacity:1;fill-rule:nonzero;stroke:none;stroke-width:0.2013443;stroke-linecap:butt;stroke-linejoin:miter;stroke-miterlimit:4;stroke-dasharray:none;stroke-dashoffset:0;stroke-opacity:1;marker:none;marker-start:none;marker-mid:none;marker-end:none;paint-order:fill markers stroke;color-rendering:auto;image-rendering:auto;shape-rendering:auto;text-rendering:auto;enable-background:accumulate" d="m 129,117 h 29.9952 c 1.0048,0 1.98244,-0.0224 3.0048,1 l 30.99854,30.02983 C 194,149.0313 194,150 194,151.01312 V 200.9768 C 194,203 193,204 191.03051,204 H 129 c -2,0 -3,-1 -3,-2.97966 V 120 c 0,-2.01869 1,-3 3,-3 z" id="rect7756" inkscape:connector-curvature="0" sodipodi:nodetypes="ccccccccccc" inkscape:label="base"/>
      <path style="color:#000000;font-style:normal;font-variant:normal;font-weight:normal;font-stretch:normal;font-size:medium;line-height:normal;font-family:sans-serif;font-variant-ligatures:normal;font-variant-position:normal;font-variant-caps:normal;font-variant-numeric:normal;font-variant-alternates:normal;font-feature-settings:normal;text-indent:0;text-align:start;text-decoration:none;text-decoration-line:none;text-decoration-style:solid;text-decoration-color:#000000;letter-spacing:normal;word-spacing:normal;text-transform:none;writing-mode:lr-tb;direction:ltr;text-orientation:mixed;dominant-baseline:auto;baseline-shift:baseline;text-anchor:start;white-space:normal;shape-padding:0;clip-rule:nonzero;display:inline;overflow:visible;visibility:visible;opacity:1;isolation:auto;mix-blend-mode:normal;color-interpolation:sRGB;color-interpolation-filters:linearRGB;solid-color:#000000;solid-opacity:1;vector-effect:none;fill:url(#linearGradient9501);fill-opacity:1;fill-rule:nonzero;stroke:none;stroke-width:0.2013443;stroke-linecap:butt;stroke-linejoin:miter;stroke-miterlimit:4;stroke-dasharray:none;stroke-dashoffset:0;stroke-opacity:1;marker:none;marker-start:none;marker-mid:none;marker-end:none;paint-order:fill markers stroke;color-rendering:auto;image-rendering:auto;shape-rendering:auto;text-rendering:auto;enable-background:accumulate" d="M 126,120.00774 V 201 c 0,2 1,3 3,3 h 62.00229 C 193,204 194,203 194,200.99455 v -49.99687 c 0,-0.99768 0.0787,-1.9214 -1.02536,-2.99099 L 162,118 c -1.02623,-0.99513 -2,-1 -3.01575,-1 H 129.01387 C 127,117 126,118 126,120.00774 Z M 129,120 h 31.06299 L 191,150 v 51 h -62 z" id="path7787" inkscape:connector-curvature="0" sodipodi:nodetypes="ccccccccccccccccc" inkscape:label="base sombra interior"/>
      <path style="color:#000000;font-style:normal;font-variant:normal;font-weight:normal;font-stretch:normal;font-size:medium;line-height:normal;font-family:sans-serif;font-variant-ligatures:normal;font-variant-position:normal;font-variant-caps:normal;font-variant-numeric:normal;font-variant-alternates:normal;font-feature-settings:normal;text-indent:0;text-align:start;text-decoration:none;text-decoration-line:none;text-decoration-style:solid;text-decoration-color:#000000;letter-spacing:normal;word-spacing:normal;text-transform:none;writing-mode:lr-tb;direction:ltr;text-orientation:mixed;dominant-baseline:auto;baseline-shift:baseline;text-anchor:start;white-space:normal;shape-padding:0;clip-rule:nonzero;display:inline;overflow:visible;visibility:visible;opacity:0.39800002;isolation:auto;mix-blend-mode:normal;color-interpolation:sRGB;color-interpolation-filters:linearRGB;solid-color:#000000;solid-opacity:1;vector-effect:none;fill:url(#linearGradient9054);fill-opacity:1;fill-rule:evenodd;stroke:none;stroke-width:1;stroke-linecap:butt;stroke-linejoin:miter;stroke-miterlimit:4;stroke-dasharray:none;stroke-dashoffset:0;stroke-opacity:1;color-rendering:auto;image-rendering:auto;shape-rendering:auto;text-rendering:auto;enable-background:accumulate" d="m 128,119 v 83 h 64 v -52 l -32,-31 z m 1,1 h 31 l 31,30 v 51 h -62 z" id="path8968" inkscape:connector-curvature="0" sodipodi:nodetypes="cccccccccccc" inkscape:label="base border"/>
      <path inkscape:label="base border" sodipodi:nodetypes="cccccccccccc" inkscape:connector-curvature="0" id="path8019" d="m 129,120 v 81 h 62 v -51 l -30.93701,-30 z m 1,1 h 30.06299 L 190,150 v 50 h -60 z" style="color:#000000;font-style:normal;font-variant:normal;font-weight:normal;font-stretch:normal;font-size:medium;line-height:normal;font-family:sans-serif;font-variant-ligatures:normal;font-variant-position:normal;font-variant-caps:normal;font-variant-numeric:normal;font-variant-alternates:normal;font-feature-settings:normal;text-indent:0;text-align:start;text-decoration:none;text-decoration-line:none;text-decoration-style:solid;text-decoration-color:#000000;letter-spacing:normal;word-spacing:normal;text-transform:none;writing-mode:lr-tb;direction:ltr;text-orientation:mixed;dominant-baseline:auto;baseline-shift:baseline;text-anchor:start;white-space:normal;shape-padding:0;clip-rule:nonzero;display:inline;overflow:visible;visibility:visible;opacity:1;isolation:auto;mix-blend-mode:normal;color-interpolation:sRGB;color-interpolation-filters:linearRGB;solid-color:#000000;solid-opacity:1;vector-effect:none;fill:#ffffff;fill-opacity:0.23529412;fill-rule:evenodd;stroke:none;stroke-width:1;stroke-linecap:butt;stroke-linejoin:miter;stroke-miterlimit:4;stroke-dasharray:none;stroke-dashoffset:0;stroke-opacity:1;color-rendering:auto;image-rendering:auto;shape-rendering:auto;text-rendering:auto;enable-background:accumulate"/>
      <path inkscape:connector-curvature="0" id="path7869-6" d="m 138,148 h 44.01575 L 182,179 h -44 z" style="color:#000000;clip-rule:nonzero;display:block;overflow:visible;visibility:visible;opacity:1;isolation:auto;mix-blend-mode:normal;color-interpolation:sRGB;color-interpolation-filters:linearRGB;solid-color:#000000;solid-opacity:1;vector-effect:none;fill:#222c55;fill-opacity:0.22916667;fill-rule:nonzero;stroke:none;stroke-width:0.26509261;stroke-linecap:butt;stroke-linejoin:miter;stroke-miterlimit:4;stroke-dasharray:none;stroke-dashoffset:0;stroke-opacity:0.38541667;marker:none;marker-start:none;marker-mid:none;marker-end:none;paint-order:normal;color-rendering:auto;image-rendering:auto;shape-rendering:auto;text-rendering:auto;enable-background:accumulate" sodipodi:nodetypes="ccccc" inkscape:label="all relleno"/>
      <path sodipodi:nodetypes="ccccccccccccccc" inkscape:connector-curvature="0" id="path7875-2" d="m 138,148 v 41 h 44 l 0.0157,-41 z m 1,2 h 42 v 29 h -42 z m 0,30 h 42 v 7 h -42 z" style="color:#000000;clip-rule:nonzero;display:inline;overflow:visible;visibility:visible;opacity:1;isolation:auto;mix-blend-mode:normal;color-interpolation:sRGB;color-interpolation-filters:linearRGB;solid-color:#000000;solid-opacity:1;vector-effect:none;fill:#1a3e7b;fill-opacity:0.51041667;fill-rule:nonzero;stroke:none;stroke-width:0.68702215px;stroke-linecap:butt;stroke-linejoin:miter;stroke-miterlimit:4;stroke-dasharray:none;stroke-dashoffset:0;stroke-opacity:1;marker:none;marker-start:none;marker-mid:none;marker-end:none;paint-order:normal;color-rendering:auto;image-rendering:auto;shape-rendering:auto;text-rendering:auto;enable-background:accumulate" inkscape:label="all sombra"/>
      <path style="color:#000000;clip-rule:nonzero;display:inline;overflow:visible;visibility:visible;opacity:1;isolation:auto;mix-blend-mode:normal;color-interpolation:sRGB;color-interpolation-filters:linearRGB;solid-color:#000000;solid-opacity:1;vector-effect:none;fill:#ffffff;fill-opacity:1;fill-rule:nonzero;stroke:none;stroke-width:0.28722057;stroke-linecap:butt;stroke-linejoin:miter;stroke-miterlimit:4;stroke-dasharray:none;stroke-dashoffset:0;stroke-opacity:0.38541667;marker:none;marker-start:none;marker-mid:none;marker-end:none;paint-order:normal;color-rendering:auto;image-rendering:auto;shape-rendering:auto;text-rendering:auto;enable-background:accumulate" d="m 138,148 v 40 h 44 l 0.0157,-40 z m 1,1 h 42 v 29 h -42 z m 0,30 h 42 v 8 h -42 z" id="rect7853-9" inkscape:connector-curvature="0" sodipodi:nodetypes="ccccccccccccccc" inkscape:label="all borde"/>
      <path inkscape:label="formula" sodipodi:nodetypes="cccccccccccccccccccccccccc" inkscape:connector-curvature="0" id="path8086" d="m 156,157 -7,13 -4,-8 -3,4 1,1 2,-2 4,9 8,-15 h 20 v 1 h 1 v -3 z m 6,4 -1,1 5,5 -5,5 1,1 5,-5 5,5 1,-1 -5,-5 5,-5 -1,-1 -5,5 z" style="display:inline;opacity:1;vector-effect:none;fill:#1a3e7b;fill-opacity:0.51041667;fill-rule:evenodd;stroke:none;stroke-width:0.68702215px;stroke-linecap:butt;stroke-linejoin:miter;stroke-miterlimit:4;stroke-dasharray:none;stroke-dashoffset:0;stroke-opacity:1;marker:none;marker-start:none;marker-mid:none;marker-end:none;paint-order:normal"/>
      <path style="display:inline;fill:#f8fafb;fill-opacity:1;fill-rule:evenodd;stroke:none;stroke-width:0.68702215px;stroke-linecap:butt;stroke-linejoin:miter;stroke-opacity:1" d="m 156,156 -7,13 -4,-8 -3,4 1,1 2,-2 4,9 8,-15 h 20 v 1 h 1 v -3 z m 6,4 -1,1 5,5 -5,5 1,1 5,-5 5,5 1,-1 -5,-5 5,-5 -1,-1 -5,5 z" id="path7855-2" inkscape:connector-curvature="0" sodipodi:nodetypes="cccccccccccccccccccccccccc" inkscape:label="formula"/>
      <path inkscape:connector-curvature="0" id="path7895-7" d="m 164.44501,181.19496 c -0.41682,0 -0.69635,0.0614 -0.83864,0.18518 -0.14061,0.1222 -0.21067,0.36939 -0.21067,0.73934 v 0.6025 c 0,0.24942 -0.0464,0.42219 -0.13687,0.51929 -0.0887,0.0954 -0.25173,0.14357 -0.49111,0.14357 h -0.15298 v 0.35827 h 0.15298 c 0.23771,0 0.40072,0.0492 0.49111,0.14627 0.0904,0.0971 0.13687,0.27188 0.13687,0.52466 v 0.5998 c 0,0.36996 0.0701,0.61683 0.21067,0.7407 0.14229,0.12387 0.42182,0.1865 0.83864,0.1865 h 0.15568 v -0.36229 h -0.17043 c -0.23603,0 -0.39094,-0.0363 -0.46293,-0.11003 -0.0719,-0.0737 -0.10735,-0.22824 -0.10735,-0.46428 v -0.6226 c 0,-0.26115 -0.0374,-0.45144 -0.11272,-0.57029 -0.0753,-0.11884 -0.206,-0.20035 -0.39181,-0.24556 0.18413,-0.0418 0.3138,-0.12268 0.38913,-0.24153 0.0771,-0.11885 0.1154,-0.31015 0.1154,-0.57297 v -0.6226 c 0,-0.23604 0.0354,-0.39062 0.10735,-0.46429 0.072,-0.0736 0.2269,-0.11003 0.46293,-0.11003 h 0.17043 v -0.35961 z m 4.48713,0 v 0.35961 h 0.17578 c 0.23436,0 0.38591,0.0363 0.45622,0.11003 0.072,0.0719 0.10869,0.22656 0.10869,0.46429 v 0.6226 c 0,0.26282 0.0374,0.45412 0.11272,0.57297 0.0753,0.11884 0.206,0.19967 0.39182,0.24153 -0.18582,0.0452 -0.31649,0.12671 -0.39182,0.24556 -0.0753,0.11885 -0.11272,0.30914 -0.11272,0.57029 v 0.6226 c 0,0.2394 -0.0366,0.39498 -0.10869,0.46696 -0.0704,0.0719 -0.22186,0.10735 -0.45622,0.10735 h -0.17578 v 0.36229 h 0.15833 c 0.41684,0 0.69435,-0.0627 0.83328,-0.1865 0.14062,-0.12387 0.21067,-0.37074 0.21067,-0.7407 v -0.5998 c 0,-0.25278 0.0452,-0.42758 0.13552,-0.52466 0.0904,-0.097 0.25475,-0.14627 0.49246,-0.14627 h 0.15566 v -0.35827 h -0.15566 c -0.23771,0 -0.40205,-0.0482 -0.49246,-0.14357 -0.0904,-0.0971 -0.13552,-0.26987 -0.13552,-0.51929 v -0.6025 c 0,-0.36995 -0.0701,-0.61714 -0.21067,-0.73934 -0.13893,-0.12388 -0.41644,-0.18518 -0.83328,-0.18518 z m -10.14029,0.29655 v 0.79839 h -0.33814 v 0.35827 h 0.33814 v 1.52702 c 0,0.35154 0.0683,0.5947 0.20396,0.72862 0.1356,0.13224 0.38144,0.19859 0.738,0.19859 h 0.47502 v -0.38645 h -0.47502 c -0.19251,0 -0.32014,-0.0327 -0.38376,-0.098 -0.062,-0.0652 -0.0926,-0.21346 -0.0926,-0.4428 v -1.52702 h 0.95136 v -0.35827 h -0.95136 v -0.79839 z m -7.16274,0.72996 c -0.34484,0 -0.61225,0.072 -0.79974,0.21604 -0.18748,0.14397 -0.28045,0.34872 -0.28045,0.61322 0,0.21762 0.0634,0.38972 0.19055,0.51526 0.12722,0.12389 0.33367,0.21482 0.61993,0.27507 l 0.16102,0.0376 c 0.28626,0.062 0.47183,0.1276 0.55553,0.19457 0.0854,0.067 0.12747,0.16294 0.12747,0.28849 0,0.1356 -0.0586,0.24135 -0.17578,0.31667 -0.11717,0.0737 -0.28423,0.11004 -0.50185,0.11004 -0.16239,0 -0.32673,-0.0222 -0.49246,-0.0658 -0.16573,-0.0452 -0.33379,-0.11256 -0.50453,-0.20127 v 0.47768 c 0.18079,0.0586 0.35288,0.10172 0.51527,0.13017 0.16405,0.0302 0.32032,0.0456 0.47097,0.0456 0.3616,0 0.64617,-0.0758 0.85208,-0.22812 0.20758,-0.15233 0.31131,-0.35878 0.31131,-0.61993 0,-0.22934 -0.0704,-0.40817 -0.20933,-0.53538 -0.13727,-0.1289 -0.36964,-0.22893 -0.69776,-0.29924 l -0.15833,-0.0349 c -0.24776,-0.0553 -0.41177,-0.11284 -0.4938,-0.1731 -0.082,-0.062 -0.12345,-0.14647 -0.12345,-0.25361 0,-0.14062 0.0566,-0.24638 0.17042,-0.31667 0.1155,-0.0704 0.28861,-0.10468 0.51795,-0.10468 0.15066,0 0.29547,0.0162 0.4361,0.0496 0.14061,0.0335 0.27601,0.0834 0.40657,0.15029 v -0.4361 c -0.12723,-0.0502 -0.26532,-0.0889 -0.41597,-0.11406 -0.15067,-0.0251 -0.31098,-0.0376 -0.48172,-0.0376 z m 2.73602,0 c -0.33983,0 -0.61633,0.13673 -0.8306,0.40792 -0.21261,0.27118 -0.31937,0.62751 -0.31937,1.06944 0,0.44195 0.10676,0.79826 0.31937,1.06944 0.21427,0.2712 0.49077,0.4066 0.8306,0.4066 0.20757,0 0.38537,-0.0405 0.5327,-0.12077 0.14898,-0.082 0.27192,-0.20698 0.369,-0.37438 v 1.49213 h 0.4616 v -3.88195 h -0.4616 v 0.42671 c -0.0971,-0.1674 -0.22002,-0.29134 -0.369,-0.37168 -0.14733,-0.082 -0.32513,-0.12346 -0.5327,-0.12346 z m 3.70884,0 c -0.22265,0 -0.41192,0.0424 -0.5676,0.12613 -0.15568,0.082 -0.2813,0.209 -0.37841,0.37974 v -0.43744 h -0.46427 v 2.8125 h 0.46427 v -1.48139 c 0,-0.31807 0.0691,-0.56222 0.208,-0.7313 0.1406,-0.17075 0.34134,-0.25629 0.60249,-0.25629 0.0737,0 0.14101,0.008 0.20126,0.0229 0.062,0.0134 0.11852,0.0356 0.17043,0.0658 l -0.003,-0.47502 c -0.0469,-0.008 -0.0889,-0.0142 -0.12748,-0.0175 -0.0386,-0.005 -0.0742,-0.008 -0.106,-0.008 z m 7.41233,0.0684 0.99966,1.34051 -1.09226,1.472 h 0.54479 l 0.81852,-1.10569 0.81852,1.10569 h 0.54478 l -1.06944,-1.44382 1.01711,-1.36869 h -0.54478 l -0.74605,1.00236 -0.74608,-1.00236 z m -11.00847,0.31937 c 0.24441,0 0.43771,0.0969 0.57834,0.29118 0.14061,0.19251 0.21066,0.45857 0.21066,0.79839 0,0.33983 -0.0701,0.60688 -0.21066,0.80108 -0.14063,0.19252 -0.33393,0.28849 -0.57834,0.28849 -0.2444,0 -0.43637,-0.0959 -0.57698,-0.28849 -0.13895,-0.1942 -0.20799,-0.46125 -0.20799,-0.80108 0,-0.33982 0.0691,-0.60588 0.20799,-0.79839 0.14061,-0.19418 0.33258,-0.29118 0.57698,-0.29118 z" style="font-size:medium;line-height:1000%;font-family:sans-serif;letter-spacing:0px;word-spacing:0px;display:inline;opacity:1;vector-effect:none;fill:#1a3e7b;fill-opacity:0.51041667;stroke:none;stroke-width:0.68702215px;stroke-linecap:butt;stroke-linejoin:miter;stroke-miterlimit:4;stroke-dasharray:none;stroke-dashoffset:0;stroke-opacity:1;marker:none;marker-start:none;marker-mid:none;marker-end:none;paint-order:normal" inkscape:label="sqrt" sodipodi:nodetypes="scsscsccscsscsccscsscccsscsccsccscsscccsscsccscsscsccscsscsccccccscsccscsccccccccsccccscsccccscsccccscsccccccscscsccccccccscccccccscscccccccccccccccccccscscscscs"/>
      <path inkscape:label="sqrt" style="font-size:medium;line-height:1000%;font-family:sans-serif;letter-spacing:0px;word-spacing:0px;display:inline;fill:#fcfcfd;fill-opacity:1;stroke:none;stroke-width:0.32140923px;stroke-linecap:butt;stroke-linejoin:miter;stroke-opacity:1" d="m 164.44501,180.81069 c -0.41682,0 -0.69635,0.0613 -0.83864,0.18517 -0.14061,0.1222 -0.21067,0.36939 -0.21067,0.73934 v 0.6025 c 0,0.24943 -0.0464,0.4222 -0.13687,0.51928 -0.0887,0.0954 -0.25173,0.14358 -0.49111,0.14358 h -0.15298 v 0.35827 h 0.15298 c 0.23771,0 0.40072,0.0492 0.49111,0.14628 0.0904,0.0971 0.13687,0.27187 0.13687,0.52465 v 0.59979 c 0,0.36997 0.0701,0.61683 0.21067,0.74071 0.14229,0.12388 0.42182,0.18651 0.83864,0.18651 h 0.15568 v -0.36229 h -0.17043 c -0.23603,0 -0.39094,-0.0363 -0.46293,-0.11004 -0.0719,-0.0737 -0.10735,-0.22824 -0.10735,-0.46427 v -0.62261 c 0,-0.26115 -0.0374,-0.45144 -0.11272,-0.57028 -0.0753,-0.11885 -0.206,-0.20036 -0.39181,-0.24557 0.18413,-0.0418 0.3138,-0.12267 0.38913,-0.24153 0.0771,-0.11885 0.1154,-0.31014 0.1154,-0.57296 v -0.62261 c 0,-0.23604 0.0354,-0.39062 0.10735,-0.46429 0.072,-0.0736 0.2269,-0.11002 0.46293,-0.11002 h 0.17043 v -0.35961 z m 4.48713,0 v 0.35961 h 0.17578 c 0.23436,0 0.38591,0.0363 0.45622,0.11002 0.072,0.0719 0.10869,0.22658 0.10869,0.46429 v 0.62261 c 0,0.26282 0.0374,0.45411 0.11272,0.57296 0.0753,0.11884 0.206,0.19967 0.39182,0.24153 -0.18582,0.0452 -0.31649,0.12671 -0.39182,0.24557 -0.0753,0.11884 -0.11272,0.30913 -0.11272,0.57028 v 0.62261 c 0,0.23938 -0.0366,0.39497 -0.10869,0.46696 -0.0704,0.0719 -0.22186,0.10735 -0.45622,0.10735 h -0.17578 v 0.36229 h 0.15833 c 0.41684,0 0.69435,-0.0627 0.83328,-0.18651 0.14062,-0.12388 0.21067,-0.37074 0.21067,-0.74071 v -0.59979 c 0,-0.25278 0.0452,-0.42757 0.13552,-0.52465 0.0904,-0.0971 0.25475,-0.14628 0.49246,-0.14628 h 0.15566 v -0.35827 h -0.15566 c -0.23771,0 -0.40205,-0.0482 -0.49246,-0.14358 -0.0904,-0.0971 -0.13552,-0.26985 -0.13552,-0.51928 v -0.6025 c 0,-0.36995 -0.0701,-0.61714 -0.21067,-0.73934 -0.13893,-0.12388 -0.41644,-0.18517 -0.83328,-0.18517 z m -10.14029,0.29654 v 0.79839 h -0.33814 v 0.35827 h 0.33814 v 1.52702 c 0,0.35153 0.0683,0.5947 0.20396,0.72862 0.1356,0.13224 0.38144,0.19859 0.738,0.19859 h 0.47502 v -0.38645 h -0.47502 c -0.19251,0 -0.32014,-0.0327 -0.38376,-0.098 -0.062,-0.0653 -0.0926,-0.21348 -0.0926,-0.44281 v -1.52702 h 0.95136 v -0.35827 h -0.95136 v -0.79839 z m -7.16274,0.72996 c -0.34484,0 -0.61225,0.072 -0.79974,0.21604 -0.18748,0.14397 -0.28045,0.34874 -0.28045,0.61322 0,0.21761 0.0634,0.38972 0.19055,0.51526 0.12722,0.12389 0.33367,0.21482 0.61993,0.27507 l 0.16102,0.0376 c 0.28626,0.062 0.47183,0.12761 0.55553,0.19456 0.0854,0.067 0.12747,0.16295 0.12747,0.2885 0,0.1356 -0.0586,0.24134 -0.17578,0.31667 -0.11717,0.0737 -0.28423,0.11004 -0.50185,0.11004 -0.16239,0 -0.32673,-0.0222 -0.49246,-0.0658 -0.16573,-0.0452 -0.33379,-0.11256 -0.50453,-0.20128 v 0.47769 c 0.18079,0.0586 0.35288,0.10171 0.51527,0.13016 0.16405,0.0302 0.32032,0.0456 0.47097,0.0456 0.3616,0 0.64617,-0.0758 0.85208,-0.22813 0.20758,-0.15233 0.31131,-0.35877 0.31131,-0.61993 0,-0.22933 -0.0704,-0.40816 -0.20933,-0.53538 -0.13727,-0.12891 -0.36964,-0.22893 -0.69776,-0.29924 l -0.15833,-0.0349 c -0.24776,-0.0553 -0.41177,-0.11283 -0.4938,-0.1731 -0.082,-0.062 -0.12345,-0.14646 -0.12345,-0.2536 0,-0.14062 0.0566,-0.24637 0.17042,-0.31668 0.1155,-0.0704 0.28861,-0.10467 0.51795,-0.10467 0.15066,0 0.29547,0.0162 0.4361,0.0496 0.14061,0.0335 0.27601,0.0834 0.40657,0.15029 v -0.4361 c -0.12723,-0.0502 -0.26532,-0.0889 -0.41597,-0.11406 -0.15067,-0.0251 -0.31098,-0.0376 -0.48172,-0.0376 z m 2.73602,0 c -0.33983,0 -0.61633,0.13674 -0.8306,0.40792 -0.21261,0.27118 -0.31937,0.62751 -0.31937,1.06944 0,0.44194 0.10676,0.79826 0.31937,1.06945 0.21427,0.27119 0.49077,0.40659 0.8306,0.40659 0.20757,0 0.38537,-0.0405 0.5327,-0.12077 0.14898,-0.082 0.27192,-0.20697 0.369,-0.37438 v 1.49212 h 0.4616 v -3.88194 h -0.4616 v 0.4267 c -0.0971,-0.16739 -0.22002,-0.29133 -0.369,-0.37168 -0.14733,-0.082 -0.32513,-0.12345 -0.5327,-0.12345 z m 3.70884,0 c -0.22265,0 -0.41192,0.0424 -0.5676,0.12613 -0.15568,0.082 -0.2813,0.209 -0.37841,0.37974 v -0.43744 h -0.46427 v 2.8125 h 0.46427 v -1.48139 c 0,-0.31805 0.0691,-0.56222 0.208,-0.73129 0.1406,-0.17077 0.34134,-0.25631 0.60249,-0.25631 0.0737,0 0.14101,0.008 0.20126,0.0229 0.062,0.0134 0.11852,0.0356 0.17043,0.0658 l -0.003,-0.47501 c -0.0469,-0.008 -0.0889,-0.0142 -0.12748,-0.0175 -0.0386,-0.005 -0.0742,-0.008 -0.106,-0.008 z m 7.41233,0.0684 0.99966,1.34049 -1.09226,1.472 h 0.54479 l 0.81852,-1.10567 0.81852,1.10567 h 0.54478 l -1.06944,-1.44381 1.01711,-1.36868 h -0.54478 l -0.74605,1.00234 -0.74608,-1.00234 z m -11.00847,0.31936 c 0.24441,0 0.43771,0.0969 0.57834,0.29117 0.14061,0.19251 0.21066,0.45858 0.21066,0.7984 0,0.33983 -0.0701,0.6069 -0.21066,0.80108 -0.14063,0.19251 -0.33393,0.28849 -0.57834,0.28849 -0.2444,0 -0.43637,-0.0959 -0.57698,-0.28849 -0.13895,-0.19418 -0.20799,-0.46125 -0.20799,-0.80108 0,-0.33982 0.0691,-0.60589 0.20799,-0.7984 0.14061,-0.19418 0.33258,-0.29117 0.57698,-0.29117 z" id="path7912-0" inkscape:connector-curvature="0" sodipodi:nodetypes="scsscsccscsscsccscsscccsscsccsccscsscccsscsccscsscsccscsscsccccccscsccscsccccccccsccccscsccccscsccccscsccccccscscsccccccccscccccccscscccccccccccccccccccscscscscs"/>
      <rect style="color:#000000;clip-rule:nonzero;display:block;overflow:visible;visibility:visible;opacity:1;isolation:auto;mix-blend-mode:normal;color-interpolation:sRGB;color-interpolation-filters:linearRGB;solid-color:#000000;solid-opacity:1;vector-effect:none;fill:none;fill-opacity:0.22916667;fill-rule:nonzero;stroke:#ffffff;stroke-width:0.40000001;stroke-linecap:butt;stroke-linejoin:miter;stroke-miterlimit:4;stroke-dasharray:2.4, 2.4;stroke-dashoffset:0;stroke-opacity:1;marker:none;marker-start:none;marker-mid:none;marker-end:none;paint-order:normal;color-rendering:auto;image-rendering:auto;shape-rendering:auto;text-rendering:auto;enable-background:accumulate" id="rect7943-9" width="16.739182" height="16.739182" x="159.13042" y="159.13042"/>
      <rect y="154.14043" x="141.14043" height="21.719162" width="13.719163" id="rect7945-3" style="color:#000000;clip-rule:nonzero;display:block;overflow:visible;visibility:visible;opacity:1;isolation:auto;mix-blend-mode:normal;color-interpolation:sRGB;color-interpolation-filters:linearRGB;solid-color:#000000;solid-opacity:1;vector-effect:none;fill:none;fill-opacity:0.22916667;fill-rule:nonzero;stroke:#ffffff;stroke-width:0.40000001;stroke-linecap:butt;stroke-linejoin:miter;stroke-miterlimit:4;stroke-dasharray:2.4, 2.4;stroke-dashoffset:0;stroke-opacity:1;marker:none;marker-start:none;marker-mid:none;marker-end:none;paint-order:normal;color-rendering:auto;image-rendering:auto;shape-rendering:auto;text-rendering:auto;enable-background:accumulate"/>
    </g>
  </g>
</svg>