<?xml version="1.0" encoding="UTF-8" standalone="yes"?>
<svg xmlns:dc="http://purl.org/dc/elements/1.1/" xmlns:cc="http://creativecommons.org/ns#" xmlns:rdf="http://www.w3.org/1999/02/22-rdf-syntax-ns#" xmlns:svg="http://www.w3.org/2000/svg" xmlns="http://www.w3.org/2000/svg" xmlns:xlink="http://www.w3.org/1999/xlink" xmlns:sodipodi="http://sodipodi.sourceforge.net/DTD/sodipodi-0.dtd" xmlns:inkscape="http://www.inkscape.org/namespaces/inkscape" height="96" viewBox="0 0 96 96" width="96" id="svg2" version="1.1" inkscape:version="0.92.2 5c3e80d, 2017-08-06" sodipodi:docname="org.gnome.ChromeGnomeShell.svg" enable-background="new" folder="96">
  <title id="title4675">Template icons dark</title>
  <metadata id="metadata24">
    <rdf:RDF>
      <cc:Work rdf:about="">
        <dc:format>image/svg+xml</dc:format>
        <dc:type rdf:resource="http://purl.org/dc/dcmitype/StillImage"/>
        <dc:title>Template icons dark</dc:title>
        <dc:date>17/05/13</dc:date>
        <dc:creator>
          <cc:Agent>
            <dc:title>wfpaisa</dc:title>
          </cc:Agent>
        </dc:creator>
        <dc:rights>
          <cc:Agent>
            <dc:title>License: GPLv3</dc:title>
          </cc:Agent>
        </dc:rights>
        <dc:language>es-en</dc:language>
        <dc:subject>
          <rdf:Bag>
            <rdf:li>plane-icon-theme</rdf:li>
          </rdf:Bag>
        </dc:subject>
        <dc:description>Template for create set icons</dc:description>
        <cc:license rdf:resource="https://www.gnu.org/licenses/gpl-3.0.en.html"/>
      </cc:Work>
    </rdf:RDF>
  </metadata>
  <defs id="defs22">
    <linearGradient inkscape:collect="always" id="linearGradient24388">
      <stop style="stop-color:#e9e9e9;stop-opacity:1" offset="0" id="stop24384"/>
      <stop style="stop-color:#ffffff;stop-opacity:1" offset="1" id="stop24386"/>
    </linearGradient>
    <linearGradient inkscape:collect="always" xlink:href="#linearGradient24388" id="linearGradient24390" x1="168" y1="201.74074" x2="168" y2="114.33071" gradientUnits="userSpaceOnUse"/>
    <linearGradient gradientTransform="matrix(0.17390774,0,0,0.17390774,-91.825276,-91.825242)" inkscape:collect="always" xlink:href="#linearGradient24388" id="linearGradient24390-3" x1="168" y1="201.74074" x2="168" y2="114.33071" gradientUnits="userSpaceOnUse"/>
    <linearGradient gradientTransform="matrix(0.26087493,0,0,0.26087493,-85.740023,-85.739992)" inkscape:collect="always" xlink:href="#linearGradient24388" id="linearGradient24390-35" x1="168" y1="201.74074" x2="168" y2="114.33071" gradientUnits="userSpaceOnUse"/>
    <linearGradient gradientTransform="matrix(0.34044067,0,0,0.34044067,-70.470159,-70.471989)" inkscape:collect="always" xlink:href="#linearGradient24388" id="linearGradient24390-1" x1="168" y1="201.74074" x2="168" y2="114.33071" gradientUnits="userSpaceOnUse"/>
    <linearGradient gradientTransform="matrix(0.51065451,0,0,0.51065451,-57.704463,-57.703546)" inkscape:collect="always" xlink:href="#linearGradient24388" id="linearGradient24390-6" x1="168" y1="201.74074" x2="168" y2="114.33071" gradientUnits="userSpaceOnUse"/>
    <linearGradient gradientTransform="matrix(0.68086833,0,0,0.68086833,-28.938763,-28.939647)" inkscape:collect="always" xlink:href="#linearGradient24388" id="linearGradient24390-18" x1="168" y1="201.74074" x2="168" y2="114.33071" gradientUnits="userSpaceOnUse"/>
    <linearGradient gradientTransform="matrix(1.2766363,0,0,1.2766363,67.738053,67.738821)" inkscape:collect="always" xlink:href="#linearGradient24388" id="linearGradient24390-37" x1="168" y1="201.74074" x2="168" y2="114.33071" gradientUnits="userSpaceOnUse"/>
  </defs>
  <sodipodi:namedview pagecolor="#383c4a" bordercolor="#ffffff" borderopacity="0.62745098" objecttolerance="4" gridtolerance="10" guidetolerance="4" inkscape:pageopacity="0" inkscape:pageshadow="2" inkscape:window-width="640" inkscape:window-height="480" id="namedview20" showgrid="true" inkscape:zoom="5.8456083" inkscape:cx="271.48334" inkscape:cy="-238.29924" inkscape:current-layer="layer12" inkscape:snap-smooth-nodes="false" showguides="true" borderlayer="true" inkscape:showpageshadow="false" inkscape:guide-bbox="true" guidecolor="#bd4fff" guideopacity="0.78431373" inkscape:snap-nodes="true" inkscape:lockguides="false" fit-margin-top="0" fit-margin-left="0" fit-margin-right="0" fit-margin-bottom="0" guidehicolor="#ff0101" guidehiopacity="0.78431373" inkscape:snap-page="true" inkscape:object-nodes="true" inkscape:snap-bbox="true" inkscape:snap-global="true" inkscape:snap-object-midpoints="false" inkscape:snap-bbox-edge-midpoints="false">
    <inkscape:grid type="xygrid" id="grid4171" empspacing="4" dotted="false" originx="2.7755576e-17" originy="0" spacingx="1" spacingy="1" color="#5a5a5a" opacity="0.23529412" empcolor="#5a5a5a" empopacity="0.47058824" visible="true"/>
    <inkscape:grid type="axonomgrid" id="grid4699" units="mm" empspacing="4" color="#5a5a5a" opacity="0.23529412" empcolor="#5a5a5a" empopacity="0.47058824" gridanglex="45" gridanglez="45" spacingy="3.7795276" visible="false" originx="1.3228346" originy="1.3228346"/>
    <sodipodi:guide position="48,0" orientation="1,0" id="guide4568" inkscape:locked="false" inkscape:label="" inkscape:color="rgb(189,79,255)"/>
    <sodipodi:guide position="111.99996,-3.9999999e-05" orientation="0,1" id="guide4570" inkscape:locked="false" inkscape:label="" inkscape:color="rgb(189,79,255)"/>
    <sodipodi:guide position="0,0" orientation="1,0" id="guide4572" inkscape:locked="false" inkscape:label="" inkscape:color="rgb(189,79,255)"/>
    <sodipodi:guide position="0,48" orientation="0,1" id="guide4574" inkscape:locked="false" inkscape:label="" inkscape:color="rgb(189,79,255)"/>
    <sodipodi:guide position="0,80" orientation="0,1" id="guide4576" inkscape:locked="false" inkscape:label="" inkscape:color="rgb(189,79,255)"/>
    <sodipodi:guide position="-32,48" orientation="1,0" id="guide4578" inkscape:locked="false" inkscape:label="" inkscape:color="rgb(189,79,255)"/>
    <sodipodi:guide position="-32,104" orientation="0,1" id="guide4580" inkscape:locked="false" inkscape:label="" inkscape:color="rgb(189,79,255)"/>
    <sodipodi:guide position="-56,80" orientation="1,0" id="guide4582" inkscape:locked="false" inkscape:label="" inkscape:color="rgb(189,79,255)"/>
    <sodipodi:guide position="48,-64" orientation="0,1" id="guide4584" inkscape:locked="false" inkscape:label="" inkscape:color="rgb(189,79,255)"/>
    <sodipodi:guide position="0,0" orientation="-0.70710678,0.70710678" id="guide4588" inkscape:locked="false" inkscape:label="" inkscape:color="rgb(189,79,255)"/>
    <sodipodi:guide position="-56,80" orientation="-0.70710678,0.70710678" id="guide4573" inkscape:locked="false" inkscape:label="" inkscape:color="rgb(189,79,255)"/>
    <sodipodi:guide position="-32,48" orientation="-0.70710678,0.70710678" id="guide4575" inkscape:locked="false" inkscape:label="" inkscape:color="rgb(189,79,255)"/>
    <sodipodi:guide position="48,-64" orientation="-0.70710678,0.70710678" id="guide4577" inkscape:locked="false" inkscape:label="" inkscape:color="rgb(189,79,255)"/>
    <sodipodi:guide position="47.999962,0" orientation="0.70710678,0.70710678" id="guide4697" inkscape:locked="false" inkscape:label="" inkscape:color="rgb(189,79,255)"/>
    <sodipodi:guide position="207.99995,-288" orientation="0,1" id="guide7833" inkscape:locked="false"/>
    <sodipodi:guide position="335.99994,-288" orientation="1,0" id="guide7835" inkscape:locked="false" inkscape:label="" inkscape:color="rgb(189,79,255)"/>
    <sodipodi:guide position="111.99996,-64" orientation="1,0" id="guide7915" inkscape:locked="false"/>
    <sodipodi:guide position="111.99996,-160" orientation="0,1" id="guide7917" inkscape:locked="false"/>
    <sodipodi:guide position="207.99996,-160" orientation="1,0" id="guide7919" inkscape:locked="false"/>
    <sodipodi:guide position="111.99996,-160" orientation="-0.70710678,0.70710678" id="guide7921" inkscape:locked="false" inkscape:label="" inkscape:color="rgb(189,79,255)"/>
    <sodipodi:guide position="207.99996,-288" orientation="-0.70710678,0.70710678" id="guide7923" inkscape:locked="false" inkscape:label="" inkscape:color="rgb(189,79,255)"/>
    <sodipodi:guide position="-72,104" orientation="1,0" id="guide7824" inkscape:locked="false"/>
    <sodipodi:guide position="-56,120" orientation="0,1" id="guide7826" inkscape:locked="false"/>
    <sodipodi:guide position="-72,104" orientation="-0.70710678,0.70710678" id="guide7828" inkscape:locked="false" inkscape:label="" inkscape:color="rgb(189,79,255)"/>
  </sodipodi:namedview>
  <g style="display:inline" inkscape:label="icon_96" id="g8840" inkscape:groupmode="layer" transform="translate(-111.99996,-112)">
    <g style="display:none" inkscape:label="frame" id="g8776" inkscape:groupmode="layer">
      <rect style="color:#000000;clip-rule:nonzero;display:inline;overflow:visible;visibility:visible;opacity:1;isolation:auto;mix-blend-mode:normal;color-interpolation:sRGB;color-interpolation-filters:linearRGB;solid-color:#000000;solid-opacity:1;vector-effect:none;fill:#000000;fill-opacity:1;fill-rule:nonzero;stroke:#ff24f7;stroke-width:0;stroke-linecap:square;stroke-linejoin:miter;stroke-miterlimit:4;stroke-dasharray:none;stroke-dashoffset:0;stroke-opacity:0.99481865;marker:none;marker-start:none;marker-mid:none;marker-end:none;paint-order:normal;color-rendering:auto;image-rendering:auto;shape-rendering:auto;text-rendering:auto;enable-background:accumulate" id="rect_96" width="96" height="96" x="111.99996" y="112" inkscape:label="frame_96"/>
      <text inkscape:label="txt_96" id="text_96" y="168.73633" x="144.72458" style="font-size:24px;line-height:0%;font-family:sans-serif;letter-spacing:0px;word-spacing:0px;display:inline;opacity:1;fill:#ffffff;fill-opacity:1;stroke:none;stroke-width:0.04917826px;stroke-linecap:butt;stroke-linejoin:miter;stroke-opacity:1" xml:space="preserve">
        <tspan id="tspan8768" style="font-size:24px;line-height:0%;fill:#ffffff;fill-opacity:1;stroke:none;stroke-width:0.04917826px" y="168.73633" x="144.72458" sodipodi:role="line">96</tspan>
      </text>
    </g>
    <g style="display:inline" inkscape:label="icon" id="g8838" inkscape:groupmode="layer">
      <path inkscape:connector-curvature="0" id="path24382" d="m 155.74672,204.94849 c -6.4363,-2.13815 -10.99744,-5.04221 -16.13046,-10.27022 -5.73852,-5.84468 -9.11736,-11.96059 -10.5399,-19.0778 -1.96788,-9.84563 3.25505,-18.87085 14.27036,-24.65924 13.29302,-6.98527 31.46691,-7.64547 38.1672,-1.38651 2.05377,1.9185 2.5074,3.02157 2.5074,6.09708 0,5.87499 -3.2438,9.51309 -15.92544,17.8614 -15.318,10.08383 -16.91834,12.553 -11.58955,17.88179 2.17918,2.17918 3.58627,2.86966 5.84783,2.86966 2.92582,0 5.56254,-1.68684 5.70116,-3.64737 0.40616,-5.74454 1.2703,-6.80642 6.71454,-8.25108 4.56909,-1.21246 9.75849,-0.43648 10.86131,1.62412 1.25991,2.35419 -1.7619,9.91235 -5.51131,13.78489 -6.99435,7.22405 -16.12822,9.91225 -24.37314,7.17328 z m -29.57529,-55.70466 c -4.60834,-4.60833 -4.96691,-10.63167 -0.74738,-12.55421 1.85834,-0.84671 2.40305,-0.69088 4.33385,1.23992 3.6655,3.66552 3.70885,14.13421 0.0585,14.13421 -0.45377,0 -2.09403,-1.26896 -3.64499,-2.81992 z m 12.85792,-8.81622 c -1.70453,-1.88349 -3.96108,-7.19483 -3.96108,-9.32338 0,-2.7055 3.2424,-6.04906 5.86604,-6.04906 3.15083,0 4.43457,1.7475 4.9087,6.68175 0.54204,5.64116 -1.03774,10.19862 -3.53522,10.19862 -1.05257,0 -2.52785,-0.67856 -3.27844,-1.50793 z m 35.52177,-0.23368 c -4.00291,-2.33305 -3.43601,-13.05967 1.01496,-19.20404 6.24534,-8.62146 21.95952,-9.52687 21.95952,-1.26524 0,5.60051 -8.09203,16.446 -14.63343,19.61261 -3.97647,1.92498 -6.12882,2.14607 -8.34105,0.85667 z m -20.08038,-5.22149 c -4.72902,-7.75293 -1.83014,-17.51338 5.20155,-17.51338 3.31074,0 4.93661,2.0632 4.93661,6.2645 0,6.49944 -3.65308,13.99195 -6.82201,13.99195 -0.94773,0 -2.35101,-1.16079 -3.31615,-2.74307 z" style="fill:none;fill-opacity:1;stroke:#000000;stroke-width:2;stroke-miterlimit:4;stroke-dasharray:none;stroke-opacity:0.17582421"/>
      <path style="fill:url(#linearGradient24390);fill-opacity:1;stroke-width:0.84401798" d="m 155.74672,204.94849 c -6.4363,-2.13815 -10.99744,-5.04221 -16.13046,-10.27022 -5.73852,-5.84468 -9.11736,-11.96059 -10.5399,-19.0778 -1.96788,-9.84563 3.25505,-18.87085 14.27036,-24.65924 13.29302,-6.98527 31.46691,-7.64547 38.1672,-1.38651 2.05377,1.9185 2.5074,3.02157 2.5074,6.09708 0,5.87499 -3.2438,9.51309 -15.92544,17.8614 -15.318,10.08383 -16.91834,12.553 -11.58955,17.88179 2.17918,2.17918 3.58627,2.86966 5.84783,2.86966 2.92582,0 5.56254,-1.68684 5.70116,-3.64737 0.40616,-5.74454 1.2703,-6.80642 6.71454,-8.25108 4.56909,-1.21246 9.75849,-0.43648 10.86131,1.62412 1.25991,2.35419 -1.7619,9.91235 -5.51131,13.78489 -6.99435,7.22405 -16.12822,9.91225 -24.37314,7.17328 z m -29.57529,-55.70466 c -4.60834,-4.60833 -4.96691,-10.63167 -0.74738,-12.55421 1.85834,-0.84671 2.40305,-0.69088 4.33385,1.23992 3.6655,3.66552 3.70885,14.13421 0.0585,14.13421 -0.45377,0 -2.09403,-1.26896 -3.64499,-2.81992 z m 12.85792,-8.81622 c -1.70453,-1.88349 -3.96108,-7.19483 -3.96108,-9.32338 0,-2.7055 3.2424,-6.04906 5.86604,-6.04906 3.15083,0 4.43457,1.7475 4.9087,6.68175 0.54204,5.64116 -1.03774,10.19862 -3.53522,10.19862 -1.05257,0 -2.52785,-0.67856 -3.27844,-1.50793 z m 35.52177,-0.23368 c -4.00291,-2.33305 -3.43601,-13.05967 1.01496,-19.20404 6.24534,-8.62146 21.95952,-9.52687 21.95952,-1.26524 0,5.60051 -8.09203,16.446 -14.63343,19.61261 -3.97647,1.92498 -6.12882,2.14607 -8.34105,0.85667 z m -20.08038,-5.22149 c -4.72902,-7.75293 -1.83014,-17.51338 5.20155,-17.51338 3.31074,0 4.93661,2.0632 4.93661,6.2645 0,6.49944 -3.65308,13.99195 -6.82201,13.99195 -0.94773,0 -2.35101,-1.16079 -3.31615,-2.74307 z" id="path24380" inkscape:connector-curvature="0"/>
    </g>
  </g>
</svg>