<?xml version="1.0" encoding="UTF-8" standalone="yes"?>
<svg xmlns:dc="http://purl.org/dc/elements/1.1/" xmlns:cc="http://creativecommons.org/ns#" xmlns:rdf="http://www.w3.org/1999/02/22-rdf-syntax-ns#" xmlns:svg="http://www.w3.org/2000/svg" xmlns="http://www.w3.org/2000/svg" xmlns:sodipodi="http://sodipodi.sourceforge.net/DTD/sodipodi-0.dtd" xmlns:inkscape="http://www.inkscape.org/namespaces/inkscape" height="48" viewBox="0 0 48 48" width="48" id="svg2" version="1.1" inkscape:version="0.92.2 5c3e80d, 2017-08-06" sodipodi:docname="network-server.svg" enable-background="new" folder="48">
  <title id="title4675">Template icons dark</title>
  <metadata id="metadata24">
    <rdf:RDF>
      <cc:Work rdf:about="">
        <dc:format>image/svg+xml</dc:format>
        <dc:type rdf:resource="http://purl.org/dc/dcmitype/StillImage"/>
        <dc:title>Template icons dark</dc:title>
        <dc:date>17/05/13</dc:date>
        <dc:creator>
          <cc:Agent>
            <dc:title>wfpaisa</dc:title>
          </cc:Agent>
        </dc:creator>
        <dc:rights>
          <cc:Agent>
            <dc:title>License: GPLv3</dc:title>
          </cc:Agent>
        </dc:rights>
        <dc:language>es-en</dc:language>
        <dc:subject>
          <rdf:Bag>
            <rdf:li>plane-icon-theme</rdf:li>
          </rdf:Bag>
        </dc:subject>
        <dc:description>Template for create set icons</dc:description>
        <cc:license rdf:resource="https://www.gnu.org/licenses/gpl-3.0.en.html"/>
      </cc:Work>
    </rdf:RDF>
  </metadata>
  <defs id="defs22"/>
  <sodipodi:namedview pagecolor="#ffffff" bordercolor="#ffffff" borderopacity="0.62745098" objecttolerance="4" gridtolerance="10" guidetolerance="4" inkscape:pageopacity="0" inkscape:pageshadow="2" inkscape:window-width="640" inkscape:window-height="480" id="namedview20" showgrid="false" inkscape:zoom="2.9402989" inkscape:cx="250.51704" inkscape:cy="-159.99928" inkscape:current-layer="layer8" inkscape:snap-smooth-nodes="false" showguides="true" borderlayer="true" inkscape:showpageshadow="false" inkscape:guide-bbox="true" guidecolor="#bd4fff" guideopacity="0.78431373" inkscape:snap-nodes="true" inkscape:lockguides="false" fit-margin-top="0" fit-margin-left="0" fit-margin-right="0" fit-margin-bottom="0" guidehicolor="#ff0101" guidehiopacity="0.78431373" inkscape:snap-page="true" inkscape:object-nodes="true" inkscape:snap-bbox="true" inkscape:snap-global="true" inkscape:snap-object-midpoints="false" inkscape:snap-bbox-edge-midpoints="false">
    <inkscape:grid type="xygrid" id="grid4171" empspacing="4" dotted="false" originx="2.7755576e-17" originy="0" spacingx="1" spacingy="1" color="#ffffff" opacity="0.0627451" empcolor="#ffffff" empopacity="0.23529412" visible="true"/>
    <inkscape:grid type="axonomgrid" id="grid4699" units="mm" empspacing="4" color="#5a5a5a" opacity="0.23529412" empcolor="#5a5a5a" empopacity="0.47058824" gridanglex="45" gridanglez="45" spacingy="3.7795276" visible="false" originx="1.3228346" originy="1.3228346"/>
    <sodipodi:guide position="48,0" orientation="1,0" id="guide4568" inkscape:locked="false" inkscape:label="" inkscape:color="rgb(189,79,255)"/>
    <sodipodi:guide position="111.99996,-3.9999999e-05" orientation="0,1" id="guide4570" inkscape:locked="false" inkscape:label="" inkscape:color="rgb(189,79,255)"/>
    <sodipodi:guide position="0,0" orientation="1,0" id="guide4572" inkscape:locked="false" inkscape:label="" inkscape:color="rgb(189,79,255)"/>
    <sodipodi:guide position="0,48" orientation="0,1" id="guide4574" inkscape:locked="false" inkscape:label="" inkscape:color="rgb(189,79,255)"/>
    <sodipodi:guide position="0,80" orientation="0,1" id="guide4576" inkscape:locked="false" inkscape:label="" inkscape:color="rgb(189,79,255)"/>
    <sodipodi:guide position="-32,48" orientation="1,0" id="guide4578" inkscape:locked="false" inkscape:label="" inkscape:color="rgb(189,79,255)"/>
    <sodipodi:guide position="-32,104" orientation="0,1" id="guide4580" inkscape:locked="false" inkscape:label="" inkscape:color="rgb(189,79,255)"/>
    <sodipodi:guide position="-56,80" orientation="1,0" id="guide4582" inkscape:locked="false" inkscape:label="" inkscape:color="rgb(189,79,255)"/>
    <sodipodi:guide position="48,-64" orientation="0,1" id="guide4584" inkscape:locked="false" inkscape:label="" inkscape:color="rgb(189,79,255)"/>
    <sodipodi:guide position="0,0" orientation="-0.70710678,0.70710678" id="guide4588" inkscape:locked="false" inkscape:label="" inkscape:color="rgb(189,79,255)"/>
    <sodipodi:guide position="-56,80" orientation="-0.70710678,0.70710678" id="guide4573" inkscape:locked="false" inkscape:label="" inkscape:color="rgb(189,79,255)"/>
    <sodipodi:guide position="-32,48" orientation="-0.70710678,0.70710678" id="guide4575" inkscape:locked="false" inkscape:label="" inkscape:color="rgb(189,79,255)"/>
    <sodipodi:guide position="48,-64" orientation="-0.70710678,0.70710678" id="guide4577" inkscape:locked="false" inkscape:label="" inkscape:color="rgb(189,79,255)"/>
    <sodipodi:guide position="47.999962,0" orientation="0.70710678,0.70710678" id="guide4697" inkscape:locked="false" inkscape:label="" inkscape:color="rgb(189,79,255)"/>
    <sodipodi:guide position="207.99995,-288" orientation="0,1" id="guide7833" inkscape:locked="false"/>
    <sodipodi:guide position="335.99994,-288" orientation="1,0" id="guide7835" inkscape:locked="false" inkscape:label="" inkscape:color="rgb(189,79,255)"/>
    <sodipodi:guide position="111.99996,-64" orientation="1,0" id="guide7915" inkscape:locked="false"/>
    <sodipodi:guide position="111.99996,-160" orientation="0,1" id="guide7917" inkscape:locked="false"/>
    <sodipodi:guide position="207.99996,-160" orientation="1,0" id="guide7919" inkscape:locked="false"/>
    <sodipodi:guide position="111.99996,-160" orientation="-0.70710678,0.70710678" id="guide7921" inkscape:locked="false" inkscape:label="" inkscape:color="rgb(189,79,255)"/>
    <sodipodi:guide position="207.99996,-288" orientation="-0.70710678,0.70710678" id="guide7923" inkscape:locked="false" inkscape:label="" inkscape:color="rgb(189,79,255)"/>
    <sodipodi:guide position="-72,104" orientation="1,0" id="guide7824" inkscape:locked="false"/>
    <sodipodi:guide position="-56,120" orientation="0,1" id="guide7826" inkscape:locked="false"/>
    <sodipodi:guide position="-72,104" orientation="-0.70710678,0.70710678" id="guide7828" inkscape:locked="false" inkscape:label="" inkscape:color="rgb(189,79,255)"/>
  </sodipodi:namedview>
  <g inkscape:groupmode="layer" id="layer3" inkscape:label="icon_48" style="display:inline" transform="translate(6.8969723e-7,-4.5367432e-7)">
    <g inkscape:groupmode="layer" id="layer9" inkscape:label="frame" style="display:none">
      <rect inkscape:label="frame_48" y="4.5367432e-07" x="-6.8969723e-07" height="48" width="48" id="frame_48" style="color:#000000;clip-rule:nonzero;display:block;overflow:visible;visibility:visible;opacity:1;isolation:auto;mix-blend-mode:normal;color-interpolation:sRGB;color-interpolation-filters:linearRGB;solid-color:#000000;solid-opacity:1;vector-effect:none;fill:#000000;fill-opacity:1;fill-rule:nonzero;stroke:#ff24f7;stroke-width:0;stroke-linecap:square;stroke-linejoin:miter;stroke-miterlimit:4;stroke-dasharray:none;stroke-dashoffset:0;stroke-opacity:0.99481865;marker:none;marker-start:none;marker-mid:none;marker-end:none;paint-order:normal;color-rendering:auto;image-rendering:auto;shape-rendering:auto;text-rendering:auto;enable-background:accumulate"/>
      <text xml:space="preserve" style="font-size:18.66666603px;line-height:1000%;font-family:sans-serif;letter-spacing:0px;word-spacing:0px;display:inline;opacity:1;fill:#ffffff;fill-opacity:1;stroke:none;stroke-width:0.11166908px;stroke-linecap:butt;stroke-linejoin:miter;stroke-opacity:1" x="12.301435" y="30.794922" id="txt_48" inkscape:label="txt_48">
        <tspan sodipodi:role="line" x="12.301435" y="30.794922" style="font-size:18.66666603px;fill:#ffffff;fill-opacity:1;stroke:none;stroke-width:0.11166908px" id="tspan5049-1">48</tspan>
      </text>
      <text xml:space="preserve" style="font-size:2.66666675px;line-height:1000%;font-family:sans-serif;letter-spacing:0px;word-spacing:0px;display:inline;opacity:1;fill:#ffffff;fill-opacity:0.44791667;stroke:none;stroke-width:0.0588377px;stroke-linecap:butt;stroke-linejoin:miter;stroke-opacity:1" x="25.824219" y="45.962238" id="txt_scalable_32-64" inkscape:label="txt_scalable_32-64">
        <tspan sodipodi:role="line" x="25.824219" y="45.962238" style="font-size:2.66666675px;fill:#ffffff;fill-opacity:0.44791667;stroke:none;stroke-width:0.0588377px" id="tspan5049-1-6">Scalable:32-64</tspan>
      </text>
    </g>
    <g inkscape:groupmode="layer" id="layer10" inkscape:label="icon" style="display:inline">
      <rect style="opacity:1;fill:none;fill-opacity:1;stroke:none;stroke-width:0.375;stroke-linecap:butt;stroke-linejoin:miter;stroke-miterlimit:4;stroke-dasharray:none;stroke-dashoffset:0;stroke-opacity:1" id="rect4140-7-5-7-6-0-5" width="48" height="48" x="0" y="0"/>
      <rect ry="1.2314315" rx="1.3196807" style="opacity:1;fill:#636a78;fill-opacity:1;stroke:none;stroke-width:0.47804722;stroke-linecap:butt;stroke-linejoin:miter;stroke-miterlimit:4;stroke-dasharray:none;stroke-dashoffset:0;stroke-opacity:0.26666667" id="rect6209-8-2-9" width="36" height="41.000008" x="5.9999938" y="3.9999959"/>
      <rect y="3.4999924" x="5.5000076" height="42.000008" width="36.999992" id="rect6209-0-1-0-3" style="opacity:1;fill:none;fill-opacity:1;stroke:#272a2f;stroke-width:1.00000012;stroke-linecap:butt;stroke-linejoin:miter;stroke-miterlimit:4;stroke-dasharray:none;stroke-dashoffset:0;stroke-opacity:0.78431373" rx="1.9999999" ry="2.0000002"/>
      <path style="opacity:1;fill:#000000;fill-opacity:0.15686275;stroke:#484e57;stroke-width:1.00000012;stroke-linecap:butt;stroke-linejoin:miter;stroke-miterlimit:4;stroke-dasharray:none;stroke-dashoffset:0;stroke-opacity:1" d="m 8.4941406,5.5058594 c -0.5539999,0 -1,0.446 -1,1 v 3.9999996 c 0,0.554 0.4460001,1 1,1 H 39.505859 c 0.554,0 1,-0.446 1,-1 V 6.5058594 c 0,-0.554 -0.446,-1 -1,-1 z m 0,8.0058596 c -0.5539999,0 -1,0.446 -1,1 v 4 c 0,0.554 0.4460001,1 1,1 H 39.505859 c 0.554,0 1,-0.446 1,-1 v -4 c 0,-0.554 -0.446,-1 -1,-1 z m 0,8 c -0.5539999,0 -1,0.446 -1,1 v 4 c 0,0.554 0.4460001,1 1,1 H 39.505859 c 0.554,0 1,-0.446 1,-1 v -4 c 0,-0.554 -0.446,-1 -1,-1 z m -0.00586,8 c -0.5539999,0 -1,0.446 -1,1 v 4 c 10e-8,0.554 0.4460001,1 1,1 H 39.5 c 0.554,0 1,-0.446 1,-1 v -4 c 0,-0.554 -0.446,-1 -1,-1 z m 0.00586,8 c -0.5539999,0 -1,0.446 -1,1 v 4 c 0,0.554 0.4460001,1 1,1 H 39.505859 c 0.554,0 1,-0.446 1,-1 v -4 c 0,-0.554 -0.446,-1 -1,-1 z" id="rect8193-28-97-2" inkscape:connector-curvature="0"/>
      <path style="opacity:1;fill:#000000;fill-opacity:0.29591836;stroke:none;stroke-width:0.36681664;stroke-linecap:butt;stroke-linejoin:miter;stroke-miterlimit:4;stroke-dasharray:none;stroke-dashoffset:0;stroke-opacity:0.78431373" d="m 9,7 v 3 h 1 V 7 Z m 2,0 v 3 h 1 V 7 Z m 2,0 v 3 h 1 V 7 Z m 2,0 v 3 h 1 V 7 Z m -6,8.005859 v 3 h 1 v -3 z m 2,0 v 3 h 1 v -3 z m 2,0 v 3 h 1 v -3 z m 2,0 v 3 h 1 v -3 z m -6,8 v 3 h 1 v -3 z m 2,0 v 3 h 1 v -3 z m 2,0 v 3 h 1 v -3 z m 2,0 v 3 h 1 v -3 z m -6.0058594,8 v 3 h 1 v -3 z m 2.0000004,0 v 3 h 1 v -3 z m 2,0 v 3 h 1 v -3 z m 2,0 v 3 h 1 v -3 z m -5.994141,8 v 3 h 1 v -3 z m 2,0 v 3 h 1 v -3 z m 2,0 v 3 h 1 v -3 z m 2,0 v 3 h 1 v -3 z" id="rect8297-63-6-72" inkscape:connector-curvature="0"/>
      <path style="opacity:1;fill:#000000;fill-opacity:0.29591836;stroke:none;stroke-width:0.36681664;stroke-linecap:butt;stroke-linejoin:miter;stroke-miterlimit:4;stroke-dasharray:none;stroke-dashoffset:0;stroke-opacity:0.78431373" d="M 37.464844,8 A 0.49999464,0.50000077 0 0 0 37,8.5 0.49999464,0.50000077 0 0 0 37.5,9 0.49999464,0.50000077 0 0 0 38,8.5 0.49999464,0.50000077 0 0 0 37.5,8 0.49999464,0.50000077 0 0 0 37.464844,8 Z m 0,8.005859 a 0.49999464,0.50000077 0 0 0 -0.464844,0.5 0.49999464,0.50000077 0 0 0 0.5,0.5 0.49999464,0.50000077 0 0 0 0.5,-0.5 0.49999464,0.50000077 0 0 0 -0.5,-0.5 0.49999464,0.50000077 0 0 0 -0.03516,0 z m 0,8 a 0.49999464,0.50000077 0 0 0 -0.464844,0.5 0.49999464,0.50000077 0 0 0 0.5,0.5 0.49999464,0.50000077 0 0 0 0.5,-0.5 0.49999464,0.50000077 0 0 0 -0.5,-0.5 0.49999464,0.50000077 0 0 0 -0.03516,0 z m -0.0059,8 a 0.49999464,0.50000077 0 0 0 -0.464843,0.5 0.49999464,0.50000077 0 0 0 0.5,0.5 0.49999464,0.50000077 0 0 0 0.5,-0.5 0.49999464,0.50000077 0 0 0 -0.5,-0.5 0.49999464,0.50000077 0 0 0 -0.03516,0 z m 0.0059,8 a 0.49999464,0.50000077 0 0 0 -0.464844,0.5 0.49999464,0.50000077 0 0 0 0.5,0.5 0.49999464,0.50000077 0 0 0 0.5,-0.5 0.49999464,0.50000077 0 0 0 -0.5,-0.5 0.49999464,0.50000077 0 0 0 -0.03516,0 z" id="path8411-66-6-38" inkscape:connector-curvature="0"/>
      <path style="opacity:1;fill:#6be3e7;fill-opacity:1;stroke:none;stroke-width:0.36681664;stroke-linecap:butt;stroke-linejoin:miter;stroke-miterlimit:4;stroke-dasharray:none;stroke-dashoffset:0;stroke-opacity:0.78431373" d="M 31.464844,8 A 0.50000417,0.49999577 0 0 0 31,8.5 0.50000417,0.49999577 0 0 0 31.5,9 0.50000417,0.49999577 0 0 0 32,8.5 0.50000417,0.49999577 0 0 0 31.5,8 0.50000417,0.49999577 0 0 0 31.464844,8 Z m 2,0 A 0.50000417,0.49999577 0 0 0 33,8.5 0.50000417,0.49999577 0 0 0 33.5,9 0.50000417,0.49999577 0 0 0 34,8.5 0.50000417,0.49999577 0 0 0 33.5,8 0.50000417,0.49999577 0 0 0 33.464844,8 Z m 2,0 A 0.50000417,0.49999577 0 0 0 35,8.5 0.50000417,0.49999577 0 0 0 35.5,9 0.50000417,0.49999577 0 0 0 36,8.5 0.50000417,0.49999577 0 0 0 35.5,8 0.50000417,0.49999577 0 0 0 35.464844,8 Z m -4,8.005859 a 0.50000417,0.49999577 0 0 0 -0.464844,0.5 0.50000417,0.49999577 0 0 0 0.5,0.5 0.50000417,0.49999577 0 0 0 0.5,-0.5 0.50000417,0.49999577 0 0 0 -0.5,-0.5 0.50000417,0.49999577 0 0 0 -0.03516,0 z m 2,0 a 0.50000417,0.49999577 0 0 0 -0.464844,0.5 0.50000417,0.49999577 0 0 0 0.5,0.5 0.50000417,0.49999577 0 0 0 0.5,-0.5 0.50000417,0.49999577 0 0 0 -0.5,-0.5 0.50000417,0.49999577 0 0 0 -0.03516,0 z m 2,0 a 0.50000417,0.49999577 0 0 0 -0.464844,0.5 0.50000417,0.49999577 0 0 0 0.5,0.5 0.50000417,0.49999577 0 0 0 0.5,-0.5 0.50000417,0.49999577 0 0 0 -0.5,-0.5 0.50000417,0.49999577 0 0 0 -0.03516,0 z m -4,8 a 0.50000417,0.49999577 0 0 0 -0.464844,0.5 0.50000417,0.49999577 0 0 0 0.5,0.5 0.50000417,0.49999577 0 0 0 0.5,-0.5 0.50000417,0.49999577 0 0 0 -0.5,-0.5 0.50000417,0.49999577 0 0 0 -0.03516,0 z m 2,0 a 0.50000417,0.49999577 0 0 0 -0.464844,0.5 0.50000417,0.49999577 0 0 0 0.5,0.5 0.50000417,0.49999577 0 0 0 0.5,-0.5 0.50000417,0.49999577 0 0 0 -0.5,-0.5 0.50000417,0.49999577 0 0 0 -0.03516,0 z m 2,0 a 0.50000417,0.49999577 0 0 0 -0.464844,0.5 0.50000417,0.49999577 0 0 0 0.5,0.5 0.50000417,0.49999577 0 0 0 0.5,-0.5 0.50000417,0.49999577 0 0 0 -0.5,-0.5 0.50000417,0.49999577 0 0 0 -0.03516,0 z m -4.00586,8 a 0.50000417,0.49999577 0 0 0 -0.464843,0.5 0.50000417,0.49999577 0 0 0 0.5,0.5 0.50000417,0.49999577 0 0 0 0.5,-0.5 0.50000417,0.49999577 0 0 0 -0.5,-0.5 0.50000417,0.49999577 0 0 0 -0.03516,0 z m 2,0 a 0.50000417,0.49999577 0 0 0 -0.464843,0.5 0.50000417,0.49999577 0 0 0 0.5,0.5 0.50000417,0.49999577 0 0 0 0.5,-0.5 0.50000417,0.49999577 0 0 0 -0.5,-0.5 0.50000417,0.49999577 0 0 0 -0.03516,0 z m 2,0 a 0.50000417,0.49999577 0 0 0 -0.464843,0.5 0.50000417,0.49999577 0 0 0 0.5,0.5 0.50000417,0.49999577 0 0 0 0.5,-0.5 0.50000417,0.49999577 0 0 0 -0.5,-0.5 0.50000417,0.49999577 0 0 0 -0.03516,0 z m -3.99414,8 a 0.50000417,0.49999577 0 0 0 -0.464844,0.5 0.50000417,0.49999577 0 0 0 0.5,0.5 0.50000417,0.49999577 0 0 0 0.5,-0.5 0.50000417,0.49999577 0 0 0 -0.5,-0.5 0.50000417,0.49999577 0 0 0 -0.03516,0 z m 2,0 a 0.50000417,0.49999577 0 0 0 -0.464844,0.5 0.50000417,0.49999577 0 0 0 0.5,0.5 0.50000417,0.49999577 0 0 0 0.5,-0.5 0.50000417,0.49999577 0 0 0 -0.5,-0.5 0.50000417,0.49999577 0 0 0 -0.03516,0 z m 2,0 a 0.50000417,0.49999577 0 0 0 -0.464844,0.5 0.50000417,0.49999577 0 0 0 0.5,0.5 0.50000417,0.49999577 0 0 0 0.5,-0.5 0.50000417,0.49999577 0 0 0 -0.5,-0.5 0.50000417,0.49999577 0 0 0 -0.03516,0 z" id="path8411-7-2-11-3" inkscape:connector-curvature="0"/>
      <path style="opacity:1;fill:#000000;fill-opacity:0.17647059;stroke:none;stroke-width:0.36681664;stroke-linecap:butt;stroke-linejoin:miter;stroke-miterlimit:4;stroke-dasharray:none;stroke-dashoffset:0;stroke-opacity:0.78431373" d="m 18,7 v 3 H 30 V 7 Z m 0,8.005859 v 3 h 12 v -3 z m 0,8 v 3 h 12 v -3 z m -0.0059,8 v 3 h 12 v -3 z m 0.0059,8 v 3 h 12 v -3 z" id="rect8297-59-1-48-6-8" inkscape:connector-curvature="0"/>
    </g>
  </g>
</svg>