<?xml version="1.0" encoding="UTF-8" standalone="yes"?>
<svg xmlns:dc="http://purl.org/dc/elements/1.1/" xmlns:cc="http://creativecommons.org/ns#" xmlns:rdf="http://www.w3.org/1999/02/22-rdf-syntax-ns#" xmlns:svg="http://www.w3.org/2000/svg" xmlns="http://www.w3.org/2000/svg" xmlns:xlink="http://www.w3.org/1999/xlink" xmlns:sodipodi="http://sodipodi.sourceforge.net/DTD/sodipodi-0.dtd" xmlns:inkscape="http://www.inkscape.org/namespaces/inkscape" height="96" viewBox="0 0 96 96" width="96" id="svg2" version="1.1" inkscape:version="0.92.1 r" sodipodi:docname="evolution.svg" enable-background="new" folder="96">
  <title id="title4675">Template icons dark</title>
  <metadata id="metadata24">
    <rdf:RDF>
      <cc:Work rdf:about="">
        <dc:format>image/svg+xml</dc:format>
        <dc:type rdf:resource="http://purl.org/dc/dcmitype/StillImage"/>
        <dc:title>Template icons dark</dc:title>
        <dc:date>17/05/13</dc:date>
        <dc:creator>
          <cc:Agent>
            <dc:title>wfpaisa</dc:title>
          </cc:Agent>
        </dc:creator>
        <dc:rights>
          <cc:Agent>
            <dc:title>License: GPLv3</dc:title>
          </cc:Agent>
        </dc:rights>
        <dc:language>es-en</dc:language>
        <dc:subject>
          <rdf:Bag>
            <rdf:li>plane-icon-theme</rdf:li>
          </rdf:Bag>
        </dc:subject>
        <dc:description>Template for create set icons</dc:description>
        <cc:license rdf:resource="https://www.gnu.org/licenses/gpl-3.0.en.html"/>
      </cc:Work>
    </rdf:RDF>
  </metadata>
  <defs id="defs22">
    <linearGradient inkscape:collect="always" id="linearGradient8505">
      <stop style="stop-color:#030303;stop-opacity:0.15104167" offset="0" id="stop8501"/>
      <stop style="stop-color:#030303;stop-opacity:0.16145833" offset="1" id="stop8503"/>
    </linearGradient>
    <linearGradient inkscape:collect="always" id="linearGradient8499">
      <stop style="stop-color:#030303;stop-opacity:0.203125" offset="0" id="stop8495"/>
      <stop style="stop-color:#030303;stop-opacity:0.16145833" offset="1" id="stop8497"/>
    </linearGradient>
    <linearGradient id="linearGradient8493" inkscape:collect="always">
      <stop id="stop8489" offset="0" style="stop-color:#000000;stop-opacity:0"/>
      <stop id="stop8491" offset="1" style="stop-color:#000000;stop-opacity:0.09375"/>
    </linearGradient>
    <linearGradient inkscape:collect="always" id="linearGradient7974">
      <stop style="stop-color:#000000;stop-opacity:0" offset="0" id="stop7970"/>
      <stop style="stop-color:#000000;stop-opacity:0.05208333" offset="1" id="stop7972"/>
    </linearGradient>
    <linearGradient inkscape:collect="always" id="linearGradient7966">
      <stop style="stop-color:#e6e6e6;stop-opacity:1" offset="0" id="stop7962"/>
      <stop style="stop-color:#ffffff;stop-opacity:1" offset="1" id="stop7964"/>
    </linearGradient>
    <linearGradient inkscape:collect="always" id="linearGradient7947">
      <stop style="stop-color:#030303;stop-opacity:0.13541667" offset="0" id="stop7943"/>
      <stop id="stop7951" offset="0.40221724" style="stop-color:#030303;stop-opacity:0.25"/>
      <stop style="stop-color:#030303;stop-opacity:0;" offset="1" id="stop7945"/>
    </linearGradient>
    <linearGradient inkscape:collect="always" id="linearGradient7913">
      <stop style="stop-color:#000000;stop-opacity:0.078125" offset="0" id="stop7909"/>
      <stop style="stop-color:#000000;stop-opacity:0" offset="1" id="stop7911"/>
    </linearGradient>
    <linearGradient inkscape:collect="always" id="linearGradient7905">
      <stop style="stop-color:#ffffff;stop-opacity:1" offset="0" id="stop7901"/>
      <stop style="stop-color:#e7e7e7;stop-opacity:1" offset="1" id="stop7903"/>
    </linearGradient>
    <linearGradient id="linearGradient7803" inkscape:collect="always">
      <stop id="stop7799" offset="0" style="stop-color:#030303;stop-opacity:0.078125"/>
      <stop id="stop7801" offset="1" style="stop-color:#030303;stop-opacity:0.16145833"/>
    </linearGradient>
    <linearGradient inkscape:collect="always" id="linearGradient7734">
      <stop style="stop-color:#030303;stop-opacity:0.18229167" offset="0" id="stop7730"/>
      <stop style="stop-color:#030303;stop-opacity:0;" offset="1" id="stop7732"/>
    </linearGradient>
    <linearGradient gradientTransform="translate(-116,-133)" inkscape:collect="always" xlink:href="#linearGradient7734" id="linearGradient7736-3" x1="160" y1="162" x2="160" y2="131.26768" gradientUnits="userSpaceOnUse"/>
    <linearGradient inkscape:collect="always" xlink:href="#linearGradient7803" id="linearGradient7797" gradientUnits="userSpaceOnUse" x1="160" y1="162" x2="160" y2="124"/>
    <linearGradient inkscape:collect="always" xlink:href="#linearGradient7803" id="linearGradient7837" gradientUnits="userSpaceOnUse" x1="160" y1="162" x2="160" y2="124" gradientTransform="matrix(1,0,0,-1,0,321)"/>
    <linearGradient inkscape:collect="always" xlink:href="#linearGradient7905" id="linearGradient7907" x1="160.06299" y1="163" x2="160.06299" y2="136" gradientUnits="userSpaceOnUse"/>
    <linearGradient inkscape:collect="always" xlink:href="#linearGradient7913" id="linearGradient7915" x1="160.12599" y1="160" x2="160.12599" y2="136" gradientUnits="userSpaceOnUse"/>
    <linearGradient inkscape:collect="always" xlink:href="#linearGradient7947" id="linearGradient7949" x1="146" y1="146" x2="177.07086" y2="146" gradientUnits="userSpaceOnUse"/>
    <linearGradient inkscape:collect="always" xlink:href="#linearGradient7803" id="linearGradient7953" gradientUnits="userSpaceOnUse" x1="160" y1="162" x2="160" y2="124"/>
    <linearGradient inkscape:collect="always" xlink:href="#linearGradient7966" id="linearGradient7968" x1="161" y1="187.4567" x2="161" y2="165" gradientUnits="userSpaceOnUse"/>
    <linearGradient inkscape:collect="always" xlink:href="#linearGradient7974" id="linearGradient7976" x1="160.06299" y1="184" x2="160.06299" y2="166.00932" gradientUnits="userSpaceOnUse"/>
    <linearGradient inkscape:collect="always" xlink:href="#linearGradient7803" id="linearGradient7837-1" gradientUnits="userSpaceOnUse" x1="160" y1="162" x2="160" y2="124" gradientTransform="matrix(1.33,0,0,-1.33,59.2,485.965)"/>
    <linearGradient gradientTransform="matrix(1.33,0,0,1.33,59.2,59.035)" inkscape:collect="always" xlink:href="#linearGradient7966" id="linearGradient7968-0" x1="161" y1="187.4567" x2="161" y2="165" gradientUnits="userSpaceOnUse"/>
    <linearGradient gradientTransform="matrix(1.33,0,0,1.33,59.2,59.035)" inkscape:collect="always" xlink:href="#linearGradient7974" id="linearGradient7976-6" x1="160.06299" y1="184" x2="160.06299" y2="166.00932" gradientUnits="userSpaceOnUse"/>
    <linearGradient gradientTransform="matrix(1.33,0,0,1.33,59.2,59.035)" inkscape:collect="always" xlink:href="#linearGradient7803" id="linearGradient7953-2" gradientUnits="userSpaceOnUse" x1="160" y1="162" x2="160" y2="124"/>
    <linearGradient gradientTransform="matrix(1.33,0,0,1.33,59.2,59.035)" inkscape:collect="always" xlink:href="#linearGradient7905" id="linearGradient7907-1" x1="160.06299" y1="163" x2="160.06299" y2="136" gradientUnits="userSpaceOnUse"/>
    <linearGradient gradientTransform="matrix(1.33,0,0,1.33,59.2,59.035)" inkscape:collect="always" xlink:href="#linearGradient7913" id="linearGradient7915-9" x1="160.12599" y1="160" x2="160.12599" y2="136" gradientUnits="userSpaceOnUse"/>
    <linearGradient gradientTransform="matrix(1.33,0,0,1.33,59.2,59.035)" inkscape:collect="always" xlink:href="#linearGradient7947" id="linearGradient7949-2" x1="146" y1="146" x2="177.07086" y2="146" gradientUnits="userSpaceOnUse"/>
    <linearGradient inkscape:collect="always" xlink:href="#linearGradient7803" id="linearGradient8164" gradientUnits="userSpaceOnUse" gradientTransform="matrix(1.33,0,0,1.33,59.2,59.035)" x1="160" y1="162" x2="160" y2="124"/>
    <linearGradient inkscape:collect="always" xlink:href="#linearGradient7803" id="linearGradient7837-19" gradientUnits="userSpaceOnUse" x1="160" y1="162" x2="160" y2="124" gradientTransform="matrix(0.70373823,0,0,-0.69090809,-32.633634,189.8907)"/>
    <linearGradient gradientTransform="matrix(0.70373823,0,0,0.69090809,-32.633634,-31.890786)" inkscape:collect="always" xlink:href="#linearGradient7966" id="linearGradient7968-8" x1="161" y1="187.4567" x2="161" y2="165" gradientUnits="userSpaceOnUse"/>
    <linearGradient gradientTransform="matrix(0.70373823,0,0,0.69090809,-32.633634,-31.890786)" inkscape:collect="always" xlink:href="#linearGradient7974" id="linearGradient7976-0" x1="160.06299" y1="184" x2="160.06299" y2="166.00932" gradientUnits="userSpaceOnUse"/>
    <linearGradient gradientTransform="matrix(0.70373823,0,0,0.69090809,-32.633634,-31.890786)" inkscape:collect="always" xlink:href="#linearGradient7803" id="linearGradient7953-1" gradientUnits="userSpaceOnUse" x1="160" y1="162" x2="160" y2="124"/>
    <linearGradient gradientTransform="matrix(0.70373823,0,0,0.69090809,-32.633634,-31.890786)" inkscape:collect="always" xlink:href="#linearGradient7905" id="linearGradient7907-6" x1="160.06299" y1="163" x2="160.06299" y2="136" gradientUnits="userSpaceOnUse"/>
    <linearGradient gradientTransform="matrix(0.70373823,0,0,0.69090809,-32.633634,-31.890786)" inkscape:collect="always" xlink:href="#linearGradient7913" id="linearGradient7915-0" x1="160.12599" y1="160" x2="160.12599" y2="136" gradientUnits="userSpaceOnUse"/>
    <linearGradient gradientTransform="matrix(0.70373823,0,0,0.69090809,-32.633634,-31.890786)" inkscape:collect="always" xlink:href="#linearGradient7947" id="linearGradient7949-5" x1="146" y1="146" x2="177.07086" y2="146" gradientUnits="userSpaceOnUse"/>
    <linearGradient inkscape:collect="always" xlink:href="#linearGradient7803" id="linearGradient8234" gradientUnits="userSpaceOnUse" gradientTransform="matrix(0.70373823,0,0,0.69090809,-32.633634,-31.890786)" x1="160" y1="162" x2="160" y2="124"/>
    <linearGradient inkscape:collect="always" xlink:href="#linearGradient8499" id="linearGradient7837-4" gradientUnits="userSpaceOnUse" x1="160" y1="162" x2="160" y2="124" gradientTransform="matrix(0.5,0,0,-0.5,-56,104.75)"/>
    <linearGradient gradientTransform="matrix(0.5,0,0,0.5,-56,-55.75)" inkscape:collect="always" xlink:href="#linearGradient7966" id="linearGradient7968-7" x1="161" y1="187.4567" x2="161" y2="165" gradientUnits="userSpaceOnUse"/>
    <linearGradient gradientTransform="matrix(0.5,0,0,0.5,-56,-55.75)" inkscape:collect="always" xlink:href="#linearGradient8493" id="linearGradient7976-8" x1="160.06299" y1="184" x2="160.06299" y2="166.00932" gradientUnits="userSpaceOnUse"/>
    <linearGradient gradientTransform="matrix(0.5,0,0,0.5,-56,-55.75)" inkscape:collect="always" xlink:href="#linearGradient7905" id="linearGradient7907-4" x1="160.06299" y1="163" x2="160.06299" y2="136" gradientUnits="userSpaceOnUse"/>
    <linearGradient gradientTransform="matrix(0.5,0,0,0.5,-56,-55.75)" inkscape:collect="always" xlink:href="#linearGradient7913" id="linearGradient7915-06" x1="160.12599" y1="160" x2="160.12599" y2="136" gradientUnits="userSpaceOnUse"/>
    <linearGradient inkscape:collect="always" xlink:href="#linearGradient8505" id="linearGradient8304" gradientUnits="userSpaceOnUse" gradientTransform="matrix(0.5,0,0,0.5,-56,-55.75)" x1="160" y1="162" x2="160" y2="124"/>
    <linearGradient gradientTransform="matrix(0.33,0,0,0.33,-68.8,-68.465)" inkscape:collect="always" xlink:href="#linearGradient7966" id="linearGradient7968-9" x1="161" y1="187.4567" x2="161" y2="165" gradientUnits="userSpaceOnUse"/>
    <linearGradient gradientTransform="matrix(0.33,0,0,0.33,-68.8,-68.465)" inkscape:collect="always" xlink:href="#linearGradient7905" id="linearGradient7907-9" x1="160.06299" y1="163" x2="160.06299" y2="136" gradientUnits="userSpaceOnUse"/>
  </defs>
  <sodipodi:namedview pagecolor="#383c4a" bordercolor="#ffffff" borderopacity="0.62745098" objecttolerance="4" gridtolerance="10" guidetolerance="4" inkscape:pageopacity="0" inkscape:pageshadow="2" inkscape:window-width="640" inkscape:window-height="480" id="namedview20" showgrid="true" inkscape:zoom="16.386532" inkscape:cx="88.273341" inkscape:cy="-43.076466" inkscape:current-layer="g7905" inkscape:snap-smooth-nodes="false" showguides="true" borderlayer="true" inkscape:showpageshadow="false" inkscape:guide-bbox="true" guidecolor="#bd4fff" guideopacity="0.78431373" inkscape:snap-nodes="true" inkscape:lockguides="false" fit-margin-top="0" fit-margin-left="0" fit-margin-right="0" fit-margin-bottom="0" guidehicolor="#ff0101" guidehiopacity="0.78431373" inkscape:snap-page="true" inkscape:object-nodes="true" inkscape:snap-bbox="true" inkscape:snap-global="true" inkscape:snap-object-midpoints="false" inkscape:snap-bbox-edge-midpoints="false">
    <inkscape:grid type="xygrid" id="grid4171" empspacing="4" dotted="false" originx="2.7755576e-17" originy="0" spacingx="1" spacingy="1" color="#5a5a5a" opacity="0.23529412" empcolor="#5a5a5a" empopacity="0.47058824" visible="true"/>
    <inkscape:grid type="axonomgrid" id="grid4699" units="mm" empspacing="4" color="#5a5a5a" opacity="0.23529412" empcolor="#5a5a5a" empopacity="0.47058824" gridanglex="45" gridanglez="45" spacingy="3.7795276" visible="false" originx="1.3228346" originy="1.3228346"/>
    <sodipodi:guide position="48,0" orientation="1,0" id="guide4568" inkscape:locked="false" inkscape:label="" inkscape:color="rgb(189,79,255)"/>
    <sodipodi:guide position="111.99996,-3.9999999e-05" orientation="0,1" id="guide4570" inkscape:locked="false" inkscape:label="" inkscape:color="rgb(189,79,255)"/>
    <sodipodi:guide position="0,0" orientation="1,0" id="guide4572" inkscape:locked="false" inkscape:label="" inkscape:color="rgb(189,79,255)"/>
    <sodipodi:guide position="0,48" orientation="0,1" id="guide4574" inkscape:locked="false" inkscape:label="" inkscape:color="rgb(189,79,255)"/>
    <sodipodi:guide position="0,80" orientation="0,1" id="guide4576" inkscape:locked="false" inkscape:label="" inkscape:color="rgb(189,79,255)"/>
    <sodipodi:guide position="-32,48" orientation="1,0" id="guide4578" inkscape:locked="false" inkscape:label="" inkscape:color="rgb(189,79,255)"/>
    <sodipodi:guide position="-32,104" orientation="0,1" id="guide4580" inkscape:locked="false" inkscape:label="" inkscape:color="rgb(189,79,255)"/>
    <sodipodi:guide position="-56,80" orientation="1,0" id="guide4582" inkscape:locked="false" inkscape:label="" inkscape:color="rgb(189,79,255)"/>
    <sodipodi:guide position="48,-64" orientation="0,1" id="guide4584" inkscape:locked="false" inkscape:label="" inkscape:color="rgb(189,79,255)"/>
    <sodipodi:guide position="0,0" orientation="-0.70710678,0.70710678" id="guide4588" inkscape:locked="false" inkscape:label="" inkscape:color="rgb(189,79,255)"/>
    <sodipodi:guide position="-56,80" orientation="-0.70710678,0.70710678" id="guide4573" inkscape:locked="false" inkscape:label="" inkscape:color="rgb(189,79,255)"/>
    <sodipodi:guide position="-32,48" orientation="-0.70710678,0.70710678" id="guide4575" inkscape:locked="false" inkscape:label="" inkscape:color="rgb(189,79,255)"/>
    <sodipodi:guide position="48,-64" orientation="-0.70710678,0.70710678" id="guide4577" inkscape:locked="false" inkscape:label="" inkscape:color="rgb(189,79,255)"/>
    <sodipodi:guide position="47.999962,0" orientation="0.70710678,0.70710678" id="guide4697" inkscape:locked="false" inkscape:label="" inkscape:color="rgb(189,79,255)"/>
    <sodipodi:guide position="207.99995,-288" orientation="0,1" id="guide7833" inkscape:locked="false"/>
    <sodipodi:guide position="335.99994,-288" orientation="1,0" id="guide7835" inkscape:locked="false" inkscape:label="" inkscape:color="rgb(189,79,255)"/>
    <sodipodi:guide position="111.99996,-64" orientation="1,0" id="guide7915" inkscape:locked="false"/>
    <sodipodi:guide position="111.99996,-160" orientation="0,1" id="guide7917" inkscape:locked="false"/>
    <sodipodi:guide position="207.99996,-160" orientation="1,0" id="guide7919" inkscape:locked="false"/>
    <sodipodi:guide position="111.99996,-160" orientation="-0.70710678,0.70710678" id="guide7921" inkscape:locked="false" inkscape:label="" inkscape:color="rgb(189,79,255)"/>
    <sodipodi:guide position="207.99996,-288" orientation="-0.70710678,0.70710678" id="guide7923" inkscape:locked="false" inkscape:label="" inkscape:color="rgb(189,79,255)"/>
    <sodipodi:guide position="-72,104" orientation="1,0" id="guide7824" inkscape:locked="false"/>
    <sodipodi:guide position="-56,120" orientation="0,1" id="guide7826" inkscape:locked="false"/>
    <sodipodi:guide position="-72,104" orientation="-0.70710678,0.70710678" id="guide7828" inkscape:locked="false" inkscape:label="" inkscape:color="rgb(189,79,255)"/>
  </sodipodi:namedview>
  <g style="display:inline" inkscape:label="icon_96" id="g8840" inkscape:groupmode="layer" transform="translate(-111.99996,-112)">
    <g style="display:none" inkscape:label="frame" id="g8776" inkscape:groupmode="layer">
      <rect style="color:#000000;clip-rule:nonzero;display:inline;overflow:visible;visibility:visible;opacity:1;isolation:auto;mix-blend-mode:normal;color-interpolation:sRGB;color-interpolation-filters:linearRGB;solid-color:#000000;solid-opacity:1;vector-effect:none;fill:#000000;fill-opacity:1;fill-rule:nonzero;stroke:#ff24f7;stroke-width:0;stroke-linecap:square;stroke-linejoin:miter;stroke-miterlimit:4;stroke-dasharray:none;stroke-dashoffset:0;stroke-opacity:0.99481865;marker:none;marker-start:none;marker-mid:none;marker-end:none;paint-order:normal;color-rendering:auto;image-rendering:auto;shape-rendering:auto;text-rendering:auto;enable-background:accumulate" id="rect_96" width="96" height="96" x="111.99996" y="112" inkscape:label="frame_96"/>
      <text inkscape:label="txt_96" id="text_96" y="168.73633" x="144.72458" style="font-size:24px;line-height:0%;font-family:sans-serif;letter-spacing:0px;word-spacing:0px;display:inline;opacity:1;fill:#ffffff;fill-opacity:1;stroke:none;stroke-width:0.04917826px;stroke-linecap:butt;stroke-linejoin:miter;stroke-opacity:1" xml:space="preserve">
        <tspan id="tspan8768" style="font-size:24px;line-height:0%;fill:#ffffff;fill-opacity:1;stroke:none;stroke-width:0.04917826px" y="168.73633" x="144.72458" sodipodi:role="line">96</tspan>
      </text>
    </g>
    <g style="display:inline" inkscape:label="icon" id="g8838" inkscape:groupmode="layer">
      <path style="color:#000000;clip-rule:nonzero;display:block;overflow:visible;visibility:visible;opacity:1;isolation:auto;mix-blend-mode:normal;color-interpolation:sRGB;color-interpolation-filters:linearRGB;solid-color:#000000;solid-opacity:1;vector-effect:none;fill:#000000;fill-opacity:0.11458333;fill-rule:nonzero;stroke:none;stroke-width:3.53069162px;stroke-linecap:butt;stroke-linejoin:miter;stroke-miterlimit:4;stroke-dasharray:none;stroke-dashoffset:0;stroke-opacity:1;marker:none;marker-start:none;marker-mid:none;marker-end:none;paint-order:fill markers stroke;color-rendering:auto;image-rendering:auto;shape-rendering:auto;text-rendering:auto;enable-background:accumulate" d="m 115,132 h 90 v 57 h -90 z" id="rect7723" inkscape:connector-curvature="0" sodipodi:nodetypes="ccccc" inkscape:label="base sombra"/>
      <path style="color:#000000;clip-rule:nonzero;display:inline;overflow:visible;visibility:visible;opacity:1;isolation:auto;mix-blend-mode:normal;color-interpolation:sRGB;color-interpolation-filters:linearRGB;solid-color:#000000;solid-opacity:1;vector-effect:none;fill:#f2f2f2;fill-opacity:1;fill-rule:nonzero;stroke:none;stroke-width:3.53069162px;stroke-linecap:butt;stroke-linejoin:miter;stroke-miterlimit:4;stroke-dasharray:none;stroke-dashoffset:0;stroke-opacity:1;marker:none;marker-start:none;marker-mid:none;marker-end:none;paint-order:fill markers stroke;color-rendering:auto;image-rendering:auto;shape-rendering:auto;text-rendering:auto;enable-background:accumulate" d="m 116,133 c 0,0 58.66667,0 88,0 v 55 h -88 z" id="rect7721" inkscape:connector-curvature="0" sodipodi:nodetypes="ccccc" inkscape:label="base"/>
      <path style="color:#000000;clip-rule:nonzero;display:inline;overflow:visible;visibility:visible;opacity:1;isolation:auto;mix-blend-mode:normal;color-interpolation:sRGB;color-interpolation-filters:linearRGB;solid-color:#000000;solid-opacity:1;vector-effect:none;fill:url(#linearGradient7837);fill-opacity:1;fill-rule:nonzero;stroke:none;stroke-width:3.53069162px;stroke-linecap:butt;stroke-linejoin:miter;stroke-miterlimit:4;stroke-dasharray:none;stroke-dashoffset:0;stroke-opacity:1;marker:none;marker-start:none;marker-mid:none;marker-end:none;paint-order:fill markers stroke;color-rendering:auto;image-rendering:auto;shape-rendering:auto;text-rendering:auto;enable-background:accumulate" d="m 116,188 h 88 v -2.02363 L 202,181 164.01238,156.00929 c 0,0 -2.79191,-2.00929 -4.01238,-2.00929 -1.36984,0 -3.99167,1.99375 -3.99167,1.99375 L 118,181 l -2,5 z" id="path7827" inkscape:connector-curvature="0" sodipodi:nodetypes="cccccscccc"/>
      <path sodipodi:nodetypes="ccccsccc" inkscape:connector-curvature="0" id="path7831" d="m 116,188 h 88 l -2,-7 -37.98762,-22.99071 c 0,0 -2.79191,-2.00929 -4.01238,-2.00929 -1.36984,0 -3.99167,1.99375 -3.99167,1.99375 L 118,181 Z" style="color:#000000;clip-rule:nonzero;display:block;overflow:visible;visibility:visible;opacity:1;isolation:auto;mix-blend-mode:normal;color-interpolation:sRGB;color-interpolation-filters:linearRGB;solid-color:#000000;solid-opacity:1;vector-effect:none;fill:url(#linearGradient7968);fill-opacity:1;fill-rule:nonzero;stroke:none;stroke-width:3.53069162px;stroke-linecap:butt;stroke-linejoin:miter;stroke-miterlimit:4;stroke-dasharray:none;stroke-dashoffset:0;stroke-opacity:1;marker:none;marker-start:none;marker-mid:none;marker-end:none;paint-order:fill markers stroke;color-rendering:auto;image-rendering:auto;shape-rendering:auto;text-rendering:auto;enable-background:accumulate"/>
      <path style="color:#000000;clip-rule:nonzero;display:inline;overflow:visible;visibility:visible;opacity:1;isolation:auto;mix-blend-mode:normal;color-interpolation:sRGB;color-interpolation-filters:linearRGB;solid-color:#000000;solid-opacity:1;vector-effect:none;fill:url(#linearGradient7976);fill-opacity:1;fill-rule:nonzero;stroke:none;stroke-width:3.53069162px;stroke-linecap:butt;stroke-linejoin:miter;stroke-miterlimit:4;stroke-dasharray:none;stroke-dashoffset:0;stroke-opacity:1;marker:none;marker-start:none;marker-mid:none;marker-end:none;paint-order:fill markers stroke;color-rendering:auto;image-rendering:auto;shape-rendering:auto;text-rendering:auto;enable-background:accumulate" d="m 120,186 h 80 l -2,-5 -33.98762,-18.99071 c 0,0 -2.79191,-2.00929 -4.01238,-2.00929 -1.36984,0 -3.99167,1.99375 -3.99167,1.99375 L 122,181 Z" id="path7833" inkscape:connector-curvature="0" sodipodi:nodetypes="ccccsccc"/>
      <path sodipodi:nodetypes="cccccscccc" inkscape:connector-curvature="0" id="path7773" d="m 116,133 h 88 v 2.02363 L 202,140 164.01238,165.99071 c 0,0 -2.79191,2.00929 -4.01238,2.00929 -1.36984,0 -3.99167,-1.99375 -3.99167,-1.99375 L 118,140 l -2,-5 z" style="color:#000000;clip-rule:nonzero;display:block;overflow:visible;visibility:visible;opacity:1;isolation:auto;mix-blend-mode:normal;color-interpolation:sRGB;color-interpolation-filters:linearRGB;solid-color:#000000;solid-opacity:1;vector-effect:none;fill:url(#linearGradient7953);fill-opacity:1;fill-rule:nonzero;stroke:none;stroke-width:3.53069162px;stroke-linecap:butt;stroke-linejoin:miter;stroke-miterlimit:4;stroke-dasharray:none;stroke-dashoffset:0;stroke-opacity:1;marker:none;marker-start:none;marker-mid:none;marker-end:none;paint-order:fill markers stroke;color-rendering:auto;image-rendering:auto;shape-rendering:auto;text-rendering:auto;enable-background:accumulate"/>
      <path style="color:#000000;clip-rule:nonzero;display:block;overflow:visible;visibility:visible;opacity:1;isolation:auto;mix-blend-mode:normal;color-interpolation:sRGB;color-interpolation-filters:linearRGB;solid-color:#000000;solid-opacity:1;vector-effect:none;fill:url(#linearGradient7797);fill-opacity:1;fill-rule:nonzero;stroke:none;stroke-width:3.53069162px;stroke-linecap:butt;stroke-linejoin:miter;stroke-miterlimit:4;stroke-dasharray:none;stroke-dashoffset:0;stroke-opacity:1;marker:none;marker-start:none;marker-mid:none;marker-end:none;paint-order:fill markers stroke;color-rendering:auto;image-rendering:auto;shape-rendering:auto;text-rendering:auto;enable-background:accumulate" d="m 116,133 h 88 v 2.02363 L 202,140 164.01238,163.99071 c 0,0 -2.79191,2.00929 -4.01238,2.00929 -1.36984,0 -3.99167,-1.99375 -3.99167,-1.99375 L 118,140 l -2,-5 z" id="path7809" inkscape:connector-curvature="0" sodipodi:nodetypes="cccccscccc"/>
      <path style="color:#000000;clip-rule:nonzero;display:block;overflow:visible;visibility:visible;opacity:1;isolation:auto;mix-blend-mode:normal;color-interpolation:sRGB;color-interpolation-filters:linearRGB;solid-color:#000000;solid-opacity:1;vector-effect:none;fill:url(#linearGradient7907);fill-opacity:1;fill-rule:nonzero;stroke:none;stroke-width:3.53069162px;stroke-linecap:butt;stroke-linejoin:miter;stroke-miterlimit:4;stroke-dasharray:none;stroke-dashoffset:0;stroke-opacity:1;marker:none;marker-start:none;marker-mid:none;marker-end:none;paint-order:fill markers stroke;color-rendering:auto;image-rendering:auto;shape-rendering:auto;text-rendering:auto;enable-background:accumulate" d="m 116,133 h 88 l -2,7 -37.98762,22.99071 c 0,0 -2.79191,2.00929 -4.01238,2.00929 -1.36984,0 -3.99167,-1.99375 -3.99167,-1.99375 L 118,140 Z" id="rect7725" inkscape:connector-curvature="0" sodipodi:nodetypes="ccccsccc"/>
      <path sodipodi:nodetypes="ccccsccc" inkscape:connector-curvature="0" id="path7811" d="m 120,135 h 80 l -2,5 -33.98762,18.99071 c 0,0 -2.79191,2.00929 -4.01238,2.00929 -1.36984,0 -3.99167,-1.99375 -3.99167,-1.99375 L 122,140 Z" style="color:#000000;clip-rule:nonzero;display:inline;overflow:visible;visibility:visible;opacity:1;isolation:auto;mix-blend-mode:normal;color-interpolation:sRGB;color-interpolation-filters:linearRGB;solid-color:#000000;solid-opacity:1;vector-effect:none;fill:url(#linearGradient7915);fill-opacity:1;fill-rule:nonzero;stroke:none;stroke-width:3.53069162px;stroke-linecap:butt;stroke-linejoin:miter;stroke-miterlimit:4;stroke-dasharray:none;stroke-dashoffset:0;stroke-opacity:1;marker:none;marker-start:none;marker-mid:none;marker-end:none;paint-order:fill markers stroke;color-rendering:auto;image-rendering:auto;shape-rendering:auto;text-rendering:auto;enable-background:accumulate"/>
      <path inkscape:connector-curvature="0" id="path7841" d="m 151.5,140.4707 c -3.76036,0 -6.81641,3.05605 -6.81641,6.81641 0,3.76036 3.05605,6.81641 6.81641,6.81641 2.36653,0 4.45139,-1.21228 5.67383,-3.04688 v 0.71484 c 0,0 3.76665,-0.88813 5.68945,-1 1.68731,-0.0982 2.86804,1.94609 5.10938,2.0586 1.34892,0.0677 3.72114,-2.83866 5.01953,-2.73828 1.49114,0.11529 2.76287,1.81431 3.91992,2.10547 1.88557,0.47447 3.26172,-0.42579 3.26172,-0.42579 v -0.98437 c 0,0 -1.29517,0.85042 -3.23242,0.66406 -1.13122,-0.10882 -2.48188,-2.23035 -3.92188,-2.34179 -1.31716,-0.10195 -3.70844,2.80452 -5.07617,2.73632 -2.20859,-0.1101 -3.35383,-2.15369 -5.01758,-2.05859 -1.85723,0.10617 -5.25156,0.88706 -5.5625,0.95898 0.23946,-0.40458 0.43923,-0.83457 0.5918,-1.28711 0.33676,-0.0786 3.65339,-0.84866 5.48242,-0.95507 1.68731,-0.0982 2.86999,1.94803 5.11133,2.06054 1.34892,0.0677 3.71919,-2.84061 5.01758,-2.74023 1.49114,0.11529 2.76287,1.81626 3.91992,2.10742 1.88557,0.47447 3.26172,-0.42773 3.26172,-0.42773 v -0.98438 c 0,0 -1.29516,0.85042 -3.23243,0.66406 -1.13122,-0.10882 -2.48187,-2.23033 -3.92187,-2.34179 -1.31716,-0.10194 -3.70844,2.80453 -5.07617,2.73632 -2.20859,-0.11009 -3.35383,-2.15369 -5.01758,-2.05859 -1.73177,0.099 -4.60675,0.74567 -5.28516,0.90039 0.0621,-0.36926 0.10157,-0.74609 0.10157,-1.13281 0,-0.19278 -0.0135,-0.38155 -0.0293,-0.57031 0.45103,-0.10484 3.61144,-0.83319 5.4043,-0.9375 1.68731,-0.0982 2.86803,1.94608 5.10937,2.05859 1.34892,0.0677 3.71919,-2.83866 5.01758,-2.73828 1.49114,0.11529 2.76482,1.81431 3.92187,2.10547 C 179.6258,147.67955 181,146.7793 181,146.7793 v -0.98438 c 0,0 -1.29517,0.85042 -3.23242,0.66406 -1.13122,-0.10882 -2.47992,-2.23033 -3.91992,-2.34179 -1.31716,-0.10194 -3.7104,2.80453 -5.07813,2.73633 -2.20859,-0.1101 -3.35383,-2.1537 -5.01758,-2.0586 -1.8803,0.1075 -5.381,0.91684 -5.61328,0.9707 -0.15111,-0.66012 -0.39695,-1.2835 -0.72461,-1.85546 0.61479,-0.14196 3.54192,-0.80919 5.27735,-0.91016 1.68731,-0.0982 2.86803,1.94608 5.10937,2.05859 1.34892,0.0677 3.71919,-2.83866 5.01758,-2.73828 1.49114,0.11529 2.76482,1.81431 3.92187,2.10547 C 178.6258,144.90025 180,144 180,144 v -0.98438 c 0,0 -1.29517,0.85043 -3.23242,0.66407 -1.13122,-0.10882 -2.47992,-2.23034 -3.91992,-2.3418 -1.31716,-0.10194 -3.7104,2.80453 -5.07813,2.73633 -2.20859,-0.1101 -3.35383,-2.15368 -5.01758,-2.0586 -1.94303,0.11109 -5.75195,1 -5.75195,1 v 0.26172 c -1.24063,-1.69748 -3.23978,-2.80664 -5.5,-2.80664 z m 0,0.63282 c 3.41934,0 6.18359,2.76425 6.18359,6.18359 0,3.41934 -2.76425,6.18359 -6.18359,6.18359 -3.41934,0 -6.18359,-2.76425 -6.18359,-6.18359 0,-3.41934 2.76425,-6.18359 6.18359,-6.18359 z m -0.10938,0.33789 a 0.60708046,0.60708046 0 0 0 -0.60742,0.60742 0.60708046,0.60708046 0 0 0 0.60742,0.60742 0.60708046,0.60708046 0 0 0 0.60743,-0.60742 0.60708046,0.60708046 0 0 0 -0.60743,-0.60742 z m 0.10938,1.58398 c -2.35182,0 -4.26172,1.9099 -4.26172,4.26172 0,2.35182 1.9099,4.26172 4.26172,4.26172 2.35182,0 4.26172,-1.9099 4.26172,-4.26172 0,-2.35182 -1.9099,-4.26172 -4.26172,-4.26172 z m 0,0.39453 c 2.13854,0 3.86719,1.72865 3.86719,3.86719 0,2.13854 -1.72865,3.86719 -3.86719,3.86719 -2.13854,0 -3.86719,-1.72865 -3.86719,-3.86719 0,-2.13854 1.72865,-3.86719 3.86719,-3.86719 z m 1.95703,2.63477 c -0.32056,0 -0.5772,0.10754 -0.76953,0.32226 -0.19131,0.21371 -0.28711,0.50108 -0.28711,0.86133 0,0.36024 0.0958,0.64567 0.28711,0.85938 0.19233,0.2137 0.44897,0.32226 0.76953,0.32226 0.31954,0 0.57431,-0.10856 0.76563,-0.32226 0.19132,-0.21472 0.28711,-0.50015 0.28711,-0.85938 0,-0.36025 -0.0958,-0.64762 -0.28711,-0.86133 -0.19132,-0.21472 -0.44609,-0.32226 -0.76563,-0.32226 z m -4.98633,0.041 v 2.2793 h 1.46875 v -0.25977 h -1.16015 v -0.82617 h 1.08593 v -0.25976 h -1.08593 v -0.67383 h 1.13281 v -0.25977 z m 1.69727,0 0.86914,2.2793 h 0.34961 l 0.86914,-2.2793 h -0.32031 l -0.72461,1.91797 -0.72071,-1.91797 z m 3.28906,0.20899 c 0.22388,0 0.40099,0.0831 0.53125,0.25 0.13127,0.16689 0.19727,0.3956 0.19727,0.68359 0,0.28697 -0.066,0.5128 -0.19727,0.67969 -0.13026,0.16689 -0.30737,0.25 -0.53125,0.25 -0.22388,0 -0.40288,-0.0831 -0.53515,-0.25 -0.1313,-0.16689 -0.19532,-0.39272 -0.19532,-0.67969 0,-0.28799 0.064,-0.5167 0.19532,-0.68359 0.13229,-0.1669 0.31127,-0.25 0.53515,-0.25 z m 3.41406,0.47851 a 0.60708046,0.60708046 0 0 0 -0.60547,0.60742 0.60708046,0.60708046 0 0 0 0.60547,0.60743 0.60708046,0.60708046 0 0 0 0.60743,-0.60743 0.60708046,0.60708046 0 0 0 -0.60743,-0.60742 z m -10.57617,0.0156 a 0.60708046,0.60708046 0 0 0 -0.60547,0.60742 0.60708046,0.60708046 0 0 0 0.60547,0.60742 0.60708046,0.60708046 0 0 0 0.60742,-0.60742 0.60708046,0.60708046 0 0 0 -0.60742,-0.60742 z m 5.51367,5.125 a 0.60708046,0.60708046 0 0 0 -0.60742,0.60742 0.60708046,0.60708046 0 0 0 0.60742,0.60742 0.60708046,0.60708046 0 0 0 0.60547,-0.60742 0.60708046,0.60708046 0 0 0 -0.60547,-0.60742 z" style="color:#000000;font-style:normal;font-variant:normal;font-weight:normal;font-stretch:normal;font-size:medium;line-height:normal;font-family:sans-serif;font-variant-ligatures:normal;font-variant-position:normal;font-variant-caps:normal;font-variant-numeric:normal;font-variant-alternates:normal;font-feature-settings:normal;text-indent:0;text-align:start;text-decoration:none;text-decoration-line:none;text-decoration-style:solid;text-decoration-color:#000000;letter-spacing:normal;word-spacing:normal;text-transform:none;writing-mode:lr-tb;direction:ltr;text-orientation:mixed;dominant-baseline:auto;baseline-shift:baseline;text-anchor:start;white-space:normal;shape-padding:0;clip-rule:nonzero;display:inline;overflow:visible;visibility:visible;opacity:1;isolation:auto;mix-blend-mode:normal;color-interpolation:sRGB;color-interpolation-filters:linearRGB;solid-color:#000000;solid-opacity:1;vector-effect:none;fill:url(#linearGradient7949);fill-opacity:1;fill-rule:nonzero;stroke:none;stroke-width:0.63099998;stroke-linecap:butt;stroke-linejoin:miter;stroke-miterlimit:4;stroke-dasharray:none;stroke-dashoffset:0;stroke-opacity:1;marker:none;paint-order:fill markers stroke;color-rendering:auto;image-rendering:auto;shape-rendering:auto;text-rendering:auto;enable-background:accumulate" inkscape:label="firm"/>
      <path style="display:inline;fill:#5477b0;fill-opacity:1;fill-rule:evenodd;stroke:none;stroke-width:1px;stroke-linecap:butt;stroke-linejoin:miter;stroke-opacity:1" d="M 131,132.99219 116,133 v 8 l 1.00781,-2.00781 V 134 h 11.98438 z m 32,0 -12,0.008 -2,1 h 11.99219 z m 32,0 -12,0.008 -2,1 h 11.99219 z m 9.00781,1.00781 -1,2 -0.008,12 1.00781,-2.00781 z m -87,24 -1,2 -0.008,12 1.00781,-2.00781 z m 87,8 -1,2 -0.008,12 1.00781,-2.00781 z M 119,187 l -2,1 h 11.99219 L 131,187 Z m 32,0 -2,1 h 11.99219 L 163,187 Z m 32,0 -2,1 h 11.99219 L 195,187 Z" id="path7980" inkscape:connector-curvature="0" inkscape:label="blue"/>
      <path style="display:inline;fill:#b05457;fill-opacity:1;fill-rule:evenodd;stroke:none;stroke-width:1px;stroke-linecap:butt;stroke-linejoin:miter;stroke-opacity:1" d="m 147,132.99219 -12,0.008 -2,1 h 11.99219 z m 32,0 -12,0.008 -2,1 h 11.99219 z m 25,0 -5,0.008 -2,1 h 4.99219 z M 117.00781,142 l -1,2 -0.008,12 1.00781,-2.00781 z m 87,8 -1,2 -0.008,12 1.00781,-2.00781 z m -87,24 -1,2 -0.008,12 1.00781,-2.00781 z m 87,8 -1,2 -0.006,2.99414 L 199,187 l -2,1 h 6 1 z M 135,187 l -2,1 h 12 l 2,-1 z m 32,0 -2,1 h 12 l 2,-1 z" id="path7988" inkscape:connector-curvature="0" inkscape:label="red"/>
    </g>
  </g>
</svg>