<?xml version="1.0" encoding="UTF-8" standalone="yes"?>
<svg xmlns:dc="http://purl.org/dc/elements/1.1/" xmlns:cc="http://creativecommons.org/ns#" xmlns:rdf="http://www.w3.org/1999/02/22-rdf-syntax-ns#" xmlns:svg="http://www.w3.org/2000/svg" xmlns="http://www.w3.org/2000/svg" xmlns:xlink="http://www.w3.org/1999/xlink" xmlns:sodipodi="http://sodipodi.sourceforge.net/DTD/sodipodi-0.dtd" xmlns:inkscape="http://www.inkscape.org/namespaces/inkscape" height="96" viewBox="0 0 96 96" width="96" id="svg2" version="1.1" inkscape:version="0.92.1 r" sodipodi:docname="org.gnome.Calendar.svg" enable-background="new" folder="96">
  <title id="title4675">Template icons dark</title>
  <metadata id="metadata24">
    <rdf:RDF>
      <cc:Work rdf:about="">
        <dc:format>image/svg+xml</dc:format>
        <dc:type rdf:resource="http://purl.org/dc/dcmitype/StillImage"/>
        <dc:title>Template icons dark</dc:title>
        <dc:date>17/05/13</dc:date>
        <dc:creator>
          <cc:Agent>
            <dc:title>wfpaisa</dc:title>
          </cc:Agent>
        </dc:creator>
        <dc:rights>
          <cc:Agent>
            <dc:title>License: GPLv3</dc:title>
          </cc:Agent>
        </dc:rights>
        <dc:language>es-en</dc:language>
        <dc:subject>
          <rdf:Bag>
            <rdf:li>plane-icon-theme</rdf:li>
          </rdf:Bag>
        </dc:subject>
        <dc:description>Template for create set icons</dc:description>
        <cc:license rdf:resource="https://www.gnu.org/licenses/gpl-3.0.en.html"/>
      </cc:Work>
    </rdf:RDF>
  </metadata>
  <defs id="defs22">
    <linearGradient inkscape:collect="always" id="linearGradient8739">
      <stop style="stop-color:#647780;stop-opacity:1" offset="0" id="stop8735"/>
      <stop style="stop-color:#ffffff;stop-opacity:1" offset="1" id="stop8737"/>
    </linearGradient>
    <linearGradient inkscape:collect="always" id="linearGradient8731">
      <stop style="stop-color:#000000;stop-opacity:0.13541667" offset="0" id="stop8727"/>
      <stop style="stop-color:#000000;stop-opacity:0;" offset="1" id="stop8729"/>
    </linearGradient>
    <linearGradient id="linearGradient8021">
      <stop style="stop-color:#391f3c;stop-opacity:0.05921053;" offset="0" id="stop8017"/>
      <stop style="stop-color:#391f3c;stop-opacity:0;" offset="1" id="stop8019"/>
    </linearGradient>
    <linearGradient inkscape:collect="always" id="linearGradient7998">
      <stop style="stop-color:#d8d8d8;stop-opacity:1" offset="0" id="stop7994"/>
      <stop style="stop-color:#ffffff;stop-opacity:0.99479169" offset="1" id="stop7996"/>
    </linearGradient>
    <linearGradient inkscape:collect="always" id="linearGradient7949">
      <stop style="stop-color:#626262;stop-opacity:1;" offset="0" id="stop7945"/>
      <stop style="stop-color:#626262;stop-opacity:0;" offset="1" id="stop7947"/>
    </linearGradient>
    <linearGradient id="linearGradient7937">
      <stop style="stop-color:#69c2b7;stop-opacity:1;" offset="0" id="stop7933"/>
      <stop style="stop-color:#64a5b5;stop-opacity:1;" offset="1" id="stop7935"/>
    </linearGradient>
    <linearGradient inkscape:collect="always" xlink:href="#linearGradient7949" id="linearGradient7951" x1="118" y1="160" x2="120" y2="160" gradientUnits="userSpaceOnUse"/>
    <linearGradient inkscape:collect="always" xlink:href="#linearGradient7937" id="linearGradient7973" gradientUnits="userSpaceOnUse" x1="164" y1="143.61456" x2="164" y2="180" gradientTransform="matrix(1.1292722,0,0,1.1292722,-20.7064,-15.965197)"/>
    <linearGradient inkscape:collect="always" xlink:href="#linearGradient7998" id="linearGradient8000" x1="196" y1="196" x2="159.99995" y2="160" gradientUnits="userSpaceOnUse"/>
    <linearGradient inkscape:collect="always" xlink:href="#linearGradient8021" id="linearGradient8023" x1="160.06299" y1="136" x2="160.06299" y2="118.48818" gradientUnits="userSpaceOnUse"/>
    <linearGradient gradientTransform="matrix(0.53332955,0,0,0.53332955,-61.351528,-61.866057)" inkscape:collect="always" xlink:href="#linearGradient8021" id="linearGradient8023-7" x1="160.06299" y1="136" x2="160.06299" y2="118.48818" gradientUnits="userSpaceOnUse"/>
    <linearGradient gradientTransform="matrix(0.53332955,0,0,0.53332955,-61.351528,-61.866057)" inkscape:collect="always" xlink:href="#linearGradient7998" id="linearGradient8000-5" x1="196" y1="196" x2="159.99995" y2="160" gradientUnits="userSpaceOnUse"/>
    <linearGradient gradientTransform="matrix(1.3333295,0,0,1.3333295,58.163328,57.829998)" inkscape:collect="always" xlink:href="#linearGradient8021" id="linearGradient8023-2" x1="160.06299" y1="136" x2="160.06299" y2="118.48818" gradientUnits="userSpaceOnUse"/>
    <linearGradient gradientTransform="matrix(1.3333295,0,0,1.3333295,58.163328,57.829998)" inkscape:collect="always" xlink:href="#linearGradient7998" id="linearGradient8000-7" x1="196" y1="196" x2="159.99995" y2="160" gradientUnits="userSpaceOnUse"/>
    <linearGradient gradientTransform="matrix(0.68888636,0,0,0.68888636,-30.221818,-30.910704)" inkscape:collect="always" xlink:href="#linearGradient8021" id="linearGradient8023-3" x1="160.06299" y1="136" x2="160.06299" y2="118.48818" gradientUnits="userSpaceOnUse"/>
    <linearGradient gradientTransform="matrix(0.68888636,0,0,0.68888636,-30.221818,-30.910704)" inkscape:collect="always" xlink:href="#linearGradient7998" id="linearGradient8000-6" x1="196" y1="196" x2="159.99995" y2="160" gradientUnits="userSpaceOnUse"/>
    <linearGradient inkscape:collect="always" xlink:href="#linearGradient7937" id="linearGradient10555" gradientUnits="userSpaceOnUse" gradientTransform="matrix(1.0735468,0,0,1.0735468,-13.860128,-5.0001125)" x1="164" y1="143.61456" x2="164" y2="180"/>
    <linearGradient gradientTransform="matrix(0.18550593,0,0,0.18550593,-93.68749,-93.866455)" inkscape:collect="always" xlink:href="#linearGradient7998" id="linearGradient8000-5-1-8" x1="196" y1="196" x2="159.99995" y2="160" gradientUnits="userSpaceOnUse"/>
    <linearGradient inkscape:collect="always" xlink:href="#linearGradient7937" id="linearGradient10642" gradientUnits="userSpaceOnUse" gradientTransform="matrix(0.21848582,0,0,0.21848582,-98.970103,-98.329383)" x1="161.60631" y1="106.77756" x2="161.60631" y2="142.73558"/>
    <linearGradient inkscape:collect="always" xlink:href="#linearGradient7937" id="linearGradient10642-0" gradientUnits="userSpaceOnUse" gradientTransform="matrix(0.32772866,0,0,0.32772866,-96.455136,-95.494062)" x1="164" y1="143.61456" x2="164" y2="180"/>
    <linearGradient inkscape:collect="always" xlink:href="#linearGradient8731" id="linearGradient8733" x1="162" y1="188.70297" x2="162" y2="145" gradientUnits="userSpaceOnUse"/>
    <linearGradient inkscape:collect="always" xlink:href="#linearGradient8739" id="linearGradient8741" x1="174" y1="144.17661" x2="174" y2="189.1181" gradientUnits="userSpaceOnUse"/>
    <linearGradient inkscape:collect="always" xlink:href="#linearGradient8731" id="linearGradient8881" gradientUnits="userSpaceOnUse" x1="162" y1="188.70297" x2="162" y2="145"/>
    <linearGradient inkscape:collect="always" xlink:href="#linearGradient8739" id="linearGradient8883" gradientUnits="userSpaceOnUse" x1="174" y1="144.17661" x2="174" y2="189.1181"/>
    <linearGradient inkscape:collect="always" xlink:href="#linearGradient7937" id="linearGradient8885" gradientUnits="userSpaceOnUse" gradientTransform="matrix(1.1292722,0,0,1.1292722,-20.7064,-15.965197)" x1="164" y1="143.61456" x2="164" y2="180"/>
    <linearGradient inkscape:collect="always" xlink:href="#linearGradient8731" id="linearGradient8913" gradientUnits="userSpaceOnUse" x1="162" y1="188.70297" x2="162" y2="145"/>
    <linearGradient inkscape:collect="always" xlink:href="#linearGradient8739" id="linearGradient8915" gradientUnits="userSpaceOnUse" x1="174" y1="144.17661" x2="174" y2="189.1181"/>
    <linearGradient inkscape:collect="always" xlink:href="#linearGradient7937" id="linearGradient8917" gradientUnits="userSpaceOnUse" gradientTransform="matrix(1.1292722,0,0,1.1292722,-20.7064,-15.965197)" x1="164" y1="143.61456" x2="164" y2="180"/>
    <linearGradient inkscape:collect="always" xlink:href="#linearGradient8739" id="linearGradient8969" gradientUnits="userSpaceOnUse" x1="174" y1="144.17661" x2="174" y2="189.1181"/>
    <linearGradient inkscape:collect="always" xlink:href="#linearGradient7937" id="linearGradient8971" gradientUnits="userSpaceOnUse" gradientTransform="matrix(1.1292722,0,0,1.1292722,-20.7064,-15.965197)" x1="164" y1="143.61456" x2="164" y2="180"/>
  </defs>
  <sodipodi:namedview pagecolor="#383c4a" bordercolor="#ffffff" borderopacity="0.62745098" objecttolerance="4" gridtolerance="10" guidetolerance="4" inkscape:pageopacity="0" inkscape:pageshadow="2" inkscape:window-width="640" inkscape:window-height="480" id="namedview20" showgrid="true" inkscape:zoom="16.386532" inkscape:cx="-17.861891" inkscape:cy="48.045217" inkscape:current-layer="g7814" inkscape:snap-smooth-nodes="true" showguides="true" borderlayer="true" inkscape:showpageshadow="false" inkscape:guide-bbox="true" guidecolor="#bd4fff" guideopacity="0.78431373" inkscape:snap-nodes="true" inkscape:lockguides="false" fit-margin-top="0" fit-margin-left="0" fit-margin-right="0" fit-margin-bottom="0" guidehicolor="#ff0101" guidehiopacity="0.78431373" inkscape:snap-page="true" inkscape:object-nodes="true" inkscape:snap-bbox="true" inkscape:snap-global="true" inkscape:snap-object-midpoints="false" inkscape:snap-bbox-edge-midpoints="false" inkscape:object-paths="false">
    <inkscape:grid type="xygrid" id="grid4171" empspacing="4" dotted="false" originx="2.7755576e-17" originy="0" spacingx="1" spacingy="1" color="#5a5a5a" opacity="0.23529412" empcolor="#5a5a5a" empopacity="0.47058824" visible="true"/>
    <inkscape:grid type="axonomgrid" id="grid4699" units="mm" empspacing="4" color="#5a5a5a" opacity="0.23529412" empcolor="#5a5a5a" empopacity="0.47058824" gridanglex="45" gridanglez="45" spacingy="3.7795276" visible="false" originx="1.3228346" originy="1.3228346"/>
    <sodipodi:guide position="48,0" orientation="1,0" id="guide4568" inkscape:locked="false" inkscape:label="" inkscape:color="rgb(189,79,255)"/>
    <sodipodi:guide position="111.99996,-3.9999999e-05" orientation="0,1" id="guide4570" inkscape:locked="false" inkscape:label="" inkscape:color="rgb(189,79,255)"/>
    <sodipodi:guide position="0,0" orientation="1,0" id="guide4572" inkscape:locked="false" inkscape:label="" inkscape:color="rgb(189,79,255)"/>
    <sodipodi:guide position="0,48" orientation="0,1" id="guide4574" inkscape:locked="false" inkscape:label="" inkscape:color="rgb(189,79,255)"/>
    <sodipodi:guide position="0,80" orientation="0,1" id="guide4576" inkscape:locked="false" inkscape:label="" inkscape:color="rgb(189,79,255)"/>
    <sodipodi:guide position="-32,48" orientation="1,0" id="guide4578" inkscape:locked="false" inkscape:label="" inkscape:color="rgb(189,79,255)"/>
    <sodipodi:guide position="-32,104" orientation="0,1" id="guide4580" inkscape:locked="false" inkscape:label="" inkscape:color="rgb(189,79,255)"/>
    <sodipodi:guide position="-56,80" orientation="1,0" id="guide4582" inkscape:locked="false" inkscape:label="" inkscape:color="rgb(189,79,255)"/>
    <sodipodi:guide position="48,-64" orientation="0,1" id="guide4584" inkscape:locked="false" inkscape:label="" inkscape:color="rgb(189,79,255)"/>
    <sodipodi:guide position="0,0" orientation="-0.70710678,0.70710678" id="guide4588" inkscape:locked="false" inkscape:label="" inkscape:color="rgb(189,79,255)"/>
    <sodipodi:guide position="-56,80" orientation="-0.70710678,0.70710678" id="guide4573" inkscape:locked="false" inkscape:label="" inkscape:color="rgb(189,79,255)"/>
    <sodipodi:guide position="-32,48" orientation="-0.70710678,0.70710678" id="guide4575" inkscape:locked="false" inkscape:label="" inkscape:color="rgb(189,79,255)"/>
    <sodipodi:guide position="48,-64" orientation="-0.70710678,0.70710678" id="guide4577" inkscape:locked="false" inkscape:label="" inkscape:color="rgb(189,79,255)"/>
    <sodipodi:guide position="47.999962,0" orientation="0.70710678,0.70710678" id="guide4697" inkscape:locked="false" inkscape:label="" inkscape:color="rgb(189,79,255)"/>
    <sodipodi:guide position="207.99995,-288" orientation="0,1" id="guide7833" inkscape:locked="false"/>
    <sodipodi:guide position="335.99994,-288" orientation="1,0" id="guide7835" inkscape:locked="false" inkscape:label="" inkscape:color="rgb(189,79,255)"/>
    <sodipodi:guide position="111.99996,-64" orientation="1,0" id="guide7915" inkscape:locked="false"/>
    <sodipodi:guide position="111.99996,-160" orientation="0,1" id="guide7917" inkscape:locked="false"/>
    <sodipodi:guide position="207.99996,-160" orientation="1,0" id="guide7919" inkscape:locked="false"/>
    <sodipodi:guide position="111.99996,-160" orientation="-0.70710678,0.70710678" id="guide7921" inkscape:locked="false" inkscape:label="" inkscape:color="rgb(189,79,255)"/>
    <sodipodi:guide position="207.99996,-288" orientation="-0.70710678,0.70710678" id="guide7923" inkscape:locked="false" inkscape:label="" inkscape:color="rgb(189,79,255)"/>
    <sodipodi:guide position="-72,104" orientation="1,0" id="guide7824" inkscape:locked="false"/>
    <sodipodi:guide position="-56,120" orientation="0,1" id="guide7826" inkscape:locked="false"/>
    <sodipodi:guide position="-72,104" orientation="-0.70710678,0.70710678" id="guide7828" inkscape:locked="false" inkscape:label="" inkscape:color="rgb(189,79,255)"/>
  </sodipodi:namedview>
  <g style="display:inline" inkscape:label="icon_96" id="g8840" inkscape:groupmode="layer" transform="translate(-111.99996,-112)">
    <g style="display:none" inkscape:label="frame" id="g8776" inkscape:groupmode="layer">
      <rect style="color:#000000;clip-rule:nonzero;display:inline;overflow:visible;visibility:visible;opacity:1;isolation:auto;mix-blend-mode:normal;color-interpolation:sRGB;color-interpolation-filters:linearRGB;solid-color:#000000;solid-opacity:1;vector-effect:none;fill:#000000;fill-opacity:1;fill-rule:nonzero;stroke:#ff24f7;stroke-width:0;stroke-linecap:square;stroke-linejoin:miter;stroke-miterlimit:4;stroke-dasharray:none;stroke-dashoffset:0;stroke-opacity:0.99481865;marker:none;marker-start:none;marker-mid:none;marker-end:none;paint-order:normal;color-rendering:auto;image-rendering:auto;shape-rendering:auto;text-rendering:auto;enable-background:accumulate" id="rect_96" width="96" height="96" x="111.99996" y="112" inkscape:label="frame_96"/>
      <text inkscape:label="txt_96" id="text_96" y="168.73633" x="144.72458" style="font-size:24px;line-height:0%;font-family:sans-serif;letter-spacing:0px;word-spacing:0px;display:inline;opacity:1;fill:#ffffff;fill-opacity:1;stroke:none;stroke-width:0.04917826px;stroke-linecap:butt;stroke-linejoin:miter;stroke-opacity:1" xml:space="preserve">
        <tspan id="tspan8768" style="font-size:24px;line-height:0%;fill:#ffffff;fill-opacity:1;stroke:none;stroke-width:0.04917826px" y="168.73633" x="144.72458" sodipodi:role="line">96</tspan>
      </text>
    </g>
    <g style="display:inline" inkscape:label="icon" id="g8838" inkscape:groupmode="layer">
      <path style="color:#000000;clip-rule:nonzero;display:inline;overflow:visible;visibility:visible;opacity:1;isolation:auto;mix-blend-mode:normal;color-interpolation:sRGB;color-interpolation-filters:linearRGB;solid-color:#000000;solid-opacity:1;vector-effect:none;fill:#000000;fill-opacity:0.10196078;fill-rule:nonzero;stroke:none;stroke-width:0.60000002;stroke-linecap:butt;stroke-linejoin:miter;stroke-miterlimit:4;stroke-dasharray:none;stroke-dashoffset:0;stroke-opacity:0.58333333;marker:none;marker-start:none;marker-mid:none;marker-end:none;paint-order:normal;color-rendering:auto;image-rendering:auto;shape-rendering:auto;text-rendering:auto;enable-background:accumulate" d="m 124,117 h 72 c 4.432,0 7,2.568 7,7 v 74 c 0,4.432 -2.568,7 -7,7 h -72 c -4.432,0 -7,-2.568 -7,-7 v -74 c 0,-4.432 2.568,-7 7,-7 z" id="rect7905" inkscape:connector-curvature="0" inkscape:label="base sombra" sodipodi:nodetypes="sssssssss"/>
      <path inkscape:label="hojas" sodipodi:nodetypes="csssscc" inkscape:connector-curvature="0" id="path7990" d="m 202,190 v 8 c 0,3.324 -2.676,6 -6,6 h -72 c -3.324,0 -6,-2.676 -6,-6 v -8 z" style="color:#000000;clip-rule:nonzero;display:block;overflow:visible;visibility:visible;opacity:1;isolation:auto;mix-blend-mode:normal;color-interpolation:sRGB;color-interpolation-filters:linearRGB;solid-color:#000000;solid-opacity:1;vector-effect:none;fill:#696969;fill-opacity:1;fill-rule:nonzero;stroke:none;stroke-width:0.57272732;stroke-linecap:butt;stroke-linejoin:miter;stroke-miterlimit:4;stroke-dasharray:none;stroke-dashoffset:0;stroke-opacity:0.58333333;marker:none;marker-start:none;marker-mid:none;marker-end:none;paint-order:normal;color-rendering:auto;image-rendering:auto;shape-rendering:auto;text-rendering:auto;enable-background:accumulate"/>
      <path style="color:#000000;clip-rule:nonzero;display:block;overflow:visible;visibility:visible;opacity:1;isolation:auto;mix-blend-mode:normal;color-interpolation:sRGB;color-interpolation-filters:linearRGB;solid-color:#000000;solid-opacity:1;vector-effect:none;fill:#a5a5a5;fill-opacity:1;fill-rule:nonzero;stroke:none;stroke-width:0.57272732;stroke-linecap:butt;stroke-linejoin:miter;stroke-miterlimit:4;stroke-dasharray:none;stroke-dashoffset:0;stroke-opacity:0.58333333;marker:none;marker-start:none;marker-mid:none;marker-end:none;paint-order:normal;color-rendering:auto;image-rendering:auto;shape-rendering:auto;text-rendering:auto;enable-background:accumulate" d="m 202,188 v 8 c 0,3.324 -2.676,6 -6,6 h -72 c -3.324,0 -6,-2.676 -6,-6 v -8 z" id="rect7924" inkscape:connector-curvature="0" sodipodi:nodetypes="csssscc" inkscape:label="hojas"/>
      <path style="color:#000000;clip-rule:nonzero;display:block;overflow:visible;visibility:visible;opacity:1;isolation:auto;mix-blend-mode:normal;color-interpolation:sRGB;color-interpolation-filters:linearRGB;solid-color:#000000;solid-opacity:1;vector-effect:none;fill:url(#linearGradient8000);fill-opacity:1;fill-rule:nonzero;stroke:none;stroke-width:0.57272732;stroke-linecap:butt;stroke-linejoin:miter;stroke-miterlimit:4;stroke-dasharray:none;stroke-dashoffset:0;stroke-opacity:0.58333333;marker:none;marker-start:none;marker-mid:none;marker-end:none;paint-order:normal;color-rendering:auto;image-rendering:auto;shape-rendering:auto;text-rendering:auto;enable-background:accumulate" d="m 124,118 h 72 c 3.324,0 6,2.676 6,6 v 69 c 0,3.324 -2.676,6 -6,6 h -72 c -3.324,0 -6,-2.676 -6,-6 v -69 c 0,-3.324 2.676,-6 6,-6 z" id="rect7907" inkscape:connector-curvature="0" inkscape:label="base" sodipodi:nodetypes="sssssssss"/>
      <path style="color:#000000;clip-rule:nonzero;display:block;overflow:visible;visibility:visible;opacity:1;isolation:auto;mix-blend-mode:normal;color-interpolation:sRGB;color-interpolation-filters:linearRGB;solid-color:#000000;solid-opacity:1;vector-effect:none;fill:url(#linearGradient8023);fill-opacity:1;fill-rule:nonzero;stroke:none;stroke-width:0.57272732;stroke-linecap:butt;stroke-linejoin:miter;stroke-miterlimit:4;stroke-dasharray:none;stroke-dashoffset:0;stroke-opacity:0.58333333;marker:none;marker-start:none;marker-mid:none;marker-end:none;paint-order:normal;color-rendering:auto;image-rendering:auto;shape-rendering:auto;text-rendering:auto;enable-background:accumulate" d="m 124,118 c -3.324,0 -6,2.676 -6,6 v 12 h 84 v -12 c 0,-3.324 -2.676,-6 -6,-6 z m 24,6 a 4,4 0 0 1 4,4 4,4 0 0 1 -4,4 4,4 0 0 1 -4,-4 4,4 0 0 1 4,-4 z m 24,0 a 4,4 0 0 1 4,4 4,4 0 0 1 -4,4 4,4 0 0 1 -4,-4 4,4 0 0 1 4,-4 z" id="rect7917" inkscape:connector-curvature="0" inkscape:label="top"/>
      <path style="font-size:medium;line-height:1000%;font-family:sans-serif;letter-spacing:0px;word-spacing:0px;fill:#3ca0a0;fill-opacity:0.56770833;stroke:none;stroke-width:0.28785431px;stroke-linecap:butt;stroke-linejoin:miter;stroke-opacity:1" d="m 184.91602,191.07227 v 3.35742 h 0.93359 c 0.64767,0 1.12579,-0.13685 1.43164,-0.40821 0.30584,-0.27136 0.45898,-0.69668 0.45898,-1.27539 0,-0.5757 -0.15268,-0.99771 -0.45703,-1.26757 -0.30434,-0.27136 -0.78292,-0.40625 -1.43359,-0.40625 z m 0.45507,0.37304 h 0.54883 c 0.46327,0 0.80123,0.10456 1.01563,0.31446 0.21589,0.20839 0.32422,0.53655 0.32422,0.98632 0,0.45278 -0.10833,0.78425 -0.32422,0.99414 -0.2144,0.2099 -0.55236,0.31446 -1.01563,0.31446 h -0.54883 z m 3.95508,0.4043 c -0.13493,0 -0.27359,0.0149 -0.41601,0.0449 -0.14243,0.0285 -0.28803,0.0724 -0.43946,0.13086 v 0.38086 c 0.12594,-0.069 0.25615,-0.11983 0.39258,-0.1543 0.13643,-0.0345 0.27795,-0.0508 0.42188,-0.0508 0.22638,0 0.40095,0.0513 0.52539,0.15625 0.12593,0.10345 0.18945,0.25101 0.18945,0.44141 v 0.041 h -0.58008 c -0.3763,0 -0.66115,0.0709 -0.85156,0.21485 -0.1889,0.14393 -0.2832,0.35727 -0.2832,0.64062 0,0.24288 0.0771,0.43661 0.22851,0.58203 0.15293,0.14393 0.35737,0.2168 0.61524,0.2168 0.2039,0 0.37665,-0.0354 0.51757,-0.10742 0.14093,-0.0735 0.25907,-0.18692 0.35352,-0.33984 v 0.38281 h 0.41406 v -1.4375 c 0,-0.38381 -0.0916,-0.67047 -0.27148,-0.85938 -0.17992,-0.1889 -0.45209,-0.2832 -0.81641,-0.2832 z m 1.64453,0.0605 1.01953,2.47851 -0.0742,0.18945 c -0.0765,0.20088 -0.14606,0.32686 -0.20899,0.38086 -0.063,0.054 -0.15168,0.082 -0.26562,0.082 h -0.24414 v 0.3457 h 0.33203 c 0.1859,0 0.33436,-0.0453 0.44531,-0.13672 0.11095,-0.0915 0.22486,-0.28804 0.3418,-0.58789 l 1.10547,-2.75195 h -0.4375 l -0.78711,1.9707 -0.78711,-1.9707 z m -1.38281,1.25195 H 190 v 0.0937 c 0,0.26987 -0.0696,0.48502 -0.20898,0.64844 -0.13794,0.16192 -0.3214,0.24414 -0.55079,0.24414 -0.16641,0 -0.29903,-0.0435 -0.39648,-0.12891 -0.0959,-0.087 -0.14453,-0.20463 -0.14453,-0.35156 0,-0.18441 0.0644,-0.31417 0.19336,-0.39063 0.12893,-0.0765 0.36098,-0.11523 0.69531,-0.11523 z" id="path8051" inkscape:connector-curvature="0" inkscape:label="day"/>
      <path style="font-size:medium;line-height:1000%;font-family:sans-serif;letter-spacing:0px;word-spacing:0px;display:inline;fill:#000000;fill-opacity:0.515625;stroke:none;stroke-width:0.33846757px;stroke-linecap:butt;stroke-linejoin:miter;stroke-opacity:1" d="m 161.90039,138.58203 v 4.11524 h 0.48633 v -4.11524 z m -5.01367,0.16797 v 3.67188 c 0,0.34199 -0.0495,0.57872 -0.14649,0.71093 -0.0969,0.13222 -0.26182,0.19922 -0.49804,0.19922 h -0.16797 v 0.44922 h 0.20508 c 0.40016,0 0.68932,-0.1072 0.86914,-0.32227 0.18157,-0.21506 0.27148,-0.56114 0.27148,-1.0371 V 138.75 Z m 1.52539,0.98633 v 1.79297 c 0,0.40722 0.0893,0.71619 0.26562,0.92773 0.17629,0.21154 0.43321,0.31641 0.77344,0.31641 0.20626,0 0.38784,-0.0425 0.54297,-0.12891 0.15689,-0.0881 0.294,-0.22253 0.41211,-0.40234 v 0.45508 h 0.48633 v -2.96094 h -0.48633 v 1.67773 c 0,0.28911 -0.0771,0.51808 -0.23047,0.68555 -0.15161,0.16747 -0.35843,0.25195 -0.62109,0.25195 -0.2186,0 -0.3829,-0.0697 -0.49219,-0.20898 -0.1093,-0.14103 -0.16406,-0.35252 -0.16406,-0.63281 v -1.77344 z m 4.64062,0 1.19727,2.91406 -0.0859,0.2207 c -0.0899,0.23622 -0.17205,0.38771 -0.24609,0.45118 -0.074,0.0635 -0.17853,0.0937 -0.3125,0.0937 h -0.28516 v 0.4082 h 0.38867 c 0.2186,0 0.393,-0.0546 0.52344,-0.16211 0.13046,-0.10753 0.26485,-0.33689 0.40235,-0.68945 l 1.30078,-3.23633 h -0.51563 l -0.92578,2.3164 -0.92578,-2.3164 z" id="path8037" inkscape:connector-curvature="0" inkscape:label="july"/>
      <path style="color:#000000;clip-rule:nonzero;display:block;overflow:visible;visibility:visible;opacity:1;isolation:auto;mix-blend-mode:normal;color-interpolation:sRGB;color-interpolation-filters:linearRGB;solid-color:#000000;solid-opacity:1;vector-effect:none;fill:#ffffff;fill-opacity:0.49479167;fill-rule:nonzero;stroke:none;stroke-width:0.57272732;stroke-linecap:butt;stroke-linejoin:miter;stroke-miterlimit:4;stroke-dasharray:none;stroke-dashoffset:0;stroke-opacity:0.58333333;marker:none;marker-start:none;marker-mid:none;marker-end:none;paint-order:normal;color-rendering:auto;image-rendering:auto;shape-rendering:auto;text-rendering:auto;enable-background:accumulate" d="m 118,192 v 1 c 0,3.324 2.676,6 6,6 h 72 c 3.324,0 6,-2.676 6,-6 v -1 c 0,3.324 -2.676,6 -6,6 h -72 c -3.324,0 -6,-2.676 -6,-6 z" id="path9759" inkscape:connector-curvature="0"/>
      <path inkscape:connector-curvature="0" id="path9764" d="m 118,195 v 1 c 0,3.324 2.676,6 6,6 h 72 c 3.324,0 6,-2.676 6,-6 v -1 c 0,3.324 -2.676,6 -6,6 h -72 c -3.324,0 -6,-2.676 -6,-6 z" style="color:#000000;clip-rule:nonzero;display:block;overflow:visible;visibility:visible;opacity:1;isolation:auto;mix-blend-mode:normal;color-interpolation:sRGB;color-interpolation-filters:linearRGB;solid-color:#000000;solid-opacity:1;vector-effect:none;fill:#ffffff;fill-opacity:0.20833333;fill-rule:nonzero;stroke:none;stroke-width:0.57272732;stroke-linecap:butt;stroke-linejoin:miter;stroke-miterlimit:4;stroke-dasharray:none;stroke-dashoffset:0;stroke-opacity:0.58333333;marker:none;marker-start:none;marker-mid:none;marker-end:none;paint-order:normal;color-rendering:auto;image-rendering:auto;shape-rendering:auto;text-rendering:auto;enable-background:accumulate"/>
      <path style="color:#000000;clip-rule:nonzero;display:block;overflow:visible;visibility:visible;opacity:1;isolation:auto;mix-blend-mode:normal;color-interpolation:sRGB;color-interpolation-filters:linearRGB;solid-color:#000000;solid-opacity:1;vector-effect:none;fill:#ffffff;fill-opacity:0.09895833;fill-rule:nonzero;stroke:none;stroke-width:0.57272732;stroke-linecap:butt;stroke-linejoin:miter;stroke-miterlimit:4;stroke-dasharray:none;stroke-dashoffset:0;stroke-opacity:0.58333333;marker:none;marker-start:none;marker-mid:none;marker-end:none;paint-order:normal;color-rendering:auto;image-rendering:auto;shape-rendering:auto;text-rendering:auto;enable-background:accumulate" d="m 118,197 v 1 c 0,3.324 2.676,6 6,6 h 72 c 3.324,0 6,-2.676 6,-6 v -1 c 0,3.324 -2.676,6 -6,6 h -72 c -3.324,0 -6,-2.676 -6,-6 z" id="path9766" inkscape:connector-curvature="0"/>
      <g id="g8065" inkscape:label="circle">
        <path inkscape:label="circle" inkscape:connector-curvature="0" id="circle7931" d="m 148,124 a 4,4 0 0 0 -4,4 4,4 0 0 0 4,4 4,4 0 0 0 4,-4 4,4 0 0 0 -4,-4 z m 24,0 a 4,4 0 0 0 -4,4 4,4 0 0 0 4,4 4,4 0 0 0 4,-4 4,4 0 0 0 -4,-4 z" style="color:#000000;clip-rule:nonzero;display:block;overflow:visible;visibility:visible;opacity:1;isolation:auto;mix-blend-mode:normal;color-interpolation:sRGB;color-interpolation-filters:linearRGB;solid-color:#000000;solid-opacity:1;vector-effect:none;fill:#ffffff;fill-opacity:0.92708333;fill-rule:nonzero;stroke:none;stroke-width:1.20000005;stroke-linecap:butt;stroke-linejoin:miter;stroke-miterlimit:4;stroke-dasharray:none;stroke-dashoffset:0;stroke-opacity:0.58333333;marker:none;marker-start:none;marker-mid:none;marker-end:none;paint-order:normal;color-rendering:auto;image-rendering:auto;shape-rendering:auto;text-rendering:auto;enable-background:accumulate"/>
        <path inkscape:connector-curvature="0" id="path8002" d="m 148,124 a 4,4 0 0 0 -4,4 4,4 0 0 0 0.0352,0.50586 A 4,4 0 0 1 148,125 4,4 0 0 1 151.96484,128.49414 4,4 0 0 0 152,128 a 4,4 0 0 0 -4,-4 z m 24,0 a 4,4 0 0 0 -4,4 4,4 0 0 0 0.0352,0.50586 A 4,4 0 0 1 172,125 4,4 0 0 1 175.96484,128.49414 4,4 0 0 0 176,128 a 4,4 0 0 0 -4,-4 z" style="color:#000000;clip-rule:nonzero;display:block;overflow:visible;visibility:visible;opacity:1;isolation:auto;mix-blend-mode:normal;color-interpolation:sRGB;color-interpolation-filters:linearRGB;solid-color:#000000;solid-opacity:1;vector-effect:none;fill:#000000;fill-opacity:0.40104167;fill-rule:nonzero;stroke:none;stroke-width:1.20000005;stroke-linecap:butt;stroke-linejoin:miter;stroke-miterlimit:4;stroke-dasharray:none;stroke-dashoffset:0;stroke-opacity:0.58333333;marker:none;marker-start:none;marker-mid:none;marker-end:none;paint-order:normal;color-rendering:auto;image-rendering:auto;shape-rendering:auto;text-rendering:auto;enable-background:accumulate"/>
        <path style="color:#000000;clip-rule:nonzero;display:block;overflow:visible;visibility:visible;opacity:1;isolation:auto;mix-blend-mode:normal;color-interpolation:sRGB;color-interpolation-filters:linearRGB;solid-color:#000000;solid-opacity:1;vector-effect:none;fill:#e6e6e6;fill-opacity:0.29166667;fill-rule:nonzero;stroke:none;stroke-width:1.20000005;stroke-linecap:butt;stroke-linejoin:miter;stroke-miterlimit:4;stroke-dasharray:none;stroke-dashoffset:0;stroke-opacity:0.58333333;marker:none;marker-start:none;marker-mid:none;marker-end:none;paint-order:normal;color-rendering:auto;image-rendering:auto;shape-rendering:auto;text-rendering:auto;enable-background:accumulate" d="m 148,131.9865 a 4,4 0 0 1 -4,-4 4,4 0 0 1 0.0352,-0.50586 4,4 0 0 0 3.9648,3.50586 4,4 0 0 0 3.96484,-3.49414 4,4 0 0 1 0.0352,0.49414 4,4 0 0 1 -4,4 z m 24,0 a 4,4 0 0 1 -4,-4 4,4 0 0 1 0.0352,-0.50586 4,4 0 0 0 3.9648,3.50586 4,4 0 0 0 3.96484,-3.49414 4,4 0 0 1 0.0352,0.49414 4,4 0 0 1 -4,4 z" id="path8007" inkscape:connector-curvature="0"/>
      </g>
      <g id="g8070" inkscape:label="30">
        <path style="color:#000000;font-style:normal;font-variant:normal;font-weight:normal;font-stretch:normal;font-size:medium;line-height:1000%;font-family:Roboto;-inkscape-font-specification:Roboto;font-variant-ligatures:normal;font-variant-position:normal;font-variant-caps:normal;font-variant-numeric:normal;font-variant-alternates:normal;font-feature-settings:normal;text-indent:0;text-align:start;text-decoration:none;text-decoration-line:none;text-decoration-style:solid;text-decoration-color:#000000;letter-spacing:0px;word-spacing:0px;text-transform:none;writing-mode:lr-tb;direction:ltr;text-orientation:mixed;dominant-baseline:auto;baseline-shift:baseline;text-anchor:start;white-space:normal;shape-padding:0;clip-rule:nonzero;display:inline;overflow:visible;visibility:visible;opacity:1;isolation:auto;mix-blend-mode:normal;color-interpolation:sRGB;color-interpolation-filters:linearRGB;solid-color:#000000;solid-opacity:1;vector-effect:none;fill:url(#linearGradient8733);fill-opacity:1;fill-rule:nonzero;stroke:url(#linearGradient8741);stroke-width:0.60000002;stroke-linecap:butt;stroke-linejoin:miter;stroke-miterlimit:4;stroke-dasharray:none;stroke-dashoffset:0;stroke-opacity:0.44791667;color-rendering:auto;image-rendering:auto;shape-rendering:auto;text-rendering:auto;enable-background:accumulate" d="m 144.03906,144.3457 c -3.93275,0 -7.39766,1.21233 -10.0664,3.62891 -2.64595,2.3945 -4.05469,5.61585 -4.05469,9.22461 v 1.76562 h 8.63281 v -1.76562 c 0,-1.70813 0.46072,-2.80374 1.41406,-3.7168 0.97046,-0.93002 2.20599,-1.41406 4.07422,-1.41406 2.04938,0 3.26851,0.48642 4.02539,1.24609 0.75689,0.75968 1.24414,1.98809 1.24414,4.04883 0,1.70915 -0.47255,2.77734 -1.48047,3.67774 -1.00508,0.89785 -2.42003,1.42278 -4.5332,1.45507 h -5.57031 v 7.69532 h 5.58789 c 2.42565,0.0355 4.03182,0.60267 5.05664,1.49609 1.02421,0.8929 1.54492,2.07236 1.54492,4.04688 0,2.09103 -0.51698,3.38725 -1.42968,4.2871 -0.90976,0.89693 -2.25885,1.42188 -4.41602,1.42188 -1.99468,0 -3.33307,-0.50229 -4.34961,-1.4375 -1.01966,-0.93808 -1.5,-2.04448 -1.5,-3.77539 v -1.76563 h -8.66016 v 1.76563 c 0,3.76083 1.42579,7.06368 4.14063,9.41797 l 0.002,0.002 0.002,0.002 c 2.72271,2.3428 6.27699,3.48828 10.36524,3.48828 4.09972,0 7.66109,-1.19528 10.36328,-3.62304 2.72488,-2.44813 4.11719,-5.90389 4.11719,-9.89258 0,-2.63663 -0.71203,-5.0373 -2.16602,-6.98047 l -0.002,-0.002 c -0.75905,-1.02707 -1.71671,-1.87161 -2.80078,-2.58008 0.89879,-0.7176 1.68527,-1.55766 2.33984,-2.51172 1.30542,-1.87665 2.02149,-3.94854 2.02149,-6.07617 0,-3.92221 -1.25346,-7.28803 -3.78711,-9.64844 -2.52992,-2.35693 -6.01586,-3.48047 -10.11524,-3.48047 z m 32.30078,0 c -4.74556,0 -8.65189,1.69273 -11.03711,5.04492 -2.37275,3.33467 -3.38867,8.07341 -3.38867,14.17969 v 6.82422 l 0.002,0.0117 c 0.0762,5.85589 1.15318,10.46479 3.53125,13.75586 l 0.002,0.002 0.002,0.002 c 2.40219,3.30302 6.27171,4.97461 10.94531,4.9746 4.7338,0 8.63603,-1.72023 11.01563,-5.10742 2.36867,-3.37161 3.38281,-8.16252 3.38281,-14.33984 v -6.62695 -0.01 c -0.0571,-5.97618 -1.10419,-10.60077 -3.48828,-13.82617 l -0.002,-0.002 c -2.39353,-3.25437 -6.26666,-4.88282 -10.96485,-4.88282 z m 0,7.72266 c 2.18587,0 3.34223,0.63137 4.25977,2.13281 l 0.002,0.004 0.002,0.004 c 0.91034,1.47587 1.55664,4.34947 1.55664,8.50586 v 8.33594 c -0.053,4.02371 -0.72348,6.81721 -1.65625,8.29297 l -0.004,0.006 -0.002,0.004 c -0.92366,1.48344 -2.03691,2.08984 -4.10157,2.08984 -2.07907,0 -3.23852,-0.63949 -4.22851,-2.24219 -0.96833,-1.61453 -1.62109,-4.54322 -1.62109,-8.70703 v -8.14844 c 0.0353,-3.9126 0.67341,-6.66205 1.59179,-8.17382 0.89897,-1.47985 2.0332,-2.10352 4.20117,-2.10352 z" id="path7980" inkscape:connector-curvature="0" sodipodi:nodetypes="ccsccscsssccccccscsssccscccscsccccsccccsscccccccsccccccccccsccccscscccc"/>
        <path inkscape:label="30" inkscape:connector-curvature="0" id="path7968" d="m 144.03942,145.9817 c -3.58586,0 -6.54659,1.05693 -8.882,3.17167 -2.31701,2.09635 -3.47383,4.73463 -3.47383,7.91593 h 5.10157 c 0,-2.07796 0.65297,-3.74084 1.95859,-4.9913 1.324,-1.26884 3.08898,-1.90344 5.29567,-1.90344 4.6892,0 7.03368,2.35257 7.03368,7.06016 0,2.09635 -0.68968,3.76144 -2.06886,4.9935 -1.37917,1.23203 -3.27269,1.86663 -5.68165,1.90344 h -3.83335 v 4.16419 h 3.83335 c 2.70318,0.0368 4.77223,0.68166 6.20659,1.93212 1.43433,1.25044 2.15046,3.04186 2.15046,5.37727 0,2.40896 -0.65075,4.25767 -1.95637,5.5449 -1.30562,1.28723 -3.19105,1.92992 -5.65518,1.92992 -2.31702,0 -4.16573,-0.63461 -5.54491,-1.90345 -1.37918,-1.26883 -2.06886,-2.96037 -2.06886,-5.0751 h -5.13025 c 0,3.3468 1.17739,6.04237 3.53119,8.08355 2.37218,2.04119 5.44308,3.06139 9.21283,3.06139 3.76975,0 6.83037,-1.05693 9.18415,-3.17167 2.3538,-2.11474 3.53119,-4.97557 3.53119,-8.57982 0,-2.3354 -0.60595,-4.31265 -1.81963,-5.93088 -1.19529,-1.61824 -2.8971,-2.77506 -5.10378,-3.47384 1.94924,-0.80911 3.48578,-2.0335 4.60751,-3.67014 1.14013,-1.63662 1.70936,-3.32814 1.70936,-5.0751 0,-3.56748 -1.07529,-6.35266 -3.22682,-8.35706 -2.15151,-2.0044 -5.12252,-3.00624 -8.91065,-3.00624 z m 32.30114,0 c -4.3582,0 -7.55763,1.43445 -9.59881,4.30314 -2.04118,2.86868 -3.06138,7.25359 -3.06138,13.15646 v 6.81313 c 0.0735,5.64543 1.13857,9.89372 3.19814,12.74402 2.05956,2.83191 5.23256,4.248 9.5172,4.248 4.33981,0 7.53116,-1.45282 9.57234,-4.35829 2.04118,-2.90546 3.06139,-7.34765 3.06139,-13.32408 v -6.61903 c -0.0552,-5.77415 -1.10401,-10.0408 -3.14519,-12.79916 -2.04119,-2.77675 -5.22227,-4.16419 -9.54369,-4.16419 z m 0,4.19286 c 2.62964,0 4.5518,0.99157 5.76547,2.97757 1.21367,1.96764 1.81963,5.11198 1.81963,9.4334 v 8.35926 c -0.0552,4.1927 -0.69785,7.2636 -1.9299,9.21284 -1.21368,1.94923 -3.08076,2.92243 -5.60005,2.92243 -2.55608,0 -4.46795,-1.02829 -5.7368,-3.08786 -1.25044,-2.07796 -1.87696,-5.28768 -1.87696,-9.62749 v -8.16516 c 0.0368,-4.08237 0.653,-7.10627 1.84829,-9.07388 1.19529,-1.96763 3.09909,-2.95111 5.71032,-2.95111 z" style="font-style:normal;font-variant:normal;font-weight:normal;font-stretch:normal;font-size:medium;line-height:1000%;font-family:Roboto;-inkscape-font-specification:Roboto;letter-spacing:0px;word-spacing:0px;display:inline;fill:url(#linearGradient7973);fill-opacity:1;stroke:none;stroke-width:3.53069162px;stroke-linecap:butt;stroke-linejoin:miter;stroke-opacity:1"/>
        <path style="font-style:normal;font-variant:normal;font-weight:normal;font-stretch:normal;font-size:medium;line-height:1000%;font-family:Roboto;-inkscape-font-specification:Roboto;letter-spacing:0px;word-spacing:0px;display:inline;fill:#000000;fill-opacity:0.15104167;stroke:none;stroke-width:3.53069162px;stroke-linecap:butt;stroke-linejoin:miter;stroke-opacity:1" d="m 144.03906,149.17383 c -2.20669,0 -3.97092,0.63545 -5.29492,1.90429 -1.30562,1.25046 -1.95898,2.91228 -1.95898,4.99024 h -5.05469 c -0.0266,0.32856 -0.0469,0.65896 -0.0469,1 h 5.10157 c 0,-2.07796 0.65336,-3.73978 1.95898,-4.99024 1.324,-1.26884 3.08823,-1.90429 5.29492,-1.90429 4.49717,0 6.83147,2.17018 7.01563,6.5 0.007,-0.14596 0.0176,-0.28905 0.0176,-0.43945 0,-4.70759 -2.34401,-7.06055 -7.03321,-7.06055 z m 32.30078,0 c -2.61123,0 -4.51369,0.98354 -5.70898,2.95117 -1.19529,1.96761 -1.81281,4.99185 -1.84961,9.07422 v 1 c 0.0368,-4.08237 0.65432,-7.10661 1.84961,-9.07422 1.19529,-1.96763 3.09775,-2.95117 5.70898,-2.95117 2.62964,0 4.55196,0.99251 5.76563,2.97851 1.21367,1.96764 1.82031,5.11218 1.82031,9.4336 v -1 c 0,-4.32142 -0.60664,-7.46596 -1.82031,-9.4336 -1.21367,-1.986 -3.13599,-2.97851 -5.76563,-2.97851 z m -20.18164,7.65429 c -0.0955,1.57619 -0.65666,3.10646 -1.6914,4.5918 -1.12173,1.63664 -2.65818,2.86081 -4.60742,3.66992 0.40555,0.12843 0.78871,0.27812 1.16015,0.4375 1.40729,-0.77747 2.55907,-1.81151 3.44727,-3.10742 1.14013,-1.63662 1.71093,-3.32726 1.71093,-5.07422 0,-0.17716 -0.0142,-0.34427 -0.0195,-0.51758 z m -16.66992,10.4668 v 1 h 3.83399 c 2.70318,0.0368 4.77267,0.68314 6.20703,1.9336 1.33375,1.16275 2.03746,2.79966 2.13086,4.90039 0.007,-0.17351 0.0195,-0.3437 0.0195,-0.52344 0,-2.33541 -0.71606,-4.12651 -2.15039,-5.37695 -1.43436,-1.25046 -3.50385,-1.8968 -6.20703,-1.9336 z m 49.54102,1.26953 c 0,5.97643 -1.01937,10.41876 -3.06055,13.32422 -2.04118,2.90547 -5.23246,4.35742 -9.57227,4.35742 -4.28464,0 -7.45801,-1.41613 -9.51757,-4.24804 -2.05957,-2.8503 -3.12572,-7.09871 -3.19922,-12.74414 v 1 c 0.0735,5.64543 1.13965,9.89384 3.19922,12.74414 2.05956,2.83191 5.23293,4.24804 9.51757,4.24804 4.33981,0 7.53109,-1.45195 9.57227,-4.35742 2.04118,-2.90546 3.06055,-7.34779 3.06055,-13.32422 z m -32.26368,6.36524 c -0.0932,3.39655 -1.25707,6.11712 -3.51367,8.14453 -2.35378,2.11474 -5.41384,3.17187 -9.18359,3.17187 -3.76975,0 -6.84071,-1.01935 -9.21289,-3.06054 -2.11354,-1.83283 -3.27051,-4.19822 -3.48633,-7.08399 h -0.0449 c 0,3.3468 1.17745,6.04281 3.53125,8.08399 2.37218,2.04119 5.44314,3.06054 9.21289,3.06054 3.76975,0 6.82981,-1.05713 9.18359,-3.17187 2.3538,-2.11474 3.53125,-4.97583 3.53125,-8.58008 0,-0.19217 -0.009,-0.37713 -0.0176,-0.56445 z" id="path8743" inkscape:connector-curvature="0"/>
      </g>
    </g>
  </g>
</svg>