<?xml version="1.0" encoding="UTF-8" standalone="yes"?>
<svg xmlns:dc="http://purl.org/dc/elements/1.1/" xmlns:cc="http://creativecommons.org/ns#" xmlns:rdf="http://www.w3.org/1999/02/22-rdf-syntax-ns#" xmlns:svg="http://www.w3.org/2000/svg" xmlns="http://www.w3.org/2000/svg" xmlns:xlink="http://www.w3.org/1999/xlink" xmlns:sodipodi="http://sodipodi.sourceforge.net/DTD/sodipodi-0.dtd" xmlns:inkscape="http://www.inkscape.org/namespaces/inkscape" height="128" viewBox="0 0 128 128" width="128" id="svg2" version="1.1" inkscape:version="0.92.2 5c3e80d, 2017-08-06" sodipodi:docname="gnome-disks.svg" enable-background="new" folder="128">
  <title id="title4675">Template icons dark</title>
  <metadata id="metadata24">
    <rdf:RDF>
      <cc:Work rdf:about="">
        <dc:format>image/svg+xml</dc:format>
        <dc:type rdf:resource="http://purl.org/dc/dcmitype/StillImage"/>
        <dc:title>Template icons dark</dc:title>
        <dc:date>17/05/13</dc:date>
        <dc:creator>
          <cc:Agent>
            <dc:title>wfpaisa</dc:title>
          </cc:Agent>
        </dc:creator>
        <dc:rights>
          <cc:Agent>
            <dc:title>License: GPLv3</dc:title>
          </cc:Agent>
        </dc:rights>
        <dc:language>es-en</dc:language>
        <dc:subject>
          <rdf:Bag>
            <rdf:li>plane-icon-theme</rdf:li>
          </rdf:Bag>
        </dc:subject>
        <dc:description>Template for create set icons</dc:description>
        <cc:license rdf:resource="https://www.gnu.org/licenses/gpl-3.0.en.html"/>
      </cc:Work>
    </rdf:RDF>
  </metadata>
  <defs id="defs22">
    <linearGradient inkscape:collect="always" id="linearGradient1756">
      <stop id="stop1754" offset="0" style="stop-color:#2aa591;stop-opacity:1"/>
      <stop id="stop1752" offset="1" style="stop-color:#2498e4;stop-opacity:1"/>
    </linearGradient>
    <linearGradient inkscape:collect="always" id="linearGradient1484">
      <stop id="stop1482" offset="0" style="stop-color:#eeda60;stop-opacity:1"/>
      <stop id="stop1480" offset="1" style="stop-color:#db9918;stop-opacity:1"/>
    </linearGradient>
    <linearGradient inkscape:collect="always" id="linearGradient982">
      <stop style="stop-color:#2a0ff3;stop-opacity:0.13186814" offset="0" id="stop978"/>
      <stop id="stop986" offset="0.52090698" style="stop-color:#3bf963;stop-opacity:0.2912088"/>
      <stop style="stop-color:#ef4cff;stop-opacity:0.29670331" offset="1" id="stop980"/>
    </linearGradient>
    <linearGradient gradientTransform="matrix(2.0982376,0,0,2.0982376,109.7053,109.70531)" inkscape:collect="always" xlink:href="#linearGradient8023" id="linearGradient8025-5" x1="9.1956701" y1="4.4297605" x2="37.228348" y2="43.999989" gradientUnits="userSpaceOnUse"/>
    <linearGradient inkscape:collect="always" id="linearGradient8023">
      <stop style="stop-color:#e1e3e7;stop-opacity:1;" offset="0" id="stop8019"/>
      <stop id="stop8031" offset="0.21010877" style="stop-color:#dee1e4;stop-opacity:1"/>
      <stop id="stop8029" offset="0.37979186" style="stop-color:#f1f2f3;stop-opacity:1"/>
      <stop id="stop8027" offset="0.66977036" style="stop-color:#c2c6cd;stop-opacity:1"/>
      <stop style="stop-color:#d7dadf;stop-opacity:1" offset="1" id="stop8021"/>
    </linearGradient>
    <linearGradient inkscape:collect="always" xlink:href="#linearGradient982" id="linearGradient984" x1="152.50394" y1="152.50398" x2="170" y2="165.24409" gradientUnits="userSpaceOnUse"/>
    <linearGradient id="linearGradient4990" y2="37.585999" xlink:href="#linearGradient5443" gradientUnits="userSpaceOnUse" x2="56.446999" gradientTransform="matrix(1.3532738,0,0,2.8052028,-351.70079,-26.644638)" y1="37.500999" x1="58.548"/>
    <linearGradient id="linearGradient5443">
      <stop id="stop5445" style="stop-color:#fff" offset="0"/>
      <stop id="stop5447" style="stop-color:#fff;stop-opacity:0" offset="1"/>
    </linearGradient>
    <linearGradient id="linearGradient4993" y2="40.376999" xlink:href="#linearGradient6221" gradientUnits="userSpaceOnUse" x2="-10.048" gradientTransform="matrix(0.67492692,0,0,1.8985156,-271.52458,3.7128013)" y1="40.389999" x1="-5.9351001"/>
    <linearGradient id="linearGradient6221">
      <stop id="stop6223" offset="0"/>
      <stop id="stop6225" style="stop-opacity:0" offset="1"/>
    </linearGradient>
    <linearGradient id="linearGradient4996" y2="36.911999" xlink:href="#linearGradient6221" gradientUnits="userSpaceOnUse" x2="-7.0093002" gradientTransform="matrix(0.7873129,0,0,1.9040247,-273.45231,2.8440928)" y1="36.902" x1="-10.535"/>
    <linearGradient id="linearGradient5007" y2="40.949001" gradientUnits="userSpaceOnUse" x2="-10.566" gradientTransform="matrix(1.0786984,-3.6953302e-8,0,2.1496436,-268.32208,-11.242527)" y1="40.972" x1="-2.1966">
      <stop id="stop4101" style="stop-color:#edd563" offset="0"/>
      <stop id="stop4103" style="stop-color:#e08223" offset="1"/>
    </linearGradient>
    <linearGradient id="linearGradient5009" y2="12.324" gradientUnits="userSpaceOnUse" x2="-36.083" gradientTransform="matrix(1.3365968,0,0,1.3365964,-222.20261,61.68125)" y1="7.7140002" x1="-45.569">
      <stop id="stop4095" style="stop-color:#bb5e12" offset="0"/>
      <stop id="stop4097" style="stop-color:#cd8033" offset="1"/>
    </linearGradient>
    <linearGradient id="linearGradient4987" y2="12.585" xlink:href="#linearGradient5443" gradientUnits="userSpaceOnUse" x2="54.721001" gradientTransform="matrix(-0.90023191,-0.90120345,0.90023191,-0.90120345,264.01385,226.8237)" y1="1" x1="54.764999"/>
    <linearGradient id="linearGradient4999" y2="22.476" xlink:href="#linearGradient7381" gradientUnits="userSpaceOnUse" x2="27.368" gradientTransform="matrix(-1.2816435,0,0,-1.2744797,265.2003,187.82583)" y1="20.761999" x1="25.572001"/>
    <linearGradient id="linearGradient7381">
      <stop id="stop7383" style="stop-color:#babdb6" offset="0"/>
      <stop id="stop7385" style="stop-color:#fff" offset="1"/>
    </linearGradient>
    <linearGradient id="linearGradient5001" y2="26.885" xlink:href="#linearGradient7444" gradientUnits="userSpaceOnUse" x2="31.089001" gradientTransform="matrix(1.2871391,0,0,1.2855689,202.6192,114.39453)" y1="35.624001" x1="22.375999"/>
    <linearGradient id="linearGradient7444">
      <stop id="stop7446" style="stop-color:#888a85" offset="0"/>
      <stop id="stop7448" style="stop-color:#555753" offset="1"/>
    </linearGradient>
    <linearGradient id="linearGradient4665" y2="44.139999" xlink:href="#linearGradient6221" gradientUnits="userSpaceOnUse" x2="-9.7747002" gradientTransform="matrix(0.61987975,-0.61783854,1.0518113,1.0483766,214.49493,117.87925)" y1="44.229" x1="-6.3077998"/>
    <linearGradient id="linearGradient4668" y2="35.078999" gradientUnits="userSpaceOnUse" x2="90.221001" gradientTransform="matrix(1.0190342,-1.0166789,0.89134088,0.88922116,125.32342,229.85475)" y1="35.152" x1="97.442001">
      <stop id="stop4958" style="stop-color:#f8b17e" offset="0"/>
      <stop id="stop4960" style="stop-color:#e35d4f" offset=".26238"/>
      <stop id="stop4962" style="stop-color:#c6262e" offset=".66347"/>
      <stop id="stop4964" style="stop-color:#690b54" offset="1"/>
    </linearGradient>
    <linearGradient id="linearGradient4972" y2="27.273001" gradientUnits="userSpaceOnUse" x2="36.000999" gradientTransform="matrix(1.2386604,0,0,1.2365014,214.63268,129.02003)" y1="34.022999" x1="29.278">
      <stop id="stop2492" style="stop-color:#791235" offset="0"/>
      <stop id="stop2494" style="stop-color:#dd3b27" offset="1"/>
    </linearGradient>
    <linearGradient id="linearGradient2919" y2="88.005997" gradientUnits="userSpaceOnUse" x2="317.16" gradientTransform="matrix(1.7051943,0,0,1.6957734,-290.5964,44.367767)" y1="75.574997" x1="326.60001">
      <stop id="stop7423" style="stop-color:#fff" offset="0"/>
      <stop id="stop7425" style="stop-color:#fff;stop-opacity:0" offset="1"/>
    </linearGradient>
    <linearGradient id="linearGradient4734" y2="60.768002" xlink:href="#linearGradient7381" gradientUnits="userSpaceOnUse" x2="308.64999" gradientTransform="matrix(1.7051943,0,0,1.6957734,-290.5964,44.367767)" y1="58.443001" x1="302.29001"/>
    <linearGradient id="linearGradient2907" y2="81.926003" gradientUnits="userSpaceOnUse" x2="335.29999" gradientTransform="matrix(1.7051943,0,0,1.6957734,-290.5964,44.367767)" y1="64.294998" x1="304.76001">
      <stop id="stop4436" style="stop-color:#d3d7cf" offset="0"/>
      <stop id="stop4438" style="stop-color:#babdb6" offset=".18304"/>
      <stop id="stop4440" style="stop-color:#fff" offset=".31893"/>
      <stop id="stop4442" style="stop-color:#babdb6" offset=".87644"/>
      <stop id="stop4444" style="stop-color:#eeeeec" offset="1"/>
    </linearGradient>
    <linearGradient id="linearGradient2909" y2="99.274002" xlink:href="#linearGradient7444" gradientUnits="userSpaceOnUse" x2="330.06" gradientTransform="matrix(1.7051943,0,0,1.6957734,-290.5964,44.367767)" y1="70.281998" x1="324.5"/>
    <linearGradient inkscape:collect="always" xlink:href="#linearGradient1484" id="linearGradient1486" x1="160.06299" y1="200" x2="160" y2="196.53442" gradientUnits="userSpaceOnUse"/>
    <linearGradient gradientTransform="matrix(2.8612458,0,0,2.8612458,203.44353,204.4619)" inkscape:collect="always" xlink:href="#linearGradient8023" id="linearGradient8025-5-9" x1="9.1956701" y1="4.4297605" x2="37.228348" y2="43.999989" gradientUnits="userSpaceOnUse"/>
    <linearGradient gradientTransform="matrix(1.3636424,0,0,1.3636424,53.844724,54.863094)" inkscape:collect="always" xlink:href="#linearGradient1484" id="linearGradient1486-3" x1="160.06299" y1="200" x2="160" y2="196.53442" gradientUnits="userSpaceOnUse"/>
    <linearGradient inkscape:collect="always" xlink:href="#linearGradient1756" id="linearGradient1758" x1="157" y1="190" x2="176" y2="190" gradientUnits="userSpaceOnUse" gradientTransform="translate(0,-64.882359)"/>
    <linearGradient inkscape:collect="always" xlink:href="#linearGradient8023" id="linearGradient8025" x1="9" y1="3.99999" x2="37.228348" y2="43.999989" gradientUnits="userSpaceOnUse"/>
    <linearGradient inkscape:collect="always" xlink:href="#linearGradient8023" id="linearGradient8081-1" gradientUnits="userSpaceOnUse" x1="9.5855684" y1="4.484941" x2="37.77005" y2="43.886402" gradientTransform="matrix(0.66666642,0,0,0.66666642,-59.833331,-59.999993)"/>
    <linearGradient inkscape:collect="always" xlink:href="#linearGradient8023" id="linearGradient8081-1-9" gradientUnits="userSpaceOnUse" x1="9.5855684" y1="4.484941" x2="37.77005" y2="43.886402" gradientTransform="matrix(0.66666642,0,0,0.66666642,-79.833331,-79.999993)"/>
    <linearGradient gradientTransform="matrix(1.5259977,0,0,1.5259977,43.634553,43.421777)" inkscape:collect="always" xlink:href="#linearGradient8023" id="linearGradient8025-5-93" x1="9.1956701" y1="4.4297605" x2="37.228348" y2="43.999989" gradientUnits="userSpaceOnUse"/>
    <linearGradient inkscape:collect="always" xlink:href="#linearGradient8023" id="linearGradient8081" gradientUnits="userSpaceOnUse" x1="9.5855684" y1="4.484941" x2="37.77005" y2="43.886402" gradientTransform="matrix(0.66666642,0,0,0.66666642,-31.833331,-31.999993)"/>
    <radialGradient id="radialGradient5004" xlink:href="#linearGradient5443" gradientUnits="userSpaceOnUse" cy="11.84" cx="-39.458" gradientTransform="matrix(3.0964543,-0.21495459,0.37738808,7.8586392,-154.66412,-25.229961)" r="3.9059999"/>
    <radialGradient id="radialGradient5017" xlink:href="#linearGradient6221" gradientUnits="userSpaceOnUse" cy="21.622999" cx="25.976999" gradientTransform="matrix(-1.3875312,-1.3669229,1.0969534,-1.080663,253.33381,209.6805)" r="2"/>
    <radialGradient id="radialGradient2912" xlink:href="#linearGradient6221" gradientUnits="userSpaceOnUse" cy="34.498001" cx="21.959999" gradientTransform="matrix(0.31004782,0,0,0.0889074,258.07853,180.89617)" r="12.728"/>
    <radialGradient id="radialGradient2915" xlink:href="#linearGradient6221" gradientUnits="userSpaceOnUse" cy="34.498001" cx="21.959999" gradientTransform="matrix(0.75788705,0,0,0.23544557,243.45848,168.48244)" r="12.728"/>
    <radialGradient id="radialGradient2918" xlink:href="#linearGradient6221" gradientUnits="userSpaceOnUse" cy="34.498001" cx="21.959999" gradientTransform="matrix(0.22242305,0,0,0.08888482,212.2327,174.50989)" r="12.728"/>
    <radialGradient id="radialGradient2921" xlink:href="#linearGradient6221" gradientUnits="userSpaceOnUse" cy="34.498001" cx="21.959999" gradientTransform="matrix(0.56841774,0,0,0.23538669,205.41657,167.92545)" r="12.728"/>
  </defs>
  <sodipodi:namedview pagecolor="#383c4a" bordercolor="#ffffff" borderopacity="0.62745098" objecttolerance="4" gridtolerance="10" guidetolerance="4" inkscape:pageopacity="0" inkscape:pageshadow="2" inkscape:window-width="640" inkscape:window-height="480" id="namedview20" showgrid="true" inkscape:zoom="16.386532" inkscape:cx="6.0928915" inkscape:cy="50.126523" inkscape:current-layer="g7814" inkscape:snap-smooth-nodes="false" showguides="true" borderlayer="true" inkscape:showpageshadow="false" inkscape:guide-bbox="true" guidecolor="#bd4fff" guideopacity="0.78431373" inkscape:snap-nodes="true" inkscape:lockguides="false" fit-margin-top="0" fit-margin-left="0" fit-margin-right="0" fit-margin-bottom="0" guidehicolor="#ff0101" guidehiopacity="0.78431373" inkscape:snap-page="true" inkscape:object-nodes="true" inkscape:snap-bbox="true" inkscape:snap-global="true" inkscape:snap-object-midpoints="false" inkscape:snap-bbox-edge-midpoints="false">
    <inkscape:grid type="xygrid" id="grid4171" empspacing="4" dotted="false" originx="2.7755576e-17" originy="0" spacingx="1" spacingy="1" color="#5a5a5a" opacity="0.23529412" empcolor="#5a5a5a" empopacity="0.47058824" visible="true"/>
    <inkscape:grid type="axonomgrid" id="grid4699" units="mm" empspacing="4" color="#5a5a5a" opacity="0.23529412" empcolor="#5a5a5a" empopacity="0.47058824" gridanglex="45" gridanglez="45" spacingy="3.7795276" visible="false" originx="1.3228346" originy="1.3228346"/>
    <sodipodi:guide position="48,0" orientation="1,0" id="guide4568" inkscape:locked="false" inkscape:label="" inkscape:color="rgb(189,79,255)"/>
    <sodipodi:guide position="111.99996,-3.9999999e-05" orientation="0,1" id="guide4570" inkscape:locked="false" inkscape:label="" inkscape:color="rgb(189,79,255)"/>
    <sodipodi:guide position="0,0" orientation="1,0" id="guide4572" inkscape:locked="false" inkscape:label="" inkscape:color="rgb(189,79,255)"/>
    <sodipodi:guide position="0,48" orientation="0,1" id="guide4574" inkscape:locked="false" inkscape:label="" inkscape:color="rgb(189,79,255)"/>
    <sodipodi:guide position="0,80" orientation="0,1" id="guide4576" inkscape:locked="false" inkscape:label="" inkscape:color="rgb(189,79,255)"/>
    <sodipodi:guide position="-32,48" orientation="1,0" id="guide4578" inkscape:locked="false" inkscape:label="" inkscape:color="rgb(189,79,255)"/>
    <sodipodi:guide position="-32,104" orientation="0,1" id="guide4580" inkscape:locked="false" inkscape:label="" inkscape:color="rgb(189,79,255)"/>
    <sodipodi:guide position="-56,80" orientation="1,0" id="guide4582" inkscape:locked="false" inkscape:label="" inkscape:color="rgb(189,79,255)"/>
    <sodipodi:guide position="48,-64" orientation="0,1" id="guide4584" inkscape:locked="false" inkscape:label="" inkscape:color="rgb(189,79,255)"/>
    <sodipodi:guide position="0,0" orientation="-0.70710678,0.70710678" id="guide4588" inkscape:locked="false" inkscape:label="" inkscape:color="rgb(189,79,255)"/>
    <sodipodi:guide position="-56,80" orientation="-0.70710678,0.70710678" id="guide4573" inkscape:locked="false" inkscape:label="" inkscape:color="rgb(189,79,255)"/>
    <sodipodi:guide position="-32,48" orientation="-0.70710678,0.70710678" id="guide4575" inkscape:locked="false" inkscape:label="" inkscape:color="rgb(189,79,255)"/>
    <sodipodi:guide position="48,-64" orientation="-0.70710678,0.70710678" id="guide4577" inkscape:locked="false" inkscape:label="" inkscape:color="rgb(189,79,255)"/>
    <sodipodi:guide position="47.999962,0" orientation="0.70710678,0.70710678" id="guide4697" inkscape:locked="false" inkscape:label="" inkscape:color="rgb(189,79,255)"/>
    <sodipodi:guide position="207.99995,-288" orientation="0,1" id="guide7833" inkscape:locked="false"/>
    <sodipodi:guide position="335.99994,-288" orientation="1,0" id="guide7835" inkscape:locked="false" inkscape:label="" inkscape:color="rgb(189,79,255)"/>
    <sodipodi:guide position="111.99996,-64" orientation="1,0" id="guide7915" inkscape:locked="false"/>
    <sodipodi:guide position="111.99996,-160" orientation="0,1" id="guide7917" inkscape:locked="false"/>
    <sodipodi:guide position="207.99996,-160" orientation="1,0" id="guide7919" inkscape:locked="false"/>
    <sodipodi:guide position="111.99996,-160" orientation="-0.70710678,0.70710678" id="guide7921" inkscape:locked="false" inkscape:label="" inkscape:color="rgb(189,79,255)"/>
    <sodipodi:guide position="207.99996,-288" orientation="-0.70710678,0.70710678" id="guide7923" inkscape:locked="false" inkscape:label="" inkscape:color="rgb(189,79,255)"/>
    <sodipodi:guide position="-72,104" orientation="1,0" id="guide7824" inkscape:locked="false"/>
    <sodipodi:guide position="-56,120" orientation="0,1" id="guide7826" inkscape:locked="false"/>
    <sodipodi:guide position="-72,104" orientation="-0.70710678,0.70710678" id="guide7828" inkscape:locked="false" inkscape:label="" inkscape:color="rgb(189,79,255)"/>
  </sodipodi:namedview>
  <g inkscape:groupmode="layer" id="layer4" inkscape:label="icon_128" style="display:inline" transform="translate(-207.99995,-208)">
    <g inkscape:groupmode="layer" id="layer11" inkscape:label="frame" style="display:none">
      <rect inkscape:label="frame_128" y="208" x="207.99995" height="128" width="128" id="frame_128" style="color:#000000;clip-rule:nonzero;display:inline;overflow:visible;visibility:visible;opacity:1;isolation:auto;mix-blend-mode:normal;color-interpolation:sRGB;color-interpolation-filters:linearRGB;solid-color:#000000;solid-opacity:1;vector-effect:none;fill:#000000;fill-opacity:1;fill-rule:nonzero;stroke:#ff24f7;stroke-width:0;stroke-linecap:square;stroke-linejoin:miter;stroke-miterlimit:4;stroke-dasharray:none;stroke-dashoffset:0;stroke-opacity:0.99481865;marker:none;marker-start:none;marker-mid:none;marker-end:none;paint-order:normal;color-rendering:auto;image-rendering:auto;shape-rendering:auto;text-rendering:auto;enable-background:accumulate"/>
      <text xml:space="preserve" style="font-size:38.46457672px;line-height:0%;font-family:sans-serif;letter-spacing:0px;word-spacing:0px;display:inline;opacity:1;fill:#ffffff;fill-opacity:1;stroke:none;stroke-width:0.07881754px;stroke-linecap:butt;stroke-linejoin:miter;stroke-opacity:1" x="236.17479" y="283.34512" id="txt_128" inkscape:label="txt_128">
        <tspan sodipodi:role="line" x="236.17479" y="283.34512" style="font-size:38.46457672px;line-height:0%;fill:#ffffff;fill-opacity:1;stroke:none;stroke-width:0.07881754px" id="tspan5069-6">128</tspan>
      </text>
      <text xml:space="preserve" style="font-size:7.43228436px;line-height:1000%;font-family:sans-serif;letter-spacing:0px;word-spacing:0px;display:inline;opacity:1;fill:#ffffff;fill-opacity:0.42156863;stroke:none;stroke-width:0.16398695px;stroke-linecap:butt;stroke-linejoin:miter;stroke-opacity:1" x="265.97781" y="330.1329" id="txt_scalable_64_512" inkscape:label="txt_scalable_64_512">
        <tspan sodipodi:role="line" x="265.97781" y="330.1329" style="font-size:8.08990479px;fill:#ffffff;fill-opacity:0.42156863;stroke:none;stroke-width:0.16398695px" id="tspan5049-1-6-6">Scalable:96-512</tspan>
      </text>
    </g>
    <g inkscape:groupmode="layer" id="layer12" inkscape:label="icon" style="display:inline">
      <path inkscape:connector-curvature="0" id="path946-6" d="m 226,213 v 120 h 23 l 4,-4 38.11862,-0.0448 L 295,333 h 23 V 213 Z" style="display:inline;opacity:1;fill:#000000;fill-opacity:0.10439561;stroke:none;stroke-width:2.98812222;stroke-linecap:butt;stroke-linejoin:miter;stroke-miterlimit:4;stroke-dasharray:none;stroke-dashoffset:0;stroke-opacity:0.23979594" sodipodi:nodetypes="ccccccccc" inkscape:label="base sombra"/>
      <path sodipodi:nodetypes="ccccccccc" style="display:inline;opacity:1;fill:#565e66;fill-opacity:1;stroke:none;stroke-width:2.86124563;stroke-linecap:butt;stroke-linejoin:miter;stroke-miterlimit:4;stroke-dasharray:none;stroke-dashoffset:0;stroke-opacity:0.23979594" d="m 227,214 v 118 h 22 l 6.99999,-10 h 31.98426 L 295,332 h 22 V 214 Z" id="path8033-93-2" inkscape:connector-curvature="0" inkscape:label="borde negro"/>
      <path inkscape:connector-curvature="0" id="rect4517-7-2-7-6" d="m 228,215 0.0945,116 H 249 l 7.03558,-8.99996 L 287.98426,322 295,331 h 21 V 215 Z" style="display:inline;opacity:1;fill:url(#linearGradient8025-5-9);fill-opacity:1;stroke:none;stroke-width:2.86124563;stroke-linecap:butt;stroke-linejoin:miter;stroke-miterlimit:4;stroke-dasharray:none;stroke-dashoffset:0;stroke-opacity:0.23979594" sodipodi:nodetypes="ccccccccc" inkscape:label="base"/>
      <path style="display:inline;fill:#6c7587;fill-opacity:1;fill-rule:evenodd;stroke:none;stroke-width:2.86124611px;stroke-linecap:butt;stroke-linejoin:miter;stroke-opacity:1" d="m 256,322 -4.23947,6 H 293 l -5,-6 z" id="path8005-5-1" inkscape:connector-curvature="0" sodipodi:nodetypes="ccccc" inkscape:label="baquelita"/>
      <path style="color:#000000;clip-rule:nonzero;display:block;overflow:visible;visibility:visible;opacity:1;isolation:auto;mix-blend-mode:normal;color-interpolation:sRGB;color-interpolation-filters:linearRGB;solid-color:#000000;solid-opacity:1;vector-effect:none;fill:url(#linearGradient1486-3);fill-opacity:1;fill-rule:nonzero;stroke:none;stroke-width:0.37168846;stroke-linecap:round;stroke-linejoin:round;stroke-miterlimit:4;stroke-dasharray:none;stroke-dashoffset:0;stroke-opacity:0.96354167;marker:none;marker-start:none;marker-mid:none;marker-end:none;paint-order:normal;color-rendering:auto;image-rendering:auto;shape-rendering:auto;text-rendering:auto;enable-background:accumulate" d="M 256.03558,322.00004 256,328 h 2 v -6 z M 261,322 v 6 h 2 v -6 z m 5,0 v 6 h 2 v -6 z m 10,0 v 6 h 2 v -6 z m 5.00788,0 -0.008,6 h 2 v -6 z M 286,322 v 6 h 2 l -0.0158,-6 z" id="rect8007-2-8" inkscape:connector-curvature="0" inkscape:label="contactos" sodipodi:nodetypes="cccccccccccccccccccccccccccccc"/>
      <path sodipodi:nodetypes="ccccc" inkscape:connector-curvature="0" id="path8207-8-7" d="m 256,322 -2,3 h 36.4567 L 288,322 Z" style="display:inline;fill:#000000;fill-opacity:0.24725276;fill-rule:evenodd;stroke:none;stroke-width:2.01006174px;stroke-linecap:butt;stroke-linejoin:miter;stroke-opacity:1" inkscape:label="baquelita sombra"/>
      <path style="color:#000000;clip-rule:nonzero;display:block;overflow:visible;visibility:visible;opacity:1;isolation:auto;mix-blend-mode:normal;color-interpolation:sRGB;color-interpolation-filters:linearRGB;solid-color:#000000;solid-opacity:1;vector-effect:none;fill:#000000;fill-opacity:0.21978024;fill-rule:nonzero;stroke:none;stroke-width:0.74337691;stroke-linecap:round;stroke-linejoin:round;stroke-miterlimit:4;stroke-dasharray:none;stroke-dashoffset:0;stroke-opacity:0.96354167;marker:none;marker-start:none;marker-mid:none;marker-end:none;paint-order:normal;color-rendering:auto;image-rendering:auto;shape-rendering:auto;text-rendering:auto;enable-background:accumulate" d="m 249,239 h 46 v 68 h -46 z" id="rect8154-3-4-9" inkscape:connector-curvature="0" sodipodi:nodetypes="ccccc" inkscape:label="centro recuadro"/>
      <path style="color:#000000;clip-rule:nonzero;display:inline;overflow:visible;visibility:visible;opacity:1;isolation:auto;mix-blend-mode:normal;color-interpolation:sRGB;color-interpolation-filters:linearRGB;solid-color:#000000;solid-opacity:1;vector-effect:none;fill:#ffffff;fill-opacity:0.5;fill-rule:nonzero;stroke:none;stroke-width:1.36364233;stroke-linecap:square;stroke-linejoin:miter;stroke-miterlimit:4;stroke-dasharray:2.72728475, 2.72728475;stroke-dashoffset:9.73946476;stroke-opacity:1;marker:none;marker-start:none;marker-mid:none;marker-end:none;paint-order:markers stroke fill;color-rendering:auto;image-rendering:auto;shape-rendering:auto;text-rendering:auto;enable-background:accumulate" d="m 249,307 h 46 v 1 h -46 z" id="rect956-0" inkscape:connector-curvature="0" inkscape:label="centro recuadro brillo inf" sodipodi:nodetypes="ccccc"/>
      <path sodipodi:nodetypes="sssss" inkscape:connector-curvature="0" id="path936-2" d="m 233.84552,273.04587 c 1.51373,0 2.7324,1.21865 2.7324,2.7324 0,1.51373 -1.21867,2.73238 -2.7324,2.73238 -1.51374,0 -2.7324,-1.21865 -2.7324,-2.73238 0,-1.51375 1.21866,-2.7324 2.7324,-2.7324 z" style="display:inline;opacity:1;fill:#737373;fill-opacity:1;stroke:none;stroke-width:3.64319348;stroke-linecap:butt;stroke-linejoin:miter;stroke-miterlimit:4;stroke-dasharray:none;stroke-dashoffset:0;stroke-opacity:0.64313725" inkscape:label="tornillo"/>
      <path style="display:inline;opacity:1;fill:#737373;fill-opacity:1;stroke:none;stroke-width:3.64319348;stroke-linecap:butt;stroke-linejoin:miter;stroke-miterlimit:4;stroke-dasharray:none;stroke-dashoffset:0;stroke-opacity:0.64313725" d="m 233.84552,322.137 c 1.51373,0 2.7324,1.21865 2.7324,2.7324 0,1.51373 -1.21867,2.73238 -2.7324,2.73238 -1.51374,0 -2.7324,-1.21865 -2.7324,-2.73238 0,-1.51375 1.21866,-2.7324 2.7324,-2.7324 z" id="path938-3" inkscape:connector-curvature="0" sodipodi:nodetypes="sssss" inkscape:label="tornillo"/>
      <path sodipodi:nodetypes="sssss" inkscape:connector-curvature="0" id="path940-7" d="m 310.20949,218.50018 c 1.51374,0 2.7324,1.21864 2.7324,2.73239 0,1.51374 -1.21866,2.73239 -2.7324,2.73239 -1.51373,0 -2.7324,-1.21865 -2.7324,-2.73239 0,-1.51375 1.21867,-2.73239 2.7324,-2.73239 z" style="display:inline;opacity:1;fill:#737373;fill-opacity:1;stroke:none;stroke-width:3.64319348;stroke-linecap:butt;stroke-linejoin:miter;stroke-miterlimit:4;stroke-dasharray:none;stroke-dashoffset:0;stroke-opacity:0.64313725" inkscape:label="tornillo"/>
      <path style="display:inline;opacity:1;fill:#737373;fill-opacity:1;stroke:none;stroke-width:3.64319348;stroke-linecap:butt;stroke-linejoin:miter;stroke-miterlimit:4;stroke-dasharray:none;stroke-dashoffset:0;stroke-opacity:0.64313725" d="m 310.20949,273.04587 c 1.51374,0 2.7324,1.21865 2.7324,2.7324 0,1.51373 -1.21866,2.73238 -2.7324,2.73238 -1.51373,0 -2.7324,-1.21865 -2.7324,-2.73238 0,-1.51375 1.21867,-2.7324 2.7324,-2.7324 z" id="path942-5" inkscape:connector-curvature="0" sodipodi:nodetypes="sssss" inkscape:label="tornillo"/>
      <path sodipodi:nodetypes="sssss" inkscape:connector-curvature="0" id="path944-9" d="m 310.20949,322.137 c 1.51374,0 2.7324,1.21865 2.7324,2.7324 0,1.51373 -1.21866,2.73238 -2.7324,2.73238 -1.51373,0 -2.7324,-1.21865 -2.7324,-2.73238 0,-1.51375 1.21867,-2.7324 2.7324,-2.7324 z" style="display:inline;opacity:1;fill:#737373;fill-opacity:1;stroke:none;stroke-width:3.64319348;stroke-linecap:butt;stroke-linejoin:miter;stroke-miterlimit:4;stroke-dasharray:none;stroke-dashoffset:0;stroke-opacity:0.64313725" inkscape:label="tornillo"/>
      <path sodipodi:nodetypes="sssss" inkscape:connector-curvature="0" id="rect4617-5-3-9-68-2" d="m 233.84552,218.50018 c 1.51373,0 2.7324,1.21864 2.7324,2.73239 0,1.51374 -1.21867,2.73239 -2.7324,2.73239 -1.51374,0 -2.7324,-1.21865 -2.7324,-2.73239 0,-1.51375 1.21866,-2.73239 2.7324,-2.73239 z" style="display:inline;opacity:1;fill:#737373;fill-opacity:1;stroke:none;stroke-width:3.64319348;stroke-linecap:butt;stroke-linejoin:miter;stroke-miterlimit:4;stroke-dasharray:none;stroke-dashoffset:0;stroke-opacity:0.64313725" inkscape:label="tornillo"/>
      <path style="display:inline;opacity:1;fill:#000000;fill-opacity:0.46153846;stroke:none;stroke-width:3.64319348;stroke-linecap:butt;stroke-linejoin:miter;stroke-miterlimit:4;stroke-dasharray:none;stroke-dashoffset:0;stroke-opacity:0.64313725" d="m 233.84552,218.50018 c -1.51374,0 -2.73262,1.21886 -2.73262,2.73261 0,0.1335 0.0217,0.26059 0.0399,0.38884 0.19055,-1.32502 1.3133,-2.34109 2.69266,-2.34109 1.37936,0 2.5021,1.01607 2.69266,2.34109 0.0183,-0.12831 0.0399,-0.25536 0.0399,-0.38884 0,-1.51375 -1.21888,-2.73261 -2.73262,-2.73261 z m 76.36397,0 c -1.51373,0 -2.73262,1.21886 -2.73262,2.73261 0,0.1335 0.0217,0.26059 0.0399,0.38884 0.19056,-1.32502 1.3133,-2.34109 2.69266,-2.34109 1.37937,0 2.50211,1.01607 2.69267,2.34109 0.0183,-0.12831 0.0399,-0.25536 0.0399,-0.38884 0,-1.51375 -1.21887,-2.73261 -2.73262,-2.73261 z m -76.36397,54.54569 c -1.51374,0 -2.73262,1.21886 -2.73262,2.73262 0,0.1335 0.0217,0.26059 0.0399,0.38884 0.19055,-1.32502 1.3133,-2.34109 2.69266,-2.34109 1.37936,0 2.5021,1.01607 2.69266,2.34109 0.0183,-0.12832 0.0399,-0.25537 0.0399,-0.38884 0,-1.51376 -1.21888,-2.73262 -2.73262,-2.73262 z m 76.36397,0 c -1.51373,0 -2.73262,1.21886 -2.73262,2.73262 0,0.1335 0.0217,0.26059 0.0399,0.38884 0.19056,-1.32502 1.3133,-2.34109 2.69266,-2.34109 1.37937,0 2.50211,1.01607 2.69267,2.34109 0.0183,-0.12832 0.0399,-0.25537 0.0399,-0.38884 0,-1.51376 -1.21887,-2.73262 -2.73262,-2.73262 z M 233.84552,322.137 c -1.51374,0 -2.73262,1.21886 -2.73262,2.73261 0,0.1335 0.0217,0.26059 0.0399,0.38884 0.19055,-1.32502 1.3133,-2.34109 2.69266,-2.34109 1.37936,0 2.5021,1.01607 2.69266,2.34109 0.0183,-0.12831 0.0399,-0.25536 0.0399,-0.38884 0,-1.51375 -1.21888,-2.73261 -2.73262,-2.73261 z m 76.36397,0 c -1.51373,0 -2.73262,1.21886 -2.73262,2.73261 0,0.1335 0.0217,0.26059 0.0399,0.38884 0.19056,-1.32502 1.3133,-2.34109 2.69266,-2.34109 1.37937,0 2.50211,1.01607 2.69267,2.34109 0.0183,-0.12831 0.0399,-0.25536 0.0399,-0.38884 0,-1.51375 -1.21887,-2.73261 -2.73262,-2.73261 z" id="path958-2" inkscape:connector-curvature="0" inkscape:label="tornillos sombra"/>
      <path style="color:#000000;clip-rule:nonzero;display:block;overflow:visible;visibility:visible;opacity:1;isolation:auto;mix-blend-mode:normal;color-interpolation:sRGB;color-interpolation-filters:linearRGB;solid-color:#000000;solid-opacity:1;vector-effect:none;fill:#ffffff;fill-opacity:0.27472528;fill-rule:nonzero;stroke:none;stroke-width:0.51729918;stroke-linecap:butt;stroke-linejoin:miter;stroke-miterlimit:4;stroke-dasharray:none;stroke-dashoffset:0;stroke-opacity:0.28021982;marker:none;marker-start:none;marker-mid:none;marker-end:none;paint-order:fill markers stroke;color-rendering:auto;image-rendering:auto;shape-rendering:auto;text-rendering:auto;enable-background:accumulate" d="m 233.84552,219.86382 a 1.3636424,1.3636424 0 0 0 -1.36364,1.36364 1.3636424,1.3636424 0 0 0 1.36364,1.36364 1.3636424,1.3636424 0 0 0 1.36364,-1.36364 1.3636424,1.3636424 0 0 0 -1.36364,-1.36364 z m 76.36397,0 a 1.3636424,1.3636424 0 0 0 -1.36364,1.36364 1.3636424,1.3636424 0 0 0 1.36364,1.36364 1.3636424,1.3636424 0 0 0 1.36364,-1.36364 1.3636424,1.3636424 0 0 0 -1.36364,-1.36364 z m -76.36397,54.54569 a 1.3636424,1.3636424 0 0 0 -1.36364,1.36364 1.3636424,1.3636424 0 0 0 1.36364,1.36365 1.3636424,1.3636424 0 0 0 1.36364,-1.36365 1.3636424,1.3636424 0 0 0 -1.36364,-1.36364 z m 76.36397,0 a 1.3636424,1.3636424 0 0 0 -1.36364,1.36364 1.3636424,1.3636424 0 0 0 1.36364,1.36365 1.3636424,1.3636424 0 0 0 1.36364,-1.36365 1.3636424,1.3636424 0 0 0 -1.36364,-1.36364 z m -76.36397,49.09113 a 1.3636424,1.3636424 0 0 0 -1.36364,1.36364 1.3636424,1.3636424 0 0 0 1.36364,1.36364 1.3636424,1.3636424 0 0 0 1.36364,-1.36364 1.3636424,1.3636424 0 0 0 -1.36364,-1.36364 z m 76.36397,0.0506 a 1.3636424,1.3636424 0 0 0 -1.36364,1.36364 1.3636424,1.3636424 0 0 0 1.36364,1.36365 1.3636424,1.3636424 0 0 0 1.36364,-1.36365 1.3636424,1.3636424 0 0 0 -1.36364,-1.36364 z" id="path1490-8" inkscape:connector-curvature="0" inkscape:label="tornillo centro"/>
      <path style="color:#000000;clip-rule:nonzero;display:block;overflow:visible;visibility:visible;opacity:1;isolation:auto;mix-blend-mode:normal;color-interpolation:sRGB;color-interpolation-filters:linearRGB;solid-color:#000000;solid-opacity:1;vector-effect:none;fill:#ffffff;fill-opacity:0.3241762;fill-rule:nonzero;stroke:#000000;stroke-width:0.48332709;stroke-linecap:butt;stroke-linejoin:miter;stroke-miterlimit:4;stroke-dasharray:none;stroke-dashoffset:0;stroke-opacity:0.28021982;marker:none;marker-start:none;marker-mid:none;marker-end:none;paint-order:fill markers stroke;color-rendering:auto;image-rendering:auto;shape-rendering:auto;text-rendering:auto;enable-background:accumulate" d="m 273.79331,251.81885 a 18.830438,18.830438 0 0 0 -18.83264,18.82999 18.830438,18.830438 0 0 0 3.09483,10.32853 10.663043,10.663043 0 0 0 -8.16055,10.35249 10.663043,10.663043 0 0 0 10.66145,10.66412 10.663043,10.663043 0 0 0 10.66411,-10.66412 10.663043,10.663043 0 0 0 -0.2184,-2.08274 18.830438,18.830438 0 0 0 2.7912,0.2317 18.830438,18.830438 0 0 0 18.82999,-18.82998 18.830438,18.830438 0 0 0 -18.82999,-18.82999 z" id="path1469-9" inkscape:connector-curvature="0" inkscape:label="engranaje back"/>
      <path style="color:#000000;clip-rule:nonzero;display:inline;overflow:visible;visibility:visible;opacity:1;isolation:auto;mix-blend-mode:normal;color-interpolation:sRGB;color-interpolation-filters:linearRGB;solid-color:#000000;solid-opacity:1;vector-effect:none;fill:#656c76;fill-opacity:1;fill-rule:nonzero;stroke:#f7f2f8;stroke-width:0.51729918;stroke-linecap:butt;stroke-linejoin:miter;stroke-miterlimit:4;stroke-dasharray:none;stroke-dashoffset:0;stroke-opacity:0.80769228;marker:none;marker-start:none;marker-mid:none;marker-end:none;paint-order:fill markers stroke;color-rendering:auto;image-rendering:auto;shape-rendering:auto;text-rendering:auto;enable-background:accumulate" d="m 272.07012,255.74732 c -0.26023,0 -0.40453,0.20637 -0.46876,0.44477 l -0.93216,3.45972 c -0.84751,0.24678 -1.66557,0.58835 -2.43699,1.01741 l -3.10548,-1.77913 c -0.21429,-0.12259 -0.4605,-0.16537 -0.64453,0.0187 l -2.68735,2.68735 c -0.18417,0.18399 -0.14178,0.43323 -0.0186,0.64718 l 1.80841,3.14811 c -0.40916,0.75675 -0.7341,1.55625 -0.96945,2.38371 l -3.51031,0.95614 c -0.23827,0.0648 -0.44478,0.20852 -0.44478,0.46876 v 3.80062 c 0,0.26022 0.20636,0.40718 0.44478,0.47141 l 3.59021,0.9668 c 0.24278,0.78492 0.56663,1.54363 0.9668,2.2612 l -1.85636,3.24665 c -0.12259,0.21427 -0.16804,0.46052 0.0159,0.64452 l 2.69001,2.68734 c 0.18401,0.18416 0.43322,0.14178 0.64719,0.0187 l 3.30524,-1.90164 c 0.60372,0.31597 1.49949,0.65429 2.1813,0.89755 l 0.99876,3.67544 c 0.0648,0.23826 0.20852,0.44211 0.46875,0.44211 h 3.80327 c 0.26025,0 0.40454,-0.2037 0.46876,-0.44211 l 1.00143,-3.70474 c 0.68016,-0.22026 1.44238,-0.58791 2.17063,-0.88689 l 3.30258,1.89097 c 0.21431,0.12246 0.46317,0.1654 0.6472,-0.0186 l 2.68733,-2.68733 c 0.18404,-0.18404 0.14178,-0.43323 0.0187,-0.6472 l -1.89898,-3.29459 c 0.38294,-0.70077 0.69563,-1.43904 0.92952,-2.20259 l 3.63816,-0.98811 c 0.23825,-0.0648 0.44478,-0.20852 0.44478,-0.46876 v -3.80328 c 0,-0.26022 -0.20639,-0.40452 -0.44478,-0.46875 l -3.57956,-0.9668 c -0.22971,-0.80827 -0.54449,-1.5892 -0.94018,-2.33044 l 1.82175,-3.1774 c 0.12245,-0.21428 0.16536,-0.4632 -0.0187,-0.6472 l -2.68734,-2.68733 c -0.18404,-0.18416 -0.4332,-0.14178 -0.64719,-0.0187 l -3.14011,1.80576 c -0.76164,-0.42507 -1.56858,-0.76474 -2.40502,-1.01208 l -0.94283,-3.46238 c -0.0648,-0.23827 -0.2085,-0.44478 -0.46875,-0.44478 z m 1.92561,9.70796 c 3.09753,0 5.60904,2.51158 5.60904,5.60905 0,3.09747 -2.51151,5.60905 -5.60904,5.60905 -3.09751,0 -5.60904,-2.51158 -5.60904,-5.60905 0,-3.09748 2.51154,-5.60905 5.60904,-5.60905 z m -14.81027,18.31732 c -0.1361,0 -0.21401,0.10691 -0.2477,0.23171 l -0.48738,1.81109 c -0.4436,0.12914 -0.87199,0.30809 -1.27575,0.53267 l -1.62465,-0.92952 c -0.11223,-0.0642 -0.24198,-0.0882 -0.33825,0.008 l -1.40626,1.40893 c -0.0963,0.0963 -0.0752,0.22629 -0.0109,0.33824 l 0.94816,1.64596 c -0.21416,0.3961 -0.3829,0.81603 -0.50603,1.24913 l -1.83773,0.50071 c -0.12478,0.0339 -0.23171,0.10882 -0.23171,0.24502 v 1.98954 c 0,0.13623 0.10691,0.21135 0.23171,0.24503 l 1.87768,0.50604 c 0.12709,0.41084 0.29659,0.80695 0.50604,1.18253 l -0.97213,1.70188 c -0.0642,0.1121 -0.0857,0.23933 0.0109,0.3356 l 1.40625,1.40891 c 0.0963,0.0963 0.22631,0.0726 0.33825,0.008 l 1.73119,-0.9961 c 0.31599,0.16538 0.78306,0.34405 1.13992,0.47141 l 0.52468,1.92295 c 0.0339,0.12477 0.10882,0.23171 0.24503,0.23171 h 1.98953 c 0.13609,0 0.21135,-0.10691 0.24503,-0.23171 l 0.52469,-1.93892 c 0.35601,-0.11523 0.75608,-0.30694 1.13725,-0.46343 l 1.72853,0.99077 c 0.11223,0.0642 0.24198,0.0856 0.33825,-0.0109 l 1.40626,-1.40626 c 0.0963,-0.0963 0.0751,-0.22629 0.0109,-0.33825 l -0.99369,-1.72597 c 0.20044,-0.36679 0.36228,-0.75357 0.48473,-1.15323 l 1.90431,-0.5167 c 0.12477,-0.0339 0.23437,-0.10882 0.23437,-0.24504 v -1.99218 c 0,-0.13609 -0.10964,-0.21135 -0.23437,-0.24503 l -1.87235,-0.50605 c -0.12027,-0.42304 -0.28562,-0.83184 -0.49272,-1.21982 l 0.95349,-1.66194 c 0.0642,-0.11209 0.0856,-0.24197 -0.0109,-0.33824 l -1.40625,-1.40626 c -0.0963,-0.0963 -0.2263,-0.0751 -0.33826,-0.0109 l -1.6433,0.94549 c -0.39864,-0.22249 -0.82196,-0.4006 -1.25977,-0.53 l -0.4927,-1.81375 c -0.0339,-0.12465 -0.10883,-0.23172 -0.24504,-0.23172 z m 1.00676,5.08169 c 1.62128,0 2.93503,1.31379 2.93503,2.93504 0,1.62125 -1.31375,2.93502 -2.93503,2.93502 -1.62127,0 -2.93504,-1.31377 -2.93504,-2.93502 0,-1.62125 1.31378,-2.93504 2.93504,-2.93504 z" id="path1242-7-7" inkscape:connector-curvature="0" inkscape:label="engranaje" sodipodi:nodetypes="sccccccccccssccccccccccsscccccsccccssccccccccccssssssscccccccccccssccccccccccsscccccsccccsscccccsccccccsssss"/>
      <rect style="color:#000000;clip-rule:nonzero;display:block;overflow:visible;visibility:visible;opacity:1;isolation:auto;mix-blend-mode:normal;color-interpolation:sRGB;color-interpolation-filters:linearRGB;solid-color:#000000;solid-opacity:1;vector-effect:none;fill:#000000;fill-opacity:0.2857143;fill-rule:nonzero;stroke:none;stroke-width:1.36364233;stroke-linecap:square;stroke-linejoin:miter;stroke-miterlimit:4;stroke-dasharray:2.72728475, 2.72728475;stroke-dashoffset:9.73946476;stroke-opacity:1;marker:none;marker-start:none;marker-mid:none;marker-end:none;paint-order:markers stroke fill;color-rendering:auto;image-rendering:auto;shape-rendering:auto;text-rendering:auto;enable-background:accumulate" id="rect954-2" width="46" height="1" x="249" y="239" inkscape:label="centro recuadro sombra top"/>
    </g>
  </g>
</svg>