<?xml version="1.0" encoding="UTF-8" standalone="yes"?>
<svg xmlns:dc="http://purl.org/dc/elements/1.1/" xmlns:cc="http://creativecommons.org/ns#" xmlns:rdf="http://www.w3.org/1999/02/22-rdf-syntax-ns#" xmlns:svg="http://www.w3.org/2000/svg" xmlns="http://www.w3.org/2000/svg" xmlns:xlink="http://www.w3.org/1999/xlink" xmlns:sodipodi="http://sodipodi.sourceforge.net/DTD/sodipodi-0.dtd" xmlns:inkscape="http://www.inkscape.org/namespaces/inkscape" height="128" viewBox="0 0 128 128" width="128" id="svg2" version="1.1" inkscape:version="0.92.1 r" sodipodi:docname="help-browser.svg" enable-background="new" folder="128">
  <title id="title4675">Template icons dark</title>
  <metadata id="metadata24">
    <rdf:RDF>
      <cc:Work rdf:about="">
        <dc:format>image/svg+xml</dc:format>
        <dc:type rdf:resource="http://purl.org/dc/dcmitype/StillImage"/>
        <dc:title>Template icons dark</dc:title>
        <dc:date>17/05/13</dc:date>
        <dc:creator>
          <cc:Agent>
            <dc:title>wfpaisa</dc:title>
          </cc:Agent>
        </dc:creator>
        <dc:rights>
          <cc:Agent>
            <dc:title>License: GPLv3</dc:title>
          </cc:Agent>
        </dc:rights>
        <dc:language>es-en</dc:language>
        <dc:subject>
          <rdf:Bag>
            <rdf:li>plane-icon-theme</rdf:li>
          </rdf:Bag>
        </dc:subject>
        <dc:description>Template for create set icons</dc:description>
        <cc:license rdf:resource="https://www.gnu.org/licenses/gpl-3.0.en.html"/>
      </cc:Work>
    </rdf:RDF>
  </metadata>
  <defs id="defs22">
    <linearGradient id="linearGradient7842" inkscape:collect="always">
      <stop id="stop7836" offset="0" style="stop-color:#ff2a0b;stop-opacity:1"/>
      <stop style="stop-color:#110200;stop-opacity:0.453125" offset="0.49622226" id="stop7854"/>
      <stop style="stop-color:#000000;stop-opacity:0.13020833" offset="0.53191489" id="stop7848"/>
      <stop style="stop-color:#ffcdc5;stop-opacity:0.10588235;" offset="0.61702126" id="stop7846"/>
      <stop id="stop7850" offset="0.70212764" style="stop-color:#ffd2cb;stop-opacity:0.16145833"/>
      <stop style="stop-color:#ffe2dd;stop-opacity:0" offset="0.77759355" id="stop7844"/>
      <stop style="stop-color:#ffffff;stop-opacity:0.109375" offset="0.87234044" id="stop7838"/>
      <stop id="stop7852" offset="0.93617022" style="stop-color:#ffffff;stop-opacity:0.078125"/>
      <stop id="stop7840" offset="1" style="stop-color:#000000;stop-opacity:0.35416666"/>
    </linearGradient>
    <linearGradient id="linearGradient7816" inkscape:collect="always">
      <stop id="stop7808" offset="0" style="stop-color:#000000;stop-opacity:0"/>
      <stop style="stop-color:#000000;stop-opacity:0" offset="0.49738139" id="stop7810"/>
      <stop style="stop-color:#000000;stop-opacity:0.27083334" offset="0.74869066" id="stop7812"/>
      <stop id="stop7814" offset="1" style="stop-color:#000000;stop-opacity:0"/>
    </linearGradient>
    <linearGradient inkscape:collect="always" id="linearGradient7800">
      <stop style="stop-color:#c5c5c5;stop-opacity:1" offset="0" id="stop7796"/>
      <stop style="stop-color:#f4f4f4;stop-opacity:1" offset="1" id="stop7798"/>
    </linearGradient>
    <linearGradient inkscape:collect="always" id="linearGradient7790">
      <stop style="stop-color:#cd3a00;stop-opacity:1" offset="0" id="stop7786"/>
      <stop style="stop-color:#cf6e53;stop-opacity:1" offset="1" id="stop7788"/>
    </linearGradient>
    <linearGradient inkscape:collect="always" id="linearGradient7730">
      <stop style="stop-color:#ffffff;stop-opacity:0" offset="0" id="stop7726"/>
      <stop id="stop7754" offset="0.65650702" style="stop-color:#ffffff;stop-opacity:0"/>
      <stop id="stop7752" offset="0.82896906" style="stop-color:#fff8f4;stop-opacity:0.26041666"/>
      <stop style="stop-color:#ffffff;stop-opacity:0" offset="1" id="stop7728"/>
    </linearGradient>
    <linearGradient inkscape:collect="always" xlink:href="#linearGradient7790" id="linearGradient7792" x1="160" y1="205" x2="160" y2="113" gradientUnits="userSpaceOnUse"/>
    <linearGradient inkscape:collect="always" xlink:href="#linearGradient7800" id="linearGradient7802" x1="170" y1="201.25058" x2="170" y2="119" gradientUnits="userSpaceOnUse"/>
    <linearGradient gradientTransform="matrix(1.2916667,0,0,1.2916667,65.414517,65.800307)" inkscape:collect="always" xlink:href="#linearGradient7790" id="linearGradient7792-0" x1="160" y1="205" x2="160" y2="113" gradientUnits="userSpaceOnUse"/>
    <linearGradient gradientTransform="matrix(1.2916667,0,0,1.2916667,65.414517,65.800307)" inkscape:collect="always" xlink:href="#linearGradient7800" id="linearGradient7802-7" x1="170" y1="201.25058" x2="170" y2="119" gradientUnits="userSpaceOnUse"/>
    <linearGradient gradientTransform="matrix(0.66666665,0,0,0.66666665,-26.557583,-26.743496)" inkscape:collect="always" xlink:href="#linearGradient7800" id="linearGradient7802-9" x1="170" y1="201.25058" x2="170" y2="119" gradientUnits="userSpaceOnUse"/>
    <linearGradient gradientTransform="matrix(0.66666665,0,0,0.66666665,-26.557583,-26.743496)" inkscape:collect="always" xlink:href="#linearGradient7790" id="linearGradient7792-4" x1="160" y1="205" x2="160" y2="113" gradientUnits="userSpaceOnUse"/>
    <linearGradient gradientTransform="matrix(0.5,0,0,0.5,-56.000002,-55.999999)" inkscape:collect="always" xlink:href="#linearGradient7800" id="linearGradient7802-1" x1="170" y1="201.25058" x2="170" y2="119" gradientUnits="userSpaceOnUse"/>
    <linearGradient gradientTransform="matrix(0.5,0,0,0.5,-56.000002,-55.999999)" inkscape:collect="always" xlink:href="#linearGradient7790" id="linearGradient7792-00" x1="160" y1="205" x2="160" y2="113" gradientUnits="userSpaceOnUse"/>
    <linearGradient gradientTransform="matrix(0.33333333,0,0,0.33333333,-69.333334,-69.333332)" inkscape:collect="always" xlink:href="#linearGradient7800" id="linearGradient7802-2" x1="170" y1="201.25058" x2="170" y2="119" gradientUnits="userSpaceOnUse"/>
    <linearGradient gradientTransform="matrix(0.33333333,0,0,0.33333333,-69.333334,-69.333332)" inkscape:collect="always" xlink:href="#linearGradient7790" id="linearGradient7792-2" x1="160" y1="205" x2="160" y2="113" gradientUnits="userSpaceOnUse"/>
    <linearGradient gradientTransform="matrix(0.25,0,0,0.25,-84,-84)" inkscape:collect="always" xlink:href="#linearGradient7800" id="linearGradient7802-2-6" x1="170" y1="201.25058" x2="170" y2="119" gradientUnits="userSpaceOnUse"/>
    <linearGradient gradientTransform="matrix(0.25,0,0,0.25,-84,-84)" inkscape:collect="always" xlink:href="#linearGradient7790" id="linearGradient7792-2-3" x1="160" y1="205" x2="160" y2="113" gradientUnits="userSpaceOnUse"/>
    <linearGradient gradientTransform="matrix(0.16666666,0,0,0.16666666,-90.666669,-90.666665)" inkscape:collect="always" xlink:href="#linearGradient7800" id="linearGradient7802-2-3" x1="170" y1="201.25058" x2="170" y2="119" gradientUnits="userSpaceOnUse"/>
    <linearGradient gradientTransform="matrix(0.16666666,0,0,0.16666666,-90.666669,-90.666665)" inkscape:collect="always" xlink:href="#linearGradient7790" id="linearGradient7792-2-8" x1="160" y1="205" x2="160" y2="113" gradientUnits="userSpaceOnUse"/>
    <radialGradient inkscape:collect="always" xlink:href="#linearGradient7730" id="radialGradient7750" cx="160.03294" cy="154.04303" fx="160.03294" fy="154.04303" r="47" gradientUnits="userSpaceOnUse" gradientTransform="matrix(0.93644398,0,0,0.93617029,10.138119,9.7894953)"/>
    <radialGradient inkscape:collect="always" xlink:href="#linearGradient7816" id="radialGradient7806" gradientUnits="userSpaceOnUse" gradientTransform="matrix(1.0420069,0,0,0.87187823,-6.6414605,26.640695)" cx="158.17044" cy="167.51665" fx="158.17044" fy="167.51665" r="47"/>
    <radialGradient inkscape:collect="always" xlink:href="#linearGradient7842" id="radialGradient7834" cx="160" cy="160" fx="160" fy="160" r="47" gradientUnits="userSpaceOnUse"/>
    <radialGradient gradientTransform="matrix(1.2916667,0,0,1.2916667,65.414517,65.800307)" inkscape:collect="always" xlink:href="#linearGradient7842" id="radialGradient7834-2" cx="160" cy="160" fx="160" fy="160" r="47" gradientUnits="userSpaceOnUse"/>
    <radialGradient gradientTransform="matrix(0.66666665,0,0,0.66666665,-26.557583,-26.743496)" inkscape:collect="always" xlink:href="#linearGradient7842" id="radialGradient7834-6" cx="160" cy="160" fx="160" fy="160" r="47" gradientUnits="userSpaceOnUse"/>
    <radialGradient gradientTransform="matrix(0.5,0,0,0.5,-56.000002,-55.999999)" inkscape:collect="always" xlink:href="#linearGradient7842" id="radialGradient7834-60" cx="160" cy="160" fx="160" fy="160" r="47" gradientUnits="userSpaceOnUse"/>
    <radialGradient gradientTransform="matrix(0.33333333,0,0,0.33333333,-69.333334,-69.333332)" inkscape:collect="always" xlink:href="#linearGradient7842" id="radialGradient7834-9" cx="160" cy="160" fx="160" fy="160" r="47" gradientUnits="userSpaceOnUse"/>
    <radialGradient gradientTransform="matrix(0.25,0,0,0.25,-84,-84)" inkscape:collect="always" xlink:href="#linearGradient7842" id="radialGradient7834-9-3" cx="160" cy="160" fx="160" fy="160" r="47" gradientUnits="userSpaceOnUse"/>
  </defs>
  <sodipodi:namedview pagecolor="#383c4a" bordercolor="#ffffff" borderopacity="0.62745098" objecttolerance="4" gridtolerance="10" guidetolerance="4" inkscape:pageopacity="0" inkscape:pageshadow="2" inkscape:window-width="640" inkscape:window-height="480" id="namedview20" showgrid="true" inkscape:zoom="21.128842" inkscape:cx="-50.912361" inkscape:cy="106.50951" inkscape:current-layer="layer8" inkscape:snap-smooth-nodes="false" showguides="true" borderlayer="true" inkscape:showpageshadow="false" inkscape:guide-bbox="true" guidecolor="#bd4fff" guideopacity="0.78431373" inkscape:snap-nodes="true" inkscape:lockguides="false" fit-margin-top="0" fit-margin-left="0" fit-margin-right="0" fit-margin-bottom="0" guidehicolor="#ff0101" guidehiopacity="0.78431373" inkscape:snap-page="true" inkscape:object-nodes="true" inkscape:snap-bbox="true" inkscape:snap-global="false" inkscape:snap-object-midpoints="false" inkscape:snap-bbox-edge-midpoints="false">
    <inkscape:grid type="xygrid" id="grid4171" empspacing="4" dotted="false" originx="2.7755576e-17" originy="0" spacingx="1" spacingy="1" color="#5a5a5a" opacity="0.23529412" empcolor="#5a5a5a" empopacity="0.47058824" visible="true"/>
    <inkscape:grid type="axonomgrid" id="grid4699" units="mm" empspacing="4" color="#5a5a5a" opacity="0.23529412" empcolor="#5a5a5a" empopacity="0.47058824" gridanglex="45" gridanglez="45" spacingy="3.7795276" visible="false" originx="1.3228346" originy="1.3228346"/>
    <sodipodi:guide position="48,0" orientation="1,0" id="guide4568" inkscape:locked="false" inkscape:label="" inkscape:color="rgb(189,79,255)"/>
    <sodipodi:guide position="111.99996,-3.9999999e-05" orientation="0,1" id="guide4570" inkscape:locked="false" inkscape:label="" inkscape:color="rgb(189,79,255)"/>
    <sodipodi:guide position="0,0" orientation="1,0" id="guide4572" inkscape:locked="false" inkscape:label="" inkscape:color="rgb(189,79,255)"/>
    <sodipodi:guide position="0,48" orientation="0,1" id="guide4574" inkscape:locked="false" inkscape:label="" inkscape:color="rgb(189,79,255)"/>
    <sodipodi:guide position="0,80" orientation="0,1" id="guide4576" inkscape:locked="false" inkscape:label="" inkscape:color="rgb(189,79,255)"/>
    <sodipodi:guide position="-32,48" orientation="1,0" id="guide4578" inkscape:locked="false" inkscape:label="" inkscape:color="rgb(189,79,255)"/>
    <sodipodi:guide position="-32,104" orientation="0,1" id="guide4580" inkscape:locked="false" inkscape:label="" inkscape:color="rgb(189,79,255)"/>
    <sodipodi:guide position="-56,80" orientation="1,0" id="guide4582" inkscape:locked="false" inkscape:label="" inkscape:color="rgb(189,79,255)"/>
    <sodipodi:guide position="48,-64" orientation="0,1" id="guide4584" inkscape:locked="false" inkscape:label="" inkscape:color="rgb(189,79,255)"/>
    <sodipodi:guide position="0,0" orientation="-0.70710678,0.70710678" id="guide4588" inkscape:locked="false" inkscape:label="" inkscape:color="rgb(189,79,255)"/>
    <sodipodi:guide position="-56,80" orientation="-0.70710678,0.70710678" id="guide4573" inkscape:locked="false" inkscape:label="" inkscape:color="rgb(189,79,255)"/>
    <sodipodi:guide position="-32,48" orientation="-0.70710678,0.70710678" id="guide4575" inkscape:locked="false" inkscape:label="" inkscape:color="rgb(189,79,255)"/>
    <sodipodi:guide position="48,-64" orientation="-0.70710678,0.70710678" id="guide4577" inkscape:locked="false" inkscape:label="" inkscape:color="rgb(189,79,255)"/>
    <sodipodi:guide position="47.999962,0" orientation="0.70710678,0.70710678" id="guide4697" inkscape:locked="false" inkscape:label="" inkscape:color="rgb(189,79,255)"/>
    <sodipodi:guide position="207.99995,-288" orientation="0,1" id="guide7833" inkscape:locked="false"/>
    <sodipodi:guide position="335.99994,-288" orientation="1,0" id="guide7835" inkscape:locked="false" inkscape:label="" inkscape:color="rgb(189,79,255)"/>
    <sodipodi:guide position="111.99996,-64" orientation="1,0" id="guide7915" inkscape:locked="false"/>
    <sodipodi:guide position="111.99996,-160" orientation="0,1" id="guide7917" inkscape:locked="false"/>
    <sodipodi:guide position="207.99996,-160" orientation="1,0" id="guide7919" inkscape:locked="false"/>
    <sodipodi:guide position="111.99996,-160" orientation="-0.70710678,0.70710678" id="guide7921" inkscape:locked="false" inkscape:label="" inkscape:color="rgb(189,79,255)"/>
    <sodipodi:guide position="207.99996,-288" orientation="-0.70710678,0.70710678" id="guide7923" inkscape:locked="false" inkscape:label="" inkscape:color="rgb(189,79,255)"/>
    <sodipodi:guide position="-72,104" orientation="1,0" id="guide7824" inkscape:locked="false"/>
    <sodipodi:guide position="-56,120" orientation="0,1" id="guide7826" inkscape:locked="false"/>
    <sodipodi:guide position="-72,104" orientation="-0.70710678,0.70710678" id="guide7828" inkscape:locked="false" inkscape:label="" inkscape:color="rgb(189,79,255)"/>
  </sodipodi:namedview>
  <g inkscape:groupmode="layer" id="layer4" inkscape:label="icon_128" style="display:inline" transform="translate(-207.99995,-208)">
    <g inkscape:groupmode="layer" id="layer11" inkscape:label="frame" style="display:none">
      <rect inkscape:label="frame_128" y="208" x="207.99995" height="128" width="128" id="frame_128" style="color:#000000;clip-rule:nonzero;display:inline;overflow:visible;visibility:visible;opacity:1;isolation:auto;mix-blend-mode:normal;color-interpolation:sRGB;color-interpolation-filters:linearRGB;solid-color:#000000;solid-opacity:1;vector-effect:none;fill:#000000;fill-opacity:1;fill-rule:nonzero;stroke:#ff24f7;stroke-width:0;stroke-linecap:square;stroke-linejoin:miter;stroke-miterlimit:4;stroke-dasharray:none;stroke-dashoffset:0;stroke-opacity:0.99481865;marker:none;marker-start:none;marker-mid:none;marker-end:none;paint-order:normal;color-rendering:auto;image-rendering:auto;shape-rendering:auto;text-rendering:auto;enable-background:accumulate"/>
      <text xml:space="preserve" style="font-size:38.46457672px;line-height:0%;font-family:sans-serif;letter-spacing:0px;word-spacing:0px;display:inline;opacity:1;fill:#ffffff;fill-opacity:1;stroke:none;stroke-width:0.07881754px;stroke-linecap:butt;stroke-linejoin:miter;stroke-opacity:1" x="236.17479" y="283.34512" id="txt_128" inkscape:label="txt_128">
        <tspan sodipodi:role="line" x="236.17479" y="283.34512" style="font-size:38.46457672px;line-height:0%;fill:#ffffff;fill-opacity:1;stroke:none;stroke-width:0.07881754px" id="tspan5069-6">128</tspan>
      </text>
      <text xml:space="preserve" style="font-size:7.43228436px;line-height:1000%;font-family:sans-serif;letter-spacing:0px;word-spacing:0px;display:inline;opacity:1;fill:#ffffff;fill-opacity:0.42156863;stroke:none;stroke-width:0.16398695px;stroke-linecap:butt;stroke-linejoin:miter;stroke-opacity:1" x="265.97781" y="330.1329" id="txt_scalable_64_512" inkscape:label="txt_scalable_64_512">
        <tspan sodipodi:role="line" x="265.97781" y="330.1329" style="font-size:8.08990479px;fill:#ffffff;fill-opacity:0.42156863;stroke:none;stroke-width:0.16398695px" id="tspan5049-1-6-6">Scalable:96-512</tspan>
      </text>
    </g>
    <g inkscape:groupmode="layer" id="layer12" inkscape:label="icon" style="display:inline">
      <path style="display:inline;fill:none;fill-rule:evenodd;stroke:#ffffff;stroke-width:1.67916656;stroke-linecap:butt;stroke-linejoin:miter;stroke-miterlimit:4;stroke-dasharray:none;stroke-dashoffset:0;stroke-opacity:1" d="m 231.32557,214.34197 c -5.69554,0 -5.29678,8.51965 -8.91554,11.91007 -2.95692,2.77035 -9.69707,1.00642 -10.18448,6.63493 -0.60596,6.99729 -0.0956,20.12372 1.77856,23.75203 l 40.18294,-39.7137 c 0,0 -17.66784,-2.58333 -22.86148,-2.58333 z m 80.26749,0 c -5.19364,0 -22.8615,2.58333 -22.8615,2.58333 l 40.18295,39.7137 c 1.87415,-3.62831 2.38452,-16.75474 1.77856,-23.75203 -0.48741,-5.62851 -7.22756,-3.86458 -10.18448,-6.63493 -3.61876,-3.39042 -3.21999,-11.91007 -8.91553,-11.91007 z m -97.58895,74.88387 c -1.87414,3.62832 -2.38452,16.75474 -1.77856,23.75203 0.48741,5.62852 7.22756,3.86458 10.18449,6.63493 3.61875,3.39042 3.21999,11.91007 8.91553,11.91007 5.19364,0 22.86148,-2.58333 22.86148,-2.58333 z m 114.9104,0 -40.18295,39.7137 c 0,0 17.66786,2.58333 22.8615,2.58333 5.69554,0 5.29677,-8.51965 8.91553,-11.91007 2.95692,-2.77035 9.69707,-1.00641 10.18448,-6.63493 0.60596,-6.99729 0.0956,-20.12371 -1.77856,-23.75203 z" id="path7931-0" inkscape:connector-curvature="0" inkscape:label="n"/>
      <path style="display:inline;fill:none;fill-rule:evenodd;stroke:#9c8456;stroke-width:1.67916656;stroke-linecap:butt;stroke-linejoin:miter;stroke-miterlimit:4;stroke-dasharray:3.35833333, 1.67916667;stroke-dashoffset:0;stroke-opacity:1" d="m 231.32557,214.34197 c -5.69554,0 -5.29678,8.51965 -8.91554,11.91007 -2.95692,2.77035 -9.69707,1.00642 -10.18448,6.63493 -0.60596,6.99729 -0.0956,20.12372 1.77856,23.75203 l 40.18294,-39.7137 c 0,0 -17.66784,-2.58333 -22.86148,-2.58333 z m 80.26749,0 c -5.19364,0 -22.8615,2.58333 -22.8615,2.58333 l 40.18295,39.7137 c 1.87415,-3.62831 2.38452,-16.75474 1.77856,-23.75203 -0.48741,-5.62851 -7.22756,-3.86458 -10.18448,-6.63493 -3.61876,-3.39042 -3.21999,-11.91007 -8.91553,-11.91007 z m -97.58895,74.88387 c -1.87414,3.62832 -2.38452,16.75474 -1.77856,23.75203 0.48741,5.62852 7.22756,3.86458 10.18449,6.63493 3.61875,3.39042 3.21999,11.91007 8.91553,11.91007 5.19364,0 22.86148,-2.58333 22.86148,-2.58333 z m 114.9104,0 -40.18295,39.7137 c 0,0 17.66786,2.58333 22.8615,2.58333 5.69554,0 5.29677,-8.51965 8.91553,-11.91007 2.95692,-2.77035 9.69707,-1.00641 10.18448,-6.63493 0.60596,-6.99729 0.0956,-20.12371 -1.77856,-23.75203 z" id="path7933-6" inkscape:connector-curvature="0" inkscape:label="a"/>
      <path inkscape:connector-curvature="0" id="path7780-4" d="m 272.08118,210.46697 c -34.24166,0 -62,27.75834 -62,62 0,34.24166 27.75834,62 62,62 34.24166,0 62,-27.75834 62,-62 0,-34.24166 -27.75834,-62 -62,-62 z m 0,33.58333 c 15.69409,0 28.41667,12.72258 28.41667,28.41667 0,15.69409 -12.72258,28.41667 -28.41667,28.41667 -15.69409,0 -28.41667,-12.72258 -28.41667,-28.41667 0,-15.69409 12.72258,-28.41667 28.41667,-28.41667 z" style="color:#000000;clip-rule:nonzero;display:block;overflow:visible;visibility:visible;opacity:1;isolation:auto;mix-blend-mode:normal;color-interpolation:sRGB;color-interpolation-filters:linearRGB;solid-color:#000000;solid-opacity:1;vector-effect:none;fill:#000000;fill-opacity:0.05208333;fill-rule:nonzero;stroke:none;stroke-width:1.34782612;stroke-linecap:butt;stroke-linejoin:miter;stroke-miterlimit:4;stroke-dasharray:none;stroke-dashoffset:0;stroke-opacity:0.36979167;marker:none;marker-start:none;marker-mid:none;marker-end:none;paint-order:fill markers stroke;color-rendering:auto;image-rendering:auto;shape-rendering:auto;text-rendering:auto;enable-background:accumulate" sodipodi:nodetypes="ssssssssss" inkscape:label="base sombra"/>
      <path style="color:#000000;clip-rule:nonzero;display:block;overflow:visible;visibility:visible;opacity:1;isolation:auto;mix-blend-mode:normal;color-interpolation:sRGB;color-interpolation-filters:linearRGB;solid-color:#000000;solid-opacity:1;vector-effect:none;fill:url(#linearGradient7792-0);fill-opacity:1;fill-rule:nonzero;stroke:none;stroke-width:1.31974638;stroke-linecap:butt;stroke-linejoin:miter;stroke-miterlimit:4;stroke-dasharray:none;stroke-dashoffset:0;stroke-opacity:0.36979167;marker:none;marker-start:none;marker-mid:none;marker-end:none;paint-order:fill markers stroke;color-rendering:auto;image-rendering:auto;shape-rendering:auto;text-rendering:auto;enable-background:accumulate" d="m 272.08118,211.75864 a 60.708333,60.708333 0 0 0 -60.70833,60.70833 60.708333,60.708333 0 0 0 60.70833,60.70833 60.708333,60.708333 0 0 0 60.70833,-60.70833 60.708333,60.708333 0 0 0 -60.70833,-60.70833 z m 0,31 a 29.708333,29.708333 0 0 1 29.70833,29.70833 29.708333,29.708333 0 0 1 -29.70833,29.70833 29.708333,29.708333 0 0 1 -29.70833,-29.70833 29.708333,29.708333 0 0 1 29.70833,-29.70833 z" id="path7721-0" inkscape:connector-curvature="0" inkscape:label="base"/>
      <path style="color:#000000;clip-rule:nonzero;display:inline;overflow:visible;visibility:visible;opacity:1;isolation:auto;mix-blend-mode:normal;color-interpolation:sRGB;color-interpolation-filters:linearRGB;solid-color:#000000;solid-opacity:1;vector-effect:none;fill:url(#linearGradient7802-7);fill-opacity:1;fill-rule:nonzero;stroke:#441201;stroke-width:1.56209052;stroke-linecap:butt;stroke-linejoin:miter;stroke-miterlimit:4;stroke-dasharray:none;stroke-dashoffset:0;stroke-opacity:0.390625;marker:none;marker-start:none;marker-mid:none;marker-end:none;paint-order:fill markers stroke;color-rendering:auto;image-rendering:auto;shape-rendering:auto;text-rendering:auto;enable-background:accumulate" d="m 241.30066,220.1469 c -8.87877,5.23492 -16.30463,12.66078 -21.53955,21.53955 l 24.69808,20.89877 a 29.372707,29.372707 0 0 1 17.73772,-17.7478 z m 61.56104,0 -20.89877,24.69808 a 29.372707,29.372707 0 0 1 17.7478,17.73772 l 24.69052,-20.89625 c -5.23492,-8.87877 -12.66078,-16.30463 -21.53955,-21.53955 z m -58.40755,62.20939 -24.69304,20.8912 c 5.23454,8.87815 12.65908,16.3047 21.53703,21.53955 l 20.89624,-24.70061 a 29.372707,29.372707 0 0 1 -17.74023,-17.73014 z m 55.24649,0 A 29.372707,29.372707 0 0 1 281.9705,300.094 l 20.8912,24.69304 c 8.87815,-5.23454 16.3047,-12.65908 21.53955,-21.53703 z" id="rect7741-9" inkscape:connector-curvature="0" inkscape:label="four"/>
      <path inkscape:label="base" inkscape:connector-curvature="0" id="path7822-4" d="m 272.08118,211.75864 a 60.708333,60.708333 0 0 0 -60.70833,60.70833 60.708333,60.708333 0 0 0 60.70833,60.70833 60.708333,60.708333 0 0 0 60.70833,-60.70833 60.708333,60.708333 0 0 0 -60.70833,-60.70833 z m 0,31 a 29.708333,29.708333 0 0 1 29.70833,29.70833 29.708333,29.708333 0 0 1 -29.70833,29.70833 29.708333,29.708333 0 0 1 -29.70833,-29.70833 29.708333,29.708333 0 0 1 29.70833,-29.70833 z" style="color:#000000;clip-rule:nonzero;display:inline;overflow:visible;visibility:visible;opacity:1;isolation:auto;mix-blend-mode:normal;color-interpolation:sRGB;color-interpolation-filters:linearRGB;solid-color:#000000;solid-opacity:1;vector-effect:none;fill:url(#radialGradient7834-2);fill-opacity:1;fill-rule:nonzero;stroke:none;stroke-width:1.31974638;stroke-linecap:butt;stroke-linejoin:miter;stroke-miterlimit:4;stroke-dasharray:none;stroke-dashoffset:0;stroke-opacity:0.36979167;marker:none;marker-start:none;marker-mid:none;marker-end:none;paint-order:fill markers stroke;color-rendering:auto;image-rendering:auto;shape-rendering:auto;text-rendering:auto;enable-background:accumulate"/>
      <path style="display:inline;fill:none;fill-rule:evenodd;stroke:#ffffff;stroke-width:1.29166663px;stroke-linecap:butt;stroke-linejoin:miter;stroke-opacity:0.21354167" d="m 242.56458,219.50864 20.98202,24.54166 z m 58.8894,0 -20.98202,24.54166 z m -82.47493,23.25 24.54166,20.98201 z m 24.54166,38.64152 -24.54166,20.98202 z m 56.97714,0 24.54166,20.98202 z m -36.95125,19.69035 -20.98202,24.54167 z m 16.92536,0 20.98202,24.54167 z" id="path7867-5" inkscape:connector-curvature="0" inkscape:label="brillos"/>
      <path style="font-style:normal;font-variant:normal;font-weight:normal;font-stretch:normal;font-size:medium;line-height:1000%;font-family:Z003;-inkscape-font-specification:Z003;letter-spacing:0px;word-spacing:0px;display:inline;fill:#000000;fill-opacity:0.44270833;stroke:none;stroke-width:0.29664487px;stroke-linecap:butt;stroke-linejoin:miter;stroke-opacity:1" d="m 318.11365,240.9979 c -0.0785,-0.006 -0.14794,0.0189 -0.19763,0.0794 -0.0722,0.088 -0.11896,0.25872 -0.13241,0.49946 -0.0151,0.25779 -0.0236,0.41734 -0.0311,0.47878 -0.17431,-0.22904 -0.2637,-0.34501 -0.27105,-0.35105 -0.0221,-0.0181 -0.0686,-0.0147 -0.0896,0.0103 -0.0301,0.0368 -0.1156,0.46336 -0.17702,0.86734 l 0.0772,0.10139 c 0.0103,-0.0347 0.0301,-0.10462 0.0611,-0.20204 0.0243,-0.0969 0.0324,-0.11431 0.0566,-0.14371 0.0362,-0.0439 0.0938,-0.0398 0.15981,0.0145 0.13208,0.10837 0.89702,1.09808 1.51414,1.95465 l -0.10127,0.13844 0.0279,0.20647 c 0.0577,-0.063 0.0931,-0.1072 0.10514,-0.1218 l 0.22158,-0.26108 0.19559,-0.23217 c 0.0242,-0.0293 0.0659,-0.0793 0.13754,-0.17401 l 0.001,-0.18973 -0.35986,0.39231 c -0.18463,-0.23139 -0.27152,-0.34071 -0.31817,-0.40357 -0.0619,-0.0816 -0.12775,-0.15895 -0.19343,-0.24353 l -0.12374,-0.16926 c 0.075,-0.0614 0.11147,-0.0992 0.16266,-0.16158 0.16561,-0.20179 0.17982,-0.25692 0.17622,-0.73884 0.004,-0.20604 -0.0116,-0.29261 -0.0736,-0.43495 -0.14209,-0.31314 -0.36399,-0.62511 -0.57311,-0.79675 -0.0881,-0.0722 -0.17696,-0.11238 -0.25563,-0.11935 z m -1.86056,0.15275 c -0.0816,0.062 -0.11508,0.0962 -0.15728,0.14755 -0.12039,0.14675 -0.15827,0.3056 -0.14444,0.61786 0.0116,0.27882 0.036,0.36764 0.12891,0.52375 0.0639,0.10166 0.29495,0.42589 0.42626,0.59508 l 0.93144,1.20734 c 0.019,0.0218 0.0378,0.0429 0.0599,0.0611 0.11367,0.0934 0.27474,0.12103 0.32293,0.0623 l 0.0187,-0.0223 0.009,-0.009 c 0.0291,-0.0131 0.0447,-0.19662 0.0958,-1.01439 l -0.0801,-0.0677 c -0.0192,0.11315 -0.0196,0.1138 -0.05,0.35285 -0.0212,0.16059 -0.0434,0.24661 -0.0765,0.28698 -0.0301,0.0367 -0.0975,0.0302 -0.14897,-0.0116 l -0.0336,-0.0272 -0.0336,-0.0273 c -0.0661,-0.0541 -0.64244,-0.80287 -1.0483,-1.36321 -0.42553,-0.58876 -0.45989,-0.67289 -0.32739,-0.83432 0.0452,-0.055 0.0792,-0.0891 0.1735,-0.15911 z m 1.88172,0.27282 c 0.0522,0.006 0.11198,0.0359 0.17438,0.0871 0.16509,0.1355 0.33195,0.3591 0.45476,0.61343 0.13882,0.27974 0.14397,0.49228 0.0205,0.64269 -0.0753,0.0917 -0.18621,0.16636 -0.30982,0.21228 l -0.0967,-0.12181 -0.20349,-0.25982 -0.19384,-0.25116 c -0.0154,-0.0187 -0.0543,-0.069 -0.10824,-0.13798 0.0238,-0.47784 0.0581,-0.64588 0.13634,-0.74127 0.0301,-0.0367 0.0739,-0.0509 0.12606,-0.0434 z m -3.53841,1.75301 c -0.0762,0.048 -0.10333,0.0756 -0.15761,0.14145 -0.0391,0.0475 -0.0655,0.0872 -0.0847,0.13296 -0.0459,0.11586 -0.0524,0.42331 -0.0168,0.71657 0.0373,0.27625 0.0895,0.40503 0.26578,0.6541 l 0.27475,0.39211 c 0.008,0.0129 0.0389,0.0559 0.0862,0.12542 l -0.64035,0.78191 c -0.0517,-0.0792 -0.0905,-0.12962 -0.10294,-0.15202 -0.07,-0.0943 -0.13652,-0.18539 -0.20283,-0.27667 -0.07,-0.0943 -0.13949,-0.18924 -0.20646,-0.28719 -0.0116,-0.0158 -0.054,-0.0691 -0.11147,-0.14087 l -0.004,-0.2414 c -0.0856,0.0894 -0.1395,0.15558 -0.18166,0.20695 -0.2951,0.35954 -0.43202,0.65953 -0.44791,0.9781 -0.0159,0.31857 0.0816,0.54445 0.31288,0.73416 0.0586,0.0482 0.10075,0.0717 0.20682,0.12206 l 0.13421,-0.35121 c -0.1445,-0.0633 -0.20496,-0.1005 -0.28568,-0.16676 -0.20177,-0.16562 -0.27914,-0.37122 -0.2247,-0.57217 0.0386,-0.1218 0.0986,-0.2179 0.28227,-0.4417 0.13459,0.20259 0.15118,0.21992 0.53673,0.74517 l 0.0841,0.11328 0.0315,0.24757 0.0854,-0.0903 c 0.53782,0.73621 0.5715,0.89858 0.24929,1.29113 -0.0482,0.0586 -0.0847,0.10217 -0.16737,0.18784 l 0.096,0.368 c 0.0772,-0.0717 0.10811,-0.10166 0.16233,-0.1677 0.0964,-0.11741 0.16141,-0.21723 0.19595,-0.31168 0.0603,-0.14083 0.0647,-0.44458 0.0231,-0.79796 -0.0421,-0.36007 -0.0554,-0.39034 -0.33758,-0.8246 0.34405,-0.47902 0.44407,-0.61612 0.60901,-0.8246 0.062,0.0816 0.10114,0.13854 0.12013,0.16028 l 0.24293,0.3403 c 0.40822,0.54999 0.40883,0.54972 0.45652,0.58886 0.0404,0.0331 0.10669,0.0272 0.14285,-0.0168 0.0212,-0.0257 0.0434,-0.0687 0.0656,-0.11819 0.0526,-0.11651 0.09,-0.18371 0.34492,-0.64383 l -0.0366,-0.1418 c -0.13827,0.20582 -0.18663,0.27046 -0.26492,0.36585 -0.0602,0.0734 -0.13296,0.0877 -0.19533,0.0364 -0.11366,-0.0934 -0.11353,-0.0933 -0.8343,-1.07796 -0.62538,-0.90633 -0.62572,-0.90652 -0.6593,-1.00776 -0.0429,-0.12736 -0.0282,-0.21989 0.0562,-0.32261 0.0602,-0.0734 0.10062,-0.10682 0.1962,-0.16337 z m 1.38666,0.36648 c -0.0647,0.006 -0.12646,0.0446 -0.18067,0.11057 -0.0663,0.0807 -0.0921,0.14972 -0.11676,0.27688 -0.0337,0.20567 -0.0378,0.41153 -0.0103,0.55717 0.0544,0.27794 0.35601,0.73513 0.65318,0.97904 0.21645,0.17768 0.44523,0.17506 0.59881,-0.0116 0.17767,-0.21646 0.24535,-0.62854 0.18871,-1.13556 l -0.10424,-0.0908 c 0.009,0.49826 -0.0287,0.73222 -0.14314,0.87162 -0.0783,0.0954 -0.20124,0.11702 -0.31771,0.0645 -0.0708,-0.0335 -0.11418,-0.063 -0.22057,-0.15034 0.0322,-0.25608 0.0438,-0.41884 0.0599,-0.7678 0.0152,-0.32524 -0.0461,-0.49855 -0.21119,-0.63405 -0.0642,-0.0527 -0.1317,-0.0758 -0.19637,-0.0691 z m -0.0531,0.35303 c 0.0404,0.004 0.0859,0.0241 0.13175,0.0617 0.18343,0.15058 0.21371,0.35394 0.14631,0.93725 -0.34502,-0.38759 -0.51101,-0.80014 -0.37851,-0.96156 0.0242,-0.0293 0.0599,-0.0415 0.10049,-0.0375 z" id="path7927-4" inkscape:connector-curvature="0" inkscape:label="help"/>
      <path style="color:#000000;clip-rule:nonzero;display:block;overflow:visible;visibility:visible;opacity:1;isolation:auto;mix-blend-mode:normal;color-interpolation:sRGB;color-interpolation-filters:linearRGB;solid-color:#000000;solid-opacity:1;vector-effect:none;fill:#000000;fill-opacity:0.11979167;fill-rule:nonzero;stroke:none;stroke-width:1.67916656;stroke-linecap:butt;stroke-linejoin:miter;stroke-miterlimit:4;stroke-dasharray:none;stroke-dashoffset:0;stroke-opacity:1;marker:none;marker-start:none;marker-mid:none;marker-end:none;paint-order:fill markers stroke;color-rendering:auto;image-rendering:auto;shape-rendering:auto;text-rendering:auto;enable-background:accumulate" d="m 307.53894,226.40846 c -0.49517,0.009 -0.98722,0.20907 -1.35978,0.59537 -0.74512,0.77262 -0.72468,1.99463 0.0479,2.73975 l 8.36807,8.0704 c 0.77262,0.74511 1.99463,0.72216 2.73976,-0.0505 0.74511,-0.77261 0.72215,-1.99463 -0.0505,-2.73974 l -8.36556,-8.0704 c -0.38631,-0.37256 -0.88477,-0.55389 -1.37996,-0.54492 z m -70.70361,0.62817 c -0.49519,-0.009 -0.99372,0.1723 -1.37997,0.54492 l -8.36555,8.0704 c -0.77251,0.74523 -0.79569,1.96725 -0.0505,2.73974 0.74523,0.7725 1.96725,0.79318 2.73974,0.0479 l 8.36556,-8.07039 c 0.77251,-0.74523 0.79569,-1.96725 0.0505,-2.73975 -0.37261,-0.38624 -0.86459,-0.58396 -1.35978,-0.59286 z m 63.0192,7.05624 c -0.49517,0.009 -0.98758,0.20872 -1.35977,0.59537 -0.7444,0.77332 -0.72034,1.99535 0.053,2.73975 l 8.37314,8.0603 c 0.77331,0.7444 1.99534,0.72286 2.73974,-0.0505 0.7444,-0.77331 0.72286,-1.99536 -0.0505,-2.73976 l -8.37566,-8.06281 c -0.38664,-0.37221 -0.88479,-0.55184 -1.37996,-0.5424 z m -55.02701,0.46419 c -0.49519,-0.009 -0.99372,0.17231 -1.37997,0.54493 l -8.36555,8.07291 c -0.77251,0.74523 -0.7957,1.96472 -0.0505,2.73722 0.74523,0.7725 1.96725,0.7957 2.73974,0.0505 l 8.36556,-8.0704 c 0.77251,-0.74524 0.79569,-1.96725 0.0505,-2.73974 -0.3726,-0.38625 -0.86459,-0.58648 -1.35977,-0.59538 z m 47.03231,7.21517 c -0.49518,0.009 -0.98507,0.20872 -1.35726,0.59538 -0.7444,0.77331 -0.72286,1.99534 0.0505,2.73974 l 8.37566,8.0603 c 0.77331,0.7444 1.99534,0.72285 2.73974,-0.0505 0.7444,-0.7733 0.72286,-1.99535 -0.0505,-2.73974 l -8.37566,-8.06283 c -0.38665,-0.37219 -0.88731,-0.55183 -1.38248,-0.54239 z m -39.35295,1.09236 c -0.49518,-0.009 -0.99371,0.16978 -1.37997,0.5424 l -8.36807,8.07292 c -0.77251,0.74524 -0.79318,1.96724 -0.0479,2.73975 0.74524,0.77249 1.96725,0.79316 2.73975,0.0479 l 8.36557,-8.0704 c 0.77249,-0.74524 0.79569,-1.96724 0.0505,-2.73974 -0.37262,-0.38626 -0.8646,-0.58396 -1.35979,-0.59286 z m 47.17106,47.16854 c -0.49518,-0.009 -0.99371,0.17231 -1.37996,0.54492 l -8.36808,8.0704 c -0.7725,0.74524 -0.79318,1.96724 -0.0479,2.73974 0.74524,0.7725 1.96725,0.7957 2.73975,0.0505 l 8.36556,-8.0704 c 0.7725,-0.74524 0.79317,-1.96724 0.0479,-2.73974 -0.37262,-0.38626 -0.86209,-0.58648 -1.35727,-0.59538 z m -55.45084,0.31535 c -0.49519,0.009 -0.98723,0.20655 -1.35979,0.59285 -0.74511,0.77262 -0.72468,1.99463 0.0479,2.73975 l 8.36809,8.0704 c 0.77261,0.74511 1.99463,0.72216 2.73974,-0.0505 0.74512,-0.77261 0.72469,-1.99463 -0.0479,-2.73974 l -8.36808,-8.06788 c -0.38631,-0.37256 -0.88479,-0.5539 -1.37996,-0.54492 z m -7.68441,7.68189 c -0.49517,0.009 -0.98758,0.20872 -1.35979,0.59537 -0.74439,0.77332 -0.72032,1.99535 0.053,2.73975 l 8.37312,8.06282 c 0.77331,0.7444 1.99536,0.72034 2.73975,-0.053 0.7444,-0.77331 0.72285,-1.99535 -0.0505,-2.73975 l -8.37564,-8.06282 c -0.38666,-0.37221 -0.88479,-0.55184 -1.37997,-0.5424 z m 70.81209,0.3103 c -0.49518,-0.009 -0.99371,0.16977 -1.37997,0.54239 l -8.36556,8.07292 c -0.77249,0.74524 -0.79569,1.96725 -0.0505,2.73976 0.74524,0.77249 1.96725,0.79316 2.73974,0.0479 l 8.36809,-8.0704 c 0.77249,-0.74524 0.79317,-1.96725 0.0479,-2.73976 -0.37262,-0.38624 -0.8646,-0.58395 -1.35979,-0.59284 z m 8.10865,7.46043 c -0.49521,-0.006 -0.99297,0.17551 -1.37743,0.54998 l -8.32773,8.11075 c -0.76893,0.74892 -0.78423,1.97082 -0.0353,2.73975 0.74892,0.76893 1.97081,0.78676 2.73974,0.0378 l 8.32773,-8.11328 c 0.76892,-0.74892 0.78423,-1.97081 0.0353,-2.73974 -0.37446,-0.38447 -0.86708,-0.57876 -1.36231,-0.5853 z m -86.91293,-0.0914 c -0.49517,0.009 -0.98758,0.20872 -1.35979,0.59538 -0.74438,0.77331 -0.72032,1.99534 0.053,2.73974 l 8.37313,8.06283 c 0.77331,0.74439 1.99535,0.72032 2.73974,-0.053 0.7444,-0.77331 0.72285,-1.99535 -0.0505,-2.73974 l -8.37564,-8.06283 c -0.38666,-0.37219 -0.88479,-0.55184 -1.37997,-0.54239 z" id="rect7945-6" inkscape:connector-curvature="0" inkscape:label="dec" sodipodi:nodetypes="cccccccccccccccccccscccccccccccccscccccccccccccccccccccccccccccccccccccccccccccccccccccscccccccccccccccccccc"/>
    </g>
  </g>
</svg>