<?xml version="1.0" encoding="UTF-8" standalone="yes"?>
<svg xmlns:dc="http://purl.org/dc/elements/1.1/" xmlns:cc="http://creativecommons.org/ns#" xmlns:rdf="http://www.w3.org/1999/02/22-rdf-syntax-ns#" xmlns:svg="http://www.w3.org/2000/svg" xmlns="http://www.w3.org/2000/svg" xmlns:xlink="http://www.w3.org/1999/xlink" xmlns:sodipodi="http://sodipodi.sourceforge.net/DTD/sodipodi-0.dtd" xmlns:inkscape="http://www.inkscape.org/namespaces/inkscape" height="128" viewBox="0 0 128 128" width="128" id="svg2" version="1.1" inkscape:version="0.92.2 5c3e80d, 2017-08-06" sodipodi:docname="hexchat.svg" enable-background="new" folder="128">
  <title id="title4675">Template icons dark</title>
  <metadata id="metadata24">
    <rdf:RDF>
      <cc:Work rdf:about="">
        <dc:format>image/svg+xml</dc:format>
        <dc:type rdf:resource="http://purl.org/dc/dcmitype/StillImage"/>
        <dc:title>Template icons dark</dc:title>
        <dc:date>17/05/13</dc:date>
        <dc:creator>
          <cc:Agent>
            <dc:title>wfpaisa</dc:title>
          </cc:Agent>
        </dc:creator>
        <dc:rights>
          <cc:Agent>
            <dc:title>License: GPLv3</dc:title>
          </cc:Agent>
        </dc:rights>
        <dc:language>es-en</dc:language>
        <dc:subject>
          <rdf:Bag>
            <rdf:li>plane-icon-theme</rdf:li>
          </rdf:Bag>
        </dc:subject>
        <dc:description>Template for create set icons</dc:description>
        <cc:license rdf:resource="https://www.gnu.org/licenses/gpl-3.0.en.html"/>
      </cc:Work>
    </rdf:RDF>
  </metadata>
  <defs id="defs22">
    <linearGradient inkscape:collect="always" id="linearGradient1062">
      <stop style="stop-color:#6e685c;stop-opacity:1" offset="0" id="stop1058"/>
      <stop style="stop-color:#7f6a7f;stop-opacity:1" offset="1" id="stop1060"/>
    </linearGradient>
    <linearGradient id="linearGradient1011">
      <stop style="stop-color:#fadd9a;stop-opacity:0.26373628" offset="0" id="stop1007"/>
      <stop style="stop-color:#ffffff;stop-opacity:0" offset="1" id="stop1009"/>
    </linearGradient>
    <linearGradient id="linearGradient1003">
      <stop id="stop999" offset="0" style="stop-color:#000000;stop-opacity:0.02197802"/>
      <stop id="stop1001" offset="1" style="stop-color:#ffffff;stop-opacity:0"/>
    </linearGradient>
    <linearGradient id="linearGradient951">
      <stop style="stop-color:#000000;stop-opacity:0.02197802" offset="0" id="stop947"/>
      <stop style="stop-color:#111111;stop-opacity:0.55128205;" offset="1" id="stop949"/>
    </linearGradient>
    <linearGradient inkscape:collect="always" id="linearGradient937">
      <stop style="stop-color:#262532;stop-opacity:1" offset="0" id="stop933"/>
      <stop style="stop-color:#39343d;stop-opacity:1" offset="1" id="stop935"/>
    </linearGradient>
    <linearGradient inkscape:collect="always" id="linearGradient919">
      <stop style="stop-color:#f75100;stop-opacity:1" offset="0" id="stop915"/>
      <stop style="stop-color:#ffae11;stop-opacity:1" offset="1" id="stop917"/>
    </linearGradient>
    <linearGradient inkscape:collect="always" id="linearGradient890">
      <stop style="stop-color:#23211d;stop-opacity:1" offset="0" id="stop886"/>
      <stop style="stop-color:#3f474b;stop-opacity:1" offset="1" id="stop888"/>
    </linearGradient>
    <linearGradient inkscape:collect="always" xlink:href="#linearGradient890" id="linearGradient892" x1="163.84251" y1="197.85826" x2="163.84251" y2="124" gradientUnits="userSpaceOnUse"/>
    <linearGradient inkscape:collect="always" xlink:href="#linearGradient919" id="linearGradient921" x1="160" y1="182.11389" x2="160" y2="138" gradientUnits="userSpaceOnUse"/>
    <linearGradient inkscape:collect="always" xlink:href="#linearGradient937" id="linearGradient939" x1="165.5748" y1="196.64023" x2="165.5748" y2="124" gradientUnits="userSpaceOnUse"/>
    <linearGradient inkscape:collect="always" xlink:href="#linearGradient951" id="linearGradient957" gradientUnits="userSpaceOnUse" x1="157.44095" y1="165" x2="152.50394" y2="178" gradientTransform="matrix(-1,0,0,1,319.97656,0)"/>
    <linearGradient inkscape:collect="always" xlink:href="#linearGradient951" id="linearGradient963" gradientUnits="userSpaceOnUse" x1="157.44095" y1="165" x2="152.50394" y2="178" gradientTransform="matrix(1,0,0,-1,0,321.42)"/>
    <linearGradient inkscape:collect="always" xlink:href="#linearGradient951" id="linearGradient965" gradientUnits="userSpaceOnUse" gradientTransform="rotate(-180,159.98828,160.71002)" x1="157.44095" y1="165" x2="152.50394" y2="178"/>
    <linearGradient inkscape:collect="always" xlink:href="#linearGradient951" id="linearGradient991" gradientUnits="userSpaceOnUse" x1="152.96036" y1="169.59766" x2="150.53516" y2="166.59766" gradientTransform="matrix(1,0,0,-1,-9.53516,354.59766)"/>
    <linearGradient inkscape:collect="always" xlink:href="#linearGradient951" id="linearGradient957-3" gradientUnits="userSpaceOnUse" x1="157.44095" y1="165" x2="152.50394" y2="178" gradientTransform="matrix(-1,0,0,1,159.98828,-160.75391)"/>
    <linearGradient inkscape:collect="always" xlink:href="#linearGradient951" id="linearGradient1036" gradientUnits="userSpaceOnUse" gradientTransform="matrix(-1,0,0,1,319.97656,0)" x1="162.53561" y1="165" x2="171.25215" y2="173"/>
    <linearGradient inkscape:collect="always" xlink:href="#linearGradient1062" id="linearGradient1064" x1="166.3307" y1="203.9016" x2="166.3307" y2="116" gradientUnits="userSpaceOnUse"/>
    <linearGradient inkscape:collect="always" xlink:href="#linearGradient937" id="linearGradient1073" gradientUnits="userSpaceOnUse" x1="165.5748" y1="196.64023" x2="165.5748" y2="124"/>
    <linearGradient gradientTransform="matrix(1.3333331,0,0,1.3333331,58.666708,58.666698)" inkscape:collect="always" xlink:href="#linearGradient937" id="linearGradient1073-3" gradientUnits="userSpaceOnUse" x1="165.5748" y1="196.64023" x2="165.5748" y2="124"/>
    <linearGradient gradientTransform="matrix(1.3333331,0,0,1.3333331,58.666708,58.666698)" inkscape:collect="always" xlink:href="#linearGradient919" id="linearGradient921-2" x1="160" y1="182.11389" x2="160" y2="138" gradientUnits="userSpaceOnUse"/>
    <linearGradient inkscape:collect="always" xlink:href="#linearGradient951" id="linearGradient1036-2" gradientUnits="userSpaceOnUse" gradientTransform="matrix(-1.3333331,0,0,1.3333331,485.30205,58.666698)" x1="162.53561" y1="165" x2="171.25215" y2="173"/>
    <linearGradient inkscape:collect="always" xlink:href="#linearGradient951" id="linearGradient957-9" gradientUnits="userSpaceOnUse" x1="157.44095" y1="165" x2="152.50394" y2="178" gradientTransform="matrix(-1.3333331,0,0,1.3333331,485.30205,58.666698)"/>
    <linearGradient inkscape:collect="always" xlink:href="#linearGradient951" id="linearGradient963-3" gradientUnits="userSpaceOnUse" x1="157.44095" y1="165" x2="152.50394" y2="178" gradientTransform="matrix(1.3333331,0,0,-1.3333331,58.666708,487.22662)"/>
    <linearGradient inkscape:collect="always" xlink:href="#linearGradient951" id="linearGradient965-6" gradientUnits="userSpaceOnUse" gradientTransform="matrix(-1.3333331,0,0,-1.3333331,485.30207,487.22668)" x1="157.44095" y1="165" x2="152.50394" y2="178"/>
    <linearGradient gradientTransform="matrix(0.66667093,0,0,0.66667093,-26.667364,-26.667346)" inkscape:collect="always" xlink:href="#linearGradient937" id="linearGradient1073-5" gradientUnits="userSpaceOnUse" x1="165.5748" y1="196.64023" x2="165.5748" y2="124"/>
    <linearGradient gradientTransform="matrix(0.66667093,0,0,0.66667093,-26.667364,-26.667346)" inkscape:collect="always" xlink:href="#linearGradient919" id="linearGradient921-28" x1="160" y1="182.11389" x2="160" y2="138" gradientUnits="userSpaceOnUse"/>
    <linearGradient inkscape:collect="always" xlink:href="#linearGradient951" id="linearGradient1036-3" gradientUnits="userSpaceOnUse" gradientTransform="matrix(-0.66667093,0,0,0.66667093,186.65171,-26.667346)" x1="162.53561" y1="165" x2="171.25215" y2="173"/>
    <linearGradient inkscape:collect="always" xlink:href="#linearGradient951" id="linearGradient957-2" gradientUnits="userSpaceOnUse" x1="157.44095" y1="165" x2="152.50394" y2="178" gradientTransform="matrix(-0.66667093,0,0,0.66667093,186.65171,-26.667346)"/>
    <linearGradient inkscape:collect="always" xlink:href="#linearGradient951" id="linearGradient963-9" gradientUnits="userSpaceOnUse" x1="157.44095" y1="165" x2="152.50394" y2="178" gradientTransform="matrix(0.66667093,0,0,-0.66667093,-26.667364,187.61402)"/>
    <linearGradient inkscape:collect="always" xlink:href="#linearGradient951" id="linearGradient965-3" gradientUnits="userSpaceOnUse" gradientTransform="matrix(-0.66667093,0,0,-0.66667093,186.65171,187.61405)" x1="157.44095" y1="165" x2="152.50394" y2="178"/>
    <linearGradient gradientTransform="matrix(0.49999736,0,0,0.49999736,-55.999599,-55.999578)" inkscape:collect="always" xlink:href="#linearGradient937" id="linearGradient1073-32" gradientUnits="userSpaceOnUse" x1="165.5748" y1="196.64023" x2="165.5748" y2="124"/>
    <linearGradient gradientTransform="matrix(0.49999736,0,0,0.49999736,-55.999599,-55.999578)" inkscape:collect="always" xlink:href="#linearGradient919" id="linearGradient921-1" x1="160" y1="182.11389" x2="160" y2="138" gradientUnits="userSpaceOnUse"/>
    <linearGradient inkscape:collect="always" xlink:href="#linearGradient951" id="linearGradient1036-4" gradientUnits="userSpaceOnUse" gradientTransform="matrix(-0.49999736,0,0,0.49999736,103.98784,-55.999578)" x1="162.53561" y1="165" x2="171.25215" y2="173"/>
    <linearGradient inkscape:collect="always" xlink:href="#linearGradient951" id="linearGradient957-5" gradientUnits="userSpaceOnUse" x1="157.44095" y1="165" x2="152.50394" y2="178" gradientTransform="matrix(-0.49999736,0,0,0.49999736,103.98784,-55.999578)"/>
    <linearGradient inkscape:collect="always" xlink:href="#linearGradient951" id="linearGradient963-6" gradientUnits="userSpaceOnUse" x1="157.44095" y1="165" x2="152.50394" y2="178" gradientTransform="matrix(0.49999736,0,0,-0.49999736,-55.999599,104.70957)"/>
    <linearGradient inkscape:collect="always" xlink:href="#linearGradient951" id="linearGradient965-9" gradientUnits="userSpaceOnUse" gradientTransform="matrix(-0.49999736,0,0,-0.49999736,103.98784,104.70959)" x1="157.44095" y1="165" x2="152.50394" y2="178"/>
    <linearGradient gradientTransform="matrix(0.33333546,0,0,0.33333546,-69.333702,-69.333674)" inkscape:collect="always" xlink:href="#linearGradient937" id="linearGradient1073-8" gradientUnits="userSpaceOnUse" x1="165.5748" y1="196.64023" x2="165.5748" y2="124"/>
    <linearGradient gradientTransform="matrix(0.33333546,0,0,0.33333546,-69.333702,-69.333674)" inkscape:collect="always" xlink:href="#linearGradient919" id="linearGradient921-14" x1="160" y1="182.11389" x2="160" y2="138" gradientUnits="userSpaceOnUse"/>
    <linearGradient gradientTransform="matrix(0.27426685,0,0,0.27426685,-87.882725,-87.943515)" inkscape:collect="always" xlink:href="#linearGradient919" id="linearGradient921-14-9" x1="160" y1="182.11389" x2="160" y2="138" gradientUnits="userSpaceOnUse"/>
    <linearGradient gradientTransform="matrix(0.24124709,0,0,0.24124709,-82.599567,-82.599535)" inkscape:collect="always" xlink:href="#linearGradient937" id="linearGradient1073-8-0" gradientUnits="userSpaceOnUse" x1="165.5748" y1="196.64023" x2="165.5748" y2="124"/>
    <linearGradient gradientTransform="matrix(0.14893698,0,0,0.14893698,-87.829957,-87.829915)" inkscape:collect="always" xlink:href="#linearGradient937" id="linearGradient1073-8-0-9" gradientUnits="userSpaceOnUse" x1="165.5748" y1="196.64023" x2="165.5748" y2="124"/>
    <linearGradient gradientTransform="matrix(0.19618943,0,0,0.19618943,-95.39034,-95.464324)" inkscape:collect="always" xlink:href="#linearGradient919" id="linearGradient921-14-9-6" x1="160" y1="182.11389" x2="160" y2="138" gradientUnits="userSpaceOnUse"/>
  </defs>
  <sodipodi:namedview pagecolor="#383c4a" bordercolor="#ffffff" borderopacity="0.62745098" objecttolerance="4" gridtolerance="10" guidetolerance="4" inkscape:pageopacity="0" inkscape:pageshadow="2" inkscape:window-width="640" inkscape:window-height="480" id="namedview20" showgrid="true" inkscape:zoom="32.578064" inkscape:cx="-61.617454" inkscape:cy="112.57787" inkscape:current-layer="layer6" inkscape:snap-smooth-nodes="false" showguides="true" borderlayer="true" inkscape:showpageshadow="false" inkscape:guide-bbox="true" guidecolor="#bd4fff" guideopacity="0.78431373" inkscape:snap-nodes="true" inkscape:lockguides="false" fit-margin-top="0" fit-margin-left="0" fit-margin-right="0" fit-margin-bottom="0" guidehicolor="#ff0101" guidehiopacity="0.78431373" inkscape:snap-page="true" inkscape:object-nodes="true" inkscape:snap-bbox="true" inkscape:snap-global="true" inkscape:snap-object-midpoints="false" inkscape:snap-bbox-edge-midpoints="false">
    <inkscape:grid type="xygrid" id="grid4171" empspacing="4" dotted="false" originx="2.7755576e-17" originy="0" spacingx="1" spacingy="1" color="#5a5a5a" opacity="0.23529412" empcolor="#5a5a5a" empopacity="0.47058824" visible="true"/>
    <inkscape:grid type="axonomgrid" id="grid4699" units="mm" empspacing="4" color="#5a5a5a" opacity="0.23529412" empcolor="#5a5a5a" empopacity="0.47058824" gridanglex="45" gridanglez="45" spacingy="3.7795276" visible="false" originx="1.3228346" originy="1.3228346"/>
    <sodipodi:guide position="48,0" orientation="1,0" id="guide4568" inkscape:locked="false" inkscape:label="" inkscape:color="rgb(189,79,255)"/>
    <sodipodi:guide position="111.99996,-3.9999999e-05" orientation="0,1" id="guide4570" inkscape:locked="false" inkscape:label="" inkscape:color="rgb(189,79,255)"/>
    <sodipodi:guide position="0,0" orientation="1,0" id="guide4572" inkscape:locked="false" inkscape:label="" inkscape:color="rgb(189,79,255)"/>
    <sodipodi:guide position="0,48" orientation="0,1" id="guide4574" inkscape:locked="false" inkscape:label="" inkscape:color="rgb(189,79,255)"/>
    <sodipodi:guide position="0,80" orientation="0,1" id="guide4576" inkscape:locked="false" inkscape:label="" inkscape:color="rgb(189,79,255)"/>
    <sodipodi:guide position="-32,48" orientation="1,0" id="guide4578" inkscape:locked="false" inkscape:label="" inkscape:color="rgb(189,79,255)"/>
    <sodipodi:guide position="-32,104" orientation="0,1" id="guide4580" inkscape:locked="false" inkscape:label="" inkscape:color="rgb(189,79,255)"/>
    <sodipodi:guide position="-56,80" orientation="1,0" id="guide4582" inkscape:locked="false" inkscape:label="" inkscape:color="rgb(189,79,255)"/>
    <sodipodi:guide position="48,-64" orientation="0,1" id="guide4584" inkscape:locked="false" inkscape:label="" inkscape:color="rgb(189,79,255)"/>
    <sodipodi:guide position="0,0" orientation="-0.70710678,0.70710678" id="guide4588" inkscape:locked="false" inkscape:label="" inkscape:color="rgb(189,79,255)"/>
    <sodipodi:guide position="-56,80" orientation="-0.70710678,0.70710678" id="guide4573" inkscape:locked="false" inkscape:label="" inkscape:color="rgb(189,79,255)"/>
    <sodipodi:guide position="-32,48" orientation="-0.70710678,0.70710678" id="guide4575" inkscape:locked="false" inkscape:label="" inkscape:color="rgb(189,79,255)"/>
    <sodipodi:guide position="48,-64" orientation="-0.70710678,0.70710678" id="guide4577" inkscape:locked="false" inkscape:label="" inkscape:color="rgb(189,79,255)"/>
    <sodipodi:guide position="47.999962,0" orientation="0.70710678,0.70710678" id="guide4697" inkscape:locked="false" inkscape:label="" inkscape:color="rgb(189,79,255)"/>
    <sodipodi:guide position="207.99995,-288" orientation="0,1" id="guide7833" inkscape:locked="false"/>
    <sodipodi:guide position="335.99994,-288" orientation="1,0" id="guide7835" inkscape:locked="false" inkscape:label="" inkscape:color="rgb(189,79,255)"/>
    <sodipodi:guide position="111.99996,-64" orientation="1,0" id="guide7915" inkscape:locked="false"/>
    <sodipodi:guide position="111.99996,-160" orientation="0,1" id="guide7917" inkscape:locked="false"/>
    <sodipodi:guide position="207.99996,-160" orientation="1,0" id="guide7919" inkscape:locked="false"/>
    <sodipodi:guide position="111.99996,-160" orientation="-0.70710678,0.70710678" id="guide7921" inkscape:locked="false" inkscape:label="" inkscape:color="rgb(189,79,255)"/>
    <sodipodi:guide position="207.99996,-288" orientation="-0.70710678,0.70710678" id="guide7923" inkscape:locked="false" inkscape:label="" inkscape:color="rgb(189,79,255)"/>
    <sodipodi:guide position="-72,104" orientation="1,0" id="guide7824" inkscape:locked="false"/>
    <sodipodi:guide position="-56,120" orientation="0,1" id="guide7826" inkscape:locked="false"/>
    <sodipodi:guide position="-72,104" orientation="-0.70710678,0.70710678" id="guide7828" inkscape:locked="false" inkscape:label="" inkscape:color="rgb(189,79,255)"/>
  </sodipodi:namedview>
  <g inkscape:groupmode="layer" id="layer4" inkscape:label="icon_128" style="display:inline" transform="translate(-207.99995,-208)">
    <g inkscape:groupmode="layer" id="layer11" inkscape:label="frame" style="display:none">
      <rect inkscape:label="frame_128" y="208" x="207.99995" height="128" width="128" id="frame_128" style="color:#000000;clip-rule:nonzero;display:inline;overflow:visible;visibility:visible;opacity:1;isolation:auto;mix-blend-mode:normal;color-interpolation:sRGB;color-interpolation-filters:linearRGB;solid-color:#000000;solid-opacity:1;vector-effect:none;fill:#000000;fill-opacity:1;fill-rule:nonzero;stroke:#ff24f7;stroke-width:0;stroke-linecap:square;stroke-linejoin:miter;stroke-miterlimit:4;stroke-dasharray:none;stroke-dashoffset:0;stroke-opacity:0.99481865;marker:none;marker-start:none;marker-mid:none;marker-end:none;paint-order:normal;color-rendering:auto;image-rendering:auto;shape-rendering:auto;text-rendering:auto;enable-background:accumulate"/>
      <text xml:space="preserve" style="font-size:38.46457672px;line-height:0%;font-family:sans-serif;letter-spacing:0px;word-spacing:0px;display:inline;opacity:1;fill:#ffffff;fill-opacity:1;stroke:none;stroke-width:0.07881754px;stroke-linecap:butt;stroke-linejoin:miter;stroke-opacity:1" x="236.17479" y="283.34512" id="txt_128" inkscape:label="txt_128">
        <tspan sodipodi:role="line" x="236.17479" y="283.34512" style="font-size:38.46457672px;line-height:0%;fill:#ffffff;fill-opacity:1;stroke:none;stroke-width:0.07881754px" id="tspan5069-6">128</tspan>
      </text>
      <text xml:space="preserve" style="font-size:7.43228436px;line-height:1000%;font-family:sans-serif;letter-spacing:0px;word-spacing:0px;display:inline;opacity:1;fill:#ffffff;fill-opacity:0.42156863;stroke:none;stroke-width:0.16398695px;stroke-linecap:butt;stroke-linejoin:miter;stroke-opacity:1" x="265.97781" y="330.1329" id="txt_scalable_64_512" inkscape:label="txt_scalable_64_512">
        <tspan sodipodi:role="line" x="265.97781" y="330.1329" style="font-size:8.08990479px;fill:#ffffff;fill-opacity:0.42156863;stroke:none;stroke-width:0.16398695px" id="tspan5049-1-6-6">Scalable:96-512</tspan>
      </text>
    </g>
    <g inkscape:groupmode="layer" id="layer12" inkscape:label="icon" style="display:inline">
      <path d="m 335.99997,272 c 0,4.48 -28.12021,53.18563 -32,55.42563 -3.87979,2.24 -60.12021,2.24 -64,0 -3.87979,-2.24 -32,-50.94563 -32,-55.42563 0,-4.48 28.12021,-53.18563 32,-55.42563 3.87979,-2.24 60.12021,-2.24 64,0 3.87979,2.24 32,50.94563 32,55.42563 z" inkscape:randomized="0" inkscape:rounded="0.07" inkscape:flatsided="true" sodipodi:arg2="0.52359878" sodipodi:arg1="0" sodipodi:r2="55.425625" sodipodi:r1="64" sodipodi:cy="272" sodipodi:cx="271.99997" sodipodi:sides="6" id="path941-0" style="color:#000000;clip-rule:nonzero;display:block;overflow:visible;visibility:visible;opacity:1;isolation:auto;mix-blend-mode:normal;color-interpolation:sRGB;color-interpolation-filters:linearRGB;solid-color:#000000;solid-opacity:1;vector-effect:none;fill:#000000;fill-opacity:0.42307691;fill-rule:nonzero;stroke:none;stroke-width:11.90732002;stroke-linecap:butt;stroke-linejoin:miter;stroke-miterlimit:4;stroke-dasharray:none;stroke-dashoffset:0;stroke-opacity:1;marker:none;marker-start:none;marker-mid:none;marker-end:none;paint-order:fill markers stroke;color-rendering:auto;image-rendering:auto;shape-rendering:auto;text-rendering:auto;enable-background:accumulate" sodipodi:type="star"/>
      <path sodipodi:type="star" style="color:#000000;clip-rule:nonzero;display:block;overflow:visible;visibility:visible;opacity:1;isolation:auto;mix-blend-mode:normal;color-interpolation:sRGB;color-interpolation-filters:linearRGB;solid-color:#000000;solid-opacity:1;vector-effect:none;fill:url(#linearGradient1073-3);fill-opacity:1;fill-rule:nonzero;stroke:none;stroke-width:11.65926075;stroke-linecap:butt;stroke-linejoin:miter;stroke-miterlimit:4;stroke-dasharray:none;stroke-dashoffset:0;stroke-opacity:1;marker:none;marker-start:none;marker-mid:none;marker-end:none;paint-order:fill markers stroke;color-rendering:auto;image-rendering:auto;shape-rendering:auto;text-rendering:auto;enable-background:accumulate" id="path931-6" sodipodi:sides="6" sodipodi:cx="271.99997" sodipodi:cy="272" sodipodi:r1="62.666718" sodipodi:r2="54.270973" sodipodi:arg1="0" sodipodi:arg2="0.52359878" inkscape:flatsided="true" inkscape:rounded="0.07" inkscape:randomized="0" d="m 334.66669,272 c 0,4.38667 -27.53439,52.07763 -31.33336,54.27097 -3.79897,2.19333 -58.86775,2.19333 -62.66672,0 -3.79897,-2.19334 -31.33336,-49.8843 -31.33336,-54.27097 0,-4.38667 27.53439,-52.07763 31.33336,-54.27097 3.79897,-2.19333 58.86775,-2.19333 62.66672,0 3.79897,2.19334 31.33336,49.8843 31.33336,54.27097 z"/>
      <path d="m 325.33335,272 c 0,3.73334 -23.43352,44.3214 -26.66669,46.18807 -3.23316,1.86667 -50.10022,1.86667 -53.33338,0 -3.23317,-1.86667 -26.6667,-42.45473 -26.6667,-46.18807 0,-3.73334 23.43353,-44.3214 26.6667,-46.18807 3.23316,-1.86667 50.10022,-1.86667 53.33338,0 3.23317,1.86667 26.66669,42.45473 26.66669,46.18807 z" inkscape:randomized="0" inkscape:rounded="0.07" inkscape:flatsided="true" sodipodi:arg2="0.52359878" sodipodi:arg1="0" sodipodi:r2="46.188068" sodipodi:r1="53.333385" sodipodi:cy="272" sodipodi:cx="271.99997" sodipodi:sides="6" id="path927-2" style="color:#000000;clip-rule:nonzero;display:block;overflow:visible;visibility:visible;opacity:1;isolation:auto;mix-blend-mode:normal;color-interpolation:sRGB;color-interpolation-filters:linearRGB;solid-color:#000000;solid-opacity:1;vector-effect:none;fill:#f6f5f4;fill-opacity:0.09890113;fill-rule:nonzero;stroke:none;stroke-width:9.92277622;stroke-linecap:butt;stroke-linejoin:miter;stroke-miterlimit:4;stroke-dasharray:none;stroke-dashoffset:0;stroke-opacity:1;marker:none;marker-start:none;marker-mid:none;marker-end:none;paint-order:fill markers stroke;color-rendering:auto;image-rendering:auto;shape-rendering:auto;text-rendering:auto;enable-background:accumulate" sodipodi:type="star"/>
      <path sodipodi:type="star" style="color:#000000;clip-rule:nonzero;display:block;overflow:visible;visibility:visible;opacity:1;isolation:auto;mix-blend-mode:normal;color-interpolation:sRGB;color-interpolation-filters:linearRGB;solid-color:#000000;solid-opacity:1;vector-effect:none;fill:#f6f5f4;fill-opacity:0.09890113;fill-rule:nonzero;stroke:none;stroke-width:8.68243122;stroke-linecap:butt;stroke-linejoin:miter;stroke-miterlimit:4;stroke-dasharray:none;stroke-dashoffset:0;stroke-opacity:1;marker:none;marker-start:none;marker-mid:none;marker-end:none;paint-order:fill markers stroke;color-rendering:auto;image-rendering:auto;shape-rendering:auto;text-rendering:auto;enable-background:accumulate" id="path925-6" sodipodi:sides="6" sodipodi:cx="271.99997" sodipodi:cy="272" sodipodi:r1="46.666721" sodipodi:r2="40.414566" sodipodi:arg1="0" sodipodi:arg2="0.52359878" inkscape:flatsided="true" inkscape:rounded="0.07" inkscape:randomized="0" d="m 318.66669,272 c 0,3.26667 -20.50434,38.78123 -23.33336,40.41457 -2.82902,1.63333 -43.8377,1.63333 -46.66672,0 -2.82902,-1.63334 -23.33336,-37.1479 -23.33336,-40.41457 0,-3.26667 20.50434,-38.78123 23.33336,-40.41457 2.82902,-1.63333 43.8377,-1.63333 46.66672,0 2.82902,1.63334 23.33336,37.1479 23.33336,40.41457 z"/>
      <path inkscape:connector-curvature="0" id="path982-1" d="m 272.00001,216.08334 c -14.71693,0 -29.43385,0.54916 -31.33333,1.64584 -3.79897,2.19333 -31.33333,49.88415 -31.33333,54.27082 0,0.16024 0.0463,0.3952 0.1172,0.66667 1.87215,-7.16034 27.55595,-51.49094 31.21615,-53.60415 3.79897,-2.19335 58.86768,-2.19335 62.66665,0 3.6602,2.11321 29.344,46.44381 31.21614,53.60415 0.0709,-0.27147 0.1172,-0.50643 0.1172,-0.66667 0,-4.38667 -27.53435,-52.07749 -31.33332,-54.27082 -1.89948,-1.09668 -16.6164,-1.64584 -31.33333,-1.64584 z" style="color:#000000;clip-rule:nonzero;display:inline;overflow:visible;visibility:visible;opacity:1;isolation:auto;mix-blend-mode:normal;color-interpolation:sRGB;color-interpolation-filters:linearRGB;solid-color:#000000;solid-opacity:1;vector-effect:none;fill:#f5deb2;fill-opacity:0.24725276;fill-rule:nonzero;stroke:none;stroke-width:11.65926075;stroke-linecap:butt;stroke-linejoin:miter;stroke-miterlimit:4;stroke-dasharray:none;stroke-dashoffset:0;stroke-opacity:1;marker:none;marker-start:none;marker-mid:none;marker-end:none;paint-order:fill markers stroke;color-rendering:auto;image-rendering:auto;shape-rendering:auto;text-rendering:auto;enable-background:accumulate"/>
      <path style="color:#000000;font-style:normal;font-variant:normal;font-weight:normal;font-stretch:normal;font-size:medium;line-height:normal;font-family:sans-serif;font-variant-ligatures:normal;font-variant-position:normal;font-variant-caps:normal;font-variant-numeric:normal;font-variant-alternates:normal;font-feature-settings:normal;text-indent:0;text-align:start;text-decoration:none;text-decoration-line:none;text-decoration-style:solid;text-decoration-color:#000000;letter-spacing:normal;word-spacing:normal;text-transform:none;writing-mode:lr-tb;direction:ltr;text-orientation:mixed;dominant-baseline:auto;baseline-shift:baseline;text-anchor:start;white-space:normal;shape-padding:0;clip-rule:nonzero;display:block;overflow:visible;visibility:visible;opacity:1;isolation:auto;mix-blend-mode:normal;color-interpolation:sRGB;color-interpolation-filters:linearRGB;solid-color:#000000;solid-opacity:1;vector-effect:none;fill:#000000;fill-opacity:0.2142857;fill-rule:nonzero;stroke:none;stroke-width:7.99999857;stroke-linecap:butt;stroke-linejoin:miter;stroke-miterlimit:4;stroke-dasharray:none;stroke-dashoffset:0;stroke-opacity:1;marker:none;paint-order:fill markers stroke;color-rendering:auto;image-rendering:auto;shape-rendering:auto;text-rendering:auto;enable-background:accumulate" d="m 272.00001,240.01823 c -4.21229,0 -8.41775,0.074 -11.77344,0.22918 -1.67784,0.0776 -3.13526,0.17408 -4.33853,0.30207 -0.60164,0.064 -1.13592,0.13452 -1.66147,0.23438 -0.52553,0.0999 -0.92284,0.0733 -1.97656,0.66406 -1.05373,0.5907 -1.2341,0.94135 -1.58593,1.33334 -0.35185,0.39198 -0.68116,0.80474 -1.03907,1.27864 -0.71581,0.94778 -1.52938,2.12536 -2.4375,3.4974 -1.81627,2.74409 -3.98499,6.24446 -6.09113,9.78645 -2.10615,3.54199 -4.14028,7.11374 -5.6797,10.01302 -0.76972,1.44966 -1.41618,2.72368 -1.90364,3.79948 -0.24373,0.5379 -0.44869,1.02118 -0.6224,1.51302 -0.17369,0.49184 -0.39584,0.81601 -0.39584,1.9974 0,1.18138 0.22215,1.50556 0.39584,1.9974 0.17371,0.49184 0.37867,0.97512 0.6224,1.51301 0.48746,1.0758 1.13392,2.34983 1.90364,3.79948 1.53942,2.89928 3.57355,6.47104 5.6797,10.01302 1.35818,2.28412 2.70626,4.46558 4.00519,6.52344 l -5.56695,16.14759 14.08779,-6.22572 c 0.20771,0.0429 0.40291,0.0764 0.60416,0.11453 0.52555,0.0999 1.05983,0.17037 1.66147,0.23437 1.20327,0.128 2.66069,0.2245 4.33853,0.30208 3.35569,0.15519 7.56115,0.22918 11.77344,0.22918 4.21231,0 8.41515,-0.074 11.77082,-0.22918 1.67784,-0.0776 3.13788,-0.17408 4.34115,-0.30208 0.60164,-0.064 1.13591,-0.13452 1.66147,-0.23437 0.52553,-0.0999 0.92282,-0.0733 1.97656,-0.66407 1.05373,-0.59069 1.2341,-0.94134 1.58593,-1.33333 0.35184,-0.39199 0.68116,-0.80475 1.03907,-1.27864 0.7158,-0.94779 1.52938,-2.12536 2.4375,-3.4974 1.81627,-2.74409 3.98498,-6.24446 6.09114,-9.78645 2.10614,-3.54199 4.14026,-7.11375 5.67969,-10.01302 0.76972,-1.44966 1.41358,-2.72368 1.90104,-3.79948 0.24373,-0.5379 0.45129,-1.02118 0.625,-1.51302 0.1737,-0.49184 0.39584,-0.81601 0.39584,-1.9974 0,-1.18138 -0.22214,-1.50556 -0.39584,-1.9974 -0.17371,-0.49184 -0.38127,-0.97512 -0.625,-1.51301 -0.48747,-1.0758 -1.13132,-2.34983 -1.90104,-3.79948 -1.53943,-2.89928 -3.57355,-6.47104 -5.67969,-10.01302 -2.10616,-3.54199 -4.2749,-7.04236 -6.09114,-9.78646 -0.90813,-1.37204 -1.7217,-2.54961 -2.4375,-3.4974 -0.35791,-0.47389 -0.68723,-0.88665 -1.03907,-1.27864 -0.35183,-0.39198 -0.5322,-0.74264 -1.58593,-1.33333 -1.05374,-0.59069 -1.45103,-0.5642 -1.97656,-0.66407 -0.52556,-0.0999 -1.05983,-0.17037 -1.66147,-0.23437 -1.20327,-0.128 -2.66329,-0.22449 -4.34115,-0.30208 -3.35567,-0.15518 -7.55851,-0.22917 -11.77082,-0.22917 z m 0,7.88281 c 4.11147,0 8.23232,0.0755 11.38803,0.22136 0.45681,0.0211 0.69897,0.054 1.11197,0.0781 l -12.57031,18.71354 -12.72657,-18.69532 c 0.50642,-0.0313 0.83016,-0.0696 1.40886,-0.0964 3.15571,-0.14594 7.27657,-0.22136 11.38802,-0.22136 z m 19.875,6.88022 c 1.28417,2.02913 2.63282,4.20776 3.9974,6.5026 2.05573,3.45719 4.04969,6.95838 5.49738,9.68489 0.72386,1.36326 1.31232,2.5397 1.68491,3.36198 0.0699,0.15423 0.0872,0.20984 0.14061,0.33594 -0.0535,0.12613 -0.0708,0.1817 -0.14061,0.33593 -0.37259,0.82228 -0.96105,1.99872 -1.68491,3.36199 -1.44769,2.7265 -3.44165,6.22769 -5.49738,9.68489 -1.56404,2.63029 -3.11347,5.12124 -4.54428,7.35677 L 277.8672,275.63281 Z m -39.89582,0.22656 14.0677,20.66406 -13.3177,19.8229 c -1.44506,-2.25498 -3.0168,-4.78013 -4.60158,-7.4453 -2.05573,-3.4572 -4.04969,-6.95839 -5.49738,-9.68489 -0.72386,-1.36327 -1.31232,-2.53971 -1.68491,-3.36199 -0.0699,-0.15423 -0.0872,-0.20985 -0.14061,-0.33593 0.0535,-0.12614 0.0708,-0.18171 0.14061,-0.33594 0.37259,-0.82228 0.96105,-1.99872 1.68491,-3.36198 1.44769,-2.72651 3.44165,-6.2277 5.49738,-9.68489 1.31159,-2.20574 2.60911,-4.30724 3.85158,-6.27604 z m 20.00519,29.3828 11.44792,16.81771 c -0.0181,8.4e-4 -0.0261,0.001 -0.0443,0.003 -3.15571,0.14594 -7.27656,0.22136 -11.38803,0.22136 -4.08436,0 -8.1702,-0.0748 -11.3177,-0.21875 z" id="path923-8" inkscape:connector-curvature="0" sodipodi:nodetypes="ccccccscscccsccccccccccsccccccccscssscsccccscccccccccccccccscccscccccccsscccscccccscc"/>
      <path style="color:#000000;font-style:normal;font-variant:normal;font-weight:normal;font-stretch:normal;font-size:medium;line-height:normal;font-family:sans-serif;font-variant-ligatures:normal;font-variant-position:normal;font-variant-caps:normal;font-variant-numeric:normal;font-variant-alternates:normal;font-feature-settings:normal;text-indent:0;text-align:start;text-decoration:none;text-decoration-line:none;text-decoration-style:solid;text-decoration-color:#000000;letter-spacing:normal;word-spacing:normal;text-transform:none;writing-mode:lr-tb;direction:ltr;text-orientation:mixed;dominant-baseline:auto;baseline-shift:baseline;text-anchor:start;white-space:normal;shape-padding:0;clip-rule:nonzero;display:block;overflow:visible;visibility:visible;opacity:1;isolation:auto;mix-blend-mode:normal;color-interpolation:sRGB;color-interpolation-filters:linearRGB;solid-color:#000000;solid-opacity:1;vector-effect:none;fill:url(#linearGradient921-2);fill-opacity:1;fill-rule:nonzero;stroke:none;stroke-width:1.33333313;stroke-linecap:butt;stroke-linejoin:miter;stroke-miterlimit:4;stroke-dasharray:none;stroke-dashoffset:0;stroke-opacity:0.28021982;marker:none;paint-order:fill markers stroke;color-rendering:auto;image-rendering:auto;shape-rendering:auto;text-rendering:auto;enable-background:accumulate" d="m 272.00001,237.35157 c -4.21229,0 -8.41775,0.074 -11.77344,0.22917 -1.67784,0.0776 -3.13526,0.17408 -4.33853,0.30208 -0.60164,0.064 -1.13592,0.13452 -1.66147,0.23437 -0.52553,0.0999 -0.92284,0.0733 -1.97656,0.66407 -1.05373,0.59069 -1.2341,0.94135 -1.58593,1.33333 -0.35185,0.39199 -0.68116,0.80475 -1.03907,1.27864 -0.71581,0.94779 -1.52938,2.12536 -2.4375,3.4974 -1.81627,2.74409 -3.98499,6.24447 -6.09113,9.78645 -2.10615,3.54199 -4.14028,7.11375 -5.6797,10.01303 -0.76972,1.44965 -1.41618,2.72368 -1.90364,3.79948 -0.24373,0.53789 -0.44869,1.02117 -0.6224,1.51301 -0.17369,0.49184 -0.39584,0.81601 -0.39584,1.9974 0,1.18139 0.22215,1.50556 0.39584,1.9974 0.17371,0.49184 0.37867,0.97512 0.6224,1.51301 0.48746,1.0758 1.13392,2.34983 1.90364,3.79948 1.53942,2.89928 3.57355,6.47104 5.6797,10.01303 1.34577,2.26324 2.68274,4.42593 3.97134,6.46874 l -5.48697,17.54167 13.76822,-7.63022 c 0.33599,0.0991 0.5919,0.12534 0.8776,0.1797 0.52555,0.0999 1.05983,0.17037 1.66147,0.23437 1.20327,0.128 2.66069,0.22449 4.33853,0.30208 3.35569,0.15519 7.56115,0.22917 11.77344,0.22917 4.21231,0 8.41515,-0.074 11.77082,-0.22917 1.67784,-0.0776 3.13788,-0.17408 4.34115,-0.30208 0.60164,-0.064 1.13591,-0.13452 1.66147,-0.23437 0.52553,-0.0999 0.92282,-0.0733 1.97656,-0.66407 1.05373,-0.59069 1.2341,-0.94135 1.58593,-1.33333 0.35184,-0.39199 0.68116,-0.80475 1.03907,-1.27864 0.7158,-0.94779 1.52938,-2.12536 2.4375,-3.4974 1.81627,-2.74409 3.98498,-6.24447 6.09114,-9.78645 2.10614,-3.54199 4.14026,-7.11375 5.67969,-10.01303 0.76972,-1.44965 1.41358,-2.72368 1.90104,-3.79948 0.24373,-0.53789 0.45129,-1.02117 0.625,-1.51301 0.1737,-0.49184 0.39584,-0.81601 0.39584,-1.9974 0,-1.18139 -0.22214,-1.50556 -0.39584,-1.9974 -0.17371,-0.49184 -0.38127,-0.97512 -0.625,-1.51301 -0.48747,-1.0758 -1.13132,-2.34983 -1.90104,-3.79948 -1.53943,-2.89928 -3.57355,-6.47104 -5.67969,-10.01303 -2.10616,-3.54198 -4.2749,-7.04236 -6.09114,-9.78645 -0.90813,-1.37204 -1.7217,-2.54961 -2.4375,-3.4974 -0.35791,-0.47389 -0.68723,-0.88665 -1.03907,-1.27864 -0.35183,-0.39198 -0.5322,-0.74264 -1.58593,-1.33333 -1.05374,-0.59069 -1.45103,-0.5642 -1.97656,-0.66407 -0.52556,-0.0999 -1.05983,-0.17037 -1.66147,-0.23437 -1.20327,-0.128 -2.66329,-0.22449 -4.34115,-0.30208 -3.35567,-0.15519 -7.55851,-0.22917 -11.77082,-0.22917 z m 0,7.88281 c 4.11147,0 8.23232,0.0755 11.38803,0.22136 0.45681,0.0211 0.69897,0.054 1.11197,0.0781 L 271.9297,264.24741 259.20313,245.5521 c 0.50642,-0.0313 0.83016,-0.0696 1.40886,-0.0964 3.15571,-0.14595 7.27657,-0.22136 11.38802,-0.22136 z m 19.875,6.88021 c 1.28417,2.02913 2.63282,4.20776 3.9974,6.5026 2.05573,3.4572 4.04969,6.95838 5.49738,9.68489 0.72386,1.36327 1.31232,2.53971 1.68491,3.36199 0.0699,0.15422 0.0872,0.20984 0.14061,0.33593 -0.0535,0.12613 -0.0708,0.18171 -0.14061,0.33593 -0.37259,0.82228 -0.96105,1.99872 -1.68491,3.36199 -1.44769,2.72651 -3.44165,6.22769 -5.49738,9.68489 -1.56404,2.63029 -3.11347,5.12124 -4.54428,7.35677 L 277.8672,272.96615 Z m -39.89582,0.22656 14.0677,20.66406 -13.3177,19.82291 c -1.44506,-2.25499 -3.0168,-4.78014 -4.60158,-7.44531 -2.05573,-3.4572 -4.04969,-6.95838 -5.49738,-9.68489 -0.72386,-1.36327 -1.31232,-2.53971 -1.68491,-3.36199 -0.0699,-0.15422 -0.0872,-0.20985 -0.14061,-0.33593 0.0535,-0.12613 0.0708,-0.18171 0.14061,-0.33593 0.37259,-0.82228 0.96105,-1.99872 1.68491,-3.36199 1.44769,-2.72651 3.44165,-6.22769 5.49738,-9.68489 1.31159,-2.20573 2.60911,-4.30724 3.85158,-6.27604 z m 20.00519,29.38281 11.44792,16.8177 c -0.0181,8.4e-4 -0.0261,0.001 -0.0443,0.003 -3.15571,0.14595 -7.27656,0.22136 -11.38803,0.22136 -4.08436,0 -8.1702,-0.0748 -11.3177,-0.21875 z" id="path902-7" inkscape:connector-curvature="0" sodipodi:nodetypes="scccccscscccscccsccccccsccccccccscssscsccccscccsccccccccccscccscccccccsscccscccccscc"/>
      <path style="display:inline;opacity:1;vector-effect:none;fill:url(#linearGradient1036-2);fill-opacity:1;fill-rule:evenodd;stroke:none;stroke-width:1.33333313px;stroke-linecap:butt;stroke-linejoin:miter;stroke-miterlimit:4;stroke-dasharray:none;stroke-dashoffset:0;stroke-opacity:1" d="m 252.72919,292.82812 19.25519,-11.10416 -5.93749,-8.71875 z" id="path945-9" inkscape:connector-curvature="0" sodipodi:nodetypes="cccc"/>
      <path sodipodi:nodetypes="cccc" inkscape:connector-curvature="0" id="path955-2" d="m 291.32813,292.73958 -19.34375,-11.01562 5.9375,-8.71875 z" style="display:inline;fill:url(#linearGradient957-9);fill-opacity:1;fill-rule:evenodd;stroke:none;stroke-width:1.33333313px;stroke-linecap:butt;stroke-linejoin:miter;stroke-opacity:1"/>
      <path sodipodi:nodetypes="cccc" inkscape:connector-curvature="0" id="path959-0" d="m 251.97919,252.34115 19.95051,11.90626 -5.88281,8.7578 z" style="display:inline;fill:url(#linearGradient963-3);fill-opacity:1;fill-rule:evenodd;stroke:none;stroke-width:1.33333313px;stroke-linecap:butt;stroke-linejoin:miter;stroke-opacity:1"/>
      <path style="display:inline;fill:url(#linearGradient965-6);fill-opacity:1;fill-rule:evenodd;stroke:none;stroke-width:1.33333313px;stroke-linecap:butt;stroke-linejoin:miter;stroke-opacity:1" d="m 292.00001,252.16799 -20.07031,12.07942 5.9375,8.71874 z" id="path961-2" inkscape:connector-curvature="0" sodipodi:nodetypes="cccc"/>
      <path style="color:#000000;font-style:normal;font-variant:normal;font-weight:normal;font-stretch:normal;font-size:medium;line-height:normal;font-family:sans-serif;font-variant-ligatures:normal;font-variant-position:normal;font-variant-caps:normal;font-variant-numeric:normal;font-variant-alternates:normal;font-feature-settings:normal;text-indent:0;text-align:start;text-decoration:none;text-decoration-line:none;text-decoration-style:solid;text-decoration-color:#000000;letter-spacing:normal;word-spacing:normal;text-transform:none;writing-mode:lr-tb;direction:ltr;text-orientation:mixed;dominant-baseline:auto;baseline-shift:baseline;text-anchor:start;white-space:normal;shape-padding:0;clip-rule:nonzero;display:block;overflow:visible;visibility:visible;opacity:1;isolation:auto;mix-blend-mode:normal;color-interpolation:sRGB;color-interpolation-filters:linearRGB;solid-color:#000000;solid-opacity:1;vector-effect:none;fill:#f5edb2;fill-opacity:0.38461543;fill-rule:nonzero;stroke:none;stroke-width:1.33333313;stroke-linecap:butt;stroke-linejoin:miter;stroke-miterlimit:4;stroke-dasharray:none;stroke-dashoffset:0;stroke-opacity:0.28021982;marker:none;paint-order:fill markers stroke;color-rendering:auto;image-rendering:auto;shape-rendering:auto;text-rendering:auto;enable-background:accumulate" d="m 272.00001,237.35157 c -4.21229,0 -8.41775,0.074 -11.77344,0.22917 -1.67784,0.0776 -3.13526,0.17408 -4.33853,0.30208 -0.60164,0.064 -1.13592,0.13452 -1.66147,0.23437 -0.52553,0.0999 -0.92284,0.0733 -1.97656,0.66407 -1.05373,0.59069 -1.2341,0.94135 -1.58593,1.33333 -0.35185,0.39199 -0.68116,0.80475 -1.03907,1.27864 -0.71581,0.94779 -1.52938,2.12536 -2.4375,3.4974 -1.81627,2.74409 -3.98499,6.24447 -6.09113,9.78645 -2.10615,3.54199 -4.14028,7.11375 -5.6797,10.01303 -0.76972,1.44965 -1.41618,2.72368 -1.90364,3.79948 -0.24373,0.53789 -0.44869,1.02117 -0.6224,1.51301 -0.17369,0.49184 -0.39584,0.81601 -0.39584,1.9974 0,0.26532 0.0145,0.47621 0.0339,0.66667 0.0668,-0.6576 0.22729,-0.94935 0.36199,-1.33074 0.1737,-0.49184 0.37866,-0.97512 0.6224,-1.51301 0.48745,-1.0758 1.13392,-2.34983 1.90364,-3.79948 1.53941,-2.89928 3.57354,-6.47104 5.67969,-10.01302 2.10614,-3.54199 4.27486,-7.04236 6.09113,-9.78646 0.90812,-1.37204 1.72169,-2.54961 2.43751,-3.4974 0.3579,-0.47389 0.68721,-0.88665 1.03906,-1.27864 0.35183,-0.39198 0.5322,-0.74264 1.58594,-1.33333 1.05372,-0.59073 1.45102,-0.5642 1.97656,-0.66406 0.52554,-0.0999 1.05982,-0.17038 1.66146,-0.23438 1.20327,-0.128 2.6607,-0.22448 4.33854,-0.30208 3.35569,-0.15517 7.56114,-0.22917 11.77343,-0.22917 4.21231,0 8.41515,0.074 11.77083,0.22917 1.67785,0.0776 3.13788,0.17408 4.34114,0.30208 0.60164,0.064 1.13591,0.13451 1.66147,0.23438 0.52553,0.0999 0.92283,0.0733 1.97656,0.66406 1.05373,0.59069 1.23411,0.94135 1.58593,1.33333 0.35184,0.39199 0.68116,0.80475 1.03907,1.27864 0.7158,0.94779 1.52937,2.12536 2.43751,3.4974 1.81622,2.7441 3.98497,6.24447 6.09113,9.78646 2.10614,3.54198 4.14026,7.11374 5.67969,10.01302 0.76972,1.44965 1.41357,2.72368 1.90104,3.79948 0.24373,0.53789 0.45129,1.02117 0.625,1.51301 0.13469,0.38139 0.2952,0.67314 0.36199,1.33074 0.0193,-0.19046 0.0339,-0.40135 0.0339,-0.66667 0,-1.18139 -0.22213,-1.50556 -0.39584,-1.9974 -0.1737,-0.49184 -0.38126,-0.97512 -0.625,-1.51301 -0.48746,-1.0758 -1.13132,-2.34983 -1.90104,-3.79948 -1.53942,-2.89928 -3.57354,-6.47104 -5.67969,-10.01303 -2.10616,-3.54198 -4.2749,-7.04236 -6.09113,-9.78645 -0.90813,-1.37204 -1.72171,-2.54961 -2.43751,-3.4974 -0.3579,-0.47389 -0.68722,-0.88665 -1.03906,-1.27864 -0.35183,-0.39198 -0.5322,-0.74264 -1.58594,-1.33333 -1.05373,-0.59069 -1.45102,-0.5642 -1.97656,-0.66407 -0.52556,-0.0999 -1.05982,-0.17037 -1.66146,-0.23437 -1.20327,-0.128 -2.6633,-0.22449 -4.34115,-0.30208 -3.35568,-0.15519 -7.55852,-0.22917 -11.77082,-0.22917 z m 11.64584,9.45573 -11.71615,17.4401 -11.85938,-17.42188 c -0.27536,0.0203 -0.55545,0.0407 -0.86719,0.0599 l 12.72657,18.69532 12.57031,-18.71355 c -0.31724,-0.0185 -0.56382,-0.0403 -0.85416,-0.0599 z m -42.53386,25.85937 c -0.0408,0.0877 -0.13,0.24974 -0.16667,0.33073 -0.0699,0.15423 -0.0872,0.2098 -0.14061,0.33593 0.0535,0.12614 0.0708,0.18171 0.14061,0.33594 0.37259,0.82228 0.96105,1.99872 1.68491,3.36198 1.44769,2.72651 3.44165,6.22769 5.49738,9.68489 1.58478,2.66518 3.15652,5.19032 4.60158,7.44531 l 13.3177,-19.8229 -0.45052,-0.66147 -12.86718,19.15104 c -1.44506,-2.25499 -3.0168,-4.78014 -4.60158,-7.44531 -2.05573,-3.4572 -4.04969,-6.95838 -5.49738,-9.68489 -0.65258,-1.22901 -1.14471,-2.22853 -1.51824,-3.03125 z m 61.77604,0 c -0.37353,0.80272 -0.86566,1.80224 -1.51824,3.03125 -1.44769,2.72651 -3.44165,6.22769 -5.49738,9.68489 -1.56404,2.63029 -3.11347,5.12124 -4.54428,7.35677 l -13.01041,-19.11198 -0.45052,0.67188 13.46093,19.77344 c 1.43081,-2.23554 2.98024,-4.72648 4.54428,-7.35678 2.05573,-3.4572 4.04969,-6.95838 5.49738,-9.68489 0.72386,-1.36326 1.31232,-2.5397 1.68491,-3.36198 0.0699,-0.15423 0.0872,-0.2098 0.14061,-0.33594 -0.0535,-0.12613 -0.0708,-0.1817 -0.14061,-0.33593 -0.0367,-0.0809 -0.12587,-0.24304 -0.16667,-0.33073 z m -58.04687,24.08593 -5.26041,16.58073 0.36979,-0.22656 5.11718,-15.98177 c -0.074,-0.11734 -0.15225,-0.2543 -0.22656,-0.3724 z m 37.70312,1.8177 c -3.04115,0.12414 -6.75787,0.19532 -10.54427,0.19532 -3.74668,0 -7.41639,-0.0712 -10.4401,-0.1927 l -0.8776,1.30729 c 3.1475,0.14395 7.23334,0.21875 11.3177,0.21875 4.11147,0 8.23232,-0.0755 11.38803,-0.22136 0.0181,-10e-4 0.0261,-10e-4 0.0443,-0.003 z" id="path977-3" inkscape:connector-curvature="0" sodipodi:nodetypes="scccccscscccsccccscscccccsccccccccscccsscsccccscccsscccccccccccssccccsccccccccccsccccccccccsccsccc"/>
      <path sodipodi:type="star" style="color:#000000;clip-rule:nonzero;display:inline;overflow:visible;visibility:visible;opacity:1;isolation:auto;mix-blend-mode:normal;color-interpolation:sRGB;color-interpolation-filters:linearRGB;solid-color:#000000;solid-opacity:1;vector-effect:none;fill:#000000;fill-opacity:0.1978022;fill-rule:nonzero;stroke:none;stroke-width:1.39214408;stroke-linecap:butt;stroke-linejoin:miter;stroke-miterlimit:4;stroke-dasharray:none;stroke-dashoffset:0;stroke-opacity:0.28021982;marker:none;marker-start:none;marker-mid:none;marker-end:none;paint-order:fill markers stroke;color-rendering:auto;image-rendering:auto;shape-rendering:auto;text-rendering:auto;enable-background:accumulate" id="path987-7" sodipodi:sides="4" sodipodi:cx="271.99997" sodipodi:cy="273.09653" sodipodi:r1="5.5701284" sodipodi:r2="2.059835" sodipodi:arg1="1.5707963" sodipodi:arg2="2.3561945" inkscape:flatsided="false" inkscape:rounded="0.07" inkscape:randomized="0" d="m 271.99997,278.66666 c -0.30547,0 -1.24052,-3.89761 -1.45652,-4.11361 -0.216,-0.216 -4.11361,-1.15105 -4.11361,-1.45652 0,-0.30547 3.89761,-1.24053 4.11361,-1.45653 0.216,-0.216 1.15105,-4.1136 1.45652,-4.1136 0.30547,0 1.24052,3.8976 1.45652,4.1136 0.216,0.216 4.11361,1.15106 4.11361,1.45653 0,0.30547 -3.89761,1.24052 -4.11361,1.45652 -0.216,0.216 -1.15105,4.11361 -1.45652,4.11361 z"/>
    </g>
  </g>
</svg>