<?xml version="1.0" encoding="UTF-8" standalone="yes"?>
<svg xmlns:dc="http://purl.org/dc/elements/1.1/" xmlns:cc="http://creativecommons.org/ns#" xmlns:rdf="http://www.w3.org/1999/02/22-rdf-syntax-ns#" xmlns:svg="http://www.w3.org/2000/svg" xmlns="http://www.w3.org/2000/svg" xmlns:xlink="http://www.w3.org/1999/xlink" xmlns:sodipodi="http://sodipodi.sourceforge.net/DTD/sodipodi-0.dtd" xmlns:inkscape="http://www.inkscape.org/namespaces/inkscape" height="128" viewBox="0 0 128 128" width="128" id="svg2" version="1.1" inkscape:version="0.92.2 5c3e80d, 2017-08-06" sodipodi:docname="org.gnome.ChromeGnomeShell.svg" enable-background="new" folder="128">
  <title id="title4675">Template icons dark</title>
  <metadata id="metadata24">
    <rdf:RDF>
      <cc:Work rdf:about="">
        <dc:format>image/svg+xml</dc:format>
        <dc:type rdf:resource="http://purl.org/dc/dcmitype/StillImage"/>
        <dc:title>Template icons dark</dc:title>
        <dc:date>17/05/13</dc:date>
        <dc:creator>
          <cc:Agent>
            <dc:title>wfpaisa</dc:title>
          </cc:Agent>
        </dc:creator>
        <dc:rights>
          <cc:Agent>
            <dc:title>License: GPLv3</dc:title>
          </cc:Agent>
        </dc:rights>
        <dc:language>es-en</dc:language>
        <dc:subject>
          <rdf:Bag>
            <rdf:li>plane-icon-theme</rdf:li>
          </rdf:Bag>
        </dc:subject>
        <dc:description>Template for create set icons</dc:description>
        <cc:license rdf:resource="https://www.gnu.org/licenses/gpl-3.0.en.html"/>
      </cc:Work>
    </rdf:RDF>
  </metadata>
  <defs id="defs22">
    <linearGradient inkscape:collect="always" id="linearGradient24388">
      <stop style="stop-color:#e9e9e9;stop-opacity:1" offset="0" id="stop24384"/>
      <stop style="stop-color:#ffffff;stop-opacity:1" offset="1" id="stop24386"/>
    </linearGradient>
    <linearGradient inkscape:collect="always" xlink:href="#linearGradient24388" id="linearGradient24390" x1="168" y1="201.74074" x2="168" y2="114.33071" gradientUnits="userSpaceOnUse"/>
    <linearGradient gradientTransform="matrix(0.17390774,0,0,0.17390774,-91.825276,-91.825242)" inkscape:collect="always" xlink:href="#linearGradient24388" id="linearGradient24390-3" x1="168" y1="201.74074" x2="168" y2="114.33071" gradientUnits="userSpaceOnUse"/>
    <linearGradient gradientTransform="matrix(0.26087493,0,0,0.26087493,-85.740023,-85.739992)" inkscape:collect="always" xlink:href="#linearGradient24388" id="linearGradient24390-35" x1="168" y1="201.74074" x2="168" y2="114.33071" gradientUnits="userSpaceOnUse"/>
    <linearGradient gradientTransform="matrix(0.34044067,0,0,0.34044067,-70.470159,-70.471989)" inkscape:collect="always" xlink:href="#linearGradient24388" id="linearGradient24390-1" x1="168" y1="201.74074" x2="168" y2="114.33071" gradientUnits="userSpaceOnUse"/>
    <linearGradient gradientTransform="matrix(0.51065451,0,0,0.51065451,-57.704463,-57.703546)" inkscape:collect="always" xlink:href="#linearGradient24388" id="linearGradient24390-6" x1="168" y1="201.74074" x2="168" y2="114.33071" gradientUnits="userSpaceOnUse"/>
    <linearGradient gradientTransform="matrix(0.68086833,0,0,0.68086833,-28.938763,-28.939647)" inkscape:collect="always" xlink:href="#linearGradient24388" id="linearGradient24390-18" x1="168" y1="201.74074" x2="168" y2="114.33071" gradientUnits="userSpaceOnUse"/>
    <linearGradient gradientTransform="matrix(1.2766363,0,0,1.2766363,67.738053,67.738821)" inkscape:collect="always" xlink:href="#linearGradient24388" id="linearGradient24390-37" x1="168" y1="201.74074" x2="168" y2="114.33071" gradientUnits="userSpaceOnUse"/>
  </defs>
  <sodipodi:namedview pagecolor="#383c4a" bordercolor="#ffffff" borderopacity="0.62745098" objecttolerance="4" gridtolerance="10" guidetolerance="4" inkscape:pageopacity="0" inkscape:pageshadow="2" inkscape:window-width="640" inkscape:window-height="480" id="namedview20" showgrid="true" inkscape:zoom="5.8456083" inkscape:cx="271.48334" inkscape:cy="-238.29924" inkscape:current-layer="layer12" inkscape:snap-smooth-nodes="false" showguides="true" borderlayer="true" inkscape:showpageshadow="false" inkscape:guide-bbox="true" guidecolor="#bd4fff" guideopacity="0.78431373" inkscape:snap-nodes="true" inkscape:lockguides="false" fit-margin-top="0" fit-margin-left="0" fit-margin-right="0" fit-margin-bottom="0" guidehicolor="#ff0101" guidehiopacity="0.78431373" inkscape:snap-page="true" inkscape:object-nodes="true" inkscape:snap-bbox="true" inkscape:snap-global="true" inkscape:snap-object-midpoints="false" inkscape:snap-bbox-edge-midpoints="false">
    <inkscape:grid type="xygrid" id="grid4171" empspacing="4" dotted="false" originx="2.7755576e-17" originy="0" spacingx="1" spacingy="1" color="#5a5a5a" opacity="0.23529412" empcolor="#5a5a5a" empopacity="0.47058824" visible="true"/>
    <inkscape:grid type="axonomgrid" id="grid4699" units="mm" empspacing="4" color="#5a5a5a" opacity="0.23529412" empcolor="#5a5a5a" empopacity="0.47058824" gridanglex="45" gridanglez="45" spacingy="3.7795276" visible="false" originx="1.3228346" originy="1.3228346"/>
    <sodipodi:guide position="48,0" orientation="1,0" id="guide4568" inkscape:locked="false" inkscape:label="" inkscape:color="rgb(189,79,255)"/>
    <sodipodi:guide position="111.99996,-3.9999999e-05" orientation="0,1" id="guide4570" inkscape:locked="false" inkscape:label="" inkscape:color="rgb(189,79,255)"/>
    <sodipodi:guide position="0,0" orientation="1,0" id="guide4572" inkscape:locked="false" inkscape:label="" inkscape:color="rgb(189,79,255)"/>
    <sodipodi:guide position="0,48" orientation="0,1" id="guide4574" inkscape:locked="false" inkscape:label="" inkscape:color="rgb(189,79,255)"/>
    <sodipodi:guide position="0,80" orientation="0,1" id="guide4576" inkscape:locked="false" inkscape:label="" inkscape:color="rgb(189,79,255)"/>
    <sodipodi:guide position="-32,48" orientation="1,0" id="guide4578" inkscape:locked="false" inkscape:label="" inkscape:color="rgb(189,79,255)"/>
    <sodipodi:guide position="-32,104" orientation="0,1" id="guide4580" inkscape:locked="false" inkscape:label="" inkscape:color="rgb(189,79,255)"/>
    <sodipodi:guide position="-56,80" orientation="1,0" id="guide4582" inkscape:locked="false" inkscape:label="" inkscape:color="rgb(189,79,255)"/>
    <sodipodi:guide position="48,-64" orientation="0,1" id="guide4584" inkscape:locked="false" inkscape:label="" inkscape:color="rgb(189,79,255)"/>
    <sodipodi:guide position="0,0" orientation="-0.70710678,0.70710678" id="guide4588" inkscape:locked="false" inkscape:label="" inkscape:color="rgb(189,79,255)"/>
    <sodipodi:guide position="-56,80" orientation="-0.70710678,0.70710678" id="guide4573" inkscape:locked="false" inkscape:label="" inkscape:color="rgb(189,79,255)"/>
    <sodipodi:guide position="-32,48" orientation="-0.70710678,0.70710678" id="guide4575" inkscape:locked="false" inkscape:label="" inkscape:color="rgb(189,79,255)"/>
    <sodipodi:guide position="48,-64" orientation="-0.70710678,0.70710678" id="guide4577" inkscape:locked="false" inkscape:label="" inkscape:color="rgb(189,79,255)"/>
    <sodipodi:guide position="47.999962,0" orientation="0.70710678,0.70710678" id="guide4697" inkscape:locked="false" inkscape:label="" inkscape:color="rgb(189,79,255)"/>
    <sodipodi:guide position="207.99995,-288" orientation="0,1" id="guide7833" inkscape:locked="false"/>
    <sodipodi:guide position="335.99994,-288" orientation="1,0" id="guide7835" inkscape:locked="false" inkscape:label="" inkscape:color="rgb(189,79,255)"/>
    <sodipodi:guide position="111.99996,-64" orientation="1,0" id="guide7915" inkscape:locked="false"/>
    <sodipodi:guide position="111.99996,-160" orientation="0,1" id="guide7917" inkscape:locked="false"/>
    <sodipodi:guide position="207.99996,-160" orientation="1,0" id="guide7919" inkscape:locked="false"/>
    <sodipodi:guide position="111.99996,-160" orientation="-0.70710678,0.70710678" id="guide7921" inkscape:locked="false" inkscape:label="" inkscape:color="rgb(189,79,255)"/>
    <sodipodi:guide position="207.99996,-288" orientation="-0.70710678,0.70710678" id="guide7923" inkscape:locked="false" inkscape:label="" inkscape:color="rgb(189,79,255)"/>
    <sodipodi:guide position="-72,104" orientation="1,0" id="guide7824" inkscape:locked="false"/>
    <sodipodi:guide position="-56,120" orientation="0,1" id="guide7826" inkscape:locked="false"/>
    <sodipodi:guide position="-72,104" orientation="-0.70710678,0.70710678" id="guide7828" inkscape:locked="false" inkscape:label="" inkscape:color="rgb(189,79,255)"/>
  </sodipodi:namedview>
  <g inkscape:groupmode="layer" id="layer4" inkscape:label="icon_128" style="display:inline" transform="translate(-207.99995,-208)">
    <g inkscape:groupmode="layer" id="layer11" inkscape:label="frame" style="display:none">
      <rect inkscape:label="frame_128" y="208" x="207.99995" height="128" width="128" id="frame_128" style="color:#000000;clip-rule:nonzero;display:inline;overflow:visible;visibility:visible;opacity:1;isolation:auto;mix-blend-mode:normal;color-interpolation:sRGB;color-interpolation-filters:linearRGB;solid-color:#000000;solid-opacity:1;vector-effect:none;fill:#000000;fill-opacity:1;fill-rule:nonzero;stroke:#ff24f7;stroke-width:0;stroke-linecap:square;stroke-linejoin:miter;stroke-miterlimit:4;stroke-dasharray:none;stroke-dashoffset:0;stroke-opacity:0.99481865;marker:none;marker-start:none;marker-mid:none;marker-end:none;paint-order:normal;color-rendering:auto;image-rendering:auto;shape-rendering:auto;text-rendering:auto;enable-background:accumulate"/>
      <text xml:space="preserve" style="font-size:38.46457672px;line-height:0%;font-family:sans-serif;letter-spacing:0px;word-spacing:0px;display:inline;opacity:1;fill:#ffffff;fill-opacity:1;stroke:none;stroke-width:0.07881754px;stroke-linecap:butt;stroke-linejoin:miter;stroke-opacity:1" x="236.17479" y="283.34512" id="txt_128" inkscape:label="txt_128">
        <tspan sodipodi:role="line" x="236.17479" y="283.34512" style="font-size:38.46457672px;line-height:0%;fill:#ffffff;fill-opacity:1;stroke:none;stroke-width:0.07881754px" id="tspan5069-6">128</tspan>
      </text>
      <text xml:space="preserve" style="font-size:7.43228436px;line-height:1000%;font-family:sans-serif;letter-spacing:0px;word-spacing:0px;display:inline;opacity:1;fill:#ffffff;fill-opacity:0.42156863;stroke:none;stroke-width:0.16398695px;stroke-linecap:butt;stroke-linejoin:miter;stroke-opacity:1" x="265.97781" y="330.1329" id="txt_scalable_64_512" inkscape:label="txt_scalable_64_512">
        <tspan sodipodi:role="line" x="265.97781" y="330.1329" style="font-size:8.08990479px;fill:#ffffff;fill-opacity:0.42156863;stroke:none;stroke-width:0.16398695px" id="tspan5049-1-6-6">Scalable:96-512</tspan>
      </text>
    </g>
    <g inkscape:groupmode="layer" id="layer12" inkscape:label="icon" style="display:inline">
      <path inkscape:connector-curvature="0" id="path24382-22" d="m 266.56996,329.38349 c -8.21681,-2.72964 -14.03973,-6.43706 -20.59273,-13.11133 -7.326,-7.46153 -11.63955,-15.26932 -13.45562,-24.35541 -2.51226,-12.56929 4.15552,-24.09121 18.21806,-31.48088 16.97035,-8.91765 40.1718,-9.76049 48.72563,-1.77007 2.62192,2.44922 3.20104,3.85744 3.20104,7.78375 0,7.50023 -4.14115,12.14476 -20.33099,22.80251 -19.55552,12.87339 -21.59857,16.02562 -14.79564,22.82854 2.78202,2.78202 4.57836,3.66352 7.46555,3.66352 3.73521,0 7.10134,-2.15348 7.27831,-4.65637 0.51852,-7.33369 1.62171,-8.68932 8.57202,-10.53363 5.83307,-1.54787 12.45804,-0.55722 13.86594,2.07341 1.60845,3.00545 -2.2493,12.65447 -7.03593,17.59829 -8.92924,9.22249 -20.58987,12.65434 -31.11564,9.15767 z M 228.81307,258.2689 c -5.88317,-5.88316 -6.34093,-13.57277 -0.95413,-16.02716 2.37243,-1.08094 3.06782,-0.882 5.53275,1.58293 4.67951,4.67954 4.73485,18.04425 0.0747,18.04425 -0.57929,0 -2.67331,-1.62 -4.65332,-3.60002 z m 16.41489,-11.2551 c -2.17606,-2.40453 -5.05686,-9.18518 -5.05686,-11.90257 0,-3.45394 4.13937,-7.72245 7.4888,-7.72245 4.02247,0 5.66133,2.23093 6.26663,8.53017 0.69198,7.20171 -1.32482,13.01993 -4.51319,13.01993 -1.34375,0 -3.22715,-0.86628 -4.18538,-1.92508 z m 45.34838,-0.29833 c -5.11026,-2.97845 -4.38653,-16.67244 1.29574,-24.51657 7.97302,-11.00647 28.03432,-12.16235 28.03432,-1.61525 0,7.14981 -10.33058,20.99556 -18.68157,25.03817 -5.07651,2.4575 -7.82428,2.73975 -10.64849,1.09365 z M 264.941,240.04953 c -6.03724,-9.89767 -2.33642,-22.35822 6.64049,-22.35822 4.22661,0 6.30225,2.63396 6.30225,7.99749 0,8.29742 -4.66365,17.86263 -8.70922,17.86263 -1.20991,0 -3.00139,-1.4819 -4.23352,-3.5019 z" style="display:inline;fill:none;fill-opacity:1;stroke:#000000;stroke-width:2.55327249;stroke-miterlimit:4;stroke-dasharray:none;stroke-opacity:0.17582421"/>
      <path style="display:inline;fill:url(#linearGradient24390-37);fill-opacity:1;stroke-width:1.07750392" d="m 266.56996,329.38349 c -8.21681,-2.72964 -14.03973,-6.43706 -20.59273,-13.11133 -7.326,-7.46153 -11.63955,-15.26932 -13.45562,-24.35541 -2.51226,-12.56929 4.15552,-24.09121 18.21806,-31.48088 16.97035,-8.91765 40.1718,-9.76049 48.72563,-1.77007 2.62192,2.44922 3.20104,3.85744 3.20104,7.78375 0,7.50023 -4.14115,12.14476 -20.33099,22.80251 -19.55552,12.87339 -21.59857,16.02562 -14.79564,22.82854 2.78202,2.78202 4.57836,3.66352 7.46555,3.66352 3.73521,0 7.10134,-2.15348 7.27831,-4.65637 0.51852,-7.33369 1.62171,-8.68932 8.57202,-10.53363 5.83307,-1.54787 12.45804,-0.55722 13.86594,2.07341 1.60845,3.00545 -2.2493,12.65447 -7.03593,17.59829 -8.92924,9.22249 -20.58987,12.65434 -31.11564,9.15767 z M 228.81307,258.2689 c -5.88317,-5.88316 -6.34093,-13.57277 -0.95413,-16.02716 2.37243,-1.08094 3.06782,-0.882 5.53275,1.58293 4.67951,4.67954 4.73485,18.04425 0.0747,18.04425 -0.57929,0 -2.67331,-1.62 -4.65332,-3.60002 z m 16.41489,-11.2551 c -2.17606,-2.40453 -5.05686,-9.18518 -5.05686,-11.90257 0,-3.45394 4.13937,-7.72245 7.4888,-7.72245 4.02247,0 5.66133,2.23093 6.26663,8.53017 0.69198,7.20171 -1.32482,13.01993 -4.51319,13.01993 -1.34375,0 -3.22715,-0.86628 -4.18538,-1.92508 z m 45.34838,-0.29833 c -5.11026,-2.97845 -4.38653,-16.67244 1.29574,-24.51657 7.97302,-11.00647 28.03432,-12.16235 28.03432,-1.61525 0,7.14981 -10.33058,20.99556 -18.68157,25.03817 -5.07651,2.4575 -7.82428,2.73975 -10.64849,1.09365 z M 264.941,240.04953 c -6.03724,-9.89767 -2.33642,-22.35822 6.64049,-22.35822 4.22661,0 6.30225,2.63396 6.30225,7.99749 0,8.29742 -4.66365,17.86263 -8.70922,17.86263 -1.20991,0 -3.00139,-1.4819 -4.23352,-3.5019 z" id="path24380-8" inkscape:connector-curvature="0"/>
    </g>
  </g>
</svg>