<?xml version="1.0" encoding="UTF-8" standalone="no"?>
<svg
   xmlns:dc="http://purl.org/dc/elements/1.1/"
   xmlns:cc="http://creativecommons.org/ns#"
   xmlns:rdf="http://www.w3.org/1999/02/22-rdf-syntax-ns#"
   xmlns:svg="http://www.w3.org/2000/svg"
   xmlns="http://www.w3.org/2000/svg"
   xmlns:sodipodi="http://sodipodi.sourceforge.net/DTD/sodipodi-0.dtd"
   xmlns:inkscape="http://www.inkscape.org/namespaces/inkscape"
   width="24"
   height="24"
   version="1.1"
   id="svg9"
   sodipodi:docname="user-status-pending.svg"
   inkscape:version="0.92.4 5da689c313, 2019-01-14">
  <metadata
     id="metadata13">
    <rdf:RDF>
      <cc:Work
         rdf:about="">
        <dc:format>image/svg+xml</dc:format>
        <dc:type
           rdf:resource="http://purl.org/dc/dcmitype/StillImage" />
        <dc:title></dc:title>
      </cc:Work>
    </rdf:RDF>
  </metadata>
  <sodipodi:namedview
     pagecolor="#2f333d"
     bordercolor="#666666"
     borderopacity="1"
     objecttolerance="10"
     gridtolerance="10"
     guidetolerance="10"
     inkscape:pageopacity="0"
     inkscape:pageshadow="2"
     inkscape:window-width="640"
     inkscape:window-height="480"
     id="namedview11"
     showgrid="true"
     inkscape:zoom="38.775"
     inkscape:cx="17.60357"
     inkscape:cy="10.412043"
     inkscape:current-layer="g7"
     inkscape:snap-smooth-nodes="true">
    <inkscape:grid
       type="xygrid"
       id="grid7684"
       dotted="false" />
  </sodipodi:namedview>
  <defs
     id="defs3">
    <style
       id="current-color-scheme"
       type="text/css">
   .ColorScheme-Text { color:#dfdfdf; } .ColorScheme-Highlight { color:#4285f4; }
  </style>
  </defs>
  <g
     transform="matrix(1.1428571,0,0,1.1428571,-202.85714,-934.76883)"
     id="g7"
     style="display:inline">
    <path
       sodipodi:nodetypes="cssccccccccc"
       inkscape:connector-curvature="0"
       id="path823"
       d="m 181.875,821.42276 c 0,0 -1.75,0 -1.75,1.78996 v 7.83504 c 0,1.75 1.75,1.75 1.75,1.75 h 5.25 l 2.625,3.5 3.5,-3.5 h 0.875 c 0,0 1.75,0 1.75,-1.75 0,0 0.0105,-6.12079 0.0227,-7.85774 0.0123,-1.76726 -1.7727,-1.76726 -1.7727,-1.76726 z"
       class="ColorScheme-Text"
       style="color:#dfdfdf;display:inline;fill:#000000;fill-opacity:0.09424085" />
    <path
       style="color:#dfdfdf;display:inline;fill:#fefefe;fill-opacity:0.98952876"
       class="ColorScheme-Text"
       d="m 182.7273,822.2805 c 0,0 -1.75,0 -1.75,1.78996 v 6.08504 c 10e-6,1.75 1.75,1.75 1.75,1.75 h 4.375 l 2.625,3.5 2.625,-3.5 h 0.875 c 0,0 1.75,0 1.75,-1.75 0,0 0.0105,-4.37079 0.0227,-6.10774 0.0123,-1.76726 -1.7727,-1.76726 -1.7727,-1.76726 z"
       id="path5"
       inkscape:connector-curvature="0"
       sodipodi:nodetypes="cssccccccccc" />
    <path
       style="color:#dfdfdf;fill:#ba00f0;stroke-width:0.87500006;fill-opacity:1"
       class="ColorScheme-Text"
       d="m 183.625,825.79776 c -0.9695,0 -1.75,0.7805 -1.75,1.75 0,0.9695 0.7805,1.75 1.75,1.75 0.9695,0 1.75,-0.7805 1.75,-1.75 0,-0.9695 -0.7805,-1.75 -1.75,-1.75 z m 4.375,0 c -0.9695,0 -1.75,0.7805 -1.75,1.75 0,0.9695 0.7805,1.75 1.75,1.75 0.9695,0 1.75,-0.7805 1.75,-1.75 0,-0.9695 -0.7805,-1.75 -1.75,-1.75 z m 4.375,0 c -0.9695,0 -1.75,0.7805 -1.75,1.75 0,0.9695 0.7805,1.75 1.75,1.75 0.9695,0 1.75,-0.7805 1.75,-1.75 0,-0.9695 -0.7805,-1.75 -1.75,-1.75 z"
       id="path7"
       inkscape:connector-curvature="0" />
  </g>
</svg>
