<?xml version="1.0" encoding="UTF-8" standalone="no"?>
<svg
   xmlns:dc="http://purl.org/dc/elements/1.1/"
   xmlns:cc="http://creativecommons.org/ns#"
   xmlns:rdf="http://www.w3.org/1999/02/22-rdf-syntax-ns#"
   xmlns:svg="http://www.w3.org/2000/svg"
   xmlns="http://www.w3.org/2000/svg"
   xmlns:sodipodi="http://sodipodi.sourceforge.net/DTD/sodipodi-0.dtd"
   xmlns:inkscape="http://www.inkscape.org/namespaces/inkscape"
   viewBox="0 0 16 16"
   version="1.1"
   id="svg6"
   sodipodi:docname="go-home.svg"
   inkscape:version="0.92.2 2405546, 2018-03-11"
   width="16"
   height="16">
  <metadata
     id="metadata10">
    <rdf:RDF>
      <cc:Work
         rdf:about="">
        <dc:format>image/svg+xml</dc:format>
        <dc:type
           rdf:resource="http://purl.org/dc/dcmitype/StillImage" />
        <dc:title />
      </cc:Work>
    </rdf:RDF>
  </metadata>
  <sodipodi:namedview
     pagecolor="#292c31"
     bordercolor="#666666"
     borderopacity="1"
     objecttolerance="10"
     gridtolerance="10"
     guidetolerance="10"
     inkscape:pageopacity="0"
     inkscape:pageshadow="2"
     inkscape:window-width="640"
     inkscape:window-height="480"
     id="namedview8"
     showgrid="true"
     inkscape:zoom="38.59875"
     inkscape:cx="10.589191"
     inkscape:cy="5.1710532"
     inkscape:current-layer="svg6">
    <inkscape:grid
       type="xygrid"
       id="grid816"
       dotted="false" />
  </sodipodi:namedview>
  <defs
     id="defs3051">
    <style
       type="text/css"
       id="current-color-scheme">
      .ColorScheme-Text {
        color:#f2f2f2;
      }
      </style>
  </defs>
  <g
     id="g831"
     style="display:none">
    <path
       sodipodi:nodetypes="sccccsccscsccccccs"
       inkscape:connector-curvature="0"
       id="path844"
       d="m 8.0100259,1.0341793 c -0.173988,0 -0.347414,0.067549 -0.477643,0.201526 L 0.1675221,9.013422 c -0.2604576,0.2679546 -0.1976088,0.9394138 0.2944374,0.9513601 h 1.5179884 v 5.3882759 c 0,0.371185 0.299943,0.698811 0.6700087,0.670009 H 13.370053 c 0.371178,0.002 0.670008,-0.298824 0.670008,-0.670009 V 9.9647821 h 1.340018 c 0.754327,0 0.732866,-0.6834055 0.472408,-0.9513601 L 13.370096,6.2450671 V 3.0442053 H 10.690061 V 3.495676 L 8.4876689,1.2357053 C 8.3574399,1.101728 8.1840139,1.0341793 8.0100259,1.0341793 Z"
       style="display:none;opacity:0.111588;fill:#030505;fill-opacity:0.98952876;fill-rule:evenodd;stroke:none;stroke-width:0.67000866px;stroke-linecap:butt;stroke-linejoin:miter;stroke-opacity:1" />
    <path
       style="display:none;opacity:0.16738197;fill:#ffffff;fill-opacity:0.97905728;fill-rule:evenodd;stroke:none;stroke-width:0.49854133px;stroke-linecap:butt;stroke-linejoin:miter;stroke-opacity:1"
       d="m 8.0116687,2.952369 c -0.1294613,0 -0.2585045,0.050262 -0.3554055,0.1499518 L 2.1762034,8.8895793 C 1.9824016,9.0889595 2.0291662,9.5885801 2.3952889,9.5974691 h 1.1295077 v 4.0093189 c 0,0.276192 0.2231822,0.519973 0.4985414,0.498541 h 7.97663 c 0.276187,0.0015 0.498541,-0.222349 0.498541,-0.498541 V 9.5974691 h 0.997083 c 0.561281,0 0.545312,-0.5085096 0.35151,-0.7078898 L 8.3670742,3.1023208 C 8.2701732,3.0026308 8.14113,2.952369 8.0116687,2.952369 Z"
       id="path825"
       inkscape:connector-curvature="0"
       sodipodi:nodetypes="sccccsccscsccs" />
    <path
       sodipodi:nodetypes="ccccc"
       inkscape:connector-curvature="0"
       id="path828"
       d="m 11.360069,3.714214 h 1.340018 V 5.72424 L 11.360069,4.3842227 Z"
       style="display:none;fill:#fdfefe;fill-opacity:1;fill-rule:evenodd;stroke:none;stroke-width:0.67000866px;stroke-linecap:butt;stroke-linejoin:miter;stroke-opacity:1" />
    <path
       sodipodi:nodetypes="sccccssccccccccsccsccsscsccs"
       inkscape:connector-curvature="0"
       id="path819"
       d="m 8.0097656,1.7011719 c -0.1750504,0 -0.3504115,0.067114 -0.4785156,0.203125 L 0.83789062,9.0136719 C 0.58168263,9.2856926 0.6407663,9.9528974 1.1328125,9.9648438 H 3 v 4.3867182 c 0,0.371186 0.2987371,0.669922 0.6699219,0.669922 L 5,15 h 6 V 14 L 5,14.03102 V 9.4121094 H 3.5097656 C 3.1875547,9.4042865 3.1486314,8.9671922 3.3164062,8.7890625 l 4.3828126,-4.65625 C 7.7831062,4.0437476 7.8970889,4 8.0117188,4 8.1263485,4 8.2422844,4.0437476 8.3261719,4.1328125 l 4.3847661,4.65625 c 0.167775,0.1781298 0.183416,0.6230469 -0.310547,0.6230469 L 11,9.4639245 V 15 l 1.351562,0.02148 c 0.371139,0.0059 0.669922,-0.298735 0.669922,-0.669922 V 9.9648438 h 1.689454 c 0.754327,0 0.728864,-0.679151 0.472656,-0.9511719 L 8.4882812,1.9042969 C 8.3601772,1.7682864 8.1848161,1.7011719 8.0097656,1.7011719 Z"
       style="color:#000000;clip-rule:nonzero;display:none;overflow:visible;visibility:visible;opacity:1;isolation:auto;mix-blend-mode:normal;color-interpolation:sRGB;color-interpolation-filters:linearRGB;solid-color:#000000;solid-opacity:1;vector-effect:none;fill:#ffffff;fill-opacity:1;fill-rule:nonzero;stroke:none;stroke-width:0.96487403;stroke-linecap:butt;stroke-linejoin:miter;stroke-miterlimit:4;stroke-dasharray:none;stroke-dashoffset:0;stroke-opacity:1;marker:none;marker-start:none;marker-mid:none;marker-end:none;paint-order:normal;color-rendering:auto;image-rendering:auto;shape-rendering:auto;text-rendering:auto;enable-background:accumulate" />
  </g>
  <path
     style="opacity:0.6609442;fill:#ffffff;fill-opacity:1;fill-rule:evenodd;stroke:none;stroke-width:1px;stroke-linecap:butt;stroke-linejoin:miter;stroke-opacity:1"
     d="M 7.5136147,1.5957601 0.56996664,9 C 0,10 0.64297338,10 1.3212863,10 H 3 v 4.455941 L 3.4975226,15 H 6.9950452 7 9 v 0 h 3.435636 L 13,14.326403 V 10 h 2.026393 c 0.329915,0 1.077237,-0.4041258 0.636809,-1 L 8.5138794,1.5522068 C 8.0715046,1.2767408 8,1.2922428 7.5136147,1.5957601 Z M 8,2.5077561 13.559571,9 H 12 v 5 h -2 v 0 H 6 6.010557 4 V 9 H 2.4922439 Z"
     id="path822"
     inkscape:connector-curvature="0"
     sodipodi:nodetypes="ccscccccccccccccccccccccccccc" />
  <path
     style="opacity:0.15879828;fill:#ffffff;fill-opacity:1;fill-rule:evenodd;stroke:none;stroke-width:1px;stroke-linecap:butt;stroke-linejoin:miter;stroke-opacity:1"
     d="M 8,4 4,9 h 1 v 4 h 1 v 0 h 4 v 0 h 1 V 9 h 1 z"
     id="path833"
     inkscape:connector-curvature="0"
     sodipodi:nodetypes="cccccccccccc" />
  <path
     style="opacity:0.5579399;fill:#ffffff;fill-opacity:1;fill-rule:evenodd;stroke:none;stroke-width:1px;stroke-linecap:butt;stroke-linejoin:miter;stroke-opacity:1"
     d="m 11,3 h 1 v 1 h -1 z"
     id="path835"
     inkscape:connector-curvature="0"
     sodipodi:nodetypes="ccccc" />
</svg>
