<?xml version="1.0" encoding="UTF-8" standalone="no"?>
<svg
   xmlns:dc="http://purl.org/dc/elements/1.1/"
   xmlns:cc="http://creativecommons.org/ns#"
   xmlns:rdf="http://www.w3.org/1999/02/22-rdf-syntax-ns#"
   xmlns:svg="http://www.w3.org/2000/svg"
   xmlns="http://www.w3.org/2000/svg"
   xmlns:xlink="http://www.w3.org/1999/xlink"
   xmlns:sodipodi="http://sodipodi.sourceforge.net/DTD/sodipodi-0.dtd"
   xmlns:inkscape="http://www.inkscape.org/namespaces/inkscape"
   viewBox="0 0 16 16"
   version="1.1"
   id="svg6"
   sodipodi:docname="gtk-preferences.svg"
   inkscape:version="0.92.4 5da689c313, 2019-01-14">
  <metadata
     id="metadata10">
    <rdf:RDF>
      <cc:Work
         rdf:about="">
        <dc:format>image/svg+xml</dc:format>
        <dc:type
           rdf:resource="http://purl.org/dc/dcmitype/StillImage" />
        <dc:title />
      </cc:Work>
    </rdf:RDF>
  </metadata>
  <sodipodi:namedview
     pagecolor="#404552"
     bordercolor="#9eb3b8"
     borderopacity="1"
     objecttolerance="10"
     gridtolerance="10"
     guidetolerance="10"
     inkscape:pageopacity="0"
     inkscape:pageshadow="2"
     inkscape:window-width="640"
     inkscape:window-height="480"
     id="namedview8"
     showgrid="false"
     inkscape:showpageshadow="false"
     borderlayer="true"
     inkscape:zoom="31.161348"
     inkscape:cx="7.3617437"
     inkscape:cy="6.9621234"
     inkscape:current-layer="svg6" />
  <defs
     id="defs3051">
    <style
       type="text/css"
       id="current-color-scheme">
      .ColorScheme-Text {
        color:#afafaf;
      }
      </style>
    <symbol
       id="symbol17195">
      <title
         id="title17191">Settings</title>
      <path
         d="M38.86 25.95c.08-.64.14-1.29.14-1.95s-.06-1.31-.14-1.95l4.23-3.31c.38-.3.49-.84.24-1.28l-4-6.93c-.25-.43-.77-.61-1.22-.43l-4.98 2.01c-1.03-.79-2.16-1.46-3.38-1.97l-.75-5.3c-.09-.47-.5-.84-1-.84h-8c-.5 0-.91.37-.99.84l-.75 5.3c-1.22.51-2.35 1.17-3.38 1.97l-4.98-2.01c-.45-.17-.97 0-1.22.43l-4 6.93c-.25.43-.14.97.24 1.28l4.22 3.31c-.08.64-.14 1.29-.14 1.95s.06 1.31.14 1.95l-4.22 3.31c-.38.3-.49.84-.24 1.28l4 6.93c.25.43.77.61 1.22.43l4.98-2.01c1.03.79 2.16 1.46 3.38 1.97l.75 5.3c.08.47.49.84.99.84h8c.5 0 .91-.37.99-.84l.75-5.3c1.22-.51 2.35-1.17 3.38-1.97l4.98 2.01c.45.17.97 0 1.22-.43l4-6.93c.25-.43.14-.97-.24-1.28l-4.22-3.31zm-14.86 5.05c-3.87 0-7-3.13-7-7s3.13-7 7-7 7 3.13 7 7-3.13 7-7 7z"
         id="path17193" />
    </symbol>
  </defs>
  <path
     style="color:#afafaf;fill:currentColor;fill-opacity:1;stroke:none"
     d="m 28.099346,-10.033797 c -0.931981,0 -1.715538,0.6373008 -1.9375,1.5000001 h -6.0625 v 1 h 6.0625 c 0.221962,0.8626993 1.005519,1.5 1.9375,1.5 0.931981,0 1.715537,-0.6373007 1.9375,-1.5 h 2.0625 v -1 h -2.0625 c -0.221963,-0.8626993 -1.005519,-1.5000001 -1.9375,-1.5000001 z m -5,7.0000001 c -0.931981,0 -1.715538,0.637301 -1.9375,1.5 h -1.0625 v 1.00000003 h 1.0625 c 0.221962,0.862699 1.005519,1.5 1.9375,1.5 0.931981,0 1.715537,-0.637301 1.9375,-1.5 h 0.0625 2 5 V -1.5337969 h -5 -2 -0.0625 c -0.221963,-0.862699 -1.005519,-1.5 -1.9375,-1.5 z m 0,1 c 0.55228,0 1,0.44772 1,1 0,0.55228003 -0.44772,1.00000003 -1,1.00000003 -0.55228,0 -1,-0.44772 -1,-1.00000003 0,-0.55228 0.44772,-1 1,-1 z"
     class="ColorScheme-Text"
     id="path4"
     inkscape:connector-curvature="0" />
  <use
     id="use32985"
     style="fill:#afafaf;fill-opacity:1;stroke:none"
     xlink:href="#symbol17195"
     x="0"
     y="0"
     width="100%"
     height="100%"
     transform="matrix(0.35972619,0,0,0.35972619,-0.63522715,-0.82795236)" />
</svg>
