<?xml version="1.0" encoding="UTF-8" standalone="no"?>
<svg
   xmlns:dc="http://purl.org/dc/elements/1.1/"
   xmlns:cc="http://creativecommons.org/ns#"
   xmlns:rdf="http://www.w3.org/1999/02/22-rdf-syntax-ns#"
   xmlns:svg="http://www.w3.org/2000/svg"
   xmlns="http://www.w3.org/2000/svg"
   xmlns:xlink="http://www.w3.org/1999/xlink"
   xmlns:sodipodi="http://sodipodi.sourceforge.net/DTD/sodipodi-0.dtd"
   xmlns:inkscape="http://www.inkscape.org/namespaces/inkscape"
   height="48"
   viewBox="0 0 48 48"
   width="48"
   id="svg2"
   version="1.1"
   inkscape:version="0.92.2 5c3e80d, 2017-08-06"
   sodipodi:docname="evince.svg">
  <metadata
     id="metadata24">
    <rdf:RDF>
      <cc:Work
         rdf:about="">
        <dc:format>image/svg+xml</dc:format>
        <dc:type
           rdf:resource="http://purl.org/dc/dcmitype/StillImage" />
        <dc:title />
      </cc:Work>
    </rdf:RDF>
  </metadata>
  <defs
     id="defs22">
    <linearGradient
       inkscape:collect="always"
       id="linearGradient4376">
      <stop
         style="stop-color:#770302;stop-opacity:1"
         offset="0"
         id="stop4378" />
      <stop
         style="stop-color:#e81818;stop-opacity:1"
         offset="1"
         id="stop4380" />
    </linearGradient>
    <linearGradient
       inkscape:collect="always"
       id="linearGradient4261">
      <stop
         style="stop-color:#000000;stop-opacity:1;"
         offset="0"
         id="stop4263" />
      <stop
         style="stop-color:#000000;stop-opacity:0;"
         offset="1"
         id="stop4265" />
    </linearGradient>
    <linearGradient
       inkscape:collect="always"
       id="linearGradient49897">
      <stop
         style="stop-color:#176875;stop-opacity:1"
         offset="0"
         id="stop49899" />
      <stop
         style="stop-color:#186a77;stop-opacity:1"
         offset="1"
         id="stop49901" />
    </linearGradient>
    <linearGradient
       inkscape:collect="always"
       id="linearGradient4536">
      <stop
         style="stop-color:#b6b6b6;stop-opacity:1"
         offset="0"
         id="stop4538" />
      <stop
         id="stop4544"
         offset="0.48217213"
         style="stop-color:#ffffff;stop-opacity:1;" />
      <stop
         style="stop-color:#cfcfcf;stop-opacity:1"
         offset="1"
         id="stop4540" />
    </linearGradient>
    <linearGradient
       inkscape:collect="always"
       id="linearGradient4492">
      <stop
         style="stop-color:#165dc2;stop-opacity:1;"
         offset="0"
         id="stop4494" />
      <stop
         style="stop-color:#1680c2;stop-opacity:1"
         offset="1"
         id="stop4496" />
    </linearGradient>
    <inkscape:perspective
       sodipodi:type="inkscape:persp3d"
       inkscape:vp_x="0 : 50 : 1"
       inkscape:vp_y="0 : 1000 : 0"
       inkscape:vp_z="100 : 50 : 1"
       inkscape:persp3d-origin="50 : 33.333333 : 1"
       id="perspective4380" />
    <filter
       style="color-interpolation-filters:sRGB"
       id="filter4672"
       inkscape:label="filtro0">
      <feGaussianBlur
         stdDeviation="19.539999999999999"
         id="feGaussianBlur4674" />
    </filter>
    <filter
       style="color-interpolation-filters:sRGB"
       id="filter4680"
       inkscape:label="filtro1">
      <feDiffuseLighting
         id="feDiffuseLighting4682" />
    </filter>
    <linearGradient
       gradientTransform="translate(-29.321003,-3.241)"
       inkscape:collect="always"
       xlink:href="#linearGradient4492"
       id="linearGradient4498-3"
       x1="32.94767"
       y1="16.16"
       x2="41.579502"
       y2="6.4204984"
       gradientUnits="userSpaceOnUse" />
    <linearGradient
       gradientTransform="translate(-29.321003,-3.241)"
       inkscape:collect="always"
       xlink:href="#linearGradient4536"
       id="linearGradient4542-0"
       x1="29.321003"
       y1="10.72"
       x2="44.279003"
       y2="10.72"
       gradientUnits="userSpaceOnUse" />
    <linearGradient
       id="linearGradient3244"
       inkscape:collect="always">
      <stop
         id="stop3246"
         offset="0"
         style="stop-color:#d0611f;stop-opacity:1" />
      <stop
         id="stop3248"
         offset="1"
         style="stop-color:#f77a2c;stop-opacity:1" />
    </linearGradient>
    <linearGradient
       inkscape:collect="always"
       xlink:href="#linearGradient3244"
       id="linearGradient3242-3"
       gradientUnits="userSpaceOnUse"
       gradientTransform="matrix(0.49438202,0,0,0.49438202,-34.11236,-485.66219)"
       x1="78.89711"
       y1="1042.14"
       x2="78.89711"
       y2="982.4278" />
    <symbol
       id="icon-refresh"
       viewBox="0 0 24 28">
      <title
         id="title9852">refresh</title>
      <path
         class="path1"
         d="M23.609 16.5c0 0.031 0 0.078-0.016 0.109-1.328 5.531-5.891 9.391-11.656 9.391-3.047 0-6-1.203-8.219-3.313l-2.016 2.016c-0.187 0.187-0.438 0.297-0.703 0.297-0.547 0-1-0.453-1-1v-7c0-0.547 0.453-1 1-1h7c0.547 0 1 0.453 1 1 0 0.266-0.109 0.516-0.297 0.703l-2.141 2.141c1.469 1.375 3.422 2.156 5.437 2.156 2.781 0 5.359-1.437 6.813-3.813 0.375-0.609 0.562-1.203 0.828-1.828 0.078-0.219 0.234-0.359 0.469-0.359h3c0.281 0 0.5 0.234 0.5 0.5zM24 4v7c0 0.547-0.453 1-1 1h-7c-0.547 0-1-0.453-1-1 0-0.266 0.109-0.516 0.297-0.703l2.156-2.156c-1.484-1.375-3.437-2.141-5.453-2.141-2.781 0-5.359 1.437-6.813 3.813-0.375 0.609-0.562 1.203-0.828 1.828-0.078 0.219-0.234 0.359-0.469 0.359h-3.109c-0.281 0-0.5-0.234-0.5-0.5v-0.109c1.344-5.547 5.953-9.391 11.719-9.391 3.063 0 6.047 1.219 8.266 3.313l2.031-2.016c0.187-0.187 0.438-0.297 0.703-0.297 0.547 0 1 0.453 1 1z"
         id="path9854" />
    </symbol>
    <symbol
       id="symbol5687">
      <title
         id="title5689">Replay</title>
      <path
         d="M24 10V2L14 12l10 10v-8c6.63 0 12 5.37 12 12s-5.37 12-12 12-12-5.37-12-12H8c0 8.84 7.16 16 16 16s16-7.16 16-16-7.16-16-16-16z"
         style="stroke:none"
         id="path5691" />
    </symbol>
    <symbol
       id="symbol20353">
      <title
         id="title20355">Refresh</title>
      <path
         d="M35.3 12.7C32.41 9.8 28.42 8 24 8 15.16 8 8.02 15.16 8.02 24S15.16 40 24 40c7.45 0 13.69-5.1 15.46-12H35.3c-1.65 4.66-6.07 8-11.3 8-6.63 0-12-5.37-12-12s5.37-12 12-12c3.31 0 6.28 1.38 8.45 3.55L26 22h14V8l-4.7 4.7z"
         style="stroke:none"
         id="path20357" />
    </symbol>
    <linearGradient
       inkscape:collect="always"
       xlink:href="#linearGradient49897"
       id="linearGradient49903-2"
       x1="24.333614"
       y1="44.351692"
       x2="24.333614"
       y2="-0.59979343"
       gradientUnits="userSpaceOnUse" />
    <linearGradient
       inkscape:collect="always"
       xlink:href="#linearGradient49897"
       id="linearGradient50365"
       gradientUnits="userSpaceOnUse"
       x1="24.333614"
       y1="44.351692"
       x2="24.333614"
       y2="-0.59979343"
       gradientTransform="matrix(1.0514827,0,0,1.0514827,-1.2359443,-1.105721)" />
    <linearGradient
       inkscape:collect="always"
       xlink:href="#linearGradient4261"
       id="linearGradient4267"
       x1="8.02"
       y1="24"
       x2="40"
       y2="24"
       gradientUnits="userSpaceOnUse" />
    <linearGradient
       inkscape:collect="always"
       xlink:href="#linearGradient4536"
       id="linearGradient4382"
       x1="20.801529"
       y1="48.628677"
       x2="21.420622"
       y2="13.002928"
       gradientUnits="userSpaceOnUse"
       gradientTransform="matrix(0.89902127,0,0,0.89902127,1.6113771,3.139055)" />
    <linearGradient
       inkscape:collect="always"
       xlink:href="#linearGradient4376"
       id="linearGradient4390"
       x1="23.079966"
       y1="45.28471"
       x2="23.079966"
       y2="3.8011117"
       gradientUnits="userSpaceOnUse"
       gradientTransform="matrix(1.0769813,0,0,1.0769813,-1.8475506,-1.8475506)" />
  </defs>
  <sodipodi:namedview
     pagecolor="#383c4a"
     bordercolor="#666666"
     borderopacity="1"
     objecttolerance="4"
     gridtolerance="10"
     guidetolerance="4"
     inkscape:pageopacity="0"
     inkscape:pageshadow="2"
     inkscape:window-width="640"
     inkscape:window-height="480"
     id="namedview20"
     showgrid="false"
     inkscape:zoom="13.258252"
     inkscape:cx="29.745243"
     inkscape:cy="17.928415"
     inkscape:current-layer="g4403"
     inkscape:snap-smooth-nodes="true"
     showguides="true"
     borderlayer="true"
     inkscape:showpageshadow="false"
     inkscape:guide-bbox="true"
     guidecolor="#38cf02"
     guideopacity="0.49803922"
     inkscape:snap-nodes="true"
     inkscape:lockguides="true">
    <inkscape:grid
       type="xygrid"
       id="grid4171"
       empspacing="4"
       dotted="false" />
    <sodipodi:guide
       position="4,0"
       orientation="1,0"
       id="guide4173"
       inkscape:locked="true"
       inkscape:label=""
       inkscape:color="rgb(56,207,2)" />
    <sodipodi:guide
       position="44,0"
       orientation="1,0"
       id="guide4175"
       inkscape:locked="true"
       inkscape:label=""
       inkscape:color="rgb(56,207,2)" />
    <sodipodi:guide
       position="0,44"
       orientation="0,1"
       id="guide4177"
       inkscape:locked="true"
       inkscape:label=""
       inkscape:color="rgb(56,207,2)" />
    <sodipodi:guide
       position="0,4"
       orientation="0,1"
       id="guide4179"
       inkscape:locked="true"
       inkscape:label=""
       inkscape:color="rgb(56,207,2)" />
    <sodipodi:guide
       position="8,0"
       orientation="1,0"
       id="guide4243"
       inkscape:locked="true"
       inkscape:label=""
       inkscape:color="rgb(56,207,2)" />
    <sodipodi:guide
       position="40,0"
       orientation="1,0"
       id="guide4251"
       inkscape:locked="true"
       inkscape:label=""
       inkscape:color="rgb(56,207,2)" />
    <sodipodi:guide
       position="0,40"
       orientation="0,1"
       id="guide4514"
       inkscape:locked="true"
       inkscape:label=""
       inkscape:color="rgb(56,207,2)" />
    <sodipodi:guide
       position="0,8"
       orientation="0,1"
       id="guide4516"
       inkscape:locked="true"
       inkscape:label=""
       inkscape:color="rgb(56,207,2)" />
    <sodipodi:guide
       position="0,0"
       orientation="-0.70710678,0.70710678"
       id="guide5275"
       inkscape:locked="true"
       inkscape:label=""
       inkscape:color="rgb(56,207,2)" />
    <sodipodi:guide
       position="0,48"
       orientation="-0.70710678,-0.70710678"
       id="guide5277"
       inkscape:locked="true"
       inkscape:label=""
       inkscape:color="rgb(56,207,2)" />
  </sodipodi:namedview>
  <g
     inkscape:groupmode="layer"
     id="layer6"
     inkscape:label="background-white"
     style="display:none;opacity:1"
     sodipodi:insensitive="true">
    <rect
       style="color:#000000;clip-rule:nonzero;display:inline;overflow:visible;visibility:visible;opacity:1;isolation:auto;mix-blend-mode:normal;color-interpolation:sRGB;color-interpolation-filters:linearRGB;solid-color:#000000;solid-opacity:1;fill:#ffffff;fill-opacity:1;fill-rule:nonzero;stroke:none;stroke-width:0.20080347;stroke-linecap:butt;stroke-linejoin:miter;stroke-miterlimit:4;stroke-dasharray:none;stroke-dashoffset:0;stroke-opacity:1;marker:none;marker-start:none;marker-mid:none;marker-end:none;paint-order:normal;color-rendering:auto;image-rendering:auto;shape-rendering:auto;text-rendering:auto;enable-background:accumulate"
       id="rect49905"
       width="60"
       height="60"
       x="-6"
       y="-6"
       rx="0"
       ry="2.4035539e-06" />
  </g>
  <g
     inkscape:groupmode="layer"
     id="layer7"
     inkscape:label="workbench"
     style="display:inline">
    <rect
       style="color:#000000;clip-rule:nonzero;display:inline;overflow:visible;visibility:visible;opacity:1;isolation:auto;mix-blend-mode:normal;color-interpolation:sRGB;color-interpolation-filters:linearRGB;solid-color:#000000;solid-opacity:1;fill:#ff0000;fill-opacity:1;fill-rule:nonzero;stroke:none;stroke-width:0.61812234;stroke-linecap:round;stroke-linejoin:miter;stroke-miterlimit:4;stroke-dasharray:none;stroke-dashoffset:0;stroke-opacity:0.77083333;marker:none;marker-start:none;marker-mid:none;marker-end:none;paint-order:normal;color-rendering:auto;image-rendering:auto;shape-rendering:auto;text-rendering:auto;enable-background:accumulate"
       id="rect4356"
       width="0"
       height="0"
       x="0"
       y="0" />
    <g
       id="g4305"
       transform="matrix(0.14596559,0,0,0.14596559,58.60296,-8.4842223)">
      <g
         id="g4265" />
      <g
         id="g4269" />
      <g
         id="g4271" />
      <g
         id="g4273" />
      <g
         id="g4275" />
      <g
         id="g4277" />
      <g
         id="g4279" />
      <g
         id="g4281" />
      <g
         id="g4283" />
      <g
         id="g4285" />
      <g
         id="g4287" />
      <g
         id="g4289" />
      <g
         id="g4291" />
      <g
         id="g4293" />
      <g
         id="g4295" />
      <g
         id="g4297" />
    </g>
    <path
       id="path4267"
       d="m 105.23723,26.523605 c -0.90079,-0.887501 -2.8986,-1.357548 -5.938635,-1.397469 -2.05786,-0.02269 -4.5347,0.158541 -7.139921,0.523275 -1.166563,-0.673071 -2.368738,-1.405579 -3.312633,-2.28763 -2.538812,-2.370766 -4.658016,-5.661475 -5.978558,-9.280039 0.08605,-0.337993 0.159302,-0.635051 0.227483,-0.938193 0,0 1.430038,-8.122601 1.051492,-10.868872 -0.05209,-0.376646 -0.08415,-0.485888 -0.185409,-0.778638 l -0.124196,-0.31911 c -0.38894,-0.897132 -1.15161,-1.847745 -2.347321,-1.795911 l -0.701206,-0.02231 -0.01927,-3.81e-4 c -1.333342,0 -2.420064,0.681942 -2.705337,1.701244 -0.867096,3.196928 0.02763,7.97952 1.64903,14.173901 l -0.415046,1.00891 c -1.160987,2.830167 -2.615864,5.680485 -3.899527,8.19509 l -0.166906,0.3271 c -1.35045,2.642858 -2.575816,4.886385 -3.686618,6.786977 l -1.146919,0.60641 c -0.08352,0.04411 -2.049122,1.083681 -2.510171,1.362617 -3.911187,2.335281 -6.502973,4.986377 -6.932972,7.090119 -0.13687,0.671297 -0.03498,1.530283 0.660904,1.928093 l 1.109281,0.558252 c 0.481199,0.241044 0.988632,0.363212 1.508484,0.363212 2.785685,0 6.019746,-3.47016 10.474864,-11.245136 5.143778,-1.674631 11.000166,-3.066523 16.13279,-3.834261 3.911442,2.202466 8.722162,3.732114 11.758527,3.732114 0.53912,0 1.00384,-0.05145 1.3815,-0.151317 0.58232,-0.154232 1.07316,-0.486396 1.37237,-0.937052 0.58905,-0.886487 0.70856,-2.107672 0.54862,-3.358004 -0.0477,-0.370944 -0.34408,-0.829711 -0.66471,-1.142991 z M 63.629391,41.346371 c 0.50794,-1.388977 2.518788,-4.134867 5.491909,-6.57128 0.186929,-0.151571 0.647344,-0.583091 1.06898,-0.983689 -3.109104,4.958748 -5.191175,6.935126 -6.560889,7.554969 z M 81.238984,0.794834 c 0.895484,0 1.404818,2.257087 1.447146,4.373123 0.0422,2.116162 -0.452684,3.601329 -1.066571,4.700217 C 81.111112,8.241195 80.86538,5.676784 80.86538,4 c 0,0 -0.03739,-3.205166 0.373604,-3.205166 z m -5.25302,28.897944 c 0.623772,-1.11663 1.272765,-2.29422 1.93595,-3.543032 1.616587,-3.057142 2.637536,-5.449326 3.397924,-7.415565 1.512288,2.751341 3.395643,5.090424 5.609642,6.964529 0.276148,0.233692 0.568772,0.468653 0.876095,0.702979 -4.502262,0.890795 -8.393552,1.974223 -11.819611,3.291089 z m 28.386206,-0.253589 c -0.27424,0.171468 -1.05973,0.270572 -1.565,0.270572 -1.63066,0 -3.648225,-0.745562 -6.476625,-1.958128 1.08672,-0.08048 2.08321,-0.121283 2.9768,-0.121283 1.635605,0 2.120095,-0.0071 3.719445,0.400853 1.59934,0.407948 1.61949,1.236518 1.34538,1.407986 z"
       inkscape:connector-curvature="0"
       style="display:inline;fill:#d80027;stroke:none;stroke-width:1.39999998;stroke-miterlimit:4;stroke-dasharray:none;stroke-opacity:1"
       sodipodi:nodetypes="cccccccccccccccccccccccsccsccccccccscccscccccccscssc" />
    <g
       id="g4403"
       transform="matrix(0.95721404,0,0,0.95721404,0.97714987,1.0268635)">
      <rect
         style="color:#000000;clip-rule:nonzero;display:inline;overflow:visible;visibility:visible;opacity:1;isolation:auto;mix-blend-mode:normal;color-interpolation:sRGB;color-interpolation-filters:linearRGB;solid-color:#000000;solid-opacity:1;fill:#000000;fill-opacity:0.08241757;fill-rule:nonzero;stroke:none;stroke-width:1.2495085;stroke-linecap:square;stroke-linejoin:miter;stroke-miterlimit:4;stroke-dasharray:none;stroke-dashoffset:0;stroke-opacity:1;marker:none;marker-start:none;marker-mid:none;marker-end:none;paint-order:normal;color-rendering:auto;image-rendering:auto;shape-rendering:auto;text-rendering:auto;enable-background:accumulate"
         id="rect904"
         width="47.714565"
         height="47.714565"
         x="0.14271638"
         y="0.14271638"
         ry="4.998034" />
      <rect
         ry="4.8370714"
         y="0.91104507"
         x="0.91104507"
         height="46.17791"
         width="46.17791"
         id="rect4324"
         style="color:#000000;clip-rule:nonzero;display:inline;overflow:visible;visibility:visible;opacity:1;isolation:auto;mix-blend-mode:normal;color-interpolation:sRGB;color-interpolation-filters:linearRGB;solid-color:#000000;solid-opacity:1;fill:url(#linearGradient4390);fill-opacity:1;fill-rule:nonzero;stroke:none;stroke-width:1.20926785;stroke-linecap:square;stroke-linejoin:miter;stroke-miterlimit:4;stroke-dasharray:none;stroke-dashoffset:0;stroke-opacity:1;marker:none;marker-start:none;marker-mid:none;marker-end:none;paint-order:normal;color-rendering:auto;image-rendering:auto;shape-rendering:auto;text-rendering:auto;enable-background:accumulate" />
      <path
         style="display:inline;fill:#000000;fill-opacity:0.27472528;stroke:none;stroke-width:0.67507243;stroke-miterlimit:4;stroke-dasharray:none;stroke-opacity:1"
         d="m 19.418023,8.9603216 c 0.01748,3.6629774 1.060743,7.1283214 1.780968,10.6886364 -2.161215,5.280243 -4.851233,10.322758 -7.653562,15.285673 -0.765375,0.553403 -5.3421647,2.644974 -0.564139,1.172511 -1.020465,2.399363 -2.52064,3.549921 -3.4571773,4.867986 -1.120239,1.44954 -3.5138196,3.297339 -4.6431908,3.300774 1.7067783,1.283127 4.455963,-0.881071 5.7143081,-2.336711 1.933785,-2.269267 3.463204,-4.841835 4.954187,-7.413157 5.007345,-1.62637 10.143106,-2.864681 15.35007,-3.64924 3.591663,1.886861 7.529151,3.645644 11.6792,3.38456 2.173813,-0.656209 1.919635,-4.526493 -0.520823,-4.661985 -2.258563,-0.555124 -4.630191,-0.403789 -6.929406,-0.272679 -1.867157,0.40985 -4.079204,0.491772 -5.487241,-1.035676 -3.242576,-2.468452 -5.560579,-6.107304 -6.815804,-9.926027 0.369081,-1.732756 0.783549,-4.221389 0.848863,-5.809701 -1.513271,4.500031 -1.791418,4.774733 -2.475049,-0.328626 -1.182745,-7.4662379 2.223669,-8.2677621 2.37469,1.207231 C 25.263672,3.3723097 19.765207,3.60953 19.418023,8.9603216 Z m 2.524862,12.1996674 c 1.747708,3.510616 4.26956,6.643118 7.518429,8.86942 -0.696619,0.297746 -2.130358,0.417282 -3.046741,0.683777 -3.654397,0.771515 -7.230886,1.879865 -10.694936,3.273288 2.361096,-4.130124 4.627356,-8.331613 6.223248,-12.826485 z m 16.656869,9.03016 c 1.757599,-0.0079 3.829463,0.07308 5.153055,1.3714 0.914709,1.914011 -1.792304,1.967821 -2.985699,1.772403 -1.828304,-0.232405 -3.475973,-1.106845 -5.171495,-1.76728 -3.120996,-1.573078 1.431118,-1.274485 2.641388,-1.364698 l 0.362693,-0.01187 z m -25.039271,5.248685 c -3.240086,0.975895 -9.0080615,4.140257 -9.5763711,7.290849 -0.193741,1.620898 2.666034,2.645396 0.9122758,0.283722 8.004e-4,-2.458484 5.9205933,-5.92324 8.6640953,-7.574571 z"
         id="path908"
         inkscape:connector-curvature="0"
         sodipodi:nodetypes="cccccccccccccccccccccccccccccccccc" />
      <path
         sodipodi:nodetypes="cccccccccccccccccccccccccccccccccc"
         inkscape:connector-curvature="0"
         id="path4358"
         d="m 19.418023,7.8352009 c 0.01748,3.6629771 1.060743,7.1283221 1.780968,10.6886371 -2.161215,5.280243 -4.851233,10.322758 -7.653562,15.285673 -0.765375,0.553403 -5.3421647,2.644974 -0.564139,1.172511 -1.020465,2.399363 -2.52064,3.549921 -3.4571773,4.867986 -1.120239,1.44954 -3.5138196,3.297338 -4.6431908,3.300774 1.7067783,1.283127 4.455963,-0.881071 5.7143081,-2.336711 1.933785,-2.269268 3.463204,-4.841836 4.954187,-7.413157 5.007345,-1.62637 10.143106,-2.864681 15.35007,-3.649241 3.591663,1.886862 7.529151,3.645645 11.6792,3.384561 2.173813,-0.656209 1.919635,-4.526494 -0.520823,-4.661985 -2.258563,-0.555124 -4.630191,-0.40379 -6.929406,-0.272679 -1.867157,0.40985 -4.079204,0.491772 -5.487241,-1.035676 -3.242576,-2.468452 -5.560579,-6.107304 -6.815804,-9.926027 0.369081,-1.732756 0.783549,-4.221389 0.848863,-5.809701 -1.513271,4.500031 -1.791418,4.774733 -2.475049,-0.328626 -1.182745,-7.4662385 2.223669,-8.2677627 2.37469,1.207231 1.689755,-10.0615819 -3.80871,-9.8243616 -4.155894,-4.4735701 z m 2.524862,12.1996671 c 1.747708,3.510617 4.26956,6.643119 7.518429,8.86942 -0.696619,0.297747 -2.130358,0.417283 -3.046741,0.683778 -3.654397,0.771515 -7.230886,1.879864 -10.694936,3.273287 2.361096,-4.130124 4.627356,-8.331612 6.223248,-12.826485 z m 16.656869,9.030161 c 1.757599,-0.0079 3.829463,0.07308 5.153055,1.3714 0.914709,1.914011 -1.792304,1.967821 -2.985699,1.772403 -1.828304,-0.232405 -3.475973,-1.106845 -5.171495,-1.76728 -3.120996,-1.573079 1.431118,-1.274486 2.641388,-1.364698 l 0.362693,-0.01187 z m -25.039271,5.248684 c -3.240086,0.975896 -9.0080615,4.140258 -9.5763711,7.29085 -0.193741,1.620898 2.666034,2.645396 0.9122758,0.283722 8.004e-4,-2.458484 5.9205933,-5.923241 8.6640953,-7.574572 z"
         style="display:inline;fill:url(#linearGradient4382);fill-opacity:1;stroke:none;stroke-width:0.67507243;stroke-miterlimit:4;stroke-dasharray:none;stroke-opacity:1" />
      <path
         style="color:#000000;clip-rule:nonzero;display:inline;overflow:visible;visibility:visible;opacity:1;isolation:auto;mix-blend-mode:normal;color-interpolation:sRGB;color-interpolation-filters:linearRGB;solid-color:#000000;solid-opacity:1;fill:#ffffff;fill-opacity:0.15384617;fill-rule:nonzero;stroke:none;stroke-width:1.20926785;stroke-linecap:square;stroke-linejoin:miter;stroke-miterlimit:4;stroke-dasharray:none;stroke-dashoffset:0;stroke-opacity:1;marker:none;marker-start:none;marker-mid:none;marker-end:none;paint-order:normal;color-rendering:auto;image-rendering:auto;shape-rendering:auto;text-rendering:auto;enable-background:accumulate"
         d="m 0.91185006,41.127323 v 1.125121 c 0,2.679738 2.15696274,4.8367 4.83670014,4.8367 H 42.251243 c 2.679737,0 4.8367,-2.156962 4.8367,-4.8367 v -1.125121 c 0,2.679738 -2.156963,4.8367 -4.8367,4.8367 H 5.7485502 c -2.6797374,0 -4.83670014,-2.156962 -4.83670014,-4.8367 z"
         id="rect899"
         inkscape:connector-curvature="0" />
    </g>
  </g>
  <g
     inkscape:groupmode="layer"
     id="layer1"
     inkscape:label="circles"
     style="display:none">
    <rect
       rx="6.6500416"
       ry="6.6500416"
       y="4.0498753"
       x="4.0498753"
       height="39.900249"
       width="39.900249"
       id="rect5279-6"
       style="display:inline;opacity:1;fill:none;fill-opacity:0.95027627;stroke:#ff1300;stroke-width:0.09975062;stroke-linecap:square;stroke-linejoin:miter;stroke-miterlimit:4;stroke-dasharray:0.09975062, 0.19950125;stroke-dashoffset:0;stroke-opacity:1;paint-order:normal" />
    <circle
       r="15.950156"
       cy="24"
       cx="24"
       id="path5297-7"
       style="display:inline;opacity:1;fill:none;fill-opacity:0.95027627;stroke:#ff1300;stroke-width:0.09968847;stroke-linecap:square;stroke-linejoin:miter;stroke-miterlimit:4;stroke-dasharray:0.09968847, 0.19937695;stroke-dashoffset:0;stroke-opacity:1;paint-order:normal" />
    <circle
       style="display:inline;opacity:1;fill:none;fill-opacity:0.95027627;stroke:#ff1300;stroke-width:0.02492211;stroke-linecap:square;stroke-linejoin:miter;stroke-miterlimit:4;stroke-dasharray:0.02492211, 0.04984424;stroke-dashoffset:0;stroke-opacity:1;paint-order:normal"
       id="circle5299-5"
       cx="24"
       cy="24"
       r="3.9875391" />
    <circle
       style="display:inline;opacity:1;fill:none;fill-opacity:0.95027627;stroke:#ff00dc;stroke-width:0.14953269;stroke-linecap:square;stroke-linejoin:miter;stroke-miterlimit:4;stroke-dasharray:0.14953269, 0.2990654;stroke-dashoffset:0;stroke-opacity:1;paint-order:normal"
       id="circle5277"
       cx="24"
       cy="24"
       r="23.925234" />
  </g>
</svg>
