<?xml version="1.0" encoding="UTF-8" standalone="no"?>
<svg
   xmlns:dc="http://purl.org/dc/elements/1.1/"
   xmlns:cc="http://creativecommons.org/ns#"
   xmlns:rdf="http://www.w3.org/1999/02/22-rdf-syntax-ns#"
   xmlns:svg="http://www.w3.org/2000/svg"
   xmlns="http://www.w3.org/2000/svg"
   xmlns:sodipodi="http://sodipodi.sourceforge.net/DTD/sodipodi-0.dtd"
   xmlns:inkscape="http://www.inkscape.org/namespaces/inkscape"
   width="24"
   height="24"
   version="1.1"
   id="svg9"
   sodipodi:docname="user-busy.svg"
   inkscape:version="0.92.4 5da689c313, 2019-01-14">
  <metadata
     id="metadata13">
    <rdf:RDF>
      <cc:Work
         rdf:about="">
        <dc:format>image/svg+xml</dc:format>
        <dc:type
           rdf:resource="http://purl.org/dc/dcmitype/StillImage" />
        <dc:title></dc:title>
      </cc:Work>
    </rdf:RDF>
  </metadata>
  <sodipodi:namedview
     pagecolor="#2f333d"
     bordercolor="#666666"
     borderopacity="1"
     objecttolerance="10"
     gridtolerance="10"
     guidetolerance="10"
     inkscape:pageopacity="0"
     inkscape:pageshadow="2"
     inkscape:window-width="640"
     inkscape:window-height="480"
     id="namedview11"
     showgrid="true"
     inkscape:zoom="38.775"
     inkscape:cx="16.391449"
     inkscape:cy="10.72152"
     inkscape:current-layer="g7"
     inkscape:snap-smooth-nodes="true">
    <inkscape:grid
       type="xygrid"
       id="grid7684"
       dotted="false" />
  </sodipodi:namedview>
  <defs
     id="defs3">
    <style
       id="current-color-scheme"
       type="text/css">
   .ColorScheme-Text { color:#dfdfdf; } .ColorScheme-Highlight { color:#4285f4; }
  </style>
  </defs>
  <g
     transform="matrix(1.1428571,0,0,1.1428571,-202.85714,-934.76883)"
     id="g7"
     style="display:inline">
    <path
       sodipodi:nodetypes="cssccccccccc"
       inkscape:connector-curvature="0"
       id="path823"
       d="m 181.875,821.42276 c 0,0 -1.75,0 -1.75,1.78996 v 7.83504 c 0,1.75 1.75,1.75 1.75,1.75 h 5.25 l 2.625,3.5 3.5,-3.5 h 0.875 c 0,0 1.75,0 1.75,-1.75 0,0 0.0105,-6.12079 0.0227,-7.85774 0.0123,-1.76726 -1.7727,-1.76726 -1.7727,-1.76726 z"
       class="ColorScheme-Text"
       style="color:#dfdfdf;display:inline;fill:#000000;fill-opacity:0.09424085" />
    <path
       style="color:#dfdfdf;display:inline;fill:#fefefe;fill-opacity:0.98952876;stroke-width:1.14285707"
       d="m 5.9746094,4.9804688 c 0,0 -2,-7.467e-4 -2,2.0449218 v 6.9550784 c 1.14e-5,2 2,2 2,2 h 4.9999996 l 3,4 3,-4 h 1 c 0,0 2,0 2,-2 0,0 0.01145,-4.9953834 0.02539,-6.980469 0.01406,-2.0197256 -2.025391,-2.0195312 -2.025391,-2.0195312 z M 17,10 v 2 H 7 v -2 z"
       transform="matrix(0.87500003,0,0,0.87500003,177.5,817.92276)"
       id="path5"
       inkscape:connector-curvature="0"
       sodipodi:nodetypes="csccccccccccccccc" />
  </g>
</svg>
