<?xml version="1.0" encoding="UTF-8" standalone="yes"?>
<svg xmlns:dc="http://purl.org/dc/elements/1.1/" xmlns:cc="http://creativecommons.org/ns#" xmlns:rdf="http://www.w3.org/1999/02/22-rdf-syntax-ns#" xmlns:svg="http://www.w3.org/2000/svg" xmlns="http://www.w3.org/2000/svg" xmlns:xlink="http://www.w3.org/1999/xlink" xmlns:sodipodi="http://sodipodi.sourceforge.net/DTD/sodipodi-0.dtd" xmlns:inkscape="http://www.inkscape.org/namespaces/inkscape" height="48" viewBox="0 0 48 48" width="48" id="svg2" version="1.1" inkscape:version="0.92.2 5c3e80d, 2017-08-06" sodipodi:docname="accessories-character-map.svg" enable-background="new" folder="48">
  <title id="title4675">Template icons dark</title>
  <metadata id="metadata24">
    <rdf:RDF>
      <cc:Work rdf:about="">
        <dc:format>image/svg+xml</dc:format>
        <dc:type rdf:resource="http://purl.org/dc/dcmitype/StillImage"/>
        <dc:title>Template icons dark</dc:title>
        <dc:date>17/05/13</dc:date>
        <dc:creator>
          <cc:Agent>
            <dc:title>wfpaisa</dc:title>
          </cc:Agent>
        </dc:creator>
        <dc:rights>
          <cc:Agent>
            <dc:title>License: GPLv3</dc:title>
          </cc:Agent>
        </dc:rights>
        <dc:language>es-en</dc:language>
        <dc:subject>
          <rdf:Bag>
            <rdf:li>plane-icon-theme</rdf:li>
          </rdf:Bag>
        </dc:subject>
        <dc:description>Template for create set icons</dc:description>
        <cc:license rdf:resource="https://www.gnu.org/licenses/gpl-3.0.en.html"/>
      </cc:Work>
    </rdf:RDF>
  </metadata>
  <defs id="defs22">
    <linearGradient id="linearGradient7762">
      <stop style="stop-color:#003783;stop-opacity:1" offset="0" id="stop7758"/>
      <stop style="stop-color:#69e5ff;stop-opacity:1" offset="1" id="stop7760"/>
    </linearGradient>
    <linearGradient inkscape:collect="always" xlink:href="#linearGradient7762" id="linearGradient7994" gradientUnits="userSpaceOnUse" x1="120" y1="120" x2="203.05511" y2="204"/>
    <linearGradient inkscape:collect="always" xlink:href="#linearGradient7762" id="linearGradient8343" gradientUnits="userSpaceOnUse" x1="120" y1="120" x2="203.05511" y2="204"/>
    <clipPath clipPathUnits="userSpaceOnUse" id="clipPath8339-4">
      <path inkscape:label="base para recorte" style="color:#000000;clip-rule:nonzero;display:inline;overflow:visible;visibility:visible;opacity:1;isolation:auto;mix-blend-mode:normal;color-interpolation:sRGB;color-interpolation-filters:linearRGB;solid-color:#000000;solid-opacity:1;vector-effect:none;fill:url(#linearGradient8343);fill-opacity:1;fill-rule:nonzero;stroke:none;stroke-width:1;stroke-linecap:butt;stroke-linejoin:miter;stroke-miterlimit:4;stroke-dasharray:none;stroke-dashoffset:0;stroke-opacity:0.43455499;marker:none;marker-start:none;marker-mid:none;marker-end:none;paint-order:fill markers stroke;color-rendering:auto;image-rendering:auto;shape-rendering:auto;text-rendering:auto;enable-background:accumulate" d="M 128.55273,116 C 121.5982,116 116,121.5982 116,128.55273 v 30.89454 c 0,0.0936 0.0117,0.18419 0.0137,0.27734 -0.005,0.0918 -0.009,0.18358 -0.0137,0.27539 2e-5,24.30052 19.69948,43.99998 44,44 24.30052,-2e-5 43.99998,-19.69948 44,-44 -2e-5,-24.30052 -19.69948,-43.99998 -44,-44 -0.10809,0.004 -0.21616,0.007 -0.32422,0.0117 C 159.59898,116.0107 159.52444,116 159.44727,116 Z M 130,122 c 4.41828,-1e-5 8.00001,3.58172 8,8 1e-5,4.41828 -3.58172,8.00001 -8,8 -4.41828,1e-5 -8.00001,-3.58172 -8,-8 -1e-5,-4.41828 3.58172,-8.00001 8,-8 z" id="path8341-7" inkscape:connector-curvature="0" sodipodi:nodetypes="sssccccccssccccc" sodipodi:insensitive="true"/>
    </clipPath>
  </defs>
  <sodipodi:namedview pagecolor="#383c4a" bordercolor="#ffffff" borderopacity="0.62745098" objecttolerance="4" gridtolerance="10" guidetolerance="4" inkscape:pageopacity="0" inkscape:pageshadow="2" inkscape:window-width="640" inkscape:window-height="480" id="namedview20" showgrid="true" inkscape:zoom="2.9402989" inkscape:cx="281.78867" inkscape:cy="-216.80815" inkscape:current-layer="layer6" inkscape:snap-smooth-nodes="false" showguides="true" borderlayer="true" inkscape:showpageshadow="false" inkscape:guide-bbox="true" guidecolor="#bd4fff" guideopacity="0.78431373" inkscape:snap-nodes="true" inkscape:lockguides="false" fit-margin-top="0" fit-margin-left="0" fit-margin-right="0" fit-margin-bottom="0" guidehicolor="#ff0101" guidehiopacity="0.78431373" inkscape:snap-page="true" inkscape:object-nodes="true" inkscape:snap-bbox="true" inkscape:snap-global="true" inkscape:snap-object-midpoints="false" inkscape:snap-bbox-edge-midpoints="false">
    <inkscape:grid type="xygrid" id="grid4171" empspacing="4" dotted="false" originx="2.7755576e-17" originy="0" spacingx="1" spacingy="1" color="#5a5a5a" opacity="0.23529412" empcolor="#5a5a5a" empopacity="0.47058824" visible="true"/>
    <inkscape:grid type="axonomgrid" id="grid4699" units="mm" empspacing="4" color="#5a5a5a" opacity="0.23529412" empcolor="#5a5a5a" empopacity="0.47058824" gridanglex="45" gridanglez="45" spacingy="3.7795276" visible="false" originx="1.3228346" originy="1.3228346"/>
    <sodipodi:guide position="48,0" orientation="1,0" id="guide4568" inkscape:locked="false" inkscape:label="" inkscape:color="rgb(189,79,255)"/>
    <sodipodi:guide position="111.99996,-3.9999999e-05" orientation="0,1" id="guide4570" inkscape:locked="false" inkscape:label="" inkscape:color="rgb(189,79,255)"/>
    <sodipodi:guide position="0,0" orientation="1,0" id="guide4572" inkscape:locked="false" inkscape:label="" inkscape:color="rgb(189,79,255)"/>
    <sodipodi:guide position="0,48" orientation="0,1" id="guide4574" inkscape:locked="false" inkscape:label="" inkscape:color="rgb(189,79,255)"/>
    <sodipodi:guide position="0,80" orientation="0,1" id="guide4576" inkscape:locked="false" inkscape:label="" inkscape:color="rgb(189,79,255)"/>
    <sodipodi:guide position="-32,48" orientation="1,0" id="guide4578" inkscape:locked="false" inkscape:label="" inkscape:color="rgb(189,79,255)"/>
    <sodipodi:guide position="-32,104" orientation="0,1" id="guide4580" inkscape:locked="false" inkscape:label="" inkscape:color="rgb(189,79,255)"/>
    <sodipodi:guide position="-56,80" orientation="1,0" id="guide4582" inkscape:locked="false" inkscape:label="" inkscape:color="rgb(189,79,255)"/>
    <sodipodi:guide position="48,-64" orientation="0,1" id="guide4584" inkscape:locked="false" inkscape:label="" inkscape:color="rgb(189,79,255)"/>
    <sodipodi:guide position="0,0" orientation="-0.70710678,0.70710678" id="guide4588" inkscape:locked="false" inkscape:label="" inkscape:color="rgb(189,79,255)"/>
    <sodipodi:guide position="-56,80" orientation="-0.70710678,0.70710678" id="guide4573" inkscape:locked="false" inkscape:label="" inkscape:color="rgb(189,79,255)"/>
    <sodipodi:guide position="-32,48" orientation="-0.70710678,0.70710678" id="guide4575" inkscape:locked="false" inkscape:label="" inkscape:color="rgb(189,79,255)"/>
    <sodipodi:guide position="48,-64" orientation="-0.70710678,0.70710678" id="guide4577" inkscape:locked="false" inkscape:label="" inkscape:color="rgb(189,79,255)"/>
    <sodipodi:guide position="160,-112.12599" orientation="0.70710678,0.70710678" id="guide4697" inkscape:locked="false" inkscape:label="" inkscape:color="rgb(189,79,255)"/>
    <sodipodi:guide position="207.99995,-288" orientation="0,1" id="guide7833" inkscape:locked="false"/>
    <sodipodi:guide position="335.99994,-288" orientation="1,0" id="guide7835" inkscape:locked="false" inkscape:label="" inkscape:color="rgb(189,79,255)"/>
    <sodipodi:guide position="111.99996,-64" orientation="1,0" id="guide7915" inkscape:locked="false"/>
    <sodipodi:guide position="111.99996,-160" orientation="0,1" id="guide7917" inkscape:locked="false"/>
    <sodipodi:guide position="207.99996,-160" orientation="1,0" id="guide7919" inkscape:locked="false"/>
    <sodipodi:guide position="111.99996,-160" orientation="-0.70710678,0.70710678" id="guide7921" inkscape:locked="false" inkscape:label="" inkscape:color="rgb(189,79,255)"/>
    <sodipodi:guide position="207.99996,-288" orientation="-0.70710678,0.70710678" id="guide7923" inkscape:locked="false" inkscape:label="" inkscape:color="rgb(189,79,255)"/>
    <sodipodi:guide position="-72,104" orientation="1,0" id="guide7824" inkscape:locked="false"/>
    <sodipodi:guide position="-56,120" orientation="0,1" id="guide7826" inkscape:locked="false"/>
    <sodipodi:guide position="-72,104" orientation="-0.70710678,0.70710678" id="guide7828" inkscape:locked="false" inkscape:label="" inkscape:color="rgb(189,79,255)"/>
  </sodipodi:namedview>
  <g inkscape:groupmode="layer" id="layer3" inkscape:label="icon_48" style="display:inline" transform="translate(6.8969723e-7,-4.5367432e-7)">
    <g inkscape:groupmode="layer" id="layer9" inkscape:label="frame" style="display:none">
      <rect inkscape:label="frame_48" y="4.5367432e-07" x="-6.8969723e-07" height="48" width="48" id="frame_48" style="color:#000000;clip-rule:nonzero;display:block;overflow:visible;visibility:visible;opacity:1;isolation:auto;mix-blend-mode:normal;color-interpolation:sRGB;color-interpolation-filters:linearRGB;solid-color:#000000;solid-opacity:1;vector-effect:none;fill:#000000;fill-opacity:1;fill-rule:nonzero;stroke:#ff24f7;stroke-width:0;stroke-linecap:square;stroke-linejoin:miter;stroke-miterlimit:4;stroke-dasharray:none;stroke-dashoffset:0;stroke-opacity:0.99481865;marker:none;marker-start:none;marker-mid:none;marker-end:none;paint-order:normal;color-rendering:auto;image-rendering:auto;shape-rendering:auto;text-rendering:auto;enable-background:accumulate"/>
      <text xml:space="preserve" style="font-size:18.66666603px;line-height:1000%;font-family:sans-serif;letter-spacing:0px;word-spacing:0px;display:inline;opacity:1;fill:#ffffff;fill-opacity:1;stroke:none;stroke-width:0.11166908px;stroke-linecap:butt;stroke-linejoin:miter;stroke-opacity:1" x="12.301435" y="30.794922" id="txt_48" inkscape:label="txt_48">
        <tspan sodipodi:role="line" x="12.301435" y="30.794922" style="font-size:18.66666603px;fill:#ffffff;fill-opacity:1;stroke:none;stroke-width:0.11166908px" id="tspan5049-1">48</tspan>
      </text>
      <text xml:space="preserve" style="font-size:2.66666675px;line-height:1000%;font-family:sans-serif;letter-spacing:0px;word-spacing:0px;display:inline;opacity:1;fill:#ffffff;fill-opacity:0.44791667;stroke:none;stroke-width:0.0588377px;stroke-linecap:butt;stroke-linejoin:miter;stroke-opacity:1" x="25.824219" y="45.962238" id="txt_scalable_32-64" inkscape:label="txt_scalable_32-64">
        <tspan sodipodi:role="line" x="25.824219" y="45.962238" style="font-size:2.66666675px;fill:#ffffff;fill-opacity:0.44791667;stroke:none;stroke-width:0.0588377px" id="tspan5049-1-6">Scalable:32-64</tspan>
      </text>
    </g>
    <g inkscape:groupmode="layer" id="layer10" inkscape:label="icon" style="display:inline">
      <path style="color:#000000;clip-rule:nonzero;display:block;overflow:visible;visibility:visible;opacity:1;isolation:auto;mix-blend-mode:normal;color-interpolation:sRGB;color-interpolation-filters:linearRGB;solid-color:#000000;solid-opacity:1;vector-effect:none;fill:#000000;fill-opacity:0.14136125;fill-rule:nonzero;stroke:none;stroke-width:1.16818404;stroke-linecap:butt;stroke-linejoin:miter;stroke-miterlimit:4;stroke-dasharray:none;stroke-dashoffset:0;stroke-opacity:0.07853406;marker:none;marker-start:none;marker-mid:none;marker-end:none;paint-order:fill markers stroke;color-rendering:auto;image-rendering:auto;shape-rendering:auto;text-rendering:auto;enable-background:accumulate" d="M 5.0000004,5 H 43 V 43 H 5 Z" id="rect7865-6-5" inkscape:connector-curvature="0" sodipodi:nodetypes="ccccc"/>
      <path style="color:#000000;clip-rule:nonzero;display:block;overflow:visible;visibility:visible;opacity:1;isolation:auto;mix-blend-mode:normal;color-interpolation:sRGB;color-interpolation-filters:linearRGB;solid-color:#000000;solid-opacity:1;vector-effect:none;fill:#a3acc3;fill-opacity:1;fill-rule:nonzero;stroke:none;stroke-width:0.75;stroke-linecap:butt;stroke-linejoin:miter;stroke-miterlimit:4;stroke-dasharray:none;stroke-dashoffset:0;stroke-opacity:0.07853406;marker:none;marker-start:none;marker-mid:none;marker-end:none;paint-order:fill markers stroke;color-rendering:auto;image-rendering:auto;shape-rendering:auto;text-rendering:auto;enable-background:accumulate" d="M 6,6 H 42.003493 V 42.003494 H 6 Z" id="rect7904-2-9" inkscape:connector-curvature="0" sodipodi:nodetypes="ccccc"/>
      <path style="color:#000000;clip-rule:nonzero;display:block;overflow:visible;visibility:visible;opacity:1;isolation:auto;mix-blend-mode:normal;color-interpolation:sRGB;color-interpolation-filters:linearRGB;solid-color:#000000;solid-opacity:1;vector-effect:none;fill:#79859c;fill-opacity:1;fill-rule:nonzero;stroke:none;stroke-width:0.75;stroke-linecap:butt;stroke-linejoin:miter;stroke-miterlimit:4;stroke-dasharray:none;stroke-dashoffset:0;stroke-opacity:0.07853406;marker:none;marker-start:none;marker-mid:none;marker-end:none;paint-order:fill markers stroke;color-rendering:auto;image-rendering:auto;shape-rendering:auto;text-rendering:auto;enable-background:accumulate" d="M 18,18 H 30 V 30 H 18 Z" id="rect7819-9-2" inkscape:connector-curvature="0" sodipodi:nodetypes="ccccc"/>
      <path style="color:#000000;clip-rule:nonzero;display:block;overflow:visible;visibility:visible;opacity:1;isolation:auto;mix-blend-mode:normal;color-interpolation:sRGB;color-interpolation-filters:linearRGB;solid-color:#000000;solid-opacity:1;vector-effect:none;fill:#696e82;fill-opacity:1;fill-rule:nonzero;stroke:none;stroke-width:0.75;stroke-linecap:butt;stroke-linejoin:miter;stroke-miterlimit:4;stroke-dasharray:none;stroke-dashoffset:0;stroke-opacity:0.07853406;marker:none;marker-start:none;marker-mid:none;marker-end:none;paint-order:fill markers stroke;color-rendering:auto;image-rendering:auto;shape-rendering:auto;text-rendering:auto;enable-background:accumulate" d="M 18,6 H 30 V 18 H 18 Z" id="rect7838-1-2" inkscape:connector-curvature="0" sodipodi:nodetypes="ccccc"/>
      <path style="color:#000000;clip-rule:nonzero;display:block;overflow:visible;visibility:visible;opacity:1;isolation:auto;mix-blend-mode:normal;color-interpolation:sRGB;color-interpolation-filters:linearRGB;solid-color:#000000;solid-opacity:1;vector-effect:none;fill:#565a68;fill-opacity:1;fill-rule:nonzero;stroke:none;stroke-width:0.75;stroke-linecap:butt;stroke-linejoin:miter;stroke-miterlimit:4;stroke-dasharray:none;stroke-dashoffset:0;stroke-opacity:0.07853406;marker:none;marker-start:none;marker-mid:none;marker-end:none;paint-order:fill markers stroke;color-rendering:auto;image-rendering:auto;shape-rendering:auto;text-rendering:auto;enable-background:accumulate" d="M 6,6 H 18 V 18 H 6 Z" id="rect7840-2-8" inkscape:connector-curvature="0" sodipodi:nodetypes="ccccc"/>
      <path style="color:#000000;clip-rule:nonzero;display:block;overflow:visible;visibility:visible;opacity:1;isolation:auto;mix-blend-mode:normal;color-interpolation:sRGB;color-interpolation-filters:linearRGB;solid-color:#000000;solid-opacity:1;vector-effect:none;fill:#777a8b;fill-opacity:1;fill-rule:nonzero;stroke:none;stroke-width:0.75;stroke-linecap:butt;stroke-linejoin:miter;stroke-miterlimit:4;stroke-dasharray:none;stroke-dashoffset:0;stroke-opacity:0.07853406;marker:none;marker-start:none;marker-mid:none;marker-end:none;paint-order:fill markers stroke;color-rendering:auto;image-rendering:auto;shape-rendering:auto;text-rendering:auto;enable-background:accumulate" d="M 6,18 H 18 V 30 H 6 Z" id="rect7842-7-9" inkscape:connector-curvature="0" sodipodi:nodetypes="ccccc"/>
      <path style="color:#000000;clip-rule:nonzero;display:block;overflow:visible;visibility:visible;opacity:1;isolation:auto;mix-blend-mode:normal;color-interpolation:sRGB;color-interpolation-filters:linearRGB;solid-color:#000000;solid-opacity:1;vector-effect:none;fill:#8d98b6;fill-opacity:1;fill-rule:nonzero;stroke:none;stroke-width:0.75;stroke-linecap:butt;stroke-linejoin:miter;stroke-miterlimit:4;stroke-dasharray:none;stroke-dashoffset:0;stroke-opacity:0.07853406;marker:none;marker-start:none;marker-mid:none;marker-end:none;paint-order:fill markers stroke;color-rendering:auto;image-rendering:auto;shape-rendering:auto;text-rendering:auto;enable-background:accumulate" d="M 30,18 H 41.996506 V 30 H 30 Z" id="rect7844-0-7" inkscape:connector-curvature="0" sodipodi:nodetypes="ccccc"/>
      <path style="color:#000000;clip-rule:nonzero;display:block;overflow:visible;visibility:visible;opacity:1;isolation:auto;mix-blend-mode:normal;color-interpolation:sRGB;color-interpolation-filters:linearRGB;solid-color:#000000;solid-opacity:1;vector-effect:none;fill:#7a8399;fill-opacity:1;fill-rule:nonzero;stroke:none;stroke-width:0.75;stroke-linecap:butt;stroke-linejoin:miter;stroke-miterlimit:4;stroke-dasharray:none;stroke-dashoffset:0;stroke-opacity:0.07853406;marker:none;marker-start:none;marker-mid:none;marker-end:none;paint-order:fill markers stroke;color-rendering:auto;image-rendering:auto;shape-rendering:auto;text-rendering:auto;enable-background:accumulate" d="M 30,6 H 41.996506 V 18 H 30 Z" id="rect7846-9-3" inkscape:connector-curvature="0" sodipodi:nodetypes="ccccc"/>
      <path style="color:#000000;clip-rule:nonzero;display:block;overflow:visible;visibility:visible;opacity:1;isolation:auto;mix-blend-mode:normal;color-interpolation:sRGB;color-interpolation-filters:linearRGB;solid-color:#000000;solid-opacity:1;vector-effect:none;fill:#9098b0;fill-opacity:1;fill-rule:nonzero;stroke:none;stroke-width:0.75;stroke-linecap:butt;stroke-linejoin:miter;stroke-miterlimit:4;stroke-dasharray:none;stroke-dashoffset:0;stroke-opacity:0.07853406;marker:none;marker-start:none;marker-mid:none;marker-end:none;paint-order:fill markers stroke;color-rendering:auto;image-rendering:auto;shape-rendering:auto;text-rendering:auto;enable-background:accumulate" d="M 18,30 H 30 V 41.996507 H 18 Z" id="rect7848-3-6" inkscape:connector-curvature="0" sodipodi:nodetypes="ccccc"/>
      <path style="color:#000000;clip-rule:nonzero;display:block;overflow:visible;visibility:visible;opacity:1;isolation:auto;mix-blend-mode:normal;color-interpolation:sRGB;color-interpolation-filters:linearRGB;solid-color:#000000;solid-opacity:1;vector-effect:none;fill:#818da2;fill-opacity:1;fill-rule:nonzero;stroke:none;stroke-width:0.75;stroke-linecap:butt;stroke-linejoin:miter;stroke-miterlimit:4;stroke-dasharray:none;stroke-dashoffset:0;stroke-opacity:0.07853406;marker:none;marker-start:none;marker-mid:none;marker-end:none;paint-order:fill markers stroke;color-rendering:auto;image-rendering:auto;shape-rendering:auto;text-rendering:auto;enable-background:accumulate" d="M 6,30 H 18 V 41.996507 H 6 Z" id="rect7850-6-1" inkscape:connector-curvature="0" sodipodi:nodetypes="ccccc"/>
      <path style="color:#000000;clip-rule:nonzero;display:block;overflow:visible;visibility:visible;opacity:1;isolation:auto;mix-blend-mode:normal;color-interpolation:sRGB;color-interpolation-filters:linearRGB;solid-color:#000000;solid-opacity:1;vector-effect:none;fill:#ffffff;fill-opacity:0.25654452;fill-rule:nonzero;stroke:none;stroke-width:0.13044821;stroke-linecap:butt;stroke-linejoin:miter;stroke-miterlimit:4;stroke-dasharray:none;stroke-dashoffset:0;stroke-opacity:0.07853406;marker:none;marker-start:none;marker-mid:none;marker-end:none;paint-order:fill markers stroke;color-rendering:auto;image-rendering:auto;shape-rendering:auto;text-rendering:auto;enable-background:accumulate" d="m 6,41 h 36.003493 v 0.996515 H 6 Z" id="rect7902-0-2" inkscape:connector-curvature="0" sodipodi:nodetypes="ccccc"/>
      <path style="font-size:medium;line-height:1000%;font-family:sans-serif;letter-spacing:0px;word-spacing:0px;display:inline;fill:#fefefe;fill-opacity:1;stroke:none;stroke-width:0.67212528px;stroke-linecap:butt;stroke-linejoin:miter;stroke-opacity:1" d="m 36.685025,8.10885 c -1.18672,0 -2.121085,0.36366 -2.80371,1.091795 -0.682625,0.724635 -1.024415,1.717305 -1.024415,2.97754 0,1.256735 0.34179,2.249405 1.024415,2.97754 0.682625,0.724635 1.61699,1.086915 2.80371,1.086915 0.46209,0 0.899425,-0.06343 1.3125,-0.189455 0.41658,-0.126025 0.810575,-0.315335 1.18164,-0.56738 V 14.37838 c -0.357065,0.33256 -0.738455,0.58059 -1.14453,0.74512 -0.402575,0.16453 -0.83105,0.24707 -1.28613,0.24707 -0.89617,0 -1.582505,-0.273235 -2.058595,-0.81934 -0.47609,-0.5496 -0.71387,-1.340355 -0.71387,-2.373045 0,-1.036195 0.23778,-1.826945 0.71387,-2.373045 0.47609,-0.549605 1.162425,-0.825195 2.058595,-0.825195 0.45508,0 0.883555,0.082535 1.28613,0.24707 0.406075,0.16453 0.787465,0.41353 1.14453,0.746095 V 8.853965 C 38.8151,8.60542 38.424845,8.41985 38.00827,8.297325 37.59519,8.171305 37.154115,8.10885 36.685025,8.10885 Z M 11.86862,8.25045 8.875455,16.090295 h 1.11914 l 0.71387,-2.01172 h 3.5332 l 0.714845,2.01172 h 1.10254 L 13.07077,8.25045 Z m 9.978515,0 v 7.839845 h 2.814455 c 0.87866,0 1.556135,-0.190695 2.032225,-0.572265 0.47609,-0.38157 0.71387,-0.922915 0.71387,-1.62305 0,-0.5321 -0.144995,-0.974555 -0.43555,-1.32812 -0.287055,-0.35707 -0.691295,-0.592085 -1.21289,-0.704105 0.43408,-0.07001 0.76326,-0.24672 0.987305,-0.530275 0.22404,-0.28355 0.335935,-0.66494 0.335935,-1.14453 0,-0.61961 -0.21867,-1.09753 -0.65625,-1.43359 C 25.988655,8.418295 25.36477,8.25045 24.55612,8.25045 Z m 1.06055,0.87207 h 1.57031 c 0.518095,0 0.903225,0.09791 1.155275,0.293945 0.25555,0.19604 0.38281,0.491145 0.38281,0.88672 0,0.399075 -0.12726,0.69654 -0.38281,0.89258 -0.25205,0.192535 -0.63718,0.28906 -1.155275,0.28906 h -1.57031 z m -10.44043,0.172855 1.444335,3.901365 h -2.882815 z m 10.44043,3.05078 h 1.70117 c 0.570605,0 0.992575,0.11702 1.265625,0.35156 0.276555,0.231045 0.41504,0.591945 0.41504,1.082035 0,0.48659 -0.138485,0.848865 -0.41504,1.08691 -0.27305,0.234545 -0.69502,0.351565 -1.265625,0.351565 h -1.70117 z M 11.86862,22.06686 c -0.31506,0 -0.639115,0.03545 -0.97168,0.105465 -0.33256,0.06651 -0.67573,0.16816 -1.029295,0.30469 v 0.892575 c 0.29405,-0.16103 0.600385,-0.28179 0.918945,-0.362305 0.31856,-0.08051 0.646355,-0.12109 0.98242,-0.12109 0.528595,0 0.93796,0.123115 1.228515,0.368165 0.294055,0.241545 0.44141,0.58374 0.44141,1.02832 v 0.09473 H 12.08444 c -0.878665,0 -1.54077,0.16784 -1.98535,0.503905 -0.441085,0.336065 -0.661135,0.83545 -0.661135,1.49707 0,0.567105 0.17671,1.02079 0.530275,1.36035 0.357065,0.336065 0.836365,0.50391 1.438475,0.50391 0.47609,0 0.87895,-0.08393 1.20801,-0.251955 0.32906,-0.171535 0.60368,-0.4359 0.82422,-0.79297 v 0.89258 h 0.96582 v -3.35547 c 0,-0.896165 -0.20981,-1.56478 -0.629885,-2.00586 -0.42008,-0.44108 -1.055595,-0.662105 -1.90625,-0.662105 z m 0.609375,3.06738 h 0.96094 v 0.214845 c 0,0.630115 -0.162725,1.136005 -0.488285,1.517575 -0.32206,0.37807 -0.75151,0.567385 -1.28711,0.567385 -0.38857,0 -0.696285,-0.10027 -0.923825,-0.299805 -0.224045,-0.20304 -0.33594,-0.47627 -0.33594,-0.819335 0,-0.43058 0.150115,-0.734555 0.451175,-0.913085 0.301055,-0.178535 0.8424,-0.26758 1.623045,-0.26758 z m -0.92676,7.74512 c -0.222955,0 -0.402295,0.07653 -0.537105,0.22949 -0.13222,0.15296 -0.198245,0.360225 -0.198245,0.62207 h 0.48633 v -0.02345 c 0,-0.116665 0.0253,-0.207645 0.07714,-0.27246 0.05185,-0.06481 0.12444,-0.09668 0.217775,-0.09668 0.0311,0 0.06658,0.0069 0.10547,0.02245 0.0415,0.01295 0.09436,0.03795 0.15918,0.07422 l 0.22168,0.12891 c 0.13481,0.07 0.240245,0.115005 0.31543,0.13574 0.07778,0.02075 0.160875,0.03125 0.24902,0.03125 0.217775,0 0.392195,-0.07653 0.524415,-0.22949 0.1348,-0.15555 0.20476,-0.362815 0.20996,-0.62207 h -0.48535 v 0.02345 c 0,0.106295 -0.02625,0.19236 -0.07813,0.259765 -0.05185,0.06481 -0.11919,0.09765 -0.20215,0.09765 -0.0389,0 -0.08092,-0.0078 -0.125,-0.02345 -0.04405,-0.01555 -0.09564,-0.0405 -0.15527,-0.07422 l -0.22168,-0.11621 c -0.124445,-0.07001 -0.226275,-0.11501 -0.30664,-0.13574 -0.07778,-0.02075 -0.163505,-0.03125 -0.25684,-0.03125 z m 0.166995,1.026365 -0.820315,1.03418 h 0.54004 l 0.64551,-0.692385 0.645505,0.692385 h 0.541015 l -0.82031,-1.03418 z m 0.40039,1.481445 c -0.653325,0 -1.173285,0.209895 -1.55957,0.629885 -0.383695,0.4174 -0.575195,0.983335 -0.575195,1.696285 0,0.68962 0.20201,1.236185 0.606445,1.640625 0.40703,0.40444 0.95852,0.606445 1.65332,0.606445 0.277405,0 0.55069,-0.0279 0.820315,-0.08496 0.269625,-0.05703 0.5324,-0.140135 0.78906,-0.24902 v -0.67676 c -0.254065,0.134815 -0.510275,0.23533 -0.76953,0.302735 -0.25666,0.0674 -0.523045,0.10156 -0.797855,0.10156 -0.474435,0 -0.84527,-0.1281 -1.112305,-0.384765 C 10.90886,38.70995 10.76105,38.333855 10.72995,37.84127 h 3.290035 v -0.34961 c 0,-0.648135 -0.17048,-1.16021 -0.512695,-1.53613 -0.339625,-0.37851 -0.802755,-0.56836 -1.38867,-0.56836 z m 0.0078,0.606445 c 0.352585,0 0.635065,0.117255 0.847655,0.350585 0.215165,0.23333 0.325855,0.54505 0.331055,0.936525 l -2.55176,0.004 c 0.0363,-0.40962 0.173595,-0.726595 0.41211,-0.95215 0.241105,-0.225545 0.561685,-0.338865 0.96094,-0.338865 z" id="path1054-7" inkscape:connector-curvature="0"/>
    </g>
  </g>
</svg>