<?xml version="1.0" encoding="UTF-8" standalone="yes"?>
<svg xmlns:dc="http://purl.org/dc/elements/1.1/" xmlns:cc="http://creativecommons.org/ns#" xmlns:rdf="http://www.w3.org/1999/02/22-rdf-syntax-ns#" xmlns:svg="http://www.w3.org/2000/svg" xmlns="http://www.w3.org/2000/svg" xmlns:xlink="http://www.w3.org/1999/xlink" xmlns:sodipodi="http://sodipodi.sourceforge.net/DTD/sodipodi-0.dtd" xmlns:inkscape="http://www.inkscape.org/namespaces/inkscape" height="48" viewBox="0 0 48 48" width="48" id="svg2" version="1.1" inkscape:version="0.92.2 5c3e80d, 2017-08-06" sodipodi:docname="gufw.svg" enable-background="new" folder="48">
  <title id="title4675">Template icons dark</title>
  <metadata id="metadata24">
    <rdf:RDF>
      <cc:Work rdf:about="">
        <dc:format>image/svg+xml</dc:format>
        <dc:type rdf:resource="http://purl.org/dc/dcmitype/StillImage"/>
        <dc:title>Template icons dark</dc:title>
        <dc:date>17/05/13</dc:date>
        <dc:creator>
          <cc:Agent>
            <dc:title>wfpaisa</dc:title>
          </cc:Agent>
        </dc:creator>
        <dc:rights>
          <cc:Agent>
            <dc:title>License: GPLv3</dc:title>
          </cc:Agent>
        </dc:rights>
        <dc:language>es-en</dc:language>
        <dc:subject>
          <rdf:Bag>
            <rdf:li>plane-icon-theme</rdf:li>
          </rdf:Bag>
        </dc:subject>
        <dc:description>Template for create set icons</dc:description>
        <cc:license rdf:resource="https://www.gnu.org/licenses/gpl-3.0.en.html"/>
      </cc:Work>
    </rdf:RDF>
  </metadata>
  <defs id="defs22">
    <linearGradient id="linearGradient39741">
      <stop id="stop39737" offset="0" style="stop-color:#1d6e99;stop-opacity:1;"/>
      <stop id="stop39739" offset="1" style="stop-color:#f93000;stop-opacity:1;"/>
    </linearGradient>
    <linearGradient inkscape:collect="always" id="linearGradient39682">
      <stop style="stop-color:#492f46;stop-opacity:0.70980394" offset="0" id="stop39678"/>
      <stop style="stop-color:#3c3543;stop-opacity:0.36813188" offset="1" id="stop39680"/>
    </linearGradient>
    <linearGradient inkscape:collect="always" id="linearGradient4208">
      <stop style="stop-color:#000000;stop-opacity:0.51098901" offset="0" id="stop4204"/>
      <stop style="stop-color:#000000;stop-opacity:0.26923078" offset="1" id="stop4206"/>
    </linearGradient>
    <linearGradient inkscape:collect="always" xlink:href="#linearGradient4722" id="linearGradient4720" gradientUnits="userSpaceOnUse" gradientTransform="matrix(0.87883305,0,0,0.87883305,117.72962,-726.32687)" x1="48.843494" y1="994.45337" x2="48.843494" y2="1014.9698"/>
    <linearGradient id="linearGradient4722" inkscape:collect="always">
      <stop id="stop4724" offset="0" style="stop-color:#313131;stop-opacity:0.50980395"/>
      <stop style="stop-color:#dfdfdf;stop-opacity:0.76078433" offset="0.60000002" id="stop4728"/>
      <stop id="stop4726" offset="1" style="stop-color:#ffffff;stop-opacity:1"/>
    </linearGradient>
    <linearGradient inkscape:collect="always" xlink:href="#linearGradient4145" id="linearGradient4147" x1="48.240433" y1="22.744709" x2="48.240433" y2="-17.955055" gradientUnits="userSpaceOnUse" gradientTransform="matrix(1.0633581,0,0,1.0633581,108.95881,153.77824)"/>
    <linearGradient inkscape:collect="always" id="linearGradient4145">
      <stop style="stop-color:#bcbcbc;stop-opacity:1" offset="0" id="stop4141"/>
      <stop style="stop-color:#ffffff;stop-opacity:1" offset="1" id="stop4143"/>
    </linearGradient>
    <linearGradient inkscape:collect="always" xlink:href="#linearGradient10165" id="linearGradient10167" x1="43.115879" y1="25.525976" x2="1.4625005" y2="25.525976" gradientUnits="userSpaceOnUse" gradientTransform="matrix(2.086771,0,0,2.086771,113.04765,106.78735)"/>
    <linearGradient inkscape:collect="always" id="linearGradient10165">
      <stop style="stop-color:#eeeeee;stop-opacity:1;" offset="0" id="stop10161"/>
      <stop id="stop4584" offset="0.41331291" style="stop-color:#a2a2a2;stop-opacity:1;"/>
      <stop id="stop4582" offset="0.49493894" style="stop-color:#707070;stop-opacity:1"/>
      <stop id="stop11618" offset="0.53019929" style="stop-color:#838383;stop-opacity:1"/>
      <stop style="stop-color:#d2d2d2;stop-opacity:1" offset="1" id="stop10163"/>
    </linearGradient>
    <linearGradient inkscape:collect="always" xlink:href="#linearGradient4247" id="linearGradient5819" gradientUnits="userSpaceOnUse" gradientTransform="matrix(1.771737,0,0,1.771737,73.572454,-1618.6902)" x1="50.10355" y1="1012.1684" x2="73.355255" y2="1012.1684"/>
    <linearGradient inkscape:collect="always" id="linearGradient4247">
      <stop style="stop-color:#353d5a;stop-opacity:0.81318682" offset="0" id="stop4243"/>
      <stop style="stop-color:#a33284;stop-opacity:0.58791208" offset="1" id="stop4245"/>
    </linearGradient>
    <linearGradient inkscape:collect="always" xlink:href="#linearGradient4241" id="linearGradient4235" gradientUnits="userSpaceOnUse" gradientTransform="matrix(1.771737,0,0,1.771737,73.572454,-1618.6902)" x1="49.679111" y1="1012.1684" x2="28.449266" y2="1012.1684"/>
    <linearGradient inkscape:collect="always" id="linearGradient4241">
      <stop style="stop-color:#54546a;stop-opacity:1" offset="0" id="stop4237"/>
      <stop style="stop-color:#5a6480;stop-opacity:1" offset="1" id="stop4239"/>
    </linearGradient>
    <linearGradient inkscape:collect="always" xlink:href="#linearGradient39682" id="linearGradient39684" x1="158.14174" y1="123.57748" x2="158.14174" y2="196" gradientUnits="userSpaceOnUse"/>
    <linearGradient inkscape:collect="always" xlink:href="#linearGradient39741" id="linearGradient39735" gradientUnits="userSpaceOnUse" gradientTransform="matrix(1.771737,0,0,1.771737,73.559604,-1618.6235)" x1="55.554264" y1="1018.5549" x2="6.8810019" y2="979.09015"/>
    <linearGradient inkscape:collect="always" xlink:href="#linearGradient10165" id="linearGradient10167-4" x1="43.115879" y1="25.525976" x2="1.4625005" y2="25.525976" gradientUnits="userSpaceOnUse" gradientTransform="matrix(0.52169801,0,0,0.52169801,-55.738177,-57.303381)"/>
    <linearGradient inkscape:collect="always" xlink:href="#linearGradient4247" id="linearGradient5819-75" gradientUnits="userSpaceOnUse" gradientTransform="matrix(0.44293871,0,0,0.44293871,-65.607075,-488.67712)" x1="50.10355" y1="1012.1684" x2="73.355255" y2="1012.1684"/>
    <linearGradient gradientTransform="matrix(0.25000252,0,0,0.25000252,-56.000092,-45.5001)" inkscape:collect="always" xlink:href="#linearGradient4208" id="linearGradient4210-21" x1="50.444756" y1="26.43075" x2="49.479927" y2="-19.018431" gradientUnits="userSpaceOnUse"/>
    <linearGradient inkscape:collect="always" xlink:href="#linearGradient4722" id="linearGradient4720-57" gradientUnits="userSpaceOnUse" gradientTransform="matrix(0.21971048,0,0,0.21971048,-54.567673,-265.58404)" x1="48.843494" y1="994.45337" x2="48.843494" y2="1014.9698"/>
    <linearGradient inkscape:collect="always" xlink:href="#linearGradient4145" id="linearGradient4147-5" x1="48.240433" y1="22.744709" x2="48.240433" y2="-17.955055" gradientUnits="userSpaceOnUse" gradientTransform="matrix(0.2658422,0,0,0.2658422,-56.760397,-45.555541)"/>
    <linearGradient inkscape:collect="always" xlink:href="#linearGradient39741" id="linearGradient39735-53" gradientUnits="userSpaceOnUse" gradientTransform="matrix(0.44293871,0,0,0.44293871,-65.610287,-488.66044)" x1="55.554264" y1="1018.5549" x2="6.8810019" y2="979.09015"/>
    <linearGradient inkscape:collect="always" xlink:href="#linearGradient4241" id="linearGradient4235-3" gradientUnits="userSpaceOnUse" gradientTransform="matrix(0.44293871,0,0,0.44293871,-65.607075,-488.67712)" x1="49.679111" y1="1012.1684" x2="28.449266" y2="1012.1684"/>
    <linearGradient inkscape:collect="always" xlink:href="#linearGradient10165" id="linearGradient10167-40" x1="43.115879" y1="25.525976" x2="1.4625005" y2="25.525976" gradientUnits="userSpaceOnUse" gradientTransform="matrix(0.34779866,0,0,0.34779866,-71.843043,-72.868933)"/>
    <linearGradient inkscape:collect="always" xlink:href="#linearGradient4247" id="linearGradient5819-2" gradientUnits="userSpaceOnUse" gradientTransform="matrix(0.29529246,0,0,0.29529246,-78.422309,-360.4514)" x1="50.10355" y1="1012.1684" x2="73.355255" y2="1012.1684"/>
    <linearGradient inkscape:collect="always" xlink:href="#linearGradient39741" id="linearGradient39735-0" gradientUnits="userSpaceOnUse" gradientTransform="matrix(0.29529246,0,0,0.29529246,-78.42445,-360.44029)" x1="55.554264" y1="1018.5549" x2="6.8810019" y2="979.09015"/>
    <linearGradient inkscape:collect="always" xlink:href="#linearGradient4241" id="linearGradient4235-0" gradientUnits="userSpaceOnUse" gradientTransform="matrix(0.29529246,0,0,0.29529246,-78.422309,-360.4514)" x1="49.679111" y1="1012.1684" x2="28.449266" y2="1012.1684"/>
    <linearGradient inkscape:collect="always" xlink:href="#linearGradient4241" id="linearGradient4235-7" gradientUnits="userSpaceOnUse" gradientTransform="matrix(2.2146743,0,0,2.2146743,165.35124,-1949.9798)" x1="49.679111" y1="1012.1684" x2="28.449266" y2="1012.1684"/>
    <linearGradient inkscape:collect="always" xlink:href="#linearGradient39741" id="linearGradient39735-50" gradientUnits="userSpaceOnUse" gradientTransform="matrix(2.2146743,0,0,2.2146743,165.33518,-1949.8965)" x1="55.554264" y1="1018.5549" x2="6.8810019" y2="979.09015"/>
    <linearGradient inkscape:collect="always" xlink:href="#linearGradient4145" id="linearGradient4147-1" x1="48.240433" y1="22.744709" x2="48.240433" y2="-17.955055" gradientUnits="userSpaceOnUse" gradientTransform="matrix(1.3291994,0,0,1.3291994,209.58425,265.60865)"/>
    <linearGradient inkscape:collect="always" xlink:href="#linearGradient4722" id="linearGradient4720-3" gradientUnits="userSpaceOnUse" gradientTransform="matrix(1.0985428,0,0,1.0985428,220.54778,-834.52423)" x1="48.843494" y1="994.45337" x2="48.843494" y2="1014.9698"/>
    <linearGradient inkscape:collect="always" xlink:href="#linearGradient4247" id="linearGradient5819-15" gradientUnits="userSpaceOnUse" gradientTransform="matrix(2.2146743,0,0,2.2146743,165.35124,-1949.9798)" x1="50.10355" y1="1012.1684" x2="73.355255" y2="1012.1684"/>
    <linearGradient inkscape:collect="always" xlink:href="#linearGradient10165" id="linearGradient10167-76" x1="43.115879" y1="25.525976" x2="1.4625005" y2="25.525976" gradientUnits="userSpaceOnUse" gradientTransform="matrix(2.6084673,0,0,2.6084673,214.6953,206.86996)"/>
    <linearGradient inkscape:collect="always" xlink:href="#linearGradient4241" id="linearGradient4235-4" gradientUnits="userSpaceOnUse" gradientTransform="matrix(1.1811507,0,0,1.1811507,22.317472,-1105.7858)" x1="49.679111" y1="1012.1684" x2="28.449266" y2="1012.1684"/>
    <linearGradient inkscape:collect="always" xlink:href="#linearGradient39741" id="linearGradient39735-06" gradientUnits="userSpaceOnUse" gradientTransform="matrix(1.1811507,0,0,1.1811507,22.308906,-1105.7413)" x1="55.554264" y1="1018.5549" x2="6.8810019" y2="979.09015"/>
    <linearGradient inkscape:collect="always" xlink:href="#linearGradient4145" id="linearGradient4147-2" x1="48.240433" y1="22.744709" x2="48.240433" y2="-17.955055" gradientUnits="userSpaceOnUse" gradientTransform="matrix(0.70890099,0,0,0.70890099,45.908229,75.852359)"/>
    <linearGradient inkscape:collect="always" xlink:href="#linearGradient4722" id="linearGradient4720-4" gradientUnits="userSpaceOnUse" gradientTransform="matrix(0.58588506,0,0,0.58588506,51.7554,-510.88073)" x1="48.843494" y1="994.45337" x2="48.843494" y2="1014.9698"/>
    <linearGradient inkscape:collect="always" xlink:href="#linearGradient4247" id="linearGradient5819-4" gradientUnits="userSpaceOnUse" gradientTransform="matrix(1.1811507,0,0,1.1811507,22.317472,-1105.7858)" x1="50.10355" y1="1012.1684" x2="73.355255" y2="1012.1684"/>
    <linearGradient inkscape:collect="always" xlink:href="#linearGradient10165" id="linearGradient10167-1" x1="43.115879" y1="25.525976" x2="1.4625005" y2="25.525976" gradientUnits="userSpaceOnUse" gradientTransform="matrix(1.391172,0,0,1.391172,48.634106,44.525295)"/>
    <linearGradient inkscape:collect="always" xlink:href="#linearGradient4241" id="linearGradient4235-77" gradientUnits="userSpaceOnUse" gradientTransform="matrix(0.88585814,0,0,0.88585814,-19.253977,-865.33475)" x1="49.679111" y1="1012.1684" x2="28.449266" y2="1012.1684"/>
    <linearGradient inkscape:collect="always" xlink:href="#linearGradient39741" id="linearGradient39735-3" gradientUnits="userSpaceOnUse" gradientTransform="matrix(0.88585814,0,0,0.88585814,-19.260402,-865.3014)" x1="55.554264" y1="1018.5549" x2="6.8810019" y2="979.09015"/>
    <linearGradient inkscape:collect="always" xlink:href="#linearGradient4145" id="linearGradient4147-6" x1="48.240433" y1="22.744709" x2="48.240433" y2="-17.955055" gradientUnits="userSpaceOnUse" gradientTransform="matrix(0.53167283,0,0,0.53167283,-1.5610053,20.8891)"/>
    <linearGradient inkscape:collect="always" xlink:href="#linearGradient4722" id="linearGradient4720-48" gradientUnits="userSpaceOnUse" gradientTransform="matrix(0.43941138,0,0,0.43941138,2.8243484,-419.15831)" x1="48.843494" y1="994.45337" x2="48.843494" y2="1014.9698"/>
    <linearGradient inkscape:collect="always" xlink:href="#linearGradient4247" id="linearGradient5819-3" gradientUnits="userSpaceOnUse" gradientTransform="matrix(0.88585814,0,0,0.88585814,-19.253977,-865.33475)" x1="50.10355" y1="1012.1684" x2="73.355255" y2="1012.1684"/>
    <linearGradient inkscape:collect="always" xlink:href="#linearGradient10165" id="linearGradient10167-8" x1="43.115879" y1="25.525976" x2="1.4625005" y2="25.525976" gradientUnits="userSpaceOnUse" gradientTransform="matrix(1.0433733,0,0,1.0433733,0.48339087,-2.6060701)"/>
    <linearGradient inkscape:collect="always" xlink:href="#linearGradient4241" id="linearGradient4235-1" gradientUnits="userSpaceOnUse" gradientTransform="matrix(0.59058495,0,0,0.59058495,-44.809445,-608.90278)" x1="49.679111" y1="1012.1684" x2="28.449266" y2="1012.1684"/>
    <linearGradient inkscape:collect="always" xlink:href="#linearGradient39741" id="linearGradient39735-9" gradientUnits="userSpaceOnUse" gradientTransform="matrix(0.59058495,0,0,0.59058495,-44.813729,-608.88055)" x1="55.554264" y1="1018.5549" x2="6.8810019" y2="979.09015"/>
    <linearGradient inkscape:collect="always" xlink:href="#linearGradient4145" id="linearGradient4147-17" x1="48.240433" y1="22.744709" x2="48.240433" y2="-17.955055" gradientUnits="userSpaceOnUse" gradientTransform="matrix(0.35445627,0,0,0.35445627,-33.013875,-18.074016)"/>
    <linearGradient inkscape:collect="always" xlink:href="#linearGradient4247" id="linearGradient5819-5" gradientUnits="userSpaceOnUse" gradientTransform="matrix(0.59058495,0,0,0.59058495,-44.809445,-608.90278)" x1="50.10355" y1="1012.1684" x2="73.355255" y2="1012.1684"/>
    <linearGradient inkscape:collect="always" xlink:href="#linearGradient10165" id="linearGradient10167-5" x1="43.115879" y1="25.525976" x2="1.4625005" y2="25.525976" gradientUnits="userSpaceOnUse" gradientTransform="matrix(0.69559734,0,0,0.69559734,-31.650915,-33.737804)"/>
    <symbol id="flame" viewBox="0 0 12 16">
      <title id="title13945">flame</title>
      <path d="M5.05.31c.81 2.17.41 3.38-.52 4.31C3.55 5.67 1.98 6.45.9 7.98c-1.45 2.05-1.7 6.53 3.53 7.7-2.2-1.16-2.67-4.52-.3-6.61-.61 2.03.53 3.33 1.94 2.86 1.39-.47 2.3.53 2.27 1.67-.02.78-.31 1.44-1.13 1.81 3.42-.59 4.78-3.42 4.78-5.56 0-2.84-2.53-3.22-1.25-5.61-1.52.13-2.03 1.13-1.89 2.75.09 1.08-1.02 1.8-1.86 1.33-.67-.41-.66-1.19-.06-1.78C8.18 5.31 8.68 2.45 5.05.32L5.03.3l.02.01z" id="path13947"/>
    </symbol>
    <symbol id="icon-space-shuttle" viewBox="0 0 34 28">
      <title id="title18373">space-shuttle</title>
      <path d="M9.688 17.5c-1.078 0.625-2.547 1-4.188 1h-2v-1h-1c-0.281 0-0.5-0.562-0.5-1.25 0-0.281 0.047-0.547 0.109-0.766-1.203-0.031-2.109-0.234-2.109-0.484s0.906-0.453 2.109-0.484c-0.063-0.219-0.109-0.484-0.109-0.766 0-0.688 0.219-1.25 0.5-1.25h1v-1h2c1.641 0 3.109 0.375 4.188 1h17.391c1.156 0.203 2.203 0.375 2.922 0.5 3 0.5 4 1.5 4 2s-1 1.5-4 2c-0.719 0.125-1.766 0.297-2.922 0.5h-17.391zM27.172 13.563c0.5 0.344 0.828 0.859 0.828 1.437s-0.328 1.094-0.828 1.437l1.266 0.469c0.641-0.453 1.062-1.141 1.062-1.906s-0.422-1.453-1.062-1.906zM9.766 17.75h15.859s-3.391 0.594-7.125 1.25c-2 0-3.5 1.5-3.5 1.5l-4.5 4.5s-1.516 1-2.5 1h-1.5l-1.453-7.25h0.453c1.594 0 3.109-0.359 4.266-1zM5.5 11.25h-0.453l1.453-7.25h1.5c1.016 0 2 0.5 2.5 1l4.5 4.5c0 0 1.5 1.5 3.5 1.5 3.734 0.656 7.125 1.25 7.125 1.25h-15.859c-1.156-0.641-2.672-1-4.266-1z" id="path18375"/>
    </symbol>
  </defs>
  <sodipodi:namedview pagecolor="#383c4a" bordercolor="#ffffff" borderopacity="0.62745098" objecttolerance="4" gridtolerance="10" guidetolerance="4" inkscape:pageopacity="0" inkscape:pageshadow="2" inkscape:window-width="640" inkscape:window-height="480" id="namedview20" showgrid="true" inkscape:zoom="15.622585" inkscape:cx="269.66731" inkscape:cy="-227.19515" inkscape:current-layer="layer12" inkscape:snap-smooth-nodes="false" showguides="true" borderlayer="true" inkscape:showpageshadow="false" inkscape:guide-bbox="true" guidecolor="#bd4fff" guideopacity="0.78431373" inkscape:snap-nodes="true" inkscape:lockguides="false" fit-margin-top="0" fit-margin-left="0" fit-margin-right="0" fit-margin-bottom="0" guidehicolor="#ff0101" guidehiopacity="0.78431373" inkscape:snap-page="true" inkscape:object-nodes="true" inkscape:snap-bbox="true" inkscape:snap-global="true" inkscape:snap-object-midpoints="false" inkscape:snap-bbox-edge-midpoints="false" inkscape:snap-bbox-midpoints="true">
    <inkscape:grid type="xygrid" id="grid4171" empspacing="4" dotted="false" originx="2.7755576e-17" originy="0" spacingx="1" spacingy="1" color="#5a5a5a" opacity="0.23529412" empcolor="#5a5a5a" empopacity="0.47058824" visible="true"/>
    <inkscape:grid type="axonomgrid" id="grid4699" units="mm" empspacing="4" color="#5a5a5a" opacity="0.23529412" empcolor="#5a5a5a" empopacity="0.47058824" gridanglex="45" gridanglez="45" spacingy="3.7795276" visible="false" originx="1.3228346" originy="1.3228346"/>
    <sodipodi:guide position="48,0" orientation="1,0" id="guide4568" inkscape:locked="false" inkscape:label="" inkscape:color="rgb(189,79,255)"/>
    <sodipodi:guide position="111.99996,-3.9999999e-05" orientation="0,1" id="guide4570" inkscape:locked="false" inkscape:label="" inkscape:color="rgb(189,79,255)"/>
    <sodipodi:guide position="0,0" orientation="1,0" id="guide4572" inkscape:locked="false" inkscape:label="" inkscape:color="rgb(189,79,255)"/>
    <sodipodi:guide position="0,48" orientation="0,1" id="guide4574" inkscape:locked="false" inkscape:label="" inkscape:color="rgb(189,79,255)"/>
    <sodipodi:guide position="0,80" orientation="0,1" id="guide4576" inkscape:locked="false" inkscape:label="" inkscape:color="rgb(189,79,255)"/>
    <sodipodi:guide position="-32,48" orientation="1,0" id="guide4578" inkscape:locked="false" inkscape:label="" inkscape:color="rgb(189,79,255)"/>
    <sodipodi:guide position="-32,104" orientation="0,1" id="guide4580" inkscape:locked="false" inkscape:label="" inkscape:color="rgb(189,79,255)"/>
    <sodipodi:guide position="-56,80" orientation="1,0" id="guide4582" inkscape:locked="false" inkscape:label="" inkscape:color="rgb(189,79,255)"/>
    <sodipodi:guide position="48,-64" orientation="0,1" id="guide4584" inkscape:locked="false" inkscape:label="" inkscape:color="rgb(189,79,255)"/>
    <sodipodi:guide position="0,0" orientation="-0.70710678,0.70710678" id="guide4588" inkscape:locked="false" inkscape:label="" inkscape:color="rgb(189,79,255)"/>
    <sodipodi:guide position="-56,80" orientation="-0.70710678,0.70710678" id="guide4573" inkscape:locked="false" inkscape:label="" inkscape:color="rgb(189,79,255)"/>
    <sodipodi:guide position="-32,48" orientation="-0.70710678,0.70710678" id="guide4575" inkscape:locked="false" inkscape:label="" inkscape:color="rgb(189,79,255)"/>
    <sodipodi:guide position="48,-64" orientation="-0.70710678,0.70710678" id="guide4577" inkscape:locked="false" inkscape:label="" inkscape:color="rgb(189,79,255)"/>
    <sodipodi:guide position="47.999962,0" orientation="0.70710678,0.70710678" id="guide4697" inkscape:locked="false" inkscape:label="" inkscape:color="rgb(189,79,255)"/>
    <sodipodi:guide position="207.99995,-288" orientation="0,1" id="guide7833" inkscape:locked="false"/>
    <sodipodi:guide position="335.99994,-288" orientation="1,0" id="guide7835" inkscape:locked="false" inkscape:label="" inkscape:color="rgb(189,79,255)"/>
    <sodipodi:guide position="111.99996,-64" orientation="1,0" id="guide7915" inkscape:locked="false"/>
    <sodipodi:guide position="111.99996,-160" orientation="0,1" id="guide7917" inkscape:locked="false"/>
    <sodipodi:guide position="207.99996,-160" orientation="1,0" id="guide7919" inkscape:locked="false"/>
    <sodipodi:guide position="111.99996,-160" orientation="-0.70710678,0.70710678" id="guide7921" inkscape:locked="false" inkscape:label="" inkscape:color="rgb(189,79,255)"/>
    <sodipodi:guide position="207.99996,-288" orientation="-0.70710678,0.70710678" id="guide7923" inkscape:locked="false" inkscape:label="" inkscape:color="rgb(189,79,255)"/>
    <sodipodi:guide position="-72,104" orientation="1,0" id="guide7824" inkscape:locked="false"/>
    <sodipodi:guide position="-56,120" orientation="0,1" id="guide7826" inkscape:locked="false"/>
    <sodipodi:guide position="-72,104" orientation="-0.70710678,0.70710678" id="guide7828" inkscape:locked="false" inkscape:label="" inkscape:color="rgb(189,79,255)"/>
  </sodipodi:namedview>
  <g inkscape:groupmode="layer" id="layer3" inkscape:label="icon_48" style="display:inline" transform="translate(6.8969723e-7,-4.5367432e-7)">
    <g inkscape:groupmode="layer" id="layer9" inkscape:label="frame" style="display:none">
      <rect inkscape:label="frame_48" y="4.5367432e-07" x="-6.8969723e-07" height="48" width="48" id="frame_48" style="color:#000000;clip-rule:nonzero;display:block;overflow:visible;visibility:visible;opacity:1;isolation:auto;mix-blend-mode:normal;color-interpolation:sRGB;color-interpolation-filters:linearRGB;solid-color:#000000;solid-opacity:1;vector-effect:none;fill:#000000;fill-opacity:1;fill-rule:nonzero;stroke:#ff24f7;stroke-width:0;stroke-linecap:square;stroke-linejoin:miter;stroke-miterlimit:4;stroke-dasharray:none;stroke-dashoffset:0;stroke-opacity:0.99481865;marker:none;marker-start:none;marker-mid:none;marker-end:none;paint-order:normal;color-rendering:auto;image-rendering:auto;shape-rendering:auto;text-rendering:auto;enable-background:accumulate"/>
      <text xml:space="preserve" style="font-size:18.66666603px;line-height:1000%;font-family:sans-serif;letter-spacing:0px;word-spacing:0px;display:inline;opacity:1;fill:#ffffff;fill-opacity:1;stroke:none;stroke-width:0.11166908px;stroke-linecap:butt;stroke-linejoin:miter;stroke-opacity:1" x="12.301435" y="30.794922" id="txt_48" inkscape:label="txt_48">
        <tspan sodipodi:role="line" x="12.301435" y="30.794922" style="font-size:18.66666603px;fill:#ffffff;fill-opacity:1;stroke:none;stroke-width:0.11166908px" id="tspan5049-1">48</tspan>
      </text>
      <text xml:space="preserve" style="font-size:2.66666675px;line-height:1000%;font-family:sans-serif;letter-spacing:0px;word-spacing:0px;display:inline;opacity:1;fill:#ffffff;fill-opacity:0.44791667;stroke:none;stroke-width:0.0588377px;stroke-linecap:butt;stroke-linejoin:miter;stroke-opacity:1" x="25.824219" y="45.962238" id="txt_scalable_32-64" inkscape:label="txt_scalable_32-64">
        <tspan sodipodi:role="line" x="25.824219" y="45.962238" style="font-size:2.66666675px;fill:#ffffff;fill-opacity:0.44791667;stroke:none;stroke-width:0.0588377px" id="tspan5049-1-6">Scalable:32-64</tspan>
      </text>
    </g>
    <g inkscape:groupmode="layer" id="layer10" inkscape:label="icon" style="display:inline">
      <path sodipodi:nodetypes="ccccssccccsc" inkscape:connector-curvature="0" style="display:inline;fill:none;fill-opacity:1;stroke:#000000;stroke-width:2.01738906;stroke-miterlimit:4;stroke-dasharray:none;stroke-opacity:0.11538463" d="M 23.682974,1.0098026 C 15.809526,1.1513259 2.0744026,6.6284268 2.0744026,10.266664 l -0.082899,13.760964 c 0,9.471989 15.5980014,22.745484 21.8572584,22.962572 0.0091,4.4e-4 0.01835,0 0.02765,0 h 0.138164 c 0.0082,0 0.01895,2.65e-4 0.02765,0 6.259251,-0.217088 21.884888,-13.490583 21.884888,-22.962572 L 45.78895,10.266664 c 0,-3.6392122 -13.70853,-9.1181581 -21.580932,-9.2568614 -0.101499,-0.002 -0.232048,0 -0.331592,0 -0.06637,0 -0.127813,-10e-4 -0.193427,0 z" id="path4084-3" inkscape:label="base sombra"/>
      <path sodipodi:nodetypes="ccccssccccsc" inkscape:connector-curvature="0" style="display:inline;opacity:1;vector-effect:none;fill:url(#linearGradient4235-77);fill-opacity:1;stroke:none;stroke-width:0.88587743;stroke-linecap:butt;stroke-linejoin:miter;stroke-miterlimit:4;stroke-dasharray:none;stroke-dashoffset:0;stroke-opacity:0.07853406" d="M 23.682464,0.96781805 C 15.794586,1.1096014 2.034303,6.5967372 2.034303,10.241645 L 1.951249,24.027818 c 0,9.489344 15.626586,22.787159 21.897308,23.004641 0.0092,4.45e-4 0.0184,0 0.0277,0 h 0.138413 c 0.0082,0 0.019,2.7e-4 0.0277,0 6.270736,-0.217482 21.924998,-13.515297 21.924998,-23.004641 L 45.828955,10.241645 c 0,-3.6458828 -13.733645,-9.1348686 -21.620477,-9.27382695 -0.101679,-0.002 -0.232473,0 -0.332197,0 -0.06649,0 -0.128048,-9.9999e-4 -0.193782,0 z" id="path3123-8" inkscape:label="base"/>
      <path inkscape:label="base" id="path39733-56" d="M 23.676039,1.0011877 C 15.788161,1.142971 2.0278781,6.6301068 2.0278781,10.275014 l -0.083054,13.786174 c 0,9.489344 15.6265859,22.787158 21.8973079,23.004641 0.0092,4.45e-4 0.0184,0 0.0277,0 h 0.138413 c 0.0082,0 0.019,2.7e-4 0.0277,0 6.270736,-0.217483 21.924998,-13.515297 21.924998,-23.004641 L 45.82253,10.275014 c 0,-3.6458822 -13.733645,-9.134868 -21.620477,-9.2738263 -0.101679,-0.002 -0.232473,0 -0.332196,0 -0.06649,0 -0.128049,-0.001 -0.193783,0 z" style="display:inline;opacity:1;vector-effect:none;fill:url(#linearGradient39735-3);fill-opacity:1;stroke:none;stroke-width:0.88587743;stroke-linecap:butt;stroke-linejoin:miter;stroke-miterlimit:4;stroke-dasharray:none;stroke-dashoffset:0;stroke-opacity:0.07853406" inkscape:connector-curvature="0" sodipodi:nodetypes="ccccssccccsc"/>
      <path style="display:inline;opacity:1;vector-effect:none;fill:#a3eaf1;fill-opacity:0.18681317;stroke:none;stroke-width:0.88587743;stroke-linecap:butt;stroke-linejoin:miter;stroke-miterlimit:4;stroke-dasharray:none;stroke-dashoffset:0;stroke-opacity:0.07853406" d="M 23.682929,0.96798805 C 15.795051,1.1097714 2.034743,6.5964072 2.034743,10.241315 L 1.951734,24.028263 c 0,3.983049 2.7562077,8.634709 6.4149649,12.710792 A 42.05455,39.524955 0 0 1 45.659232,9.5128081 C 44.07391,5.9079003 31.584926,1.0979565 24.208313,0.96798805 c -0.101679,-0.002 -0.232308,0 -0.332032,0 -0.06649,0 -0.127623,-9.9999e-4 -0.193352,0 z" id="path4259-11" inkscape:connector-curvature="0"/>
      <path style="color:#000000;clip-rule:nonzero;display:inline;overflow:visible;visibility:visible;opacity:1;isolation:auto;mix-blend-mode:normal;color-interpolation:sRGB;color-interpolation-filters:linearRGB;solid-color:#000000;solid-opacity:1;vector-effect:none;fill:none;fill-opacity:0.57142861;fill-rule:nonzero;stroke:#000000;stroke-width:0.74999124;stroke-linecap:square;stroke-linejoin:miter;stroke-miterlimit:3.70000005;stroke-dasharray:none;stroke-dashoffset:0;stroke-opacity:0.2857143;marker:none;marker-start:none;marker-mid:none;marker-end:none;paint-order:markers stroke fill;color-rendering:auto;image-rendering:auto;shape-rendering:auto;text-rendering:auto;enable-background:accumulate" d="m 35.221064,10.933391 c 5.98486,5.98486 0.524394,2.809103 0.524394,11.272974 0,8.463866 5.460466,5.288108 -0.524394,11.272968 -5.984865,5.984865 -2.809107,0.524399 -11.272978,0.524399 -8.463866,0 -5.288108,5.460466 -11.272968,-0.524394 -5.9848644,-5.984865 -0.524399,-2.809107 -0.524399,-11.272973 5e-6,-8.463876 -5.4604654,-5.288114 0.524399,-11.272979 5.98486,-5.9848595 2.809102,-0.524393 11.272968,-0.524393 8.463871,0 5.288113,-5.4604665 11.272978,0.524398 z" id="path4257-59" inkscape:connector-curvature="0"/>
      <path style="color:#000000;clip-rule:nonzero;display:inline;overflow:visible;visibility:visible;opacity:1;isolation:auto;mix-blend-mode:normal;color-interpolation:sRGB;color-interpolation-filters:linearRGB;solid-color:#000000;solid-opacity:1;vector-effect:none;fill:#d5d5d5;fill-opacity:1;fill-rule:nonzero;stroke:none;stroke-width:0.99998832;stroke-linecap:square;stroke-linejoin:miter;stroke-miterlimit:3.70000005;stroke-dasharray:none;stroke-dashoffset:0;stroke-opacity:0.98901098;marker:none;marker-start:none;marker-mid:none;marker-end:none;paint-order:markers stroke fill;color-rendering:auto;image-rendering:auto;shape-rendering:auto;text-rendering:auto;enable-background:accumulate" d="m 35.221064,10.933391 c 5.98486,5.98486 0.524394,2.809103 0.524394,11.272974 0,8.463866 5.460466,5.288108 -0.524394,11.272968 -5.984865,5.984865 -2.809107,0.524399 -11.272978,0.524399 -8.463866,0 -5.288108,5.460466 -11.272968,-0.524394 -5.9848644,-5.984865 -0.524399,-2.809107 -0.524399,-11.272973 5e-6,-8.463876 -5.4604654,-5.288114 0.524399,-11.272979 5.98486,-5.9848595 2.809102,-0.524393 11.272968,-0.524393 8.463871,0 5.288113,-5.4604665 11.272978,0.524398 z" id="path4255-84" inkscape:connector-curvature="0"/>
      <path style="display:inline;fill:#000000;fill-opacity:0.35714291;stroke:none;stroke-width:3.90401578;stroke-miterlimit:4;stroke-dasharray:none;stroke-opacity:1" d="m 23.959291,10.66076 c 6.844699,0 12.35505,5.51035 12.35505,12.35505 0,6.844695 -5.510351,12.355051 -12.35505,12.355051 -6.8447,0 -12.355051,-5.510356 -12.355051,-12.355051 0,-6.8447 5.510351,-12.35505 12.355051,-12.35505 z" id="rect4151-8" inkscape:connector-curvature="0"/>
      <path style="display:inline;fill:url(#linearGradient4147-6);fill-opacity:1;stroke:none;stroke-width:3.90401578;stroke-miterlimit:4;stroke-dasharray:none;stroke-opacity:1" d="m 23.959291,10.129091 c 6.844699,0 12.35505,5.51035 12.35505,12.355045 0,6.8447 -5.510351,12.355051 -12.35505,12.355051 -6.8447,0 -12.355051,-5.510351 -12.355051,-12.355051 0,-6.844695 5.510351,-12.355045 12.355051,-12.355045 z" id="rect4086-10" inkscape:connector-curvature="0"/>
      <path style="color:#000000;clip-rule:nonzero;display:inline;overflow:visible;visibility:visible;opacity:1;isolation:auto;mix-blend-mode:normal;color-interpolation:sRGB;color-interpolation-filters:linearRGB;solid-color:#000000;solid-opacity:1;fill:url(#linearGradient4720-48);fill-opacity:1;fill-rule:nonzero;stroke:none;stroke-width:0.09484684;stroke-linecap:round;stroke-linejoin:miter;stroke-miterlimit:4;stroke-dasharray:none;stroke-dashoffset:0;stroke-opacity:1;marker:none;marker-start:none;marker-mid:none;marker-end:none;paint-order:normal;color-rendering:auto;image-rendering:auto;shape-rendering:auto;text-rendering:auto;enable-background:accumulate" d="m 28.871973,22.499831 a 4.9126828,4.9126828 0 0 1 -4.912682,4.912683 4.9126828,4.9126828 0 0 1 -4.912683,-4.912683 4.9126828,4.9126828 0 0 1 4.912683,-4.912682 4.9126828,4.9126828 0 0 1 4.912682,4.912682 z" id="circle4718-3" inkscape:connector-curvature="0"/>
      <path style="color:#000000;clip-rule:nonzero;display:inline;overflow:visible;visibility:visible;opacity:1;isolation:auto;mix-blend-mode:normal;color-interpolation:sRGB;color-interpolation-filters:linearRGB;solid-color:#000000;solid-opacity:1;fill:#494949;fill-opacity:1;fill-rule:nonzero;stroke:none;stroke-width:0.60249299;stroke-linecap:round;stroke-linejoin:miter;stroke-miterlimit:4;stroke-dasharray:none;stroke-dashoffset:0;stroke-opacity:0.40659341;marker:none;marker-start:none;marker-mid:none;marker-end:none;paint-order:normal;color-rendering:auto;image-rendering:auto;shape-rendering:auto;text-rendering:auto;enable-background:accumulate" d="m 22,15 h 4 v 9 l -1,2 1,1 v 2 h -4 v -9 l 1,-2 -1,-1 z" id="rect5850-0" inkscape:connector-curvature="0" sodipodi:nodetypes="ccccccccccc" inkscape:label="llave ojo"/>
      <path inkscape:connector-curvature="0" id="path5815-44" d="M 23.99941,0.96738806 V 47.032599 h 0.0153 c 0.0082,0 0.01805,2.65e-4 0.02675,0 6.270736,-0.217482 21.925453,-13.515562 21.925453,-23.004901 L 45.829355,10.241185 c 0,-3.6458828 -13.73484,-9.1348386 -21.621667,-9.27379694 -0.06406,-9.9999e-4 -0.136124,-3.7e-4 -0.208253,0 z" style="display:inline;opacity:0.43859648;fill:url(#linearGradient5819-3);fill-opacity:1;stroke:none;stroke-width:0.88587743;stroke-opacity:0.07853406" inkscape:label="base derecho"/>
      <path id="path4706-47" d="M 23.688729,1.488832 C 15.979334,1.6274053 2.5304022,6.9903826 2.5304022,10.552816 l -0.081169,13.474237 c 0,9.274627 15.2729948,22.271555 21.4018338,22.484112 0.009,4.35e-4 0.01795,0 0.02705,0 h 0.135284 c 0.0081,0 0.01855,2.6e-4 0.02705,0 C 30.169283,46.298608 45.469339,33.30168 45.469339,24.027053 L 45.334055,10.552816 c 0,-3.5633834 -13.422893,-8.9281706 -21.131267,-9.063984 -0.09938,-0.002 -0.227213,0 -0.324677,0 -0.06499,0 -0.125153,-10e-4 -0.189397,0 z" style="display:inline;fill:none;fill-opacity:1;stroke:url(#linearGradient10167-8);stroke-width:1.97535419;stroke-miterlimit:4;stroke-dasharray:none;stroke-opacity:1" inkscape:connector-curvature="0" sodipodi:nodetypes="ccccssccccsc" inkscape:label="base borde blanco"/>
      <path style="color:#000000;font-style:normal;font-variant:normal;font-weight:normal;font-stretch:normal;font-size:medium;line-height:normal;font-family:sans-serif;font-variant-ligatures:normal;font-variant-position:normal;font-variant-caps:normal;font-variant-numeric:normal;font-variant-alternates:normal;font-feature-settings:normal;text-indent:0;text-align:start;text-decoration:none;text-decoration-line:none;text-decoration-style:solid;text-decoration-color:#000000;letter-spacing:normal;word-spacing:normal;text-transform:none;writing-mode:lr-tb;direction:ltr;text-orientation:mixed;dominant-baseline:auto;baseline-shift:baseline;text-anchor:start;white-space:normal;shape-padding:0;clip-rule:nonzero;display:inline;overflow:visible;visibility:visible;opacity:1;isolation:auto;mix-blend-mode:normal;color-interpolation:sRGB;color-interpolation-filters:linearRGB;solid-color:#000000;solid-opacity:1;vector-effect:none;fill:#060606;fill-opacity:0.45054985;fill-rule:nonzero;stroke:none;stroke-width:1.97535419;stroke-linecap:butt;stroke-linejoin:miter;stroke-miterlimit:4;stroke-dasharray:none;stroke-dashoffset:0;stroke-opacity:1;color-rendering:auto;image-rendering:auto;shape-rendering:auto;text-rendering:auto;enable-background:accumulate" d="m 23.676089,1.0011877 0.0127,1.4755677 -0.0098,-1.4755677 c -0.001,0 -0.002,-1e-5 -0.003,0 z m 0.02635,1.4755677 c -0.0057,1.05e-4 -0.01185,10e-4 -0.0176,10e-4 l 0.004,0.4990191 -0.005,-0.4990191 C 20.048586,2.5480396 14.816282,3.8901389 10.598057,5.6486183 8.4847576,6.529603 6.6163094,7.5171114 5.3334694,8.4513205 4.0506344,9.3855296 3.5180607,10.283699 3.5180607,10.552861 v 0.003 l -0.081054,13.471522 c 0,0.0166 0.003,0.03415 0.003,0.05078 l 0.078124,-13.022308 v -0.003 c 0,-0.269162 0.5325737,-1.1673313 1.8154087,-2.1015404 1.28284,-0.934209 3.1512882,-1.9217175 5.2645876,-2.8027022 4.225225,-1.7613994 9.468374,-3.1056686 13.104337,-3.1718379 9.99e-4,-1.5e-5 0.003,1.5e-5 0.004,0 0.04575,-4.999e-4 0.09941,0 0.171873,0 0.109289,0 0.234733,-0.0015 0.307617,0 3.635257,0.064049 8.872866,1.4078436 13.092622,3.169888 2.109875,0.8810197 3.975438,1.8693681 5.255793,2.8036772 1.28036,0.934304 1.812479,1.8317433 1.812479,2.1025153 v 0.005 l 0.130858,13.049652 c 2.95e-4,-0.02595 0.004,-0.05326 0.004,-0.0791 L 44.346982,10.557841 v -0.005 c 0,-0.270767 -0.532124,-1.1682064 -1.812479,-2.1025105 C 41.254148,7.5160414 39.38858,6.527688 37.278705,5.6466683 33.058954,3.8846289 27.821345,2.5408346 24.186088,2.4767804 c -0.07289,-0.0015 -0.198328,0 -0.307617,0 -0.07246,0 -0.126133,-5e-4 -0.171873,0 -0.001,1.5e-5 -0.003,-1e-5 -0.004,0 z" id="path4098-6" inkscape:connector-curvature="0" sodipodi:nodetypes="cccccccccsssccccsssccscsssccccscscsccc" inkscape:label="base borde blanco sombra"/>
      <path style="display:inline;fill:#ffffff;fill-opacity:0.75824178;stroke:none;stroke-width:3.90401578;stroke-miterlimit:4;stroke-dasharray:none;stroke-opacity:1" d="m 23.959291,10.129011 c -6.8447,0 -12.355326,5.51063 -12.355326,12.355325 0,0.08386 0.0052,0.166548 0.0069,0.249997 0.132748,-6.727921 5.58765,-12.105328 12.348491,-12.105328 6.76084,0 12.215742,5.377407 12.34849,12.105328 0.0015,-0.08345 0.0069,-0.166138 0.0069,-0.249997 0,-6.844695 -5.510626,-12.355325 -12.355326,-12.355325 z" id="path1323-3" inkscape:connector-curvature="0"/>
    </g>
  </g>
</svg>