<?xml version="1.0" encoding="UTF-8" standalone="yes"?>
<svg xmlns:dc="http://purl.org/dc/elements/1.1/" xmlns:cc="http://creativecommons.org/ns#" xmlns:rdf="http://www.w3.org/1999/02/22-rdf-syntax-ns#" xmlns:svg="http://www.w3.org/2000/svg" xmlns="http://www.w3.org/2000/svg" xmlns:xlink="http://www.w3.org/1999/xlink" xmlns:sodipodi="http://sodipodi.sourceforge.net/DTD/sodipodi-0.dtd" xmlns:inkscape="http://www.inkscape.org/namespaces/inkscape" height="48" viewBox="0 0 48 48" width="48" id="svg2" version="1.1" inkscape:version="0.92.2 5c3e80d, 2017-08-06" sodipodi:docname="org.gnome.ChromeGnomeShell.svg" enable-background="new" folder="48">
  <title id="title4675">Template icons dark</title>
  <metadata id="metadata24">
    <rdf:RDF>
      <cc:Work rdf:about="">
        <dc:format>image/svg+xml</dc:format>
        <dc:type rdf:resource="http://purl.org/dc/dcmitype/StillImage"/>
        <dc:title>Template icons dark</dc:title>
        <dc:date>17/05/13</dc:date>
        <dc:creator>
          <cc:Agent>
            <dc:title>wfpaisa</dc:title>
          </cc:Agent>
        </dc:creator>
        <dc:rights>
          <cc:Agent>
            <dc:title>License: GPLv3</dc:title>
          </cc:Agent>
        </dc:rights>
        <dc:language>es-en</dc:language>
        <dc:subject>
          <rdf:Bag>
            <rdf:li>plane-icon-theme</rdf:li>
          </rdf:Bag>
        </dc:subject>
        <dc:description>Template for create set icons</dc:description>
        <cc:license rdf:resource="https://www.gnu.org/licenses/gpl-3.0.en.html"/>
      </cc:Work>
    </rdf:RDF>
  </metadata>
  <defs id="defs22">
    <linearGradient inkscape:collect="always" id="linearGradient24388">
      <stop style="stop-color:#e9e9e9;stop-opacity:1" offset="0" id="stop24384"/>
      <stop style="stop-color:#ffffff;stop-opacity:1" offset="1" id="stop24386"/>
    </linearGradient>
    <linearGradient inkscape:collect="always" xlink:href="#linearGradient24388" id="linearGradient24390" x1="168" y1="201.74074" x2="168" y2="114.33071" gradientUnits="userSpaceOnUse"/>
    <linearGradient gradientTransform="matrix(0.17390774,0,0,0.17390774,-91.825276,-91.825242)" inkscape:collect="always" xlink:href="#linearGradient24388" id="linearGradient24390-3" x1="168" y1="201.74074" x2="168" y2="114.33071" gradientUnits="userSpaceOnUse"/>
    <linearGradient gradientTransform="matrix(0.26087493,0,0,0.26087493,-85.740023,-85.739992)" inkscape:collect="always" xlink:href="#linearGradient24388" id="linearGradient24390-35" x1="168" y1="201.74074" x2="168" y2="114.33071" gradientUnits="userSpaceOnUse"/>
    <linearGradient gradientTransform="matrix(0.34044067,0,0,0.34044067,-70.470159,-70.471989)" inkscape:collect="always" xlink:href="#linearGradient24388" id="linearGradient24390-1" x1="168" y1="201.74074" x2="168" y2="114.33071" gradientUnits="userSpaceOnUse"/>
    <linearGradient gradientTransform="matrix(0.51065451,0,0,0.51065451,-57.704463,-57.703546)" inkscape:collect="always" xlink:href="#linearGradient24388" id="linearGradient24390-6" x1="168" y1="201.74074" x2="168" y2="114.33071" gradientUnits="userSpaceOnUse"/>
    <linearGradient gradientTransform="matrix(0.68086833,0,0,0.68086833,-28.938763,-28.939647)" inkscape:collect="always" xlink:href="#linearGradient24388" id="linearGradient24390-18" x1="168" y1="201.74074" x2="168" y2="114.33071" gradientUnits="userSpaceOnUse"/>
    <linearGradient gradientTransform="matrix(1.2766363,0,0,1.2766363,67.738053,67.738821)" inkscape:collect="always" xlink:href="#linearGradient24388" id="linearGradient24390-37" x1="168" y1="201.74074" x2="168" y2="114.33071" gradientUnits="userSpaceOnUse"/>
  </defs>
  <sodipodi:namedview pagecolor="#383c4a" bordercolor="#ffffff" borderopacity="0.62745098" objecttolerance="4" gridtolerance="10" guidetolerance="4" inkscape:pageopacity="0" inkscape:pageshadow="2" inkscape:window-width="640" inkscape:window-height="480" id="namedview20" showgrid="true" inkscape:zoom="5.8456083" inkscape:cx="271.48334" inkscape:cy="-238.29924" inkscape:current-layer="layer12" inkscape:snap-smooth-nodes="false" showguides="true" borderlayer="true" inkscape:showpageshadow="false" inkscape:guide-bbox="true" guidecolor="#bd4fff" guideopacity="0.78431373" inkscape:snap-nodes="true" inkscape:lockguides="false" fit-margin-top="0" fit-margin-left="0" fit-margin-right="0" fit-margin-bottom="0" guidehicolor="#ff0101" guidehiopacity="0.78431373" inkscape:snap-page="true" inkscape:object-nodes="true" inkscape:snap-bbox="true" inkscape:snap-global="true" inkscape:snap-object-midpoints="false" inkscape:snap-bbox-edge-midpoints="false">
    <inkscape:grid type="xygrid" id="grid4171" empspacing="4" dotted="false" originx="2.7755576e-17" originy="0" spacingx="1" spacingy="1" color="#5a5a5a" opacity="0.23529412" empcolor="#5a5a5a" empopacity="0.47058824" visible="true"/>
    <inkscape:grid type="axonomgrid" id="grid4699" units="mm" empspacing="4" color="#5a5a5a" opacity="0.23529412" empcolor="#5a5a5a" empopacity="0.47058824" gridanglex="45" gridanglez="45" spacingy="3.7795276" visible="false" originx="1.3228346" originy="1.3228346"/>
    <sodipodi:guide position="48,0" orientation="1,0" id="guide4568" inkscape:locked="false" inkscape:label="" inkscape:color="rgb(189,79,255)"/>
    <sodipodi:guide position="111.99996,-3.9999999e-05" orientation="0,1" id="guide4570" inkscape:locked="false" inkscape:label="" inkscape:color="rgb(189,79,255)"/>
    <sodipodi:guide position="0,0" orientation="1,0" id="guide4572" inkscape:locked="false" inkscape:label="" inkscape:color="rgb(189,79,255)"/>
    <sodipodi:guide position="0,48" orientation="0,1" id="guide4574" inkscape:locked="false" inkscape:label="" inkscape:color="rgb(189,79,255)"/>
    <sodipodi:guide position="0,80" orientation="0,1" id="guide4576" inkscape:locked="false" inkscape:label="" inkscape:color="rgb(189,79,255)"/>
    <sodipodi:guide position="-32,48" orientation="1,0" id="guide4578" inkscape:locked="false" inkscape:label="" inkscape:color="rgb(189,79,255)"/>
    <sodipodi:guide position="-32,104" orientation="0,1" id="guide4580" inkscape:locked="false" inkscape:label="" inkscape:color="rgb(189,79,255)"/>
    <sodipodi:guide position="-56,80" orientation="1,0" id="guide4582" inkscape:locked="false" inkscape:label="" inkscape:color="rgb(189,79,255)"/>
    <sodipodi:guide position="48,-64" orientation="0,1" id="guide4584" inkscape:locked="false" inkscape:label="" inkscape:color="rgb(189,79,255)"/>
    <sodipodi:guide position="0,0" orientation="-0.70710678,0.70710678" id="guide4588" inkscape:locked="false" inkscape:label="" inkscape:color="rgb(189,79,255)"/>
    <sodipodi:guide position="-56,80" orientation="-0.70710678,0.70710678" id="guide4573" inkscape:locked="false" inkscape:label="" inkscape:color="rgb(189,79,255)"/>
    <sodipodi:guide position="-32,48" orientation="-0.70710678,0.70710678" id="guide4575" inkscape:locked="false" inkscape:label="" inkscape:color="rgb(189,79,255)"/>
    <sodipodi:guide position="48,-64" orientation="-0.70710678,0.70710678" id="guide4577" inkscape:locked="false" inkscape:label="" inkscape:color="rgb(189,79,255)"/>
    <sodipodi:guide position="47.999962,0" orientation="0.70710678,0.70710678" id="guide4697" inkscape:locked="false" inkscape:label="" inkscape:color="rgb(189,79,255)"/>
    <sodipodi:guide position="207.99995,-288" orientation="0,1" id="guide7833" inkscape:locked="false"/>
    <sodipodi:guide position="335.99994,-288" orientation="1,0" id="guide7835" inkscape:locked="false" inkscape:label="" inkscape:color="rgb(189,79,255)"/>
    <sodipodi:guide position="111.99996,-64" orientation="1,0" id="guide7915" inkscape:locked="false"/>
    <sodipodi:guide position="111.99996,-160" orientation="0,1" id="guide7917" inkscape:locked="false"/>
    <sodipodi:guide position="207.99996,-160" orientation="1,0" id="guide7919" inkscape:locked="false"/>
    <sodipodi:guide position="111.99996,-160" orientation="-0.70710678,0.70710678" id="guide7921" inkscape:locked="false" inkscape:label="" inkscape:color="rgb(189,79,255)"/>
    <sodipodi:guide position="207.99996,-288" orientation="-0.70710678,0.70710678" id="guide7923" inkscape:locked="false" inkscape:label="" inkscape:color="rgb(189,79,255)"/>
    <sodipodi:guide position="-72,104" orientation="1,0" id="guide7824" inkscape:locked="false"/>
    <sodipodi:guide position="-56,120" orientation="0,1" id="guide7826" inkscape:locked="false"/>
    <sodipodi:guide position="-72,104" orientation="-0.70710678,0.70710678" id="guide7828" inkscape:locked="false" inkscape:label="" inkscape:color="rgb(189,79,255)"/>
  </sodipodi:namedview>
  <g inkscape:groupmode="layer" id="layer3" inkscape:label="icon_48" style="display:inline" transform="translate(6.8969723e-7,-4.5367432e-7)">
    <g inkscape:groupmode="layer" id="layer9" inkscape:label="frame" style="display:none">
      <rect inkscape:label="frame_48" y="4.5367432e-07" x="-6.8969723e-07" height="48" width="48" id="frame_48" style="color:#000000;clip-rule:nonzero;display:block;overflow:visible;visibility:visible;opacity:1;isolation:auto;mix-blend-mode:normal;color-interpolation:sRGB;color-interpolation-filters:linearRGB;solid-color:#000000;solid-opacity:1;vector-effect:none;fill:#000000;fill-opacity:1;fill-rule:nonzero;stroke:#ff24f7;stroke-width:0;stroke-linecap:square;stroke-linejoin:miter;stroke-miterlimit:4;stroke-dasharray:none;stroke-dashoffset:0;stroke-opacity:0.99481865;marker:none;marker-start:none;marker-mid:none;marker-end:none;paint-order:normal;color-rendering:auto;image-rendering:auto;shape-rendering:auto;text-rendering:auto;enable-background:accumulate"/>
      <text xml:space="preserve" style="font-size:18.66666603px;line-height:1000%;font-family:sans-serif;letter-spacing:0px;word-spacing:0px;display:inline;opacity:1;fill:#ffffff;fill-opacity:1;stroke:none;stroke-width:0.11166908px;stroke-linecap:butt;stroke-linejoin:miter;stroke-opacity:1" x="12.301435" y="30.794922" id="txt_48" inkscape:label="txt_48">
        <tspan sodipodi:role="line" x="12.301435" y="30.794922" style="font-size:18.66666603px;fill:#ffffff;fill-opacity:1;stroke:none;stroke-width:0.11166908px" id="tspan5049-1">48</tspan>
      </text>
      <text xml:space="preserve" style="font-size:2.66666675px;line-height:1000%;font-family:sans-serif;letter-spacing:0px;word-spacing:0px;display:inline;opacity:1;fill:#ffffff;fill-opacity:0.44791667;stroke:none;stroke-width:0.0588377px;stroke-linecap:butt;stroke-linejoin:miter;stroke-opacity:1" x="25.824219" y="45.962238" id="txt_scalable_32-64" inkscape:label="txt_scalable_32-64">
        <tspan sodipodi:role="line" x="25.824219" y="45.962238" style="font-size:2.66666675px;fill:#ffffff;fill-opacity:0.44791667;stroke:none;stroke-width:0.0588377px" id="tspan5049-1-6">Scalable:32-64</tspan>
      </text>
    </g>
    <g inkscape:groupmode="layer" id="layer10" inkscape:label="icon" style="display:inline">
      <path inkscape:connector-curvature="0" id="path24382-2" d="M 21.8283,46.954324 C 18.541575,45.862468 16.212408,44.379497 13.591208,41.70979 10.660807,38.725178 8.9353874,35.602061 8.2089609,31.967625 7.2040541,26.93991 9.8711668,22.331141 15.496185,19.375273 c 6.78814,-3.567059 16.068719,-3.904193 19.490252,-0.708027 1.048767,0.97969 1.280415,1.542978 1.280415,3.113501 0,3.00009 -1.656461,4.857902 -8.132397,9.121005 -7.822206,5.149353 -8.639427,6.410246 -5.918256,9.131416 1.112808,1.112808 1.831345,1.465405 2.98622,1.465405 1.494084,0 2.840537,-0.861392 2.911324,-1.862546 0.207407,-2.933475 0.648684,-3.475729 3.42881,-4.213451 2.333226,-0.619148 4.983217,-0.22289 5.546377,0.829364 0.643378,1.202178 -0.899723,5.061786 -2.814376,7.039316 -3.571696,3.688994 -8.235948,5.061736 -12.446254,3.663068 z M 6.7255453,18.508488 c -2.3532697,-2.353264 -2.5363751,-5.42911 -0.381653,-6.410864 0.9489698,-0.432376 1.2271284,-0.352801 2.2131001,0.633171 1.8718036,1.871814 1.8939406,7.217698 0.029873,7.217698 -0.2317197,0 -1.0693259,-0.648 -1.8613306,-1.440005 z M 13.2915,14.006446 c -0.870426,-0.961813 -2.022743,-3.674073 -2.022743,-4.7610259 0,-1.3815757 1.655746,-3.0889797 2.995519,-3.0889797 1.608986,0 2.264534,0.8923687 2.50665,3.4120657 0.276795,2.8806839 -0.529926,5.2079709 -1.805276,5.2079709 -0.537499,0 -1.290858,-0.34651 -1.67415,-0.770031 z m 18.139352,-0.11933 c -2.044104,-1.191382 -1.754614,-6.668979 0.518294,-9.8066292 3.189211,-4.40258739 11.213728,-4.86493909 11.213728,-0.6461005 0,2.8599257 -4.132232,8.3982237 -7.472627,10.0152677 -2.030602,0.982999 -3.12971,1.0959 -4.259395,0.437462 z M 21.176715,11.220739 C 18.76182,7.2616703 20.242146,2.2774525 23.83291,2.2774525 c 1.690645,0 2.520903,1.0535824 2.520903,3.1989952 0,3.3189684 -1.865462,7.1450523 -3.483691,7.1450523 -0.483962,0 -1.200553,-0.592763 -1.693407,-1.400761 z" style="display:inline;fill:none;fill-opacity:1;stroke:#000000;stroke-width:1.02130902;stroke-miterlimit:4;stroke-dasharray:none;stroke-opacity:0.17582421"/>
      <path style="display:inline;fill:url(#linearGradient24390-6);fill-opacity:1;stroke-width:0.4310016" d="M 21.8283,46.954324 C 18.541575,45.862468 16.212408,44.379497 13.591208,41.70979 10.660807,38.725178 8.9353874,35.602061 8.2089609,31.967625 7.2040541,26.93991 9.8711668,22.331141 15.496185,19.375273 c 6.78814,-3.567059 16.068719,-3.904193 19.490252,-0.708027 1.048767,0.97969 1.280415,1.542978 1.280415,3.113501 0,3.00009 -1.656461,4.857902 -8.132397,9.121005 -7.822206,5.149353 -8.639427,6.410246 -5.918256,9.131416 1.112808,1.112808 1.831345,1.465405 2.98622,1.465405 1.494084,0 2.840537,-0.861392 2.911324,-1.862546 0.207407,-2.933475 0.648684,-3.475729 3.42881,-4.213451 2.333226,-0.619148 4.983217,-0.22289 5.546377,0.829364 0.643378,1.202178 -0.899723,5.061786 -2.814376,7.039316 -3.571696,3.688994 -8.235948,5.061736 -12.446254,3.663068 z M 6.7255453,18.508488 c -2.3532697,-2.353264 -2.5363751,-5.42911 -0.381653,-6.410864 0.9489698,-0.432376 1.2271284,-0.352801 2.2131001,0.633171 1.8718036,1.871814 1.8939406,7.217698 0.029873,7.217698 -0.2317197,0 -1.0693259,-0.648 -1.8613306,-1.440005 z M 13.2915,14.006446 c -0.870426,-0.961813 -2.022743,-3.674073 -2.022743,-4.7610259 0,-1.3815757 1.655746,-3.0889797 2.995519,-3.0889797 1.608986,0 2.264534,0.8923687 2.50665,3.4120657 0.276795,2.8806839 -0.529926,5.2079709 -1.805276,5.2079709 -0.537499,0 -1.290858,-0.34651 -1.67415,-0.770031 z m 18.139352,-0.11933 c -2.044104,-1.191382 -1.754614,-6.668979 0.518294,-9.8066292 3.189211,-4.40258739 11.213728,-4.86493909 11.213728,-0.6461005 0,2.8599257 -4.132232,8.3982237 -7.472627,10.0152677 -2.030602,0.982999 -3.12971,1.0959 -4.259395,0.437462 z M 21.176715,11.220739 C 18.76182,7.2616703 20.242146,2.2774525 23.83291,2.2774525 c 1.690645,0 2.520903,1.0535824 2.520903,3.1989952 0,3.3189684 -1.865462,7.1450523 -3.483691,7.1450523 -0.483962,0 -1.200553,-0.592763 -1.693407,-1.400761 z" id="path24380-6" inkscape:connector-curvature="0"/>
    </g>
  </g>
</svg>