<?xml version="1.0" encoding="UTF-8" standalone="yes"?>
<svg xmlns:dc="http://purl.org/dc/elements/1.1/" xmlns:cc="http://creativecommons.org/ns#" xmlns:rdf="http://www.w3.org/1999/02/22-rdf-syntax-ns#" xmlns:svg="http://www.w3.org/2000/svg" xmlns="http://www.w3.org/2000/svg" xmlns:xlink="http://www.w3.org/1999/xlink" xmlns:sodipodi="http://sodipodi.sourceforge.net/DTD/sodipodi-0.dtd" xmlns:inkscape="http://www.inkscape.org/namespaces/inkscape" height="48" viewBox="0 0 48 48" width="48" id="svg2" version="1.1" inkscape:version="0.92.2 5c3e80d, 2017-08-06" sodipodi:docname="preferences-desktop.svg" enable-background="new" folder="48">
  <title id="title4675">Template icons dark</title>
  <metadata id="metadata24">
    <rdf:RDF>
      <cc:Work rdf:about="">
        <dc:format>image/svg+xml</dc:format>
        <dc:type rdf:resource="http://purl.org/dc/dcmitype/StillImage"/>
        <dc:title>Template icons dark</dc:title>
        <dc:date>17/05/13</dc:date>
        <dc:creator>
          <cc:Agent>
            <dc:title>wfpaisa</dc:title>
          </cc:Agent>
        </dc:creator>
        <dc:rights>
          <cc:Agent>
            <dc:title>License: GPLv3</dc:title>
          </cc:Agent>
        </dc:rights>
        <dc:language>es-en</dc:language>
        <dc:subject>
          <rdf:Bag>
            <rdf:li>plane-icon-theme</rdf:li>
          </rdf:Bag>
        </dc:subject>
        <dc:description>Template for create set icons</dc:description>
        <cc:license rdf:resource="https://www.gnu.org/licenses/gpl-3.0.en.html"/>
      </cc:Work>
    </rdf:RDF>
  </metadata>
  <defs id="defs22">
    <linearGradient inkscape:collect="always" id="linearGradient1388">
      <stop style="stop-color:#cfdde2;stop-opacity:1" offset="0" id="stop1384"/>
      <stop style="stop-color:#90a1b1;stop-opacity:1" offset="1" id="stop1386"/>
    </linearGradient>
    <linearGradient inkscape:collect="always" id="linearGradient1374">
      <stop style="stop-color:#ffffff;stop-opacity:0" offset="0" id="stop1370"/>
      <stop id="stop1378" offset="0.48049781" style="stop-color:#ffffff;stop-opacity:1"/>
      <stop style="stop-color:#f5f6f6;stop-opacity:0" offset="1" id="stop1372"/>
    </linearGradient>
    <linearGradient inkscape:collect="always" id="linearGradient1319">
      <stop style="stop-color:#eaf2f7;stop-opacity:1" offset="0" id="stop1315"/>
      <stop style="stop-color:#99b4c0;stop-opacity:1" offset="1" id="stop1317"/>
    </linearGradient>
    <linearGradient id="linearGradient1199" inkscape:collect="always">
      <stop id="stop1195" offset="0" style="stop-color:#c1dae3;stop-opacity:1"/>
      <stop id="stop1197" offset="1" style="stop-color:#8a98b4;stop-opacity:1"/>
    </linearGradient>
    <linearGradient inkscape:collect="always" id="linearGradient7891">
      <stop style="stop-color:#d2d2d2;stop-opacity:1" offset="0" id="stop7887"/>
      <stop style="stop-color:#939393;stop-opacity:1" offset="1" id="stop7889"/>
    </linearGradient>
    <linearGradient inkscape:collect="always" id="linearGradient7758">
      <stop style="stop-color:#671e1e;stop-opacity:1" offset="0" id="stop7754"/>
      <stop style="stop-color:#d04044;stop-opacity:1" offset="1" id="stop7756"/>
    </linearGradient>
    <linearGradient inkscape:collect="always" xlink:href="#linearGradient5419" id="linearGradient5425" x1="10.429825" y1="43.068272" x2="38.890873" y2="13.193013" gradientUnits="userSpaceOnUse" gradientTransform="matrix(0.9649266,0,0,0.9649266,-2.12316,-5.210928)"/>
    <linearGradient id="linearGradient5419">
      <stop style="stop-color:#0c708e;stop-opacity:1;" offset="0" id="stop5421"/>
      <stop style="stop-color:#4dc3a3;stop-opacity:1;" offset="1" id="stop5423"/>
    </linearGradient>
    <linearGradient inkscape:collect="always" xlink:href="#linearGradient1388" id="linearGradient7893" x1="161.70172" y1="118.89846" x2="161.70172" y2="197.93216" gradientUnits="userSpaceOnUse"/>
    <linearGradient inkscape:collect="always" xlink:href="#linearGradient7758" id="linearGradient7760-3" x1="162.58794" y1="185.95032" x2="162.58794" y2="134.43561" gradientUnits="userSpaceOnUse" gradientTransform="matrix(0.93996715,0,0,0.93996715,-124.0425,-124.16093)"/>
    <linearGradient inkscape:collect="always" xlink:href="#linearGradient7758" id="linearGradient1166" gradientUnits="userSpaceOnUse" gradientTransform="matrix(0.93996715,0,0,0.93996715,9.6851028,9.9555173)" x1="162.58794" y1="185.95032" x2="162.58794" y2="134.43561"/>
    <linearGradient gradientTransform="translate(-115,-115.12599)" inkscape:collect="always" xlink:href="#linearGradient7891" id="linearGradient7893-5" x1="161.70172" y1="118.89846" x2="161.70172" y2="197.93216" gradientUnits="userSpaceOnUse"/>
    <linearGradient inkscape:collect="always" xlink:href="#linearGradient1319" id="linearGradient1321" x1="168.35246" y1="125.66496" x2="168.35246" y2="190.8166" gradientUnits="userSpaceOnUse"/>
    <linearGradient inkscape:collect="always" xlink:href="#linearGradient5419" id="linearGradient5425-62" x1="10.429825" y1="43.068272" x2="38.890873" y2="13.193013" gradientUnits="userSpaceOnUse" gradientTransform="matrix(0.9649266,0,0,0.9649266,-135.77092,-138.98468)"/>
    <linearGradient inkscape:collect="always" xlink:href="#linearGradient1199" id="linearGradient1348" gradientUnits="userSpaceOnUse" x1="161.70172" y1="118.89846" x2="161.70172" y2="197.93216"/>
    <linearGradient inkscape:collect="always" xlink:href="#linearGradient1374" id="linearGradient1376" x1="146.80354" y1="139.47923" x2="174.4657" y2="139.47923" gradientUnits="userSpaceOnUse" gradientTransform="matrix(0.43047969,0,0,0.70272293,90.79219,41.511806)"/>
    <linearGradient inkscape:collect="always" xlink:href="#linearGradient1374" id="linearGradient1376-7" x1="146.80354" y1="139.47923" x2="174.4657" y2="139.47923" gradientUnits="userSpaceOnUse" gradientTransform="matrix(0.29664256,0,0,0.48424473,32.30908,-1.6499335)"/>
    <linearGradient inkscape:collect="always" xlink:href="#linearGradient5419" id="linearGradient5425-9" x1="10.429825" y1="43.068272" x2="38.890873" y2="13.193013" gradientUnits="userSpaceOnUse" gradientTransform="matrix(0.66492867,0,0,0.66492867,-31.718672,-33.846462)"/>
    <linearGradient gradientTransform="matrix(0.68909768,0,0,0.68909768,-30.255607,-30.255622)" inkscape:collect="always" xlink:href="#linearGradient1319" id="linearGradient1321-8" x1="168.35246" y1="125.66496" x2="168.35246" y2="190.8166" gradientUnits="userSpaceOnUse"/>
    <linearGradient gradientTransform="matrix(0.68909768,0,0,0.68909768,-30.255607,-30.255622)" inkscape:collect="always" xlink:href="#linearGradient1388" id="linearGradient7893-361" x1="161.70172" y1="118.89846" x2="161.70172" y2="197.93216" gradientUnits="userSpaceOnUse"/>
    <linearGradient inkscape:collect="always" xlink:href="#linearGradient1388" id="linearGradient1506" gradientUnits="userSpaceOnUse" x1="161.70172" y1="118.89846" x2="161.70172" y2="197.93216"/>
    <linearGradient inkscape:collect="always" xlink:href="#linearGradient7758" id="linearGradient1508" gradientUnits="userSpaceOnUse" gradientTransform="matrix(0.93996715,0,0,0.93996715,9.6851028,9.9555173)" x1="162.58794" y1="185.95032" x2="162.58794" y2="134.43561"/>
    <linearGradient inkscape:collect="always" xlink:href="#linearGradient1388" id="linearGradient1523" gradientUnits="userSpaceOnUse" x1="161.70172" y1="118.89846" x2="161.70172" y2="197.93216"/>
    <linearGradient inkscape:collect="always" xlink:href="#linearGradient1374" id="linearGradient1376-3" x1="146.80354" y1="139.47923" x2="174.4657" y2="139.47923" gradientUnits="userSpaceOnUse" gradientTransform="matrix(0.55545785,0,0,0.90673956,182.4407,119.57893)"/>
    <linearGradient inkscape:collect="always" xlink:href="#linearGradient5419" id="linearGradient5425-7" x1="10.429825" y1="43.068272" x2="38.890873" y2="13.193013" gradientUnits="userSpaceOnUse" gradientTransform="matrix(1.245067,0,0,1.245067,62.54989,59.291519)"/>
    <linearGradient gradientTransform="matrix(1.290323,0,0,1.290323,65.289452,66.015302)" inkscape:collect="always" xlink:href="#linearGradient1319" id="linearGradient1321-6" x1="168.35246" y1="125.66496" x2="168.35246" y2="190.8166" gradientUnits="userSpaceOnUse"/>
    <linearGradient gradientTransform="matrix(1.290323,0,0,1.290323,65.289452,66.015302)" inkscape:collect="always" xlink:href="#linearGradient1388" id="linearGradient1523-7" gradientUnits="userSpaceOnUse" x1="161.70172" y1="118.89846" x2="161.70172" y2="197.93216"/>
    <linearGradient inkscape:collect="always" xlink:href="#linearGradient1374" id="linearGradient1376-1" x1="146.80354" y1="139.47923" x2="174.4657" y2="139.47923" gradientUnits="userSpaceOnUse" gradientTransform="matrix(0.22218314,0,0,0.36269582,-11.720143,-37.155215)"/>
    <linearGradient inkscape:collect="always" xlink:href="#linearGradient5419" id="linearGradient5425-2" x1="10.429825" y1="43.068272" x2="38.890873" y2="13.193013" gradientUnits="userSpaceOnUse" gradientTransform="matrix(0.49802679,0,0,0.49802679,-59.67647,-61.270184)"/>
    <linearGradient gradientTransform="matrix(0.5161292,0,0,0.5161292,-58.580645,-58.580671)" inkscape:collect="always" xlink:href="#linearGradient1319" id="linearGradient1321-4" x1="168.35246" y1="125.66496" x2="168.35246" y2="190.8166" gradientUnits="userSpaceOnUse"/>
    <linearGradient gradientTransform="matrix(0.5161292,0,0,0.5161292,-58.580645,-58.580671)" inkscape:collect="always" xlink:href="#linearGradient1388" id="linearGradient1523-0" gradientUnits="userSpaceOnUse" x1="161.70172" y1="118.89846" x2="161.70172" y2="197.93216"/>
    <linearGradient inkscape:collect="always" xlink:href="#linearGradient1374" id="linearGradient1376-9" x1="146.80354" y1="139.47923" x2="174.4657" y2="139.47923" gradientUnits="userSpaceOnUse" gradientTransform="matrix(0.14812209,0,0,0.24179721,-39.813426,-56.770143)"/>
    <linearGradient inkscape:collect="always" xlink:href="#linearGradient5419" id="linearGradient5425-6" x1="10.429825" y1="43.068272" x2="38.890873" y2="13.193013" gradientUnits="userSpaceOnUse" gradientTransform="matrix(0.33201786,0,0,0.33201786,-71.78431,-72.846786)"/>
    <linearGradient gradientTransform="matrix(0.34408613,0,0,0.34408613,-71.05376,-71.053778)" inkscape:collect="always" xlink:href="#linearGradient1319" id="linearGradient1321-65" x1="168.35246" y1="125.66496" x2="168.35246" y2="190.8166" gradientUnits="userSpaceOnUse"/>
    <linearGradient gradientTransform="matrix(0.34408613,0,0,0.34408613,-71.05376,-71.053778)" inkscape:collect="always" xlink:href="#linearGradient1388" id="linearGradient1523-9" gradientUnits="userSpaceOnUse" x1="161.70172" y1="118.89846" x2="161.70172" y2="197.93216"/>
    <linearGradient inkscape:collect="always" xlink:href="#linearGradient5419" id="linearGradient5425-0" x1="10.429825" y1="43.068272" x2="38.890873" y2="13.193013" gradientUnits="userSpaceOnUse" gradientTransform="matrix(0.2490134,0,0,0.2490134,-85.838233,-86.635097)"/>
    <linearGradient gradientTransform="matrix(0.2580646,0,0,0.2580646,-85.290321,-85.290341)" inkscape:collect="always" xlink:href="#linearGradient1319" id="linearGradient1321-44" x1="168.35246" y1="125.66496" x2="168.35246" y2="190.8166" gradientUnits="userSpaceOnUse"/>
    <linearGradient gradientTransform="matrix(0.2580646,0,0,0.2580646,-85.290321,-85.290341)" inkscape:collect="always" xlink:href="#linearGradient1388" id="linearGradient1523-3" gradientUnits="userSpaceOnUse" x1="161.70172" y1="118.89846" x2="161.70172" y2="197.93216"/>
    <linearGradient inkscape:collect="always" xlink:href="#linearGradient5419" id="linearGradient5425-3" x1="10.429825" y1="43.068272" x2="38.890873" y2="13.193013" gradientUnits="userSpaceOnUse" gradientTransform="matrix(0.16600893,0,0,0.16600893,-91.892129,-92.42343)"/>
    <linearGradient gradientTransform="matrix(0.17204307,0,0,0.17204307,-91.526854,-91.526926)" inkscape:collect="always" xlink:href="#linearGradient1388" id="linearGradient1523-8" gradientUnits="userSpaceOnUse" x1="161.70172" y1="118.89846" x2="161.70172" y2="197.93216"/>
  </defs>
  <sodipodi:namedview pagecolor="#383c4a" bordercolor="#ffffff" borderopacity="0.62745098" objecttolerance="4" gridtolerance="10" guidetolerance="4" inkscape:pageopacity="0" inkscape:pageshadow="2" inkscape:window-width="640" inkscape:window-height="480" id="namedview20" showgrid="true" inkscape:zoom="2.0853184" inkscape:cx="213.96524" inkscape:cy="-120.9237" inkscape:current-layer="layer6" inkscape:snap-smooth-nodes="false" showguides="true" borderlayer="true" inkscape:showpageshadow="false" inkscape:guide-bbox="true" guidecolor="#bd4fff" guideopacity="0.78431373" inkscape:snap-nodes="true" inkscape:lockguides="false" fit-margin-top="0" fit-margin-left="0" fit-margin-right="0" fit-margin-bottom="0" guidehicolor="#ff0101" guidehiopacity="0.78431373" inkscape:snap-page="true" inkscape:object-nodes="true" inkscape:snap-bbox="true" inkscape:snap-global="true" inkscape:snap-object-midpoints="false" inkscape:snap-bbox-edge-midpoints="false">
    <inkscape:grid type="xygrid" id="grid4171" empspacing="4" dotted="false" originx="2.7755576e-17" originy="0" spacingx="1" spacingy="1" color="#5a5a5a" opacity="0.23529412" empcolor="#5a5a5a" empopacity="0.47058824" visible="true"/>
    <inkscape:grid type="axonomgrid" id="grid4699" units="mm" empspacing="4" color="#5a5a5a" opacity="0.23529412" empcolor="#5a5a5a" empopacity="0.47058824" gridanglex="45" gridanglez="45" spacingy="3.7795276" visible="false" originx="1.3228346" originy="1.3228346"/>
    <sodipodi:guide position="48,0" orientation="1,0" id="guide4568" inkscape:locked="false" inkscape:label="" inkscape:color="rgb(189,79,255)"/>
    <sodipodi:guide position="111.99996,-3.9999999e-05" orientation="0,1" id="guide4570" inkscape:locked="false" inkscape:label="" inkscape:color="rgb(189,79,255)"/>
    <sodipodi:guide position="0,0" orientation="1,0" id="guide4572" inkscape:locked="false" inkscape:label="" inkscape:color="rgb(189,79,255)"/>
    <sodipodi:guide position="0,48" orientation="0,1" id="guide4574" inkscape:locked="false" inkscape:label="" inkscape:color="rgb(189,79,255)"/>
    <sodipodi:guide position="0,80" orientation="0,1" id="guide4576" inkscape:locked="false" inkscape:label="" inkscape:color="rgb(189,79,255)"/>
    <sodipodi:guide position="-32,48" orientation="1,0" id="guide4578" inkscape:locked="false" inkscape:label="" inkscape:color="rgb(189,79,255)"/>
    <sodipodi:guide position="-32,104" orientation="0,1" id="guide4580" inkscape:locked="false" inkscape:label="" inkscape:color="rgb(189,79,255)"/>
    <sodipodi:guide position="-56,80" orientation="1,0" id="guide4582" inkscape:locked="false" inkscape:label="" inkscape:color="rgb(189,79,255)"/>
    <sodipodi:guide position="48,-64" orientation="0,1" id="guide4584" inkscape:locked="false" inkscape:label="" inkscape:color="rgb(189,79,255)"/>
    <sodipodi:guide position="0,0" orientation="-0.70710678,0.70710678" id="guide4588" inkscape:locked="false" inkscape:label="" inkscape:color="rgb(189,79,255)"/>
    <sodipodi:guide position="-56,80" orientation="-0.70710678,0.70710678" id="guide4573" inkscape:locked="false" inkscape:label="" inkscape:color="rgb(189,79,255)"/>
    <sodipodi:guide position="-32,48" orientation="-0.70710678,0.70710678" id="guide4575" inkscape:locked="false" inkscape:label="" inkscape:color="rgb(189,79,255)"/>
    <sodipodi:guide position="48,-64" orientation="-0.70710678,0.70710678" id="guide4577" inkscape:locked="false" inkscape:label="" inkscape:color="rgb(189,79,255)"/>
    <sodipodi:guide position="47.999962,0" orientation="0.70710678,0.70710678" id="guide4697" inkscape:locked="false" inkscape:label="" inkscape:color="rgb(189,79,255)"/>
    <sodipodi:guide position="207.99995,-288" orientation="0,1" id="guide7833" inkscape:locked="false"/>
    <sodipodi:guide position="335.99994,-288" orientation="1,0" id="guide7835" inkscape:locked="false" inkscape:label="" inkscape:color="rgb(189,79,255)"/>
    <sodipodi:guide position="111.99996,-64" orientation="1,0" id="guide7915" inkscape:locked="false"/>
    <sodipodi:guide position="111.99996,-160" orientation="0,1" id="guide7917" inkscape:locked="false"/>
    <sodipodi:guide position="207.99996,-160" orientation="1,0" id="guide7919" inkscape:locked="false"/>
    <sodipodi:guide position="111.99996,-160" orientation="-0.70710678,0.70710678" id="guide7921" inkscape:locked="false" inkscape:label="" inkscape:color="rgb(189,79,255)"/>
    <sodipodi:guide position="207.99996,-288" orientation="-0.70710678,0.70710678" id="guide7923" inkscape:locked="false" inkscape:label="" inkscape:color="rgb(189,79,255)"/>
    <sodipodi:guide position="-72,104" orientation="1,0" id="guide7824" inkscape:locked="false"/>
    <sodipodi:guide position="-56,120" orientation="0,1" id="guide7826" inkscape:locked="false"/>
    <sodipodi:guide position="-72,104" orientation="-0.70710678,0.70710678" id="guide7828" inkscape:locked="false" inkscape:label="" inkscape:color="rgb(189,79,255)"/>
  </sodipodi:namedview>
  <g inkscape:groupmode="layer" id="layer3" inkscape:label="icon_48" style="display:inline" transform="translate(6.8969723e-7,-4.5367432e-7)">
    <g inkscape:groupmode="layer" id="layer9" inkscape:label="frame" style="display:none">
      <rect inkscape:label="frame_48" y="4.5367432e-07" x="-6.8969723e-07" height="48" width="48" id="frame_48" style="color:#000000;clip-rule:nonzero;display:block;overflow:visible;visibility:visible;opacity:1;isolation:auto;mix-blend-mode:normal;color-interpolation:sRGB;color-interpolation-filters:linearRGB;solid-color:#000000;solid-opacity:1;vector-effect:none;fill:#000000;fill-opacity:1;fill-rule:nonzero;stroke:#ff24f7;stroke-width:0;stroke-linecap:square;stroke-linejoin:miter;stroke-miterlimit:4;stroke-dasharray:none;stroke-dashoffset:0;stroke-opacity:0.99481865;marker:none;marker-start:none;marker-mid:none;marker-end:none;paint-order:normal;color-rendering:auto;image-rendering:auto;shape-rendering:auto;text-rendering:auto;enable-background:accumulate"/>
      <text xml:space="preserve" style="font-size:18.66666603px;line-height:1000%;font-family:sans-serif;letter-spacing:0px;word-spacing:0px;display:inline;opacity:1;fill:#ffffff;fill-opacity:1;stroke:none;stroke-width:0.11166908px;stroke-linecap:butt;stroke-linejoin:miter;stroke-opacity:1" x="12.301435" y="30.794922" id="txt_48" inkscape:label="txt_48">
        <tspan sodipodi:role="line" x="12.301435" y="30.794922" style="font-size:18.66666603px;fill:#ffffff;fill-opacity:1;stroke:none;stroke-width:0.11166908px" id="tspan5049-1">48</tspan>
      </text>
      <text xml:space="preserve" style="font-size:2.66666675px;line-height:1000%;font-family:sans-serif;letter-spacing:0px;word-spacing:0px;display:inline;opacity:1;fill:#ffffff;fill-opacity:0.44791667;stroke:none;stroke-width:0.0588377px;stroke-linecap:butt;stroke-linejoin:miter;stroke-opacity:1" x="25.824219" y="45.962238" id="txt_scalable_32-64" inkscape:label="txt_scalable_32-64">
        <tspan sodipodi:role="line" x="25.824219" y="45.962238" style="font-size:2.66666675px;fill:#ffffff;fill-opacity:0.44791667;stroke:none;stroke-width:0.0588377px" id="tspan5049-1-6">Scalable:32-64</tspan>
      </text>
    </g>
    <g inkscape:groupmode="layer" id="layer10" inkscape:label="icon" style="display:inline">
      <path inkscape:label="base sombra" sodipodi:nodetypes="cccccccccccssccccccccccsscccccsccccssccccccccccscccscsc" inkscape:connector-curvature="0" id="path1242-7" d="m 21.151801,0.77419298 c -0.39423,0 -0.614411,0.31181952 -0.712568,0.67274342 L 18.926546,7.0119912 C 17.893745,7.3804816 16.537007,7.8952741 15.622441,8.3739065 L 10.614631,5.4918616 C 10.290481,5.3052603 9.914109,5.2409815 9.6353528,5.5197326 L 5.5630212,9.5920178 C 5.2842701,9.8707534 5.3493489,10.242666 5.5352018,10.56729 l 2.8144061,4.920188 c -0.6061783,1.087024 -1.0971514,2.234385 -1.4649295,3.423423 l -5.4377308,1.464908 c -0.3611665,0.09723 -0.67275378,0.318344 -0.67275378,0.712548 v 5.760125 c 0,0.394199 0.31181948,0.610406 0.67275378,0.708568 l 5.3183139,1.448982 c 0.3565369,1.253461 0.8490997,2.464166 1.4689037,3.610519 l -2.7427569,4.768916 c -0.1866117,0.324134 -0.2508853,0.700506 0.027871,0.979257 l 4.0723264,4.072285 c 0.2787459,0.278756 0.6506683,0.213682 0.9752883,0.02782 l 4.705276,-2.694943 c 1.168558,0.649941 2.406365,1.166685 3.69018,1.540543 l 1.413167,5.242644 c 0.09723,0.361167 0.318338,0.672733 0.712552,0.672733 h 5.760182 c 0.394215,0 0.610421,-0.311814 0.708579,-0.672733 l 1.429094,-5.246598 c 1.267051,-0.374653 2.488657,-0.888661 3.642407,-1.532583 l 4.757028,2.734751 c 0.32415,0.186617 0.700522,0.250886 0.979278,-0.02787 l 4.072332,-4.072285 c 0.278751,-0.278741 0.213672,-0.654643 0.02787,-0.979262 l -2.75869,-4.812698 c 0.599417,-1.122865 1.077172,-2.306546 1.425125,-3.530907 l 5.421804,-1.464899 c 0.361166,-0.09723 0.672743,-0.314364 0.672743,-0.708583 v -5.760111 c 0,-0.394214 -0.31182,-0.614389 -0.672743,-0.712552 l -5.513364,-1.496761 c -0.354302,-1.156641 -0.825125,-2.274318 -1.405213,-3.335846 l 2.874117,-4.991842 c 0.186606,-0.324139 0.250895,-0.700511 -0.02782,-0.9792569 L 38.408472,5.5634849 C 38.129716,5.2847235 37.753829,5.3498022 37.429205,5.5355623 L 32.425373,8.4016949 C 31.322183,7.9487863 30.167597,7.3896739 29.137279,7.0560428 L 27.620613,1.4471997 C 27.523379,1.0860331 27.306239,0.77445104 26.912024,0.77445104 H 21.151795 Z M 24.00344,15.527091 c 4.69225,0 8.496049,3.803779 8.496049,8.495961 -5e-6,4.692177 -3.80381,8.495951 -8.496049,8.495951 -4.692234,0 -8.496039,-3.803774 -8.496039,-8.495951 0,-4.692182 3.8038,-8.495961 8.496039,-8.495961 z" style="color:#000000;clip-rule:nonzero;display:inline;overflow:visible;visibility:visible;opacity:1;isolation:auto;mix-blend-mode:normal;color-interpolation:sRGB;color-interpolation-filters:linearRGB;solid-color:#000000;solid-opacity:1;vector-effect:none;fill:none;fill-opacity:1;fill-rule:nonzero;stroke:#000000;stroke-width:1.54838765;stroke-linecap:butt;stroke-linejoin:miter;stroke-miterlimit:4;stroke-dasharray:none;stroke-dashoffset:0;stroke-opacity:0.16753929;marker:none;marker-start:none;marker-mid:none;marker-end:none;paint-order:fill markers stroke;color-rendering:auto;image-rendering:auto;shape-rendering:auto;text-rendering:auto;enable-background:accumulate"/>
      <path style="color:#000000;clip-rule:nonzero;display:inline;overflow:visible;visibility:visible;opacity:1;isolation:auto;mix-blend-mode:normal;color-interpolation:sRGB;color-interpolation-filters:linearRGB;solid-color:#000000;solid-opacity:1;vector-effect:none;fill:url(#linearGradient1523-0);fill-opacity:1;fill-rule:nonzero;stroke:none;stroke-width:0.96640784;stroke-linecap:butt;stroke-linejoin:miter;stroke-miterlimit:4;stroke-dasharray:none;stroke-dashoffset:0;stroke-opacity:0.14136125;marker:none;marker-start:none;marker-mid:none;marker-end:none;paint-order:fill markers stroke;color-rendering:auto;image-rendering:auto;shape-rendering:auto;text-rendering:auto;enable-background:accumulate" d="m 21.151801,0.77419298 c -0.39423,0 -0.614411,0.31181952 -0.712568,0.67274342 L 18.926546,7.0119912 C 17.893745,7.3804816 16.537007,7.8952741 15.622441,8.3739065 L 10.614631,5.4918616 C 10.290481,5.3052603 9.914109,5.2409815 9.6353528,5.5197326 L 5.5630212,9.5920178 C 5.2842701,9.8707534 5.3493489,10.242666 5.5352018,10.56729 l 2.8144061,4.920188 c -0.6061783,1.087024 -1.0971514,2.234385 -1.4649295,3.423423 l -5.4377308,1.464908 c -0.3611665,0.09723 -0.67275378,0.318344 -0.67275378,0.712548 v 5.760125 c 0,0.394199 0.31181948,0.610406 0.67275378,0.708568 l 5.3183139,1.448982 c 0.3565369,1.253461 0.8490997,2.464166 1.4689037,3.610519 l -2.7427569,4.768916 c -0.1866117,0.324134 -0.2508853,0.700506 0.027871,0.979257 l 4.0723264,4.072285 c 0.2787459,0.278756 0.6506683,0.213682 0.9752883,0.02782 l 4.705276,-2.694943 c 1.168558,0.649941 2.406365,1.166685 3.69018,1.540543 l 1.413167,5.242644 c 0.09723,0.361167 0.318338,0.672733 0.712552,0.672733 h 5.760182 c 0.394215,0 0.610421,-0.311814 0.708579,-0.672733 l 1.429094,-5.246598 c 1.267051,-0.374653 2.488657,-0.888661 3.642407,-1.532583 l 4.757028,2.734751 c 0.32415,0.186617 0.700522,0.250886 0.979278,-0.02787 l 4.072332,-4.072285 c 0.278751,-0.278741 0.213672,-0.654643 0.02787,-0.979262 l -2.75869,-4.812698 c 0.599417,-1.122865 1.077172,-2.306546 1.425125,-3.530907 l 5.421804,-1.464899 c 0.361166,-0.09723 0.672743,-0.314364 0.672743,-0.708583 v -5.760111 c 0,-0.394214 -0.31182,-0.614389 -0.672743,-0.712552 l -5.513364,-1.496761 c -0.354302,-1.156641 -0.825125,-2.274318 -1.405213,-3.335846 l 2.874117,-4.991842 c 0.186606,-0.324139 0.250895,-0.700511 -0.02782,-0.9792569 L 38.408472,5.5634849 C 38.129716,5.2847235 37.753829,5.3498022 37.429205,5.5355623 L 32.425373,8.4016949 C 31.322183,7.9487863 30.167597,7.3896739 29.137279,7.0560428 L 27.620613,1.4471997 C 27.523379,1.0860331 27.306239,0.77445104 26.912024,0.77445104 H 21.151795 Z M 24.00344,15.527091 c 4.69225,0 8.496049,3.803779 8.496049,8.495961 -5e-6,4.692177 -3.80381,8.495951 -8.496049,8.495951 -4.692234,0 -8.496039,-3.803774 -8.496039,-8.495951 0,-4.692182 3.8038,-8.495961 8.496039,-8.495961 z" id="path44247-17" inkscape:connector-curvature="0" sodipodi:nodetypes="cccccccccccssccccccccccsscccccsccccssccccccccccscccscsc" inkscape:label="base"/>
      <path style="color:#000000;font-style:normal;font-variant:normal;font-weight:normal;font-stretch:normal;font-size:medium;line-height:normal;font-family:sans-serif;text-indent:0;text-align:start;text-decoration:none;text-decoration-line:none;text-decoration-style:solid;text-decoration-color:#000000;letter-spacing:normal;word-spacing:normal;text-transform:none;writing-mode:lr-tb;direction:ltr;baseline-shift:baseline;text-anchor:start;white-space:normal;clip-rule:nonzero;display:inline;overflow:visible;visibility:visible;opacity:1;isolation:auto;mix-blend-mode:normal;color-interpolation:sRGB;color-interpolation-filters:linearRGB;solid-color:#000000;solid-opacity:1;vector-effect:none;fill:#000000;fill-opacity:0.17277485;fill-rule:nonzero;stroke:none;stroke-width:1.70022309;stroke-linecap:butt;stroke-linejoin:miter;stroke-miterlimit:4;stroke-dasharray:none;stroke-dashoffset:0;stroke-opacity:0.14136125;marker:none;marker-start:none;marker-mid:none;marker-end:none;paint-order:fill markers stroke;color-rendering:auto;image-rendering:auto;shape-rendering:auto;text-rendering:auto;enable-background:accumulate" d="m 24.003203,5.6710255 c -10.085526,0 -18.3321766,8.2402655 -18.3321766,18.3257705 0,10.085526 8.2466506,18.332182 18.3321766,18.332182 10.08551,0 18.325792,-8.246656 18.325792,-18.332182 0,-10.085505 -8.240282,-18.3257705 -18.325792,-18.3257705 z m 5.06e-4,3.8882491 c 8.024689,0 14.436804,6.4121364 14.436804,14.4368044 0,8.024705 -6.412115,14.44465 -14.436804,14.44465 -8.024669,0 -14.4446607,-6.419945 -14.4446607,-14.44465 0,-8.024668 6.4199917,-14.4368044 14.4446607,-14.4368044 z" id="path1313-2" inkscape:connector-curvature="0" sodipodi:nodetypes="ssssssssss" inkscape:label="r"/>
      <path inkscape:label="r" sodipodi:nodetypes="ssssssssss" inkscape:connector-curvature="0" id="path1309-72" d="m 24.003105,6.225849 c -9.780231,0 -17.7772552,7.990831 -17.7772552,17.771045 0,9.780231 7.9970242,17.77726 17.7772552,17.77726 9.78022,0 17.771066,-7.997029 17.771066,-17.77726 0,-9.780214 -7.990846,-17.771045 -17.771066,-17.771045 z m 5.11e-4,3.7705562 c 7.781773,0 13.999793,6.2180348 13.999793,13.9997878 0,7.781798 -6.21802,14.007405 -13.999793,14.007405 -7.781763,0 -14.0074115,-6.225607 -14.0074115,-14.007405 0,-7.781753 6.2256485,-13.9997878 14.0074115,-13.9997878 z" style="color:#000000;font-style:normal;font-variant:normal;font-weight:normal;font-stretch:normal;font-size:medium;line-height:normal;font-family:sans-serif;text-indent:0;text-align:start;text-decoration:none;text-decoration-line:none;text-decoration-style:solid;text-decoration-color:#000000;letter-spacing:normal;word-spacing:normal;text-transform:none;writing-mode:lr-tb;direction:ltr;baseline-shift:baseline;text-anchor:start;white-space:normal;clip-rule:nonzero;display:inline;overflow:visible;visibility:visible;opacity:1;isolation:auto;mix-blend-mode:normal;color-interpolation:sRGB;color-interpolation-filters:linearRGB;solid-color:#000000;solid-opacity:1;vector-effect:none;fill:url(#linearGradient1321-4);fill-opacity:1;fill-rule:nonzero;stroke:none;stroke-width:1.64875627;stroke-linecap:butt;stroke-linejoin:miter;stroke-miterlimit:4;stroke-dasharray:none;stroke-dashoffset:0;stroke-opacity:0.14136125;marker:none;marker-start:none;marker-mid:none;marker-end:none;paint-order:fill markers stroke;color-rendering:auto;image-rendering:auto;shape-rendering:auto;text-rendering:auto;enable-background:accumulate"/>
      <path inkscape:label="azul" sodipodi:nodetypes="ssssssssss" inkscape:connector-curvature="0" id="path1323-2" d="m 24.002449,9.9917652 c -7.708033,0 -14.0106832,6.2977668 -14.0106832,14.0057848 0,7.708039 6.3026502,14.010688 14.0106832,14.010688 7.708023,0 14.005806,-6.302649 14.005806,-14.010688 0,-7.708018 -6.297783,-14.0057848 -14.005806,-14.0057848 z m 0.001,3.5348238 c 5.834443,0 10.496452,4.662015 10.496452,10.496447 0,5.834464 -4.662009,10.502161 -10.496452,10.502161 -5.834438,0 -10.502161,-4.667697 -10.502161,-10.502161 0,-5.834432 4.667723,-10.496447 10.502161,-10.496447 z" style="color:#000000;font-style:normal;font-variant:normal;font-weight:normal;font-stretch:normal;font-size:medium;line-height:normal;font-family:sans-serif;text-indent:0;text-align:start;text-decoration:none;text-decoration-line:none;text-decoration-style:solid;text-decoration-color:#000000;letter-spacing:normal;word-spacing:normal;text-transform:none;writing-mode:lr-tb;direction:ltr;baseline-shift:baseline;text-anchor:start;white-space:normal;clip-rule:nonzero;display:inline;overflow:visible;visibility:visible;opacity:1;isolation:auto;mix-blend-mode:normal;color-interpolation:sRGB;color-interpolation-filters:linearRGB;solid-color:#000000;solid-opacity:1;vector-effect:none;fill:url(#linearGradient5425-2);fill-opacity:1;fill-rule:nonzero;stroke:none;stroke-width:1.03225839;stroke-linecap:butt;stroke-linejoin:miter;stroke-miterlimit:4;stroke-dasharray:none;stroke-dashoffset:0;stroke-opacity:1;marker:none;marker-start:none;marker-mid:none;marker-end:none;paint-order:fill markers stroke;color-rendering:auto;image-rendering:auto;shape-rendering:auto;text-rendering:auto;enable-background:accumulate"/>
      <path style="color:#000000;font-style:normal;font-variant:normal;font-weight:normal;font-stretch:normal;font-size:medium;line-height:normal;font-family:sans-serif;text-indent:0;text-align:start;text-decoration:none;text-decoration-line:none;text-decoration-style:solid;text-decoration-color:#000000;letter-spacing:normal;word-spacing:normal;text-transform:none;writing-mode:lr-tb;direction:ltr;baseline-shift:baseline;text-anchor:start;white-space:normal;clip-rule:nonzero;display:inline;overflow:visible;visibility:visible;opacity:1;isolation:auto;mix-blend-mode:normal;color-interpolation:sRGB;color-interpolation-filters:linearRGB;solid-color:#000000;solid-opacity:1;vector-effect:none;fill:#000000;fill-opacity:0.2827225;fill-rule:nonzero;stroke:none;stroke-width:1.29942441;stroke-linecap:butt;stroke-linejoin:miter;stroke-miterlimit:4;stroke-dasharray:none;stroke-dashoffset:0;stroke-opacity:0.14136125;marker:none;marker-start:none;marker-mid:none;marker-end:none;paint-order:fill markers stroke;color-rendering:auto;image-rendering:auto;shape-rendering:auto;text-rendering:auto;enable-background:accumulate" d="m 24.002047,9.9919352 c -7.708034,0 -14.0100851,6.2980308 -14.0100851,14.0060488 0,0.08661 0.00465,0.171824 0.00604,0.258064 0.1392311,-7.589638 6.3824841,-13.747984 14.0040411,-13.747984 7.62154,0 13.860876,6.158346 14.000004,13.747984 0.0015,-0.08624 0.006,-0.171458 0.006,-0.258064 0,-7.708018 -6.298025,-14.0060488 -14.006049,-14.0060488 z" id="path1212-1" inkscape:connector-curvature="0" sodipodi:nodetypes="cscscscc" inkscape:label="rojo sombra sup"/>
      <path style="color:#000000;clip-rule:nonzero;display:inline;overflow:visible;visibility:visible;opacity:1;isolation:auto;mix-blend-mode:normal;color-interpolation:sRGB;color-interpolation-filters:linearRGB;solid-color:#000000;solid-opacity:1;vector-effect:none;fill:#ffffff;fill-opacity:0.67539266;fill-rule:nonzero;stroke:none;stroke-width:0.96640784;stroke-linecap:butt;stroke-linejoin:miter;stroke-miterlimit:4;stroke-dasharray:none;stroke-dashoffset:0;stroke-opacity:0.14136125;marker:none;marker-start:none;marker-mid:none;marker-end:none;paint-order:fill markers stroke;color-rendering:auto;image-rendering:auto;shape-rendering:auto;text-rendering:auto;enable-background:accumulate" d="m 21.152245,0.77418782 c -0.39423,0 -0.614545,0.31145298 -0.712703,0.67237698 l -1.513105,5.5655296 c -1.0328,0.3684905 -2.389869,0.8832622 -3.304434,1.3618946 L 10.614946,5.4919287 C 10.290796,5.3053274 9.9138613,5.2414048 9.6351051,5.520161 L 5.5625206,9.591734 c -0.2090633,0.2090529 -0.2237627,0.47119 -0.1401188,0.725806 0.030452,-0.0736 0.074911,-0.144464 0.1401188,-0.209677 L 9.6351051,6.0362902 C 9.9138613,5.7575391 10.290796,5.8214617 10.614946,6.0080579 l 5.007057,2.8820603 C 16.536568,8.4114858 17.893637,7.8967141 18.926437,7.5282236 L 20.439542,1.962694 c 0.09816,-0.360924 0.318473,-0.672377 0.712703,-0.672377 h 5.760084 c 0.394214,0 0.611438,0.3122221 0.708666,0.6733886 l 1.516129,5.6088742 c 1.030323,0.333631 2.185121,0.8918454 3.288311,1.3447539 l 5.004033,-2.8659261 c 0.324624,-0.1857601 0.700077,-0.2505343 0.978834,0.028232 l 4.072579,4.0725794 c 0.0657,0.06571 0.110658,0.137099 0.14113,0.211696 0.08338,-0.255366 0.06764,-0.5190303 -0.14113,-0.7278252 L 38.408302,5.5635107 C 38.129545,5.2847493 37.754092,5.3495235 37.429468,5.5352784 L 32.425435,8.4012045 C 31.322245,7.948296 30.167447,7.3900816 29.137124,7.0564506 L 27.620995,1.4475764 C 27.523767,1.0864099 27.306543,0.77418782 26.912329,0.77418782 Z M 8.2086943,15.757057 c -0.5394944,1.007371 -0.985781,2.062075 -1.3235927,3.154231 l -5.4385101,1.464723 c -0.3611666,0.09723 -0.67237704,0.318498 -0.67237704,0.712702 v 0.516129 c 0,-0.394204 0.31121044,-0.615474 0.67237704,-0.712702 L 6.8851016,19.427417 C 7.2528798,18.238379 7.7436412,17.091055 8.3498195,16.00403 Z m 31.5655327,0.121972 -0.140118,0.243953 c 0.580087,1.061528 1.050937,2.179046 1.405239,3.335687 l 5.514118,1.496975 c 0.360924,0.09816 0.672377,0.318488 0.672377,0.712703 v -0.51613 c 0,-0.394214 -0.311453,-0.614539 -0.672377,-0.712702 L 41.039348,18.942539 C 40.71494,17.883483 40.288447,16.859561 39.774227,15.879029 Z M 8.0947794,32.857868 5.4909489,37.385085 c -0.142622,0.247731 -0.2117213,0.526291 -0.1129032,0.76815 0.027923,-0.08555 0.066075,-0.170679 0.1129032,-0.252021 l 2.7429428,-4.768146 c -0.048929,-0.09046 -0.091788,-0.183949 -0.1391123,-0.2752 z m 31.7490066,0 c -0.04676,0.0913 -0.08978,0.184676 -0.138106,0.2752 l 2.759072,4.812502 c 0.04645,0.08116 0.08503,0.165765 0.112903,0.251009 0.09866,-0.24175 0.02911,-0.519025 -0.112903,-0.767138 z" id="path1201-06" inkscape:connector-curvature="0" sodipodi:nodetypes="scccccccccccccsscccccccccccccsscccsccccccccccsccccccccccccccc" inkscape:label="brillo superior"/>
      <path style="color:#000000;font-style:normal;font-variant:normal;font-weight:normal;font-stretch:normal;font-size:medium;line-height:normal;font-family:sans-serif;text-indent:0;text-align:start;text-decoration:none;text-decoration-line:none;text-decoration-style:solid;text-decoration-color:#000000;letter-spacing:normal;word-spacing:normal;text-transform:none;writing-mode:lr-tb;direction:ltr;baseline-shift:baseline;text-anchor:start;white-space:normal;clip-rule:nonzero;display:inline;overflow:visible;visibility:visible;opacity:1;isolation:auto;mix-blend-mode:normal;color-interpolation:sRGB;color-interpolation-filters:linearRGB;solid-color:#000000;solid-opacity:1;vector-effect:none;fill:#000000;fill-opacity:0.16753929;fill-rule:nonzero;stroke:none;stroke-width:1.05371737;stroke-linecap:butt;stroke-linejoin:miter;stroke-miterlimit:4;stroke-dasharray:none;stroke-dashoffset:0;stroke-opacity:0.14136125;marker:none;marker-start:none;marker-mid:none;marker-end:none;paint-order:fill markers stroke;color-rendering:auto;image-rendering:auto;shape-rendering:auto;text-rendering:auto;enable-background:accumulate" d="m 24.002666,14.201454 c -5.946252,0 -10.808339,4.858319 -10.808339,10.804556 0,5.946252 4.862087,10.808339 10.808339,10.808339 5.946242,0 10.804571,-4.862087 10.804571,-10.808339 0,-5.946237 -4.858329,-10.804556 -10.804571,-10.804556 z m -0.001,4.441643 c 3.550447,0 6.387429,2.836986 6.387429,6.387424 0,3.550463 -2.836982,6.390902 -6.387429,6.390902 -3.550443,0 -6.390903,-2.840439 -6.390903,-6.390902 0,-3.550438 2.84046,-6.387424 6.390903,-6.387424 z" id="path1210-1" inkscape:connector-curvature="0" sodipodi:nodetypes="ssssssssss" inkscape:label="sombra"/>
      <path sodipodi:nodetypes="sssss" inkscape:connector-curvature="0" id="path1206-5" d="m 24.032633,13.249412 c -5.946253,0 -10.808339,4.858319 -10.808339,10.804556 0,5.946252 4.862086,10.808339 10.808339,10.808339 5.946241,0 10.804571,-4.862087 10.804571,-10.808339 0,-5.946237 -4.85833,-10.804556 -10.804571,-10.804556 z" style="color:#000000;font-style:normal;font-variant:normal;font-weight:normal;font-stretch:normal;font-size:medium;line-height:normal;font-family:sans-serif;text-indent:0;text-align:start;text-decoration:none;text-decoration-line:none;text-decoration-style:solid;text-decoration-color:#000000;letter-spacing:normal;word-spacing:normal;text-transform:none;writing-mode:lr-tb;direction:ltr;baseline-shift:baseline;text-anchor:start;white-space:normal;clip-rule:nonzero;display:inline;overflow:visible;visibility:visible;opacity:1;isolation:auto;mix-blend-mode:normal;color-interpolation:sRGB;color-interpolation-filters:linearRGB;solid-color:#000000;solid-opacity:1;vector-effect:none;fill:#b1c7d0;fill-opacity:1;fill-rule:nonzero;stroke:none;stroke-width:1.05371737;stroke-linecap:butt;stroke-linejoin:miter;stroke-miterlimit:4;stroke-dasharray:none;stroke-dashoffset:0;stroke-opacity:0.14136125;marker:none;marker-start:none;marker-mid:none;marker-end:none;paint-order:fill markers stroke;color-rendering:auto;image-rendering:auto;shape-rendering:auto;text-rendering:auto;enable-background:accumulate" inkscape:label="aro interior"/>
      <path sodipodi:nodetypes="sscscsss" style="color:#000000;font-style:normal;font-variant:normal;font-weight:normal;font-stretch:normal;font-size:medium;line-height:normal;font-family:sans-serif;text-indent:0;text-align:start;text-decoration:none;text-decoration-line:none;text-decoration-style:solid;text-decoration-color:#000000;letter-spacing:normal;word-spacing:normal;text-transform:none;writing-mode:lr-tb;direction:ltr;baseline-shift:baseline;text-anchor:start;white-space:normal;clip-rule:nonzero;display:inline;overflow:visible;visibility:visible;opacity:1;isolation:auto;mix-blend-mode:normal;color-interpolation:sRGB;color-interpolation-filters:linearRGB;solid-color:#000000;solid-opacity:1;vector-effect:none;fill:#ffffff;fill-opacity:0.69109946;fill-rule:nonzero;stroke:none;stroke-width:1.05371737;stroke-linecap:butt;stroke-linejoin:miter;stroke-miterlimit:4;stroke-dasharray:none;stroke-dashoffset:0;stroke-opacity:0.14136125;marker:none;marker-start:none;marker-mid:none;marker-end:none;paint-order:fill markers stroke;color-rendering:auto;image-rendering:auto;shape-rendering:auto;text-rendering:auto;enable-background:accumulate" d="m 24.032447,13.249701 c -5.946253,0 -10.807839,4.857767 -10.807839,10.804004 0,0.0823 0.0041,0.163628 0.0057,0.245502 0.132011,-5.83353 4.938134,-10.558502 10.802084,-10.558502 5.86394,0 10.666326,4.724977 10.798243,10.558502 0.0021,-0.08188 0.0067,-0.1632 0.0067,-0.245502 0,-5.946237 -4.858716,-10.804004 -10.804958,-10.804004 z" id="path1237-4" inkscape:connector-curvature="0" inkscape:label="aro interior brillo"/>
      <path sodipodi:nodetypes="ccccccccccccccccc" inkscape:connector-curvature="0" id="path1117-2-3" d="M 17,16.000027 26,16 v 5 l -5,3.8e-5 V 31 H 17 Z M 22,22 h 4 v 9 h -4 z m 5,-6 h 4 V 31.000038 L 27,31 Z" style="display:inline;fill:#000000;fill-opacity:0.23626374;stroke-width:0.07504089"/>
      <path style="display:inline;fill:#000000;fill-opacity:0.23076926;stroke-width:0.07504089" d="m 17,16 v 1 h 9 v -1 z m 10,0 v 1 h 4 v -1 z m -5,6 v 1 h 4 v -1 z" id="path1121-0-7" inkscape:connector-curvature="0" sodipodi:nodetypes="ccccccccccccccc"/>
      <path inkscape:connector-curvature="0" id="path1126-2-5" d="m 17,32 v -1 h 4 v 1 z m 10,0 v -1 l 4,3.8e-5 V 32 Z m -5,0 v -1 h 4 l -2e-5,0.99992 z" style="display:inline;fill:#ffffff;fill-opacity:0.43406593;stroke-width:0.07504089" sodipodi:nodetypes="ccccccccccccccc"/>
      <rect inkscape:label="brillo" y="13.169298" x="20.897125" height="0.52804989" width="6.1460638" id="rect1366-0" style="color:#000000;clip-rule:nonzero;display:inline;overflow:visible;visibility:visible;opacity:1;isolation:auto;mix-blend-mode:normal;color-interpolation:sRGB;color-interpolation-filters:linearRGB;solid-color:#000000;solid-opacity:1;vector-effect:none;fill:url(#linearGradient1376-1);fill-opacity:1;fill-rule:nonzero;stroke:none;stroke-width:0.56774956;stroke-linecap:butt;stroke-linejoin:miter;stroke-miterlimit:4;stroke-dasharray:none;stroke-dashoffset:0;stroke-opacity:1;marker:none;marker-start:none;marker-mid:none;marker-end:none;paint-order:fill markers stroke;color-rendering:auto;image-rendering:auto;shape-rendering:auto;text-rendering:auto;enable-background:accumulate"/>
    </g>
  </g>
</svg>