<?xml version="1.0" encoding="UTF-8" standalone="yes"?>
<svg xmlns:osb="http://www.openswatchbook.org/uri/2009/osb" xmlns:dc="http://purl.org/dc/elements/1.1/" xmlns:cc="http://creativecommons.org/ns#" xmlns:rdf="http://www.w3.org/1999/02/22-rdf-syntax-ns#" xmlns:svg="http://www.w3.org/2000/svg" xmlns="http://www.w3.org/2000/svg" xmlns:xlink="http://www.w3.org/1999/xlink" xmlns:sodipodi="http://sodipodi.sourceforge.net/DTD/sodipodi-0.dtd" xmlns:inkscape="http://www.inkscape.org/namespaces/inkscape" height="48" viewBox="0 0 48 48" width="48" id="svg2" version="1.1" inkscape:version="0.92.1 r" sodipodi:docname="application-x-executable.svg" enable-background="new" folder="48">
  <title id="title4675">Template icons dark</title>
  <metadata id="metadata24">
    <rdf:RDF>
      <cc:Work rdf:about="">
        <dc:format>image/svg+xml</dc:format>
        <dc:type rdf:resource="http://purl.org/dc/dcmitype/StillImage"/>
        <dc:title>Template icons dark</dc:title>
        <dc:date>17/05/13</dc:date>
        <dc:creator>
          <cc:Agent>
            <dc:title>wfpaisa</dc:title>
          </cc:Agent>
        </dc:creator>
        <dc:rights>
          <cc:Agent>
            <dc:title>License: GPLv3</dc:title>
          </cc:Agent>
        </dc:rights>
        <dc:language>es-en</dc:language>
        <dc:subject>
          <rdf:Bag>
            <rdf:li>plane-icon-theme</rdf:li>
          </rdf:Bag>
        </dc:subject>
        <dc:description>Template for create set icons</dc:description>
        <cc:license rdf:resource="https://www.gnu.org/licenses/gpl-3.0.en.html"/>
      </cc:Work>
    </rdf:RDF>
  </metadata>
  <defs id="defs22">
    <linearGradient id="Pestana-sombra-3" osb:paint="solid">
      <stop style="stop-color:#000000;stop-opacity:0.19553073;" offset="0" id="stop8273"/>
    </linearGradient>
    <linearGradient id="Hoja-brillo-8" osb:paint="solid">
      <stop style="stop-color:#ffffff;stop-opacity:0.78212291;" offset="0" id="stop8267"/>
    </linearGradient>
    <linearGradient id="Hoja-sombra-2_-2" osb:paint="solid">
      <stop style="stop-color:#000000;stop-opacity:0.07821229;" offset="0" id="stop8261"/>
    </linearGradient>
    <linearGradient id="Hoja-sombra-1_-9" osb:paint="solid">
      <stop style="stop-color:#000000;stop-opacity:0.15686275;" offset="0" id="stop8255"/>
    </linearGradient>
    <linearGradient id="Pestana-6">
      <stop id="stop7875" offset="0" style="stop-color:#ffffff;stop-opacity:1;"/>
      <stop id="stop7879" offset="1" style="stop-color:#dfdfdf;stop-opacity:1;"/>
    </linearGradient>
    <linearGradient id="Hoja_-5">
      <stop id="stop7831" offset="0" style="stop-color:#f0f0f0;stop-opacity:1;"/>
      <stop id="stop7833" offset="1" style="stop-color:#ffffff;stop-opacity:1"/>
    </linearGradient>
    <linearGradient id="Hoja-sombra-2">
      <stop id="stop8303" offset="0" style="stop-color:#000000;stop-opacity:0"/>
      <stop id="stop8305" offset="1" style="stop-color:#000000;stop-opacity:0.10196079"/>
    </linearGradient>
    <linearGradient inkscape:collect="always" xlink:href="#linearGradient7868" id="linearGradient7870-5-5" x1="99.818436" y1="164.36745" x2="220.99506" y2="164.36745" gradientUnits="userSpaceOnUse"/>
    <linearGradient inkscape:collect="always" id="linearGradient7868">
      <stop style="stop-color:#496fa4;stop-opacity:1" offset="0" id="stop7864"/>
      <stop style="stop-color:#343b41;stop-opacity:1" offset="1" id="stop7866"/>
    </linearGradient>
    <linearGradient inkscape:collect="always" xlink:href="#linearGradient8324" id="linearGradient8326-3-1" x1="115.45162" y1="160" x2="204.02565" y2="160.17421" gradientUnits="userSpaceOnUse"/>
    <linearGradient inkscape:collect="always" id="linearGradient8324">
      <stop style="stop-color:#2b84d0;stop-opacity:1" offset="0" id="stop8320"/>
      <stop style="stop-color:#1767a9;stop-opacity:1" offset="1" id="stop8322"/>
    </linearGradient>
    <linearGradient inkscape:collect="always" xlink:href="#linearGradient7868" id="linearGradient7870-5-6" x1="99.818436" y1="164.36745" x2="220.99506" y2="164.36745" gradientUnits="userSpaceOnUse"/>
    <linearGradient inkscape:collect="always" xlink:href="#linearGradient8324" id="linearGradient8115" gradientUnits="userSpaceOnUse" x1="115.45162" y1="160" x2="204.02565" y2="160.17421"/>
    <linearGradient gradientTransform="matrix(0.93431539,0,0,0.93431539,10.249727,8.2403364)" inkscape:collect="always" xlink:href="#linearGradient8332" id="linearGradient8334" x1="171.60838" y1="145.55653" x2="182.33427" y2="137.02715" gradientUnits="userSpaceOnUse"/>
    <linearGradient inkscape:collect="always" id="linearGradient8332">
      <stop style="stop-color:#ffffff;stop-opacity:1;" offset="0" id="stop8328"/>
      <stop style="stop-color:#ffffff;stop-opacity:0;" offset="1" id="stop8330"/>
    </linearGradient>
    <linearGradient gradientTransform="matrix(0.93431539,0,0,0.93431539,10.432084,12.265518)" inkscape:collect="always" xlink:href="#linearGradient8332" id="linearGradient8342" x1="141.39337" y1="166.84496" x2="131.72212" y2="175.0733" gradientUnits="userSpaceOnUse"/>
    <linearGradient inkscape:collect="always" xlink:href="#linearGradient7868" id="linearGradient7870" x1="99.818436" y1="164.36745" x2="220.99506" y2="164.36745" gradientUnits="userSpaceOnUse"/>
    <linearGradient inkscape:collect="always" xlink:href="#linearGradient8324" id="linearGradient8278" gradientUnits="userSpaceOnUse" x1="115.45162" y1="160" x2="204.02565" y2="160.17421"/>
    <linearGradient gradientTransform="matrix(0.62599131,0,0,0.62599131,-20.332396,-20.220985)" inkscape:collect="always" xlink:href="#linearGradient8332" id="linearGradient8334-2" x1="171.60838" y1="145.55653" x2="182.33427" y2="137.02715" gradientUnits="userSpaceOnUse"/>
    <linearGradient gradientTransform="matrix(0.62599131,0,0,0.62599131,-20.210214,-17.524115)" inkscape:collect="always" xlink:href="#linearGradient8332" id="linearGradient8342-5" x1="141.39337" y1="166.84496" x2="131.72212" y2="175.0733" gradientUnits="userSpaceOnUse"/>
    <linearGradient inkscape:collect="always" xlink:href="#linearGradient7868" id="linearGradient7870-8" x1="99.818436" y1="164.36745" x2="220.99506" y2="164.36745" gradientUnits="userSpaceOnUse"/>
    <linearGradient inkscape:collect="always" xlink:href="#linearGradient8324" id="linearGradient8677" gradientUnits="userSpaceOnUse" x1="115.45162" y1="160" x2="204.02565" y2="160.17421"/>
    <linearGradient gradientTransform="matrix(1.2528701,0,0,1.2528701,71.238623,70.526487)" inkscape:collect="always" xlink:href="#linearGradient8332" id="linearGradient8334-6" x1="171.60838" y1="145.55653" x2="182.33427" y2="137.02715" gradientUnits="userSpaceOnUse"/>
    <linearGradient gradientTransform="matrix(1.2528701,0,0,1.2528701,71.483157,75.92405)" inkscape:collect="always" xlink:href="#linearGradient8332" id="linearGradient8342-9" x1="141.39337" y1="166.84496" x2="131.72212" y2="175.0733" gradientUnits="userSpaceOnUse"/>
    <linearGradient inkscape:collect="always" xlink:href="#linearGradient7868" id="linearGradient7870-5" x1="99.818436" y1="164.36745" x2="220.99506" y2="164.36745" gradientUnits="userSpaceOnUse"/>
    <linearGradient inkscape:collect="always" xlink:href="#linearGradient8324" id="linearGradient8813" gradientUnits="userSpaceOnUse" x1="115.45162" y1="160" x2="204.02565" y2="160.17421"/>
  </defs>
  <sodipodi:namedview pagecolor="#383c4a" bordercolor="#ffffff" borderopacity="0.62745098" objecttolerance="4" gridtolerance="10" guidetolerance="4" inkscape:pageopacity="0" inkscape:pageshadow="2" inkscape:window-width="640" inkscape:window-height="480" id="namedview20" showgrid="true" inkscape:zoom="32.578064" inkscape:cx="-60.729177" inkscape:cy="107.99173" inkscape:current-layer="layer6" inkscape:snap-smooth-nodes="false" showguides="true" borderlayer="true" inkscape:showpageshadow="false" inkscape:guide-bbox="true" guidecolor="#bd4fff" guideopacity="0.78431373" inkscape:snap-nodes="true" inkscape:lockguides="false" fit-margin-top="0" fit-margin-left="0" fit-margin-right="0" fit-margin-bottom="0" guidehicolor="#ff0101" guidehiopacity="0.78431373" inkscape:snap-page="true" inkscape:object-nodes="true" inkscape:snap-bbox="true" inkscape:snap-global="true" inkscape:snap-object-midpoints="false" inkscape:snap-bbox-edge-midpoints="false">
    <inkscape:grid type="xygrid" id="grid4171" empspacing="4" dotted="false" originx="2.7755576e-17" originy="0" spacingx="1" spacingy="1" color="#5a5a5a" opacity="0.23529412" empcolor="#5a5a5a" empopacity="0.47058824" visible="true"/>
    <inkscape:grid type="axonomgrid" id="grid4699" units="mm" empspacing="4" color="#5a5a5a" opacity="0.23529412" empcolor="#5a5a5a" empopacity="0.47058824" gridanglex="45" gridanglez="45" spacingy="3.7795276" visible="false" originx="1.3228346" originy="1.3228346"/>
    <sodipodi:guide position="48,0" orientation="1,0" id="guide4568" inkscape:locked="false" inkscape:label="" inkscape:color="rgb(189,79,255)"/>
    <sodipodi:guide position="111.99996,-3.9999999e-05" orientation="0,1" id="guide4570" inkscape:locked="false" inkscape:label="" inkscape:color="rgb(189,79,255)"/>
    <sodipodi:guide position="0,0" orientation="1,0" id="guide4572" inkscape:locked="false" inkscape:label="" inkscape:color="rgb(189,79,255)"/>
    <sodipodi:guide position="0,48" orientation="0,1" id="guide4574" inkscape:locked="false" inkscape:label="" inkscape:color="rgb(189,79,255)"/>
    <sodipodi:guide position="0,80" orientation="0,1" id="guide4576" inkscape:locked="false" inkscape:label="" inkscape:color="rgb(189,79,255)"/>
    <sodipodi:guide position="-32,48" orientation="1,0" id="guide4578" inkscape:locked="false" inkscape:label="" inkscape:color="rgb(189,79,255)"/>
    <sodipodi:guide position="-32,104" orientation="0,1" id="guide4580" inkscape:locked="false" inkscape:label="" inkscape:color="rgb(189,79,255)"/>
    <sodipodi:guide position="-56,80" orientation="1,0" id="guide4582" inkscape:locked="false" inkscape:label="" inkscape:color="rgb(189,79,255)"/>
    <sodipodi:guide position="48,-64" orientation="0,1" id="guide4584" inkscape:locked="false" inkscape:label="" inkscape:color="rgb(189,79,255)"/>
    <sodipodi:guide position="0,0" orientation="-0.70710678,0.70710678" id="guide4588" inkscape:locked="false" inkscape:label="" inkscape:color="rgb(189,79,255)"/>
    <sodipodi:guide position="-56,80" orientation="-0.70710678,0.70710678" id="guide4573" inkscape:locked="false" inkscape:label="" inkscape:color="rgb(189,79,255)"/>
    <sodipodi:guide position="-32,48" orientation="-0.70710678,0.70710678" id="guide4575" inkscape:locked="false" inkscape:label="" inkscape:color="rgb(189,79,255)"/>
    <sodipodi:guide position="48,-64" orientation="-0.70710678,0.70710678" id="guide4577" inkscape:locked="false" inkscape:label="" inkscape:color="rgb(189,79,255)"/>
    <sodipodi:guide position="47.999962,0" orientation="0.70710678,0.70710678" id="guide4697" inkscape:locked="false" inkscape:label="" inkscape:color="rgb(189,79,255)"/>
    <sodipodi:guide position="207.99995,-288" orientation="0,1" id="guide7833" inkscape:locked="false"/>
    <sodipodi:guide position="335.99994,-288" orientation="1,0" id="guide7835" inkscape:locked="false" inkscape:label="" inkscape:color="rgb(189,79,255)"/>
    <sodipodi:guide position="111.99996,-64" orientation="1,0" id="guide7915" inkscape:locked="false"/>
    <sodipodi:guide position="111.99996,-160" orientation="0,1" id="guide7917" inkscape:locked="false"/>
    <sodipodi:guide position="207.99996,-160" orientation="1,0" id="guide7919" inkscape:locked="false"/>
    <sodipodi:guide position="111.99996,-160" orientation="-0.70710678,0.70710678" id="guide7921" inkscape:locked="false" inkscape:label="" inkscape:color="rgb(189,79,255)"/>
    <sodipodi:guide position="207.99996,-288" orientation="-0.70710678,0.70710678" id="guide7923" inkscape:locked="false" inkscape:label="" inkscape:color="rgb(189,79,255)"/>
    <sodipodi:guide position="-72,104" orientation="1,0" id="guide7824" inkscape:locked="false"/>
    <sodipodi:guide position="-56,120" orientation="0,1" id="guide7826" inkscape:locked="false"/>
    <sodipodi:guide position="-72,104" orientation="-0.70710678,0.70710678" id="guide7828" inkscape:locked="false" inkscape:label="" inkscape:color="rgb(189,79,255)"/>
  </sodipodi:namedview>
  <g inkscape:groupmode="layer" id="layer3" inkscape:label="icon_48" style="display:inline" transform="translate(6.8969723e-7,-4.5367432e-7)">
    <g inkscape:groupmode="layer" id="layer9" inkscape:label="frame" style="display:none">
      <rect inkscape:label="frame_48" y="4.5367432e-07" x="-6.8969723e-07" height="48" width="48" id="frame_48" style="color:#000000;clip-rule:nonzero;display:block;overflow:visible;visibility:visible;opacity:1;isolation:auto;mix-blend-mode:normal;color-interpolation:sRGB;color-interpolation-filters:linearRGB;solid-color:#000000;solid-opacity:1;vector-effect:none;fill:#000000;fill-opacity:1;fill-rule:nonzero;stroke:#ff24f7;stroke-width:0;stroke-linecap:square;stroke-linejoin:miter;stroke-miterlimit:4;stroke-dasharray:none;stroke-dashoffset:0;stroke-opacity:0.99481865;marker:none;marker-start:none;marker-mid:none;marker-end:none;paint-order:normal;color-rendering:auto;image-rendering:auto;shape-rendering:auto;text-rendering:auto;enable-background:accumulate"/>
      <text xml:space="preserve" style="font-size:18.66666603px;line-height:1000%;font-family:sans-serif;letter-spacing:0px;word-spacing:0px;display:inline;opacity:1;fill:#ffffff;fill-opacity:1;stroke:none;stroke-width:0.11166908px;stroke-linecap:butt;stroke-linejoin:miter;stroke-opacity:1" x="12.301435" y="30.794922" id="txt_48" inkscape:label="txt_48">
        <tspan sodipodi:role="line" x="12.301435" y="30.794922" style="font-size:18.66666603px;fill:#ffffff;fill-opacity:1;stroke:none;stroke-width:0.11166908px" id="tspan5049-1">48</tspan>
      </text>
      <text xml:space="preserve" style="font-size:2.66666675px;line-height:1000%;font-family:sans-serif;letter-spacing:0px;word-spacing:0px;display:inline;opacity:1;fill:#ffffff;fill-opacity:0.44791667;stroke:none;stroke-width:0.0588377px;stroke-linecap:butt;stroke-linejoin:miter;stroke-opacity:1" x="25.824219" y="45.962238" id="txt_scalable_32-64" inkscape:label="txt_scalable_32-64">
        <tspan sodipodi:role="line" x="25.824219" y="45.962238" style="font-size:2.66666675px;fill:#ffffff;fill-opacity:0.44791667;stroke:none;stroke-width:0.0588377px" id="tspan5049-1-6">Scalable:32-64</tspan>
      </text>
    </g>
    <g inkscape:groupmode="layer" id="layer10" inkscape:label="icon" style="display:inline">
      <path sodipodi:type="star" style="color:#000000;clip-rule:nonzero;display:block;overflow:visible;visibility:visible;opacity:1;isolation:auto;mix-blend-mode:normal;color-interpolation:sRGB;color-interpolation-filters:linearRGB;solid-color:#000000;solid-opacity:1;vector-effect:none;fill:url(#linearGradient7870-5-6);fill-opacity:1;fill-rule:nonzero;stroke:none;stroke-width:0.06769602;stroke-linecap:butt;stroke-linejoin:miter;stroke-miterlimit:4;stroke-dasharray:none;stroke-dashoffset:0;stroke-opacity:1;marker:none;marker-start:none;marker-mid:none;marker-end:none;paint-order:normal;color-rendering:auto;image-rendering:auto;shape-rendering:auto;text-rendering:auto;enable-background:accumulate" id="path7792-4-6" sodipodi:sides="6" sodipodi:cx="159.99995" sodipodi:cy="160" sodipodi:r1="46.119831" sodipodi:r2="0.46119833" sodipodi:arg1="0.78539816" sodipodi:arg2="1.3089969" inkscape:flatsided="true" inkscape:rounded="0" inkscape:randomized="0" d="m 192.6116,192.61165 -44.54834,11.93669 -32.61164,-32.61165 11.93669,-44.54834 44.54833,-11.93669 32.61165,32.61165 z" transform="matrix(0.35407609,0.35407609,-0.35407609,0.35407609,24.000019,-89.485816)"/>
      <path transform="matrix(0.28326088,0.28326088,-0.28326088,0.28326088,23.99962,-66.825125)" d="m 192.6116,192.61165 -44.54834,11.93669 -32.61164,-32.61165 11.93669,-44.54834 44.54833,-11.93669 32.61165,32.61165 z" inkscape:randomized="0" inkscape:rounded="0" inkscape:flatsided="true" sodipodi:arg2="1.3089969" sodipodi:arg1="0.78539816" sodipodi:r2="0.46119833" sodipodi:r1="46.119831" sodipodi:cy="160" sodipodi:cx="159.99995" sodipodi:sides="6" id="path7874-7-5" style="color:#000000;clip-rule:nonzero;display:block;overflow:visible;visibility:visible;opacity:1;isolation:auto;mix-blend-mode:normal;color-interpolation:sRGB;color-interpolation-filters:linearRGB;solid-color:#000000;solid-opacity:1;vector-effect:none;fill:url(#linearGradient8115);fill-opacity:1;fill-rule:nonzero;stroke:none;stroke-width:0.06769602;stroke-linecap:butt;stroke-linejoin:miter;stroke-miterlimit:4;stroke-dasharray:none;stroke-dashoffset:0;stroke-opacity:1;marker:none;marker-start:none;marker-mid:none;marker-end:none;paint-order:normal;color-rendering:auto;image-rendering:auto;shape-rendering:auto;text-rendering:auto;enable-background:accumulate" sodipodi:type="star"/>
      <path style="color:#000000;clip-rule:nonzero;display:block;overflow:visible;visibility:visible;opacity:1;isolation:auto;mix-blend-mode:normal;color-interpolation:sRGB;color-interpolation-filters:linearRGB;solid-color:#000000;solid-opacity:1;vector-effect:none;fill:#ffffff;fill-opacity:0.05759164;fill-rule:nonzero;stroke:none;stroke-width:0.02711845;stroke-linecap:butt;stroke-linejoin:miter;stroke-miterlimit:4;stroke-dasharray:none;stroke-dashoffset:0;stroke-opacity:1;marker:none;marker-start:none;marker-mid:none;marker-end:none;paint-order:normal;color-rendering:auto;image-rendering:auto;shape-rendering:auto;text-rendering:auto;enable-background:accumulate" d="M 7.9996012,33.055945 7.9996043,14.580738 23.999608,5.3431329 39.999602,14.580735 Z" id="path8394-4-6" inkscape:connector-curvature="0" sodipodi:nodetypes="ccccc"/>
      <path style="color:#000000;clip-rule:nonzero;display:block;overflow:visible;visibility:visible;opacity:1;isolation:auto;mix-blend-mode:normal;color-interpolation:sRGB;color-interpolation-filters:linearRGB;solid-color:#000000;solid-opacity:1;vector-effect:none;fill:#000000;fill-opacity:0.46596859;fill-rule:nonzero;stroke:none;stroke-width:0.02711845;stroke-linecap:butt;stroke-linejoin:miter;stroke-miterlimit:4;stroke-dasharray:none;stroke-dashoffset:0;stroke-opacity:1;marker:none;marker-start:none;marker-mid:none;marker-end:none;paint-order:normal;color-rendering:auto;image-rendering:auto;shape-rendering:auto;text-rendering:auto;enable-background:accumulate" d="M 23.99963,5.343037 7.9995393,14.581172 v 2.458892 L 23.99963,7.8019283 39.999713,17.040064 v -2.458892 z" id="path7886-4-3" inkscape:connector-curvature="0"/>
      <path style="color:#000000;clip-rule:nonzero;display:block;overflow:visible;visibility:visible;opacity:1;isolation:auto;mix-blend-mode:normal;color-interpolation:sRGB;color-interpolation-filters:linearRGB;solid-color:#000000;solid-opacity:1;vector-effect:none;fill:#faf8fb;fill-opacity:0.26178014;fill-rule:nonzero;stroke:none;stroke-width:0.02711845;stroke-linecap:butt;stroke-linejoin:miter;stroke-miterlimit:4;stroke-dasharray:none;stroke-dashoffset:0;stroke-opacity:1;marker:none;marker-start:none;marker-mid:none;marker-end:none;paint-order:normal;color-rendering:auto;image-rendering:auto;shape-rendering:auto;text-rendering:auto;enable-background:accumulate" d="m 7.9995393,33.055512 v 0.491777 L 23.99963,42.785415 39.999713,33.547289 V 33.055512 L 23.99963,42.293635 Z" id="path7893-3-9" inkscape:connector-curvature="0"/>
      <path style="color:#000000;clip-rule:nonzero;display:block;overflow:visible;visibility:visible;opacity:1;isolation:auto;mix-blend-mode:normal;color-interpolation:sRGB;color-interpolation-filters:linearRGB;solid-color:#000000;solid-opacity:1;vector-effect:none;fill:#ffffff;fill-opacity:0.2670157;fill-rule:nonzero;stroke:none;stroke-width:0.03389806;stroke-linecap:butt;stroke-linejoin:miter;stroke-miterlimit:4;stroke-dasharray:none;stroke-dashoffset:0;stroke-opacity:1;marker:none;marker-start:none;marker-mid:none;marker-end:none;paint-order:normal;color-rendering:auto;image-rendering:auto;shape-rendering:auto;text-rendering:auto;enable-background:accumulate" d="M 23.99963,0.72397035 4,12.271156 v 0.491779 L 23.99963,1.2157486 43.999255,12.762935 v -0.491779 z" id="path7898-0-4" inkscape:connector-curvature="0"/>
      <path style="color:#000000;clip-rule:nonzero;display:block;overflow:visible;visibility:visible;opacity:1;isolation:auto;mix-blend-mode:normal;color-interpolation:sRGB;color-interpolation-filters:linearRGB;solid-color:#000000;solid-opacity:1;vector-effect:none;fill:#131a20;fill-opacity:0.33507858;fill-rule:nonzero;stroke:none;stroke-width:0.03389806;stroke-linecap:butt;stroke-linejoin:miter;stroke-miterlimit:4;stroke-dasharray:none;stroke-dashoffset:0;stroke-opacity:1;marker:none;marker-start:none;marker-mid:none;marker-end:none;paint-order:normal;color-rendering:auto;image-rendering:auto;shape-rendering:auto;text-rendering:auto;enable-background:accumulate" d="m 4,35.365525 v 0.983557 L 23.99963,47.89626 43.999255,36.349082 V 35.365525 L 23.99963,46.912699 Z" id="path7953-8-3" inkscape:connector-curvature="0"/>
      <path inkscape:connector-curvature="0" id="path4473-6-1" d="m 26.106052,15.567463 c -0.136852,-0.05204 -0.254601,0.02634 -0.336746,0.138314 l -1.266131,1.728091 0.01304,0.0064 c -0.445829,-0.03704 -0.89426,-0.02893 -1.338458,0.02421 l -1.35238,-1.666715 c -0.08766,-0.107959 -0.2094,-0.180428 -0.343287,-0.120702 l -1.954752,0.869371 c -0.133845,0.0593 -0.160688,0.197163 -0.139777,0.334445 L 19.707777,18.962 c -0.355049,0.29614 -0.678194,0.628556 -0.964175,0.991838 l -2.080742,-0.21661 c -0.138315,-0.01357 -0.275709,0.02075 -0.32823,0.157416 l -0.767555,1.997334 c -0.05214,0.136851 0.02692,0.253243 0.138819,0.335341 l 1.651011,1.21118 c -0.0434,0.482152 -0.03393,0.967604 0.02823,1.447697 l -1.586558,1.288137 c -0.107959,0.08766 -0.180455,0.209427 -0.120835,0.343253 l 0.869371,1.954776 c 0.0593,0.133845 0.197136,0.160821 0.334434,0.139777 l 1.990675,-0.30738 c 0.318585,0.381093 0.678931,0.725231 1.074273,1.025952 l -0.208948,2.006167 c -0.01383,0.138261 0.02075,0.275684 0.157416,0.328243 l 1.997337,0.767542 c 0.136851,0.05214 0.253217,-0.02679 0.335343,-0.13882 l 1.19471,-1.628837 c 0.489281,0.03893 0.98137,0.02349 1.467246,-0.04605 l 1.28503,1.582197 c 0.08766,0.107932 0.209453,0.180455 0.343303,0.120702 l 1.954739,-0.869382 c 0.133844,-0.0593 0.161326,-0.198519 0.140176,-0.335838 l -0.315196,-2.036402 c 0.357484,-0.309485 0.680883,-0.656274 0.964693,-1.034463 l 2.075204,0.214535 c 0.138261,0.01383 0.275187,-0.01942 0.327708,-0.156033 l 0.767497,-1.997259 c 0.05214,-0.136904 -0.02634,-0.254654 -0.138314,-0.336735 l -1.712288,-1.253733 c 0.0313,-0.448281 0.017,-0.898581 -0.04267,-1.343974 l 1.661836,-1.347901 c 0.107959,-0.08766 0.180455,-0.209453 0.120703,-0.343314 l -0.869369,-1.954741 c -0.0593,-0.133844 -0.198519,-0.161326 -0.335825,-0.140176 l -2.117004,0.327016 0.0053,0.01756 c -0.291798,-0.339626 -0.617205,-0.648861 -0.971251,-0.922984 l 0.0053,6.39e-4 0.221505,-2.146987 c 0.01383,-0.138261 -0.01942,-0.275176 -0.156033,-0.327708 l -1.997307,-0.767662 z m -1.378158,6.53725 c 1.046794,0.402285 1.569273,1.576995 1.166992,2.623791 -0.402313,1.046785 -1.577039,1.569234 -2.623825,1.166922 -1.046807,-0.402292 -1.569282,-1.577025 -1.166976,-2.623826 0.402328,-1.046762 1.577037,-1.569191 2.623809,-1.166887 z" style="color:#000000;clip-rule:nonzero;display:inline;overflow:visible;visibility:visible;opacity:1;isolation:auto;mix-blend-mode:normal;color-interpolation:sRGB;color-interpolation-filters:linearRGB;solid-color:#000000;solid-opacity:1;fill:none;fill-opacity:1;fill-rule:nonzero;stroke:#ffffff;stroke-width:0.40000001;stroke-linecap:square;stroke-linejoin:round;stroke-miterlimit:4;stroke-dasharray:none;stroke-dashoffset:0;stroke-opacity:0.72916667;marker:none;marker-start:none;marker-mid:none;marker-end:none;paint-order:stroke fill markers;color-rendering:auto;image-rendering:auto;shape-rendering:auto;text-rendering:auto;enable-background:accumulate" sodipodi:nodetypes="cccccccccccccccccccccccccccccccccccccccccccccccccccccccccc"/>
      <path sodipodi:nodetypes="cccccccccccccccccccccccccccccccccccccccccccccccccccccccccc" style="color:#000000;clip-rule:nonzero;display:inline;overflow:visible;visibility:visible;opacity:1;isolation:auto;mix-blend-mode:normal;color-interpolation:sRGB;color-interpolation-filters:linearRGB;solid-color:#000000;solid-opacity:1;fill:none;fill-opacity:1;fill-rule:nonzero;stroke:#ffffff;stroke-width:0.12122967;stroke-linecap:square;stroke-linejoin:round;stroke-miterlimit:4;stroke-dasharray:none;stroke-dashoffset:0;stroke-opacity:0.72916667;marker:none;marker-start:none;marker-mid:none;marker-end:none;paint-order:stroke fill markers;color-rendering:auto;image-rendering:auto;shape-rendering:auto;text-rendering:auto;enable-background:accumulate" d="m 34.417684,14.018729 c -0.04148,-0.01577 -0.07716,0.008 -0.102059,0.04192 l -0.383732,0.52374 0.004,0.0019 c -0.135119,-0.01123 -0.271027,-0.0088 -0.405652,0.0073 L 33.12037,14.088451 c -0.02657,-0.03272 -0.06346,-0.05468 -0.104042,-0.03658 l -0.592435,0.263484 c -0.04057,0.01797 -0.0487,0.05975 -0.04236,0.101362 l 0.09705,0.630734 c -0.107606,0.08975 -0.205543,0.190499 -0.292217,0.300601 l -0.630619,-0.06565 c -0.04192,-0.0041 -0.08356,0.0063 -0.09948,0.04771 l -0.232626,0.60534 c -0.0158,0.04148 0.0082,0.07675 0.04207,0.101633 l 0.500379,0.367078 c -0.01315,0.146127 -0.01028,0.293255 0.0086,0.438759 l -0.480845,0.390401 c -0.03272,0.02657 -0.05469,0.06347 -0.03662,0.104031 l 0.263484,0.592442 c 0.01797,0.04057 0.05975,0.04874 0.101358,0.04236 l 0.603323,-0.09316 c 0.09655,0.1155 0.205766,0.219799 0.325584,0.31094 l -0.06333,0.608017 c -0.0042,0.0419 0.0063,0.08355 0.04771,0.09948 l 0.605341,0.232622 c 0.04148,0.0158 0.07674,-0.0081 0.101634,-0.04207 l 0.362086,-0.493659 c 0.148288,0.0118 0.297428,0.0071 0.444684,-0.01396 l 0.38946,0.479523 c 0.02657,0.03271 0.06348,0.05469 0.104046,0.03658 l 0.592431,-0.263487 c 0.04056,-0.01797 0.04889,-0.06017 0.04248,-0.101784 l -0.09553,-0.617181 c 0.108344,-0.0938 0.206358,-0.198899 0.292373,-0.313519 l 0.628941,0.06502 c 0.0419,0.0042 0.0834,-0.0059 0.09932,-0.04729 l 0.232608,-0.605318 c 0.0158,-0.04149 -0.008,-0.07718 -0.04192,-0.102055 l -0.51895,-0.379975 c 0.0095,-0.135862 0.0052,-0.272336 -0.01293,-0.407323 l 0.50366,-0.408514 c 0.03272,-0.02657 0.05469,-0.06348 0.03658,-0.10405 l -0.263483,-0.592431 c -0.01797,-0.04057 -0.06017,-0.04889 -0.10178,-0.04248 l -0.641609,0.09911 0.0016,0.0053 c -0.08844,-0.102932 -0.187059,-0.196653 -0.294361,-0.279733 l 0.0016,1.94e-4 0.06713,-0.650696 c 0.0042,-0.0419 -0.0059,-0.0834 -0.04729,-0.09932 L 34.418143,14.018278 Z M 34,16 c 0.317256,0.121923 0.475606,0.477947 0.353685,0.795204 -0.121931,0.317253 -0.47796,0.475594 -0.795214,0.353664 -0.31726,-0.121925 -0.475609,-0.477956 -0.35368,-0.795214 C 33.326726,16.036407 33.68275,15.878073 34,16 Z" id="path8149" inkscape:connector-curvature="0"/>
      <path inkscape:connector-curvature="0" id="path8151" d="m 13.079101,28.018729 c -0.04148,-0.01577 -0.07716,0.008 -0.102059,0.04192 l -0.383732,0.52374 0.004,0.0019 c -0.135119,-0.01123 -0.271027,-0.0088 -0.405652,0.0073 l -0.409871,-0.505138 c -0.02657,-0.03272 -0.06346,-0.05468 -0.104042,-0.03658 l -0.592435,0.263484 c -0.04057,0.01797 -0.0487,0.05975 -0.04236,0.101362 L 11.14,29.047451 c -0.107606,0.08975 -0.205543,0.190499 -0.292217,0.300601 l -0.630619,-0.06565 c -0.04192,-0.0041 -0.08356,0.0063 -0.09948,0.04771 l -0.2326256,0.60534 c -0.0158,0.04148 0.0082,0.07675 0.04207,0.101633 l 0.5003786,0.367078 c -0.01315,0.146127 -0.01028,0.293255 0.0086,0.438759 l -0.4808446,0.390401 c -0.03272,0.02657 -0.05469,0.06347 -0.03662,0.104031 l 0.2634836,0.592442 c 0.01797,0.04057 0.05975,0.04874 0.101358,0.04236 l 0.603323,-0.09316 c 0.09655,0.1155 0.205766,0.219799 0.325584,0.31094 l -0.06333,0.608017 c -0.0042,0.0419 0.0063,0.08355 0.04771,0.09948 l 0.605341,0.232622 c 0.04148,0.0158 0.07674,-0.0081 0.101634,-0.04207 l 0.362086,-0.493659 c 0.148288,0.0118 0.297428,0.0071 0.444684,-0.01396 l 0.38946,0.479523 c 0.02657,0.03271 0.06348,0.05469 0.104046,0.03658 l 0.592431,-0.263487 c 0.04056,-0.01797 0.04889,-0.06017 0.04248,-0.101784 l -0.09553,-0.617181 c 0.108344,-0.0938 0.206358,-0.198899 0.292373,-0.313519 l 0.628941,0.06502 c 0.0419,0.0042 0.0834,-0.0059 0.09932,-0.04729 l 0.232608,-0.605318 c 0.0158,-0.04149 -0.008,-0.07718 -0.04192,-0.102055 l -0.51895,-0.379975 c 0.0095,-0.135862 0.0052,-0.272336 -0.01293,-0.407323 l 0.50366,-0.408514 c 0.03272,-0.02657 0.05469,-0.06348 0.03658,-0.10405 l -0.263483,-0.592431 c -0.01797,-0.04057 -0.06017,-0.04889 -0.10178,-0.04248 l -0.641609,0.09911 0.0016,0.0053 c -0.08844,-0.102932 -0.187059,-0.196653 -0.294361,-0.279733 l 0.0016,1.94e-4 0.06713,-0.650696 c 0.0042,-0.0419 -0.0059,-0.0834 -0.04729,-0.09932 L 13.07956,28.018278 Z M 12.661417,30 c 0.317256,0.121923 0.475606,0.477947 0.353685,0.795204 -0.121931,0.317253 -0.47796,0.475594 -0.795214,0.353664 -0.31726,-0.121925 -0.475609,-0.477956 -0.35368,-0.795214 C 11.988143,30.036407 12.344167,29.878073 12.661417,30 Z" style="color:#000000;clip-rule:nonzero;display:inline;overflow:visible;visibility:visible;opacity:1;isolation:auto;mix-blend-mode:normal;color-interpolation:sRGB;color-interpolation-filters:linearRGB;solid-color:#000000;solid-opacity:1;fill:none;fill-opacity:1;fill-rule:nonzero;stroke:#ffffff;stroke-width:0.12122967;stroke-linecap:square;stroke-linejoin:round;stroke-miterlimit:4;stroke-dasharray:none;stroke-dashoffset:0;stroke-opacity:0.72916667;marker:none;marker-start:none;marker-mid:none;marker-end:none;paint-order:stroke fill markers;color-rendering:auto;image-rendering:auto;shape-rendering:auto;text-rendering:auto;enable-background:accumulate" sodipodi:nodetypes="cccccccccccccccccccccccccccccccccccccccccccccccccccccccccc"/>
      <circle style="color:#000000;clip-rule:nonzero;display:block;overflow:visible;visibility:visible;opacity:0.456;isolation:auto;mix-blend-mode:normal;color-interpolation:sRGB;color-interpolation-filters:linearRGB;solid-color:#000000;solid-opacity:1;vector-effect:none;fill:#fbfcfe;fill-opacity:1;fill-rule:nonzero;stroke:none;stroke-width:0.24539737;stroke-linecap:butt;stroke-linejoin:round;stroke-miterlimit:4;stroke-dasharray:none;stroke-dashoffset:0;stroke-opacity:1;marker:none;marker-start:none;marker-mid:none;marker-end:none;paint-order:normal;color-rendering:auto;image-rendering:auto;shape-rendering:auto;text-rendering:auto;enable-background:accumulate" id="path8366-1-4" cx="41.96286" cy="13.915437" r="0.96228313"/>
      <circle style="color:#000000;clip-rule:nonzero;display:block;overflow:visible;visibility:visible;opacity:0.456;isolation:auto;mix-blend-mode:normal;color-interpolation:sRGB;color-interpolation-filters:linearRGB;solid-color:#000000;solid-opacity:1;vector-effect:none;fill:#fbfcfe;fill-opacity:1;fill-rule:nonzero;stroke:none;stroke-width:0.24539737;stroke-linecap:butt;stroke-linejoin:round;stroke-miterlimit:4;stroke-dasharray:none;stroke-dashoffset:0;stroke-opacity:1;marker:none;marker-start:none;marker-mid:none;marker-end:none;paint-order:normal;color-rendering:auto;image-rendering:auto;shape-rendering:auto;text-rendering:auto;enable-background:accumulate" id="circle8370-5-4" cx="5.9882936" cy="13.619345" r="0.96228313"/>
      <circle r="0.96228313" cy="34.44413" cx="5.9882936" id="circle8372-9-4" style="color:#000000;clip-rule:nonzero;display:block;overflow:visible;visibility:visible;opacity:0.456;isolation:auto;mix-blend-mode:normal;color-interpolation:sRGB;color-interpolation-filters:linearRGB;solid-color:#000000;solid-opacity:1;vector-effect:none;fill:#fbfcfe;fill-opacity:1;fill-rule:nonzero;stroke:none;stroke-width:0.24539737;stroke-linecap:butt;stroke-linejoin:round;stroke-miterlimit:4;stroke-dasharray:none;stroke-dashoffset:0;stroke-opacity:1;marker:none;marker-start:none;marker-mid:none;marker-end:none;paint-order:normal;color-rendering:auto;image-rendering:auto;shape-rendering:auto;text-rendering:auto;enable-background:accumulate"/>
      <circle style="color:#000000;clip-rule:nonzero;display:block;overflow:visible;visibility:visible;opacity:0.456;isolation:auto;mix-blend-mode:normal;color-interpolation:sRGB;color-interpolation-filters:linearRGB;solid-color:#000000;solid-opacity:1;vector-effect:none;fill:#fbfcfe;fill-opacity:1;fill-rule:nonzero;stroke:none;stroke-width:0.24539737;stroke-linecap:butt;stroke-linejoin:round;stroke-miterlimit:4;stroke-dasharray:none;stroke-dashoffset:0;stroke-opacity:1;marker:none;marker-start:none;marker-mid:none;marker-end:none;paint-order:normal;color-rendering:auto;image-rendering:auto;shape-rendering:auto;text-rendering:auto;enable-background:accumulate" id="circle8374-4-4" cx="24.04961" cy="44.757843" r="0.96228313"/>
      <circle r="0.96228313" cy="34.493484" cx="41.666767" id="circle8376-9-7" style="color:#000000;clip-rule:nonzero;display:block;overflow:visible;visibility:visible;opacity:0.456;isolation:auto;mix-blend-mode:normal;color-interpolation:sRGB;color-interpolation-filters:linearRGB;solid-color:#000000;solid-opacity:1;vector-effect:none;fill:#fbfcfe;fill-opacity:1;fill-rule:nonzero;stroke:none;stroke-width:0.24539737;stroke-linecap:butt;stroke-linejoin:round;stroke-miterlimit:4;stroke-dasharray:none;stroke-dashoffset:0;stroke-opacity:1;marker:none;marker-start:none;marker-mid:none;marker-end:none;paint-order:normal;color-rendering:auto;image-rendering:auto;shape-rendering:auto;text-rendering:auto;enable-background:accumulate"/>
      <circle r="0.96228313" cy="3.4043372" cx="24.000265" id="circle8386-0-6" style="color:#000000;clip-rule:nonzero;display:block;overflow:visible;visibility:visible;opacity:0.456;isolation:auto;mix-blend-mode:normal;color-interpolation:sRGB;color-interpolation-filters:linearRGB;solid-color:#000000;solid-opacity:1;vector-effect:none;fill:#fbfcfe;fill-opacity:1;fill-rule:nonzero;stroke:none;stroke-width:0.24539737;stroke-linecap:butt;stroke-linejoin:round;stroke-miterlimit:4;stroke-dasharray:none;stroke-dashoffset:0;stroke-opacity:1;marker:none;marker-start:none;marker-mid:none;marker-end:none;paint-order:normal;color-rendering:auto;image-rendering:auto;shape-rendering:auto;text-rendering:auto;enable-background:accumulate"/>
    </g>
  </g>
</svg>