<?xml version="1.0" encoding="UTF-8" standalone="yes"?>
<svg xmlns:osb="http://www.openswatchbook.org/uri/2009/osb" xmlns:dc="http://purl.org/dc/elements/1.1/" xmlns:cc="http://creativecommons.org/ns#" xmlns:rdf="http://www.w3.org/1999/02/22-rdf-syntax-ns#" xmlns:svg="http://www.w3.org/2000/svg" xmlns="http://www.w3.org/2000/svg" xmlns:xlink="http://www.w3.org/1999/xlink" xmlns:sodipodi="http://sodipodi.sourceforge.net/DTD/sodipodi-0.dtd" xmlns:inkscape="http://www.inkscape.org/namespaces/inkscape" height="128" viewBox="0 0 128 128" width="128" id="svg2" version="1.1" inkscape:version="0.92.2 5c3e80d, 2017-08-06" sodipodi:docname="text-x-generic-template.svg" enable-background="new" folder="128">
  <title id="title4675">Template icons dark</title>
  <metadata id="metadata24">
    <rdf:RDF>
      <cc:Work rdf:about="">
        <dc:format>image/svg+xml</dc:format>
        <dc:type rdf:resource="http://purl.org/dc/dcmitype/StillImage"/>
        <dc:title>Template icons dark</dc:title>
        <dc:date>17/05/13</dc:date>
        <dc:creator>
          <cc:Agent>
            <dc:title>wfpaisa</dc:title>
          </cc:Agent>
        </dc:creator>
        <dc:rights>
          <cc:Agent>
            <dc:title>License: GPLv3</dc:title>
          </cc:Agent>
        </dc:rights>
        <dc:language>es-en</dc:language>
        <dc:subject>
          <rdf:Bag>
            <rdf:li>plane-icon-theme</rdf:li>
          </rdf:Bag>
        </dc:subject>
        <dc:description>Template for create set icons</dc:description>
        <cc:license rdf:resource="https://www.gnu.org/licenses/gpl-3.0.en.html"/>
      </cc:Work>
    </rdf:RDF>
  </metadata>
  <defs id="defs22">
    <linearGradient id="Pestana-sombra-3" osb:paint="solid">
      <stop style="stop-color:#000000;stop-opacity:0.19553073;" offset="0" id="stop8273"/>
    </linearGradient>
    <linearGradient id="Hoja-brillo-8" osb:paint="solid">
      <stop style="stop-color:#ffffff;stop-opacity:0.33333334;" offset="0" id="stop8267"/>
    </linearGradient>
    <linearGradient id="Hoja-sombra-2_-2" osb:paint="solid">
      <stop style="stop-color:#000000;stop-opacity:0.00877193;" offset="0" id="stop8261"/>
    </linearGradient>
    <linearGradient id="Hoja-sombra-1_-9" osb:paint="solid">
      <stop style="stop-color:#000000;stop-opacity:0.03070175;" offset="0" id="stop8255"/>
    </linearGradient>
    <linearGradient id="Pestana-6">
      <stop id="stop7875" offset="0" style="stop-color:#5ebfff;stop-opacity:1;"/>
      <stop id="stop7879" offset="1" style="stop-color:#40b3ff;stop-opacity:1;"/>
    </linearGradient>
    <linearGradient id="Hoja_-5">
      <stop id="stop7831" offset="0" style="stop-color:#36afff;stop-opacity:1;"/>
      <stop id="stop7833" offset="1" style="stop-color:#0090ee;stop-opacity:1;"/>
    </linearGradient>
    <linearGradient inkscape:collect="always" xlink:href="#Hoja_-5" id="linearGradient8848" gradientUnits="userSpaceOnUse" gradientTransform="matrix(2.1943448,0,0,2.19615,107.37835,109.17328)" x1="24.116938" y1="4.9307919" x2="24.058121" y2="42.556389"/>
    <linearGradient inkscape:collect="always" xlink:href="#Pestana-6" id="linearGradient8852" gradientUnits="userSpaceOnUse" gradientTransform="matrix(2.5078225,0,0,2.19615,97.006583,108.93197)" x1="33.093815" y1="10.50385" x2="29.903797" y2="14.146588"/>
    <linearGradient inkscape:collect="always" xlink:href="#Hoja_-5" id="linearGradient7823-7" gradientUnits="userSpaceOnUse" x1="24.116938" y1="4.9307919" x2="24.058121" y2="42.556389" gradientTransform="matrix(1.1194338,0,0,1.1203548,-2.9435792,-2.6942142)"/>
    <linearGradient inkscape:collect="always" xlink:href="#Hoja-sombra-2" id="linearGradient7865-3" gradientUnits="userSpaceOnUse" gradientTransform="matrix(1.1194338,0,0,1.1203548,-2.9435792,-2.6942142)" x1="26.072924" y1="18.962273" x2="34.373611" y2="10.815324"/>
    <linearGradient inkscape:collect="always" xlink:href="#Pestana-6" id="linearGradient7825-6" gradientUnits="userSpaceOnUse" x1="34.176132" y1="10.27618" x2="30.758255" y2="13.691247" gradientTransform="matrix(1.2793529,0,0,1.1203548,-8.2346867,-2.8173169)"/>
    <linearGradient id="Hoja-16_-2">
      <stop style="stop-color:#ffffff;stop-opacity:0.25;" offset="0" id="stop7714"/>
      <stop style="stop-color:#ffffff;stop-opacity:0.28289473;" offset="1" id="stop7716"/>
    </linearGradient>
    <linearGradient inkscape:collect="always" xlink:href="#Hoja_-5" id="linearGradient7909" gradientUnits="userSpaceOnUse" gradientTransform="matrix(1.4628966,0,0,1.4641001,44.91893,46.115528)" x1="24.116938" y1="4.9307919" x2="24.058121" y2="42.556389"/>
    <linearGradient inkscape:collect="always" xlink:href="#Hoja-sombra-2" id="linearGradient7911" gradientUnits="userSpaceOnUse" gradientTransform="matrix(1.4628966,0,0,1.4641001,44.91893,46.115528)" x1="26.072924" y1="18.962273" x2="34.373611" y2="10.815324"/>
    <linearGradient inkscape:collect="always" xlink:href="#Pestana-6" id="linearGradient7913" gradientUnits="userSpaceOnUse" gradientTransform="matrix(1.6718818,0,0,1.4641001,38.00441,45.954658)" x1="34.176132" y1="10.27618" x2="30.758255" y2="13.691247"/>
    <linearGradient inkscape:collect="always" xlink:href="#Hoja-sombra-2" id="linearGradient8850-3" gradientUnits="userSpaceOnUse" gradientTransform="matrix(2.1943448,0,0,2.19615,107.37835,109.17328)" x1="23.980556" y1="23.143555" x2="45.854969" y2="1.2871252"/>
    <linearGradient inkscape:collect="always" xlink:href="#Hoja-sombra-2" id="linearGradient4621" gradientUnits="userSpaceOnUse" gradientTransform="matrix(2.1943448,0,0,2.19615,107.37835,109.17328)" x1="23.980556" y1="23.143555" x2="2.1061459" y2="44.999985"/>
    <linearGradient inkscape:collect="always" xlink:href="#Hoja-sombra-2" id="linearGradient8301" gradientUnits="userSpaceOnUse" gradientTransform="matrix(2.1943448,0,0,2.19615,107.37835,109.17328)" x1="23.980556" y1="23.143555" x2="45.854969" y2="44.999985"/>
    <linearGradient id="Hoja-sombra-2">
      <stop id="stop8303" offset="0" style="stop-color:#000000;stop-opacity:0"/>
      <stop id="stop8305" offset="1" style="stop-color:#000000;stop-opacity:0.10196079"/>
    </linearGradient>
    <linearGradient inkscape:collect="always" xlink:href="#Hoja-sombra-2" id="linearGradient7895" gradientUnits="userSpaceOnUse" gradientTransform="matrix(2.1943448,0,0,2.19615,107.37835,109.17328)" x1="23.980556" y1="23.143555" x2="2.1061459" y2="1.2871252"/>
    <linearGradient inkscape:collect="always" xlink:href="#Hoja_-5" id="linearGradient7818" gradientUnits="userSpaceOnUse" gradientTransform="matrix(0.74628918,0,0,0.74690318,-33.962385,-33.796142)" x1="24.116938" y1="4.9307919" x2="24.058121" y2="42.556389"/>
    <linearGradient inkscape:collect="always" xlink:href="#Pestana-6" id="linearGradient7822" gradientUnits="userSpaceOnUse" gradientTransform="matrix(0.85290191,0,0,0.74690318,-37.489791,-33.878211)" x1="28.713491" y1="15.702977" x2="25.196087" y2="18.581003"/>
    <linearGradient inkscape:collect="always" xlink:href="#Hoja-sombra-1_-9" id="linearGradient8259" x1="125.99999" y1="161.5" x2="193.99999" y2="161.5" gradientUnits="userSpaceOnUse"/>
    <linearGradient inkscape:collect="always" xlink:href="#Hoja-sombra-2_-2" id="linearGradient8265" x1="125" y1="161.49999" x2="195" y2="161.49999" gradientUnits="userSpaceOnUse"/>
    <linearGradient inkscape:collect="always" xlink:href="#Hoja-brillo-8" id="linearGradient8271" x1="126.99999" y1="120.5" x2="168.99999" y2="120.5" gradientUnits="userSpaceOnUse"/>
    <linearGradient inkscape:collect="always" xlink:href="#Pestana-sombra-3" id="linearGradient8277" x1="165.99999" y1="133.47244" x2="192.99999" y2="133.47244" gradientUnits="userSpaceOnUse"/>
    <linearGradient gradientTransform="matrix(1.33333,0,0,1.33333,58.6672,56.167208)" inkscape:collect="always" xlink:href="#Hoja-sombra-2_-2" id="linearGradient8265-7" x1="125" y1="161.49998" x2="195" y2="161.49998" gradientUnits="userSpaceOnUse"/>
    <linearGradient gradientTransform="matrix(1.33333,0,0,1.33333,58.6672,56.167208)" inkscape:collect="always" xlink:href="#Hoja-sombra-1_-9" id="linearGradient8259-9" x1="125.99999" y1="161.5" x2="193.99998" y2="161.5" gradientUnits="userSpaceOnUse"/>
    <linearGradient inkscape:collect="always" xlink:href="#Hoja_-5" id="linearGradient8848-4" gradientUnits="userSpaceOnUse" gradientTransform="matrix(2.9257858,0,0,2.9281927,201.83798,201.73122)" x1="24.116938" y1="4.9307919" x2="24.058121" y2="42.556389"/>
    <linearGradient inkscape:collect="always" xlink:href="#Hoja-sombra-2" id="linearGradient8301-3" gradientUnits="userSpaceOnUse" gradientTransform="matrix(2.9257858,0,0,2.9281927,201.83798,201.73122)" x1="23.980556" y1="23.143555" x2="45.854969" y2="44.999985"/>
    <linearGradient inkscape:collect="always" xlink:href="#Hoja-sombra-2" id="linearGradient4621-0" gradientUnits="userSpaceOnUse" gradientTransform="matrix(2.9257858,0,0,2.9281927,201.83798,201.73122)" x1="23.980556" y1="23.143555" x2="2.1061459" y2="44.999985"/>
    <linearGradient inkscape:collect="always" xlink:href="#Hoja-sombra-2" id="linearGradient8850-3-8" gradientUnits="userSpaceOnUse" gradientTransform="matrix(2.9257858,0,0,2.9281927,201.83798,201.73122)" x1="23.980556" y1="23.143555" x2="45.854969" y2="1.2871252"/>
    <linearGradient inkscape:collect="always" xlink:href="#Hoja-sombra-2" id="linearGradient7895-1" gradientUnits="userSpaceOnUse" gradientTransform="matrix(2.9257858,0,0,2.9281927,201.83798,201.73122)" x1="23.980556" y1="23.143555" x2="2.1061459" y2="1.2871252"/>
    <linearGradient gradientTransform="matrix(1.33333,0,0,1.33333,58.6672,56.167208)" inkscape:collect="always" xlink:href="#Hoja-brillo-8" id="linearGradient8271-9" x1="126.99999" y1="120.5" x2="168.99998" y2="120.5" gradientUnits="userSpaceOnUse"/>
    <linearGradient gradientTransform="matrix(1.33333,0,0,1.33333,58.6672,56.167208)" inkscape:collect="always" xlink:href="#Pestana-sombra-3" id="linearGradient8277-7" x1="165.99998" y1="133.47244" x2="192.99998" y2="133.47244" gradientUnits="userSpaceOnUse"/>
    <linearGradient inkscape:collect="always" xlink:href="#Pestana-6" id="linearGradient8852-2" gradientUnits="userSpaceOnUse" gradientTransform="matrix(3.343755,0,0,2.9281927,188.00898,201.40947)" x1="33.093815" y1="10.50385" x2="29.903797" y2="14.146588"/>
    <linearGradient inkscape:collect="always" xlink:href="#Hoja_-5" id="linearGradient8613" x1="-43.047825" y1="-34" x2="-43.047825" y2="-28" gradientUnits="userSpaceOnUse"/>
    <linearGradient gradientTransform="translate(0.0025287,0.00911844)" inkscape:collect="always" xlink:href="#patron-6" id="linearGradient9428" gradientUnits="userSpaceOnUse" x1="188" y1="173.49998" x2="189" y2="173.49998"/>
    <linearGradient id="patron-6" osb:paint="solid">
      <stop style="stop-color:#ffffff;stop-opacity:0.27843139;" offset="0" id="stop9305"/>
    </linearGradient>
    <linearGradient gradientTransform="matrix(1.3331528,0,0,1.3374408,58.689935,55.49812)" inkscape:collect="always" xlink:href="#patron-6" id="linearGradient9428-3" gradientUnits="userSpaceOnUse" x1="188" y1="173.49998" x2="189" y2="173.49998"/>
    <linearGradient gradientTransform="matrix(0.66625707,0,0,0.67462792,-26.614534,-27.958409)" inkscape:collect="always" xlink:href="#patron-6" id="linearGradient9428-2" gradientUnits="userSpaceOnUse" x1="188" y1="173.49998" x2="189" y2="173.49998"/>
    <linearGradient gradientTransform="matrix(0.49999999,0,0,0.50607896,-56.499996,-57.739183)" inkscape:collect="always" xlink:href="#patron-6" id="linearGradient9428-36" gradientUnits="userSpaceOnUse" x1="188" y1="173.49998" x2="189" y2="173.49998"/>
    <linearGradient inkscape:collect="always" xlink:href="#Hoja_-5" id="linearGradient7818-3" gradientUnits="userSpaceOnUse" gradientTransform="matrix(0.74628918,0,0,0.74690318,-6.962385,-3.796142)" x1="24.116938" y1="4.9307919" x2="24.058121" y2="42.556389"/>
    <linearGradient gradientTransform="translate(69,70.00001)" inkscape:collect="always" xlink:href="#Hoja_-5" id="linearGradient8613-3" x1="-43.047825" y1="-34" x2="-43.047825" y2="-28" gradientUnits="userSpaceOnUse"/>
    <linearGradient inkscape:collect="always" xlink:href="#Hoja_-5" id="linearGradient7818-9" gradientUnits="userSpaceOnUse" gradientTransform="matrix(0.74628918,0,0,0.74690318,36.037615,37.203858)" x1="24.116938" y1="4.9307919" x2="24.058121" y2="42.556389"/>
  </defs>
  <sodipodi:namedview pagecolor="#ffffff" bordercolor="#ffffff" borderopacity="0.62745098" objecttolerance="4" gridtolerance="10" guidetolerance="4" inkscape:pageopacity="0" inkscape:pageshadow="2" inkscape:window-width="640" inkscape:window-height="480" id="namedview20" showgrid="true" inkscape:zoom="32.578064" inkscape:cx="238.34857" inkscape:cy="-280.54463" inkscape:current-layer="layer12" inkscape:snap-smooth-nodes="false" showguides="true" borderlayer="true" inkscape:showpageshadow="false" inkscape:guide-bbox="true" guidecolor="#bd4fff" guideopacity="0.78431373" inkscape:snap-nodes="true" inkscape:lockguides="false" fit-margin-top="0" fit-margin-left="0" fit-margin-right="0" fit-margin-bottom="0" guidehicolor="#ff0101" guidehiopacity="0.78431373" inkscape:snap-page="true" inkscape:object-nodes="true" inkscape:snap-bbox="true" inkscape:snap-global="true" inkscape:snap-object-midpoints="false" inkscape:snap-bbox-edge-midpoints="false">
    <inkscape:grid type="xygrid" id="grid4171" empspacing="4" dotted="false" originx="2.7755576e-17" originy="0" spacingx="1" spacingy="1" color="#000000" opacity="0.09411765" empcolor="#000000" empopacity="0.19607843" visible="true"/>
    <inkscape:grid type="axonomgrid" id="grid4699" units="mm" empspacing="4" color="#5a5a5a" opacity="0.23529412" empcolor="#5a5a5a" empopacity="0.47058824" gridanglex="45" gridanglez="45" spacingy="3.7795276" visible="false" originx="1.3228346" originy="1.3228346"/>
    <sodipodi:guide position="48,0" orientation="1,0" id="guide4568" inkscape:locked="false" inkscape:label="" inkscape:color="rgb(189,79,255)"/>
    <sodipodi:guide position="111.99996,-3.9999999e-05" orientation="0,1" id="guide4570" inkscape:locked="false" inkscape:label="" inkscape:color="rgb(189,79,255)"/>
    <sodipodi:guide position="0,0" orientation="1,0" id="guide4572" inkscape:locked="false" inkscape:label="" inkscape:color="rgb(189,79,255)"/>
    <sodipodi:guide position="0,48" orientation="0,1" id="guide4574" inkscape:locked="false" inkscape:label="" inkscape:color="rgb(189,79,255)"/>
    <sodipodi:guide position="0,80" orientation="0,1" id="guide4576" inkscape:locked="false" inkscape:label="" inkscape:color="rgb(189,79,255)"/>
    <sodipodi:guide position="-32,48" orientation="1,0" id="guide4578" inkscape:locked="false" inkscape:label="" inkscape:color="rgb(189,79,255)"/>
    <sodipodi:guide position="-32,104" orientation="0,1" id="guide4580" inkscape:locked="false" inkscape:label="" inkscape:color="rgb(189,79,255)"/>
    <sodipodi:guide position="-56,80" orientation="1,0" id="guide4582" inkscape:locked="false" inkscape:label="" inkscape:color="rgb(189,79,255)"/>
    <sodipodi:guide position="48,-64" orientation="0,1" id="guide4584" inkscape:locked="false" inkscape:label="" inkscape:color="rgb(189,79,255)"/>
    <sodipodi:guide position="0,0" orientation="-0.70710678,0.70710678" id="guide4588" inkscape:locked="false" inkscape:label="" inkscape:color="rgb(189,79,255)"/>
    <sodipodi:guide position="-56,80" orientation="-0.70710678,0.70710678" id="guide4573" inkscape:locked="false" inkscape:label="" inkscape:color="rgb(189,79,255)"/>
    <sodipodi:guide position="-32,48" orientation="-0.70710678,0.70710678" id="guide4575" inkscape:locked="false" inkscape:label="" inkscape:color="rgb(189,79,255)"/>
    <sodipodi:guide position="48,-64" orientation="-0.70710678,0.70710678" id="guide4577" inkscape:locked="false" inkscape:label="" inkscape:color="rgb(189,79,255)"/>
    <sodipodi:guide position="47.999962,0" orientation="0.70710678,0.70710678" id="guide4697" inkscape:locked="false" inkscape:label="" inkscape:color="rgb(189,79,255)"/>
    <sodipodi:guide position="207.99995,-288" orientation="0,1" id="guide7833" inkscape:locked="false"/>
    <sodipodi:guide position="335.99994,-288" orientation="1,0" id="guide7835" inkscape:locked="false" inkscape:label="" inkscape:color="rgb(189,79,255)"/>
    <sodipodi:guide position="111.99996,-64" orientation="1,0" id="guide7915" inkscape:locked="false"/>
    <sodipodi:guide position="111.99996,-160" orientation="0,1" id="guide7917" inkscape:locked="false"/>
    <sodipodi:guide position="207.99996,-160" orientation="1,0" id="guide7919" inkscape:locked="false"/>
    <sodipodi:guide position="111.99996,-160" orientation="-0.70710678,0.70710678" id="guide7921" inkscape:locked="false" inkscape:label="" inkscape:color="rgb(189,79,255)"/>
    <sodipodi:guide position="207.99996,-288" orientation="-0.70710678,0.70710678" id="guide7923" inkscape:locked="false" inkscape:label="" inkscape:color="rgb(189,79,255)"/>
    <sodipodi:guide position="-72,104" orientation="1,0" id="guide7824" inkscape:locked="false"/>
    <sodipodi:guide position="-56,120" orientation="0,1" id="guide7826" inkscape:locked="false"/>
    <sodipodi:guide position="-72,104" orientation="-0.70710678,0.70710678" id="guide7828" inkscape:locked="false" inkscape:label="" inkscape:color="rgb(189,79,255)"/>
  </sodipodi:namedview>
  <g inkscape:groupmode="layer" id="layer4" inkscape:label="icon_128" style="display:inline" transform="translate(-207.99995,-208)">
    <g inkscape:groupmode="layer" id="layer11" inkscape:label="frame" style="display:none">
      <rect inkscape:label="frame_128" y="208" x="207.99995" height="128" width="128" id="frame_128" style="color:#000000;clip-rule:nonzero;display:inline;overflow:visible;visibility:visible;opacity:1;isolation:auto;mix-blend-mode:normal;color-interpolation:sRGB;color-interpolation-filters:linearRGB;solid-color:#000000;solid-opacity:1;vector-effect:none;fill:#000000;fill-opacity:1;fill-rule:nonzero;stroke:#ff24f7;stroke-width:0;stroke-linecap:square;stroke-linejoin:miter;stroke-miterlimit:4;stroke-dasharray:none;stroke-dashoffset:0;stroke-opacity:0.99481865;marker:none;marker-start:none;marker-mid:none;marker-end:none;paint-order:normal;color-rendering:auto;image-rendering:auto;shape-rendering:auto;text-rendering:auto;enable-background:accumulate"/>
      <text xml:space="preserve" style="font-size:38.46457672px;line-height:0%;font-family:sans-serif;letter-spacing:0px;word-spacing:0px;display:inline;opacity:1;fill:#ffffff;fill-opacity:1;stroke:none;stroke-width:0.07881754px;stroke-linecap:butt;stroke-linejoin:miter;stroke-opacity:1" x="236.17479" y="283.34512" id="txt_128" inkscape:label="txt_128">
        <tspan sodipodi:role="line" x="236.17479" y="283.34512" style="font-size:38.46457672px;line-height:0%;fill:#ffffff;fill-opacity:1;stroke:none;stroke-width:0.07881754px" id="tspan5069-6">128</tspan>
      </text>
      <text xml:space="preserve" style="font-size:7.43228436px;line-height:1000%;font-family:sans-serif;letter-spacing:0px;word-spacing:0px;display:inline;opacity:1;fill:#ffffff;fill-opacity:0.42156863;stroke:none;stroke-width:0.16398695px;stroke-linecap:butt;stroke-linejoin:miter;stroke-opacity:1" x="265.97781" y="330.1329" id="txt_scalable_64_512" inkscape:label="txt_scalable_64_512">
        <tspan sodipodi:role="line" x="265.97781" y="330.1329" style="font-size:8.08990479px;fill:#ffffff;fill-opacity:0.42156863;stroke:none;stroke-width:0.16398695px" id="tspan5049-1-6-6">Scalable:96-512</tspan>
      </text>
    </g>
    <g inkscape:groupmode="layer" id="layer12" inkscape:label="icon" style="display:inline">
      <path inkscape:label="Hoja sombra 2" sodipodi:nodetypes="cccccc" inkscape:connector-curvature="0" id="path4587-4" d="m 226,214 h 58 l 34,34 v 81 h -92 z" style="color:#000000;clip-rule:nonzero;display:inline;overflow:visible;visibility:visible;opacity:1;isolation:auto;mix-blend-mode:normal;color-interpolation:sRGB;color-interpolation-filters:linearRGB;solid-color:#000000;solid-opacity:1;vector-effect:none;fill:url(#linearGradient8265-7);fill-opacity:1;fill-rule:nonzero;stroke:none;stroke-width:1.17154503;stroke-linecap:butt;stroke-linejoin:miter;stroke-miterlimit:4;stroke-dasharray:none;stroke-dashoffset:0;stroke-opacity:1;marker:none;marker-start:none;marker-mid:none;marker-end:none;paint-order:fill markers stroke;color-rendering:auto;image-rendering:auto;shape-rendering:auto;text-rendering:auto;enable-background:accumulate"/>
      <path style="color:#000000;clip-rule:nonzero;display:inline;overflow:visible;visibility:visible;opacity:1;isolation:auto;mix-blend-mode:normal;color-interpolation:sRGB;color-interpolation-filters:linearRGB;solid-color:#000000;solid-opacity:1;vector-effect:none;fill:url(#linearGradient8259-9);fill-opacity:1;fill-rule:nonzero;stroke:none;stroke-width:1.13587642;stroke-linecap:butt;stroke-linejoin:miter;stroke-miterlimit:4;stroke-dasharray:none;stroke-dashoffset:0;stroke-opacity:1;marker:none;marker-start:none;marker-mid:none;marker-end:none;paint-order:fill markers stroke;color-rendering:auto;image-rendering:auto;shape-rendering:auto;text-rendering:auto;enable-background:accumulate" d="m 227,215 h 57 l 33,33 v 80 h -90 z" id="path8778-9" inkscape:connector-curvature="0" sodipodi:nodetypes="cccccc" inkscape:label="Hoja sombra 1"/>
      <path inkscape:label="Hoja" sodipodi:nodetypes="cccccc" inkscape:connector-curvature="0" id="path8780-0" d="m 228,216 h 56 l 32,32 c 3.4e-4,26.22216 0,79 0,79 h -88 c -6e-5,-36.8888 -2e-5,-74.1112 0,-111 z" style="color:#000000;clip-rule:nonzero;display:inline;overflow:visible;visibility:visible;opacity:1;isolation:auto;mix-blend-mode:normal;color-interpolation:sRGB;color-interpolation-filters:linearRGB;solid-color:#000000;solid-opacity:1;vector-effect:none;fill:url(#linearGradient8848-4);fill-opacity:1;fill-rule:nonzero;stroke:none;stroke-width:1.10494101;stroke-linecap:butt;stroke-linejoin:miter;stroke-miterlimit:4;stroke-dasharray:none;stroke-dashoffset:0;stroke-opacity:1;marker:none;marker-start:none;marker-mid:none;marker-end:none;paint-order:fill markers stroke;color-rendering:auto;image-rendering:auto;shape-rendering:auto;text-rendering:auto;enable-background:accumulate"/>
      <path style="color:#000000;clip-rule:nonzero;display:inline;overflow:visible;visibility:visible;opacity:1;isolation:auto;mix-blend-mode:normal;color-interpolation:sRGB;color-interpolation-filters:linearRGB;solid-color:#000000;solid-opacity:1;vector-effect:none;fill:url(#linearGradient8301-3);fill-opacity:1;fill-rule:nonzero;stroke:none;stroke-width:1.10494101;stroke-linecap:butt;stroke-linejoin:miter;stroke-miterlimit:4;stroke-dasharray:none;stroke-dashoffset:0;stroke-opacity:1;marker:none;marker-start:none;marker-mid:none;marker-end:none;paint-order:fill markers stroke;color-rendering:auto;image-rendering:auto;shape-rendering:auto;text-rendering:auto;enable-background:accumulate" d="m 228,216 h 56 l 32,32 c 3.4e-4,26.22216 -5.2e-4,52.77784 0,79 h -88 z" id="path8299-2" inkscape:connector-curvature="0" sodipodi:nodetypes="cccccc" inkscape:label="Hoja sombra inferior derecha"/>
      <path inkscape:label="Hoja sombra inferior izquierda" sodipodi:nodetypes="cccccc" inkscape:connector-curvature="0" id="path4619-0" d="m 228,216 h 56 l 32,32 c 3.4e-4,26.22216 -5.2e-4,52.77784 0,79 h -88 z" style="color:#000000;clip-rule:nonzero;display:inline;overflow:visible;visibility:visible;opacity:1;isolation:auto;mix-blend-mode:normal;color-interpolation:sRGB;color-interpolation-filters:linearRGB;solid-color:#000000;solid-opacity:1;vector-effect:none;fill:url(#linearGradient4621-0);fill-opacity:1;fill-rule:nonzero;stroke:none;stroke-width:1.10494101;stroke-linecap:butt;stroke-linejoin:miter;stroke-miterlimit:4;stroke-dasharray:none;stroke-dashoffset:0;stroke-opacity:1;marker:none;marker-start:none;marker-mid:none;marker-end:none;paint-order:fill markers stroke;color-rendering:auto;image-rendering:auto;shape-rendering:auto;text-rendering:auto;enable-background:accumulate"/>
      <path style="color:#000000;clip-rule:nonzero;display:inline;overflow:visible;visibility:visible;opacity:1;isolation:auto;mix-blend-mode:normal;color-interpolation:sRGB;color-interpolation-filters:linearRGB;solid-color:#000000;solid-opacity:1;vector-effect:none;fill:url(#linearGradient8850-3-8);fill-opacity:1;fill-rule:nonzero;stroke:none;stroke-width:1.10494101;stroke-linecap:butt;stroke-linejoin:miter;stroke-miterlimit:4;stroke-dasharray:none;stroke-dashoffset:0;stroke-opacity:1;marker:none;marker-start:none;marker-mid:none;marker-end:none;paint-order:fill markers stroke;color-rendering:auto;image-rendering:auto;shape-rendering:auto;text-rendering:auto;enable-background:accumulate" d="m 228,216 h 56 l 32,32 c 3.4e-4,26.22216 -5.2e-4,52.77784 0,79 h -88 z" id="path8782-6-1" inkscape:connector-curvature="0" sodipodi:nodetypes="cccccc" inkscape:label="Hoja sombra superior derecha"/>
      <path inkscape:label="Hoja sombra superior izquierda" sodipodi:nodetypes="cccccc" inkscape:connector-curvature="0" id="path7893-9" d="m 228,216 h 56 l 32,32 c 3.4e-4,26.22216 -5.2e-4,52.77784 0,79 h -88 z" style="color:#000000;clip-rule:nonzero;display:inline;overflow:visible;visibility:visible;opacity:1;isolation:auto;mix-blend-mode:normal;color-interpolation:sRGB;color-interpolation-filters:linearRGB;solid-color:#000000;solid-opacity:1;vector-effect:none;fill:url(#linearGradient7895-1);fill-opacity:1;fill-rule:nonzero;stroke:none;stroke-width:1.10494101;stroke-linecap:butt;stroke-linejoin:miter;stroke-miterlimit:4;stroke-dasharray:none;stroke-dashoffset:0;stroke-opacity:1;marker:none;marker-start:none;marker-mid:none;marker-end:none;paint-order:fill markers stroke;color-rendering:auto;image-rendering:auto;shape-rendering:auto;text-rendering:auto;enable-background:accumulate"/>
      <path style="color:#000000;clip-rule:nonzero;display:block;overflow:visible;visibility:visible;opacity:1;isolation:auto;mix-blend-mode:normal;color-interpolation:sRGB;color-interpolation-filters:linearRGB;solid-color:#000000;solid-opacity:1;vector-effect:none;fill:url(#linearGradient8271-9);fill-opacity:1;fill-rule:nonzero;stroke:none;stroke-width:0.266666;stroke-linecap:butt;stroke-linejoin:miter;stroke-miterlimit:4;stroke-dasharray:none;stroke-dashoffset:0;stroke-opacity:1;marker:none;marker-start:none;marker-mid:none;marker-end:none;paint-order:fill markers stroke;color-rendering:auto;image-rendering:auto;shape-rendering:auto;text-rendering:auto;enable-background:accumulate" d="m 228,216 h 56 v 1 h -56 z" id="rect7891-6" inkscape:connector-curvature="0" sodipodi:nodetypes="ccccc" inkscape:label="Hoja brillo superior"/>
      <path style="color:#000000;clip-rule:nonzero;display:inline;overflow:visible;visibility:visible;opacity:0.4;isolation:auto;mix-blend-mode:normal;color-interpolation:sRGB;color-interpolation-filters:linearRGB;solid-color:#000000;solid-opacity:1;vector-effect:none;fill:url(#linearGradient9428-3);fill-opacity:1;fill-rule:nonzero;stroke:none;stroke-width:1.12198257;stroke-linecap:butt;stroke-linejoin:miter;stroke-miterlimit:4;stroke-dasharray:none;stroke-dashoffset:0;stroke-opacity:0.34375;marker:none;marker-start:none;marker-mid:none;marker-end:none;paint-order:fill markers stroke;color-rendering:auto;image-rendering:auto;shape-rendering:auto;text-rendering:auto;enable-background:accumulate" d="m 229.33347,215.99102 v 4.01232 h -1.33315 v 1.33744 h 1.33315 v 4.01233 h -1.33315 v 1.33744 h 1.33315 v 4.01232 h -1.33315 v 1.33744 h 1.33315 v 4.01232 h -1.33315 v 1.33744 h 1.33315 v 4.01232 h -1.33315 v 1.33745 h 1.33315 v 4.01232 h -1.33315 v 1.33744 h 1.33315 v 4.01232 h -1.33315 v 1.33744 h 1.33315 v 4.01232 h -1.33315 v 1.33744 h 1.33315 v 4.01233 h -1.33315 v 1.33744 h 1.33315 v 4.01232 h -1.33315 v 1.33744 h 1.33315 v 4.01232 h -1.33315 v 1.33744 h 1.33315 v 4.01233 h -1.33315 v 1.33744 h 1.33315 v 4.01232 h -1.33315 v 1.33744 h 1.33315 v 4.01232 h -1.33315 v 1.33744 h 1.33315 v 4.01233 h -1.33315 v 1.33744 h 1.33315 v 4.01232 h -1.33315 v 1.33744 h 1.33315 v 4.01232 h -1.33315 v 1.33744 h 1.33315 v 4.01233 h -1.33315 v 1.33744 h 1.33315 v 4.01232 h -1.33315 v 1.33744 h 1.33315 v 4.01232 h -1.33315 v 1.33744 h 1.33315 v 4.01232 h 1.33315 v -4.01232 h 3.99946 v 4.01232 h 1.33315 v -4.01232 h 3.99947 v 4.01232 h 1.33315 v -4.01232 h 3.99946 v 4.01232 h 1.33315 v -4.01232 h 3.99945 v 4.01232 h 1.33316 v -4.01232 h 3.99946 v 4.01232 h 1.33315 v -4.01232 h 3.99946 v 4.01232 h 1.33315 v -4.01232 h 3.99946 v 4.01232 h 1.33315 v -4.01232 h 3.99947 v 4.01232 h 1.33315 v -4.01232 h 3.99945 v 4.01232 h 1.33316 v -4.01232 h 3.99945 v 4.01232 h 1.33315 v -4.01232 h 3.99947 v 4.01232 h 1.33315 v -4.01232 h 3.99946 v 4.01232 h 1.33315 v -4.01232 h 3.99946 v 3.88694 h 1.33315 v -3.88694 h 3.99945 v 4.01232 h 1.33317 v -4.01232 h 3.99945 v 4.01232 h 1.33315 v -4.01232 h 5.33261 v -1.33744 h -5.33261 v -4.01232 h 5.33261 v -1.33744 h -5.33261 v -4.01232 h 5.33261 v -1.33744 h -5.33261 v -4.01233 h 5.33261 v -1.33744 h -5.33261 v -4.01232 h 5.33261 v -1.33744 h -5.33261 v -4.01232 h 5.33261 v -1.33744 h -5.33261 v -4.01233 h 5.33261 v -1.33744 h -5.33261 v -4.01232 h 5.33261 v -1.33744 h -5.33261 v -4.01232 h 5.33261 v -1.33744 h -5.33261 v -4.01233 h 5.33261 v -1.33744 h -5.33261 v -4.01232 h 5.33261 v -1.33744 h -5.33261 v -4.01232 h 5.33261 v -1.33744 h -5.33261 v -4.01233 h 5.33261 v -1.33744 h -5.33261 v -4.01232 h 5.33261 v -1.33744 h -5.33261 v -4.01232 h -1.33315 v 4.01232 h -3.99945 v -4.01232 h -1.33317 v 4.01232 h -3.99945 v -4.13771 h -1.33315 v 4.13771 h -3.99946 v -4.01232 h -1.33315 v 4.01232 h -3.99946 v -4.01232 h -1.33315 v 4.01232 h -3.99947 v -36.1109 h -1.33315 v 4.01232 h -3.99945 v -4.01232 h -1.33316 v 4.01232 h -3.99945 v -4.01232 h -1.33315 v 4.01232 h -3.99947 v -4.01232 h -1.33315 v 4.01232 h -3.99946 v -4.01232 h -1.33315 v 4.01232 h -3.99946 v -4.01232 h -1.33315 v 4.01232 h -3.99946 v -4.01232 h -1.33316 v 4.01232 h -3.99945 v -4.01232 h -1.33315 v 4.01232 h -3.99946 v -4.01232 h -1.33315 v 4.01232 h -3.99947 v -4.01232 h -1.33315 v 4.01232 h -3.99946 v -4.01232 z m 1.33315,5.34976 h 3.99946 v 4.01233 h -3.99946 z m 5.33261,0 h 3.99947 v 4.01233 h -3.99947 z m 5.33262,0 h 3.99946 v 4.01233 h -3.99946 z m 5.33261,0 h 3.99945 v 4.01233 h -3.99945 z m 5.33261,0 h 3.99946 v 4.01233 h -3.99946 z m 5.33261,0 h 3.99946 v 4.01233 h -3.99946 z m 5.33261,0 h 3.99946 v 4.01233 h -3.99946 z m 5.33261,0 h 3.99947 v 4.01233 h -3.99947 z m 5.33262,0 h 3.99945 v 4.01233 h -3.99945 z m 5.33261,0 h 3.99945 v 4.01233 h -3.99945 z m -47.99351,5.34977 h 3.99946 v 4.01232 h -3.99946 z m 5.33261,0 h 3.99947 v 4.01232 h -3.99947 z m 5.33262,0 h 3.99946 v 4.01232 h -3.99946 z m 5.33261,0 h 3.99945 v 4.01232 h -3.99945 z m 5.33261,0 h 3.99946 v 4.01232 h -3.99946 z m 5.33261,0 h 3.99946 v 4.01232 h -3.99946 z m 5.33261,0 h 3.99946 v 4.01232 h -3.99946 z m 5.33261,0 h 3.99947 v 4.01232 h -3.99947 z m 5.33262,0 h 3.99945 v 4.01232 h -3.99945 z m 5.33261,0 h 3.99945 v 4.01232 h -3.99945 z m -47.99351,5.34976 h 3.99946 v 4.01232 h -3.99946 z m 5.33261,0 h 3.99947 v 4.01232 h -3.99947 z m 5.33262,0 h 3.99946 v 4.01232 h -3.99946 z m 5.33261,0 h 3.99945 v 4.01232 h -3.99945 z m 5.33261,0 h 3.99946 v 4.01232 h -3.99946 z m 5.33261,0 h 3.99946 v 4.01232 h -3.99946 z m 5.33261,0 h 3.99946 v 4.01232 h -3.99946 z m 5.33261,0 h 3.99947 v 4.01232 h -3.99947 z m 5.33262,0 h 3.99945 v 4.01232 h -3.99945 z m 5.33261,0 h 3.99945 v 4.01232 h -3.99945 z m -47.99351,5.34976 h 3.99946 v 4.01232 h -3.99946 z m 5.33261,0 h 3.99947 v 4.01232 h -3.99947 z m 5.33262,0 h 3.99946 v 4.01232 h -3.99946 z m 5.33261,0 h 3.99945 v 4.01232 h -3.99945 z m 5.33261,0 h 3.99946 v 4.01232 h -3.99946 z m 5.33261,0 h 3.99946 v 4.01232 h -3.99946 z m 5.33261,0 h 3.99946 v 4.01232 h -3.99946 z m 5.33261,0 h 3.99947 v 4.01232 h -3.99947 z m 5.33262,0 h 3.99945 v 4.01232 h -3.99945 z m 5.33261,0 h 3.99945 v 4.01232 h -3.99945 z m -47.99351,5.34977 h 3.99946 v 4.01232 h -3.99946 z m 5.33261,0 h 3.99947 v 4.01232 h -3.99947 z m 5.33262,0 h 3.99946 v 4.01232 h -3.99946 z m 5.33261,0 h 3.99945 v 4.01232 h -3.99945 z m 5.33261,0 h 3.99946 v 4.01232 h -3.99946 z m 5.33261,0 h 3.99946 v 4.01232 h -3.99946 z m 5.33261,0 h 3.99946 v 4.01232 h -3.99946 z m 5.33261,0 h 3.99947 v 4.01232 h -3.99947 z m 5.33262,0 h 3.99945 v 4.01232 h -3.99945 z m 5.33261,0 h 3.99945 v 4.01232 h -3.99945 z m -47.99351,5.34976 h 3.99946 v 4.01232 h -3.99946 z m 5.33261,0 h 3.99947 v 4.01232 h -3.99947 z m 5.33262,0 h 3.99946 v 4.01232 h -3.99946 z m 5.33261,0 h 3.99945 v 4.01232 h -3.99945 z m 5.33261,0 h 3.99946 v 4.01232 h -3.99946 z m 5.33261,0 h 3.99946 v 4.01232 h -3.99946 z m 5.33261,0 h 3.99946 v 4.01232 h -3.99946 z m 5.33261,0 h 3.99947 v 4.01232 h -3.99947 z m 5.33262,0 h 3.99945 v 4.01232 h -3.99945 z m 5.33261,0 h 3.99945 v 4.01232 h -3.99945 z m -47.99351,5.34976 h 3.99946 v 4.01232 h -3.99946 z m 5.33261,0 h 3.99947 v 4.01232 h -3.99947 z m 5.33262,0 h 3.99946 v 4.01232 h -3.99946 z m 5.33261,0 h 3.99945 v 4.01232 h -3.99945 z m 5.33261,0 h 3.99946 v 4.01232 h -3.99946 z m 5.33261,0 h 3.99946 v 4.01232 h -3.99946 z m 5.33261,0 h 3.99946 v 4.01232 h -3.99946 z m 5.33261,0 h 3.99947 v 4.01232 h -3.99947 z m 5.33262,0 h 3.99945 v 4.01232 h -3.99945 z m 5.33261,0 h 3.99945 v 4.01232 h -3.99945 z m 5.3326,0 h 3.99947 v 4.01232 h -3.99947 z m 5.33262,0 h 3.99946 v 4.01232 h -3.99946 z m 5.33261,0 h 3.99946 v 4.01232 h -3.99946 z m 5.33261,0 h 3.99945 v 4.01232 h -3.99945 z m 5.33262,0 h 3.99945 v 4.01232 h -3.99945 z m -74.65657,5.34976 h 3.99946 v 4.01233 h -3.99946 z m 5.33261,0 h 3.99947 v 4.01233 h -3.99947 z m 5.33262,0 h 3.99946 v 4.01233 h -3.99946 z m 5.33261,0 h 3.99945 v 4.01233 h -3.99945 z m 5.33261,0 h 3.99946 v 4.01233 h -3.99946 z m 5.33261,0 h 3.99946 v 4.01233 h -3.99946 z m 5.33261,0 h 3.99946 v 4.01233 h -3.99946 z m 5.33261,0 h 3.99947 v 4.01233 h -3.99947 z m 5.33262,0 h 3.99945 v 4.01233 h -3.99945 z m 5.33261,0 h 3.99945 v 4.01233 h -3.99945 z m 5.3326,0 h 3.99947 v 4.01233 h -3.99947 z m 5.33262,0 h 3.99946 v 4.01233 h -3.99946 z m 5.33261,0 h 3.99946 v 4.01233 h -3.99946 z m 5.33261,0 h 3.99945 v 4.01233 h -3.99945 z m 5.33262,0 h 3.99945 v 4.01233 h -3.99945 z m -74.65657,5.34977 h 3.99946 v 4.01232 h -3.99946 z m 5.33261,0 h 3.99947 v 4.01232 h -3.99947 z m 5.33262,0 h 3.99946 v 4.01232 h -3.99946 z m 5.33261,0 h 3.99945 v 4.01232 h -3.99945 z m 5.33261,0 h 3.99946 v 4.01232 h -3.99946 z m 5.33261,0 h 3.99946 v 4.01232 h -3.99946 z m 5.33261,0 h 3.99946 v 4.01232 h -3.99946 z m 5.33261,0 h 3.99947 v 4.01232 h -3.99947 z m 5.33262,0 h 3.99945 v 4.01232 h -3.99945 z m 5.33261,0 h 3.99945 v 4.01232 h -3.99945 z m 5.3326,0 h 3.99947 v 4.01232 h -3.99947 z m 5.33262,0 h 3.99946 v 4.01232 h -3.99946 z m 5.33261,0 h 3.99946 v 4.01232 h -3.99946 z m 5.33261,0 h 3.99945 v 4.01232 h -3.99945 z m 5.33262,0 h 3.99945 v 4.01232 h -3.99945 z m -74.65657,5.34976 h 3.99946 v 4.01232 h -3.99946 z m 5.33261,0 h 3.99947 v 4.01232 h -3.99947 z m 5.33262,0 h 3.99946 v 4.01232 h -3.99946 z m 5.33261,0 h 3.99945 v 4.01232 h -3.99945 z m 5.33261,0 h 3.99946 v 4.01232 h -3.99946 z m 5.33261,0 h 3.99946 v 4.01232 h -3.99946 z m 5.33261,0 h 3.99946 v 4.01232 h -3.99946 z m 5.33261,0 h 3.99947 v 4.01232 h -3.99947 z m 5.33262,0 h 3.99945 v 4.01232 h -3.99945 z m 5.33261,0 h 3.99945 v 4.01232 h -3.99945 z m 5.3326,0 h 3.99947 v 4.01232 h -3.99947 z m 5.33262,0 h 3.99946 v 4.01232 h -3.99946 z m 5.33261,0 h 3.99946 v 4.01232 h -3.99946 z m 5.33261,0 h 3.99945 v 4.01232 h -3.99945 z m 5.33262,0 h 3.99945 v 4.01232 h -3.99945 z m -74.65657,5.34976 h 3.99946 v 4.01233 h -3.99946 z m 5.33261,0 h 3.99947 v 4.01233 h -3.99947 z m 5.33262,0 h 3.99946 v 4.01233 h -3.99946 z m 5.33261,0 h 3.99945 v 4.01233 h -3.99945 z m 5.33261,0 h 3.99946 v 4.01233 h -3.99946 z m 5.33261,0 h 3.99946 v 4.01233 h -3.99946 z m 5.33261,0 h 3.99946 v 4.01233 h -3.99946 z m 5.33261,0 h 3.99947 v 4.01233 h -3.99947 z m 5.33262,0 h 3.99945 v 4.01233 h -3.99945 z m 5.33261,0 h 3.99945 v 4.01233 h -3.99945 z m 5.3326,0 h 3.99947 v 4.01233 h -3.99947 z m 5.33262,0 h 3.99946 v 4.01233 h -3.99946 z m 5.33261,0 h 3.99946 v 4.01233 h -3.99946 z m 5.33261,0 h 3.99945 v 4.01233 h -3.99945 z m 5.33262,0 h 3.99945 v 4.01233 h -3.99945 z m -74.65657,5.34977 h 3.99946 v 4.01232 h -3.99946 z m 5.33261,0 h 3.99947 v 4.01232 h -3.99947 z m 5.33262,0 h 3.99946 v 4.01232 h -3.99946 z m 5.33261,0 h 3.99945 v 4.01232 h -3.99945 z m 5.33261,0 h 3.99946 v 4.01232 h -3.99946 z m 5.33261,0 h 3.99946 v 4.01232 h -3.99946 z m 5.33261,0 h 3.99946 v 4.01232 h -3.99946 z m 5.33261,0 h 3.99947 v 4.01232 h -3.99947 z m 5.33262,0 h 3.99945 v 4.01232 h -3.99945 z m 5.33261,0 h 3.99945 v 4.01232 h -3.99945 z m 5.3326,0 h 3.99947 v 4.01232 h -3.99947 z m 5.33262,0 h 3.99946 v 4.01232 h -3.99946 z m 5.33261,0 h 3.99946 v 4.01232 h -3.99946 z m 5.33261,0 h 3.99945 v 4.01232 h -3.99945 z m 5.33262,0 h 3.99945 v 4.01232 h -3.99945 z m -74.65657,5.34976 h 3.99946 v 4.01232 h -3.99946 z m 5.33261,0 h 3.99947 v 4.01232 h -3.99947 z m 5.33262,0 h 3.99946 v 4.01232 h -3.99946 z m 5.33261,0 h 3.99945 v 4.01232 h -3.99945 z m 5.33261,0 h 3.99946 v 4.01232 h -3.99946 z m 5.33261,0 h 3.99946 v 4.01232 h -3.99946 z m 5.33261,0 h 3.99946 v 4.01232 h -3.99946 z m 5.33261,0 h 3.99947 v 4.01232 h -3.99947 z m 5.33262,0 h 3.99945 v 4.01232 h -3.99945 z m 5.33261,0 h 3.99945 v 4.01232 h -3.99945 z m 5.3326,0 h 3.99947 v 4.01232 h -3.99947 z m 5.33262,0 h 3.99946 v 4.01232 h -3.99946 z m 5.33261,0 h 3.99946 v 4.01232 h -3.99946 z m 5.33261,0 h 3.99945 v 4.01232 h -3.99945 z m 5.33262,0 h 3.99945 v 4.01232 h -3.99945 z m -74.65657,5.34976 h 3.99946 v 4.01233 h -3.99946 z m 5.33261,0 h 3.99947 v 4.01233 h -3.99947 z m 5.33262,0 h 3.99946 v 4.01233 h -3.99946 z m 5.33261,0 h 3.99945 v 4.01233 h -3.99945 z m 5.33261,0 h 3.99946 v 4.01233 h -3.99946 z m 5.33261,0 h 3.99946 v 4.01233 h -3.99946 z m 5.33261,0 h 3.99946 v 4.01233 h -3.99946 z m 5.33261,0 h 3.99947 v 4.01233 h -3.99947 z m 5.33262,0 h 3.99945 v 4.01233 h -3.99945 z m 5.33261,0 h 3.99945 v 4.01233 h -3.99945 z m 5.3326,0 h 3.99947 v 4.01233 h -3.99947 z m 5.33262,0 h 3.99946 v 4.01233 h -3.99946 z m 5.33261,0 h 3.99946 v 4.01233 h -3.99946 z m 5.33261,0 h 3.99945 v 4.01233 h -3.99945 z m 5.33262,0 h 3.99945 v 4.01233 h -3.99945 z m -74.65657,5.34977 h 3.99946 v 4.01232 h -3.99946 z m 5.33261,0 h 3.99947 v 4.01232 h -3.99947 z m 5.33262,0 h 3.99946 v 4.01232 h -3.99946 z m 5.33261,0 h 3.99945 v 4.01232 h -3.99945 z m 5.33261,0 h 3.99946 v 4.01232 h -3.99946 z m 5.33261,0 h 3.99946 v 4.01232 h -3.99946 z m 5.33261,0 h 3.99946 v 4.01232 h -3.99946 z m 5.33261,0 h 3.99947 v 4.01232 h -3.99947 z m 5.33262,0 h 3.99945 v 4.01232 h -3.99945 z m 5.33261,0 h 3.99945 v 4.01232 h -3.99945 z m 5.3326,0 h 3.99947 v 4.01232 h -3.99947 z m 5.33262,0 h 3.99946 v 4.01232 h -3.99946 z m 5.33261,0 h 3.99946 v 4.01232 h -3.99946 z m 5.33261,0 h 3.99945 v 4.01232 h -3.99945 z m 5.33262,0 h 3.99945 v 4.01232 h -3.99945 z m -74.65657,5.34976 h 3.99946 v 4.01232 h -3.99946 z m 5.33261,0 h 3.99947 v 4.01232 h -3.99947 z m 5.33262,0 h 3.99946 v 4.01232 h -3.99946 z m 5.33261,0 h 3.99945 v 4.01232 h -3.99945 z m 5.33261,0 h 3.99946 v 4.01232 h -3.99946 z m 5.33261,0 h 3.99946 v 4.01232 h -3.99946 z m 5.33261,0 h 3.99946 v 4.01232 h -3.99946 z m 5.33261,0 h 3.99947 v 4.01232 h -3.99947 z m 5.33262,0 h 3.99945 v 4.01232 h -3.99945 z m 5.33261,0 h 3.99945 v 4.01232 h -3.99945 z m 5.3326,0 h 3.99947 v 4.01232 h -3.99947 z m 5.33262,0 h 3.99946 v 4.01232 h -3.99946 z m 5.33261,0 h 3.99946 v 4.01232 h -3.99946 z m 5.33261,0 h 3.99945 v 4.01232 h -3.99945 z m 5.33262,0 h 3.99945 v 4.01232 h -3.99945 z m -74.65657,5.34976 h 3.99946 v 4.01233 h -3.99946 z m 5.33261,0 h 3.99947 v 4.01233 h -3.99947 z m 5.33262,0 h 3.99946 v 4.01233 h -3.99946 z m 5.33261,0 h 3.99945 v 4.01233 h -3.99945 z m 5.33261,0 h 3.99946 v 4.01233 h -3.99946 z m 5.33261,0 h 3.99946 v 4.01233 h -3.99946 z m 5.33261,0 h 3.99946 v 4.01233 h -3.99946 z m 5.33261,0 h 3.99947 v 4.01233 h -3.99947 z m 5.33262,0 h 3.99945 v 4.01233 h -3.99945 z m 5.33261,0 h 3.99945 v 4.01233 h -3.99945 z m 5.3326,0 h 3.99947 v 4.01233 h -3.99947 z m 5.33262,0 h 3.99946 v 4.01233 h -3.99946 z m 5.33261,0 h 3.99946 v 4.01233 h -3.99946 z m 5.33261,0 h 3.99945 v 4.01233 h -3.99945 z m 5.33262,0 h 3.99945 v 4.01233 h -3.99945 z m -74.65657,5.34977 h 3.99946 v 4.01232 h -3.99946 z m 5.33261,0 h 3.99947 v 4.01232 h -3.99947 z m 5.33262,0 h 3.99946 v 4.01232 h -3.99946 z m 5.33261,0 h 3.99945 v 4.01232 h -3.99945 z m 5.33261,0 h 3.99946 v 4.01232 h -3.99946 z m 5.33261,0 h 3.99946 v 4.01232 h -3.99946 z m 5.33261,0 h 3.99946 v 4.01232 h -3.99946 z m 5.33261,0 h 3.99947 v 4.01232 h -3.99947 z m 5.33262,0 h 3.99945 v 4.01232 h -3.99945 z m 5.33261,0 h 3.99945 v 4.01232 h -3.99945 z m 5.3326,0 h 3.99947 v 4.01232 h -3.99947 z m 5.33262,0 h 3.99946 v 4.01232 h -3.99946 z m 5.33261,0 h 3.99946 v 4.01232 h -3.99946 z m 5.33261,0 h 3.99945 v 4.01232 h -3.99945 z m 5.33262,0 h 3.99945 v 4.01232 h -3.99945 z m -74.65657,5.34976 h 3.99946 v 4.01232 h -3.99946 z m 5.33261,0 h 3.99947 v 4.01232 h -3.99947 z m 5.33262,0 h 3.99946 v 4.01232 h -3.99946 z m 5.33261,0 h 3.99945 v 4.01232 h -3.99945 z m 5.33261,0 h 3.99946 v 4.01232 h -3.99946 z m 5.33261,0 h 3.99946 v 4.01232 h -3.99946 z m 5.33261,0 h 3.99946 v 4.01232 h -3.99946 z m 5.33261,0 h 3.99947 v 4.01232 h -3.99947 z m 5.33262,0 h 3.99945 v 4.01232 h -3.99945 z m 5.33261,0 h 3.99945 v 4.01232 h -3.99945 z m 5.3326,0 h 3.99947 v 4.01232 h -3.99947 z m 5.33262,0 h 3.99946 v 4.01232 h -3.99946 z m 5.33261,0 h 3.99946 v 4.01232 h -3.99946 z m 5.33261,0 h 3.99945 v 4.01232 h -3.99945 z m 5.33262,0 h 3.99945 v 4.01232 h -3.99945 z" id="rect9275-7" inkscape:connector-curvature="0" inkscape:label="patron"/>
      <path style="color:#000000;clip-rule:nonzero;display:inline;overflow:visible;visibility:visible;opacity:1;isolation:auto;mix-blend-mode:normal;color-interpolation:sRGB;color-interpolation-filters:linearRGB;solid-color:#000000;solid-opacity:1;vector-effect:none;fill:none;fill-opacity:1;fill-rule:nonzero;stroke:#b3d4ee;stroke-width:2.66882038;stroke-linecap:butt;stroke-linejoin:miter;stroke-miterlimit:4;stroke-dasharray:none;stroke-dashoffset:0;stroke-opacity:0.21354167;marker:none;marker-start:none;marker-mid:none;marker-end:none;paint-order:fill markers stroke;color-rendering:auto;image-rendering:auto;shape-rendering:auto;text-rendering:auto;enable-background:accumulate" d="m 234.6845,221.33776 h 48.14339 l 26.03029,26.6302 0.71602,73.68391 h -74.8897 z" id="rect9431-5" inkscape:connector-curvature="0" sodipodi:nodetypes="cccccc" inkscape:label="borde interior"/>
      <path style="display:inline;fill:none;fill-rule:evenodd;stroke:#b8eff9;stroke-width:2.6748817;stroke-linecap:butt;stroke-linejoin:miter;stroke-miterlimit:4;stroke-dasharray:none;stroke-opacity:1" d="m 241.37473,294.90003 h 53.49763 v -30.76114 z" id="path9444-3" inkscape:connector-curvature="0" sodipodi:nodetypes="cccc" inkscape:label="escuadra"/>
      <path style="color:#000000;font-style:normal;font-variant:normal;font-weight:normal;font-stretch:normal;font-size:medium;line-height:normal;font-family:sans-serif;font-variant-ligatures:normal;font-variant-position:normal;font-variant-caps:normal;font-variant-numeric:normal;font-variant-alternates:normal;font-feature-settings:normal;text-indent:0;text-align:start;text-decoration:none;text-decoration-line:none;text-decoration-style:solid;text-decoration-color:#000000;letter-spacing:normal;word-spacing:normal;text-transform:none;writing-mode:lr-tb;direction:ltr;text-orientation:mixed;dominant-baseline:auto;baseline-shift:baseline;text-anchor:start;white-space:normal;shape-padding:0;clip-rule:nonzero;display:inline;overflow:visible;visibility:visible;opacity:1;isolation:auto;mix-blend-mode:normal;color-interpolation:sRGB;color-interpolation-filters:linearRGB;solid-color:#000000;solid-opacity:1;vector-effect:none;fill:#f8f8f8;fill-opacity:1;fill-rule:evenodd;stroke:none;stroke-width:0.33967528;stroke-linecap:butt;stroke-linejoin:miter;stroke-miterlimit:4;stroke-dasharray:none;stroke-dashoffset:0;stroke-opacity:1;color-rendering:auto;image-rendering:auto;shape-rendering:auto;text-rendering:auto;enable-background:accumulate" d="m 294.02862,252.5068 -0.30301,2.23344 -2.07931,-0.86986 -0.13582,0.3239 2.1655,0.90643 -0.0471,0.34742 -59.06415,34.10213 0.17764,-1.30087 -0.34743,-0.0496 -0.21421,1.57255 -0.61385,0.35524 0.0653,0.11489 -1.61956,-0.67916 -0.13582,0.3239 2.16549,0.90904 -0.31607,2.32485 0.35003,0.0496 0.30301,-2.23342 2.0767,0.86986 0.13844,-0.32391 -2.16811,-0.90905 0.0548,-0.39965 59.0642,-34.10214 -0.18547,1.35573 0.35004,0.0471 0.22205,-1.62739 0.64258,-0.37092 1.51769,0.63736 0.13583,-0.32652 -1.42364,-0.59558 -0.18286,-0.31608 -0.24032,0.13844 -0.31869,-0.13321 0.31608,-2.32744 z m 6.52003,7.22794 -0.20898,0.26905 1.58298,1.22512 v 0.20898 l -1.59342,1.21205 0.20637,0.27167 1.38705,-1.05533 v 34.14654 l -1.60127,-1.24079 -0.19852,0.25599 1.63261,1.26431 -1.64306,1.24862 0.19591,0.256 1.71099,-1.30087 1.70053,1.31393 0.19853,-0.25338 -1.45238,-1.12325 v -0.27689 l 1.46282,-1.11279 -0.19591,-0.25599 -1.26691,0.96389 v -34.10213 l 1.66397,1.2852 0.20897,-0.26644 -1.72142,-1.33222 1.73187,-1.31655 -0.20636,-0.27166 -1.68225,1.27737 h -0.24555 z m -36.45571,3.61788 -1.71099,0.98741 0.93516,1.61956 c 0.0894,-0.12438 0.1846,-0.23413 0.28474,-0.32653 0.10164,-0.0931 0.20996,-0.17301 0.32651,-0.24033 0.24895,-0.14377 0.48439,-0.19336 0.70529,-0.14628 0.22095,0.0471 0.39546,0.18303 0.52506,0.40751 0.12959,0.22447 0.15856,0.44602 0.0888,0.66087 -0.0697,0.21487 -0.22907,0.39439 -0.47803,0.53813 -0.15397,0.0889 -0.30952,0.15593 -0.46758,0.20114 -0.1581,0.0451 -0.32088,0.0688 -0.49109,0.0731 l 0.25076,0.43884 c 0.17624,-0.0404 0.34084,-0.0913 0.49371,-0.14889 0.1543,-0.0584 0.30097,-0.12559 0.43623,-0.20375 0.39284,-0.22682 0.64173,-0.499 0.74709,-0.81501 0.10446,-0.31746 0.0566,-0.64845 -0.14366,-0.99524 -0.19444,-0.3367 -0.45452,-0.5432 -0.77845,-0.61909 -0.3239,-0.0758 -0.66421,-0.009 -1.02397,0.19853 -0.0632,0.0365 -0.12358,0.0773 -0.18024,0.12532 -0.0575,0.0466 -0.11114,0.10111 -0.16196,0.15934 l -0.45713,-0.7915 1.31132,-0.75752 z m -2.83684,1.89383 c -0.29496,-0.0523 -0.60916,0.0162 -0.943,0.20899 -0.12665,0.0731 -0.25747,0.17373 -0.38921,0.29778 -0.13175,0.12411 -0.26482,0.27222 -0.39968,0.44407 l 0.25601,0.43885 c 0.11702,-0.19612 0.2368,-0.36159 0.36047,-0.49632 0.12506,-0.13556 0.25513,-0.24239 0.39183,-0.3213 0.19283,-0.11141 0.37987,-0.14876 0.56163,-0.10967 0.18318,0.0381 0.32431,0.14484 0.42317,0.31608 0.0605,0.105 0.0947,0.22655 0.10192,0.36832 0.008,0.1395 -0.0137,0.3294 -0.0627,0.56685 -0.0251,0.12585 -0.0975,0.41527 -0.21682,0.86985 -0.11876,0.4523 -0.21028,0.81206 -0.27689,1.07885 l 0.2116,0.3683 2.04534,-1.18332 -0.21159,-0.36571 -1.52029,0.8777 c 0.14422,-0.56103 0.25355,-0.99618 0.33175,-1.3061 0.0773,-0.31134 0.12385,-0.49911 0.13583,-0.56161 0.0378,-0.23677 0.0454,-0.42844 0.026,-0.57469 -0.0186,-0.14851 -0.0646,-0.28816 -0.14106,-0.42056 -0.16117,-0.27919 -0.38943,-0.44405 -0.68439,-0.49632 z m -3.28875,1.64047 -0.43623,0.25338 -0.67917,0.6008 0.22726,0.39705 0.687,-0.60342 1.41843,2.45807 -0.71314,0.41273 0.2116,0.3657 1.85726,-1.07099 -0.21158,-0.36832 -0.71314,0.41274 z m 51.30601,11.3604 c -0.41707,0 -0.73768,0.16566 -0.95868,0.49631 -0.21933,0.32901 -0.32913,0.80601 -0.32913,1.4341 0,0.62641 0.1098,1.10604 0.32913,1.43671 0.221,0.32898 0.54161,0.4937 0.95868,0.4937 0.41706,0 0.73411,-0.16472 0.95345,-0.4937 0.22098,-0.33067 0.33175,-0.8103 0.33175,-1.43671 0,-0.62809 -0.11074,-1.10509 -0.33175,-1.4341 -0.21934,-0.33065 -0.53639,-0.49631 -0.95345,-0.49631 z m -4.32317,0.0653 v 1.87032 c 0.13957,-0.0632 0.27719,-0.10861 0.41011,-0.13844 0.13459,-0.0299 0.26768,-0.0445 0.40228,-0.0445 0.28746,0 0.51657,0.0734 0.68439,0.22463 0.16783,0.15121 0.25077,0.35728 0.25077,0.61648 0,0.25921 -0.083,0.46529 -0.25077,0.61648 -0.16782,0.15121 -0.39693,0.22726 -0.68439,0.22726 -0.1778,0 -0.34726,-0.0202 -0.50677,-0.06 -0.15952,-0.0398 -0.31281,-0.10151 -0.46236,-0.18286 v 0.50677 c 0.17282,0.0531 0.34037,0.0909 0.50154,0.11757 0.16284,0.0266 0.32184,0.0417 0.47803,0.0417 0.45362,0 0.80608,-0.11074 1.05533,-0.33175 0.24924,-0.22266 0.37354,-0.53472 0.37354,-0.93516 0,-0.38882 -0.12304,-0.69708 -0.36571,-0.92471 -0.24258,-0.22765 -0.57201,-0.3422 -0.9874,-0.3422 -0.0732,0 -0.1437,0.008 -0.21682,0.0209 -0.0731,0.0121 -0.1463,0.03 -0.21942,0.0548 v -0.91165 h 1.51507 v -0.42579 z m 4.32317,0.33174 c 0.26087,0 0.45552,0.12813 0.58513,0.38399 0.1312,0.25424 0.1959,0.63758 0.1959,1.14937 0,0.5101 -0.0646,0.89347 -0.1959,1.14935 -0.1296,0.25423 -0.32426,0.3814 -0.58513,0.3814 -0.25922,0 -0.45645,-0.1272 -0.58775,-0.3814 -0.1296,-0.25588 -0.19331,-0.63925 -0.19331,-1.14935 0,-0.51179 0.0637,-0.89513 0.19331,-1.14937 0.1312,-0.25588 0.32853,-0.38399 0.58775,-0.38399 z m -75.1762,11.75224 -0.005,0.0365 -0.034,-0.0134 z m 5.10423,11.50147 -0.26906,0.20637 1.25907,1.65352 v 0.29255 l -1.27474,1.64829 0.26905,0.20899 1.33223,-1.71884 1.31654,1.72927 0.26904,-0.20636 -1.2434,-1.63262 h 52.45275 l -1.1807,1.52814 0.256,0.19853 1.26169,-1.63263 1.25123,1.64308 0.25599,-0.19593 -1.1807,-1.55162 v -0.31608 l 1.19378,-1.54381 -0.25601,-0.19852 -1.08406,1.40012 h -0.35525 l -1.07362,-1.41058 -0.25598,0.19593 0.9247,1.21465 h -51.95122 l 1.00048,-1.29303 -0.26905,-0.20897 -1.16242,1.502 h -0.33436 z m 29.44458,6.02371 c -0.41704,0 -0.73505,0.16565 -0.95605,0.49631 -0.21933,0.32901 -0.32913,0.80862 -0.32913,1.43671 0,0.62643 0.1098,1.10342 0.32913,1.43409 0.221,0.329 0.539,0.49371 0.95605,0.49371 0.41709,0 0.73675,-0.16471 0.95608,-0.49371 0.22099,-0.33067 0.32912,-0.80766 0.32912,-1.43409 0,-0.62809 -0.10806,-1.1077 -0.32912,-1.43671 -0.21933,-0.33066 -0.53897,-0.49631 -0.95608,-0.49631 z m 3.24957,0 c -0.41706,0 -0.73506,0.16565 -0.95605,0.49631 -0.21933,0.32901 -0.32915,0.80862 -0.32913,1.43671 0,0.62643 0.1098,1.10342 0.32913,1.43409 0.22099,0.329 0.53899,0.49371 0.95605,0.49371 0.41707,0 0.73673,-0.16471 0.95607,-0.49371 0.221,-0.33067 0.33174,-0.80766 0.33174,-1.43409 0,-0.62809 -0.11074,-1.1077 -0.33174,-1.43671 -0.21934,-0.33066 -0.539,-0.49631 -0.95607,-0.49631 z m -6.67153,0.068 -0.89074,0.18025 v 0.45713 l 0.89597,-0.18024 v 2.83944 h -0.82285 v 0.42318 h 2.14461 v -0.42318 h -0.82284 v -3.29658 z m 3.42196,0.33176 c 0.2609,0 0.45553,0.12812 0.58514,0.38399 0.13134,0.25422 0.19852,0.63758 0.19852,1.14936 0,0.5101 -0.0673,0.89086 -0.19852,1.14675 -0.12961,0.25423 -0.32424,0.38138 -0.58514,0.38138 -0.25919,0 -0.45381,-0.12719 -0.58513,-0.38138 -0.1296,-0.25589 -0.19591,-0.63665 -0.19591,-1.14675 0,-0.51178 0.0664,-0.89514 0.19591,-1.14936 0.13135,-0.25589 0.32594,-0.38399 0.58513,-0.38399 z m 3.24957,0 c 0.26088,0 0.45814,0.12812 0.58775,0.38399 0.13121,0.25422 0.19591,0.63758 0.19591,1.14936 0,0.5101 -0.0646,0.89086 -0.19591,1.14675 -0.12959,0.25423 -0.32687,0.38138 -0.58775,0.38138 -0.25921,0 -0.45386,-0.12719 -0.58513,-0.38138 -0.1296,-0.25589 -0.1933,-0.63665 -0.1933,-1.14675 0,-0.51178 0.0636,-0.89514 0.1933,-1.14936 0.13133,-0.25589 0.32592,-0.38399 0.58513,-0.38399 z" id="path9446-5" inkscape:connector-curvature="0" inkscape:label="acotes"/>
      <path inkscape:connector-curvature="0" id="path7850-6" d="m 257.84381,232.32851 v 4.51387 h 0.53288 v -4.51387 z m -16.41499,0.18286 v 0.49371 h 1.53857 v 3.8373 h 0.58774 v -3.8373 h 1.53858 v -0.49371 z m 21.69683,0.15935 v 0.92209 h -0.39182 v 0.41535 h 0.39182 v 1.76322 c 10e-6,0.40608 0.0785,0.68643 0.23511,0.84112 0.15661,0.15276 0.43969,0.22988 0.85155,0.22988 h 0.54858 v -0.4467 h -0.54858 c -0.22236,2e-5 -0.36797,-0.0369 -0.44144,-0.11234 -0.0715,-0.0754 -0.10967,-0.24708 -0.10967,-0.51198 v -1.76323 h 1.09973 v -0.41534 h -1.09973 v -0.9221 z m -17.13597,0.84373 c -0.48728,0 -0.8743,0.15693 -1.16241,0.47019 -0.28619,0.31132 -0.43101,0.73254 -0.43101,1.2643 0,0.51436 0.15287,0.92347 0.45452,1.22512 0.30359,0.30165 0.71212,0.45191 1.23033,0.45191 0.2069,0 0.41277,-0.0202 0.61388,-0.0627 0.2011,-0.0425 0.39631,-0.10419 0.58774,-0.18546 V 236.171 c -0.1895,0.10058 -0.38132,0.17697 -0.57469,0.22726 -0.19143,0.0503 -0.38799,0.0757 -0.59295,0.0757 -0.35388,0 -0.63151,-0.0959 -0.83069,-0.28733 -0.19726,-0.19338 -0.30595,-0.47374 -0.32913,-0.84113 h 2.45284 v -0.26123 c 0,-0.48343 -0.12879,-0.86638 -0.38399,-1.14676 -0.25331,-0.2823 -0.59741,-0.42316 -1.03444,-0.42316 z m 3.85561,0 c -0.23397,0 -0.43587,0.049 -0.60604,0.14367 -0.17016,0.0947 -0.31702,0.23968 -0.43884,0.43885 v -0.50416 h -0.53811 v 3.24957 h 0.53811 v -1.83637 c 0,-0.31518 0.0798,-0.56601 0.24033,-0.74969 0.16049,-0.18564 0.37779,-0.27691 0.65043,-0.27691 0.23012,0 0.39917,0.0738 0.50937,0.22465 0.1102,0.1489 0.16458,0.38159 0.16458,0.69484 v 1.94348 h 0.5381 v -1.83637 c 0,-0.31712 0.0798,-0.5686 0.24033,-0.75232 0.16049,-0.1837 0.37913,-0.27428 0.65566,-0.27428 0.22623,0 0.39392,0.0738 0.50415,0.22465 0.1102,0.15084 0.16718,0.38352 0.16718,0.69484 v 1.94348 h 0.5355 v -1.96176 c 0,-0.43701 -0.0932,-0.7724 -0.27689,-1.0083 -0.18371,-0.23785 -0.44266,-0.35787 -0.78106,-0.35787 -0.25137,0 -0.47001,0.0583 -0.65565,0.1724 -0.18563,0.11408 -0.34723,0.29051 -0.48065,0.53028 -0.0793,-0.22818 -0.20202,-0.40256 -0.36832,-0.52245 -0.16434,-0.11983 -0.36227,-0.18023 -0.59818,-0.18023 z m 5.78339,0 c -0.23785,0 -0.44438,0.049 -0.61648,0.14367 -0.17017,0.0928 -0.31102,0.23503 -0.42319,0.42839 v -0.4937 h -0.53549 v 4.48514 h 0.53549 v -1.72404 c 0.11222,0.19334 0.25302,0.33886 0.42319,0.43361 0.1721,0.0928 0.37863,0.13845 0.61648,0.13845 0.39446,0 0.71308,-0.15694 0.95866,-0.4702 0.24751,-0.31325 0.37094,-0.72507 0.37094,-1.23556 0,-0.51049 -0.12344,-0.92231 -0.37094,-1.23557 -0.24558,-0.31326 -0.5642,-0.47019 -0.95866,-0.47019 z m 5.00233,0 c -0.17403,0 -0.3518,0.0187 -0.53549,0.0575 -0.1837,0.0366 -0.37415,0.0943 -0.56946,0.16979 v 0.4937 c 0.16244,-0.0889 0.3308,-0.15664 0.50675,-0.20114 0.17597,-0.0445 0.3577,-0.068 0.54335,-0.068 0.29198,0 0.51868,0.0684 0.67917,0.20375 0.16242,0.13347 0.24293,0.32388 0.24293,0.56946 v 0.0523 h -0.74709 c -0.48534,0 -0.85154,0.0912 -1.09712,0.27689 -0.24364,0.18563 -0.36571,0.46259 -0.36571,0.82805 0,0.31327 0.0972,0.56213 0.29257,0.7497 0.19724,0.18564 0.4615,0.27951 0.7941,0.27951 0.26299,0 0.48696,-0.0457 0.66873,-0.13845 0.18176,-0.0947 0.3327,-0.24161 0.45452,-0.43884 v 0.4937 h 0.53289 v -1.85465 c 0,-0.49504 -0.11541,-0.86394 -0.34742,-1.10756 -0.23204,-0.24366 -0.58284,-0.36572 -1.05272,-0.36572 z m 6.19611,0 c -0.48728,0 -0.87429,0.15693 -1.16243,0.47019 -0.28618,0.31132 -0.43099,0.73254 -0.43099,1.2643 0,0.51436 0.15024,0.92347 0.4519,1.22512 0.30359,0.30165 0.71473,0.45191 1.23295,0.45191 0.2069,0 0.41278,-0.0202 0.61387,-0.0627 0.2011,-0.0425 0.39631,-0.10419 0.58774,-0.18546 V 236.171 c -0.1895,0.10058 -0.38132,0.17697 -0.57468,0.22726 -0.19144,0.0503 -0.388,0.0757 -0.59297,0.0757 -0.35386,0 -0.63152,-0.0959 -0.83067,-0.28733 -0.19726,-0.19338 -0.30857,-0.47374 -0.33176,-0.84113 h 2.45546 v -0.26123 c 0,-0.48343 -0.12879,-0.86638 -0.38398,-1.14676 -0.25332,-0.2823 -0.59742,-0.42316 -1.03444,-0.42316 z m -11.32906,0.44668 c 0.28232,0 0.503,0.11261 0.66349,0.33698 0.16244,0.22237 0.24294,0.52956 0.24294,0.9221 0,0.39252 -0.0806,0.70041 -0.24294,0.92471 -0.16049,0.22237 -0.38117,0.33436 -0.66349,0.33436 -0.28232,1e-5 -0.50628,-0.11195 -0.66872,-0.33436 -0.1605,-0.2243 -0.24033,-0.53219 -0.24033,-0.92471 0,-0.39254 0.0798,-0.69973 0.24033,-0.9221 0.16244,-0.22432 0.3864,-0.33698 0.66872,-0.33698 z m -9.50315,0.005 c 0.26299,0 0.4736,0.0872 0.63216,0.26122 0.16079,0.17403 0.24459,0.40808 0.24815,0.70007 l -1.90427,0.003 c 0.0271,-0.30553 0.1304,-0.54229 0.30824,-0.71051 0.17981,-0.16823 0.41795,-0.25338 0.71572,-0.25338 z m 20.83744,0 c 0.26298,0 0.47358,0.0872 0.63216,0.26122 0.16078,0.17403 0.24459,0.40808 0.24815,0.70007 l -1.9043,0.003 c 0.0271,-0.30553 0.13041,-0.54229 0.30825,-0.71051 0.17983,-0.16823 0.41796,-0.25338 0.71574,-0.25338 z m -5.86437,1.24341 h 0.53028 v 0.11757 c 0,0.34805 -0.0892,0.62774 -0.26905,0.8385 -0.1779,0.20884 -0.41467,0.31345 -0.71052,0.31345 -0.21463,0 -0.38631,-0.0543 -0.51199,-0.16455 -0.12372,-0.11222 -0.18547,-0.26242 -0.18547,-0.45191 0,-0.23785 0.0845,-0.40816 0.25077,-0.50676 0.1663,-0.0986 0.46477,-0.14629 0.89598,-0.14629 z" style="font-size:medium;line-height:1000%;font-family:sans-serif;letter-spacing:0px;word-spacing:0px;display:inline;fill:#ffffff;fill-opacity:0.53125;stroke:none;stroke-width:0.37126467px;stroke-linecap:butt;stroke-linejoin:miter;stroke-opacity:1" inkscape:label="txt-template"/>
      <path inkscape:label="Pestaa sombra" style="display:inline;fill:url(#linearGradient8277-7);fill-opacity:1;fill-rule:evenodd;stroke:none;stroke-width:2.92698884px;stroke-linecap:butt;stroke-linejoin:miter;stroke-opacity:1" d="m 284,216 32,32 -36,4 z" id="path8834-2" inkscape:connector-curvature="0" sodipodi:nodetypes="cccc"/>
      <path inkscape:label="Pestaa" sodipodi:nodetypes="cccc" inkscape:connector-curvature="0" id="path8836-1" d="m 284,216 32,32 h -32 z" style="display:inline;fill:url(#linearGradient8852-2);fill-opacity:1;fill-rule:evenodd;stroke:none;stroke-width:3.12908292px;stroke-linecap:butt;stroke-linejoin:miter;stroke-opacity:1"/>
    </g>
  </g>
</svg>