<?xml version="1.0" encoding="UTF-8" standalone="yes"?>
<svg xmlns:dc="http://purl.org/dc/elements/1.1/" xmlns:cc="http://creativecommons.org/ns#" xmlns:rdf="http://www.w3.org/1999/02/22-rdf-syntax-ns#" xmlns:svg="http://www.w3.org/2000/svg" xmlns="http://www.w3.org/2000/svg" xmlns:xlink="http://www.w3.org/1999/xlink" xmlns:sodipodi="http://sodipodi.sourceforge.net/DTD/sodipodi-0.dtd" xmlns:inkscape="http://www.inkscape.org/namespaces/inkscape" height="128" viewBox="0 0 128 128" width="128" id="svg2" version="1.1" inkscape:version="0.92.2 5c3e80d, 2017-08-06" sodipodi:docname="network-workgroup.svg" enable-background="new" folder="128">
  <title id="title4675">Template icons dark</title>
  <metadata id="metadata24">
    <rdf:RDF>
      <cc:Work rdf:about="">
        <dc:format>image/svg+xml</dc:format>
        <dc:type rdf:resource="http://purl.org/dc/dcmitype/StillImage"/>
        <dc:title>Template icons dark</dc:title>
        <dc:date>17/05/13</dc:date>
        <dc:creator>
          <cc:Agent>
            <dc:title>wfpaisa</dc:title>
          </cc:Agent>
        </dc:creator>
        <dc:rights>
          <cc:Agent>
            <dc:title>License: GPLv3</dc:title>
          </cc:Agent>
        </dc:rights>
        <dc:language>es-en</dc:language>
        <dc:subject>
          <rdf:Bag>
            <rdf:li>plane-icon-theme</rdf:li>
          </rdf:Bag>
        </dc:subject>
        <dc:description>Template for create set icons</dc:description>
        <cc:license rdf:resource="https://www.gnu.org/licenses/gpl-3.0.en.html"/>
      </cc:Work>
    </rdf:RDF>
  </metadata>
  <defs id="defs22">
    <linearGradient id="linearGradient8578">
      <stop style="stop-color:#4ba8dc;stop-opacity:1;" offset="0" id="stop8574"/>
      <stop style="stop-color:#32b69b;stop-opacity:1;" offset="1" id="stop8576"/>
    </linearGradient>
    <linearGradient id="linearGradient7727">
      <stop style="stop-color:#0386ea;stop-opacity:1;" offset="0" id="stop7723"/>
      <stop style="stop-color:#11b4ff;stop-opacity:1;" offset="1" id="stop7725"/>
    </linearGradient>
    <clipPath clipPathUnits="userSpaceOnUse" id="clipPath88">
      <path d="m 4251.24,3890.73 c 2.61,8.02 5.1,16.09 7.46,24.19 -139.9,197.7 -370.37,326.77 -630.98,326.77 -426.63,0 -772.48,-345.85 -772.48,-772.48 0,-109.19 22.69,-213.05 63.55,-307.21 7.9,-1.64 15.83,-3.11 23.77,-4.51 118.52,-260.07 380.71,-440.86 685.16,-440.86 415.63,0 752.58,336.94 752.58,752.58 0,156.19 -47.59,301.26 -129.06,421.52 z" id="path86" inkscape:connector-curvature="0"/>
    </clipPath>
    <radialGradient inkscape:collect="always" xlink:href="#linearGradient8578" id="radialGradient8580" cx="15.713943" cy="18.263794" fx="15.713943" fy="18.263794" r="21.544892" gradientUnits="userSpaceOnUse" gradientTransform="matrix(1.4436277,0,0,1.4098437,-6.6116658,-7.4712195)"/>
    <radialGradient inkscape:collect="always" xlink:href="#linearGradient8578" id="radialGradient8580-3" cx="15.713943" cy="18.263794" fx="15.713943" fy="18.263794" r="21.544891" gradientUnits="userSpaceOnUse" gradientTransform="matrix(0.90918676,0,0,0.88790983,-35.197574,-35.777007)"/>
    <radialGradient inkscape:collect="always" xlink:href="#linearGradient8578" id="radialGradient8580-6" cx="15.713943" cy="18.263794" fx="15.713943" fy="18.263794" r="21.544891" gradientUnits="userSpaceOnUse" gradientTransform="matrix(2.7899588,0,0,2.7246677,100.63465,99.069437)"/>
    <radialGradient inkscape:collect="always" xlink:href="#linearGradient8578" id="radialGradient8580-8" cx="15.713943" cy="18.263794" fx="15.713943" fy="18.263794" r="21.544891" gradientUnits="userSpaceOnUse" gradientTransform="matrix(3.6390859,0,0,3.5539234,194.49978,192.4895)"/>
    <radialGradient inkscape:collect="always" xlink:href="#linearGradient8578" id="radialGradient8580-36" cx="15.713943" cy="18.263794" fx="15.713943" fy="18.263794" r="21.544891" gradientUnits="userSpaceOnUse" gradientTransform="matrix(1.8801872,0,0,1.8361868,40.064702,38.976336)"/>
    <radialGradient inkscape:collect="always" xlink:href="#linearGradient8578" id="radialGradient8580-367" cx="15.713943" cy="18.263794" fx="15.713943" fy="18.263794" r="21.544891" gradientUnits="userSpaceOnUse" gradientTransform="matrix(1.4436277,0,0,1.4098437,-10.611666,-11.471219)"/>
    <radialGradient inkscape:collect="always" xlink:href="#linearGradient8578" id="radialGradient8580-2" cx="15.713943" cy="18.263794" fx="15.713943" fy="18.263794" r="21.544891" gradientUnits="userSpaceOnUse" gradientTransform="matrix(1.4436277,0,0,1.4098437,-10.611666,-11.471219)"/>
  </defs>
  <sodipodi:namedview pagecolor="#ffffff" bordercolor="#ffffff" borderopacity="0.62745098" objecttolerance="4" gridtolerance="10" guidetolerance="4" inkscape:pageopacity="0" inkscape:pageshadow="2" inkscape:window-width="640" inkscape:window-height="480" id="namedview20" showgrid="true" inkscape:zoom="8.2423076" inkscape:cx="-10.66836" inkscape:cy="76.770952" inkscape:current-layer="layer6" inkscape:snap-smooth-nodes="true" showguides="true" borderlayer="true" inkscape:showpageshadow="false" inkscape:guide-bbox="true" guidecolor="#bd4fff" guideopacity="0.78431373" inkscape:snap-nodes="true" inkscape:lockguides="false" fit-margin-top="0" fit-margin-left="0" fit-margin-right="0" fit-margin-bottom="0" guidehicolor="#ff0101" guidehiopacity="0.78431373" inkscape:snap-page="true" inkscape:object-nodes="true" inkscape:snap-bbox="true" inkscape:snap-global="true" inkscape:snap-object-midpoints="false" inkscape:snap-bbox-edge-midpoints="false">
    <inkscape:grid type="xygrid" id="grid4171" empspacing="4" dotted="false" originx="2.7755576e-17" originy="0" spacingx="1" spacingy="1" color="#000000" opacity="0.05490196" empcolor="#000000" empopacity="0.16470588" visible="true"/>
    <inkscape:grid type="axonomgrid" id="grid4699" units="mm" empspacing="4" color="#5a5a5a" opacity="0.23529412" empcolor="#5a5a5a" empopacity="0.47058824" gridanglex="45" gridanglez="45" spacingy="3.7795276" visible="false" originx="1.3228346" originy="1.3228346"/>
    <sodipodi:guide position="48,0" orientation="1,0" id="guide4568" inkscape:locked="false" inkscape:label="" inkscape:color="rgb(189,79,255)"/>
    <sodipodi:guide position="111.99996,-3.9999999e-05" orientation="0,1" id="guide4570" inkscape:locked="false" inkscape:label="" inkscape:color="rgb(189,79,255)"/>
    <sodipodi:guide position="0,0" orientation="1,0" id="guide4572" inkscape:locked="false" inkscape:label="" inkscape:color="rgb(189,79,255)"/>
    <sodipodi:guide position="0,48" orientation="0,1" id="guide4574" inkscape:locked="false" inkscape:label="" inkscape:color="rgb(189,79,255)"/>
    <sodipodi:guide position="0,80" orientation="0,1" id="guide4576" inkscape:locked="false" inkscape:label="" inkscape:color="rgb(189,79,255)"/>
    <sodipodi:guide position="-32,48" orientation="1,0" id="guide4578" inkscape:locked="false" inkscape:label="" inkscape:color="rgb(189,79,255)"/>
    <sodipodi:guide position="-32,104" orientation="0,1" id="guide4580" inkscape:locked="false" inkscape:label="" inkscape:color="rgb(189,79,255)"/>
    <sodipodi:guide position="-56,80" orientation="1,0" id="guide4582" inkscape:locked="false" inkscape:label="" inkscape:color="rgb(189,79,255)"/>
    <sodipodi:guide position="48,-64" orientation="0,1" id="guide4584" inkscape:locked="false" inkscape:label="" inkscape:color="rgb(189,79,255)"/>
    <sodipodi:guide position="27.439936,27.439936" orientation="-0.70710678,0.70710678" id="guide4588" inkscape:locked="false" inkscape:label="" inkscape:color="rgb(189,79,255)"/>
    <sodipodi:guide position="-56,80" orientation="-0.70710678,0.70710678" id="guide4573" inkscape:locked="false" inkscape:label="" inkscape:color="rgb(189,79,255)"/>
    <sodipodi:guide position="-32,48" orientation="-0.70710678,0.70710678" id="guide4575" inkscape:locked="false" inkscape:label="" inkscape:color="rgb(189,79,255)"/>
    <sodipodi:guide position="48,-64" orientation="-0.70710678,0.70710678" id="guide4577" inkscape:locked="false" inkscape:label="" inkscape:color="rgb(189,79,255)"/>
    <sodipodi:guide position="47.999962,0" orientation="0.70710678,0.70710678" id="guide4697" inkscape:locked="false" inkscape:label="" inkscape:color="rgb(189,79,255)"/>
    <sodipodi:guide position="207.99995,-288" orientation="0,1" id="guide7833" inkscape:locked="false"/>
    <sodipodi:guide position="335.99994,-288" orientation="1,0" id="guide7835" inkscape:locked="false" inkscape:label="" inkscape:color="rgb(189,79,255)"/>
    <sodipodi:guide position="111.99996,-64" orientation="1,0" id="guide7915" inkscape:locked="false"/>
    <sodipodi:guide position="111.99996,-160" orientation="0,1" id="guide7917" inkscape:locked="false"/>
    <sodipodi:guide position="207.99996,-160" orientation="1,0" id="guide7919" inkscape:locked="false"/>
    <sodipodi:guide position="111.99996,-160" orientation="-0.70710678,0.70710678" id="guide7921" inkscape:locked="false" inkscape:label="" inkscape:color="rgb(189,79,255)"/>
    <sodipodi:guide position="207.99996,-288" orientation="-0.70710678,0.70710678" id="guide7923" inkscape:locked="false" inkscape:label="" inkscape:color="rgb(189,79,255)"/>
    <sodipodi:guide position="-72,104" orientation="1,0" id="guide7824" inkscape:locked="false"/>
    <sodipodi:guide position="-56,120" orientation="0,1" id="guide7826" inkscape:locked="false"/>
    <sodipodi:guide position="-72,104" orientation="-0.70710678,0.70710678" id="guide7828" inkscape:locked="false" inkscape:label="" inkscape:color="rgb(189,79,255)"/>
  </sodipodi:namedview>
  <g inkscape:groupmode="layer" id="layer4" inkscape:label="icon_128" style="display:inline" transform="translate(-207.99995,-208)">
    <g inkscape:groupmode="layer" id="layer11" inkscape:label="frame" style="display:none">
      <rect inkscape:label="frame_128" y="208" x="207.99995" height="128" width="128" id="frame_128" style="color:#000000;clip-rule:nonzero;display:inline;overflow:visible;visibility:visible;opacity:1;isolation:auto;mix-blend-mode:normal;color-interpolation:sRGB;color-interpolation-filters:linearRGB;solid-color:#000000;solid-opacity:1;vector-effect:none;fill:#000000;fill-opacity:1;fill-rule:nonzero;stroke:#ff24f7;stroke-width:0;stroke-linecap:square;stroke-linejoin:miter;stroke-miterlimit:4;stroke-dasharray:none;stroke-dashoffset:0;stroke-opacity:0.99481865;marker:none;marker-start:none;marker-mid:none;marker-end:none;paint-order:normal;color-rendering:auto;image-rendering:auto;shape-rendering:auto;text-rendering:auto;enable-background:accumulate"/>
      <text xml:space="preserve" style="font-size:38.46457672px;line-height:0%;font-family:sans-serif;letter-spacing:0px;word-spacing:0px;display:inline;opacity:1;fill:#ffffff;fill-opacity:1;stroke:none;stroke-width:0.07881754px;stroke-linecap:butt;stroke-linejoin:miter;stroke-opacity:1" x="236.17479" y="283.34512" id="txt_128" inkscape:label="txt_128">
        <tspan sodipodi:role="line" x="236.17479" y="283.34512" style="font-size:38.46457672px;line-height:0%;fill:#ffffff;fill-opacity:1;stroke:none;stroke-width:0.07881754px" id="tspan5069-6">128</tspan>
      </text>
      <text xml:space="preserve" style="font-size:7.43228436px;line-height:1000%;font-family:sans-serif;letter-spacing:0px;word-spacing:0px;display:inline;opacity:1;fill:#ffffff;fill-opacity:0.42156863;stroke:none;stroke-width:0.16398695px;stroke-linecap:butt;stroke-linejoin:miter;stroke-opacity:1" x="265.97781" y="330.1329" id="txt_scalable_64_512" inkscape:label="txt_scalable_64_512">
        <tspan sodipodi:role="line" x="265.97781" y="330.1329" style="font-size:8.08990479px;fill:#ffffff;fill-opacity:0.42156863;stroke:none;stroke-width:0.16398695px" id="tspan5049-1-6-6">Scalable:96-512</tspan>
      </text>
    </g>
    <g inkscape:groupmode="layer" id="layer12" inkscape:label="icon" style="display:inline">
      <path d="m 322.08129,271.82192 c 0,-27.84334 -22.57251,-50.41585 -50.41585,-50.41585 -27.84401,0 -50.41585,22.57251 -50.41585,50.41585 0,27.84402 22.57184,50.41585 50.41585,50.41585 27.84334,0 50.41585,-22.57183 50.41585,-50.41585" style="display:inline;fill:url(#radialGradient8580-8);fill-opacity:1;fill-rule:nonzero;stroke:none;stroke-width:0.06699067" id="path78-3" inkscape:connector-curvature="0" inkscape:label="cirtulo"/>
      <path style="display:inline;fill:#90e2a3;fill-opacity:0.50520833;fill-rule:nonzero;stroke:none;stroke-width:0.06699067" d="m 224.92246,290.51617 c 0.28206,0.061 0.53411,0.19309 0.8173,0.25107 5.06386,1.03619 10.30598,1.58041 15.67617,1.58041 5.37007,0 10.61239,-0.54422 15.67618,-1.58041 5.0638,-1.03623 9.94965,-2.56141 14.60288,-4.52956 4.65323,-1.96816 9.07606,-4.37759 13.21447,-7.17342 4.13839,-2.79584 7.99169,-5.97806 11.51095,-9.49729 3.51928,-3.51923 6.70142,-7.3775 9.49729,-11.51589 2.79588,-4.13838 5.20523,-8.56122 7.17341,-13.21447 0.1626,-0.38445 0.21755,-0.81865 0.37419,-1.20623 -9.06071,-13.40746 -24.40026,-22.22431 -41.79986,-22.22431 -27.84399,0 -50.41585,22.57251 -50.41585,50.41585 0,6.61859 1.3545,12.90376 3.67287,18.69425 z" id="path8613-61" inkscape:connector-curvature="0" inkscape:label="brillo"/>
      <path style="display:inline;fill:#207fa2;fill-opacity:0.92708333;fill-rule:nonzero;stroke:none;stroke-width:0.06364582" d="m 270.79267,222.03009 -8.78426,0.23872 -7.78118,2.61399 5.99656,2.04517 4.58969,-0.95095 0.39079,1.51976 0.99872,2.61401 -1.79768,2.14069 0.39947,4.27705 2.79203,0.95094 1.79768,-4.99351 3.39124,-0.71212 3.79508,-3.08729 -2.99611,-5.70564 z m -19.69616,6.94315 -7.05172,2.70518 -11.35481,8.11988 -4.69825,7.92449 -3.72124,5.98786 0.19536,14.30318 1.56753,-0.77292 0.39077,-6.56972 1.36781,10.24322 3.91665,2.31872 3.33045,2.50978 2.34913,3.09165 4.80246,-0.56884 -0.7816,0.76423 1.05516,3.86455 -2.53151,2.12767 0.84673,3.66914 4.63746,7.34698 2.73992,0.38646 2.32306,1.93227 1.68477,7.53802 1.05516,4.0556 5.14549,8.50634 5.88799,1.63703 -3.86455,-5.3105 -0.84237,-3.86455 3.1611,-3.47809 2.5315,-6.18762 4.00783,-0.57751 2.53151,-7.53803 3.1611,-2.70518 -2.73993,-3.47809 -9.70043,-1.74121 -1.26358,-4.25102 -4.64178,-0.19108 -2.95271,-3.28703 -3.79505,-0.19536 -5.06299,-1.5458 -2.54887,2.48371 -3.47376,-2.09725 -0.98131,-3.09165 -3.32611,-1.15937 0.97698,-3.28267 -3.13072,2.12331 -1.56753,-1.15936 0.19536,-6.56972 5.08902,-2.31872 2.34913,0.38644 0.59055,4.44206 2.34912,-0.38646 0.58619,-7.34264 3.91665,-1.15937 v -3.47808 l 4.50285,-3.47809 4.89363,-0.19536 -1.75858,-3.66914 6.65659,-2.32307 -4.11207,-5.21496 -2.54452,1.15936 -0.78593,-3.6735 -2.54451,0.77293 -3.72127,7.34261 -1.36778,-2.89624 -2.54452,-2.31872 5.67524,-3.86453 c 0,0 3.9154,-1.35477 4.69823,-1.35477 0.78349,0 2.34912,1.74121 2.34912,1.74121 l 3.13506,-2.31873 -0.98134,-2.70952 -3.9123,0.38646 z m 42.28854,1.74121 -4.30743,0.57751 1.37211,7.34698 3.13506,0.38646 3.13073,2.50978 v -2.70519 l -2.73993,-4.0556 5.47985,3.47808 0.19536,4.44207 -4.89366,0.58185 -2.15372,4.05994 2.15372,3.66916 -5.08903,-0.57751 0.97699,5.79681 2.93967,1.35042 3.5215,-3.28271 0.59054,-4.25099 2.34913,0.57752 2.54451,2.51411 -1.76292,2.5098 2.93532,0.77724 0.98132,-2.90058 1.56753,2.90058 1.95399,-2.12768 1.56753,3.28271 2.93964,0.77726 -0.19964,3.66914 -4.30743,-1.73688 -0.97701,1.15936 -5.28877,-1.93226 -1.36779,-2.51414 -9.57452,1.91056 -6.14854,9.42255 1.36778,7.51198 5.47118,5.39299 7.70737,-1.24185 2.93965,3.28702 -1.76292,5.21932 1.36779,6.37867 -3.91232,5.41035 -3.52584,8.31095 5.28444,-0.96831 8.4195,-7.92449 4.11204,-7.53803 2.74426,-7.7291 3.13073,-3.47809 -2.54454,-2.51411 -2.3491,-13.72131 2.7399,5.21931 v 6.76512 l 2.54451,-2.90057 -0.7816,-9.47032 -1.95833,-5.41035 -1.95832,-7.53805 -6.27446,-8.84937 -3.51282,-5.44945 -7.05172,-3.48242 z" id="path90-2" inkscape:connector-curvature="0" inkscape:label="continentes sombra"/>
      <path style="display:inline;fill:#f6fef6;fill-opacity:1;fill-rule:nonzero;stroke:none;stroke-width:0.06364582" d="m 270.43459,222.11013 -9.01478,0.20191 -7.99071,2.25493 5.73578,0.81729 4.71172,-0.81729 0.82221,2.25492 1.02407,2.25001 -1.84628,1.84628 0.40864,3.68764 2.87036,0.81729 1.84627,-4.30307 3.48087,-0.61051 3.89442,-2.66357 -3.07713,-4.91849 z m -20.28451,4.30306 -7.37529,2.86544 -11.88022,8.60614 -4.91849,8.39444 -3.88951,6.35612 0.20192,15.15922 1.6395,-0.82221 0.41356,-6.96664 1.43272,10.86106 0.41356,0.24629 3.67781,2.21063 3.49069,2.66357 2.45679,3.279 4.82989,-0.58097 -0.73852,0.78775 1.02899,4.09629 -2.46171,2.25 0.61052,2.88513 0.21174,1.0093 4.50985,7.78393 2.65866,0.41356 2.25492,2.04323 1.6395,7.99565 1.02407,4.29813 3.68764,5.73578 5.73579,3.27902 -2.45679,-3.8895 -0.82221,-4.10123 3.07713,-3.68764 2.45679,-6.55308 3.88951,-0.61543 2.45679,-7.99071 3.07716,-2.87035 -2.6636,-3.68273 -9.42834,-1.84627 -0.20671,-0.76312 -1.01915,-3.74673 -4.50985,-0.20192 -2.86544,-3.48086 -3.6827,-0.20671 -4.92344,-1.63949 -2.41247,2.5651 -3.52518,-2.15154 -1.02407,-3.279 -3.48578,-1.23085 0.74344,-2.52079 0.28555,-0.96007 -2.21552,1.5164 -1.06347,0.73852 -0.45297,-0.34464 -1.18653,-0.88621 0.2067,-6.97158 5.32223,-2.45679 2.4617,0.41359 0.61051,4.71171 2.45679,-0.41356 0.62034,-7.77902 4.09138,-1.23085 v -3.69258 l 4.71663,-3.6827 5.12036,-0.20671 -1.84137,-3.89445 6.96667,-2.45678 -4.30307,-5.53393 -2.6636,1.23086 -0.8222,-3.88949 -2.66357,0.81727 -3.88951,7.78887 -1.43272,-3.07716 -2.66848,-2.45676 5.94256,-4.09629 c 0,0 4.09939,-1.43271 4.9185,-1.43271 0.81913,0 2.45679,1.84133 2.45679,1.84133 l 3.27899,-2.4617 -1.02407,-2.86544 -4.09629,0.40865 z m 44.25173,1.84137 -4.50985,0.61542 1.43763,7.78393 3.27408,0.40865 3.279,2.66357 v -2.86544 l -2.86544,-4.30306 5.73579,3.68272 0.20671,4.71663 -5.12036,0.61051 -2.25493,4.30307 2.25493,3.89442 -5.32715,-0.61542 1.02408,6.14443 3.0673,1.43763 3.69255,-3.48577 0.61052,-4.50494 2.4617,0.61543 2.66357,2.65865 -1.84628,2.66849 1.55581,0.41356 1.52132,0.40373 1.02408,-3.07222 1.63458,3.07222 2.05306,-2.25492 1.6395,3.48577 3.0673,0.81729 -0.20192,3.89443 -4.50493,-1.84628 -1.02899,1.23085 -5.52901,-2.04814 -1.00438,-1.87091 -0.42833,-0.79266 -8.19258,1.84628 -6.35613,9.42342 0.40371,4.03229 0.4185,4.16029 6.14443,5.93765 6.35121,-1.02407 3.07222,3.4858 -1.84136,5.52901 1.43271,6.75985 -4.09628,5.73579 -3.69256,8.81292 5.53392,-1.02407 8.81292,-8.39936 4.30307,-7.99071 2.86543,-8.19752 3.27408,-3.68764 -2.65865,-2.65863 -2.45679,-14.54873 2.86543,5.53392 v 7.16851 l 2.66357,-3.07222 -0.81729,-10.03885 -2.05306,-5.73579 -2.04814,-7.98579 -5.21882,-7.46884 -1.34409,-1.91519 -3.67781,-5.7801 -7.37529,-3.68765 z" id="path98-9" inkscape:connector-curvature="0" inkscape:label="continentes"/>
      <ellipse inkscape:label="red2" transform="matrix(0.918118,-0.39630712,0.3323136,0.94316895,0,0)" ry="14.581576" rx="58.733089" cy="339.92566" cx="168.9958" id="ellipse8631-3" style="color:#000000;clip-rule:nonzero;display:inline;overflow:visible;visibility:visible;opacity:1;isolation:auto;mix-blend-mode:normal;color-interpolation:sRGB;color-interpolation-filters:linearRGB;solid-color:#000000;solid-opacity:1;vector-effect:none;fill:none;fill-opacity:0.359375;fill-rule:nonzero;stroke:#000000;stroke-width:1.26188707;stroke-linecap:butt;stroke-linejoin:miter;stroke-miterlimit:4;stroke-dasharray:2.52377404, 1.26188702, 0.6309435, 1.26188702;stroke-dashoffset:0;stroke-opacity:0.16145833;marker:none;marker-start:none;marker-mid:none;marker-end:none;paint-order:fill markers stroke;color-rendering:auto;image-rendering:auto;shape-rendering:auto;text-rendering:auto;enable-background:accumulate"/>
      <ellipse inkscape:label="red2" style="color:#000000;clip-rule:nonzero;display:inline;overflow:visible;visibility:visible;opacity:1;isolation:auto;mix-blend-mode:normal;color-interpolation:sRGB;color-interpolation-filters:linearRGB;solid-color:#000000;solid-opacity:1;vector-effect:none;fill:none;fill-opacity:0.359375;fill-rule:nonzero;stroke:#000000;stroke-width:1.24449599;stroke-linecap:butt;stroke-linejoin:miter;stroke-miterlimit:4;stroke-dasharray:2.48899179, 1.2444959, 0.62224795, 1.2444959;stroke-dashoffset:0;stroke-opacity:0.16145833;marker:none;marker-start:none;marker-mid:none;marker-end:none;paint-order:fill markers stroke;color-rendering:auto;image-rendering:auto;shape-rendering:auto;text-rendering:auto;enable-background:accumulate" id="ellipse8633-1" cx="366.85602" cy="130.93764" rx="63.736023" ry="15.823647" transform="matrix(0.91225052,0.40963276,-0.47132018,0.88196218,0,0)"/>
      <ellipse inkscape:label="red2" transform="matrix(0.35540442,0.93471263,-0.95691513,0.29036774,0,0)" ry="15.409787" rx="62.069035" cy="-145.88336" cx="337.04666" id="ellipse8635-9" style="color:#000000;clip-rule:nonzero;display:inline;overflow:visible;visibility:visible;opacity:1;isolation:auto;mix-blend-mode:normal;color-interpolation:sRGB;color-interpolation-filters:linearRGB;solid-color:#000000;solid-opacity:1;vector-effect:none;fill:none;fill-opacity:0.359375;fill-rule:nonzero;stroke:#000000;stroke-width:1.26188707;stroke-linecap:butt;stroke-linejoin:miter;stroke-miterlimit:4;stroke-dasharray:2.52377404, 1.26188702, 0.6309435, 1.26188702;stroke-dashoffset:0;stroke-opacity:0.16145833;marker:none;marker-start:none;marker-mid:none;marker-end:none;paint-order:fill markers stroke;color-rendering:auto;image-rendering:auto;shape-rendering:auto;text-rendering:auto;enable-background:accumulate"/>
      <ellipse inkscape:label="red2" style="color:#000000;clip-rule:nonzero;display:inline;overflow:visible;visibility:visible;opacity:1;isolation:auto;mix-blend-mode:normal;color-interpolation:sRGB;color-interpolation-filters:linearRGB;solid-color:#000000;solid-opacity:1;vector-effect:none;fill:none;fill-opacity:0.359375;fill-rule:nonzero;stroke:#000000;stroke-width:1.24073207;stroke-linecap:butt;stroke-linejoin:miter;stroke-miterlimit:4;stroke-dasharray:2.48146412, 1.24073205, 0.62036602, 1.24073205;stroke-dashoffset:0;stroke-opacity:0.16145833;marker:none;marker-start:none;marker-mid:none;marker-end:none;paint-order:fill markers stroke;color-rendering:auto;image-rendering:auto;shape-rendering:auto;text-rendering:auto;enable-background:accumulate" id="ellipse8637-4" cx="76.743889" cy="-360.27258" rx="61.028477" ry="15.151449" transform="matrix(-0.50038712,0.86580178,-0.82938999,-0.55867007,0,0)"/>
      <ellipse style="color:#000000;clip-rule:nonzero;display:inline;overflow:visible;visibility:visible;opacity:1;isolation:auto;mix-blend-mode:normal;color-interpolation:sRGB;color-interpolation-filters:linearRGB;solid-color:#000000;solid-opacity:1;vector-effect:none;fill:none;fill-opacity:0.359375;fill-rule:nonzero;stroke:#ffffff;stroke-width:1.26188707;stroke-linecap:butt;stroke-linejoin:miter;stroke-miterlimit:4;stroke-dasharray:2.52377404, 1.26188702, 0.6309435, 1.26188702;stroke-dashoffset:0;stroke-opacity:1;marker:none;marker-start:none;marker-mid:none;marker-end:none;paint-order:fill markers stroke;color-rendering:auto;image-rendering:auto;shape-rendering:auto;text-rendering:auto;enable-background:accumulate" id="path8605-78" cx="168.19751" cy="338.71173" rx="58.733089" ry="14.581576" transform="matrix(0.918118,-0.39630712,0.3323136,0.94316895,0,0)" inkscape:label="red"/>
      <ellipse transform="matrix(0.91225052,0.40963276,-0.47132018,0.88196218,0,0)" ry="15.823647" rx="63.736023" cy="130.65053" cx="365.47931" id="ellipse8607-4" style="color:#000000;clip-rule:nonzero;display:inline;overflow:visible;visibility:visible;opacity:1;isolation:auto;mix-blend-mode:normal;color-interpolation:sRGB;color-interpolation-filters:linearRGB;solid-color:#000000;solid-opacity:1;vector-effect:none;fill:none;fill-opacity:0.359375;fill-rule:nonzero;stroke:#ffffff;stroke-width:1.24449599;stroke-linecap:butt;stroke-linejoin:miter;stroke-miterlimit:4;stroke-dasharray:2.48899179, 1.2444959, 0.62224795, 1.2444959;stroke-dashoffset:0;stroke-opacity:1;marker:none;marker-start:none;marker-mid:none;marker-end:none;paint-order:fill markers stroke;color-rendering:auto;image-rendering:auto;shape-rendering:auto;text-rendering:auto;enable-background:accumulate" inkscape:label="red"/>
      <ellipse style="color:#000000;clip-rule:nonzero;display:inline;overflow:visible;visibility:visible;opacity:1;isolation:auto;mix-blend-mode:normal;color-interpolation:sRGB;color-interpolation-filters:linearRGB;solid-color:#000000;solid-opacity:1;vector-effect:none;fill:none;fill-opacity:0.359375;fill-rule:nonzero;stroke:#ffffff;stroke-width:1.26188707;stroke-linecap:butt;stroke-linejoin:miter;stroke-miterlimit:4;stroke-dasharray:2.52377404, 1.26188702, 0.6309435, 1.26188702;stroke-dashoffset:0;stroke-opacity:1;marker:none;marker-start:none;marker-mid:none;marker-end:none;paint-order:fill markers stroke;color-rendering:auto;image-rendering:auto;shape-rendering:auto;text-rendering:auto;enable-background:accumulate" id="ellipse8609-5" cx="335.92114" cy="-145.11392" rx="62.069035" ry="15.409787" transform="matrix(0.35540442,0.93471263,-0.95691513,0.29036774,0,0)" inkscape:label="red"/>
      <ellipse transform="matrix(-0.50038712,0.86580178,-0.82938999,-0.55867007,0,0)" ry="15.151449" rx="61.028477" cy="-358.89441" cx="76.692192" id="ellipse8611-0" style="color:#000000;clip-rule:nonzero;display:inline;overflow:visible;visibility:visible;opacity:1;isolation:auto;mix-blend-mode:normal;color-interpolation:sRGB;color-interpolation-filters:linearRGB;solid-color:#000000;solid-opacity:1;vector-effect:none;fill:none;fill-opacity:0.359375;fill-rule:nonzero;stroke:#ffffff;stroke-width:1.24073207;stroke-linecap:butt;stroke-linejoin:miter;stroke-miterlimit:4;stroke-dasharray:2.48146412, 1.24073205, 0.62036602, 1.24073205;stroke-dashoffset:0;stroke-opacity:1;marker:none;marker-start:none;marker-mid:none;marker-end:none;paint-order:fill markers stroke;color-rendering:auto;image-rendering:auto;shape-rendering:auto;text-rendering:auto;enable-background:accumulate" inkscape:label="red"/>
    </g>
  </g>
</svg>