<?xml version="1.0" encoding="UTF-8" standalone="yes"?>
<svg xmlns:osb="http://www.openswatchbook.org/uri/2009/osb" xmlns:dc="http://purl.org/dc/elements/1.1/" xmlns:cc="http://creativecommons.org/ns#" xmlns:rdf="http://www.w3.org/1999/02/22-rdf-syntax-ns#" xmlns:svg="http://www.w3.org/2000/svg" xmlns="http://www.w3.org/2000/svg" xmlns:xlink="http://www.w3.org/1999/xlink" xmlns:sodipodi="http://sodipodi.sourceforge.net/DTD/sodipodi-0.dtd" xmlns:inkscape="http://www.inkscape.org/namespaces/inkscape" height="48" viewBox="0 0 48 48" width="48" id="svg2" version="1.1" inkscape:version="0.92.2 5c3e80d, 2017-08-06" sodipodi:docname="text-x-generic-template.svg" enable-background="new" folder="48">
  <title id="title4675">Template icons dark</title>
  <metadata id="metadata24">
    <rdf:RDF>
      <cc:Work rdf:about="">
        <dc:format>image/svg+xml</dc:format>
        <dc:type rdf:resource="http://purl.org/dc/dcmitype/StillImage"/>
        <dc:title>Template icons dark</dc:title>
        <dc:date>17/05/13</dc:date>
        <dc:creator>
          <cc:Agent>
            <dc:title>wfpaisa</dc:title>
          </cc:Agent>
        </dc:creator>
        <dc:rights>
          <cc:Agent>
            <dc:title>License: GPLv3</dc:title>
          </cc:Agent>
        </dc:rights>
        <dc:language>es-en</dc:language>
        <dc:subject>
          <rdf:Bag>
            <rdf:li>plane-icon-theme</rdf:li>
          </rdf:Bag>
        </dc:subject>
        <dc:description>Template for create set icons</dc:description>
        <cc:license rdf:resource="https://www.gnu.org/licenses/gpl-3.0.en.html"/>
      </cc:Work>
    </rdf:RDF>
  </metadata>
  <defs id="defs22">
    <linearGradient id="Pestana-sombra-3" osb:paint="solid">
      <stop style="stop-color:#000000;stop-opacity:0.19553073;" offset="0" id="stop8273"/>
    </linearGradient>
    <linearGradient id="Hoja-brillo-8" osb:paint="solid">
      <stop style="stop-color:#ffffff;stop-opacity:0.33333334;" offset="0" id="stop8267"/>
    </linearGradient>
    <linearGradient id="Hoja-sombra-2_-2" osb:paint="solid">
      <stop style="stop-color:#000000;stop-opacity:0.00877193;" offset="0" id="stop8261"/>
    </linearGradient>
    <linearGradient id="Hoja-sombra-1_-9" osb:paint="solid">
      <stop style="stop-color:#000000;stop-opacity:0.03070175;" offset="0" id="stop8255"/>
    </linearGradient>
    <linearGradient id="Pestana-6">
      <stop id="stop7875" offset="0" style="stop-color:#5ebfff;stop-opacity:1;"/>
      <stop id="stop7879" offset="1" style="stop-color:#40b3ff;stop-opacity:1;"/>
    </linearGradient>
    <linearGradient id="Hoja_-5">
      <stop id="stop7831" offset="0" style="stop-color:#36afff;stop-opacity:1;"/>
      <stop id="stop7833" offset="1" style="stop-color:#0090ee;stop-opacity:1;"/>
    </linearGradient>
    <linearGradient inkscape:collect="always" xlink:href="#Hoja_-5" id="linearGradient8848" gradientUnits="userSpaceOnUse" gradientTransform="matrix(2.1943448,0,0,2.19615,107.37835,109.17328)" x1="24.116938" y1="4.9307919" x2="24.058121" y2="42.556389"/>
    <linearGradient inkscape:collect="always" xlink:href="#Pestana-6" id="linearGradient8852" gradientUnits="userSpaceOnUse" gradientTransform="matrix(2.5078225,0,0,2.19615,97.006583,108.93197)" x1="33.093815" y1="10.50385" x2="29.903797" y2="14.146588"/>
    <linearGradient inkscape:collect="always" xlink:href="#Hoja_-5" id="linearGradient7823-7" gradientUnits="userSpaceOnUse" x1="24.116938" y1="4.9307919" x2="24.058121" y2="42.556389" gradientTransform="matrix(1.1194338,0,0,1.1203548,-2.9435792,-2.6942142)"/>
    <linearGradient inkscape:collect="always" xlink:href="#Hoja-sombra-2" id="linearGradient7865-3" gradientUnits="userSpaceOnUse" gradientTransform="matrix(1.1194338,0,0,1.1203548,-2.9435792,-2.6942142)" x1="26.072924" y1="18.962273" x2="34.373611" y2="10.815324"/>
    <linearGradient inkscape:collect="always" xlink:href="#Pestana-6" id="linearGradient7825-6" gradientUnits="userSpaceOnUse" x1="34.176132" y1="10.27618" x2="30.758255" y2="13.691247" gradientTransform="matrix(1.2793529,0,0,1.1203548,-8.2346867,-2.8173169)"/>
    <linearGradient id="Hoja-16_-2">
      <stop style="stop-color:#ffffff;stop-opacity:0.25;" offset="0" id="stop7714"/>
      <stop style="stop-color:#ffffff;stop-opacity:0.28289473;" offset="1" id="stop7716"/>
    </linearGradient>
    <linearGradient inkscape:collect="always" xlink:href="#Hoja_-5" id="linearGradient7909" gradientUnits="userSpaceOnUse" gradientTransform="matrix(1.4628966,0,0,1.4641001,44.91893,46.115528)" x1="24.116938" y1="4.9307919" x2="24.058121" y2="42.556389"/>
    <linearGradient inkscape:collect="always" xlink:href="#Hoja-sombra-2" id="linearGradient7911" gradientUnits="userSpaceOnUse" gradientTransform="matrix(1.4628966,0,0,1.4641001,44.91893,46.115528)" x1="26.072924" y1="18.962273" x2="34.373611" y2="10.815324"/>
    <linearGradient inkscape:collect="always" xlink:href="#Pestana-6" id="linearGradient7913" gradientUnits="userSpaceOnUse" gradientTransform="matrix(1.6718818,0,0,1.4641001,38.00441,45.954658)" x1="34.176132" y1="10.27618" x2="30.758255" y2="13.691247"/>
    <linearGradient inkscape:collect="always" xlink:href="#Hoja-sombra-2" id="linearGradient8850-3" gradientUnits="userSpaceOnUse" gradientTransform="matrix(2.1943448,0,0,2.19615,107.37835,109.17328)" x1="23.980556" y1="23.143555" x2="45.854969" y2="1.2871252"/>
    <linearGradient inkscape:collect="always" xlink:href="#Hoja-sombra-2" id="linearGradient4621" gradientUnits="userSpaceOnUse" gradientTransform="matrix(2.1943448,0,0,2.19615,107.37835,109.17328)" x1="23.980556" y1="23.143555" x2="2.1061459" y2="44.999985"/>
    <linearGradient inkscape:collect="always" xlink:href="#Hoja-sombra-2" id="linearGradient8301" gradientUnits="userSpaceOnUse" gradientTransform="matrix(2.1943448,0,0,2.19615,107.37835,109.17328)" x1="23.980556" y1="23.143555" x2="45.854969" y2="44.999985"/>
    <linearGradient id="Hoja-sombra-2">
      <stop id="stop8303" offset="0" style="stop-color:#000000;stop-opacity:0"/>
      <stop id="stop8305" offset="1" style="stop-color:#000000;stop-opacity:0.10196079"/>
    </linearGradient>
    <linearGradient inkscape:collect="always" xlink:href="#Hoja-sombra-2" id="linearGradient7895" gradientUnits="userSpaceOnUse" gradientTransform="matrix(2.1943448,0,0,2.19615,107.37835,109.17328)" x1="23.980556" y1="23.143555" x2="2.1061459" y2="1.2871252"/>
    <linearGradient inkscape:collect="always" xlink:href="#Hoja_-5" id="linearGradient7818" gradientUnits="userSpaceOnUse" gradientTransform="matrix(0.74628918,0,0,0.74690318,-33.962385,-33.796142)" x1="24.116938" y1="4.9307919" x2="24.058121" y2="42.556389"/>
    <linearGradient inkscape:collect="always" xlink:href="#Pestana-6" id="linearGradient7822" gradientUnits="userSpaceOnUse" gradientTransform="matrix(0.85290191,0,0,0.74690318,-37.489791,-33.878211)" x1="28.713491" y1="15.702977" x2="25.196087" y2="18.581003"/>
    <linearGradient inkscape:collect="always" xlink:href="#Hoja-sombra-1_-9" id="linearGradient8259" x1="125.99999" y1="161.5" x2="193.99999" y2="161.5" gradientUnits="userSpaceOnUse"/>
    <linearGradient inkscape:collect="always" xlink:href="#Hoja-sombra-2_-2" id="linearGradient8265" x1="125" y1="161.49999" x2="195" y2="161.49999" gradientUnits="userSpaceOnUse"/>
    <linearGradient inkscape:collect="always" xlink:href="#Hoja-brillo-8" id="linearGradient8271" x1="126.99999" y1="120.5" x2="168.99999" y2="120.5" gradientUnits="userSpaceOnUse"/>
    <linearGradient inkscape:collect="always" xlink:href="#Pestana-sombra-3" id="linearGradient8277" x1="165.99999" y1="133.47244" x2="192.99999" y2="133.47244" gradientUnits="userSpaceOnUse"/>
    <linearGradient gradientTransform="matrix(1.33333,0,0,1.33333,58.6672,56.167208)" inkscape:collect="always" xlink:href="#Hoja-sombra-2_-2" id="linearGradient8265-7" x1="125" y1="161.49998" x2="195" y2="161.49998" gradientUnits="userSpaceOnUse"/>
    <linearGradient gradientTransform="matrix(1.33333,0,0,1.33333,58.6672,56.167208)" inkscape:collect="always" xlink:href="#Hoja-sombra-1_-9" id="linearGradient8259-9" x1="125.99999" y1="161.5" x2="193.99998" y2="161.5" gradientUnits="userSpaceOnUse"/>
    <linearGradient inkscape:collect="always" xlink:href="#Hoja_-5" id="linearGradient8848-4" gradientUnits="userSpaceOnUse" gradientTransform="matrix(2.9257858,0,0,2.9281927,201.83798,201.73122)" x1="24.116938" y1="4.9307919" x2="24.058121" y2="42.556389"/>
    <linearGradient inkscape:collect="always" xlink:href="#Hoja-sombra-2" id="linearGradient8301-3" gradientUnits="userSpaceOnUse" gradientTransform="matrix(2.9257858,0,0,2.9281927,201.83798,201.73122)" x1="23.980556" y1="23.143555" x2="45.854969" y2="44.999985"/>
    <linearGradient inkscape:collect="always" xlink:href="#Hoja-sombra-2" id="linearGradient4621-0" gradientUnits="userSpaceOnUse" gradientTransform="matrix(2.9257858,0,0,2.9281927,201.83798,201.73122)" x1="23.980556" y1="23.143555" x2="2.1061459" y2="44.999985"/>
    <linearGradient inkscape:collect="always" xlink:href="#Hoja-sombra-2" id="linearGradient8850-3-8" gradientUnits="userSpaceOnUse" gradientTransform="matrix(2.9257858,0,0,2.9281927,201.83798,201.73122)" x1="23.980556" y1="23.143555" x2="45.854969" y2="1.2871252"/>
    <linearGradient inkscape:collect="always" xlink:href="#Hoja-sombra-2" id="linearGradient7895-1" gradientUnits="userSpaceOnUse" gradientTransform="matrix(2.9257858,0,0,2.9281927,201.83798,201.73122)" x1="23.980556" y1="23.143555" x2="2.1061459" y2="1.2871252"/>
    <linearGradient gradientTransform="matrix(1.33333,0,0,1.33333,58.6672,56.167208)" inkscape:collect="always" xlink:href="#Hoja-brillo-8" id="linearGradient8271-9" x1="126.99999" y1="120.5" x2="168.99998" y2="120.5" gradientUnits="userSpaceOnUse"/>
    <linearGradient gradientTransform="matrix(1.33333,0,0,1.33333,58.6672,56.167208)" inkscape:collect="always" xlink:href="#Pestana-sombra-3" id="linearGradient8277-7" x1="165.99998" y1="133.47244" x2="192.99998" y2="133.47244" gradientUnits="userSpaceOnUse"/>
    <linearGradient inkscape:collect="always" xlink:href="#Pestana-6" id="linearGradient8852-2" gradientUnits="userSpaceOnUse" gradientTransform="matrix(3.343755,0,0,2.9281927,188.00898,201.40947)" x1="33.093815" y1="10.50385" x2="29.903797" y2="14.146588"/>
    <linearGradient inkscape:collect="always" xlink:href="#Hoja_-5" id="linearGradient8613" x1="-43.047825" y1="-34" x2="-43.047825" y2="-28" gradientUnits="userSpaceOnUse"/>
    <linearGradient gradientTransform="translate(0.0025287,0.00911844)" inkscape:collect="always" xlink:href="#patron-6" id="linearGradient9428" gradientUnits="userSpaceOnUse" x1="188" y1="173.49998" x2="189" y2="173.49998"/>
    <linearGradient id="patron-6" osb:paint="solid">
      <stop style="stop-color:#ffffff;stop-opacity:0.27843139;" offset="0" id="stop9305"/>
    </linearGradient>
    <linearGradient gradientTransform="matrix(1.3331528,0,0,1.3374408,58.689935,55.49812)" inkscape:collect="always" xlink:href="#patron-6" id="linearGradient9428-3" gradientUnits="userSpaceOnUse" x1="188" y1="173.49998" x2="189" y2="173.49998"/>
    <linearGradient gradientTransform="matrix(0.66625707,0,0,0.67462792,-26.614534,-27.958409)" inkscape:collect="always" xlink:href="#patron-6" id="linearGradient9428-2" gradientUnits="userSpaceOnUse" x1="188" y1="173.49998" x2="189" y2="173.49998"/>
    <linearGradient gradientTransform="matrix(0.49999999,0,0,0.50607896,-56.499996,-57.739183)" inkscape:collect="always" xlink:href="#patron-6" id="linearGradient9428-36" gradientUnits="userSpaceOnUse" x1="188" y1="173.49998" x2="189" y2="173.49998"/>
    <linearGradient inkscape:collect="always" xlink:href="#Hoja_-5" id="linearGradient7818-3" gradientUnits="userSpaceOnUse" gradientTransform="matrix(0.74628918,0,0,0.74690318,-6.962385,-3.796142)" x1="24.116938" y1="4.9307919" x2="24.058121" y2="42.556389"/>
    <linearGradient gradientTransform="translate(69,70.00001)" inkscape:collect="always" xlink:href="#Hoja_-5" id="linearGradient8613-3" x1="-43.047825" y1="-34" x2="-43.047825" y2="-28" gradientUnits="userSpaceOnUse"/>
    <linearGradient inkscape:collect="always" xlink:href="#Hoja_-5" id="linearGradient7818-9" gradientUnits="userSpaceOnUse" gradientTransform="matrix(0.74628918,0,0,0.74690318,36.037615,37.203858)" x1="24.116938" y1="4.9307919" x2="24.058121" y2="42.556389"/>
  </defs>
  <sodipodi:namedview pagecolor="#ffffff" bordercolor="#ffffff" borderopacity="0.62745098" objecttolerance="4" gridtolerance="10" guidetolerance="4" inkscape:pageopacity="0" inkscape:pageshadow="2" inkscape:window-width="640" inkscape:window-height="480" id="namedview20" showgrid="true" inkscape:zoom="32.578064" inkscape:cx="238.34857" inkscape:cy="-280.54463" inkscape:current-layer="layer12" inkscape:snap-smooth-nodes="false" showguides="true" borderlayer="true" inkscape:showpageshadow="false" inkscape:guide-bbox="true" guidecolor="#bd4fff" guideopacity="0.78431373" inkscape:snap-nodes="true" inkscape:lockguides="false" fit-margin-top="0" fit-margin-left="0" fit-margin-right="0" fit-margin-bottom="0" guidehicolor="#ff0101" guidehiopacity="0.78431373" inkscape:snap-page="true" inkscape:object-nodes="true" inkscape:snap-bbox="true" inkscape:snap-global="true" inkscape:snap-object-midpoints="false" inkscape:snap-bbox-edge-midpoints="false">
    <inkscape:grid type="xygrid" id="grid4171" empspacing="4" dotted="false" originx="2.7755576e-17" originy="0" spacingx="1" spacingy="1" color="#000000" opacity="0.09411765" empcolor="#000000" empopacity="0.19607843" visible="true"/>
    <inkscape:grid type="axonomgrid" id="grid4699" units="mm" empspacing="4" color="#5a5a5a" opacity="0.23529412" empcolor="#5a5a5a" empopacity="0.47058824" gridanglex="45" gridanglez="45" spacingy="3.7795276" visible="false" originx="1.3228346" originy="1.3228346"/>
    <sodipodi:guide position="48,0" orientation="1,0" id="guide4568" inkscape:locked="false" inkscape:label="" inkscape:color="rgb(189,79,255)"/>
    <sodipodi:guide position="111.99996,-3.9999999e-05" orientation="0,1" id="guide4570" inkscape:locked="false" inkscape:label="" inkscape:color="rgb(189,79,255)"/>
    <sodipodi:guide position="0,0" orientation="1,0" id="guide4572" inkscape:locked="false" inkscape:label="" inkscape:color="rgb(189,79,255)"/>
    <sodipodi:guide position="0,48" orientation="0,1" id="guide4574" inkscape:locked="false" inkscape:label="" inkscape:color="rgb(189,79,255)"/>
    <sodipodi:guide position="0,80" orientation="0,1" id="guide4576" inkscape:locked="false" inkscape:label="" inkscape:color="rgb(189,79,255)"/>
    <sodipodi:guide position="-32,48" orientation="1,0" id="guide4578" inkscape:locked="false" inkscape:label="" inkscape:color="rgb(189,79,255)"/>
    <sodipodi:guide position="-32,104" orientation="0,1" id="guide4580" inkscape:locked="false" inkscape:label="" inkscape:color="rgb(189,79,255)"/>
    <sodipodi:guide position="-56,80" orientation="1,0" id="guide4582" inkscape:locked="false" inkscape:label="" inkscape:color="rgb(189,79,255)"/>
    <sodipodi:guide position="48,-64" orientation="0,1" id="guide4584" inkscape:locked="false" inkscape:label="" inkscape:color="rgb(189,79,255)"/>
    <sodipodi:guide position="0,0" orientation="-0.70710678,0.70710678" id="guide4588" inkscape:locked="false" inkscape:label="" inkscape:color="rgb(189,79,255)"/>
    <sodipodi:guide position="-56,80" orientation="-0.70710678,0.70710678" id="guide4573" inkscape:locked="false" inkscape:label="" inkscape:color="rgb(189,79,255)"/>
    <sodipodi:guide position="-32,48" orientation="-0.70710678,0.70710678" id="guide4575" inkscape:locked="false" inkscape:label="" inkscape:color="rgb(189,79,255)"/>
    <sodipodi:guide position="48,-64" orientation="-0.70710678,0.70710678" id="guide4577" inkscape:locked="false" inkscape:label="" inkscape:color="rgb(189,79,255)"/>
    <sodipodi:guide position="47.999962,0" orientation="0.70710678,0.70710678" id="guide4697" inkscape:locked="false" inkscape:label="" inkscape:color="rgb(189,79,255)"/>
    <sodipodi:guide position="207.99995,-288" orientation="0,1" id="guide7833" inkscape:locked="false"/>
    <sodipodi:guide position="335.99994,-288" orientation="1,0" id="guide7835" inkscape:locked="false" inkscape:label="" inkscape:color="rgb(189,79,255)"/>
    <sodipodi:guide position="111.99996,-64" orientation="1,0" id="guide7915" inkscape:locked="false"/>
    <sodipodi:guide position="111.99996,-160" orientation="0,1" id="guide7917" inkscape:locked="false"/>
    <sodipodi:guide position="207.99996,-160" orientation="1,0" id="guide7919" inkscape:locked="false"/>
    <sodipodi:guide position="111.99996,-160" orientation="-0.70710678,0.70710678" id="guide7921" inkscape:locked="false" inkscape:label="" inkscape:color="rgb(189,79,255)"/>
    <sodipodi:guide position="207.99996,-288" orientation="-0.70710678,0.70710678" id="guide7923" inkscape:locked="false" inkscape:label="" inkscape:color="rgb(189,79,255)"/>
    <sodipodi:guide position="-72,104" orientation="1,0" id="guide7824" inkscape:locked="false"/>
    <sodipodi:guide position="-56,120" orientation="0,1" id="guide7826" inkscape:locked="false"/>
    <sodipodi:guide position="-72,104" orientation="-0.70710678,0.70710678" id="guide7828" inkscape:locked="false" inkscape:label="" inkscape:color="rgb(189,79,255)"/>
  </sodipodi:namedview>
  <g inkscape:groupmode="layer" id="layer3" inkscape:label="icon_48" style="display:inline" transform="translate(6.8969723e-7,-4.5367432e-7)">
    <g inkscape:groupmode="layer" id="layer9" inkscape:label="frame" style="display:none">
      <rect inkscape:label="frame_48" y="4.5367432e-07" x="-6.8969723e-07" height="48" width="48" id="frame_48" style="color:#000000;clip-rule:nonzero;display:block;overflow:visible;visibility:visible;opacity:1;isolation:auto;mix-blend-mode:normal;color-interpolation:sRGB;color-interpolation-filters:linearRGB;solid-color:#000000;solid-opacity:1;vector-effect:none;fill:#000000;fill-opacity:1;fill-rule:nonzero;stroke:#ff24f7;stroke-width:0;stroke-linecap:square;stroke-linejoin:miter;stroke-miterlimit:4;stroke-dasharray:none;stroke-dashoffset:0;stroke-opacity:0.99481865;marker:none;marker-start:none;marker-mid:none;marker-end:none;paint-order:normal;color-rendering:auto;image-rendering:auto;shape-rendering:auto;text-rendering:auto;enable-background:accumulate"/>
      <text xml:space="preserve" style="font-size:18.66666603px;line-height:1000%;font-family:sans-serif;letter-spacing:0px;word-spacing:0px;display:inline;opacity:1;fill:#ffffff;fill-opacity:1;stroke:none;stroke-width:0.11166908px;stroke-linecap:butt;stroke-linejoin:miter;stroke-opacity:1" x="12.301435" y="30.794922" id="txt_48" inkscape:label="txt_48">
        <tspan sodipodi:role="line" x="12.301435" y="30.794922" style="font-size:18.66666603px;fill:#ffffff;fill-opacity:1;stroke:none;stroke-width:0.11166908px" id="tspan5049-1">48</tspan>
      </text>
      <text xml:space="preserve" style="font-size:2.66666675px;line-height:1000%;font-family:sans-serif;letter-spacing:0px;word-spacing:0px;display:inline;opacity:1;fill:#ffffff;fill-opacity:0.44791667;stroke:none;stroke-width:0.0588377px;stroke-linecap:butt;stroke-linejoin:miter;stroke-opacity:1" x="25.824219" y="45.962238" id="txt_scalable_32-64" inkscape:label="txt_scalable_32-64">
        <tspan sodipodi:role="line" x="25.824219" y="45.962238" style="font-size:2.66666675px;fill:#ffffff;fill-opacity:0.44791667;stroke:none;stroke-width:0.0588377px" id="tspan5049-1-6">Scalable:32-64</tspan>
      </text>
    </g>
    <g inkscape:groupmode="layer" id="layer10" inkscape:label="icon" style="display:inline">
      <path inkscape:label="Hoja sombra" sodipodi:nodetypes="cccccc" inkscape:connector-curvature="0" id="path7883-1" d="M 6,1.99999 H 28 L 41,15 40.999974,45.99999 H 6 Z" style="color:#000000;clip-rule:nonzero;display:inline;overflow:visible;visibility:visible;opacity:1;isolation:auto;mix-blend-mode:normal;color-interpolation:sRGB;color-interpolation-filters:linearRGB;solid-color:#000000;solid-opacity:1;vector-effect:none;fill:url(#linearGradient8259);fill-opacity:1;fill-rule:nonzero;stroke:none;stroke-width:0.85190946;stroke-linecap:butt;stroke-linejoin:miter;stroke-miterlimit:4;stroke-dasharray:none;stroke-dashoffset:0;stroke-opacity:1;marker:none;marker-start:none;marker-mid:none;marker-end:none;paint-order:fill markers stroke;color-rendering:auto;image-rendering:auto;shape-rendering:auto;text-rendering:auto;enable-background:accumulate"/>
      <path style="color:#000000;clip-rule:nonzero;display:inline;overflow:visible;visibility:visible;opacity:1;isolation:auto;mix-blend-mode:normal;color-interpolation:sRGB;color-interpolation-filters:linearRGB;solid-color:#000000;solid-opacity:1;vector-effect:none;fill:url(#linearGradient7823-7);fill-opacity:1;fill-rule:nonzero;stroke:none;stroke-width:0.42276114;stroke-linecap:butt;stroke-linejoin:miter;stroke-miterlimit:4;stroke-dasharray:none;stroke-dashoffset:0;stroke-opacity:1;marker:none;marker-start:none;marker-mid:none;marker-end:none;paint-order:fill markers stroke;color-rendering:auto;image-rendering:auto;shape-rendering:auto;text-rendering:auto;enable-background:accumulate" d="m 7,2.99999 h 21 l 12,12 v 30 H 6.992126 Z" id="rect7694-2-8" inkscape:connector-curvature="0" sodipodi:nodetypes="cccccc" inkscape:label="Hoja"/>
      <path inkscape:label="Hoja sombra sobre derecha" sodipodi:nodetypes="cccccc" inkscape:connector-curvature="0" id="path7863-7" d="m 7,2.99999 h 21 l 12,12 v 30 H 6.992126 Z" style="color:#000000;clip-rule:nonzero;display:inline;overflow:visible;visibility:visible;opacity:1;isolation:auto;mix-blend-mode:normal;color-interpolation:sRGB;color-interpolation-filters:linearRGB;solid-color:#000000;solid-opacity:1;vector-effect:none;fill:url(#linearGradient7865-3);fill-opacity:1;fill-rule:nonzero;stroke:none;stroke-width:0.42276114;stroke-linecap:butt;stroke-linejoin:miter;stroke-miterlimit:4;stroke-dasharray:none;stroke-dashoffset:0;stroke-opacity:1;marker:none;marker-start:none;marker-mid:none;marker-end:none;paint-order:fill markers stroke;color-rendering:auto;image-rendering:auto;shape-rendering:auto;text-rendering:auto;enable-background:accumulate"/>
      <path style="color:#000000;clip-rule:nonzero;display:inline;overflow:visible;visibility:visible;opacity:0.4;isolation:auto;mix-blend-mode:normal;color-interpolation:sRGB;color-interpolation-filters:linearRGB;solid-color:#000000;solid-opacity:1;vector-effect:none;fill:url(#linearGradient9428-36);fill-opacity:1;fill-rule:nonzero;stroke:none;stroke-width:0.42267153;stroke-linecap:butt;stroke-linejoin:miter;stroke-miterlimit:4;stroke-dasharray:none;stroke-dashoffset:0;stroke-opacity:0.34375;marker:none;marker-start:none;marker-mid:none;marker-end:none;paint-order:fill markers stroke;color-rendering:auto;image-rendering:auto;shape-rendering:auto;text-rendering:auto;enable-background:accumulate" d="M 7.5,2.990291 V 4.508528 H 7 V 5.0146069 H 7.5 V 6.532844 H 7 V 7.038923 H 7.5 V 8.55716 H 7 V 9.0632388 H 7.5 V 10.581476 H 7 v 0.506078 h 0.5 v 1.518237 H 7 v 0.50608 h 0.5 v 1.518237 H 7 v 0.506079 h 0.5 v 1.518237 H 7 v 0.506078 h 0.5 v 1.518237 H 7 v 0.50608 h 0.5 v 1.518237 H 7 v 0.506078 h 0.5 v 1.518237 H 7 v 0.506079 h 0.5 v 1.518237 H 7 v 0.50608 h 0.5 v 1.518237 H 7 v 0.506078 h 0.5 v 1.518237 H 7 v 0.506079 h 0.5 v 1.518237 H 7 v 0.50608 h 0.5 v 1.518236 H 7 v 0.506079 h 0.5 v 1.518237 H 7 v 0.506079 h 0.5 v 1.518237 H 7 v 0.506079 h 0.5 v 1.518237 H 7 v 0.506079 h 0.5 v 1.518237 H 7 v 0.506079 H 7.5 V 42.97053 H 7 v 0.50608 h 0.5 v 1.518237 H 8 V 43.47661 h 1.4999997 v 1.518237 h 0.5 V 43.47661 H 11.5 v 1.518237 H 12 V 43.47661 h 1.5 v 1.518237 H 14 V 43.47661 h 1.5 v 1.518237 H 16 V 43.47661 h 1.5 v 1.518237 H 18 V 43.47661 h 1.5 v 1.518237 H 20 V 43.47661 h 1.5 v 1.518237 H 22 V 43.47661 h 1.5 v 1.518237 H 24 V 43.47661 h 1.5 v 1.518237 H 26 V 43.47661 h 1.5 v 1.518237 H 28 V 43.47661 h 1.5 v 1.518237 H 30 V 43.47661 h 1.5 v 1.518237 H 32 V 43.47661 h 1.5 v 1.470792 H 34 V 43.47661 h 1.5 v 1.518237 H 36 V 43.47661 h 1.5 v 1.518237 H 38 V 43.47661 h 2 v -0.50608 h -2 v -1.518236 h 2 v -0.506079 h -2 v -1.518237 h 2 v -0.506079 h -2 v -1.518237 h 2 v -0.506079 h -2 v -1.518237 h 2 V 34.873267 H 38 V 33.35503 h 2 v -0.506079 h -2 v -1.518236 h 2 v -0.50608 h -2 v -1.518237 h 2 v -0.506079 h -2 v -1.518237 h 2 v -0.506078 h -2 v -1.518237 h 2 v -0.50608 H 38 V 23.23345 h 2 v -0.506079 h -2 v -1.518237 h 2 v -0.506078 h -2 v -1.518237 h 2 v -0.50608 h -2 v -1.518237 h 2 v -0.506078 h -2 v -1.518237 h -0.5 v 1.518237 H 36 v -1.518237 h -0.5 v 1.518237 H 34 v -1.565682 h -0.5 v 1.565682 H 32 v -1.518237 h -0.5 v 1.518237 H 30 v -1.518237 h -0.5 v 1.518237 H 28 V 2.990291 H 27.5 V 4.508528 H 26 V 2.990291 H 25.5 V 4.508528 H 24 V 2.990291 H 23.5 V 4.508528 H 22 V 2.990291 H 21.5 V 4.508528 H 20 V 2.990291 H 19.5 V 4.508528 H 18 V 2.990291 H 17.5 V 4.508528 H 16 V 2.990291 H 15.5 V 4.508528 H 14 V 2.990291 H 13.5 V 4.508528 H 12 V 2.990291 H 11.5 V 4.508528 H 9.9999997 V 2.990291 h -0.5 V 4.508528 H 8 V 2.990291 Z M 8,5.0146069 H 9.4999997 V 6.532844 H 8 Z m 1.9999997,0 H 11.5 V 6.532844 H 9.9999997 Z m 2.0000003,0 h 1.5 V 6.532844 H 12 Z m 2,0 h 1.5 V 6.532844 H 14 Z m 2,0 h 1.5 V 6.532844 H 16 Z m 2,0 h 1.5 V 6.532844 H 18 Z m 2,0 h 1.5 V 6.532844 H 20 Z m 2,0 h 1.5 V 6.532844 H 22 Z m 2,0 h 1.5 V 6.532844 H 24 Z m 2,0 h 1.5 V 6.532844 H 26 Z M 8,7.038923 H 9.4999997 V 8.55716 H 8 Z m 1.9999997,0 H 11.5 V 8.55716 H 9.9999997 Z m 2.0000003,0 h 1.5 V 8.55716 H 12 Z m 2,0 h 1.5 V 8.55716 H 14 Z m 2,0 h 1.5 V 8.55716 H 16 Z m 2,0 h 1.5 V 8.55716 H 18 Z m 2,0 h 1.5 V 8.55716 H 20 Z m 2,0 h 1.5 V 8.55716 H 22 Z m 2,0 h 1.5 V 8.55716 H 24 Z m 2,0 h 1.5 V 8.55716 H 26 Z M 8,9.0632388 H 9.4999997 V 10.581476 H 8 Z m 1.9999997,0 H 11.5 V 10.581476 H 9.9999997 Z m 2.0000003,0 h 1.5 V 10.581476 H 12 Z m 2,0 h 1.5 V 10.581476 H 14 Z m 2,0 h 1.5 V 10.581476 H 16 Z m 2,0 h 1.5 V 10.581476 H 18 Z m 2,0 h 1.5 V 10.581476 H 20 Z m 2,0 h 1.5 V 10.581476 H 22 Z m 2,0 h 1.5 V 10.581476 H 24 Z m 2,0 h 1.5 V 10.581476 H 26 Z M 8,11.087554 h 1.4999997 v 1.518237 H 8 Z m 1.9999997,0 H 11.5 v 1.518237 H 9.9999997 Z m 2.0000003,0 h 1.5 v 1.518237 H 12 Z m 2,0 h 1.5 v 1.518237 H 14 Z m 2,0 h 1.5 v 1.518237 H 16 Z m 2,0 h 1.5 v 1.518237 H 18 Z m 2,0 h 1.5 v 1.518237 H 20 Z m 2,0 h 1.5 v 1.518237 H 22 Z m 2,0 h 1.5 v 1.518237 H 24 Z m 2,0 h 1.5 v 1.518237 H 26 Z M 8,13.111871 h 1.4999997 v 1.518237 H 8 Z m 1.9999997,0 H 11.5 v 1.518237 H 9.9999997 Z m 2.0000003,0 h 1.5 v 1.518237 H 12 Z m 2,0 h 1.5 v 1.518237 H 14 Z m 2,0 h 1.5 v 1.518237 H 16 Z m 2,0 h 1.5 v 1.518237 H 18 Z m 2,0 h 1.5 v 1.518237 H 20 Z m 2,0 h 1.5 v 1.518237 H 22 Z m 2,0 h 1.5 v 1.518237 H 24 Z m 2,0 h 1.5 v 1.518237 H 26 Z M 8,15.136187 h 1.4999997 v 1.518237 H 8 Z m 1.9999997,0 H 11.5 v 1.518237 H 9.9999997 Z m 2.0000003,0 h 1.5 v 1.518237 H 12 Z m 2,0 h 1.5 v 1.518237 H 14 Z m 2,0 h 1.5 v 1.518237 H 16 Z m 2,0 h 1.5 v 1.518237 H 18 Z m 2,0 h 1.5 v 1.518237 H 20 Z m 2,0 h 1.5 v 1.518237 H 22 Z m 2,0 h 1.5 v 1.518237 H 24 Z m 2,0 h 1.5 v 1.518237 H 26 Z M 8,17.160502 h 1.4999997 v 1.518237 H 8 Z m 1.9999997,0 H 11.5 v 1.518237 H 9.9999997 Z m 2.0000003,0 h 1.5 v 1.518237 H 12 Z m 2,0 h 1.5 v 1.518237 H 14 Z m 2,0 h 1.5 v 1.518237 H 16 Z m 2,0 h 1.5 v 1.518237 H 18 Z m 2,0 h 1.5 v 1.518237 H 20 Z m 2,0 h 1.5 v 1.518237 H 22 Z m 2,0 h 1.5 v 1.518237 H 24 Z m 2,0 h 1.5 v 1.518237 H 26 Z m 2,0 h 1.5 v 1.518237 H 28 Z m 2,0 h 1.5 v 1.518237 H 30 Z m 2,0 h 1.5 v 1.518237 H 32 Z m 2,0 h 1.5 v 1.518237 H 34 Z m 2,0 h 1.5 v 1.518237 H 36 Z M 8,19.184819 h 1.4999997 v 1.518237 H 8 Z m 1.9999997,0 H 11.5 v 1.518237 H 9.9999997 Z m 2.0000003,0 h 1.5 v 1.518237 H 12 Z m 2,0 h 1.5 v 1.518237 H 14 Z m 2,0 h 1.5 v 1.518237 H 16 Z m 2,0 h 1.5 v 1.518237 H 18 Z m 2,0 h 1.5 v 1.518237 H 20 Z m 2,0 h 1.5 v 1.518237 H 22 Z m 2,0 h 1.5 v 1.518237 H 24 Z m 2,0 h 1.5 v 1.518237 H 26 Z m 2,0 h 1.5 v 1.518237 H 28 Z m 2,0 h 1.5 v 1.518237 H 30 Z m 2,0 h 1.5 v 1.518237 H 32 Z m 2,0 h 1.5 v 1.518237 H 34 Z m 2,0 h 1.5 v 1.518237 H 36 Z M 8,21.209134 h 1.4999997 v 1.518237 H 8 Z m 1.9999997,0 H 11.5 v 1.518237 H 9.9999997 Z m 2.0000003,0 h 1.5 v 1.518237 H 12 Z m 2,0 h 1.5 v 1.518237 H 14 Z m 2,0 h 1.5 v 1.518237 H 16 Z m 2,0 h 1.5 v 1.518237 H 18 Z m 2,0 h 1.5 v 1.518237 H 20 Z m 2,0 h 1.5 v 1.518237 H 22 Z m 2,0 h 1.5 v 1.518237 H 24 Z m 2,0 h 1.5 v 1.518237 H 26 Z m 2,0 h 1.5 v 1.518237 H 28 Z m 2,0 h 1.5 v 1.518237 H 30 Z m 2,0 h 1.5 v 1.518237 H 32 Z m 2,0 h 1.5 v 1.518237 H 34 Z m 2,0 h 1.5 v 1.518237 H 36 Z M 8,23.23345 h 1.4999997 v 1.518237 H 8 Z m 1.9999997,0 H 11.5 v 1.518237 H 9.9999997 Z m 2.0000003,0 h 1.5 v 1.518237 H 12 Z m 2,0 h 1.5 v 1.518237 H 14 Z m 2,0 h 1.5 v 1.518237 H 16 Z m 2,0 h 1.5 v 1.518237 H 18 Z m 2,0 h 1.5 v 1.518237 H 20 Z m 2,0 h 1.5 v 1.518237 H 22 Z m 2,0 h 1.5 v 1.518237 H 24 Z m 2,0 h 1.5 v 1.518237 H 26 Z m 2,0 h 1.5 v 1.518237 H 28 Z m 2,0 h 1.5 v 1.518237 H 30 Z m 2,0 h 1.5 v 1.518237 H 32 Z m 2,0 h 1.5 v 1.518237 H 34 Z m 2,0 h 1.5 v 1.518237 H 36 Z M 8,25.257767 h 1.4999997 v 1.518237 H 8 Z m 1.9999997,0 H 11.5 v 1.518237 H 9.9999997 Z m 2.0000003,0 h 1.5 v 1.518237 H 12 Z m 2,0 h 1.5 v 1.518237 H 14 Z m 2,0 h 1.5 v 1.518237 H 16 Z m 2,0 h 1.5 v 1.518237 H 18 Z m 2,0 h 1.5 v 1.518237 H 20 Z m 2,0 h 1.5 v 1.518237 H 22 Z m 2,0 h 1.5 v 1.518237 H 24 Z m 2,0 h 1.5 v 1.518237 H 26 Z m 2,0 h 1.5 v 1.518237 H 28 Z m 2,0 h 1.5 v 1.518237 H 30 Z m 2,0 h 1.5 v 1.518237 H 32 Z m 2,0 h 1.5 v 1.518237 H 34 Z m 2,0 h 1.5 v 1.518237 H 36 Z M 8,27.282082 h 1.4999997 v 1.518237 H 8 Z m 1.9999997,0 H 11.5 v 1.518237 H 9.9999997 Z m 2.0000003,0 h 1.5 v 1.518237 H 12 Z m 2,0 h 1.5 v 1.518237 H 14 Z m 2,0 h 1.5 v 1.518237 H 16 Z m 2,0 h 1.5 v 1.518237 H 18 Z m 2,0 h 1.5 v 1.518237 H 20 Z m 2,0 h 1.5 v 1.518237 H 22 Z m 2,0 h 1.5 v 1.518237 H 24 Z m 2,0 h 1.5 v 1.518237 H 26 Z m 2,0 h 1.5 v 1.518237 H 28 Z m 2,0 h 1.5 v 1.518237 H 30 Z m 2,0 h 1.5 v 1.518237 H 32 Z m 2,0 h 1.5 v 1.518237 H 34 Z m 2,0 h 1.5 v 1.518237 H 36 Z M 8,29.306398 h 1.4999997 v 1.518237 H 8 Z m 1.9999997,0 H 11.5 v 1.518237 H 9.9999997 Z m 2.0000003,0 h 1.5 v 1.518237 H 12 Z m 2,0 h 1.5 v 1.518237 H 14 Z m 2,0 h 1.5 v 1.518237 H 16 Z m 2,0 h 1.5 v 1.518237 H 18 Z m 2,0 h 1.5 v 1.518237 H 20 Z m 2,0 h 1.5 v 1.518237 H 22 Z m 2,0 h 1.5 v 1.518237 H 24 Z m 2,0 h 1.5 v 1.518237 H 26 Z m 2,0 h 1.5 v 1.518237 H 28 Z m 2,0 h 1.5 v 1.518237 H 30 Z m 2,0 h 1.5 v 1.518237 H 32 Z m 2,0 h 1.5 v 1.518237 H 34 Z m 2,0 h 1.5 v 1.518237 H 36 Z M 8,31.330715 h 1.4999997 v 1.518236 H 8 Z m 1.9999997,0 H 11.5 v 1.518236 H 9.9999997 Z m 2.0000003,0 h 1.5 v 1.518236 H 12 Z m 2,0 h 1.5 v 1.518236 H 14 Z m 2,0 h 1.5 v 1.518236 H 16 Z m 2,0 h 1.5 v 1.518236 H 18 Z m 2,0 h 1.5 v 1.518236 H 20 Z m 2,0 h 1.5 v 1.518236 H 22 Z m 2,0 h 1.5 v 1.518236 H 24 Z m 2,0 h 1.5 v 1.518236 H 26 Z m 2,0 h 1.5 v 1.518236 H 28 Z m 2,0 h 1.5 v 1.518236 H 30 Z m 2,0 h 1.5 v 1.518236 H 32 Z m 2,0 h 1.5 v 1.518236 H 34 Z m 2,0 h 1.5 v 1.518236 H 36 Z M 8,33.35503 h 1.4999997 v 1.518237 H 8 Z m 1.9999997,0 H 11.5 v 1.518237 H 9.9999997 Z m 2.0000003,0 h 1.5 v 1.518237 H 12 Z m 2,0 h 1.5 v 1.518237 H 14 Z m 2,0 h 1.5 v 1.518237 H 16 Z m 2,0 h 1.5 v 1.518237 H 18 Z m 2,0 h 1.5 v 1.518237 H 20 Z m 2,0 h 1.5 v 1.518237 H 22 Z m 2,0 h 1.5 v 1.518237 H 24 Z m 2,0 h 1.5 v 1.518237 H 26 Z m 2,0 h 1.5 v 1.518237 H 28 Z m 2,0 h 1.5 v 1.518237 H 30 Z m 2,0 h 1.5 v 1.518237 H 32 Z m 2,0 h 1.5 v 1.518237 H 34 Z m 2,0 h 1.5 v 1.518237 H 36 Z M 8,35.379346 h 1.4999997 v 1.518237 H 8 Z m 1.9999997,0 H 11.5 v 1.518237 H 9.9999997 Z m 2.0000003,0 h 1.5 v 1.518237 H 12 Z m 2,0 h 1.5 v 1.518237 H 14 Z m 2,0 h 1.5 v 1.518237 H 16 Z m 2,0 h 1.5 v 1.518237 H 18 Z m 2,0 h 1.5 v 1.518237 H 20 Z m 2,0 h 1.5 v 1.518237 H 22 Z m 2,0 h 1.5 v 1.518237 H 24 Z m 2,0 h 1.5 v 1.518237 H 26 Z m 2,0 h 1.5 v 1.518237 H 28 Z m 2,0 h 1.5 v 1.518237 H 30 Z m 2,0 h 1.5 v 1.518237 H 32 Z m 2,0 h 1.5 v 1.518237 H 34 Z m 2,0 h 1.5 v 1.518237 H 36 Z M 8,37.403662 h 1.4999997 v 1.518237 H 8 Z m 1.9999997,0 H 11.5 v 1.518237 H 9.9999997 Z m 2.0000003,0 h 1.5 v 1.518237 H 12 Z m 2,0 h 1.5 v 1.518237 H 14 Z m 2,0 h 1.5 v 1.518237 H 16 Z m 2,0 h 1.5 v 1.518237 H 18 Z m 2,0 h 1.5 v 1.518237 H 20 Z m 2,0 h 1.5 v 1.518237 H 22 Z m 2,0 h 1.5 v 1.518237 H 24 Z m 2,0 h 1.5 v 1.518237 H 26 Z m 2,0 h 1.5 v 1.518237 H 28 Z m 2,0 h 1.5 v 1.518237 H 30 Z m 2,0 h 1.5 v 1.518237 H 32 Z m 2,0 h 1.5 v 1.518237 H 34 Z m 2,0 h 1.5 v 1.518237 H 36 Z M 8,39.427978 h 1.4999997 v 1.518237 H 8 Z m 1.9999997,0 H 11.5 v 1.518237 H 9.9999997 Z m 2.0000003,0 h 1.5 v 1.518237 H 12 Z m 2,0 h 1.5 v 1.518237 H 14 Z m 2,0 h 1.5 v 1.518237 H 16 Z m 2,0 h 1.5 v 1.518237 H 18 Z m 2,0 h 1.5 v 1.518237 H 20 Z m 2,0 h 1.5 v 1.518237 H 22 Z m 2,0 h 1.5 v 1.518237 H 24 Z m 2,0 h 1.5 v 1.518237 H 26 Z m 2,0 h 1.5 v 1.518237 H 28 Z m 2,0 h 1.5 v 1.518237 H 30 Z m 2,0 h 1.5 v 1.518237 H 32 Z m 2,0 h 1.5 v 1.518237 H 34 Z m 2,0 h 1.5 v 1.518237 H 36 Z M 8,41.452294 H 9.4999997 V 42.97053 H 8 Z m 1.9999997,0 H 11.5 V 42.97053 H 9.9999997 Z m 2.0000003,0 h 1.5 V 42.97053 H 12 Z m 2,0 h 1.5 V 42.97053 H 14 Z m 2,0 h 1.5 V 42.97053 H 16 Z m 2,0 h 1.5 V 42.97053 H 18 Z m 2,0 h 1.5 V 42.97053 H 20 Z m 2,0 h 1.5 V 42.97053 H 22 Z m 2,0 h 1.5 V 42.97053 H 24 Z m 2,0 h 1.5 V 42.97053 H 26 Z m 2,0 h 1.5 V 42.97053 H 28 Z m 2,0 h 1.5 V 42.97053 H 30 Z m 2,0 h 1.5 V 42.97053 H 32 Z m 2,0 h 1.5 V 42.97053 H 34 Z m 2,0 h 1.5 V 42.97053 H 36 Z" id="rect9275-6" inkscape:connector-curvature="0" inkscape:label="patron"/>
      <path style="color:#000000;clip-rule:nonzero;display:inline;overflow:visible;visibility:visible;opacity:1;isolation:auto;mix-blend-mode:normal;color-interpolation:sRGB;color-interpolation-filters:linearRGB;solid-color:#000000;solid-opacity:1;vector-effect:none;fill:none;fill-opacity:1;fill-rule:nonzero;stroke:#b3d4ee;stroke-width:0.99679488;stroke-linecap:butt;stroke-linejoin:miter;stroke-miterlimit:4;stroke-dasharray:none;stroke-dashoffset:0;stroke-opacity:0.21354167;marker:none;marker-start:none;marker-mid:none;marker-end:none;paint-order:fill markers stroke;color-rendering:auto;image-rendering:auto;shape-rendering:auto;text-rendering:auto;enable-background:accumulate" d="M 9.4965174,4.9872794 H 27.4779 l 9.72222,9.9462836 0.267433,27.520674 H 9.4965174 Z" id="rect9431-26" inkscape:connector-curvature="0" sodipodi:nodetypes="cccccc" inkscape:label="borde interior"/>
      <path style="display:inline;fill:none;fill-rule:evenodd;stroke:#b8eff9;stroke-width:0.99905866;stroke-linecap:butt;stroke-linejoin:miter;stroke-miterlimit:4;stroke-dasharray:none;stroke-opacity:1" d="M 11.995293,32.462522 H 31.976467 V 20.973347 Z" id="path9444-1" inkscape:connector-curvature="0" sodipodi:nodetypes="cccc" inkscape:label="escuadra"/>
      <path style="color:#000000;font-style:normal;font-variant:normal;font-weight:normal;font-stretch:normal;font-size:medium;line-height:normal;font-family:sans-serif;font-variant-ligatures:normal;font-variant-position:normal;font-variant-caps:normal;font-variant-numeric:normal;font-variant-alternates:normal;font-feature-settings:normal;text-indent:0;text-align:start;text-decoration:none;text-decoration-line:none;text-decoration-style:solid;text-decoration-color:#000000;letter-spacing:normal;word-spacing:normal;text-transform:none;writing-mode:lr-tb;direction:ltr;text-orientation:mixed;dominant-baseline:auto;baseline-shift:baseline;text-anchor:start;white-space:normal;shape-padding:0;clip-rule:nonzero;display:inline;overflow:visible;visibility:visible;opacity:1;isolation:auto;mix-blend-mode:normal;color-interpolation:sRGB;color-interpolation-filters:linearRGB;solid-color:#000000;solid-opacity:1;vector-effect:none;fill:#f8f8f8;fill-opacity:1;fill-rule:evenodd;stroke:none;stroke-width:0.1268675;stroke-linecap:butt;stroke-linejoin:miter;stroke-miterlimit:4;stroke-dasharray:none;stroke-dashoffset:0;stroke-opacity:1;color-rendering:auto;image-rendering:auto;shape-rendering:auto;text-rendering:auto;enable-background:accumulate" d="m 31.661334,16.628805 -0.113174,0.83418 -0.776613,-0.324889 -0.05073,0.120976 0.808808,0.338551 -0.01758,0.129757 L 9.4517896,30.464404 9.5181371,29.978532 9.3883743,29.96 l -0.080005,0.587341 -0.2292737,0.132685 0.024377,0.04291 -0.6049001,-0.253666 -0.050732,0.120976 0.8088076,0.339525 -0.1180534,0.868322 0.1307365,0.01853 0.1131734,-0.834174 0.7756394,0.324889 0.0517,-0.120981 -0.809783,-0.339525 0.020481,-0.149269 22.06027,-12.737024 -0.06926,0.506358 0.130737,0.01758 0.08293,-0.607827 0.240003,-0.13854 0.566851,0.238056 0.05073,-0.121955 -0.531724,-0.222446 -0.0683,-0.118053 -0.08977,0.0517 -0.119027,-0.04975 0.118053,-0.869296 z m 2.435205,2.699607 -0.07806,0.10049 0.591238,0.457579 v 0.07806 l -0.59514,0.452699 0.07708,0.101464 0.518062,-0.394158 V 32.87815 l -0.598067,-0.463428 -0.07415,0.09561 0.609775,0.472215 -0.613676,0.466355 0.07317,0.09562 0.639047,-0.485872 0.635142,0.490748 0.07415,-0.09463 -0.542459,-0.41953 V 32.93182 l 0.546361,-0.415623 -0.07317,-0.09561 -0.473189,0.360011 v -12.73704 l 0.62149,0.480018 0.07805,-0.09952 -0.642944,-0.497577 0.646851,-0.491726 -0.07708,-0.101465 -0.628313,0.477091 h -0.09171 z m -13.616076,1.351267 -0.639047,0.368792 0.34928,0.6049 c 0.03337,-0.04646 0.06894,-0.08744 0.106345,-0.121955 0.03796,-0.03477 0.07842,-0.06462 0.121955,-0.08976 0.09298,-0.0537 0.180915,-0.07222 0.263422,-0.05464 0.08252,0.01758 0.147701,0.06837 0.196105,0.152202 0.0484,0.08384 0.05922,0.166588 0.03317,0.246837 -0.02602,0.08024 -0.08556,0.147301 -0.178542,0.200986 -0.05751,0.03322 -0.115606,0.05824 -0.17464,0.07513 -0.05904,0.01683 -0.119847,0.02568 -0.183422,0.02732 l 0.09366,0.163906 c 0.06583,-0.01509 0.127301,-0.03412 0.184397,-0.05561 0.05763,-0.02183 0.112409,-0.04691 0.162931,-0.0761 0.146727,-0.08471 0.239684,-0.186374 0.279037,-0.304403 0.03901,-0.118568 0.02113,-0.242192 -0.05366,-0.37172 -0.07262,-0.125756 -0.16976,-0.202884 -0.290746,-0.231227 -0.120976,-0.02832 -0.248081,-0.0035 -0.38245,0.07415 -0.02363,0.01364 -0.04616,0.02887 -0.06733,0.04681 -0.02148,0.01738 -0.04151,0.03776 -0.06049,0.05951 l -0.17074,-0.295622 0.489774,-0.282933 z m -1.059551,0.707338 c -0.110166,-0.01953 -0.227516,0.006 -0.352203,0.07806 -0.04731,0.02732 -0.09616,0.06489 -0.145373,0.11122 -0.0492,0.04636 -0.09891,0.101674 -0.149275,0.165859 l 0.09561,0.16391 c 0.04371,-0.07325 0.08845,-0.135053 0.134638,-0.185375 0.04671,-0.05063 0.09529,-0.09052 0.146347,-0.120002 0.07202,-0.04161 0.141882,-0.05556 0.209763,-0.04096 0.06841,0.01424 0.121131,0.0541 0.158056,0.118054 0.02263,0.03921 0.03537,0.08461 0.03806,0.137566 0.003,0.0521 -0.0051,0.123029 -0.02343,0.211715 -0.0094,0.04701 -0.03642,0.155104 -0.08097,0.324889 -0.04436,0.168931 -0.07854,0.303299 -0.103417,0.40294 l 0.07904,0.137566 0.763926,-0.441969 -0.07903,-0.136591 -0.567825,0.327816 c 0.05387,-0.209543 0.0947,-0.372069 0.123908,-0.48782 0.02887,-0.116286 0.04626,-0.18642 0.05073,-0.209763 0.01414,-0.08844 0.01693,-0.160019 0.0098,-0.214642 -0.0069,-0.05547 -0.02413,-0.107629 -0.05268,-0.157077 -0.0602,-0.104277 -0.145453,-0.165854 -0.255619,-0.185376 z m -1.228333,0.612708 -0.162931,0.09464 -0.253666,0.224398 0.08488,0.148296 0.256593,-0.225373 0.529776,0.91808 -0.266354,0.154155 0.07902,0.136586 0.693682,-0.400013 -0.07903,-0.137566 -0.266354,0.154155 z m 19.16261,4.243072 c -0.155774,0 -0.275521,0.06187 -0.358063,0.18537 -0.08191,0.122885 -0.122929,0.301042 -0.122929,0.535631 0,0.233964 0.04101,0.4131 0.122929,0.536604 0.08254,0.122874 0.202289,0.184396 0.358063,0.184396 0.155768,0 0.274186,-0.06152 0.356109,-0.184396 0.08254,-0.123504 0.123908,-0.30264 0.123908,-0.536604 0,-0.234589 -0.04136,-0.412746 -0.123908,-0.535631 -0.08192,-0.123498 -0.200341,-0.18537 -0.356109,-0.18537 z m -1.614689,0.02438 v 0.698557 c 0.05213,-0.02358 0.103528,-0.04056 0.153176,-0.0517 0.05027,-0.01114 0.09998,-0.01658 0.150248,-0.01658 0.107364,0 0.192938,0.02742 0.255619,0.0839 0.06268,0.05648 0.09366,0.133439 0.09366,0.230253 0,0.09681 -0.03097,0.173781 -0.09366,0.230253 -0.06268,0.05648 -0.148255,0.08488 -0.255619,0.08488 -0.06641,0 -0.129698,-0.0076 -0.189276,-0.02243 -0.05958,-0.01489 -0.116835,-0.03791 -0.172688,-0.06829 v 0.189276 c 0.06455,0.01983 0.127125,0.03397 0.187324,0.04391 0.06082,0.0099 0.120201,0.01559 0.178541,0.01559 0.169426,0 0.301067,-0.04136 0.394159,-0.123908 0.09309,-0.08316 0.139519,-0.199717 0.139519,-0.349281 0,-0.145223 -0.04596,-0.260355 -0.136592,-0.345374 -0.0906,-0.08503 -0.213643,-0.12781 -0.368792,-0.12781 -0.02732,0 -0.05367,0.003 -0.08097,0.0078 -0.02732,0.0045 -0.05465,0.01119 -0.08195,0.02048 v -0.340499 h 0.565872 v -0.15903 z m 1.614689,0.123903 c 0.09744,0 0.170134,0.04786 0.218544,0.14342 0.049,0.09495 0.07317,0.238136 0.07317,0.429286 0,0.19052 -0.02413,0.333705 -0.07317,0.42928 -0.0484,0.09495 -0.121111,0.142446 -0.218544,0.142446 -0.09682,0 -0.170485,-0.04751 -0.219523,-0.142446 -0.04841,-0.09558 -0.0722,-0.23876 -0.0722,-0.42928 0,-0.19115 0.02378,-0.33433 0.0722,-0.429286 0.049,-0.09557 0.122704,-0.14342 0.219523,-0.14342 z m -28.0780399,4.389419 -0.002,0.01364 -0.012688,-0.005 z m 1.9064089,4.295758 -0.10049,0.07708 0.470257,0.617583 v 0.109272 l -0.476112,0.61563 0.100491,0.07806 0.497581,-0.641975 0.491722,0.645876 0.10049,-0.07708 -0.464408,-0.609776 h 19.590916 l -0.440989,0.570753 0.09561,0.07415 0.471236,-0.609781 0.46733,0.613682 0.09562,-0.07318 -0.440989,-0.579529 v -0.118054 l 0.44587,-0.576606 -0.09562,-0.07414 -0.404894,0.522943 h -0.132685 l -0.400992,-0.526849 -0.09561,0.07318 0.345375,0.453673 H 11.899678 l 0.373673,-0.482945 -0.10049,-0.07806 -0.434161,0.560997 h -0.124882 z m 10.997448,2.249835 c -0.155763,0 -0.274541,0.06187 -0.357083,0.18537 -0.08191,0.122885 -0.12293,0.302016 -0.12293,0.536605 0,0.233969 0.04101,0.412126 0.12293,0.53563 0.08254,0.122879 0.201315,0.184396 0.357083,0.184396 0.155778,0 0.275171,-0.06152 0.357089,-0.184396 0.08254,-0.123504 0.122929,-0.301661 0.122929,-0.53563 0,-0.234589 -0.04036,-0.41372 -0.122929,-0.536605 -0.08191,-0.123498 -0.201301,-0.18537 -0.357089,-0.18537 z m 1.213702,0 c -0.155774,0 -0.274542,0.06187 -0.357084,0.18537 -0.08191,0.122885 -0.122934,0.302016 -0.122929,0.536605 0,0.233969 0.04101,0.412126 0.122929,0.53563 0.08254,0.122879 0.20131,0.184396 0.357084,0.184396 0.155773,0 0.275165,-0.06152 0.357088,-0.184396 0.08254,-0.123504 0.123903,-0.301661 0.123903,-0.53563 0,-0.234589 -0.04136,-0.41372 -0.123903,-0.536605 -0.08192,-0.123498 -0.201315,-0.18537 -0.357088,-0.18537 z m -2.491793,0.02538 -0.332691,0.06732 v 0.170734 l 0.334645,-0.06732 v 1.060521 h -0.307331 v 0.158056 h 0.801005 V 38.58272 h -0.30733 v -1.23126 z m 1.278091,0.123908 c 0.09745,0 0.17014,0.04786 0.218544,0.14342 0.04905,0.09495 0.07415,0.238136 0.07415,0.429281 0,0.190525 -0.02513,0.332736 -0.07415,0.428306 -0.0484,0.09495 -0.121101,0.142446 -0.218544,0.142446 -0.09681,0 -0.1695,-0.04751 -0.218544,-0.142446 -0.0484,-0.09557 -0.07317,-0.237781 -0.07317,-0.428306 0,-0.191145 0.02478,-0.33433 0.07317,-0.429281 0.04905,-0.09557 0.121735,-0.14342 0.218544,-0.14342 z m 1.213702,0 c 0.09744,0 0.171113,0.04786 0.219523,0.14342 0.049,0.09495 0.07317,0.238136 0.07317,0.429281 0,0.190525 -0.02413,0.332736 -0.07317,0.428306 -0.0484,0.09495 -0.122085,0.142446 -0.219523,0.142446 -0.09681,0 -0.169516,-0.04751 -0.218545,-0.142446 -0.0484,-0.09557 -0.0722,-0.237781 -0.0722,-0.428306 0,-0.191145 0.02378,-0.33433 0.0722,-0.429281 0.04905,-0.09557 0.121731,-0.14342 0.218545,-0.14342 z" id="path9446-8" inkscape:connector-curvature="0" inkscape:label="acotes"/>
      <path inkscape:connector-curvature="0" id="path7850-7" d="m 18.146438,9.0922866 v 1.6859114 h 0.199027 V 9.0922866 Z m -6.130944,0.068296 v 0.1843963 h 0.574654 v 1.4332191 h 0.219518 V 9.3449785 H 13.38432 V 9.1605822 Z m 8.10369,0.059514 V 9.5644971 H 19.972842 V 9.719626 h 0.146342 v 0.65856 c 5e-6,0.151667 0.02932,0.256378 0.08781,0.314154 0.0585,0.05706 0.164225,0.08586 0.318055,0.08586 h 0.204887 v -0.16684 h -0.204887 c -0.08305,5e-6 -0.13744,-0.01379 -0.164879,-0.04196 -0.02672,-0.02817 -0.04096,-0.09228 -0.04096,-0.191225 V 9.7196155 h 0.410743 V 9.5644866 H 20.319205 V 9.2200861 Z m -6.40022,0.3151331 c -0.181998,0 -0.326552,0.058615 -0.434161,0.1756145 -0.106889,0.1162755 -0.160978,0.2736023 -0.160978,0.4722108 0,0.192114 0.0571,0.344915 0.16976,0.457579 0.113388,0.112669 0.265974,0.168786 0.459527,0.168786 0.07728,0 0.154165,-0.0076 0.229279,-0.02343 0.07511,-0.01588 0.148021,-0.03891 0.219518,-0.06927 v -0.189272 c -0.07077,0.03757 -0.142421,0.0661 -0.214643,0.08488 -0.07149,0.01878 -0.144913,0.02827 -0.221466,0.02827 -0.13217,0 -0.235868,-0.03582 -0.310258,-0.107319 -0.07368,-0.07222 -0.114272,-0.176938 -0.122929,-0.314159 h 0.916127 v -0.09757 c 0,-0.1805606 -0.0481,-0.3235908 -0.14342,-0.4283122 -0.09461,-0.1054406 -0.22313,-0.158051 -0.386356,-0.158051 z m 1.440053,0 c -0.08739,0 -0.162796,0.018283 -0.226351,0.05366 -0.06356,0.035367 -0.118409,0.089526 -0.163906,0.1639105 V 9.5644966 h -0.200986 v 1.2137014 h 0.200986 v -0.685879 c 0,-0.1177188 0.02982,-0.2114005 0.08977,-0.2800059 0.05994,-0.069335 0.141102,-0.1034225 0.242931,-0.1034225 0.08595,0 0.149089,0.027574 0.19025,0.083911 0.04116,0.055608 0.06146,0.1425207 0.06146,0.2595204 v 0.725881 h 0.200981 v -0.685879 c 0,-0.118438 0.02982,-0.2123695 0.08977,-0.2809848 0.05994,-0.068615 0.141606,-0.1024435 0.244889,-0.1024435 0.08449,0 0.147126,0.027574 0.188297,0.083911 0.04116,0.056337 0.06244,0.1432451 0.06244,0.2595203 v 0.725881 h 0.200006 v -0.73271 c 0,-0.1632206 -0.03482,-0.2884876 -0.103417,-0.3765945 -0.06862,-0.088836 -0.16533,-0.1336641 -0.291721,-0.1336641 -0.09389,0 -0.175549,0.02178 -0.244884,0.064389 -0.06934,0.04261 -0.129688,0.1085028 -0.179521,0.1980584 -0.02962,-0.08522 -0.07545,-0.1503533 -0.137565,-0.1951311 -0.06138,-0.044758 -0.135308,-0.067317 -0.22342,-0.067317 z m 2.160075,0 c -0.08884,0 -0.165973,0.018283 -0.230253,0.05366 -0.06355,0.034667 -0.116165,0.087787 -0.158056,0.1600042 V 9.5644966 h -0.200007 v 1.6751814 h 0.200007 v -0.643923 c 0.04191,0.07221 0.0945,0.126566 0.158056,0.161952 0.06428,0.03467 0.141417,0.05171 0.230253,0.05171 0.147331,0 0.266334,-0.05861 0.358058,-0.175615 0.09244,-0.117 0.138544,-0.270815 0.138544,-0.46148 0,-0.1906654 -0.04611,-0.3444805 -0.138544,-0.4614803 C 17.58543,9.593844 17.466423,9.5352292 17.319092,9.5352297 Z m 1.868355,0 c -0.065,0 -0.131396,0.00699 -0.200007,0.02148 -0.06862,0.013687 -0.139743,0.035217 -0.212689,0.06342 V 9.804526 c 0.06067,-0.033219 0.123553,-0.058505 0.189271,-0.075119 0.06573,-0.016634 0.133599,-0.025376 0.202939,-0.025376 0.109052,0 0.193722,0.025526 0.253666,0.076098 0.06066,0.049853 0.09073,0.120971 0.09073,0.2126896 v 0.019532 h -0.279038 c -0.181274,0 -0.318045,0.03407 -0.409768,0.103417 -0.09099,0.06934 -0.136592,0.172777 -0.136592,0.309279 0,0.117 0.03632,0.209952 0.109272,0.280006 0.07367,0.06934 0.172373,0.104397 0.296596,0.104397 0.09822,0 0.181878,-0.01703 0.249764,-0.05171 0.06789,-0.03537 0.124263,-0.09023 0.169766,-0.163905 v 0.184396 h 0.199032 v -0.692707 c 0,-0.1849063 -0.04311,-0.3226915 -0.129763,-0.4136857 -0.08667,-0.091 -0.217685,-0.1365877 -0.393184,-0.1365877 z m 2.314224,0 c -0.181998,0 -0.326547,0.058615 -0.434161,0.1756145 -0.106889,0.1162755 -0.160978,0.2736023 -0.160978,0.4722108 0,0.192114 0.05612,0.344915 0.168786,0.457579 0.113388,0.112669 0.266948,0.168786 0.460501,0.168786 0.07728,0 0.15417,-0.0076 0.229279,-0.02343 0.07511,-0.01588 0.148021,-0.03891 0.219518,-0.06927 v -0.189272 c -0.07078,0.03757 -0.142421,0.0661 -0.214643,0.08488 -0.07149,0.01878 -0.144913,0.02827 -0.221471,0.02827 -0.132165,0 -0.235868,-0.03582 -0.310253,-0.107319 -0.07367,-0.07222 -0.115246,-0.176938 -0.123908,-0.314159 h 0.917106 v -0.09757 c 0,-0.1805606 -0.0481,-0.3235908 -0.14342,-0.4283122 -0.09461,-0.1054406 -0.22313,-0.158051 -0.386356,-0.158051 z M 17.270308,9.702062 c 0.105446,0 0.187868,0.04206 0.247812,0.1258614 0.06067,0.083052 0.09073,0.1977886 0.09073,0.3444006 0,0.146607 -0.03007,0.261598 -0.09073,0.345375 -0.05994,0.08306 -0.142366,0.124882 -0.247812,0.124882 -0.105446,5e-6 -0.189097,-0.04181 -0.249765,-0.124882 -0.05995,-0.08377 -0.08976,-0.198768 -0.08976,-0.345375 0,-0.146612 0.02982,-0.2613488 0.08976,-0.3444006 0.06066,-0.083781 0.144319,-0.1258614 0.249765,-0.1258614 z m -3.549391,0.002 c 0.09822,0 0.176884,0.032569 0.236108,0.097558 0.06005,0.064999 0.09135,0.1524164 0.09268,0.261474 l -0.71124,9.99e-4 c 0.01009,-0.1141128 0.0487,-0.2025444 0.115126,-0.2653752 0.06717,-0.062831 0.156103,-0.094631 0.267323,-0.094631 z m 7.782707,0 c 0.09822,0 0.176884,0.032569 0.236108,0.097558 0.06005,0.064999 0.09135,0.1524164 0.09268,0.261474 l -0.711245,9.99e-4 c 0.01009,-0.1141128 0.0487,-0.2025444 0.115126,-0.2653752 0.06717,-0.062831 0.156108,-0.094631 0.267328,-0.094631 z m -2.190321,0.464408 h 0.198059 v 0.04391 c 0,0.129998 -0.03332,0.234459 -0.100491,0.31318 -0.06645,0.07801 -0.154879,0.117075 -0.265375,0.117075 -0.08016,0 -0.144284,-0.02028 -0.19123,-0.06146 -0.04621,-0.04191 -0.06926,-0.09802 -0.06926,-0.168786 0,-0.08884 0.03157,-0.152447 0.09366,-0.189277 0.06211,-0.03681 0.173592,-0.05463 0.334645,-0.05463 z" style="font-size:medium;line-height:1000%;font-family:sans-serif;letter-spacing:0px;word-spacing:0px;display:inline;fill:#ffffff;fill-opacity:0.53125;stroke:none;stroke-width:0.13866602px;stroke-linecap:butt;stroke-linejoin:miter;stroke-opacity:1" inkscape:label="txt-template"/>
      <path sodipodi:nodetypes="cccc" inkscape:connector-curvature="0" id="path7764-1-5" d="m 28,2.99999 12,12 L 26,17 Z" style="display:inline;opacity:1;vector-effect:none;fill:url(#linearGradient8277);fill-opacity:1;fill-rule:evenodd;stroke:none;stroke-width:2.19524717px;stroke-linecap:butt;stroke-linejoin:miter;stroke-miterlimit:4;stroke-dasharray:none;stroke-dashoffset:0;stroke-opacity:1" inkscape:label="Pestaña sombra"/>
      <path style="display:inline;fill:url(#linearGradient7825-6);fill-opacity:1;fill-rule:evenodd;stroke:none;stroke-width:1.19721723px;stroke-linecap:butt;stroke-linejoin:miter;stroke-opacity:1" d="m 28,2.99999 12,12 H 28 Z" id="path7748-2-0" inkscape:connector-curvature="0" sodipodi:nodetypes="cccc" inkscape:label="Pestaña"/>
    </g>
  </g>
</svg>