<?xml version="1.0" encoding="UTF-8" standalone="yes"?>
<svg xmlns:dc="http://purl.org/dc/elements/1.1/" xmlns:cc="http://creativecommons.org/ns#" xmlns:rdf="http://www.w3.org/1999/02/22-rdf-syntax-ns#" xmlns:svg="http://www.w3.org/2000/svg" xmlns="http://www.w3.org/2000/svg" xmlns:xlink="http://www.w3.org/1999/xlink" xmlns:sodipodi="http://sodipodi.sourceforge.net/DTD/sodipodi-0.dtd" xmlns:inkscape="http://www.inkscape.org/namespaces/inkscape" height="16" viewBox="0 0 16 16" width="16" id="svg2" version="1.1" inkscape:version="0.92.1 r" sodipodi:docname="network-workgroup.svg" enable-background="new" folder="16">
  <title id="title4675">Template icons dark</title>
  <metadata id="metadata24">
    <rdf:RDF>
      <cc:Work rdf:about="">
        <dc:format>image/svg+xml</dc:format>
        <dc:type rdf:resource="http://purl.org/dc/dcmitype/StillImage"/>
        <dc:title>Template icons dark</dc:title>
        <dc:date>17/05/13</dc:date>
        <dc:creator>
          <cc:Agent>
            <dc:title>wfpaisa</dc:title>
          </cc:Agent>
        </dc:creator>
        <dc:rights>
          <cc:Agent>
            <dc:title>License: GPLv3</dc:title>
          </cc:Agent>
        </dc:rights>
        <dc:language>es-en</dc:language>
        <dc:subject>
          <rdf:Bag>
            <rdf:li>plane-icon-theme</rdf:li>
          </rdf:Bag>
        </dc:subject>
        <dc:description>Template for create set icons</dc:description>
        <cc:license rdf:resource="https://www.gnu.org/licenses/gpl-3.0.en.html"/>
      </cc:Work>
    </rdf:RDF>
  </metadata>
  <defs id="defs22">
    <linearGradient id="linearGradient8578">
      <stop style="stop-color:#4ba8dc;stop-opacity:1;" offset="0" id="stop8574"/>
      <stop style="stop-color:#32b69b;stop-opacity:1;" offset="1" id="stop8576"/>
    </linearGradient>
    <linearGradient id="linearGradient7727">
      <stop style="stop-color:#0386ea;stop-opacity:1;" offset="0" id="stop7723"/>
      <stop style="stop-color:#11b4ff;stop-opacity:1;" offset="1" id="stop7725"/>
    </linearGradient>
    <clipPath clipPathUnits="userSpaceOnUse" id="clipPath88">
      <path d="m 4251.24,3890.73 c 2.61,8.02 5.1,16.09 7.46,24.19 -139.9,197.7 -370.37,326.77 -630.98,326.77 -426.63,0 -772.48,-345.85 -772.48,-772.48 0,-109.19 22.69,-213.05 63.55,-307.21 7.9,-1.64 15.83,-3.11 23.77,-4.51 118.52,-260.07 380.71,-440.86 685.16,-440.86 415.63,0 752.58,336.94 752.58,752.58 0,156.19 -47.59,301.26 -129.06,421.52 z" id="path86" inkscape:connector-curvature="0"/>
    </clipPath>
    <radialGradient inkscape:collect="always" xlink:href="#linearGradient8578" id="radialGradient8580" cx="15.713943" cy="18.263794" fx="15.713943" fy="18.263794" r="21.544892" gradientUnits="userSpaceOnUse" gradientTransform="matrix(1.4436277,0,0,1.4098437,-6.6116658,-7.4712195)"/>
    <radialGradient inkscape:collect="always" xlink:href="#linearGradient8578" id="radialGradient8580-3" cx="15.713943" cy="18.263794" fx="15.713943" fy="18.263794" r="21.544891" gradientUnits="userSpaceOnUse" gradientTransform="matrix(0.90918676,0,0,0.88790983,-35.197574,-35.777007)"/>
    <radialGradient inkscape:collect="always" xlink:href="#linearGradient8578" id="radialGradient8580-6" cx="15.713943" cy="18.263794" fx="15.713943" fy="18.263794" r="21.544891" gradientUnits="userSpaceOnUse" gradientTransform="matrix(2.7899588,0,0,2.7246677,100.63465,99.069437)"/>
    <radialGradient inkscape:collect="always" xlink:href="#linearGradient8578" id="radialGradient8580-8" cx="15.713943" cy="18.263794" fx="15.713943" fy="18.263794" r="21.544891" gradientUnits="userSpaceOnUse" gradientTransform="matrix(3.6390859,0,0,3.5539234,194.49978,192.4895)"/>
    <radialGradient inkscape:collect="always" xlink:href="#linearGradient8578" id="radialGradient8580-36" cx="15.713943" cy="18.263794" fx="15.713943" fy="18.263794" r="21.544891" gradientUnits="userSpaceOnUse" gradientTransform="matrix(1.8801872,0,0,1.8361868,40.064702,38.976336)"/>
  </defs>
  <sodipodi:namedview pagecolor="#383c4a" bordercolor="#ffffff" borderopacity="0.62745098" objecttolerance="4" gridtolerance="10" guidetolerance="4" inkscape:pageopacity="0" inkscape:pageshadow="2" inkscape:window-width="640" inkscape:window-height="480" id="namedview20" showgrid="true" inkscape:zoom="1.4789492" inkscape:cx="214.31045" inkscape:cy="-90.797206" inkscape:current-layer="layer8" inkscape:snap-smooth-nodes="true" showguides="true" borderlayer="true" inkscape:showpageshadow="false" inkscape:guide-bbox="true" guidecolor="#bd4fff" guideopacity="0.78431373" inkscape:snap-nodes="true" inkscape:lockguides="false" fit-margin-top="0" fit-margin-left="0" fit-margin-right="0" fit-margin-bottom="0" guidehicolor="#ff0101" guidehiopacity="0.78431373" inkscape:snap-page="true" inkscape:object-nodes="true" inkscape:snap-bbox="true" inkscape:snap-global="true" inkscape:snap-object-midpoints="false" inkscape:snap-bbox-edge-midpoints="false">
    <inkscape:grid type="xygrid" id="grid4171" empspacing="4" dotted="false" originx="2.7755576e-17" originy="0" spacingx="1" spacingy="1" color="#5a5a5a" opacity="0.23529412" empcolor="#5a5a5a" empopacity="0.47058824" visible="true"/>
    <inkscape:grid type="axonomgrid" id="grid4699" units="mm" empspacing="4" color="#5a5a5a" opacity="0.23529412" empcolor="#5a5a5a" empopacity="0.47058824" gridanglex="45" gridanglez="45" spacingy="3.7795276" visible="false" originx="1.3228346" originy="1.3228346"/>
    <sodipodi:guide position="48,0" orientation="1,0" id="guide4568" inkscape:locked="false" inkscape:label="" inkscape:color="rgb(189,79,255)"/>
    <sodipodi:guide position="111.99996,-3.9999999e-05" orientation="0,1" id="guide4570" inkscape:locked="false" inkscape:label="" inkscape:color="rgb(189,79,255)"/>
    <sodipodi:guide position="0,0" orientation="1,0" id="guide4572" inkscape:locked="false" inkscape:label="" inkscape:color="rgb(189,79,255)"/>
    <sodipodi:guide position="0,48" orientation="0,1" id="guide4574" inkscape:locked="false" inkscape:label="" inkscape:color="rgb(189,79,255)"/>
    <sodipodi:guide position="0,80" orientation="0,1" id="guide4576" inkscape:locked="false" inkscape:label="" inkscape:color="rgb(189,79,255)"/>
    <sodipodi:guide position="-32,48" orientation="1,0" id="guide4578" inkscape:locked="false" inkscape:label="" inkscape:color="rgb(189,79,255)"/>
    <sodipodi:guide position="-32,104" orientation="0,1" id="guide4580" inkscape:locked="false" inkscape:label="" inkscape:color="rgb(189,79,255)"/>
    <sodipodi:guide position="-56,80" orientation="1,0" id="guide4582" inkscape:locked="false" inkscape:label="" inkscape:color="rgb(189,79,255)"/>
    <sodipodi:guide position="48,-64" orientation="0,1" id="guide4584" inkscape:locked="false" inkscape:label="" inkscape:color="rgb(189,79,255)"/>
    <sodipodi:guide position="27.439936,27.439936" orientation="-0.70710678,0.70710678" id="guide4588" inkscape:locked="false" inkscape:label="" inkscape:color="rgb(189,79,255)"/>
    <sodipodi:guide position="-56,80" orientation="-0.70710678,0.70710678" id="guide4573" inkscape:locked="false" inkscape:label="" inkscape:color="rgb(189,79,255)"/>
    <sodipodi:guide position="-32,48" orientation="-0.70710678,0.70710678" id="guide4575" inkscape:locked="false" inkscape:label="" inkscape:color="rgb(189,79,255)"/>
    <sodipodi:guide position="48,-64" orientation="-0.70710678,0.70710678" id="guide4577" inkscape:locked="false" inkscape:label="" inkscape:color="rgb(189,79,255)"/>
    <sodipodi:guide position="47.999962,0" orientation="0.70710678,0.70710678" id="guide4697" inkscape:locked="false" inkscape:label="" inkscape:color="rgb(189,79,255)"/>
    <sodipodi:guide position="207.99995,-288" orientation="0,1" id="guide7833" inkscape:locked="false"/>
    <sodipodi:guide position="335.99994,-288" orientation="1,0" id="guide7835" inkscape:locked="false" inkscape:label="" inkscape:color="rgb(189,79,255)"/>
    <sodipodi:guide position="111.99996,-64" orientation="1,0" id="guide7915" inkscape:locked="false"/>
    <sodipodi:guide position="111.99996,-160" orientation="0,1" id="guide7917" inkscape:locked="false"/>
    <sodipodi:guide position="207.99996,-160" orientation="1,0" id="guide7919" inkscape:locked="false"/>
    <sodipodi:guide position="111.99996,-160" orientation="-0.70710678,0.70710678" id="guide7921" inkscape:locked="false" inkscape:label="" inkscape:color="rgb(189,79,255)"/>
    <sodipodi:guide position="207.99996,-288" orientation="-0.70710678,0.70710678" id="guide7923" inkscape:locked="false" inkscape:label="" inkscape:color="rgb(189,79,255)"/>
    <sodipodi:guide position="-72,104" orientation="1,0" id="guide7824" inkscape:locked="false"/>
    <sodipodi:guide position="-56,120" orientation="0,1" id="guide7826" inkscape:locked="false"/>
    <sodipodi:guide position="-72,104" orientation="-0.70710678,0.70710678" id="guide7828" inkscape:locked="false" inkscape:label="" inkscape:color="rgb(189,79,255)"/>
  </sodipodi:namedview>
  <g inkscape:groupmode="layer" id="layer1" inkscape:label="icon_16" style="display:inline" transform="translate(72,72)">
    <g inkscape:groupmode="layer" id="layer5" inkscape:label="frame" style="display:none">
      <rect inkscape:label="frame_16" y="-72" x="-72" height="16" width="16" id="frame_16" style="color:#000000;clip-rule:nonzero;display:block;overflow:visible;visibility:visible;opacity:1;isolation:auto;mix-blend-mode:normal;color-interpolation:sRGB;color-interpolation-filters:linearRGB;solid-color:#000000;solid-opacity:1;vector-effect:none;fill:#000000;fill-opacity:1;fill-rule:nonzero;stroke:#ff24f7;stroke-width:0;stroke-linecap:square;stroke-linejoin:miter;stroke-miterlimit:4;stroke-dasharray:none;stroke-dashoffset:0;stroke-opacity:0.99481865;marker:none;marker-start:none;marker-mid:none;marker-end:none;paint-order:normal;color-rendering:auto;image-rendering:auto;shape-rendering:auto;text-rendering:auto;enable-background:accumulate"/>
      <text id="txt_16" y="-61.087891" x="-69.279297" style="font-size:8px;line-height:1000%;font-family:sans-serif;letter-spacing:0px;word-spacing:0px;display:inline;opacity:1;fill:#ffffff;fill-opacity:1;stroke:none;stroke-width:0.07214338px;stroke-linecap:butt;stroke-linejoin:miter;stroke-opacity:1" xml:space="preserve" inkscape:label="txt_16">
        <tspan style="font-size:8px;fill:#ffffff;fill-opacity:1;stroke:none;stroke-width:0.07214338px" y="-61.087891" x="-69.279297" id="tspan4768-6" sodipodi:role="line">16</tspan>
      </text>
    </g>
    <g inkscape:groupmode="layer" id="layer6" inkscape:label="icon" style="display:inline">
      <path d="m -56.000001,-64 c 0,-4.418188 -3.581812,-8 -7.999999,-8 -4.418295,0 -8,3.581812 -8,8 0,4.418295 3.581705,8 8,8 4.418187,0 7.999999,-3.581705 7.999999,-8" style="display:inline;fill:#4bd7dc;fill-opacity:0.43229167;fill-rule:nonzero;stroke:none;stroke-width:0.0106301" id="path78-6-5" inkscape:connector-curvature="0" inkscape:label="cirtulo"/>
      <path style="display:inline;fill:#ffffff;fill-opacity:0.89583333;fill-rule:nonzero;stroke:none;stroke-width:0.01009934" d="m -64.195312,-71.888281 -1.430469,0.03203 -1.267969,0.357812 0.910156,0.129688 0.747656,-0.129688 0.130469,0.357813 0.1625,0.357031 -0.292969,0.292969 0.06484,0.585156 0.455469,0.129688 0.292969,-0.682813 0.552343,-0.09688 0.617969,-0.422656 -0.488281,-0.780469 z m -3.218751,0.682812 -1.170312,0.454688 -1.885156,1.365625 -0.780469,1.332031 -0.617188,1.008594 0.03203,2.405469 0.260157,-0.130469 0.06562,-1.105469 0.227344,1.723438 0.06562,0.03906 0.583594,0.350781 0.553906,0.422656 0.389844,0.520313 0.766406,-0.09219 -0.117187,0.125 0.163281,0.65 -0.390625,0.357032 0.09687,0.457812 0.03359,0.160156 0.715625,1.235157 0.421875,0.06562 0.357813,0.324219 0.260156,1.26875 0.1625,0.682032 0.585156,0.910156 0.910156,0.520312 -0.389843,-0.617188 -0.130469,-0.650781 0.488281,-0.585155 0.389844,-1.039845 0.617187,-0.09766 0.389845,-1.267968 0.488281,-0.455469 -0.422657,-0.584375 -1.496093,-0.292969 -0.03281,-0.121094 -0.161719,-0.594531 -0.715625,-0.03203 -0.454688,-0.552344 -0.584374,-0.03281 -0.78125,-0.260156 -0.382813,0.407032 -0.559375,-0.341407 -0.1625,-0.520312 -0.553125,-0.195313 0.117968,-0.4 0.04531,-0.152343 -0.351562,0.240625 -0.16875,0.117187 -0.07187,-0.05469 -0.188281,-0.140626 0.03281,-1.10625 0.844532,-0.389843 0.390625,0.06563 0.09687,0.747656 0.389844,-0.06562 0.09844,-1.234375 0.649219,-0.195312 v -0.585938 l 0.748437,-0.584375 0.8125,-0.03281 -0.292187,-0.617968 1.105469,-0.389844 -0.682813,-0.878125 -0.422656,0.195312 -0.130469,-0.617187 -0.422656,0.129687 -0.617187,1.235938 -0.227344,-0.488281 -0.423438,-0.389844 0.942969,-0.65 c 0,0 0.650491,-0.227344 0.780469,-0.227344 0.129979,0 0.389843,0.292188 0.389843,0.292188 l 0.520313,-0.390626 -0.1625,-0.454687 -0.65,0.06484 z m 7.021876,0.292188 -0.715625,0.09766 0.228124,1.235156 0.519531,0.06484 0.520314,0.422656 v -0.454687 l -0.454688,-0.682813 0.910156,0.584376 0.03281,0.748437 -0.8125,0.09687 -0.357813,0.682812 0.357813,0.617969 -0.845313,-0.09766 0.1625,0.975 0.486719,0.228125 0.585937,-0.553125 0.09688,-0.714844 0.390625,0.09766 0.422656,0.421874 -0.292969,0.423438 0.246875,0.06563 0.241406,0.06406 0.1625,-0.487501 0.259375,0.487501 0.325782,-0.357813 0.260156,0.553125 0.486718,0.129688 -0.03203,0.617968 -0.714842,-0.292968 -0.163282,0.195312 -0.877343,-0.325 -0.159375,-0.296875 -0.06797,-0.125781 -1.3,0.292968 -1.008594,1.495313 0.06406,0.639844 0.06641,0.660156 0.975,0.942188 1.007812,-0.1625 0.4875,0.553125 -0.292187,0.877343 0.227344,1.072657 -0.65,0.910156 -0.585938,1.398437 0.878125,-0.1625 1.398438,-1.332812 0.682812,-1.267969 0.454689,-1.300781 0.519531,-0.585156 -0.421875,-0.421875 -0.389845,-2.308594 0.454688,0.878125 v 1.1375 l 0.422655,-0.4875 -0.129686,-1.592969 -0.325782,-0.910156 -0.324999,-1.267188 -0.828127,-1.185156 -0.21328,-0.303906 -0.583594,-0.917188 -1.170312,-0.585156 z" id="path98-61-2" inkscape:connector-curvature="0" inkscape:label="continentes"/>
    </g>
  </g>
</svg>