<?xml version="1.0" encoding="UTF-8" standalone="yes"?>
<svg xmlns:osb="http://www.openswatchbook.org/uri/2009/osb" xmlns:dc="http://purl.org/dc/elements/1.1/" xmlns:cc="http://creativecommons.org/ns#" xmlns:rdf="http://www.w3.org/1999/02/22-rdf-syntax-ns#" xmlns:svg="http://www.w3.org/2000/svg" xmlns="http://www.w3.org/2000/svg" xmlns:xlink="http://www.w3.org/1999/xlink" xmlns:sodipodi="http://sodipodi.sourceforge.net/DTD/sodipodi-0.dtd" xmlns:inkscape="http://www.inkscape.org/namespaces/inkscape" height="32" viewBox="0 0 32 32" width="32" id="svg2" version="1.1" inkscape:version="0.92.1 r" sodipodi:docname="font-x-generic.svg" enable-background="new" folder="32">
  <title id="title4675">Template icons dark</title>
  <metadata id="metadata24">
    <rdf:RDF>
      <cc:Work rdf:about="">
        <dc:format>image/svg+xml</dc:format>
        <dc:type rdf:resource="http://purl.org/dc/dcmitype/StillImage"/>
        <dc:title>Template icons dark</dc:title>
        <dc:date>17/05/13</dc:date>
        <dc:creator>
          <cc:Agent>
            <dc:title>wfpaisa</dc:title>
          </cc:Agent>
        </dc:creator>
        <dc:rights>
          <cc:Agent>
            <dc:title>License: GPLv3</dc:title>
          </cc:Agent>
        </dc:rights>
        <dc:language>es-en</dc:language>
        <dc:subject>
          <rdf:Bag>
            <rdf:li>plane-icon-theme</rdf:li>
          </rdf:Bag>
        </dc:subject>
        <dc:description>Template for create set icons</dc:description>
        <cc:license rdf:resource="https://www.gnu.org/licenses/gpl-3.0.en.html"/>
      </cc:Work>
    </rdf:RDF>
  </metadata>
  <defs id="defs22">
    <linearGradient id="Pestana-sombra-3" osb:paint="solid">
      <stop style="stop-color:#000000;stop-opacity:0.19553073;" offset="0" id="stop8273"/>
    </linearGradient>
    <linearGradient id="Hoja-brillo-8" osb:paint="solid">
      <stop style="stop-color:#ffffff;stop-opacity:0.78212291;" offset="0" id="stop8267"/>
    </linearGradient>
    <linearGradient id="Hoja-sombra-2_-2" osb:paint="solid">
      <stop style="stop-color:#000000;stop-opacity:0.07821229;" offset="0" id="stop8261"/>
    </linearGradient>
    <linearGradient id="Hoja-sombra-1_-9" osb:paint="solid">
      <stop style="stop-color:#000000;stop-opacity:0.15686275;" offset="0" id="stop8255"/>
    </linearGradient>
    <linearGradient id="Pestana-6">
      <stop id="stop7875" offset="0" style="stop-color:#ffffff;stop-opacity:1;"/>
      <stop id="stop7879" offset="1" style="stop-color:#dfdfdf;stop-opacity:1;"/>
    </linearGradient>
    <linearGradient id="Hoja_-5">
      <stop id="stop7831" offset="0" style="stop-color:#f0f0f0;stop-opacity:1;"/>
      <stop id="stop7833" offset="1" style="stop-color:#ffffff;stop-opacity:1"/>
    </linearGradient>
    <linearGradient inkscape:collect="always" xlink:href="#Hoja_-5" id="linearGradient8848" gradientUnits="userSpaceOnUse" gradientTransform="matrix(2.1943448,0,0,2.19615,107.37835,109.17328)" x1="24.116938" y1="4.9307919" x2="24.058121" y2="42.556389"/>
    <linearGradient inkscape:collect="always" xlink:href="#Pestana-6" id="linearGradient8852" gradientUnits="userSpaceOnUse" gradientTransform="matrix(2.5078225,0,0,2.19615,97.006583,108.93197)" x1="33.093815" y1="10.50385" x2="29.903797" y2="14.146588"/>
    <linearGradient inkscape:collect="always" xlink:href="#Hoja_-5" id="linearGradient7823-7" gradientUnits="userSpaceOnUse" x1="24.116938" y1="4.9307919" x2="24.058121" y2="42.556389" gradientTransform="matrix(1.1194338,0,0,1.1203548,-2.9435792,-2.6942142)"/>
    <linearGradient inkscape:collect="always" xlink:href="#Hoja-sombra-2" id="linearGradient7865-3" gradientUnits="userSpaceOnUse" gradientTransform="matrix(1.1194338,0,0,1.1203548,-2.9435792,-2.6942142)" x1="26.072924" y1="18.962273" x2="34.373611" y2="10.815324"/>
    <linearGradient inkscape:collect="always" xlink:href="#Pestana-6" id="linearGradient7825-6" gradientUnits="userSpaceOnUse" x1="34.176132" y1="10.27618" x2="30.758255" y2="13.691247" gradientTransform="matrix(1.2793529,0,0,1.1203548,-8.2346867,-2.8173169)"/>
    <linearGradient inkscape:collect="always" xlink:href="#Hoja_-5" id="linearGradient7909" gradientUnits="userSpaceOnUse" gradientTransform="matrix(1.4628966,0,0,1.4641001,44.91893,46.115528)" x1="24.116938" y1="4.9307919" x2="24.058121" y2="42.556389"/>
    <linearGradient inkscape:collect="always" xlink:href="#Hoja-sombra-2" id="linearGradient7911" gradientUnits="userSpaceOnUse" gradientTransform="matrix(1.4628966,0,0,1.4641001,44.91893,46.115528)" x1="26.072924" y1="18.962273" x2="34.373611" y2="10.815324"/>
    <linearGradient inkscape:collect="always" xlink:href="#Pestana-6" id="linearGradient7913" gradientUnits="userSpaceOnUse" gradientTransform="matrix(1.6718818,0,0,1.4641001,38.00441,45.954658)" x1="34.176132" y1="10.27618" x2="30.758255" y2="13.691247"/>
    <linearGradient inkscape:collect="always" xlink:href="#Hoja-sombra-2" id="linearGradient8850-3" gradientUnits="userSpaceOnUse" gradientTransform="matrix(2.1943448,0,0,2.19615,107.37835,109.17328)" x1="23.980556" y1="23.143555" x2="45.854969" y2="1.2871252"/>
    <linearGradient inkscape:collect="always" xlink:href="#Hoja-sombra-2" id="linearGradient4621" gradientUnits="userSpaceOnUse" gradientTransform="matrix(2.1943448,0,0,2.19615,107.37835,109.17328)" x1="23.980556" y1="23.143555" x2="2.1061459" y2="44.999985"/>
    <linearGradient inkscape:collect="always" xlink:href="#Hoja-sombra-2" id="linearGradient8301" gradientUnits="userSpaceOnUse" gradientTransform="matrix(2.1943448,0,0,2.19615,107.37835,109.17328)" x1="23.980556" y1="23.143555" x2="45.854969" y2="44.999985"/>
    <linearGradient id="Hoja-sombra-2">
      <stop id="stop8303" offset="0" style="stop-color:#000000;stop-opacity:0"/>
      <stop id="stop8305" offset="1" style="stop-color:#000000;stop-opacity:0.10196079"/>
    </linearGradient>
    <linearGradient inkscape:collect="always" xlink:href="#Hoja-sombra-2" id="linearGradient7895" gradientUnits="userSpaceOnUse" gradientTransform="matrix(2.1943448,0,0,2.19615,107.37835,109.17328)" x1="23.980556" y1="23.143555" x2="2.1061459" y2="1.2871252"/>
    <linearGradient inkscape:collect="always" xlink:href="#Hoja_-5" id="linearGradient7818" gradientUnits="userSpaceOnUse" gradientTransform="matrix(0.74628918,0,0,0.74690318,-33.962385,-33.796142)" x1="24.116938" y1="4.9307919" x2="24.058121" y2="42.556389"/>
    <linearGradient inkscape:collect="always" xlink:href="#Pestana-6" id="linearGradient7822" gradientUnits="userSpaceOnUse" gradientTransform="matrix(0.85290191,0,0,0.74690318,-37.489791,-33.878211)" x1="28.713491" y1="15.702977" x2="25.196087" y2="18.581003"/>
    <linearGradient inkscape:collect="always" xlink:href="#Hoja-sombra-1_-9" id="linearGradient8259" x1="125.99999" y1="161.5" x2="193.99999" y2="161.5" gradientUnits="userSpaceOnUse"/>
    <linearGradient inkscape:collect="always" xlink:href="#Hoja-sombra-2_-2" id="linearGradient8265" x1="125" y1="161.49999" x2="195" y2="161.49999" gradientUnits="userSpaceOnUse"/>
    <linearGradient inkscape:collect="always" xlink:href="#Hoja-brillo-8" id="linearGradient8271" x1="126.99999" y1="120.5" x2="168.99999" y2="120.5" gradientUnits="userSpaceOnUse"/>
    <linearGradient inkscape:collect="always" xlink:href="#Pestana-sombra-3" id="linearGradient8277" x1="165.99999" y1="133.47244" x2="192.99999" y2="133.47244" gradientUnits="userSpaceOnUse"/>
    <linearGradient gradientTransform="matrix(1.33333,0,0,1.33333,58.6672,56.167208)" inkscape:collect="always" xlink:href="#Hoja-sombra-2_-2" id="linearGradient8265-7" x1="125" y1="161.49998" x2="195" y2="161.49998" gradientUnits="userSpaceOnUse"/>
    <linearGradient gradientTransform="matrix(1.33333,0,0,1.33333,58.6672,56.167208)" inkscape:collect="always" xlink:href="#Hoja-sombra-1_-9" id="linearGradient8259-9" x1="125.99999" y1="161.5" x2="193.99998" y2="161.5" gradientUnits="userSpaceOnUse"/>
    <linearGradient inkscape:collect="always" xlink:href="#Hoja_-5" id="linearGradient8848-4" gradientUnits="userSpaceOnUse" gradientTransform="matrix(2.9257858,0,0,2.9281927,201.83798,201.73122)" x1="24.116938" y1="4.9307919" x2="24.058121" y2="42.556389"/>
    <linearGradient inkscape:collect="always" xlink:href="#Hoja-sombra-2" id="linearGradient8301-3" gradientUnits="userSpaceOnUse" gradientTransform="matrix(2.9257858,0,0,2.9281927,201.83798,201.73122)" x1="23.980556" y1="23.143555" x2="45.854969" y2="44.999985"/>
    <linearGradient inkscape:collect="always" xlink:href="#Hoja-sombra-2" id="linearGradient4621-0" gradientUnits="userSpaceOnUse" gradientTransform="matrix(2.9257858,0,0,2.9281927,201.83798,201.73122)" x1="23.980556" y1="23.143555" x2="2.1061459" y2="44.999985"/>
    <linearGradient inkscape:collect="always" xlink:href="#Hoja-sombra-2" id="linearGradient8850-3-8" gradientUnits="userSpaceOnUse" gradientTransform="matrix(2.9257858,0,0,2.9281927,201.83798,201.73122)" x1="23.980556" y1="23.143555" x2="45.854969" y2="1.2871252"/>
    <linearGradient inkscape:collect="always" xlink:href="#Hoja-sombra-2" id="linearGradient7895-1" gradientUnits="userSpaceOnUse" gradientTransform="matrix(2.9257858,0,0,2.9281927,201.83798,201.73122)" x1="23.980556" y1="23.143555" x2="2.1061459" y2="1.2871252"/>
    <linearGradient gradientTransform="matrix(1.33333,0,0,1.33333,58.6672,56.167208)" inkscape:collect="always" xlink:href="#Hoja-brillo-8" id="linearGradient8271-9" x1="126.99999" y1="120.5" x2="168.99998" y2="120.5" gradientUnits="userSpaceOnUse"/>
    <linearGradient gradientTransform="matrix(1.33333,0,0,1.33333,58.6672,56.167208)" inkscape:collect="always" xlink:href="#Pestana-sombra-3" id="linearGradient8277-7" x1="165.99998" y1="133.47244" x2="192.99998" y2="133.47244" gradientUnits="userSpaceOnUse"/>
    <linearGradient inkscape:collect="always" xlink:href="#Pestana-6" id="linearGradient8852-2" gradientUnits="userSpaceOnUse" gradientTransform="matrix(3.343755,0,0,2.9281927,188.00898,201.40947)" x1="33.093815" y1="10.50385" x2="29.903797" y2="14.146588"/>
    <linearGradient gradientTransform="matrix(0.33418093,0,0,0.34277768,-69.503435,-71.57129)" inkscape:collect="always" xlink:href="#patron-6" id="linearGradient9428-9" gradientUnits="userSpaceOnUse" x1="188" y1="173.49998" x2="189" y2="173.49998"/>
    <linearGradient id="patron-6" osb:paint="solid">
      <stop style="stop-color:#000000;stop-opacity:0.08379889;" offset="0" id="stop9305"/>
    </linearGradient>
    <linearGradient gradientTransform="matrix(0.5003165,0,0,0.50586389,-56.546906,-57.711743)" inkscape:collect="always" xlink:href="#patron-6" id="linearGradient9428-62" gradientUnits="userSpaceOnUse" x1="188" y1="173.49998" x2="189" y2="173.49998"/>
    <linearGradient gradientTransform="matrix(0.66742097,0,0,0.67482117,-26.771695,-27.999411)" inkscape:collect="always" xlink:href="#patron-6" id="linearGradient9428-62-7" gradientUnits="userSpaceOnUse" x1="188" y1="173.49998" x2="189" y2="173.49998"/>
    <linearGradient gradientTransform="matrix(0.99981922,0,0,1.0002963,0.01735681,-0.05481329)" inkscape:collect="always" xlink:href="#patron-6" id="linearGradient9428-62-2" gradientUnits="userSpaceOnUse" x1="188" y1="173.49998" x2="189" y2="173.49998"/>
    <linearGradient gradientTransform="matrix(1.3339076,0,0,1.3368226,58.573291,55.576961)" inkscape:collect="always" xlink:href="#patron-6" id="linearGradient9428-62-0" gradientUnits="userSpaceOnUse" x1="188" y1="173.49998" x2="189" y2="173.49998"/>
  </defs>
  <sodipodi:namedview pagecolor="#383c4a" bordercolor="#ffffff" borderopacity="0.62745098" objecttolerance="4" gridtolerance="10" guidetolerance="4" inkscape:pageopacity="0" inkscape:pageshadow="2" inkscape:window-width="640" inkscape:window-height="480" id="namedview20" showgrid="false" inkscape:zoom="5.8456082" inkscape:cx="290.54486" inkscape:cy="-231.49736" inkscape:current-layer="layer12" inkscape:snap-smooth-nodes="false" showguides="true" borderlayer="true" inkscape:showpageshadow="false" inkscape:guide-bbox="true" guidecolor="#bd4fff" guideopacity="0.78431373" inkscape:snap-nodes="true" inkscape:lockguides="false" fit-margin-top="0" fit-margin-left="0" fit-margin-right="0" fit-margin-bottom="0" guidehicolor="#ff0101" guidehiopacity="0.78431373" inkscape:snap-page="true" inkscape:object-nodes="true" inkscape:snap-bbox="true" inkscape:snap-global="true" inkscape:snap-object-midpoints="false" inkscape:snap-bbox-edge-midpoints="false">
    <inkscape:grid type="xygrid" id="grid4171" empspacing="4" dotted="false" originx="2.7755576e-17" originy="0" spacingx="1" spacingy="1" color="#5a5a5a" opacity="0.23529412" empcolor="#5a5a5a" empopacity="0.47058824" visible="true"/>
    <inkscape:grid type="axonomgrid" id="grid4699" units="mm" empspacing="4" color="#5a5a5a" opacity="0.23529412" empcolor="#5a5a5a" empopacity="0.47058824" gridanglex="45" gridanglez="45" spacingy="3.7795276" visible="false" originx="1.3228346" originy="1.3228346"/>
    <sodipodi:guide position="48,0" orientation="1,0" id="guide4568" inkscape:locked="false" inkscape:label="" inkscape:color="rgb(189,79,255)"/>
    <sodipodi:guide position="111.99996,-3.9999999e-05" orientation="0,1" id="guide4570" inkscape:locked="false" inkscape:label="" inkscape:color="rgb(189,79,255)"/>
    <sodipodi:guide position="0,0" orientation="1,0" id="guide4572" inkscape:locked="false" inkscape:label="" inkscape:color="rgb(189,79,255)"/>
    <sodipodi:guide position="0,48" orientation="0,1" id="guide4574" inkscape:locked="false" inkscape:label="" inkscape:color="rgb(189,79,255)"/>
    <sodipodi:guide position="0,80" orientation="0,1" id="guide4576" inkscape:locked="false" inkscape:label="" inkscape:color="rgb(189,79,255)"/>
    <sodipodi:guide position="-32,48" orientation="1,0" id="guide4578" inkscape:locked="false" inkscape:label="" inkscape:color="rgb(189,79,255)"/>
    <sodipodi:guide position="-32,104" orientation="0,1" id="guide4580" inkscape:locked="false" inkscape:label="" inkscape:color="rgb(189,79,255)"/>
    <sodipodi:guide position="-56,80" orientation="1,0" id="guide4582" inkscape:locked="false" inkscape:label="" inkscape:color="rgb(189,79,255)"/>
    <sodipodi:guide position="48,-64" orientation="0,1" id="guide4584" inkscape:locked="false" inkscape:label="" inkscape:color="rgb(189,79,255)"/>
    <sodipodi:guide position="0,0" orientation="-0.70710678,0.70710678" id="guide4588" inkscape:locked="false" inkscape:label="" inkscape:color="rgb(189,79,255)"/>
    <sodipodi:guide position="-56,80" orientation="-0.70710678,0.70710678" id="guide4573" inkscape:locked="false" inkscape:label="" inkscape:color="rgb(189,79,255)"/>
    <sodipodi:guide position="-32,48" orientation="-0.70710678,0.70710678" id="guide4575" inkscape:locked="false" inkscape:label="" inkscape:color="rgb(189,79,255)"/>
    <sodipodi:guide position="48,-64" orientation="-0.70710678,0.70710678" id="guide4577" inkscape:locked="false" inkscape:label="" inkscape:color="rgb(189,79,255)"/>
    <sodipodi:guide position="47.999962,0" orientation="0.70710678,0.70710678" id="guide4697" inkscape:locked="false" inkscape:label="" inkscape:color="rgb(189,79,255)"/>
    <sodipodi:guide position="207.99995,-288" orientation="0,1" id="guide7833" inkscape:locked="false"/>
    <sodipodi:guide position="335.99994,-288" orientation="1,0" id="guide7835" inkscape:locked="false" inkscape:label="" inkscape:color="rgb(189,79,255)"/>
    <sodipodi:guide position="111.99996,-64" orientation="1,0" id="guide7915" inkscape:locked="false"/>
    <sodipodi:guide position="111.99996,-160" orientation="0,1" id="guide7917" inkscape:locked="false"/>
    <sodipodi:guide position="207.99996,-160" orientation="1,0" id="guide7919" inkscape:locked="false"/>
    <sodipodi:guide position="111.99996,-160" orientation="-0.70710678,0.70710678" id="guide7921" inkscape:locked="false" inkscape:label="" inkscape:color="rgb(189,79,255)"/>
    <sodipodi:guide position="207.99996,-288" orientation="-0.70710678,0.70710678" id="guide7923" inkscape:locked="false" inkscape:label="" inkscape:color="rgb(189,79,255)"/>
    <sodipodi:guide position="-72,104" orientation="1,0" id="guide7824" inkscape:locked="false"/>
    <sodipodi:guide position="-56,120" orientation="0,1" id="guide7826" inkscape:locked="false"/>
    <sodipodi:guide position="-72,104" orientation="-0.70710678,0.70710678" id="guide7828" inkscape:locked="false" inkscape:label="" inkscape:color="rgb(189,79,255)"/>
  </sodipodi:namedview>
  <g style="display:inline" inkscape:label="icon_32" id="g7816" inkscape:groupmode="layer" transform="translate(32,32)">
    <g style="display:none" inkscape:label="frame" id="g7802" inkscape:groupmode="layer">
      <rect style="color:#000000;clip-rule:nonzero;display:block;overflow:visible;visibility:visible;opacity:1;isolation:auto;mix-blend-mode:normal;color-interpolation:sRGB;color-interpolation-filters:linearRGB;solid-color:#000000;solid-opacity:1;vector-effect:none;fill:#000000;fill-opacity:1;fill-rule:nonzero;stroke:#ff24f7;stroke-width:0;stroke-linecap:square;stroke-linejoin:miter;stroke-miterlimit:4;stroke-dasharray:none;stroke-dashoffset:0;stroke-opacity:0.99481865;marker:none;marker-start:none;marker-mid:none;marker-end:none;paint-order:normal;color-rendering:auto;image-rendering:auto;shape-rendering:auto;text-rendering:auto;enable-background:accumulate" id="rect7792" width="32" height="32" x="-32" y="-32" inkscape:label="frame_32"/>
      <text inkscape:label="txt_32" id="text7796" y="-11.470053" x="-23.799042" style="font-size:12.4444437px;line-height:1000%;font-family:sans-serif;letter-spacing:0px;word-spacing:0px;display:inline;opacity:1;fill:#ffffff;fill-opacity:1;stroke:none;stroke-width:0.07444605px;stroke-linecap:butt;stroke-linejoin:miter;stroke-opacity:1" xml:space="preserve">
        <tspan id="tspan7794" style="font-size:12.4444437px;fill:#ffffff;fill-opacity:1;stroke:none;stroke-width:0.07444605px" y="-11.470053" x="-23.799042" sodipodi:role="line">32</tspan>
      </text>
    </g>
    <g style="display:inline" inkscape:label="icon" id="g7814" inkscape:groupmode="layer">
      <path style="color:#000000;clip-rule:nonzero;display:inline;overflow:visible;visibility:visible;opacity:1;isolation:auto;mix-blend-mode:normal;color-interpolation:sRGB;color-interpolation-filters:linearRGB;solid-color:#000000;solid-opacity:1;vector-effect:none;fill:url(#linearGradient8259);fill-opacity:1;fill-rule:nonzero;stroke:none;stroke-width:0.85190946;stroke-linecap:butt;stroke-linejoin:miter;stroke-miterlimit:4;stroke-dasharray:none;stroke-dashoffset:0;stroke-opacity:1;marker:none;marker-start:none;marker-mid:none;marker-end:none;paint-order:fill markers stroke;color-rendering:auto;image-rendering:auto;shape-rendering:auto;text-rendering:auto;enable-background:accumulate" d="m -28,-31 h 15 l 9,9 v 21 h -24 z" id="path7804" inkscape:connector-curvature="0" sodipodi:nodetypes="cccccc" inkscape:label="Hoja sombra"/>
      <path inkscape:label="Hoja" sodipodi:nodetypes="cccccc" inkscape:connector-curvature="0" id="path7806" d="m -27,-30 h 14 l 8,8 v 20 h -22 z" style="color:#000000;clip-rule:nonzero;display:inline;overflow:visible;visibility:visible;opacity:1;isolation:auto;mix-blend-mode:normal;color-interpolation:sRGB;color-interpolation-filters:linearRGB;solid-color:#000000;solid-opacity:1;vector-effect:none;fill:url(#linearGradient7818);fill-opacity:1;fill-rule:nonzero;stroke:none;stroke-width:0.28184074;stroke-linecap:butt;stroke-linejoin:miter;stroke-miterlimit:4;stroke-dasharray:none;stroke-dashoffset:0;stroke-opacity:1;marker:none;marker-start:none;marker-mid:none;marker-end:none;paint-order:fill markers stroke;color-rendering:auto;image-rendering:auto;shape-rendering:auto;text-rendering:auto;enable-background:accumulate"/>
      <path inkscape:label="Pestaña sombra" style="display:inline;opacity:1;vector-effect:none;fill:url(#linearGradient8277);fill-opacity:1;fill-rule:evenodd;stroke:none;stroke-width:2.19524717px;stroke-linecap:butt;stroke-linejoin:miter;stroke-miterlimit:4;stroke-dasharray:none;stroke-dashoffset:0;stroke-opacity:1" d="m -13,-30 8,8 v 1 h -9 v -9 z" id="path7810" inkscape:connector-curvature="0" sodipodi:nodetypes="cccccc"/>
      <path inkscape:label="Pestaña" sodipodi:nodetypes="cccc" inkscape:connector-curvature="0" id="path7812" d="m -13,-30 8,8 h -8 z" style="display:inline;fill:url(#linearGradient7822);fill-opacity:1;fill-rule:evenodd;stroke:none;stroke-width:0.79814482px;stroke-linecap:butt;stroke-linejoin:miter;stroke-opacity:1"/>
      <path style="color:#000000;clip-rule:nonzero;display:inline;overflow:visible;visibility:visible;opacity:0.4;isolation:auto;mix-blend-mode:normal;color-interpolation:sRGB;color-interpolation-filters:linearRGB;solid-color:#000000;solid-opacity:1;vector-effect:none;fill:url(#linearGradient9428-9);fill-opacity:1;fill-rule:nonzero;stroke:none;stroke-width:0.28438452;stroke-linecap:butt;stroke-linejoin:miter;stroke-miterlimit:4;stroke-dasharray:none;stroke-dashoffset:0;stroke-opacity:0.34375;marker:none;marker-start:none;marker-mid:none;marker-end:none;paint-order:fill markers stroke;color-rendering:auto;image-rendering:auto;shape-rendering:auto;text-rendering:auto;enable-background:accumulate" d="m -26.728276,-30.437971 v 1.028333 h -0.334181 v 0.342776 h 0.334181 v 1.028335 h -0.334181 v 0.342777 h 0.334181 v 1.028333 h -0.334181 v 0.342777 h 0.334181 v 1.028334 h -0.334181 v 0.342778 h 0.334181 v 1.028332 h -0.334181 v 0.342779 h 0.334181 v 1.028332 h -0.334181 v 0.342778 h 0.334181 v 1.028332 h -0.334181 v 0.342778 h 0.334181 v 1.028333 h -0.334181 v 0.342779 h 0.334181 v 1.028334 h -0.334181 v 0.342777 h 0.334181 v 1.028333 h -0.334181 v 0.342777 h 0.334181 v 1.028334 h -0.334181 v 0.342776 h 0.334181 v 1.028334 h -0.334181 v 0.342777 h 0.334181 v 1.028334 h -0.334181 v 0.342777 h 0.334181 v 1.028334 h -0.334181 v 0.342777 h 0.334181 v 1.028334 h -0.334181 v 0.3427847 h 0.334181 v 1.0283359 h -0.334181 v 0.3427773 h 0.334181 v 1.0283337 h -0.334181 v 0.3427773 h 0.334181 v 1.0283322 h -0.334181 v 0.3427788 h 0.334181 v 1.0283322 h -0.334181 v 0.3427787 h 0.334181 v 1.0283322 h -0.334181 v 0.3427788 h 0.334181 v 1.0283322 h 0.33418 v -1.0283322 h 1.002543 v 1.0283322 h 0.334181 v -1.0283322 h 1.002542 v 1.0283322 h 0.334182 v -1.0283322 h 1.002542 v 1.0283322 h 0.334181 v -1.0283322 h 1.002544 v 1.0283322 h 0.334181 v -1.0283322 h 1.002543 v 1.0283322 h 0.334179 v -1.0283322 h 1.002544 v 1.0283322 h 0.33418 v -1.0283322 h 1.002543 v 1.0283322 h 0.334181 v -1.0283322 h 1.002543 v 1.0283322 h 0.334182 v -1.0283322 h 1.002542 v 1.0283322 h 0.33418 v -1.0283322 h 1.002542 v 1.0283322 h 0.334182 v -1.0283322 h 1.002542 v 1.0283322 h 0.334181 v -1.0283322 h 1.002543 v 1.0283322 h 0.33418 v -1.0283322 h 1.002545 v 0.9961975 h 0.3341806 v -0.9961975 h 1.0025433 v 1.0283322 h 0.3341806 v -1.0283322 h 1.0025433 v 1.0283322 h 0.3341805 v -1.0283322 h 1.3367239 V -3.358524 h -1.3367239 v -1.0283322 h 1.3367239 v -0.3427787 h -1.3367239 v -1.0283322 h 1.3367239 v -0.3427788 h -1.3367239 v -1.0283322 h 1.3367239 v -0.3427773 h -1.3367239 v -1.0283337 h 1.3367239 v -0.3427773 h -1.3367239 v -1.0283359 h 1.3367239 v -0.3427847 h -1.3367239 v -1.028334 h 1.3367239 v -0.342777 h -1.3367239 v -1.028334 h 1.3367239 v -0.342777 h -1.3367239 v -1.028334 h 1.3367239 v -0.342777 h -1.3367239 v -1.028334 h 1.3367239 v -0.342776 h -1.3367239 v -1.028334 h 1.3367239 v -0.342777 h -1.3367239 v -1.028333 h 1.3367239 v -0.342777 h -1.3367239 v -1.028334 h 1.3367239 v -0.342779 h -1.3367239 v -1.028333 h 1.3367239 v -0.342778 h -1.3367239 v -1.028332 h -0.3341805 v 1.028332 h -1.0025433 v -1.028332 h -0.3341806 v 1.028332 h -1.0025433 v -1.060468 H -9.350868 v 1.060468 h -1.002545 v -1.028332 h -0.33418 v 1.028332 h -1.002543 v -1.028332 h -0.334181 v 1.028332 h -1.002542 v -9.254996 h -0.334182 v 1.028333 h -1.002542 v -1.028333 h -0.33418 v 1.028333 h -1.002542 v -1.028333 h -0.334182 v 1.028333 h -1.002543 v -1.028333 h -0.334181 v 1.028333 h -1.002543 v -1.028333 h -0.33418 v 1.028333 h -1.002544 v -1.028333 h -0.334179 v 1.028333 H -21.0472 v -1.028333 h -0.334181 v 1.028333 h -1.002544 v -1.028333 h -0.334181 v 1.028333 h -1.002542 v -1.028333 h -0.334182 v 1.028333 h -1.002542 v -1.028333 h -0.334181 v 1.028333 h -1.002543 v -1.028333 z m 0.33418,1.371109 h 1.002543 v 1.028335 h -1.002543 z m 1.336724,0 h 1.002542 v 1.028335 h -1.002542 z m 1.336724,0 h 1.002542 v 1.028335 h -1.002542 z m 1.336723,0 h 1.002544 v 1.028335 h -1.002544 z m 1.336725,0 h 1.002543 v 1.028335 H -21.0472 Z m 1.336722,0 h 1.002544 v 1.028335 h -1.002544 z m 1.336724,0 h 1.002543 v 1.028335 h -1.002543 z m 1.336724,0 h 1.002543 v 1.028335 h -1.002543 z m 1.336725,0 h 1.002542 v 1.028335 h -1.002542 z m 1.336722,0 h 1.002542 v 1.028335 h -1.002542 z m -12.030513,1.371112 h 1.002543 v 1.028333 h -1.002543 z m 1.336724,0 h 1.002542 v 1.028333 h -1.002542 z m 1.336724,0 h 1.002542 v 1.028333 h -1.002542 z m 1.336723,0 h 1.002544 v 1.028333 h -1.002544 z m 1.336725,0 h 1.002543 v 1.028333 H -21.0472 Z m 1.336722,0 h 1.002544 v 1.028333 h -1.002544 z m 1.336724,0 h 1.002543 v 1.028333 h -1.002543 z m 1.336724,0 h 1.002543 v 1.028333 h -1.002543 z m 1.336725,0 h 1.002542 v 1.028333 h -1.002542 z m 1.336722,0 h 1.002542 v 1.028333 h -1.002542 z m -12.030513,1.37111 h 1.002543 v 1.028334 h -1.002543 z m 1.336724,0 h 1.002542 v 1.028334 h -1.002542 z m 1.336724,0 h 1.002542 v 1.028334 h -1.002542 z m 1.336723,0 h 1.002544 v 1.028334 h -1.002544 z m 1.336725,0 h 1.002543 v 1.028334 H -21.0472 Z m 1.336722,0 h 1.002544 v 1.028334 h -1.002544 z m 1.336724,0 h 1.002543 v 1.028334 h -1.002543 z m 1.336724,0 h 1.002543 v 1.028334 h -1.002543 z m 1.336725,0 h 1.002542 v 1.028334 h -1.002542 z m 1.336722,0 h 1.002542 v 1.028334 h -1.002542 z m -12.030513,1.371112 h 1.002543 v 1.028332 h -1.002543 z m 1.336724,0 h 1.002542 v 1.028332 h -1.002542 z m 1.336724,0 h 1.002542 v 1.028332 h -1.002542 z m 1.336723,0 h 1.002544 v 1.028332 h -1.002544 z m 1.336725,0 h 1.002543 v 1.028332 H -21.0472 Z m 1.336722,0 h 1.002544 v 1.028332 h -1.002544 z m 1.336724,0 h 1.002543 v 1.028332 h -1.002543 z m 1.336724,0 h 1.002543 v 1.028332 h -1.002543 z m 1.336725,0 h 1.002542 v 1.028332 h -1.002542 z m 1.336722,0 h 1.002542 v 1.028332 h -1.002542 z m -12.030513,1.371111 h 1.002543 v 1.028332 h -1.002543 z m 1.336724,0 h 1.002542 v 1.028332 h -1.002542 z m 1.336724,0 h 1.002542 v 1.028332 h -1.002542 z m 1.336723,0 h 1.002544 v 1.028332 h -1.002544 z m 1.336725,0 h 1.002543 v 1.028332 H -21.0472 Z m 1.336722,0 h 1.002544 v 1.028332 h -1.002544 z m 1.336724,0 h 1.002543 v 1.028332 h -1.002543 z m 1.336724,0 h 1.002543 v 1.028332 h -1.002543 z m 1.336725,0 h 1.002542 v 1.028332 h -1.002542 z m 1.336722,0 h 1.002542 v 1.028332 h -1.002542 z m -12.030513,1.37111 h 1.002543 v 1.028332 h -1.002543 z m 1.336724,0 h 1.002542 v 1.028332 h -1.002542 z m 1.336724,0 h 1.002542 v 1.028332 h -1.002542 z m 1.336723,0 h 1.002544 v 1.028332 h -1.002544 z m 1.336725,0 h 1.002543 v 1.028332 H -21.0472 Z m 1.336722,0 h 1.002544 v 1.028332 h -1.002544 z m 1.336724,0 h 1.002543 v 1.028332 h -1.002543 z m 1.336724,0 h 1.002543 v 1.028332 h -1.002543 z m 1.336725,0 h 1.002542 v 1.028332 h -1.002542 z m 1.336722,0 h 1.002542 v 1.028332 h -1.002542 z m -12.030513,1.37111 h 1.002543 v 1.028333 h -1.002543 z m 1.336724,0 h 1.002542 v 1.028333 h -1.002542 z m 1.336724,0 h 1.002542 v 1.028333 h -1.002542 z m 1.336723,0 h 1.002544 v 1.028333 h -1.002544 z m 1.336725,0 h 1.002543 v 1.028333 H -21.0472 Z m 1.336722,0 h 1.002544 v 1.028333 h -1.002544 z m 1.336724,0 h 1.002543 v 1.028333 h -1.002543 z m 1.336724,0 h 1.002543 v 1.028333 h -1.002543 z m 1.336725,0 h 1.002542 v 1.028333 h -1.002542 z m 1.336722,0 h 1.002542 v 1.028333 h -1.002542 z m 1.336724,0 h 1.002542 v 1.028333 h -1.002542 z m 1.336723,0 h 1.002543 v 1.028333 h -1.002543 z m 1.336723,0 h 1.002545 v 1.028333 h -1.002545 z m 1.3367256,0 h 1.0025433 v 1.028333 h -1.0025433 z m 1.3367239,0 h 1.0025433 v 1.028333 h -1.0025433 z m -18.7141325,1.371112 h 1.002543 v 1.028334 h -1.002543 z m 1.336724,0 h 1.002542 v 1.028334 h -1.002542 z m 1.336724,0 h 1.002542 v 1.028334 h -1.002542 z m 1.336723,0 h 1.002544 v 1.028334 h -1.002544 z m 1.336725,0 h 1.002543 v 1.028334 H -21.0472 Z m 1.336722,0 h 1.002544 v 1.028334 h -1.002544 z m 1.336724,0 h 1.002543 v 1.028334 h -1.002543 z m 1.336724,0 h 1.002543 v 1.028334 h -1.002543 z m 1.336725,0 h 1.002542 v 1.028334 h -1.002542 z m 1.336722,0 h 1.002542 v 1.028334 h -1.002542 z m 1.336724,0 h 1.002542 v 1.028334 h -1.002542 z m 1.336723,0 h 1.002543 v 1.028334 h -1.002543 z m 1.336723,0 h 1.002545 v 1.028334 h -1.002545 z m 1.3367256,0 h 1.0025433 v 1.028334 h -1.0025433 z m 1.3367239,0 h 1.0025433 v 1.028334 h -1.0025433 z m -18.7141325,1.371111 h 1.002543 v 1.028333 h -1.002543 z m 1.336724,0 h 1.002542 v 1.028333 h -1.002542 z m 1.336724,0 h 1.002542 v 1.028333 h -1.002542 z m 1.336723,0 h 1.002544 v 1.028333 h -1.002544 z m 1.336725,0 h 1.002543 v 1.028333 H -21.0472 Z m 1.336722,0 h 1.002544 v 1.028333 h -1.002544 z m 1.336724,0 h 1.002543 v 1.028333 h -1.002543 z m 1.336724,0 h 1.002543 v 1.028333 h -1.002543 z m 1.336725,0 h 1.002542 v 1.028333 h -1.002542 z m 1.336722,0 h 1.002542 v 1.028333 h -1.002542 z m 1.336724,0 h 1.002542 v 1.028333 h -1.002542 z m 1.336723,0 h 1.002543 v 1.028333 h -1.002543 z m 1.336723,0 h 1.002545 v 1.028333 h -1.002545 z m 1.3367256,0 h 1.0025433 v 1.028333 h -1.0025433 z m 1.3367239,0 h 1.0025433 v 1.028333 h -1.0025433 z m -18.7141325,1.37111 h 1.002543 v 1.028334 h -1.002543 z m 1.336724,0 h 1.002542 v 1.028334 h -1.002542 z m 1.336724,0 h 1.002542 v 1.028334 h -1.002542 z m 1.336723,0 h 1.002544 v 1.028334 h -1.002544 z m 1.336725,0 h 1.002543 v 1.028334 H -21.0472 Z m 1.336722,0 h 1.002544 v 1.028334 h -1.002544 z m 1.336724,0 h 1.002543 v 1.028334 h -1.002543 z m 1.336724,0 h 1.002543 v 1.028334 h -1.002543 z m 1.336725,0 h 1.002542 v 1.028334 h -1.002542 z m 1.336722,0 h 1.002542 v 1.028334 h -1.002542 z m 1.336724,0 h 1.002542 v 1.028334 h -1.002542 z m 1.336723,0 h 1.002543 v 1.028334 h -1.002543 z m 1.336723,0 h 1.002545 v 1.028334 h -1.002545 z m 1.3367256,0 h 1.0025433 v 1.028334 h -1.0025433 z m 1.3367239,0 h 1.0025433 v 1.028334 h -1.0025433 z m -18.7141325,1.37111 h 1.002543 v 1.028334 h -1.002543 z m 1.336724,0 h 1.002542 v 1.028334 h -1.002542 z m 1.336724,0 h 1.002542 v 1.028334 h -1.002542 z m 1.336723,0 h 1.002544 v 1.028334 h -1.002544 z m 1.336725,0 h 1.002543 v 1.028334 H -21.0472 Z m 1.336722,0 h 1.002544 v 1.028334 h -1.002544 z m 1.336724,0 h 1.002543 v 1.028334 h -1.002543 z m 1.336724,0 h 1.002543 v 1.028334 h -1.002543 z m 1.336725,0 h 1.002542 v 1.028334 h -1.002542 z m 1.336722,0 h 1.002542 v 1.028334 h -1.002542 z m 1.336724,0 h 1.002542 v 1.028334 h -1.002542 z m 1.336723,0 h 1.002543 v 1.028334 h -1.002543 z m 1.336723,0 h 1.002545 v 1.028334 h -1.002545 z m 1.3367256,0 h 1.0025433 v 1.028334 h -1.0025433 z m 1.3367239,0 h 1.0025433 v 1.028334 h -1.0025433 z m -18.7141325,1.371111 h 1.002543 v 1.028334 h -1.002543 z m 1.336724,0 h 1.002542 v 1.028334 h -1.002542 z m 1.336724,0 h 1.002542 v 1.028334 h -1.002542 z m 1.336723,0 h 1.002544 v 1.028334 h -1.002544 z m 1.336725,0 h 1.002543 v 1.028334 H -21.0472 Z m 1.336722,0 h 1.002544 v 1.028334 h -1.002544 z m 1.336724,0 h 1.002543 v 1.028334 h -1.002543 z m 1.336724,0 h 1.002543 v 1.028334 h -1.002543 z m 1.336725,0 h 1.002542 v 1.028334 h -1.002542 z m 1.336722,0 h 1.002542 v 1.028334 h -1.002542 z m 1.336724,0 h 1.002542 v 1.028334 h -1.002542 z m 1.336723,0 h 1.002543 v 1.028334 h -1.002543 z m 1.336723,0 h 1.002545 v 1.028334 h -1.002545 z m 1.3367256,0 h 1.0025433 v 1.028334 h -1.0025433 z m 1.3367239,0 h 1.0025433 v 1.028334 h -1.0025433 z m -18.7141325,1.371111 h 1.002543 v 1.028334 h -1.002543 z m 1.336724,0 h 1.002542 v 1.028334 h -1.002542 z m 1.336724,0 h 1.002542 v 1.028334 h -1.002542 z m 1.336723,0 h 1.002544 v 1.028334 h -1.002544 z m 1.336725,0 h 1.002543 v 1.028334 H -21.0472 Z m 1.336722,0 h 1.002544 v 1.028334 h -1.002544 z m 1.336724,0 h 1.002543 v 1.028334 h -1.002543 z m 1.336724,0 h 1.002543 v 1.028334 h -1.002543 z m 1.336725,0 h 1.002542 v 1.028334 h -1.002542 z m 1.336722,0 h 1.002542 v 1.028334 h -1.002542 z m 1.336724,0 h 1.002542 v 1.028334 h -1.002542 z m 1.336723,0 h 1.002543 v 1.028334 h -1.002543 z m 1.336723,0 h 1.002545 v 1.028334 h -1.002545 z m 1.3367256,0 h 1.0025433 v 1.028334 h -1.0025433 z m 1.3367239,0 h 1.0025433 v 1.028334 h -1.0025433 z m -18.7141325,1.371111 h 1.002543 v 1.028334 h -1.002543 z m 1.336724,0 h 1.002542 v 1.028334 h -1.002542 z m 1.336724,0 h 1.002542 v 1.028334 h -1.002542 z m 1.336723,0 h 1.002544 v 1.028334 h -1.002544 z m 1.336725,0 h 1.002543 v 1.028334 H -21.0472 Z m 1.336722,0 h 1.002544 v 1.028334 h -1.002544 z m 1.336724,0 h 1.002543 v 1.028334 h -1.002543 z m 1.336724,0 h 1.002543 v 1.028334 h -1.002543 z m 1.336725,0 h 1.002542 v 1.028334 h -1.002542 z m 1.336722,0 h 1.002542 v 1.028334 h -1.002542 z m 1.336724,0 h 1.002542 v 1.028334 h -1.002542 z m 1.336723,0 h 1.002543 v 1.028334 h -1.002543 z m 1.336723,0 h 1.002545 v 1.028334 h -1.002545 z m 1.3367256,0 h 1.0025433 v 1.028334 h -1.0025433 z m 1.3367239,0 h 1.0025433 v 1.028334 h -1.0025433 z m -18.7141325,1.3711187 h 1.002543 v 1.0283359 h -1.002543 z m 1.336724,0 h 1.002542 v 1.0283359 h -1.002542 z m 1.336724,0 h 1.002542 v 1.0283359 h -1.002542 z m 1.336723,0 h 1.002544 v 1.0283359 h -1.002544 z m 1.336725,0 h 1.002543 v 1.0283359 H -21.0472 Z m 1.336722,0 h 1.002544 v 1.0283359 h -1.002544 z m 1.336724,0 h 1.002543 v 1.0283359 h -1.002543 z m 1.336724,0 h 1.002543 v 1.0283359 h -1.002543 z m 1.336725,0 h 1.002542 v 1.0283359 h -1.002542 z m 1.336722,0 h 1.002542 v 1.0283359 h -1.002542 z m 1.336723,0 h 1.002543 v 1.0283359 h -1.002543 z m 1.336724,0 h 1.002543 v 1.0283359 h -1.002543 z m 1.336723,0 h 1.002545 v 1.0283359 h -1.002545 z m 1.3367256,0 h 1.0025433 v 1.0283359 h -1.0025433 z m 1.3367239,0 h 1.0025433 v 1.0283359 h -1.0025433 z m -18.7141325,1.3711132 h 1.002543 v 1.0283337 h -1.002543 z m 1.336724,0 h 1.002542 v 1.0283337 h -1.002542 z m 1.336724,0 h 1.002542 v 1.0283337 h -1.002542 z m 1.336723,0 h 1.002544 v 1.0283337 h -1.002544 z m 1.336725,0 h 1.002543 v 1.0283337 H -21.0472 Z m 1.336722,0 h 1.002544 v 1.0283337 h -1.002544 z m 1.336724,0 h 1.002543 v 1.0283337 h -1.002543 z m 1.336724,0 h 1.002543 v 1.0283337 h -1.002543 z m 1.336725,0 h 1.002542 v 1.0283337 h -1.002542 z m 1.336722,0 h 1.002542 v 1.0283337 h -1.002542 z m 1.336723,0 h 1.002543 v 1.0283337 h -1.002543 z m 1.336724,0 h 1.002543 v 1.0283337 h -1.002543 z m 1.336723,0 h 1.002545 v 1.0283337 h -1.002545 z m 1.3367256,0 h 1.0025433 v 1.0283337 h -1.0025433 z m 1.3367239,0 h 1.0025433 v 1.0283337 h -1.0025433 z m -18.7141325,1.371111 h 1.002543 v 1.0283322 h -1.002543 z m 1.336724,0 h 1.002542 v 1.0283322 h -1.002542 z m 1.336724,0 h 1.002542 v 1.0283322 h -1.002542 z m 1.336723,0 h 1.002544 v 1.0283322 h -1.002544 z m 1.336725,0 h 1.002543 v 1.0283322 H -21.0472 Z m 1.336722,0 h 1.002544 v 1.0283322 h -1.002544 z m 1.336724,0 h 1.002543 v 1.0283322 h -1.002543 z m 1.336724,0 h 1.002543 v 1.0283322 h -1.002543 z m 1.336725,0 h 1.002542 v 1.0283322 h -1.002542 z m 1.336722,0 h 1.002542 v 1.0283322 h -1.002542 z m 1.336723,0 h 1.002543 v 1.0283322 h -1.002543 z m 1.336724,0 h 1.002543 v 1.0283322 h -1.002543 z m 1.336723,0 h 1.002545 v 1.0283322 h -1.002545 z m 1.3367256,0 h 1.0025433 v 1.0283322 h -1.0025433 z m 1.3367239,0 h 1.0025433 v 1.0283322 h -1.0025433 z m -18.7141325,1.371111 h 1.002543 v 1.0283322 h -1.002543 z m 1.336724,0 h 1.002542 v 1.0283322 h -1.002542 z m 1.336724,0 h 1.002542 v 1.0283322 h -1.002542 z m 1.336723,0 h 1.002544 v 1.0283322 h -1.002544 z m 1.336725,0 h 1.002543 v 1.0283322 H -21.0472 Z m 1.336722,0 h 1.002544 v 1.0283322 h -1.002544 z m 1.336724,0 h 1.002543 v 1.0283322 h -1.002543 z m 1.336724,0 h 1.002543 v 1.0283322 h -1.002543 z m 1.336725,0 h 1.002542 v 1.0283322 h -1.002542 z m 1.336722,0 h 1.002542 v 1.0283322 h -1.002542 z m 1.336723,0 h 1.002543 v 1.0283322 h -1.002543 z m 1.336724,0 h 1.002543 v 1.0283322 h -1.002543 z m 1.336723,0 h 1.002545 v 1.0283322 h -1.002545 z m 1.3367256,0 h 1.0025433 v 1.0283322 h -1.0025433 z m 1.3367239,0 h 1.0025433 v 1.0283322 h -1.0025433 z m -18.7141325,1.3711109 h 1.002543 v 1.0283322 h -1.002543 z m 1.336724,0 h 1.002542 v 1.0283322 h -1.002542 z m 1.336724,0 h 1.002542 v 1.0283322 h -1.002542 z m 1.336723,0 h 1.002544 v 1.0283322 h -1.002544 z m 1.336725,0 h 1.002543 V -3.358524 H -21.0472 Z m 1.336722,0 h 1.002544 v 1.0283322 h -1.002544 z m 1.336724,0 h 1.002543 v 1.0283322 h -1.002543 z m 1.336724,0 h 1.002543 v 1.0283322 h -1.002543 z m 1.336725,0 h 1.002542 v 1.0283322 h -1.002542 z m 1.336722,0 h 1.002542 v 1.0283322 h -1.002542 z m 1.336723,0 h 1.002543 v 1.0283322 h -1.002543 z m 1.336724,0 h 1.002543 v 1.0283322 h -1.002543 z m 1.336723,0 h 1.002545 v 1.0283322 h -1.002545 z m 1.3367256,0 h 1.0025433 v 1.0283322 h -1.0025433 z m 1.3367239,0 h 1.0025433 v 1.0283322 h -1.0025433 z" id="rect9275-0" inkscape:connector-curvature="0" inkscape:label="patron" sodipodi:insensitive="true"/>
      <path inkscape:connector-curvature="0" id="path7919-2" style="font-size:53.33333206px;line-height:1000%;font-family:sans-serif;letter-spacing:0px;word-spacing:0px;display:inline;fill:#82aad8;fill-opacity:1;stroke:#82a9e5;stroke-width:0.20307122;stroke-linecap:butt;stroke-linejoin:miter;stroke-miterlimit:4;stroke-dasharray:none;stroke-opacity:0.99481865" d="m -15.469112,-14.126989 q -1.940687,0 -2.689115,0.455251 -0.748424,0.455254 -0.748424,1.553212 0,0.8748 0.556968,1.392535 0.56567,0.508813 1.531662,0.508813 1.3315,0 2.132146,-0.964064 0.809341,-0.972987 0.809341,-2.579758 v -0.365989 z m 3.193862,-0.678414 v 5.7040462 h -1.601284 v -1.5175162 q -0.548264,0.9105128 -1.366312,1.347911 -0.818048,0.4284718 -2.001604,0.4284718 -1.496852,0 -2.38452,-0.8569452 -0.878965,-0.8658796 -0.878965,-2.3119726 0,-1.687107 1.096529,-2.544051 1.105234,-0.856946 3.289594,-0.856946 h 2.245278 v -0.160676 q 0,-1.133665 -0.731021,-1.749595 -0.722319,-0.624857 -2.036416,-0.624857 -0.835451,0 -1.627389,0.205311 -0.791937,0.205309 -1.522961,0.61593 V -18.6438 q 0.878967,-0.348132 1.705717,-0.517735 0.826746,-0.178532 1.609984,-0.178532 2.11474,0 3.159056,1.12474 1.044314,1.124738 1.044314,3.409924 z" inkscape:label="a"/>
      <path style="color:#000000;font-style:normal;font-variant:normal;font-weight:normal;font-stretch:normal;font-size:medium;line-height:normal;font-family:sans-serif;font-variant-ligatures:normal;font-variant-position:normal;font-variant-caps:normal;font-variant-numeric:normal;font-variant-alternates:normal;font-feature-settings:normal;text-indent:0;text-align:start;text-decoration:none;text-decoration-line:none;text-decoration-style:solid;text-decoration-color:#000000;letter-spacing:normal;word-spacing:normal;text-transform:none;writing-mode:lr-tb;direction:ltr;text-orientation:mixed;dominant-baseline:auto;baseline-shift:baseline;text-anchor:start;white-space:normal;shape-padding:0;clip-rule:nonzero;display:inline;overflow:visible;visibility:visible;opacity:1;isolation:auto;mix-blend-mode:normal;color-interpolation:sRGB;color-interpolation-filters:linearRGB;solid-color:#000000;solid-opacity:1;vector-effect:none;fill:#5b84c4;fill-opacity:1;fill-rule:evenodd;stroke:none;stroke-width:0.33845201px;stroke-linecap:butt;stroke-linejoin:miter;stroke-miterlimit:4;stroke-dasharray:none;stroke-dashoffset:0;stroke-opacity:1;color-rendering:auto;image-rendering:auto;shape-rendering:auto;text-rendering:auto;enable-background:accumulate" d="m -19.566882,-22.068705 c -0.02934,0 -0.06069,0.0027 -0.09398,0.0079 -0.03299,0.0054 -0.06782,0.01329 -0.105734,0.02409 v 0.09171 c 0.03757,-0.01285 0.0718,-0.02269 0.103116,-0.02879 0.03131,-0.0061 0.06076,-0.0087 0.08812,-0.0087 0.05011,0 0.08817,0.01059 0.114879,0.03146 0.02704,0.02064 0.04046,0.05014 0.04046,0.08904 0,0.03788 -0.0124,0.06674 -0.0385,0.08703 -0.02604,0.01995 -0.06379,0.03012 -0.112923,0.03012 h -0.09007 v 0.08435 h 0.08616 c 0.0544,0 0.0963,0.01272 0.126629,0.03817 0.03067,0.02503 0.04634,0.05979 0.04634,0.10444 -7e-6,0.04836 -0.01664,0.0851 -0.0496,0.110459 -0.03264,0.02537 -0.08029,0.03817 -0.142944,0.03817 -0.03593,0 -0.07016,-0.0042 -0.103129,-0.01272 -0.03299,-0.0085 -0.06368,-0.0209 -0.09138,-0.03749 v 0.09841 c 0.03496,0.01257 0.06919,0.02204 0.101821,0.0281 0.03295,0.0065 0.06495,0.01001 0.09594,0.01001 0.09232,0 0.163321,-0.02067 0.21343,-0.06159 0.05011,-0.04093 0.07506,-0.09867 0.07506,-0.173399 0,-0.0487 -0.0135,-0.09004 -0.04046,-0.123191 -0.02671,-0.03314 -0.06382,-0.05445 -0.111615,-0.06493 0.04319,-0.01116 0.07645,-0.03149 0.09986,-0.06024 0.02343,-0.02911 0.03525,-0.06452 0.03525,-0.106448 0,-0.06019 -0.02239,-0.1081 -0.06658,-0.143272 -0.04418,-0.03551 -0.104314,-0.05289 -0.180141,-0.05289 z m 0.702299,0.01342 -0.307418,0.480022 v 0.09909 h 0.333529 v 0.178755 h 0.09922 v -0.178755 h 0.105086 v -0.08503 h -0.105086 v -0.494079 z m 0.02611,0.0897 v 0.404367 h -0.252596 z m -2.208719,0.782615 v 1.371112 h 0.334181 v -1.371112 z m 4.01017,0 v 1.371112 h 0.334182 v -1.371112 z m -3.341809,0.685557 v 0.342779 h 2.986743 v -0.342779 z m 9.022885,2.056666 v 0.342778 h 1.6709058 v -0.342778 z m 0.668362,0.646057 v 8.6089505 h 0.33418 v -8.6088975 z m 2.398662,3.807376 c -0.082757,0 -0.1460884,0.03379 -0.1899327,0.10109 -0.043527,0.06697 -0.065278,0.164067 -0.065278,0.291897 0,0.127499 0.02175,0.22527 0.065278,0.292567 0.043844,0.06696 0.1071796,0.100431 0.1899327,0.100431 0.082757,0 0.1457618,-0.03346 0.1892824,-0.100431 0.043844,-0.0673 0.065924,-0.165074 0.065924,-0.292567 0,-0.127838 -0.022095,-0.224935 -0.065924,-0.291897 -0.043527,-0.0673 -0.106532,-0.10109 -0.1892824,-0.10109 z m 0.6109256,0 c -0.029009,0 -0.061008,0.0042 -0.095954,0.01272 -0.034946,0.0085 -0.072688,0.0209 -0.1129096,0.03749 v 0.103777 c 0.039561,-0.02266 0.077,-0.03974 0.1116148,-0.05087 0.034946,-0.01116 0.067895,-0.01673 0.099218,-0.01673 0.044175,0 0.079672,0.01272 0.1070417,0.03816 0.027701,0.02538 0.041778,0.05817 0.041778,0.09841 0,0.02468 -0.00675,0.04996 -0.019587,0.07564 -0.012535,0.02538 -0.034588,0.05619 -0.066572,0.09307 -0.016805,0.01961 -0.057756,0.06324 -0.1233645,0.131215 -0.065278,0.06764 -0.1174277,0.121777 -0.1553447,0.162014 v 0.08637 h 0.4692906 v -0.08637 h -0.3485406 c 0.080443,-0.08421 0.1424946,-0.149487 0.1866736,-0.196158 0.044175,-0.04701 0.070071,-0.07589 0.078322,-0.08569 0.030015,-0.03788 0.0508,-0.07067 0.062012,-0.09841 0.01157,-0.02808 0.017617,-0.05726 0.017617,-0.08836 0,-0.06562 -0.023031,-0.118103 -0.068528,-0.157332 -0.045497,-0.03922 -0.1062565,-0.05892 -0.1827533,-0.05892 z m -1.2897307,0.01413 -0.1768799,0.03616 v 0.09372 l 0.1775342,-0.03682 v 0.577765 h -0.1631769 v 0.08637 h 0.4255566 v -0.08637 h -0.1631742 v -0.670824 z m 0.6788051,0.06696 c 0.051765,0 0.090471,0.02626 0.1161879,0.07833 0.026034,0.05174 0.039161,0.12949 0.039161,0.233652 0,0.103818 -0.013086,0.18224 -0.039161,0.234323 -0.025703,0.05174 -0.064423,0.07765 -0.1161879,0.07765 -0.051434,0 -0.090127,-0.02591 -0.1161742,-0.07765 -0.025731,-0.05208 -0.038514,-0.130509 -0.038514,-0.234323 0,-0.104159 0.01281,-0.181913 0.038514,-0.233652 0.026034,-0.05208 0.064754,-0.07833 0.1161742,-0.07833 z m -3.067024,5.0633461 v 0.3427788 h 1.6709058 v -0.3427788 z m -10.167063,0.8736819 v 1.3711109 h 0.33418 V -7.969194 Z m 9.661875,0 v 1.3711109 h 0.33418 V -7.969194 Z m -8.851877,0.4974289 v 0.3427775 h 8.39303 v -0.3427775 z m 4.338475,1.0055692 c -0.02901,0 -0.061,0.00424 -0.09594,0.012716 -0.03496,0.00848 -0.0727,0.02091 -0.112909,0.037498 v 0.1037623 c 0.03956,-0.022663 0.077,-0.039731 0.111614,-0.050878 0.03495,-0.011162 0.06788,-0.016728 0.09922,-0.016728 0.04418,0 0.08033,0.012716 0.107689,0.038162 0.0277,0.025361 0.04112,0.058168 0.04112,0.098407 0,0.024683 -0.006,0.049946 -0.01892,0.07566 -0.01254,0.025361 -0.03525,0.056204 -0.06724,0.093053 -0.01681,0.019611 -0.05775,0.063919 -0.123351,0.131893 -0.06528,0.067635 -0.116779,0.1210984 -0.15469,0.1613459 v 0.086369 h 0.468636 v -0.086369 h -0.34854 c 0.08045,-0.084209 0.142494,-0.1494918 0.186672,-0.196158 0.04419,-0.047007 0.07073,-0.075222 0.07898,-0.085027 0.03002,-0.037879 0.05079,-0.070687 0.062,-0.098422 0.01156,-0.028074 0.01696,-0.057928 0.01696,-0.08904 -7e-6,-0.0656 -0.02239,-0.1181031 -0.06789,-0.1573276 -0.0455,-0.039236 -0.106918,-0.058917 -0.183408,-0.058917 z m -0.644864,0.013988 -0.176228,0.036155 v 0.093731 l 0.177534,-0.03682 v 0.5777685 h -0.163174 v 0.086369 h 0.424904 v -0.086369 h -0.163172 v -0.6708494 z m 1.111546,0 v 0.3802683 c 0.02772,-0.012857 0.05456,-0.022041 0.08094,-0.028102 0.02671,-0.00608 0.05358,-0.00933 0.08028,-0.00933 0.05704,0 0.101806,0.015429 0.1351,0.046202 0.03328,0.030787 0.05026,0.072439 0.05026,0.1251959 0,0.052757 -0.01698,0.094423 -0.05026,0.1251958 -0.03328,0.030787 -0.07807,0.046202 -0.1351,0.046202 -0.03528,0 -0.06886,-0.00396 -0.100517,-0.012009 -0.03164,-0.00806 -0.06237,-0.02026 -0.09203,-0.03682 v 0.1030979 c 0.03428,0.01088 0.06724,0.018678 0.09922,0.024104 0.03231,0.00536 0.06431,0.00806 0.09531,0.00806 0.09001,0 0.159411,-0.022663 0.208864,-0.06762 0.04945,-0.045311 0.07441,-0.1086367 0.07441,-0.1901362 0,-0.079135 -0.02433,-0.1417972 -0.07244,-0.1881258 -0.04814,-0.046328 -0.113392,-0.069627 -0.195812,-0.069627 -0.0145,0 -0.02858,0.00137 -0.04307,0.00396 -0.01449,0.0024 -0.02923,0.00635 -0.04374,0.011444 v -0.1854498 h 0.300894 v -0.086369 z" id="path7818-3" inkscape:connector-curvature="0" inkscape:label="acotes"/>
    </g>
  </g>
</svg>