<?xml version="1.0" encoding="UTF-8" standalone="no"?>
<!-- Created with Inkscape (http://www.inkscape.org/) -->

<svg
   xmlns:osb="http://www.openswatchbook.org/uri/2009/osb"
   xmlns:dc="http://purl.org/dc/elements/1.1/"
   xmlns:cc="http://creativecommons.org/ns#"
   xmlns:rdf="http://www.w3.org/1999/02/22-rdf-syntax-ns#"
   xmlns:svg="http://www.w3.org/2000/svg"
   xmlns="http://www.w3.org/2000/svg"
   xmlns:xlink="http://www.w3.org/1999/xlink"
   xmlns:sodipodi="http://sodipodi.sourceforge.net/DTD/sodipodi-0.dtd"
   xmlns:inkscape="http://www.inkscape.org/namespaces/inkscape"
   version="1.1"
   width="22"
   height="22"
   id="svg3942"
   sodipodi:docname="input-keyboard.svg"
   inkscape:version="0.92.2 5c3e80d, 2017-08-06">
  <sodipodi:namedview
     pagecolor="#ffffff"
     bordercolor="#666666"
     borderopacity="1"
     objecttolerance="10"
     gridtolerance="10"
     guidetolerance="10"
     inkscape:pageopacity="0"
     inkscape:pageshadow="2"
     inkscape:window-width="640"
     inkscape:window-height="480"
     id="namedview12"
     showgrid="false"
     inkscape:zoom="30.454545"
     inkscape:cx="14.808955"
     inkscape:cy="5.5164179"
     inkscape:current-layer="layer1" />
  <defs
     id="defs3944">
    <linearGradient
       x1="107.94199"
       y1="11.285784"
       x2="107.94199"
       y2="34.752571"
       id="linearGradient3839-1"
       xlink:href="#linearGradient3678-3"
       gradientUnits="userSpaceOnUse"
       gradientTransform="matrix(0.4342346,0,0,0.5947449,-34.566178,-8.7462096)" />
    <linearGradient
       id="linearGradient3678-3">
      <stop
         id="stop3680-5"
         style="stop-color:#ffffff;stop-opacity:1"
         offset="0" />
      <stop
         id="stop3682-5"
         style="stop-color:#e6e6e6;stop-opacity:1"
         offset="1" />
    </linearGradient>
    <linearGradient
       inkscape:collect="always"
       xlink:href="#default_color"
       id="linearGradient846"
       gradientUnits="userSpaceOnUse"
       gradientTransform="translate(67,515.00001)"
       x1="3"
       y1="-436.5"
       x2="15.000001"
       y2="-436.5" />
    <linearGradient
       id="default_color"
       osb:paint="solid">
      <stop
         style="stop-color:#000000;stop-opacity:1;"
         offset="0"
         id="stop823" />
    </linearGradient>
  </defs>
  <metadata
     id="metadata3947">
    <rdf:RDF>
      <cc:Work
         rdf:about="">
        <dc:format>image/svg+xml</dc:format>
        <dc:type
           rdf:resource="http://purl.org/dc/dcmitype/StillImage" />
        <dc:title />
      </cc:Work>
    </rdf:RDF>
  </metadata>
  <g
     transform="translate(0,6)"
     id="layer1"
     style="opacity:0.63999999;vector-effect:none;fill:url(#linearGradient846);fill-opacity:1;stroke:none;stroke-width:0.12990442;stroke-linecap:round;stroke-linejoin:round;stroke-miterlimit:4;stroke-dasharray:none;stroke-dashoffset:0;stroke-opacity:0.96354167;marker:none;marker-start:none;marker-mid:none;marker-end:none;paint-order:normal">
    <path
       d="M 6,-1 C 4.892,-1 4,-0.108 4,1 v 10 c 0,1.108 0.892,2 2,2 h 10 c 1.108,0 2,-0.892 2,-2 V 1 c 0,-1.108 -0.892,-2 -2,-2 z m 0,1 h 10 c 0.554,0 1,0.446 1,1 v 9 c 0,0.554 -0.446,1 -1,1 H 6 C 5.446,11 5,10.554 5,10 V 1 C 5,0.446 5.446,0 6,0 Z m 7,1 -1,2 h 1 l 2,-2 z m -0.34375,2.994125 c -0.790271,5.8e-6 -1.548983,0.256994 -2.28125,0.75 L 10.75,5.59375 c 0.311756,-0.210251 0.616241,-0.359993 0.90625,-0.46875 0.297255,-0.115998 0.57049,-0.156245 0.875,-0.15625 0.449508,5e-6 0.791991,0.104499 1.03125,0.34375 C 13.801752,5.54451 14,5.860744 14,6.28125 v 0.3065 C 13.789741,6.508 13.479753,6.443754 13.21875,6.40025 12.95774,6.3495 12.705754,6.33775 12.4375,6.33775 c -0.355261,3e-6 -0.671495,0.038 -0.96875,0.125 -0.290009,0.087 -0.563746,0.215499 -0.78125,0.375 -0.210256,0.159507 -0.352748,0.344997 -0.46875,0.5625 -0.116003,0.217508 -0.1875,0.550245 -0.1875,0.8185 0,0.253758 0.062,0.501246 0.15625,0.71875 0.101502,0.217506 0.208245,0.402997 0.375,0.5625 0.174003,0.159504 0.392993,0.280748 0.625,0.375 0.239254,0.087 0.505741,0.125 0.78125,0.125 0.427758,0 0.817738,-0.076 1.1875,-0.25 0.377005,-0.181254 0.68374,-0.447741 0.9375,-0.78125 L 14.125,9.3125 c 0.029,0.181255 0.102743,0.328748 0.21875,0.4375 0.123248,0.108753 0.299239,0.173 0.53125,0.1875 0.07975,0 0.186992,0.0073 0.28125,0 0.101497,-0.0073 0.196492,-0.0095 0.3125,-0.03125 V 8.875 C 15.345491,8.8678 15.165567,8.83925 15.114821,8.78125 15.064061,8.72325 15,8.606505 15,8.46875 V 6.337875 C 15,5.591111 14.90376,5.01789 14.46875,4.619125 14.033735,4.220371 13.439265,3.9941308 12.65625,3.994125 Z m -0.09004,3.07023 c 0.217502,3e-6 0.607864,0.05025 0.832623,0.09375 C 13.630834,7.201605 13.796991,7.264 14,7.34375 v 0.75 c -4e-6,0.145005 -0.129,0.306998 -0.28125,0.4375 -0.426996,0.37916 -0.940912,0.429426 -1.4375,0.468753 -0.32626,1e-6 -0.734527,0.01755 -0.94478,-0.170948 C 11.126213,8.633301 10.999999,8.407761 11,8.125003 c -10e-7,-0.304505 0.294242,-0.568743 0.5625,-0.75 0.275505,-0.188502 0.575946,-0.310642 1.00371,-0.310648 z"
       id="rect2989-3"
       style="color:#000000;display:inline;overflow:visible;visibility:visible;opacity:0.10588235;vector-effect:none;fill:url(#linearGradient846);fill-opacity:1;fill-rule:nonzero;stroke:none;stroke-width:0.12990442;stroke-linecap:round;stroke-linejoin:round;stroke-miterlimit:4;stroke-dasharray:none;stroke-dashoffset:0;stroke-opacity:0.96354167;marker:none;marker-start:none;marker-mid:none;marker-end:none;paint-order:normal;enable-background:accumulate"
       inkscape:connector-curvature="0" />
    <path
       d="M 6,-2 C 4.892,-2 4,-1.108 4,0 v 10 c 0,1.108 0.892,2 2,2 h 10 c 1.108,0 2,-0.892 2,-2 V 0 c 0,-1.108 -0.892,-2 -2,-2 z m 0,1 h 10 c 0.554,0 1,0.446 1,1 v 9 c 0,0.554 -0.446,1 -1,1 H 6 C 5.446,10 5,9.554 5,9 V 0 c 0,-0.554 0.446,-1 1,-1 z m 7,1 -1,2 h 1 l 2,-2 z m -0.34375,2.994125 c -0.790271,5.8e-6 -1.548983,0.2569935 -2.28125,0.75 L 10.75,4.59375 c 0.311756,-0.210251 0.616241,-0.359993 0.90625,-0.46875 0.297255,-0.115998 0.57049,-0.1562451 0.875,-0.15625 0.449508,4.9e-6 0.791991,0.104499 1.03125,0.34375 C 13.801752,4.54451 14,4.860744 14,5.28125 v 0.3065 C 13.789741,5.508 13.479753,5.443754 13.21875,5.40025 12.95774,5.3495 12.705754,5.33775 12.4375,5.33775 c -0.355261,3e-6 -0.671495,0.038 -0.96875,0.125 -0.290009,0.087 -0.563746,0.215499 -0.78125,0.375 -0.210256,0.159507 -0.352748,0.344997 -0.46875,0.5625 -0.116003,0.217508 -0.1875,0.550245 -0.1875,0.8185 0,0.253758 0.062,0.501246 0.15625,0.71875 0.101502,0.217506 0.208245,0.402997 0.375,0.5625 0.174003,0.159504 0.392993,0.280748 0.625,0.375 C 11.426754,8.962 11.693241,9 11.96875,9 c 0.427758,0 0.817738,-0.076 1.1875,-0.25 0.377005,-0.181254 0.68374,-0.447741 0.9375,-0.78125 L 14.125,8.3125 c 0.029,0.181255 0.102743,0.328748 0.21875,0.4375 0.123248,0.108753 0.299239,0.173 0.53125,0.1875 0.07975,0 0.186992,0.0073 0.28125,0 0.101497,-0.0073 0.196492,-0.0095 0.3125,-0.03125 V 7.875 C 15.345491,7.8678 15.165567,7.83925 15.114821,7.78125 15.064061,7.72325 15,7.606505 15,7.46875 V 5.337875 C 15,4.591111 14.90376,4.01789 14.46875,3.619125 14.033735,3.2203708 13.439265,2.9941308 12.65625,2.994125 Z m -0.09004,3.07023 c 0.217502,3e-6 0.607864,0.05025 0.832623,0.09375 C 13.630834,6.201605 13.796991,6.264 14,6.34375 v 0.75 c -4e-6,0.145005 -0.129,0.306998 -0.28125,0.4375 -0.426996,0.37916 -0.940912,0.429426 -1.4375,0.468753 -0.32626,1e-6 -0.734527,0.01755 -0.94478,-0.170948 C 11.126213,7.633301 10.999999,7.407761 11,7.125003 c -10e-7,-0.304505 0.294242,-0.568743 0.5625,-0.75 0.275505,-0.188502 0.575946,-0.310642 1.00371,-0.310648 z"
       id="rect2989"
       style="color:#000000;display:inline;overflow:visible;visibility:visible;vector-effect:none;fill:url(#linearGradient846);fill-opacity:1;fill-rule:nonzero;stroke:none;stroke-width:0.12990442;stroke-linecap:round;stroke-linejoin:round;stroke-miterlimit:4;stroke-dasharray:none;stroke-dashoffset:0;stroke-opacity:0.96354167;marker:none;marker-start:none;marker-mid:none;marker-end:none;paint-order:normal;enable-background:accumulate"
       inkscape:connector-curvature="0" />
  </g>
</svg>
