<?xml version="1.0" encoding="UTF-8" standalone="yes"?>
<svg xmlns:dc="http://purl.org/dc/elements/1.1/" xmlns:cc="http://creativecommons.org/ns#" xmlns:rdf="http://www.w3.org/1999/02/22-rdf-syntax-ns#" xmlns:svg="http://www.w3.org/2000/svg" xmlns="http://www.w3.org/2000/svg" xmlns:xlink="http://www.w3.org/1999/xlink" xmlns:sodipodi="http://sodipodi.sourceforge.net/DTD/sodipodi-0.dtd" xmlns:inkscape="http://www.inkscape.org/namespaces/inkscape" height="32" viewBox="0 0 32 32" width="32" id="svg2" version="1.1" inkscape:version="0.92.2 5c3e80d, 2017-08-06" sodipodi:docname="preferences-desktop.svg" enable-background="new" folder="32">
  <title id="title4675">Template icons dark</title>
  <metadata id="metadata24">
    <rdf:RDF>
      <cc:Work rdf:about="">
        <dc:format>image/svg+xml</dc:format>
        <dc:type rdf:resource="http://purl.org/dc/dcmitype/StillImage"/>
        <dc:title>Template icons dark</dc:title>
        <dc:date>17/05/13</dc:date>
        <dc:creator>
          <cc:Agent>
            <dc:title>wfpaisa</dc:title>
          </cc:Agent>
        </dc:creator>
        <dc:rights>
          <cc:Agent>
            <dc:title>License: GPLv3</dc:title>
          </cc:Agent>
        </dc:rights>
        <dc:language>es-en</dc:language>
        <dc:subject>
          <rdf:Bag>
            <rdf:li>plane-icon-theme</rdf:li>
          </rdf:Bag>
        </dc:subject>
        <dc:description>Template for create set icons</dc:description>
        <cc:license rdf:resource="https://www.gnu.org/licenses/gpl-3.0.en.html"/>
      </cc:Work>
    </rdf:RDF>
  </metadata>
  <defs id="defs22">
    <linearGradient inkscape:collect="always" id="linearGradient1388">
      <stop style="stop-color:#cfdde2;stop-opacity:1" offset="0" id="stop1384"/>
      <stop style="stop-color:#90a1b1;stop-opacity:1" offset="1" id="stop1386"/>
    </linearGradient>
    <linearGradient inkscape:collect="always" id="linearGradient1374">
      <stop style="stop-color:#ffffff;stop-opacity:0" offset="0" id="stop1370"/>
      <stop id="stop1378" offset="0.48049781" style="stop-color:#ffffff;stop-opacity:1"/>
      <stop style="stop-color:#f5f6f6;stop-opacity:0" offset="1" id="stop1372"/>
    </linearGradient>
    <linearGradient inkscape:collect="always" id="linearGradient1319">
      <stop style="stop-color:#eaf2f7;stop-opacity:1" offset="0" id="stop1315"/>
      <stop style="stop-color:#99b4c0;stop-opacity:1" offset="1" id="stop1317"/>
    </linearGradient>
    <linearGradient id="linearGradient1199" inkscape:collect="always">
      <stop id="stop1195" offset="0" style="stop-color:#c1dae3;stop-opacity:1"/>
      <stop id="stop1197" offset="1" style="stop-color:#8a98b4;stop-opacity:1"/>
    </linearGradient>
    <linearGradient inkscape:collect="always" id="linearGradient7891">
      <stop style="stop-color:#d2d2d2;stop-opacity:1" offset="0" id="stop7887"/>
      <stop style="stop-color:#939393;stop-opacity:1" offset="1" id="stop7889"/>
    </linearGradient>
    <linearGradient inkscape:collect="always" id="linearGradient7758">
      <stop style="stop-color:#671e1e;stop-opacity:1" offset="0" id="stop7754"/>
      <stop style="stop-color:#d04044;stop-opacity:1" offset="1" id="stop7756"/>
    </linearGradient>
    <linearGradient inkscape:collect="always" xlink:href="#linearGradient5419" id="linearGradient5425" x1="10.429825" y1="43.068272" x2="38.890873" y2="13.193013" gradientUnits="userSpaceOnUse" gradientTransform="matrix(0.9649266,0,0,0.9649266,-2.12316,-5.210928)"/>
    <linearGradient id="linearGradient5419">
      <stop style="stop-color:#0c708e;stop-opacity:1;" offset="0" id="stop5421"/>
      <stop style="stop-color:#4dc3a3;stop-opacity:1;" offset="1" id="stop5423"/>
    </linearGradient>
    <linearGradient inkscape:collect="always" xlink:href="#linearGradient1388" id="linearGradient7893" x1="161.70172" y1="118.89846" x2="161.70172" y2="197.93216" gradientUnits="userSpaceOnUse"/>
    <linearGradient inkscape:collect="always" xlink:href="#linearGradient7758" id="linearGradient7760-3" x1="162.58794" y1="185.95032" x2="162.58794" y2="134.43561" gradientUnits="userSpaceOnUse" gradientTransform="matrix(0.93996715,0,0,0.93996715,-124.0425,-124.16093)"/>
    <linearGradient inkscape:collect="always" xlink:href="#linearGradient7758" id="linearGradient1166" gradientUnits="userSpaceOnUse" gradientTransform="matrix(0.93996715,0,0,0.93996715,9.6851028,9.9555173)" x1="162.58794" y1="185.95032" x2="162.58794" y2="134.43561"/>
    <linearGradient gradientTransform="translate(-115,-115.12599)" inkscape:collect="always" xlink:href="#linearGradient7891" id="linearGradient7893-5" x1="161.70172" y1="118.89846" x2="161.70172" y2="197.93216" gradientUnits="userSpaceOnUse"/>
    <linearGradient inkscape:collect="always" xlink:href="#linearGradient1319" id="linearGradient1321" x1="168.35246" y1="125.66496" x2="168.35246" y2="190.8166" gradientUnits="userSpaceOnUse"/>
    <linearGradient inkscape:collect="always" xlink:href="#linearGradient5419" id="linearGradient5425-62" x1="10.429825" y1="43.068272" x2="38.890873" y2="13.193013" gradientUnits="userSpaceOnUse" gradientTransform="matrix(0.9649266,0,0,0.9649266,-135.77092,-138.98468)"/>
    <linearGradient inkscape:collect="always" xlink:href="#linearGradient1199" id="linearGradient1348" gradientUnits="userSpaceOnUse" x1="161.70172" y1="118.89846" x2="161.70172" y2="197.93216"/>
    <linearGradient inkscape:collect="always" xlink:href="#linearGradient1374" id="linearGradient1376" x1="146.80354" y1="139.47923" x2="174.4657" y2="139.47923" gradientUnits="userSpaceOnUse" gradientTransform="matrix(0.43047969,0,0,0.70272293,90.79219,41.511806)"/>
    <linearGradient inkscape:collect="always" xlink:href="#linearGradient1374" id="linearGradient1376-7" x1="146.80354" y1="139.47923" x2="174.4657" y2="139.47923" gradientUnits="userSpaceOnUse" gradientTransform="matrix(0.29664256,0,0,0.48424473,32.30908,-1.6499335)"/>
    <linearGradient inkscape:collect="always" xlink:href="#linearGradient5419" id="linearGradient5425-9" x1="10.429825" y1="43.068272" x2="38.890873" y2="13.193013" gradientUnits="userSpaceOnUse" gradientTransform="matrix(0.66492867,0,0,0.66492867,-31.718672,-33.846462)"/>
    <linearGradient gradientTransform="matrix(0.68909768,0,0,0.68909768,-30.255607,-30.255622)" inkscape:collect="always" xlink:href="#linearGradient1319" id="linearGradient1321-8" x1="168.35246" y1="125.66496" x2="168.35246" y2="190.8166" gradientUnits="userSpaceOnUse"/>
    <linearGradient gradientTransform="matrix(0.68909768,0,0,0.68909768,-30.255607,-30.255622)" inkscape:collect="always" xlink:href="#linearGradient1388" id="linearGradient7893-361" x1="161.70172" y1="118.89846" x2="161.70172" y2="197.93216" gradientUnits="userSpaceOnUse"/>
    <linearGradient inkscape:collect="always" xlink:href="#linearGradient1388" id="linearGradient1506" gradientUnits="userSpaceOnUse" x1="161.70172" y1="118.89846" x2="161.70172" y2="197.93216"/>
    <linearGradient inkscape:collect="always" xlink:href="#linearGradient7758" id="linearGradient1508" gradientUnits="userSpaceOnUse" gradientTransform="matrix(0.93996715,0,0,0.93996715,9.6851028,9.9555173)" x1="162.58794" y1="185.95032" x2="162.58794" y2="134.43561"/>
    <linearGradient inkscape:collect="always" xlink:href="#linearGradient1388" id="linearGradient1523" gradientUnits="userSpaceOnUse" x1="161.70172" y1="118.89846" x2="161.70172" y2="197.93216"/>
    <linearGradient inkscape:collect="always" xlink:href="#linearGradient1374" id="linearGradient1376-3" x1="146.80354" y1="139.47923" x2="174.4657" y2="139.47923" gradientUnits="userSpaceOnUse" gradientTransform="matrix(0.55545785,0,0,0.90673956,182.4407,119.57893)"/>
    <linearGradient inkscape:collect="always" xlink:href="#linearGradient5419" id="linearGradient5425-7" x1="10.429825" y1="43.068272" x2="38.890873" y2="13.193013" gradientUnits="userSpaceOnUse" gradientTransform="matrix(1.245067,0,0,1.245067,62.54989,59.291519)"/>
    <linearGradient gradientTransform="matrix(1.290323,0,0,1.290323,65.289452,66.015302)" inkscape:collect="always" xlink:href="#linearGradient1319" id="linearGradient1321-6" x1="168.35246" y1="125.66496" x2="168.35246" y2="190.8166" gradientUnits="userSpaceOnUse"/>
    <linearGradient gradientTransform="matrix(1.290323,0,0,1.290323,65.289452,66.015302)" inkscape:collect="always" xlink:href="#linearGradient1388" id="linearGradient1523-7" gradientUnits="userSpaceOnUse" x1="161.70172" y1="118.89846" x2="161.70172" y2="197.93216"/>
    <linearGradient inkscape:collect="always" xlink:href="#linearGradient1374" id="linearGradient1376-1" x1="146.80354" y1="139.47923" x2="174.4657" y2="139.47923" gradientUnits="userSpaceOnUse" gradientTransform="matrix(0.22218314,0,0,0.36269582,-11.720143,-37.155215)"/>
    <linearGradient inkscape:collect="always" xlink:href="#linearGradient5419" id="linearGradient5425-2" x1="10.429825" y1="43.068272" x2="38.890873" y2="13.193013" gradientUnits="userSpaceOnUse" gradientTransform="matrix(0.49802679,0,0,0.49802679,-59.67647,-61.270184)"/>
    <linearGradient gradientTransform="matrix(0.5161292,0,0,0.5161292,-58.580645,-58.580671)" inkscape:collect="always" xlink:href="#linearGradient1319" id="linearGradient1321-4" x1="168.35246" y1="125.66496" x2="168.35246" y2="190.8166" gradientUnits="userSpaceOnUse"/>
    <linearGradient gradientTransform="matrix(0.5161292,0,0,0.5161292,-58.580645,-58.580671)" inkscape:collect="always" xlink:href="#linearGradient1388" id="linearGradient1523-0" gradientUnits="userSpaceOnUse" x1="161.70172" y1="118.89846" x2="161.70172" y2="197.93216"/>
    <linearGradient inkscape:collect="always" xlink:href="#linearGradient1374" id="linearGradient1376-9" x1="146.80354" y1="139.47923" x2="174.4657" y2="139.47923" gradientUnits="userSpaceOnUse" gradientTransform="matrix(0.14812209,0,0,0.24179721,-39.813426,-56.770143)"/>
    <linearGradient inkscape:collect="always" xlink:href="#linearGradient5419" id="linearGradient5425-6" x1="10.429825" y1="43.068272" x2="38.890873" y2="13.193013" gradientUnits="userSpaceOnUse" gradientTransform="matrix(0.33201786,0,0,0.33201786,-71.78431,-72.846786)"/>
    <linearGradient gradientTransform="matrix(0.34408613,0,0,0.34408613,-71.05376,-71.053778)" inkscape:collect="always" xlink:href="#linearGradient1319" id="linearGradient1321-65" x1="168.35246" y1="125.66496" x2="168.35246" y2="190.8166" gradientUnits="userSpaceOnUse"/>
    <linearGradient gradientTransform="matrix(0.34408613,0,0,0.34408613,-71.05376,-71.053778)" inkscape:collect="always" xlink:href="#linearGradient1388" id="linearGradient1523-9" gradientUnits="userSpaceOnUse" x1="161.70172" y1="118.89846" x2="161.70172" y2="197.93216"/>
    <linearGradient inkscape:collect="always" xlink:href="#linearGradient5419" id="linearGradient5425-0" x1="10.429825" y1="43.068272" x2="38.890873" y2="13.193013" gradientUnits="userSpaceOnUse" gradientTransform="matrix(0.2490134,0,0,0.2490134,-85.838233,-86.635097)"/>
    <linearGradient gradientTransform="matrix(0.2580646,0,0,0.2580646,-85.290321,-85.290341)" inkscape:collect="always" xlink:href="#linearGradient1319" id="linearGradient1321-44" x1="168.35246" y1="125.66496" x2="168.35246" y2="190.8166" gradientUnits="userSpaceOnUse"/>
    <linearGradient gradientTransform="matrix(0.2580646,0,0,0.2580646,-85.290321,-85.290341)" inkscape:collect="always" xlink:href="#linearGradient1388" id="linearGradient1523-3" gradientUnits="userSpaceOnUse" x1="161.70172" y1="118.89846" x2="161.70172" y2="197.93216"/>
    <linearGradient inkscape:collect="always" xlink:href="#linearGradient5419" id="linearGradient5425-3" x1="10.429825" y1="43.068272" x2="38.890873" y2="13.193013" gradientUnits="userSpaceOnUse" gradientTransform="matrix(0.16600893,0,0,0.16600893,-91.892129,-92.42343)"/>
    <linearGradient gradientTransform="matrix(0.17204307,0,0,0.17204307,-91.526854,-91.526926)" inkscape:collect="always" xlink:href="#linearGradient1388" id="linearGradient1523-8" gradientUnits="userSpaceOnUse" x1="161.70172" y1="118.89846" x2="161.70172" y2="197.93216"/>
  </defs>
  <sodipodi:namedview pagecolor="#383c4a" bordercolor="#ffffff" borderopacity="0.62745098" objecttolerance="4" gridtolerance="10" guidetolerance="4" inkscape:pageopacity="0" inkscape:pageshadow="2" inkscape:window-width="640" inkscape:window-height="480" id="namedview20" showgrid="true" inkscape:zoom="2.0853184" inkscape:cx="213.96524" inkscape:cy="-120.9237" inkscape:current-layer="layer6" inkscape:snap-smooth-nodes="false" showguides="true" borderlayer="true" inkscape:showpageshadow="false" inkscape:guide-bbox="true" guidecolor="#bd4fff" guideopacity="0.78431373" inkscape:snap-nodes="true" inkscape:lockguides="false" fit-margin-top="0" fit-margin-left="0" fit-margin-right="0" fit-margin-bottom="0" guidehicolor="#ff0101" guidehiopacity="0.78431373" inkscape:snap-page="true" inkscape:object-nodes="true" inkscape:snap-bbox="true" inkscape:snap-global="true" inkscape:snap-object-midpoints="false" inkscape:snap-bbox-edge-midpoints="false">
    <inkscape:grid type="xygrid" id="grid4171" empspacing="4" dotted="false" originx="2.7755576e-17" originy="0" spacingx="1" spacingy="1" color="#5a5a5a" opacity="0.23529412" empcolor="#5a5a5a" empopacity="0.47058824" visible="true"/>
    <inkscape:grid type="axonomgrid" id="grid4699" units="mm" empspacing="4" color="#5a5a5a" opacity="0.23529412" empcolor="#5a5a5a" empopacity="0.47058824" gridanglex="45" gridanglez="45" spacingy="3.7795276" visible="false" originx="1.3228346" originy="1.3228346"/>
    <sodipodi:guide position="48,0" orientation="1,0" id="guide4568" inkscape:locked="false" inkscape:label="" inkscape:color="rgb(189,79,255)"/>
    <sodipodi:guide position="111.99996,-3.9999999e-05" orientation="0,1" id="guide4570" inkscape:locked="false" inkscape:label="" inkscape:color="rgb(189,79,255)"/>
    <sodipodi:guide position="0,0" orientation="1,0" id="guide4572" inkscape:locked="false" inkscape:label="" inkscape:color="rgb(189,79,255)"/>
    <sodipodi:guide position="0,48" orientation="0,1" id="guide4574" inkscape:locked="false" inkscape:label="" inkscape:color="rgb(189,79,255)"/>
    <sodipodi:guide position="0,80" orientation="0,1" id="guide4576" inkscape:locked="false" inkscape:label="" inkscape:color="rgb(189,79,255)"/>
    <sodipodi:guide position="-32,48" orientation="1,0" id="guide4578" inkscape:locked="false" inkscape:label="" inkscape:color="rgb(189,79,255)"/>
    <sodipodi:guide position="-32,104" orientation="0,1" id="guide4580" inkscape:locked="false" inkscape:label="" inkscape:color="rgb(189,79,255)"/>
    <sodipodi:guide position="-56,80" orientation="1,0" id="guide4582" inkscape:locked="false" inkscape:label="" inkscape:color="rgb(189,79,255)"/>
    <sodipodi:guide position="48,-64" orientation="0,1" id="guide4584" inkscape:locked="false" inkscape:label="" inkscape:color="rgb(189,79,255)"/>
    <sodipodi:guide position="0,0" orientation="-0.70710678,0.70710678" id="guide4588" inkscape:locked="false" inkscape:label="" inkscape:color="rgb(189,79,255)"/>
    <sodipodi:guide position="-56,80" orientation="-0.70710678,0.70710678" id="guide4573" inkscape:locked="false" inkscape:label="" inkscape:color="rgb(189,79,255)"/>
    <sodipodi:guide position="-32,48" orientation="-0.70710678,0.70710678" id="guide4575" inkscape:locked="false" inkscape:label="" inkscape:color="rgb(189,79,255)"/>
    <sodipodi:guide position="48,-64" orientation="-0.70710678,0.70710678" id="guide4577" inkscape:locked="false" inkscape:label="" inkscape:color="rgb(189,79,255)"/>
    <sodipodi:guide position="47.999962,0" orientation="0.70710678,0.70710678" id="guide4697" inkscape:locked="false" inkscape:label="" inkscape:color="rgb(189,79,255)"/>
    <sodipodi:guide position="207.99995,-288" orientation="0,1" id="guide7833" inkscape:locked="false"/>
    <sodipodi:guide position="335.99994,-288" orientation="1,0" id="guide7835" inkscape:locked="false" inkscape:label="" inkscape:color="rgb(189,79,255)"/>
    <sodipodi:guide position="111.99996,-64" orientation="1,0" id="guide7915" inkscape:locked="false"/>
    <sodipodi:guide position="111.99996,-160" orientation="0,1" id="guide7917" inkscape:locked="false"/>
    <sodipodi:guide position="207.99996,-160" orientation="1,0" id="guide7919" inkscape:locked="false"/>
    <sodipodi:guide position="111.99996,-160" orientation="-0.70710678,0.70710678" id="guide7921" inkscape:locked="false" inkscape:label="" inkscape:color="rgb(189,79,255)"/>
    <sodipodi:guide position="207.99996,-288" orientation="-0.70710678,0.70710678" id="guide7923" inkscape:locked="false" inkscape:label="" inkscape:color="rgb(189,79,255)"/>
    <sodipodi:guide position="-72,104" orientation="1,0" id="guide7824" inkscape:locked="false"/>
    <sodipodi:guide position="-56,120" orientation="0,1" id="guide7826" inkscape:locked="false"/>
    <sodipodi:guide position="-72,104" orientation="-0.70710678,0.70710678" id="guide7828" inkscape:locked="false" inkscape:label="" inkscape:color="rgb(189,79,255)"/>
  </sodipodi:namedview>
  <g style="display:inline" inkscape:label="icon_32" id="g7816" inkscape:groupmode="layer" transform="translate(32,32)">
    <g style="display:none" inkscape:label="frame" id="g7802" inkscape:groupmode="layer">
      <rect style="color:#000000;clip-rule:nonzero;display:block;overflow:visible;visibility:visible;opacity:1;isolation:auto;mix-blend-mode:normal;color-interpolation:sRGB;color-interpolation-filters:linearRGB;solid-color:#000000;solid-opacity:1;vector-effect:none;fill:#000000;fill-opacity:1;fill-rule:nonzero;stroke:#ff24f7;stroke-width:0;stroke-linecap:square;stroke-linejoin:miter;stroke-miterlimit:4;stroke-dasharray:none;stroke-dashoffset:0;stroke-opacity:0.99481865;marker:none;marker-start:none;marker-mid:none;marker-end:none;paint-order:normal;color-rendering:auto;image-rendering:auto;shape-rendering:auto;text-rendering:auto;enable-background:accumulate" id="rect7792" width="32" height="32" x="-32" y="-32" inkscape:label="frame_32"/>
      <text inkscape:label="txt_32" id="text7796" y="-11.470053" x="-23.799042" style="font-size:12.4444437px;line-height:1000%;font-family:sans-serif;letter-spacing:0px;word-spacing:0px;display:inline;opacity:1;fill:#ffffff;fill-opacity:1;stroke:none;stroke-width:0.07444605px;stroke-linecap:butt;stroke-linejoin:miter;stroke-opacity:1" xml:space="preserve">
        <tspan id="tspan7794" style="font-size:12.4444437px;fill:#ffffff;fill-opacity:1;stroke:none;stroke-width:0.07444605px" y="-11.470053" x="-23.799042" sodipodi:role="line">32</tspan>
      </text>
    </g>
    <g style="display:inline" inkscape:label="icon" id="g7814" inkscape:groupmode="layer">
      <path inkscape:label="base sombra" sodipodi:nodetypes="cccccccccccssccccccccccsscccccsccccssccccccccccscccscsc" inkscape:connector-curvature="0" id="path1242-1" d="m -17.898797,-31.483871 c -0.26282,0 -0.409607,0.20788 -0.475045,0.448496 l -1.008458,3.710036 c -0.688534,0.245661 -1.593026,0.588856 -2.202736,0.907944 l -3.338541,-1.921363 c -0.2161,-0.124401 -0.467014,-0.167254 -0.652852,0.01858 l -2.714887,2.714857 c -0.185834,0.185824 -0.142449,0.433765 -0.01855,0.650182 l 1.876271,3.280125 c -0.404119,0.724683 -0.731434,1.48959 -0.97662,2.282282 l -3.625153,0.976606 c -0.240778,0.06482 -0.448503,0.212229 -0.448503,0.475031 v 3.840084 c 0,0.262799 0.20788,0.406937 0.448503,0.472379 l 3.545542,0.965987 c 0.237691,0.835641 0.566067,1.642777 0.979269,2.407013 l -1.828504,3.1792772 c -0.124408,0.2160896 -0.167257,0.4670041 0.01858,0.6528381 l 2.714885,2.7148568 c 0.18583,0.1858375 0.433779,0.1424551 0.650192,0.018546 l 3.136851,-1.7966285 c 0.779038,0.4332939 1.604243,0.7777895 2.460119,1.0270283 l 0.942111,3.49509615 c 0.06482,0.24077772 0.212226,0.44848875 0.475035,0.44848875 h 3.840122 c 0.26281,0 0.406947,-0.20787619 0.472386,-0.44848875 l 0.952729,-3.49773185 c 0.844701,-0.2497687 1.659105,-0.5924406 2.428271,-1.0217225 l 3.1713529,1.8231679 c 0.2160998,0.1244112 0.4670143,0.1672568 0.6528517,-0.018581 l 2.7148878,-2.7148567 c 0.185834,-0.1858272 0.1424482,-0.4364286 0.018581,-0.6528415 l -1.8391266,-3.2084654 c 0.3996113,-0.748577 0.7181147,-1.537697 0.9500838,-2.353938 l 3.61453533,-0.976599 c 0.24077772,-0.06482 0.44849563,-0.209576 0.44849563,-0.472389 v -3.840073 c 0,-0.26281 -0.20787963,-0.409594 -0.44849563,-0.475035 l -3.67557623,-0.99784 c -0.2362014,-0.771093 -0.5500836,-1.516212 -0.9368089,-2.223897 l 1.916078,-3.327895 c 0.1244044,-0.216093 0.1672637,-0.467007 -0.018546,-0.652838 l -2.7148843,-2.714857 c -0.1858375,-0.18584 -0.4364286,-0.142455 -0.652845,-0.01862 l -3.3358875,1.910755 c -0.73546,-0.301939 -1.505184,-0.67468 -2.192062,-0.897101 l -1.011111,-3.739229 c -0.06482,-0.240777 -0.209583,-0.448499 -0.472393,-0.448499 h -3.840152 z m 1.901093,9.835265 c 3.128166,0 5.664033,2.535853 5.664033,5.663975 -3e-6,3.128118 -2.535873,5.663967 -5.664033,5.663967 -3.128156,0 -5.664026,-2.535849 -5.664026,-5.663967 0,-3.128122 2.535867,-5.663975 5.664026,-5.663975 z" style="color:#000000;clip-rule:nonzero;display:inline;overflow:visible;visibility:visible;opacity:1;isolation:auto;mix-blend-mode:normal;color-interpolation:sRGB;color-interpolation-filters:linearRGB;solid-color:#000000;solid-opacity:1;vector-effect:none;fill:none;fill-opacity:1;fill-rule:nonzero;stroke:#000000;stroke-width:1.03225839;stroke-linecap:butt;stroke-linejoin:miter;stroke-miterlimit:4;stroke-dasharray:none;stroke-dashoffset:0;stroke-opacity:0.16753929;marker:none;marker-start:none;marker-mid:none;marker-end:none;paint-order:fill markers stroke;color-rendering:auto;image-rendering:auto;shape-rendering:auto;text-rendering:auto;enable-background:accumulate"/>
      <path style="color:#000000;clip-rule:nonzero;display:inline;overflow:visible;visibility:visible;opacity:1;isolation:auto;mix-blend-mode:normal;color-interpolation:sRGB;color-interpolation-filters:linearRGB;solid-color:#000000;solid-opacity:1;vector-effect:none;fill:url(#linearGradient1523-9);fill-opacity:1;fill-rule:nonzero;stroke:none;stroke-width:0.64427191;stroke-linecap:butt;stroke-linejoin:miter;stroke-miterlimit:4;stroke-dasharray:none;stroke-dashoffset:0;stroke-opacity:0.14136125;marker:none;marker-start:none;marker-mid:none;marker-end:none;paint-order:fill markers stroke;color-rendering:auto;image-rendering:auto;shape-rendering:auto;text-rendering:auto;enable-background:accumulate" d="m -17.898797,-31.483871 c -0.26282,0 -0.409607,0.20788 -0.475045,0.448496 l -1.008458,3.710036 c -0.688534,0.245661 -1.593026,0.588856 -2.202736,0.907944 l -3.338541,-1.921363 c -0.2161,-0.124401 -0.467014,-0.167254 -0.652852,0.01858 l -2.714887,2.714857 c -0.185834,0.185824 -0.142449,0.433765 -0.01855,0.650182 l 1.876271,3.280125 c -0.404119,0.724683 -0.731434,1.48959 -0.97662,2.282282 l -3.625153,0.976606 c -0.240778,0.06482 -0.448503,0.212229 -0.448503,0.475031 v 3.840084 c 0,0.262799 0.20788,0.406937 0.448503,0.472379 l 3.545542,0.965987 c 0.237691,0.835641 0.566067,1.642777 0.979269,2.407013 l -1.828504,3.1792772 c -0.124408,0.2160896 -0.167257,0.4670041 0.01858,0.6528381 l 2.714885,2.7148568 c 0.18583,0.1858375 0.433779,0.1424551 0.650192,0.018546 l 3.136851,-1.7966285 c 0.779038,0.4332939 1.604243,0.7777895 2.460119,1.0270283 l 0.942111,3.49509615 c 0.06482,0.24077772 0.212226,0.44848875 0.475035,0.44848875 h 3.840122 c 0.26281,0 0.406947,-0.20787619 0.472386,-0.44848875 l 0.952729,-3.49773185 c 0.844701,-0.2497687 1.659105,-0.5924406 2.428271,-1.0217225 l 3.1713529,1.8231679 c 0.2160998,0.1244112 0.4670143,0.1672568 0.6528517,-0.018581 l 2.7148878,-2.7148567 c 0.185834,-0.1858272 0.1424482,-0.4364286 0.018581,-0.6528415 l -1.8391266,-3.2084654 c 0.3996113,-0.748577 0.7181147,-1.537697 0.9500838,-2.353938 l 3.61453533,-0.976599 c 0.24077772,-0.06482 0.44849563,-0.209576 0.44849563,-0.472389 v -3.840073 c 0,-0.26281 -0.20787963,-0.409594 -0.44849563,-0.475035 l -3.67557623,-0.99784 c -0.2362014,-0.771093 -0.5500836,-1.516212 -0.9368089,-2.223897 l 1.916078,-3.327895 c 0.1244044,-0.216093 0.1672637,-0.467007 -0.018546,-0.652838 l -2.7148843,-2.714857 c -0.1858375,-0.18584 -0.4364286,-0.142455 -0.652845,-0.01862 l -3.3358875,1.910755 c -0.73546,-0.301939 -1.505184,-0.67468 -2.192062,-0.897101 l -1.011111,-3.739229 c -0.06482,-0.240777 -0.209583,-0.448499 -0.472393,-0.448499 h -3.840152 z m 1.901093,9.835265 c 3.128166,0 5.664033,2.535853 5.664033,5.663975 -3e-6,3.128118 -2.535873,5.663967 -5.664033,5.663967 -3.128156,0 -5.664026,-2.535849 -5.664026,-5.663967 0,-3.128122 2.535867,-5.663975 5.664026,-5.663975 z" id="path44247-2" inkscape:connector-curvature="0" sodipodi:nodetypes="cccccccccccssccccccccccsscccccsccccssccccccccccscccscsc" inkscape:label="base"/>
      <path style="color:#000000;font-style:normal;font-variant:normal;font-weight:normal;font-stretch:normal;font-size:medium;line-height:normal;font-family:sans-serif;text-indent:0;text-align:start;text-decoration:none;text-decoration-line:none;text-decoration-style:solid;text-decoration-color:#000000;letter-spacing:normal;word-spacing:normal;text-transform:none;writing-mode:lr-tb;direction:ltr;baseline-shift:baseline;text-anchor:start;white-space:normal;clip-rule:nonzero;display:inline;overflow:visible;visibility:visible;opacity:1;isolation:auto;mix-blend-mode:normal;color-interpolation:sRGB;color-interpolation-filters:linearRGB;solid-color:#000000;solid-opacity:1;vector-effect:none;fill:#000000;fill-opacity:0.17277485;fill-rule:nonzero;stroke:none;stroke-width:1.13348198;stroke-linecap:butt;stroke-linejoin:miter;stroke-miterlimit:4;stroke-dasharray:none;stroke-dashoffset:0;stroke-opacity:0.14136125;marker:none;marker-start:none;marker-mid:none;marker-end:none;paint-order:fill markers stroke;color-rendering:auto;image-rendering:auto;shape-rendering:auto;text-rendering:auto;enable-background:accumulate" d="m -15.997862,-28.219316 c -6.723684,0 -12.221451,5.493511 -12.221451,12.217181 0,6.7236839 5.497767,12.2214544 12.221451,12.2214544 6.7236737,0 12.2171946,-5.4977705 12.2171946,-12.2214544 0,-6.72367 -5.4935209,-12.217181 -12.2171946,-12.217181 z m 3.37e-4,2.592166 c 5.349793,0 9.6245367,4.274758 9.6245367,9.624537 0,5.349803 -4.2747437,9.6297664 -9.6245367,9.6297664 -5.349779,0 -9.629773,-4.2799634 -9.629773,-9.6297664 0,-5.349779 4.279994,-9.624537 9.629773,-9.624537 z" id="path1313-93" inkscape:connector-curvature="0" sodipodi:nodetypes="ssssssssss" inkscape:label="r"/>
      <path inkscape:label="r" sodipodi:nodetypes="ssssssssss" inkscape:connector-curvature="0" id="path1309-9" d="m -15.997927,-27.849433 c -6.520154,0 -11.851504,5.32722 -11.851504,11.847363 0,6.5201539 5.33135,11.8515071 11.851504,11.8515071 6.5201464,0 11.8473773,-5.3313532 11.8473773,-11.8515071 0,-6.520143 -5.3272309,-11.847363 -11.8473773,-11.847363 z m 3.4e-4,2.513704 c 5.187849,0 9.3331956,4.145357 9.3331956,9.333191 0,5.187866 -4.1453466,9.3382711 -9.3331956,9.3382711 -5.187842,0 -9.338274,-4.1504051 -9.338274,-9.3382711 0,-5.187834 4.150432,-9.333191 9.338274,-9.333191 z" style="color:#000000;font-style:normal;font-variant:normal;font-weight:normal;font-stretch:normal;font-size:medium;line-height:normal;font-family:sans-serif;text-indent:0;text-align:start;text-decoration:none;text-decoration-line:none;text-decoration-style:solid;text-decoration-color:#000000;letter-spacing:normal;word-spacing:normal;text-transform:none;writing-mode:lr-tb;direction:ltr;baseline-shift:baseline;text-anchor:start;white-space:normal;clip-rule:nonzero;display:inline;overflow:visible;visibility:visible;opacity:1;isolation:auto;mix-blend-mode:normal;color-interpolation:sRGB;color-interpolation-filters:linearRGB;solid-color:#000000;solid-opacity:1;vector-effect:none;fill:url(#linearGradient1321-65);fill-opacity:1;fill-rule:nonzero;stroke:none;stroke-width:1.0991708;stroke-linecap:butt;stroke-linejoin:miter;stroke-miterlimit:4;stroke-dasharray:none;stroke-dashoffset:0;stroke-opacity:0.14136125;marker:none;marker-start:none;marker-mid:none;marker-end:none;paint-order:fill markers stroke;color-rendering:auto;image-rendering:auto;shape-rendering:auto;text-rendering:auto;enable-background:accumulate"/>
      <path inkscape:label="azul" sodipodi:nodetypes="ssssssssss" inkscape:connector-curvature="0" id="path1323-0" d="m -15.998364,-25.338823 c -5.138689,0 -9.340456,4.198512 -9.340456,9.33719 0,5.138693 4.201767,9.3404594 9.340456,9.3404594 5.138682,0 9.3372036,-4.2017664 9.3372036,-9.3404594 0,-5.138678 -4.1985216,-9.33719 -9.3372036,-9.33719 z m 6.88e-4,2.35655 c 3.889629,0 6.9976349,3.108009 6.9976349,6.997631 0,3.889643 -3.1080059,7.0014409 -6.9976349,7.0014409 -3.889626,0 -7.001441,-3.1117979 -7.001441,-7.0014409 0,-3.889622 3.111815,-6.997631 7.001441,-6.997631 z" style="color:#000000;font-style:normal;font-variant:normal;font-weight:normal;font-stretch:normal;font-size:medium;line-height:normal;font-family:sans-serif;text-indent:0;text-align:start;text-decoration:none;text-decoration-line:none;text-decoration-style:solid;text-decoration-color:#000000;letter-spacing:normal;word-spacing:normal;text-transform:none;writing-mode:lr-tb;direction:ltr;baseline-shift:baseline;text-anchor:start;white-space:normal;clip-rule:nonzero;display:inline;overflow:visible;visibility:visible;opacity:1;isolation:auto;mix-blend-mode:normal;color-interpolation:sRGB;color-interpolation-filters:linearRGB;solid-color:#000000;solid-opacity:1;vector-effect:none;fill:url(#linearGradient5425-6);fill-opacity:1;fill-rule:nonzero;stroke:none;stroke-width:0.68817228;stroke-linecap:butt;stroke-linejoin:miter;stroke-miterlimit:4;stroke-dasharray:none;stroke-dashoffset:0;stroke-opacity:1;marker:none;marker-start:none;marker-mid:none;marker-end:none;paint-order:fill markers stroke;color-rendering:auto;image-rendering:auto;shape-rendering:auto;text-rendering:auto;enable-background:accumulate"/>
      <path style="color:#000000;font-style:normal;font-variant:normal;font-weight:normal;font-stretch:normal;font-size:medium;line-height:normal;font-family:sans-serif;text-indent:0;text-align:start;text-decoration:none;text-decoration-line:none;text-decoration-style:solid;text-decoration-color:#000000;letter-spacing:normal;word-spacing:normal;text-transform:none;writing-mode:lr-tb;direction:ltr;baseline-shift:baseline;text-anchor:start;white-space:normal;clip-rule:nonzero;display:inline;overflow:visible;visibility:visible;opacity:1;isolation:auto;mix-blend-mode:normal;color-interpolation:sRGB;color-interpolation-filters:linearRGB;solid-color:#000000;solid-opacity:1;vector-effect:none;fill:#000000;fill-opacity:0.2827225;fill-rule:nonzero;stroke:none;stroke-width:0.86628294;stroke-linecap:butt;stroke-linejoin:miter;stroke-miterlimit:4;stroke-dasharray:none;stroke-dashoffset:0;stroke-opacity:0.14136125;marker:none;marker-start:none;marker-mid:none;marker-end:none;paint-order:fill markers stroke;color-rendering:auto;image-rendering:auto;shape-rendering:auto;text-rendering:auto;enable-background:accumulate" d="m -15.998633,-25.338709 c -5.138689,0 -9.340056,4.198687 -9.340056,9.337365 0,0.05774 0.0031,0.11455 0.004,0.172043 0.09282,-5.059759 4.254989,-9.165322 9.336027,-9.165322 5.081027,0 9.2405844,4.105563 9.3333362,9.165322 0.00103,-0.05749 0.00403,-0.114305 0.00403,-0.172043 0,-5.138678 -4.1986842,-9.337365 -9.3373662,-9.337365 z" id="path1212-5" inkscape:connector-curvature="0" sodipodi:nodetypes="cscscscc" inkscape:label="rojo sombra sup"/>
      <path style="color:#000000;clip-rule:nonzero;display:inline;overflow:visible;visibility:visible;opacity:1;isolation:auto;mix-blend-mode:normal;color-interpolation:sRGB;color-interpolation-filters:linearRGB;solid-color:#000000;solid-opacity:1;vector-effect:none;fill:#ffffff;fill-opacity:0.67539266;fill-rule:nonzero;stroke:none;stroke-width:0.64427191;stroke-linecap:butt;stroke-linejoin:miter;stroke-miterlimit:4;stroke-dasharray:none;stroke-dashoffset:0;stroke-opacity:0.14136125;marker:none;marker-start:none;marker-mid:none;marker-end:none;paint-order:fill markers stroke;color-rendering:auto;image-rendering:auto;shape-rendering:auto;text-rendering:auto;enable-background:accumulate" d="m -17.898501,-31.483874 c -0.26282,0 -0.409696,0.207635 -0.475135,0.448251 l -1.008736,3.710353 c -0.688534,0.24566 -1.593247,0.588842 -2.202957,0.90793 l -3.338038,-1.921374 c -0.2161,-0.124401 -0.467389,-0.167016 -0.653227,0.01882 l -2.715056,2.714382 c -0.139376,0.139368 -0.149175,0.314126 -0.09341,0.483871 0.0203,-0.04907 0.04994,-0.09631 0.09341,-0.139785 l 2.715056,-2.714382 c 0.185838,-0.185834 0.437127,-0.143219 0.653227,-0.01882 l 3.338038,1.921374 c 0.60971,-0.319088 1.514423,-0.662269 2.202957,-0.90793 l 1.008736,-3.710353 c 0.06544,-0.240616 0.212315,-0.448251 0.475135,-0.448251 h 3.840056 c 0.26281,0 0.407625,0.208148 0.472444,0.448926 l 1.010753,3.739249 c 0.686882,0.222421 1.456748,0.594564 2.192208,0.896503 l 3.3360214,-1.910618 c 0.2164164,-0.12384 0.4667184,-0.167023 0.6525559,0.01882 l 2.7150529,2.715053 c 0.043799,0.0438 0.073772,0.0914 0.094087,0.14113 0.055587,-0.170243 0.045092,-0.34602 -0.094087,-0.485216 l -2.7150529,-2.715053 c -0.1858375,-0.185841 -0.4361395,-0.142658 -0.6525559,-0.01882 l -3.3360214,1.910618 c -0.73546,-0.301939 -1.505326,-0.674082 -2.192208,-0.896503 l -1.010753,-3.73925 c -0.06482,-0.240777 -0.209634,-0.448925 -0.472444,-0.448925 z m -8.629033,9.988579 c -0.359663,0.671581 -0.657188,1.374717 -0.882395,2.102821 l -3.625674,0.976482 c -0.240778,0.06482 -0.448251,0.212332 -0.448251,0.475135 v 0.344086 c 0,-0.262803 0.207473,-0.410316 0.448251,-0.475135 l 3.625674,-0.976482 c 0.245185,-0.792692 0.572359,-1.557575 0.976478,-2.282258 z m 21.0436884,0.08132 -0.093412,0.162636 c 0.3867253,0.707685 0.7006247,1.452697 0.9368261,2.22379 l 3.6760786,0.997984 c 0.24061599,0.06544 0.44825133,0.212326 0.44825133,0.475135 v -0.344086 c 0,-0.26281 -0.20763534,-0.409693 -0.44825133,-0.475135 l -3.6760786,-0.997984 c -0.2162719,-0.706037 -0.5006006,-1.388652 -0.8434141,-2.04234 z m -21.1196324,11.319226 -1.735887,3.0181446 c -0.09508,0.1651545 -0.141147,0.3508612 -0.07527,0.5121 0.01862,-0.057036 0.04405,-0.1137859 0.07527,-0.1680139 l 1.828629,-3.1787641 c -0.03262,-0.060304 -0.06119,-0.1226326 -0.09274,-0.1834666 z m 21.1660049,0 c -0.031174,0.06087 -0.059854,0.1231173 -0.092071,0.1834666 l 1.8393812,3.2083349 c 0.030968,0.054104 0.056685,0.1105101 0.075269,0.1673394 0.065772,-0.1611665 0.019406,-0.3460164 -0.075269,-0.5114255 z" id="path1201-09" inkscape:connector-curvature="0" sodipodi:nodetypes="scccccccccccccsscccccccccccccsscccsccccccccccsccccccccccccccc" inkscape:label="brillo superior"/>
      <path style="color:#000000;font-style:normal;font-variant:normal;font-weight:normal;font-stretch:normal;font-size:medium;line-height:normal;font-family:sans-serif;text-indent:0;text-align:start;text-decoration:none;text-decoration-line:none;text-decoration-style:solid;text-decoration-color:#000000;letter-spacing:normal;word-spacing:normal;text-transform:none;writing-mode:lr-tb;direction:ltr;baseline-shift:baseline;text-anchor:start;white-space:normal;clip-rule:nonzero;display:inline;overflow:visible;visibility:visible;opacity:1;isolation:auto;mix-blend-mode:normal;color-interpolation:sRGB;color-interpolation-filters:linearRGB;solid-color:#000000;solid-opacity:1;vector-effect:none;fill:#000000;fill-opacity:0.16753929;fill-rule:nonzero;stroke:none;stroke-width:0.70247829;stroke-linecap:butt;stroke-linejoin:miter;stroke-miterlimit:4;stroke-dasharray:none;stroke-dashoffset:0;stroke-opacity:0.14136125;marker:none;marker-start:none;marker-mid:none;marker-end:none;paint-order:fill markers stroke;color-rendering:auto;image-rendering:auto;shape-rendering:auto;text-rendering:auto;enable-background:accumulate" d="m -15.99822,-22.532363 c -3.964168,0 -7.205559,3.238879 -7.205559,7.203037 0,3.964168 3.241391,7.2055592 7.205559,7.2055592 3.964161,0 7.2030478,-3.2413912 7.2030478,-7.2055592 0,-3.964158 -3.2388868,-7.203037 -7.2030478,-7.203037 z m -6.88e-4,2.961095 c 2.366965,0 4.258286,1.891324 4.258286,4.258282 0,2.366976 -1.891321,4.260602 -4.258286,4.260602 -2.366962,0 -4.260602,-1.893626 -4.260602,-4.260602 0,-2.366958 1.89364,-4.258282 4.260602,-4.258282 z" id="path1210-6" inkscape:connector-curvature="0" sodipodi:nodetypes="ssssssssss" inkscape:label="sombra"/>
      <path sodipodi:nodetypes="sssss" inkscape:connector-curvature="0" id="path1206-38" d="m -15.978242,-23.167058 c -3.964168,0 -7.20556,3.23888 -7.20556,7.203037 0,3.964168 3.241392,7.2055598 7.20556,7.2055598 3.964161,0 7.2030474,-3.2413918 7.2030474,-7.2055598 0,-3.964157 -3.2388864,-7.203037 -7.2030474,-7.203037 z" style="color:#000000;font-style:normal;font-variant:normal;font-weight:normal;font-stretch:normal;font-size:medium;line-height:normal;font-family:sans-serif;text-indent:0;text-align:start;text-decoration:none;text-decoration-line:none;text-decoration-style:solid;text-decoration-color:#000000;letter-spacing:normal;word-spacing:normal;text-transform:none;writing-mode:lr-tb;direction:ltr;baseline-shift:baseline;text-anchor:start;white-space:normal;clip-rule:nonzero;display:inline;overflow:visible;visibility:visible;opacity:1;isolation:auto;mix-blend-mode:normal;color-interpolation:sRGB;color-interpolation-filters:linearRGB;solid-color:#000000;solid-opacity:1;vector-effect:none;fill:#b1c7d0;fill-opacity:1;fill-rule:nonzero;stroke:none;stroke-width:0.70247829;stroke-linecap:butt;stroke-linejoin:miter;stroke-miterlimit:4;stroke-dasharray:none;stroke-dashoffset:0;stroke-opacity:0.14136125;marker:none;marker-start:none;marker-mid:none;marker-end:none;paint-order:fill markers stroke;color-rendering:auto;image-rendering:auto;shape-rendering:auto;text-rendering:auto;enable-background:accumulate" inkscape:label="aro interior"/>
      <path sodipodi:nodetypes="sscscsss" style="color:#000000;font-style:normal;font-variant:normal;font-weight:normal;font-stretch:normal;font-size:medium;line-height:normal;font-family:sans-serif;text-indent:0;text-align:start;text-decoration:none;text-decoration-line:none;text-decoration-style:solid;text-decoration-color:#000000;letter-spacing:normal;word-spacing:normal;text-transform:none;writing-mode:lr-tb;direction:ltr;baseline-shift:baseline;text-anchor:start;white-space:normal;clip-rule:nonzero;display:inline;overflow:visible;visibility:visible;opacity:1;isolation:auto;mix-blend-mode:normal;color-interpolation:sRGB;color-interpolation-filters:linearRGB;solid-color:#000000;solid-opacity:1;vector-effect:none;fill:#ffffff;fill-opacity:0.69109946;fill-rule:nonzero;stroke:none;stroke-width:0.70247829;stroke-linecap:butt;stroke-linejoin:miter;stroke-miterlimit:4;stroke-dasharray:none;stroke-dashoffset:0;stroke-opacity:0.14136125;marker:none;marker-start:none;marker-mid:none;marker-end:none;paint-order:fill markers stroke;color-rendering:auto;image-rendering:auto;shape-rendering:auto;text-rendering:auto;enable-background:accumulate" d="m -15.978366,-23.166865 c -3.964168,0 -7.205226,3.238511 -7.205226,7.202669 0,0.05487 0.0028,0.109086 0.0038,0.163668 0.08801,-3.88902 3.292088,-7.039001 7.201389,-7.039001 3.909293,0 7.1108839,3.149985 7.1988289,7.039001 0.00138,-0.05459 0.00447,-0.1088 0.00447,-0.163668 0,-3.964158 -3.2391439,-7.202669 -7.2033059,-7.202669 z" id="path1237-6" inkscape:connector-curvature="0" inkscape:label="aro interior brillo"/>
      <path sodipodi:nodetypes="ccccccccccccccccc" inkscape:connector-curvature="0" id="path1117-2-3-9" d="M -20,-19.999973 -14,-20 v 2 l -4,3.8e-5 V -13 h -2 z M -17,-17 h 3 v 4 h -3 z m 4,-3 h 2 v 7.000038 L -13,-13 Z" style="display:inline;fill:#000000;fill-opacity:0.23626374;stroke-width:0.07504089"/>
      <path style="display:inline;fill:#000000;fill-opacity:0.23076926;stroke-width:0.07504089" d="m -20,-20 v 1 h 6 v -1 z m 7,0 v 1 h 2 v -1 z m -4,3 v 1 h 3 v -1 z" id="path1121-0-7-2" inkscape:connector-curvature="0" sodipodi:nodetypes="ccccccccccccccc"/>
      <path inkscape:connector-curvature="0" id="path1126-2-5-2" d="m -20,-12 v -1 h 2 v 1 z m 7,0 v -1 l 2,3.8e-5 V -12 Z m -4,0 v -1 h 3 l -2e-5,0.99992 z" style="display:inline;fill:#ffffff;fill-opacity:0.43406593;stroke-width:0.07504089" sodipodi:nodetypes="ccccccccccccccc"/>
      <rect inkscape:label="brillo" y="-23.220469" x="-18.068579" height="0.35203326" width="4.0973759" id="rect1366-1" style="color:#000000;clip-rule:nonzero;display:inline;overflow:visible;visibility:visible;opacity:1;isolation:auto;mix-blend-mode:normal;color-interpolation:sRGB;color-interpolation-filters:linearRGB;solid-color:#000000;solid-opacity:1;vector-effect:none;fill:url(#linearGradient1376-9);fill-opacity:1;fill-rule:nonzero;stroke:none;stroke-width:0.37849972;stroke-linecap:butt;stroke-linejoin:miter;stroke-miterlimit:4;stroke-dasharray:none;stroke-dashoffset:0;stroke-opacity:1;marker:none;marker-start:none;marker-mid:none;marker-end:none;paint-order:fill markers stroke;color-rendering:auto;image-rendering:auto;shape-rendering:auto;text-rendering:auto;enable-background:accumulate"/>
    </g>
  </g>
</svg>