<?xml version="1.0" encoding="UTF-8" standalone="yes"?>
<svg xmlns:dc="http://purl.org/dc/elements/1.1/" xmlns:cc="http://creativecommons.org/ns#" xmlns:rdf="http://www.w3.org/1999/02/22-rdf-syntax-ns#" xmlns:svg="http://www.w3.org/2000/svg" xmlns="http://www.w3.org/2000/svg" xmlns:xlink="http://www.w3.org/1999/xlink" xmlns:sodipodi="http://sodipodi.sourceforge.net/DTD/sodipodi-0.dtd" xmlns:inkscape="http://www.inkscape.org/namespaces/inkscape" height="64" viewBox="0 0 64 64" width="64" id="svg2" version="1.1" inkscape:version="0.92.2 5c3e80d, 2017-08-06" sodipodi:docname="accessories-character-map.svg" enable-background="new" folder="64">
  <title id="title4675">Template icons dark</title>
  <metadata id="metadata24">
    <rdf:RDF>
      <cc:Work rdf:about="">
        <dc:format>image/svg+xml</dc:format>
        <dc:type rdf:resource="http://purl.org/dc/dcmitype/StillImage"/>
        <dc:title>Template icons dark</dc:title>
        <dc:date>17/05/13</dc:date>
        <dc:creator>
          <cc:Agent>
            <dc:title>wfpaisa</dc:title>
          </cc:Agent>
        </dc:creator>
        <dc:rights>
          <cc:Agent>
            <dc:title>License: GPLv3</dc:title>
          </cc:Agent>
        </dc:rights>
        <dc:language>es-en</dc:language>
        <dc:subject>
          <rdf:Bag>
            <rdf:li>plane-icon-theme</rdf:li>
          </rdf:Bag>
        </dc:subject>
        <dc:description>Template for create set icons</dc:description>
        <cc:license rdf:resource="https://www.gnu.org/licenses/gpl-3.0.en.html"/>
      </cc:Work>
    </rdf:RDF>
  </metadata>
  <defs id="defs22">
    <linearGradient id="linearGradient7762">
      <stop style="stop-color:#003783;stop-opacity:1" offset="0" id="stop7758"/>
      <stop style="stop-color:#69e5ff;stop-opacity:1" offset="1" id="stop7760"/>
    </linearGradient>
    <linearGradient inkscape:collect="always" xlink:href="#linearGradient7762" id="linearGradient7994" gradientUnits="userSpaceOnUse" x1="120" y1="120" x2="203.05511" y2="204"/>
    <linearGradient inkscape:collect="always" xlink:href="#linearGradient7762" id="linearGradient8343" gradientUnits="userSpaceOnUse" x1="120" y1="120" x2="203.05511" y2="204"/>
    <clipPath clipPathUnits="userSpaceOnUse" id="clipPath8339-4">
      <path inkscape:label="base para recorte" style="color:#000000;clip-rule:nonzero;display:inline;overflow:visible;visibility:visible;opacity:1;isolation:auto;mix-blend-mode:normal;color-interpolation:sRGB;color-interpolation-filters:linearRGB;solid-color:#000000;solid-opacity:1;vector-effect:none;fill:url(#linearGradient8343);fill-opacity:1;fill-rule:nonzero;stroke:none;stroke-width:1;stroke-linecap:butt;stroke-linejoin:miter;stroke-miterlimit:4;stroke-dasharray:none;stroke-dashoffset:0;stroke-opacity:0.43455499;marker:none;marker-start:none;marker-mid:none;marker-end:none;paint-order:fill markers stroke;color-rendering:auto;image-rendering:auto;shape-rendering:auto;text-rendering:auto;enable-background:accumulate" d="M 128.55273,116 C 121.5982,116 116,121.5982 116,128.55273 v 30.89454 c 0,0.0936 0.0117,0.18419 0.0137,0.27734 -0.005,0.0918 -0.009,0.18358 -0.0137,0.27539 2e-5,24.30052 19.69948,43.99998 44,44 24.30052,-2e-5 43.99998,-19.69948 44,-44 -2e-5,-24.30052 -19.69948,-43.99998 -44,-44 -0.10809,0.004 -0.21616,0.007 -0.32422,0.0117 C 159.59898,116.0107 159.52444,116 159.44727,116 Z M 130,122 c 4.41828,-1e-5 8.00001,3.58172 8,8 1e-5,4.41828 -3.58172,8.00001 -8,8 -4.41828,1e-5 -8.00001,-3.58172 -8,-8 -1e-5,-4.41828 3.58172,-8.00001 8,-8 z" id="path8341-7" inkscape:connector-curvature="0" sodipodi:nodetypes="sssccccccssccccc" sodipodi:insensitive="true"/>
    </clipPath>
  </defs>
  <sodipodi:namedview pagecolor="#383c4a" bordercolor="#ffffff" borderopacity="0.62745098" objecttolerance="4" gridtolerance="10" guidetolerance="4" inkscape:pageopacity="0" inkscape:pageshadow="2" inkscape:window-width="640" inkscape:window-height="480" id="namedview20" showgrid="true" inkscape:zoom="2.9402989" inkscape:cx="281.78867" inkscape:cy="-216.80815" inkscape:current-layer="layer6" inkscape:snap-smooth-nodes="false" showguides="true" borderlayer="true" inkscape:showpageshadow="false" inkscape:guide-bbox="true" guidecolor="#bd4fff" guideopacity="0.78431373" inkscape:snap-nodes="true" inkscape:lockguides="false" fit-margin-top="0" fit-margin-left="0" fit-margin-right="0" fit-margin-bottom="0" guidehicolor="#ff0101" guidehiopacity="0.78431373" inkscape:snap-page="true" inkscape:object-nodes="true" inkscape:snap-bbox="true" inkscape:snap-global="true" inkscape:snap-object-midpoints="false" inkscape:snap-bbox-edge-midpoints="false">
    <inkscape:grid type="xygrid" id="grid4171" empspacing="4" dotted="false" originx="2.7755576e-17" originy="0" spacingx="1" spacingy="1" color="#5a5a5a" opacity="0.23529412" empcolor="#5a5a5a" empopacity="0.47058824" visible="true"/>
    <inkscape:grid type="axonomgrid" id="grid4699" units="mm" empspacing="4" color="#5a5a5a" opacity="0.23529412" empcolor="#5a5a5a" empopacity="0.47058824" gridanglex="45" gridanglez="45" spacingy="3.7795276" visible="false" originx="1.3228346" originy="1.3228346"/>
    <sodipodi:guide position="48,0" orientation="1,0" id="guide4568" inkscape:locked="false" inkscape:label="" inkscape:color="rgb(189,79,255)"/>
    <sodipodi:guide position="111.99996,-3.9999999e-05" orientation="0,1" id="guide4570" inkscape:locked="false" inkscape:label="" inkscape:color="rgb(189,79,255)"/>
    <sodipodi:guide position="0,0" orientation="1,0" id="guide4572" inkscape:locked="false" inkscape:label="" inkscape:color="rgb(189,79,255)"/>
    <sodipodi:guide position="0,48" orientation="0,1" id="guide4574" inkscape:locked="false" inkscape:label="" inkscape:color="rgb(189,79,255)"/>
    <sodipodi:guide position="0,80" orientation="0,1" id="guide4576" inkscape:locked="false" inkscape:label="" inkscape:color="rgb(189,79,255)"/>
    <sodipodi:guide position="-32,48" orientation="1,0" id="guide4578" inkscape:locked="false" inkscape:label="" inkscape:color="rgb(189,79,255)"/>
    <sodipodi:guide position="-32,104" orientation="0,1" id="guide4580" inkscape:locked="false" inkscape:label="" inkscape:color="rgb(189,79,255)"/>
    <sodipodi:guide position="-56,80" orientation="1,0" id="guide4582" inkscape:locked="false" inkscape:label="" inkscape:color="rgb(189,79,255)"/>
    <sodipodi:guide position="48,-64" orientation="0,1" id="guide4584" inkscape:locked="false" inkscape:label="" inkscape:color="rgb(189,79,255)"/>
    <sodipodi:guide position="0,0" orientation="-0.70710678,0.70710678" id="guide4588" inkscape:locked="false" inkscape:label="" inkscape:color="rgb(189,79,255)"/>
    <sodipodi:guide position="-56,80" orientation="-0.70710678,0.70710678" id="guide4573" inkscape:locked="false" inkscape:label="" inkscape:color="rgb(189,79,255)"/>
    <sodipodi:guide position="-32,48" orientation="-0.70710678,0.70710678" id="guide4575" inkscape:locked="false" inkscape:label="" inkscape:color="rgb(189,79,255)"/>
    <sodipodi:guide position="48,-64" orientation="-0.70710678,0.70710678" id="guide4577" inkscape:locked="false" inkscape:label="" inkscape:color="rgb(189,79,255)"/>
    <sodipodi:guide position="160,-112.12599" orientation="0.70710678,0.70710678" id="guide4697" inkscape:locked="false" inkscape:label="" inkscape:color="rgb(189,79,255)"/>
    <sodipodi:guide position="207.99995,-288" orientation="0,1" id="guide7833" inkscape:locked="false"/>
    <sodipodi:guide position="335.99994,-288" orientation="1,0" id="guide7835" inkscape:locked="false" inkscape:label="" inkscape:color="rgb(189,79,255)"/>
    <sodipodi:guide position="111.99996,-64" orientation="1,0" id="guide7915" inkscape:locked="false"/>
    <sodipodi:guide position="111.99996,-160" orientation="0,1" id="guide7917" inkscape:locked="false"/>
    <sodipodi:guide position="207.99996,-160" orientation="1,0" id="guide7919" inkscape:locked="false"/>
    <sodipodi:guide position="111.99996,-160" orientation="-0.70710678,0.70710678" id="guide7921" inkscape:locked="false" inkscape:label="" inkscape:color="rgb(189,79,255)"/>
    <sodipodi:guide position="207.99996,-288" orientation="-0.70710678,0.70710678" id="guide7923" inkscape:locked="false" inkscape:label="" inkscape:color="rgb(189,79,255)"/>
    <sodipodi:guide position="-72,104" orientation="1,0" id="guide7824" inkscape:locked="false"/>
    <sodipodi:guide position="-56,120" orientation="0,1" id="guide7826" inkscape:locked="false"/>
    <sodipodi:guide position="-72,104" orientation="-0.70710678,0.70710678" id="guide7828" inkscape:locked="false" inkscape:label="" inkscape:color="rgb(189,79,255)"/>
  </sodipodi:namedview>
  <g inkscape:groupmode="layer" id="g7907" inkscape:label="icon_64" style="display:inline" transform="translate(-48,-48)">
    <g inkscape:groupmode="layer" id="g7843" inkscape:label="frame" style="display:none">
      <rect inkscape:label="frame_64" y="48" x="48" height="64" width="64" id="rect7837" style="color:#000000;clip-rule:nonzero;display:inline;overflow:visible;visibility:visible;opacity:1;isolation:auto;mix-blend-mode:normal;color-interpolation:sRGB;color-interpolation-filters:linearRGB;solid-color:#000000;solid-opacity:1;vector-effect:none;fill:#000000;fill-opacity:1;fill-rule:nonzero;stroke:#ff24f7;stroke-width:0;stroke-linecap:square;stroke-linejoin:miter;stroke-miterlimit:4;stroke-dasharray:none;stroke-dashoffset:0;stroke-opacity:0.99481865;marker:none;marker-start:none;marker-mid:none;marker-end:none;paint-order:normal;color-rendering:auto;image-rendering:auto;shape-rendering:auto;text-rendering:auto;enable-background:accumulate"/>
      <text xml:space="preserve" style="font-size:16px;line-height:0%;font-family:sans-serif;letter-spacing:0px;word-spacing:0px;display:inline;opacity:1;fill:#ffffff;fill-opacity:1;stroke:none;stroke-width:0.03278551px;stroke-linecap:butt;stroke-linejoin:miter;stroke-opacity:1" x="69.816406" y="85.824219" id="text7841" inkscape:label="txt_64">
        <tspan sodipodi:role="line" x="69.816406" y="85.824219" style="font-size:16px;line-height:0%;fill:#ffffff;fill-opacity:1;stroke:none;stroke-width:0.03278551px" id="tspan7839">64</tspan>
      </text>
    </g>
    <g inkscape:groupmode="layer" id="g7905" inkscape:label="icon" style="display:inline">
      <path style="color:#000000;clip-rule:nonzero;display:block;overflow:visible;visibility:visible;opacity:1;isolation:auto;mix-blend-mode:normal;color-interpolation:sRGB;color-interpolation-filters:linearRGB;solid-color:#000000;solid-opacity:1;vector-effect:none;fill:#000000;fill-opacity:0.14136125;fill-rule:nonzero;stroke:none;stroke-width:1.54167438;stroke-linecap:butt;stroke-linejoin:miter;stroke-miterlimit:4;stroke-dasharray:none;stroke-dashoffset:0;stroke-opacity:0.07853406;marker:none;marker-start:none;marker-mid:none;marker-end:none;paint-order:fill markers stroke;color-rendering:auto;image-rendering:auto;shape-rendering:auto;text-rendering:auto;enable-background:accumulate" d="m 55,55 50,2.1e-4 v 49.99989 l -50,-2.1e-4 z" id="rect7865-6" inkscape:connector-curvature="0" sodipodi:nodetypes="ccccc"/>
      <path style="color:#000000;clip-rule:nonzero;display:block;overflow:visible;visibility:visible;opacity:1;isolation:auto;mix-blend-mode:normal;color-interpolation:sRGB;color-interpolation-filters:linearRGB;solid-color:#000000;solid-opacity:1;vector-effect:none;fill:#a3acc3;fill-opacity:1;fill-rule:nonzero;stroke:none;stroke-width:0.75;stroke-linecap:butt;stroke-linejoin:miter;stroke-miterlimit:4;stroke-dasharray:none;stroke-dashoffset:0;stroke-opacity:0.07853406;marker:none;marker-start:none;marker-mid:none;marker-end:none;paint-order:fill markers stroke;color-rendering:auto;image-rendering:auto;shape-rendering:auto;text-rendering:auto;enable-background:accumulate" d="m 56,56 h 48.00461 v 48.00461 H 56 Z" id="rect7904-2" inkscape:connector-curvature="0" sodipodi:nodetypes="ccccc"/>
      <path style="color:#000000;clip-rule:nonzero;display:block;overflow:visible;visibility:visible;opacity:1;isolation:auto;mix-blend-mode:normal;color-interpolation:sRGB;color-interpolation-filters:linearRGB;solid-color:#000000;solid-opacity:1;vector-effect:none;fill:#79859c;fill-opacity:1;fill-rule:nonzero;stroke:none;stroke-width:0.75;stroke-linecap:butt;stroke-linejoin:miter;stroke-miterlimit:4;stroke-dasharray:none;stroke-dashoffset:0;stroke-opacity:0.07853406;marker:none;marker-start:none;marker-mid:none;marker-end:none;paint-order:fill markers stroke;color-rendering:auto;image-rendering:auto;shape-rendering:auto;text-rendering:auto;enable-background:accumulate" d="M 72,72 H 88 V 88 H 72 Z" id="rect7819-9" inkscape:connector-curvature="0" sodipodi:nodetypes="ccccc"/>
      <path style="color:#000000;clip-rule:nonzero;display:block;overflow:visible;visibility:visible;opacity:1;isolation:auto;mix-blend-mode:normal;color-interpolation:sRGB;color-interpolation-filters:linearRGB;solid-color:#000000;solid-opacity:1;vector-effect:none;fill:#696e82;fill-opacity:1;fill-rule:nonzero;stroke:none;stroke-width:0.75;stroke-linecap:butt;stroke-linejoin:miter;stroke-miterlimit:4;stroke-dasharray:none;stroke-dashoffset:0;stroke-opacity:0.07853406;marker:none;marker-start:none;marker-mid:none;marker-end:none;paint-order:fill markers stroke;color-rendering:auto;image-rendering:auto;shape-rendering:auto;text-rendering:auto;enable-background:accumulate" d="M 72,56 H 88 V 72 H 72 Z" id="rect7838-1" inkscape:connector-curvature="0" sodipodi:nodetypes="ccccc"/>
      <path style="color:#000000;clip-rule:nonzero;display:block;overflow:visible;visibility:visible;opacity:1;isolation:auto;mix-blend-mode:normal;color-interpolation:sRGB;color-interpolation-filters:linearRGB;solid-color:#000000;solid-opacity:1;vector-effect:none;fill:#565a68;fill-opacity:1;fill-rule:nonzero;stroke:none;stroke-width:0.75;stroke-linecap:butt;stroke-linejoin:miter;stroke-miterlimit:4;stroke-dasharray:none;stroke-dashoffset:0;stroke-opacity:0.07853406;marker:none;marker-start:none;marker-mid:none;marker-end:none;paint-order:fill markers stroke;color-rendering:auto;image-rendering:auto;shape-rendering:auto;text-rendering:auto;enable-background:accumulate" d="M 56,56 H 72 V 72 H 56 Z" id="rect7840-2" inkscape:connector-curvature="0" sodipodi:nodetypes="ccccc"/>
      <path style="color:#000000;clip-rule:nonzero;display:block;overflow:visible;visibility:visible;opacity:1;isolation:auto;mix-blend-mode:normal;color-interpolation:sRGB;color-interpolation-filters:linearRGB;solid-color:#000000;solid-opacity:1;vector-effect:none;fill:#777a8b;fill-opacity:1;fill-rule:nonzero;stroke:none;stroke-width:0.75;stroke-linecap:butt;stroke-linejoin:miter;stroke-miterlimit:4;stroke-dasharray:none;stroke-dashoffset:0;stroke-opacity:0.07853406;marker:none;marker-start:none;marker-mid:none;marker-end:none;paint-order:fill markers stroke;color-rendering:auto;image-rendering:auto;shape-rendering:auto;text-rendering:auto;enable-background:accumulate" d="M 56,72 H 72 V 88 H 56 Z" id="rect7842-7" inkscape:connector-curvature="0" sodipodi:nodetypes="ccccc"/>
      <path style="color:#000000;clip-rule:nonzero;display:block;overflow:visible;visibility:visible;opacity:1;isolation:auto;mix-blend-mode:normal;color-interpolation:sRGB;color-interpolation-filters:linearRGB;solid-color:#000000;solid-opacity:1;vector-effect:none;fill:#8d98b6;fill-opacity:1;fill-rule:nonzero;stroke:none;stroke-width:0.75;stroke-linecap:butt;stroke-linejoin:miter;stroke-miterlimit:4;stroke-dasharray:none;stroke-dashoffset:0;stroke-opacity:0.07853406;marker:none;marker-start:none;marker-mid:none;marker-end:none;paint-order:fill markers stroke;color-rendering:auto;image-rendering:auto;shape-rendering:auto;text-rendering:auto;enable-background:accumulate" d="m 88,72 h 15.99539 V 88 H 88 Z" id="rect7844-0" inkscape:connector-curvature="0" sodipodi:nodetypes="ccccc"/>
      <path style="color:#000000;clip-rule:nonzero;display:block;overflow:visible;visibility:visible;opacity:1;isolation:auto;mix-blend-mode:normal;color-interpolation:sRGB;color-interpolation-filters:linearRGB;solid-color:#000000;solid-opacity:1;vector-effect:none;fill:#7a8399;fill-opacity:1;fill-rule:nonzero;stroke:none;stroke-width:0.75;stroke-linecap:butt;stroke-linejoin:miter;stroke-miterlimit:4;stroke-dasharray:none;stroke-dashoffset:0;stroke-opacity:0.07853406;marker:none;marker-start:none;marker-mid:none;marker-end:none;paint-order:fill markers stroke;color-rendering:auto;image-rendering:auto;shape-rendering:auto;text-rendering:auto;enable-background:accumulate" d="m 88,56 h 15.99539 V 72 H 88 Z" id="rect7846-9" inkscape:connector-curvature="0" sodipodi:nodetypes="ccccc"/>
      <path style="color:#000000;clip-rule:nonzero;display:block;overflow:visible;visibility:visible;opacity:1;isolation:auto;mix-blend-mode:normal;color-interpolation:sRGB;color-interpolation-filters:linearRGB;solid-color:#000000;solid-opacity:1;vector-effect:none;fill:#9098b0;fill-opacity:1;fill-rule:nonzero;stroke:none;stroke-width:0.75;stroke-linecap:butt;stroke-linejoin:miter;stroke-miterlimit:4;stroke-dasharray:none;stroke-dashoffset:0;stroke-opacity:0.07853406;marker:none;marker-start:none;marker-mid:none;marker-end:none;paint-order:fill markers stroke;color-rendering:auto;image-rendering:auto;shape-rendering:auto;text-rendering:auto;enable-background:accumulate" d="m 72,88 h 16 v 15.99539 H 72 Z" id="rect7848-3" inkscape:connector-curvature="0" sodipodi:nodetypes="ccccc"/>
      <path style="color:#000000;clip-rule:nonzero;display:block;overflow:visible;visibility:visible;opacity:1;isolation:auto;mix-blend-mode:normal;color-interpolation:sRGB;color-interpolation-filters:linearRGB;solid-color:#000000;solid-opacity:1;vector-effect:none;fill:#818da2;fill-opacity:1;fill-rule:nonzero;stroke:none;stroke-width:0.75;stroke-linecap:butt;stroke-linejoin:miter;stroke-miterlimit:4;stroke-dasharray:none;stroke-dashoffset:0;stroke-opacity:0.07853406;marker:none;marker-start:none;marker-mid:none;marker-end:none;paint-order:fill markers stroke;color-rendering:auto;image-rendering:auto;shape-rendering:auto;text-rendering:auto;enable-background:accumulate" d="m 56,88 h 16 v 15.99539 H 56 Z" id="rect7850-6" inkscape:connector-curvature="0" sodipodi:nodetypes="ccccc"/>
      <path style="color:#000000;clip-rule:nonzero;display:block;overflow:visible;visibility:visible;opacity:1;isolation:auto;mix-blend-mode:normal;color-interpolation:sRGB;color-interpolation-filters:linearRGB;solid-color:#000000;solid-opacity:1;vector-effect:none;fill:#ffffff;fill-opacity:0.25654452;fill-rule:nonzero;stroke:none;stroke-width:0.17215496;stroke-linecap:butt;stroke-linejoin:miter;stroke-miterlimit:4;stroke-dasharray:none;stroke-dashoffset:0;stroke-opacity:0.07853406;marker:none;marker-start:none;marker-mid:none;marker-end:none;paint-order:fill markers stroke;color-rendering:auto;image-rendering:auto;shape-rendering:auto;text-rendering:auto;enable-background:accumulate" d="m 56,103 h 48.00461 v 0.9954 H 56 Z" id="rect7902-0" inkscape:connector-curvature="0" sodipodi:nodetypes="ccccc"/>
      <path style="font-size:medium;line-height:1000%;font-family:sans-serif;letter-spacing:0px;word-spacing:0px;display:inline;fill:#fefefe;fill-opacity:1;stroke:none;stroke-width:0.90824676px;stroke-linecap:butt;stroke-linejoin:miter;stroke-opacity:1" d="m 96.834179,58.0991 c -1.603623,0 -2.866236,0.491417 -3.78867,1.475349 -0.922435,0.979203 -1.384298,2.320604 -1.384298,4.023568 0,1.698233 0.461863,3.039634 1.384298,4.023566 0.922434,0.979204 2.185047,1.468755 3.78867,1.468755 0.624424,0 1.215397,-0.08571 1.773587,-0.256012 0.562927,-0.170298 1.095337,-0.426115 1.596754,-0.766703 v -1.49647 c -0.482501,0.449389 -0.997874,0.784554 -1.546606,1.006884 -0.544002,0.222331 -1.123002,0.333868 -1.737956,0.333868 -1.210998,0 -2.138447,-0.369225 -2.781791,-1.10718 -0.643343,-0.742677 -0.964656,-1.811228 -0.964656,-3.206708 0,-1.400217 0.321313,-2.468762 0.964656,-3.206711 0.643344,-0.742683 1.570793,-1.115091 2.781791,-1.115091 0.614954,0 1.193954,0.111531 1.737956,0.333869 0.548732,0.22233 1.064105,0.558805 1.546606,1.008202 V 59.105979 C 99.712561,58.770118 99.185208,58.519356 98.622287,58.353788 98.064089,58.183496 97.468062,58.0991 96.834179,58.0991 Z m -33.534553,0.191345 -4.04468,10.594028 h 1.5123 l 0.964657,-2.718449 h 4.774433 l 0.965975,2.718449 h 1.489868 L 64.924098,58.290445 Z m 13.484026,0 v 10.594028 h 3.803189 c 1.187338,0 2.102814,-0.257687 2.746157,-0.773304 0.643344,-0.515618 0.964656,-1.247141 0.964656,-2.193238 0,-0.71903 -0.195931,-1.316921 -0.588559,-1.794696 -0.3879,-0.482511 -0.934152,-0.800088 -1.638986,-0.951461 0.586574,-0.09461 1.031397,-0.333393 1.33415,-0.716564 0.302747,-0.383162 0.453951,-0.898537 0.453951,-1.546609 0,-0.837283 -0.295489,-1.483099 -0.886794,-1.937219 -0.591305,-0.454127 -1.434364,-0.680937 -2.527097,-0.680937 z m 1.433127,1.178434 h 2.121968 c 0.700106,0 1.220535,0.132306 1.561132,0.397209 0.345325,0.264911 0.517292,0.663687 0.517292,1.198229 0,0.539274 -0.171967,0.94124 -0.517292,1.206149 -0.340597,0.260173 -0.861026,0.390609 -1.561132,0.390609 h -2.121968 z m -14.108213,0.23358 1.951738,5.271937 h -3.895565 z m 14.108213,4.122536 h 2.2988 c 0.771063,0 1.341273,0.15813 1.710248,0.475066 0.37371,0.312212 0.560844,0.799898 0.560844,1.462159 0,0.657532 -0.187134,1.147077 -0.560844,1.468748 -0.368975,0.316942 -0.939185,0.475073 -1.710248,0.475073 h -2.2988 z M 63.299626,76.96064 c -0.425742,0 -0.863639,0.0479 -1.313036,0.142516 -0.44939,0.08988 -0.913118,0.227236 -1.390892,0.41173 v 1.20614 c 0.397351,-0.2176 0.811304,-0.380783 1.241775,-0.489584 0.430472,-0.1088 0.873423,-0.16363 1.32755,-0.16363 0.714293,0 1.267471,0.166366 1.660099,0.497503 0.397359,0.326402 0.59648,0.788812 0.59648,1.389576 v 0.128002 h -1.830336 c -1.187344,0 -2.082052,0.226802 -2.682816,0.68093 -0.596041,0.454126 -0.893395,1.128947 -0.893395,2.022999 0,0.766332 0.238789,1.3794 0.716563,1.83825 0.482504,0.454126 1.130185,0.680936 1.943821,0.680936 0.643342,0 1.187729,-0.11341 1.632391,-0.340469 0.444659,-0.231796 0.815755,-0.589034 1.113772,-1.071544 v 1.206147 h 1.305118 v -4.534266 c 0,-1.210992 -0.283517,-2.114495 -0.851166,-2.710529 -0.567658,-0.596034 -1.426431,-0.894707 -2.575928,-0.894707 z m 0.823452,4.144968 h 1.298524 v 0.290322 c 0,0.851478 -0.219891,1.535089 -0.659822,2.050707 -0.435201,0.510889 -1.01552,0.766711 -1.739279,0.766711 -0.525078,0 -0.940895,-0.135495 -1.24837,-0.405128 -0.302753,-0.274368 -0.453957,-0.643586 -0.453957,-1.107171 0,-0.581847 0.202851,-0.99261 0.609675,-1.233858 0.406817,-0.241256 1.13834,-0.361583 2.193229,-0.361583 z m -1.252335,10.466026 c -0.301282,0 -0.543624,0.103413 -0.725793,0.310111 -0.178671,0.206695 -0.267889,0.486774 -0.267889,0.840606 h 0.65718 v -0.0317 c 0,-0.157651 0.03419,-0.280592 0.104241,-0.368176 0.07006,-0.08757 0.168156,-0.130644 0.294279,-0.130644 0.04203,0 0.08998,0.0093 0.142524,0.03033 0.05607,0.01751 0.127508,0.05129 0.2151,0.100283 l 0.299558,0.174198 c 0.182169,0.09459 0.324644,0.155406 0.426242,0.183426 0.1051,0.02805 0.217391,0.04223 0.336501,0.04223 0.294283,0 0.529977,-0.103413 0.708646,-0.310112 0.182157,-0.210196 0.276694,-0.490274 0.28372,-0.840606 h -0.655857 v 0.03169 c 0,0.143638 -0.03547,0.259938 -0.105566,0.351022 -0.07007,0.08758 -0.161062,0.131962 -0.273165,0.131962 -0.05257,0 -0.109356,-0.01061 -0.168913,-0.03169 -0.05952,-0.02101 -0.129246,-0.05474 -0.209819,-0.100294 l -0.299556,-0.157036 c -0.168163,-0.0946 -0.305768,-0.155413 -0.414366,-0.183426 -0.1051,-0.02804 -0.220944,-0.04223 -0.347068,-0.04223 z m 0.22566,1.386933 -1.108496,1.397493 h 0.729759 l 0.872282,-0.935623 0.872274,0.935623 h 0.731077 L 64.08481,92.958567 Z m 0.54105,2.001885 c -0.882841,0 -1.585467,0.283633 -2.107457,0.851168 -0.518488,0.564035 -0.777263,1.328784 -0.777263,2.292199 0,0.931888 0.272977,1.670464 0.819492,2.216991 0.550022,0.54652 1.295254,0.81949 2.234142,0.81949 0.374859,0 0.74415,-0.0377 1.108497,-0.11481 0.364344,-0.077 0.719434,-0.18936 1.06626,-0.3365 v -0.914511 c -0.343319,0.182171 -0.689537,0.318001 -1.039871,0.409091 -0.346826,0.0911 -0.706793,0.13724 -1.078146,0.13724 -0.641106,0 -1.142218,-0.17311 -1.503063,-0.519939 -0.357346,-0.350328 -0.557083,-0.858546 -0.599109,-1.524181 h 4.445843 v -0.472429 c 0,-0.875827 -0.230371,-1.567798 -0.692807,-2.07578 -0.458938,-0.511484 -1.084768,-0.768029 -1.876518,-0.768029 z m 0.0105,0.819492 c 0.47645,0 0.858166,0.158448 1.145441,0.473748 0.290753,0.3153 0.44033,0.73653 0.447357,1.265532 l -3.448208,0.0054 c 0.04906,-0.553523 0.234579,-0.981854 0.556887,-1.286646 0.325806,-0.304781 0.759008,-0.45791 1.298523,-0.45791 z" id="path1054-6" inkscape:connector-curvature="0"/>
    </g>
  </g>
</svg>