<?xml version="1.0" encoding="UTF-8" standalone="yes"?>
<svg xmlns:dc="http://purl.org/dc/elements/1.1/" xmlns:cc="http://creativecommons.org/ns#" xmlns:rdf="http://www.w3.org/1999/02/22-rdf-syntax-ns#" xmlns:svg="http://www.w3.org/2000/svg" xmlns="http://www.w3.org/2000/svg" xmlns:xlink="http://www.w3.org/1999/xlink" xmlns:sodipodi="http://sodipodi.sourceforge.net/DTD/sodipodi-0.dtd" xmlns:inkscape="http://www.inkscape.org/namespaces/inkscape" height="64" viewBox="0 0 64 64" width="64" id="svg2" version="1.1" inkscape:version="0.92.1 r" sodipodi:docname="blender.svg" enable-background="new" folder="64">
  <title id="title4675">Template icons dark</title>
  <metadata id="metadata24">
    <rdf:RDF>
      <cc:Work rdf:about="">
        <dc:format>image/svg+xml</dc:format>
        <dc:type rdf:resource="http://purl.org/dc/dcmitype/StillImage"/>
        <dc:title>Template icons dark</dc:title>
        <dc:date>17/05/13</dc:date>
        <dc:creator>
          <cc:Agent>
            <dc:title>wfpaisa</dc:title>
          </cc:Agent>
        </dc:creator>
        <dc:rights>
          <cc:Agent>
            <dc:title>License: GPLv3</dc:title>
          </cc:Agent>
        </dc:rights>
        <dc:language>es-en</dc:language>
        <dc:subject>
          <rdf:Bag>
            <rdf:li>plane-icon-theme</rdf:li>
          </rdf:Bag>
        </dc:subject>
        <dc:description>Template for create set icons</dc:description>
        <cc:license rdf:resource="https://www.gnu.org/licenses/gpl-3.0.en.html"/>
      </cc:Work>
    </rdf:RDF>
  </metadata>
  <defs id="defs22">
    <linearGradient inkscape:collect="always" xlink:href="#linearGradient8666" id="linearGradient8856-9" gradientUnits="userSpaceOnUse" x1="213.2054" y1="165.99998" x2="213.2054" y2="261.88123" gradientTransform="matrix(0.0851244,0,0,0.0851244,-58.753023,-59.09931)"/>
    <linearGradient inkscape:collect="always" id="linearGradient8666">
      <stop style="stop-color:#fbfbfb;stop-opacity:1" offset="0" id="stop8662"/>
      <stop style="stop-color:#cfcfcf;stop-opacity:1" offset="1" id="stop8664"/>
    </linearGradient>
    <linearGradient inkscape:collect="always" xlink:href="#linearGradient8633" id="linearGradient8858-4" gradientUnits="userSpaceOnUse" gradientTransform="matrix(0.49771961,0,0,0.49771961,-55.728848,-55.747898)" x1="2.133321" y1="1.424881" x2="45.916695" y2="45.208263"/>
    <linearGradient id="linearGradient8633">
      <stop id="stop8629" offset="0" style="stop-color:#ff8545;stop-opacity:1"/>
      <stop style="stop-color:#f47200;stop-opacity:1" offset="0.52534759" id="stop8672"/>
      <stop id="stop8631" offset="1" style="stop-color:#ffa04d;stop-opacity:1"/>
    </linearGradient>
    <linearGradient inkscape:collect="always" xlink:href="#linearGradient8633" id="linearGradient8858-9" gradientUnits="userSpaceOnUse" gradientTransform="matrix(1.0443701,0,0,1.0443701,-1.0115932,-0.51698865)" x1="2.133321" y1="1.424881" x2="45.916695" y2="45.208263"/>
    <linearGradient inkscape:collect="always" xlink:href="#linearGradient8666" id="linearGradient8856-4" gradientUnits="userSpaceOnUse" x1="213.2054" y1="165.99998" x2="213.2054" y2="261.88123" gradientTransform="matrix(0.17861737,0,0,0.17861737,-7.3572502,-7.5492915)"/>
    <linearGradient inkscape:collect="always" xlink:href="#linearGradient8782" id="linearGradient8784-0" x1="214" y1="191.32283" x2="214" y2="237.51836" gradientUnits="userSpaceOnUse" gradientTransform="matrix(0.18867359,0,0,0.18867359,-9.501418,-9.6916253)"/>
    <linearGradient inkscape:collect="always" id="linearGradient8782">
      <stop style="stop-color:#2c60d3;stop-opacity:0.609375" offset="0" id="stop8778"/>
      <stop style="stop-color:#2c60d3;stop-opacity:0;" offset="1" id="stop8780"/>
    </linearGradient>
    <linearGradient inkscape:collect="always" xlink:href="#linearGradient8807" id="linearGradient8809-7" x1="164.30165" y1="206.35252" x2="230" y2="226.22047" gradientUnits="userSpaceOnUse" gradientTransform="matrix(0.17861737,0,0,0.17861737,-7.3266944,-7.4270692)"/>
    <linearGradient id="linearGradient8807">
      <stop style="stop-color:#000000;stop-opacity:0.28947368;" offset="0" id="stop8803"/>
      <stop style="stop-color:#c1c1c1;stop-opacity:0;" offset="1" id="stop8805"/>
    </linearGradient>
    <linearGradient inkscape:collect="always" xlink:href="#linearGradient8807" id="linearGradient8813-2" gradientUnits="userSpaceOnUse" x1="164.30165" y1="206.35252" x2="230" y2="226.22047" gradientTransform="matrix(-0.12630154,-0.12630154,0.12630154,-0.12630154,30.59004,84.501919)"/>
    <linearGradient inkscape:collect="always" xlink:href="#linearGradient8807" id="linearGradient8817-7" gradientUnits="userSpaceOnUse" gradientTransform="matrix(-0.12630154,0.12630154,-0.12630154,-0.12630154,84.594033,30.596683)" x1="164.30165" y1="206.35252" x2="230" y2="226.22047"/>
    <linearGradient gradientTransform="matrix(0.18280347,0,0,0.18280347,-7.8761359,-8.0701603)" inkscape:collect="always" xlink:href="#linearGradient8930" id="linearGradient8884-2" x1="153.6378" y1="71.999992" x2="250.77165" y2="141.16536" gradientUnits="userSpaceOnUse"/>
    <linearGradient id="linearGradient8930">
      <stop id="stop8926" offset="0" style="stop-color:#da6607;stop-opacity:0.35526314;"/>
      <stop id="stop8928" offset="1" style="stop-color:#ffffff;stop-opacity:0.24342105;"/>
    </linearGradient>
    <linearGradient inkscape:collect="always" xlink:href="#linearGradient8971" id="linearGradient8973-1" x1="196" y1="124.12598" x2="156.07875" y2="61.999989" gradientUnits="userSpaceOnUse" gradientTransform="matrix(0.17226839,0,0,0.17226839,-6.0388642,-6.220389)"/>
    <linearGradient inkscape:collect="always" id="linearGradient8971">
      <stop style="stop-color:#763704;stop-opacity:1;" offset="0" id="stop8967"/>
      <stop style="stop-color:#763704;stop-opacity:0;" offset="1" id="stop8969"/>
    </linearGradient>
    <linearGradient inkscape:collect="always" xlink:href="#linearGradient8971" id="linearGradient8977-1" gradientUnits="userSpaceOnUse" x1="196" y1="124.12598" x2="156.07875" y2="61.999989" gradientTransform="matrix(0.12181216,-0.12181216,0.12181216,0.12181216,-21.499412,30.416447)"/>
    <linearGradient inkscape:collect="always" xlink:href="#linearGradient8971" id="linearGradient8981-5" gradientUnits="userSpaceOnUse" gradientTransform="matrix(0,-0.17226839,0.17226839,0,-6.0223935,66.782322)" x1="196" y1="124.12598" x2="156.07875" y2="61.999989"/>
    <linearGradient inkscape:collect="always" xlink:href="#linearGradient8633" id="linearGradient8858-4-5" gradientUnits="userSpaceOnUse" gradientTransform="matrix(0.69227462,0,0,0.69227462,-32.429545,-33.818398)" x1="2.133321" y1="1.424881" x2="45.916695" y2="45.208263"/>
    <linearGradient inkscape:collect="always" xlink:href="#linearGradient8666" id="linearGradient8856-9-1" gradientUnits="userSpaceOnUse" x1="213.2054" y1="165.99998" x2="213.2054" y2="261.88123" gradientTransform="matrix(0.11839891,0,0,0.11839891,-36.635848,-38.479853)"/>
    <linearGradient inkscape:collect="always" xlink:href="#linearGradient8633" id="linearGradient8858-9-0" gradientUnits="userSpaceOnUse" gradientTransform="matrix(1.3924931,0,0,1.3924931,46.454761,47.434085)" x1="2.133321" y1="1.424881" x2="45.916695" y2="45.208263"/>
    <linearGradient inkscape:collect="always" xlink:href="#linearGradient8666" id="linearGradient8856-4-1" gradientUnits="userSpaceOnUse" x1="213.2054" y1="165.99998" x2="213.2054" y2="261.88123" gradientTransform="matrix(0.23815643,0,0,0.23815643,37.993887,38.057684)"/>
    <linearGradient inkscape:collect="always" xlink:href="#linearGradient8782" id="linearGradient8784-0-9" x1="214" y1="191.32283" x2="214" y2="237.51836" gradientUnits="userSpaceOnUse" gradientTransform="matrix(0.25156472,0,0,0.25156472,35.134997,35.201239)"/>
    <linearGradient inkscape:collect="always" xlink:href="#linearGradient8807" id="linearGradient8809-7-2" x1="164.30165" y1="206.35252" x2="230" y2="226.22047" gradientUnits="userSpaceOnUse" gradientTransform="matrix(0.23815643,0,0,0.23815643,38.034629,38.220646)"/>
    <linearGradient inkscape:collect="always" xlink:href="#linearGradient8807" id="linearGradient8813-2-5" gradientUnits="userSpaceOnUse" x1="164.30165" y1="206.35252" x2="230" y2="226.22047" gradientTransform="matrix(-0.16840201,-0.16840201,0.16840201,-0.16840201,88.590261,160.7926)"/>
    <linearGradient inkscape:collect="always" xlink:href="#linearGradient8807" id="linearGradient8817-7-9" gradientUnits="userSpaceOnUse" gradientTransform="matrix(-0.16840201,0.16840201,-0.16840201,-0.16840201,160.59557,88.91897)" x1="164.30165" y1="206.35252" x2="230" y2="226.22047"/>
    <linearGradient gradientTransform="matrix(0.2437379,0,0,0.2437379,37.302041,37.363192)" inkscape:collect="always" xlink:href="#linearGradient8930" id="linearGradient8884-2-2" x1="153.6378" y1="71.999992" x2="250.77165" y2="141.16536" gradientUnits="userSpaceOnUse"/>
    <linearGradient inkscape:collect="always" xlink:href="#linearGradient8971" id="linearGradient8973-1-9" x1="196" y1="124.12598" x2="156.07875" y2="61.999989" gradientUnits="userSpaceOnUse" gradientTransform="matrix(0.22969113,0,0,0.22969113,39.751735,39.829553)"/>
    <linearGradient inkscape:collect="always" xlink:href="#linearGradient8971" id="linearGradient8977-1-6" gradientUnits="userSpaceOnUse" x1="196" y1="124.12598" x2="156.07875" y2="61.999989" gradientTransform="matrix(0.16241617,-0.16241617,0.16241617,0.16241617,19.137676,88.678655)"/>
    <linearGradient inkscape:collect="always" xlink:href="#linearGradient8971" id="linearGradient8981-5-1" gradientUnits="userSpaceOnUse" gradientTransform="matrix(0,-0.22969113,0.22969113,0,39.773696,137.16648)" x1="196" y1="124.12598" x2="156.07875" y2="61.999989"/>
    <linearGradient inkscape:collect="always" xlink:href="#linearGradient8633" id="linearGradient8858-9-0-5" gradientUnits="userSpaceOnUse" gradientTransform="matrix(2.0887397,0,0,2.0887397,109.9948,110.85959)" x1="2.133321" y1="1.424881" x2="45.916695" y2="45.208263"/>
    <linearGradient inkscape:collect="always" xlink:href="#linearGradient8666" id="linearGradient8856-4-1-5" gradientUnits="userSpaceOnUse" x1="213.2054" y1="165.99998" x2="213.2054" y2="261.88123" gradientTransform="matrix(0.35723465,0,0,0.35723465,97.303485,96.794988)"/>
    <linearGradient inkscape:collect="always" xlink:href="#linearGradient8782" id="linearGradient8784-0-9-3" x1="214" y1="191.32283" x2="214" y2="237.51836" gradientUnits="userSpaceOnUse" gradientTransform="matrix(0.37734708,0,0,0.37734708,93.01515,92.510328)"/>
    <linearGradient inkscape:collect="always" xlink:href="#linearGradient8807" id="linearGradient8809-7-2-5" x1="164.30165" y1="206.35252" x2="230" y2="226.22047" gradientUnits="userSpaceOnUse" gradientTransform="matrix(0.35723465,0,0,0.35723465,97.364595,97.039428)"/>
    <linearGradient inkscape:collect="always" xlink:href="#linearGradient8807" id="linearGradient8813-2-5-4" gradientUnits="userSpaceOnUse" x1="164.30165" y1="206.35252" x2="230" y2="226.22047" gradientTransform="matrix(-0.25260302,-0.25260302,0.25260302,-0.25260302,173.19805,280.89737)"/>
    <linearGradient inkscape:collect="always" xlink:href="#linearGradient8807" id="linearGradient8817-7-9-7" gradientUnits="userSpaceOnUse" gradientTransform="matrix(-0.25260302,0.25260302,-0.25260302,-0.25260302,281.206,173.08692)" x1="164.30165" y1="206.35252" x2="230" y2="226.22047"/>
    <linearGradient gradientTransform="matrix(0.36560685,0,0,0.36560685,96.265725,95.753253)" inkscape:collect="always" xlink:href="#linearGradient8930" id="linearGradient8884-2-2-4" x1="153.6378" y1="71.999992" x2="250.77165" y2="141.16536" gradientUnits="userSpaceOnUse"/>
    <linearGradient inkscape:collect="always" xlink:href="#linearGradient8971" id="linearGradient8973-1-9-0" x1="196" y1="124.12598" x2="156.07875" y2="61.999989" gradientUnits="userSpaceOnUse" gradientTransform="matrix(0.3445367,0,0,0.3445367,99.94026,99.45279)"/>
    <linearGradient inkscape:collect="always" xlink:href="#linearGradient8971" id="linearGradient8977-1-6-6" gradientUnits="userSpaceOnUse" x1="196" y1="124.12598" x2="156.07875" y2="61.999989" gradientTransform="matrix(0.24362425,-0.24362425,0.24362425,0.24362425,69.019172,172.72644)"/>
    <linearGradient inkscape:collect="always" xlink:href="#linearGradient8971" id="linearGradient8981-5-1-8" gradientUnits="userSpaceOnUse" gradientTransform="matrix(0,-0.3445367,0.3445367,0,99.9732,245.45819)" x1="196" y1="124.12598" x2="156.07875" y2="61.999989"/>
    <linearGradient inkscape:collect="always" xlink:href="#linearGradient8633" id="linearGradient8858-9-0-7" gradientUnits="userSpaceOnUse" gradientTransform="matrix(2.7849862,0,0,2.7849862,204.97078,206.15322)" x1="2.133321" y1="1.424881" x2="45.916695" y2="45.208263"/>
    <linearGradient inkscape:collect="always" xlink:href="#linearGradient8666" id="linearGradient8856-4-1-2" gradientUnits="userSpaceOnUse" x1="213.2054" y1="165.99998" x2="213.2054" y2="261.88123" gradientTransform="matrix(0.47631286,0,0,0.47631286,188.04904,187.4004)"/>
    <linearGradient inkscape:collect="always" xlink:href="#linearGradient8782" id="linearGradient8784-0-9-0" x1="214" y1="191.32283" x2="214" y2="237.51836" gradientUnits="userSpaceOnUse" gradientTransform="matrix(0.50312944,0,0,0.50312944,182.33126,181.68752)"/>
    <linearGradient inkscape:collect="always" xlink:href="#linearGradient8807" id="linearGradient8809-7-2-59" x1="164.30165" y1="206.35252" x2="230" y2="226.22047" gradientUnits="userSpaceOnUse" gradientTransform="matrix(0.47631286,0,0,0.47631286,188.13052,187.72634)"/>
    <linearGradient inkscape:collect="always" xlink:href="#linearGradient8807" id="linearGradient8813-2-5-0" gradientUnits="userSpaceOnUse" x1="164.30165" y1="206.35252" x2="230" y2="226.22047" gradientTransform="matrix(-0.33680402,-0.33680402,0.33680402,-0.33680402,289.24178,432.87024)"/>
    <linearGradient inkscape:collect="always" xlink:href="#linearGradient8807" id="linearGradient8817-7-9-9" gradientUnits="userSpaceOnUse" gradientTransform="matrix(-0.33680402,0.33680402,-0.33680402,-0.33680402,433.2524,289.12298)" x1="164.30165" y1="206.35252" x2="230" y2="226.22047"/>
    <linearGradient gradientTransform="matrix(0.4874758,0,0,0.4874758,186.66534,186.01142)" inkscape:collect="always" xlink:href="#linearGradient8930" id="linearGradient8884-2-2-1" x1="153.6378" y1="71.999992" x2="250.77165" y2="141.16536" gradientUnits="userSpaceOnUse"/>
    <linearGradient inkscape:collect="always" xlink:href="#linearGradient8971" id="linearGradient8973-1-9-1" x1="196" y1="124.12598" x2="156.07875" y2="61.999989" gradientUnits="userSpaceOnUse" gradientTransform="matrix(0.45938226,0,0,0.45938226,191.56472,190.94414)"/>
    <linearGradient inkscape:collect="always" xlink:href="#linearGradient8971" id="linearGradient8977-1-6-9" gradientUnits="userSpaceOnUse" x1="196" y1="124.12598" x2="156.07875" y2="61.999989" gradientTransform="matrix(0.32483234,-0.32483234,0.32483234,0.32483234,150.33662,288.64236)"/>
    <linearGradient inkscape:collect="always" xlink:href="#linearGradient8971" id="linearGradient8981-5-1-7" gradientUnits="userSpaceOnUse" gradientTransform="matrix(0,-0.45938226,0.45938226,0,191.60866,385.618)" x1="196" y1="124.12598" x2="156.07875" y2="61.999989"/>
    <filter inkscape:collect="always" style="color-interpolation-filters:sRGB" id="filter8868-6" x="-0.011991367" width="1.0239826" y="-0.012008646" height="1.0240173">
      <feGaussianBlur inkscape:collect="always" stdDeviation="1.2464968" id="feGaussianBlur8870-8"/>
    </filter>
    <filter inkscape:collect="always" style="color-interpolation-filters:sRGB" id="filter8868-6-3" x="-0.011991367" width="1.0239826" y="-0.012008646" height="1.0240173">
      <feGaussianBlur inkscape:collect="always" stdDeviation="1.2464968" id="feGaussianBlur8870-8-6"/>
    </filter>
    <filter inkscape:collect="always" style="color-interpolation-filters:sRGB" id="filter8868-6-3-1" x="-0.011991367" width="1.0239826" y="-0.012008646" height="1.0240173">
      <feGaussianBlur inkscape:collect="always" stdDeviation="1.2464968" id="feGaussianBlur8870-8-6-5"/>
    </filter>
    <filter inkscape:collect="always" style="color-interpolation-filters:sRGB" id="filter8868-6-3-7" x="-0.011991367" width="1.0239826" y="-0.012008646" height="1.0240173">
      <feGaussianBlur inkscape:collect="always" stdDeviation="1.2464968" id="feGaussianBlur8870-8-6-1"/>
    </filter>
  </defs>
  <sodipodi:namedview pagecolor="#383c4a" bordercolor="#ffffff" borderopacity="0.62745098" objecttolerance="4" gridtolerance="10" guidetolerance="4" inkscape:pageopacity="0" inkscape:pageshadow="2" inkscape:window-width="640" inkscape:window-height="480" id="namedview20" showgrid="true" inkscape:zoom="16.386532" inkscape:cx="-50.133191" inkscape:cy="102.20575" inkscape:current-layer="layer6" inkscape:snap-smooth-nodes="false" showguides="true" borderlayer="true" inkscape:showpageshadow="false" inkscape:guide-bbox="true" guidecolor="#bd4fff" guideopacity="0.78431373" inkscape:snap-nodes="true" inkscape:lockguides="false" fit-margin-top="0" fit-margin-left="0" fit-margin-right="0" fit-margin-bottom="0" guidehicolor="#ff0101" guidehiopacity="0.78431373" inkscape:snap-page="true" inkscape:object-nodes="true" inkscape:snap-bbox="true" inkscape:snap-global="true" inkscape:snap-object-midpoints="false" inkscape:snap-bbox-edge-midpoints="false">
    <inkscape:grid type="xygrid" id="grid4171" empspacing="4" dotted="false" originx="2.7755576e-17" originy="0" spacingx="1" spacingy="1" color="#5a5a5a" opacity="0.23529412" empcolor="#5a5a5a" empopacity="0.47058824" visible="true"/>
    <inkscape:grid type="axonomgrid" id="grid4699" units="mm" empspacing="4" color="#5a5a5a" opacity="0.23529412" empcolor="#5a5a5a" empopacity="0.47058824" gridanglex="45" gridanglez="45" spacingy="3.7795276" visible="false" originx="1.3228346" originy="1.3228346"/>
    <sodipodi:guide position="48,0" orientation="1,0" id="guide4568" inkscape:locked="false" inkscape:label="" inkscape:color="rgb(189,79,255)"/>
    <sodipodi:guide position="111.99996,-3.9999999e-05" orientation="0,1" id="guide4570" inkscape:locked="false" inkscape:label="" inkscape:color="rgb(189,79,255)"/>
    <sodipodi:guide position="0,0" orientation="1,0" id="guide4572" inkscape:locked="false" inkscape:label="" inkscape:color="rgb(189,79,255)"/>
    <sodipodi:guide position="0,48" orientation="0,1" id="guide4574" inkscape:locked="false" inkscape:label="" inkscape:color="rgb(189,79,255)"/>
    <sodipodi:guide position="0,80" orientation="0,1" id="guide4576" inkscape:locked="false" inkscape:label="" inkscape:color="rgb(189,79,255)"/>
    <sodipodi:guide position="-32,48" orientation="1,0" id="guide4578" inkscape:locked="false" inkscape:label="" inkscape:color="rgb(189,79,255)"/>
    <sodipodi:guide position="-32,104" orientation="0,1" id="guide4580" inkscape:locked="false" inkscape:label="" inkscape:color="rgb(189,79,255)"/>
    <sodipodi:guide position="-56,80" orientation="1,0" id="guide4582" inkscape:locked="false" inkscape:label="" inkscape:color="rgb(189,79,255)"/>
    <sodipodi:guide position="48,-64" orientation="0,1" id="guide4584" inkscape:locked="false" inkscape:label="" inkscape:color="rgb(189,79,255)"/>
    <sodipodi:guide position="0,0" orientation="-0.70710678,0.70710678" id="guide4588" inkscape:locked="false" inkscape:label="" inkscape:color="rgb(189,79,255)"/>
    <sodipodi:guide position="-56,80" orientation="-0.70710678,0.70710678" id="guide4573" inkscape:locked="false" inkscape:label="" inkscape:color="rgb(189,79,255)"/>
    <sodipodi:guide position="-32,48" orientation="-0.70710678,0.70710678" id="guide4575" inkscape:locked="false" inkscape:label="" inkscape:color="rgb(189,79,255)"/>
    <sodipodi:guide position="48,-64" orientation="-0.70710678,0.70710678" id="guide4577" inkscape:locked="false" inkscape:label="" inkscape:color="rgb(189,79,255)"/>
    <sodipodi:guide position="47.999962,0" orientation="0.70710678,0.70710678" id="guide4697" inkscape:locked="false" inkscape:label="" inkscape:color="rgb(189,79,255)"/>
    <sodipodi:guide position="207.99995,-288" orientation="0,1" id="guide7833" inkscape:locked="false"/>
    <sodipodi:guide position="335.99994,-288" orientation="1,0" id="guide7835" inkscape:locked="false" inkscape:label="" inkscape:color="rgb(189,79,255)"/>
    <sodipodi:guide position="111.99996,-64" orientation="1,0" id="guide7915" inkscape:locked="false"/>
    <sodipodi:guide position="111.99996,-160" orientation="0,1" id="guide7917" inkscape:locked="false"/>
    <sodipodi:guide position="207.99996,-160" orientation="1,0" id="guide7919" inkscape:locked="false"/>
    <sodipodi:guide position="111.99996,-160" orientation="-0.70710678,0.70710678" id="guide7921" inkscape:locked="false" inkscape:label="" inkscape:color="rgb(189,79,255)"/>
    <sodipodi:guide position="207.99996,-288" orientation="-0.70710678,0.70710678" id="guide7923" inkscape:locked="false" inkscape:label="" inkscape:color="rgb(189,79,255)"/>
    <sodipodi:guide position="-72,104" orientation="1,0" id="guide7824" inkscape:locked="false"/>
    <sodipodi:guide position="-56,120" orientation="0,1" id="guide7826" inkscape:locked="false"/>
    <sodipodi:guide position="-72,104" orientation="-0.70710678,0.70710678" id="guide7828" inkscape:locked="false" inkscape:label="" inkscape:color="rgb(189,79,255)"/>
  </sodipodi:namedview>
  <g inkscape:groupmode="layer" id="g7907" inkscape:label="icon_64" style="display:inline" transform="translate(-48,-48)">
    <g inkscape:groupmode="layer" id="g7843" inkscape:label="frame" style="display:none">
      <rect inkscape:label="frame_64" y="48" x="48" height="64" width="64" id="rect7837" style="color:#000000;clip-rule:nonzero;display:inline;overflow:visible;visibility:visible;opacity:1;isolation:auto;mix-blend-mode:normal;color-interpolation:sRGB;color-interpolation-filters:linearRGB;solid-color:#000000;solid-opacity:1;vector-effect:none;fill:#000000;fill-opacity:1;fill-rule:nonzero;stroke:#ff24f7;stroke-width:0;stroke-linecap:square;stroke-linejoin:miter;stroke-miterlimit:4;stroke-dasharray:none;stroke-dashoffset:0;stroke-opacity:0.99481865;marker:none;marker-start:none;marker-mid:none;marker-end:none;paint-order:normal;color-rendering:auto;image-rendering:auto;shape-rendering:auto;text-rendering:auto;enable-background:accumulate"/>
      <text xml:space="preserve" style="font-size:16px;line-height:0%;font-family:sans-serif;letter-spacing:0px;word-spacing:0px;display:inline;opacity:1;fill:#ffffff;fill-opacity:1;stroke:none;stroke-width:0.03278551px;stroke-linecap:butt;stroke-linejoin:miter;stroke-opacity:1" x="69.816406" y="85.824219" id="text7841" inkscape:label="txt_64">
        <tspan sodipodi:role="line" x="69.816406" y="85.824219" style="font-size:16px;line-height:0%;fill:#ffffff;fill-opacity:1;stroke:none;stroke-width:0.03278551px" id="tspan7839">64</tspan>
      </text>
    </g>
    <g inkscape:groupmode="layer" id="g7905" inkscape:label="icon" style="display:inline">
      <path sodipodi:nodetypes="scccsscccsccccccsccccc" inkscape:connector-curvature="0" id="path8866-9-2" d="m 164.15165,51.022459 c -4.39592,0 -8.79217,1.683765 -12.16054,5.052123 -6.7367,6.736779 -6.7367,17.584297 0,24.321065 L 199.76788,128.1724 H 75.214104 c -9.527177,0 -17.196172,7.66901 -17.196172,17.19617 0,9.52712 7.668995,17.19618 17.196172,17.19618 17.90524,-0.0494 43.298866,-0.0556 67.616436,-0.0495 l -88.121625,88.12161 c -6.736779,6.73671 -6.736716,17.58434 0,24.32108 6.736716,6.73671 17.584353,6.73671 24.321066,0 12.934463,-13.00792 31.461609,-31.5437 49.031539,-49.10366 5.84024,42.53217 42.15746,74.2395 85.08871,74.28803 47.48813,-1.4e-4 85.98482,-38.49685 85.98498,-85.98497 -0.0238,-24.81357 -10.76598,-48.40712 -29.46592,-64.71742 -6.36599,-6.34936 -63.54227,-63.379025 -93.35917,-93.365366 -3.36835,-3.368359 -7.76256,-5.052123 -12.15847,-5.052123 z m 50.00939,142.675061 c 11.08341,1.1e-4 20.06828,8.98497 20.06838,20.06839 -1e-4,11.0834 -8.98497,20.06827 -20.06838,20.06837 -11.08342,-1e-4 -20.06828,-8.98497 -20.06838,-20.06837 1e-4,-11.08342 8.98496,-20.06828 20.06838,-20.06839 z" style="display:inline;opacity:1;fill:#000000;fill-opacity:0.203125;stroke:none;stroke-width:0.53740788;stroke-linecap:round;stroke-linejoin:round;stroke-miterlimit:4;stroke-dasharray:none;stroke-opacity:1;filter:url(#filter8868-6-3);enable-background:new" transform="matrix(0.22969112,0,0,0.22969112,39.751738,39.829554)"/>
      <path style="display:inline;opacity:1;fill:url(#linearGradient8858-9-0);fill-opacity:1;stroke:none;stroke-width:0.12132296;stroke-linecap:round;stroke-linejoin:round;stroke-miterlimit:4;stroke-dasharray:none;stroke-opacity:1;enable-background:new" d="m 77.496232,52.039142 c -0.992403,0 -1.984883,0.38012 -2.745312,1.140546 -1.520849,1.520866 -1.520849,3.969756 0,5.490621 L 85.536804,69.456185 H 57.418059 c -2.150816,0 -3.882135,1.731324 -3.882135,3.882135 0,2.150804 1.731319,3.882137 3.882135,3.882137 4.042213,-0.0112 9.774973,-0.01253 15.264809,-0.0112 L 52.788893,97.10326 c -1.520866,1.520851 -1.520853,3.96977 0,5.49062 1.520853,1.52086 3.969771,1.52086 5.490621,0 2.920032,-2.936608 7.102647,-7.121171 11.069162,-11.085431 1.318469,9.601881 9.517292,16.759991 19.209269,16.770951 10.720723,-2e-5 19.411585,-8.690884 19.411615,-19.411604 -0.005,-5.601806 -2.43048,-10.92819 -6.6521,-14.610333 C 99.880297,72.824058 86.972418,59.949284 80.241078,53.179692 79.480653,52.419266 78.488633,52.039146 77.496232,52.039146 Z M 88.786143,84.24886 c 2.502146,2.6e-5 4.530532,2.028408 4.530553,4.530555 -2.1e-5,2.502143 -2.028407,4.530531 -4.530553,4.530554 -2.502148,-2.3e-5 -4.530531,-2.028411 -4.530552,-4.530554 2.1e-5,-2.502147 2.028404,-4.530529 4.530552,-4.530555 z" id="circle4567-3-4-9" inkscape:connector-curvature="0" sodipodi:nodetypes="scccsscccsccccccsccccc"/>
      <path inkscape:connector-curvature="0" id="path8852-9-3" d="M 88.770057,73.880797 A 14.91361,14.91361 0 0 0 73.856613,88.794238 14.91361,14.91361 0 0 0 88.770057,103.70768 14.91361,14.91361 0 0 0 103.6835,88.794238 14.91361,14.91361 0 0 0 88.770057,73.880797 Z m 0,9.080649 a 5.832704,5.832704 0 0 1 5.832791,5.832792 5.832704,5.832704 0 0 1 -5.832791,5.832801 5.832704,5.832704 0 0 1 -5.832798,-5.832801 5.832704,5.832704 0 0 1 5.832798,-5.832792 z" style="display:inline;opacity:1;fill:#000000;fill-opacity:0.09895833;stroke:none;stroke-width:0.15535013;stroke-linecap:round;stroke-linejoin:round;stroke-miterlimit:4;stroke-dasharray:none;stroke-opacity:1;enable-background:new"/>
      <path style="display:inline;opacity:1;fill:url(#linearGradient8856-4-1);fill-opacity:1;stroke:none;stroke-width:0.12132296;stroke-linecap:round;stroke-linejoin:round;stroke-miterlimit:4;stroke-dasharray:none;stroke-opacity:1;enable-background:new" d="M 88.770057,77.132546 A 11.647004,11.647004 0 0 0 77.12318,88.779415 11.647004,11.647004 0 0 0 88.770057,100.42629 11.647004,11.647004 0 0 0 100.41694,88.779415 11.647004,11.647004 0 0 0 88.770057,77.132546 Z m 0,7.091662 a 4.5551361,4.5551361 0 0 1 4.555202,4.555207 4.5551361,4.5551361 0 0 1 -4.555202,4.555208 4.5551361,4.5551361 0 0 1 -4.555209,-4.555208 4.5551361,4.5551361 0 0 1 4.555209,-4.555207 z" id="circle4575-7-0-1" inkscape:connector-curvature="0"/>
      <path inkscape:connector-curvature="0" style="display:inline;opacity:0.88399999;fill:#f5eece;fill-opacity:0.671875;stroke:none;stroke-width:0.12132296;stroke-linecap:round;stroke-linejoin:round;stroke-miterlimit:4;stroke-dasharray:none;stroke-opacity:1;enable-background:new" d="m 77.4224,52.192894 c -0.992383,0 -1.984734,0.380289 -2.745155,1.140715 -0.791425,0.791424 -1.170142,1.834066 -1.13788,2.86649 0.0298,-0.951548 0.408447,-1.894418 1.13788,-2.623848 0.760421,-0.760426 1.752772,-1.140716 2.745155,-1.140716 0.992408,0 1.984752,0.38029 2.745177,1.140716 6.731325,6.769591 19.638918,19.644331 21.076073,21.077732 a 19.411674,19.411674 0 0 1 6.64717,14.510893 19.411674,19.411674 0 0 0 0.005,-0.143368 19.411674,19.411674 0 0 0 -6.65215,-14.610173 C 99.807035,72.977922 86.899445,60.103201 80.168114,53.333609 79.407692,52.573183 78.415345,52.192894 77.422946,52.192894 Z M 57.344641,69.609841 c -2.150819,0 -3.882341,1.73151 -3.882341,3.882327 0,0.04065 0.0013,0.08089 0.0028,0.121294 0.06377,-2.094115 1.769119,-3.761013 3.87926,-3.761013 h 28.118497 l -0.242643,-0.242644 z m 15.022007,7.99617 -19.65124,19.651238 c -0.791424,0.791421 -1.17014,1.834065 -1.137876,2.866501 0.0298,-0.951562 0.408447,-1.894416 1.137876,-2.623858 L 72.609293,77.606011 c -0.08147,-1.2e-5 -0.161067,2.7e-5 -0.242645,0 z" id="path4672-5-9-9"/>
      <path inkscape:connector-curvature="0" style="display:inline;opacity:1;fill:#000000;fill-opacity:0.55208333;stroke:none;stroke-width:0.12132296;stroke-linecap:round;stroke-linejoin:round;stroke-miterlimit:4;stroke-dasharray:none;stroke-opacity:1;enable-background:new" d="m 73.664656,55.919101 c -0.03231,1.032423 0.34645,2.075066 1.137876,2.86649 l 10.543246,10.543242 h 0.242655 L 74.802532,58.542947 C 74.0731,57.813519 73.694399,56.870648 73.664656,55.919101 Z M 53.590682,73.33249 c -0.0012,0.04037 -0.0028,0.08061 -0.0028,0.121293 0,2.150815 1.731525,3.882335 3.882342,3.882335 3.982223,-0.0112 9.606966,-0.01253 15.022004,-0.0112 l 0.242644,-0.242644 c -5.489832,-0.0012 -11.222437,-2.29e-4 -15.264648,0.0112 -2.110141,0 -3.815459,-1.6669 -3.879263,-3.761012 z M 108.01612,88.883862 A 19.411674,19.411674 0 0 1 88.60942,108.15218 19.411674,19.411674 0 0 1 69.400341,91.381412 c -3.966522,3.964257 -8.149262,8.148562 -11.069292,11.085178 -1.520853,1.52085 -3.969482,1.52085 -5.490335,0 -0.72943,-0.72943 -1.108146,-1.6723 -1.137875,-2.62385 -0.03231,1.03242 0.346452,2.07507 1.137875,2.86649 1.520853,1.52085 3.969482,1.52085 5.490335,0 2.92003,-2.936618 7.10277,-7.120921 11.069292,-11.085164 a 19.411674,19.411674 0 0 0 19.209079,16.770754 19.411674,19.411674 0 0 0 19.41168,-19.411676 19.411674,19.411674 0 0 0 -0.005,-0.09928 z" id="path4677-2-1-4"/>
      <path style="display:inline;opacity:1;fill:#000000;fill-opacity:0.57291667;stroke:none;stroke-width:0.12132296;stroke-linecap:round;stroke-linejoin:round;stroke-miterlimit:4;stroke-dasharray:none;stroke-opacity:1;enable-background:new" d="m 88.770057,77.132546 a 11.647004,11.647004 0 0 0 -11.646877,11.646869 11.647004,11.647004 0 0 0 0.0099,0.27816 11.647004,11.647004 0 0 1 11.637105,-11.448717 11.647004,11.647004 0 0 1 11.637105,11.366849 11.647004,11.647004 0 0 0 0.01,-0.196292 11.647004,11.647004 0 0 0 -11.646882,-11.646869 z" id="circle8657-7-7" inkscape:connector-curvature="0"/>
      <path inkscape:connector-curvature="0" id="path8670-7-8" d="m 88.715588,100.48092 a 11.647004,11.647004 0 0 0 11.646882,-11.646872 11.647004,11.647004 0 0 0 -0.01,-0.278162 11.647004,11.647004 0 0 1 -11.637107,11.448724 11.647004,11.647004 0 0 1 -11.637105,-11.366855 11.647004,11.647004 0 0 0 -0.0099,0.196293 11.647004,11.647004 0 0 0 11.646877,11.646872 z" style="display:inline;opacity:1;fill:#f4f4f4;fill-opacity:1;stroke:none;stroke-width:0.12132296;stroke-linecap:round;stroke-linejoin:round;stroke-miterlimit:4;stroke-dasharray:none;stroke-opacity:1;enable-background:new"/>
      <path style="display:inline;opacity:1;fill:url(#linearGradient8809-7-2);fill-opacity:1;stroke:none;stroke-width:0.12132296;stroke-linecap:round;stroke-linejoin:round;stroke-miterlimit:4;stroke-dasharray:none;stroke-opacity:1;enable-background:new" d="m 88.811003,77.539245 a 11.647004,11.647004 0 0 0 -11.646872,11.646875 11.647004,11.647004 0 0 0 0.875873,4.415662 l 7.087949,-7.087945 a 4.5551361,4.5551361 0 0 1 3.68305,-1.882928 4.5551361,4.5551361 0 0 1 4.555208,4.555211 4.5551361,4.5551361 0 0 1 -1.120082,2.987186 l 5.017101,5.017102 A 11.647004,11.647004 0 0 0 100.45788,89.18612 11.647004,11.647004 0 0 0 88.811003,77.539245 Z" id="path8794-1-5" inkscape:connector-curvature="0"/>
      <path inkscape:connector-curvature="0" id="path8811-5-0" d="m 80.488392,97.085842 a 11.647004,11.647004 0 0 0 16.471162,0 11.647004,11.647004 0 0 0 2.50301,-3.741683 H 89.438697 a 4.5551361,4.5551361 0 0 1 -3.935739,-1.272881 4.5551361,4.5551361 0 0 1 0,-6.442034 4.5551361,4.5551361 0 0 1 2.904276,-1.320245 v -7.095254 a 11.647004,11.647004 0 0 0 -7.918842,3.400929 11.647004,11.647004 0 0 0 0,16.471168 z" style="display:inline;opacity:1;fill:url(#linearGradient8813-2-5);fill-opacity:1;stroke:none;stroke-width:0.12132296;stroke-linecap:round;stroke-linejoin:round;stroke-miterlimit:4;stroke-dasharray:none;stroke-opacity:1;enable-background:new"/>
      <path style="display:inline;opacity:1;fill:url(#linearGradient8817-7-9);fill-opacity:1;stroke:none;stroke-width:0.12132296;stroke-linecap:round;stroke-linejoin:round;stroke-miterlimit:4;stroke-dasharray:none;stroke-opacity:1;enable-background:new" d="m 96.888817,97.02083 a 11.647004,11.647004 0 0 0 0,-16.47116 11.647004,11.647004 0 0 0 -3.741681,-2.503012 v 10.023868 a 4.5551361,4.5551361 0 0 1 -1.272882,3.935742 4.5551361,4.5551361 0 0 1 -6.442038,0 4.5551361,4.5551361 0 0 1 -1.320244,-2.904276 h -7.095254 a 11.647004,11.647004 0 0 0 3.400934,7.918838 11.647004,11.647004 0 0 0 16.471165,0 z" id="path8815-9-3" inkscape:connector-curvature="0"/>
      <path style="display:inline;opacity:1;fill:#000000;fill-opacity:0.484375;stroke:none;stroke-width:0.48825231;stroke-linecap:round;stroke-linejoin:round;stroke-miterlimit:4;stroke-dasharray:none;stroke-opacity:0.203125;enable-background:new" d="m 88.770057,73.880797 a 14.885931,14.885931 0 0 0 -14.885972,14.885969 14.885931,14.885931 0 0 0 0.01348,0.378516 14.885931,14.885931 0 0 1 14.872482,-14.617047 14.885931,14.885931 0 0 1 14.872483,14.506612 14.885931,14.885931 0 0 0 0.0135,-0.268081 14.885931,14.885931 0 0 0 -14.885973,-14.885969 z" id="circle8736-7-6" inkscape:connector-curvature="0"/>
      <path inkscape:connector-curvature="0" id="path8850-7-1" d="M 88.718993,104.15241 A 14.861983,14.861983 0 0 0 103.58102,89.290392 14.861983,14.861983 0 0 0 103.56753,88.912484 14.861983,14.861983 0 0 1 88.718972,103.50602 14.861983,14.861983 0 0 1 73.870421,89.022743 14.861983,14.861983 0 0 0 73.856941,89.290392 14.861983,14.861983 0 0 0 88.718963,104.15241 Z" style="display:inline;opacity:1;fill:#ffffff;fill-opacity:0.38020833;stroke:none;stroke-width:0.4874669;stroke-linecap:round;stroke-linejoin:round;stroke-miterlimit:4;stroke-dasharray:none;stroke-opacity:0.203125;enable-background:new"/>
      <path sodipodi:nodetypes="ccccccsc" inkscape:connector-curvature="0" id="path8876-3-3" d="m 77.3548,50.319455 c -1.053094,0 -2.106269,0.403367 -2.913202,1.210297 -1.613857,1.613876 -1.613857,4.212527 0,5.826402 l 11.445496,11.445486 16.745726,5.094899 c 0,0 -15.222318,-15.183196 -22.365312,-22.366781 -0.80693,-0.806931 -1.859615,-1.210297 -2.912708,-1.210297 z" style="display:none;opacity:1;fill:url(#linearGradient8884-2-2);fill-opacity:1;stroke:none;stroke-width:0.12874244;stroke-linecap:round;stroke-linejoin:round;stroke-miterlimit:4;stroke-dasharray:none;stroke-opacity:1;enable-background:new" inkscape:label="x"/>
      <path inkscape:label="x" style="display:inline;opacity:1;fill:url(#linearGradient8973-1-9);fill-opacity:1;stroke:none;stroke-width:0.12132296;stroke-linecap:round;stroke-linejoin:round;stroke-miterlimit:4;stroke-dasharray:none;stroke-opacity:1;enable-background:new" d="m 77.496232,52.039142 c -0.992403,0 -1.984883,0.38012 -2.745312,1.140546 -1.520849,1.520866 -1.520849,3.969756 0,5.490621 L 85.536804,69.456185 77.496232,52.039146 Z" id="path8965-6-2" inkscape:connector-curvature="0" sodipodi:nodetypes="cccccc"/>
      <path sodipodi:nodetypes="cccccc" inkscape:connector-curvature="0" id="path8975-5-0" d="m 54.460545,70.622752 c -0.701733,0.701738 -1.134739,1.67231 -1.13474,2.747718 1.3e-5,2.150819 1.731641,3.882445 3.882458,3.882452 l 15.253543,-10e-7 -18.001256,-6.630165 z" style="display:inline;opacity:1;fill:url(#linearGradient8977-1-6);fill-opacity:1;stroke:none;stroke-width:0.12132296;stroke-linecap:round;stroke-linejoin:round;stroke-miterlimit:4;stroke-dasharray:none;stroke-opacity:1;enable-background:new" inkscape:label="x"/>
      <path inkscape:label="x" style="display:inline;opacity:1;fill:url(#linearGradient8981-5-1);fill-opacity:1;stroke:none;stroke-width:0.12132296;stroke-linecap:round;stroke-linejoin:round;stroke-miterlimit:4;stroke-dasharray:none;stroke-opacity:1;enable-background:new" d="m 51.983289,99.421979 c 2e-6,0.992411 0.38012,1.984891 1.140545,2.745321 1.520869,1.52084 3.969761,1.52084 5.490623,-1e-5 L 69.400341,91.381412 51.983295,99.421979 Z" id="path8979-6-6" inkscape:connector-curvature="0" sodipodi:nodetypes="cccccc"/>
      <circle style="color:#000000;clip-rule:nonzero;display:block;overflow:visible;visibility:visible;opacity:1;isolation:auto;mix-blend-mode:normal;color-interpolation:sRGB;color-interpolation-filters:linearRGB;solid-color:#000000;solid-opacity:1;vector-effect:none;fill:url(#linearGradient8784-0-9);fill-opacity:1;fill-rule:nonzero;stroke:none;stroke-width:0.50312942;stroke-linecap:butt;stroke-linejoin:miter;stroke-miterlimit:4;stroke-dasharray:none;stroke-dashoffset:0;stroke-opacity:0.203125;marker:none;marker-start:none;marker-mid:none;marker-end:none;paint-order:fill markers stroke;color-rendering:auto;image-rendering:auto;shape-rendering:auto;text-rendering:auto;enable-background:accumulate" id="path8776-1-4" cx="88.773033" cy="88.793373" r="5.9622822"/>
      <circle r="9.4468594" cy="88.793373" cx="88.773033" id="circle8860-6-0" style="color:#000000;clip-rule:nonzero;display:block;overflow:visible;visibility:visible;opacity:1;isolation:auto;mix-blend-mode:normal;color-interpolation:sRGB;color-interpolation-filters:linearRGB;solid-color:#000000;solid-opacity:1;vector-effect:none;fill:none;fill-opacity:1;fill-rule:nonzero;stroke:#f4f4f4;stroke-width:0.13115363;stroke-linecap:butt;stroke-linejoin:miter;stroke-miterlimit:4;stroke-dasharray:none;stroke-dashoffset:0;stroke-opacity:1;marker:none;marker-start:none;marker-mid:none;marker-end:none;paint-order:fill markers stroke;color-rendering:auto;image-rendering:auto;shape-rendering:auto;text-rendering:auto;enable-background:accumulate"/>
      <circle style="color:#000000;clip-rule:nonzero;display:block;overflow:visible;visibility:visible;opacity:1;isolation:auto;mix-blend-mode:normal;color-interpolation:sRGB;color-interpolation-filters:linearRGB;solid-color:#000000;solid-opacity:1;vector-effect:none;fill:none;fill-opacity:1;fill-rule:nonzero;stroke:#f4f4f4;stroke-width:0.107674;stroke-linecap:butt;stroke-linejoin:miter;stroke-miterlimit:4;stroke-dasharray:none;stroke-dashoffset:0;stroke-opacity:1;marker:none;marker-start:none;marker-mid:none;marker-end:none;paint-order:fill markers stroke;color-rendering:auto;image-rendering:auto;shape-rendering:auto;text-rendering:auto;enable-background:accumulate" id="circle8864-7-6" cx="88.773033" cy="88.793373" r="7.7556438"/>
    </g>
  </g>
</svg>