<?xml version="1.0" encoding="UTF-8" standalone="yes"?>
<svg xmlns:dc="http://purl.org/dc/elements/1.1/" xmlns:cc="http://creativecommons.org/ns#" xmlns:rdf="http://www.w3.org/1999/02/22-rdf-syntax-ns#" xmlns:svg="http://www.w3.org/2000/svg" xmlns="http://www.w3.org/2000/svg" xmlns:xlink="http://www.w3.org/1999/xlink" xmlns:sodipodi="http://sodipodi.sourceforge.net/DTD/sodipodi-0.dtd" xmlns:inkscape="http://www.inkscape.org/namespaces/inkscape" height="64" viewBox="0 0 64 64" width="64" id="svg2" version="1.1" inkscape:version="0.92.2 5c3e80d, 2017-08-06" sodipodi:docname="filezilla.svg" enable-background="new" folder="64">
  <title id="title4675">Template icons dark</title>
  <metadata id="metadata24">
    <rdf:RDF>
      <cc:Work rdf:about="">
        <dc:format>image/svg+xml</dc:format>
        <dc:type rdf:resource="http://purl.org/dc/dcmitype/StillImage"/>
        <dc:title>Template icons dark</dc:title>
        <dc:date>17/05/13</dc:date>
        <dc:creator>
          <cc:Agent>
            <dc:title>wfpaisa</dc:title>
          </cc:Agent>
        </dc:creator>
        <dc:rights>
          <cc:Agent>
            <dc:title>License: GPLv3</dc:title>
          </cc:Agent>
        </dc:rights>
        <dc:language>es-en</dc:language>
        <dc:subject>
          <rdf:Bag>
            <rdf:li>plane-icon-theme</rdf:li>
          </rdf:Bag>
        </dc:subject>
        <dc:description>Template for create set icons</dc:description>
        <cc:license rdf:resource="https://www.gnu.org/licenses/gpl-3.0.en.html"/>
      </cc:Work>
    </rdf:RDF>
  </metadata>
  <defs id="defs22">
    <linearGradient id="linearGradient967" inkscape:collect="always">
      <stop id="stop963" offset="0" style="stop-color:#ffffff;stop-opacity:0.45604396"/>
      <stop id="stop965" offset="1" style="stop-color:#ffffff;stop-opacity:0"/>
    </linearGradient>
    <linearGradient inkscape:collect="always" id="linearGradient946">
      <stop style="stop-color:#c7c7c7;stop-opacity:1" offset="0" id="stop942"/>
      <stop style="stop-color:#ffffff;stop-opacity:0.98901099" offset="1" id="stop944"/>
    </linearGradient>
    <linearGradient inkscape:collect="always" id="linearGradient919">
      <stop style="stop-color:#a61f23;stop-opacity:1" offset="0" id="stop915"/>
      <stop style="stop-color:#ff4955;stop-opacity:1" offset="1" id="stop917"/>
    </linearGradient>
    <linearGradient inkscape:collect="always" id="linearGradient904">
      <stop style="stop-color:#88c1df;stop-opacity:1" offset="0" id="stop900"/>
      <stop style="stop-color:#f0f5f8;stop-opacity:1" offset="1" id="stop902"/>
    </linearGradient>
    <linearGradient inkscape:collect="always" xlink:href="#linearGradient904" id="linearGradient906" x1="170" y1="186" x2="170" y2="118" gradientUnits="userSpaceOnUse" gradientTransform="translate(-1,-1)"/>
    <linearGradient inkscape:collect="always" xlink:href="#linearGradient919" id="linearGradient921" x1="165.92126" y1="192" x2="159" y2="147.66142" gradientUnits="userSpaceOnUse" gradientTransform="matrix(1.5614379,0,0,1.5614379,-89.610624,-90.571879)"/>
    <linearGradient inkscape:collect="always" xlink:href="#linearGradient946" id="linearGradient948" x1="161" y1="192.39384" x2="161" y2="128.88977" gradientUnits="userSpaceOnUse"/>
    <linearGradient gradientUnits="userSpaceOnUse" y2="258.86499" y1="123.859" x2="187.94701" x1="187.94701" id="a" gradientTransform="matrix(0.26323921,0,0,0.26323073,141.52577,105.95773)">
      <stop id="stop2" stop-color="#BF0000" offset="0"/>
      <stop id="stop4" stop-color="#8F0000" offset="1"/>
    </linearGradient>
    <linearGradient inkscape:collect="always" xlink:href="#linearGradient904" id="linearGradient906-2-1" x1="170" y1="186" x2="170" y2="118" gradientUnits="userSpaceOnUse" gradientTransform="matrix(0.17631236,0,0,0.17631236,-92.513198,-91.862573)"/>
    <linearGradient inkscape:collect="always" xlink:href="#linearGradient919" id="linearGradient1101" gradientUnits="userSpaceOnUse" gradientTransform="matrix(1.8908949,0,0,1.8908949,-141.68152,-140.94084)" x1="165.92126" y1="192" x2="159" y2="147.66142"/>
    <linearGradient inkscape:collect="always" xlink:href="#linearGradient919" id="linearGradient1101-3" gradientUnits="userSpaceOnUse" gradientTransform="matrix(2.5148902,0,0,2.5148902,-129.84638,-129.25162)" x1="165.92126" y1="192" x2="159" y2="147.66142"/>
    <linearGradient inkscape:collect="always" xlink:href="#linearGradient904" id="linearGradient906-7" x1="170" y1="186" x2="170" y2="118" gradientUnits="userSpaceOnUse" gradientTransform="matrix(1.33,0,0,1.33,57.260035,56.869697)"/>
    <linearGradient inkscape:collect="always" xlink:href="#linearGradient919" id="linearGradient1101-2" gradientUnits="userSpaceOnUse" gradientTransform="matrix(1.3125166,0,0,1.3125166,-129.59549,-129.6902)" x1="165.92126" y1="192" x2="159" y2="147.66142"/>
    <linearGradient inkscape:collect="always" xlink:href="#linearGradient904" id="linearGradient906-76" x1="170" y1="186" x2="170" y2="118" gradientUnits="userSpaceOnUse" gradientTransform="matrix(0.69412459,0,0,0.69412459,-31.945027,-32.553825)"/>
    <linearGradient inkscape:collect="always" xlink:href="#linearGradient919" id="linearGradient1101-7" gradientUnits="userSpaceOnUse" gradientTransform="matrix(0.98439784,0,0,0.98439784,-133.17307,-133.22042)" x1="165.92126" y1="192" x2="159" y2="147.66142"/>
    <linearGradient inkscape:collect="always" xlink:href="#linearGradient904" id="linearGradient906-9" x1="170" y1="186" x2="170" y2="118" gradientUnits="userSpaceOnUse" gradientTransform="matrix(0.52059892,0,0,0.52059892,-59.934449,-60.367395)"/>
    <linearGradient inkscape:collect="always" xlink:href="#linearGradient919" id="linearGradient1101-27" gradientUnits="userSpaceOnUse" gradientTransform="matrix(0.65625833,0,0,0.65625833,-120.79765,-121.09694)" x1="165.92126" y1="192" x2="159" y2="147.66142"/>
    <linearGradient inkscape:collect="always" xlink:href="#linearGradient904" id="linearGradient906-1" x1="170" y1="186" x2="170" y2="118" gradientUnits="userSpaceOnUse" gradientTransform="matrix(0.3470623,0,0,0.3470623,-71.972378,-72.528771)"/>
    <linearGradient inkscape:collect="always" xlink:href="#linearGradient919" id="linearGradient1101-77" gradientUnits="userSpaceOnUse" gradientTransform="matrix(0.4921886,0,0,0.4921886,-122.62684,-122.69038)" x1="165.92126" y1="192" x2="159" y2="147.66142"/>
    <linearGradient inkscape:collect="always" xlink:href="#linearGradient904" id="linearGradient906-94" x1="170" y1="186" x2="170" y2="118" gradientUnits="userSpaceOnUse" gradientTransform="matrix(0.260294,0,0,0.260294,-86.008268,-86.264618)"/>
    <linearGradient inkscape:collect="always" xlink:href="#linearGradient919" id="linearGradient1101-77-6" gradientUnits="userSpaceOnUse" gradientTransform="matrix(0.25781096,0,0,0.25781096,-105.16377,-104.8453)" x1="165.92126" y1="192" x2="159" y2="147.66142"/>
    <radialGradient inkscape:collect="always" xlink:href="#linearGradient967" id="radialGradient961" cx="190.99977" cy="155.34175" fx="190.99977" fy="155.34175" r="45.37402" gradientTransform="matrix(0.75002159,0,0,0.58055928,45.746051,62.814905)" gradientUnits="userSpaceOnUse"/>
    <radialGradient inkscape:collect="always" xlink:href="#linearGradient967" id="radialGradient971" gradientUnits="userSpaceOnUse" gradientTransform="matrix(0.56451189,0,0,0.43696425,65.348655,86.110566)" cx="105.66889" cy="162.23166" fx="105.66889" fy="162.23166" r="45.37402"/>
    <radialGradient inkscape:collect="always" xlink:href="#linearGradient967" id="radialGradient971-2" gradientUnits="userSpaceOnUse" gradientTransform="matrix(0.75080081,0,0,0.58116245,145.50375,172.72675)" cx="105.66889" cy="162.23166" fx="105.66889" fy="162.23166" r="45.37402"/>
    <radialGradient inkscape:collect="always" xlink:href="#linearGradient967" id="radialGradient961-2" cx="190.99977" cy="155.34175" fx="190.99977" fy="155.34175" r="45.37402" gradientTransform="matrix(0.99752871,0,0,0.77214384,119.43229,141.74353)" gradientUnits="userSpaceOnUse"/>
    <radialGradient inkscape:collect="always" xlink:href="#linearGradient967" id="radialGradient971-1" gradientUnits="userSpaceOnUse" gradientTransform="matrix(0.39184158,0,0,0.30330763,14.109206,27.911761)" cx="105.66889" cy="162.23166" fx="105.66889" fy="162.23166" r="45.37402"/>
    <radialGradient inkscape:collect="always" xlink:href="#linearGradient967" id="radialGradient961-4" cx="190.99977" cy="155.34175" fx="190.99977" fy="155.34175" r="45.37402" gradientTransform="matrix(0.52060843,0,0,0.40298047,0.50255869,11.74167)" gradientUnits="userSpaceOnUse"/>
    <radialGradient inkscape:collect="always" xlink:href="#linearGradient967" id="radialGradient971-88" gradientUnits="userSpaceOnUse" gradientTransform="matrix(0.29388428,0,0,0.22748312,-25.393411,-15.017728)" cx="105.66889" cy="162.23166" fx="105.66889" fy="162.23166" r="45.37402"/>
    <radialGradient inkscape:collect="always" xlink:href="#linearGradient967" id="radialGradient961-14" cx="190.99977" cy="155.34175" fx="190.99977" fy="155.34175" r="45.37402" gradientTransform="matrix(0.39046043,0,0,0.30223853,-35.598505,-27.145424)" gradientUnits="userSpaceOnUse"/>
    <radialGradient inkscape:collect="always" xlink:href="#linearGradient967" id="radialGradient971-6" gradientUnits="userSpaceOnUse" gradientTransform="matrix(0.19592079,0,0,0.15165382,-48.94526,-42.295977)" cx="105.66889" cy="162.23166" fx="105.66889" fy="162.23166" r="45.37402"/>
    <radialGradient inkscape:collect="always" xlink:href="#linearGradient967" id="radialGradient961-6" cx="190.99977" cy="155.34175" fx="190.99977" fy="155.34175" r="45.37402" gradientTransform="matrix(0.26030422,0,0,0.20149024,-55.748586,-50.381025)" gradientUnits="userSpaceOnUse"/>
    <radialGradient inkscape:collect="always" xlink:href="#linearGradient967" id="radialGradient971-3" gradientUnits="userSpaceOnUse" gradientTransform="matrix(0.14693906,0,0,0.11373917,-68.738113,-63.590262)" cx="105.66889" cy="162.23166" fx="105.66889" fy="162.23166" r="45.37402"/>
    <radialGradient inkscape:collect="always" xlink:href="#linearGradient967" id="radialGradient961-63" cx="190.99977" cy="155.34175" fx="190.99977" fy="155.34175" r="45.37402" gradientTransform="matrix(0.19522612,0,0,0.1511161,-73.840552,-69.653983)" gradientUnits="userSpaceOnUse"/>
  </defs>
  <sodipodi:namedview pagecolor="#383c4a" bordercolor="#ffffff" borderopacity="0.62745098" objecttolerance="4" gridtolerance="10" guidetolerance="4" inkscape:pageopacity="0" inkscape:pageshadow="2" inkscape:window-width="640" inkscape:window-height="480" id="namedview20" showgrid="true" inkscape:zoom="16.386532" inkscape:cx="-45.388544" inkscape:cy="107.07527" inkscape:current-layer="layer6" inkscape:snap-smooth-nodes="false" showguides="true" borderlayer="true" inkscape:showpageshadow="false" inkscape:guide-bbox="true" guidecolor="#bd4fff" guideopacity="0.78431373" inkscape:snap-nodes="true" inkscape:lockguides="false" fit-margin-top="0" fit-margin-left="0" fit-margin-right="0" fit-margin-bottom="0" guidehicolor="#ff0101" guidehiopacity="0.78431373" inkscape:snap-page="true" inkscape:object-nodes="true" inkscape:snap-bbox="true" inkscape:snap-global="true" inkscape:snap-object-midpoints="false" inkscape:snap-bbox-edge-midpoints="false">
    <inkscape:grid type="xygrid" id="grid4171" empspacing="4" dotted="false" originx="2.7755576e-17" originy="0" spacingx="1" spacingy="1" color="#5a5a5a" opacity="0.23529412" empcolor="#5a5a5a" empopacity="0.47058824" visible="true"/>
    <inkscape:grid type="axonomgrid" id="grid4699" units="mm" empspacing="4" color="#5a5a5a" opacity="0.23529412" empcolor="#5a5a5a" empopacity="0.47058824" gridanglex="45" gridanglez="45" spacingy="3.7795276" visible="false" originx="1.3228346" originy="1.3228346"/>
    <sodipodi:guide position="48,0" orientation="1,0" id="guide4568" inkscape:locked="false" inkscape:label="" inkscape:color="rgb(189,79,255)"/>
    <sodipodi:guide position="111.99996,-3.9999999e-05" orientation="0,1" id="guide4570" inkscape:locked="false" inkscape:label="" inkscape:color="rgb(189,79,255)"/>
    <sodipodi:guide position="0,0" orientation="1,0" id="guide4572" inkscape:locked="false" inkscape:label="" inkscape:color="rgb(189,79,255)"/>
    <sodipodi:guide position="0,48" orientation="0,1" id="guide4574" inkscape:locked="false" inkscape:label="" inkscape:color="rgb(189,79,255)"/>
    <sodipodi:guide position="0,80" orientation="0,1" id="guide4576" inkscape:locked="false" inkscape:label="" inkscape:color="rgb(189,79,255)"/>
    <sodipodi:guide position="-32,48" orientation="1,0" id="guide4578" inkscape:locked="false" inkscape:label="" inkscape:color="rgb(189,79,255)"/>
    <sodipodi:guide position="-32,104" orientation="0,1" id="guide4580" inkscape:locked="false" inkscape:label="" inkscape:color="rgb(189,79,255)"/>
    <sodipodi:guide position="-56,80" orientation="1,0" id="guide4582" inkscape:locked="false" inkscape:label="" inkscape:color="rgb(189,79,255)"/>
    <sodipodi:guide position="48,-64" orientation="0,1" id="guide4584" inkscape:locked="false" inkscape:label="" inkscape:color="rgb(189,79,255)"/>
    <sodipodi:guide position="0,0" orientation="-0.70710678,0.70710678" id="guide4588" inkscape:locked="false" inkscape:label="" inkscape:color="rgb(189,79,255)"/>
    <sodipodi:guide position="-56,80" orientation="-0.70710678,0.70710678" id="guide4573" inkscape:locked="false" inkscape:label="" inkscape:color="rgb(189,79,255)"/>
    <sodipodi:guide position="-32,48" orientation="-0.70710678,0.70710678" id="guide4575" inkscape:locked="false" inkscape:label="" inkscape:color="rgb(189,79,255)"/>
    <sodipodi:guide position="48,-64" orientation="-0.70710678,0.70710678" id="guide4577" inkscape:locked="false" inkscape:label="" inkscape:color="rgb(189,79,255)"/>
    <sodipodi:guide position="47.999962,0" orientation="0.70710678,0.70710678" id="guide4697" inkscape:locked="false" inkscape:label="" inkscape:color="rgb(189,79,255)"/>
    <sodipodi:guide position="207.99995,-288" orientation="0,1" id="guide7833" inkscape:locked="false"/>
    <sodipodi:guide position="335.99994,-288" orientation="1,0" id="guide7835" inkscape:locked="false" inkscape:label="" inkscape:color="rgb(189,79,255)"/>
    <sodipodi:guide position="111.99996,-64" orientation="1,0" id="guide7915" inkscape:locked="false"/>
    <sodipodi:guide position="111.99996,-160" orientation="0,1" id="guide7917" inkscape:locked="false"/>
    <sodipodi:guide position="207.99996,-160" orientation="1,0" id="guide7919" inkscape:locked="false"/>
    <sodipodi:guide position="111.99996,-160" orientation="-0.70710678,0.70710678" id="guide7921" inkscape:locked="false" inkscape:label="" inkscape:color="rgb(189,79,255)"/>
    <sodipodi:guide position="207.99996,-288" orientation="-0.70710678,0.70710678" id="guide7923" inkscape:locked="false" inkscape:label="" inkscape:color="rgb(189,79,255)"/>
    <sodipodi:guide position="-72,104" orientation="1,0" id="guide7824" inkscape:locked="false"/>
    <sodipodi:guide position="-56,120" orientation="0,1" id="guide7826" inkscape:locked="false"/>
    <sodipodi:guide position="-72,104" orientation="-0.70710678,0.70710678" id="guide7828" inkscape:locked="false" inkscape:label="" inkscape:color="rgb(189,79,255)"/>
  </sodipodi:namedview>
  <g inkscape:groupmode="layer" id="g7907" inkscape:label="icon_64" style="display:inline" transform="translate(-48,-48)">
    <g inkscape:groupmode="layer" id="g7843" inkscape:label="frame" style="display:none">
      <rect inkscape:label="frame_64" y="48" x="48" height="64" width="64" id="rect7837" style="color:#000000;clip-rule:nonzero;display:inline;overflow:visible;visibility:visible;opacity:1;isolation:auto;mix-blend-mode:normal;color-interpolation:sRGB;color-interpolation-filters:linearRGB;solid-color:#000000;solid-opacity:1;vector-effect:none;fill:#000000;fill-opacity:1;fill-rule:nonzero;stroke:#ff24f7;stroke-width:0;stroke-linecap:square;stroke-linejoin:miter;stroke-miterlimit:4;stroke-dasharray:none;stroke-dashoffset:0;stroke-opacity:0.99481865;marker:none;marker-start:none;marker-mid:none;marker-end:none;paint-order:normal;color-rendering:auto;image-rendering:auto;shape-rendering:auto;text-rendering:auto;enable-background:accumulate"/>
      <text xml:space="preserve" style="font-size:16px;line-height:0%;font-family:sans-serif;letter-spacing:0px;word-spacing:0px;display:inline;opacity:1;fill:#ffffff;fill-opacity:1;stroke:none;stroke-width:0.03278551px;stroke-linecap:butt;stroke-linejoin:miter;stroke-opacity:1" x="69.816406" y="85.824219" id="text7841" inkscape:label="txt_64">
        <tspan sodipodi:role="line" x="69.816406" y="85.824219" style="font-size:16px;line-height:0%;fill:#ffffff;fill-opacity:1;stroke:none;stroke-width:0.03278551px" id="tspan7839">64</tspan>
      </text>
    </g>
    <g inkscape:groupmode="layer" id="g7905" inkscape:label="icon" style="display:inline">
      <path inkscape:connector-curvature="0" id="path908-9" d="m 80.726852,49.183413 a 18.101001,18.101001 0 0 0 -17.319227,12.854861 18.101001,18.101001 0 0 0 -14.8708,17.801859 18.101001,18.101001 0 0 0 7.31542,14.510184 c 2.444832,2.226155 5.688087,3.591283 9.27036,3.591283 h 1.515684 26.788871 1.068299 c 2.538853,0 4.904603,-0.691716 6.942651,-1.88037 A 18.101001,18.101001 0 0 0 111.52731,79.840133 18.101001,18.101001 0 0 0 98.149111,62.38805 18.101001,18.101001 0 0 0 80.726852,49.183413 Z" style="color:#000000;clip-rule:nonzero;display:block;overflow:visible;visibility:visible;opacity:1;isolation:auto;mix-blend-mode:normal;color-interpolation:sRGB;color-interpolation-filters:linearRGB;solid-color:#000000;solid-opacity:1;vector-effect:none;fill:none;fill-opacity:1;fill-rule:nonzero;stroke:#000000;stroke-width:1.0092572;stroke-linecap:round;stroke-linejoin:miter;stroke-miterlimit:4;stroke-dasharray:none;stroke-dashoffset:0;stroke-opacity:0.06593407;marker:none;marker-start:none;marker-mid:none;marker-end:none;paint-order:markers stroke fill;color-rendering:auto;image-rendering:auto;shape-rendering:auto;text-rendering:auto;enable-background:accumulate" inkscape:label="nube sombra"/>
      <path style="color:#000000;clip-rule:nonzero;display:inline;overflow:visible;visibility:visible;opacity:1;isolation:auto;mix-blend-mode:normal;color-interpolation:sRGB;color-interpolation-filters:linearRGB;solid-color:#000000;solid-opacity:1;vector-effect:none;fill:url(#linearGradient906-76);fill-opacity:1;fill-rule:nonzero;stroke:none;stroke-width:0.31480372;stroke-linecap:round;stroke-linejoin:miter;stroke-miterlimit:4;stroke-dasharray:none;stroke-dashoffset:0;stroke-opacity:1;marker:none;marker-start:none;marker-mid:none;marker-end:none;paint-order:markers stroke fill;color-rendering:auto;image-rendering:auto;shape-rendering:auto;text-rendering:auto;enable-background:accumulate" d="m 80.726852,48.489288 a 18.101001,18.101001 0 0 0 -17.319227,12.854862 18.101001,18.101001 0 0 0 -14.8708,17.801859 18.101001,18.101001 0 0 0 7.31542,14.510181 c 2.444832,2.226157 5.688087,3.591285 9.27036,3.591285 h 1.515684 26.788871 1.068299 c 2.538853,0 4.904603,-0.691716 6.942651,-1.880369 A 18.101001,18.101001 0 0 0 111.52731,79.146009 18.101001,18.101001 0 0 0 98.149111,61.693926 18.101001,18.101001 0 0 0 80.726852,48.489288 Z" id="circle886-3" inkscape:connector-curvature="0" inkscape:label="nube"/>
      <path style="color:#000000;clip-rule:nonzero;display:inline;overflow:visible;visibility:visible;opacity:1;isolation:auto;mix-blend-mode:normal;color-interpolation:sRGB;color-interpolation-filters:linearRGB;solid-color:#000000;solid-opacity:1;vector-effect:none;fill:#365a83;fill-opacity:0.21978024;fill-rule:nonzero;stroke:none;stroke-width:0.31480372;stroke-linecap:round;stroke-linejoin:miter;stroke-miterlimit:4;stroke-dasharray:none;stroke-dashoffset:0;stroke-opacity:1;marker:none;marker-start:none;marker-mid:none;marker-end:none;paint-order:markers stroke fill;color-rendering:auto;image-rendering:auto;shape-rendering:auto;text-rendering:auto;enable-background:accumulate" d="m 48.570712,78.412562 a 18.101001,18.101001 0 0 0 -0.03387,0.733447 18.101001,18.101001 0 0 0 7.31542,14.510181 c 2.444818,2.226157 5.688073,3.591285 9.270346,3.591285 h 1.515684 26.788871 1.068299 c 2.538853,0 4.904603,-0.691716 6.942648,-1.880369 a 18.101001,18.101001 0 0 0 10.0892,-16.221097 18.101001,18.101001 0 0 0 -0.0339,-0.658877 18.101001,18.101001 0 0 1 -10.05531,15.491724 c -2.038065,1.188654 -4.403815,1.88037 -6.942668,1.88037 H 93.42716 66.638289 65.122605 c -3.582273,0 -6.825528,-1.365128 -9.27036,-3.591285 A 18.101001,18.101001 0 0 1 48.570712,78.412562 Z" id="path952-7" inkscape:connector-curvature="0" inkscape:label="nube sombra"/>
      <path inkscape:connector-curvature="0" id="path959-45" d="m 80.726852,48.489288 a 18.101001,18.101001 0 0 0 -17.319227,12.854862 18.101001,18.101001 0 0 0 -14.8708,17.801859 18.101001,18.101001 0 0 0 7.31542,14.510181 c 2.444832,2.226157 5.688087,3.591285 9.27036,3.591285 h 1.515684 26.788871 1.068299 c 2.538853,0 4.904603,-0.691716 6.942651,-1.880369 A 18.101001,18.101001 0 0 0 111.52731,79.146009 18.101001,18.101001 0 0 0 98.149111,61.693926 18.101001,18.101001 0 0 0 80.726852,48.489288 Z" style="color:#000000;clip-rule:nonzero;display:inline;overflow:visible;visibility:visible;opacity:1;isolation:auto;mix-blend-mode:normal;color-interpolation:sRGB;color-interpolation-filters:linearRGB;solid-color:#000000;solid-opacity:1;vector-effect:none;fill:url(#radialGradient961-4);fill-opacity:1;fill-rule:nonzero;stroke:none;stroke-width:0.31480372;stroke-linecap:round;stroke-linejoin:miter;stroke-miterlimit:4;stroke-dasharray:none;stroke-dashoffset:0;stroke-opacity:1;marker:none;marker-start:none;marker-mid:none;marker-end:none;paint-order:markers stroke fill;color-rendering:auto;image-rendering:auto;shape-rendering:auto;text-rendering:auto;enable-background:accumulate" inkscape:label="nube brillo"/>
      <path inkscape:label="nube brillo" style="color:#000000;clip-rule:nonzero;display:inline;overflow:visible;visibility:visible;opacity:1;isolation:auto;mix-blend-mode:normal;color-interpolation:sRGB;color-interpolation-filters:linearRGB;solid-color:#000000;solid-opacity:1;vector-effect:none;fill:url(#radialGradient971-1);fill-opacity:1;fill-rule:nonzero;stroke:none;stroke-width:0.31480372;stroke-linecap:round;stroke-linejoin:miter;stroke-miterlimit:4;stroke-dasharray:none;stroke-dashoffset:0;stroke-opacity:1;marker:none;marker-start:none;marker-mid:none;marker-end:none;paint-order:markers stroke fill;color-rendering:auto;image-rendering:auto;shape-rendering:auto;text-rendering:auto;enable-background:accumulate" d="m 80.726852,48.489288 a 18.101001,18.101001 0 0 0 -17.319227,12.854862 18.101001,18.101001 0 0 0 -14.8708,17.801859 18.101001,18.101001 0 0 0 7.31542,14.510181 c 2.444832,2.226157 5.688087,3.591285 9.27036,3.591285 h 1.515684 26.788871 1.068299 c 2.538853,0 4.904603,-0.691716 6.942651,-1.880369 A 18.101001,18.101001 0 0 0 111.52731,79.146009 18.101001,18.101001 0 0 0 98.149111,61.693926 18.101001,18.101001 0 0 0 80.726852,48.489288 Z" id="path969-2" inkscape:connector-curvature="0"/>
      <path inkscape:connector-curvature="0" id="path913-5" d="m 80.648083,61.198453 c -1.097716,-5.14e-4 -2.219595,0.495695 -3.045437,1.486822 l -18.81617,24.958332 c -0.690626,1.410885 -0.144967,2.822422 1.827783,2.822422 h 13.719907 l 4.513351,18.392961 c 0.06407,1.73516 0.703578,3.1403 1.577662,3.1403 0.87409,0 1.513566,-1.40514 1.577662,-3.1403 l 4.51569,-18.392961 h 13.814739 c 1.96246,0 1.96137,-2.670124 1.45613,-3.337685 C 95.71147,78.981723 89.633012,70.837018 83.555105,62.690404 82.818944,61.697306 81.745806,61.198925 80.648083,61.198453 Z" style="color:#000000;clip-rule:nonzero;display:inline;overflow:visible;visibility:visible;opacity:1;isolation:auto;mix-blend-mode:normal;color-interpolation:sRGB;color-interpolation-filters:linearRGB;solid-color:#000000;solid-opacity:1;vector-effect:none;fill:#000000;fill-opacity:0.17582421;fill-rule:nonzero;stroke:none;stroke-width:0.29543743;stroke-linecap:round;stroke-linejoin:miter;stroke-miterlimit:4;stroke-dasharray:none;stroke-dashoffset:0;stroke-opacity:1;marker:none;marker-start:none;marker-mid:none;marker-end:none;paint-order:markers stroke fill;color-rendering:auto;image-rendering:auto;shape-rendering:auto;text-rendering:auto;enable-background:accumulate" sodipodi:nodetypes="cccsccsccsccc" inkscape:label="flecha sombra"/>
      <path style="color:#000000;clip-rule:nonzero;display:inline;overflow:visible;visibility:visible;opacity:1;isolation:auto;mix-blend-mode:normal;color-interpolation:sRGB;color-interpolation-filters:linearRGB;solid-color:#000000;solid-opacity:1;vector-effect:none;fill:url(#linearGradient1101-2);fill-opacity:1;fill-rule:nonzero;stroke:none;stroke-width:0.29543743;stroke-linecap:round;stroke-linejoin:miter;stroke-miterlimit:4;stroke-dasharray:none;stroke-dashoffset:0;stroke-opacity:1;marker:none;marker-start:none;marker-mid:none;marker-end:none;paint-order:markers stroke fill;color-rendering:auto;image-rendering:auto;shape-rendering:auto;text-rendering:auto;enable-background:accumulate" d="m 80.648083,58.376496 c -1.097716,-4.93e-4 -2.219595,0.495716 -3.045437,1.486822 l -18.81617,24.958339 c -0.690626,1.410885 -0.144967,2.822422 1.827783,2.822422 h 13.719907 l 4.513351,18.392961 c 0.06407,1.73517 0.703578,3.14029 1.577662,3.14029 0.87409,0 1.513566,-1.40512 1.577662,-3.14029 l 4.51569,-18.392961 h 13.814739 c 1.96246,0 1.96137,-2.670124 1.45613,-3.337691 C 95.71147,76.159767 89.633012,68.015083 83.555105,59.868455 82.818944,58.875357 81.745806,58.376982 80.648083,58.376496 Z" id="rect892-47" inkscape:connector-curvature="0" sodipodi:nodetypes="cccsccsccsccc" inkscape:label="flecha"/>
      <path style="color:#000000;clip-rule:nonzero;display:inline;overflow:visible;visibility:visible;opacity:1;isolation:auto;mix-blend-mode:normal;color-interpolation:sRGB;color-interpolation-filters:linearRGB;solid-color:#000000;solid-opacity:1;vector-effect:none;fill:#5d0a0a;fill-opacity:0.43406593;fill-rule:nonzero;stroke:none;stroke-width:0.29543743;stroke-linecap:round;stroke-linejoin:miter;stroke-miterlimit:4;stroke-dasharray:none;stroke-dashoffset:0;stroke-opacity:1;marker:none;marker-start:none;marker-mid:none;marker-end:none;paint-order:markers stroke fill;color-rendering:auto;image-rendering:auto;shape-rendering:auto;text-rendering:auto;enable-background:accumulate" d="m 102.02604,84.989837 c -0.12389,0.853877 -0.59493,1.691706 -1.69361,1.691706 H 86.51844 l -4.515294,18.391267 c -0.06407,1.73517 -0.703759,3.14065 -1.577842,3.14065 -0.874084,0 -1.513733,-1.40548 -1.577836,-3.14065 L 74.334062,86.681543 h -13.7199 c -1.18957,0 -1.851869,-0.51756 -2.045467,-1.234431 -0.269425,1.173328 0.367601,2.19789 2.045467,2.19789 h 13.7199 l 4.513406,18.391268 c 0.06414,1.73516 0.703752,3.14067 1.577836,3.14067 0.874083,0 1.513747,-1.40551 1.577842,-3.14067 L 86.51844,87.645002 h 13.81399 c 1.53482,0 1.86272,-1.624022 1.69361,-2.655165 z" id="path973-4" inkscape:connector-curvature="0" inkscape:label="flecha sombtop" sodipodi:nodetypes="csccsccscsccsccsc"/>
      <path style="color:#000000;clip-rule:nonzero;display:inline;overflow:visible;visibility:visible;opacity:1;isolation:auto;mix-blend-mode:normal;color-interpolation:sRGB;color-interpolation-filters:linearRGB;solid-color:#000000;solid-opacity:1;vector-effect:none;fill:#ff0000;fill-opacity:0.36263739;fill-rule:nonzero;stroke:none;stroke-width:0.29543743;stroke-linecap:round;stroke-linejoin:miter;stroke-miterlimit:4;stroke-dasharray:none;stroke-dashoffset:0;stroke-opacity:1;marker:none;marker-start:none;marker-mid:none;marker-end:none;paint-order:markers stroke fill;color-rendering:auto;image-rendering:auto;shape-rendering:auto;text-rendering:auto;enable-background:accumulate" d="m 80.648187,58.377385 c -1.097723,-4.86e-4 -2.219116,0.495848 -3.044972,1.486974 l -18.81628,24.957833 c -0.28303,0.578199 -0.345501,1.149928 -0.20013,1.631151 0.04741,-0.17501 0.113079,-0.351567 0.20013,-0.529381 l 18.81628,-24.957826 c 0.825856,-0.991126 1.947249,-1.487467 3.044972,-1.486967 1.09771,4.86e-4 2.171062,0.498173 2.907216,1.491271 6.077901,8.146621 12.155241,16.290458 18.233177,24.437079 0.10258,0.135528 0.17714,0.366852 0.22594,0.628343 0.12093,-0.697602 0.006,-1.42408 -0.22594,-1.730127 C 95.710644,76.159114 89.633304,68.015284 83.555403,59.868656 82.819249,58.875558 81.745897,58.377871 80.648187,58.377385 Z" id="path1100-4" inkscape:connector-curvature="0" sodipodi:nodetypes="ccccccccccccc" inkscape:label="flecha brillo"/>
      <path style="display:inline;fill:#000000;fill-opacity:0.2857143;stroke-width:0.10777958" inkscape:connector-curvature="0" id="path1103-3" d="m 87.295929,74.269839 h -9.398967 l 0.490413,-2.29481 h 5.728568 l 0.52555,-2.470057 H 76.407641 L 73.814857,81.73281 h 2.487597 l 1.1386,-5.343198 h 5.966778 l -5.184729,5.132913 0.910969,1.611611 c 0.420348,-0.280218 1.103693,-0.315354 1.576635,-0.315354 0.841015,0 1.664365,0.280426 2.522511,0.280426 0.786811,0 1.592468,-0.05262 2.906543,-0.683303 l 0.459142,-2.154702 c -0.893505,0.367747 -2.21577,0.718239 -3.365685,0.718239 -0.472726,0 -0.910754,-0.105091 -1.366238,-0.175142 l 5.025843,-4.887734 0.403106,-1.646831 z" inkscape:label="logo sombra"/>
      <path d="m 87.295929,73.553225 h -9.398967 l 0.490413,-2.294804 h 5.728568 l 0.52555,-2.470056 h -8.233852 l -2.592784,12.227831 h 2.487597 l 1.1386,-5.343198 h 5.966778 l -5.184729,5.13292 0.910969,1.611611 c 0.420348,-0.280225 1.103693,-0.315362 1.576635,-0.315362 0.841015,0 1.664365,0.280434 2.522511,0.280434 0.786811,0 1.592468,-0.05261 2.906543,-0.68331 l 0.459142,-2.154702 c -0.893505,0.36774 -2.21577,0.718239 -3.365685,0.718239 -0.472726,0 -0.910754,-0.105091 -1.366238,-0.175135 l 5.025843,-4.887734 0.403106,-1.646838 z" id="path9-0" inkscape:connector-curvature="0" style="display:inline;fill:#ffffff;stroke-width:0.10777958" inkscape:label="logo"/>
    </g>
  </g>
</svg>