<?xml version="1.0" encoding="UTF-8" standalone="yes"?>
<svg xmlns:dc="http://purl.org/dc/elements/1.1/" xmlns:cc="http://creativecommons.org/ns#" xmlns:rdf="http://www.w3.org/1999/02/22-rdf-syntax-ns#" xmlns:svg="http://www.w3.org/2000/svg" xmlns="http://www.w3.org/2000/svg" xmlns:sodipodi="http://sodipodi.sourceforge.net/DTD/sodipodi-0.dtd" xmlns:inkscape="http://www.inkscape.org/namespaces/inkscape" height="64" viewBox="0 0 64 64" width="64" id="svg2" version="1.1" inkscape:version="0.92.1 r" sodipodi:docname="network-server.svg" enable-background="new" folder="64">
  <title id="title4675">Template icons dark</title>
  <metadata id="metadata24">
    <rdf:RDF>
      <cc:Work rdf:about="">
        <dc:format>image/svg+xml</dc:format>
        <dc:type rdf:resource="http://purl.org/dc/dcmitype/StillImage"/>
        <dc:title>Template icons dark</dc:title>
        <dc:date>17/05/13</dc:date>
        <dc:creator>
          <cc:Agent>
            <dc:title>wfpaisa</dc:title>
          </cc:Agent>
        </dc:creator>
        <dc:rights>
          <cc:Agent>
            <dc:title>License: GPLv3</dc:title>
          </cc:Agent>
        </dc:rights>
        <dc:language>es-en</dc:language>
        <dc:subject>
          <rdf:Bag>
            <rdf:li>plane-icon-theme</rdf:li>
          </rdf:Bag>
        </dc:subject>
        <dc:description>Template for create set icons</dc:description>
        <cc:license rdf:resource="https://www.gnu.org/licenses/gpl-3.0.en.html"/>
      </cc:Work>
    </rdf:RDF>
  </metadata>
  <defs id="defs22"/>
  <sodipodi:namedview pagecolor="#383c4a" bordercolor="#ffffff" borderopacity="0.62745098" objecttolerance="4" gridtolerance="10" guidetolerance="4" inkscape:pageopacity="0" inkscape:pageshadow="2" inkscape:window-width="640" inkscape:window-height="480" id="namedview20" showgrid="false" inkscape:zoom="23.10501" inkscape:cx="-43.974712" inkscape:cy="95.16309" inkscape:current-layer="layer8" inkscape:snap-smooth-nodes="false" showguides="true" borderlayer="true" inkscape:showpageshadow="false" inkscape:guide-bbox="true" guidecolor="#bd4fff" guideopacity="0.78431373" inkscape:snap-nodes="true" inkscape:lockguides="false" fit-margin-top="0" fit-margin-left="0" fit-margin-right="0" fit-margin-bottom="0" guidehicolor="#ff0101" guidehiopacity="0.78431373" inkscape:snap-page="true" inkscape:object-nodes="true" inkscape:snap-bbox="true" inkscape:snap-global="true" inkscape:snap-object-midpoints="false" inkscape:snap-bbox-edge-midpoints="false">
    <inkscape:grid type="xygrid" id="grid4171" empspacing="4" dotted="false" originx="2.7755576e-17" originy="0" spacingx="1" spacingy="1" color="#ffffff" opacity="0.0627451" empcolor="#ffffff" empopacity="0.23529412" visible="true"/>
    <inkscape:grid type="axonomgrid" id="grid4699" units="mm" empspacing="4" color="#5a5a5a" opacity="0.23529412" empcolor="#5a5a5a" empopacity="0.47058824" gridanglex="45" gridanglez="45" spacingy="3.7795276" visible="false" originx="1.3228346" originy="1.3228346"/>
    <sodipodi:guide position="48,0" orientation="1,0" id="guide4568" inkscape:locked="false" inkscape:label="" inkscape:color="rgb(189,79,255)"/>
    <sodipodi:guide position="111.99996,-3.9999999e-05" orientation="0,1" id="guide4570" inkscape:locked="false" inkscape:label="" inkscape:color="rgb(189,79,255)"/>
    <sodipodi:guide position="0,0" orientation="1,0" id="guide4572" inkscape:locked="false" inkscape:label="" inkscape:color="rgb(189,79,255)"/>
    <sodipodi:guide position="0,48" orientation="0,1" id="guide4574" inkscape:locked="false" inkscape:label="" inkscape:color="rgb(189,79,255)"/>
    <sodipodi:guide position="0,80" orientation="0,1" id="guide4576" inkscape:locked="false" inkscape:label="" inkscape:color="rgb(189,79,255)"/>
    <sodipodi:guide position="-32,48" orientation="1,0" id="guide4578" inkscape:locked="false" inkscape:label="" inkscape:color="rgb(189,79,255)"/>
    <sodipodi:guide position="-32,104" orientation="0,1" id="guide4580" inkscape:locked="false" inkscape:label="" inkscape:color="rgb(189,79,255)"/>
    <sodipodi:guide position="-56,80" orientation="1,0" id="guide4582" inkscape:locked="false" inkscape:label="" inkscape:color="rgb(189,79,255)"/>
    <sodipodi:guide position="48,-64" orientation="0,1" id="guide4584" inkscape:locked="false" inkscape:label="" inkscape:color="rgb(189,79,255)"/>
    <sodipodi:guide position="0,0" orientation="-0.70710678,0.70710678" id="guide4588" inkscape:locked="false" inkscape:label="" inkscape:color="rgb(189,79,255)"/>
    <sodipodi:guide position="-56,80" orientation="-0.70710678,0.70710678" id="guide4573" inkscape:locked="false" inkscape:label="" inkscape:color="rgb(189,79,255)"/>
    <sodipodi:guide position="-32,48" orientation="-0.70710678,0.70710678" id="guide4575" inkscape:locked="false" inkscape:label="" inkscape:color="rgb(189,79,255)"/>
    <sodipodi:guide position="48,-64" orientation="-0.70710678,0.70710678" id="guide4577" inkscape:locked="false" inkscape:label="" inkscape:color="rgb(189,79,255)"/>
    <sodipodi:guide position="47.999962,0" orientation="0.70710678,0.70710678" id="guide4697" inkscape:locked="false" inkscape:label="" inkscape:color="rgb(189,79,255)"/>
    <sodipodi:guide position="207.99995,-288" orientation="0,1" id="guide7833" inkscape:locked="false"/>
    <sodipodi:guide position="335.99994,-288" orientation="1,0" id="guide7835" inkscape:locked="false" inkscape:label="" inkscape:color="rgb(189,79,255)"/>
    <sodipodi:guide position="111.99996,-64" orientation="1,0" id="guide7915" inkscape:locked="false"/>
    <sodipodi:guide position="111.99996,-160" orientation="0,1" id="guide7917" inkscape:locked="false"/>
    <sodipodi:guide position="207.99996,-160" orientation="1,0" id="guide7919" inkscape:locked="false"/>
    <sodipodi:guide position="111.99996,-160" orientation="-0.70710678,0.70710678" id="guide7921" inkscape:locked="false" inkscape:label="" inkscape:color="rgb(189,79,255)"/>
    <sodipodi:guide position="207.99996,-288" orientation="-0.70710678,0.70710678" id="guide7923" inkscape:locked="false" inkscape:label="" inkscape:color="rgb(189,79,255)"/>
    <sodipodi:guide position="-72,104" orientation="1,0" id="guide7824" inkscape:locked="false"/>
    <sodipodi:guide position="-56,120" orientation="0,1" id="guide7826" inkscape:locked="false"/>
    <sodipodi:guide position="-72,104" orientation="-0.70710678,0.70710678" id="guide7828" inkscape:locked="false" inkscape:label="" inkscape:color="rgb(189,79,255)"/>
  </sodipodi:namedview>
  <g inkscape:groupmode="layer" id="g7907" inkscape:label="icon_64" style="display:inline" transform="translate(-48,-48)">
    <g inkscape:groupmode="layer" id="g7843" inkscape:label="frame" style="display:none">
      <rect inkscape:label="frame_64" y="48" x="48" height="64" width="64" id="rect7837" style="color:#000000;clip-rule:nonzero;display:inline;overflow:visible;visibility:visible;opacity:1;isolation:auto;mix-blend-mode:normal;color-interpolation:sRGB;color-interpolation-filters:linearRGB;solid-color:#000000;solid-opacity:1;vector-effect:none;fill:#000000;fill-opacity:1;fill-rule:nonzero;stroke:#ff24f7;stroke-width:0;stroke-linecap:square;stroke-linejoin:miter;stroke-miterlimit:4;stroke-dasharray:none;stroke-dashoffset:0;stroke-opacity:0.99481865;marker:none;marker-start:none;marker-mid:none;marker-end:none;paint-order:normal;color-rendering:auto;image-rendering:auto;shape-rendering:auto;text-rendering:auto;enable-background:accumulate"/>
      <text xml:space="preserve" style="font-size:16px;line-height:0%;font-family:sans-serif;letter-spacing:0px;word-spacing:0px;display:inline;opacity:1;fill:#ffffff;fill-opacity:1;stroke:none;stroke-width:0.03278551px;stroke-linecap:butt;stroke-linejoin:miter;stroke-opacity:1" x="69.816406" y="85.824219" id="text7841" inkscape:label="txt_64">
        <tspan sodipodi:role="line" x="69.816406" y="85.824219" style="font-size:16px;line-height:0%;fill:#ffffff;fill-opacity:1;stroke:none;stroke-width:0.03278551px" id="tspan7839">64</tspan>
      </text>
    </g>
    <g inkscape:groupmode="layer" id="g7905" inkscape:label="icon" style="display:inline">
      <rect style="opacity:1;fill:none;fill-opacity:1;stroke:none;stroke-width:0.5;stroke-linecap:butt;stroke-linejoin:miter;stroke-miterlimit:4;stroke-dasharray:none;stroke-dashoffset:0;stroke-opacity:1" id="rect4140-7-5-7-6-0" width="64" height="64" x="48" y="48.000038"/>
      <rect ry="1.2314315" rx="1.3196807" style="opacity:1;fill:#636a78;fill-opacity:1;stroke:none;stroke-width:0.63739628;stroke-linecap:butt;stroke-linejoin:miter;stroke-miterlimit:4;stroke-dasharray:none;stroke-dashoffset:0;stroke-opacity:0.26666667" id="rect6209-8-2" width="49.999992" height="53" x="55" y="54.000038"/>
      <rect y="53.500038" x="54.5" height="54" width="50.999996" id="rect6209-0-1-0" style="opacity:1;fill:none;fill-opacity:1;stroke:#272a2f;stroke-width:1.00000012;stroke-linecap:butt;stroke-linejoin:miter;stroke-miterlimit:4;stroke-dasharray:none;stroke-dashoffset:0;stroke-opacity:0.78431373" rx="1.9999998" ry="2.0000002"/>
      <path style="opacity:1;fill:#000000;fill-opacity:0.15686275;stroke:#484e57;stroke-width:1;stroke-linecap:butt;stroke-linejoin:miter;stroke-miterlimit:4;stroke-dasharray:none;stroke-dashoffset:0;stroke-opacity:1" d="m 58.494141,56.494141 c -0.554,0 -1,0.446 -1,1 v 6 c 0,0.554 0.446,1 1,1 h 42.999999 c 0.554,0 1,-0.446 1,-1 v -6 c 0,-0.554 -0.446,-1 -1,-1 z m 0,10 c -0.554,0 -1,0.446 -1,1 v 6 c 0,0.554 0.446,1 1,1 h 43.011719 c 0.554,0 1,-0.446 1,-1 v -6 c 0,-0.554 -0.446,-1 -1,-1 z m 0,10.011718 c -0.554,0 -1,0.446 -1,1 v 5.988282 c 0,0.554 0.446,1 1,1 h 43.011719 c 0.554,0 1,-0.446 1,-1 v -5.988282 c 0,-0.554 -0.446,-1 -1,-1 z m 0,10 c -0.554,0 -1,0.446 -1,1 v 5.988282 c 0,0.554 0.446,1 1,1 h 43.011719 c 0.554,0 1,-0.446 1,-1 v -5.988282 c 0,-0.554 -0.446,-1 -1,-1 z m 0,10 c -0.554,0 -1,0.446 -1,1 v 5.988281 c 0,0.554 0.446,1 1,1 h 43.011719 c 0.554,0 1,-0.446 1,-1 v -5.988281 c 0,-0.554 -0.446,-1 -1,-1 z" id="rect8193-28-97" inkscape:connector-curvature="0"/>
      <path style="opacity:1;fill:#000000;fill-opacity:0.29591836;stroke:none;stroke-width:0.49453536;stroke-linecap:butt;stroke-linejoin:miter;stroke-miterlimit:4;stroke-dasharray:none;stroke-dashoffset:0;stroke-opacity:0.78431373" d="m 58.994141,57.994141 v 5 h 1 v -5 z m 2,0 v 5 h 1 v -5 z m 2,0 v 5 h 1 v -5 z m 2,0 v 5 h 1 v -5 z m 2,0 v 5 h 1 v -5 z m -8,10 v 5 h 1.001953 v -5 z m 2.001953,0 v 5 h 1 v -5 z m 2,0 v 5 h 1 v -5 z m 2,0 v 5 h 1 v -5 z m 2,0 v 5 h 1 v -5 z m -8.001953,10.009765 v 4.992188 h 1.001953 v -4.992188 z m 2.001953,0 v 4.992188 h 1 v -4.992188 z m 2,0 v 4.992188 h 1 v -4.992188 z m 2,0 v 4.992188 h 1 v -4.992188 z m 2,0 v 4.992188 h 1.001953 v -4.992188 z m -8.001953,10 v 4.992188 h 1.001953 v -4.992188 z m 2.001953,0 v 4.992188 h 1 v -4.992188 z m 2,0 v 4.992188 h 1 v -4.992188 z m 2,0 v 4.992188 h 1 v -4.992188 z m 2,0 v 4.992188 h 1 v -4.992188 z m -8.001953,10 v 4.992184 h 1.001953 v -4.992184 z m 2.001953,0 v 4.992184 h 1 v -4.992184 z m 2,0 v 4.992184 h 1 v -4.992184 z m 2,0 v 4.992184 h 1 v -4.992184 z m 2,0 v 4.992184 h 1.001953 v -4.992184 z" id="rect8297-63-6" inkscape:connector-curvature="0"/>
      <path style="opacity:1;fill:#000000;fill-opacity:0.29591836;stroke:none;stroke-width:0.49453536;stroke-linecap:butt;stroke-linejoin:miter;stroke-miterlimit:4;stroke-dasharray:none;stroke-dashoffset:0;stroke-opacity:0.78431373" d="m 99.494141,59.994141 a 0.49999589,0.50000018 0 0 0 -0.5,0.5 0.49999589,0.50000018 0 0 0 0.5,0.5 0.49999589,0.50000018 0 0 0 0.5,-0.5 0.49999589,0.50000018 0 0 0 -0.5,-0.5 z m 0.0098,10 a 0.50011736,0.50000018 0 0 0 -0.5,0.5 0.50011736,0.50000018 0 0 0 0.5,0.5 0.50011736,0.50000018 0 0 0 0.500009,-0.5 0.50011736,0.50000018 0 0 0 -0.500009,-0.5 z M 99.46875,80.001953 A 0.50011665,0.49931496 0 0 0 99.003906,80.5 a 0.50011665,0.49931496 0 0 0 0.5,0.5 0.50011665,0.49931496 0 0 0 0.500004,-0.5 0.50011665,0.49931496 0 0 0 -0.500004,-0.498047 0.50011665,0.49931496 0 0 0 -0.03516,0 z m 0,10 A 0.50011736,0.49931115 0 0 0 99.003906,90.5 a 0.50011736,0.49931115 0 0 0 0.5,0.5 0.50011736,0.49931115 0 0 0 0.500004,-0.5 0.50011736,0.49931115 0 0 0 -0.500004,-0.498047 0.50011736,0.49931115 0 0 0 -0.03516,0 z m 0,9.999997 a 0.500117,0.49931347 0 0 0 -0.464844,0.49805 0.500117,0.49931347 0 0 0 0.5,0.5 0.500117,0.49931347 0 0 0 0.500004,-0.5 0.500117,0.49931347 0 0 0 -0.500004,-0.49805 0.500117,0.49931347 0 0 0 -0.03516,0 z" id="path8411-66-6" inkscape:connector-curvature="0"/>
      <path style="opacity:1;fill:#66d7ec;fill-opacity:1;stroke:none;stroke-width:0.49453536;stroke-linecap:butt;stroke-linejoin:miter;stroke-miterlimit:4;stroke-dasharray:none;stroke-dashoffset:0;stroke-opacity:0.78431373" d="m 90.494141,59.994141 a 0.49999812,0.49999958 0 0 0 -0.5,0.5 0.49999812,0.49999958 0 0 0 0.5,0.5 0.49999812,0.49999958 0 0 0 0.5,-0.5 0.49999812,0.49999958 0 0 0 -0.5,-0.5 z m 3,0 a 0.50000244,0.49999958 0 0 0 -0.5,0.5 0.50000244,0.49999958 0 0 0 0.5,0.5 0.50000244,0.49999958 0 0 0 0.5,-0.5 0.50000244,0.49999958 0 0 0 -0.5,-0.5 z m 3,0 a 0.49999699,0.49999979 0 0 0 -0.5,0.5 0.49999699,0.49999979 0 0 0 0.5,0.5 0.49999699,0.49999979 0 0 0 0.5,-0.5 0.49999699,0.49999979 0 0 0 -0.5,-0.5 z m -5.992188,10 a 0.50011957,0.49999958 0 0 0 -0.5,0.5 0.50011957,0.49999958 0 0 0 0.5,0.5 0.50011957,0.49999958 0 0 0 0.5,-0.5 0.50011957,0.49999958 0 0 0 -0.5,-0.5 z m 3.001953,0 a 0.50012386,0.49999958 0 0 0 -0.5,0.5 0.50012386,0.49999958 0 0 0 0.5,0.5 0.50012386,0.49999958 0 0 0 0.5,-0.5 0.50012386,0.49999958 0 0 0 -0.5,-0.5 z m 3,0 a 0.50011843,0.49999979 0 0 0 -0.5,0.5 0.50011843,0.49999979 0 0 0 0.5,0.5 0.50011843,0.49999979 0 0 0 0.5,-0.5 0.50011843,0.49999979 0 0 0 -0.5,-0.5 z M 90.466797,80.001953 A 0.50011891,0.49931437 0 0 0 90.001953,80.5 a 0.50011891,0.49931437 0 0 0 0.5,0.5 0.50011891,0.49931437 0 0 0 0.5,-0.5 0.50011891,0.49931437 0 0 0 -0.5,-0.498047 0.50011891,0.49931437 0 0 0 -0.03516,0 z m 3.001953,0 A 0.5001232,0.49931437 0 0 0 93.003906,80.5 a 0.5001232,0.49931437 0 0 0 0.5,0.5 0.5001232,0.49931437 0 0 0 0.5,-0.5 0.5001232,0.49931437 0 0 0 -0.5,-0.498047 0.5001232,0.49931437 0 0 0 -0.03516,0 z m 3,0 A 0.50011778,0.49931458 0 0 0 96.003906,80.5 a 0.50011778,0.49931458 0 0 0 0.5,0.5 0.50011778,0.49931458 0 0 0 0.5,-0.5 0.50011778,0.49931458 0 0 0 -0.5,-0.498047 0.50011778,0.49931458 0 0 0 -0.03516,0 z m -6.001953,10 A 0.50011957,0.49931055 0 0 0 90.001953,90.5 a 0.50011957,0.49931055 0 0 0 0.5,0.5 0.50011957,0.49931055 0 0 0 0.5,-0.5 0.50011957,0.49931055 0 0 0 -0.5,-0.498047 0.50011957,0.49931055 0 0 0 -0.03516,0 z m 3.001953,0 A 0.50012386,0.49931055 0 0 0 93.003906,90.5 a 0.50012386,0.49931055 0 0 0 0.5,0.5 0.50012386,0.49931055 0 0 0 0.5,-0.5 0.50012386,0.49931055 0 0 0 -0.5,-0.498047 0.50012386,0.49931055 0 0 0 -0.03516,0 z m 3,0 A 0.50011843,0.49931076 0 0 0 96.003906,90.5 a 0.50011843,0.49931076 0 0 0 0.5,0.5 0.50011843,0.49931076 0 0 0 0.5,-0.5 0.50011843,0.49931076 0 0 0 -0.5,-0.498047 0.50011843,0.49931076 0 0 0 -0.03516,0 z m -6.001953,9.999997 a 0.50011921,0.49931291 0 0 0 -0.464844,0.49805 0.50011921,0.49931291 0 0 0 0.5,0.5 0.50011921,0.49931291 0 0 0 0.5,-0.5 0.50011921,0.49931291 0 0 0 -0.5,-0.49805 0.50011921,0.49931291 0 0 0 -0.03516,0 z m 3.001953,0 a 0.50012356,0.49931291 0 0 0 -0.464844,0.49805 0.50012356,0.49931291 0 0 0 0.5,0.5 0.50012356,0.49931291 0 0 0 0.5,-0.5 0.50012356,0.49931291 0 0 0 -0.5,-0.49805 0.50012356,0.49931291 0 0 0 -0.03516,0 z m 3,0 a 0.50011814,0.49931312 0 0 0 -0.464844,0.49805 0.50011814,0.49931312 0 0 0 0.5,0.5 0.50011814,0.49931312 0 0 0 0.5,-0.5 0.50011814,0.49931312 0 0 0 -0.5,-0.49805 0.50011814,0.49931312 0 0 0 -0.03516,0 z" id="path8411-4-8-5" inkscape:connector-curvature="0"/>
      <path style="opacity:1;fill:#000000;fill-opacity:0.17647059;stroke:none;stroke-width:0.49453536;stroke-linecap:butt;stroke-linejoin:miter;stroke-miterlimit:4;stroke-dasharray:none;stroke-dashoffset:0;stroke-opacity:0.78431373" d="m 70.994141,58.994141 v 3 h 17 v -3 z m 0.0039,10 v 3 h 17.003906 v -3 z m 0,10.007812 v 2.996094 h 17.003906 v -2.996094 z m 0,10 v 2.996094 h 17.003906 v -2.996094 z m 0,10 v 2.996097 h 17.003906 v -2.996097 z" id="rect8297-59-1-48-6" inkscape:connector-curvature="0"/>
    </g>
  </g>
</svg>