<?xml version="1.0" encoding="UTF-8" standalone="yes"?>
<svg xmlns:dc="http://purl.org/dc/elements/1.1/" xmlns:cc="http://creativecommons.org/ns#" xmlns:rdf="http://www.w3.org/1999/02/22-rdf-syntax-ns#" xmlns:svg="http://www.w3.org/2000/svg" xmlns="http://www.w3.org/2000/svg" xmlns:xlink="http://www.w3.org/1999/xlink" xmlns:sodipodi="http://sodipodi.sourceforge.net/DTD/sodipodi-0.dtd" xmlns:inkscape="http://www.inkscape.org/namespaces/inkscape" height="64" viewBox="0 0 64 64" width="64" id="svg2" version="1.1" inkscape:version="0.92.1 r" sodipodi:docname="network-workgroup.svg" enable-background="new" folder="64">
  <title id="title4675">Template icons dark</title>
  <metadata id="metadata24">
    <rdf:RDF>
      <cc:Work rdf:about="">
        <dc:format>image/svg+xml</dc:format>
        <dc:type rdf:resource="http://purl.org/dc/dcmitype/StillImage"/>
        <dc:title>Template icons dark</dc:title>
        <dc:date>17/05/13</dc:date>
        <dc:creator>
          <cc:Agent>
            <dc:title>wfpaisa</dc:title>
          </cc:Agent>
        </dc:creator>
        <dc:rights>
          <cc:Agent>
            <dc:title>License: GPLv3</dc:title>
          </cc:Agent>
        </dc:rights>
        <dc:language>es-en</dc:language>
        <dc:subject>
          <rdf:Bag>
            <rdf:li>plane-icon-theme</rdf:li>
          </rdf:Bag>
        </dc:subject>
        <dc:description>Template for create set icons</dc:description>
        <cc:license rdf:resource="https://www.gnu.org/licenses/gpl-3.0.en.html"/>
      </cc:Work>
    </rdf:RDF>
  </metadata>
  <defs id="defs22">
    <linearGradient id="linearGradient8578">
      <stop style="stop-color:#4ba8dc;stop-opacity:1;" offset="0" id="stop8574"/>
      <stop style="stop-color:#32b69b;stop-opacity:1;" offset="1" id="stop8576"/>
    </linearGradient>
    <linearGradient id="linearGradient7727">
      <stop style="stop-color:#0386ea;stop-opacity:1;" offset="0" id="stop7723"/>
      <stop style="stop-color:#11b4ff;stop-opacity:1;" offset="1" id="stop7725"/>
    </linearGradient>
    <clipPath clipPathUnits="userSpaceOnUse" id="clipPath88">
      <path d="m 4251.24,3890.73 c 2.61,8.02 5.1,16.09 7.46,24.19 -139.9,197.7 -370.37,326.77 -630.98,326.77 -426.63,0 -772.48,-345.85 -772.48,-772.48 0,-109.19 22.69,-213.05 63.55,-307.21 7.9,-1.64 15.83,-3.11 23.77,-4.51 118.52,-260.07 380.71,-440.86 685.16,-440.86 415.63,0 752.58,336.94 752.58,752.58 0,156.19 -47.59,301.26 -129.06,421.52 z" id="path86" inkscape:connector-curvature="0"/>
    </clipPath>
    <radialGradient inkscape:collect="always" xlink:href="#linearGradient8578" id="radialGradient8580" cx="15.713943" cy="18.263794" fx="15.713943" fy="18.263794" r="21.544892" gradientUnits="userSpaceOnUse" gradientTransform="matrix(1.4436277,0,0,1.4098437,-6.6116658,-7.4712195)"/>
    <radialGradient inkscape:collect="always" xlink:href="#linearGradient8578" id="radialGradient8580-3" cx="15.713943" cy="18.263794" fx="15.713943" fy="18.263794" r="21.544891" gradientUnits="userSpaceOnUse" gradientTransform="matrix(0.90918676,0,0,0.88790983,-35.197574,-35.777007)"/>
    <radialGradient inkscape:collect="always" xlink:href="#linearGradient8578" id="radialGradient8580-6" cx="15.713943" cy="18.263794" fx="15.713943" fy="18.263794" r="21.544891" gradientUnits="userSpaceOnUse" gradientTransform="matrix(2.7899588,0,0,2.7246677,100.63465,99.069437)"/>
    <radialGradient inkscape:collect="always" xlink:href="#linearGradient8578" id="radialGradient8580-8" cx="15.713943" cy="18.263794" fx="15.713943" fy="18.263794" r="21.544891" gradientUnits="userSpaceOnUse" gradientTransform="matrix(3.6390859,0,0,3.5539234,194.49978,192.4895)"/>
    <radialGradient inkscape:collect="always" xlink:href="#linearGradient8578" id="radialGradient8580-36" cx="15.713943" cy="18.263794" fx="15.713943" fy="18.263794" r="21.544891" gradientUnits="userSpaceOnUse" gradientTransform="matrix(1.8801872,0,0,1.8361868,40.064702,38.976336)"/>
  </defs>
  <sodipodi:namedview pagecolor="#383c4a" bordercolor="#ffffff" borderopacity="0.62745098" objecttolerance="4" gridtolerance="10" guidetolerance="4" inkscape:pageopacity="0" inkscape:pageshadow="2" inkscape:window-width="640" inkscape:window-height="480" id="namedview20" showgrid="true" inkscape:zoom="1.4789492" inkscape:cx="214.31045" inkscape:cy="-90.797206" inkscape:current-layer="layer8" inkscape:snap-smooth-nodes="true" showguides="true" borderlayer="true" inkscape:showpageshadow="false" inkscape:guide-bbox="true" guidecolor="#bd4fff" guideopacity="0.78431373" inkscape:snap-nodes="true" inkscape:lockguides="false" fit-margin-top="0" fit-margin-left="0" fit-margin-right="0" fit-margin-bottom="0" guidehicolor="#ff0101" guidehiopacity="0.78431373" inkscape:snap-page="true" inkscape:object-nodes="true" inkscape:snap-bbox="true" inkscape:snap-global="true" inkscape:snap-object-midpoints="false" inkscape:snap-bbox-edge-midpoints="false">
    <inkscape:grid type="xygrid" id="grid4171" empspacing="4" dotted="false" originx="2.7755576e-17" originy="0" spacingx="1" spacingy="1" color="#5a5a5a" opacity="0.23529412" empcolor="#5a5a5a" empopacity="0.47058824" visible="true"/>
    <inkscape:grid type="axonomgrid" id="grid4699" units="mm" empspacing="4" color="#5a5a5a" opacity="0.23529412" empcolor="#5a5a5a" empopacity="0.47058824" gridanglex="45" gridanglez="45" spacingy="3.7795276" visible="false" originx="1.3228346" originy="1.3228346"/>
    <sodipodi:guide position="48,0" orientation="1,0" id="guide4568" inkscape:locked="false" inkscape:label="" inkscape:color="rgb(189,79,255)"/>
    <sodipodi:guide position="111.99996,-3.9999999e-05" orientation="0,1" id="guide4570" inkscape:locked="false" inkscape:label="" inkscape:color="rgb(189,79,255)"/>
    <sodipodi:guide position="0,0" orientation="1,0" id="guide4572" inkscape:locked="false" inkscape:label="" inkscape:color="rgb(189,79,255)"/>
    <sodipodi:guide position="0,48" orientation="0,1" id="guide4574" inkscape:locked="false" inkscape:label="" inkscape:color="rgb(189,79,255)"/>
    <sodipodi:guide position="0,80" orientation="0,1" id="guide4576" inkscape:locked="false" inkscape:label="" inkscape:color="rgb(189,79,255)"/>
    <sodipodi:guide position="-32,48" orientation="1,0" id="guide4578" inkscape:locked="false" inkscape:label="" inkscape:color="rgb(189,79,255)"/>
    <sodipodi:guide position="-32,104" orientation="0,1" id="guide4580" inkscape:locked="false" inkscape:label="" inkscape:color="rgb(189,79,255)"/>
    <sodipodi:guide position="-56,80" orientation="1,0" id="guide4582" inkscape:locked="false" inkscape:label="" inkscape:color="rgb(189,79,255)"/>
    <sodipodi:guide position="48,-64" orientation="0,1" id="guide4584" inkscape:locked="false" inkscape:label="" inkscape:color="rgb(189,79,255)"/>
    <sodipodi:guide position="27.439936,27.439936" orientation="-0.70710678,0.70710678" id="guide4588" inkscape:locked="false" inkscape:label="" inkscape:color="rgb(189,79,255)"/>
    <sodipodi:guide position="-56,80" orientation="-0.70710678,0.70710678" id="guide4573" inkscape:locked="false" inkscape:label="" inkscape:color="rgb(189,79,255)"/>
    <sodipodi:guide position="-32,48" orientation="-0.70710678,0.70710678" id="guide4575" inkscape:locked="false" inkscape:label="" inkscape:color="rgb(189,79,255)"/>
    <sodipodi:guide position="48,-64" orientation="-0.70710678,0.70710678" id="guide4577" inkscape:locked="false" inkscape:label="" inkscape:color="rgb(189,79,255)"/>
    <sodipodi:guide position="47.999962,0" orientation="0.70710678,0.70710678" id="guide4697" inkscape:locked="false" inkscape:label="" inkscape:color="rgb(189,79,255)"/>
    <sodipodi:guide position="207.99995,-288" orientation="0,1" id="guide7833" inkscape:locked="false"/>
    <sodipodi:guide position="335.99994,-288" orientation="1,0" id="guide7835" inkscape:locked="false" inkscape:label="" inkscape:color="rgb(189,79,255)"/>
    <sodipodi:guide position="111.99996,-64" orientation="1,0" id="guide7915" inkscape:locked="false"/>
    <sodipodi:guide position="111.99996,-160" orientation="0,1" id="guide7917" inkscape:locked="false"/>
    <sodipodi:guide position="207.99996,-160" orientation="1,0" id="guide7919" inkscape:locked="false"/>
    <sodipodi:guide position="111.99996,-160" orientation="-0.70710678,0.70710678" id="guide7921" inkscape:locked="false" inkscape:label="" inkscape:color="rgb(189,79,255)"/>
    <sodipodi:guide position="207.99996,-288" orientation="-0.70710678,0.70710678" id="guide7923" inkscape:locked="false" inkscape:label="" inkscape:color="rgb(189,79,255)"/>
    <sodipodi:guide position="-72,104" orientation="1,0" id="guide7824" inkscape:locked="false"/>
    <sodipodi:guide position="-56,120" orientation="0,1" id="guide7826" inkscape:locked="false"/>
    <sodipodi:guide position="-72,104" orientation="-0.70710678,0.70710678" id="guide7828" inkscape:locked="false" inkscape:label="" inkscape:color="rgb(189,79,255)"/>
  </sodipodi:namedview>
  <g inkscape:groupmode="layer" id="g7907" inkscape:label="icon_64" style="display:inline" transform="translate(-48,-48)">
    <g inkscape:groupmode="layer" id="g7843" inkscape:label="frame" style="display:none">
      <rect inkscape:label="frame_64" y="48" x="48" height="64" width="64" id="rect7837" style="color:#000000;clip-rule:nonzero;display:inline;overflow:visible;visibility:visible;opacity:1;isolation:auto;mix-blend-mode:normal;color-interpolation:sRGB;color-interpolation-filters:linearRGB;solid-color:#000000;solid-opacity:1;vector-effect:none;fill:#000000;fill-opacity:1;fill-rule:nonzero;stroke:#ff24f7;stroke-width:0;stroke-linecap:square;stroke-linejoin:miter;stroke-miterlimit:4;stroke-dasharray:none;stroke-dashoffset:0;stroke-opacity:0.99481865;marker:none;marker-start:none;marker-mid:none;marker-end:none;paint-order:normal;color-rendering:auto;image-rendering:auto;shape-rendering:auto;text-rendering:auto;enable-background:accumulate"/>
      <text xml:space="preserve" style="font-size:16px;line-height:0%;font-family:sans-serif;letter-spacing:0px;word-spacing:0px;display:inline;opacity:1;fill:#ffffff;fill-opacity:1;stroke:none;stroke-width:0.03278551px;stroke-linecap:butt;stroke-linejoin:miter;stroke-opacity:1" x="69.816406" y="85.824219" id="text7841" inkscape:label="txt_64">
        <tspan sodipodi:role="line" x="69.816406" y="85.824219" style="font-size:16px;line-height:0%;fill:#ffffff;fill-opacity:1;stroke:none;stroke-width:0.03278551px" id="tspan7839">64</tspan>
      </text>
    </g>
    <g inkscape:groupmode="layer" id="g7905" inkscape:label="icon" style="display:inline">
      <path d="m 105.98156,79.964592 c 0,-14.385671 -11.66242,-26.04809 -26.048088,-26.04809 -14.386015,0 -26.048089,11.662419 -26.048089,26.04809 0,14.386016 11.662074,26.048088 26.048089,26.048088 14.385668,0 26.048088,-11.662072 26.048088,-26.048088" style="display:inline;fill:url(#radialGradient8580-36);fill-opacity:1;fill-rule:nonzero;stroke:none;stroke-width:0.03461171" id="path78-6" inkscape:connector-curvature="0" inkscape:label="cirtulo"/>
      <path style="display:inline;fill:#90e2a3;fill-opacity:0.50520833;fill-rule:nonzero;stroke:none;stroke-width:0.03461171" d="m 55.783027,89.623244 c 0.145723,0.03152 0.275957,0.09979 0.422264,0.129733 2.61632,0.535373 5.324732,0.816546 8.099328,0.816546 2.774529,0 5.483045,-0.281173 8.099328,-0.816546 2.616283,-0.535373 5.140627,-1.323383 7.544789,-2.340258 2.40416,-1.016876 4.689286,-2.261749 6.827448,-3.706257 2.138161,-1.444507 4.129024,-3.088644 5.947307,-4.90691 1.818285,-1.818267 3.462383,-3.811697 4.906912,-5.949853 1.444528,-2.138155 2.689357,-4.423274 3.706257,-6.827448 0.084,-0.198634 0.11242,-0.422968 0.19332,-0.623221 -4.681345,-6.927179 -12.606753,-11.482528 -21.596507,-11.482528 -14.386015,0 -26.04809,11.662419 -26.04809,26.04809 0,3.419594 0.699816,6.666922 1.897644,9.658652 z" id="path8613-32" inkscape:connector-curvature="0" inkscape:label="brillo"/>
      <path style="display:inline;fill:#207fa2;fill-opacity:0.92708333;fill-rule:nonzero;stroke:none;stroke-width:0.03288355" d="m 79.482539,54.238904 -4.538507,0.12339 -4.02027,1.35056 3.098209,1.056667 2.371331,-0.491317 0.201912,0.785209 0.515994,1.35056 -0.92879,1.106023 0.206397,2.209801 1.442541,0.491317 0.928791,-2.579973 1.752137,-0.367926 1.96078,-1.595095 -1.547985,-2.947899 z m -10.176306,3.587283 -3.64337,1.397673 -5.866633,4.195259 -2.427418,4.094304 -1.922639,3.093723 0.100949,7.389937 0.809886,-0.399335 0.201912,-3.394345 0.706687,5.292308 2.023596,1.198003 1.72073,1.296717 1.213708,1.597339 2.48126,-0.293892 -0.403822,0.394848 0.545158,1.996674 -1.307932,1.099291 0.437473,1.895719 2.39601,3.795925 1.415618,0.199667 1.200249,0.998338 0.870461,3.894634 0.545158,2.095387 2.658493,4.394929 3.042124,0.84578 -1.996675,-2.74374 -0.43523,-1.99668 1.633235,-1.797006 1.307933,-3.196921 2.070709,-0.298378 1.307933,-3.894638 1.633233,-1.397671 -1.415618,-1.797006 -5.011875,-0.899625 -0.652846,-2.196343 -2.398253,-0.09872 -1.525548,-1.698295 -1.960778,-0.100949 -2.615868,-0.79867 -1.316908,1.283255 -1.794763,-1.083585 -0.50702,-1.59734 -1.718487,-0.599002 0.504778,-1.696051 -1.61753,1.097048 -0.809887,-0.599002 0.100949,-3.394345 2.629328,-1.198004 1.213708,0.199667 0.305109,2.295054 1.213709,-0.199668 0.302867,-3.79368 2.023596,-0.599003 v -1.797007 l 2.32646,-1.797006 2.528373,-0.100949 -0.908597,-1.895718 3.439215,-1.200247 -2.124553,-2.69439 -1.314662,0.599003 -0.406065,-1.897963 -1.314664,0.399334 -1.922641,3.793682 -0.706689,-1.496385 -1.314662,-1.198005 2.932193,-1.996673 c 0,0 2.02295,-0.699958 2.427416,-0.699958 0.404799,0 1.213709,0.899626 1.213709,0.899626 l 1.619772,-1.198003 -0.507019,-1.399915 -2.021352,0.199666 z m 21.848997,0.899626 -2.225506,0.298379 0.708931,3.795923 1.619775,0.19967 1.617529,1.296715 v -1.397673 l -1.415619,-2.095385 2.831237,1.797007 0.10095,2.295054 -2.528374,0.300621 -1.112752,2.097631 1.112752,1.895719 -2.629328,-0.29838 0.504777,2.995012 1.51882,0.697714 1.819439,-1.696053 0.305111,-2.196339 1.213709,0.298378 1.314664,1.298959 -0.910843,1.296716 1.516574,0.40158 0.507021,-1.498628 0.809888,1.498628 1.009554,-1.099294 0.809886,1.696053 1.518815,0.401578 -0.10319,1.895719 -2.225501,-0.897382 -0.504777,0.599002 -2.732529,-0.998336 -0.706688,-1.298961 -4.946816,0.987119 -3.17673,4.868296 0.706687,3.881175 2.826753,2.78637 3.98213,-0.641628 1.518819,1.698295 -0.910843,2.696631 0.706688,3.295635 -2.021352,2.795344 -1.821683,4.29397 2.730282,-0.50029 4.350059,-4.094304 2.124551,-3.894636 1.41786,-3.993348 1.61753,-1.797007 -1.31466,-1.298959 -1.21371,-7.089314 1.41562,2.69663 v 3.495302 l 1.31466,-1.498627 -0.40383,-4.892972 -1.01179,-2.795346 -1.0118,-3.894635 -3.241792,-4.57216 -1.814954,-2.815534 -3.64337,-1.799251 z" id="path90-0" inkscape:connector-curvature="0" inkscape:label="continentes sombra"/>
      <path style="display:inline;fill:#f6fef6;fill-opacity:1;fill-rule:nonzero;stroke:none;stroke-width:0.03288355" d="m 79.297534,54.28026 -4.657623,0.104296 -4.128521,1.165041 2.96348,0.422265 2.434376,-0.422265 0.424808,1.165043 0.529102,1.162498 -0.95391,0.953909 0.211133,1.905275 1.483012,0.422264 0.953908,-2.223245 1.798438,-0.315427 2.012114,-1.376172 -1.58985,-2.541215 z m -10.480287,2.223245 -3.810551,1.480467 -6.138089,4.44649 -2.541215,4.33711 -2.00957,3.283992 0.104296,7.832233 0.847073,-0.424807 0.213675,-3.599419 0.740234,5.611532 0.213675,0.127193 1.900189,1.142147 1.803524,1.376174 1.269337,1.694143 2.495426,-0.300164 -0.381563,0.407002 0.531646,2.116407 -1.27188,1.162498 0.315426,1.490643 0.109376,0.52147 2.330084,4.021683 1.373629,0.213675 1.165041,1.05566 0.847072,4.131064 0.529102,2.220702 1.905276,2.96348 2.963478,1.69414 -1.269335,-2.00957 -0.424808,-2.11895 1.589849,-1.905273 1.269337,-3.385744 2.009568,-0.317969 1.269337,-4.12852 1.589849,-1.483012 -1.376174,-1.902731 -4.871298,-0.95391 -0.106836,-0.394283 -0.526557,-1.9358 -2.330084,-0.104297 -1.480468,-1.798437 -1.902731,-0.106836 -2.543758,-0.847071 -1.246442,1.325298 -1.821332,-1.111623 -0.529102,-1.694143 -1.80098,-0.635939 0.384106,-1.302405 0.147539,-0.496033 -1.144692,0.783478 -0.549452,0.381564 -0.234025,-0.178063 -0.613046,-0.457878 0.106836,-3.601962 2.749803,-1.269335 1.27188,0.213675 0.315426,2.434378 1.269336,-0.213675 0.320513,-4.01914 2.113864,-0.635939 v -1.90782 l 2.436921,-1.902731 2.645509,-0.106836 -0.951366,-2.012112 3.599419,-1.269336 -2.223245,-2.859185 -1.376174,0.63594 -0.424808,-2.00957 -1.376173,0.422264 -2.009569,4.024227 -0.740234,-1.589849 -1.378717,-1.269336 3.070317,-2.116408 c 0,0 2.118005,-0.740233 2.541215,-0.740233 0.423212,0 1.269335,0.951366 1.269335,0.951366 l 1.694143,-1.27188 -0.529102,-1.480468 -2.116407,0.211133 z m 22.863304,0.951366 -2.330083,0.31797 0.742777,4.021682 1.691599,0.211133 1.694145,1.376172 V 61.90136 l -1.480468,-2.223245 2.963478,1.902733 0.106836,2.43692 -2.645509,0.315426 -1.165042,2.223245 1.165042,2.012113 -2.752348,-0.31797 0.529102,3.174611 1.584762,0.742778 1.907819,-1.800982 0.315427,-2.327538 1.271879,0.31797 1.376174,1.373629 -0.95391,1.378718 0.803827,0.213675 0.786022,0.208589 0.529102,-1.587306 0.844527,1.587306 1.060749,-1.165043 0.847072,1.800982 1.58476,0.422265 -0.1043,2.012112 -2.327535,-0.953909 -0.531647,0.63594 -2.85664,-1.058204 -0.518926,-0.966629 -0.221308,-0.409545 -4.232814,0.95391 -3.283993,4.868754 0.208589,2.083339 0.216218,2.149475 3.174611,3.067774 3.281449,-0.529102 1.587305,1.800982 -0.951365,2.85664 0.740234,3.492581 -2.116407,2.963479 -1.90782,4.553327 2.859186,-0.529101 4.553328,-4.339652 2.223245,-4.12852 1.48047,-4.235359 1.6916,-1.905275 -1.37363,-1.373629 -1.26934,-7.516808 1.48047,2.859185 v 3.703713 l 1.37617,-1.587306 -0.42226,-5.186724 -1.06075,-2.963479 -1.0582,-4.125977 -2.69639,-3.858882 -0.694442,-0.989522 -1.900189,-2.986372 -3.81055,-1.905276 z" id="path98-61" inkscape:connector-curvature="0" inkscape:label="continentes"/>
      <ellipse inkscape:label="red2" transform="matrix(0.918118,-0.39630712,0.3323136,0.94316895,0,0)" ry="7.5337858" rx="30.345314" cy="95.967766" cx="50.331516" id="ellipse8631-5" style="color:#000000;clip-rule:nonzero;display:inline;overflow:visible;visibility:visible;opacity:1;isolation:auto;mix-blend-mode:normal;color-interpolation:sRGB;color-interpolation-filters:linearRGB;solid-color:#000000;solid-opacity:1;vector-effect:none;fill:none;fill-opacity:0.359375;fill-rule:nonzero;stroke:#000000;stroke-width:0.65197247;stroke-linecap:butt;stroke-linejoin:miter;stroke-miterlimit:4;stroke-dasharray:1.30394494, 0.65197247, 0.32598623, 0.65197247;stroke-dashoffset:0;stroke-opacity:0.16145833;marker:none;marker-start:none;marker-mid:none;marker-end:none;paint-order:fill markers stroke;color-rendering:auto;image-rendering:auto;shape-rendering:auto;text-rendering:auto;enable-background:accumulate"/>
      <ellipse inkscape:label="red2" style="color:#000000;clip-rule:nonzero;display:inline;overflow:visible;visibility:visible;opacity:1;isolation:auto;mix-blend-mode:normal;color-interpolation:sRGB;color-interpolation-filters:linearRGB;solid-color:#000000;solid-opacity:1;vector-effect:none;fill:none;fill-opacity:0.359375;fill-rule:nonzero;stroke:#000000;stroke-width:0.64298713;stroke-linecap:butt;stroke-linejoin:miter;stroke-miterlimit:4;stroke-dasharray:1.28597419, 0.64298709, 0.32149355, 0.64298709;stroke-dashoffset:0;stroke-opacity:0.16145833;marker:none;marker-start:none;marker-mid:none;marker-end:none;paint-order:fill markers stroke;color-rendering:auto;image-rendering:auto;shape-rendering:auto;text-rendering:auto;enable-background:accumulate" id="ellipse8633-5" cx="107.55044" cy="37.162079" rx="32.930153" ry="8.1755199" transform="matrix(0.91225052,0.40963276,-0.47132018,0.88196218,0,0)"/>
      <ellipse inkscape:label="red2" transform="matrix(0.35540442,0.93471263,-0.95691513,0.29036774,0,0)" ry="7.9616928" rx="32.068878" cy="-40.30209" cx="98.54512" id="ellipse8635-4" style="color:#000000;clip-rule:nonzero;display:inline;overflow:visible;visibility:visible;opacity:1;isolation:auto;mix-blend-mode:normal;color-interpolation:sRGB;color-interpolation-filters:linearRGB;solid-color:#000000;solid-opacity:1;vector-effect:none;fill:none;fill-opacity:0.359375;fill-rule:nonzero;stroke:#000000;stroke-width:0.65197247;stroke-linecap:butt;stroke-linejoin:miter;stroke-miterlimit:4;stroke-dasharray:1.30394494, 0.65197247, 0.32598623, 0.65197247;stroke-dashoffset:0;stroke-opacity:0.16145833;marker:none;marker-start:none;marker-mid:none;marker-end:none;paint-order:fill markers stroke;color-rendering:auto;image-rendering:auto;shape-rendering:auto;text-rendering:auto;enable-background:accumulate"/>
      <ellipse inkscape:label="red2" style="color:#000000;clip-rule:nonzero;display:inline;overflow:visible;visibility:visible;opacity:1;isolation:auto;mix-blend-mode:normal;color-interpolation:sRGB;color-interpolation-filters:linearRGB;solid-color:#000000;solid-opacity:1;vector-effect:none;fill:none;fill-opacity:0.359375;fill-rule:nonzero;stroke:#000000;stroke-width:0.64104247;stroke-linecap:butt;stroke-linejoin:miter;stroke-miterlimit:4;stroke-dasharray:1.28208491, 0.64104245, 0.32052122, 0.64104245;stroke-dashoffset:0;stroke-opacity:0.16145833;marker:none;marker-start:none;marker-mid:none;marker-end:none;paint-order:fill markers stroke;color-rendering:auto;image-rendering:auto;shape-rendering:auto;text-rendering:auto;enable-background:accumulate" id="ellipse8637-7" cx="23.212143" cy="-103.36583" rx="31.53126" ry="7.8282189" transform="matrix(-0.50038712,0.86580178,-0.82938999,-0.55867007,0,0)"/>
      <ellipse style="color:#000000;clip-rule:nonzero;display:inline;overflow:visible;visibility:visible;opacity:1;isolation:auto;mix-blend-mode:normal;color-interpolation:sRGB;color-interpolation-filters:linearRGB;solid-color:#000000;solid-opacity:1;vector-effect:none;fill:none;fill-opacity:0.359375;fill-rule:nonzero;stroke:#ffffff;stroke-width:0.65197247;stroke-linecap:butt;stroke-linejoin:miter;stroke-miterlimit:4;stroke-dasharray:1.30394494, 0.65197247, 0.32598623, 0.65197247;stroke-dashoffset:0;stroke-opacity:1;marker:none;marker-start:none;marker-mid:none;marker-end:none;paint-order:fill markers stroke;color-rendering:auto;image-rendering:auto;shape-rendering:auto;text-rendering:auto;enable-background:accumulate" id="path8605-6" cx="49.91909" cy="95.340561" rx="30.345314" ry="7.5337858" transform="matrix(0.918118,-0.39630712,0.3323136,0.94316895,0,0)" inkscape:label="red"/>
      <ellipse transform="matrix(0.91225052,0.40963276,-0.47132018,0.88196218,0,0)" ry="8.1755199" rx="32.930153" cy="37.013737" cx="106.83912" id="ellipse8607-5" style="color:#000000;clip-rule:nonzero;display:inline;overflow:visible;visibility:visible;opacity:1;isolation:auto;mix-blend-mode:normal;color-interpolation:sRGB;color-interpolation-filters:linearRGB;solid-color:#000000;solid-opacity:1;vector-effect:none;fill:none;fill-opacity:0.359375;fill-rule:nonzero;stroke:#ffffff;stroke-width:0.64298713;stroke-linecap:butt;stroke-linejoin:miter;stroke-miterlimit:4;stroke-dasharray:1.28597419, 0.64298709, 0.32149355, 0.64298709;stroke-dashoffset:0;stroke-opacity:1;marker:none;marker-start:none;marker-mid:none;marker-end:none;paint-order:fill markers stroke;color-rendering:auto;image-rendering:auto;shape-rendering:auto;text-rendering:auto;enable-background:accumulate" inkscape:label="red"/>
      <ellipse style="color:#000000;clip-rule:nonzero;display:inline;overflow:visible;visibility:visible;opacity:1;isolation:auto;mix-blend-mode:normal;color-interpolation:sRGB;color-interpolation-filters:linearRGB;solid-color:#000000;solid-opacity:1;vector-effect:none;fill:none;fill-opacity:0.359375;fill-rule:nonzero;stroke:#ffffff;stroke-width:0.65197247;stroke-linecap:butt;stroke-linejoin:miter;stroke-miterlimit:4;stroke-dasharray:1.30394494, 0.65197247, 0.32598623, 0.65197247;stroke-dashoffset:0;stroke-opacity:1;marker:none;marker-start:none;marker-mid:none;marker-end:none;paint-order:fill markers stroke;color-rendering:auto;image-rendering:auto;shape-rendering:auto;text-rendering:auto;enable-background:accumulate" id="ellipse8609-6" cx="97.963593" cy="-39.90456" rx="32.068878" ry="7.9616928" transform="matrix(0.35540442,0.93471263,-0.95691513,0.29036774,0,0)" inkscape:label="red"/>
      <ellipse transform="matrix(-0.50038712,0.86580178,-0.82938999,-0.55867007,0,0)" ry="7.8282189" rx="31.53126" cy="-102.65374" cx="23.18544" id="ellipse8611-9" style="color:#000000;clip-rule:nonzero;display:inline;overflow:visible;visibility:visible;opacity:1;isolation:auto;mix-blend-mode:normal;color-interpolation:sRGB;color-interpolation-filters:linearRGB;solid-color:#000000;solid-opacity:1;vector-effect:none;fill:none;fill-opacity:0.359375;fill-rule:nonzero;stroke:#ffffff;stroke-width:0.64104247;stroke-linecap:butt;stroke-linejoin:miter;stroke-miterlimit:4;stroke-dasharray:1.28208491, 0.64104245, 0.32052122, 0.64104245;stroke-dashoffset:0;stroke-opacity:1;marker:none;marker-start:none;marker-mid:none;marker-end:none;paint-order:fill markers stroke;color-rendering:auto;image-rendering:auto;shape-rendering:auto;text-rendering:auto;enable-background:accumulate" inkscape:label="red"/>
    </g>
  </g>
</svg>