<?xml version="1.0" encoding="UTF-8" standalone="yes"?>
<svg xmlns:dc="http://purl.org/dc/elements/1.1/" xmlns:cc="http://creativecommons.org/ns#" xmlns:rdf="http://www.w3.org/1999/02/22-rdf-syntax-ns#" xmlns:svg="http://www.w3.org/2000/svg" xmlns="http://www.w3.org/2000/svg" xmlns:xlink="http://www.w3.org/1999/xlink" xmlns:sodipodi="http://sodipodi.sourceforge.net/DTD/sodipodi-0.dtd" xmlns:inkscape="http://www.inkscape.org/namespaces/inkscape" height="24" viewBox="0 0 24 24" width="24" id="svg2" version="1.1" inkscape:version="0.92.2 5c3e80d, 2017-08-06" sodipodi:docname="accessories-character-map.svg" enable-background="new" folder="24">
  <title id="title4675">Template icons dark</title>
  <metadata id="metadata24">
    <rdf:RDF>
      <cc:Work rdf:about="">
        <dc:format>image/svg+xml</dc:format>
        <dc:type rdf:resource="http://purl.org/dc/dcmitype/StillImage"/>
        <dc:title>Template icons dark</dc:title>
        <dc:date>17/05/13</dc:date>
        <dc:creator>
          <cc:Agent>
            <dc:title>wfpaisa</dc:title>
          </cc:Agent>
        </dc:creator>
        <dc:rights>
          <cc:Agent>
            <dc:title>License: GPLv3</dc:title>
          </cc:Agent>
        </dc:rights>
        <dc:language>es-en</dc:language>
        <dc:subject>
          <rdf:Bag>
            <rdf:li>plane-icon-theme</rdf:li>
          </rdf:Bag>
        </dc:subject>
        <dc:description>Template for create set icons</dc:description>
        <cc:license rdf:resource="https://www.gnu.org/licenses/gpl-3.0.en.html"/>
      </cc:Work>
    </rdf:RDF>
  </metadata>
  <defs id="defs22">
    <linearGradient id="linearGradient7762">
      <stop style="stop-color:#003783;stop-opacity:1" offset="0" id="stop7758"/>
      <stop style="stop-color:#69e5ff;stop-opacity:1" offset="1" id="stop7760"/>
    </linearGradient>
    <linearGradient inkscape:collect="always" xlink:href="#linearGradient7762" id="linearGradient7994" gradientUnits="userSpaceOnUse" x1="120" y1="120" x2="203.05511" y2="204"/>
    <linearGradient inkscape:collect="always" xlink:href="#linearGradient7762" id="linearGradient8343" gradientUnits="userSpaceOnUse" x1="120" y1="120" x2="203.05511" y2="204"/>
    <clipPath clipPathUnits="userSpaceOnUse" id="clipPath8339-4">
      <path inkscape:label="base para recorte" style="color:#000000;clip-rule:nonzero;display:inline;overflow:visible;visibility:visible;opacity:1;isolation:auto;mix-blend-mode:normal;color-interpolation:sRGB;color-interpolation-filters:linearRGB;solid-color:#000000;solid-opacity:1;vector-effect:none;fill:url(#linearGradient8343);fill-opacity:1;fill-rule:nonzero;stroke:none;stroke-width:1;stroke-linecap:butt;stroke-linejoin:miter;stroke-miterlimit:4;stroke-dasharray:none;stroke-dashoffset:0;stroke-opacity:0.43455499;marker:none;marker-start:none;marker-mid:none;marker-end:none;paint-order:fill markers stroke;color-rendering:auto;image-rendering:auto;shape-rendering:auto;text-rendering:auto;enable-background:accumulate" d="M 128.55273,116 C 121.5982,116 116,121.5982 116,128.55273 v 30.89454 c 0,0.0936 0.0117,0.18419 0.0137,0.27734 -0.005,0.0918 -0.009,0.18358 -0.0137,0.27539 2e-5,24.30052 19.69948,43.99998 44,44 24.30052,-2e-5 43.99998,-19.69948 44,-44 -2e-5,-24.30052 -19.69948,-43.99998 -44,-44 -0.10809,0.004 -0.21616,0.007 -0.32422,0.0117 C 159.59898,116.0107 159.52444,116 159.44727,116 Z M 130,122 c 4.41828,-1e-5 8.00001,3.58172 8,8 1e-5,4.41828 -3.58172,8.00001 -8,8 -4.41828,1e-5 -8.00001,-3.58172 -8,-8 -1e-5,-4.41828 3.58172,-8.00001 8,-8 z" id="path8341-7" inkscape:connector-curvature="0" sodipodi:nodetypes="sssccccccssccccc" sodipodi:insensitive="true"/>
    </clipPath>
  </defs>
  <sodipodi:namedview pagecolor="#383c4a" bordercolor="#ffffff" borderopacity="0.62745098" objecttolerance="4" gridtolerance="10" guidetolerance="4" inkscape:pageopacity="0" inkscape:pageshadow="2" inkscape:window-width="640" inkscape:window-height="480" id="namedview20" showgrid="true" inkscape:zoom="2.9402989" inkscape:cx="281.78867" inkscape:cy="-216.80815" inkscape:current-layer="layer6" inkscape:snap-smooth-nodes="false" showguides="true" borderlayer="true" inkscape:showpageshadow="false" inkscape:guide-bbox="true" guidecolor="#bd4fff" guideopacity="0.78431373" inkscape:snap-nodes="true" inkscape:lockguides="false" fit-margin-top="0" fit-margin-left="0" fit-margin-right="0" fit-margin-bottom="0" guidehicolor="#ff0101" guidehiopacity="0.78431373" inkscape:snap-page="true" inkscape:object-nodes="true" inkscape:snap-bbox="true" inkscape:snap-global="true" inkscape:snap-object-midpoints="false" inkscape:snap-bbox-edge-midpoints="false">
    <inkscape:grid type="xygrid" id="grid4171" empspacing="4" dotted="false" originx="2.7755576e-17" originy="0" spacingx="1" spacingy="1" color="#5a5a5a" opacity="0.23529412" empcolor="#5a5a5a" empopacity="0.47058824" visible="true"/>
    <inkscape:grid type="axonomgrid" id="grid4699" units="mm" empspacing="4" color="#5a5a5a" opacity="0.23529412" empcolor="#5a5a5a" empopacity="0.47058824" gridanglex="45" gridanglez="45" spacingy="3.7795276" visible="false" originx="1.3228346" originy="1.3228346"/>
    <sodipodi:guide position="48,0" orientation="1,0" id="guide4568" inkscape:locked="false" inkscape:label="" inkscape:color="rgb(189,79,255)"/>
    <sodipodi:guide position="111.99996,-3.9999999e-05" orientation="0,1" id="guide4570" inkscape:locked="false" inkscape:label="" inkscape:color="rgb(189,79,255)"/>
    <sodipodi:guide position="0,0" orientation="1,0" id="guide4572" inkscape:locked="false" inkscape:label="" inkscape:color="rgb(189,79,255)"/>
    <sodipodi:guide position="0,48" orientation="0,1" id="guide4574" inkscape:locked="false" inkscape:label="" inkscape:color="rgb(189,79,255)"/>
    <sodipodi:guide position="0,80" orientation="0,1" id="guide4576" inkscape:locked="false" inkscape:label="" inkscape:color="rgb(189,79,255)"/>
    <sodipodi:guide position="-32,48" orientation="1,0" id="guide4578" inkscape:locked="false" inkscape:label="" inkscape:color="rgb(189,79,255)"/>
    <sodipodi:guide position="-32,104" orientation="0,1" id="guide4580" inkscape:locked="false" inkscape:label="" inkscape:color="rgb(189,79,255)"/>
    <sodipodi:guide position="-56,80" orientation="1,0" id="guide4582" inkscape:locked="false" inkscape:label="" inkscape:color="rgb(189,79,255)"/>
    <sodipodi:guide position="48,-64" orientation="0,1" id="guide4584" inkscape:locked="false" inkscape:label="" inkscape:color="rgb(189,79,255)"/>
    <sodipodi:guide position="0,0" orientation="-0.70710678,0.70710678" id="guide4588" inkscape:locked="false" inkscape:label="" inkscape:color="rgb(189,79,255)"/>
    <sodipodi:guide position="-56,80" orientation="-0.70710678,0.70710678" id="guide4573" inkscape:locked="false" inkscape:label="" inkscape:color="rgb(189,79,255)"/>
    <sodipodi:guide position="-32,48" orientation="-0.70710678,0.70710678" id="guide4575" inkscape:locked="false" inkscape:label="" inkscape:color="rgb(189,79,255)"/>
    <sodipodi:guide position="48,-64" orientation="-0.70710678,0.70710678" id="guide4577" inkscape:locked="false" inkscape:label="" inkscape:color="rgb(189,79,255)"/>
    <sodipodi:guide position="160,-112.12599" orientation="0.70710678,0.70710678" id="guide4697" inkscape:locked="false" inkscape:label="" inkscape:color="rgb(189,79,255)"/>
    <sodipodi:guide position="207.99995,-288" orientation="0,1" id="guide7833" inkscape:locked="false"/>
    <sodipodi:guide position="335.99994,-288" orientation="1,0" id="guide7835" inkscape:locked="false" inkscape:label="" inkscape:color="rgb(189,79,255)"/>
    <sodipodi:guide position="111.99996,-64" orientation="1,0" id="guide7915" inkscape:locked="false"/>
    <sodipodi:guide position="111.99996,-160" orientation="0,1" id="guide7917" inkscape:locked="false"/>
    <sodipodi:guide position="207.99996,-160" orientation="1,0" id="guide7919" inkscape:locked="false"/>
    <sodipodi:guide position="111.99996,-160" orientation="-0.70710678,0.70710678" id="guide7921" inkscape:locked="false" inkscape:label="" inkscape:color="rgb(189,79,255)"/>
    <sodipodi:guide position="207.99996,-288" orientation="-0.70710678,0.70710678" id="guide7923" inkscape:locked="false" inkscape:label="" inkscape:color="rgb(189,79,255)"/>
    <sodipodi:guide position="-72,104" orientation="1,0" id="guide7824" inkscape:locked="false"/>
    <sodipodi:guide position="-56,120" orientation="0,1" id="guide7826" inkscape:locked="false"/>
    <sodipodi:guide position="-72,104" orientation="-0.70710678,0.70710678" id="guide7828" inkscape:locked="false" inkscape:label="" inkscape:color="rgb(189,79,255)"/>
  </sodipodi:namedview>
  <g inkscape:groupmode="layer" id="layer2" inkscape:label="icon_24" style="display:inline" transform="translate(56,56)">
    <g inkscape:groupmode="layer" id="layer7" inkscape:label="frame" style="display:none">
      <rect style="color:#000000;clip-rule:nonzero;display:inline;overflow:visible;visibility:visible;opacity:1;isolation:auto;mix-blend-mode:normal;color-interpolation:sRGB;color-interpolation-filters:linearRGB;solid-color:#000000;solid-opacity:1;vector-effect:none;fill:#000000;fill-opacity:0.99481865;fill-rule:nonzero;stroke:#ff24f7;stroke-width:0;stroke-linecap:square;stroke-linejoin:miter;stroke-miterlimit:4;stroke-dasharray:none;stroke-dashoffset:0;stroke-opacity:0.99481865;marker:none;marker-start:none;marker-mid:none;marker-end:none;paint-order:normal;color-rendering:auto;image-rendering:auto;shape-rendering:auto;text-rendering:auto;enable-background:accumulate" id="frame_24" width="24" height="24" x="-56" y="-56" inkscape:label="frame_24"/>
      <text id="txt_24" y="-40.041668" x="-50.880211" style="font-size:10.66666698px;line-height:1000%;font-family:sans-serif;letter-spacing:0px;word-spacing:0px;display:inline;opacity:1;fill:#ffffff;fill-opacity:1;stroke:none;stroke-width:0.11166908px;stroke-linecap:butt;stroke-linejoin:miter;stroke-opacity:1" xml:space="preserve" inkscape:label="txt_24">
        <tspan id="tspan4835-2-5" style="font-size:10.66666698px;fill:#ffffff;fill-opacity:1;stroke:none;stroke-width:0.11166908px" y="-40.041668" x="-50.880211" sodipodi:role="line">24</tspan>
      </text>
    </g>
    <g inkscape:groupmode="layer" id="layer8" inkscape:label="icon" style="display:inline">
      <path style="color:#000000;clip-rule:nonzero;display:block;overflow:visible;visibility:visible;opacity:1;isolation:auto;mix-blend-mode:normal;color-interpolation:sRGB;color-interpolation-filters:linearRGB;solid-color:#000000;solid-opacity:1;vector-effect:none;fill:#000000;fill-opacity:0.14136125;fill-rule:nonzero;stroke:none;stroke-width:0.66684139;stroke-linecap:butt;stroke-linejoin:miter;stroke-miterlimit:4;stroke-dasharray:none;stroke-dashoffset:0;stroke-opacity:0.07853406;marker:none;marker-start:none;marker-mid:none;marker-end:none;paint-order:fill markers stroke;color-rendering:auto;image-rendering:auto;shape-rendering:auto;text-rendering:auto;enable-background:accumulate" d="m -55,-55 h 22 l 0.0307,22 h -22.000001 z" id="rect7865-6-5-8-7" inkscape:connector-curvature="0" sodipodi:nodetypes="ccccc"/>
      <path style="color:#000000;clip-rule:nonzero;display:block;overflow:visible;visibility:visible;opacity:1;isolation:auto;mix-blend-mode:normal;color-interpolation:sRGB;color-interpolation-filters:linearRGB;solid-color:#000000;solid-opacity:1;vector-effect:none;fill:#a3acc3;fill-opacity:1;fill-rule:nonzero;stroke:none;stroke-width:0.75;stroke-linecap:butt;stroke-linejoin:miter;stroke-miterlimit:4;stroke-dasharray:none;stroke-dashoffset:0;stroke-opacity:0.07853406;marker:none;marker-start:none;marker-mid:none;marker-end:none;paint-order:fill markers stroke;color-rendering:auto;image-rendering:auto;shape-rendering:auto;text-rendering:auto;enable-background:accumulate" d="m -54,-54 h 20.001995 v 20.001994 H -54 Z" id="rect7904-2-9-6-2" inkscape:connector-curvature="0" sodipodi:nodetypes="ccccc"/>
      <path style="color:#000000;clip-rule:nonzero;display:block;overflow:visible;visibility:visible;opacity:1;isolation:auto;mix-blend-mode:normal;color-interpolation:sRGB;color-interpolation-filters:linearRGB;solid-color:#000000;solid-opacity:1;vector-effect:none;fill:#79859c;fill-opacity:1;fill-rule:nonzero;stroke:none;stroke-width:0.75;stroke-linecap:butt;stroke-linejoin:miter;stroke-miterlimit:4;stroke-dasharray:none;stroke-dashoffset:0;stroke-opacity:0.07853406;marker:none;marker-start:none;marker-mid:none;marker-end:none;paint-order:fill markers stroke;color-rendering:auto;image-rendering:auto;shape-rendering:auto;text-rendering:auto;enable-background:accumulate" d="m -47,-48 h 7 v 7 h -7 z" id="rect7819-9-2-8-7" inkscape:connector-curvature="0" sodipodi:nodetypes="ccccc"/>
      <path style="color:#000000;clip-rule:nonzero;display:block;overflow:visible;visibility:visible;opacity:1;isolation:auto;mix-blend-mode:normal;color-interpolation:sRGB;color-interpolation-filters:linearRGB;solid-color:#000000;solid-opacity:1;vector-effect:none;fill:#696e82;fill-opacity:1;fill-rule:nonzero;stroke:none;stroke-width:0.75;stroke-linecap:butt;stroke-linejoin:miter;stroke-miterlimit:4;stroke-dasharray:none;stroke-dashoffset:0;stroke-opacity:0.07853406;marker:none;marker-start:none;marker-mid:none;marker-end:none;paint-order:fill markers stroke;color-rendering:auto;image-rendering:auto;shape-rendering:auto;text-rendering:auto;enable-background:accumulate" d="m -47,-54 h 7 v 6 h -7 z" id="rect7838-1-2-8-2" inkscape:connector-curvature="0" sodipodi:nodetypes="ccccc"/>
      <path style="color:#000000;clip-rule:nonzero;display:block;overflow:visible;visibility:visible;opacity:1;isolation:auto;mix-blend-mode:normal;color-interpolation:sRGB;color-interpolation-filters:linearRGB;solid-color:#000000;solid-opacity:1;vector-effect:none;fill:#565a68;fill-opacity:1;fill-rule:nonzero;stroke:none;stroke-width:0.75;stroke-linecap:butt;stroke-linejoin:miter;stroke-miterlimit:4;stroke-dasharray:none;stroke-dashoffset:0;stroke-opacity:0.07853406;marker:none;marker-start:none;marker-mid:none;marker-end:none;paint-order:fill markers stroke;color-rendering:auto;image-rendering:auto;shape-rendering:auto;text-rendering:auto;enable-background:accumulate" d="m -54,-54 h 7 v 6 h -7 z" id="rect7840-2-8-4-2" inkscape:connector-curvature="0" sodipodi:nodetypes="ccccc"/>
      <path style="color:#000000;clip-rule:nonzero;display:block;overflow:visible;visibility:visible;opacity:1;isolation:auto;mix-blend-mode:normal;color-interpolation:sRGB;color-interpolation-filters:linearRGB;solid-color:#000000;solid-opacity:1;vector-effect:none;fill:#777a8b;fill-opacity:1;fill-rule:nonzero;stroke:none;stroke-width:0.75;stroke-linecap:butt;stroke-linejoin:miter;stroke-miterlimit:4;stroke-dasharray:none;stroke-dashoffset:0;stroke-opacity:0.07853406;marker:none;marker-start:none;marker-mid:none;marker-end:none;paint-order:fill markers stroke;color-rendering:auto;image-rendering:auto;shape-rendering:auto;text-rendering:auto;enable-background:accumulate" d="m -54,-48 h 7 v 7 h -7 z" id="rect7842-7-9-3-6" inkscape:connector-curvature="0" sodipodi:nodetypes="ccccc"/>
      <path style="color:#000000;clip-rule:nonzero;display:block;overflow:visible;visibility:visible;opacity:1;isolation:auto;mix-blend-mode:normal;color-interpolation:sRGB;color-interpolation-filters:linearRGB;solid-color:#000000;solid-opacity:1;vector-effect:none;fill:#8d98b6;fill-opacity:1;fill-rule:nonzero;stroke:none;stroke-width:0.75;stroke-linecap:butt;stroke-linejoin:miter;stroke-miterlimit:4;stroke-dasharray:none;stroke-dashoffset:0;stroke-opacity:0.07853406;marker:none;marker-start:none;marker-mid:none;marker-end:none;paint-order:fill markers stroke;color-rendering:auto;image-rendering:auto;shape-rendering:auto;text-rendering:auto;enable-background:accumulate" d="m -40,-48 h 5.998006 v 7 H -40 Z" id="rect7844-0-7-1-1" inkscape:connector-curvature="0" sodipodi:nodetypes="ccccc"/>
      <path style="color:#000000;clip-rule:nonzero;display:block;overflow:visible;visibility:visible;opacity:1;isolation:auto;mix-blend-mode:normal;color-interpolation:sRGB;color-interpolation-filters:linearRGB;solid-color:#000000;solid-opacity:1;vector-effect:none;fill:#7a8399;fill-opacity:1;fill-rule:nonzero;stroke:none;stroke-width:0.75;stroke-linecap:butt;stroke-linejoin:miter;stroke-miterlimit:4;stroke-dasharray:none;stroke-dashoffset:0;stroke-opacity:0.07853406;marker:none;marker-start:none;marker-mid:none;marker-end:none;paint-order:fill markers stroke;color-rendering:auto;image-rendering:auto;shape-rendering:auto;text-rendering:auto;enable-background:accumulate" d="m -40,-54 h 5.998006 v 6 H -40 Z" id="rect7846-9-3-4-0" inkscape:connector-curvature="0" sodipodi:nodetypes="ccccc"/>
      <path style="color:#000000;clip-rule:nonzero;display:block;overflow:visible;visibility:visible;opacity:1;isolation:auto;mix-blend-mode:normal;color-interpolation:sRGB;color-interpolation-filters:linearRGB;solid-color:#000000;solid-opacity:1;vector-effect:none;fill:#9098b0;fill-opacity:1;fill-rule:nonzero;stroke:none;stroke-width:0.75;stroke-linecap:butt;stroke-linejoin:miter;stroke-miterlimit:4;stroke-dasharray:none;stroke-dashoffset:0;stroke-opacity:0.07853406;marker:none;marker-start:none;marker-mid:none;marker-end:none;paint-order:fill markers stroke;color-rendering:auto;image-rendering:auto;shape-rendering:auto;text-rendering:auto;enable-background:accumulate" d="m -47,-41 h 7 v 6.998005 h -7 z" id="rect7848-3-6-9-6" inkscape:connector-curvature="0" sodipodi:nodetypes="ccccc"/>
      <path style="color:#000000;clip-rule:nonzero;display:block;overflow:visible;visibility:visible;opacity:1;isolation:auto;mix-blend-mode:normal;color-interpolation:sRGB;color-interpolation-filters:linearRGB;solid-color:#000000;solid-opacity:1;vector-effect:none;fill:#818da2;fill-opacity:1;fill-rule:nonzero;stroke:none;stroke-width:0.75;stroke-linecap:butt;stroke-linejoin:miter;stroke-miterlimit:4;stroke-dasharray:none;stroke-dashoffset:0;stroke-opacity:0.07853406;marker:none;marker-start:none;marker-mid:none;marker-end:none;paint-order:fill markers stroke;color-rendering:auto;image-rendering:auto;shape-rendering:auto;text-rendering:auto;enable-background:accumulate" d="m -54,-41 h 7 v 6.998005 h -7 z" id="rect7850-6-1-2-1" inkscape:connector-curvature="0" sodipodi:nodetypes="ccccc"/>
      <path style="color:#000000;clip-rule:nonzero;display:block;overflow:visible;visibility:visible;opacity:1;isolation:auto;mix-blend-mode:normal;color-interpolation:sRGB;color-interpolation-filters:linearRGB;solid-color:#000000;solid-opacity:1;vector-effect:none;fill:#ffffff;fill-opacity:0.25654452;fill-rule:nonzero;stroke:none;stroke-width:0.07446451;stroke-linecap:butt;stroke-linejoin:miter;stroke-miterlimit:4;stroke-dasharray:none;stroke-dashoffset:0;stroke-opacity:0.07853406;marker:none;marker-start:none;marker-mid:none;marker-end:none;paint-order:fill markers stroke;color-rendering:auto;image-rendering:auto;shape-rendering:auto;text-rendering:auto;enable-background:accumulate" d="m -54,-35 h 20.001995 v 0.99801 H -54 Z" id="rect7902-0-2-0-5" inkscape:connector-curvature="0" sodipodi:nodetypes="ccccc"/>
      <path style="font-size:medium;line-height:1000%;font-family:sans-serif;letter-spacing:0px;word-spacing:0px;display:inline;fill:#fefefe;fill-opacity:1;stroke:none;stroke-width:0.35866964px;stroke-linecap:butt;stroke-linejoin:miter;stroke-opacity:1" d="m -37.647928,-52.801536 c -0.633275,0 -1.131885,0.194062 -1.496157,0.58262 -0.364274,0.386691 -0.546664,0.916414 -0.546664,1.588921 0,0.670637 0.18239,1.200361 0.546664,1.588919 0.364272,0.38669 0.862882,0.580016 1.496157,0.580016 0.246588,0 0.479965,-0.03385 0.700397,-0.1011 0.222301,-0.06725 0.432551,-0.168274 0.630564,-0.302774 v -0.590961 c -0.190542,0.177466 -0.394065,0.309824 -0.610762,0.397623 -0.214828,0.0878 -0.443477,0.131845 -0.686324,0.131845 -0.478227,0 -0.844479,-0.145808 -1.098538,-0.437229 -0.254058,-0.293286 -0.380946,-0.715261 -0.380946,-1.266339 0,-0.55295 0.126888,-0.974923 0.380946,-1.26634 0.254059,-0.293289 0.620311,-0.440354 1.098538,-0.440354 0.242847,0 0.471496,0.04404 0.686324,0.131846 0.216697,0.0878 0.42022,0.220673 0.610762,0.398141 v -0.597215 c -0.194278,-0.132632 -0.402532,-0.231658 -0.62483,-0.297042 -0.220434,-0.06725 -0.455808,-0.100577 -0.706131,-0.100577 z m -13.242904,0.07556 -1.597258,4.183616 h 0.597213 l 0.380945,-1.073524 h 1.885441 l 0.381466,1.073524 h 0.588354 l -1.594652,-4.183616 z m 5.324886,0 v 4.183616 h 1.501892 c 0.468883,0 0.830407,-0.101762 1.084466,-0.305381 0.254059,-0.203619 0.380947,-0.4925 0.380947,-0.866116 0,-0.283947 -0.07738,-0.520057 -0.232425,-0.708732 -0.153183,-0.190544 -0.3689,-0.315957 -0.647242,-0.375734 0.231641,-0.03736 0.407304,-0.131659 0.526861,-0.282974 0.119555,-0.151312 0.179267,-0.354836 0.179267,-0.610761 0,-0.330646 -0.11669,-0.585681 -0.350198,-0.765014 -0.233508,-0.179336 -0.566435,-0.268904 -0.997959,-0.268904 z M -45,-52.260609 h 0.837973 c 0.276474,0 0.481992,0.05225 0.616495,0.15686 0.136371,0.104613 0.204281,0.262091 0.204281,0.473184 0,0.21296 -0.06791,0.371699 -0.204281,0.476312 C -43.680035,-51.051509 -43.885553,-51 -44.162027,-51 H -45 Z m -5.571379,0.09224 0.770748,2.081904 h -1.538371 z M -45,-50.540366 h 0.907805 c 0.304494,0 0.529673,0.06245 0.675382,0.187604 0.147579,0.123294 0.221479,0.315883 0.221479,0.577413 0,0.259661 -0.0739,0.452983 -0.221479,0.580013 -0.145709,0.125161 -0.370888,0.187607 -0.675382,0.187607 H -45 Z m -5.890832,5.187309 c -0.168127,0 -0.341054,0.01892 -0.518522,0.05629 -0.177466,0.03549 -0.360593,0.08974 -0.549269,0.162593 v 0.476309 c 0.156916,-0.08593 0.320387,-0.150372 0.490382,-0.193338 0.169994,-0.04297 0.344918,-0.06461 0.524254,-0.06461 0.282076,0 0.500529,0.0657 0.655578,0.196466 0.156918,0.128897 0.235553,0.311504 0.235553,0.548748 v 0.05055 h -0.722807 c -0.468887,0 -0.822209,0.08957 -1.059453,0.268901 -0.235377,0.179336 -0.352804,0.445826 -0.352804,0.798889 0,0.302628 0.0943,0.54473 0.282973,0.725931 0.190543,0.179336 0.446314,0.268904 0.767621,0.268904 0.254058,0 0.469039,-0.04478 0.644636,-0.134452 0.175598,-0.09154 0.322145,-0.232611 0.439834,-0.423157 v 0.476312 h 0.515395 v -1.790596 c 0,-0.478225 -0.111963,-0.835021 -0.336129,-1.070397 -0.22417,-0.235376 -0.563303,-0.353323 -1.017242,-0.353323 z m 0.325184,1.636861 h 0.512792 v 0.114649 c 0,0.336252 -0.08684,0.606212 -0.260567,0.809831 -0.171862,0.201752 -0.401032,0.302777 -0.686847,0.302777 -0.207354,0 -0.371562,-0.05351 -0.492985,-0.159986 -0.119558,-0.10835 -0.17927,-0.254155 -0.17927,-0.437226 0,-0.229773 0.08011,-0.391985 0.240763,-0.487255 0.160654,-0.09527 0.449535,-0.14279 0.866114,-0.14279 z m -0.494552,4.133068 c -0.118976,0 -0.214678,0.04084 -0.286618,0.122464 -0.07056,0.08162 -0.10579,0.192229 -0.10579,0.331959 h 0.259522 v -0.01252 c 0,-0.06226 0.0135,-0.110807 0.04116,-0.145394 0.02767,-0.03459 0.0664,-0.05159 0.116212,-0.05159 0.01659,0 0.03553,0.0037 0.05629,0.01198 0.02215,0.0069 0.05035,0.02025 0.08494,0.0396 l 0.118298,0.06879 c 0.07194,0.03736 0.128202,0.06137 0.168323,0.07243 0.0415,0.01107 0.08585,0.01667 0.132886,0.01667 0.116212,0 0.20929,-0.04084 0.279846,-0.122463 0.07194,-0.08301 0.109267,-0.193611 0.112042,-0.331959 h -0.259 v 0.01252 c 0,0.05673 -0.01401,0.10265 -0.04169,0.13862 -0.02767,0.03459 -0.0636,0.05211 -0.107874,0.05211 -0.02076,0 -0.04319,-0.0042 -0.06671,-0.01252 -0.02351,-0.0083 -0.05104,-0.02161 -0.08286,-0.0396 l -0.118296,-0.06201 c -0.06641,-0.03736 -0.120748,-0.06138 -0.163634,-0.07243 -0.0415,-0.01107 -0.08725,-0.01667 -0.137059,-0.01667 z m 0.08911,0.547704 -0.437748,0.551875 h 0.288184 l 0.344466,-0.369481 0.344466,0.369481 h 0.288703 l -0.437746,-0.551875 z m 0.213662,0.790551 c -0.348636,0 -0.626105,0.112008 -0.832241,0.33613 -0.204752,0.222739 -0.306943,0.524742 -0.306943,0.905196 0,0.368006 0.107799,0.659672 0.32362,0.875496 0.217205,0.215823 0.5115,0.32362 0.88227,0.32362 0.148032,0 0.293867,-0.01489 0.437748,-0.04534 0.143882,-0.03044 0.284108,-0.07478 0.42107,-0.132886 V -36.3438 c -0.135578,0.07194 -0.2723,0.12558 -0.410647,0.16155 -0.136964,0.03597 -0.279116,0.05419 -0.425764,0.05419 -0.253176,0 -0.451067,-0.06836 -0.593565,-0.205324 -0.141118,-0.138341 -0.219994,-0.339038 -0.23659,-0.601898 h 1.755678 v -0.186565 c 0,-0.345868 -0.09097,-0.619129 -0.273593,-0.819733 -0.181235,-0.201986 -0.428377,-0.303297 -0.741043,-0.303297 z m 0.0042,0.323621 c 0.188152,0 0.338893,0.06257 0.452339,0.187084 0.114819,0.124513 0.173887,0.290859 0.176662,0.499763 l -1.361708,0.0021 c 0.01937,-0.218588 0.09264,-0.387737 0.219915,-0.508101 0.128663,-0.120359 0.299735,-0.18083 0.512792,-0.18083 z" id="path1054-5-5" inkscape:connector-curvature="0"/>
    </g>
  </g>
</svg>