<?xml version="1.0" encoding="UTF-8" standalone="yes"?>
<svg xmlns:dc="http://purl.org/dc/elements/1.1/" xmlns:cc="http://creativecommons.org/ns#" xmlns:rdf="http://www.w3.org/1999/02/22-rdf-syntax-ns#" xmlns:svg="http://www.w3.org/2000/svg" xmlns="http://www.w3.org/2000/svg" xmlns:xlink="http://www.w3.org/1999/xlink" xmlns:sodipodi="http://sodipodi.sourceforge.net/DTD/sodipodi-0.dtd" xmlns:inkscape="http://www.inkscape.org/namespaces/inkscape" height="96" viewBox="0 0 96 96" width="96" id="svg2" version="1.1" inkscape:version="0.92.2 5c3e80d, 2017-08-06" sodipodi:docname="accessories-character-map.svg" enable-background="new" folder="96">
  <title id="title4675">Template icons dark</title>
  <metadata id="metadata24">
    <rdf:RDF>
      <cc:Work rdf:about="">
        <dc:format>image/svg+xml</dc:format>
        <dc:type rdf:resource="http://purl.org/dc/dcmitype/StillImage"/>
        <dc:title>Template icons dark</dc:title>
        <dc:date>17/05/13</dc:date>
        <dc:creator>
          <cc:Agent>
            <dc:title>wfpaisa</dc:title>
          </cc:Agent>
        </dc:creator>
        <dc:rights>
          <cc:Agent>
            <dc:title>License: GPLv3</dc:title>
          </cc:Agent>
        </dc:rights>
        <dc:language>es-en</dc:language>
        <dc:subject>
          <rdf:Bag>
            <rdf:li>plane-icon-theme</rdf:li>
          </rdf:Bag>
        </dc:subject>
        <dc:description>Template for create set icons</dc:description>
        <cc:license rdf:resource="https://www.gnu.org/licenses/gpl-3.0.en.html"/>
      </cc:Work>
    </rdf:RDF>
  </metadata>
  <defs id="defs22">
    <linearGradient id="linearGradient7762">
      <stop style="stop-color:#003783;stop-opacity:1" offset="0" id="stop7758"/>
      <stop style="stop-color:#69e5ff;stop-opacity:1" offset="1" id="stop7760"/>
    </linearGradient>
    <linearGradient inkscape:collect="always" xlink:href="#linearGradient7762" id="linearGradient7994" gradientUnits="userSpaceOnUse" x1="120" y1="120" x2="203.05511" y2="204"/>
    <linearGradient inkscape:collect="always" xlink:href="#linearGradient7762" id="linearGradient8343" gradientUnits="userSpaceOnUse" x1="120" y1="120" x2="203.05511" y2="204"/>
    <clipPath clipPathUnits="userSpaceOnUse" id="clipPath8339-4">
      <path inkscape:label="base para recorte" style="color:#000000;clip-rule:nonzero;display:inline;overflow:visible;visibility:visible;opacity:1;isolation:auto;mix-blend-mode:normal;color-interpolation:sRGB;color-interpolation-filters:linearRGB;solid-color:#000000;solid-opacity:1;vector-effect:none;fill:url(#linearGradient8343);fill-opacity:1;fill-rule:nonzero;stroke:none;stroke-width:1;stroke-linecap:butt;stroke-linejoin:miter;stroke-miterlimit:4;stroke-dasharray:none;stroke-dashoffset:0;stroke-opacity:0.43455499;marker:none;marker-start:none;marker-mid:none;marker-end:none;paint-order:fill markers stroke;color-rendering:auto;image-rendering:auto;shape-rendering:auto;text-rendering:auto;enable-background:accumulate" d="M 128.55273,116 C 121.5982,116 116,121.5982 116,128.55273 v 30.89454 c 0,0.0936 0.0117,0.18419 0.0137,0.27734 -0.005,0.0918 -0.009,0.18358 -0.0137,0.27539 2e-5,24.30052 19.69948,43.99998 44,44 24.30052,-2e-5 43.99998,-19.69948 44,-44 -2e-5,-24.30052 -19.69948,-43.99998 -44,-44 -0.10809,0.004 -0.21616,0.007 -0.32422,0.0117 C 159.59898,116.0107 159.52444,116 159.44727,116 Z M 130,122 c 4.41828,-1e-5 8.00001,3.58172 8,8 1e-5,4.41828 -3.58172,8.00001 -8,8 -4.41828,1e-5 -8.00001,-3.58172 -8,-8 -1e-5,-4.41828 3.58172,-8.00001 8,-8 z" id="path8341-7" inkscape:connector-curvature="0" sodipodi:nodetypes="sssccccccssccccc" sodipodi:insensitive="true"/>
    </clipPath>
  </defs>
  <sodipodi:namedview pagecolor="#383c4a" bordercolor="#ffffff" borderopacity="0.62745098" objecttolerance="4" gridtolerance="10" guidetolerance="4" inkscape:pageopacity="0" inkscape:pageshadow="2" inkscape:window-width="640" inkscape:window-height="480" id="namedview20" showgrid="true" inkscape:zoom="2.9402989" inkscape:cx="281.78867" inkscape:cy="-216.80815" inkscape:current-layer="layer6" inkscape:snap-smooth-nodes="false" showguides="true" borderlayer="true" inkscape:showpageshadow="false" inkscape:guide-bbox="true" guidecolor="#bd4fff" guideopacity="0.78431373" inkscape:snap-nodes="true" inkscape:lockguides="false" fit-margin-top="0" fit-margin-left="0" fit-margin-right="0" fit-margin-bottom="0" guidehicolor="#ff0101" guidehiopacity="0.78431373" inkscape:snap-page="true" inkscape:object-nodes="true" inkscape:snap-bbox="true" inkscape:snap-global="true" inkscape:snap-object-midpoints="false" inkscape:snap-bbox-edge-midpoints="false">
    <inkscape:grid type="xygrid" id="grid4171" empspacing="4" dotted="false" originx="2.7755576e-17" originy="0" spacingx="1" spacingy="1" color="#5a5a5a" opacity="0.23529412" empcolor="#5a5a5a" empopacity="0.47058824" visible="true"/>
    <inkscape:grid type="axonomgrid" id="grid4699" units="mm" empspacing="4" color="#5a5a5a" opacity="0.23529412" empcolor="#5a5a5a" empopacity="0.47058824" gridanglex="45" gridanglez="45" spacingy="3.7795276" visible="false" originx="1.3228346" originy="1.3228346"/>
    <sodipodi:guide position="48,0" orientation="1,0" id="guide4568" inkscape:locked="false" inkscape:label="" inkscape:color="rgb(189,79,255)"/>
    <sodipodi:guide position="111.99996,-3.9999999e-05" orientation="0,1" id="guide4570" inkscape:locked="false" inkscape:label="" inkscape:color="rgb(189,79,255)"/>
    <sodipodi:guide position="0,0" orientation="1,0" id="guide4572" inkscape:locked="false" inkscape:label="" inkscape:color="rgb(189,79,255)"/>
    <sodipodi:guide position="0,48" orientation="0,1" id="guide4574" inkscape:locked="false" inkscape:label="" inkscape:color="rgb(189,79,255)"/>
    <sodipodi:guide position="0,80" orientation="0,1" id="guide4576" inkscape:locked="false" inkscape:label="" inkscape:color="rgb(189,79,255)"/>
    <sodipodi:guide position="-32,48" orientation="1,0" id="guide4578" inkscape:locked="false" inkscape:label="" inkscape:color="rgb(189,79,255)"/>
    <sodipodi:guide position="-32,104" orientation="0,1" id="guide4580" inkscape:locked="false" inkscape:label="" inkscape:color="rgb(189,79,255)"/>
    <sodipodi:guide position="-56,80" orientation="1,0" id="guide4582" inkscape:locked="false" inkscape:label="" inkscape:color="rgb(189,79,255)"/>
    <sodipodi:guide position="48,-64" orientation="0,1" id="guide4584" inkscape:locked="false" inkscape:label="" inkscape:color="rgb(189,79,255)"/>
    <sodipodi:guide position="0,0" orientation="-0.70710678,0.70710678" id="guide4588" inkscape:locked="false" inkscape:label="" inkscape:color="rgb(189,79,255)"/>
    <sodipodi:guide position="-56,80" orientation="-0.70710678,0.70710678" id="guide4573" inkscape:locked="false" inkscape:label="" inkscape:color="rgb(189,79,255)"/>
    <sodipodi:guide position="-32,48" orientation="-0.70710678,0.70710678" id="guide4575" inkscape:locked="false" inkscape:label="" inkscape:color="rgb(189,79,255)"/>
    <sodipodi:guide position="48,-64" orientation="-0.70710678,0.70710678" id="guide4577" inkscape:locked="false" inkscape:label="" inkscape:color="rgb(189,79,255)"/>
    <sodipodi:guide position="160,-112.12599" orientation="0.70710678,0.70710678" id="guide4697" inkscape:locked="false" inkscape:label="" inkscape:color="rgb(189,79,255)"/>
    <sodipodi:guide position="207.99995,-288" orientation="0,1" id="guide7833" inkscape:locked="false"/>
    <sodipodi:guide position="335.99994,-288" orientation="1,0" id="guide7835" inkscape:locked="false" inkscape:label="" inkscape:color="rgb(189,79,255)"/>
    <sodipodi:guide position="111.99996,-64" orientation="1,0" id="guide7915" inkscape:locked="false"/>
    <sodipodi:guide position="111.99996,-160" orientation="0,1" id="guide7917" inkscape:locked="false"/>
    <sodipodi:guide position="207.99996,-160" orientation="1,0" id="guide7919" inkscape:locked="false"/>
    <sodipodi:guide position="111.99996,-160" orientation="-0.70710678,0.70710678" id="guide7921" inkscape:locked="false" inkscape:label="" inkscape:color="rgb(189,79,255)"/>
    <sodipodi:guide position="207.99996,-288" orientation="-0.70710678,0.70710678" id="guide7923" inkscape:locked="false" inkscape:label="" inkscape:color="rgb(189,79,255)"/>
    <sodipodi:guide position="-72,104" orientation="1,0" id="guide7824" inkscape:locked="false"/>
    <sodipodi:guide position="-56,120" orientation="0,1" id="guide7826" inkscape:locked="false"/>
    <sodipodi:guide position="-72,104" orientation="-0.70710678,0.70710678" id="guide7828" inkscape:locked="false" inkscape:label="" inkscape:color="rgb(189,79,255)"/>
  </sodipodi:namedview>
  <g style="display:inline" inkscape:label="icon_96" id="g8840" inkscape:groupmode="layer" transform="translate(-111.99996,-112)">
    <g style="display:none" inkscape:label="frame" id="g8776" inkscape:groupmode="layer">
      <rect style="color:#000000;clip-rule:nonzero;display:inline;overflow:visible;visibility:visible;opacity:1;isolation:auto;mix-blend-mode:normal;color-interpolation:sRGB;color-interpolation-filters:linearRGB;solid-color:#000000;solid-opacity:1;vector-effect:none;fill:#000000;fill-opacity:1;fill-rule:nonzero;stroke:#ff24f7;stroke-width:0;stroke-linecap:square;stroke-linejoin:miter;stroke-miterlimit:4;stroke-dasharray:none;stroke-dashoffset:0;stroke-opacity:0.99481865;marker:none;marker-start:none;marker-mid:none;marker-end:none;paint-order:normal;color-rendering:auto;image-rendering:auto;shape-rendering:auto;text-rendering:auto;enable-background:accumulate" id="rect_96" width="96" height="96" x="111.99996" y="112" inkscape:label="frame_96"/>
      <text inkscape:label="txt_96" id="text_96" y="168.73633" x="144.72458" style="font-size:24px;line-height:0%;font-family:sans-serif;letter-spacing:0px;word-spacing:0px;display:inline;opacity:1;fill:#ffffff;fill-opacity:1;stroke:none;stroke-width:0.04917826px;stroke-linecap:butt;stroke-linejoin:miter;stroke-opacity:1" xml:space="preserve">
        <tspan id="tspan8768" style="font-size:24px;line-height:0%;fill:#ffffff;fill-opacity:1;stroke:none;stroke-width:0.04917826px" y="168.73633" x="144.72458" sodipodi:role="line">96</tspan>
      </text>
    </g>
    <g style="display:inline" inkscape:label="icon" id="g8838" inkscape:groupmode="layer">
      <path style="color:#000000;clip-rule:nonzero;display:block;overflow:visible;visibility:visible;opacity:1;isolation:auto;mix-blend-mode:normal;color-interpolation:sRGB;color-interpolation-filters:linearRGB;solid-color:#000000;solid-opacity:1;vector-effect:none;fill:#000000;fill-opacity:0.14136125;fill-rule:nonzero;stroke:none;stroke-width:2.3125;stroke-linecap:butt;stroke-linejoin:miter;stroke-miterlimit:4;stroke-dasharray:none;stroke-dashoffset:0;stroke-opacity:0.07853406;marker:none;marker-start:none;marker-mid:none;marker-end:none;paint-order:fill markers stroke;color-rendering:auto;image-rendering:auto;shape-rendering:auto;text-rendering:auto;enable-background:accumulate" d="m 123,123 h 74 v 74 h -74 z" id="rect7865" inkscape:connector-curvature="0"/>
      <path style="color:#000000;clip-rule:nonzero;display:block;overflow:visible;visibility:visible;opacity:1;isolation:auto;mix-blend-mode:normal;color-interpolation:sRGB;color-interpolation-filters:linearRGB;solid-color:#000000;solid-opacity:1;vector-effect:none;fill:#5b5b5b;fill-opacity:1;fill-rule:nonzero;stroke:none;stroke-width:2.25043201;stroke-linecap:butt;stroke-linejoin:miter;stroke-miterlimit:4;stroke-dasharray:none;stroke-dashoffset:0;stroke-opacity:0.07853406;marker:none;marker-start:none;marker-mid:none;marker-end:none;paint-order:fill markers stroke;color-rendering:auto;image-rendering:auto;shape-rendering:auto;text-rendering:auto;enable-background:accumulate" d="m 124,124 h 72.01382 v 72.01382 H 124 Z" id="rect7904" inkscape:connector-curvature="0"/>
      <path style="color:#000000;clip-rule:nonzero;display:block;overflow:visible;visibility:visible;opacity:1;isolation:auto;mix-blend-mode:normal;color-interpolation:sRGB;color-interpolation-filters:linearRGB;solid-color:#000000;solid-opacity:1;vector-effect:none;fill:#79859c;fill-opacity:1;fill-rule:nonzero;stroke:none;stroke-width:0.75;stroke-linecap:butt;stroke-linejoin:miter;stroke-miterlimit:4;stroke-dasharray:none;stroke-dashoffset:0;stroke-opacity:0.07853406;marker:none;marker-start:none;marker-mid:none;marker-end:none;paint-order:fill markers stroke;color-rendering:auto;image-rendering:auto;shape-rendering:auto;text-rendering:auto;enable-background:accumulate" d="m 148,148 h 24 v 24 h -24 z" id="rect7819" inkscape:connector-curvature="0"/>
      <path style="color:#000000;clip-rule:nonzero;display:block;overflow:visible;visibility:visible;opacity:1;isolation:auto;mix-blend-mode:normal;color-interpolation:sRGB;color-interpolation-filters:linearRGB;solid-color:#000000;solid-opacity:1;vector-effect:none;fill:#696e82;fill-opacity:1;fill-rule:nonzero;stroke:none;stroke-width:0.75;stroke-linecap:butt;stroke-linejoin:miter;stroke-miterlimit:4;stroke-dasharray:none;stroke-dashoffset:0;stroke-opacity:0.07853406;marker:none;marker-start:none;marker-mid:none;marker-end:none;paint-order:fill markers stroke;color-rendering:auto;image-rendering:auto;shape-rendering:auto;text-rendering:auto;enable-background:accumulate" d="m 148,124 h 24 v 24 h -24 z" id="rect7838" inkscape:connector-curvature="0"/>
      <path style="color:#000000;clip-rule:nonzero;display:block;overflow:visible;visibility:visible;opacity:1;isolation:auto;mix-blend-mode:normal;color-interpolation:sRGB;color-interpolation-filters:linearRGB;solid-color:#000000;solid-opacity:1;vector-effect:none;fill:#565a68;fill-opacity:1;fill-rule:nonzero;stroke:none;stroke-width:0.75;stroke-linecap:butt;stroke-linejoin:miter;stroke-miterlimit:4;stroke-dasharray:none;stroke-dashoffset:0;stroke-opacity:0.07853406;marker:none;marker-start:none;marker-mid:none;marker-end:none;paint-order:fill markers stroke;color-rendering:auto;image-rendering:auto;shape-rendering:auto;text-rendering:auto;enable-background:accumulate" d="m 124,124 h 24 v 24 h -24 z" id="rect7840" inkscape:connector-curvature="0"/>
      <path style="color:#000000;clip-rule:nonzero;display:block;overflow:visible;visibility:visible;opacity:1;isolation:auto;mix-blend-mode:normal;color-interpolation:sRGB;color-interpolation-filters:linearRGB;solid-color:#000000;solid-opacity:1;vector-effect:none;fill:#777a8b;fill-opacity:1;fill-rule:nonzero;stroke:none;stroke-width:0.75;stroke-linecap:butt;stroke-linejoin:miter;stroke-miterlimit:4;stroke-dasharray:none;stroke-dashoffset:0;stroke-opacity:0.07853406;marker:none;marker-start:none;marker-mid:none;marker-end:none;paint-order:fill markers stroke;color-rendering:auto;image-rendering:auto;shape-rendering:auto;text-rendering:auto;enable-background:accumulate" d="m 124,148 h 24 v 24 h -24 z" id="rect7842" inkscape:connector-curvature="0"/>
      <path style="color:#000000;clip-rule:nonzero;display:block;overflow:visible;visibility:visible;opacity:1;isolation:auto;mix-blend-mode:normal;color-interpolation:sRGB;color-interpolation-filters:linearRGB;solid-color:#000000;solid-opacity:1;vector-effect:none;fill:#8d98b6;fill-opacity:1;fill-rule:nonzero;stroke:none;stroke-width:0.75;stroke-linecap:butt;stroke-linejoin:miter;stroke-miterlimit:4;stroke-dasharray:none;stroke-dashoffset:0;stroke-opacity:0.07853406;marker:none;marker-start:none;marker-mid:none;marker-end:none;paint-order:fill markers stroke;color-rendering:auto;image-rendering:auto;shape-rendering:auto;text-rendering:auto;enable-background:accumulate" d="m 172,148 h 24 v 24 h -24 z" id="rect7844" inkscape:connector-curvature="0"/>
      <path style="color:#000000;clip-rule:nonzero;display:block;overflow:visible;visibility:visible;opacity:1;isolation:auto;mix-blend-mode:normal;color-interpolation:sRGB;color-interpolation-filters:linearRGB;solid-color:#000000;solid-opacity:1;vector-effect:none;fill:#7a8399;fill-opacity:1;fill-rule:nonzero;stroke:none;stroke-width:0.75;stroke-linecap:butt;stroke-linejoin:miter;stroke-miterlimit:4;stroke-dasharray:none;stroke-dashoffset:0;stroke-opacity:0.07853406;marker:none;marker-start:none;marker-mid:none;marker-end:none;paint-order:fill markers stroke;color-rendering:auto;image-rendering:auto;shape-rendering:auto;text-rendering:auto;enable-background:accumulate" d="m 172,124 h 24 v 24 h -24 z" id="rect7846" inkscape:connector-curvature="0"/>
      <path style="color:#000000;clip-rule:nonzero;display:block;overflow:visible;visibility:visible;opacity:1;isolation:auto;mix-blend-mode:normal;color-interpolation:sRGB;color-interpolation-filters:linearRGB;solid-color:#000000;solid-opacity:1;vector-effect:none;fill:#9098b0;fill-opacity:1;fill-rule:nonzero;stroke:none;stroke-width:0.75;stroke-linecap:butt;stroke-linejoin:miter;stroke-miterlimit:4;stroke-dasharray:none;stroke-dashoffset:0;stroke-opacity:0.07853406;marker:none;marker-start:none;marker-mid:none;marker-end:none;paint-order:fill markers stroke;color-rendering:auto;image-rendering:auto;shape-rendering:auto;text-rendering:auto;enable-background:accumulate" d="m 148,172 h 24 v 24 h -24 z" id="rect7848" inkscape:connector-curvature="0"/>
      <path style="color:#000000;clip-rule:nonzero;display:block;overflow:visible;visibility:visible;opacity:1;isolation:auto;mix-blend-mode:normal;color-interpolation:sRGB;color-interpolation-filters:linearRGB;solid-color:#000000;solid-opacity:1;vector-effect:none;fill:#818da2;fill-opacity:1;fill-rule:nonzero;stroke:none;stroke-width:0.75;stroke-linecap:butt;stroke-linejoin:miter;stroke-miterlimit:4;stroke-dasharray:none;stroke-dashoffset:0;stroke-opacity:0.07853406;marker:none;marker-start:none;marker-mid:none;marker-end:none;paint-order:fill markers stroke;color-rendering:auto;image-rendering:auto;shape-rendering:auto;text-rendering:auto;enable-background:accumulate" d="m 124,172 h 24 v 24 h -24 z" id="rect7850" inkscape:connector-curvature="0"/>
      <path inkscape:connector-curvature="0" id="path1032" d="m 172,172 h 24 v 24 h -24 z" style="color:#000000;clip-rule:nonzero;display:block;overflow:visible;visibility:visible;opacity:1;isolation:auto;mix-blend-mode:normal;color-interpolation:sRGB;color-interpolation-filters:linearRGB;solid-color:#000000;solid-opacity:1;vector-effect:none;fill:#a3acc3;fill-opacity:1;fill-rule:nonzero;stroke:none;stroke-width:0.75;stroke-linecap:butt;stroke-linejoin:miter;stroke-miterlimit:4;stroke-dasharray:none;stroke-dashoffset:0;stroke-opacity:0.07853406;marker:none;marker-start:none;marker-mid:none;marker-end:none;paint-order:fill markers stroke;color-rendering:auto;image-rendering:auto;shape-rendering:auto;text-rendering:auto;enable-background:accumulate"/>
      <path style="color:#000000;clip-rule:nonzero;display:block;overflow:visible;visibility:visible;opacity:1;isolation:auto;mix-blend-mode:normal;color-interpolation:sRGB;color-interpolation-filters:linearRGB;solid-color:#000000;solid-opacity:1;vector-effect:none;fill:#ffffff;fill-opacity:0.25654452;fill-rule:nonzero;stroke:none;stroke-width:0.25823116;stroke-linecap:butt;stroke-linejoin:miter;stroke-miterlimit:4;stroke-dasharray:none;stroke-dashoffset:0;stroke-opacity:0.07853406;marker:none;marker-start:none;marker-mid:none;marker-end:none;paint-order:fill markers stroke;color-rendering:auto;image-rendering:auto;shape-rendering:auto;text-rendering:auto;enable-background:accumulate" d="m 124,195.0518 h 72.01382 v 0.94821 H 124 Z" id="rect7902" inkscape:connector-curvature="0"/>
      <path style="font-size:medium;line-height:1000%;font-family:sans-serif;letter-spacing:0px;word-spacing:0px;fill:#fefefe;fill-opacity:1;stroke:none;stroke-width:1.34425056px;stroke-linecap:butt;stroke-linejoin:miter;stroke-opacity:1" d="m 185.34274,128.18307 c -2.37344,0 -4.24217,0.72732 -5.60742,2.18359 -1.36525,1.44927 -2.04883,3.43461 -2.04883,5.95508 0,2.51347 0.68358,4.49881 2.04883,5.95508 1.36525,1.44927 3.23398,2.17383 5.60742,2.17383 0.92418,0 1.79885,-0.12686 2.625,-0.37891 0.83316,-0.25205 1.62115,-0.63067 2.36328,-1.13476 v -2.21485 c -0.71413,0.66512 -1.47691,1.16118 -2.28906,1.49024 -0.80515,0.32906 -1.6621,0.49414 -2.57226,0.49414 -1.79234,0 -3.16501,-0.54647 -4.11719,-1.63868 -0.95218,-1.0992 -1.42774,-2.68071 -1.42774,-4.74609 0,-2.07239 0.47556,-3.65389 1.42774,-4.74609 0.95218,-1.09921 2.32485,-1.65039 4.11719,-1.65039 0.91016,0 1.76711,0.16507 2.57226,0.49414 0.81215,0.32906 1.57493,0.82706 2.28906,1.49219 v -2.23829 c -0.72813,-0.49709 -1.50864,-0.86823 -2.34179,-1.11328 -0.82616,-0.25204 -1.70831,-0.37695 -2.64649,-0.37695 z m -49.63281,0.2832 -5.98633,15.67969 h 2.23828 l 1.42774,-4.02344 h 7.0664 l 1.42969,4.02344 h 2.20508 l -5.97656,-15.67969 z m 19.95703,0 v 15.67969 h 5.62891 c 1.75732,0 3.11227,-0.38139 4.06445,-1.14453 0.95218,-0.76314 1.42774,-1.84583 1.42774,-3.2461 0,-1.0642 -0.28999,-1.94911 -0.8711,-2.65624 -0.57411,-0.71414 -1.38259,-1.18417 -2.42578,-1.40821 0.86816,-0.14002 1.52652,-0.49344 1.97461,-1.06055 0.44808,-0.5671 0.67187,-1.32988 0.67187,-2.28906 0,-1.23922 -0.43734,-2.19506 -1.3125,-2.86718 -0.87516,-0.67213 -2.12293,-1.00782 -3.74023,-1.00782 z m 2.1211,1.74414 h 3.14062 c 1.03619,0 1.80645,0.19582 2.31055,0.58789 0.5111,0.39208 0.76562,0.98229 0.76562,1.77344 0,0.79815 -0.25452,1.39308 -0.76562,1.78516 -0.5041,0.38507 -1.27436,0.57812 -2.31055,0.57812 h -3.14062 z m -20.88086,0.34571 2.88867,7.80273 h -5.76563 z m 20.88086,6.10156 h 3.40234 c 1.14121,0 1.98515,0.23404 2.53125,0.70312 0.55311,0.46209 0.83008,1.18389 0.83008,2.16407 0,0.97318 -0.27697,1.69773 -0.83008,2.17382 -0.5461,0.46909 -1.39004,0.70313 -2.53125,0.70313 h -3.40234 z m -22.07813,19.44141 c -0.63012,0 -1.27823,0.0709 -1.94336,0.21093 -0.66512,0.13302 -1.35146,0.33632 -2.05859,0.60938 v 1.78515 c 0.5881,-0.32206 1.20077,-0.56358 1.83789,-0.72461 0.63712,-0.16103 1.29271,-0.24218 1.96484,-0.24218 1.05719,0 1.87592,0.24623 2.45703,0.73633 0.58811,0.48309 0.88282,1.16748 0.88282,2.05664 v 0.18945 h -2.70899 c -1.75733,0 -3.08154,0.33568 -3.9707,1.00781 -0.88217,0.67213 -1.32227,1.6709 -1.32227,2.99414 0,1.13421 0.35342,2.04158 1.06055,2.7207 0.71413,0.67213 1.67273,1.00782 2.87695,1.00782 0.95218,0 1.7579,-0.16785 2.41602,-0.50391 0.65812,-0.34307 1.20736,-0.8718 1.64844,-1.58594 v 1.78516 h 1.93164 v -6.71094 c 0,-1.79233 -0.41962,-3.12956 -1.25977,-4.01172 -0.84016,-0.88216 -2.11119,-1.32421 -3.8125,-1.32421 z m 1.21875,6.13476 h 1.92188 v 0.42969 c 0,1.26023 -0.32545,2.27201 -0.97657,3.03515 -0.64412,0.75614 -1.50302,1.13477 -2.57422,1.13477 -0.77714,0 -1.39257,-0.20054 -1.84765,-0.59961 -0.44809,-0.40608 -0.67188,-0.95254 -0.67188,-1.63867 0,-0.86116 0.30023,-1.46911 0.90235,-1.82617 0.60211,-0.35707 1.6848,-0.53516 3.24609,-0.53516 z m -1.85352,15.49024 c -0.44591,0 -0.80459,0.15306 -1.07421,0.45898 -0.26444,0.30592 -0.39649,0.72045 -0.39649,1.24414 h 0.97266 v -0.0469 c 0,-0.23333 0.0506,-0.41529 0.15429,-0.54492 0.1037,-0.12962 0.24888,-0.19336 0.43555,-0.19336 0.0622,0 0.13317,0.0138 0.21094,0.0449 0.083,0.0259 0.18872,0.0759 0.31836,0.14843 l 0.44336,0.25782 c 0.26962,0.14 0.48049,0.23001 0.63086,0.27148 0.15555,0.0415 0.32175,0.0625 0.49804,0.0625 0.43555,0 0.78439,-0.15306 1.04883,-0.45898 0.2696,-0.3111 0.40952,-0.72563 0.41992,-1.24414 h -0.9707 v 0.0469 c 0,0.21259 -0.0525,0.38472 -0.15625,0.51953 -0.1037,0.12963 -0.23838,0.19531 -0.4043,0.19531 -0.0778,0 -0.16185,-0.0157 -0.25,-0.0469 -0.0881,-0.0311 -0.19129,-0.081 -0.31054,-0.14844 l -0.44336,-0.23242 c -0.24889,-0.14001 -0.45255,-0.23002 -0.61328,-0.27148 -0.15556,-0.0415 -0.32701,-0.0625 -0.51368,-0.0625 z m 0.33399,2.05273 -1.64063,2.06836 h 1.08008 l 1.29102,-1.38477 1.29101,1.38477 h 1.08203 l -1.64062,-2.06836 z m 0.80078,2.96289 c -1.30665,0 -2.34657,0.41979 -3.11914,1.25977 -0.76739,0.8348 -1.15039,1.96667 -1.15039,3.39257 0,1.37924 0.40402,2.47237 1.21289,3.28125 0.81406,0.80888 1.91704,1.21289 3.30664,1.21289 0.55481,0 1.10138,-0.0558 1.64063,-0.16992 0.53925,-0.11407 1.0648,-0.28027 1.57812,-0.49804 v -1.35352 c -0.50813,0.26963 -1.02055,0.47066 -1.53906,0.60547 -0.51332,0.13481 -1.04609,0.20312 -1.59571,0.20312 -0.94887,0 -1.69054,-0.2562 -2.22461,-0.76953 -0.52889,-0.5185 -0.82451,-1.27069 -0.88671,-2.25586 h 6.58007 v -0.69922 c 0,-1.29627 -0.34096,-2.32042 -1.02539,-3.07226 -0.67925,-0.75702 -1.60551,-1.13672 -2.77734,-1.13672 z m 0.0156,1.21289 c 0.70517,0 1.27013,0.23451 1.69531,0.70117 0.43033,0.46666 0.65171,1.0901 0.66211,1.87305 l -5.10352,0.008 c 0.0726,-0.81924 0.34719,-1.45319 0.82422,-1.9043 0.48221,-0.45109 1.12337,-0.67773 1.92188,-0.67773 z" id="path1054" inkscape:connector-curvature="0"/>
      <rect style="color:#000000;clip-rule:nonzero;display:block;overflow:visible;visibility:visible;opacity:1;isolation:auto;mix-blend-mode:normal;color-interpolation:sRGB;color-interpolation-filters:linearRGB;solid-color:#000000;solid-opacity:1;vector-effect:none;fill:#698fb2;fill-opacity:1;fill-rule:nonzero;stroke:#232323;stroke-width:1.99199998;stroke-linecap:butt;stroke-linejoin:miter;stroke-miterlimit:4;stroke-dasharray:none;stroke-dashoffset:0;stroke-opacity:0.14136125;marker:none;marker-start:none;marker-mid:none;marker-end:none;paint-order:fill markers stroke;color-rendering:auto;image-rendering:auto;shape-rendering:auto;text-rendering:auto;enable-background:accumulate" id="rect7906" width="0" height="0" x="0" y="0"/>
    </g>
  </g>
</svg>