<?xml version="1.0" encoding="UTF-8" standalone="yes"?>
<svg xmlns:dc="http://purl.org/dc/elements/1.1/" xmlns:cc="http://creativecommons.org/ns#" xmlns:rdf="http://www.w3.org/1999/02/22-rdf-syntax-ns#" xmlns:svg="http://www.w3.org/2000/svg" xmlns="http://www.w3.org/2000/svg" xmlns:xlink="http://www.w3.org/1999/xlink" xmlns:sodipodi="http://sodipodi.sourceforge.net/DTD/sodipodi-0.dtd" xmlns:inkscape="http://www.inkscape.org/namespaces/inkscape" height="96" viewBox="0 0 96 96" width="96" id="svg2" version="1.1" inkscape:version="0.92.2 5c3e80d, 2017-08-06" sodipodi:docname="hexchat.svg" enable-background="new" folder="96">
  <title id="title4675">Template icons dark</title>
  <metadata id="metadata24">
    <rdf:RDF>
      <cc:Work rdf:about="">
        <dc:format>image/svg+xml</dc:format>
        <dc:type rdf:resource="http://purl.org/dc/dcmitype/StillImage"/>
        <dc:title>Template icons dark</dc:title>
        <dc:date>17/05/13</dc:date>
        <dc:creator>
          <cc:Agent>
            <dc:title>wfpaisa</dc:title>
          </cc:Agent>
        </dc:creator>
        <dc:rights>
          <cc:Agent>
            <dc:title>License: GPLv3</dc:title>
          </cc:Agent>
        </dc:rights>
        <dc:language>es-en</dc:language>
        <dc:subject>
          <rdf:Bag>
            <rdf:li>plane-icon-theme</rdf:li>
          </rdf:Bag>
        </dc:subject>
        <dc:description>Template for create set icons</dc:description>
        <cc:license rdf:resource="https://www.gnu.org/licenses/gpl-3.0.en.html"/>
      </cc:Work>
    </rdf:RDF>
  </metadata>
  <defs id="defs22">
    <linearGradient inkscape:collect="always" id="linearGradient1062">
      <stop style="stop-color:#6e685c;stop-opacity:1" offset="0" id="stop1058"/>
      <stop style="stop-color:#7f6a7f;stop-opacity:1" offset="1" id="stop1060"/>
    </linearGradient>
    <linearGradient id="linearGradient1011">
      <stop style="stop-color:#fadd9a;stop-opacity:0.26373628" offset="0" id="stop1007"/>
      <stop style="stop-color:#ffffff;stop-opacity:0" offset="1" id="stop1009"/>
    </linearGradient>
    <linearGradient id="linearGradient1003">
      <stop id="stop999" offset="0" style="stop-color:#000000;stop-opacity:0.02197802"/>
      <stop id="stop1001" offset="1" style="stop-color:#ffffff;stop-opacity:0"/>
    </linearGradient>
    <linearGradient id="linearGradient951">
      <stop style="stop-color:#000000;stop-opacity:0.02197802" offset="0" id="stop947"/>
      <stop style="stop-color:#111111;stop-opacity:0.55128205;" offset="1" id="stop949"/>
    </linearGradient>
    <linearGradient inkscape:collect="always" id="linearGradient937">
      <stop style="stop-color:#262532;stop-opacity:1" offset="0" id="stop933"/>
      <stop style="stop-color:#39343d;stop-opacity:1" offset="1" id="stop935"/>
    </linearGradient>
    <linearGradient inkscape:collect="always" id="linearGradient919">
      <stop style="stop-color:#f75100;stop-opacity:1" offset="0" id="stop915"/>
      <stop style="stop-color:#ffae11;stop-opacity:1" offset="1" id="stop917"/>
    </linearGradient>
    <linearGradient inkscape:collect="always" id="linearGradient890">
      <stop style="stop-color:#23211d;stop-opacity:1" offset="0" id="stop886"/>
      <stop style="stop-color:#3f474b;stop-opacity:1" offset="1" id="stop888"/>
    </linearGradient>
    <linearGradient inkscape:collect="always" xlink:href="#linearGradient890" id="linearGradient892" x1="163.84251" y1="197.85826" x2="163.84251" y2="124" gradientUnits="userSpaceOnUse"/>
    <linearGradient inkscape:collect="always" xlink:href="#linearGradient919" id="linearGradient921" x1="160" y1="182.11389" x2="160" y2="138" gradientUnits="userSpaceOnUse"/>
    <linearGradient inkscape:collect="always" xlink:href="#linearGradient937" id="linearGradient939" x1="165.5748" y1="196.64023" x2="165.5748" y2="124" gradientUnits="userSpaceOnUse"/>
    <linearGradient inkscape:collect="always" xlink:href="#linearGradient951" id="linearGradient957" gradientUnits="userSpaceOnUse" x1="157.44095" y1="165" x2="152.50394" y2="178" gradientTransform="matrix(-1,0,0,1,319.97656,0)"/>
    <linearGradient inkscape:collect="always" xlink:href="#linearGradient951" id="linearGradient963" gradientUnits="userSpaceOnUse" x1="157.44095" y1="165" x2="152.50394" y2="178" gradientTransform="matrix(1,0,0,-1,0,321.42)"/>
    <linearGradient inkscape:collect="always" xlink:href="#linearGradient951" id="linearGradient965" gradientUnits="userSpaceOnUse" gradientTransform="rotate(-180,159.98828,160.71002)" x1="157.44095" y1="165" x2="152.50394" y2="178"/>
    <linearGradient inkscape:collect="always" xlink:href="#linearGradient951" id="linearGradient991" gradientUnits="userSpaceOnUse" x1="152.96036" y1="169.59766" x2="150.53516" y2="166.59766" gradientTransform="matrix(1,0,0,-1,-9.53516,354.59766)"/>
    <linearGradient inkscape:collect="always" xlink:href="#linearGradient951" id="linearGradient957-3" gradientUnits="userSpaceOnUse" x1="157.44095" y1="165" x2="152.50394" y2="178" gradientTransform="matrix(-1,0,0,1,159.98828,-160.75391)"/>
    <linearGradient inkscape:collect="always" xlink:href="#linearGradient951" id="linearGradient1036" gradientUnits="userSpaceOnUse" gradientTransform="matrix(-1,0,0,1,319.97656,0)" x1="162.53561" y1="165" x2="171.25215" y2="173"/>
    <linearGradient inkscape:collect="always" xlink:href="#linearGradient1062" id="linearGradient1064" x1="166.3307" y1="203.9016" x2="166.3307" y2="116" gradientUnits="userSpaceOnUse"/>
    <linearGradient inkscape:collect="always" xlink:href="#linearGradient937" id="linearGradient1073" gradientUnits="userSpaceOnUse" x1="165.5748" y1="196.64023" x2="165.5748" y2="124"/>
    <linearGradient gradientTransform="matrix(1.3333331,0,0,1.3333331,58.666708,58.666698)" inkscape:collect="always" xlink:href="#linearGradient937" id="linearGradient1073-3" gradientUnits="userSpaceOnUse" x1="165.5748" y1="196.64023" x2="165.5748" y2="124"/>
    <linearGradient gradientTransform="matrix(1.3333331,0,0,1.3333331,58.666708,58.666698)" inkscape:collect="always" xlink:href="#linearGradient919" id="linearGradient921-2" x1="160" y1="182.11389" x2="160" y2="138" gradientUnits="userSpaceOnUse"/>
    <linearGradient inkscape:collect="always" xlink:href="#linearGradient951" id="linearGradient1036-2" gradientUnits="userSpaceOnUse" gradientTransform="matrix(-1.3333331,0,0,1.3333331,485.30205,58.666698)" x1="162.53561" y1="165" x2="171.25215" y2="173"/>
    <linearGradient inkscape:collect="always" xlink:href="#linearGradient951" id="linearGradient957-9" gradientUnits="userSpaceOnUse" x1="157.44095" y1="165" x2="152.50394" y2="178" gradientTransform="matrix(-1.3333331,0,0,1.3333331,485.30205,58.666698)"/>
    <linearGradient inkscape:collect="always" xlink:href="#linearGradient951" id="linearGradient963-3" gradientUnits="userSpaceOnUse" x1="157.44095" y1="165" x2="152.50394" y2="178" gradientTransform="matrix(1.3333331,0,0,-1.3333331,58.666708,487.22662)"/>
    <linearGradient inkscape:collect="always" xlink:href="#linearGradient951" id="linearGradient965-6" gradientUnits="userSpaceOnUse" gradientTransform="matrix(-1.3333331,0,0,-1.3333331,485.30207,487.22668)" x1="157.44095" y1="165" x2="152.50394" y2="178"/>
    <linearGradient gradientTransform="matrix(0.66667093,0,0,0.66667093,-26.667364,-26.667346)" inkscape:collect="always" xlink:href="#linearGradient937" id="linearGradient1073-5" gradientUnits="userSpaceOnUse" x1="165.5748" y1="196.64023" x2="165.5748" y2="124"/>
    <linearGradient gradientTransform="matrix(0.66667093,0,0,0.66667093,-26.667364,-26.667346)" inkscape:collect="always" xlink:href="#linearGradient919" id="linearGradient921-28" x1="160" y1="182.11389" x2="160" y2="138" gradientUnits="userSpaceOnUse"/>
    <linearGradient inkscape:collect="always" xlink:href="#linearGradient951" id="linearGradient1036-3" gradientUnits="userSpaceOnUse" gradientTransform="matrix(-0.66667093,0,0,0.66667093,186.65171,-26.667346)" x1="162.53561" y1="165" x2="171.25215" y2="173"/>
    <linearGradient inkscape:collect="always" xlink:href="#linearGradient951" id="linearGradient957-2" gradientUnits="userSpaceOnUse" x1="157.44095" y1="165" x2="152.50394" y2="178" gradientTransform="matrix(-0.66667093,0,0,0.66667093,186.65171,-26.667346)"/>
    <linearGradient inkscape:collect="always" xlink:href="#linearGradient951" id="linearGradient963-9" gradientUnits="userSpaceOnUse" x1="157.44095" y1="165" x2="152.50394" y2="178" gradientTransform="matrix(0.66667093,0,0,-0.66667093,-26.667364,187.61402)"/>
    <linearGradient inkscape:collect="always" xlink:href="#linearGradient951" id="linearGradient965-3" gradientUnits="userSpaceOnUse" gradientTransform="matrix(-0.66667093,0,0,-0.66667093,186.65171,187.61405)" x1="157.44095" y1="165" x2="152.50394" y2="178"/>
    <linearGradient gradientTransform="matrix(0.49999736,0,0,0.49999736,-55.999599,-55.999578)" inkscape:collect="always" xlink:href="#linearGradient937" id="linearGradient1073-32" gradientUnits="userSpaceOnUse" x1="165.5748" y1="196.64023" x2="165.5748" y2="124"/>
    <linearGradient gradientTransform="matrix(0.49999736,0,0,0.49999736,-55.999599,-55.999578)" inkscape:collect="always" xlink:href="#linearGradient919" id="linearGradient921-1" x1="160" y1="182.11389" x2="160" y2="138" gradientUnits="userSpaceOnUse"/>
    <linearGradient inkscape:collect="always" xlink:href="#linearGradient951" id="linearGradient1036-4" gradientUnits="userSpaceOnUse" gradientTransform="matrix(-0.49999736,0,0,0.49999736,103.98784,-55.999578)" x1="162.53561" y1="165" x2="171.25215" y2="173"/>
    <linearGradient inkscape:collect="always" xlink:href="#linearGradient951" id="linearGradient957-5" gradientUnits="userSpaceOnUse" x1="157.44095" y1="165" x2="152.50394" y2="178" gradientTransform="matrix(-0.49999736,0,0,0.49999736,103.98784,-55.999578)"/>
    <linearGradient inkscape:collect="always" xlink:href="#linearGradient951" id="linearGradient963-6" gradientUnits="userSpaceOnUse" x1="157.44095" y1="165" x2="152.50394" y2="178" gradientTransform="matrix(0.49999736,0,0,-0.49999736,-55.999599,104.70957)"/>
    <linearGradient inkscape:collect="always" xlink:href="#linearGradient951" id="linearGradient965-9" gradientUnits="userSpaceOnUse" gradientTransform="matrix(-0.49999736,0,0,-0.49999736,103.98784,104.70959)" x1="157.44095" y1="165" x2="152.50394" y2="178"/>
    <linearGradient gradientTransform="matrix(0.33333546,0,0,0.33333546,-69.333702,-69.333674)" inkscape:collect="always" xlink:href="#linearGradient937" id="linearGradient1073-8" gradientUnits="userSpaceOnUse" x1="165.5748" y1="196.64023" x2="165.5748" y2="124"/>
    <linearGradient gradientTransform="matrix(0.33333546,0,0,0.33333546,-69.333702,-69.333674)" inkscape:collect="always" xlink:href="#linearGradient919" id="linearGradient921-14" x1="160" y1="182.11389" x2="160" y2="138" gradientUnits="userSpaceOnUse"/>
    <linearGradient gradientTransform="matrix(0.27426685,0,0,0.27426685,-87.882725,-87.943515)" inkscape:collect="always" xlink:href="#linearGradient919" id="linearGradient921-14-9" x1="160" y1="182.11389" x2="160" y2="138" gradientUnits="userSpaceOnUse"/>
    <linearGradient gradientTransform="matrix(0.24124709,0,0,0.24124709,-82.599567,-82.599535)" inkscape:collect="always" xlink:href="#linearGradient937" id="linearGradient1073-8-0" gradientUnits="userSpaceOnUse" x1="165.5748" y1="196.64023" x2="165.5748" y2="124"/>
    <linearGradient gradientTransform="matrix(0.14893698,0,0,0.14893698,-87.829957,-87.829915)" inkscape:collect="always" xlink:href="#linearGradient937" id="linearGradient1073-8-0-9" gradientUnits="userSpaceOnUse" x1="165.5748" y1="196.64023" x2="165.5748" y2="124"/>
    <linearGradient gradientTransform="matrix(0.19618943,0,0,0.19618943,-95.39034,-95.464324)" inkscape:collect="always" xlink:href="#linearGradient919" id="linearGradient921-14-9-6" x1="160" y1="182.11389" x2="160" y2="138" gradientUnits="userSpaceOnUse"/>
  </defs>
  <sodipodi:namedview pagecolor="#383c4a" bordercolor="#ffffff" borderopacity="0.62745098" objecttolerance="4" gridtolerance="10" guidetolerance="4" inkscape:pageopacity="0" inkscape:pageshadow="2" inkscape:window-width="640" inkscape:window-height="480" id="namedview20" showgrid="true" inkscape:zoom="32.578064" inkscape:cx="-61.617454" inkscape:cy="112.57787" inkscape:current-layer="layer6" inkscape:snap-smooth-nodes="false" showguides="true" borderlayer="true" inkscape:showpageshadow="false" inkscape:guide-bbox="true" guidecolor="#bd4fff" guideopacity="0.78431373" inkscape:snap-nodes="true" inkscape:lockguides="false" fit-margin-top="0" fit-margin-left="0" fit-margin-right="0" fit-margin-bottom="0" guidehicolor="#ff0101" guidehiopacity="0.78431373" inkscape:snap-page="true" inkscape:object-nodes="true" inkscape:snap-bbox="true" inkscape:snap-global="true" inkscape:snap-object-midpoints="false" inkscape:snap-bbox-edge-midpoints="false">
    <inkscape:grid type="xygrid" id="grid4171" empspacing="4" dotted="false" originx="2.7755576e-17" originy="0" spacingx="1" spacingy="1" color="#5a5a5a" opacity="0.23529412" empcolor="#5a5a5a" empopacity="0.47058824" visible="true"/>
    <inkscape:grid type="axonomgrid" id="grid4699" units="mm" empspacing="4" color="#5a5a5a" opacity="0.23529412" empcolor="#5a5a5a" empopacity="0.47058824" gridanglex="45" gridanglez="45" spacingy="3.7795276" visible="false" originx="1.3228346" originy="1.3228346"/>
    <sodipodi:guide position="48,0" orientation="1,0" id="guide4568" inkscape:locked="false" inkscape:label="" inkscape:color="rgb(189,79,255)"/>
    <sodipodi:guide position="111.99996,-3.9999999e-05" orientation="0,1" id="guide4570" inkscape:locked="false" inkscape:label="" inkscape:color="rgb(189,79,255)"/>
    <sodipodi:guide position="0,0" orientation="1,0" id="guide4572" inkscape:locked="false" inkscape:label="" inkscape:color="rgb(189,79,255)"/>
    <sodipodi:guide position="0,48" orientation="0,1" id="guide4574" inkscape:locked="false" inkscape:label="" inkscape:color="rgb(189,79,255)"/>
    <sodipodi:guide position="0,80" orientation="0,1" id="guide4576" inkscape:locked="false" inkscape:label="" inkscape:color="rgb(189,79,255)"/>
    <sodipodi:guide position="-32,48" orientation="1,0" id="guide4578" inkscape:locked="false" inkscape:label="" inkscape:color="rgb(189,79,255)"/>
    <sodipodi:guide position="-32,104" orientation="0,1" id="guide4580" inkscape:locked="false" inkscape:label="" inkscape:color="rgb(189,79,255)"/>
    <sodipodi:guide position="-56,80" orientation="1,0" id="guide4582" inkscape:locked="false" inkscape:label="" inkscape:color="rgb(189,79,255)"/>
    <sodipodi:guide position="48,-64" orientation="0,1" id="guide4584" inkscape:locked="false" inkscape:label="" inkscape:color="rgb(189,79,255)"/>
    <sodipodi:guide position="0,0" orientation="-0.70710678,0.70710678" id="guide4588" inkscape:locked="false" inkscape:label="" inkscape:color="rgb(189,79,255)"/>
    <sodipodi:guide position="-56,80" orientation="-0.70710678,0.70710678" id="guide4573" inkscape:locked="false" inkscape:label="" inkscape:color="rgb(189,79,255)"/>
    <sodipodi:guide position="-32,48" orientation="-0.70710678,0.70710678" id="guide4575" inkscape:locked="false" inkscape:label="" inkscape:color="rgb(189,79,255)"/>
    <sodipodi:guide position="48,-64" orientation="-0.70710678,0.70710678" id="guide4577" inkscape:locked="false" inkscape:label="" inkscape:color="rgb(189,79,255)"/>
    <sodipodi:guide position="47.999962,0" orientation="0.70710678,0.70710678" id="guide4697" inkscape:locked="false" inkscape:label="" inkscape:color="rgb(189,79,255)"/>
    <sodipodi:guide position="207.99995,-288" orientation="0,1" id="guide7833" inkscape:locked="false"/>
    <sodipodi:guide position="335.99994,-288" orientation="1,0" id="guide7835" inkscape:locked="false" inkscape:label="" inkscape:color="rgb(189,79,255)"/>
    <sodipodi:guide position="111.99996,-64" orientation="1,0" id="guide7915" inkscape:locked="false"/>
    <sodipodi:guide position="111.99996,-160" orientation="0,1" id="guide7917" inkscape:locked="false"/>
    <sodipodi:guide position="207.99996,-160" orientation="1,0" id="guide7919" inkscape:locked="false"/>
    <sodipodi:guide position="111.99996,-160" orientation="-0.70710678,0.70710678" id="guide7921" inkscape:locked="false" inkscape:label="" inkscape:color="rgb(189,79,255)"/>
    <sodipodi:guide position="207.99996,-288" orientation="-0.70710678,0.70710678" id="guide7923" inkscape:locked="false" inkscape:label="" inkscape:color="rgb(189,79,255)"/>
    <sodipodi:guide position="-72,104" orientation="1,0" id="guide7824" inkscape:locked="false"/>
    <sodipodi:guide position="-56,120" orientation="0,1" id="guide7826" inkscape:locked="false"/>
    <sodipodi:guide position="-72,104" orientation="-0.70710678,0.70710678" id="guide7828" inkscape:locked="false" inkscape:label="" inkscape:color="rgb(189,79,255)"/>
  </sodipodi:namedview>
  <g style="display:inline" inkscape:label="icon_96" id="g8840" inkscape:groupmode="layer" transform="translate(-111.99996,-112)">
    <g style="display:none" inkscape:label="frame" id="g8776" inkscape:groupmode="layer">
      <rect style="color:#000000;clip-rule:nonzero;display:inline;overflow:visible;visibility:visible;opacity:1;isolation:auto;mix-blend-mode:normal;color-interpolation:sRGB;color-interpolation-filters:linearRGB;solid-color:#000000;solid-opacity:1;vector-effect:none;fill:#000000;fill-opacity:1;fill-rule:nonzero;stroke:#ff24f7;stroke-width:0;stroke-linecap:square;stroke-linejoin:miter;stroke-miterlimit:4;stroke-dasharray:none;stroke-dashoffset:0;stroke-opacity:0.99481865;marker:none;marker-start:none;marker-mid:none;marker-end:none;paint-order:normal;color-rendering:auto;image-rendering:auto;shape-rendering:auto;text-rendering:auto;enable-background:accumulate" id="rect_96" width="96" height="96" x="111.99996" y="112" inkscape:label="frame_96"/>
      <text inkscape:label="txt_96" id="text_96" y="168.73633" x="144.72458" style="font-size:24px;line-height:0%;font-family:sans-serif;letter-spacing:0px;word-spacing:0px;display:inline;opacity:1;fill:#ffffff;fill-opacity:1;stroke:none;stroke-width:0.04917826px;stroke-linecap:butt;stroke-linejoin:miter;stroke-opacity:1" xml:space="preserve">
        <tspan id="tspan8768" style="font-size:24px;line-height:0%;fill:#ffffff;fill-opacity:1;stroke:none;stroke-width:0.04917826px" y="168.73633" x="144.72458" sodipodi:role="line">96</tspan>
      </text>
    </g>
    <g style="display:inline" inkscape:label="icon" id="g8838" inkscape:groupmode="layer">
      <path d="m 207.99996,160 c 0,3.36 -21.09016,39.88923 -24,41.56923 -2.90985,1.68 -45.09016,1.68 -48.00001,0 -2.90985,-1.68 -24,-38.20923 -24,-41.56923 0,-3.36 21.09015,-39.88923 24,-41.56923 2.90985,-1.68 45.09016,-1.68 48.00001,0 2.90984,1.68 24,38.20923 24,41.56923 z" inkscape:randomized="0" inkscape:rounded="0.07" inkscape:flatsided="true" sodipodi:arg2="0.52359878" sodipodi:arg1="0" sodipodi:r2="41.569225" sodipodi:r1="48.000008" sodipodi:cy="160" sodipodi:cx="159.99995" sodipodi:sides="6" id="path941" style="color:#000000;clip-rule:nonzero;display:block;overflow:visible;visibility:visible;opacity:1;isolation:auto;mix-blend-mode:normal;color-interpolation:sRGB;color-interpolation-filters:linearRGB;solid-color:#000000;solid-opacity:1;vector-effect:none;fill:#000000;fill-opacity:0.42307691;fill-rule:nonzero;stroke:none;stroke-width:8.93049145;stroke-linecap:butt;stroke-linejoin:miter;stroke-miterlimit:4;stroke-dasharray:none;stroke-dashoffset:0;stroke-opacity:1;marker:none;marker-start:none;marker-mid:none;marker-end:none;paint-order:fill markers stroke;color-rendering:auto;image-rendering:auto;shape-rendering:auto;text-rendering:auto;enable-background:accumulate" sodipodi:type="star"/>
      <path sodipodi:type="star" style="color:#000000;clip-rule:nonzero;display:block;overflow:visible;visibility:visible;opacity:1;isolation:auto;mix-blend-mode:normal;color-interpolation:sRGB;color-interpolation-filters:linearRGB;solid-color:#000000;solid-opacity:1;vector-effect:none;fill:url(#linearGradient1073);fill-opacity:1;fill-rule:nonzero;stroke:none;stroke-width:8.74444675;stroke-linecap:butt;stroke-linejoin:miter;stroke-miterlimit:4;stroke-dasharray:none;stroke-dashoffset:0;stroke-opacity:1;marker:none;marker-start:none;marker-mid:none;marker-end:none;paint-order:fill markers stroke;color-rendering:auto;image-rendering:auto;shape-rendering:auto;text-rendering:auto;enable-background:accumulate" id="path931" sodipodi:sides="6" sodipodi:cx="159.99995" sodipodi:cy="160" sodipodi:r1="47.000046" sodipodi:r2="40.703236" sodipodi:arg1="0" sodipodi:arg2="0.52359878" inkscape:flatsided="true" inkscape:rounded="0.07" inkscape:randomized="0" d="m 207,160 c 0,3.29 -20.6508,39.05823 -23.50002,40.70323 -2.84923,1.64501 -44.15082,1.64501 -47.00005,0 C 133.6507,199.05823 112.99991,163.29 112.99991,160 c 0,-3.29 20.65079,-39.05823 23.50002,-40.70323 2.84923,-1.64501 44.15082,-1.64501 47.00005,0 C 186.3492,120.94177 207,156.71 207,160 Z"/>
      <path d="m 200,160 c 0,2.8 -17.57515,33.24105 -20.00002,34.64106 -2.42488,1.4 -37.57517,1.4 -40.00005,0 C 137.57506,193.24105 119.99991,162.8 119.99991,160 c 0,-2.8 17.57515,-33.24105 20.00002,-34.64106 2.42488,-1.4 37.57517,-1.4 40.00005,0 C 182.42485,126.75895 200,157.2 200,160 Z" inkscape:randomized="0" inkscape:rounded="0.07" inkscape:flatsided="true" sodipodi:arg2="0.52359878" sodipodi:arg1="0" sodipodi:r2="34.641056" sodipodi:r1="40.000046" sodipodi:cy="160" sodipodi:cx="159.99995" sodipodi:sides="6" id="path927" style="color:#000000;clip-rule:nonzero;display:block;overflow:visible;visibility:visible;opacity:1;isolation:auto;mix-blend-mode:normal;color-interpolation:sRGB;color-interpolation-filters:linearRGB;solid-color:#000000;solid-opacity:1;vector-effect:none;fill:#f6f5f4;fill-opacity:0.09890113;fill-rule:nonzero;stroke:none;stroke-width:7.44208336;stroke-linecap:butt;stroke-linejoin:miter;stroke-miterlimit:4;stroke-dasharray:none;stroke-dashoffset:0;stroke-opacity:1;marker:none;marker-start:none;marker-mid:none;marker-end:none;paint-order:fill markers stroke;color-rendering:auto;image-rendering:auto;shape-rendering:auto;text-rendering:auto;enable-background:accumulate" sodipodi:type="star"/>
      <path sodipodi:type="star" style="color:#000000;clip-rule:nonzero;display:block;overflow:visible;visibility:visible;opacity:1;isolation:auto;mix-blend-mode:normal;color-interpolation:sRGB;color-interpolation-filters:linearRGB;solid-color:#000000;solid-opacity:1;vector-effect:none;fill:#f6f5f4;fill-opacity:0.09890113;fill-rule:nonzero;stroke:none;stroke-width:6.51182413;stroke-linecap:butt;stroke-linejoin:miter;stroke-miterlimit:4;stroke-dasharray:none;stroke-dashoffset:0;stroke-opacity:1;marker:none;marker-start:none;marker-mid:none;marker-end:none;paint-order:fill markers stroke;color-rendering:auto;image-rendering:auto;shape-rendering:auto;text-rendering:auto;enable-background:accumulate" id="path925" sodipodi:sides="6" sodipodi:cx="159.99995" sodipodi:cy="160" sodipodi:r1="35.000046" sodipodi:r2="30.310928" sodipodi:arg1="0" sodipodi:arg2="0.52359878" inkscape:flatsided="true" inkscape:rounded="0.07" inkscape:randomized="0" d="m 195,160 c 0,2.45 -15.37826,29.08593 -17.50002,30.31093 -2.12177,1.225 -32.87828,1.225 -35.00005,0 C 140.37817,189.08593 124.99991,162.45 124.99991,160 c 0,-2.45 15.37826,-29.08593 17.50002,-30.31093 2.12177,-1.225 32.87828,-1.225 35.00005,0 C 179.62174,130.91407 195,157.55 195,160 Z"/>
      <path inkscape:connector-curvature="0" id="path982" d="m 160,118.0625 c -11.0377,0 -22.07539,0.41187 -23.5,1.23438 C 133.65077,120.94188 113,156.71 113,160 c 0,0.12018 0.0347,0.2964 0.0879,0.5 1.40411,-5.37025 20.66696,-38.61821 23.41211,-40.20312 2.84923,-1.64501 44.15077,-1.64501 47,0 2.74515,1.58491 22.008,34.83287 23.41211,40.20312 0.0532,-0.2036 0.0879,-0.37982 0.0879,-0.5 0,-3.29 -20.65077,-39.05812 -23.5,-40.70312 -1.42461,-0.82251 -12.4623,-1.23438 -23.5,-1.23438 z" style="color:#000000;clip-rule:nonzero;display:inline;overflow:visible;visibility:visible;opacity:1;isolation:auto;mix-blend-mode:normal;color-interpolation:sRGB;color-interpolation-filters:linearRGB;solid-color:#000000;solid-opacity:1;vector-effect:none;fill:#f5deb2;fill-opacity:0.24725276;fill-rule:nonzero;stroke:none;stroke-width:8.74444675;stroke-linecap:butt;stroke-linejoin:miter;stroke-miterlimit:4;stroke-dasharray:none;stroke-dashoffset:0;stroke-opacity:1;marker:none;marker-start:none;marker-mid:none;marker-end:none;paint-order:fill markers stroke;color-rendering:auto;image-rendering:auto;shape-rendering:auto;text-rendering:auto;enable-background:accumulate"/>
      <path style="color:#000000;font-style:normal;font-variant:normal;font-weight:normal;font-stretch:normal;font-size:medium;line-height:normal;font-family:sans-serif;font-variant-ligatures:normal;font-variant-position:normal;font-variant-caps:normal;font-variant-numeric:normal;font-variant-alternates:normal;font-feature-settings:normal;text-indent:0;text-align:start;text-decoration:none;text-decoration-line:none;text-decoration-style:solid;text-decoration-color:#000000;letter-spacing:normal;word-spacing:normal;text-transform:none;writing-mode:lr-tb;direction:ltr;text-orientation:mixed;dominant-baseline:auto;baseline-shift:baseline;text-anchor:start;white-space:normal;shape-padding:0;clip-rule:nonzero;display:block;overflow:visible;visibility:visible;opacity:1;isolation:auto;mix-blend-mode:normal;color-interpolation:sRGB;color-interpolation-filters:linearRGB;solid-color:#000000;solid-opacity:1;vector-effect:none;fill:#000000;fill-opacity:0.2142857;fill-rule:nonzero;stroke:none;stroke-width:6;stroke-linecap:butt;stroke-linejoin:miter;stroke-miterlimit:4;stroke-dasharray:none;stroke-dashoffset:0;stroke-opacity:1;marker:none;paint-order:fill markers stroke;color-rendering:auto;image-rendering:auto;shape-rendering:auto;text-rendering:auto;enable-background:accumulate" d="m 160,136.01367 c -3.15922,0 -6.31331,0.0555 -8.83008,0.17188 -1.25838,0.0582 -2.35145,0.13056 -3.2539,0.22656 -0.45123,0.048 -0.85194,0.10089 -1.2461,0.17578 -0.39415,0.0749 -0.69213,0.055 -1.48242,0.49805 -0.7903,0.44302 -0.92558,0.70601 -1.18945,1 -0.26389,0.29399 -0.51087,0.60356 -0.7793,0.95898 -0.53686,0.71084 -1.14704,1.59402 -1.82813,2.62305 -1.3622,2.05807 -2.98874,4.68335 -4.56835,7.33984 -1.57961,2.65649 -3.10521,5.33531 -4.25977,7.50977 -0.57729,1.08724 -1.06214,2.04276 -1.42773,2.84961 -0.1828,0.40342 -0.33652,0.76588 -0.4668,1.13476 -0.13027,0.36888 -0.29688,0.61201 -0.29688,1.49805 0,0.88604 0.16661,1.12917 0.29688,1.49805 0.13028,0.36888 0.284,0.73134 0.4668,1.13476 0.36559,0.80685 0.85044,1.76237 1.42773,2.84961 1.15456,2.17446 2.68016,4.85328 4.25977,7.50977 1.01864,1.71309 2.0297,3.34918 3.0039,4.89258 l -4.17522,12.11069 10.56585,-4.66929 c 0.15578,0.0322 0.30218,0.0573 0.45312,0.0859 0.39416,0.0749 0.79487,0.12778 1.2461,0.17578 0.90245,0.096 1.99552,0.16837 3.2539,0.22656 2.51677,0.11639 5.67086,0.17188 8.83008,0.17188 3.15923,0 6.31136,-0.0555 8.82812,-0.17188 1.25838,-0.0582 2.35341,-0.13056 3.25586,-0.22656 0.45123,-0.048 0.85193,-0.10089 1.2461,-0.17578 0.39415,-0.0749 0.69212,-0.055 1.48242,-0.49805 0.7903,-0.44302 0.92558,-0.70601 1.18945,-1 0.26388,-0.29399 0.51087,-0.60356 0.7793,-0.95898 0.53685,-0.71084 1.14704,-1.59402 1.82813,-2.62305 1.3622,-2.05807 2.98873,-4.68335 4.56835,-7.33984 1.57961,-2.65649 3.1052,-5.33531 4.25977,-7.50977 0.57729,-1.08724 1.06019,-2.04276 1.42578,-2.84961 0.1828,-0.40342 0.33847,-0.76588 0.46875,-1.13476 0.13028,-0.36888 0.29688,-0.61201 0.29688,-1.49805 0,-0.88604 -0.1666,-1.12917 -0.29688,-1.49805 -0.13028,-0.36888 -0.28595,-0.73134 -0.46875,-1.13476 -0.3656,-0.80685 -0.84849,-1.76237 -1.42578,-2.84961 -1.15457,-2.17446 -2.68016,-4.85328 -4.25977,-7.50977 -1.57962,-2.65649 -3.20617,-5.28177 -4.56835,-7.33984 -0.6811,-1.02903 -1.29128,-1.91221 -1.82813,-2.62305 -0.26843,-0.35542 -0.51542,-0.66499 -0.7793,-0.95898 -0.26387,-0.29399 -0.39915,-0.55698 -1.18945,-1 -0.7903,-0.44302 -1.08827,-0.42315 -1.48242,-0.49805 -0.39417,-0.0749 -0.79487,-0.12778 -1.2461,-0.17578 -0.90245,-0.096 -1.99747,-0.16837 -3.25586,-0.22656 -2.51676,-0.11639 -5.66889,-0.17188 -8.82812,-0.17188 z m 0,5.91211 c 3.0836,0 6.17424,0.0566 8.54102,0.16602 0.34261,0.0158 0.52423,0.0405 0.83398,0.0586 l -9.42773,14.03516 -9.54493,-14.02149 c 0.37981,-0.0235 0.62262,-0.0522 1.05664,-0.0723 2.36679,-0.10946 5.45743,-0.16602 8.54102,-0.16602 z m 14.90625,5.16016 c 0.96313,1.52185 1.97462,3.15582 2.99805,4.87695 1.5418,2.5929 3.03727,5.21879 4.12304,7.26367 0.54289,1.02245 0.98424,1.90478 1.26368,2.52149 0.0524,0.11567 0.0654,0.15738 0.10546,0.25195 -0.0401,0.0946 -0.0531,0.13628 -0.10546,0.25195 -0.27944,0.61671 -0.72079,1.49904 -1.26368,2.52149 -1.08577,2.04488 -2.58124,4.67077 -4.12304,7.26367 -1.17303,1.97272 -2.3351,3.84093 -3.40821,5.51758 l -10.0957,-14.83008 z m -29.92187,0.16992 10.55078,15.49805 -9.98828,14.86718 c -1.08379,-1.69124 -2.2626,-3.5851 -3.45118,-5.58398 -1.5418,-2.5929 -3.03727,-5.21879 -4.12304,-7.26367 -0.54289,-1.02245 -0.98424,-1.90478 -1.26368,-2.52149 -0.0524,-0.11567 -0.0654,-0.15739 -0.10546,-0.25195 0.0401,-0.0946 0.0531,-0.13628 0.10546,-0.25195 0.27944,-0.61671 0.72079,-1.49904 1.26368,-2.52149 1.08577,-2.04488 2.58124,-4.67077 4.12304,-7.26367 0.98369,-1.6543 1.95683,-3.23043 2.88868,-4.70703 z m 15.0039,22.03711 8.58594,12.61328 c -0.0136,6.3e-4 -0.0196,9.5e-4 -0.0332,0.002 -2.36678,0.10946 -5.45742,0.16602 -8.54102,0.16602 -3.06327,0 -6.12765,-0.0561 -8.48828,-0.16406 z" id="path923" inkscape:connector-curvature="0" sodipodi:nodetypes="ccccccscscccsccccccccccsccccccccscssscsccccscccccccccccccccscccscccccccsscccscccccscc"/>
      <path style="color:#000000;font-style:normal;font-variant:normal;font-weight:normal;font-stretch:normal;font-size:medium;line-height:normal;font-family:sans-serif;font-variant-ligatures:normal;font-variant-position:normal;font-variant-caps:normal;font-variant-numeric:normal;font-variant-alternates:normal;font-feature-settings:normal;text-indent:0;text-align:start;text-decoration:none;text-decoration-line:none;text-decoration-style:solid;text-decoration-color:#000000;letter-spacing:normal;word-spacing:normal;text-transform:none;writing-mode:lr-tb;direction:ltr;text-orientation:mixed;dominant-baseline:auto;baseline-shift:baseline;text-anchor:start;white-space:normal;shape-padding:0;clip-rule:nonzero;display:block;overflow:visible;visibility:visible;opacity:1;isolation:auto;mix-blend-mode:normal;color-interpolation:sRGB;color-interpolation-filters:linearRGB;solid-color:#000000;solid-opacity:1;vector-effect:none;fill:url(#linearGradient921);fill-opacity:1;fill-rule:nonzero;stroke:none;stroke-width:1;stroke-linecap:butt;stroke-linejoin:miter;stroke-miterlimit:4;stroke-dasharray:none;stroke-dashoffset:0;stroke-opacity:0.28021982;marker:none;paint-order:fill markers stroke;color-rendering:auto;image-rendering:auto;shape-rendering:auto;text-rendering:auto;enable-background:accumulate" d="m 160,134.01367 c -3.15922,0 -6.31331,0.0555 -8.83008,0.17188 -1.25838,0.0582 -2.35145,0.13056 -3.2539,0.22656 -0.45123,0.048 -0.85194,0.10089 -1.2461,0.17578 -0.39415,0.0749 -0.69213,0.055 -1.48242,0.49805 -0.7903,0.44302 -0.92558,0.70601 -1.18945,1 -0.26389,0.29399 -0.51087,0.60356 -0.7793,0.95898 -0.53686,0.71084 -1.14704,1.59402 -1.82813,2.62305 -1.3622,2.05807 -2.98874,4.68335 -4.56835,7.33984 -1.57961,2.65649 -3.10521,5.33531 -4.25977,7.50977 -0.57729,1.08724 -1.06214,2.04276 -1.42773,2.84961 -0.1828,0.40342 -0.33652,0.76588 -0.4668,1.13476 -0.13027,0.36888 -0.29688,0.61201 -0.29688,1.49805 0,0.88604 0.16661,1.12917 0.29688,1.49805 0.13028,0.36888 0.284,0.73134 0.4668,1.13476 0.36559,0.80685 0.85044,1.76237 1.42773,2.84961 1.15456,2.17446 2.68016,4.85328 4.25977,7.50977 1.00933,1.69743 2.01206,3.31945 2.97851,4.85156 L 135.68555,191 l 10.32617,-5.72266 c 0.25199,0.0743 0.44392,0.094 0.6582,0.13477 0.39416,0.0749 0.79487,0.12778 1.2461,0.17578 0.90245,0.096 1.99552,0.16837 3.2539,0.22656 2.51677,0.11639 5.67086,0.17188 8.83008,0.17188 3.15923,0 6.31136,-0.0555 8.82812,-0.17188 1.25838,-0.0582 2.35341,-0.13056 3.25586,-0.22656 0.45123,-0.048 0.85193,-0.10089 1.2461,-0.17578 0.39415,-0.0749 0.69212,-0.055 1.48242,-0.49805 0.7903,-0.44302 0.92558,-0.70601 1.18945,-1 0.26388,-0.29399 0.51087,-0.60356 0.7793,-0.95898 0.53685,-0.71084 1.14704,-1.59402 1.82813,-2.62305 1.3622,-2.05807 2.98873,-4.68335 4.56835,-7.33984 1.57961,-2.65649 3.1052,-5.33531 4.25977,-7.50977 0.57729,-1.08724 1.06019,-2.04276 1.42578,-2.84961 0.1828,-0.40342 0.33847,-0.76588 0.46875,-1.13476 0.13028,-0.36888 0.29688,-0.61201 0.29688,-1.49805 0,-0.88604 -0.1666,-1.12917 -0.29688,-1.49805 -0.13028,-0.36888 -0.28595,-0.73134 -0.46875,-1.13476 -0.3656,-0.80685 -0.84849,-1.76237 -1.42578,-2.84961 -1.15457,-2.17446 -2.68016,-4.85328 -4.25977,-7.50977 -1.57962,-2.65649 -3.20617,-5.28177 -4.56835,-7.33984 -0.6811,-1.02903 -1.29128,-1.91221 -1.82813,-2.62305 -0.26843,-0.35542 -0.51542,-0.66499 -0.7793,-0.95898 -0.26387,-0.29399 -0.39915,-0.55698 -1.18945,-1 -0.7903,-0.44302 -1.08827,-0.42315 -1.48242,-0.49805 -0.39417,-0.0749 -0.79487,-0.12778 -1.2461,-0.17578 -0.90245,-0.096 -1.99747,-0.16837 -3.25586,-0.22656 -2.51676,-0.11639 -5.66889,-0.17188 -8.82812,-0.17188 z m 0,5.91211 c 3.0836,0 6.17424,0.0566 8.54102,0.16602 0.34261,0.0158 0.52423,0.0405 0.83398,0.0586 l -9.42773,14.03516 -9.54493,-14.02149 c 0.37981,-0.0235 0.62262,-0.0522 1.05664,-0.0723 2.36679,-0.10946 5.45743,-0.16602 8.54102,-0.16602 z m 14.90625,5.16016 c 0.96313,1.52185 1.97462,3.15582 2.99805,4.87695 1.5418,2.5929 3.03727,5.21879 4.12304,7.26367 0.54289,1.02245 0.98424,1.90478 1.26368,2.52149 0.0524,0.11567 0.0654,0.15738 0.10546,0.25195 -0.0401,0.0946 -0.0531,0.13628 -0.10546,0.25195 -0.27944,0.61671 -0.72079,1.49904 -1.26368,2.52149 -1.08577,2.04488 -2.58124,4.67077 -4.12304,7.26367 -1.17303,1.97272 -2.3351,3.84093 -3.40821,5.51758 l -10.0957,-14.83008 z m -29.92187,0.16992 10.55078,15.49805 -9.98828,14.86718 c -1.08379,-1.69124 -2.2626,-3.5851 -3.45118,-5.58398 -1.5418,-2.5929 -3.03727,-5.21879 -4.12304,-7.26367 -0.54289,-1.02245 -0.98424,-1.90478 -1.26368,-2.52149 -0.0524,-0.11567 -0.0654,-0.15739 -0.10546,-0.25195 0.0401,-0.0946 0.0531,-0.13628 0.10546,-0.25195 0.27944,-0.61671 0.72079,-1.49904 1.26368,-2.52149 1.08577,-2.04488 2.58124,-4.67077 4.12304,-7.26367 0.98369,-1.6543 1.95683,-3.23043 2.88868,-4.70703 z m 15.0039,22.03711 8.58594,12.61328 c -0.0136,6.3e-4 -0.0196,9.5e-4 -0.0332,0.002 -2.36678,0.10946 -5.45742,0.16602 -8.54102,0.16602 -3.06327,0 -6.12765,-0.0561 -8.48828,-0.16406 z" id="path902" inkscape:connector-curvature="0" sodipodi:nodetypes="scccccscscccscccsccccccsccccccccscssscsccccscccsccccccccccscccscccccccsscccscccccscc"/>
      <path style="opacity:1;vector-effect:none;fill:url(#linearGradient1036);fill-opacity:1;fill-rule:evenodd;stroke:none;stroke-width:1px;stroke-linecap:butt;stroke-linejoin:miter;stroke-miterlimit:4;stroke-dasharray:none;stroke-dashoffset:0;stroke-opacity:1" d="m 145.54688,175.62109 14.4414,-8.32812 -4.45312,-6.53906 z" id="path945" inkscape:connector-curvature="0" sodipodi:nodetypes="cccc"/>
      <path sodipodi:nodetypes="cccc" inkscape:connector-curvature="0" id="path955" d="m 174.49609,175.55469 -14.50781,-8.26172 4.45312,-6.53906 z" style="fill:url(#linearGradient957);fill-opacity:1;fill-rule:evenodd;stroke:none;stroke-width:1px;stroke-linecap:butt;stroke-linejoin:miter;stroke-opacity:1"/>
      <path sodipodi:nodetypes="cccc" inkscape:connector-curvature="0" id="path959" d="m 144.98438,145.25586 14.96289,8.9297 -4.41211,6.56835 z" style="fill:url(#linearGradient963);fill-opacity:1;fill-rule:evenodd;stroke:none;stroke-width:1px;stroke-linecap:butt;stroke-linejoin:miter;stroke-opacity:1"/>
      <path style="fill:url(#linearGradient965);fill-opacity:1;fill-rule:evenodd;stroke:none;stroke-width:1px;stroke-linecap:butt;stroke-linejoin:miter;stroke-opacity:1" d="m 175,145.12599 -15.05273,9.05957 4.45312,6.53905 z" id="path961" inkscape:connector-curvature="0" sodipodi:nodetypes="cccc"/>
      <path style="color:#000000;font-style:normal;font-variant:normal;font-weight:normal;font-stretch:normal;font-size:medium;line-height:normal;font-family:sans-serif;font-variant-ligatures:normal;font-variant-position:normal;font-variant-caps:normal;font-variant-numeric:normal;font-variant-alternates:normal;font-feature-settings:normal;text-indent:0;text-align:start;text-decoration:none;text-decoration-line:none;text-decoration-style:solid;text-decoration-color:#000000;letter-spacing:normal;word-spacing:normal;text-transform:none;writing-mode:lr-tb;direction:ltr;text-orientation:mixed;dominant-baseline:auto;baseline-shift:baseline;text-anchor:start;white-space:normal;shape-padding:0;clip-rule:nonzero;display:block;overflow:visible;visibility:visible;opacity:1;isolation:auto;mix-blend-mode:normal;color-interpolation:sRGB;color-interpolation-filters:linearRGB;solid-color:#000000;solid-opacity:1;vector-effect:none;fill:#f5edb2;fill-opacity:0.38461543;fill-rule:nonzero;stroke:none;stroke-width:1;stroke-linecap:butt;stroke-linejoin:miter;stroke-miterlimit:4;stroke-dasharray:none;stroke-dashoffset:0;stroke-opacity:0.28021982;marker:none;paint-order:fill markers stroke;color-rendering:auto;image-rendering:auto;shape-rendering:auto;text-rendering:auto;enable-background:accumulate" d="m 160,134.01367 c -3.15922,0 -6.31331,0.0555 -8.83008,0.17188 -1.25838,0.0582 -2.35145,0.13056 -3.2539,0.22656 -0.45123,0.048 -0.85194,0.10089 -1.2461,0.17578 -0.39415,0.0749 -0.69213,0.055 -1.48242,0.49805 -0.7903,0.44302 -0.92558,0.70601 -1.18945,1 -0.26389,0.29399 -0.51087,0.60356 -0.7793,0.95898 -0.53686,0.71084 -1.14704,1.59402 -1.82813,2.62305 -1.3622,2.05807 -2.98874,4.68335 -4.56835,7.33984 -1.57961,2.65649 -3.10521,5.33531 -4.25977,7.50977 -0.57729,1.08724 -1.06214,2.04276 -1.42773,2.84961 -0.1828,0.40342 -0.33652,0.76588 -0.4668,1.13476 -0.13027,0.36888 -0.29688,0.61201 -0.29688,1.49805 0,0.19899 0.0109,0.35716 0.0254,0.5 0.0501,-0.4932 0.17047,-0.71201 0.27149,-0.99805 0.13028,-0.36888 0.284,-0.73134 0.4668,-1.13476 0.36559,-0.80685 0.85044,-1.76237 1.42773,-2.84961 1.15456,-2.17446 2.68016,-4.85328 4.25977,-7.50977 1.57961,-2.65649 3.20615,-5.28177 4.56835,-7.33984 0.68109,-1.02903 1.29127,-1.91221 1.82813,-2.62305 0.26843,-0.35542 0.51541,-0.66499 0.7793,-0.95898 0.26387,-0.29399 0.39915,-0.55698 1.18945,-1 0.79029,-0.44305 1.08827,-0.42315 1.48242,-0.49805 0.39416,-0.0749 0.79487,-0.12778 1.2461,-0.17578 0.90245,-0.096 1.99552,-0.16836 3.2539,-0.22656 2.51677,-0.11638 5.67086,-0.17188 8.83008,-0.17188 3.15923,0 6.31136,0.0555 8.82812,0.17188 1.25839,0.0582 2.35341,0.13056 3.25586,0.22656 0.45123,0.048 0.85193,0.10088 1.2461,0.17578 0.39415,0.0749 0.69212,0.055 1.48242,0.49805 0.7903,0.44302 0.92558,0.70601 1.18945,1 0.26388,0.29399 0.51087,0.60356 0.7793,0.95898 0.53685,0.71084 1.14703,1.59402 1.82813,2.62305 1.36217,2.05807 2.98873,4.68335 4.56835,7.33984 1.57961,2.65649 3.1052,5.33531 4.25977,7.50977 0.57729,1.08724 1.06018,2.04276 1.42578,2.84961 0.1828,0.40342 0.33847,0.76588 0.46875,1.13476 0.10102,0.28604 0.2214,0.50485 0.27149,0.99805 0.0145,-0.14284 0.0254,-0.30101 0.0254,-0.5 0,-0.88604 -0.1666,-1.12917 -0.29688,-1.49805 -0.13028,-0.36888 -0.28595,-0.73134 -0.46875,-1.13476 -0.3656,-0.80685 -0.84849,-1.76237 -1.42578,-2.84961 -1.15457,-2.17446 -2.68016,-4.85328 -4.25977,-7.50977 -1.57962,-2.65649 -3.20618,-5.28177 -4.56835,-7.33984 -0.6811,-1.02903 -1.29128,-1.91221 -1.82813,-2.62305 -0.26843,-0.35542 -0.51542,-0.66499 -0.7793,-0.95898 -0.26387,-0.29399 -0.39915,-0.55698 -1.18945,-1 -0.7903,-0.44302 -1.08827,-0.42315 -1.48242,-0.49805 -0.39417,-0.0749 -0.79487,-0.12778 -1.2461,-0.17578 -0.90245,-0.096 -1.99747,-0.16837 -3.25586,-0.22656 -2.51676,-0.11639 -5.66889,-0.17188 -8.82812,-0.17188 z m 8.73438,7.0918 -8.78711,13.08008 -8.89454,-13.06641 c -0.20652,0.0152 -0.41659,0.0305 -0.65039,0.0449 l 9.54493,14.02149 9.42773,-14.03516 c -0.23793,-0.0139 -0.42286,-0.0302 -0.64062,-0.0449 z M 136.83398,160.5 c -0.0306,0.0658 -0.0975,0.18731 -0.125,0.24805 -0.0524,0.11567 -0.0654,0.15735 -0.10546,0.25195 0.0401,0.0946 0.0531,0.13628 0.10546,0.25195 0.27944,0.61671 0.72079,1.49904 1.26368,2.52149 1.08577,2.04488 2.58124,4.67077 4.12304,7.26367 1.18858,1.99888 2.36739,3.89274 3.45118,5.58398 l 9.98828,-14.86718 -0.33789,-0.4961 -9.65039,14.36328 c -1.08379,-1.69124 -2.2626,-3.5851 -3.45118,-5.58398 -1.5418,-2.5929 -3.03727,-5.21879 -4.12304,-7.26367 -0.48943,-0.92176 -0.85853,-1.6714 -1.13868,-2.27344 z m 46.33204,0 c -0.28015,0.60204 -0.64925,1.35168 -1.13868,2.27344 -1.08577,2.04488 -2.58124,4.67077 -4.12304,7.26367 -1.17303,1.97272 -2.3351,3.84093 -3.40821,5.51758 l -9.75781,-14.33399 -0.33789,0.50391 10.0957,14.83008 c 1.07311,-1.67665 2.23518,-3.54486 3.40821,-5.51758 1.5418,-2.5929 3.03727,-5.21879 4.12304,-7.26367 0.54289,-1.02245 0.98424,-1.90478 1.26368,-2.52149 0.0524,-0.11567 0.0654,-0.15735 0.10546,-0.25195 -0.0401,-0.0946 -0.0531,-0.13628 -0.10546,-0.25195 -0.0275,-0.0607 -0.0944,-0.18228 -0.125,-0.24805 z M 139.63086,178.56445 135.68555,191 l 0.27734,-0.16992 3.83789,-11.98633 c -0.0555,-0.088 -0.11419,-0.19072 -0.16992,-0.2793 z m 28.27734,1.36328 c -2.28086,0.0931 -5.0684,0.14649 -7.9082,0.14649 -2.81001,0 -5.56229,-0.0534 -7.83008,-0.14453 l -0.6582,0.98047 c 2.36063,0.10796 5.42501,0.16406 8.48828,0.16406 3.0836,0 6.17424,-0.0566 8.54102,-0.16602 0.0136,-0.001 0.0196,-0.001 0.0332,-0.002 z" id="path977" inkscape:connector-curvature="0" sodipodi:nodetypes="scccccscscccsccccscscccccsccccccccscccsscsccccscccsscccccccccccssccccsccccccccccsccccccccccsccsccc"/>
      <path sodipodi:type="star" style="color:#000000;clip-rule:nonzero;display:inline;overflow:visible;visibility:visible;opacity:1;isolation:auto;mix-blend-mode:normal;color-interpolation:sRGB;color-interpolation-filters:linearRGB;solid-color:#000000;solid-opacity:1;vector-effect:none;fill:#000000;fill-opacity:0.1978022;fill-rule:nonzero;stroke:none;stroke-width:1.04410827;stroke-linecap:butt;stroke-linejoin:miter;stroke-miterlimit:4;stroke-dasharray:none;stroke-dashoffset:0;stroke-opacity:0.28021982;marker:none;marker-start:none;marker-mid:none;marker-end:none;paint-order:fill markers stroke;color-rendering:auto;image-rendering:auto;shape-rendering:auto;text-rendering:auto;enable-background:accumulate" id="path987" sodipodi:sides="4" sodipodi:cx="159.99995" sodipodi:cy="160.8224" sodipodi:r1="4.177597" sodipodi:r2="1.5448765" sodipodi:arg1="1.5707963" sodipodi:arg2="2.3561945" inkscape:flatsided="false" inkscape:rounded="0.07" inkscape:randomized="0" d="m 159.99995,165 c -0.2291,0 -0.93039,-2.9232 -1.09239,-3.0852 -0.162,-0.162 -3.0852,-0.86329 -3.0852,-1.0924 0,-0.2291 2.9232,-0.93039 3.0852,-1.09239 0.162,-0.162 0.86329,-3.0852 1.09239,-3.0852 0.22911,0 0.9304,2.9232 1.0924,3.0852 0.162,0.162 3.0852,0.86329 3.0852,1.09239 0,0.22911 -2.9232,0.9304 -3.0852,1.0924 -0.162,0.162 -0.86329,3.0852 -1.0924,3.0852 z"/>
    </g>
  </g>
</svg>