<?xml version="1.0" encoding="UTF-8" standalone="yes"?>
<svg xmlns:osb="http://www.openswatchbook.org/uri/2009/osb" xmlns:dc="http://purl.org/dc/elements/1.1/" xmlns:cc="http://creativecommons.org/ns#" xmlns:rdf="http://www.w3.org/1999/02/22-rdf-syntax-ns#" xmlns:svg="http://www.w3.org/2000/svg" xmlns="http://www.w3.org/2000/svg" xmlns:xlink="http://www.w3.org/1999/xlink" xmlns:sodipodi="http://sodipodi.sourceforge.net/DTD/sodipodi-0.dtd" xmlns:inkscape="http://www.inkscape.org/namespaces/inkscape" height="96" viewBox="0 0 96 96" width="96" id="svg2" version="1.1" inkscape:version="0.92.1 r" sodipodi:docname="libreoffice-startcenter.svg" enable-background="new" folder="96">
  <title id="title4675">Template icons dark</title>
  <metadata id="metadata24">
    <rdf:RDF>
      <cc:Work rdf:about="">
        <dc:format>image/svg+xml</dc:format>
        <dc:type rdf:resource="http://purl.org/dc/dcmitype/StillImage"/>
        <dc:title>Template icons dark</dc:title>
        <dc:date>17/05/13</dc:date>
        <dc:creator>
          <cc:Agent>
            <dc:title>wfpaisa</dc:title>
          </cc:Agent>
        </dc:creator>
        <dc:rights>
          <cc:Agent>
            <dc:title>License: GPLv3</dc:title>
          </cc:Agent>
        </dc:rights>
        <dc:language>es-en</dc:language>
        <dc:subject>
          <rdf:Bag>
            <rdf:li>plane-icon-theme</rdf:li>
          </rdf:Bag>
        </dc:subject>
        <dc:description>Template for create set icons</dc:description>
        <cc:license rdf:resource="https://www.gnu.org/licenses/gpl-3.0.en.html"/>
      </cc:Work>
    </rdf:RDF>
  </metadata>
  <defs id="defs22">
    <linearGradient inkscape:collect="always" id="linearGradient9052">
      <stop style="stop-color:#000000;stop-opacity:0.41145834" offset="0" id="stop9048"/>
      <stop style="stop-color:#000000;stop-opacity:0.515625" offset="1" id="stop9050"/>
    </linearGradient>
    <linearGradient id="linearGradient9046">
      <stop id="stop9042" offset="0" style="stop-color:#efefef;stop-opacity:1"/>
      <stop id="stop9044" offset="1" style="stop-color:#adadad;stop-opacity:1;"/>
    </linearGradient>
    <linearGradient inkscape:collect="always" id="linearGradient7841">
      <stop style="stop-color:#00a500;stop-opacity:1;" offset="0" id="stop7837"/>
      <stop style="stop-color:#00a51a;stop-opacity:1" offset="1" id="stop7839"/>
    </linearGradient>
    <linearGradient inkscape:collect="always" id="linearGradient7833">
      <stop style="stop-color:#ffffff;stop-opacity:0.05729167" offset="0" id="stop7829"/>
      <stop style="stop-color:#ffffff;stop-opacity:0.13020833" offset="1" id="stop7831"/>
    </linearGradient>
    <linearGradient id="linearGradient7827" inkscape:collect="always">
      <stop id="stop7823" offset="0" style="stop-color:#f7f7f7;stop-opacity:1"/>
      <stop id="stop7825" offset="1" style="stop-color:#e2e2e2;stop-opacity:1"/>
    </linearGradient>
    <linearGradient inkscape:collect="always" id="linearGradient7819">
      <stop style="stop-color:#e3e3e3;stop-opacity:1" offset="0" id="stop7815"/>
      <stop style="stop-color:#939393;stop-opacity:1" offset="1" id="stop7817"/>
    </linearGradient>
    <linearGradient inkscape:collect="always" xlink:href="#linearGradient7827" id="linearGradient7785" x1="160" y1="137" x2="160" y2="188" gradientUnits="userSpaceOnUse"/>
    <linearGradient inkscape:collect="always" xlink:href="#linearGradient9046" id="linearGradient7821" x1="160.06299" y1="120" x2="160.06299" y2="204" gradientUnits="userSpaceOnUse"/>
    <linearGradient inkscape:collect="always" xlink:href="#linearGradient7833" id="linearGradient7835" x1="178" y1="117" x2="193" y2="136" gradientUnits="userSpaceOnUse"/>
    <linearGradient inkscape:collect="always" xlink:href="#linearGradient7841" id="linearGradient7843" x1="171.40158" y1="117.45435" x2="193" y2="136" gradientUnits="userSpaceOnUse"/>
    <linearGradient gradientTransform="matrix(0.71910112,0,0,0.71910112,-35.934044,-35.407549)" inkscape:collect="always" xlink:href="#linearGradient7827" id="linearGradient7785-2" x1="160" y1="137" x2="160" y2="188" gradientUnits="userSpaceOnUse"/>
    <linearGradient gradientTransform="matrix(0.71910112,0,0,0.71910112,-35.934044,-35.407549)" inkscape:collect="always" xlink:href="#linearGradient7819" id="linearGradient7821-8" x1="160.06299" y1="118.73898" x2="160.06299" y2="204" gradientUnits="userSpaceOnUse"/>
    <linearGradient gradientTransform="matrix(0.71910112,0,0,0.71910112,-35.934044,-35.407549)" inkscape:collect="always" xlink:href="#linearGradient7841" id="linearGradient7843-2" x1="171.40158" y1="117.45435" x2="193.20515" y2="136.84799" gradientUnits="userSpaceOnUse"/>
    <linearGradient gradientTransform="matrix(0.71910112,0,0,0.71910112,-35.934044,-35.407549)" inkscape:collect="always" xlink:href="#linearGradient7833" id="linearGradient7835-3" x1="178" y1="117" x2="193.20515" y2="136.84799" gradientUnits="userSpaceOnUse"/>
    <linearGradient gradientTransform="matrix(1.3483145,0,0,1.3483145,55.370396,56.158972)" inkscape:collect="always" xlink:href="#linearGradient7827" id="linearGradient7785-29" x1="160" y1="137" x2="160" y2="188" gradientUnits="userSpaceOnUse"/>
    <linearGradient gradientTransform="matrix(1.3483145,0,0,1.3483145,55.370396,56.158972)" inkscape:collect="always" xlink:href="#linearGradient7819" id="linearGradient7821-9" x1="159.70773" y1="120.21085" x2="160.06299" y2="204" gradientUnits="userSpaceOnUse"/>
    <linearGradient inkscape:collect="always" xlink:href="#linearGradient7841" id="linearGradient8962" gradientUnits="userSpaceOnUse" x1="171.40158" y1="117.45435" x2="193" y2="136"/>
    <linearGradient inkscape:collect="always" xlink:href="#linearGradient9052" id="linearGradient9054" x1="160" y1="119" x2="160" y2="201.5748" gradientUnits="userSpaceOnUse"/>
    <linearGradient inkscape:collect="always" xlink:href="#linearGradient7819" id="linearGradient9397" gradientUnits="userSpaceOnUse" gradientTransform="matrix(0.71910112,0,0,0.71910112,-35.934044,-35.407549)" x1="79.173904" y1="52.019875" x2="79.173904" y2="110.42612"/>
    <linearGradient gradientTransform="translate(100,98)" inkscape:collect="always" xlink:href="#linearGradient9052" id="linearGradient9054-3" x1="160" y1="119" x2="160" y2="201.5748" gradientUnits="userSpaceOnUse"/>
    <linearGradient gradientTransform="translate(0,3.8e-6)" inkscape:collect="always" xlink:href="#linearGradient9052" id="linearGradient7937" gradientUnits="userSpaceOnUse" x1="79.842522" y1="50.497295" x2="79.842522" y2="108"/>
    <linearGradient gradientTransform="matrix(0.71910112,0,0,0.71910112,-90.934044,-84.407549)" inkscape:collect="always" xlink:href="#linearGradient7827" id="linearGradient7785-2-7" x1="160" y1="137" x2="160" y2="188" gradientUnits="userSpaceOnUse"/>
    <linearGradient inkscape:collect="always" xlink:href="#linearGradient7827" id="linearGradient7867" gradientUnits="userSpaceOnUse" gradientTransform="matrix(0.71910112,0,0,0.71910112,-35.934044,-35.407549)" x1="79.622849" y1="54.801125" x2="79.622849" y2="108.50355"/>
    <linearGradient id="linearGradient9422" osb:paint="solid">
      <stop style="stop-color:#a3bfcf;stop-opacity:1;" offset="0" id="stop9420"/>
    </linearGradient>
    <linearGradient id="linearGradient7827-6">
      <stop id="stop7823-2" offset="0" style="stop-color:#a3bfcf;stop-opacity:1;"/>
      <stop id="stop7825-9" offset="1" style="stop-color:#6d8aa9;stop-opacity:1;"/>
    </linearGradient>
    <style type="text/css" id="style51071-8">
   
    .str0 {stroke:#1F1A17;stroke-width:3}
    .fil0 {fill:none}
   
  </style>
    <style id="style2031-6" type="text/css">
   
    .str0 {stroke:#1F1A17;stroke-width:0.0762}
    .fil0 {fill:none}
    .fil1 {fill:none;fill-rule:nonzero}
   
  </style>
    <style id="style5368-2" type="text/css">
   
    .str0 {stroke:#000000;stroke-width:63}
    .str1 {stroke:#09098F;stroke-width:63}
    .fil5 {fill:none}
    .fil1 {fill:#000000}
    .fil2 {fill:#000000}
    .fil3 {fill:#4D66CC}
    .fil0 {fill:#576ECD}
    .fil4 {fill:#89A1D4}
   
  </style>
    <style type="text/css" id="style51071">
   
    .str0 {stroke:#1F1A17;stroke-width:3}
    .fil0 {fill:none}
   
  </style>
    <style id="style2031" type="text/css">
   
    .str0 {stroke:#1F1A17;stroke-width:0.0762}
    .fil0 {fill:none}
    .fil1 {fill:none;fill-rule:nonzero}
   
  </style>
    <style id="style5368" type="text/css">
   
    .str0 {stroke:#000000;stroke-width:63}
    .str1 {stroke:#09098F;stroke-width:63}
    .fil5 {fill:none}
    .fil1 {fill:#000000}
    .fil2 {fill:#000000}
    .fil3 {fill:#4D66CC}
    .fil0 {fill:#576ECD}
    .fil4 {fill:#89A1D4}
   
  </style>
  </defs>
  <sodipodi:namedview pagecolor="#383c4a" bordercolor="#ffffff" borderopacity="0.62745098" objecttolerance="4" gridtolerance="10" guidetolerance="4" inkscape:pageopacity="0" inkscape:pageshadow="2" inkscape:window-width="640" inkscape:window-height="480" id="namedview20" showgrid="true" inkscape:zoom="16.386533" inkscape:cx="0.26533948" inkscape:cy="59.13124" inkscape:current-layer="g7814" inkscape:snap-smooth-nodes="false" showguides="true" borderlayer="true" inkscape:showpageshadow="false" inkscape:guide-bbox="true" guidecolor="#bd4fff" guideopacity="0.78431373" inkscape:snap-nodes="true" inkscape:lockguides="false" fit-margin-top="0" fit-margin-left="0" fit-margin-right="0" fit-margin-bottom="0" guidehicolor="#ff0101" guidehiopacity="0.78431373" inkscape:snap-page="true" inkscape:object-nodes="true" inkscape:snap-bbox="true" inkscape:snap-global="true" inkscape:snap-object-midpoints="false" inkscape:snap-bbox-edge-midpoints="false" inkscape:bbox-nodes="true" inkscape:measure-start="170,-69.0866" inkscape:measure-end="194.079,-69">
    <inkscape:grid type="xygrid" id="grid4171" empspacing="4" dotted="false" originx="2.7755576e-17" originy="0" spacingx="1" spacingy="1" color="#5a5a5a" opacity="0.23529412" empcolor="#5a5a5a" empopacity="0.47058824" visible="true"/>
    <inkscape:grid type="axonomgrid" id="grid4699" units="mm" empspacing="4" color="#5a5a5a" opacity="0.23529412" empcolor="#5a5a5a" empopacity="0.47058824" gridanglex="45" gridanglez="45" spacingy="3.7795276" visible="false" originx="1.3228346" originy="1.3228346"/>
    <sodipodi:guide position="48,0" orientation="1,0" id="guide4568" inkscape:locked="false" inkscape:label="" inkscape:color="rgb(189,79,255)"/>
    <sodipodi:guide position="111.99996,-3.9999999e-05" orientation="0,1" id="guide4570" inkscape:locked="false" inkscape:label="" inkscape:color="rgb(189,79,255)"/>
    <sodipodi:guide position="0,0" orientation="1,0" id="guide4572" inkscape:locked="false" inkscape:label="" inkscape:color="rgb(189,79,255)"/>
    <sodipodi:guide position="0,48" orientation="0,1" id="guide4574" inkscape:locked="false" inkscape:label="" inkscape:color="rgb(189,79,255)"/>
    <sodipodi:guide position="0,80" orientation="0,1" id="guide4576" inkscape:locked="false" inkscape:label="" inkscape:color="rgb(189,79,255)"/>
    <sodipodi:guide position="-32,48" orientation="1,0" id="guide4578" inkscape:locked="false" inkscape:label="" inkscape:color="rgb(189,79,255)"/>
    <sodipodi:guide position="-32,104" orientation="0,1" id="guide4580" inkscape:locked="false" inkscape:label="" inkscape:color="rgb(189,79,255)"/>
    <sodipodi:guide position="-56,80" orientation="1,0" id="guide4582" inkscape:locked="false" inkscape:label="" inkscape:color="rgb(189,79,255)"/>
    <sodipodi:guide position="48,-64" orientation="0,1" id="guide4584" inkscape:locked="false" inkscape:label="" inkscape:color="rgb(189,79,255)"/>
    <sodipodi:guide position="0,0" orientation="-0.70710678,0.70710678" id="guide4588" inkscape:locked="false" inkscape:label="" inkscape:color="rgb(189,79,255)"/>
    <sodipodi:guide position="-56,80" orientation="-0.70710678,0.70710678" id="guide4573" inkscape:locked="false" inkscape:label="" inkscape:color="rgb(189,79,255)"/>
    <sodipodi:guide position="-32,48" orientation="-0.70710678,0.70710678" id="guide4575" inkscape:locked="false" inkscape:label="" inkscape:color="rgb(189,79,255)"/>
    <sodipodi:guide position="48,-64" orientation="-0.70710678,0.70710678" id="guide4577" inkscape:locked="false" inkscape:label="" inkscape:color="rgb(189,79,255)"/>
    <sodipodi:guide position="47.999962,0" orientation="0.70710678,0.70710678" id="guide4697" inkscape:locked="false" inkscape:label="" inkscape:color="rgb(189,79,255)"/>
    <sodipodi:guide position="207.99995,-288" orientation="0,1" id="guide7833" inkscape:locked="false"/>
    <sodipodi:guide position="335.99994,-288" orientation="1,0" id="guide7835" inkscape:locked="false" inkscape:label="" inkscape:color="rgb(189,79,255)"/>
    <sodipodi:guide position="111.99996,-64" orientation="1,0" id="guide7915" inkscape:locked="false"/>
    <sodipodi:guide position="111.99996,-160" orientation="0,1" id="guide7917" inkscape:locked="false"/>
    <sodipodi:guide position="207.99996,-160" orientation="1,0" id="guide7919" inkscape:locked="false"/>
    <sodipodi:guide position="160.028,-111.4979" orientation="-0.70710678,0.70710678" id="guide7921" inkscape:locked="false" inkscape:label="" inkscape:color="rgb(189,79,255)"/>
    <sodipodi:guide position="207.99996,-288" orientation="-0.70710678,0.70710678" id="guide7923" inkscape:locked="false" inkscape:label="" inkscape:color="rgb(189,79,255)"/>
    <sodipodi:guide position="-72,104" orientation="1,0" id="guide7824" inkscape:locked="false"/>
    <sodipodi:guide position="-56,120" orientation="0,1" id="guide7826" inkscape:locked="false"/>
    <sodipodi:guide position="-72,104" orientation="-0.70710678,0.70710678" id="guide7828" inkscape:locked="false" inkscape:label="" inkscape:color="rgb(189,79,255)"/>
  </sodipodi:namedview>
  <g style="display:inline" inkscape:label="icon_96" id="g8840" inkscape:groupmode="layer" transform="translate(-111.99996,-112)">
    <g style="display:none" inkscape:label="frame" id="g8776" inkscape:groupmode="layer">
      <rect style="color:#000000;clip-rule:nonzero;display:inline;overflow:visible;visibility:visible;opacity:1;isolation:auto;mix-blend-mode:normal;color-interpolation:sRGB;color-interpolation-filters:linearRGB;solid-color:#000000;solid-opacity:1;vector-effect:none;fill:#000000;fill-opacity:1;fill-rule:nonzero;stroke:#ff24f7;stroke-width:0;stroke-linecap:square;stroke-linejoin:miter;stroke-miterlimit:4;stroke-dasharray:none;stroke-dashoffset:0;stroke-opacity:0.99481865;marker:none;marker-start:none;marker-mid:none;marker-end:none;paint-order:normal;color-rendering:auto;image-rendering:auto;shape-rendering:auto;text-rendering:auto;enable-background:accumulate" id="rect_96" width="96" height="96" x="111.99996" y="112" inkscape:label="frame_96"/>
      <text inkscape:label="txt_96" id="text_96" y="168.73633" x="144.72458" style="font-size:24px;line-height:0%;font-family:sans-serif;letter-spacing:0px;word-spacing:0px;display:inline;opacity:1;fill:#ffffff;fill-opacity:1;stroke:none;stroke-width:0.04917826px;stroke-linecap:butt;stroke-linejoin:miter;stroke-opacity:1" xml:space="preserve">
        <tspan id="tspan8768" style="font-size:24px;line-height:0%;fill:#ffffff;fill-opacity:1;stroke:none;stroke-width:0.04917826px" y="168.73633" x="144.72458" sodipodi:role="line">96</tspan>
      </text>
    </g>
    <g style="display:inline" inkscape:label="icon" id="g8838" inkscape:groupmode="layer">
      <g style="display:inline" inkscape:label="pestana" id="g9013">
        <path sodipodi:nodetypes="ccccc" inkscape:connector-curvature="0" id="path9007" d="M 192.01016,116 H 169 l 26,26 V 119.03505 C 195,117 194,116 192.01016,116 Z" style="display:inline;opacity:1;vector-effect:none;fill:#000000;fill-opacity:0.15686275;fill-rule:evenodd;stroke:none;stroke-width:0.21683232;stroke-linecap:butt;stroke-linejoin:miter;stroke-miterlimit:4;stroke-dasharray:none;stroke-dashoffset:0;stroke-opacity:1;marker:none;marker-start:none;marker-mid:none;marker-end:none;paint-order:fill markers stroke" inkscape:label="sombra"/>
        <path style="display:inline;fill:url(#linearGradient7843);fill-opacity:1;fill-rule:evenodd;stroke:none;stroke-width:1px;stroke-linecap:butt;stroke-linejoin:miter;stroke-opacity:1" d="M 191.00874,117 H 172 l 22,22 V 120.01469 C 194,118 193,117 191.00874,117 Z" id="path9009" inkscape:connector-curvature="0" sodipodi:nodetypes="ccccc" inkscape:label="pestana"/>
        <path sodipodi:nodetypes="ccccccccc" inkscape:connector-curvature="0" id="path9011" d="m 172,117 22,22 V 119.99292 C 194,118 193,117 190.9652,117 Z m 3,1 h 18 v 18 z" style="color:#000000;font-style:normal;font-variant:normal;font-weight:normal;font-stretch:normal;font-size:medium;line-height:normal;font-family:sans-serif;font-variant-ligatures:normal;font-variant-position:normal;font-variant-caps:normal;font-variant-numeric:normal;font-variant-alternates:normal;font-feature-settings:normal;text-indent:0;text-align:start;text-decoration:none;text-decoration-line:none;text-decoration-style:solid;text-decoration-color:#000000;letter-spacing:normal;word-spacing:normal;text-transform:none;writing-mode:lr-tb;direction:ltr;text-orientation:mixed;dominant-baseline:auto;baseline-shift:baseline;text-anchor:start;white-space:normal;shape-padding:0;clip-rule:nonzero;display:inline;overflow:visible;visibility:visible;opacity:1;isolation:auto;mix-blend-mode:normal;color-interpolation:sRGB;color-interpolation-filters:linearRGB;solid-color:#000000;solid-opacity:1;vector-effect:none;fill:url(#linearGradient7835);fill-opacity:1;fill-rule:evenodd;stroke:none;stroke-width:2;stroke-linecap:butt;stroke-linejoin:miter;stroke-miterlimit:4;stroke-dasharray:none;stroke-dashoffset:0;stroke-opacity:1;color-rendering:auto;image-rendering:auto;shape-rendering:auto;text-rendering:auto;enable-background:accumulate" inkscape:label="brillo in"/>
      </g>
      <path sodipodi:nodetypes="ccccccccccc" inkscape:connector-curvature="0" id="path7759" d="m 127.99442,116 h 32.00819 c 0.99739,0 1.99813,0 3.03031,1.03218 L 193,147 c 1,1 2,2 2.02318,3.05586 l -0.022,51.95431 C 195.00126,204 194,205 191.96075,205 H 128.00646 C 126,205 125,204 125,202.01291 V 119.0068 C 125,117 126,116 127.99442,116 Z" style="color:#000000;clip-rule:nonzero;display:block;overflow:visible;visibility:visible;opacity:1;isolation:auto;mix-blend-mode:normal;color-interpolation:sRGB;color-interpolation-filters:linearRGB;solid-color:#000000;solid-opacity:1;vector-effect:none;fill:#000000;fill-opacity:0.15686275;fill-rule:nonzero;stroke:none;stroke-width:0.21683232;stroke-linecap:butt;stroke-linejoin:miter;stroke-miterlimit:4;stroke-dasharray:none;stroke-dashoffset:0;stroke-opacity:1;marker:none;marker-start:none;marker-mid:none;marker-end:none;paint-order:fill markers stroke;color-rendering:auto;image-rendering:auto;shape-rendering:auto;text-rendering:auto;enable-background:accumulate" inkscape:label="base sombra exterior"/>
      <path style="color:#000000;clip-rule:nonzero;display:block;overflow:visible;visibility:visible;opacity:1;isolation:auto;mix-blend-mode:normal;color-interpolation:sRGB;color-interpolation-filters:linearRGB;solid-color:#000000;solid-opacity:1;vector-effect:none;fill:url(#linearGradient7785);fill-opacity:1;fill-rule:nonzero;stroke:none;stroke-width:0.2013443;stroke-linecap:butt;stroke-linejoin:miter;stroke-miterlimit:4;stroke-dasharray:none;stroke-dashoffset:0;stroke-opacity:1;marker:none;marker-start:none;marker-mid:none;marker-end:none;paint-order:fill markers stroke;color-rendering:auto;image-rendering:auto;shape-rendering:auto;text-rendering:auto;enable-background:accumulate" d="m 129,117 h 29.9952 c 1.0048,0 1.98244,-0.0224 3.0048,1 l 30.99854,30.02983 C 194,149.0313 194,150 194,151.01312 V 200.9768 C 194,203 193,204 191.03051,204 H 129 c -2,0 -3,-1 -3,-2.97966 V 120 c 0,-2.01869 1,-3 3,-3 z" id="rect7756" inkscape:connector-curvature="0" sodipodi:nodetypes="ccccccccccc" inkscape:label="base"/>
      <path style="color:#000000;font-style:normal;font-variant:normal;font-weight:normal;font-stretch:normal;font-size:medium;line-height:normal;font-family:sans-serif;font-variant-ligatures:normal;font-variant-position:normal;font-variant-caps:normal;font-variant-numeric:normal;font-variant-alternates:normal;font-feature-settings:normal;text-indent:0;text-align:start;text-decoration:none;text-decoration-line:none;text-decoration-style:solid;text-decoration-color:#000000;letter-spacing:normal;word-spacing:normal;text-transform:none;writing-mode:lr-tb;direction:ltr;text-orientation:mixed;dominant-baseline:auto;baseline-shift:baseline;text-anchor:start;white-space:normal;shape-padding:0;clip-rule:nonzero;display:inline;overflow:visible;visibility:visible;opacity:1;isolation:auto;mix-blend-mode:normal;color-interpolation:sRGB;color-interpolation-filters:linearRGB;solid-color:#000000;solid-opacity:1;vector-effect:none;fill:url(#linearGradient7821);fill-opacity:1;fill-rule:nonzero;stroke:none;stroke-width:2;stroke-linecap:butt;stroke-linejoin:miter;stroke-miterlimit:4;stroke-dasharray:none;stroke-dashoffset:0;stroke-opacity:1;marker:none;paint-order:fill markers stroke;color-rendering:auto;image-rendering:auto;shape-rendering:auto;text-rendering:auto;enable-background:accumulate" d="M 126,120.00774 V 201 c 0,2 1,3 3,3 h 62.00229 C 193,204 194,203 194,200.99455 v -49.99687 c 0,-0.99768 0.0787,-1.9214 -1.02536,-2.99099 L 162,118 c -1.02623,-0.99513 -2,-1 -3.01575,-1 H 129.01387 C 127,117 126,118 126,120.00774 Z M 129,120 h 31.06299 L 191,150 v 51 h -62 z" id="path7787" inkscape:connector-curvature="0" sodipodi:nodetypes="ccccccccccccccccc" inkscape:label="base sombra interior"/>
      <path style="color:#000000;font-style:normal;font-variant:normal;font-weight:normal;font-stretch:normal;font-size:medium;line-height:normal;font-family:sans-serif;font-variant-ligatures:normal;font-variant-position:normal;font-variant-caps:normal;font-variant-numeric:normal;font-variant-alternates:normal;font-feature-settings:normal;text-indent:0;text-align:start;text-decoration:none;text-decoration-line:none;text-decoration-style:solid;text-decoration-color:#000000;letter-spacing:normal;word-spacing:normal;text-transform:none;writing-mode:lr-tb;direction:ltr;text-orientation:mixed;dominant-baseline:auto;baseline-shift:baseline;text-anchor:start;white-space:normal;shape-padding:0;clip-rule:nonzero;display:inline;overflow:visible;visibility:visible;opacity:0.39800002;isolation:auto;mix-blend-mode:normal;color-interpolation:sRGB;color-interpolation-filters:linearRGB;solid-color:#000000;solid-opacity:1;vector-effect:none;fill:url(#linearGradient9054);fill-opacity:1;fill-rule:evenodd;stroke:none;stroke-width:1;stroke-linecap:butt;stroke-linejoin:miter;stroke-miterlimit:4;stroke-dasharray:none;stroke-dashoffset:0;stroke-opacity:1;color-rendering:auto;image-rendering:auto;shape-rendering:auto;text-rendering:auto;enable-background:accumulate" d="m 128,119 v 83 h 64 v -52 l -32,-31 z m 1,1 h 31 l 31,30 v 51 h -62 z" id="path8968" inkscape:connector-curvature="0" sodipodi:nodetypes="cccccccccccc" inkscape:label="base border"/>
      <path inkscape:label="libre" inkscape:connector-curvature="0" id="path3245-2" d="m 143.84593,158.4747 v 7.54067 h 1.36643 l 0.0318,-0.59817 h 0.0207 c 0.438,0.49216 0.8768,0.70284 1.59636,0.70284 1.35571,0 2.25248,-1.22648 2.25248,-2.75532 0,-1.47645 -0.80381,-2.56464 -2.1908,-2.56464 -0.74041,0 -1.17832,0.21931 -1.65804,0.70097 h -0.0207 v -3.02635 z m -1.71412,0.37761 c -0.44844,0 -0.80193,0.36585 -0.80193,0.80563 0,0.45029 0.35349,0.80754 0.80193,0.80754 0.43798,0 0.80379,-0.35725 0.80379,-0.80754 0,-0.43978 -0.36581,-0.80563 -0.80379,-0.80563 z m -6.12001,0.0635 v 7.09951 h 4.57785 v -1.07858 h -3.18149 v -6.02093 z m 16.85153,1.88423 c -0.66744,0.0417 -1.30438,0.44958 -1.59638,1.01501 h -0.0206 l -0.0317,-0.91033 h -1.36644 v 5.1106 h 1.39822 v -1.92724 c 0,-1.02618 0.18701,-1.39215 0.51031,-1.62251 0.28156,-0.19897 0.61597,-0.28375 1.07482,-0.30469 z m 3.03382,0 c -1.60598,0 -2.63754,1.11054 -2.63754,2.79643 0,1.64402 1.06284,2.52353 2.63754,2.52353 0.74043,0 1.26137,-0.11658 1.75151,-0.33647 l -0.1458,-1.04679 c -0.45885,0.18846 -0.92756,0.30469 -1.42812,0.30469 -0.84471,0 -1.38721,-0.38746 -1.43935,-1.18326 h 3.30675 c 0.0416,-0.18851 0.0617,-0.48293 0.0617,-0.70284 0,-1.26703 -0.77185,-2.35529 -2.10668,-2.35529 z m -14.46258,0.10456 v 5.1106 h 1.39634 v -5.1106 z m 4.95732,0.97388 c 0.83428,0 1.25054,0.59637 1.25054,1.57019 0,0.9634 -0.40614,1.59263 -1.22999,1.59263 -0.71955,0 -1.1683,-0.56686 -1.1683,-1.46738 V 163.344 c 0,-0.87958 0.39692,-1.46552 1.14775,-1.46552 z m 9.35945,0 c 0.60487,0 0.88576,0.49146 0.90661,1.01502 h -1.97023 c 0.10434,-0.58639 0.51091,-1.01502 1.06362,-1.01502 z" style="font-style:normal;font-variant:normal;font-weight:normal;font-stretch:normal;font-size:67.56232452px;font-family:Vegur;-inkscape-font-specification:Vegur;fill:#18a303;fill-opacity:1;stroke:none;stroke-width:0.15467095"/>
      <path inkscape:label="office" inkscape:connector-curvature="0" id="path3255-0" d="m 168.95217,158.37003 c -1.24098,0 -1.94966,0.8074 -1.94966,2.25246 v 0.32341 h -0.82434 v 0.67106 h 0.82434 v 4.39841 h 0.87671 v -4.39841 h 1.29166 0.74396 v 4.39841 h 0.8767 v -4.39841 h 1.29167 v -0.67106 h -1.29167 v -0.45985 c 0,-0.911 0.38548,-1.44496 1.08419,-1.44496 0.32326,0 0.53088,0.0519 0.72901,0.12524 l 0.0841,-0.64862 c -0.18771,-0.0733 -0.54278,-0.14768 -0.82435,-0.14768 -1.24099,0 -1.94967,0.8074 -1.94967,2.25246 v 0.32341 h -0.74396 -1.29165 v -0.45985 c 0,-0.911 0.38547,-1.44496 1.08417,-1.44496 0.32328,0 0.53087,0.0519 0.729,0.12524 l 0.0841,-0.64862 c -0.18772,-0.0733 -0.54279,-0.14768 -0.82437,-0.14768 z m -6.70509,0.44115 c -1.87712,0 -3.42077,1.37164 -3.42077,3.65443 0,2.28279 1.54365,3.65443 3.42077,3.65443 1.87713,0 3.4189,-1.37164 3.4189,-3.65443 0,-2.28279 -1.54177,-3.65443 -3.4189,-3.65443 z m 11.28856,0.3028 c -0.30243,0 -0.5421,0.24031 -0.5421,0.54396 0,0.3037 0.23967,0.54584 0.5421,0.54584 0.30242,0 0.54396,-0.24214 0.54396,-0.54584 0,-0.30365 -0.24154,-0.54396 -0.54396,-0.54396 z m -11.28856,0.40939 c 1.39741,0 2.45997,1.04692 2.45997,2.94224 0,1.89532 -1.06256,2.94224 -2.45997,2.94224 -1.3974,0 -2.46182,-1.04692 -2.46182,-2.94224 0,-1.89532 1.06442,-2.94224 2.46182,-2.94224 z m 15.37293,1.31784 c -1.56427,0 -2.74224,0.95272 -2.74224,2.73288 0,1.67542 1.06335,2.54595 2.47119,2.54595 0.6257,0 1.07414,-0.0736 1.58515,-0.29347 l -0.0822,-0.67109 c -0.43799,0.19898 -0.90788,0.2935 -1.34588,0.2935 -1.01156,0 -1.71038,-0.63812 -1.71038,-1.98892 0,-1.27752 0.76081,-1.94779 1.7515,-1.94779 0.52143,0 0.98168,0.12482 1.3571,0.30282 l 0.0822,-0.6692 c -0.31285,-0.15706 -0.81372,-0.30468 -1.36644,-0.30468 z m 4.35728,0 c -1.40783,0 -2.43941,1.1726 -2.43941,2.73288 0,1.7173 1.03158,2.54595 2.43941,2.54595 0.62571,0 1.09501,-0.0943 1.58515,-0.29347 l -0.0824,-0.67109 c -0.38584,0.18849 -0.93967,0.2935 -1.37765,0.2935 -1.01155,0 -1.66896,-0.61835 -1.68982,-1.77021 h 3.51611 c 0.021,-0.18849 0.0298,-0.34388 0.0298,-0.50097 0,-1.29845 -0.67787,-2.33659 -1.98143,-2.33659 z m -8.87907,0.10467 v 5.06947 h 0.8767 v -5.06947 z m 8.80617,0.56637 c 0.77169,0 1.18885,0.63902 1.18885,1.47673 h -2.63755 c 0.12514,-0.89008 0.61441,-1.47673 1.4487,-1.47673 z" style="font-style:normal;font-variant:normal;font-weight:normal;font-stretch:normal;font-size:67.56232452px;font-family:Vegur;-inkscape-font-specification:Vegur;fill:#000000;fill-opacity:0.73958333;stroke:none;stroke-width:0.15467095"/>
      <path inkscape:label="base border" sodipodi:nodetypes="cccccccccccc" inkscape:connector-curvature="0" id="path8019" d="m 129,120 v 81 h 62 v -51 l -30.93701,-30 z m 1,1 h 30.06299 L 190,150 v 50 h -60 z" style="color:#000000;font-style:normal;font-variant:normal;font-weight:normal;font-stretch:normal;font-size:medium;line-height:normal;font-family:sans-serif;font-variant-ligatures:normal;font-variant-position:normal;font-variant-caps:normal;font-variant-numeric:normal;font-variant-alternates:normal;font-feature-settings:normal;text-indent:0;text-align:start;text-decoration:none;text-decoration-line:none;text-decoration-style:solid;text-decoration-color:#000000;letter-spacing:normal;word-spacing:normal;text-transform:none;writing-mode:lr-tb;direction:ltr;text-orientation:mixed;dominant-baseline:auto;baseline-shift:baseline;text-anchor:start;white-space:normal;shape-padding:0;clip-rule:nonzero;display:inline;overflow:visible;visibility:visible;opacity:1;isolation:auto;mix-blend-mode:normal;color-interpolation:sRGB;color-interpolation-filters:linearRGB;solid-color:#000000;solid-opacity:1;vector-effect:none;fill:#ffffff;fill-opacity:0.96875;fill-rule:evenodd;stroke:none;stroke-width:1;stroke-linecap:butt;stroke-linejoin:miter;stroke-miterlimit:4;stroke-dasharray:none;stroke-dashoffset:0;stroke-opacity:1;color-rendering:auto;image-rendering:auto;shape-rendering:auto;text-rendering:auto;enable-background:accumulate"/>
    </g>
  </g>
</svg>