<?xml version="1.0" encoding="UTF-8" standalone="yes"?>
<svg xmlns:osb="http://www.openswatchbook.org/uri/2009/osb" xmlns:dc="http://purl.org/dc/elements/1.1/" xmlns:cc="http://creativecommons.org/ns#" xmlns:rdf="http://www.w3.org/1999/02/22-rdf-syntax-ns#" xmlns:svg="http://www.w3.org/2000/svg" xmlns="http://www.w3.org/2000/svg" xmlns:xlink="http://www.w3.org/1999/xlink" xmlns:sodipodi="http://sodipodi.sourceforge.net/DTD/sodipodi-0.dtd" xmlns:inkscape="http://www.inkscape.org/namespaces/inkscape" height="96" viewBox="0 0 96 96" width="96" id="svg2" version="1.1" inkscape:version="0.92.1 r" sodipodi:docname="font-x-generic.svg" enable-background="new" folder="96">
  <title id="title4675">Template icons dark</title>
  <metadata id="metadata24">
    <rdf:RDF>
      <cc:Work rdf:about="">
        <dc:format>image/svg+xml</dc:format>
        <dc:type rdf:resource="http://purl.org/dc/dcmitype/StillImage"/>
        <dc:title>Template icons dark</dc:title>
        <dc:date>17/05/13</dc:date>
        <dc:creator>
          <cc:Agent>
            <dc:title>wfpaisa</dc:title>
          </cc:Agent>
        </dc:creator>
        <dc:rights>
          <cc:Agent>
            <dc:title>License: GPLv3</dc:title>
          </cc:Agent>
        </dc:rights>
        <dc:language>es-en</dc:language>
        <dc:subject>
          <rdf:Bag>
            <rdf:li>plane-icon-theme</rdf:li>
          </rdf:Bag>
        </dc:subject>
        <dc:description>Template for create set icons</dc:description>
        <cc:license rdf:resource="https://www.gnu.org/licenses/gpl-3.0.en.html"/>
      </cc:Work>
    </rdf:RDF>
  </metadata>
  <defs id="defs22">
    <linearGradient id="Pestana-sombra-3" osb:paint="solid">
      <stop style="stop-color:#000000;stop-opacity:0.19553073;" offset="0" id="stop8273"/>
    </linearGradient>
    <linearGradient id="Hoja-brillo-8" osb:paint="solid">
      <stop style="stop-color:#ffffff;stop-opacity:0.78212291;" offset="0" id="stop8267"/>
    </linearGradient>
    <linearGradient id="Hoja-sombra-2_-2" osb:paint="solid">
      <stop style="stop-color:#000000;stop-opacity:0.07821229;" offset="0" id="stop8261"/>
    </linearGradient>
    <linearGradient id="Hoja-sombra-1_-9" osb:paint="solid">
      <stop style="stop-color:#000000;stop-opacity:0.15686275;" offset="0" id="stop8255"/>
    </linearGradient>
    <linearGradient id="Pestana-6">
      <stop id="stop7875" offset="0" style="stop-color:#ffffff;stop-opacity:1;"/>
      <stop id="stop7879" offset="1" style="stop-color:#dfdfdf;stop-opacity:1;"/>
    </linearGradient>
    <linearGradient id="Hoja_-5">
      <stop id="stop7831" offset="0" style="stop-color:#f0f0f0;stop-opacity:1;"/>
      <stop id="stop7833" offset="1" style="stop-color:#ffffff;stop-opacity:1"/>
    </linearGradient>
    <linearGradient inkscape:collect="always" xlink:href="#Hoja_-5" id="linearGradient8848" gradientUnits="userSpaceOnUse" gradientTransform="matrix(2.1943448,0,0,2.19615,107.37835,109.17328)" x1="24.116938" y1="4.9307919" x2="24.058121" y2="42.556389"/>
    <linearGradient inkscape:collect="always" xlink:href="#Pestana-6" id="linearGradient8852" gradientUnits="userSpaceOnUse" gradientTransform="matrix(2.5078225,0,0,2.19615,97.006583,108.93197)" x1="33.093815" y1="10.50385" x2="29.903797" y2="14.146588"/>
    <linearGradient inkscape:collect="always" xlink:href="#Hoja_-5" id="linearGradient7823-7" gradientUnits="userSpaceOnUse" x1="24.116938" y1="4.9307919" x2="24.058121" y2="42.556389" gradientTransform="matrix(1.1194338,0,0,1.1203548,-2.9435792,-2.6942142)"/>
    <linearGradient inkscape:collect="always" xlink:href="#Hoja-sombra-2" id="linearGradient7865-3" gradientUnits="userSpaceOnUse" gradientTransform="matrix(1.1194338,0,0,1.1203548,-2.9435792,-2.6942142)" x1="26.072924" y1="18.962273" x2="34.373611" y2="10.815324"/>
    <linearGradient inkscape:collect="always" xlink:href="#Pestana-6" id="linearGradient7825-6" gradientUnits="userSpaceOnUse" x1="34.176132" y1="10.27618" x2="30.758255" y2="13.691247" gradientTransform="matrix(1.2793529,0,0,1.1203548,-8.2346867,-2.8173169)"/>
    <linearGradient inkscape:collect="always" xlink:href="#Hoja_-5" id="linearGradient7909" gradientUnits="userSpaceOnUse" gradientTransform="matrix(1.4628966,0,0,1.4641001,44.91893,46.115528)" x1="24.116938" y1="4.9307919" x2="24.058121" y2="42.556389"/>
    <linearGradient inkscape:collect="always" xlink:href="#Hoja-sombra-2" id="linearGradient7911" gradientUnits="userSpaceOnUse" gradientTransform="matrix(1.4628966,0,0,1.4641001,44.91893,46.115528)" x1="26.072924" y1="18.962273" x2="34.373611" y2="10.815324"/>
    <linearGradient inkscape:collect="always" xlink:href="#Pestana-6" id="linearGradient7913" gradientUnits="userSpaceOnUse" gradientTransform="matrix(1.6718818,0,0,1.4641001,38.00441,45.954658)" x1="34.176132" y1="10.27618" x2="30.758255" y2="13.691247"/>
    <linearGradient inkscape:collect="always" xlink:href="#Hoja-sombra-2" id="linearGradient8850-3" gradientUnits="userSpaceOnUse" gradientTransform="matrix(2.1943448,0,0,2.19615,107.37835,109.17328)" x1="23.980556" y1="23.143555" x2="45.854969" y2="1.2871252"/>
    <linearGradient inkscape:collect="always" xlink:href="#Hoja-sombra-2" id="linearGradient4621" gradientUnits="userSpaceOnUse" gradientTransform="matrix(2.1943448,0,0,2.19615,107.37835,109.17328)" x1="23.980556" y1="23.143555" x2="2.1061459" y2="44.999985"/>
    <linearGradient inkscape:collect="always" xlink:href="#Hoja-sombra-2" id="linearGradient8301" gradientUnits="userSpaceOnUse" gradientTransform="matrix(2.1943448,0,0,2.19615,107.37835,109.17328)" x1="23.980556" y1="23.143555" x2="45.854969" y2="44.999985"/>
    <linearGradient id="Hoja-sombra-2">
      <stop id="stop8303" offset="0" style="stop-color:#000000;stop-opacity:0"/>
      <stop id="stop8305" offset="1" style="stop-color:#000000;stop-opacity:0.10196079"/>
    </linearGradient>
    <linearGradient inkscape:collect="always" xlink:href="#Hoja-sombra-2" id="linearGradient7895" gradientUnits="userSpaceOnUse" gradientTransform="matrix(2.1943448,0,0,2.19615,107.37835,109.17328)" x1="23.980556" y1="23.143555" x2="2.1061459" y2="1.2871252"/>
    <linearGradient inkscape:collect="always" xlink:href="#Hoja_-5" id="linearGradient7818" gradientUnits="userSpaceOnUse" gradientTransform="matrix(0.74628918,0,0,0.74690318,-33.962385,-33.796142)" x1="24.116938" y1="4.9307919" x2="24.058121" y2="42.556389"/>
    <linearGradient inkscape:collect="always" xlink:href="#Pestana-6" id="linearGradient7822" gradientUnits="userSpaceOnUse" gradientTransform="matrix(0.85290191,0,0,0.74690318,-37.489791,-33.878211)" x1="28.713491" y1="15.702977" x2="25.196087" y2="18.581003"/>
    <linearGradient inkscape:collect="always" xlink:href="#Hoja-sombra-1_-9" id="linearGradient8259" x1="125.99999" y1="161.5" x2="193.99999" y2="161.5" gradientUnits="userSpaceOnUse"/>
    <linearGradient inkscape:collect="always" xlink:href="#Hoja-sombra-2_-2" id="linearGradient8265" x1="125" y1="161.49999" x2="195" y2="161.49999" gradientUnits="userSpaceOnUse"/>
    <linearGradient inkscape:collect="always" xlink:href="#Hoja-brillo-8" id="linearGradient8271" x1="126.99999" y1="120.5" x2="168.99999" y2="120.5" gradientUnits="userSpaceOnUse"/>
    <linearGradient inkscape:collect="always" xlink:href="#Pestana-sombra-3" id="linearGradient8277" x1="165.99999" y1="133.47244" x2="192.99999" y2="133.47244" gradientUnits="userSpaceOnUse"/>
    <linearGradient gradientTransform="matrix(1.33333,0,0,1.33333,58.6672,56.167208)" inkscape:collect="always" xlink:href="#Hoja-sombra-2_-2" id="linearGradient8265-7" x1="125" y1="161.49998" x2="195" y2="161.49998" gradientUnits="userSpaceOnUse"/>
    <linearGradient gradientTransform="matrix(1.33333,0,0,1.33333,58.6672,56.167208)" inkscape:collect="always" xlink:href="#Hoja-sombra-1_-9" id="linearGradient8259-9" x1="125.99999" y1="161.5" x2="193.99998" y2="161.5" gradientUnits="userSpaceOnUse"/>
    <linearGradient inkscape:collect="always" xlink:href="#Hoja_-5" id="linearGradient8848-4" gradientUnits="userSpaceOnUse" gradientTransform="matrix(2.9257858,0,0,2.9281927,201.83798,201.73122)" x1="24.116938" y1="4.9307919" x2="24.058121" y2="42.556389"/>
    <linearGradient inkscape:collect="always" xlink:href="#Hoja-sombra-2" id="linearGradient8301-3" gradientUnits="userSpaceOnUse" gradientTransform="matrix(2.9257858,0,0,2.9281927,201.83798,201.73122)" x1="23.980556" y1="23.143555" x2="45.854969" y2="44.999985"/>
    <linearGradient inkscape:collect="always" xlink:href="#Hoja-sombra-2" id="linearGradient4621-0" gradientUnits="userSpaceOnUse" gradientTransform="matrix(2.9257858,0,0,2.9281927,201.83798,201.73122)" x1="23.980556" y1="23.143555" x2="2.1061459" y2="44.999985"/>
    <linearGradient inkscape:collect="always" xlink:href="#Hoja-sombra-2" id="linearGradient8850-3-8" gradientUnits="userSpaceOnUse" gradientTransform="matrix(2.9257858,0,0,2.9281927,201.83798,201.73122)" x1="23.980556" y1="23.143555" x2="45.854969" y2="1.2871252"/>
    <linearGradient inkscape:collect="always" xlink:href="#Hoja-sombra-2" id="linearGradient7895-1" gradientUnits="userSpaceOnUse" gradientTransform="matrix(2.9257858,0,0,2.9281927,201.83798,201.73122)" x1="23.980556" y1="23.143555" x2="2.1061459" y2="1.2871252"/>
    <linearGradient gradientTransform="matrix(1.33333,0,0,1.33333,58.6672,56.167208)" inkscape:collect="always" xlink:href="#Hoja-brillo-8" id="linearGradient8271-9" x1="126.99999" y1="120.5" x2="168.99998" y2="120.5" gradientUnits="userSpaceOnUse"/>
    <linearGradient gradientTransform="matrix(1.33333,0,0,1.33333,58.6672,56.167208)" inkscape:collect="always" xlink:href="#Pestana-sombra-3" id="linearGradient8277-7" x1="165.99998" y1="133.47244" x2="192.99998" y2="133.47244" gradientUnits="userSpaceOnUse"/>
    <linearGradient inkscape:collect="always" xlink:href="#Pestana-6" id="linearGradient8852-2" gradientUnits="userSpaceOnUse" gradientTransform="matrix(3.343755,0,0,2.9281927,188.00898,201.40947)" x1="33.093815" y1="10.50385" x2="29.903797" y2="14.146588"/>
    <linearGradient gradientTransform="matrix(0.33418093,0,0,0.34277768,-69.503435,-71.57129)" inkscape:collect="always" xlink:href="#patron-6" id="linearGradient9428-9" gradientUnits="userSpaceOnUse" x1="188" y1="173.49998" x2="189" y2="173.49998"/>
    <linearGradient id="patron-6" osb:paint="solid">
      <stop style="stop-color:#000000;stop-opacity:0.08379889;" offset="0" id="stop9305"/>
    </linearGradient>
    <linearGradient gradientTransform="matrix(0.5003165,0,0,0.50586389,-56.546906,-57.711743)" inkscape:collect="always" xlink:href="#patron-6" id="linearGradient9428-62" gradientUnits="userSpaceOnUse" x1="188" y1="173.49998" x2="189" y2="173.49998"/>
    <linearGradient gradientTransform="matrix(0.66742097,0,0,0.67482117,-26.771695,-27.999411)" inkscape:collect="always" xlink:href="#patron-6" id="linearGradient9428-62-7" gradientUnits="userSpaceOnUse" x1="188" y1="173.49998" x2="189" y2="173.49998"/>
    <linearGradient gradientTransform="matrix(0.99981922,0,0,1.0002963,0.01735681,-0.05481329)" inkscape:collect="always" xlink:href="#patron-6" id="linearGradient9428-62-2" gradientUnits="userSpaceOnUse" x1="188" y1="173.49998" x2="189" y2="173.49998"/>
    <linearGradient gradientTransform="matrix(1.3339076,0,0,1.3368226,58.573291,55.576961)" inkscape:collect="always" xlink:href="#patron-6" id="linearGradient9428-62-0" gradientUnits="userSpaceOnUse" x1="188" y1="173.49998" x2="189" y2="173.49998"/>
  </defs>
  <sodipodi:namedview pagecolor="#383c4a" bordercolor="#ffffff" borderopacity="0.62745098" objecttolerance="4" gridtolerance="10" guidetolerance="4" inkscape:pageopacity="0" inkscape:pageshadow="2" inkscape:window-width="640" inkscape:window-height="480" id="namedview20" showgrid="false" inkscape:zoom="5.8456082" inkscape:cx="290.54486" inkscape:cy="-231.49736" inkscape:current-layer="layer12" inkscape:snap-smooth-nodes="false" showguides="true" borderlayer="true" inkscape:showpageshadow="false" inkscape:guide-bbox="true" guidecolor="#bd4fff" guideopacity="0.78431373" inkscape:snap-nodes="true" inkscape:lockguides="false" fit-margin-top="0" fit-margin-left="0" fit-margin-right="0" fit-margin-bottom="0" guidehicolor="#ff0101" guidehiopacity="0.78431373" inkscape:snap-page="true" inkscape:object-nodes="true" inkscape:snap-bbox="true" inkscape:snap-global="true" inkscape:snap-object-midpoints="false" inkscape:snap-bbox-edge-midpoints="false">
    <inkscape:grid type="xygrid" id="grid4171" empspacing="4" dotted="false" originx="2.7755576e-17" originy="0" spacingx="1" spacingy="1" color="#5a5a5a" opacity="0.23529412" empcolor="#5a5a5a" empopacity="0.47058824" visible="true"/>
    <inkscape:grid type="axonomgrid" id="grid4699" units="mm" empspacing="4" color="#5a5a5a" opacity="0.23529412" empcolor="#5a5a5a" empopacity="0.47058824" gridanglex="45" gridanglez="45" spacingy="3.7795276" visible="false" originx="1.3228346" originy="1.3228346"/>
    <sodipodi:guide position="48,0" orientation="1,0" id="guide4568" inkscape:locked="false" inkscape:label="" inkscape:color="rgb(189,79,255)"/>
    <sodipodi:guide position="111.99996,-3.9999999e-05" orientation="0,1" id="guide4570" inkscape:locked="false" inkscape:label="" inkscape:color="rgb(189,79,255)"/>
    <sodipodi:guide position="0,0" orientation="1,0" id="guide4572" inkscape:locked="false" inkscape:label="" inkscape:color="rgb(189,79,255)"/>
    <sodipodi:guide position="0,48" orientation="0,1" id="guide4574" inkscape:locked="false" inkscape:label="" inkscape:color="rgb(189,79,255)"/>
    <sodipodi:guide position="0,80" orientation="0,1" id="guide4576" inkscape:locked="false" inkscape:label="" inkscape:color="rgb(189,79,255)"/>
    <sodipodi:guide position="-32,48" orientation="1,0" id="guide4578" inkscape:locked="false" inkscape:label="" inkscape:color="rgb(189,79,255)"/>
    <sodipodi:guide position="-32,104" orientation="0,1" id="guide4580" inkscape:locked="false" inkscape:label="" inkscape:color="rgb(189,79,255)"/>
    <sodipodi:guide position="-56,80" orientation="1,0" id="guide4582" inkscape:locked="false" inkscape:label="" inkscape:color="rgb(189,79,255)"/>
    <sodipodi:guide position="48,-64" orientation="0,1" id="guide4584" inkscape:locked="false" inkscape:label="" inkscape:color="rgb(189,79,255)"/>
    <sodipodi:guide position="0,0" orientation="-0.70710678,0.70710678" id="guide4588" inkscape:locked="false" inkscape:label="" inkscape:color="rgb(189,79,255)"/>
    <sodipodi:guide position="-56,80" orientation="-0.70710678,0.70710678" id="guide4573" inkscape:locked="false" inkscape:label="" inkscape:color="rgb(189,79,255)"/>
    <sodipodi:guide position="-32,48" orientation="-0.70710678,0.70710678" id="guide4575" inkscape:locked="false" inkscape:label="" inkscape:color="rgb(189,79,255)"/>
    <sodipodi:guide position="48,-64" orientation="-0.70710678,0.70710678" id="guide4577" inkscape:locked="false" inkscape:label="" inkscape:color="rgb(189,79,255)"/>
    <sodipodi:guide position="47.999962,0" orientation="0.70710678,0.70710678" id="guide4697" inkscape:locked="false" inkscape:label="" inkscape:color="rgb(189,79,255)"/>
    <sodipodi:guide position="207.99995,-288" orientation="0,1" id="guide7833" inkscape:locked="false"/>
    <sodipodi:guide position="335.99994,-288" orientation="1,0" id="guide7835" inkscape:locked="false" inkscape:label="" inkscape:color="rgb(189,79,255)"/>
    <sodipodi:guide position="111.99996,-64" orientation="1,0" id="guide7915" inkscape:locked="false"/>
    <sodipodi:guide position="111.99996,-160" orientation="0,1" id="guide7917" inkscape:locked="false"/>
    <sodipodi:guide position="207.99996,-160" orientation="1,0" id="guide7919" inkscape:locked="false"/>
    <sodipodi:guide position="111.99996,-160" orientation="-0.70710678,0.70710678" id="guide7921" inkscape:locked="false" inkscape:label="" inkscape:color="rgb(189,79,255)"/>
    <sodipodi:guide position="207.99996,-288" orientation="-0.70710678,0.70710678" id="guide7923" inkscape:locked="false" inkscape:label="" inkscape:color="rgb(189,79,255)"/>
    <sodipodi:guide position="-72,104" orientation="1,0" id="guide7824" inkscape:locked="false"/>
    <sodipodi:guide position="-56,120" orientation="0,1" id="guide7826" inkscape:locked="false"/>
    <sodipodi:guide position="-72,104" orientation="-0.70710678,0.70710678" id="guide7828" inkscape:locked="false" inkscape:label="" inkscape:color="rgb(189,79,255)"/>
  </sodipodi:namedview>
  <g style="display:inline" inkscape:label="icon_96" id="g8840" inkscape:groupmode="layer" transform="translate(-111.99996,-112)">
    <g style="display:none" inkscape:label="frame" id="g8776" inkscape:groupmode="layer">
      <rect style="color:#000000;clip-rule:nonzero;display:inline;overflow:visible;visibility:visible;opacity:1;isolation:auto;mix-blend-mode:normal;color-interpolation:sRGB;color-interpolation-filters:linearRGB;solid-color:#000000;solid-opacity:1;vector-effect:none;fill:#000000;fill-opacity:1;fill-rule:nonzero;stroke:#ff24f7;stroke-width:0;stroke-linecap:square;stroke-linejoin:miter;stroke-miterlimit:4;stroke-dasharray:none;stroke-dashoffset:0;stroke-opacity:0.99481865;marker:none;marker-start:none;marker-mid:none;marker-end:none;paint-order:normal;color-rendering:auto;image-rendering:auto;shape-rendering:auto;text-rendering:auto;enable-background:accumulate" id="rect_96" width="96" height="96" x="111.99996" y="112" inkscape:label="frame_96"/>
      <text inkscape:label="txt_96" id="text_96" y="168.73633" x="144.72458" style="font-size:24px;line-height:0%;font-family:sans-serif;letter-spacing:0px;word-spacing:0px;display:inline;opacity:1;fill:#ffffff;fill-opacity:1;stroke:none;stroke-width:0.04917826px;stroke-linecap:butt;stroke-linejoin:miter;stroke-opacity:1" xml:space="preserve">
        <tspan id="tspan8768" style="font-size:24px;line-height:0%;fill:#ffffff;fill-opacity:1;stroke:none;stroke-width:0.04917826px" y="168.73633" x="144.72458" sodipodi:role="line">96</tspan>
      </text>
    </g>
    <g style="display:inline" inkscape:label="icon" id="g8838" inkscape:groupmode="layer">
      <path inkscape:label="Hoja sombra 2" sodipodi:nodetypes="cccccc" inkscape:connector-curvature="0" id="path4587" d="m 125,117.99999 h 44 l 26,26 v 61 h -70 z" style="color:#000000;clip-rule:nonzero;display:inline;overflow:visible;visibility:visible;opacity:1;isolation:auto;mix-blend-mode:normal;color-interpolation:sRGB;color-interpolation-filters:linearRGB;solid-color:#000000;solid-opacity:1;vector-effect:none;fill:url(#linearGradient8265);fill-opacity:1;fill-rule:nonzero;stroke:none;stroke-width:0.87866098;stroke-linecap:butt;stroke-linejoin:miter;stroke-miterlimit:4;stroke-dasharray:none;stroke-dashoffset:0;stroke-opacity:1;marker:none;marker-start:none;marker-mid:none;marker-end:none;paint-order:fill markers stroke;color-rendering:auto;image-rendering:auto;shape-rendering:auto;text-rendering:auto;enable-background:accumulate"/>
      <path style="color:#000000;clip-rule:nonzero;display:inline;overflow:visible;visibility:visible;opacity:1;isolation:auto;mix-blend-mode:normal;color-interpolation:sRGB;color-interpolation-filters:linearRGB;solid-color:#000000;solid-opacity:1;vector-effect:none;fill:url(#linearGradient8259);fill-opacity:1;fill-rule:nonzero;stroke:none;stroke-width:0.85190946;stroke-linecap:butt;stroke-linejoin:miter;stroke-miterlimit:4;stroke-dasharray:none;stroke-dashoffset:0;stroke-opacity:1;marker:none;marker-start:none;marker-mid:none;marker-end:none;paint-order:fill markers stroke;color-rendering:auto;image-rendering:auto;shape-rendering:auto;text-rendering:auto;enable-background:accumulate" d="m 125.99999,119 h 43 l 25,25 v 60 h -68 c 0,0 0,-56.66667 0,-85 z" id="path8778" inkscape:connector-curvature="0" sodipodi:nodetypes="cccccc" inkscape:label="Hoja sombra 1"/>
      <path inkscape:label="Hoja" sodipodi:nodetypes="cccccc" inkscape:connector-curvature="0" id="path8780" d="m 126.99999,120 h 42 l 24,24 c 2.6e-4,19.66667 0,59 0,59 h -66 c -4e-5,-27.66667 -1e-5,-55.33333 0,-83 z" style="color:#000000;clip-rule:nonzero;display:inline;overflow:visible;visibility:visible;opacity:1;isolation:auto;mix-blend-mode:normal;color-interpolation:sRGB;color-interpolation-filters:linearRGB;solid-color:#000000;solid-opacity:1;vector-effect:none;fill:url(#linearGradient8848);fill-opacity:1;fill-rule:nonzero;stroke:none;stroke-width:0.82870787;stroke-linecap:butt;stroke-linejoin:miter;stroke-miterlimit:4;stroke-dasharray:none;stroke-dashoffset:0;stroke-opacity:1;marker:none;marker-start:none;marker-mid:none;marker-end:none;paint-order:fill markers stroke;color-rendering:auto;image-rendering:auto;shape-rendering:auto;text-rendering:auto;enable-background:accumulate"/>
      <path style="color:#000000;clip-rule:nonzero;display:inline;overflow:visible;visibility:visible;opacity:1;isolation:auto;mix-blend-mode:normal;color-interpolation:sRGB;color-interpolation-filters:linearRGB;solid-color:#000000;solid-opacity:1;vector-effect:none;fill:url(#linearGradient8301);fill-opacity:1;fill-rule:nonzero;stroke:none;stroke-width:0.82870787;stroke-linecap:butt;stroke-linejoin:miter;stroke-miterlimit:4;stroke-dasharray:none;stroke-dashoffset:0;stroke-opacity:1;marker:none;marker-start:none;marker-mid:none;marker-end:none;paint-order:fill markers stroke;color-rendering:auto;image-rendering:auto;shape-rendering:auto;text-rendering:auto;enable-background:accumulate" d="m 126.99999,120 h 42 l 24,24 c 2.6e-4,19.66667 -3.9e-4,39.33333 0,59 h -66 z" id="path8299" inkscape:connector-curvature="0" sodipodi:nodetypes="cccccc" inkscape:label="Hoja sombra inferior derecha"/>
      <path inkscape:label="Hoja sombra inferior izquierda" sodipodi:nodetypes="cccccc" inkscape:connector-curvature="0" id="path4619" d="m 126.99999,120 h 42 l 24,24 c 2.6e-4,19.66667 -3.9e-4,39.33333 0,59 h -66 z" style="color:#000000;clip-rule:nonzero;display:inline;overflow:visible;visibility:visible;opacity:1;isolation:auto;mix-blend-mode:normal;color-interpolation:sRGB;color-interpolation-filters:linearRGB;solid-color:#000000;solid-opacity:1;vector-effect:none;fill:url(#linearGradient4621);fill-opacity:1;fill-rule:nonzero;stroke:none;stroke-width:0.82870787;stroke-linecap:butt;stroke-linejoin:miter;stroke-miterlimit:4;stroke-dasharray:none;stroke-dashoffset:0;stroke-opacity:1;marker:none;marker-start:none;marker-mid:none;marker-end:none;paint-order:fill markers stroke;color-rendering:auto;image-rendering:auto;shape-rendering:auto;text-rendering:auto;enable-background:accumulate"/>
      <path style="color:#000000;clip-rule:nonzero;display:inline;overflow:visible;visibility:visible;opacity:1;isolation:auto;mix-blend-mode:normal;color-interpolation:sRGB;color-interpolation-filters:linearRGB;solid-color:#000000;solid-opacity:1;vector-effect:none;fill:url(#linearGradient8850-3);fill-opacity:1;fill-rule:nonzero;stroke:none;stroke-width:0.82870787;stroke-linecap:butt;stroke-linejoin:miter;stroke-miterlimit:4;stroke-dasharray:none;stroke-dashoffset:0;stroke-opacity:1;marker:none;marker-start:none;marker-mid:none;marker-end:none;paint-order:fill markers stroke;color-rendering:auto;image-rendering:auto;shape-rendering:auto;text-rendering:auto;enable-background:accumulate" d="m 126.99999,120 h 42 l 24,24 c 2.6e-4,19.66667 -3.9e-4,39.33333 0,59 h -66 z" id="path8782-6" inkscape:connector-curvature="0" sodipodi:nodetypes="cccccc" inkscape:label="Hoja sombra superior derecha"/>
      <path inkscape:label="Hoja sombra superior izquierda" sodipodi:nodetypes="cccccc" inkscape:connector-curvature="0" id="path7893" d="m 126.99999,120 h 42 l 24,24 c 2.6e-4,19.66667 -3.9e-4,39.33333 0,59 h -66 z" style="color:#000000;clip-rule:nonzero;display:inline;overflow:visible;visibility:visible;opacity:1;isolation:auto;mix-blend-mode:normal;color-interpolation:sRGB;color-interpolation-filters:linearRGB;solid-color:#000000;solid-opacity:1;vector-effect:none;fill:url(#linearGradient7895);fill-opacity:1;fill-rule:nonzero;stroke:none;stroke-width:0.82870787;stroke-linecap:butt;stroke-linejoin:miter;stroke-miterlimit:4;stroke-dasharray:none;stroke-dashoffset:0;stroke-opacity:1;marker:none;marker-start:none;marker-mid:none;marker-end:none;paint-order:fill markers stroke;color-rendering:auto;image-rendering:auto;shape-rendering:auto;text-rendering:auto;enable-background:accumulate"/>
      <path inkscape:label="Pestaña sombra" style="display:inline;fill:url(#linearGradient8277);fill-opacity:1;fill-rule:evenodd;stroke:none;stroke-width:2.19524717px;stroke-linecap:butt;stroke-linejoin:miter;stroke-opacity:1" d="m 168.99999,120 24,24 -27,2.94489 z" id="path8834" inkscape:connector-curvature="0" sodipodi:nodetypes="cccc"/>
      <path inkscape:label="Pestaña" sodipodi:nodetypes="cccc" inkscape:connector-curvature="0" id="path8836" d="m 168.99999,120 24,24 h -24 z" style="fill:url(#linearGradient8852);fill-opacity:1;fill-rule:evenodd;stroke:none;stroke-width:2.34681797px;stroke-linecap:butt;stroke-linejoin:miter;stroke-opacity:1"/>
      <path style="color:#000000;clip-rule:nonzero;display:inline;overflow:visible;visibility:visible;opacity:0.4;isolation:auto;mix-blend-mode:normal;color-interpolation:sRGB;color-interpolation-filters:linearRGB;solid-color:#000000;solid-opacity:1;vector-effect:none;fill:url(#linearGradient9428-62-2);fill-opacity:1;fill-rule:nonzero;stroke:none;stroke-width:0.84029925;stroke-linecap:butt;stroke-linejoin:miter;stroke-miterlimit:4;stroke-dasharray:none;stroke-dashoffset:0;stroke-opacity:0.34375;marker:none;marker-start:none;marker-mid:none;marker-end:none;paint-order:fill markers stroke;color-rendering:auto;image-rendering:auto;shape-rendering:auto;text-rendering:auto;enable-background:accumulate" d="m 127.99422,119.98071 v 3.00089 h -0.99983 v 1.00028 h 0.99983 v 3.00089 h -0.99983 v 1.0003 h 0.99983 v 3.00089 h -0.99983 v 1.00029 h 0.99983 v 3.00091 h -0.99983 v 1.00028 h 0.99983 v 3.00089 h -0.99983 v 1.0003 h 0.99983 v 3.00089 h -0.99983 v 1.00029 h 0.99983 v 3.00089 h -0.99983 v 1.00031 h 0.99983 v 3.00088 h -0.99983 v 1.00031 h 0.99983 v 3.00086 h -0.99983 v 1.00032 h 0.99983 v 3.00088 h -0.99983 v 1.00029 h 0.99983 v 3.0009 h -0.99983 v 1.00029 h 0.99983 v 3.00088 h -0.99983 v 1.00032 h 0.99983 v 3.00089 h -0.99983 v 1.00028 h 0.99983 v 3.00089 h -0.99983 v 1.0003 h 0.99983 v 3.00089 h -0.99983 v 1.00029 h 0.99983 v 3.00091 h -0.99983 v 1.00028 h 0.99983 v 3.00089 h -0.99983 v 1.0003 h 0.99983 v 3.00089 h -0.99983 v 1.00029 h 0.99983 v 3.00089 h -0.99983 v 1.00031 h 0.99983 v 3.00088 h -0.99983 v 1.00029 h 0.99983 v 3.00088 h 0.99982 v -3.00088 h 2.99946 v 3.00088 h 0.9998 v -3.00088 h 2.99946 v 3.00088 h 0.99983 v -3.00088 h 2.99946 v 3.00088 h 0.99981 v -3.00088 h 2.99946 v 3.00088 h 0.99982 v -3.00088 h 2.99946 v 3.00088 h 0.9998 v -3.00088 h 2.99949 v 3.00088 h 0.99981 v -3.00088 h 2.99945 v 3.00088 h 0.99983 v -3.00088 h 2.99945 v 3.00088 h 0.99981 v -3.00088 h 2.99946 v 3.00088 h 0.99983 v -3.00088 h 2.99945 v 3.00088 h 0.99984 v -3.00088 h 2.99944 v 3.00088 h 0.99981 v -3.00088 h 2.99946 v 3.00088 h 0.99983 v -3.00088 h 2.99946 v 2.90711 h 0.9998 v -2.90711 h 2.99946 v 3.00088 h 0.99982 v -3.00088 h 2.99947 v 3.00088 h 0.99983 v -3.00088 h 3.99926 v -1.00029 h -3.99926 v -3.00088 h 3.99926 v -1.00031 h -3.99926 v -3.00089 h 3.99926 v -1.00029 h -3.99926 v -3.00089 h 3.99926 v -1.0003 h -3.99926 v -3.00089 h 3.99926 v -1.00028 h -3.99926 v -3.00091 h 3.99926 v -1.00029 h -3.99926 v -3.00089 h 3.99926 v -1.0003 h -3.99926 v -3.00089 h 3.99926 v -1.00028 h -3.99926 v -3.00089 h 3.99926 v -1.00032 h -3.99926 v -3.00088 h 3.99926 v -1.00029 h -3.99926 v -3.0009 h 3.99926 v -1.00029 h -3.99926 v -3.00088 h 3.99926 v -1.00032 h -3.99926 v -3.00086 h 3.99926 v -1.00031 h -3.99926 v -3.00088 h 3.99926 v -1.00031 h -3.99926 v -3.00089 h -0.99983 v 3.00089 h -2.99947 v -3.00089 h -0.99982 v 3.00089 h -2.99946 v -3.09465 h -0.9998 v 3.09465 h -2.99946 v -3.00089 h -0.99983 v 3.00089 h -2.99946 v -3.00089 h -0.99981 v 3.00089 h -2.99944 v -27.00799 h -0.99984 v 3.00089 h -2.99945 v -3.00089 h -0.99983 v 3.00089 h -2.99946 v -3.00089 h -0.99981 v 3.00089 h -2.99945 v -3.00089 h -0.99983 v 3.00089 h -2.99945 v -3.00089 h -0.99981 v 3.00089 h -2.99949 v -3.00089 h -0.9998 v 3.00089 h -2.99946 v -3.00089 h -0.99982 v 3.00089 h -2.99946 v -3.00089 h -0.99981 v 3.00089 h -2.99946 v -3.00089 h -0.99983 v 3.00089 h -2.99946 v -3.00089 h -0.9998 v 3.00089 h -2.99946 v -3.00089 z m 0.99982,4.00117 h 2.99946 v 3.00089 h -2.99946 z m 3.99926,0 h 2.99946 v 3.00089 h -2.99946 z m 3.99929,0 h 2.99946 v 3.00089 h -2.99946 z m 3.99927,0 h 2.99946 v 3.00089 h -2.99946 z m 3.99928,0 h 2.99946 v 3.00089 h -2.99946 z m 3.99926,0 h 2.99949 v 3.00089 h -2.99949 z m 3.9993,0 h 2.99945 v 3.00089 h -2.99945 z m 3.99928,0 h 2.99945 v 3.00089 h -2.99945 z m 3.99926,0 h 2.99946 v 3.00089 h -2.99946 z m 3.99929,0 h 2.99945 v 3.00089 h -2.99945 z m -35.99349,4.00119 h 2.99946 v 3.00089 h -2.99946 z m 3.99926,0 h 2.99946 v 3.00089 h -2.99946 z m 3.99929,0 h 2.99946 v 3.00089 h -2.99946 z m 3.99927,0 h 2.99946 v 3.00089 h -2.99946 z m 3.99928,0 h 2.99946 v 3.00089 h -2.99946 z m 3.99926,0 h 2.99949 v 3.00089 h -2.99949 z m 3.9993,0 h 2.99945 v 3.00089 h -2.99945 z m 3.99928,0 h 2.99945 v 3.00089 h -2.99945 z m 3.99926,0 h 2.99946 v 3.00089 h -2.99946 z m 3.99929,0 h 2.99945 v 3.00089 h -2.99945 z m -35.99349,4.00118 h 2.99946 v 3.00091 h -2.99946 z m 3.99926,0 h 2.99946 v 3.00091 h -2.99946 z m 3.99929,0 h 2.99946 v 3.00091 h -2.99946 z m 3.99927,0 h 2.99946 v 3.00091 h -2.99946 z m 3.99928,0 h 2.99946 v 3.00091 h -2.99946 z m 3.99926,0 h 2.99949 v 3.00091 h -2.99949 z m 3.9993,0 h 2.99945 v 3.00091 h -2.99945 z m 3.99928,0 h 2.99945 v 3.00091 h -2.99945 z m 3.99926,0 h 2.99946 v 3.00091 h -2.99946 z m 3.99929,0 h 2.99945 v 3.00091 h -2.99945 z m -35.99349,4.00119 h 2.99946 v 3.00089 h -2.99946 z m 3.99926,0 h 2.99946 v 3.00089 h -2.99946 z m 3.99929,0 h 2.99946 v 3.00089 h -2.99946 z m 3.99927,0 h 2.99946 v 3.00089 h -2.99946 z m 3.99928,0 h 2.99946 v 3.00089 h -2.99946 z m 3.99926,0 h 2.99949 v 3.00089 h -2.99949 z m 3.9993,0 h 2.99945 v 3.00089 h -2.99945 z m 3.99928,0 h 2.99945 v 3.00089 h -2.99945 z m 3.99926,0 h 2.99946 v 3.00089 h -2.99946 z m 3.99929,0 h 2.99945 v 3.00089 h -2.99945 z m -35.99349,4.00119 h 2.99946 v 3.00089 h -2.99946 z m 3.99926,0 h 2.99946 v 3.00089 h -2.99946 z m 3.99929,0 h 2.99946 v 3.00089 h -2.99946 z m 3.99927,0 h 2.99946 v 3.00089 h -2.99946 z m 3.99928,0 h 2.99946 v 3.00089 h -2.99946 z m 3.99926,0 h 2.99949 v 3.00089 h -2.99949 z m 3.9993,0 h 2.99945 v 3.00089 h -2.99945 z m 3.99928,0 h 2.99945 v 3.00089 h -2.99945 z m 3.99926,0 h 2.99946 v 3.00089 h -2.99946 z m 3.99929,0 h 2.99945 v 3.00089 h -2.99945 z m -35.99349,4.00118 h 2.99946 v 3.00089 h -2.99946 z m 3.99926,0 h 2.99946 v 3.00089 h -2.99946 z m 3.99929,0 h 2.99946 v 3.00089 h -2.99946 z m 3.99927,0 h 2.99946 v 3.00089 h -2.99946 z m 3.99928,0 h 2.99946 v 3.00089 h -2.99946 z m 3.99926,0 h 2.99949 v 3.00089 h -2.99949 z m 3.9993,0 h 2.99945 v 3.00089 h -2.99945 z m 3.99928,0 h 2.99945 v 3.00089 h -2.99945 z m 3.99926,0 h 2.99946 v 3.00089 h -2.99946 z m 3.99929,0 h 2.99945 v 3.00089 h -2.99945 z m -35.99349,4.0012 h 2.99946 v 3.00088 h -2.99946 z m 3.99926,0 h 2.99946 v 3.00088 h -2.99946 z m 3.99929,0 h 2.99946 v 3.00088 h -2.99946 z m 3.99927,0 h 2.99946 v 3.00088 h -2.99946 z m 3.99928,0 h 2.99946 v 3.00088 h -2.99946 z m 3.99926,0 h 2.99949 v 3.00088 h -2.99949 z m 3.9993,0 h 2.99945 v 3.00088 h -2.99945 z m 3.99928,0 h 2.99945 v 3.00088 h -2.99945 z m 3.99926,0 h 2.99946 v 3.00088 h -2.99946 z m 3.99929,0 h 2.99945 v 3.00088 h -2.99945 z m 3.99929,0 h 2.99944 v 3.00088 h -2.99944 z m 3.99925,0 h 2.99946 v 3.00088 h -2.99946 z m 3.99929,0 h 2.99946 v 3.00088 h -2.99946 z m 3.99926,0 h 2.99946 v 3.00088 h -2.99946 z m 3.99928,0 h 2.99947 v 3.00088 h -2.99947 z m -55.98986,4.00119 h 2.99946 v 3.00086 h -2.99946 z m 3.99926,0 h 2.99946 v 3.00086 h -2.99946 z m 3.99929,0 h 2.99946 v 3.00086 h -2.99946 z m 3.99927,0 h 2.99946 v 3.00086 h -2.99946 z m 3.99928,0 h 2.99946 v 3.00086 h -2.99946 z m 3.99926,0 h 2.99949 v 3.00086 h -2.99949 z m 3.9993,0 h 2.99945 v 3.00086 h -2.99945 z m 3.99928,0 h 2.99945 v 3.00086 h -2.99945 z m 3.99926,0 h 2.99946 v 3.00086 h -2.99946 z m 3.99929,0 h 2.99945 v 3.00086 h -2.99945 z m 3.99929,0 h 2.99944 v 3.00086 h -2.99944 z m 3.99925,0 h 2.99946 v 3.00086 h -2.99946 z m 3.99929,0 h 2.99946 v 3.00086 h -2.99946 z m 3.99926,0 h 2.99946 v 3.00086 h -2.99946 z m 3.99928,0 h 2.99947 v 3.00086 h -2.99947 z m -55.98986,4.00118 h 2.99946 v 3.00088 h -2.99946 z m 3.99926,0 h 2.99946 v 3.00088 h -2.99946 z m 3.99929,0 h 2.99946 v 3.00088 h -2.99946 z m 3.99927,0 h 2.99946 v 3.00088 h -2.99946 z m 3.99928,0 h 2.99946 v 3.00088 h -2.99946 z m 3.99926,0 h 2.99949 v 3.00088 h -2.99949 z m 3.9993,0 h 2.99945 v 3.00088 h -2.99945 z m 3.99928,0 h 2.99945 v 3.00088 h -2.99945 z m 3.99926,0 h 2.99946 v 3.00088 h -2.99946 z m 3.99929,0 h 2.99945 v 3.00088 h -2.99945 z m 3.99929,0 h 2.99944 v 3.00088 h -2.99944 z m 3.99925,0 h 2.99946 v 3.00088 h -2.99946 z m 3.99929,0 h 2.99946 v 3.00088 h -2.99946 z m 3.99926,0 h 2.99946 v 3.00088 h -2.99946 z m 3.99928,0 h 2.99947 v 3.00088 h -2.99947 z m -55.98986,4.00117 h 2.99946 v 3.0009 h -2.99946 z m 3.99926,0 h 2.99946 v 3.0009 h -2.99946 z m 3.99929,0 h 2.99946 v 3.0009 h -2.99946 z m 3.99927,0 h 2.99946 v 3.0009 h -2.99946 z m 3.99928,0 h 2.99946 v 3.0009 h -2.99946 z m 3.99926,0 h 2.99949 v 3.0009 h -2.99949 z m 3.9993,0 h 2.99945 v 3.0009 h -2.99945 z m 3.99928,0 h 2.99945 v 3.0009 h -2.99945 z m 3.99926,0 h 2.99946 v 3.0009 h -2.99946 z m 3.99929,0 h 2.99945 v 3.0009 h -2.99945 z m 3.99929,0 h 2.99944 v 3.0009 h -2.99944 z m 3.99925,0 h 2.99946 v 3.0009 h -2.99946 z m 3.99929,0 h 2.99946 v 3.0009 h -2.99946 z m 3.99926,0 h 2.99946 v 3.0009 h -2.99946 z m 3.99928,0 h 2.99947 v 3.0009 h -2.99947 z m -55.98986,4.00119 h 2.99946 v 3.00088 h -2.99946 z m 3.99926,0 h 2.99946 v 3.00088 h -2.99946 z m 3.99929,0 h 2.99946 v 3.00088 h -2.99946 z m 3.99927,0 h 2.99946 v 3.00088 h -2.99946 z m 3.99928,0 h 2.99946 v 3.00088 h -2.99946 z m 3.99926,0 h 2.99949 v 3.00088 h -2.99949 z m 3.9993,0 h 2.99945 v 3.00088 h -2.99945 z m 3.99928,0 h 2.99945 v 3.00088 h -2.99945 z m 3.99926,0 h 2.99946 v 3.00088 h -2.99946 z m 3.99929,0 h 2.99945 v 3.00088 h -2.99945 z m 3.99929,0 h 2.99944 v 3.00088 h -2.99944 z m 3.99925,0 h 2.99946 v 3.00088 h -2.99946 z m 3.99929,0 h 2.99946 v 3.00088 h -2.99946 z m 3.99926,0 h 2.99946 v 3.00088 h -2.99946 z m 3.99928,0 h 2.99947 v 3.00088 h -2.99947 z m -55.98986,4.0012 h 2.99946 v 3.00089 h -2.99946 z m 3.99926,0 h 2.99946 v 3.00089 h -2.99946 z m 3.99929,0 h 2.99946 v 3.00089 h -2.99946 z m 3.99927,0 h 2.99946 v 3.00089 h -2.99946 z m 3.99928,0 h 2.99946 v 3.00089 h -2.99946 z m 3.99926,0 h 2.99949 v 3.00089 h -2.99949 z m 3.9993,0 h 2.99945 v 3.00089 h -2.99945 z m 3.99928,0 h 2.99945 v 3.00089 h -2.99945 z m 3.99926,0 h 2.99946 v 3.00089 h -2.99946 z m 3.99929,0 h 2.99945 v 3.00089 h -2.99945 z m 3.99929,0 h 2.99944 v 3.00089 h -2.99944 z m 3.99925,0 h 2.99946 v 3.00089 h -2.99946 z m 3.99929,0 h 2.99946 v 3.00089 h -2.99946 z m 3.99926,0 h 2.99946 v 3.00089 h -2.99946 z m 3.99928,0 h 2.99947 v 3.00089 h -2.99947 z m -55.98986,4.00117 h 2.99946 v 3.00089 h -2.99946 z m 3.99926,0 h 2.99946 v 3.00089 h -2.99946 z m 3.99929,0 h 2.99946 v 3.00089 h -2.99946 z m 3.99927,0 h 2.99946 v 3.00089 h -2.99946 z m 3.99928,0 h 2.99946 v 3.00089 h -2.99946 z m 3.99926,0 h 2.99949 v 3.00089 h -2.99949 z m 3.9993,0 h 2.99945 v 3.00089 h -2.99945 z m 3.99928,0 h 2.99945 v 3.00089 h -2.99945 z m 3.99926,0 h 2.99946 v 3.00089 h -2.99946 z m 3.99929,0 h 2.99945 v 3.00089 h -2.99945 z m 3.99929,0 h 2.99944 v 3.00089 h -2.99944 z m 3.99925,0 h 2.99946 v 3.00089 h -2.99946 z m 3.99929,0 h 2.99946 v 3.00089 h -2.99946 z m 3.99926,0 h 2.99946 v 3.00089 h -2.99946 z m 3.99928,0 h 2.99947 v 3.00089 h -2.99947 z m -55.98986,4.00119 h 2.99946 v 3.00089 h -2.99946 z m 3.99926,0 h 2.99946 v 3.00089 h -2.99946 z m 3.99929,0 h 2.99946 v 3.00089 h -2.99946 z m 3.99927,0 h 2.99946 v 3.00089 h -2.99946 z m 3.99928,0 h 2.99946 v 3.00089 h -2.99946 z m 3.99926,0 h 2.99949 v 3.00089 h -2.99949 z m 3.9993,0 h 2.99945 v 3.00089 h -2.99945 z m 3.99928,0 h 2.99945 v 3.00089 h -2.99945 z m 3.99926,0 h 2.99946 v 3.00089 h -2.99946 z m 3.99929,0 h 2.99945 v 3.00089 h -2.99945 z m 3.99929,0 h 2.99944 v 3.00089 h -2.99944 z m 3.99925,0 h 2.99946 v 3.00089 h -2.99946 z m 3.99929,0 h 2.99946 v 3.00089 h -2.99946 z m 3.99926,0 h 2.99946 v 3.00089 h -2.99946 z m 3.99928,0 h 2.99947 v 3.00089 h -2.99947 z m -55.98986,4.00118 h 2.99946 v 3.00091 h -2.99946 z m 3.99926,0 h 2.99946 v 3.00091 h -2.99946 z m 3.99929,0 h 2.99946 v 3.00091 h -2.99946 z m 3.99927,0 h 2.99946 v 3.00091 h -2.99946 z m 3.99928,0 h 2.99946 v 3.00091 h -2.99946 z m 3.99926,0 h 2.99949 v 3.00091 h -2.99949 z m 3.9993,0 h 2.99945 v 3.00091 h -2.99945 z m 3.99928,0 h 2.99945 v 3.00091 h -2.99945 z m 3.99926,0 h 2.99946 v 3.00091 h -2.99946 z m 3.99929,0 h 2.99945 v 3.00091 h -2.99945 z m 3.99929,0 h 2.99944 v 3.00091 h -2.99944 z m 3.99925,0 h 2.99946 v 3.00091 h -2.99946 z m 3.99929,0 h 2.99946 v 3.00091 h -2.99946 z m 3.99926,0 h 2.99946 v 3.00091 h -2.99946 z m 3.99928,0 h 2.99947 v 3.00091 h -2.99947 z m -55.98986,4.00119 h 2.99946 v 3.00089 h -2.99946 z m 3.99926,0 h 2.99946 v 3.00089 h -2.99946 z m 3.99929,0 h 2.99946 v 3.00089 h -2.99946 z m 3.99927,0 h 2.99946 v 3.00089 h -2.99946 z m 3.99928,0 h 2.99946 v 3.00089 h -2.99946 z m 3.99926,0 h 2.99949 v 3.00089 h -2.99949 z m 3.9993,0 h 2.99945 v 3.00089 h -2.99945 z m 3.99928,0 h 2.99945 v 3.00089 h -2.99945 z m 3.99926,0 h 2.99946 v 3.00089 h -2.99946 z m 3.99929,0 h 2.99945 v 3.00089 h -2.99945 z m 3.99929,0 h 2.99944 v 3.00089 h -2.99944 z m 3.99925,0 h 2.99946 v 3.00089 h -2.99946 z m 3.99929,0 h 2.99946 v 3.00089 h -2.99946 z m 3.99926,0 h 2.99946 v 3.00089 h -2.99946 z m 3.99928,0 h 2.99947 v 3.00089 h -2.99947 z m -55.98986,4.00119 h 2.99946 v 3.00089 h -2.99946 z m 3.99926,0 h 2.99946 v 3.00089 h -2.99946 z m 3.99929,0 h 2.99946 v 3.00089 h -2.99946 z m 3.99927,0 h 2.99946 v 3.00089 h -2.99946 z m 3.99928,0 h 2.99946 v 3.00089 h -2.99946 z m 3.99926,0 h 2.99949 v 3.00089 h -2.99949 z m 3.9993,0 h 2.99945 v 3.00089 h -2.99945 z m 3.99928,0 h 2.99945 v 3.00089 h -2.99945 z m 3.99926,0 h 2.99946 v 3.00089 h -2.99946 z m 3.99929,0 h 2.99945 v 3.00089 h -2.99945 z m 3.99929,0 h 2.99944 v 3.00089 h -2.99944 z m 3.99925,0 h 2.99946 v 3.00089 h -2.99946 z m 3.99929,0 h 2.99946 v 3.00089 h -2.99946 z m 3.99926,0 h 2.99946 v 3.00089 h -2.99946 z m 3.99928,0 h 2.99947 v 3.00089 h -2.99947 z m -55.98986,4.00118 h 2.99946 v 3.00089 h -2.99946 z m 3.99926,0 h 2.99946 v 3.00089 h -2.99946 z m 3.99929,0 h 2.99946 v 3.00089 h -2.99946 z m 3.99927,0 h 2.99946 v 3.00089 h -2.99946 z m 3.99928,0 h 2.99946 v 3.00089 h -2.99946 z m 3.99926,0 h 2.99949 v 3.00089 h -2.99949 z m 3.9993,0 h 2.99945 v 3.00089 h -2.99945 z m 3.99928,0 h 2.99945 v 3.00089 h -2.99945 z m 3.99926,0 h 2.99946 v 3.00089 h -2.99946 z m 3.99929,0 h 2.99945 v 3.00089 h -2.99945 z m 3.99929,0 h 2.99944 v 3.00089 h -2.99944 z m 3.99925,0 h 2.99946 v 3.00089 h -2.99946 z m 3.99929,0 h 2.99946 v 3.00089 h -2.99946 z m 3.99926,0 h 2.99946 v 3.00089 h -2.99946 z m 3.99928,0 h 2.99947 v 3.00089 h -2.99947 z m -55.98986,4.0012 h 2.99946 v 3.00088 h -2.99946 z m 3.99926,0 h 2.99946 v 3.00088 h -2.99946 z m 3.99929,0 h 2.99946 v 3.00088 h -2.99946 z m 3.99927,0 h 2.99946 v 3.00088 h -2.99946 z m 3.99928,0 h 2.99946 v 3.00088 h -2.99946 z m 3.99926,0 h 2.99949 v 3.00088 h -2.99949 z m 3.9993,0 h 2.99945 v 3.00088 h -2.99945 z m 3.99928,0 h 2.99945 v 3.00088 h -2.99945 z m 3.99926,0 h 2.99946 v 3.00088 h -2.99946 z m 3.99929,0 h 2.99945 v 3.00088 h -2.99945 z m 3.99929,0 h 2.99944 v 3.00088 h -2.99944 z m 3.99925,0 h 2.99946 v 3.00088 h -2.99946 z m 3.99929,0 h 2.99946 v 3.00088 h -2.99946 z m 3.99926,0 h 2.99946 v 3.00088 h -2.99946 z m 3.99928,0 h 2.99947 v 3.00088 h -2.99947 z" id="rect9275-1-1" inkscape:connector-curvature="0" inkscape:label="patron" sodipodi:insensitive="true"/>
      <path inkscape:connector-curvature="0" id="path7919-8-2" style="font-size:53.33333206px;line-height:1000%;font-family:sans-serif;letter-spacing:0px;word-spacing:0px;display:inline;fill:#9dc3ef;fill-opacity:0.63020833;stroke:#82a9e5;stroke-width:0.59359622;stroke-linecap:butt;stroke-linejoin:miter;stroke-miterlimit:4;stroke-dasharray:none;stroke-opacity:0.99481865" d="m 161.31594,167.05757 q -5.7453,0 -7.96098,1.31394 -2.21568,1.31395 -2.21568,4.48289 0,2.52485 1.64888,4.01913 1.67464,1.46854 4.53439,1.46854 3.94186,0 6.31214,-2.78248 2.39601,-2.80825 2.39601,-7.44571 v -1.05631 z m 9.45529,-1.95807 v 16.46305 h -4.74053 v -4.37985 q -1.62311,2.62791 -4.04489,3.89032 -2.42181,1.23666 -5.92567,1.23666 -4.43135,0 -7.05927,-2.47332 -2.60213,-2.49909 -2.60213,-6.67281 0,-4.86933 3.24624,-7.34265 3.27199,-2.47332 9.73869,-2.47332 h 6.64703 v -0.46374 q 0,-3.272 -2.16414,-5.04971 -2.13841,-1.80344 -6.02871,-1.80344 -2.47334,0 -4.81782,0.59257 -2.34451,0.59256 -4.50865,1.77769 v -4.37984 q 2.60213,-1.00478 5.04969,-1.49428 2.44755,-0.51529 4.76629,-0.51529 6.26057,0 9.35222,3.24621 3.09165,3.24625 3.09165,9.84175 z" inkscape:label="a"/>
      <path style="color:#000000;font-style:normal;font-variant:normal;font-weight:normal;font-stretch:normal;font-size:medium;line-height:normal;font-family:sans-serif;font-variant-ligatures:normal;font-variant-position:normal;font-variant-caps:normal;font-variant-numeric:normal;font-variant-alternates:normal;font-feature-settings:normal;text-indent:0;text-align:start;text-decoration:none;text-decoration-line:none;text-decoration-style:solid;text-decoration-color:#000000;letter-spacing:normal;word-spacing:normal;text-transform:none;writing-mode:lr-tb;direction:ltr;text-orientation:mixed;dominant-baseline:auto;baseline-shift:baseline;text-anchor:start;white-space:normal;shape-padding:0;clip-rule:nonzero;display:inline;overflow:visible;visibility:visible;opacity:1;isolation:auto;mix-blend-mode:normal;color-interpolation:sRGB;color-interpolation-filters:linearRGB;solid-color:#000000;solid-opacity:1;vector-effect:none;fill:#83a9e5;fill-opacity:1;fill-rule:evenodd;stroke:none;stroke-width:0.98932695px;stroke-linecap:butt;stroke-linejoin:miter;stroke-miterlimit:4;stroke-dasharray:none;stroke-dashoffset:0;stroke-opacity:1;color-rendering:auto;image-rendering:auto;shape-rendering:auto;text-rendering:auto;enable-background:accumulate" d="m 149.1847,144.13614 c -0.0868,0 -0.17974,0.008 -0.27826,0.0231 -0.0977,0.0159 -0.20079,0.0383 -0.31302,0.0696 v 0.26471 c 0.11132,-0.0371 0.21257,-0.0655 0.30529,-0.083 0.0927,-0.0178 0.17994,-0.0251 0.26085,-0.0251 0.14831,0 0.26102,0.0304 0.3401,0.0907 0.08,0.0595 0.11983,0.14474 0.11983,0.25699 0,0.10934 -0.037,0.1926 -0.1139,0.25118 -0.0771,0.0576 -0.18885,0.087 -0.3343,0.087 h -0.26665 v 0.24348 h 0.25506 c 0.16097,0 0.28507,0.037 0.37486,0.11013 0.0907,0.0722 0.13724,0.17263 0.13724,0.30144 -2e-5,0.13961 -0.0492,0.24562 -0.14693,0.31882 -0.0967,0.0732 -0.23773,0.11014 -0.42318,0.11014 -0.10638,0 -0.20769,-0.0119 -0.30529,-0.0368 -0.0977,-0.0246 -0.18845,-0.0603 -0.27053,-0.10816 v 0.28405 c 0.10342,0.0362 0.20482,0.0637 0.30146,0.081 0.0975,0.0178 0.1924,0.029 0.28403,0.029 0.2733,0 0.48351,-0.0597 0.63186,-0.17777 0.1483,-0.11805 0.22222,-0.28476 0.22222,-0.50046 0,-0.14059 -0.0397,-0.25989 -0.11984,-0.35554 -0.079,-0.0957 -0.18883,-0.1572 -0.33042,-0.18746 0.12794,-0.0322 0.22633,-0.0909 0.29564,-0.174 0.0694,-0.084 0.10441,-0.18628 0.10441,-0.30725 0,-0.17382 -0.0663,-0.312 -0.19715,-0.41351 -0.1307,-0.10244 -0.30882,-0.15266 -0.5333,-0.15266 z m 2.07912,0.0387 -0.9101,1.38542 v 0.28597 h 0.98739 v 0.51595 h 0.29371 v -0.51595 h 0.31111 v -0.24539 h -0.31111 v -1.42602 z m 0.0773,0.25891 v 1.16709 h -0.74779 z m -6.53879,2.25879 v 3.95732 h 0.98932 v -3.95732 z m 11.87191,0 v 3.95732 h 0.98933 v -3.95732 z m -9.89326,1.97865 v 0.98933 h 8.84211 v -0.98933 z m 26.71181,5.93596 v 0.98934 h 4.94665 v -0.98932 z m 1.97865,1.86467 v 24.84717 h 0.98934 v -24.84717 z m 7.10113,10.98886 c -0.24498,0 -0.43248,0.0975 -0.56227,0.29179 -0.12873,0.19319 -0.19319,0.47353 -0.19319,0.84247 0,0.36798 0.0645,0.65017 0.19319,0.84441 0.12991,0.19319 0.31729,0.28984 0.56227,0.28984 0.24498,0 0.43153,-0.0965 0.56035,-0.28984 0.12992,-0.19419 0.19518,-0.47643 0.19518,-0.84441 0,-0.36894 -0.0655,-0.64922 -0.19518,-0.84247 -0.12892,-0.19419 -0.31537,-0.29179 -0.56035,-0.29179 z m 1.80861,0 c -0.0858,0 -0.18053,0.0119 -0.28403,0.0368 -0.10342,0.0246 -0.21521,0.0603 -0.33428,0.10817 v 0.29951 c 0.11706,-0.0655 0.22793,-0.11469 0.33041,-0.14692 0.10341,-0.0322 0.20098,-0.0482 0.29371,-0.0482 0.13072,0 0.23587,0.0369 0.31688,0.11014 0.082,0.0731 0.12359,0.16788 0.12359,0.28406 0,0.0712 -0.02,0.14415 -0.058,0.21834 -0.0371,0.0731 -0.10244,0.16214 -0.19715,0.26859 -0.0498,0.0566 -0.17105,0.18252 -0.36519,0.37871 -0.19319,0.19518 -0.34765,0.35147 -0.4599,0.46762 v 0.24927 h 1.38932 v -0.24927 h -1.03185 c 0.23816,-0.24302 0.42186,-0.43145 0.55264,-0.56615 0.13091,-0.13564 0.20747,-0.21904 0.23187,-0.24733 0.0888,-0.10936 0.15049,-0.20401 0.18351,-0.28403 0.0342,-0.081 0.0522,-0.16532 0.0522,-0.25508 0,-0.18943 -0.0683,-0.34085 -0.20291,-0.45409 -0.13466,-0.1133 -0.31459,-0.17005 -0.54102,-0.17005 z m -3.81818,0.0405 -0.52364,0.10441 v 0.27055 l 0.52557,-0.1062 v 1.66755 h -0.48306 v 0.24927 h 1.25985 v -0.24927 h -0.48308 v -1.93613 z m 2.00957,0.19319 c 0.15325,0 0.26782,0.0757 0.34395,0.22608 0.0771,0.1493 0.11588,0.37375 0.11588,0.67437 0,0.29963 -0.0389,0.52599 -0.11588,0.67629 -0.0761,0.1493 -0.19082,0.22416 -0.34395,0.22416 -0.15226,0 -0.26683,-0.0747 -0.34393,-0.22416 -0.0761,-0.15028 -0.11409,-0.37666 -0.11409,-0.67629 0,-0.30062 0.0377,-0.52504 0.11409,-0.67437 0.0771,-0.15029 0.19162,-0.22608 0.34393,-0.22608 z m -9.07978,14.61386 v 0.9893 h 4.94663 v -0.9893 z m -30.09912,2.52162 v 3.95729 h 0.98933 v -3.95729 z m 28.60353,0 v 3.95729 h 0.98934 v -3.95731 z m -26.20555,1.43567 v 0.98932 h 24.84716 v -0.98932 z m 12.84385,2.90227 c -0.0858,0 -0.18053,0.0119 -0.28405,0.0368 -0.10342,0.0246 -0.2152,0.0603 -0.33428,0.10816 v 0.29949 c 0.11706,-0.0655 0.22794,-0.11469 0.33043,-0.14692 0.10341,-0.0322 0.20098,-0.0482 0.2937,-0.0482 0.13071,0 0.23782,0.0369 0.31884,0.11014 0.082,0.0731 0.1218,0.16788 0.1218,0.28404 0,0.0712 -0.0178,0.14415 -0.056,0.21834 -0.0369,0.0732 -0.10441,0.16215 -0.19902,0.26859 -0.0498,0.0566 -0.17105,0.1845 -0.36521,0.38067 -0.19319,0.19517 -0.34571,0.34951 -0.45795,0.46568 v 0.24925 h 1.38739 v -0.24931 h -1.03183 c 0.23816,-0.24304 0.42184,-0.43147 0.55264,-0.56615 0.13071,-0.13564 0.20939,-0.21712 0.23381,-0.24541 0.0888,-0.10935 0.15029,-0.20401 0.18351,-0.28404 0.0342,-0.081 0.0502,-0.16729 0.0502,-0.257 -2e-5,-0.18943 -0.0663,-0.34086 -0.20097,-0.45407 -0.13465,-0.11331 -0.31653,-0.17006 -0.54297,-0.17006 z m -1.9091,0.0405 -0.5217,0.10441 v 0.27053 l 0.52557,-0.10639 v 1.66756 h -0.48308 v 0.24925 h 1.25793 v -0.24925 h -0.48308 v -1.93613 z m 3.2907,0 v 1.09753 c 0.082,-0.037 0.16155,-0.0637 0.23958,-0.081 0.079,-0.0178 0.15859,-0.027 0.23768,-0.027 0.16888,0 0.3014,0.0445 0.39997,0.13327 0.0985,0.0888 0.1487,0.20906 0.1487,0.36134 0,0.15226 -0.0502,0.27251 -0.1487,0.36133 -0.0985,0.0888 -0.23111,0.13328 -0.39997,0.13328 -0.10441,0 -0.20387,-0.0119 -0.29758,-0.0348 -0.0937,-0.0236 -0.18468,-0.0586 -0.27245,-0.10619 v 0.29756 c 0.10145,0.0312 0.19903,0.054 0.29371,0.0696 0.0957,0.0159 0.19042,0.0231 0.28212,0.0231 0.26645,0 0.47192,-0.0655 0.61833,-0.19516 0.14633,-0.13071 0.22026,-0.31354 0.22026,-0.54877 0,-0.2284 -0.072,-0.40924 -0.21447,-0.54298 -0.14257,-0.13367 -0.33566,-0.20094 -0.57969,-0.20094 -0.0429,0 -0.0846,0.004 -0.12754,0.0119 -0.0429,0.006 -0.0866,0.0178 -0.12952,0.0328 v -0.53525 h 0.89077 v -0.24926 z" id="path7818-7-7" inkscape:connector-curvature="0" inkscape:label="acotes"/>
      <rect inkscape:label="Hoja brillo superior" y="120" x="126.99999" height="1" width="42" id="rect7891" style="color:#000000;clip-rule:nonzero;display:block;overflow:visible;visibility:visible;opacity:1;isolation:auto;mix-blend-mode:normal;color-interpolation:sRGB;color-interpolation-filters:linearRGB;solid-color:#000000;solid-opacity:1;vector-effect:none;fill:url(#linearGradient8271);fill-opacity:1;fill-rule:nonzero;stroke:none;stroke-width:0.2;stroke-linecap:butt;stroke-linejoin:miter;stroke-miterlimit:4;stroke-dasharray:none;stroke-dashoffset:0;stroke-opacity:1;marker:none;marker-start:none;marker-mid:none;marker-end:none;paint-order:fill markers stroke;color-rendering:auto;image-rendering:auto;shape-rendering:auto;text-rendering:auto;enable-background:accumulate"/>
    </g>
  </g>
</svg>