<?xml version="1.0" encoding="UTF-8" standalone="yes"?>
<svg xmlns:osb="http://www.openswatchbook.org/uri/2009/osb" xmlns:dc="http://purl.org/dc/elements/1.1/" xmlns:cc="http://creativecommons.org/ns#" xmlns:rdf="http://www.w3.org/1999/02/22-rdf-syntax-ns#" xmlns:svg="http://www.w3.org/2000/svg" xmlns="http://www.w3.org/2000/svg" xmlns:xlink="http://www.w3.org/1999/xlink" xmlns:sodipodi="http://sodipodi.sourceforge.net/DTD/sodipodi-0.dtd" xmlns:inkscape="http://www.inkscape.org/namespaces/inkscape" height="96" viewBox="0 0 96 96" width="96" id="svg2" version="1.1" inkscape:version="0.92.1 r" sodipodi:docname="text-x-generic-template.svg" enable-background="new" folder="96">
  <title id="title4675">Template icons dark</title>
  <metadata id="metadata24">
    <rdf:RDF>
      <cc:Work rdf:about="">
        <dc:format>image/svg+xml</dc:format>
        <dc:type rdf:resource="http://purl.org/dc/dcmitype/StillImage"/>
        <dc:title>Template icons dark</dc:title>
        <dc:date>17/05/13</dc:date>
        <dc:creator>
          <cc:Agent>
            <dc:title>wfpaisa</dc:title>
          </cc:Agent>
        </dc:creator>
        <dc:rights>
          <cc:Agent>
            <dc:title>License: GPLv3</dc:title>
          </cc:Agent>
        </dc:rights>
        <dc:language>es-en</dc:language>
        <dc:subject>
          <rdf:Bag>
            <rdf:li>plane-icon-theme</rdf:li>
          </rdf:Bag>
        </dc:subject>
        <dc:description>Template for create set icons</dc:description>
        <cc:license rdf:resource="https://www.gnu.org/licenses/gpl-3.0.en.html"/>
      </cc:Work>
    </rdf:RDF>
  </metadata>
  <defs id="defs22">
    <linearGradient id="Pestana-sombra-3" osb:paint="solid">
      <stop style="stop-color:#000000;stop-opacity:0.19553073;" offset="0" id="stop8273"/>
    </linearGradient>
    <linearGradient id="Hoja-brillo-8" osb:paint="solid">
      <stop style="stop-color:#ffffff;stop-opacity:0.33333334;" offset="0" id="stop8267"/>
    </linearGradient>
    <linearGradient id="Hoja-sombra-2_-2" osb:paint="solid">
      <stop style="stop-color:#000000;stop-opacity:0.07821229;" offset="0" id="stop8261"/>
    </linearGradient>
    <linearGradient id="Hoja-sombra-1_-9" osb:paint="solid">
      <stop style="stop-color:#000000;stop-opacity:0.15686275;" offset="0" id="stop8255"/>
    </linearGradient>
    <linearGradient id="Pestana-6">
      <stop id="stop7875" offset="0" style="stop-color:#5ebfff;stop-opacity:1;"/>
      <stop id="stop7879" offset="1" style="stop-color:#40b3ff;stop-opacity:1;"/>
    </linearGradient>
    <linearGradient id="Hoja_-5">
      <stop id="stop7831" offset="0" style="stop-color:#36afff;stop-opacity:1;"/>
      <stop id="stop7833" offset="1" style="stop-color:#0090ee;stop-opacity:1;"/>
    </linearGradient>
    <linearGradient inkscape:collect="always" xlink:href="#Hoja_-5" id="linearGradient8848" gradientUnits="userSpaceOnUse" gradientTransform="matrix(2.1943448,0,0,2.19615,107.37835,109.17328)" x1="24.116938" y1="4.9307919" x2="24.058121" y2="42.556389"/>
    <linearGradient inkscape:collect="always" xlink:href="#Pestana-6" id="linearGradient8852" gradientUnits="userSpaceOnUse" gradientTransform="matrix(2.5078225,0,0,2.19615,97.006583,108.93197)" x1="33.093815" y1="10.50385" x2="29.903797" y2="14.146588"/>
    <linearGradient inkscape:collect="always" xlink:href="#Hoja_-5" id="linearGradient7823-7" gradientUnits="userSpaceOnUse" x1="24.116938" y1="4.9307919" x2="24.058121" y2="42.556389" gradientTransform="matrix(1.1194338,0,0,1.1203548,-2.9435792,-2.6942142)"/>
    <linearGradient inkscape:collect="always" xlink:href="#Hoja-sombra-2" id="linearGradient7865-3" gradientUnits="userSpaceOnUse" gradientTransform="matrix(1.1194338,0,0,1.1203548,-2.9435792,-2.6942142)" x1="26.072924" y1="18.962273" x2="34.373611" y2="10.815324"/>
    <linearGradient inkscape:collect="always" xlink:href="#Pestana-6" id="linearGradient7825-6" gradientUnits="userSpaceOnUse" x1="34.176132" y1="10.27618" x2="30.758255" y2="13.691247" gradientTransform="matrix(1.2793529,0,0,1.1203548,-8.2346867,-2.8173169)"/>
    <linearGradient id="Hoja-16_-2">
      <stop style="stop-color:#ffffff;stop-opacity:0.25;" offset="0" id="stop7714"/>
      <stop style="stop-color:#ffffff;stop-opacity:0.28289473;" offset="1" id="stop7716"/>
    </linearGradient>
    <linearGradient inkscape:collect="always" xlink:href="#Hoja_-5" id="linearGradient7909" gradientUnits="userSpaceOnUse" gradientTransform="matrix(1.4628966,0,0,1.4641001,44.91893,46.115528)" x1="24.116938" y1="4.9307919" x2="24.058121" y2="42.556389"/>
    <linearGradient inkscape:collect="always" xlink:href="#Hoja-sombra-2" id="linearGradient7911" gradientUnits="userSpaceOnUse" gradientTransform="matrix(1.4628966,0,0,1.4641001,44.91893,46.115528)" x1="26.072924" y1="18.962273" x2="34.373611" y2="10.815324"/>
    <linearGradient inkscape:collect="always" xlink:href="#Pestana-6" id="linearGradient7913" gradientUnits="userSpaceOnUse" gradientTransform="matrix(1.6718818,0,0,1.4641001,38.00441,45.954658)" x1="34.176132" y1="10.27618" x2="30.758255" y2="13.691247"/>
    <linearGradient inkscape:collect="always" xlink:href="#Hoja-sombra-2" id="linearGradient8850-3" gradientUnits="userSpaceOnUse" gradientTransform="matrix(2.1943448,0,0,2.19615,107.37835,109.17328)" x1="23.980556" y1="23.143555" x2="45.854969" y2="1.2871252"/>
    <linearGradient inkscape:collect="always" xlink:href="#Hoja-sombra-2" id="linearGradient4621" gradientUnits="userSpaceOnUse" gradientTransform="matrix(2.1943448,0,0,2.19615,107.37835,109.17328)" x1="23.980556" y1="23.143555" x2="2.1061459" y2="44.999985"/>
    <linearGradient inkscape:collect="always" xlink:href="#Hoja-sombra-2" id="linearGradient8301" gradientUnits="userSpaceOnUse" gradientTransform="matrix(2.1943448,0,0,2.19615,107.37835,109.17328)" x1="23.980556" y1="23.143555" x2="45.854969" y2="44.999985"/>
    <linearGradient id="Hoja-sombra-2">
      <stop id="stop8303" offset="0" style="stop-color:#000000;stop-opacity:0"/>
      <stop id="stop8305" offset="1" style="stop-color:#000000;stop-opacity:0.10196079"/>
    </linearGradient>
    <linearGradient inkscape:collect="always" xlink:href="#Hoja-sombra-2" id="linearGradient7895" gradientUnits="userSpaceOnUse" gradientTransform="matrix(2.1943448,0,0,2.19615,107.37835,109.17328)" x1="23.980556" y1="23.143555" x2="2.1061459" y2="1.2871252"/>
    <linearGradient inkscape:collect="always" xlink:href="#Hoja_-5" id="linearGradient7818" gradientUnits="userSpaceOnUse" gradientTransform="matrix(0.74628918,0,0,0.74690318,-33.962385,-33.796142)" x1="24.116938" y1="4.9307919" x2="24.058121" y2="42.556389"/>
    <linearGradient inkscape:collect="always" xlink:href="#Pestana-6" id="linearGradient7822" gradientUnits="userSpaceOnUse" gradientTransform="matrix(0.85290191,0,0,0.74690318,-37.489791,-33.878211)" x1="28.713491" y1="15.702977" x2="25.196087" y2="18.581003"/>
    <linearGradient inkscape:collect="always" xlink:href="#Hoja-sombra-1_-9" id="linearGradient8259" x1="125.99999" y1="161.5" x2="193.99999" y2="161.5" gradientUnits="userSpaceOnUse"/>
    <linearGradient inkscape:collect="always" xlink:href="#Hoja-sombra-2_-2" id="linearGradient8265" x1="125" y1="161.49999" x2="195" y2="161.49999" gradientUnits="userSpaceOnUse"/>
    <linearGradient inkscape:collect="always" xlink:href="#Hoja-brillo-8" id="linearGradient8271" x1="126.99999" y1="120.5" x2="168.99999" y2="120.5" gradientUnits="userSpaceOnUse"/>
    <linearGradient inkscape:collect="always" xlink:href="#Pestana-sombra-3" id="linearGradient8277" x1="165.99999" y1="133.47244" x2="192.99999" y2="133.47244" gradientUnits="userSpaceOnUse"/>
    <linearGradient gradientTransform="matrix(1.33333,0,0,1.33333,58.6672,56.167208)" inkscape:collect="always" xlink:href="#Hoja-sombra-2_-2" id="linearGradient8265-7" x1="125" y1="161.49998" x2="195" y2="161.49998" gradientUnits="userSpaceOnUse"/>
    <linearGradient gradientTransform="matrix(1.33333,0,0,1.33333,58.6672,56.167208)" inkscape:collect="always" xlink:href="#Hoja-sombra-1_-9" id="linearGradient8259-9" x1="125.99999" y1="161.5" x2="193.99998" y2="161.5" gradientUnits="userSpaceOnUse"/>
    <linearGradient inkscape:collect="always" xlink:href="#Hoja_-5" id="linearGradient8848-4" gradientUnits="userSpaceOnUse" gradientTransform="matrix(2.9257858,0,0,2.9281927,201.83798,201.73122)" x1="24.116938" y1="4.9307919" x2="24.058121" y2="42.556389"/>
    <linearGradient inkscape:collect="always" xlink:href="#Hoja-sombra-2" id="linearGradient8301-3" gradientUnits="userSpaceOnUse" gradientTransform="matrix(2.9257858,0,0,2.9281927,201.83798,201.73122)" x1="23.980556" y1="23.143555" x2="45.854969" y2="44.999985"/>
    <linearGradient inkscape:collect="always" xlink:href="#Hoja-sombra-2" id="linearGradient4621-0" gradientUnits="userSpaceOnUse" gradientTransform="matrix(2.9257858,0,0,2.9281927,201.83798,201.73122)" x1="23.980556" y1="23.143555" x2="2.1061459" y2="44.999985"/>
    <linearGradient inkscape:collect="always" xlink:href="#Hoja-sombra-2" id="linearGradient8850-3-8" gradientUnits="userSpaceOnUse" gradientTransform="matrix(2.9257858,0,0,2.9281927,201.83798,201.73122)" x1="23.980556" y1="23.143555" x2="45.854969" y2="1.2871252"/>
    <linearGradient inkscape:collect="always" xlink:href="#Hoja-sombra-2" id="linearGradient7895-1" gradientUnits="userSpaceOnUse" gradientTransform="matrix(2.9257858,0,0,2.9281927,201.83798,201.73122)" x1="23.980556" y1="23.143555" x2="2.1061459" y2="1.2871252"/>
    <linearGradient gradientTransform="matrix(1.33333,0,0,1.33333,58.6672,56.167208)" inkscape:collect="always" xlink:href="#Hoja-brillo-8" id="linearGradient8271-9" x1="126.99999" y1="120.5" x2="168.99998" y2="120.5" gradientUnits="userSpaceOnUse"/>
    <linearGradient gradientTransform="matrix(1.33333,0,0,1.33333,58.6672,56.167208)" inkscape:collect="always" xlink:href="#Pestana-sombra-3" id="linearGradient8277-7" x1="165.99998" y1="133.47244" x2="192.99998" y2="133.47244" gradientUnits="userSpaceOnUse"/>
    <linearGradient inkscape:collect="always" xlink:href="#Pestana-6" id="linearGradient8852-2" gradientUnits="userSpaceOnUse" gradientTransform="matrix(3.343755,0,0,2.9281927,188.00898,201.40947)" x1="33.093815" y1="10.50385" x2="29.903797" y2="14.146588"/>
    <linearGradient inkscape:collect="always" xlink:href="#Hoja_-5" id="linearGradient8613" x1="-43.047825" y1="-34" x2="-43.047825" y2="-28" gradientUnits="userSpaceOnUse"/>
    <linearGradient gradientTransform="translate(0.0025287,0.00911844)" inkscape:collect="always" xlink:href="#patron-6" id="linearGradient9428" gradientUnits="userSpaceOnUse" x1="188" y1="173.49998" x2="189" y2="173.49998"/>
    <linearGradient id="patron-6" osb:paint="solid">
      <stop style="stop-color:#ffffff;stop-opacity:0.27843139;" offset="0" id="stop9305"/>
    </linearGradient>
    <linearGradient gradientTransform="matrix(1.3331528,0,0,1.3374408,58.689935,55.49812)" inkscape:collect="always" xlink:href="#patron-6" id="linearGradient9428-3" gradientUnits="userSpaceOnUse" x1="188" y1="173.49998" x2="189" y2="173.49998"/>
    <linearGradient gradientTransform="matrix(0.66625707,0,0,0.67462792,-26.614534,-27.958409)" inkscape:collect="always" xlink:href="#patron-6" id="linearGradient9428-2" gradientUnits="userSpaceOnUse" x1="188" y1="173.49998" x2="189" y2="173.49998"/>
    <linearGradient gradientTransform="matrix(0.49999999,0,0,0.50607896,-56.499996,-57.739183)" inkscape:collect="always" xlink:href="#patron-6" id="linearGradient9428-36" gradientUnits="userSpaceOnUse" x1="188" y1="173.49998" x2="189" y2="173.49998"/>
    <linearGradient gradientTransform="matrix(1.5,0,0,1.5,52.049369,52.049369)" inkscape:collect="always" xlink:href="#Hoja_-5" id="linearGradient8613-1" x1="-43.047825" y1="-34" x2="-43.047825" y2="-28" gradientUnits="userSpaceOnUse"/>
    <linearGradient inkscape:collect="always" xlink:href="#Hoja_-5" id="linearGradient8081" gradientUnits="userSpaceOnUse" gradientTransform="matrix(1.5,0,0,1.5,52.049369,52.049369)" x1="-43.047825" y1="-34" x2="-43.047825" y2="-28"/>
  </defs>
  <sodipodi:namedview pagecolor="#383c4a" bordercolor="#ffffff" borderopacity="0.62745098" objecttolerance="4" gridtolerance="10" guidetolerance="4" inkscape:pageopacity="0" inkscape:pageshadow="2" inkscape:window-width="640" inkscape:window-height="480" id="namedview20" showgrid="true" inkscape:zoom="23.10501" inkscape:cx="-39.209813" inkscape:cy="88.642553" inkscape:current-layer="layer8" inkscape:snap-smooth-nodes="false" showguides="true" borderlayer="true" inkscape:showpageshadow="false" inkscape:guide-bbox="true" guidecolor="#bd4fff" guideopacity="0.78431373" inkscape:snap-nodes="true" inkscape:lockguides="false" fit-margin-top="0" fit-margin-left="0" fit-margin-right="0" fit-margin-bottom="0" guidehicolor="#ff0101" guidehiopacity="0.78431373" inkscape:snap-page="true" inkscape:object-nodes="true" inkscape:snap-bbox="true" inkscape:snap-global="true" inkscape:snap-object-midpoints="false" inkscape:snap-bbox-edge-midpoints="false">
    <inkscape:grid type="xygrid" id="grid4171" empspacing="4" dotted="false" originx="2.7755576e-17" originy="0" spacingx="1" spacingy="1" color="#5a5a5a" opacity="0.23529412" empcolor="#5a5a5a" empopacity="0.47058824" visible="true"/>
    <inkscape:grid type="axonomgrid" id="grid4699" units="mm" empspacing="4" color="#5a5a5a" opacity="0.23529412" empcolor="#5a5a5a" empopacity="0.47058824" gridanglex="45" gridanglez="45" spacingy="3.7795276" visible="false" originx="1.3228346" originy="1.3228346"/>
    <sodipodi:guide position="48,0" orientation="1,0" id="guide4568" inkscape:locked="false" inkscape:label="" inkscape:color="rgb(189,79,255)"/>
    <sodipodi:guide position="111.99996,-3.9999999e-05" orientation="0,1" id="guide4570" inkscape:locked="false" inkscape:label="" inkscape:color="rgb(189,79,255)"/>
    <sodipodi:guide position="0,0" orientation="1,0" id="guide4572" inkscape:locked="false" inkscape:label="" inkscape:color="rgb(189,79,255)"/>
    <sodipodi:guide position="0,48" orientation="0,1" id="guide4574" inkscape:locked="false" inkscape:label="" inkscape:color="rgb(189,79,255)"/>
    <sodipodi:guide position="0,80" orientation="0,1" id="guide4576" inkscape:locked="false" inkscape:label="" inkscape:color="rgb(189,79,255)"/>
    <sodipodi:guide position="-32,48" orientation="1,0" id="guide4578" inkscape:locked="false" inkscape:label="" inkscape:color="rgb(189,79,255)"/>
    <sodipodi:guide position="-32,104" orientation="0,1" id="guide4580" inkscape:locked="false" inkscape:label="" inkscape:color="rgb(189,79,255)"/>
    <sodipodi:guide position="-56,80" orientation="1,0" id="guide4582" inkscape:locked="false" inkscape:label="" inkscape:color="rgb(189,79,255)"/>
    <sodipodi:guide position="48,-64" orientation="0,1" id="guide4584" inkscape:locked="false" inkscape:label="" inkscape:color="rgb(189,79,255)"/>
    <sodipodi:guide position="0,0" orientation="-0.70710678,0.70710678" id="guide4588" inkscape:locked="false" inkscape:label="" inkscape:color="rgb(189,79,255)"/>
    <sodipodi:guide position="-56,80" orientation="-0.70710678,0.70710678" id="guide4573" inkscape:locked="false" inkscape:label="" inkscape:color="rgb(189,79,255)"/>
    <sodipodi:guide position="-32,48" orientation="-0.70710678,0.70710678" id="guide4575" inkscape:locked="false" inkscape:label="" inkscape:color="rgb(189,79,255)"/>
    <sodipodi:guide position="48,-64" orientation="-0.70710678,0.70710678" id="guide4577" inkscape:locked="false" inkscape:label="" inkscape:color="rgb(189,79,255)"/>
    <sodipodi:guide position="47.999962,0" orientation="0.70710678,0.70710678" id="guide4697" inkscape:locked="false" inkscape:label="" inkscape:color="rgb(189,79,255)"/>
    <sodipodi:guide position="207.99995,-288" orientation="0,1" id="guide7833" inkscape:locked="false"/>
    <sodipodi:guide position="335.99994,-288" orientation="1,0" id="guide7835" inkscape:locked="false" inkscape:label="" inkscape:color="rgb(189,79,255)"/>
    <sodipodi:guide position="111.99996,-64" orientation="1,0" id="guide7915" inkscape:locked="false"/>
    <sodipodi:guide position="111.99996,-160" orientation="0,1" id="guide7917" inkscape:locked="false"/>
    <sodipodi:guide position="207.99996,-160" orientation="1,0" id="guide7919" inkscape:locked="false"/>
    <sodipodi:guide position="111.99996,-160" orientation="-0.70710678,0.70710678" id="guide7921" inkscape:locked="false" inkscape:label="" inkscape:color="rgb(189,79,255)"/>
    <sodipodi:guide position="207.99996,-288" orientation="-0.70710678,0.70710678" id="guide7923" inkscape:locked="false" inkscape:label="" inkscape:color="rgb(189,79,255)"/>
    <sodipodi:guide position="-72,104" orientation="1,0" id="guide7824" inkscape:locked="false"/>
    <sodipodi:guide position="-56,120" orientation="0,1" id="guide7826" inkscape:locked="false"/>
    <sodipodi:guide position="-72,104" orientation="-0.70710678,0.70710678" id="guide7828" inkscape:locked="false" inkscape:label="" inkscape:color="rgb(189,79,255)"/>
  </sodipodi:namedview>
  <g style="display:inline" inkscape:label="icon_96" id="g8840" inkscape:groupmode="layer" transform="translate(-111.99996,-112)">
    <g style="display:none" inkscape:label="frame" id="g8776" inkscape:groupmode="layer">
      <rect style="color:#000000;clip-rule:nonzero;display:inline;overflow:visible;visibility:visible;opacity:1;isolation:auto;mix-blend-mode:normal;color-interpolation:sRGB;color-interpolation-filters:linearRGB;solid-color:#000000;solid-opacity:1;vector-effect:none;fill:#000000;fill-opacity:1;fill-rule:nonzero;stroke:#ff24f7;stroke-width:0;stroke-linecap:square;stroke-linejoin:miter;stroke-miterlimit:4;stroke-dasharray:none;stroke-dashoffset:0;stroke-opacity:0.99481865;marker:none;marker-start:none;marker-mid:none;marker-end:none;paint-order:normal;color-rendering:auto;image-rendering:auto;shape-rendering:auto;text-rendering:auto;enable-background:accumulate" id="rect_96" width="96" height="96" x="111.99996" y="112" inkscape:label="frame_96"/>
      <text inkscape:label="txt_96" id="text_96" y="168.73633" x="144.72458" style="font-size:24px;line-height:0%;font-family:sans-serif;letter-spacing:0px;word-spacing:0px;display:inline;opacity:1;fill:#ffffff;fill-opacity:1;stroke:none;stroke-width:0.04917826px;stroke-linecap:butt;stroke-linejoin:miter;stroke-opacity:1" xml:space="preserve">
        <tspan id="tspan8768" style="font-size:24px;line-height:0%;fill:#ffffff;fill-opacity:1;stroke:none;stroke-width:0.04917826px" y="168.73633" x="144.72458" sodipodi:role="line">96</tspan>
      </text>
    </g>
    <g style="display:inline" inkscape:label="icon" id="g8838" inkscape:groupmode="layer">
      <path inkscape:label="Hoja sombra 2" sodipodi:nodetypes="cccccc" inkscape:connector-curvature="0" id="path4587" d="m 125,117.99999 h 44 l 26,26 v 61 h -70 z" style="color:#000000;clip-rule:nonzero;display:inline;overflow:visible;visibility:visible;opacity:1;isolation:auto;mix-blend-mode:normal;color-interpolation:sRGB;color-interpolation-filters:linearRGB;solid-color:#000000;solid-opacity:1;vector-effect:none;fill:url(#linearGradient8265);fill-opacity:1;fill-rule:nonzero;stroke:none;stroke-width:0.87866098;stroke-linecap:butt;stroke-linejoin:miter;stroke-miterlimit:4;stroke-dasharray:none;stroke-dashoffset:0;stroke-opacity:1;marker:none;marker-start:none;marker-mid:none;marker-end:none;paint-order:fill markers stroke;color-rendering:auto;image-rendering:auto;shape-rendering:auto;text-rendering:auto;enable-background:accumulate"/>
      <path style="color:#000000;clip-rule:nonzero;display:inline;overflow:visible;visibility:visible;opacity:1;isolation:auto;mix-blend-mode:normal;color-interpolation:sRGB;color-interpolation-filters:linearRGB;solid-color:#000000;solid-opacity:1;vector-effect:none;fill:url(#linearGradient8259);fill-opacity:1;fill-rule:nonzero;stroke:none;stroke-width:0.85190946;stroke-linecap:butt;stroke-linejoin:miter;stroke-miterlimit:4;stroke-dasharray:none;stroke-dashoffset:0;stroke-opacity:1;marker:none;marker-start:none;marker-mid:none;marker-end:none;paint-order:fill markers stroke;color-rendering:auto;image-rendering:auto;shape-rendering:auto;text-rendering:auto;enable-background:accumulate" d="m 125.99999,119 h 43 l 25,25 v 60 h -68 c 0,0 0,-56.66667 0,-85 z" id="path8778" inkscape:connector-curvature="0" sodipodi:nodetypes="cccccc" inkscape:label="Hoja sombra 1"/>
      <path inkscape:label="Hoja" sodipodi:nodetypes="cccccc" inkscape:connector-curvature="0" id="path8780" d="m 126.99999,120 h 42 l 24,24 c 2.6e-4,19.66667 0,59 0,59 h -66 c -4e-5,-27.66667 -1e-5,-55.33333 0,-83 z" style="color:#000000;clip-rule:nonzero;display:inline;overflow:visible;visibility:visible;opacity:1;isolation:auto;mix-blend-mode:normal;color-interpolation:sRGB;color-interpolation-filters:linearRGB;solid-color:#000000;solid-opacity:1;vector-effect:none;fill:url(#linearGradient8848);fill-opacity:1;fill-rule:nonzero;stroke:none;stroke-width:0.82870787;stroke-linecap:butt;stroke-linejoin:miter;stroke-miterlimit:4;stroke-dasharray:none;stroke-dashoffset:0;stroke-opacity:1;marker:none;marker-start:none;marker-mid:none;marker-end:none;paint-order:fill markers stroke;color-rendering:auto;image-rendering:auto;shape-rendering:auto;text-rendering:auto;enable-background:accumulate"/>
      <path style="color:#000000;clip-rule:nonzero;display:inline;overflow:visible;visibility:visible;opacity:1;isolation:auto;mix-blend-mode:normal;color-interpolation:sRGB;color-interpolation-filters:linearRGB;solid-color:#000000;solid-opacity:1;vector-effect:none;fill:url(#linearGradient8301);fill-opacity:1;fill-rule:nonzero;stroke:none;stroke-width:0.82870787;stroke-linecap:butt;stroke-linejoin:miter;stroke-miterlimit:4;stroke-dasharray:none;stroke-dashoffset:0;stroke-opacity:1;marker:none;marker-start:none;marker-mid:none;marker-end:none;paint-order:fill markers stroke;color-rendering:auto;image-rendering:auto;shape-rendering:auto;text-rendering:auto;enable-background:accumulate" d="m 126.99999,120 h 42 l 24,24 c 2.6e-4,19.66667 -3.9e-4,39.33333 0,59 h -66 z" id="path8299" inkscape:connector-curvature="0" sodipodi:nodetypes="cccccc" inkscape:label="Hoja sombra inferior derecha"/>
      <path inkscape:label="Hoja sombra inferior izquierda" sodipodi:nodetypes="cccccc" inkscape:connector-curvature="0" id="path4619" d="m 126.99999,120 h 42 l 24,24 c 2.6e-4,19.66667 -3.9e-4,39.33333 0,59 h -66 z" style="color:#000000;clip-rule:nonzero;display:inline;overflow:visible;visibility:visible;opacity:1;isolation:auto;mix-blend-mode:normal;color-interpolation:sRGB;color-interpolation-filters:linearRGB;solid-color:#000000;solid-opacity:1;vector-effect:none;fill:url(#linearGradient4621);fill-opacity:1;fill-rule:nonzero;stroke:none;stroke-width:0.82870787;stroke-linecap:butt;stroke-linejoin:miter;stroke-miterlimit:4;stroke-dasharray:none;stroke-dashoffset:0;stroke-opacity:1;marker:none;marker-start:none;marker-mid:none;marker-end:none;paint-order:fill markers stroke;color-rendering:auto;image-rendering:auto;shape-rendering:auto;text-rendering:auto;enable-background:accumulate"/>
      <path style="color:#000000;clip-rule:nonzero;display:inline;overflow:visible;visibility:visible;opacity:1;isolation:auto;mix-blend-mode:normal;color-interpolation:sRGB;color-interpolation-filters:linearRGB;solid-color:#000000;solid-opacity:1;vector-effect:none;fill:url(#linearGradient8850-3);fill-opacity:1;fill-rule:nonzero;stroke:none;stroke-width:0.82870787;stroke-linecap:butt;stroke-linejoin:miter;stroke-miterlimit:4;stroke-dasharray:none;stroke-dashoffset:0;stroke-opacity:1;marker:none;marker-start:none;marker-mid:none;marker-end:none;paint-order:fill markers stroke;color-rendering:auto;image-rendering:auto;shape-rendering:auto;text-rendering:auto;enable-background:accumulate" d="m 126.99999,120 h 42 l 24,24 c 2.6e-4,19.66667 -3.9e-4,39.33333 0,59 h -66 z" id="path8782-6" inkscape:connector-curvature="0" sodipodi:nodetypes="cccccc" inkscape:label="Hoja sombra superior derecha"/>
      <path inkscape:label="Hoja sombra superior izquierda" sodipodi:nodetypes="cccccc" inkscape:connector-curvature="0" id="path7893" d="m 126.99999,120 h 42 l 24,24 c 2.6e-4,19.66667 -3.9e-4,39.33333 0,59 h -66 z" style="color:#000000;clip-rule:nonzero;display:inline;overflow:visible;visibility:visible;opacity:1;isolation:auto;mix-blend-mode:normal;color-interpolation:sRGB;color-interpolation-filters:linearRGB;solid-color:#000000;solid-opacity:1;vector-effect:none;fill:url(#linearGradient7895);fill-opacity:1;fill-rule:nonzero;stroke:none;stroke-width:0.82870787;stroke-linecap:butt;stroke-linejoin:miter;stroke-miterlimit:4;stroke-dasharray:none;stroke-dashoffset:0;stroke-opacity:1;marker:none;marker-start:none;marker-mid:none;marker-end:none;paint-order:fill markers stroke;color-rendering:auto;image-rendering:auto;shape-rendering:auto;text-rendering:auto;enable-background:accumulate"/>
      <path style="color:#000000;clip-rule:nonzero;display:inline;overflow:visible;visibility:visible;opacity:0.4;isolation:auto;mix-blend-mode:normal;color-interpolation:sRGB;color-interpolation-filters:linearRGB;solid-color:#000000;solid-opacity:1;vector-effect:none;fill:url(#linearGradient9428);fill-opacity:1;fill-rule:nonzero;stroke:none;stroke-width:0.84025061;stroke-linecap:butt;stroke-linejoin:miter;stroke-miterlimit:4;stroke-dasharray:none;stroke-dashoffset:0;stroke-opacity:0.34375;marker:none;marker-start:none;marker-mid:none;marker-end:none;paint-order:fill markers stroke;color-rendering:auto;image-rendering:auto;shape-rendering:auto;text-rendering:auto;enable-background:accumulate" d="m 128.00253,120.00912 v 3 h -1 v 1 h 1 v 3 h -1 v 1 h 1 v 3 h -1 v 1 h 1 v 3 h -1 v 1 h 1 v 3 h -1 v 1 h 1 v 3 h -1 v 1 h 1 v 3 h -1 v 1 h 1 v 3 h -1 v 1 h 1 v 3 h -1 v 1 h 1 v 3 h -1 v 1 h 1 v 3 h -1 v 1 h 1 v 3 h -1 v 1 h 1 v 3 h -1 v 1 h 1 v 3 h -1 v 1 h 1 v 3 h -1 v 1 h 1 v 3 h -1 v 1 h 1 v 3 h -1 v 1 h 1 v 3 h -1 v 1 h 1 v 3 h -1 v 1 h 1 v 3 h -1 v 1 h 1 v 3 h 1 v -3 h 3 v 3 h 1 v -3 h 3 v 3 h 1 v -3 h 3 v 3 h 1 v -3 h 3 v 3 h 1 v -3 h 3 v 3 h 1 v -3 h 3 v 3 h 1 v -3 h 3 v 3 h 1 v -3 h 3 v 3 h 1 v -3 h 3 v 3 h 1 v -3 h 3 v 3 h 1 v -3 h 3 v 3 h 1 v -3 h 3 v 3 h 1 v -3 h 3 v 2.90625 h 1 v -2.90625 h 3 v 3 h 1 v -3 h 3 v 3 h 1 v -3 h 4 v -1 h -4 v -3 h 4 v -1 h -4 v -3 h 4 v -1 h -4 v -3 h 4 v -1 h -4 v -3 h 4 v -1 h -4 v -3 h 4 v -1 h -4 v -3 h 4 v -1 h -4 v -3 h 4 v -1 h -4 v -3 h 4 v -1 h -4 v -3 h 4 v -1 h -4 v -3 h 4 v -1 h -4 v -3 h 4 v -1 h -4 v -3 h 4 v -1 h -4 v -3 h 4 v -1 h -4 v -3 h -1 v 3 h -3 v -3 h -1 v 3 h -3 v -3.09375 h -1 v 3.09375 h -3 v -3 h -1 v 3 h -3 v -3 h -1 v 3 h -3 v -27 h -1 v 3 h -3 v -3 h -1 v 3 h -3 v -3 h -1 v 3 h -3 v -3 h -1 v 3 h -3 v -3 h -1 v 3 h -3 v -3 h -1 v 3 h -3 v -3 h -1 v 3 h -3 v -3 h -1 v 3 h -3 v -3 h -1 v 3 h -3 v -3 h -1 v 3 h -3 v -3 z m 1,4 h 3 v 3 h -3 z m 4,0 h 3 v 3 h -3 z m 4,0 h 3 v 3 h -3 z m 4,0 h 3 v 3 h -3 z m 4,0 h 3 v 3 h -3 z m 4,0 h 3 v 3 h -3 z m 4,0 h 3 v 3 h -3 z m 4,0 h 3 v 3 h -3 z m 4,0 h 3 v 3 h -3 z m 4,0 h 3 v 3 h -3 z m -36,4 h 3 v 3 h -3 z m 4,0 h 3 v 3 h -3 z m 4,0 h 3 v 3 h -3 z m 4,0 h 3 v 3 h -3 z m 4,0 h 3 v 3 h -3 z m 4,0 h 3 v 3 h -3 z m 4,0 h 3 v 3 h -3 z m 4,0 h 3 v 3 h -3 z m 4,0 h 3 v 3 h -3 z m 4,0 h 3 v 3 h -3 z m -36,4 h 3 v 3 h -3 z m 4,0 h 3 v 3 h -3 z m 4,0 h 3 v 3 h -3 z m 4,0 h 3 v 3 h -3 z m 4,0 h 3 v 3 h -3 z m 4,0 h 3 v 3 h -3 z m 4,0 h 3 v 3 h -3 z m 4,0 h 3 v 3 h -3 z m 4,0 h 3 v 3 h -3 z m 4,0 h 3 v 3 h -3 z m -36,4 h 3 v 3 h -3 z m 4,0 h 3 v 3 h -3 z m 4,0 h 3 v 3 h -3 z m 4,0 h 3 v 3 h -3 z m 4,0 h 3 v 3 h -3 z m 4,0 h 3 v 3 h -3 z m 4,0 h 3 v 3 h -3 z m 4,0 h 3 v 3 h -3 z m 4,0 h 3 v 3 h -3 z m 4,0 h 3 v 3 h -3 z m -36,4 h 3 v 3 h -3 z m 4,0 h 3 v 3 h -3 z m 4,0 h 3 v 3 h -3 z m 4,0 h 3 v 3 h -3 z m 4,0 h 3 v 3 h -3 z m 4,0 h 3 v 3 h -3 z m 4,0 h 3 v 3 h -3 z m 4,0 h 3 v 3 h -3 z m 4,0 h 3 v 3 h -3 z m 4,0 h 3 v 3 h -3 z m -36,4 h 3 v 3 h -3 z m 4,0 h 3 v 3 h -3 z m 4,0 h 3 v 3 h -3 z m 4,0 h 3 v 3 h -3 z m 4,0 h 3 v 3 h -3 z m 4,0 h 3 v 3 h -3 z m 4,0 h 3 v 3 h -3 z m 4,0 h 3 v 3 h -3 z m 4,0 h 3 v 3 h -3 z m 4,0 h 3 v 3 h -3 z m -36,4 h 3 v 3 h -3 z m 4,0 h 3 v 3 h -3 z m 4,0 h 3 v 3 h -3 z m 4,0 h 3 v 3 h -3 z m 4,0 h 3 v 3 h -3 z m 4,0 h 3 v 3 h -3 z m 4,0 h 3 v 3 h -3 z m 4,0 h 3 v 3 h -3 z m 4,0 h 3 v 3 h -3 z m 4,0 h 3 v 3 h -3 z m 4,0 h 3 v 3 h -3 z m 4,0 h 3 v 3 h -3 z m 4,0 h 3 v 3 h -3 z m 4,0 h 3 v 3 h -3 z m 4,0 h 3 v 3 h -3 z m -56,4 h 3 v 3 h -3 z m 4,0 h 3 v 3 h -3 z m 4,0 h 3 v 3 h -3 z m 4,0 h 3 v 3 h -3 z m 4,0 h 3 v 3 h -3 z m 4,0 h 3 v 3 h -3 z m 4,0 h 3 v 3 h -3 z m 4,0 h 3 v 3 h -3 z m 4,0 h 3 v 3 h -3 z m 4,0 h 3 v 3 h -3 z m 4,0 h 3 v 3 h -3 z m 4,0 h 3 v 3 h -3 z m 4,0 h 3 v 3 h -3 z m 4,0 h 3 v 3 h -3 z m 4,0 h 3 v 3 h -3 z m -56,4 h 3 v 3 h -3 z m 4,0 h 3 v 3 h -3 z m 4,0 h 3 v 3 h -3 z m 4,0 h 3 v 3 h -3 z m 4,0 h 3 v 3 h -3 z m 4,0 h 3 v 3 h -3 z m 4,0 h 3 v 3 h -3 z m 4,0 h 3 v 3 h -3 z m 4,0 h 3 v 3 h -3 z m 4,0 h 3 v 3 h -3 z m 4,0 h 3 v 3 h -3 z m 4,0 h 3 v 3 h -3 z m 4,0 h 3 v 3 h -3 z m 4,0 h 3 v 3 h -3 z m 4,0 h 3 v 3 h -3 z m -56,4 h 3 v 3 h -3 z m 4,0 h 3 v 3 h -3 z m 4,0 h 3 v 3 h -3 z m 4,0 h 3 v 3 h -3 z m 4,0 h 3 v 3 h -3 z m 4,0 h 3 v 3 h -3 z m 4,0 h 3 v 3 h -3 z m 4,0 h 3 v 3 h -3 z m 4,0 h 3 v 3 h -3 z m 4,0 h 3 v 3 h -3 z m 4,0 h 3 v 3 h -3 z m 4,0 h 3 v 3 h -3 z m 4,0 h 3 v 3 h -3 z m 4,0 h 3 v 3 h -3 z m 4,0 h 3 v 3 h -3 z m -56,4 h 3 v 3 h -3 z m 4,0 h 3 v 3 h -3 z m 4,0 h 3 v 3 h -3 z m 4,0 h 3 v 3 h -3 z m 4,0 h 3 v 3 h -3 z m 4,0 h 3 v 3 h -3 z m 4,0 h 3 v 3 h -3 z m 4,0 h 3 v 3 h -3 z m 4,0 h 3 v 3 h -3 z m 4,0 h 3 v 3 h -3 z m 4,0 h 3 v 3 h -3 z m 4,0 h 3 v 3 h -3 z m 4,0 h 3 v 3 h -3 z m 4,0 h 3 v 3 h -3 z m 4,0 h 3 v 3 h -3 z m -56,4 h 3 v 3 h -3 z m 4,0 h 3 v 3 h -3 z m 4,0 h 3 v 3 h -3 z m 4,0 h 3 v 3 h -3 z m 4,0 h 3 v 3 h -3 z m 4,0 h 3 v 3 h -3 z m 4,0 h 3 v 3 h -3 z m 4,0 h 3 v 3 h -3 z m 4,0 h 3 v 3 h -3 z m 4,0 h 3 v 3 h -3 z m 4,0 h 3 v 3 h -3 z m 4,0 h 3 v 3 h -3 z m 4,0 h 3 v 3 h -3 z m 4,0 h 3 v 3 h -3 z m 4,0 h 3 v 3 h -3 z m -56,4 h 3 v 3 h -3 z m 4,0 h 3 v 3 h -3 z m 4,0 h 3 v 3 h -3 z m 4,0 h 3 v 3 h -3 z m 4,0 h 3 v 3 h -3 z m 4,0 h 3 v 3 h -3 z m 4,0 h 3 v 3 h -3 z m 4,0 h 3 v 3 h -3 z m 4,0 h 3 v 3 h -3 z m 4,0 h 3 v 3 h -3 z m 4,0 h 3 v 3 h -3 z m 4,0 h 3 v 3 h -3 z m 4,0 h 3 v 3 h -3 z m 4,0 h 3 v 3 h -3 z m 4,0 h 3 v 3 h -3 z m -56,4 h 3 v 3 h -3 z m 4,0 h 3 v 3 h -3 z m 4,0 h 3 v 3 h -3 z m 4,0 h 3 v 3 h -3 z m 4,0 h 3 v 3 h -3 z m 4,0 h 3 v 3 h -3 z m 4,0 h 3 v 3 h -3 z m 4,0 h 3 v 3 h -3 z m 4,0 h 3 v 3 h -3 z m 4,0 h 3 v 3 h -3 z m 4,0 h 3 v 3 h -3 z m 4,0 h 3 v 3 h -3 z m 4,0 h 3 v 3 h -3 z m 4,0 h 3 v 3 h -3 z m 4,0 h 3 v 3 h -3 z m -56,4 h 3 v 3 h -3 z m 4,0 h 3 v 3 h -3 z m 4,0 h 3 v 3 h -3 z m 4,0 h 3 v 3 h -3 z m 4,0 h 3 v 3 h -3 z m 4,0 h 3 v 3 h -3 z m 4,0 h 3 v 3 h -3 z m 4,0 h 3 v 3 h -3 z m 4,0 h 3 v 3 h -3 z m 4,0 h 3 v 3 h -3 z m 4,0 h 3 v 3 h -3 z m 4,0 h 3 v 3 h -3 z m 4,0 h 3 v 3 h -3 z m 4,0 h 3 v 3 h -3 z m 4,0 h 3 v 3 h -3 z m -56,4 h 3 v 3 h -3 z m 4,0 h 3 v 3 h -3 z m 4,0 h 3 v 3 h -3 z m 4,0 h 3 v 3 h -3 z m 4,0 h 3 v 3 h -3 z m 4,0 h 3 v 3 h -3 z m 4,0 h 3 v 3 h -3 z m 4,0 h 3 v 3 h -3 z m 4,0 h 3 v 3 h -3 z m 4,0 h 3 v 3 h -3 z m 4,0 h 3 v 3 h -3 z m 4,0 h 3 v 3 h -3 z m 4,0 h 3 v 3 h -3 z m 4,0 h 3 v 3 h -3 z m 4,0 h 3 v 3 h -3 z m -56,4 h 3 v 3 h -3 z m 4,0 h 3 v 3 h -3 z m 4,0 h 3 v 3 h -3 z m 4,0 h 3 v 3 h -3 z m 4,0 h 3 v 3 h -3 z m 4,0 h 3 v 3 h -3 z m 4,0 h 3 v 3 h -3 z m 4,0 h 3 v 3 h -3 z m 4,0 h 3 v 3 h -3 z m 4,0 h 3 v 3 h -3 z m 4,0 h 3 v 3 h -3 z m 4,0 h 3 v 3 h -3 z m 4,0 h 3 v 3 h -3 z m 4,0 h 3 v 3 h -3 z m 4,0 h 3 v 3 h -3 z m -56,4 h 3 v 3 h -3 z m 4,0 h 3 v 3 h -3 z m 4,0 h 3 v 3 h -3 z m 4,0 h 3 v 3 h -3 z m 4,0 h 3 v 3 h -3 z m 4,0 h 3 v 3 h -3 z m 4,0 h 3 v 3 h -3 z m 4,0 h 3 v 3 h -3 z m 4,0 h 3 v 3 h -3 z m 4,0 h 3 v 3 h -3 z m 4,0 h 3 v 3 h -3 z m 4,0 h 3 v 3 h -3 z m 4,0 h 3 v 3 h -3 z m 4,0 h 3 v 3 h -3 z m 4,0 h 3 v 3 h -3 z m -56,4 h 3 v 3 h -3 z m 4,0 h 3 v 3 h -3 z m 4,0 h 3 v 3 h -3 z m 4,0 h 3 v 3 h -3 z m 4,0 h 3 v 3 h -3 z m 4,0 h 3 v 3 h -3 z m 4,0 h 3 v 3 h -3 z m 4,0 h 3 v 3 h -3 z m 4,0 h 3 v 3 h -3 z m 4,0 h 3 v 3 h -3 z m 4,0 h 3 v 3 h -3 z m 4,0 h 3 v 3 h -3 z m 4,0 h 3 v 3 h -3 z m 4,0 h 3 v 3 h -3 z m 4,0 h 3 v 3 h -3 z" id="rect9275" inkscape:connector-curvature="0" inkscape:label="patron"/>
      <path style="color:#000000;clip-rule:nonzero;display:inline;overflow:visible;visibility:visible;opacity:1;isolation:auto;mix-blend-mode:normal;color-interpolation:sRGB;color-interpolation-filters:linearRGB;solid-color:#000000;solid-opacity:1;vector-effect:none;fill:none;fill-opacity:1;fill-rule:nonzero;stroke:#b3d4ee;stroke-width:1.99546814;stroke-linecap:butt;stroke-linejoin:miter;stroke-miterlimit:4;stroke-dasharray:none;stroke-dashoffset:0;stroke-opacity:0.21354167;marker:none;marker-start:none;marker-mid:none;marker-end:none;paint-order:fill markers stroke;color-rendering:auto;image-rendering:auto;shape-rendering:auto;text-rendering:auto;enable-background:accumulate" d="m 132.00027,124.00686 h 35.99665 l 19.46276,19.91131 0.53537,55.09321 h -55.99478 z" id="rect9431" inkscape:connector-curvature="0" sodipodi:nodetypes="cccccc" inkscape:label="borde interior"/>
      <path style="display:inline;fill:none;fill-rule:evenodd;stroke:#b8eff9;stroke-width:2;stroke-linecap:butt;stroke-linejoin:miter;stroke-miterlimit:4;stroke-dasharray:none;stroke-opacity:1" d="m 137.00253,179.00912 h 40 v -23 z" id="path9444" inkscape:connector-curvature="0" sodipodi:nodetypes="cccc" inkscape:label="escuadra"/>
      <path style="color:#000000;font-style:normal;font-variant:normal;font-weight:normal;font-stretch:normal;font-size:medium;line-height:normal;font-family:sans-serif;font-variant-ligatures:normal;font-variant-position:normal;font-variant-caps:normal;font-variant-numeric:normal;font-variant-alternates:normal;font-feature-settings:normal;text-indent:0;text-align:start;text-decoration:none;text-decoration-line:none;text-decoration-style:solid;text-decoration-color:#000000;letter-spacing:normal;word-spacing:normal;text-transform:none;writing-mode:lr-tb;direction:ltr;text-orientation:mixed;dominant-baseline:auto;baseline-shift:baseline;text-anchor:start;white-space:normal;shape-padding:0;clip-rule:nonzero;display:inline;overflow:visible;visibility:visible;opacity:1;isolation:auto;mix-blend-mode:normal;color-interpolation:sRGB;color-interpolation-filters:linearRGB;solid-color:#000000;solid-opacity:1;vector-effect:none;fill:#f8f8f8;fill-opacity:1;fill-rule:evenodd;stroke:none;stroke-width:0.25397408;stroke-linecap:butt;stroke-linejoin:miter;stroke-miterlimit:4;stroke-dasharray:none;stroke-dashoffset:0;stroke-opacity:1;color-rendering:auto;image-rendering:auto;shape-rendering:auto;text-rendering:auto;enable-background:accumulate" d="m 176.37167,147.31185 -0.22656,1.66993 -1.55469,-0.65039 -0.10156,0.24218 1.61914,0.67774 -0.0352,0.25976 -44.16207,25.49805 0.13282,-0.97266 -0.25977,-0.0371 -0.16016,1.17579 -0.45898,0.26562 0.0488,0.0859 -1.21094,-0.50781 -0.10156,0.24218 1.61914,0.67969 -0.23633,1.73828 0.26172,0.0371 0.22656,-1.66992 1.55274,0.65039 0.10351,-0.24219 -1.62109,-0.67969 0.041,-0.29882 44.16211,-25.49805 -0.13867,1.01367 0.26172,0.0352 0.16602,-1.2168 0.48046,-0.27734 1.13477,0.47656 0.10156,-0.24414 -1.06445,-0.44531 -0.13672,-0.23633 -0.17969,0.10351 -0.23828,-0.0996 0.23633,-1.74023 z m 4.875,5.4043 -0.15625,0.20117 1.18359,0.91602 v 0.15625 l -1.1914,0.90625 0.1543,0.20312 1.0371,-0.78906 v 25.53125 l -1.19726,-0.92773 -0.14844,0.1914 1.2207,0.94532 -1.22851,0.93359 0.14648,0.19141 1.2793,-0.97266 1.27148,0.98242 0.14844,-0.18945 -1.08594,-0.83985 v -0.20703 l 1.09375,-0.83203 -0.14648,-0.1914 -0.94727,0.7207 v -25.49805 l 1.24415,0.96094 0.15624,-0.19922 -1.2871,-0.99609 1.29492,-0.98438 -0.1543,-0.20312 -1.25781,0.95508 h -0.1836 z m -27.25781,2.70508 -1.2793,0.73828 0.69922,1.21094 c 0.0668,-0.093 0.13802,-0.17505 0.21289,-0.24414 0.076,-0.0696 0.15699,-0.12936 0.24414,-0.17969 0.18613,-0.1075 0.36217,-0.14458 0.52734,-0.10938 0.1652,0.0352 0.29568,0.13685 0.39258,0.30469 0.0969,0.16784 0.11856,0.33349 0.0664,0.49414 -0.0521,0.16065 -0.17128,0.29488 -0.35742,0.40235 -0.11513,0.0665 -0.23143,0.11659 -0.34961,0.15039 -0.11821,0.0337 -0.23992,0.0514 -0.36719,0.0547 l 0.1875,0.32812 c 0.13177,-0.0302 0.25484,-0.0683 0.36914,-0.11133 0.11537,-0.0437 0.22503,-0.0939 0.32617,-0.15234 0.29373,-0.16959 0.47982,-0.3731 0.5586,-0.60938 0.0781,-0.23736 0.0423,-0.48484 -0.10742,-0.74414 -0.14538,-0.25175 -0.33984,-0.40615 -0.58204,-0.46289 -0.24218,-0.0567 -0.49663,-0.007 -0.76562,0.14844 -0.0473,0.0273 -0.0924,0.0578 -0.13477,0.0937 -0.043,0.0348 -0.0831,0.0756 -0.12109,0.11914 l -0.3418,-0.5918 0.98047,-0.5664 z m -2.1211,1.41601 c -0.22054,-0.0391 -0.45546,0.0121 -0.70507,0.15626 -0.0947,0.0547 -0.19251,0.1299 -0.29102,0.22265 -0.0985,0.0928 -0.198,0.20354 -0.29883,0.33203 l 0.19141,0.32813 c 0.0875,-0.14664 0.17706,-0.27036 0.26953,-0.3711 0.0935,-0.10136 0.19076,-0.18123 0.29297,-0.24023 0.14418,-0.0833 0.28403,-0.11123 0.41992,-0.082 0.13697,0.0285 0.24249,0.10829 0.31641,0.23633 0.0453,0.0785 0.0708,0.16939 0.0762,0.27539 0.006,0.1043 -0.0102,0.24629 -0.0469,0.42383 -0.0188,0.0941 -0.0729,0.3105 -0.16211,0.65039 -0.0888,0.33818 -0.15723,0.60717 -0.20703,0.80664 l 0.15821,0.27539 1.52929,-0.88477 -0.1582,-0.27344 -1.13672,0.65625 c 0.10784,-0.41948 0.18958,-0.74484 0.24805,-0.97656 0.0578,-0.23279 0.0926,-0.37319 0.10156,-0.41992 0.0283,-0.17703 0.0339,-0.32034 0.0195,-0.42969 -0.0139,-0.11104 -0.0483,-0.21546 -0.10547,-0.31445 -0.12051,-0.20875 -0.29118,-0.33202 -0.51172,-0.3711 z m -2.45898,1.22657 -0.32617,0.18945 -0.50781,0.44922 0.16992,0.29687 0.51367,-0.45117 1.06055,1.83789 -0.53321,0.3086 0.15821,0.27343 1.38867,-0.80078 -0.1582,-0.27539 -0.53321,0.3086 z m 38.36133,8.49414 c -0.31184,0 -0.55156,0.12386 -0.7168,0.37109 -0.16399,0.246 -0.24609,0.60265 -0.24609,1.07227 0,0.46837 0.0821,0.82698 0.24609,1.07422 0.16524,0.24598 0.40496,0.36914 0.7168,0.36914 0.31183,0 0.54889,-0.12316 0.71289,-0.36914 0.16523,-0.24724 0.24805,-0.60585 0.24805,-1.07422 0,-0.46962 -0.0828,-0.82627 -0.24805,-1.07227 -0.164,-0.24723 -0.40106,-0.37109 -0.71289,-0.37109 z m -3.23242,0.0488 v 1.39843 c 0.10436,-0.0472 0.20725,-0.0812 0.30664,-0.10351 0.10063,-0.0223 0.20014,-0.0332 0.30078,-0.0332 0.21493,0 0.38624,0.0549 0.51172,0.16796 0.12548,0.11306 0.1875,0.26713 0.1875,0.46094 0,0.19381 -0.062,0.34789 -0.1875,0.46094 -0.12548,0.11306 -0.29679,0.16992 -0.51172,0.16992 -0.13294,0 -0.25964,-0.0151 -0.37891,-0.0449 -0.11927,-0.0298 -0.23389,-0.0759 -0.3457,-0.13672 v 0.37891 c 0.12921,0.0397 0.25449,0.068 0.375,0.0879 0.12175,0.0199 0.24063,0.0312 0.35742,0.0312 0.33917,0 0.6027,-0.0828 0.78906,-0.24805 0.18636,-0.16648 0.2793,-0.39981 0.2793,-0.69922 0,-0.29072 -0.092,-0.5212 -0.27344,-0.6914 -0.18138,-0.17021 -0.42769,-0.25586 -0.73828,-0.25586 -0.0547,0 -0.10744,0.006 -0.16211,0.0156 -0.0547,0.009 -0.10939,0.0224 -0.16406,0.041 v -0.68164 h 1.13281 v -0.31836 z m 3.23242,0.24804 c 0.19505,0 0.34059,0.0958 0.4375,0.28711 0.0981,0.19009 0.14648,0.47672 0.14648,0.85938 0,0.3814 -0.0483,0.66804 -0.14648,0.85937 -0.0969,0.19008 -0.24245,0.28516 -0.4375,0.28516 -0.19382,0 -0.34129,-0.0951 -0.43946,-0.28516 -0.0969,-0.19133 -0.14453,-0.47797 -0.14453,-0.85937 0,-0.38266 0.0476,-0.66929 0.14453,-0.85938 0.0981,-0.19132 0.24564,-0.28711 0.43946,-0.28711 z m -56.20899,8.78711 -0.004,0.0273 -0.0254,-0.01 z m 3.81641,8.59961 -0.20117,0.1543 0.9414,1.23633 v 0.21875 l -0.95312,1.23242 0.20117,0.15625 0.9961,-1.28516 0.98437,1.29297 0.20117,-0.1543 -0.92969,-1.2207 h 39.21875 l -0.88281,1.14258 0.19141,0.14844 0.94336,-1.22071 0.93554,1.22852 0.19141,-0.14649 -0.88281,-1.16015 v -0.23633 l 0.89258,-1.1543 -0.19141,-0.14843 -0.81055,1.04687 h -0.26562 l -0.80274,-1.05469 -0.1914,0.14649 0.6914,0.9082 h -38.84375 l 0.74805,-0.9668 -0.20117,-0.15625 -0.86914,1.12305 h -0.25 z m 22.01562,4.50391 c -0.31182,0 -0.5496,0.12386 -0.71484,0.37109 -0.16399,0.246 -0.24609,0.6046 -0.24609,1.07422 0,0.46838 0.0821,0.82503 0.24609,1.07227 0.16524,0.24599 0.40301,0.36914 0.71484,0.36914 0.31185,0 0.55086,-0.12315 0.71485,-0.36914 0.16524,-0.24724 0.24609,-0.60389 0.24609,-1.07227 0,-0.46962 -0.0808,-0.82822 -0.24609,-1.07422 -0.16399,-0.24723 -0.40298,-0.37109 -0.71485,-0.37109 z m 2.42969,0 c -0.31184,0 -0.5496,0.12386 -0.71484,0.37109 -0.16399,0.246 -0.2461,0.6046 -0.24609,1.07422 0,0.46838 0.0821,0.82503 0.24609,1.07227 0.16524,0.24599 0.403,0.36914 0.71484,0.36914 0.31184,0 0.55085,-0.12315 0.71485,-0.36914 0.16524,-0.24724 0.24804,-0.60389 0.24804,-1.07227 0,-0.46962 -0.0828,-0.82822 -0.24804,-1.07422 -0.164,-0.24723 -0.40301,-0.37109 -0.71485,-0.37109 z m -4.98828,0.0508 -0.66601,0.13477 v 0.34179 l 0.66992,-0.13476 v 2.12304 h -0.61524 v 0.31641 h 1.60352 v -0.31641 h -0.61524 v -2.46484 z m 2.55859,0.24805 c 0.19507,0 0.3406,0.0958 0.4375,0.28711 0.0982,0.19008 0.14844,0.47672 0.14844,0.85937 0,0.38141 -0.0503,0.6661 -0.14844,0.85742 -0.0969,0.19009 -0.24243,0.28516 -0.4375,0.28516 -0.1938,0 -0.33932,-0.0951 -0.4375,-0.28516 -0.0969,-0.19132 -0.14648,-0.47601 -0.14648,-0.85742 0,-0.38265 0.0496,-0.66929 0.14648,-0.85937 0.0982,-0.19133 0.2437,-0.28711 0.4375,-0.28711 z m 2.42969,0 c 0.19506,0 0.34255,0.0958 0.43946,0.28711 0.0981,0.19008 0.14648,0.47672 0.14648,0.85937 0,0.38141 -0.0483,0.6661 -0.14648,0.85742 -0.0969,0.19009 -0.2444,0.28516 -0.43946,0.28516 -0.19381,0 -0.33935,-0.0951 -0.4375,-0.28516 -0.0969,-0.19132 -0.14453,-0.47601 -0.14453,-0.85742 0,-0.38265 0.0476,-0.66929 0.14453,-0.85937 0.0982,-0.19133 0.24369,-0.28711 0.4375,-0.28711 z" id="path9446" inkscape:connector-curvature="0" inkscape:label="acotes"/>
      <path inkscape:connector-curvature="0" id="path7850" d="m 149.31641,132.22461 v 3.375 h 0.39843 v -3.375 z m -12.27344,0.13672 v 0.36914 h 1.15039 v 2.86914 h 0.43945 v -2.86914 h 1.15039 v -0.36914 z m 16.22265,0.11914 v 0.68945 h -0.29296 v 0.31055 h 0.29296 v 1.31836 c 10e-6,0.30362 0.0587,0.51324 0.17579,0.6289 0.1171,0.11422 0.32876,0.17188 0.63671,0.17188 h 0.41016 v -0.33399 h -0.41016 c -0.16627,10e-6 -0.27514,-0.0276 -0.33007,-0.084 -0.0535,-0.0564 -0.082,-0.18474 -0.082,-0.38281 v -1.31836 h 0.82226 v -0.31055 h -0.82226 v -0.68945 z m -12.8125,0.63086 c -0.36434,0 -0.65372,0.11734 -0.86914,0.35156 -0.21398,0.23277 -0.32226,0.54772 -0.32226,0.94531 0,0.38459 0.1143,0.69048 0.33984,0.91602 0.22699,0.22555 0.53245,0.33789 0.91992,0.33789 0.1547,0 0.30862,-0.0151 0.45899,-0.0469 0.15036,-0.0318 0.29632,-0.0779 0.43945,-0.13867 v -0.3789 c -0.14168,0.0752 -0.28511,0.13232 -0.42969,0.16992 -0.14313,0.0376 -0.2901,0.0566 -0.44335,0.0566 -0.26459,0 -0.47218,-0.0717 -0.6211,-0.21484 -0.14749,-0.14458 -0.22876,-0.35421 -0.24609,-0.62891 h 1.83398 v -0.19531 c 0,-0.36146 -0.0963,-0.64779 -0.28711,-0.85743 -0.1894,-0.21108 -0.44668,-0.3164 -0.77344,-0.3164 z m 2.88282,0 c -0.17494,0 -0.3259,0.0366 -0.45313,0.10742 -0.12723,0.0708 -0.23704,0.17921 -0.32812,0.32813 v -0.37696 h -0.40235 v 2.42969 h 0.40235 v -1.37305 c 0,-0.23566 0.0597,-0.4232 0.17969,-0.56054 0.12,-0.1388 0.28247,-0.20704 0.48632,-0.20704 0.17206,0 0.29846,0.0552 0.38086,0.16797 0.0824,0.11133 0.12305,0.28531 0.12305,0.51953 v 1.45313 h 0.40234 v -1.37305 c 0,-0.2371 0.0597,-0.42514 0.17969,-0.5625 0.12,-0.13735 0.28348,-0.20508 0.49024,-0.20508 0.16915,0 0.29453,0.0552 0.37695,0.16797 0.0824,0.11278 0.125,0.28676 0.125,0.51953 v 1.45313 h 0.40039 v -1.4668 c 0,-0.32675 -0.0697,-0.57752 -0.20703,-0.7539 -0.13736,-0.17784 -0.33097,-0.26758 -0.58399,-0.26758 -0.18795,0 -0.35143,0.0436 -0.49023,0.1289 -0.13879,0.0853 -0.25962,0.21721 -0.35938,0.39649 -0.0593,-0.17061 -0.15105,-0.30099 -0.27539,-0.39063 -0.12288,-0.0896 -0.27087,-0.13476 -0.44726,-0.13476 z m 4.32422,0 c -0.17784,0 -0.33226,0.0366 -0.46094,0.10742 -0.12723,0.0694 -0.23255,0.17573 -0.31641,0.32031 v -0.36914 h -0.40039 v 3.35352 h 0.40039 v -1.28906 c 0.0839,0.14457 0.18918,0.25337 0.31641,0.32421 0.12868,0.0694 0.2831,0.10352 0.46094,0.10352 0.29494,0 0.53317,-0.11734 0.71679,-0.35156 0.18506,-0.23422 0.27735,-0.54214 0.27735,-0.92383 0,-0.38169 -0.0923,-0.68961 -0.27735,-0.92383 -0.18362,-0.23422 -0.42185,-0.35156 -0.71679,-0.35156 z m 3.74023,0 c -0.13012,0 -0.26304,0.014 -0.40039,0.043 -0.13735,0.0274 -0.27975,0.0705 -0.42578,0.12695 v 0.36914 c 0.12145,-0.0665 0.24734,-0.11712 0.3789,-0.15039 0.13157,-0.0333 0.26745,-0.0508 0.40626,-0.0508 0.21831,0 0.38781,0.0511 0.50781,0.15234 0.12144,0.0998 0.18164,0.24217 0.18164,0.42578 v 0.0391 h -0.5586 c -0.36289,0 -0.63669,0.0682 -0.82031,0.20703 -0.18217,0.1388 -0.27344,0.34588 -0.27344,0.61914 0,0.23422 0.0727,0.4203 0.21875,0.56054 0.14748,0.1388 0.34507,0.20899 0.59375,0.20899 0.19663,0 0.3641,-0.0341 0.5,-0.10352 0.1359,-0.0708 0.24876,-0.18065 0.33985,-0.32812 v 0.36914 h 0.39844 v -1.38672 c 0,-0.37013 -0.0863,-0.64596 -0.25977,-0.82812 -0.17349,-0.18218 -0.43578,-0.27344 -0.78711,-0.27344 z m 4.63281,0 c -0.36434,0 -0.65371,0.11734 -0.86914,0.35156 -0.21398,0.23277 -0.32226,0.54772 -0.32226,0.94531 0,0.38459 0.11234,0.69048 0.33789,0.91602 0.22699,0.22555 0.5344,0.33789 0.92187,0.33789 0.1547,0 0.30863,-0.0151 0.45899,-0.0469 0.15036,-0.0318 0.29632,-0.0779 0.43945,-0.13867 v -0.3789 c -0.14169,0.0752 -0.28511,0.13232 -0.42969,0.16992 -0.14313,0.0376 -0.2901,0.0566 -0.44336,0.0566 -0.26458,0 -0.47218,-0.0717 -0.62109,-0.21484 -0.14749,-0.14458 -0.23071,-0.35421 -0.24805,-0.62891 h 1.83594 v -0.19531 c 0,-0.36146 -0.0963,-0.64779 -0.28711,-0.85743 -0.1894,-0.21108 -0.44668,-0.3164 -0.77344,-0.3164 z m -8.4707,0.33398 c 0.21109,0 0.37609,0.0842 0.49609,0.25196 0.12145,0.16626 0.18164,0.39595 0.18164,0.68945 0,0.29349 -0.0602,0.52369 -0.18164,0.6914 -0.12,0.16627 -0.285,0.25 -0.49609,0.25 -0.21109,10e-6 -0.37855,-0.0837 -0.5,-0.25 -0.12001,-0.16771 -0.17969,-0.39791 -0.17969,-0.6914 0,-0.2935 0.0597,-0.52319 0.17969,-0.68945 0.12145,-0.16772 0.28891,-0.25196 0.5,-0.25196 z m -7.10547,0.004 c 0.19663,0 0.3541,0.0652 0.47266,0.19531 0.12022,0.13012 0.18288,0.30512 0.18554,0.52344 l -1.42382,0.002 c 0.0202,-0.22844 0.0975,-0.40547 0.23047,-0.53125 0.13445,-0.12578 0.3125,-0.18945 0.53515,-0.18945 z m 15.58008,0 c 0.19663,0 0.3541,0.0652 0.47266,0.19531 0.12022,0.13012 0.18288,0.30512 0.18554,0.52344 l -1.42383,0.002 c 0.0202,-0.22844 0.0975,-0.40547 0.23047,-0.53125 0.13446,-0.12578 0.31251,-0.18945 0.53516,-0.18945 z m -4.38477,0.92969 h 0.39649 v 0.0879 c 0,0.26024 -0.0667,0.46936 -0.20117,0.62695 -0.13302,0.15615 -0.31005,0.23437 -0.53125,0.23437 -0.16048,0 -0.28884,-0.0406 -0.38282,-0.12304 -0.0925,-0.0839 -0.13867,-0.19621 -0.13867,-0.33789 0,-0.17784 0.0632,-0.30518 0.1875,-0.37891 0.12434,-0.0737 0.34751,-0.10937 0.66992,-0.10937 z" style="font-size:medium;line-height:1000%;font-family:sans-serif;letter-spacing:0px;word-spacing:0px;display:inline;fill:#ffffff;fill-opacity:0.53125;stroke:none;stroke-width:0.27759334px;stroke-linecap:butt;stroke-linejoin:miter;stroke-opacity:1" inkscape:label="txt-template"/>
      <path inkscape:label="Pestaña sombra" style="display:inline;fill:url(#linearGradient8277);fill-opacity:1;fill-rule:evenodd;stroke:none;stroke-width:2.19524717px;stroke-linecap:butt;stroke-linejoin:miter;stroke-opacity:1" d="m 168.99999,120 24,24 -27,2.94489 z" id="path8834" inkscape:connector-curvature="0" sodipodi:nodetypes="cccc"/>
      <path inkscape:label="Pestaña" sodipodi:nodetypes="cccc" inkscape:connector-curvature="0" id="path8836" d="m 168.99999,120 24,24 h -24 z" style="fill:url(#linearGradient8852);fill-opacity:1;fill-rule:evenodd;stroke:none;stroke-width:2.34681797px;stroke-linecap:butt;stroke-linejoin:miter;stroke-opacity:1"/>
      <rect inkscape:label="Hoja brillo superior" y="120" x="126.99999" height="1" width="42" id="rect7891" style="color:#000000;clip-rule:nonzero;display:block;overflow:visible;visibility:visible;opacity:1;isolation:auto;mix-blend-mode:normal;color-interpolation:sRGB;color-interpolation-filters:linearRGB;solid-color:#000000;solid-opacity:1;vector-effect:none;fill:url(#linearGradient8271);fill-opacity:1;fill-rule:nonzero;stroke:none;stroke-width:0.2;stroke-linecap:butt;stroke-linejoin:miter;stroke-miterlimit:4;stroke-dasharray:none;stroke-dashoffset:0;stroke-opacity:1;marker:none;marker-start:none;marker-mid:none;marker-end:none;paint-order:fill markers stroke;color-rendering:auto;image-rendering:auto;shape-rendering:auto;text-rendering:auto;enable-background:accumulate"/>
    </g>
  </g>
</svg>