<?xml version="1.0" encoding="UTF-8" standalone="no"?>
<!-- Created with Inkscape (http://www.inkscape.org/) -->

<svg
   xmlns:osb="http://www.openswatchbook.org/uri/2009/osb"
   xmlns:dc="http://purl.org/dc/elements/1.1/"
   xmlns:cc="http://creativecommons.org/ns#"
   xmlns:rdf="http://www.w3.org/1999/02/22-rdf-syntax-ns#"
   xmlns:svg="http://www.w3.org/2000/svg"
   xmlns="http://www.w3.org/2000/svg"
   xmlns:xlink="http://www.w3.org/1999/xlink"
   xmlns:sodipodi="http://sodipodi.sourceforge.net/DTD/sodipodi-0.dtd"
   xmlns:inkscape="http://www.inkscape.org/namespaces/inkscape"
   width="48"
   height="48"
   viewBox="0 0 48 48.000002"
   id="svg2"
   version="1.1"
   inkscape:version="0.91 r13725"
   sodipodi:docname="goa-panel.svg">
  <defs
     id="defs4">
    <linearGradient
       inkscape:collect="always"
       id="linearGradient4654">
      <stop
         style="stop-color:#cbedff;stop-opacity:1"
         offset="0"
         id="stop4656" />
      <stop
         style="stop-color:#496883;stop-opacity:1"
         offset="1"
         id="stop4658" />
    </linearGradient>
    <linearGradient
       id="linearGradient6193"
       osb:paint="solid">
      <stop
         style="stop-color:#34495e;stop-opacity:1;"
         offset="0"
         id="stop6195" />
    </linearGradient>
    <linearGradient
       inkscape:collect="always"
       xlink:href="#linearGradient4304"
       id="linearGradient4277-6"
       x1="62.631218"
       y1="33.504311"
       x2="47.058731"
       y2="20.599609"
       gradientUnits="userSpaceOnUse"
       gradientTransform="matrix(1.0290863,0,0,1.0290863,-21.727148,-2.1078417)" />
    <linearGradient
       id="linearGradient4304"
       inkscape:collect="always">
      <stop
         id="stop4306"
         offset="0"
         style="stop-color:#ad96cd;stop-opacity:1" />
      <stop
         id="stop4308"
         offset="1"
         style="stop-color:#d2e4fa;stop-opacity:0;" />
    </linearGradient>
    <linearGradient
       inkscape:collect="always"
       xlink:href="#linearGradient4271"
       id="linearGradient4277"
       x1="22.768072"
       y1="34.653358"
       x2="47.058731"
       y2="20.599609"
       gradientUnits="userSpaceOnUse"
       gradientTransform="matrix(1.0290863,0,0,1.0290863,-21.692383,-2.172507)" />
    <linearGradient
       inkscape:collect="always"
       id="linearGradient4271">
      <stop
         style="stop-color:#549cbe;stop-opacity:1"
         offset="0"
         id="stop4273" />
      <stop
         style="stop-color:#d2e4fa;stop-opacity:0;"
         offset="1"
         id="stop4275" />
    </linearGradient>
    <linearGradient
       inkscape:collect="always"
       xlink:href="#linearGradient4359"
       id="linearGradient4277-6-1"
       x1="47.340034"
       y1="34.741749"
       x2="47.058731"
       y2="20.599609"
       gradientUnits="userSpaceOnUse"
       gradientTransform="matrix(1.0290863,0,0,1.0290863,-21.727145,-2.2126427)" />
    <linearGradient
       inkscape:collect="always"
       id="linearGradient4359">
      <stop
         style="stop-color:#041520;stop-opacity:0.89411765"
         offset="0"
         id="stop4361" />
      <stop
         style="stop-color:#d2e4fa;stop-opacity:0;"
         offset="1"
         id="stop4363" />
    </linearGradient>
    <radialGradient
       inkscape:collect="always"
       xlink:href="#linearGradient4365"
       id="radialGradient4371"
       cx="-10.429825"
       cy="0.91637552"
       fx="-10.429825"
       fy="0.91637552"
       r="22.044825"
       gradientTransform="matrix(-0.59247263,0.54464575,-0.46074529,-0.50120463,16.721873,11.721348)"
       gradientUnits="userSpaceOnUse" />
    <linearGradient
       inkscape:collect="always"
       id="linearGradient4365">
      <stop
         style="stop-color:#9ab9d8;stop-opacity:1"
         offset="0"
         id="stop4367" />
      <stop
         style="stop-color:#415bab;stop-opacity:1"
         offset="1"
         id="stop4369" />
    </linearGradient>
    <linearGradient
       inkscape:collect="always"
       xlink:href="#linearGradient4654"
       id="linearGradient4660"
       x1="26.251337"
       y1="28.024233"
       x2="25.986174"
       y2="13.70532"
       gradientUnits="userSpaceOnUse"
       gradientTransform="matrix(1.417035,0,0,1.417035,-10.505929,-7.3037862)" />
  </defs>
  <sodipodi:namedview
     id="base"
     pagecolor="#ffffff"
     bordercolor="#666666"
     borderopacity="1.0"
     inkscape:pageopacity="0.0"
     inkscape:pageshadow="2"
     inkscape:zoom="11.313709"
     inkscape:cx="19.593932"
     inkscape:cy="18.625376"
     inkscape:document-units="px"
     inkscape:current-layer="layer1"
     showgrid="false"
     units="px"
     inkscape:showpageshadow="false"
     borderlayer="true"
     inkscape:window-width="1920"
     inkscape:window-height="1144"
     inkscape:window-x="0"
     inkscape:window-y="27"
     inkscape:window-maximized="1"
     showguides="true"
     inkscape:snap-global="false">
    <inkscape:grid
       type="xygrid"
       id="grid4136" />
    <sodipodi:guide
       position="5,59.000069"
       orientation="54,0"
       id="guide4142" />
    <sodipodi:guide
       position="5,5.0000688"
       orientation="0,54"
       id="guide4144" />
    <sodipodi:guide
       position="-1.5909903,43.000002"
       orientation="0,1"
       id="guide4156"
       inkscape:label=""
       inkscape:color="rgb(0,0,255)" />
    <sodipodi:guide
       position="43,46.895545"
       orientation="1,0"
       id="guide4200"
       inkscape:label=""
       inkscape:color="rgb(0,0,255)" />
  </sodipodi:namedview>
  <metadata
     id="metadata7">
    <rdf:RDF>
      <cc:Work
         rdf:about="">
        <dc:format>image/svg+xml</dc:format>
        <dc:type
           rdf:resource="http://purl.org/dc/dcmitype/StillImage" />
        <dc:title></dc:title>
      </cc:Work>
    </rdf:RDF>
  </metadata>
  <g
     inkscape:groupmode="layer"
     id="layer1"
     inkscape:label="Layer 1"
     style="display:inline">
    <ellipse
       style="display:inline;fill:#000000;fill-opacity:0.17661097;stroke:none;stroke-width:0.58999997;stroke-linejoin:miter;stroke-miterlimit:0;stroke-dasharray:none;stroke-opacity:0.11217185"
       id="path4222"
       cx="24.400223"
       cy="41.921413"
       rx="16.151203"
       ry="1.0005515" />
    <g
       inkscape:groupmode="layer"
       id="layer12"
       inkscape:label="Layer 10">
      <path
         inkscape:connector-curvature="0"
         style="display:inline;fill:url(#radialGradient4371);fill-opacity:1;stroke:none;stroke-width:0.58999997;stroke-linejoin:miter;stroke-miterlimit:0;stroke-dasharray:none;stroke-opacity:0.11217185"
         d="m 25.932363,3.8533826 c -4.689641,0.00444 -8.940331,2.5282629 -10.85967,6.4478564 -0.303863,-0.05156 -0.611837,-0.07846 -0.920552,-0.08039 -2.988548,6.97e-4 -5.4108292,2.290707 -5.41074,5.115282 0.00144,0.416845 0.056791,0.831961 0.164815,1.236111 -4.477164,0.709832 -7.6578535,4.106026 -7.6578535,8.703013 0,4.761983 3.8345051,8.594479 8.5964905,8.594479 l 27.632572,0 c 4.761994,0 9.24617,-6.653584 9.141182,-11.414416 -0.09045,-4.101962 -5.046772,-9.508847 -8.891949,-9.143191 C 36.931339,7.9007167 31.893108,3.8601767 25.932363,3.8533826 Z"
         id="rect4195-7"
         sodipodi:nodetypes="cccccsssscc" />
    </g>
    <g
       inkscape:groupmode="layer"
       id="layer11"
       inkscape:label="Layer 9">
      <path
         inkscape:connector-curvature="0"
         style="display:inline;fill:#d2e4fa;fill-opacity:1;stroke:none;stroke-width:0.58999997;stroke-linejoin:miter;stroke-miterlimit:0;stroke-dasharray:none;stroke-opacity:0.11217185"
         d="m 25.827567,5.0061931 c -4.689644,0.00444 -8.940335,2.5282657 -10.859673,6.4478619 -0.303862,-0.05156 -0.611836,-0.07846 -0.92055,-0.08039 -2.988549,6.95e-4 -5.410832,2.290705 -5.410744,5.11528 0.00144,0.416846 0.05679,0.831962 0.1648149,1.236114 -4.4771634,0.709832 -7.6578534,4.106027 -7.6578534,8.703013 0,4.761984 3.8345049,8.594479 8.5964925,8.594479 l 27.632574,0 c 4.761994,0 9.24617,-6.653586 9.141182,-11.414416 C 46.42335,19.50617 41.467037,14.099283 37.62186,14.46494 36.826544,9.053531 31.788313,5.012988 25.827567,5.0061931 Z"
         id="rect4195"
         sodipodi:nodetypes="cccccsssscc" />
    </g>
    <g
       inkscape:groupmode="layer"
       id="layer10"
       inkscape:label="Layer 8">
      <path
         inkscape:connector-curvature="0"
         style="display:inline;fill:url(#linearGradient4277-6-1);fill-opacity:1;stroke:none;stroke-width:0.58999997;stroke-linejoin:miter;stroke-miterlimit:0;stroke-dasharray:none;stroke-opacity:0.11217185"
         d="m 25.932362,4.7965918 c -4.689641,0.00445 -8.94033,2.5282681 -10.859666,6.4478632 -0.303862,-0.05156 -0.611835,-0.07846 -0.920549,-0.08039 -2.988549,6.94e-4 -5.4108329,2.290705 -5.4107437,5.115282 0.00144,0.416844 0.05679,0.83196 0.1648138,1.23611 -4.4771651,0.709832 -7.6578552,4.106029 -7.6578552,8.703014 0,4.761984 3.8345049,8.594478 8.5964943,8.594478 l 27.6325678,0 c 4.761995,0 9.246177,-6.653585 9.141189,-11.414415 C 46.528154,19.29657 41.571834,13.889684 37.726655,14.25534 36.93134,8.8439302 31.893109,4.8033867 25.932362,4.7965918 Z"
         id="rect4195-9-5-3"
         sodipodi:nodetypes="cccccsssscc" />
    </g>
    <g
       inkscape:groupmode="layer"
       id="layer9"
       inkscape:label="Layer 7"
       style="display:inline">
      <path
         inkscape:connector-curvature="0"
         style="display:inline;fill:url(#linearGradient4277);fill-opacity:1;stroke:none;stroke-width:0.58999997;stroke-linejoin:miter;stroke-miterlimit:0;stroke-dasharray:none;stroke-opacity:0.11217185"
         d="m 25.967132,4.836728 c -4.689644,0.00445 -8.940335,2.5282675 -10.859671,6.447864 -0.303862,-0.05157 -0.611836,-0.07847 -0.92055,-0.0804 -2.98855,6.95e-4 -5.4108338,2.290706 -5.4107447,5.115282 0.00144,0.416845 0.056791,0.831961 0.164815,1.236112 -4.4771642,0.709834 -7.6578536,4.106028 -7.6578536,8.703013 0,4.761986 3.8345048,8.594479 8.5964927,8.594479 l 27.6325726,0 c 4.761994,0 9.246171,-6.653585 9.141182,-11.414416 -0.09046,-4.101962 -5.046773,-9.508847 -8.89195,-9.14319 C 36.966106,8.8840624 31.927877,4.8435225 25.967132,4.836728 Z"
         id="rect4195-9"
         sodipodi:nodetypes="cccccsssscc" />
    </g>
    <g
       inkscape:groupmode="layer"
       id="layer6"
       inkscape:label="Layer 2"
       style="display:inline">
      <path
         inkscape:connector-curvature="0"
         style="display:inline;fill:url(#linearGradient4277-6);fill-opacity:1;stroke:none;stroke-width:0.58999997;stroke-linejoin:miter;stroke-miterlimit:0;stroke-dasharray:none;stroke-opacity:0.11217185"
         d="m 25.932366,4.9013931 c -4.689643,0.00444 -8.940334,2.5282653 -10.859672,6.4478609 -0.303863,-0.05156 -0.611836,-0.07846 -0.920551,-0.08039 -2.988549,6.96e-4 -5.4108317,2.290707 -5.410742,5.115283 0.00144,0.416846 0.056791,0.831961 0.164815,1.236112 -4.4771643,0.709833 -7.6578533,4.106027 -7.6578533,8.703013 0,4.761984 3.834505,8.594478 8.5964913,8.594478 l 27.632572,0 c 4.761994,0 9.246171,-6.653585 9.141182,-11.414414 -0.09046,-4.101962 -5.04677,-9.508849 -8.891949,-9.143193 C 36.931342,8.9487309 31.893112,4.9081884 25.932366,4.9013931 Z"
         id="rect4195-9-5"
         sodipodi:nodetypes="cccccsssscc" />
    </g>
    <g
       inkscape:groupmode="layer"
       id="layer8"
       inkscape:label="Layer 6" />
    <g
       inkscape:groupmode="layer"
       id="layer7"
       inkscape:label="llave"
       style="display:inline" />
  </g>
  <g
     inkscape:groupmode="layer"
     id="layer13"
     inkscape:label="Layer 3">
    <circle
       style="opacity:1;fill:url(#linearGradient4660);fill-opacity:1;stroke:none;stroke-width:1;stroke-linecap:butt;stroke-linejoin:round;stroke-miterlimit:4;stroke-dasharray:none;stroke-opacity:1"
       id="path4652"
       cx="25.440643"
       cy="22.137081"
       r="10.270449" />
    <path
       style="opacity:1;fill:#1d3142;fill-opacity:1;stroke:none;stroke-width:1;stroke-linecap:butt;stroke-linejoin:round;stroke-miterlimit:4;stroke-dasharray:none;stroke-opacity:1"
       d="m 23.301227,15.207207 4.099954,0 0,2.593796 -1.141272,2.075039 1.141272,2.178789 0,7.262628 -4.099954,0 0,-5.546686 1.468425,-1.520673 -1.468425,-2.534456 z"
       id="rect4662"
       inkscape:connector-curvature="0"
       sodipodi:nodetypes="ccccccccccc" />
    <path
       style="color:#000000;font-style:normal;font-variant:normal;font-weight:normal;font-stretch:normal;font-size:medium;line-height:normal;font-family:sans-serif;text-indent:0;text-align:start;text-decoration:none;text-decoration-line:none;text-decoration-style:solid;text-decoration-color:#000000;letter-spacing:normal;word-spacing:normal;text-transform:none;direction:ltr;block-progression:tb;writing-mode:lr-tb;baseline-shift:baseline;text-anchor:start;white-space:normal;clip-rule:nonzero;display:inline;overflow:visible;visibility:visible;opacity:1;isolation:auto;mix-blend-mode:normal;color-interpolation:sRGB;color-interpolation-filters:linearRGB;solid-color:#000000;solid-opacity:1;fill:#dedede;fill-opacity:1;fill-rule:nonzero;stroke:#363636;stroke-width:0.50000006;stroke-linecap:butt;stroke-linejoin:round;stroke-miterlimit:4;stroke-dasharray:none;stroke-dashoffset:0;stroke-opacity:0.83798888;color-rendering:auto;image-rendering:auto;shape-rendering:auto;text-rendering:auto;enable-background:accumulate"
       d="m 60.457754,6.7083422 c -4.468081,0 -8.1016,3.6335178 -8.1016,8.1015998 0,4.468081 3.633519,8.1016 8.1016,8.1016 4.468082,0 8.1016,-3.633519 8.1016,-8.1016 0,-4.468082 -3.633518,-8.1015998 -8.1016,-8.1015998 z m 0,1.353553 c 3.732655,0 6.748047,3.0153928 6.748047,6.7480468 0,3.732654 -3.015392,6.748047 -6.748047,6.748047 -3.732654,0 -6.748047,-3.015393 -6.748047,-6.748047 0,-3.732654 3.015393,-6.7480468 6.748047,-6.7480468 z"
       id="path4652-2"
       inkscape:connector-curvature="0"
       sodipodi:nodetypes="ssssssssss" />
  </g>
  <g
     inkscape:groupmode="layer"
     id="layer14"
     inkscape:label="Layer 4">
    <path
       style="color:#000000;font-style:normal;font-variant:normal;font-weight:normal;font-stretch:normal;font-size:medium;line-height:normal;font-family:sans-serif;text-indent:0;text-align:start;text-decoration:none;text-decoration-line:none;text-decoration-style:solid;text-decoration-color:#000000;letter-spacing:normal;word-spacing:normal;text-transform:none;direction:ltr;block-progression:tb;writing-mode:lr-tb;baseline-shift:baseline;text-anchor:start;white-space:normal;clip-rule:nonzero;display:inline;overflow:visible;visibility:visible;opacity:1;isolation:auto;mix-blend-mode:normal;color-interpolation:sRGB;color-interpolation-filters:linearRGB;solid-color:#000000;solid-opacity:1;fill:#1d3142;fill-opacity:1;fill-rule:nonzero;stroke:none;stroke-width:1.00000012;stroke-linecap:butt;stroke-linejoin:round;stroke-miterlimit:4;stroke-dasharray:none;stroke-dashoffset:0;stroke-opacity:1;color-rendering:auto;image-rendering:auto;shape-rendering:auto;text-rendering:auto;enable-background:accumulate"
       d="m 64.478207,24.389268 c -1.688853,0 -2.686764,1.539996 -2.686764,3.453376 l 0,7.679028 c -1.731843,0.975949 -3.265706,2.760526 -3.265706,4.791225 0,3.063574 2.659854,5.578076 5.900519,5.578076 3.240666,0 5.901095,-2.514502 5.901095,-5.578076 0,-2.003757 -1.400247,-3.767619 -3.094439,-4.751832 l -0.03708,-2.150063 -1.497957,-1.052363 -0.03651,-0.982752 1.022999,-0.671892 -0.03651,-0.672434 -0.986462,-0.671894 0.03651,-0.810052 c 0,0 0.537616,-0.53943 1.461426,-1.190521 0.133943,-1.540736 -0.99221,-2.969826 -2.681067,-2.969826 z m -0.05185,14.556657 c 0.951015,0 1.702165,0.709774 1.702165,1.608818 0,0.899048 -0.75115,1.608818 -1.702165,1.608818 -0.951013,0 -1.701817,-0.70977 -1.701817,-1.608818 0,-0.899044 0.750804,-1.608818 1.701817,-1.608818 z"
       id="path4262"
       inkscape:connector-curvature="0"
       sodipodi:nodetypes="sscssscccccccccsssssss" />
  </g>
</svg>
