<?xml version="1.0" encoding="UTF-8" standalone="no"?>
<svg
   xmlns:dc="http://purl.org/dc/elements/1.1/"
   xmlns:cc="http://creativecommons.org/ns#"
   xmlns:rdf="http://www.w3.org/1999/02/22-rdf-syntax-ns#"
   xmlns:svg="http://www.w3.org/2000/svg"
   xmlns="http://www.w3.org/2000/svg"
   xmlns:xlink="http://www.w3.org/1999/xlink"
   xmlns:sodipodi="http://sodipodi.sourceforge.net/DTD/sodipodi-0.dtd"
   xmlns:inkscape="http://www.inkscape.org/namespaces/inkscape"
   height="48"
   viewBox="0 0 44.999999 44.999999"
   width="48"
   id="svg2"
   version="1.1"
   inkscape:version="0.92.0 r"
   sodipodi:docname="gufw.svg">
  <metadata
     id="metadata24">
    <rdf:RDF>
      <cc:Work
         rdf:about="">
        <dc:format>image/svg+xml</dc:format>
        <dc:type
           rdf:resource="http://purl.org/dc/dcmitype/StillImage" />
        <dc:title />
      </cc:Work>
    </rdf:RDF>
  </metadata>
  <defs
     id="defs22">
    <linearGradient
       inkscape:collect="always"
       id="linearGradient10165">
      <stop
         style="stop-color:#eeeeee;stop-opacity:1;"
         offset="0"
         id="stop10161" />
      <stop
         id="stop4584"
         offset="0.41331291"
         style="stop-color:#a2a2a2;stop-opacity:1;" />
      <stop
         id="stop4582"
         offset="0.49493894"
         style="stop-color:#707070;stop-opacity:1" />
      <stop
         id="stop11618"
         offset="0.53019929"
         style="stop-color:#838383;stop-opacity:1" />
      <stop
         style="stop-color:#d2d2d2;stop-opacity:1"
         offset="1"
         id="stop10163" />
    </linearGradient>
    <linearGradient
       id="linearGradient9232"
       inkscape:collect="always">
      <stop
         id="stop9228"
         offset="0"
         style="stop-color:#f5f8fc;stop-opacity:1" />
      <stop
         id="stop9230"
         offset="1"
         style="stop-color:#839bae;stop-opacity:0.95686275" />
    </linearGradient>
    <linearGradient
       inkscape:collect="always"
       id="linearGradient4261">
      <stop
         style="stop-color:#000000;stop-opacity:1;"
         offset="0"
         id="stop4263" />
      <stop
         style="stop-color:#000000;stop-opacity:0;"
         offset="1"
         id="stop4265" />
    </linearGradient>
    <linearGradient
       inkscape:collect="always"
       id="linearGradient49897">
      <stop
         style="stop-color:#176875;stop-opacity:1"
         offset="0"
         id="stop49899" />
      <stop
         style="stop-color:#186a77;stop-opacity:1"
         offset="1"
         id="stop49901" />
    </linearGradient>
    <linearGradient
       inkscape:collect="always"
       id="linearGradient4536">
      <stop
         style="stop-color:#b6b6b6;stop-opacity:1"
         offset="0"
         id="stop4538" />
      <stop
         id="stop4544"
         offset="0.48217213"
         style="stop-color:#ffffff;stop-opacity:1;" />
      <stop
         style="stop-color:#cfcfcf;stop-opacity:1"
         offset="1"
         id="stop4540" />
    </linearGradient>
    <linearGradient
       inkscape:collect="always"
       id="linearGradient4492">
      <stop
         style="stop-color:#165dc2;stop-opacity:1;"
         offset="0"
         id="stop4494" />
      <stop
         style="stop-color:#1680c2;stop-opacity:1"
         offset="1"
         id="stop4496" />
    </linearGradient>
    <inkscape:perspective
       sodipodi:type="inkscape:persp3d"
       inkscape:vp_x="0 : 49.999999 : 1"
       inkscape:vp_y="0 : 999.99998 : 0"
       inkscape:vp_z="99.999998 : 49.999999 : 1"
       inkscape:persp3d-origin="49.999999 : 33.333332 : 1"
       id="perspective4380" />
    <filter
       style="color-interpolation-filters:sRGB"
       id="filter4672"
       inkscape:label="filtro0">
      <feGaussianBlur
         stdDeviation="19.539999999999999"
         id="feGaussianBlur4674" />
    </filter>
    <filter
       style="color-interpolation-filters:sRGB"
       id="filter4680"
       inkscape:label="filtro1">
      <feDiffuseLighting
         id="feDiffuseLighting4682" />
    </filter>
    <linearGradient
       gradientTransform="translate(-29.321003,-3.241)"
       inkscape:collect="always"
       xlink:href="#linearGradient4492"
       id="linearGradient4498-3"
       x1="32.94767"
       y1="16.16"
       x2="41.579502"
       y2="6.4204984"
       gradientUnits="userSpaceOnUse" />
    <linearGradient
       gradientTransform="translate(-29.321003,-3.241)"
       inkscape:collect="always"
       xlink:href="#linearGradient4536"
       id="linearGradient4542-0"
       x1="29.321003"
       y1="10.72"
       x2="44.279003"
       y2="10.72"
       gradientUnits="userSpaceOnUse" />
    <linearGradient
       id="linearGradient3244"
       inkscape:collect="always">
      <stop
         id="stop3246"
         offset="0"
         style="stop-color:#d0611f;stop-opacity:1" />
      <stop
         id="stop3248"
         offset="1"
         style="stop-color:#f77a2c;stop-opacity:1" />
    </linearGradient>
    <linearGradient
       inkscape:collect="always"
       xlink:href="#linearGradient3244"
       id="linearGradient3242-3"
       gradientUnits="userSpaceOnUse"
       gradientTransform="matrix(0.49438202,0,0,0.49438202,-34.11236,-485.66219)"
       x1="78.89711"
       y1="1042.14"
       x2="78.89711"
       y2="982.4278" />
    <symbol
       id="icon-refresh"
       viewBox="0 0 24 28">
      <title
         id="title9852">refresh</title>
      <path
         class="path1"
         d="m 23.609,16.5 c 0,0.031 0,0.078 -0.016,0.109 C 22.265,22.14 17.702,26 11.937,26 8.89,26 5.937,24.797 3.718,22.687 L 1.702,24.703 C 1.515,24.89 1.264,25 0.999,25 c -0.547,0 -1,-0.453 -1,-1 v -7 c 0,-0.547 0.453,-1 1,-1 h 7 c 0.547,0 1,0.453 1,1 0,0.266 -0.109,0.516 -0.297,0.703 L 6.561,19.844 C 8.03,21.219 9.983,22 11.998,22 c 2.781,0 5.359,-1.437 6.813,-3.813 0.375,-0.609 0.562,-1.203 0.828,-1.828 C 19.717,16.14 19.873,16 20.108,16 h 3 c 0.281,0 0.5,0.234 0.5,0.5 z M 24,4 v 7 c 0,0.547 -0.453,1 -1,1 h -7 c -0.547,0 -1,-0.453 -1,-1 0,-0.266 0.109,-0.516 0.297,-0.703 L 17.453,8.141 C 15.969,6.766 14.016,6 12,6 9.219,6 6.641,7.437 5.187,9.813 4.812,10.422 4.625,11.016 4.359,11.641 4.281,11.86 4.125,12 3.89,12 H 0.781 C 0.5,12 0.281,11.766 0.281,11.5 V 11.391 C 1.625,5.844 6.234,2 12,2 c 3.063,0 6.047,1.219 8.266,3.313 L 22.297,3.297 C 22.484,3.11 22.735,3 23,3 c 0.547,0 1,0.453 1,1 z"
         id="path9854"
         inkscape:connector-curvature="0" />
    </symbol>
    <symbol
       id="symbol5687">
      <title
         id="title5689">Replay</title>
      <path
         d="M 24,10 V 2 L 14,12 24,22 v -8 c 6.63,0 12,5.37 12,12 0,6.63 -5.37,12 -12,12 C 17.37,38 12,32.63 12,26 H 8 c 0,8.84 7.16,16 16,16 8.84,0 16,-7.16 16,-16 0,-8.84 -7.16,-16 -16,-16 z"
         style="stroke:none"
         id="path5691"
         inkscape:connector-curvature="0" />
    </symbol>
    <symbol
       id="symbol20353">
      <title
         id="title20355">Refresh</title>
      <path
         d="M 35.3,12.7 C 32.41,9.8 28.42,8 24,8 15.16,8 8.02,15.16 8.02,24 c 0,8.84 7.14,16 15.98,16 7.45,0 13.69,-5.1 15.46,-12 H 35.3 c -1.65,4.66 -6.07,8 -11.3,8 -6.63,0 -12,-5.37 -12,-12 0,-6.63 5.37,-12 12,-12 3.31,0 6.28,1.38 8.45,3.55 L 26,22 H 40 V 8 Z"
         style="stroke:none"
         id="path20357"
         inkscape:connector-curvature="0" />
    </symbol>
    <linearGradient
       inkscape:collect="always"
       xlink:href="#linearGradient49897"
       id="linearGradient49903-2"
       x1="24.333614"
       y1="44.351692"
       x2="24.333614"
       y2="-0.59979343"
       gradientUnits="userSpaceOnUse" />
    <linearGradient
       inkscape:collect="always"
       xlink:href="#linearGradient49897"
       id="linearGradient50365"
       gradientUnits="userSpaceOnUse"
       x1="24.333614"
       y1="44.351692"
       x2="24.333614"
       y2="-0.59979343"
       gradientTransform="matrix(1.0514827,0,0,1.0514827,-1.2359443,-1.105721)" />
    <linearGradient
       inkscape:collect="always"
       xlink:href="#linearGradient4261"
       id="linearGradient4267"
       x1="8.0200005"
       y1="24"
       x2="40"
       y2="24"
       gradientUnits="userSpaceOnUse" />
    <linearGradient
       inkscape:collect="always"
       xlink:href="#linearGradient5837"
       id="linearGradient5835"
       x1="48.098293"
       y1="1020.2437"
       x2="48.51569"
       y2="997.2868"
       gradientUnits="userSpaceOnUse"
       gradientTransform="matrix(0.5453417,0,0,0.5453417,-3.6194927,-524.0498)" />
    <linearGradient
       id="linearGradient5837"
       inkscape:collect="always">
      <stop
         id="stop5839"
         offset="0"
         style="stop-color:#ffffff;stop-opacity:0.67539269" />
      <stop
         id="stop5841"
         offset="1"
         style="stop-color:#000000;stop-opacity:0.460733" />
    </linearGradient>
    <linearGradient
       inkscape:collect="always"
       xlink:href="#linearGradient4730"
       id="linearGradient4736"
       x1="43.890167"
       y1="988.82263"
       x2="43.890167"
       y2="1025.5593"
       gradientUnits="userSpaceOnUse"
       gradientTransform="matrix(0.31338433,0,0,0.31338433,7.4575516,-289.90996)" />
    <linearGradient
       inkscape:collect="always"
       id="linearGradient4730">
      <stop
         style="stop-color:#585858;stop-opacity:0.89528793"
         offset="0"
         id="stop4732" />
      <stop
         style="stop-color:#585858;stop-opacity:0.486911"
         offset="1"
         id="stop4734" />
    </linearGradient>
    <linearGradient
       inkscape:collect="always"
       xlink:href="#linearGradient5859"
       id="linearGradient5865"
       x1="48.843494"
       y1="994.26062"
       x2="48.843494"
       y2="1015.5479"
       gradientUnits="userSpaceOnUse"
       gradientTransform="matrix(0.49732777,0,0,0.49732777,-1.4206203,-474.37074)" />
    <linearGradient
       inkscape:collect="always"
       id="linearGradient5859">
      <stop
         style="stop-color:#ffffff;stop-opacity:0.45549738"
         offset="0"
         id="stop5861" />
      <stop
         style="stop-color:#ffffff;stop-opacity:0.92670155"
         offset="1"
         id="stop5863" />
    </linearGradient>
    <linearGradient
       inkscape:collect="always"
       xlink:href="#linearGradient4722"
       id="linearGradient4720"
       gradientUnits="userSpaceOnUse"
       gradientTransform="matrix(0.33937987,0,0,0.33937987,6.1764042,-315.61526)"
       x1="48.843494"
       y1="994.45337"
       x2="48.843494"
       y2="1014.9698" />
    <linearGradient
       id="linearGradient4722"
       inkscape:collect="always">
      <stop
         id="stop4724"
         offset="0"
         style="stop-color:#313131;stop-opacity:0.50980395" />
      <stop
         style="stop-color:#dfdfdf;stop-opacity:0.76078433"
         offset="0.60000002"
         id="stop4728" />
      <stop
         id="stop4726"
         offset="1"
         style="stop-color:#ffffff;stop-opacity:1" />
    </linearGradient>
    <linearGradient
       inkscape:collect="always"
       xlink:href="#linearGradient9232"
       id="linearGradient3221"
       gradientUnits="userSpaceOnUse"
       gradientTransform="matrix(0.84903281,0,0,0.84903281,-18.916881,-826.86482)"
       x1="48.528877"
       y1="1015.3485"
       x2="23.665667"
       y2="1015.3485" />
    <linearGradient
       inkscape:collect="always"
       id="linearGradient3143">
      <stop
         style="stop-color:#8db3d3;stop-opacity:1"
         offset="0"
         id="stop3145" />
      <stop
         style="stop-color:#47a198;stop-opacity:1"
         offset="1"
         id="stop3147" />
    </linearGradient>
    <linearGradient
       inkscape:collect="always"
       xlink:href="#linearGradient3143"
       id="linearGradient5819"
       gradientUnits="userSpaceOnUse"
       gradientTransform="matrix(0.84903278,0,0,0.84903278,-18.91688,-826.86479)"
       x1="49"
       y1="1012.1684"
       x2="70.55394"
       y2="1012.1684" />
    <linearGradient
       inkscape:collect="always"
       xlink:href="#linearGradient10165"
       id="linearGradient10167"
       x1="43.115879"
       y1="25.525976"
       x2="1.4625005"
       y2="25.525976"
       gradientUnits="userSpaceOnUse" />
    <symbol
       id="symbol11973">
      <title
         id="title11969">Done</title>
      <path
         d="M18 32.34l-8.34-8.34-2.83 2.83 11.17 11.17 24-24-2.83-2.83z"
         style="stroke:none"
         id="path11971" />
    </symbol>
    <symbol
       id="symbol12279">
      <title
         id="title12275">Polymer</title>
      <path
         d="M38 8h-8l-15.79 25.26-5.21-9.26 9-16h-8l-9 16 9 16h8l15.79-25.26 5.21 9.26-9 16h8l9-16z"
         style="stroke:none"
         id="path12277" />
    </symbol>
    <symbol
       id="symbol12353">
      <title
         id="title12349">Settings</title>
      <path
         d="M38.86 25.95c.08-.64.14-1.29.14-1.95s-.06-1.31-.14-1.95l4.23-3.31c.38-.3.49-.84.24-1.28l-4-6.93c-.25-.43-.77-.61-1.22-.43l-4.98 2.01c-1.03-.79-2.16-1.46-3.38-1.97l-.75-5.3c-.09-.47-.5-.84-1-.84h-8c-.5 0-.91.37-.99.84l-.75 5.3c-1.22.51-2.35 1.17-3.38 1.97l-4.98-2.01c-.45-.17-.97 0-1.22.43l-4 6.93c-.25.43-.14.97.24 1.28l4.22 3.31c-.08.64-.14 1.29-.14 1.95s.06 1.31.14 1.95l-4.22 3.31c-.38.3-.49.84-.24 1.28l4 6.93c.25.43.77.61 1.22.43l4.98-2.01c1.03.79 2.16 1.46 3.38 1.97l.75 5.3c.08.47.49.84.99.84h8c.5 0 .91-.37.99-.84l.75-5.3c1.22-.51 2.35-1.17 3.38-1.97l4.98 2.01c.45.17.97 0 1.22-.43l4-6.93c.25-.43.14-.97-.24-1.28l-4.22-3.31zm-14.86 5.05c-3.87 0-7-3.13-7-7s3.13-7 7-7 7 3.13 7 7-3.13 7-7 7z"
         style="stroke:none"
         id="path12351" />
    </symbol>
  </defs>
  <sodipodi:namedview
     pagecolor="#383c4a"
     bordercolor="#666666"
     borderopacity="1"
     objecttolerance="4"
     gridtolerance="10"
     guidetolerance="4"
     inkscape:pageopacity="0"
     inkscape:pageshadow="2"
     inkscape:window-width="640"
     inkscape:window-height="480"
     id="namedview20"
     showgrid="false"
     inkscape:zoom="9.3749999"
     inkscape:cx="29.926527"
     inkscape:cy="20.101266"
     inkscape:current-layer="layer7"
     inkscape:snap-smooth-nodes="true"
     showguides="true"
     borderlayer="true"
     inkscape:showpageshadow="false"
     inkscape:guide-bbox="true"
     guidecolor="#38cf02"
     guideopacity="0.49803922"
     inkscape:snap-nodes="true"
     inkscape:lockguides="true">
    <inkscape:grid
       type="xygrid"
       id="grid4171"
       empspacing="4"
       dotted="false"
       originx="0"
       originy="0"
       spacingx="1"
       spacingy="1" />
    <sodipodi:guide
       position="3.7499999,0"
       orientation="1,0"
       id="guide4173"
       inkscape:locked="true"
       inkscape:label=""
       inkscape:color="rgb(56,207,2)" />
    <sodipodi:guide
       position="41.249999,0"
       orientation="1,0"
       id="guide4175"
       inkscape:locked="true"
       inkscape:label=""
       inkscape:color="rgb(56,207,2)" />
    <sodipodi:guide
       position="0,41.249999"
       orientation="0,1"
       id="guide4177"
       inkscape:locked="true"
       inkscape:label=""
       inkscape:color="rgb(56,207,2)" />
    <sodipodi:guide
       position="0,3.7499999"
       orientation="0,1"
       id="guide4179"
       inkscape:locked="true"
       inkscape:label=""
       inkscape:color="rgb(56,207,2)" />
    <sodipodi:guide
       position="7.4999998,0"
       orientation="1,0"
       id="guide4243"
       inkscape:locked="true"
       inkscape:label=""
       inkscape:color="rgb(56,207,2)" />
    <sodipodi:guide
       position="37.499999,0"
       orientation="1,0"
       id="guide4251"
       inkscape:locked="true"
       inkscape:label=""
       inkscape:color="rgb(56,207,2)" />
    <sodipodi:guide
       position="0,37.499999"
       orientation="0,1"
       id="guide4514"
       inkscape:locked="true"
       inkscape:label=""
       inkscape:color="rgb(56,207,2)" />
    <sodipodi:guide
       position="0,7.4999998"
       orientation="0,1"
       id="guide4516"
       inkscape:locked="true"
       inkscape:label=""
       inkscape:color="rgb(56,207,2)" />
    <sodipodi:guide
       position="0,0"
       orientation="-0.70710678,0.70710678"
       id="guide5275"
       inkscape:locked="true"
       inkscape:label=""
       inkscape:color="rgb(56,207,2)" />
    <sodipodi:guide
       position="0,44.999999"
       orientation="-0.70710678,-0.70710678"
       id="guide5277"
       inkscape:locked="true"
       inkscape:label=""
       inkscape:color="rgb(56,207,2)" />
  </sodipodi:namedview>
  <g
     inkscape:groupmode="layer"
     id="layer6"
     inkscape:label="background-white"
     style="display:none;opacity:1"
     sodipodi:insensitive="true"
     transform="translate(0,-3.0000007)">
    <rect
       style="color:#000000;clip-rule:nonzero;display:inline;overflow:visible;visibility:visible;opacity:1;isolation:auto;mix-blend-mode:normal;color-interpolation:sRGB;color-interpolation-filters:linearRGB;solid-color:#000000;solid-opacity:1;fill:#ffffff;fill-opacity:1;fill-rule:nonzero;stroke:none;stroke-width:0.20080347;stroke-linecap:butt;stroke-linejoin:miter;stroke-miterlimit:4;stroke-dasharray:none;stroke-dashoffset:0;stroke-opacity:1;marker:none;marker-start:none;marker-mid:none;marker-end:none;paint-order:normal;color-rendering:auto;image-rendering:auto;shape-rendering:auto;text-rendering:auto;enable-background:accumulate"
       id="rect49905"
       width="60"
       height="60"
       x="-6"
       y="-6"
       rx="0"
       ry="2.4035539e-06" />
  </g>
  <g
     inkscape:groupmode="layer"
     id="layer7"
     inkscape:label="workbench"
     style="display:inline"
     transform="translate(0,-3.0000007)">
    <rect
       style="color:#000000;clip-rule:nonzero;display:inline;overflow:visible;visibility:visible;opacity:1;isolation:auto;mix-blend-mode:normal;color-interpolation:sRGB;color-interpolation-filters:linearRGB;solid-color:#000000;solid-opacity:1;fill:#ff0000;fill-opacity:1;fill-rule:nonzero;stroke:none;stroke-width:0.61812234;stroke-linecap:round;stroke-linejoin:miter;stroke-miterlimit:4;stroke-dasharray:none;stroke-dashoffset:0;stroke-opacity:0.77083333;marker:none;marker-start:none;marker-mid:none;marker-end:none;paint-order:normal;color-rendering:auto;image-rendering:auto;shape-rendering:auto;text-rendering:auto;enable-background:accumulate"
       id="rect4356"
       width="0"
       height="0"
       x="0"
       y="0" />
    <path
       sodipodi:nodetypes="ccccssccccsc"
       inkscape:connector-curvature="0"
       style="fill:url(#linearGradient3221);fill-opacity:1;stroke:none;stroke-width:0.8490513;stroke-opacity:0.07853406"
       d="M 22.234678,3.4253207 C 14.674706,3.5612114 1.4864389,8.8202435 1.4864389,12.313631 l -0.079599,13.21308 c 0,9.094868 14.9769811,21.839892 20.9870301,22.048334 0.0088,4.24e-4 0.01761,0 0.02653,0 h 0.132661 c 0.0078,0 0.0182,2.55e-4 0.02653,0 6.010049,-0.208442 21.013562,-12.953466 21.013562,-22.048334 l -0.132661,-13.21308 c 0,-3.4943215 -13.162734,-8.7551281 -20.721708,-8.8883103 -0.09745,-0.0017 -0.222808,0 -0.318386,0 -0.06373,0 -0.122726,-8.49e-4 -0.185725,0 z"
       id="path3123" />
    <path
       inkscape:connector-curvature="0"
       id="path5815"
       d="M 22.538453,3.4249086 V 47.575176 h 0.01465 c 0.0078,0 0.0173,2.55e-4 0.02563,0 C 28.588788,47.366733 43.592736,34.62146 43.592736,25.526594 L 43.460893,12.313192 c 0,-3.4943215 -13.163875,-8.7551012 -20.722848,-8.8882834 -0.0614,-0.00107 -0.130465,-3.523e-4 -0.199592,0 z"
       style="fill:url(#linearGradient5819);fill-opacity:1;stroke:none;stroke-width:0.84905124;stroke-opacity:0.07853406" />
    <path
       id="path4706"
       d="M 22.240685,3.9246755 C 14.851773,4.0574914 1.9619174,9.1975269 1.9619174,12.61187 l -0.077798,12.914107 c 0,8.889077 14.6380956,21.345718 20.5121546,21.549444 0.0086,4.15e-4 0.01721,0 0.02593,0 h 0.12966 c 0.0077,0 0.01779,2.49e-4 0.02593,0 C 28.451852,46.871695 43.11588,34.415054 43.11588,25.525977 L 42.986221,12.61187 c 0,-3.4152559 -12.8649,-8.5570258 -20.252836,-8.6871945 -0.09525,-0.00167 -0.217767,0 -0.311182,0 -0.06229,0 -0.119949,-8.298e-4 -0.181523,0 z"
       style="fill:none;fill-opacity:1;stroke:url(#linearGradient10167);stroke-width:1.89323831;stroke-miterlimit:4;stroke-dasharray:none;stroke-opacity:1"
       inkscape:connector-curvature="0"
       sodipodi:nodetypes="ccccssccccsc" />
    <rect
       style="color:#000000;clip-rule:nonzero;display:inline;overflow:visible;visibility:visible;opacity:0;isolation:auto;mix-blend-mode:normal;color-interpolation:sRGB;color-interpolation-filters:linearRGB;solid-color:#000000;solid-opacity:1;fill:#ffffff;fill-opacity:0.27748694;fill-rule:nonzero;stroke:none;stroke-width:0.57948971;stroke-linecap:round;stroke-linejoin:miter;stroke-miterlimit:4;stroke-dasharray:none;stroke-dashoffset:0;stroke-opacity:1;marker:none;marker-start:none;marker-mid:none;marker-end:none;paint-order:normal;color-rendering:auto;image-rendering:auto;shape-rendering:auto;text-rendering:auto;enable-background:accumulate"
       id="rect4969"
       width="18.749998"
       height="3.691406"
       x="0"
       y="-1.708333e-07"
       ry="0.59687531" />
    <path
       sodipodi:nodetypes="ccccssccccsc"
       inkscape:connector-curvature="0"
       style="fill:none;fill-opacity:1;stroke:#000000;stroke-width:1.18726301;stroke-miterlimit:4;stroke-dasharray:none;stroke-opacity:0.31937173"
       d="M 22.25916,5.4618422 C 15.396682,5.5851955 3.4251832,10.359021 3.4251832,13.530104 l -0.072256,11.994023 c 0,8.255762 13.5951848,19.824912 19.0507368,20.014123 0.008,3.85e-4 0.01598,0 0.02408,0 h 0.120422 c 0.0071,0 0.01652,2.3e-4 0.02408,0 5.455551,-0.189211 19.074819,-11.758361 19.074819,-20.014123 l -0.12042,-11.994023 c 0,-3.17193 -11.948321,-7.9473672 -18.809893,-8.0682618 -0.08847,-0.00155 -0.202252,0 -0.289012,0 -0.05785,0 -0.111402,-7.707e-4 -0.168589,0 z"
       id="path12124" />
    <use
       id="use25523"
       style="opacity:1;vector-effect:none;fill:#03080a;fill-opacity:0.58638748;stroke:#000000;stroke-width:1.46636772;stroke-linecap:butt;stroke-linejoin:miter;stroke-miterlimit:4;stroke-dasharray:none;stroke-dashoffset:0;stroke-opacity:0.81151829"
       xlink:href="#symbol12353"
       transform="matrix(0.67249998,0,0,0.67249998,6.3566375,9.360001)"
       x="0"
       y="0"
       width="100%"
       height="100%" />
    <rect
       ry="7.0731983"
       rx="7.0731983"
       y="18.426809"
       x="15.426803"
       height="14.146397"
       width="14.146397"
       id="rect4564-7"
       style="fill:url(#linearGradient5835);fill-opacity:1;stroke:none;stroke-width:0.77457023;stroke-miterlimit:4;stroke-dasharray:none;stroke-opacity:0.82722515" />
    <circle
       style="color:#000000;clip-rule:nonzero;display:inline;overflow:visible;visibility:visible;opacity:1;isolation:auto;mix-blend-mode:normal;color-interpolation:sRGB;color-interpolation-filters:linearRGB;solid-color:#000000;solid-opacity:1;fill:url(#linearGradient4736);fill-opacity:1;fill-rule:nonzero;stroke:none;stroke-width:0.22132984;stroke-linecap:round;stroke-linejoin:miter;stroke-miterlimit:4;stroke-dasharray:0.22132984, 0.66398952;stroke-dashoffset:0;stroke-opacity:0.67539266;marker:none;marker-start:none;marker-mid:none;marker-end:none;paint-order:normal;color-rendering:auto;image-rendering:auto;shape-rendering:auto;text-rendering:auto;enable-background:accumulate"
       id="path5855"
       cx="22.5"
       cy="25.499895"
       r="6.0251265" />
    <circle
       r="5.5601959"
       cy="25.499895"
       cx="22.5"
       id="circle5857"
       style="color:#000000;clip-rule:nonzero;display:inline;overflow:visible;visibility:visible;opacity:1;isolation:auto;mix-blend-mode:normal;color-interpolation:sRGB;color-interpolation-filters:linearRGB;solid-color:#000000;solid-opacity:1;fill:url(#linearGradient5865);fill-opacity:1;fill-rule:nonzero;stroke:none;stroke-width:0.22132984;stroke-linecap:round;stroke-linejoin:miter;stroke-miterlimit:4;stroke-dasharray:0.22132984, 0.66398952;stroke-dashoffset:0;stroke-opacity:0.67539266;marker:none;marker-start:none;marker-mid:none;marker-end:none;paint-order:normal;color-rendering:auto;image-rendering:auto;shape-rendering:auto;text-rendering:auto;enable-background:accumulate" />
    <circle
       style="color:#000000;clip-rule:nonzero;display:inline;overflow:visible;visibility:visible;opacity:1;isolation:auto;mix-blend-mode:normal;color-interpolation:sRGB;color-interpolation-filters:linearRGB;solid-color:#000000;solid-opacity:1;fill:url(#linearGradient4720);fill-opacity:1;fill-rule:nonzero;stroke:none;stroke-width:0.07325506;stroke-linecap:round;stroke-linejoin:miter;stroke-miterlimit:4;stroke-dasharray:none;stroke-dashoffset:0;stroke-opacity:1;marker:none;marker-start:none;marker-mid:none;marker-end:none;paint-order:normal;color-rendering:auto;image-rendering:auto;shape-rendering:auto;text-rendering:auto;enable-background:accumulate"
       id="circle4718"
       cx="22.5"
       cy="25.499895"
       r="3.7943158" />
    <path
       style="color:#000000;clip-rule:nonzero;display:inline;overflow:visible;visibility:visible;opacity:1;isolation:auto;mix-blend-mode:normal;color-interpolation:sRGB;color-interpolation-filters:linearRGB;solid-color:#000000;solid-opacity:1;fill:#494949;fill-opacity:1;fill-rule:nonzero;stroke:none;stroke-width:0.27835765;stroke-linecap:round;stroke-linejoin:miter;stroke-miterlimit:4;stroke-dasharray:none;stroke-dashoffset:0;stroke-opacity:0.44502623;marker:none;marker-start:none;marker-mid:none;marker-end:none;paint-order:normal;color-rendering:auto;image-rendering:auto;shape-rendering:auto;text-rendering:auto;enable-background:accumulate"
       d="m 21.129318,20.09243 c 0,0 0.907958,-0.219673 1.370682,-0.219673 0.462725,0 1.370682,0.219673 1.370682,0.219673 v 1.231435 1.370248 1.370207 1.370179 1.370209 l -0.71519,1.370243 0.71519,1.370147 v 1.370211 c 0,0 -0.909114,0.196554 -1.370682,0.196554 -0.461567,0 -1.370682,-0.196554 -1.370682,-0.196554 V 29.545098 28.174951 26.804708 25.434499 24.06432 l 1.084241,-1.370207 -1.084241,-1.370248 z"
       id="rect5850"
       inkscape:connector-curvature="0"
       sodipodi:nodetypes="cacccccccccaccccccccc" />
  </g>
  <g
     inkscape:groupmode="layer"
     id="layer1"
     inkscape:label="circles"
     style="display:inline"
     transform="translate(0,-3.0000007)"
     sodipodi:insensitive="true" />
</svg>
