<?xml version="1.0" encoding="UTF-8" standalone="yes"?>
<svg xmlns:dc="http://purl.org/dc/elements/1.1/" xmlns:cc="http://creativecommons.org/ns#" xmlns:rdf="http://www.w3.org/1999/02/22-rdf-syntax-ns#" xmlns:svg="http://www.w3.org/2000/svg" xmlns="http://www.w3.org/2000/svg" xmlns:xlink="http://www.w3.org/1999/xlink" xmlns:sodipodi="http://sodipodi.sourceforge.net/DTD/sodipodi-0.dtd" xmlns:inkscape="http://www.inkscape.org/namespaces/inkscape" height="64" viewBox="0 0 64 64" width="64" id="svg2" version="1.1" inkscape:version="0.92.1 r" sodipodi:docname="atom.svg" enable-background="new" folder="64">
  <title id="title4675">Template icons dark</title>
  <metadata id="metadata24">
    <rdf:RDF>
      <cc:Work rdf:about="">
        <dc:format>image/svg+xml</dc:format>
        <dc:type rdf:resource="http://purl.org/dc/dcmitype/StillImage"/>
        <dc:title>Template icons dark</dc:title>
        <dc:date>17/05/13</dc:date>
        <dc:creator>
          <cc:Agent>
            <dc:title>wfpaisa</dc:title>
          </cc:Agent>
        </dc:creator>
        <dc:rights>
          <cc:Agent>
            <dc:title>License: GPLv3</dc:title>
          </cc:Agent>
        </dc:rights>
        <dc:language>es-en</dc:language>
        <dc:subject>
          <rdf:Bag>
            <rdf:li>plane-icon-theme</rdf:li>
          </rdf:Bag>
        </dc:subject>
        <dc:description>Template for create set icons</dc:description>
        <cc:license rdf:resource="https://www.gnu.org/licenses/gpl-3.0.en.html"/>
      </cc:Work>
    </rdf:RDF>
  </metadata>
  <defs id="defs22">
    <linearGradient inkscape:collect="always" id="linearGradient7774">
      <stop style="stop-color:#ff053c;stop-opacity:1" offset="0" id="stop7770"/>
      <stop style="stop-color:#0b31ff;stop-opacity:0.97395831" offset="1" id="stop7772"/>
    </linearGradient>
    <linearGradient inkscape:collect="always" xlink:href="#linearGradient5467" id="linearGradient5473" x1="24.53476" y1="7.9960122" x2="24.704725" y2="38.249725" gradientUnits="userSpaceOnUse" gradientTransform="matrix(2.1310889,0,0,2.1310889,108.68013,105.53144)"/>
    <linearGradient inkscape:collect="always" id="linearGradient5467">
      <stop style="stop-color:#20c686;stop-opacity:1" offset="0" id="stop5469"/>
      <stop style="stop-color:#259d68;stop-opacity:1" offset="1" id="stop5471"/>
    </linearGradient>
    <linearGradient inkscape:collect="always" xlink:href="#linearGradient7774" id="linearGradient7776" x1="122" y1="183" x2="196" y2="142" gradientUnits="userSpaceOnUse"/>
    <linearGradient gradientTransform="matrix(0.5106383,0,0,0.5106383,-57.702128,-57.702128)" inkscape:collect="always" xlink:href="#linearGradient7774" id="linearGradient7776-3" x1="122" y1="183" x2="196" y2="142" gradientUnits="userSpaceOnUse"/>
    <linearGradient inkscape:collect="always" xlink:href="#linearGradient5467" id="linearGradient5473-5" x1="24.53476" y1="7.9960122" x2="24.704725" y2="38.249725" gradientUnits="userSpaceOnUse" gradientTransform="matrix(1.0882156,0,0,1.0882156,-2.205891,-3.8137327)"/>
    <linearGradient inkscape:collect="always" xlink:href="#linearGradient5467" id="linearGradient7902" gradientUnits="userSpaceOnUse" gradientTransform="matrix(1.4056119,0,0,1.4056119,46.150729,44.073933)" x1="24.53476" y1="7.9960122" x2="24.704725" y2="38.249725"/>
    <linearGradient inkscape:collect="always" xlink:href="#linearGradient7774" id="linearGradient7904" gradientUnits="userSpaceOnUse" gradientTransform="matrix(0.65957449,0,0,0.65957449,-25.531913,-25.531913)" x1="122" y1="183" x2="196" y2="142"/>
    <linearGradient inkscape:collect="always" xlink:href="#linearGradient5467" id="linearGradient5473-7" x1="24.53476" y1="7.9960122" x2="24.704725" y2="38.249725" gradientUnits="userSpaceOnUse" gradientTransform="matrix(2.8112236,0,0,2.8112236,204.30144,200.14785)"/>
    <linearGradient gradientTransform="matrix(1.3191489,0,0,1.3191489,60.936166,60.936166)" inkscape:collect="always" xlink:href="#linearGradient7774" id="linearGradient7776-2" x1="122" y1="183" x2="196" y2="142" gradientUnits="userSpaceOnUse"/>
    <linearGradient inkscape:collect="always" xlink:href="#linearGradient5467" id="linearGradient5473-9" x1="24.53476" y1="7.9960122" x2="24.704725" y2="38.249725" gradientUnits="userSpaceOnUse" gradientTransform="matrix(0.72547707,0,0,0.72547707,-33.470593,-34.542488)"/>
    <linearGradient gradientTransform="matrix(0.34042553,0,0,0.34042553,-70.468084,-70.468084)" inkscape:collect="always" xlink:href="#linearGradient7774" id="linearGradient7776-8" x1="122" y1="183" x2="196" y2="142" gradientUnits="userSpaceOnUse"/>
    <linearGradient inkscape:collect="always" xlink:href="#linearGradient5467" id="linearGradient5473-9-1" x1="24.53476" y1="7.9960122" x2="24.704725" y2="38.249725" gradientUnits="userSpaceOnUse" gradientTransform="matrix(0.5441078,0,0,0.5441078,-57.102945,-57.906866)"/>
    <linearGradient gradientTransform="matrix(0.25531915,0,0,0.25531915,-84.851063,-84.851063)" inkscape:collect="always" xlink:href="#linearGradient7774" id="linearGradient7776-8-4" x1="122" y1="183" x2="196" y2="142" gradientUnits="userSpaceOnUse"/>
  </defs>
  <sodipodi:namedview pagecolor="#383c4a" bordercolor="#ffffff" borderopacity="0.62745098" objecttolerance="4" gridtolerance="10" guidetolerance="4" inkscape:pageopacity="0" inkscape:pageshadow="2" inkscape:window-width="640" inkscape:window-height="480" id="namedview20" showgrid="true" inkscape:zoom="16.386532" inkscape:cx="100.73209" inkscape:cy="-55.455318" inkscape:current-layer="g7905" inkscape:snap-smooth-nodes="false" showguides="true" borderlayer="true" inkscape:showpageshadow="false" inkscape:guide-bbox="true" guidecolor="#bd4fff" guideopacity="0.78431373" inkscape:snap-nodes="true" inkscape:lockguides="false" fit-margin-top="0" fit-margin-left="0" fit-margin-right="0" fit-margin-bottom="0" guidehicolor="#ff0101" guidehiopacity="0.78431373" inkscape:snap-page="true" inkscape:object-nodes="true" inkscape:snap-bbox="true" inkscape:snap-global="true" inkscape:snap-object-midpoints="false" inkscape:snap-bbox-edge-midpoints="false">
    <inkscape:grid type="xygrid" id="grid4171" empspacing="4" dotted="false" originx="2.7755576e-17" originy="0" spacingx="1" spacingy="1" color="#5a5a5a" opacity="0.23529412" empcolor="#5a5a5a" empopacity="0.47058824" visible="true"/>
    <inkscape:grid type="axonomgrid" id="grid4699" units="mm" empspacing="4" color="#5a5a5a" opacity="0.23529412" empcolor="#5a5a5a" empopacity="0.47058824" gridanglex="45" gridanglez="45" spacingy="3.7795276" visible="false" originx="1.3228346" originy="1.3228346"/>
    <sodipodi:guide position="48,0" orientation="1,0" id="guide4568" inkscape:locked="false" inkscape:label="" inkscape:color="rgb(189,79,255)"/>
    <sodipodi:guide position="111.99996,-3.9999999e-05" orientation="0,1" id="guide4570" inkscape:locked="false" inkscape:label="" inkscape:color="rgb(189,79,255)"/>
    <sodipodi:guide position="0,0" orientation="1,0" id="guide4572" inkscape:locked="false" inkscape:label="" inkscape:color="rgb(189,79,255)"/>
    <sodipodi:guide position="0,48" orientation="0,1" id="guide4574" inkscape:locked="false" inkscape:label="" inkscape:color="rgb(189,79,255)"/>
    <sodipodi:guide position="0,80" orientation="0,1" id="guide4576" inkscape:locked="false" inkscape:label="" inkscape:color="rgb(189,79,255)"/>
    <sodipodi:guide position="-32,48" orientation="1,0" id="guide4578" inkscape:locked="false" inkscape:label="" inkscape:color="rgb(189,79,255)"/>
    <sodipodi:guide position="-32,104" orientation="0,1" id="guide4580" inkscape:locked="false" inkscape:label="" inkscape:color="rgb(189,79,255)"/>
    <sodipodi:guide position="-56,80" orientation="1,0" id="guide4582" inkscape:locked="false" inkscape:label="" inkscape:color="rgb(189,79,255)"/>
    <sodipodi:guide position="48,-64" orientation="0,1" id="guide4584" inkscape:locked="false" inkscape:label="" inkscape:color="rgb(189,79,255)"/>
    <sodipodi:guide position="0,0" orientation="-0.70710678,0.70710678" id="guide4588" inkscape:locked="false" inkscape:label="" inkscape:color="rgb(189,79,255)"/>
    <sodipodi:guide position="-56,80" orientation="-0.70710678,0.70710678" id="guide4573" inkscape:locked="false" inkscape:label="" inkscape:color="rgb(189,79,255)"/>
    <sodipodi:guide position="-32,48" orientation="-0.70710678,0.70710678" id="guide4575" inkscape:locked="false" inkscape:label="" inkscape:color="rgb(189,79,255)"/>
    <sodipodi:guide position="48,-64" orientation="-0.70710678,0.70710678" id="guide4577" inkscape:locked="false" inkscape:label="" inkscape:color="rgb(189,79,255)"/>
    <sodipodi:guide position="47.999962,0" orientation="0.70710678,0.70710678" id="guide4697" inkscape:locked="false" inkscape:label="" inkscape:color="rgb(189,79,255)"/>
    <sodipodi:guide position="207.99995,-288" orientation="0,1" id="guide7833" inkscape:locked="false"/>
    <sodipodi:guide position="335.99994,-288" orientation="1,0" id="guide7835" inkscape:locked="false" inkscape:label="" inkscape:color="rgb(189,79,255)"/>
    <sodipodi:guide position="111.99996,-64" orientation="1,0" id="guide7915" inkscape:locked="false"/>
    <sodipodi:guide position="111.99996,-160" orientation="0,1" id="guide7917" inkscape:locked="false"/>
    <sodipodi:guide position="207.99996,-160" orientation="1,0" id="guide7919" inkscape:locked="false"/>
    <sodipodi:guide position="111.99996,-160" orientation="-0.70710678,0.70710678" id="guide7921" inkscape:locked="false" inkscape:label="" inkscape:color="rgb(189,79,255)"/>
    <sodipodi:guide position="207.99996,-288" orientation="-0.70710678,0.70710678" id="guide7923" inkscape:locked="false" inkscape:label="" inkscape:color="rgb(189,79,255)"/>
    <sodipodi:guide position="-72,104" orientation="1,0" id="guide7824" inkscape:locked="false"/>
    <sodipodi:guide position="-56,120" orientation="0,1" id="guide7826" inkscape:locked="false"/>
    <sodipodi:guide position="-72,104" orientation="-0.70710678,0.70710678" id="guide7828" inkscape:locked="false" inkscape:label="" inkscape:color="rgb(189,79,255)"/>
  </sodipodi:namedview>
  <g inkscape:groupmode="layer" id="g7907" inkscape:label="icon_64" style="display:inline" transform="translate(-48,-48)">
    <g inkscape:groupmode="layer" id="g7843" inkscape:label="frame" style="display:none">
      <rect inkscape:label="frame_64" y="48" x="48" height="64" width="64" id="rect7837" style="color:#000000;clip-rule:nonzero;display:inline;overflow:visible;visibility:visible;opacity:1;isolation:auto;mix-blend-mode:normal;color-interpolation:sRGB;color-interpolation-filters:linearRGB;solid-color:#000000;solid-opacity:1;vector-effect:none;fill:#000000;fill-opacity:1;fill-rule:nonzero;stroke:#ff24f7;stroke-width:0;stroke-linecap:square;stroke-linejoin:miter;stroke-miterlimit:4;stroke-dasharray:none;stroke-dashoffset:0;stroke-opacity:0.99481865;marker:none;marker-start:none;marker-mid:none;marker-end:none;paint-order:normal;color-rendering:auto;image-rendering:auto;shape-rendering:auto;text-rendering:auto;enable-background:accumulate"/>
      <text xml:space="preserve" style="font-size:16px;line-height:0%;font-family:sans-serif;letter-spacing:0px;word-spacing:0px;display:inline;opacity:1;fill:#ffffff;fill-opacity:1;stroke:none;stroke-width:0.03278551px;stroke-linecap:butt;stroke-linejoin:miter;stroke-opacity:1" x="69.816406" y="85.824219" id="text7841" inkscape:label="txt_64">
        <tspan sodipodi:role="line" x="69.816406" y="85.824219" style="font-size:16px;line-height:0%;fill:#ffffff;fill-opacity:1;stroke:none;stroke-width:0.03278551px" id="tspan7839">64</tspan>
      </text>
    </g>
    <g inkscape:groupmode="layer" id="g7905" inkscape:label="icon" style="display:inline">
      <circle style="color:#000000;clip-rule:nonzero;display:block;overflow:visible;visibility:visible;opacity:1;isolation:auto;mix-blend-mode:normal;color-interpolation:sRGB;color-interpolation-filters:linearRGB;solid-color:#000000;solid-opacity:1;fill:#000000;fill-opacity:0.15686275;fill-rule:nonzero;stroke:none;stroke-width:1.34550714;stroke-linecap:butt;stroke-linejoin:miter;stroke-miterlimit:4;stroke-dasharray:none;stroke-dashoffset:0;stroke-opacity:1;marker:none;marker-start:none;marker-mid:none;marker-end:none;color-rendering:auto;image-rendering:auto;shape-rendering:auto;text-rendering:auto;enable-background:accumulate" id="path5465-5-6-6" cx="80" cy="80" r="31" inkscape:label="sombra"/>
      <circle style="color:#000000;clip-rule:nonzero;display:inline;overflow:visible;visibility:visible;opacity:1;isolation:auto;mix-blend-mode:normal;color-interpolation:sRGB;color-interpolation-filters:linearRGB;solid-color:#000000;solid-opacity:1;fill:url(#linearGradient7902);fill-opacity:1;fill-rule:nonzero;stroke:#ffffff;stroke-width:1.63599217;stroke-linecap:butt;stroke-linejoin:miter;stroke-miterlimit:4;stroke-dasharray:none;stroke-dashoffset:0;stroke-opacity:1;marker:none;marker-start:none;marker-mid:none;marker-end:none;color-rendering:auto;image-rendering:auto;shape-rendering:auto;text-rendering:auto;enable-background:accumulate" id="path5465-2-1" cx="80" cy="80.000023" r="29.356112" inkscape:label="circle"/>
      <circle inkscape:label="circle" r="29.356112" cy="80.000023" cx="80" id="circle7768-9-8" style="color:#000000;clip-rule:nonzero;display:inline;overflow:visible;visibility:visible;opacity:0.10899999;isolation:auto;mix-blend-mode:normal;color-interpolation:sRGB;color-interpolation-filters:linearRGB;solid-color:#000000;solid-opacity:1;fill:url(#linearGradient7904);fill-opacity:1;fill-rule:nonzero;stroke:#ffffff;stroke-width:1.63599217;stroke-linecap:butt;stroke-linejoin:miter;stroke-miterlimit:4;stroke-dasharray:none;stroke-dashoffset:0;stroke-opacity:1;marker:none;marker-start:none;marker-mid:none;marker-end:none;color-rendering:auto;image-rendering:auto;shape-rendering:auto;text-rendering:auto;enable-background:accumulate"/>
      <circle inkscape:label="circle" r="4.995616" cy="80.000023" cx="80" id="circle7778-2-9" style="color:#000000;clip-rule:nonzero;display:inline;overflow:visible;visibility:visible;opacity:1;isolation:auto;mix-blend-mode:normal;color-interpolation:sRGB;color-interpolation-filters:linearRGB;solid-color:#000000;solid-opacity:1;fill:#efefef;fill-opacity:0.21354167;fill-rule:nonzero;stroke:none;stroke-width:0.27840158;stroke-linecap:butt;stroke-linejoin:miter;stroke-miterlimit:4;stroke-dasharray:none;stroke-dashoffset:0;stroke-opacity:1;marker:none;marker-start:none;marker-mid:none;marker-end:none;color-rendering:auto;image-rendering:auto;shape-rendering:auto;text-rendering:auto;enable-background:accumulate"/>
      <circle style="color:#000000;clip-rule:nonzero;display:inline;overflow:visible;visibility:visible;opacity:1;isolation:auto;mix-blend-mode:normal;color-interpolation:sRGB;color-interpolation-filters:linearRGB;solid-color:#000000;solid-opacity:1;fill:none;fill-opacity:0.21354167;fill-rule:nonzero;stroke:#ffffff;stroke-width:1.14312494;stroke-linecap:butt;stroke-linejoin:miter;stroke-miterlimit:4;stroke-dasharray:1.143125, 4.57249999999999979;stroke-dashoffset:0;stroke-opacity:0.23529412;marker:none;marker-start:none;marker-mid:none;marker-end:none;color-rendering:auto;image-rendering:auto;shape-rendering:auto;text-rendering:auto;enable-background:accumulate" id="circle7786-3-3" cx="80" cy="80.000023" r="24.153074" inkscape:label="circle"/>
      <path inkscape:connector-curvature="0" id="path7745-1-7" d="m 87.448821,101.21843 c -3.322567,-0.55176 -7.637549,-4.355245 -11.577108,-10.204728 -1.652782,-2.454079 -3.343878,-5.484737 -4.447775,-7.97099 -0.221432,-0.498711 -0.302361,-0.618648 -0.369262,-0.547176 -0.134,0.143101 -1.095712,2.234268 -1.602404,3.48407 -0.852309,2.102307 -1.453055,4.106741 -1.7973,5.997003 -0.220543,1.210953 -0.239505,3.557309 -0.03457,4.284219 0.476054,1.689085 1.508368,2.391129 3.119029,2.121139 1.161022,-0.194627 2.566471,-0.830529 4.057683,-1.835918 0.662252,-0.446493 0.836425,-0.531459 1.092557,-0.532956 0.391656,-0.0026 0.684013,0.210766 0.821006,0.598326 0.09079,0.256949 0.09052,0.331489 -0.0026,0.577048 -0.08942,0.23568 -0.244313,0.375146 -0.94331,0.84913 -0.965406,0.654673 -2.617112,1.498527 -3.462112,1.7688 -2.213929,0.708193 -3.936289,0.448583 -5.150578,-0.776299 -1.113864,-1.123578 -1.593757,-2.941346 -1.445867,-5.476717 0.192477,-3.299515 1.643007,-7.803967 3.934929,-12.219482 l 0.574734,-1.107233 -0.434113,-1.174577 c -0.415453,-1.124093 -1.237131,-3.730118 -1.237131,-3.923696 0,-0.142587 -0.251396,-0.113292 -1.353545,0.157828 -2.525307,0.621208 -4.401624,1.41184 -5.747262,2.421754 -2.644999,1.985094 -1.944392,4.224224 2.019301,6.453824 0.631186,0.355042 0.776986,0.54624 0.776986,1.018943 0,0.247025 -0.04565,0.348401 -0.248053,0.550798 -0.433427,0.433452 -0.837021,0.343104 -2.175204,-0.486858 -1.935448,-1.200366 -3.159105,-2.566254 -3.590116,-4.007338 -0.157401,-0.526307 -0.157961,-1.586448 -6.6e-4,-2.115782 0.228687,-0.771755 0.61359,-1.38471 1.308306,-2.083458 1.556893,-1.565921 4.138738,-2.7683 7.679722,-3.57645 0.721238,-0.164616 0.887793,-0.226168 0.860626,-0.318093 -0.01854,-0.06272 -0.100944,-0.475131 -0.183183,-0.916524 -0.481101,-2.582816 -0.495737,-5.544133 -0.03548,-7.186348 0.530694,-1.893573 1.491522,-3.020608 3.023629,-3.546612 0.625559,-0.21477 1.877689,-0.180709 2.73592,0.07434 0.863146,0.256575 1.934836,0.78428 2.88184,1.419035 1.128604,0.756479 1.4614,1.07388 1.509166,1.439415 0.109727,0.83989 -0.75797,1.292826 -1.466366,0.765377 -2.221137,-1.653822 -3.80659,-2.283122 -5.07689,-2.015118 -0.923154,0.19476 -1.628833,1.143887 -1.984989,2.669707 -0.141618,0.606841 -0.161002,0.894864 -0.161682,2.403958 -6.6e-4,1.712855 0.02381,1.988332 0.336528,3.784242 l 0.15717,0.90241 0.370496,-0.04485 c 1.700443,-0.205543 3.165872,-0.348486 4.069522,-0.396945 l 1.072521,-0.05745 0.167267,-0.215047 c 1.811595,-2.329249 4.446357,-5.049314 6.442626,-6.651203 3.823005,-3.06772 7.101862,-4.133105 9.357468,-3.040472 1.274173,0.617223 2.07946,1.878547 2.391749,3.746172 0.203888,1.219289 0.04281,4.105375 -0.274489,4.918301 -0.109585,0.280887 -0.461141,0.483237 -0.839981,0.483568 -0.238423,2.44e-4 -0.36326,-0.04828 -0.547176,-0.212562 -0.218016,-0.194746 -0.238113,-0.248956 -0.236589,-0.638369 6.59e-4,-0.234057 0.06226,-0.901599 0.136466,-1.483443 0.215516,-1.691617 0.06737,-3.255289 -0.394175,-4.15995 -0.224018,-0.43913 -0.682376,-0.907962 -1.07876,-1.103375 -0.29735,-0.14659 -0.45047,-0.16885 -1.145748,-0.166582 -0.730604,0.0026 -0.873541,0.0269 -1.594601,0.272728 -2.230818,0.760852 -4.786907,2.589667 -7.530703,5.387997 -0.524719,0.53514 -1.311631,1.383373 -1.748691,1.884965 l -0.794676,0.911968 0.690799,0.01649 c 9.669645,0.229228 17.819532,2.449765 21.661218,5.901912 0.864474,0.776821 1.609374,1.93413 1.825804,2.836665 0.10973,0.45756 0.11178,1.345993 0.004,1.821652 -0.39672,1.755194 -2.326437,3.48068 -5.139687,4.59579 -0.444685,0.176271 -0.538615,0.190571 -0.778918,0.118497 -0.393595,-0.117942 -0.648817,-0.450423 -0.648817,-0.845277 0,-0.463978 0.22355,-0.686834 1.026839,-1.023685 1.747443,-0.732787 3.102546,-1.760115 3.617074,-2.742195 0.178779,-0.341277 0.205729,-0.47397 0.205639,-1.012869 -7e-5,-0.560519 -0.0237,-0.665734 -0.24472,-1.094372 -0.311795,-0.60448 -1.342313,-1.637842 -2.197195,-2.203261 -4.199946,-2.777865 -12.114331,-4.581517 -20.104773,-4.581774 l -1.318113,-4e-5 -0.496739,0.674863 c -0.743063,1.009519 -2.355499,3.463473 -2.997133,4.561294 l -0.565835,0.968117 0.388793,0.892312 c 3.900288,8.951396 9.955465,16.509208 14.421589,18.00044 0.970966,0.324201 1.705692,0.339998 2.299586,0.04947 1.111384,-0.543733 1.693491,-1.955229 1.782897,-4.323016 0.149195,-3.951767 -1.274121,-9.413506 -3.928163,-15.073539 -0.275187,-0.58685 -0.440378,-1.03474 -0.440378,-1.193955 0,-0.478693 0.393086,-0.855118 0.885882,-0.848319 0.43758,0.0053 0.629523,0.181265 0.963281,0.879359 2.15233,4.501865 3.587109,9.011798 4.122862,12.959385 0.180169,1.327452 0.181251,4.029267 0.0026,4.994773 -0.286665,1.544267 -0.796706,2.656798 -1.577175,3.440289 -0.950783,0.95445 -2.184755,1.31898 -3.644439,1.07658 z M 72.008591,77.188184 c 0.272478,-0.441413 0.802841,-1.252321 1.178601,-1.802062 0.37576,-0.54973 0.683194,-1.02182 0.683194,-1.049061 0,-0.09383 -3.447299,0.255077 -3.551624,0.359402 -0.06272,0.06253 0.143946,0.830747 0.60295,2.242277 0.333817,1.026501 0.424172,1.23504 0.499502,1.152612 0.05059,-0.0554 0.314887,-0.461781 0.587377,-0.903168 z m 7.355516,6.544159 c -1.096074,-0.391358 -1.7366,-1.305858 -1.722011,-2.458531 0.0083,-0.603504 0.145252,-1.017373 0.498104,-1.498058 0.894146,-1.218063 2.720131,-1.356592 3.819412,-0.289778 1.262662,1.225371 0.888902,3.411781 -0.708239,4.142978 -0.549622,0.251629 -1.349416,0.29543 -1.887266,0.103424 z" style="display:inline;opacity:1;fill:#000000;fill-opacity:0.23529412;stroke:none;stroke-width:0.29027471;stroke-miterlimit:4;stroke-dasharray:none;stroke-opacity:1" inkscape:label="sombra atom"/>
      <path style="display:inline;opacity:1;fill:#ffffff;fill-opacity:1;stroke:#ffffff;stroke-width:0.29027471;stroke-miterlimit:4;stroke-dasharray:none;stroke-opacity:1" d="m 87.448821,99.899285 c -3.322567,-0.551766 -7.637549,-4.355249 -11.577108,-10.204731 -1.652782,-2.454079 -3.343878,-5.484738 -4.447775,-7.970991 -0.221432,-0.49871 -0.302361,-0.618648 -0.369262,-0.547176 -0.134,0.143101 -1.095712,2.234269 -1.602404,3.48407 -0.852309,2.102308 -1.453055,4.106741 -1.7973,5.997002 -0.220543,1.210953 -0.239505,3.557309 -0.03457,4.284221 0.476054,1.689084 1.508368,2.391128 3.119029,2.121139 1.161022,-0.194627 2.566471,-0.83053 4.057683,-1.83592 0.662252,-0.446492 0.836425,-0.531459 1.092557,-0.532956 0.391656,-0.0026 0.684013,0.210768 0.821006,0.598326 0.09079,0.256951 0.09052,0.33149 -0.0026,0.57705 -0.08942,0.235678 -0.244313,0.375145 -0.94331,0.849128 -0.965406,0.654675 -2.617112,1.498527 -3.462112,1.768801 -2.213929,0.708192 -3.936289,0.448584 -5.150578,-0.7763 -1.113864,-1.123578 -1.593757,-2.941345 -1.445867,-5.476717 0.192477,-3.299514 1.643007,-7.803965 3.934929,-12.21948 l 0.574734,-1.107235 -0.434113,-1.174577 c -0.415453,-1.124092 -1.237131,-3.730118 -1.237131,-3.923696 0,-0.142587 -0.251396,-0.113292 -1.353545,0.15783 -2.525307,0.621207 -4.401624,1.411838 -5.747262,2.421753 -2.644999,1.985095 -1.944392,4.224225 2.019301,6.453824 0.631186,0.355043 0.776986,0.546239 0.776986,1.018944 0,0.247023 -0.04565,0.3484 -0.248053,0.550798 -0.433478,0.433452 -0.837073,0.343102 -2.175256,-0.486859 -1.935396,-1.200367 -3.159053,-2.566253 -3.590064,-4.007337 -0.157401,-0.526307 -0.157961,-1.586448 -6.6e-4,-2.115783 0.228687,-0.771756 0.61359,-1.384711 1.308306,-2.083457 1.556893,-1.565923 4.138738,-2.7683 7.679722,-3.576451 0.721238,-0.164616 0.887793,-0.226168 0.860626,-0.318092 -0.01854,-0.06272 -0.100944,-0.475132 -0.183183,-0.916526 -0.481101,-2.582814 -0.495737,-5.544133 -0.03548,-7.186347 0.530694,-1.893572 1.491522,-3.020607 3.023629,-3.546611 0.625559,-0.21477 1.877689,-0.18071 2.73592,0.07434 0.863146,0.256574 1.934836,0.784279 2.88184,1.419034 1.128604,0.75648 1.4614,1.07388 1.509166,1.439416 0.109727,0.839888 -0.75797,1.292825 -1.466366,0.765377 -2.221137,-1.653824 -3.80659,-2.283124 -5.07689,-2.015119 -0.923154,0.194759 -1.628833,1.143886 -1.984989,2.669706 -0.141618,0.606842 -0.161002,0.894866 -0.161682,2.403958 -6.6e-4,1.712856 0.02381,1.988334 0.336528,3.784243 l 0.15717,0.90241 0.370496,-0.04485 c 1.700443,-0.205543 3.165872,-0.348486 4.069522,-0.396946 l 1.072521,-0.05745 0.167267,-0.215048 c 1.811595,-2.329247 4.446357,-5.049313 6.442626,-6.651202 3.823005,-3.067721 7.101862,-4.133104 9.357468,-3.040473 1.274173,0.617223 2.07946,1.878547 2.391749,3.746172 0.203888,1.219289 0.04281,4.105376 -0.274489,4.918302 -0.109585,0.280886 -0.461141,0.483237 -0.839981,0.483566 -0.238423,2.45e-4 -0.36326,-0.04828 -0.547176,-0.21256 -0.218016,-0.194746 -0.238113,-0.248957 -0.236589,-0.63837 6.59e-4,-0.234057 0.06226,-0.901599 0.136466,-1.483442 0.215516,-1.691617 0.06737,-3.25529 -0.394175,-4.159949 -0.224018,-0.439132 -0.682376,-0.907964 -1.07876,-1.103376 -0.29735,-0.146591 -0.45047,-0.168851 -1.145748,-0.166582 -0.730604,0.0026 -0.873541,0.02691 -1.594601,0.272728 -2.230818,0.760851 -4.786907,2.589666 -7.530703,5.387997 -0.524719,0.535139 -1.311631,1.383372 -1.748691,1.884964 l -0.794676,0.911969 0.690799,0.01649 c 9.669645,0.22923 17.819532,2.449766 21.661218,5.901913 0.864474,0.77682 1.609374,1.934129 1.825804,2.836664 0.10973,0.45756 0.11178,1.345995 0.004,1.821653 -0.39672,1.755193 -2.326437,3.48068 -5.139687,4.595789 -0.444685,0.176271 -0.538615,0.190571 -0.778918,0.118498 -0.393595,-0.117942 -0.648817,-0.450424 -0.648817,-0.845279 0,-0.463977 0.22355,-0.686834 1.026839,-1.023685 1.747443,-0.732788 3.102546,-1.760115 3.617074,-2.742195 0.178779,-0.341276 0.205729,-0.47397 0.205639,-1.012868 -7e-5,-0.56052 -0.0237,-0.665735 -0.24472,-1.094373 C 99.540336,79.021871 98.509818,77.98851 97.654936,77.423089 93.45499,74.645225 85.540605,72.841572 77.550163,72.841315 l -1.318113,-3.9e-5 -0.496739,0.674864 c -0.743063,1.009517 -2.355499,3.463471 -2.997133,4.561293 l -0.565835,0.968117 0.388793,0.892312 c 3.900288,8.951395 9.955465,16.509207 14.421589,18.000439 0.970966,0.324201 1.705692,0.339998 2.299586,0.04947 1.111384,-0.543734 1.693491,-1.955229 1.782897,-4.323016 0.149195,-3.951767 -1.274121,-9.413505 -3.928163,-15.073538 -0.275187,-0.586851 -0.440378,-1.034741 -0.440378,-1.193956 0,-0.478693 0.393086,-0.855118 0.885882,-0.848318 0.43758,0.0053 0.629523,0.181264 0.963281,0.879358 2.15233,4.501867 3.587109,9.0118 4.122862,12.959385 0.180169,1.327453 0.181251,4.029267 0.0026,4.994773 -0.286665,1.544269 -0.796706,2.656799 -1.577175,3.440288 -0.950783,0.95445 -2.184755,1.318973 -3.644439,1.076583 z M 72.008591,75.869034 c 0.272478,-0.441413 0.802841,-1.25232 1.178601,-1.802062 0.37576,-0.549729 0.683194,-1.021819 0.683194,-1.049059 0,-0.09383 -3.447299,0.255077 -3.551624,0.359401 -0.06272,0.06253 0.143946,0.830748 0.60295,2.242276 0.333817,1.026503 0.424172,1.23504 0.499502,1.152614 0.05059,-0.0554 0.314887,-0.461781 0.587377,-0.90317 z m 7.355516,6.54416 c -1.096074,-0.391358 -1.7366,-1.305858 -1.722011,-2.45853 0.0083,-0.603504 0.145252,-1.017375 0.498104,-1.49806 0.894146,-1.218062 2.720131,-1.356592 3.819412,-0.289776 1.262662,1.225371 0.888902,3.41178 -0.708239,4.142978 -0.549622,0.251627 -1.349416,0.29543 -1.887266,0.103424 z" id="path4662-7-2" inkscape:connector-curvature="0" inkscape:label="atom"/>
      <path style="color:#000000;clip-rule:nonzero;display:inline;overflow:visible;visibility:visible;opacity:1;isolation:auto;mix-blend-mode:normal;color-interpolation:sRGB;color-interpolation-filters:linearRGB;solid-color:#000000;solid-opacity:1;fill:#000000;fill-opacity:0.296875;fill-rule:nonzero;stroke:none;stroke-width:1.61378372;stroke-linecap:butt;stroke-linejoin:miter;stroke-miterlimit:4;stroke-dasharray:none;stroke-dashoffset:0;stroke-opacity:1;marker:none;marker-start:none;marker-mid:none;marker-end:none;color-rendering:auto;image-rendering:auto;shape-rendering:auto;text-rendering:auto;enable-background:accumulate" d="M 108.55082,78.953957 A 28.564507,29.356111 0 0 1 80.000003,108.03707 28.564507,29.356111 0 0 1 51.449181,79.067325 a 28.564507,29.356111 0 0 0 -0.01378,0.273104 28.564507,29.356111 0 0 0 28.564608,29.356211 28.564507,29.356111 0 0 0 28.564601,-29.356211 28.564507,29.356111 0 0 0 -0.0138,-0.386472 z" id="circle7747-0-0" inkscape:connector-curvature="0"/>
      <path inkscape:connector-curvature="0" id="path7766-9-2" d="M 108.68305,81.234594 A 28.696787,29.356111 0 0 0 80.000003,52.151482 28.696787,29.356111 0 0 0 51.316962,81.121226 a 28.696787,29.356111 0 0 1 -0.01385,-0.273103 28.696787,29.356111 0 0 1 28.696892,-29.356215 28.696787,29.356111 0 0 1 28.696886,29.356215 28.696787,29.356111 0 0 1 -0.0138,0.386471 z" style="color:#000000;clip-rule:nonzero;display:inline;overflow:visible;visibility:visible;opacity:1;isolation:auto;mix-blend-mode:normal;color-interpolation:sRGB;color-interpolation-filters:linearRGB;solid-color:#000000;solid-opacity:1;fill:#242424;fill-opacity:0.47058824;fill-rule:nonzero;stroke:none;stroke-width:1.61751604;stroke-linecap:butt;stroke-linejoin:miter;stroke-miterlimit:4;stroke-dasharray:none;stroke-dashoffset:0;stroke-opacity:1;marker:none;marker-start:none;marker-mid:none;marker-end:none;color-rendering:auto;image-rendering:auto;shape-rendering:auto;text-rendering:auto;enable-background:accumulate"/>
    </g>
  </g>
</svg>