<?xml version="1.0" encoding="UTF-8" standalone="yes"?>
<svg xmlns:osb="http://www.openswatchbook.org/uri/2009/osb" xmlns:dc="http://purl.org/dc/elements/1.1/" xmlns:cc="http://creativecommons.org/ns#" xmlns:rdf="http://www.w3.org/1999/02/22-rdf-syntax-ns#" xmlns:svg="http://www.w3.org/2000/svg" xmlns="http://www.w3.org/2000/svg" xmlns:xlink="http://www.w3.org/1999/xlink" xmlns:sodipodi="http://sodipodi.sourceforge.net/DTD/sodipodi-0.dtd" xmlns:inkscape="http://www.inkscape.org/namespaces/inkscape" height="64" viewBox="0 0 64 64" width="64" id="svg2" version="1.1" inkscape:version="0.92.1 r" sodipodi:docname="gnome-tweak-tool.svg" enable-background="new" folder="64">
  <title id="title4675">Template icons dark</title>
  <metadata id="metadata24">
    <rdf:RDF>
      <cc:Work rdf:about="">
        <dc:format>image/svg+xml</dc:format>
        <dc:type rdf:resource="http://purl.org/dc/dcmitype/StillImage"/>
        <dc:title>Template icons dark</dc:title>
        <dc:date>17/05/13</dc:date>
        <dc:creator>
          <cc:Agent>
            <dc:title>wfpaisa</dc:title>
          </cc:Agent>
        </dc:creator>
        <dc:rights>
          <cc:Agent>
            <dc:title>License: GPLv3</dc:title>
          </cc:Agent>
        </dc:rights>
        <dc:language>es-en</dc:language>
        <dc:subject>
          <rdf:Bag>
            <rdf:li>plane-icon-theme</rdf:li>
          </rdf:Bag>
        </dc:subject>
        <dc:description>Template for create set icons</dc:description>
        <cc:license rdf:resource="https://www.gnu.org/licenses/gpl-3.0.en.html"/>
      </cc:Work>
    </rdf:RDF>
  </metadata>
  <defs id="defs22">
    <linearGradient inkscape:collect="always" id="linearGradient8106">
      <stop style="stop-color:#d6dee0;stop-opacity:1" offset="0" id="stop8102"/>
      <stop style="stop-color:#ffffff;stop-opacity:0.47395834" offset="1" id="stop8104"/>
    </linearGradient>
    <linearGradient inkscape:collect="always" id="linearGradient8067">
      <stop style="stop-color:#403d60;stop-opacity:0.39607844" offset="0" id="stop8063"/>
      <stop style="stop-color:#000000;stop-opacity:0.07291666" offset="1" id="stop8065"/>
    </linearGradient>
    <linearGradient inkscape:collect="always" id="linearGradient8024">
      <stop style="stop-color:#c3ced1;stop-opacity:1" offset="0" id="stop8020"/>
      <stop style="stop-color:#f6f6f6;stop-opacity:1" offset="1" id="stop8022"/>
    </linearGradient>
    <linearGradient y2="6.7686791" x2="35.035843" y1="56.762737" x1="35.035843" gradientTransform="matrix(1.6693351,0,0,1.6746213,105.59431,107.20584)" gradientUnits="userSpaceOnUse" id="linearGradient6333" xlink:href="#linearGradient4471" inkscape:collect="always"/>
    <linearGradient id="linearGradient4471" inkscape:collect="always">
      <stop id="stop4473" offset="0" style="stop-color:#c9cfd1;stop-opacity:1"/>
      <stop id="stop4475" offset="1" style="stop-color:#ffffff;stop-opacity:1"/>
    </linearGradient>
    <linearGradient inkscape:collect="always" xlink:href="#selected_bg_color-black-2" id="linearGradient5867" gradientUnits="userSpaceOnUse" gradientTransform="matrix(1.1171118,0,0,1.1171118,312.64102,226.92818)" x1="-49.095852" y1="1041.1797" x2="-9.0958519" y2="1041.1797"/>
    <linearGradient id="selected_bg_color-black-2" osb:paint="solid">
      <stop style="stop-color:#2d393e;stop-opacity:0.11731844;" offset="0" id="stop5669"/>
    </linearGradient>
    <linearGradient inkscape:collect="always" xlink:href="#linearGradient9158" id="linearGradient8839-2" gradientUnits="userSpaceOnUse" gradientTransform="matrix(1.1665482,0,0,1.1545765,-1043.0007,-286.56471)" x1="1031.269" y1="365.65402" x2="1031.269" y2="380.15897"/>
    <linearGradient id="linearGradient9158">
      <stop style="stop-color:#000000;stop-opacity:0.20394737;" offset="0" id="stop9154"/>
      <stop style="stop-color:#000000;stop-opacity:0;" offset="1" id="stop9156"/>
    </linearGradient>
    <linearGradient inkscape:collect="always" xlink:href="#linearGradient9037" id="linearGradient9139" gradientUnits="userSpaceOnUse" gradientTransform="matrix(2.2252964,0,0,2.2252964,1436.4683,606.64496)" x1="-578.64746" y1="-204.78363" x2="-578.64746" y2="-214.62181"/>
    <linearGradient id="linearGradient9037" inkscape:collect="always">
      <stop id="stop9033" offset="0" style="stop-color:#dce1e8;stop-opacity:1"/>
      <stop id="stop9035" offset="1" style="stop-color:#ffffff;stop-opacity:1"/>
    </linearGradient>
    <linearGradient inkscape:collect="always" xlink:href="#selected_bg_color-4" id="linearGradient9055" gradientUnits="userSpaceOnUse" gradientTransform="matrix(0.89368935,0,0,0.89882962,135.66773,-754.15356)"/>
    <linearGradient id="selected_bg_color-4" osb:paint="solid">
      <stop style="stop-color:#33d351;stop-opacity:1;" offset="0" id="stop5956-1"/>
    </linearGradient>
    <linearGradient inkscape:collect="always" xlink:href="#linearGradient9158" id="linearGradient9057" gradientUnits="userSpaceOnUse" gradientTransform="matrix(1.1665482,0,0,0.92897385,-1044.1175,-161.78384)" x1="1031.269" y1="365.65402" x2="1031.269" y2="380.15897"/>
    <linearGradient inkscape:collect="always" xlink:href="#linearGradient9037" id="linearGradient8841" gradientUnits="userSpaceOnUse" gradientTransform="matrix(1.9920088,0,0,1.9920088,135.67203,147.62388)" x1="17.92" y1="19.84" x2="17.92" y2="11.306667"/>
    <linearGradient inkscape:collect="always" xlink:href="#linearGradient8024" id="linearGradient8010" x1="162.55118" y1="202.92914" x2="162.55118" y2="116" gradientUnits="userSpaceOnUse"/>
    <linearGradient inkscape:collect="always" xlink:href="#linearGradient8067" id="linearGradient8069" x1="160.30061" y1="202.34253" x2="160.42194" y2="115.35233" gradientUnits="userSpaceOnUse"/>
    <linearGradient gradientTransform="translate(-123.99997,-124)" inkscape:collect="always" xlink:href="#linearGradient8106" id="linearGradient8108-3" x1="160" y1="126.11024" x2="160" y2="194.14174" gradientUnits="userSpaceOnUse"/>
    <linearGradient inkscape:collect="always" xlink:href="#linearGradient9037" id="linearGradient33841" gradientUnits="userSpaceOnUse" gradientTransform="matrix(2.2252964,0,0,2.2252964,131.77023,147.33947)" x1="17.92" y1="19.84" x2="17.92" y2="11.306667"/>
    <linearGradient gradientTransform="matrix(0.68884547,0,0,0.68884547,-30.217202,-30.213324)" inkscape:collect="always" xlink:href="#linearGradient8024" id="linearGradient8010-3" x1="162.55118" y1="202.92914" x2="162.55118" y2="116" gradientUnits="userSpaceOnUse"/>
    <linearGradient inkscape:collect="always" xlink:href="#selected_bg_color-4" id="linearGradient9055-2" gradientUnits="userSpaceOnUse" gradientTransform="matrix(0.70887596,0,0,0.71295325,61.343185,-647.94897)"/>
    <linearGradient inkscape:collect="always" xlink:href="#linearGradient9158" id="linearGradient9057-1" gradientUnits="userSpaceOnUse" gradientTransform="matrix(0.92530814,0,0,0.73686371,-874.46461,-178.08027)" x1="1031.269" y1="365.65402" x2="1031.269" y2="380.15897"/>
    <linearGradient inkscape:collect="always" xlink:href="#linearGradient9037" id="linearGradient33841-0" gradientUnits="userSpaceOnUse" gradientTransform="matrix(1.7651089,0,0,1.7651089,58.251688,67.116911)" x1="17.92" y1="19.84" x2="17.92" y2="11.306667"/>
    <linearGradient inkscape:collect="always" xlink:href="#selected_bg_color-black-2" id="linearGradient5867-6" gradientUnits="userSpaceOnUse" gradientTransform="matrix(0.88609498,0,0,0.88609498,201.71872,134.24116)" x1="-49.095852" y1="1041.1797" x2="-9.0958519" y2="1041.1797"/>
    <linearGradient inkscape:collect="always" xlink:href="#linearGradient9158" id="linearGradient8839-2-6" gradientUnits="userSpaceOnUse" gradientTransform="matrix(0.92530814,0,0,0.91581213,-873.57869,-273.0623)" x1="1031.269" y1="365.65402" x2="1031.269" y2="380.15897"/>
    <linearGradient inkscape:collect="always" xlink:href="#linearGradient9037" id="linearGradient9139-2" gradientUnits="userSpaceOnUse" gradientTransform="matrix(1.7651089,0,0,1.7651089,1093.1405,435.4332)" x1="-578.64746" y1="-204.78363" x2="-578.64746" y2="-214.62181"/>
    <linearGradient inkscape:collect="always" xlink:href="#linearGradient9037" id="linearGradient9139-2-6" gradientUnits="userSpaceOnUse" gradientTransform="matrix(1.1791557,0,0,1.1791557,700.88405,260.05192)" x1="-578.64746" y1="-204.78363" x2="-578.64746" y2="-214.62181"/>
    <linearGradient inkscape:collect="always" xlink:href="#linearGradient9158" id="linearGradient8839-2-6-7" gradientUnits="userSpaceOnUse" gradientTransform="matrix(0.61813885,0,0,0.61179518,-612.95454,-213.24836)" x1="1031.269" y1="365.65402" x2="1031.269" y2="380.15897"/>
    <linearGradient inkscape:collect="always" xlink:href="#selected_bg_color-black-2" id="linearGradient5867-6-0" gradientUnits="userSpaceOnUse" gradientTransform="matrix(0.59194306,0,0,0.59194306,105.3825,58.844884)" x1="-49.095852" y1="1041.1797" x2="-9.0958519" y2="1041.1797"/>
    <linearGradient inkscape:collect="always" xlink:href="#linearGradient9037" id="linearGradient33841-0-3" gradientUnits="userSpaceOnUse" gradientTransform="matrix(1.1791557,0,0,1.1791557,9.5414004,16.895052)" x1="17.92" y1="19.84" x2="17.92" y2="11.306667"/>
    <linearGradient inkscape:collect="always" xlink:href="#linearGradient9158" id="linearGradient9057-1-7" gradientUnits="userSpaceOnUse" gradientTransform="matrix(0.61813885,0,0,0.49225125,-613.54637,-146.9054)" x1="1031.269" y1="365.65402" x2="1031.269" y2="380.15897"/>
    <linearGradient inkscape:collect="always" xlink:href="#selected_bg_color-4" id="linearGradient9055-2-5" gradientUnits="userSpaceOnUse" gradientTransform="matrix(0.47355443,0,0,0.47627821,11.60663,-460.79445)"/>
    <linearGradient gradientTransform="matrix(0.5332996,0,0,0.5332996,-61.329426,-61.326426)" inkscape:collect="always" xlink:href="#linearGradient8024" id="linearGradient8010-3-2" x1="162.55118" y1="202.92914" x2="162.55118" y2="116" gradientUnits="userSpaceOnUse"/>
    <linearGradient inkscape:collect="always" xlink:href="#linearGradient9037" id="linearGradient9139-6" gradientUnits="userSpaceOnUse" gradientTransform="matrix(2.6558437,0,0,2.6558437,1796.6932,803.67182)" x1="-578.64746" y1="-204.78363" x2="-578.64746" y2="-214.62181"/>
    <linearGradient inkscape:collect="always" xlink:href="#linearGradient9158" id="linearGradient8839-2-0" gradientUnits="userSpaceOnUse" gradientTransform="matrix(1.3922505,0,0,1.3779624,-1162.5002,-262.35488)" x1="1031.269" y1="365.65402" x2="1031.269" y2="380.15897"/>
    <linearGradient inkscape:collect="always" xlink:href="#selected_bg_color-black-2" id="linearGradient5867-5" gradientUnits="userSpaceOnUse" gradientTransform="matrix(1.333249,0,0,1.333249,455.42926,350.48792)" x1="-49.095852" y1="1041.1797" x2="-9.0958519" y2="1041.1797"/>
    <linearGradient inkscape:collect="always" xlink:href="#linearGradient9037" id="linearGradient33841-4" gradientUnits="userSpaceOnUse" gradientTransform="matrix(2.6558437,0,0,2.6558437,239.56383,255.50051)" x1="17.92" y1="19.84" x2="17.92" y2="11.306667"/>
    <linearGradient inkscape:collect="always" xlink:href="#linearGradient9158" id="linearGradient9057-7" gradientUnits="userSpaceOnUse" gradientTransform="matrix(1.3922505,0,0,1.1087105,-1163.8332,-113.43158)" x1="1031.269" y1="365.65402" x2="1031.269" y2="380.15897"/>
    <linearGradient inkscape:collect="always" xlink:href="#selected_bg_color-4" id="linearGradient9055-6" gradientUnits="userSpaceOnUse" gradientTransform="matrix(1.0665992,0,0,1.072734,244.2154,-820.4122)"/>
    <linearGradient gradientTransform="matrix(1.333249,0,0,1.333249,58.679234,58.681115)" inkscape:collect="always" xlink:href="#linearGradient8024" id="linearGradient8010-6" x1="162.55118" y1="202.92914" x2="162.55118" y2="116" gradientUnits="userSpaceOnUse"/>
    <linearGradient inkscape:collect="always" xlink:href="#linearGradient9037" id="linearGradient9139-2-6-9" gradientUnits="userSpaceOnUse" gradientTransform="matrix(0.79897004,0,0,0.79897004,442.50704,144.34584)" x1="-578.64746" y1="-204.78363" x2="-578.64746" y2="-214.62181"/>
    <linearGradient inkscape:collect="always" xlink:href="#linearGradient9037" id="linearGradient33841-0-3-6" gradientUnits="userSpaceOnUse" gradientTransform="matrix(0.79533722,0,0,0.79533722,-25.858265,-21.322208)" x1="17.92" y1="19.84" x2="17.92" y2="11.306667"/>
    <linearGradient inkscape:collect="always" xlink:href="#selected_bg_color-4" id="linearGradient9055-2-5-9" gradientUnits="userSpaceOnUse" gradientTransform="matrix(0.31941113,0,0,0.32124832,-24.465273,-343.52246)"/>
    <linearGradient gradientTransform="matrix(0.35553307,0,0,0.35553307,-72.886291,-72.884281)" inkscape:collect="always" xlink:href="#linearGradient8024" id="linearGradient8010-3-2-0" x1="162.55118" y1="202.92914" x2="162.55118" y2="116" gradientUnits="userSpaceOnUse"/>
    <linearGradient inkscape:collect="always" xlink:href="#linearGradient9037" id="linearGradient9139-2-6-9-7" gradientUnits="userSpaceOnUse" gradientTransform="matrix(0.59922752,0,0,0.59922752,299.88027,76.259378)" x1="-578.64746" y1="-204.78363" x2="-578.64746" y2="-214.62181"/>
    <linearGradient inkscape:collect="always" xlink:href="#linearGradient9037" id="linearGradient33841-0-3-6-5" gradientUnits="userSpaceOnUse" gradientTransform="matrix(0.59650291,0,0,0.59650291,-51.393699,-47.991657)" x1="17.92" y1="19.84" x2="17.92" y2="11.306667"/>
    <linearGradient inkscape:collect="always" xlink:href="#selected_bg_color-4" id="linearGradient9055-2-5-9-9" gradientUnits="userSpaceOnUse" gradientTransform="matrix(0.23955834,0,0,0.24093624,-50.348955,-289.64187)"/>
    <linearGradient gradientTransform="matrix(0.2666498,0,0,0.2666498,-86.664717,-86.663211)" inkscape:collect="always" xlink:href="#linearGradient8024" id="linearGradient8010-3-2-0-7" x1="162.55118" y1="202.92914" x2="162.55118" y2="116" gradientUnits="userSpaceOnUse"/>
    <linearGradient gradientTransform="matrix(0.193927,0,0,0.193927,-95.028862,-95.027772)" inkscape:collect="always" xlink:href="#linearGradient8024" id="linearGradient8010-3-2-0-7-8" x1="162.55118" y1="202.92914" x2="162.55118" y2="116" gradientUnits="userSpaceOnUse"/>
    <linearGradient inkscape:collect="always" xlink:href="#selected_bg_color-4" id="linearGradient9055-2-5-9-9-0" gradientUnits="userSpaceOnUse" gradientTransform="matrix(0.19448357,0,0,0.19560221,-69.167343,-264.47742)"/>
    <symbol id="icon-search" viewBox="0 0 26 28">
      <title id="title12944">search</title>
      <path d="M18 13c0-3.859-3.141-7-7-7s-7 3.141-7 7 3.141 7 7 7 7-3.141 7-7zM26 26c0 1.094-0.906 2-2 2-0.531 0-1.047-0.219-1.406-0.594l-5.359-5.344c-1.828 1.266-4.016 1.937-6.234 1.937-6.078 0-11-4.922-11-11s4.922-11 11-11 11 4.922 11 11c0 2.219-0.672 4.406-1.937 6.234l5.359 5.359c0.359 0.359 0.578 0.875 0.578 1.406z" id="path12946"/>
    </symbol>
    <symbol id="icon-sliders" viewBox="0 0 24 28">
      <title id="title15089">sliders</title>
      <path d="M5.5 22v2h-5.5v-2h5.5zM11 20c0.547 0 1 0.453 1 1v4c0 0.547-0.453 1-1 1h-4c-0.547 0-1-0.453-1-1v-4c0-0.547 0.453-1 1-1h4zM13.5 14v2h-13.5v-2h13.5zM3.5 6v2h-3.5v-2h3.5zM24 22v2h-11.5v-2h11.5zM9 4c0.547 0 1 0.453 1 1v4c0 0.547-0.453 1-1 1h-4c-0.547 0-1-0.453-1-1v-4c0-0.547 0.453-1 1-1h4zM19 12c0.547 0 1 0.453 1 1v4c0 0.547-0.453 1-1 1h-4c-0.547 0-1-0.453-1-1v-4c0-0.547 0.453-1 1-1h4zM24 14v2h-3.5v-2h3.5zM24 6v2h-13.5v-2h13.5z" id="path15091"/>
    </symbol>
  </defs>
  <sodipodi:namedview pagecolor="#383c4a" bordercolor="#ffffff" borderopacity="0.62745098" objecttolerance="4" gridtolerance="10" guidetolerance="4" inkscape:pageopacity="0" inkscape:pageshadow="2" inkscape:window-width="640" inkscape:window-height="480" id="namedview20" showgrid="true" inkscape:zoom="1.4789492" inkscape:cx="185.69572" inkscape:cy="-120.06035" inkscape:current-layer="layer12" inkscape:snap-smooth-nodes="true" showguides="true" borderlayer="true" inkscape:showpageshadow="false" inkscape:guide-bbox="true" guidecolor="#bd4fff" guideopacity="0.78431373" inkscape:snap-nodes="true" inkscape:lockguides="false" fit-margin-top="0" fit-margin-left="0" fit-margin-right="0" fit-margin-bottom="0" guidehicolor="#ff0101" guidehiopacity="0.78431373" inkscape:snap-page="true" inkscape:object-nodes="true" inkscape:snap-bbox="true" inkscape:snap-global="true" inkscape:snap-object-midpoints="false" inkscape:snap-bbox-edge-midpoints="false">
    <inkscape:grid type="xygrid" id="grid4171" empspacing="4" dotted="false" originx="2.7755576e-17" originy="0" spacingx="1" spacingy="1" color="#5a5a5a" opacity="0.23529412" empcolor="#5a5a5a" empopacity="0.47058824" visible="true"/>
    <inkscape:grid type="axonomgrid" id="grid4699" units="mm" empspacing="4" color="#5a5a5a" opacity="0.23529412" empcolor="#5a5a5a" empopacity="0.47058824" gridanglex="45" gridanglez="45" spacingy="3.7795276" visible="false" originx="1.3228346" originy="1.3228346"/>
    <sodipodi:guide position="48,0" orientation="1,0" id="guide4568" inkscape:locked="false" inkscape:label="" inkscape:color="rgb(189,79,255)"/>
    <sodipodi:guide position="111.99996,-3.9999999e-05" orientation="0,1" id="guide4570" inkscape:locked="false" inkscape:label="" inkscape:color="rgb(189,79,255)"/>
    <sodipodi:guide position="0,0" orientation="1,0" id="guide4572" inkscape:locked="false" inkscape:label="" inkscape:color="rgb(189,79,255)"/>
    <sodipodi:guide position="0,48" orientation="0,1" id="guide4574" inkscape:locked="false" inkscape:label="" inkscape:color="rgb(189,79,255)"/>
    <sodipodi:guide position="0,80" orientation="0,1" id="guide4576" inkscape:locked="false" inkscape:label="" inkscape:color="rgb(189,79,255)"/>
    <sodipodi:guide position="-32,48" orientation="1,0" id="guide4578" inkscape:locked="false" inkscape:label="" inkscape:color="rgb(189,79,255)"/>
    <sodipodi:guide position="-32,104" orientation="0,1" id="guide4580" inkscape:locked="false" inkscape:label="" inkscape:color="rgb(189,79,255)"/>
    <sodipodi:guide position="-56,80" orientation="1,0" id="guide4582" inkscape:locked="false" inkscape:label="" inkscape:color="rgb(189,79,255)"/>
    <sodipodi:guide position="48,-64" orientation="0,1" id="guide4584" inkscape:locked="false" inkscape:label="" inkscape:color="rgb(189,79,255)"/>
    <sodipodi:guide position="0,0" orientation="-0.70710678,0.70710678" id="guide4588" inkscape:locked="false" inkscape:label="" inkscape:color="rgb(189,79,255)"/>
    <sodipodi:guide position="-56,80" orientation="-0.70710678,0.70710678" id="guide4573" inkscape:locked="false" inkscape:label="" inkscape:color="rgb(189,79,255)"/>
    <sodipodi:guide position="-32,48" orientation="-0.70710678,0.70710678" id="guide4575" inkscape:locked="false" inkscape:label="" inkscape:color="rgb(189,79,255)"/>
    <sodipodi:guide position="48,-64" orientation="-0.70710678,0.70710678" id="guide4577" inkscape:locked="false" inkscape:label="" inkscape:color="rgb(189,79,255)"/>
    <sodipodi:guide position="47.999962,0" orientation="0.70710678,0.70710678" id="guide4697" inkscape:locked="false" inkscape:label="" inkscape:color="rgb(189,79,255)"/>
    <sodipodi:guide position="207.99995,-288" orientation="0,1" id="guide7833" inkscape:locked="false"/>
    <sodipodi:guide position="335.99994,-288" orientation="1,0" id="guide7835" inkscape:locked="false" inkscape:label="" inkscape:color="rgb(189,79,255)"/>
    <sodipodi:guide position="111.99996,-64" orientation="1,0" id="guide7915" inkscape:locked="false"/>
    <sodipodi:guide position="111.99996,-160" orientation="0,1" id="guide7917" inkscape:locked="false"/>
    <sodipodi:guide position="207.99996,-160" orientation="1,0" id="guide7919" inkscape:locked="false"/>
    <sodipodi:guide position="111.99996,-160" orientation="-0.70710678,0.70710678" id="guide7921" inkscape:locked="false" inkscape:label="" inkscape:color="rgb(189,79,255)"/>
    <sodipodi:guide position="207.99996,-288" orientation="-0.70710678,0.70710678" id="guide7923" inkscape:locked="false" inkscape:label="" inkscape:color="rgb(189,79,255)"/>
    <sodipodi:guide position="-72,104" orientation="1,0" id="guide7824" inkscape:locked="false"/>
    <sodipodi:guide position="-56,120" orientation="0,1" id="guide7826" inkscape:locked="false"/>
    <sodipodi:guide position="-72,104" orientation="-0.70710678,0.70710678" id="guide7828" inkscape:locked="false" inkscape:label="" inkscape:color="rgb(189,79,255)"/>
  </sodipodi:namedview>
  <g inkscape:groupmode="layer" id="g7907" inkscape:label="icon_64" style="display:inline" transform="translate(-48,-48)">
    <g inkscape:groupmode="layer" id="g7843" inkscape:label="frame" style="display:none">
      <rect inkscape:label="frame_64" y="48" x="48" height="64" width="64" id="rect7837" style="color:#000000;clip-rule:nonzero;display:inline;overflow:visible;visibility:visible;opacity:1;isolation:auto;mix-blend-mode:normal;color-interpolation:sRGB;color-interpolation-filters:linearRGB;solid-color:#000000;solid-opacity:1;vector-effect:none;fill:#000000;fill-opacity:1;fill-rule:nonzero;stroke:#ff24f7;stroke-width:0;stroke-linecap:square;stroke-linejoin:miter;stroke-miterlimit:4;stroke-dasharray:none;stroke-dashoffset:0;stroke-opacity:0.99481865;marker:none;marker-start:none;marker-mid:none;marker-end:none;paint-order:normal;color-rendering:auto;image-rendering:auto;shape-rendering:auto;text-rendering:auto;enable-background:accumulate"/>
      <text xml:space="preserve" style="font-size:16px;line-height:0%;font-family:sans-serif;letter-spacing:0px;word-spacing:0px;display:inline;opacity:1;fill:#ffffff;fill-opacity:1;stroke:none;stroke-width:0.03278551px;stroke-linecap:butt;stroke-linejoin:miter;stroke-opacity:1" x="69.816406" y="85.824219" id="text7841" inkscape:label="txt_64">
        <tspan sodipodi:role="line" x="69.816406" y="85.824219" style="font-size:16px;line-height:0%;fill:#ffffff;fill-opacity:1;stroke:none;stroke-width:0.03278551px" id="tspan7839">64</tspan>
      </text>
    </g>
    <g inkscape:groupmode="layer" id="g7905" inkscape:label="icon" style="display:inline">
      <path inkscape:label="base sombra" style="color:#000000;clip-rule:nonzero;display:inline;overflow:visible;visibility:visible;opacity:1;isolation:auto;mix-blend-mode:normal;color-interpolation:sRGB;color-interpolation-filters:linearRGB;solid-color:#000000;solid-opacity:1;vector-effect:none;fill:#000000;fill-opacity:0.109375;fill-rule:nonzero;stroke:none;stroke-width:0.68884546;stroke-linecap:butt;stroke-linejoin:miter;stroke-miterlimit:4;stroke-dasharray:none;stroke-dashoffset:0;stroke-opacity:0.45833333;marker:none;marker-start:none;marker-mid:none;marker-end:none;paint-order:fill markers stroke;color-rendering:auto;image-rendering:auto;shape-rendering:auto;text-rendering:auto;enable-background:accumulate" d="m 56.293826,51.003908 h 47.408454 c 2.93278,0 5.40959,2.363332 5.29383,5.293826 V 103.70617 C 108.9961,106.63895 106.63506,109 103.70228,109 H 56.293826 C 53.361046,109 50.999993,106.63895 51,103.70617 V 56.297734 c -7e-6,-2.932781 2.363346,-5.409924 5.293826,-5.293826 z" id="path33850" inkscape:connector-curvature="0" sodipodi:nodetypes="ccccccccc"/>
      <path inkscape:label="base" sodipodi:nodetypes="ccccccccc" inkscape:connector-curvature="0" id="path33852" d="m 57,52 h 46 c 2.93278,0 5,2.06722 5,5 l -2e-5,45.68918 C 107.99997,105.62196 105.93278,108 103,108 H 56.999641 c -2.93278,0 -4.999668,-2.37804 -4.999668,-5.31082 L 52,57 c -7e-6,-2.93278 2.06722,-5 5,-5 z" style="color:#000000;clip-rule:nonzero;display:inline;overflow:visible;visibility:visible;opacity:1;isolation:auto;mix-blend-mode:normal;color-interpolation:sRGB;color-interpolation-filters:linearRGB;solid-color:#000000;solid-opacity:1;vector-effect:none;fill:url(#linearGradient8010-3);fill-opacity:1;fill-rule:nonzero;stroke:none;stroke-width:0.68884546;stroke-linecap:butt;stroke-linejoin:miter;stroke-miterlimit:4;stroke-dasharray:none;stroke-dashoffset:0;stroke-opacity:0.45833333;marker:none;marker-start:none;marker-mid:none;marker-end:none;paint-order:fill markers stroke;color-rendering:auto;image-rendering:auto;shape-rendering:auto;text-rendering:auto;enable-background:accumulate"/>
      <path inkscape:label="base brillo inferior" sodipodi:nodetypes="csccscccc" inkscape:connector-curvature="0" id="path33854" d="m 52,102 v 0.68885 C 52,105.62163 54.067219,108 57,108 h 46 c 2.93227,-0.0545 5,-2.37837 5,-5.31115 V 102 c 0,2.93278 -2.06925,4.89102 -5,5 H 57 c -2.932781,0 -5,-2.06722 -5,-5 z" style="color:#000000;clip-rule:nonzero;display:inline;overflow:visible;visibility:visible;opacity:1;isolation:auto;mix-blend-mode:normal;color-interpolation:sRGB;color-interpolation-filters:linearRGB;solid-color:#000000;solid-opacity:1;vector-effect:none;fill:#ffffff;fill-opacity:0.54166667;fill-rule:nonzero;stroke:none;stroke-width:0.68884546;stroke-linecap:butt;stroke-linejoin:miter;stroke-miterlimit:4;stroke-dasharray:none;stroke-dashoffset:0;stroke-opacity:0.45833333;marker:none;marker-start:none;marker-mid:none;marker-end:none;paint-order:fill markers stroke;color-rendering:auto;image-rendering:auto;shape-rendering:auto;text-rendering:auto;enable-background:accumulate"/>
      <path inkscape:connector-curvature="0" id="path33856" d="m 69.147155,86.921305 h 23.377701 c 4.047257,0 7.305509,3.369434 7.305509,7.554786 0,4.185352 -3.258252,7.554769 -7.305509,7.554769 H 69.147155 c -4.047256,0 -7.305516,-3.369417 -7.305516,-7.554769 0,-4.185352 3.25826,-7.554786 7.305516,-7.554786 z" style="display:inline;opacity:1;vector-effect:none;fill:#ffffff;fill-opacity:0.36458333;fill-rule:nonzero;stroke:none;stroke-width:0.99679786;stroke-linecap:butt;stroke-linejoin:miter;stroke-miterlimit:4;stroke-dasharray:none;stroke-dashoffset:0;stroke-opacity:1" sodipodi:nodetypes="sssssss"/>
      <path inkscape:connector-curvature="0" id="path33858" d="m 69.583575,87.830367 h 21.266278 c 3.681726,0 6.645712,2.963991 6.645712,6.645724 0,3.681721 -2.963986,6.645689 -6.645712,6.645689 H 69.583575 c -3.681725,0 -6.645712,-2.963968 -6.645712,-6.645689 0,-3.681733 2.963987,-6.645724 6.645712,-6.645724 z" style="display:inline;opacity:1;fill:url(#linearGradient9055-2);fill-opacity:1;fill-rule:nonzero;stroke:none;stroke-width:0.79983807" sodipodi:nodetypes="sssssss"/>
      <path style="color:#000000;font-style:normal;font-variant:normal;font-weight:normal;font-stretch:normal;font-size:medium;line-height:normal;font-family:sans-serif;font-variant-ligatures:normal;font-variant-position:normal;font-variant-caps:normal;font-variant-numeric:normal;font-variant-alternates:normal;font-feature-settings:normal;text-indent:0;text-align:start;text-decoration:none;text-decoration-line:none;text-decoration-style:solid;text-decoration-color:#000000;letter-spacing:normal;word-spacing:normal;text-transform:none;writing-mode:lr-tb;direction:ltr;text-orientation:mixed;dominant-baseline:auto;baseline-shift:baseline;text-anchor:start;white-space:normal;shape-padding:0;clip-rule:nonzero;display:inline;overflow:visible;visibility:visible;opacity:1;isolation:auto;mix-blend-mode:normal;color-interpolation:sRGB;color-interpolation-filters:linearRGB;solid-color:#000000;solid-opacity:1;vector-effect:none;fill:url(#linearGradient9057-1);fill-opacity:1;fill-rule:nonzero;stroke:none;stroke-width:0.79482335;stroke-linecap:butt;stroke-linejoin:miter;stroke-miterlimit:4;stroke-dasharray:none;stroke-dashoffset:0;stroke-opacity:1;paint-order:normal;color-rendering:auto;image-rendering:auto;shape-rendering:auto;text-rendering:auto;enable-background:accumulate" d="m 69.538765,87.842614 c -3.636534,0 -6.576508,2.939948 -6.576508,6.576492 v 0.102133 c 0,3.636531 2.939974,6.578191 6.576508,6.578191 h 21.397864 c 3.636533,0 6.57642,-2.94166 6.57642,-6.578191 v -0.102133 c 0,-3.636544 -2.939887,-6.576492 -6.57642,-6.576492 z m 0,0.8861 h 21.397864 c 3.160967,0 5.690324,2.529423 5.690324,5.690392 v 0.102133 c 0,3.160968 -2.529357,5.692091 -5.690324,5.692091 H 69.538765 c -3.160967,0 -5.690413,-2.531123 -5.690413,-5.692091 v -0.102133 c 0,-3.160969 2.529446,-5.690392 5.690413,-5.690392 z" id="path33860" inkscape:connector-curvature="0" inkscape:label="base sombra" sodipodi:nodetypes="ssssssssssssssssss"/>
      <path style="display:inline;opacity:1;vector-effect:none;fill:#ffffff;fill-opacity:0.58333333;fill-rule:nonzero;stroke:none;stroke-width:0.9997943;stroke-linecap:butt;stroke-linejoin:miter;stroke-miterlimit:4;stroke-dasharray:none;stroke-dashoffset:0;stroke-opacity:1" d="m 68.581179,58.130102 h 23.518468 c 4.071624,0 7.349493,3.369431 7.349493,7.554785 0,4.185354 -3.277869,7.554792 -7.349493,7.554792 H 68.581179 c -4.071622,0 -7.349501,-3.369438 -7.349501,-7.554792 0,-4.185354 3.277879,-7.554785 7.349501,-7.554785 z" id="path33868" inkscape:connector-curvature="0" sodipodi:nodetypes="sssssss"/>
      <path inkscape:connector-curvature="0" id="path33870" d="m 70.469723,59.039183 h 21.266289 c 3.681715,0 6.645702,2.963979 6.645702,6.645704 0,3.681724 -2.963987,6.645712 -6.645702,6.645712 H 70.469723 c -3.681725,0 -6.645713,-2.963988 -6.645713,-6.645712 0,-3.681725 2.963988,-6.645704 6.645713,-6.645704 z" style="display:inline;opacity:1;vector-effect:none;fill:url(#linearGradient5867-6);fill-opacity:1;fill-rule:nonzero;stroke:none;stroke-width:0.89168549;stroke-linecap:butt;stroke-linejoin:miter;stroke-miterlimit:4;stroke-dasharray:none;stroke-dashoffset:0;stroke-opacity:1" sodipodi:nodetypes="sssssss"/>
      <path style="color:#000000;font-style:normal;font-variant:normal;font-weight:normal;font-stretch:normal;font-size:medium;line-height:normal;font-family:sans-serif;font-variant-ligatures:normal;font-variant-position:normal;font-variant-caps:normal;font-variant-numeric:normal;font-variant-alternates:normal;font-feature-settings:normal;text-indent:0;text-align:start;text-decoration:none;text-decoration-line:none;text-decoration-style:solid;text-decoration-color:#000000;letter-spacing:normal;word-spacing:normal;text-transform:none;writing-mode:lr-tb;direction:ltr;text-orientation:mixed;dominant-baseline:auto;baseline-shift:baseline;text-anchor:start;white-space:normal;shape-padding:0;clip-rule:nonzero;display:inline;overflow:visible;visibility:visible;opacity:1;isolation:auto;mix-blend-mode:normal;color-interpolation:sRGB;color-interpolation-filters:linearRGB;solid-color:#000000;solid-opacity:1;vector-effect:none;fill:url(#linearGradient8839-2-6);fill-opacity:1;fill-rule:nonzero;stroke:none;stroke-width:0.88609493;stroke-linecap:butt;stroke-linejoin:miter;stroke-miterlimit:4;stroke-dasharray:none;stroke-dashoffset:0;stroke-opacity:1;paint-order:normal;color-rendering:auto;image-rendering:auto;shape-rendering:auto;text-rendering:auto;enable-background:accumulate" d="m 70.424868,59.051412 c -3.636534,0 -6.576507,2.939947 -6.576507,6.57649 v 0.10211 c 0,3.636534 2.939973,6.578219 6.576507,6.578219 h 21.397865 c 3.636534,0 6.57642,-2.941685 6.57642,-6.578219 v -0.10211 c 0,-3.636543 -2.939886,-6.57649 -6.57642,-6.57649 z m 0,0.886094 h 21.397865 c 3.160966,0 5.690325,2.529429 5.690325,5.690396 v 0.10211 c 0,3.160967 -2.529359,5.692124 -5.690325,5.692124 H 70.424868 c -3.160965,0 -5.690414,-2.531157 -5.690414,-5.692124 v -0.10211 c 0,-3.160967 2.529449,-5.690396 5.690414,-5.690396 z" id="path33872" inkscape:connector-curvature="0" inkscape:label="base sombra" sodipodi:nodetypes="ssssssssssssssssss"/>
      <path inkscape:connector-curvature="0" id="path33880" d="m 57.010404,55.0135 c -1.092764,0 -1.978623,0.88586 -1.978623,1.978623 0,1.092763 0.885859,1.978623 1.978623,1.978623 1.092763,0 1.978623,-0.88586 1.978623,-1.978623 0,-1.092763 -0.88586,-1.978623 -1.978623,-1.978623 z m 46.003276,0.04232 c -1.09694,0 -1.98618,0.889244 -1.98618,1.986179 0,1.096935 0.88924,1.986179 1.98618,1.986179 1.09694,0 1.98618,-0.889244 1.98618,-1.986179 0,-1.096935 -0.88924,-1.986179 -1.98618,-1.986179 z m -46.00592,45.57266 c -1.100282,0 -1.992239,0.89195 -1.992239,1.99224 0,1.10028 0.891957,1.99223 1.992239,1.99223 1.100283,0 1.99224,-0.89195 1.99224,-1.99223 0,-1.10029 -0.891957,-1.99224 -1.99224,-1.99224 z M 103,100.59122 c -1.10424,0 -1.9994,0.89516 -1.9994,1.99941 0,1.10424 0.89516,1.9994 1.9994,1.9994 1.10424,0 1.9994,-0.89516 1.9994,-1.9994 0,-1.10425 -0.89516,-1.99941 -1.9994,-1.99941 z" style="color:#000000;clip-rule:nonzero;display:inline;overflow:visible;visibility:visible;opacity:1;isolation:auto;mix-blend-mode:normal;color-interpolation:sRGB;color-interpolation-filters:linearRGB;solid-color:#000000;solid-opacity:1;vector-effect:none;fill:#000000;fill-opacity:0.1875;fill-rule:nonzero;stroke:none;stroke-width:0.39764979;stroke-linecap:butt;stroke-linejoin:miter;stroke-miterlimit:4;stroke-dasharray:none;stroke-dashoffset:0;stroke-opacity:0.19791667;marker:none;marker-start:none;marker-mid:none;marker-end:none;paint-order:fill markers stroke;color-rendering:auto;image-rendering:auto;shape-rendering:auto;text-rendering:auto;enable-background:accumulate" sodipodi:nodetypes="ssssscscscscscsccccc"/>
      <path inkscape:connector-curvature="0" id="path33882" d="m 58.986384,102.84536 c -0.106431,-1.01309 -0.959963,-1.78268 -1.978624,-1.78407 -1.012662,4e-4 -1.86391,0.76041 -1.978622,1.76656 -0.0081,-0.0684 -0.01258,-0.13723 -0.01359,-0.20622 0,-1.10029 0.891957,-1.99224 1.99224,-1.99224 1.100282,0 1.992238,0.89195 1.992238,1.99224 -3.28e-4,0.0748 -0.0049,0.14946 -0.01359,0.22373 z m 45.999346,-0.0293 c -0.10681,-1.01674 -0.96341,-1.78911 -1.98573,-1.7905 -1.01631,4.1e-4 -1.87062,0.76315 -1.98575,1.77292 -0.007,-0.0686 -0.0116,-0.13773 -0.0131,-0.20697 0,-1.10424 0.89516,-1.9994 1.99941,-1.9994 1.10424,0 1.9994,0.89516 1.9994,1.9994 -1.3e-4,0.075 -0.004,0.15001 -0.0131,0.22455 z M 58.975504,57.215233 c -0.105711,-1.006158 -0.953404,-1.7705 -1.9651,-1.771876 -1.005739,4e-4 -1.851169,0.755219 -1.965099,1.754484 -0.008,-0.06799 -0.01255,-0.136357 -0.0135,-0.204818 0,-1.092763 0.88586,-1.978623 1.978623,-1.978623 1.092763,10e-7 1.978622,0.885861 1.978622,1.978623 -3.26e-4,0.07426 -0.0048,0.148452 -0.0135,0.22221 z m 46.010766,0.05072 c -0.1061,-1.009998 -0.95703,-1.777257 -1.97259,-1.778643 -1.00959,3.98e-4 -1.85825,0.758101 -1.97261,1.761185 -0.007,-0.06826 -0.0115,-0.136887 -0.013,-0.2056 0,-1.096935 0.88924,-1.986179 1.98618,-1.986179 1.09694,0 1.98618,0.889244 1.98618,1.986179 -1.3e-4,0.07453 -0.004,0.149008 -0.013,0.223058 z" style="color:#000000;clip-rule:nonzero;display:inline;overflow:visible;visibility:visible;opacity:1;isolation:auto;mix-blend-mode:normal;color-interpolation:sRGB;color-interpolation-filters:linearRGB;solid-color:#000000;solid-opacity:1;vector-effect:none;fill:#000000;fill-opacity:0.31770833;fill-rule:nonzero;stroke:none;stroke-width:0.39764979;stroke-linecap:butt;stroke-linejoin:miter;stroke-miterlimit:4;stroke-dasharray:none;stroke-dashoffset:0;stroke-opacity:0.19791667;marker:none;marker-start:none;marker-mid:none;marker-end:none;paint-order:fill markers stroke;color-rendering:auto;image-rendering:auto;shape-rendering:auto;text-rendering:auto;enable-background:accumulate" sodipodi:nodetypes="ccccscccccccccccccccsccccccccccc"/>
      <path style="color:#000000;clip-rule:nonzero;display:inline;overflow:visible;visibility:visible;opacity:1;isolation:auto;mix-blend-mode:normal;color-interpolation:sRGB;color-interpolation-filters:linearRGB;solid-color:#000000;solid-opacity:1;vector-effect:none;fill:#ffffff;fill-opacity:0.921875;fill-rule:nonzero;stroke:none;stroke-width:0.39764979;stroke-linecap:butt;stroke-linejoin:miter;stroke-miterlimit:4;stroke-dasharray:none;stroke-dashoffset:0;stroke-opacity:0.19791667;marker:none;marker-start:none;marker-mid:none;marker-end:none;paint-order:fill markers stroke;color-rendering:auto;image-rendering:auto;shape-rendering:auto;text-rendering:auto;enable-background:accumulate" d="m 58.975504,57.170803 c -0.105711,1.006159 -0.953404,1.770501 -1.9651,1.771877 -1.005739,-4.01e-4 -1.851169,-0.75522 -1.965099,-1.754486 -0.008,0.06799 -0.01255,0.136358 -0.0135,0.204818 0,1.092763 0.88586,1.978623 1.978623,1.978623 1.092763,-10e-7 1.978622,-0.88586 1.978622,-1.978623 -3.26e-4,-0.07426 -0.0048,-0.148451 -0.0135,-0.222209 z m 46.010766,0.05055 c -0.1061,1.009998 -0.95703,1.777258 -1.97259,1.778643 -1.00959,-3.98e-4 -1.85825,-0.758101 -1.97261,-1.761186 -0.007,0.06826 -0.0115,0.136887 -0.013,0.2056 0,1.096935 0.88924,1.986179 1.98618,1.986179 1.09694,0 1.98618,-0.889244 1.98618,-1.986179 -1.3e-4,-0.07454 -0.004,-0.149007 -0.013,-0.223057 z M 58.986384,102.80062 c -0.106431,1.01309 -0.959963,1.78269 -1.978624,1.78408 -1.012662,-4.1e-4 -1.86391,-0.76042 -1.978622,-1.76657 -0.0081,0.0684 -0.01258,0.13724 -0.01359,0.20624 0,1.10029 0.891957,1.99224 1.99224,1.99224 1.100282,0 1.992238,-0.89195 1.992238,-1.99224 -3.28e-4,-0.0748 -0.0049,-0.14948 -0.01359,-0.22375 z m 45.999346,-0.0294 c -0.10681,1.01674 -0.96341,1.7891 -1.98573,1.7905 -1.01631,-4.1e-4 -1.87062,-0.76316 -1.98575,-1.77292 -0.007,0.0686 -0.0116,0.13787 -0.0131,0.20698 0,1.10424 0.89516,1.9994 1.99941,1.9994 1.10424,0 1.9994,-0.89516 1.9994,-1.9994 -1.3e-4,-0.075 -0.004,-0.15001 -0.0131,-0.22456 z" id="path33884" inkscape:connector-curvature="0" sodipodi:nodetypes="ccccscccccccccccccccsccccccccccc"/>
      <path style="color:#000000;clip-rule:nonzero;display:block;overflow:visible;visibility:visible;opacity:1;isolation:auto;mix-blend-mode:normal;color-interpolation:sRGB;color-interpolation-filters:linearRGB;solid-color:#000000;solid-opacity:1;vector-effect:none;fill:#000000;fill-opacity:0.171875;fill-rule:nonzero;stroke:none;stroke-width:0.56729895;stroke-linecap:butt;stroke-linejoin:miter;stroke-miterlimit:4;stroke-dasharray:none;stroke-dashoffset:0;stroke-opacity:0.59375;marker:none;marker-start:none;marker-mid:none;marker-end:none;paint-order:fill markers stroke;color-rendering:auto;image-rendering:auto;shape-rendering:auto;text-rendering:auto;enable-background:accumulate" d="m 52,80 h 56 v 1 H 52 Z" id="rect33886" inkscape:connector-curvature="0" sodipodi:nodetypes="ccccc"/>
      <path style="color:#000000;clip-rule:nonzero;display:block;overflow:visible;visibility:visible;opacity:1;isolation:auto;mix-blend-mode:normal;color-interpolation:sRGB;color-interpolation-filters:linearRGB;solid-color:#000000;solid-opacity:1;vector-effect:none;fill:#ffffff;fill-opacity:0.66666667;fill-rule:nonzero;stroke:none;stroke-width:0.56729895;stroke-linecap:butt;stroke-linejoin:miter;stroke-miterlimit:4;stroke-dasharray:none;stroke-dashoffset:0;stroke-opacity:0.59375;marker:none;marker-start:none;marker-mid:none;marker-end:none;paint-order:fill markers stroke;color-rendering:auto;image-rendering:auto;shape-rendering:auto;text-rendering:auto;enable-background:accumulate" d="m 52,81 h 56 v 1 H 52 Z" id="rect33888" inkscape:connector-curvature="0" sodipodi:nodetypes="ccccc"/>
      <circle r="10.190092" inkscape:label="circulo sombra" cy="95.36219" cx="89.963753" id="circle33862" style="display:inline;opacity:1;fill:#000000;fill-opacity:0.15686275;stroke:none;stroke-width:0.42486197;stroke-linejoin:miter;stroke-miterlimit:4.5999999;stroke-dasharray:none;stroke-opacity:0.19696972"/>
      <circle inkscape:label="circulo" style="display:inline;opacity:1;fill:url(#linearGradient33841-0);fill-opacity:1;stroke:none;stroke-width:0.36900982;stroke-linejoin:miter;stroke-miterlimit:4.5999999;stroke-dasharray:none;stroke-opacity:1" id="circle33864" cx="89.963753" cy="94.476097" r="9.303997"/>
      <circle r="8.8810844" cy="94.476097" cx="89.963753" id="circle33866" style="display:inline;opacity:1;fill:none;fill-opacity:1;stroke:#ffffff;stroke-width:0.84581757;stroke-linejoin:miter;stroke-miterlimit:4.5999999;stroke-dasharray:none;stroke-opacity:0.23706898" inkscape:label="circulo brillo"/>
      <circle style="display:inline;opacity:1;fill:#000000;fill-opacity:0.15686275;stroke:none;stroke-width:0.42486197;stroke-linejoin:miter;stroke-miterlimit:4.5999999;stroke-dasharray:none;stroke-opacity:0.19696972" id="circle33874" cx="-71.355927" cy="66.570961" r="10.190092" inkscape:label="circulo sombra" transform="scale(-1,1)"/>
      <circle inkscape:label="circulo" style="display:inline;opacity:1;vector-effect:none;fill:url(#linearGradient9139-2);fill-opacity:1;stroke:none;stroke-width:0.36900982;stroke-linecap:butt;stroke-linejoin:miter;stroke-miterlimit:4.5999999;stroke-dasharray:none;stroke-dashoffset:0;stroke-opacity:1" id="circle33876" cx="71.35582" cy="65.684868" r="9.303997"/>
      <circle r="8.8810844" cy="65.684868" cx="71.35582" id="circle33878" style="display:inline;opacity:1;fill:none;fill-opacity:1;stroke:#ffffff;stroke-width:0.84581757;stroke-linejoin:miter;stroke-miterlimit:4.5999999;stroke-dasharray:none;stroke-opacity:0.23706898" inkscape:label="circulo brillo"/>
    </g>
  </g>
</svg>