<?xml version="1.0" encoding="UTF-8" standalone="yes"?>
<svg xmlns:dc="http://purl.org/dc/elements/1.1/" xmlns:cc="http://creativecommons.org/ns#" xmlns:rdf="http://www.w3.org/1999/02/22-rdf-syntax-ns#" xmlns:svg="http://www.w3.org/2000/svg" xmlns="http://www.w3.org/2000/svg" xmlns:xlink="http://www.w3.org/1999/xlink" xmlns:sodipodi="http://sodipodi.sourceforge.net/DTD/sodipodi-0.dtd" xmlns:inkscape="http://www.inkscape.org/namespaces/inkscape" height="64" viewBox="0 0 64 64" width="64" id="svg2" version="1.1" inkscape:version="0.92.1 r" sodipodi:docname="help-browser.svg" enable-background="new" folder="64">
  <title id="title4675">Template icons dark</title>
  <metadata id="metadata24">
    <rdf:RDF>
      <cc:Work rdf:about="">
        <dc:format>image/svg+xml</dc:format>
        <dc:type rdf:resource="http://purl.org/dc/dcmitype/StillImage"/>
        <dc:title>Template icons dark</dc:title>
        <dc:date>17/05/13</dc:date>
        <dc:creator>
          <cc:Agent>
            <dc:title>wfpaisa</dc:title>
          </cc:Agent>
        </dc:creator>
        <dc:rights>
          <cc:Agent>
            <dc:title>License: GPLv3</dc:title>
          </cc:Agent>
        </dc:rights>
        <dc:language>es-en</dc:language>
        <dc:subject>
          <rdf:Bag>
            <rdf:li>plane-icon-theme</rdf:li>
          </rdf:Bag>
        </dc:subject>
        <dc:description>Template for create set icons</dc:description>
        <cc:license rdf:resource="https://www.gnu.org/licenses/gpl-3.0.en.html"/>
      </cc:Work>
    </rdf:RDF>
  </metadata>
  <defs id="defs22">
    <linearGradient id="linearGradient7842" inkscape:collect="always">
      <stop id="stop7836" offset="0" style="stop-color:#ff2a0b;stop-opacity:1"/>
      <stop style="stop-color:#110200;stop-opacity:0.453125" offset="0.49622226" id="stop7854"/>
      <stop style="stop-color:#000000;stop-opacity:0.13020833" offset="0.53191489" id="stop7848"/>
      <stop style="stop-color:#ffcdc5;stop-opacity:0.10588235;" offset="0.61702126" id="stop7846"/>
      <stop id="stop7850" offset="0.70212764" style="stop-color:#ffd2cb;stop-opacity:0.16145833"/>
      <stop style="stop-color:#ffe2dd;stop-opacity:0" offset="0.77759355" id="stop7844"/>
      <stop style="stop-color:#ffffff;stop-opacity:0.109375" offset="0.87234044" id="stop7838"/>
      <stop id="stop7852" offset="0.93617022" style="stop-color:#ffffff;stop-opacity:0.078125"/>
      <stop id="stop7840" offset="1" style="stop-color:#000000;stop-opacity:0.35416666"/>
    </linearGradient>
    <linearGradient id="linearGradient7816" inkscape:collect="always">
      <stop id="stop7808" offset="0" style="stop-color:#000000;stop-opacity:0"/>
      <stop style="stop-color:#000000;stop-opacity:0" offset="0.49738139" id="stop7810"/>
      <stop style="stop-color:#000000;stop-opacity:0.27083334" offset="0.74869066" id="stop7812"/>
      <stop id="stop7814" offset="1" style="stop-color:#000000;stop-opacity:0"/>
    </linearGradient>
    <linearGradient inkscape:collect="always" id="linearGradient7800">
      <stop style="stop-color:#c5c5c5;stop-opacity:1" offset="0" id="stop7796"/>
      <stop style="stop-color:#f4f4f4;stop-opacity:1" offset="1" id="stop7798"/>
    </linearGradient>
    <linearGradient inkscape:collect="always" id="linearGradient7790">
      <stop style="stop-color:#cd3a00;stop-opacity:1" offset="0" id="stop7786"/>
      <stop style="stop-color:#cf6e53;stop-opacity:1" offset="1" id="stop7788"/>
    </linearGradient>
    <linearGradient inkscape:collect="always" id="linearGradient7730">
      <stop style="stop-color:#ffffff;stop-opacity:0" offset="0" id="stop7726"/>
      <stop id="stop7754" offset="0.65650702" style="stop-color:#ffffff;stop-opacity:0"/>
      <stop id="stop7752" offset="0.82896906" style="stop-color:#fff8f4;stop-opacity:0.26041666"/>
      <stop style="stop-color:#ffffff;stop-opacity:0" offset="1" id="stop7728"/>
    </linearGradient>
    <linearGradient inkscape:collect="always" xlink:href="#linearGradient7790" id="linearGradient7792" x1="160" y1="205" x2="160" y2="113" gradientUnits="userSpaceOnUse"/>
    <linearGradient inkscape:collect="always" xlink:href="#linearGradient7800" id="linearGradient7802" x1="170" y1="201.25058" x2="170" y2="119" gradientUnits="userSpaceOnUse"/>
    <linearGradient gradientTransform="matrix(1.2916667,0,0,1.2916667,65.414517,65.800307)" inkscape:collect="always" xlink:href="#linearGradient7790" id="linearGradient7792-0" x1="160" y1="205" x2="160" y2="113" gradientUnits="userSpaceOnUse"/>
    <linearGradient gradientTransform="matrix(1.2916667,0,0,1.2916667,65.414517,65.800307)" inkscape:collect="always" xlink:href="#linearGradient7800" id="linearGradient7802-7" x1="170" y1="201.25058" x2="170" y2="119" gradientUnits="userSpaceOnUse"/>
    <linearGradient gradientTransform="matrix(0.66666665,0,0,0.66666665,-26.557583,-26.743496)" inkscape:collect="always" xlink:href="#linearGradient7800" id="linearGradient7802-9" x1="170" y1="201.25058" x2="170" y2="119" gradientUnits="userSpaceOnUse"/>
    <linearGradient gradientTransform="matrix(0.66666665,0,0,0.66666665,-26.557583,-26.743496)" inkscape:collect="always" xlink:href="#linearGradient7790" id="linearGradient7792-4" x1="160" y1="205" x2="160" y2="113" gradientUnits="userSpaceOnUse"/>
    <linearGradient gradientTransform="matrix(0.5,0,0,0.5,-56.000002,-55.999999)" inkscape:collect="always" xlink:href="#linearGradient7800" id="linearGradient7802-1" x1="170" y1="201.25058" x2="170" y2="119" gradientUnits="userSpaceOnUse"/>
    <linearGradient gradientTransform="matrix(0.5,0,0,0.5,-56.000002,-55.999999)" inkscape:collect="always" xlink:href="#linearGradient7790" id="linearGradient7792-00" x1="160" y1="205" x2="160" y2="113" gradientUnits="userSpaceOnUse"/>
    <linearGradient gradientTransform="matrix(0.33333333,0,0,0.33333333,-69.333334,-69.333332)" inkscape:collect="always" xlink:href="#linearGradient7800" id="linearGradient7802-2" x1="170" y1="201.25058" x2="170" y2="119" gradientUnits="userSpaceOnUse"/>
    <linearGradient gradientTransform="matrix(0.33333333,0,0,0.33333333,-69.333334,-69.333332)" inkscape:collect="always" xlink:href="#linearGradient7790" id="linearGradient7792-2" x1="160" y1="205" x2="160" y2="113" gradientUnits="userSpaceOnUse"/>
    <linearGradient gradientTransform="matrix(0.25,0,0,0.25,-84,-84)" inkscape:collect="always" xlink:href="#linearGradient7800" id="linearGradient7802-2-6" x1="170" y1="201.25058" x2="170" y2="119" gradientUnits="userSpaceOnUse"/>
    <linearGradient gradientTransform="matrix(0.25,0,0,0.25,-84,-84)" inkscape:collect="always" xlink:href="#linearGradient7790" id="linearGradient7792-2-3" x1="160" y1="205" x2="160" y2="113" gradientUnits="userSpaceOnUse"/>
    <linearGradient gradientTransform="matrix(0.16666666,0,0,0.16666666,-90.666669,-90.666665)" inkscape:collect="always" xlink:href="#linearGradient7800" id="linearGradient7802-2-3" x1="170" y1="201.25058" x2="170" y2="119" gradientUnits="userSpaceOnUse"/>
    <linearGradient gradientTransform="matrix(0.16666666,0,0,0.16666666,-90.666669,-90.666665)" inkscape:collect="always" xlink:href="#linearGradient7790" id="linearGradient7792-2-8" x1="160" y1="205" x2="160" y2="113" gradientUnits="userSpaceOnUse"/>
    <radialGradient inkscape:collect="always" xlink:href="#linearGradient7730" id="radialGradient7750" cx="160.03294" cy="154.04303" fx="160.03294" fy="154.04303" r="47" gradientUnits="userSpaceOnUse" gradientTransform="matrix(0.93644398,0,0,0.93617029,10.138119,9.7894953)"/>
    <radialGradient inkscape:collect="always" xlink:href="#linearGradient7816" id="radialGradient7806" gradientUnits="userSpaceOnUse" gradientTransform="matrix(1.0420069,0,0,0.87187823,-6.6414605,26.640695)" cx="158.17044" cy="167.51665" fx="158.17044" fy="167.51665" r="47"/>
    <radialGradient inkscape:collect="always" xlink:href="#linearGradient7842" id="radialGradient7834" cx="160" cy="160" fx="160" fy="160" r="47" gradientUnits="userSpaceOnUse"/>
    <radialGradient gradientTransform="matrix(1.2916667,0,0,1.2916667,65.414517,65.800307)" inkscape:collect="always" xlink:href="#linearGradient7842" id="radialGradient7834-2" cx="160" cy="160" fx="160" fy="160" r="47" gradientUnits="userSpaceOnUse"/>
    <radialGradient gradientTransform="matrix(0.66666665,0,0,0.66666665,-26.557583,-26.743496)" inkscape:collect="always" xlink:href="#linearGradient7842" id="radialGradient7834-6" cx="160" cy="160" fx="160" fy="160" r="47" gradientUnits="userSpaceOnUse"/>
    <radialGradient gradientTransform="matrix(0.5,0,0,0.5,-56.000002,-55.999999)" inkscape:collect="always" xlink:href="#linearGradient7842" id="radialGradient7834-60" cx="160" cy="160" fx="160" fy="160" r="47" gradientUnits="userSpaceOnUse"/>
    <radialGradient gradientTransform="matrix(0.33333333,0,0,0.33333333,-69.333334,-69.333332)" inkscape:collect="always" xlink:href="#linearGradient7842" id="radialGradient7834-9" cx="160" cy="160" fx="160" fy="160" r="47" gradientUnits="userSpaceOnUse"/>
    <radialGradient gradientTransform="matrix(0.25,0,0,0.25,-84,-84)" inkscape:collect="always" xlink:href="#linearGradient7842" id="radialGradient7834-9-3" cx="160" cy="160" fx="160" fy="160" r="47" gradientUnits="userSpaceOnUse"/>
  </defs>
  <sodipodi:namedview pagecolor="#383c4a" bordercolor="#ffffff" borderopacity="0.62745098" objecttolerance="4" gridtolerance="10" guidetolerance="4" inkscape:pageopacity="0" inkscape:pageshadow="2" inkscape:window-width="640" inkscape:window-height="480" id="namedview20" showgrid="true" inkscape:zoom="21.128842" inkscape:cx="-50.912361" inkscape:cy="106.50951" inkscape:current-layer="layer8" inkscape:snap-smooth-nodes="false" showguides="true" borderlayer="true" inkscape:showpageshadow="false" inkscape:guide-bbox="true" guidecolor="#bd4fff" guideopacity="0.78431373" inkscape:snap-nodes="true" inkscape:lockguides="false" fit-margin-top="0" fit-margin-left="0" fit-margin-right="0" fit-margin-bottom="0" guidehicolor="#ff0101" guidehiopacity="0.78431373" inkscape:snap-page="true" inkscape:object-nodes="true" inkscape:snap-bbox="true" inkscape:snap-global="false" inkscape:snap-object-midpoints="false" inkscape:snap-bbox-edge-midpoints="false">
    <inkscape:grid type="xygrid" id="grid4171" empspacing="4" dotted="false" originx="2.7755576e-17" originy="0" spacingx="1" spacingy="1" color="#5a5a5a" opacity="0.23529412" empcolor="#5a5a5a" empopacity="0.47058824" visible="true"/>
    <inkscape:grid type="axonomgrid" id="grid4699" units="mm" empspacing="4" color="#5a5a5a" opacity="0.23529412" empcolor="#5a5a5a" empopacity="0.47058824" gridanglex="45" gridanglez="45" spacingy="3.7795276" visible="false" originx="1.3228346" originy="1.3228346"/>
    <sodipodi:guide position="48,0" orientation="1,0" id="guide4568" inkscape:locked="false" inkscape:label="" inkscape:color="rgb(189,79,255)"/>
    <sodipodi:guide position="111.99996,-3.9999999e-05" orientation="0,1" id="guide4570" inkscape:locked="false" inkscape:label="" inkscape:color="rgb(189,79,255)"/>
    <sodipodi:guide position="0,0" orientation="1,0" id="guide4572" inkscape:locked="false" inkscape:label="" inkscape:color="rgb(189,79,255)"/>
    <sodipodi:guide position="0,48" orientation="0,1" id="guide4574" inkscape:locked="false" inkscape:label="" inkscape:color="rgb(189,79,255)"/>
    <sodipodi:guide position="0,80" orientation="0,1" id="guide4576" inkscape:locked="false" inkscape:label="" inkscape:color="rgb(189,79,255)"/>
    <sodipodi:guide position="-32,48" orientation="1,0" id="guide4578" inkscape:locked="false" inkscape:label="" inkscape:color="rgb(189,79,255)"/>
    <sodipodi:guide position="-32,104" orientation="0,1" id="guide4580" inkscape:locked="false" inkscape:label="" inkscape:color="rgb(189,79,255)"/>
    <sodipodi:guide position="-56,80" orientation="1,0" id="guide4582" inkscape:locked="false" inkscape:label="" inkscape:color="rgb(189,79,255)"/>
    <sodipodi:guide position="48,-64" orientation="0,1" id="guide4584" inkscape:locked="false" inkscape:label="" inkscape:color="rgb(189,79,255)"/>
    <sodipodi:guide position="0,0" orientation="-0.70710678,0.70710678" id="guide4588" inkscape:locked="false" inkscape:label="" inkscape:color="rgb(189,79,255)"/>
    <sodipodi:guide position="-56,80" orientation="-0.70710678,0.70710678" id="guide4573" inkscape:locked="false" inkscape:label="" inkscape:color="rgb(189,79,255)"/>
    <sodipodi:guide position="-32,48" orientation="-0.70710678,0.70710678" id="guide4575" inkscape:locked="false" inkscape:label="" inkscape:color="rgb(189,79,255)"/>
    <sodipodi:guide position="48,-64" orientation="-0.70710678,0.70710678" id="guide4577" inkscape:locked="false" inkscape:label="" inkscape:color="rgb(189,79,255)"/>
    <sodipodi:guide position="47.999962,0" orientation="0.70710678,0.70710678" id="guide4697" inkscape:locked="false" inkscape:label="" inkscape:color="rgb(189,79,255)"/>
    <sodipodi:guide position="207.99995,-288" orientation="0,1" id="guide7833" inkscape:locked="false"/>
    <sodipodi:guide position="335.99994,-288" orientation="1,0" id="guide7835" inkscape:locked="false" inkscape:label="" inkscape:color="rgb(189,79,255)"/>
    <sodipodi:guide position="111.99996,-64" orientation="1,0" id="guide7915" inkscape:locked="false"/>
    <sodipodi:guide position="111.99996,-160" orientation="0,1" id="guide7917" inkscape:locked="false"/>
    <sodipodi:guide position="207.99996,-160" orientation="1,0" id="guide7919" inkscape:locked="false"/>
    <sodipodi:guide position="111.99996,-160" orientation="-0.70710678,0.70710678" id="guide7921" inkscape:locked="false" inkscape:label="" inkscape:color="rgb(189,79,255)"/>
    <sodipodi:guide position="207.99996,-288" orientation="-0.70710678,0.70710678" id="guide7923" inkscape:locked="false" inkscape:label="" inkscape:color="rgb(189,79,255)"/>
    <sodipodi:guide position="-72,104" orientation="1,0" id="guide7824" inkscape:locked="false"/>
    <sodipodi:guide position="-56,120" orientation="0,1" id="guide7826" inkscape:locked="false"/>
    <sodipodi:guide position="-72,104" orientation="-0.70710678,0.70710678" id="guide7828" inkscape:locked="false" inkscape:label="" inkscape:color="rgb(189,79,255)"/>
  </sodipodi:namedview>
  <g inkscape:groupmode="layer" id="g7907" inkscape:label="icon_64" style="display:inline" transform="translate(-48,-48)">
    <g inkscape:groupmode="layer" id="g7843" inkscape:label="frame" style="display:none">
      <rect inkscape:label="frame_64" y="48" x="48" height="64" width="64" id="rect7837" style="color:#000000;clip-rule:nonzero;display:inline;overflow:visible;visibility:visible;opacity:1;isolation:auto;mix-blend-mode:normal;color-interpolation:sRGB;color-interpolation-filters:linearRGB;solid-color:#000000;solid-opacity:1;vector-effect:none;fill:#000000;fill-opacity:1;fill-rule:nonzero;stroke:#ff24f7;stroke-width:0;stroke-linecap:square;stroke-linejoin:miter;stroke-miterlimit:4;stroke-dasharray:none;stroke-dashoffset:0;stroke-opacity:0.99481865;marker:none;marker-start:none;marker-mid:none;marker-end:none;paint-order:normal;color-rendering:auto;image-rendering:auto;shape-rendering:auto;text-rendering:auto;enable-background:accumulate"/>
      <text xml:space="preserve" style="font-size:16px;line-height:0%;font-family:sans-serif;letter-spacing:0px;word-spacing:0px;display:inline;opacity:1;fill:#ffffff;fill-opacity:1;stroke:none;stroke-width:0.03278551px;stroke-linecap:butt;stroke-linejoin:miter;stroke-opacity:1" x="69.816406" y="85.824219" id="text7841" inkscape:label="txt_64">
        <tspan sodipodi:role="line" x="69.816406" y="85.824219" style="font-size:16px;line-height:0%;fill:#ffffff;fill-opacity:1;stroke:none;stroke-width:0.03278551px" id="tspan7839">64</tspan>
      </text>
    </g>
    <g inkscape:groupmode="layer" id="g7905" inkscape:label="icon" style="display:inline">
      <path style="display:inline;fill:none;fill-rule:evenodd;stroke:#ffffff;stroke-width:0.86666662;stroke-linecap:butt;stroke-linejoin:miter;stroke-miterlimit:4;stroke-dasharray:none;stroke-dashoffset:0;stroke-opacity:1" d="m 59.073928,49.923169 c -2.939633,0 -2.73382,4.39724 -4.601567,6.147133 -1.526153,1.42986 -5.00494,0.51944 -5.256506,3.42448 -0.312754,3.611507 -0.04933,10.386433 0.917966,12.259113 l 20.73958,-20.497393 c 0,0 -9.118886,-1.333333 -11.799473,-1.333333 z m 41.428382,0 c -2.68059,0 -11.799483,1.333333 -11.799483,1.333333 l 20.739583,20.497393 c 0.9673,-1.87268 1.23072,-8.647606 0.91797,-12.259113 -0.25157,-2.90504 -3.73035,-1.99462 -5.25651,-3.42448 -1.86774,-1.749893 -1.66193,-6.147133 -4.60156,-6.147133 z M 50.133821,88.572908 c -0.9673,1.87268 -1.23072,8.647608 -0.917966,12.259112 0.251566,2.90504 3.730353,1.99462 5.256506,3.42448 1.867747,1.7499 1.661934,6.14714 4.601567,6.14714 2.680587,0 11.799473,-1.33334 11.799473,-1.33334 z m 59.308589,0 -20.739583,20.497392 c 0,0 9.118893,1.33334 11.799483,1.33334 2.93963,0 2.73382,-4.39724 4.60156,-6.14714 1.52616,-1.42986 5.00494,-0.51944 5.25651,-3.42448 0.31275,-3.611504 0.0493,-10.386432 -0.91797,-12.259112 z" id="path7931-5" inkscape:connector-curvature="0" inkscape:label="n"/>
      <path style="display:inline;fill:none;fill-rule:evenodd;stroke:#9c8456;stroke-width:0.86666662;stroke-linecap:butt;stroke-linejoin:miter;stroke-miterlimit:4;stroke-dasharray:1.7333333, 0.86666665;stroke-dashoffset:0;stroke-opacity:1" d="m 59.073928,49.923169 c -2.939633,0 -2.73382,4.39724 -4.601567,6.147133 -1.526153,1.42986 -5.00494,0.51944 -5.256506,3.42448 -0.312754,3.611507 -0.04933,10.386433 0.917966,12.259113 l 20.73958,-20.497393 c 0,0 -9.118886,-1.333333 -11.799473,-1.333333 z m 41.428382,0 c -2.68059,0 -11.799483,1.333333 -11.799483,1.333333 l 20.739583,20.497393 c 0.9673,-1.87268 1.23072,-8.647606 0.91797,-12.259113 -0.25157,-2.90504 -3.73035,-1.99462 -5.25651,-3.42448 -1.86774,-1.749893 -1.66193,-6.147133 -4.60156,-6.147133 z M 50.133821,88.572908 c -0.9673,1.87268 -1.23072,8.647608 -0.917966,12.259112 0.251566,2.90504 3.730353,1.99462 5.256506,3.42448 1.867747,1.7499 1.661934,6.14714 4.601567,6.14714 2.680587,0 11.799473,-1.33334 11.799473,-1.33334 z m 59.308589,0 -20.739583,20.497392 c 0,0 9.118893,1.33334 11.799483,1.33334 2.93963,0 2.73382,-4.39724 4.60156,-6.14714 1.52616,-1.42986 5.00494,-0.51944 5.25651,-3.42448 0.31275,-3.611504 0.0493,-10.386432 -0.91797,-12.259112 z" id="path7933-7" inkscape:connector-curvature="0" inkscape:label="a"/>
      <path inkscape:connector-curvature="0" id="path7780-3" d="m 80.109081,47.923169 c -17.673113,0 -32,14.326886 -32,31.999999 0,17.673115 14.326887,32.000002 32,32.000002 17.673112,0 31.999999,-14.326887 31.999999,-32.000002 0,-17.673113 -14.326887,-31.999999 -31.999999,-31.999999 z m 0,17.333333 c 8.100173,0 14.666666,6.566493 14.666666,14.666666 0,8.100173 -6.566493,14.666668 -14.666666,14.666668 -8.100173,0 -14.666667,-6.566495 -14.666667,-14.666668 0,-8.100173 6.566494,-14.666666 14.666667,-14.666666 z" style="color:#000000;clip-rule:nonzero;display:block;overflow:visible;visibility:visible;opacity:1;isolation:auto;mix-blend-mode:normal;color-interpolation:sRGB;color-interpolation-filters:linearRGB;solid-color:#000000;solid-opacity:1;vector-effect:none;fill:#000000;fill-opacity:0.05208333;fill-rule:nonzero;stroke:none;stroke-width:0.69565213;stroke-linecap:butt;stroke-linejoin:miter;stroke-miterlimit:4;stroke-dasharray:none;stroke-dashoffset:0;stroke-opacity:0.36979167;marker:none;marker-start:none;marker-mid:none;marker-end:none;paint-order:fill markers stroke;color-rendering:auto;image-rendering:auto;shape-rendering:auto;text-rendering:auto;enable-background:accumulate" sodipodi:nodetypes="ssssssssss" inkscape:label="base sombra"/>
      <path style="color:#000000;clip-rule:nonzero;display:block;overflow:visible;visibility:visible;opacity:1;isolation:auto;mix-blend-mode:normal;color-interpolation:sRGB;color-interpolation-filters:linearRGB;solid-color:#000000;solid-opacity:1;vector-effect:none;fill:url(#linearGradient7792-4);fill-opacity:1;fill-rule:nonzero;stroke:none;stroke-width:0.68115938;stroke-linecap:butt;stroke-linejoin:miter;stroke-miterlimit:4;stroke-dasharray:none;stroke-dashoffset:0;stroke-opacity:0.36979167;marker:none;marker-start:none;marker-mid:none;marker-end:none;paint-order:fill markers stroke;color-rendering:auto;image-rendering:auto;shape-rendering:auto;text-rendering:auto;enable-background:accumulate" d="M 80.109081,48.589836 A 31.333333,31.333333 0 0 0 48.775748,79.923168 31.333333,31.333333 0 0 0 80.109081,111.2565 31.333333,31.333333 0 0 0 111.44241,79.923168 31.333333,31.333333 0 0 0 80.109081,48.589836 Z m 0,15.999999 A 15.333333,15.333333 0 0 1 95.442413,79.923168 15.333333,15.333333 0 0 1 80.109081,95.256503 15.333333,15.333333 0 0 1 64.775748,79.923168 15.333333,15.333333 0 0 1 80.109081,64.589835 Z" id="path7721-3" inkscape:connector-curvature="0" inkscape:label="base"/>
      <path style="color:#000000;clip-rule:nonzero;display:inline;overflow:visible;visibility:visible;opacity:1;isolation:auto;mix-blend-mode:normal;color-interpolation:sRGB;color-interpolation-filters:linearRGB;solid-color:#000000;solid-opacity:1;vector-effect:none;fill:url(#linearGradient7802-9);fill-opacity:1;fill-rule:nonzero;stroke:#441201;stroke-width:0.8062402;stroke-linecap:butt;stroke-linejoin:miter;stroke-miterlimit:4;stroke-dasharray:none;stroke-dashoffset:0;stroke-opacity:0.390625;marker:none;marker-start:none;marker-mid:none;marker-end:none;paint-order:fill markers stroke;color-rendering:auto;image-rendering:auto;shape-rendering:auto;text-rendering:auto;enable-background:accumulate" d="m 64.222361,52.919262 c -4.582593,2.701894 -8.415293,6.534593 -11.117186,11.117187 l 12.747393,10.786459 a 15.160106,15.160106 0 0 1 9.154953,-9.160153 z m 31.773439,0 -10.786459,12.747393 a 15.160106,15.160106 0 0 1 9.160152,9.154953 L 107.11299,64.036449 c -2.7019,-4.582594 -6.5346,-8.415293 -11.11719,-11.117187 z M 65.849968,85.027335 53.105175,95.809889 c 2.7017,4.582271 6.53372,8.415331 11.115886,11.117191 L 75.006214,94.178376 a 15.160106,15.160106 0 0 1 -9.156246,-9.151041 z m 28.514319,0 a 15.160106,15.160106 0 0 1 -9.15104,9.154948 L 95.9958,106.92708 c 4.58227,-2.7017 8.41533,-6.53372 11.11719,-11.115891 z" id="rect7741-8" inkscape:connector-curvature="0" inkscape:label="four"/>
      <path inkscape:label="base" inkscape:connector-curvature="0" id="path7822-9" d="M 80.109081,48.589836 A 31.333333,31.333333 0 0 0 48.775748,79.923168 31.333333,31.333333 0 0 0 80.109081,111.2565 31.333333,31.333333 0 0 0 111.44241,79.923168 31.333333,31.333333 0 0 0 80.109081,48.589836 Z m 0,15.999999 A 15.333333,15.333333 0 0 1 95.442413,79.923168 15.333333,15.333333 0 0 1 80.109081,95.256503 15.333333,15.333333 0 0 1 64.775748,79.923168 15.333333,15.333333 0 0 1 80.109081,64.589835 Z" style="color:#000000;clip-rule:nonzero;display:inline;overflow:visible;visibility:visible;opacity:1;isolation:auto;mix-blend-mode:normal;color-interpolation:sRGB;color-interpolation-filters:linearRGB;solid-color:#000000;solid-opacity:1;vector-effect:none;fill:url(#radialGradient7834-6);fill-opacity:1;fill-rule:nonzero;stroke:none;stroke-width:0.68115938;stroke-linecap:butt;stroke-linejoin:miter;stroke-miterlimit:4;stroke-dasharray:none;stroke-dashoffset:0;stroke-opacity:0.36979167;marker:none;marker-start:none;marker-mid:none;marker-end:none;paint-order:fill markers stroke;color-rendering:auto;image-rendering:auto;shape-rendering:auto;text-rendering:auto;enable-background:accumulate"/>
      <path style="display:inline;fill:none;fill-rule:evenodd;stroke:#ffffff;stroke-width:0.66666663px;stroke-linecap:butt;stroke-linejoin:miter;stroke-opacity:0.21354167" d="m 64.874708,52.589836 10.829426,12.666666 z m 30.394525,0 -10.829426,12.666666 z M 52.701528,64.589835 65.368194,75.419262 Z M 65.368194,84.533848 52.701528,95.363276 Z m 29.407553,0 12.666663,10.829428 z M 75.704134,94.696609 64.874708,107.36328 Z m 8.735673,0 10.829426,12.666671 z" id="path7867-55" inkscape:connector-curvature="0" inkscape:label="brillos"/>
      <path style="font-style:normal;font-variant:normal;font-weight:normal;font-stretch:normal;font-size:medium;line-height:1000%;font-family:Z003;-inkscape-font-specification:Z003;letter-spacing:0px;word-spacing:0px;display:inline;fill:#000000;fill-opacity:0.44270833;stroke:none;stroke-width:0.15310702px;stroke-linecap:butt;stroke-linejoin:miter;stroke-opacity:1" d="m 103.86777,63.681069 c -0.0405,-0.0033 -0.0763,0.0097 -0.102,0.041 -0.0373,0.0454 -0.0614,0.133533 -0.0683,0.257786 -0.008,0.133054 -0.0122,0.2154 -0.0161,0.247114 -0.09,-0.118214 -0.1361,-0.178074 -0.1399,-0.181187 -0.0114,-0.0093 -0.0354,-0.0076 -0.0463,0.0053 -0.0155,0.019 -0.0597,0.239154 -0.0914,0.44766 l 0.0399,0.05233 c 0.005,-0.01793 0.0155,-0.054 0.0315,-0.10428 0.0125,-0.05 0.0167,-0.059 0.0292,-0.07417 0.0187,-0.02267 0.0484,-0.02053 0.0825,0.0075 0.0682,0.05593 0.46298,0.566753 0.78149,1.008853 l -0.0523,0.07145 0.0144,0.106566 c 0.0298,-0.03253 0.0481,-0.05533 0.0543,-0.06287 l 0.11436,-0.134754 0.10096,-0.119826 c 0.0125,-0.01513 0.034,-0.04093 0.071,-0.08981 l 6.7e-4,-0.09793 -0.18573,0.202486 c -0.0953,-0.119426 -0.14014,-0.175853 -0.16422,-0.208293 -0.0319,-0.04213 -0.0659,-0.08204 -0.0998,-0.125693 l -0.0639,-0.08736 c 0.0387,-0.03167 0.0575,-0.0512 0.084,-0.0834 0.0855,-0.104147 0.0928,-0.1326 0.0909,-0.381334 0.002,-0.106346 -0.006,-0.151026 -0.038,-0.224493 -0.0733,-0.16162 -0.18786,-0.322633 -0.2958,-0.411227 -0.0455,-0.03727 -0.0913,-0.058 -0.13194,-0.0616 z m -0.96028,0.07884 c -0.0421,0.032 -0.0594,0.04967 -0.0812,0.07615 -0.0621,0.07574 -0.0817,0.157727 -0.0746,0.318893 0.006,0.143907 0.0186,0.189754 0.0665,0.270327 0.033,0.05247 0.15224,0.219813 0.22001,0.307133 l 0.48074,0.623147 c 0.01,0.01127 0.0195,0.02213 0.0309,0.03153 0.0587,0.0482 0.1418,0.06247 0.16668,0.03213 l 0.01,-0.01153 0.005,-0.0047 c 0.015,-0.0067 0.0231,-0.10148 0.0495,-0.523554 l -0.0413,-0.03493 c -0.01,0.0584 -0.0101,0.05873 -0.0258,0.182113 -0.0109,0.08289 -0.0224,0.127287 -0.0395,0.14812 -0.0155,0.01893 -0.0503,0.0156 -0.0769,-0.006 l -0.0173,-0.01407 -0.0173,-0.01407 c -0.0341,-0.02793 -0.33158,-0.414387 -0.54106,-0.703593 -0.21962,-0.30388 -0.23736,-0.3473 -0.16897,-0.43062 0.0233,-0.0284 0.0409,-0.046 0.0896,-0.08212 z m 0.9712,0.140806 c 0.0269,0.0033 0.0578,0.01853 0.09,0.04493 0.0852,0.06993 0.17133,0.18534 0.23471,0.316606 0.0716,0.14438 0.0743,0.25408 0.0106,0.331714 -0.0389,0.04733 -0.0961,0.08586 -0.1599,0.10956 l -0.0499,-0.06287 -0.10502,-0.1341 -0.10005,-0.129633 c -0.008,-0.0097 -0.028,-0.0356 -0.0559,-0.07121 0.0123,-0.246626 0.03,-0.33336 0.0704,-0.382593 0.0155,-0.01893 0.0381,-0.02627 0.0651,-0.0224 z m -1.82627,0.90478 c -0.0393,0.0248 -0.0533,0.039 -0.0814,0.07301 -0.0202,0.02453 -0.0338,0.045 -0.0437,0.06863 -0.0237,0.0598 -0.0271,0.21848 -0.009,0.36984 0.0193,0.14258 0.0462,0.209046 0.13718,0.3376 l 0.14181,0.20238 c 0.004,0.0067 0.0201,0.02887 0.0445,0.06473 l -0.3305,0.403567 c -0.0267,-0.04087 -0.0467,-0.0669 -0.0531,-0.07846 -0.0361,-0.04867 -0.0705,-0.09569 -0.10468,-0.1428 -0.0361,-0.04867 -0.072,-0.09767 -0.10656,-0.148227 -0.006,-0.0081 -0.0279,-0.03567 -0.0575,-0.07271 l -0.002,-0.124593 c -0.0442,0.04613 -0.072,0.0803 -0.0938,0.106813 -0.15231,0.185567 -0.22298,0.3404 -0.23118,0.504827 -0.008,0.16442 0.0421,0.281007 0.16149,0.37892 0.0303,0.02487 0.052,0.037 0.10675,0.063 l 0.0693,-0.181273 c -0.0746,-0.03267 -0.10578,-0.05187 -0.14744,-0.08607 -0.10414,-0.08548 -0.14408,-0.1916 -0.11598,-0.295313 0.0199,-0.06287 0.0509,-0.112467 0.14569,-0.227974 0.0695,0.10456 0.078,0.113507 0.27702,0.3846 l 0.0434,0.05847 0.0163,0.12778 0.0441,-0.0466 c 0.27759,0.37998 0.29497,0.46378 0.12867,0.666387 -0.0249,0.03027 -0.0437,0.05273 -0.0864,0.09695 l 0.0495,0.189933 c 0.0399,-0.037 0.0558,-0.05247 0.0838,-0.08655 0.0497,-0.0606 0.0833,-0.11212 0.10114,-0.160867 0.0311,-0.07269 0.0334,-0.22946 0.0119,-0.411853 -0.0217,-0.18584 -0.0286,-0.201467 -0.17423,-0.4256 0.17757,-0.247233 0.22919,-0.317993 0.31432,-0.4256 0.032,0.04213 0.0522,0.07151 0.062,0.08273 l 0.12539,0.17564 c 0.21069,0.283866 0.21101,0.283726 0.23562,0.303926 0.0209,0.01707 0.0551,0.01407 0.0737,-0.0087 0.0109,-0.01327 0.0224,-0.03547 0.0339,-0.061 0.0271,-0.06013 0.0465,-0.09482 0.17802,-0.3323 l -0.0189,-0.07319 c -0.0714,0.106227 -0.0963,0.139593 -0.13673,0.188827 -0.0311,0.03787 -0.0686,0.04527 -0.10081,0.0188 -0.0587,-0.0482 -0.0586,-0.04813 -0.43061,-0.556367 -0.32278,-0.46778 -0.32295,-0.46788 -0.34029,-0.520133 -0.0221,-0.06573 -0.0145,-0.113494 0.029,-0.166507 0.0311,-0.03787 0.0519,-0.05513 0.10127,-0.08432 z m 0.71569,0.189154 c -0.0334,0.0033 -0.0653,0.023 -0.0932,0.05707 -0.0342,0.04167 -0.0475,0.07727 -0.0603,0.142907 -0.0174,0.106153 -0.0195,0.2124 -0.005,0.287573 0.0281,0.143454 0.18374,0.37942 0.33712,0.505307 0.11172,0.09171 0.2298,0.09035 0.30906,-0.006 0.0917,-0.11172 0.12664,-0.324407 0.0974,-0.586093 l -0.0538,-0.04687 c 0.005,0.257167 -0.0148,0.37792 -0.0739,0.449867 -0.0404,0.04927 -0.10386,0.0604 -0.16398,0.03327 -0.0365,-0.01727 -0.0589,-0.03253 -0.11384,-0.07759 0.0166,-0.132173 0.0226,-0.21618 0.0309,-0.396287 0.008,-0.167866 -0.0238,-0.257313 -0.109,-0.327253 -0.0331,-0.0272 -0.068,-0.03913 -0.10136,-0.03567 z m -0.0274,0.182206 c 0.0209,0.002 0.0443,0.01247 0.068,0.03187 0.0947,0.07772 0.1103,0.18268 0.0755,0.48374 -0.17808,-0.200047 -0.26375,-0.412973 -0.19536,-0.496287 0.0125,-0.01513 0.0309,-0.0214 0.0519,-0.01933 z" id="path7927-3" inkscape:connector-curvature="0" inkscape:label="help"/>
      <path style="color:#000000;clip-rule:nonzero;display:block;overflow:visible;visibility:visible;opacity:1;isolation:auto;mix-blend-mode:normal;color-interpolation:sRGB;color-interpolation-filters:linearRGB;solid-color:#000000;solid-opacity:1;vector-effect:none;fill:#000000;fill-opacity:0.11979167;fill-rule:nonzero;stroke:none;stroke-width:0.86666662;stroke-linecap:butt;stroke-linejoin:miter;stroke-miterlimit:4;stroke-dasharray:none;stroke-dashoffset:0;stroke-opacity:1;marker:none;marker-start:none;marker-mid:none;marker-end:none;paint-order:fill markers stroke;color-rendering:auto;image-rendering:auto;shape-rendering:auto;text-rendering:auto;enable-background:accumulate" d="m 98.40986,56.151035 c -0.255574,0.0047 -0.509534,0.107907 -0.70182,0.307287 -0.38458,0.398773 -0.374034,1.029487 0.02473,1.414067 l 4.31901,4.165366 c 0.39877,0.384574 1.02949,0.372727 1.41407,-0.02607 0.38457,-0.398767 0.37272,-1.029487 -0.0261,-1.41406 l -4.31771,-4.165367 c -0.199387,-0.192287 -0.45666,-0.28588 -0.71224,-0.281247 z m -36.606232,0.43826 c -0.25558,-0.0047 -0.512887,0.08893 -0.71224,0.281254 l -4.317707,4.165366 c -0.398713,0.384634 -0.41068,1.015354 -0.02607,1.41406 0.384633,0.398707 1.015353,0.40938 1.41406,0.02473 l 4.317706,-4.165367 c 0.398714,-0.384633 0.41068,-1.015353 0.02607,-1.41406 -0.192313,-0.199353 -0.44624,-0.3014 -0.70182,-0.305993 z m 32.640085,3.527887 c -0.255573,0.0047 -0.50972,0.107727 -0.70182,0.307287 -0.384206,0.399133 -0.371786,1.02986 0.02733,1.414066 l 4.321619,4.160154 c 0.399127,0.384206 1.029854,0.373086 1.41406,-0.02607 0.384207,-0.399127 0.373087,-1.02986 -0.02607,-1.414067 l -4.32292,-4.161453 c -0.19956,-0.192107 -0.456667,-0.28482 -0.71224,-0.279947 z m -28.401039,0.23958 c -0.25558,-0.0047 -0.512886,0.08893 -0.71224,0.281253 l -4.317706,4.166667 c -0.398713,0.384633 -0.41068,1.014047 -0.02607,1.41276 0.384634,0.398707 1.015354,0.41068 1.41406,0.02607 l 4.317707,-4.165367 c 0.398713,-0.38464 0.41068,-1.015353 0.02607,-1.41406 -0.192313,-0.199353 -0.44624,-0.3027 -0.70182,-0.307293 z m 24.27474,3.72396 c -0.255573,0.0047 -0.50842,0.107727 -0.70052,0.307293 -0.384207,0.399127 -0.373087,1.029854 0.02607,1.41406 l 4.322919,4.160154 c 0.399127,0.384206 1.029853,0.373086 1.41406,-0.02607 0.384207,-0.399127 0.373087,-1.02986 -0.02607,-1.41406 l -4.322919,-4.16146 c -0.19956,-0.1921 -0.457967,-0.28482 -0.71354,-0.279947 z m -20.3112,0.5638 c -0.255573,-0.0047 -0.51288,0.08763 -0.71224,0.279947 l -4.319006,4.166666 c -0.398714,0.38464 -0.40938,1.015354 -0.02473,1.414067 0.38464,0.398707 1.015354,0.409373 1.41406,0.02473 l 4.317714,-4.165366 c 0.398706,-0.38464 0.41068,-1.015354 0.02607,-1.41406 -0.19232,-0.19936 -0.446246,-0.3014 -0.701826,-0.305994 z m 24.346353,24.345053 c -0.255574,-0.0047 -0.51288,0.08893 -0.712234,0.281246 l -4.319012,4.165368 c -0.398707,0.38464 -0.40938,1.015354 -0.02473,1.41406 0.38464,0.398714 1.015354,0.410687 1.41406,0.02607 l 4.317713,-4.165368 c 0.398707,-0.38464 0.409373,-1.015353 0.02473,-1.41406 -0.19232,-0.19936 -0.444946,-0.3027 -0.700526,-0.307293 z m -28.619786,0.16276 c -0.25558,0.0047 -0.50954,0.106606 -0.701827,0.305986 -0.384573,0.398774 -0.374026,1.029487 0.02473,1.414067 l 4.319013,4.165368 c 0.398767,0.384573 1.029487,0.372727 1.41406,-0.02607 0.38458,-0.398766 0.374033,-1.029486 -0.02473,-1.41406 L 66.44502,89.433558 c -0.199387,-0.192286 -0.456667,-0.28588 -0.71224,-0.281246 z m -3.966146,3.964846 c -0.255574,0.0047 -0.50972,0.107727 -0.701827,0.307288 -0.3842,0.399134 -0.37178,1.02986 0.02733,1.414067 l 4.321613,4.161453 c 0.399127,0.384207 1.02986,0.371787 1.41406,-0.02733 0.384207,-0.399127 0.373087,-1.02986 -0.02607,-1.414067 l -4.322913,-4.161453 c -0.199567,-0.192108 -0.456667,-0.284821 -0.71224,-0.279948 z m 36.548171,0.160154 c -0.255573,-0.0047 -0.51288,0.08763 -0.71224,0.279948 l -4.317705,4.166666 c -0.398707,0.38464 -0.41068,1.015354 -0.02607,1.414067 0.384639,0.398707 1.015353,0.409373 1.414059,0.02473 l 4.319013,-4.165366 c 0.398707,-0.38464 0.40938,-1.015354 0.02473,-1.414067 -0.19232,-0.199353 -0.446247,-0.301395 -0.701827,-0.305988 z m 4.216454,3.715608 c -0.25559,-0.0033 -0.5125,0.09059 -0.71093,0.28386 L 97.522146,101.463 c -0.396866,0.38654 -0.404766,1.0172 -0.0182,1.41406 0.38654,0.39687 1.017194,0.40607 1.41406,0.0195 l 4.298184,-4.187504 c 0.39686,-0.38654 0.40476,-1.017193 0.0182,-1.41406 -0.19327,-0.198433 -0.44753,-0.298713 -0.70313,-0.302087 z m -44.889625,0.08778 c -0.255574,0.0047 -0.50972,0.107726 -0.701827,0.307293 -0.3842,0.399127 -0.37178,1.029853 0.02733,1.41406 l 4.321614,4.161464 c 0.399126,0.3842 1.02986,0.37178 1.41406,-0.0273 0.384206,-0.39912 0.373086,-1.02986 -0.02607,-1.41406 l -4.322913,-4.161457 c -0.199567,-0.1921 -0.456667,-0.28482 -0.71224,-0.279947 z" id="rect7945-8" inkscape:connector-curvature="0" inkscape:label="dec" sodipodi:nodetypes="ccccccccccscccccccccccccccccccccccccccccccccccccscccccccccccccccccccccccccccsccccccccccscccccccccccccccccccc"/>
    </g>
  </g>
</svg>