<?xml version="1.0" encoding="UTF-8" standalone="yes"?>
<svg xmlns:osb="http://www.openswatchbook.org/uri/2009/osb" xmlns:dc="http://purl.org/dc/elements/1.1/" xmlns:cc="http://creativecommons.org/ns#" xmlns:rdf="http://www.w3.org/1999/02/22-rdf-syntax-ns#" xmlns:svg="http://www.w3.org/2000/svg" xmlns="http://www.w3.org/2000/svg" xmlns:xlink="http://www.w3.org/1999/xlink" xmlns:sodipodi="http://sodipodi.sourceforge.net/DTD/sodipodi-0.dtd" xmlns:inkscape="http://www.inkscape.org/namespaces/inkscape" height="64" viewBox="0 0 64 64" width="64" id="svg2" version="1.1" inkscape:version="0.92.1 r" sodipodi:docname="libreoffice-main.svg" enable-background="new" folder="64">
  <title id="title4675">Template icons dark</title>
  <metadata id="metadata24">
    <rdf:RDF>
      <cc:Work rdf:about="">
        <dc:format>image/svg+xml</dc:format>
        <dc:type rdf:resource="http://purl.org/dc/dcmitype/StillImage"/>
        <dc:title>Template icons dark</dc:title>
        <dc:date>17/05/13</dc:date>
        <dc:creator>
          <cc:Agent>
            <dc:title>wfpaisa</dc:title>
          </cc:Agent>
        </dc:creator>
        <dc:rights>
          <cc:Agent>
            <dc:title>License: GPLv3</dc:title>
          </cc:Agent>
        </dc:rights>
        <dc:language>es-en</dc:language>
        <dc:subject>
          <rdf:Bag>
            <rdf:li>plane-icon-theme</rdf:li>
          </rdf:Bag>
        </dc:subject>
        <dc:description>Template for create set icons</dc:description>
        <cc:license rdf:resource="https://www.gnu.org/licenses/gpl-3.0.en.html"/>
      </cc:Work>
    </rdf:RDF>
  </metadata>
  <defs id="defs22">
    <linearGradient inkscape:collect="always" id="linearGradient9052">
      <stop style="stop-color:#000000;stop-opacity:0.41145834" offset="0" id="stop9048"/>
      <stop style="stop-color:#000000;stop-opacity:0.515625" offset="1" id="stop9050"/>
    </linearGradient>
    <linearGradient id="linearGradient9046">
      <stop id="stop9042" offset="0" style="stop-color:#efefef;stop-opacity:1"/>
      <stop id="stop9044" offset="1" style="stop-color:#adadad;stop-opacity:1;"/>
    </linearGradient>
    <linearGradient inkscape:collect="always" id="linearGradient7841">
      <stop style="stop-color:#00a500;stop-opacity:1;" offset="0" id="stop7837"/>
      <stop style="stop-color:#00a51a;stop-opacity:1" offset="1" id="stop7839"/>
    </linearGradient>
    <linearGradient inkscape:collect="always" id="linearGradient7833">
      <stop style="stop-color:#ffffff;stop-opacity:0.05729167" offset="0" id="stop7829"/>
      <stop style="stop-color:#ffffff;stop-opacity:0.13020833" offset="1" id="stop7831"/>
    </linearGradient>
    <linearGradient id="linearGradient7827" inkscape:collect="always">
      <stop id="stop7823" offset="0" style="stop-color:#f7f7f7;stop-opacity:1"/>
      <stop id="stop7825" offset="1" style="stop-color:#e2e2e2;stop-opacity:1"/>
    </linearGradient>
    <linearGradient inkscape:collect="always" id="linearGradient7819">
      <stop style="stop-color:#e3e3e3;stop-opacity:1" offset="0" id="stop7815"/>
      <stop style="stop-color:#939393;stop-opacity:1" offset="1" id="stop7817"/>
    </linearGradient>
    <linearGradient inkscape:collect="always" xlink:href="#linearGradient7827" id="linearGradient7785" x1="160" y1="137" x2="160" y2="188" gradientUnits="userSpaceOnUse"/>
    <linearGradient inkscape:collect="always" xlink:href="#linearGradient9046" id="linearGradient7821" x1="160.06299" y1="120" x2="160.06299" y2="204" gradientUnits="userSpaceOnUse"/>
    <linearGradient inkscape:collect="always" xlink:href="#linearGradient7833" id="linearGradient7835" x1="178" y1="117" x2="193" y2="136" gradientUnits="userSpaceOnUse"/>
    <linearGradient inkscape:collect="always" xlink:href="#linearGradient7841" id="linearGradient7843" x1="171.40158" y1="117.45435" x2="193" y2="136" gradientUnits="userSpaceOnUse"/>
    <linearGradient gradientTransform="matrix(0.71910112,0,0,0.71910112,-35.934044,-35.407549)" inkscape:collect="always" xlink:href="#linearGradient7827" id="linearGradient7785-2" x1="160" y1="137" x2="160" y2="188" gradientUnits="userSpaceOnUse"/>
    <linearGradient gradientTransform="matrix(0.71910112,0,0,0.71910112,-35.934044,-35.407549)" inkscape:collect="always" xlink:href="#linearGradient7819" id="linearGradient7821-8" x1="160.06299" y1="118.73898" x2="160.06299" y2="204" gradientUnits="userSpaceOnUse"/>
    <linearGradient gradientTransform="matrix(0.71910112,0,0,0.71910112,-35.934044,-35.407549)" inkscape:collect="always" xlink:href="#linearGradient7841" id="linearGradient7843-2" x1="171.40158" y1="117.45435" x2="193.20515" y2="136.84799" gradientUnits="userSpaceOnUse"/>
    <linearGradient gradientTransform="matrix(0.71910112,0,0,0.71910112,-35.934044,-35.407549)" inkscape:collect="always" xlink:href="#linearGradient7833" id="linearGradient7835-3" x1="178" y1="117" x2="193.20515" y2="136.84799" gradientUnits="userSpaceOnUse"/>
    <linearGradient gradientTransform="matrix(1.3483145,0,0,1.3483145,55.370396,56.158972)" inkscape:collect="always" xlink:href="#linearGradient7827" id="linearGradient7785-29" x1="160" y1="137" x2="160" y2="188" gradientUnits="userSpaceOnUse"/>
    <linearGradient gradientTransform="matrix(1.3483145,0,0,1.3483145,55.370396,56.158972)" inkscape:collect="always" xlink:href="#linearGradient7819" id="linearGradient7821-9" x1="159.70773" y1="120.21085" x2="160.06299" y2="204" gradientUnits="userSpaceOnUse"/>
    <linearGradient inkscape:collect="always" xlink:href="#linearGradient7841" id="linearGradient8962" gradientUnits="userSpaceOnUse" x1="171.40158" y1="117.45435" x2="193" y2="136"/>
    <linearGradient inkscape:collect="always" xlink:href="#linearGradient9052" id="linearGradient9054" x1="160" y1="119" x2="160" y2="201.5748" gradientUnits="userSpaceOnUse"/>
    <linearGradient inkscape:collect="always" xlink:href="#linearGradient7819" id="linearGradient9397" gradientUnits="userSpaceOnUse" gradientTransform="matrix(0.71910112,0,0,0.71910112,-35.934044,-35.407549)" x1="79.173904" y1="52.019875" x2="79.173904" y2="110.42612"/>
    <linearGradient gradientTransform="translate(100,98)" inkscape:collect="always" xlink:href="#linearGradient9052" id="linearGradient9054-3" x1="160" y1="119" x2="160" y2="201.5748" gradientUnits="userSpaceOnUse"/>
    <linearGradient gradientTransform="translate(0,3.8e-6)" inkscape:collect="always" xlink:href="#linearGradient9052" id="linearGradient7937" gradientUnits="userSpaceOnUse" x1="79.842522" y1="50.497295" x2="79.842522" y2="108"/>
    <linearGradient gradientTransform="matrix(0.71910112,0,0,0.71910112,-90.934044,-84.407549)" inkscape:collect="always" xlink:href="#linearGradient7827" id="linearGradient7785-2-7" x1="160" y1="137" x2="160" y2="188" gradientUnits="userSpaceOnUse"/>
    <linearGradient inkscape:collect="always" xlink:href="#linearGradient7827" id="linearGradient7867" gradientUnits="userSpaceOnUse" gradientTransform="matrix(0.71910112,0,0,0.71910112,-35.934044,-35.407549)" x1="79.622849" y1="54.801125" x2="79.622849" y2="108.50355"/>
    <linearGradient id="linearGradient9422" osb:paint="solid">
      <stop style="stop-color:#a3bfcf;stop-opacity:1;" offset="0" id="stop9420"/>
    </linearGradient>
    <linearGradient id="linearGradient7827-6">
      <stop id="stop7823-2" offset="0" style="stop-color:#a3bfcf;stop-opacity:1;"/>
      <stop id="stop7825-9" offset="1" style="stop-color:#6d8aa9;stop-opacity:1;"/>
    </linearGradient>
    <style type="text/css" id="style51071-8">
   
    .str0 {stroke:#1F1A17;stroke-width:3}
    .fil0 {fill:none}
   
  </style>
    <style id="style2031-6" type="text/css">
   
    .str0 {stroke:#1F1A17;stroke-width:0.0762}
    .fil0 {fill:none}
    .fil1 {fill:none;fill-rule:nonzero}
   
  </style>
    <style id="style5368-2" type="text/css">
   
    .str0 {stroke:#000000;stroke-width:63}
    .str1 {stroke:#09098F;stroke-width:63}
    .fil5 {fill:none}
    .fil1 {fill:#000000}
    .fil2 {fill:#000000}
    .fil3 {fill:#4D66CC}
    .fil0 {fill:#576ECD}
    .fil4 {fill:#89A1D4}
   
  </style>
    <style type="text/css" id="style51071">
   
    .str0 {stroke:#1F1A17;stroke-width:3}
    .fil0 {fill:none}
   
  </style>
    <style id="style2031" type="text/css">
   
    .str0 {stroke:#1F1A17;stroke-width:0.0762}
    .fil0 {fill:none}
    .fil1 {fill:none;fill-rule:nonzero}
   
  </style>
    <style id="style5368" type="text/css">
   
    .str0 {stroke:#000000;stroke-width:63}
    .str1 {stroke:#09098F;stroke-width:63}
    .fil5 {fill:none}
    .fil1 {fill:#000000}
    .fil2 {fill:#000000}
    .fil3 {fill:#4D66CC}
    .fil0 {fill:#576ECD}
    .fil4 {fill:#89A1D4}
   
  </style>
  </defs>
  <sodipodi:namedview pagecolor="#383c4a" bordercolor="#ffffff" borderopacity="0.62745098" objecttolerance="4" gridtolerance="10" guidetolerance="4" inkscape:pageopacity="0" inkscape:pageshadow="2" inkscape:window-width="640" inkscape:window-height="480" id="namedview20" showgrid="true" inkscape:zoom="16.386533" inkscape:cx="0.26533948" inkscape:cy="59.13124" inkscape:current-layer="g7814" inkscape:snap-smooth-nodes="false" showguides="true" borderlayer="true" inkscape:showpageshadow="false" inkscape:guide-bbox="true" guidecolor="#bd4fff" guideopacity="0.78431373" inkscape:snap-nodes="true" inkscape:lockguides="false" fit-margin-top="0" fit-margin-left="0" fit-margin-right="0" fit-margin-bottom="0" guidehicolor="#ff0101" guidehiopacity="0.78431373" inkscape:snap-page="true" inkscape:object-nodes="true" inkscape:snap-bbox="true" inkscape:snap-global="true" inkscape:snap-object-midpoints="false" inkscape:snap-bbox-edge-midpoints="false" inkscape:bbox-nodes="true" inkscape:measure-start="170,-69.0866" inkscape:measure-end="194.079,-69">
    <inkscape:grid type="xygrid" id="grid4171" empspacing="4" dotted="false" originx="2.7755576e-17" originy="0" spacingx="1" spacingy="1" color="#5a5a5a" opacity="0.23529412" empcolor="#5a5a5a" empopacity="0.47058824" visible="true"/>
    <inkscape:grid type="axonomgrid" id="grid4699" units="mm" empspacing="4" color="#5a5a5a" opacity="0.23529412" empcolor="#5a5a5a" empopacity="0.47058824" gridanglex="45" gridanglez="45" spacingy="3.7795276" visible="false" originx="1.3228346" originy="1.3228346"/>
    <sodipodi:guide position="48,0" orientation="1,0" id="guide4568" inkscape:locked="false" inkscape:label="" inkscape:color="rgb(189,79,255)"/>
    <sodipodi:guide position="111.99996,-3.9999999e-05" orientation="0,1" id="guide4570" inkscape:locked="false" inkscape:label="" inkscape:color="rgb(189,79,255)"/>
    <sodipodi:guide position="0,0" orientation="1,0" id="guide4572" inkscape:locked="false" inkscape:label="" inkscape:color="rgb(189,79,255)"/>
    <sodipodi:guide position="0,48" orientation="0,1" id="guide4574" inkscape:locked="false" inkscape:label="" inkscape:color="rgb(189,79,255)"/>
    <sodipodi:guide position="0,80" orientation="0,1" id="guide4576" inkscape:locked="false" inkscape:label="" inkscape:color="rgb(189,79,255)"/>
    <sodipodi:guide position="-32,48" orientation="1,0" id="guide4578" inkscape:locked="false" inkscape:label="" inkscape:color="rgb(189,79,255)"/>
    <sodipodi:guide position="-32,104" orientation="0,1" id="guide4580" inkscape:locked="false" inkscape:label="" inkscape:color="rgb(189,79,255)"/>
    <sodipodi:guide position="-56,80" orientation="1,0" id="guide4582" inkscape:locked="false" inkscape:label="" inkscape:color="rgb(189,79,255)"/>
    <sodipodi:guide position="48,-64" orientation="0,1" id="guide4584" inkscape:locked="false" inkscape:label="" inkscape:color="rgb(189,79,255)"/>
    <sodipodi:guide position="0,0" orientation="-0.70710678,0.70710678" id="guide4588" inkscape:locked="false" inkscape:label="" inkscape:color="rgb(189,79,255)"/>
    <sodipodi:guide position="-56,80" orientation="-0.70710678,0.70710678" id="guide4573" inkscape:locked="false" inkscape:label="" inkscape:color="rgb(189,79,255)"/>
    <sodipodi:guide position="-32,48" orientation="-0.70710678,0.70710678" id="guide4575" inkscape:locked="false" inkscape:label="" inkscape:color="rgb(189,79,255)"/>
    <sodipodi:guide position="48,-64" orientation="-0.70710678,0.70710678" id="guide4577" inkscape:locked="false" inkscape:label="" inkscape:color="rgb(189,79,255)"/>
    <sodipodi:guide position="47.999962,0" orientation="0.70710678,0.70710678" id="guide4697" inkscape:locked="false" inkscape:label="" inkscape:color="rgb(189,79,255)"/>
    <sodipodi:guide position="207.99995,-288" orientation="0,1" id="guide7833" inkscape:locked="false"/>
    <sodipodi:guide position="335.99994,-288" orientation="1,0" id="guide7835" inkscape:locked="false" inkscape:label="" inkscape:color="rgb(189,79,255)"/>
    <sodipodi:guide position="111.99996,-64" orientation="1,0" id="guide7915" inkscape:locked="false"/>
    <sodipodi:guide position="111.99996,-160" orientation="0,1" id="guide7917" inkscape:locked="false"/>
    <sodipodi:guide position="207.99996,-160" orientation="1,0" id="guide7919" inkscape:locked="false"/>
    <sodipodi:guide position="160.028,-111.4979" orientation="-0.70710678,0.70710678" id="guide7921" inkscape:locked="false" inkscape:label="" inkscape:color="rgb(189,79,255)"/>
    <sodipodi:guide position="207.99996,-288" orientation="-0.70710678,0.70710678" id="guide7923" inkscape:locked="false" inkscape:label="" inkscape:color="rgb(189,79,255)"/>
    <sodipodi:guide position="-72,104" orientation="1,0" id="guide7824" inkscape:locked="false"/>
    <sodipodi:guide position="-56,120" orientation="0,1" id="guide7826" inkscape:locked="false"/>
    <sodipodi:guide position="-72,104" orientation="-0.70710678,0.70710678" id="guide7828" inkscape:locked="false" inkscape:label="" inkscape:color="rgb(189,79,255)"/>
  </sodipodi:namedview>
  <g inkscape:groupmode="layer" id="g7907" inkscape:label="icon_64" style="display:inline" transform="translate(-48,-48)">
    <g inkscape:groupmode="layer" id="g7843" inkscape:label="frame" style="display:none">
      <rect inkscape:label="frame_64" y="48" x="48" height="64" width="64" id="rect7837" style="color:#000000;clip-rule:nonzero;display:inline;overflow:visible;visibility:visible;opacity:1;isolation:auto;mix-blend-mode:normal;color-interpolation:sRGB;color-interpolation-filters:linearRGB;solid-color:#000000;solid-opacity:1;vector-effect:none;fill:#000000;fill-opacity:1;fill-rule:nonzero;stroke:#ff24f7;stroke-width:0;stroke-linecap:square;stroke-linejoin:miter;stroke-miterlimit:4;stroke-dasharray:none;stroke-dashoffset:0;stroke-opacity:0.99481865;marker:none;marker-start:none;marker-mid:none;marker-end:none;paint-order:normal;color-rendering:auto;image-rendering:auto;shape-rendering:auto;text-rendering:auto;enable-background:accumulate"/>
      <text xml:space="preserve" style="font-size:16px;line-height:0%;font-family:sans-serif;letter-spacing:0px;word-spacing:0px;display:inline;opacity:1;fill:#ffffff;fill-opacity:1;stroke:none;stroke-width:0.03278551px;stroke-linecap:butt;stroke-linejoin:miter;stroke-opacity:1" x="69.816406" y="85.824219" id="text7841" inkscape:label="txt_64">
        <tspan sodipodi:role="line" x="69.816406" y="85.824219" style="font-size:16px;line-height:0%;fill:#ffffff;fill-opacity:1;stroke:none;stroke-width:0.03278551px" id="tspan7839">64</tspan>
      </text>
    </g>
    <g inkscape:groupmode="layer" id="g7905" inkscape:label="icon" style="display:inline">
      <path sodipodi:nodetypes="ccccccccccc" inkscape:connector-curvature="0" id="path7759-9" d="M 57,48.00004 79,48 c 0.717224,0 2.257758,0.257758 3,1 l 22,22 c 0.7191,0.719101 0.98334,1.24073 1,2 v 36 c 8e-5,2 -1,3 -3,3 H 56.944883 C 55,112 54,111 54,109 V 51 c 0,-2 1,-2.99996 3,-2.99996 z" style="color:#000000;clip-rule:nonzero;display:block;overflow:visible;visibility:visible;opacity:1;isolation:auto;mix-blend-mode:normal;color-interpolation:sRGB;color-interpolation-filters:linearRGB;solid-color:#000000;solid-opacity:1;vector-effect:none;fill:#000000;fill-opacity:0.125;fill-rule:nonzero;stroke:none;stroke-width:0.15592436;stroke-linecap:butt;stroke-linejoin:miter;stroke-miterlimit:4;stroke-dasharray:none;stroke-dashoffset:0;stroke-opacity:1;marker:none;marker-start:none;marker-mid:none;marker-end:none;paint-order:fill markers stroke;color-rendering:auto;image-rendering:auto;shape-rendering:auto;text-rendering:auto;enable-background:accumulate" inkscape:label="base sombra exterior"/>
      <path style="color:#000000;clip-rule:nonzero;display:block;overflow:visible;visibility:visible;opacity:1;isolation:auto;mix-blend-mode:normal;color-interpolation:sRGB;color-interpolation-filters:linearRGB;solid-color:#000000;solid-opacity:1;vector-effect:none;fill:url(#linearGradient7785-2);fill-opacity:1;fill-rule:nonzero;stroke:none;stroke-width:0.14478691;stroke-linecap:butt;stroke-linejoin:miter;stroke-miterlimit:4;stroke-dasharray:none;stroke-dashoffset:0;stroke-opacity:1;marker:none;marker-start:none;marker-mid:none;marker-end:none;paint-order:fill markers stroke;color-rendering:auto;image-rendering:auto;shape-rendering:auto;text-rendering:auto;enable-background:accumulate" d="M 58.015749,49 H 78.007874 C 78.730427,49 80.26482,49.264789 81,50 l 22,21 c 0.72015,0.720158 1,1.271464 1,2 v 35 c 0,2 -1,3 -3,3 H 58.015749 C 56,111 55,110 55,108 V 52 c 0,-2 1,-3 3.015749,-3 z" id="rect7756-2" inkscape:connector-curvature="0" sodipodi:nodetypes="ccccccccccc" inkscape:label="base"/>
      <path style="color:#000000;font-style:normal;font-variant:normal;font-weight:normal;font-stretch:normal;font-size:medium;line-height:normal;font-family:sans-serif;font-variant-ligatures:normal;font-variant-position:normal;font-variant-caps:normal;font-variant-numeric:normal;font-variant-alternates:normal;font-feature-settings:normal;text-indent:0;text-align:start;text-decoration:none;text-decoration-line:none;text-decoration-style:solid;text-decoration-color:#000000;letter-spacing:normal;word-spacing:normal;text-transform:none;writing-mode:lr-tb;direction:ltr;text-orientation:mixed;dominant-baseline:auto;baseline-shift:baseline;text-anchor:start;white-space:normal;shape-padding:0;clip-rule:nonzero;display:inline;overflow:visible;visibility:visible;opacity:1;isolation:auto;mix-blend-mode:normal;color-interpolation:sRGB;color-interpolation-filters:linearRGB;solid-color:#000000;solid-opacity:1;vector-effect:none;fill:url(#linearGradient7821-8);fill-opacity:1;fill-rule:nonzero;stroke:none;stroke-width:1.43820226;stroke-linecap:butt;stroke-linejoin:miter;stroke-miterlimit:4;stroke-dasharray:none;stroke-dashoffset:0;stroke-opacity:1;marker:none;paint-order:fill markers stroke;color-rendering:auto;image-rendering:auto;shape-rendering:auto;text-rendering:auto;enable-background:accumulate" d="m 55,52 v 55.91339 C 55,110 56,111 58,111 h 43 c 2,0 3,-1 3,-3 V 72.988897 c 0,-0.717433 -0.22325,-1.236394 -1.01718,-2.005537 L 81,50 C 80.262037,49.284401 78.730427,49 78,49 H 58.015749 C 56,49 55,50 55,52 Z m 2,-1 h 22 l 23,22 v 36 H 57 Z" id="path7787-2" inkscape:connector-curvature="0" sodipodi:nodetypes="ccccccccccccccccc" inkscape:label="base sombra interior"/>
      <path style="display:inline;opacity:1;vector-effect:none;fill:#000000;fill-opacity:0.125;fill-rule:evenodd;stroke:none;stroke-width:0.15592436;stroke-linecap:butt;stroke-linejoin:miter;stroke-miterlimit:4;stroke-dasharray:none;stroke-dashoffset:0;stroke-opacity:1;marker:none;marker-start:none;marker-mid:none;marker-end:none;paint-order:fill markers stroke" d="m 102,48 -16,4e-5 L 105,67 V 51 c 0,-2 -1,-3 -3,-3 z" id="path7763-8" inkscape:connector-curvature="0" sodipodi:nodetypes="ccccc"/>
      <path sodipodi:nodetypes="ccccc" inkscape:connector-curvature="0" id="path7761-9" d="M 101,49 H 88 L 103.94488,65 104,52 c 0,-2 -1,-3 -3,-3 z" style="display:inline;fill:url(#linearGradient7843-2);fill-opacity:1;fill-rule:evenodd;stroke:none;stroke-width:0.71910113px;stroke-linecap:butt;stroke-linejoin:miter;stroke-opacity:1"/>
      <path style="color:#000000;font-style:normal;font-variant:normal;font-weight:normal;font-stretch:normal;font-size:medium;line-height:normal;font-family:sans-serif;font-variant-ligatures:normal;font-variant-position:normal;font-variant-caps:normal;font-variant-numeric:normal;font-variant-alternates:normal;font-feature-settings:normal;text-indent:0;text-align:start;text-decoration:none;text-decoration-line:none;text-decoration-style:solid;text-decoration-color:#000000;letter-spacing:normal;word-spacing:normal;text-transform:none;writing-mode:lr-tb;direction:ltr;text-orientation:mixed;dominant-baseline:auto;baseline-shift:baseline;text-anchor:start;white-space:normal;shape-padding:0;clip-rule:nonzero;display:inline;overflow:visible;visibility:visible;opacity:1;isolation:auto;mix-blend-mode:normal;color-interpolation:sRGB;color-interpolation-filters:linearRGB;solid-color:#000000;solid-opacity:1;vector-effect:none;fill:url(#linearGradient7835-3);fill-opacity:1;fill-rule:evenodd;stroke:none;stroke-width:1.43820226;stroke-linecap:butt;stroke-linejoin:miter;stroke-miterlimit:4;stroke-dasharray:none;stroke-dashoffset:0;stroke-opacity:1;color-rendering:auto;image-rendering:auto;shape-rendering:auto;text-rendering:auto;enable-background:accumulate" d="M 88,49 103.94488,65 104,52 c 0,-2 -1,-2.952755 -3,-2.952755 z m 2,1 h 13 v 13 z" id="path7797-7" inkscape:connector-curvature="0" sodipodi:nodetypes="ccccccccc"/>
      <path inkscape:connector-curvature="0" id="path8762-3" d="m 85.603717,78.516032 c -0.89239,0 -1.402003,0.580616 -1.402003,1.619761 v 0.23255 h -0.592791 v 0.48256 h 0.592791 v 3.162901 h 0.629092 v -3.162901 h 0.930178 0.535005 v 3.162901 h 0.629076 v -3.162901 h 0.930179 v -0.48256 h -0.930179 v -0.330679 c 0,-0.655101 0.278537,-1.039065 0.78098,-1.039065 0.232457,0 0.381749,0.03732 0.524232,0.09007 l 0.06048,-0.466437 c -0.134975,-0.05278 -0.39032,-0.106197 -0.592798,-0.106197 -0.89239,0 -1.401988,0.580616 -1.401981,1.619761 v 0.23255 h -0.535004 -0.930186 v -0.330679 c 0,-0.655101 0.278544,-1.039065 0.78098,-1.039065 0.232478,0 0.381749,0.03732 0.524239,0.09007 l 0.0604,-0.466437 c -0.134989,-0.05278 -0.390313,-0.106197 -0.592791,-0.106197 z m -18.053933,0.07527 v 5.422504 h 0.982609 l 0.02287,-0.430144 h 0.01481 c 0.314952,0.35392 0.630508,0.505427 1.14793,0.505427 0.974892,0 1.619775,-0.88197 1.619775,-1.981354 0,-1.061724 -0.578028,-1.844242 -1.575399,-1.844242 -0.532437,0 -0.847346,0.157691 -1.192306,0.504075 h -0.01481 v -2.176266 z m 13.232303,0.240611 c -1.349854,0 -2.459887,0.987714 -2.459887,2.629264 0,1.64155 1.110033,2.627912 2.459887,2.627912 1.349839,0 2.458527,-0.986362 2.458527,-2.627912 0,-1.64155 -1.108688,-2.629264 -2.458527,-2.629264 z m -14.464921,0.03085 c -0.322466,0 -0.576662,0.263083 -0.576662,0.579344 0,0.323796 0.254196,0.580688 0.576662,0.580688 0.314959,0 0.577999,-0.256892 0.577999,-0.580688 0,-0.316261 -0.26304,-0.579344 -0.577999,-0.579344 z m -4.400913,0.04437 v 5.106611 h 3.291944 V 83.238141 H 62.92037 v -4.33101 z m 26.983435,0.143821 c -0.21747,0 -0.389817,0.172814 -0.389817,0.391169 0,0.218377 0.172347,0.392507 0.389817,0.392514 0.217471,0 0.389811,-0.174137 0.389811,-0.392514 0,-0.218355 -0.17234,-0.391169 -0.389811,-0.391169 z M 80.782087,79.344 c 1.004864,0 1.768952,0.754164 1.768952,2.117112 0,1.362927 -0.764088,2.115769 -1.768952,2.115769 -1.00488,0 -1.77032,-0.752842 -1.77032,-2.115769 0,-1.362948 0.76544,-2.117112 1.77032,-2.117112 z m -6.749232,0.919421 c -0.479935,0.03006 -0.936615,0.3233 -1.146592,0.729909 h -0.01481 l -0.02287,-0.654627 h -0.982609 v 3.675039 h 1.005462 v -1.385874 c 0,-0.737927 0.134493,-1.001096 0.366972,-1.166756 0.20247,-0.143072 0.442951,-0.204045 0.772918,-0.21911 z m 2.182983,0 c -1.15487,0 -1.896666,0.798598 -1.896666,2.010923 0,1.182217 0.764304,1.81468 1.896666,1.81468 0.532429,0 0.907059,-0.08383 1.259512,-0.24197 l -0.104845,-0.752743 c -0.329974,0.135529 -0.667016,0.219103 -1.026969,0.219103 -0.607425,0 -0.997538,-0.278623 -1.035039,-0.850883 h 2.377895 c 0.02991,-0.135551 0.04437,-0.347269 0.04437,-0.505406 0,-0.911137 -0.555017,-1.693706 -1.514909,-1.693706 z m 15.620925,0.02956 c -1.124861,0 -1.97194,0.685109 -1.97194,1.965217 0,1.204796 0.764649,1.830803 1.777028,1.830803 0.449942,0 0.772415,-0.053 1.139883,-0.211035 l -0.05925,-0.482574 c -0.314959,0.143072 -0.652864,0.211034 -0.967816,0.211034 -0.727422,0 -1.229951,-0.458858 -1.229951,-1.43022 0,-0.918673 0.547099,-1.400658 1.259513,-1.400658 0.374954,0 0.705913,0.08976 0.975885,0.217758 l 0.05911,-0.481222 c -0.224964,-0.112942 -0.585147,-0.219103 -0.982594,-0.219103 z m 3.133322,0 c -1.012379,0 -1.754172,0.843225 -1.754172,1.965217 0,1.234919 0.741793,1.830803 1.754172,1.830803 0.449949,0 0.787423,-0.06788 1.139876,-0.211035 l -0.05918,-0.482574 c -0.277458,0.135536 -0.67571,0.211034 -0.990676,0.211034 -0.7274,0 -1.200144,-0.444656 -1.215152,-1.272953 h 2.527101 c 0.01503,-0.135543 0.02287,-0.248629 0.02287,-0.361592 0,-0.933724 -0.487472,-1.6789 -1.424849,-1.6789 z m -29.154305,0.04566 v 3.675045 h 1.00411 v -3.675045 z m 22.769373,0.02956 v 3.645469 h 0.630429 v -3.645469 z m 6.33251,0.407284 c 0.554937,0 0.854911,0.45952 0.854911,1.061911 h -1.896658 c 0.08999,-0.640036 0.441815,-1.061911 1.041747,-1.061911 z M 69.37925,81.038941 c 0.599924,0 0.900602,0.428843 0.900602,1.129125 0,0.692775 -0.292056,1.145262 -0.884487,1.145262 -0.517429,0 -0.840119,-0.407623 -0.840119,-1.055202 v -0.165328 c 0,-0.632515 0.284067,-1.053865 0.824004,-1.053857 z m 6.73175,0 c 0.434941,0 0.636929,0.353416 0.651922,0.729909 h -1.41678 c 0.07499,-0.421688 0.367396,-0.729909 0.764858,-0.729909 z" style="font-style:normal;font-variant:normal;font-weight:normal;font-stretch:normal;font-size:67.56232452px;font-family:Vegur;-inkscape-font-specification:Vegur;display:inline;fill:#000000;fill-opacity:0.203125;stroke:none;stroke-width:0.11122406" inkscape:label="letra sombra" sodipodi:nodetypes="cscccccccccccccccssccsccccsscccccccccsssccccsssssssssscccccccsscssssssscccccccsccccssccsccscccssccssscccccssccsccsccccccccccccsccscsssscsccs"/>
      <path style="font-style:normal;font-variant:normal;font-weight:normal;font-stretch:normal;font-size:67.56232452px;font-family:Vegur;-inkscape-font-specification:Vegur;display:inline;fill:#18a303;fill-opacity:1;stroke:none;stroke-width:0.11122406" d="m 67.539035,78.440756 v 5.422503 h 0.982601 l 0.02287,-0.430145 h 0.01485 c 0.31497,0.353912 0.630509,0.505415 1.147945,0.505415 0.974889,0 1.619762,-0.881965 1.619762,-1.981355 0,-1.061714 -0.57802,-1.844231 -1.57541,-1.844231 -0.532426,0 -0.847332,0.157706 -1.192297,0.504067 h -0.01485 v -2.176254 z m -1.232628,0.271541 c -0.322472,0 -0.576665,0.263084 -0.576665,0.57933 0,0.323805 0.254193,0.580701 0.576665,0.580701 0.314954,0 0.578005,-0.256896 0.578005,-0.580701 0,-0.316246 -0.263051,-0.57933 -0.578005,-0.57933 z m -4.400903,0.04566 v 5.105271 h 3.291932 v -0.775605 h -2.28781 v -4.329662 z m 12.117949,1.354954 c -0.479953,0.03002 -0.937976,0.323292 -1.147953,0.729893 h -0.01484 l -0.02279,-0.654615 h -0.982608 v 3.675039 h 1.005462 v -1.385881 c 0,-0.737933 0.134483,-1.001097 0.366969,-1.166755 0.202466,-0.143076 0.442945,-0.204039 0.772904,-0.219101 z m 2.18163,0 c -1.154862,0 -1.896663,0.798591 -1.896663,2.010917 0,1.182218 0.764293,1.81467 1.896663,1.81467 0.532442,0 0.90705,-0.08383 1.25951,-0.241956 l -0.104848,-0.752746 c -0.329959,0.135525 -0.667005,0.219101 -1.02696,0.219101 -0.607431,0 -0.997542,-0.278619 -1.03504,-0.850878 h 2.377893 c 0.02993,-0.135559 0.04438,-0.347277 0.04438,-0.505416 0,-0.911126 -0.555039,-1.693692 -1.514923,-1.693692 z m -10.400063,0.07519 v 3.675039 h 1.004114 v -3.675039 z m 3.564814,0.700315 c 0.599936,0 0.899266,0.428854 0.899266,1.129128 0,0.692779 -0.292052,1.145265 -0.884484,1.145265 -0.517429,0 -0.840126,-0.407628 -0.840126,-1.055198 v -0.165337 c 0,-0.632507 0.285423,-1.053858 0.825344,-1.053858 z m 6.730393,0 c 0.43496,0 0.636953,0.353415 0.651943,0.729909 h -1.416791 c 0.07503,-0.42168 0.367394,-0.729909 0.764848,-0.729909 z" id="path3245-2-6" inkscape:connector-curvature="0" inkscape:label="libre" sodipodi:nodetypes="cccccsssccccsssssccccccccccccccscccsssccsccssscccccsssssssccs"/>
      <path style="font-style:normal;font-variant:normal;font-weight:normal;font-stretch:normal;font-size:67.56232452px;font-family:Vegur;-inkscape-font-specification:Vegur;display:inline;fill:#000000;fill-opacity:1;stroke:none;stroke-width:0.11122406" d="m 85.592959,78.365487 c -0.892388,0 -1.402001,0.580605 -1.402001,1.619746 v 0.232566 h -0.592786 v 0.482561 h 0.592786 v 3.162899 h 0.630445 V 80.70036 h 0.928829 0.534985 v 3.162899 h 0.630438 V 80.70036 h 0.928836 v -0.482561 h -0.928836 v -0.330682 c 0,-0.655096 0.277198,-1.039069 0.779637,-1.039069 0.232461,0 0.381758,0.03731 0.524232,0.09006 l 0.06051,-0.466424 c -0.13498,-0.05272 -0.390312,-0.106196 -0.592786,-0.106196 -0.892398,0 -1.40201,0.580605 -1.40201,1.619746 V 80.2178 h -0.534986 -0.928828 v -0.330682 c 0,-0.655096 0.27719,-1.039069 0.779629,-1.039069 0.23247,0 0.381749,0.03731 0.524225,0.09006 l 0.06051,-0.466424 c -0.134988,-0.05272 -0.39032,-0.106196 -0.592802,-0.106196 z m -4.821635,0.317232 c -1.349843,0 -2.459881,0.986348 -2.459881,2.627905 0,1.641557 1.110038,2.627905 2.459881,2.627905 1.349842,0 2.458531,-0.986348 2.458531,-2.627905 0,-1.641557 -1.108689,-2.627905 -2.458531,-2.627905 z m 8.117612,0.217745 c -0.21748,0 -0.389822,0.172808 -0.389822,0.391163 0,0.218387 0.172342,0.39251 0.389822,0.39251 0.217472,0 0.391163,-0.174123 0.391163,-0.39251 0,-0.218355 -0.173691,-0.391163 -0.391163,-0.391163 z m -8.117612,0.294395 c 1.004876,0 1.768961,0.752835 1.768961,2.115765 0,1.36293 -0.764085,2.115765 -1.768961,2.115765 -1.004877,0 -1.770303,-0.752835 -1.770303,-2.115765 0,-1.36293 0.765426,-2.115765 1.770303,-2.115765 z m 11.054686,0.947654 c -1.124868,0 -1.971942,0.685108 -1.971942,1.965217 0,1.2048 0.764655,1.830799 1.777035,1.830799 0.449941,0 0.772414,-0.05296 1.139881,-0.211036 l -0.05914,-0.482578 c -0.314954,0.143085 -0.652858,0.211052 -0.96782,0.211052 -0.727413,0 -1.22994,-0.458873 -1.22994,-1.430231 0,-0.918669 0.547103,-1.400661 1.25951,-1.400661 0.374962,0 0.705925,0.08976 0.975893,0.217761 l 0.05914,-0.481222 C 92.58366,80.248669 92.22348,80.142513 91.826019,80.142513 Z m 3.133325,0 c -1.012365,0 -1.754178,0.843223 -1.754178,1.965217 0,1.234916 0.741813,1.830799 1.754178,1.830799 0.449956,0 0.787423,-0.0678 1.139883,-0.211036 l -0.05918,-0.482578 c -0.277465,0.135542 -0.675718,0.211052 -0.99067,0.211052 -0.727406,0 -1.200158,-0.444654 -1.215151,-1.272959 h 2.528439 c 0.0151,-0.135542 0.02143,-0.247283 0.02143,-0.360244 0,-0.933723 -0.487457,-1.680251 -1.424849,-1.680251 z m -6.384943,0.07527 v 3.64546 h 0.630429 v -3.64546 z m 6.33252,0.407275 c 0.554931,0 0.854911,0.459524 0.854911,1.061924 h -1.896665 c 0.08999,-0.640059 0.441823,-1.061924 1.041754,-1.061924 z" id="path3255-0-1" inkscape:connector-curvature="0" inkscape:label="office" sodipodi:nodetypes="cscccccccccccccccssccsscccssccccssssssssssssssssssccsssccsscssccsccscccccccsccs"/>
      <path inkscape:label="base border" sodipodi:nodetypes="cccccccccccc" inkscape:connector-curvature="0" id="path8019-2" d="M 57,51.000004 V 109 h 45 V 73.000004 l -22.93701,-22 z m 1,1 h 21.06299 l 21.93701,21 V 108 H 58 Z" style="color:#000000;font-style:normal;font-variant:normal;font-weight:normal;font-stretch:normal;font-size:medium;line-height:normal;font-family:sans-serif;font-variant-ligatures:normal;font-variant-position:normal;font-variant-caps:normal;font-variant-numeric:normal;font-variant-alternates:normal;font-feature-settings:normal;text-indent:0;text-align:start;text-decoration:none;text-decoration-line:none;text-decoration-style:solid;text-decoration-color:#000000;letter-spacing:normal;word-spacing:normal;text-transform:none;writing-mode:lr-tb;direction:ltr;text-orientation:mixed;dominant-baseline:auto;baseline-shift:baseline;text-anchor:start;white-space:normal;shape-padding:0;clip-rule:nonzero;display:inline;overflow:visible;visibility:visible;opacity:1;isolation:auto;mix-blend-mode:normal;color-interpolation:sRGB;color-interpolation-filters:linearRGB;solid-color:#000000;solid-opacity:1;vector-effect:none;fill:#ffffff;fill-opacity:0.98958333;fill-rule:evenodd;stroke:none;stroke-width:1;stroke-linecap:butt;stroke-linejoin:miter;stroke-miterlimit:4;stroke-dasharray:none;stroke-dashoffset:0;stroke-opacity:1;color-rendering:auto;image-rendering:auto;shape-rendering:auto;text-rendering:auto;enable-background:accumulate"/>
      <path style="color:#000000;font-style:normal;font-variant:normal;font-weight:normal;font-stretch:normal;font-size:medium;line-height:normal;font-family:sans-serif;font-variant-ligatures:normal;font-variant-position:normal;font-variant-caps:normal;font-variant-numeric:normal;font-variant-alternates:normal;font-feature-settings:normal;text-indent:0;text-align:start;text-decoration:none;text-decoration-line:none;text-decoration-style:solid;text-decoration-color:#000000;letter-spacing:normal;word-spacing:normal;text-transform:none;writing-mode:lr-tb;direction:ltr;text-orientation:mixed;dominant-baseline:auto;baseline-shift:baseline;text-anchor:start;white-space:normal;shape-padding:0;clip-rule:nonzero;display:inline;overflow:visible;visibility:visible;opacity:0.39800002;isolation:auto;mix-blend-mode:normal;color-interpolation:sRGB;color-interpolation-filters:linearRGB;solid-color:#000000;solid-opacity:1;vector-effect:none;fill:url(#linearGradient7937);fill-opacity:1;fill-rule:evenodd;stroke:none;stroke-width:1;stroke-linecap:butt;stroke-linejoin:miter;stroke-miterlimit:4;stroke-dasharray:none;stroke-dashoffset:0;stroke-opacity:1;color-rendering:auto;image-rendering:auto;shape-rendering:auto;text-rendering:auto;enable-background:accumulate" d="M 56,50.000004 V 110 h 47 V 73.000004 l -24,-23 z m 1,1 h 21.80315 l 23.19685,22 V 109 H 57 Z" id="path7898" inkscape:connector-curvature="0" sodipodi:nodetypes="cccccccccccc" inkscape:label="base border"/>
    </g>
  </g>
</svg>