<?xml version="1.0" encoding="UTF-8" standalone="yes"?>
<svg xmlns:dc="http://purl.org/dc/elements/1.1/" xmlns:cc="http://creativecommons.org/ns#" xmlns:rdf="http://www.w3.org/1999/02/22-rdf-syntax-ns#" xmlns:svg="http://www.w3.org/2000/svg" xmlns="http://www.w3.org/2000/svg" xmlns:xlink="http://www.w3.org/1999/xlink" xmlns:sodipodi="http://sodipodi.sourceforge.net/DTD/sodipodi-0.dtd" xmlns:inkscape="http://www.inkscape.org/namespaces/inkscape" height="64" viewBox="0 0 64 64" width="64" id="svg2" version="1.1" inkscape:version="0.92.2 5c3e80d, 2017-08-06" sodipodi:docname="org.gnome.ChromeGnomeShell.svg" enable-background="new" folder="64">
  <title id="title4675">Template icons dark</title>
  <metadata id="metadata24">
    <rdf:RDF>
      <cc:Work rdf:about="">
        <dc:format>image/svg+xml</dc:format>
        <dc:type rdf:resource="http://purl.org/dc/dcmitype/StillImage"/>
        <dc:title>Template icons dark</dc:title>
        <dc:date>17/05/13</dc:date>
        <dc:creator>
          <cc:Agent>
            <dc:title>wfpaisa</dc:title>
          </cc:Agent>
        </dc:creator>
        <dc:rights>
          <cc:Agent>
            <dc:title>License: GPLv3</dc:title>
          </cc:Agent>
        </dc:rights>
        <dc:language>es-en</dc:language>
        <dc:subject>
          <rdf:Bag>
            <rdf:li>plane-icon-theme</rdf:li>
          </rdf:Bag>
        </dc:subject>
        <dc:description>Template for create set icons</dc:description>
        <cc:license rdf:resource="https://www.gnu.org/licenses/gpl-3.0.en.html"/>
      </cc:Work>
    </rdf:RDF>
  </metadata>
  <defs id="defs22">
    <linearGradient inkscape:collect="always" id="linearGradient24388">
      <stop style="stop-color:#e9e9e9;stop-opacity:1" offset="0" id="stop24384"/>
      <stop style="stop-color:#ffffff;stop-opacity:1" offset="1" id="stop24386"/>
    </linearGradient>
    <linearGradient inkscape:collect="always" xlink:href="#linearGradient24388" id="linearGradient24390" x1="168" y1="201.74074" x2="168" y2="114.33071" gradientUnits="userSpaceOnUse"/>
    <linearGradient gradientTransform="matrix(0.17390774,0,0,0.17390774,-91.825276,-91.825242)" inkscape:collect="always" xlink:href="#linearGradient24388" id="linearGradient24390-3" x1="168" y1="201.74074" x2="168" y2="114.33071" gradientUnits="userSpaceOnUse"/>
    <linearGradient gradientTransform="matrix(0.26087493,0,0,0.26087493,-85.740023,-85.739992)" inkscape:collect="always" xlink:href="#linearGradient24388" id="linearGradient24390-35" x1="168" y1="201.74074" x2="168" y2="114.33071" gradientUnits="userSpaceOnUse"/>
    <linearGradient gradientTransform="matrix(0.34044067,0,0,0.34044067,-70.470159,-70.471989)" inkscape:collect="always" xlink:href="#linearGradient24388" id="linearGradient24390-1" x1="168" y1="201.74074" x2="168" y2="114.33071" gradientUnits="userSpaceOnUse"/>
    <linearGradient gradientTransform="matrix(0.51065451,0,0,0.51065451,-57.704463,-57.703546)" inkscape:collect="always" xlink:href="#linearGradient24388" id="linearGradient24390-6" x1="168" y1="201.74074" x2="168" y2="114.33071" gradientUnits="userSpaceOnUse"/>
    <linearGradient gradientTransform="matrix(0.68086833,0,0,0.68086833,-28.938763,-28.939647)" inkscape:collect="always" xlink:href="#linearGradient24388" id="linearGradient24390-18" x1="168" y1="201.74074" x2="168" y2="114.33071" gradientUnits="userSpaceOnUse"/>
    <linearGradient gradientTransform="matrix(1.2766363,0,0,1.2766363,67.738053,67.738821)" inkscape:collect="always" xlink:href="#linearGradient24388" id="linearGradient24390-37" x1="168" y1="201.74074" x2="168" y2="114.33071" gradientUnits="userSpaceOnUse"/>
  </defs>
  <sodipodi:namedview pagecolor="#383c4a" bordercolor="#ffffff" borderopacity="0.62745098" objecttolerance="4" gridtolerance="10" guidetolerance="4" inkscape:pageopacity="0" inkscape:pageshadow="2" inkscape:window-width="640" inkscape:window-height="480" id="namedview20" showgrid="true" inkscape:zoom="5.8456083" inkscape:cx="271.48334" inkscape:cy="-238.29924" inkscape:current-layer="layer12" inkscape:snap-smooth-nodes="false" showguides="true" borderlayer="true" inkscape:showpageshadow="false" inkscape:guide-bbox="true" guidecolor="#bd4fff" guideopacity="0.78431373" inkscape:snap-nodes="true" inkscape:lockguides="false" fit-margin-top="0" fit-margin-left="0" fit-margin-right="0" fit-margin-bottom="0" guidehicolor="#ff0101" guidehiopacity="0.78431373" inkscape:snap-page="true" inkscape:object-nodes="true" inkscape:snap-bbox="true" inkscape:snap-global="true" inkscape:snap-object-midpoints="false" inkscape:snap-bbox-edge-midpoints="false">
    <inkscape:grid type="xygrid" id="grid4171" empspacing="4" dotted="false" originx="2.7755576e-17" originy="0" spacingx="1" spacingy="1" color="#5a5a5a" opacity="0.23529412" empcolor="#5a5a5a" empopacity="0.47058824" visible="true"/>
    <inkscape:grid type="axonomgrid" id="grid4699" units="mm" empspacing="4" color="#5a5a5a" opacity="0.23529412" empcolor="#5a5a5a" empopacity="0.47058824" gridanglex="45" gridanglez="45" spacingy="3.7795276" visible="false" originx="1.3228346" originy="1.3228346"/>
    <sodipodi:guide position="48,0" orientation="1,0" id="guide4568" inkscape:locked="false" inkscape:label="" inkscape:color="rgb(189,79,255)"/>
    <sodipodi:guide position="111.99996,-3.9999999e-05" orientation="0,1" id="guide4570" inkscape:locked="false" inkscape:label="" inkscape:color="rgb(189,79,255)"/>
    <sodipodi:guide position="0,0" orientation="1,0" id="guide4572" inkscape:locked="false" inkscape:label="" inkscape:color="rgb(189,79,255)"/>
    <sodipodi:guide position="0,48" orientation="0,1" id="guide4574" inkscape:locked="false" inkscape:label="" inkscape:color="rgb(189,79,255)"/>
    <sodipodi:guide position="0,80" orientation="0,1" id="guide4576" inkscape:locked="false" inkscape:label="" inkscape:color="rgb(189,79,255)"/>
    <sodipodi:guide position="-32,48" orientation="1,0" id="guide4578" inkscape:locked="false" inkscape:label="" inkscape:color="rgb(189,79,255)"/>
    <sodipodi:guide position="-32,104" orientation="0,1" id="guide4580" inkscape:locked="false" inkscape:label="" inkscape:color="rgb(189,79,255)"/>
    <sodipodi:guide position="-56,80" orientation="1,0" id="guide4582" inkscape:locked="false" inkscape:label="" inkscape:color="rgb(189,79,255)"/>
    <sodipodi:guide position="48,-64" orientation="0,1" id="guide4584" inkscape:locked="false" inkscape:label="" inkscape:color="rgb(189,79,255)"/>
    <sodipodi:guide position="0,0" orientation="-0.70710678,0.70710678" id="guide4588" inkscape:locked="false" inkscape:label="" inkscape:color="rgb(189,79,255)"/>
    <sodipodi:guide position="-56,80" orientation="-0.70710678,0.70710678" id="guide4573" inkscape:locked="false" inkscape:label="" inkscape:color="rgb(189,79,255)"/>
    <sodipodi:guide position="-32,48" orientation="-0.70710678,0.70710678" id="guide4575" inkscape:locked="false" inkscape:label="" inkscape:color="rgb(189,79,255)"/>
    <sodipodi:guide position="48,-64" orientation="-0.70710678,0.70710678" id="guide4577" inkscape:locked="false" inkscape:label="" inkscape:color="rgb(189,79,255)"/>
    <sodipodi:guide position="47.999962,0" orientation="0.70710678,0.70710678" id="guide4697" inkscape:locked="false" inkscape:label="" inkscape:color="rgb(189,79,255)"/>
    <sodipodi:guide position="207.99995,-288" orientation="0,1" id="guide7833" inkscape:locked="false"/>
    <sodipodi:guide position="335.99994,-288" orientation="1,0" id="guide7835" inkscape:locked="false" inkscape:label="" inkscape:color="rgb(189,79,255)"/>
    <sodipodi:guide position="111.99996,-64" orientation="1,0" id="guide7915" inkscape:locked="false"/>
    <sodipodi:guide position="111.99996,-160" orientation="0,1" id="guide7917" inkscape:locked="false"/>
    <sodipodi:guide position="207.99996,-160" orientation="1,0" id="guide7919" inkscape:locked="false"/>
    <sodipodi:guide position="111.99996,-160" orientation="-0.70710678,0.70710678" id="guide7921" inkscape:locked="false" inkscape:label="" inkscape:color="rgb(189,79,255)"/>
    <sodipodi:guide position="207.99996,-288" orientation="-0.70710678,0.70710678" id="guide7923" inkscape:locked="false" inkscape:label="" inkscape:color="rgb(189,79,255)"/>
    <sodipodi:guide position="-72,104" orientation="1,0" id="guide7824" inkscape:locked="false"/>
    <sodipodi:guide position="-56,120" orientation="0,1" id="guide7826" inkscape:locked="false"/>
    <sodipodi:guide position="-72,104" orientation="-0.70710678,0.70710678" id="guide7828" inkscape:locked="false" inkscape:label="" inkscape:color="rgb(189,79,255)"/>
  </sodipodi:namedview>
  <g inkscape:groupmode="layer" id="g7907" inkscape:label="icon_64" style="display:inline" transform="translate(-48,-48)">
    <g inkscape:groupmode="layer" id="g7843" inkscape:label="frame" style="display:none">
      <rect inkscape:label="frame_64" y="48" x="48" height="64" width="64" id="rect7837" style="color:#000000;clip-rule:nonzero;display:inline;overflow:visible;visibility:visible;opacity:1;isolation:auto;mix-blend-mode:normal;color-interpolation:sRGB;color-interpolation-filters:linearRGB;solid-color:#000000;solid-opacity:1;vector-effect:none;fill:#000000;fill-opacity:1;fill-rule:nonzero;stroke:#ff24f7;stroke-width:0;stroke-linecap:square;stroke-linejoin:miter;stroke-miterlimit:4;stroke-dasharray:none;stroke-dashoffset:0;stroke-opacity:0.99481865;marker:none;marker-start:none;marker-mid:none;marker-end:none;paint-order:normal;color-rendering:auto;image-rendering:auto;shape-rendering:auto;text-rendering:auto;enable-background:accumulate"/>
      <text xml:space="preserve" style="font-size:16px;line-height:0%;font-family:sans-serif;letter-spacing:0px;word-spacing:0px;display:inline;opacity:1;fill:#ffffff;fill-opacity:1;stroke:none;stroke-width:0.03278551px;stroke-linecap:butt;stroke-linejoin:miter;stroke-opacity:1" x="69.816406" y="85.824219" id="text7841" inkscape:label="txt_64">
        <tspan sodipodi:role="line" x="69.816406" y="85.824219" style="font-size:16px;line-height:0%;fill:#ffffff;fill-opacity:1;stroke:none;stroke-width:0.03278551px" id="tspan7839">64</tspan>
      </text>
    </g>
    <g inkscape:groupmode="layer" id="g7905" inkscape:label="icon" style="display:inline">
      <path inkscape:connector-curvature="0" id="path24382-20" d="m 77.104243,110.60329 c -4.382272,-1.4558 -7.487808,-3.43308 -10.982719,-6.99267 -3.907176,-3.979458 -6.207722,-8.143588 -7.176284,-12.989471 -1.339867,-6.703577 2.21626,-12.848564 9.716236,-16.789695 9.050796,-4.756049 21.424823,-5.205559 25.98684,-0.944031 1.398347,1.306246 1.707209,2.057291 1.707209,4.151309 0,4.000094 -2.208601,6.477161 -10.84313,12.161261 -10.429541,6.865761 -11.519162,8.54694 -7.890957,12.175147 1.483734,1.48373 2.441777,1.95386 3.981602,1.95386 1.992098,0 3.787357,-1.14852 3.881739,-2.48338 0.276542,-3.911276 0.864907,-4.634276 4.571718,-5.617899 3.110949,-0.825526 6.644249,-0.297186 7.395124,1.105811 0.857833,1.602894 -1.199622,6.749008 -3.752476,9.385698 -4.762234,4.91862 -10.981197,6.74893 -16.594902,4.88406 z M 56.967365,72.675748 c -3.137673,-3.137666 -3.381811,-7.238767 -0.508867,-8.547764 1.265285,-0.576498 1.63616,-0.470398 2.950781,0.844222 2.495723,2.495737 2.525239,9.623536 0.03983,9.623536 -0.308958,0 -1.425759,-0.863995 -2.481758,-1.919994 z m 8.754551,-6.002685 c -1.160561,-1.282409 -2.696974,-4.898732 -2.696974,-6.347994 0,-1.842089 2.207647,-4.118614 3.994001,-4.118614 2.1453,0 3.019358,1.189818 3.342178,4.549392 0.369058,3.840888 -0.706564,6.943918 -2.407019,6.943918 -0.716662,0 -1.721133,-0.46201 -2.232186,-1.026702 z m 24.185648,-0.159105 c -2.725455,-1.5885 -2.339471,-8.891916 0.691054,-13.075423 4.252256,-5.870079 14.951542,-6.486544 14.951542,-0.861462 0,3.81321 -5.50961,11.197561 -9.963437,13.353605 -2.707455,1.310658 -4.172922,1.461191 -5.679159,0.58328 z M 76.235469,62.95881 c -3.21984,-5.278724 -1.246084,-11.924305 3.541571,-11.924305 2.254178,0 3.361181,1.404767 3.361181,4.265299 0,4.425263 -2.487266,9.526676 -4.64489,9.526676 -0.64528,0 -1.600729,-0.790345 -2.257862,-1.86767 z" style="display:inline;fill:none;fill-opacity:1;stroke:#000000;stroke-width:1.36173666;stroke-miterlimit:4;stroke-dasharray:none;stroke-opacity:0.17582421"/>
      <path style="display:inline;fill:url(#linearGradient24390-18);fill-opacity:1;stroke-width:0.57466513" d="m 77.104243,110.60329 c -4.382272,-1.4558 -7.487808,-3.43308 -10.982719,-6.99267 -3.907176,-3.979458 -6.207722,-8.143588 -7.176284,-12.989471 -1.339867,-6.703577 2.21626,-12.848564 9.716236,-16.789695 9.050796,-4.756049 21.424823,-5.205559 25.98684,-0.944031 1.398347,1.306246 1.707209,2.057291 1.707209,4.151309 0,4.000094 -2.208601,6.477161 -10.84313,12.161261 -10.429541,6.865761 -11.519162,8.54694 -7.890957,12.175147 1.483734,1.48373 2.441777,1.95386 3.981602,1.95386 1.992098,0 3.787357,-1.14852 3.881739,-2.48338 0.276542,-3.911276 0.864907,-4.634276 4.571718,-5.617899 3.110949,-0.825526 6.644249,-0.297186 7.395124,1.105811 0.857833,1.602894 -1.199622,6.749008 -3.752476,9.385698 -4.762234,4.91862 -10.981197,6.74893 -16.594902,4.88406 z M 56.967365,72.675748 c -3.137673,-3.137666 -3.381811,-7.238767 -0.508867,-8.547764 1.265285,-0.576498 1.63616,-0.470398 2.950781,0.844222 2.495723,2.495737 2.525239,9.623536 0.03983,9.623536 -0.308958,0 -1.425759,-0.863995 -2.481758,-1.919994 z m 8.754551,-6.002685 c -1.160561,-1.282409 -2.696974,-4.898732 -2.696974,-6.347994 0,-1.842089 2.207647,-4.118614 3.994001,-4.118614 2.1453,0 3.019358,1.189818 3.342178,4.549392 0.369058,3.840888 -0.706564,6.943918 -2.407019,6.943918 -0.716662,0 -1.721133,-0.46201 -2.232186,-1.026702 z m 24.185648,-0.159105 c -2.725455,-1.5885 -2.339471,-8.891916 0.691054,-13.075423 4.252256,-5.870079 14.951542,-6.486544 14.951542,-0.861462 0,3.81321 -5.50961,11.197561 -9.963437,13.353605 -2.707455,1.310658 -4.172922,1.461191 -5.679159,0.58328 z M 76.235469,62.95881 c -3.21984,-5.278724 -1.246084,-11.924305 3.541571,-11.924305 2.254178,0 3.361181,1.404767 3.361181,4.265299 0,4.425263 -2.487266,9.526676 -4.64489,9.526676 -0.64528,0 -1.600729,-0.790345 -2.257862,-1.86767 z" id="path24380-2" inkscape:connector-curvature="0"/>
    </g>
  </g>
</svg>