<?xml version="1.0" encoding="UTF-8" standalone="yes"?>
<svg xmlns:dc="http://purl.org/dc/elements/1.1/" xmlns:cc="http://creativecommons.org/ns#" xmlns:rdf="http://www.w3.org/1999/02/22-rdf-syntax-ns#" xmlns:svg="http://www.w3.org/2000/svg" xmlns="http://www.w3.org/2000/svg" xmlns:xlink="http://www.w3.org/1999/xlink" xmlns:sodipodi="http://sodipodi.sourceforge.net/DTD/sodipodi-0.dtd" xmlns:inkscape="http://www.inkscape.org/namespaces/inkscape" height="96" viewBox="0 0 96 96" width="96" id="svg2" version="1.1" inkscape:version="0.92.1 r" sodipodi:docname="atom.svg" enable-background="new" folder="96">
  <title id="title4675">Template icons dark</title>
  <metadata id="metadata24">
    <rdf:RDF>
      <cc:Work rdf:about="">
        <dc:format>image/svg+xml</dc:format>
        <dc:type rdf:resource="http://purl.org/dc/dcmitype/StillImage"/>
        <dc:title>Template icons dark</dc:title>
        <dc:date>17/05/13</dc:date>
        <dc:creator>
          <cc:Agent>
            <dc:title>wfpaisa</dc:title>
          </cc:Agent>
        </dc:creator>
        <dc:rights>
          <cc:Agent>
            <dc:title>License: GPLv3</dc:title>
          </cc:Agent>
        </dc:rights>
        <dc:language>es-en</dc:language>
        <dc:subject>
          <rdf:Bag>
            <rdf:li>plane-icon-theme</rdf:li>
          </rdf:Bag>
        </dc:subject>
        <dc:description>Template for create set icons</dc:description>
        <cc:license rdf:resource="https://www.gnu.org/licenses/gpl-3.0.en.html"/>
      </cc:Work>
    </rdf:RDF>
  </metadata>
  <defs id="defs22">
    <linearGradient inkscape:collect="always" id="linearGradient7774">
      <stop style="stop-color:#ff053c;stop-opacity:1" offset="0" id="stop7770"/>
      <stop style="stop-color:#0b31ff;stop-opacity:0.97395831" offset="1" id="stop7772"/>
    </linearGradient>
    <linearGradient inkscape:collect="always" xlink:href="#linearGradient5467" id="linearGradient5473" x1="24.53476" y1="7.9960122" x2="24.704725" y2="38.249725" gradientUnits="userSpaceOnUse" gradientTransform="matrix(2.1310889,0,0,2.1310889,108.68013,105.53144)"/>
    <linearGradient inkscape:collect="always" id="linearGradient5467">
      <stop style="stop-color:#20c686;stop-opacity:1" offset="0" id="stop5469"/>
      <stop style="stop-color:#259d68;stop-opacity:1" offset="1" id="stop5471"/>
    </linearGradient>
    <linearGradient inkscape:collect="always" xlink:href="#linearGradient7774" id="linearGradient7776" x1="122" y1="183" x2="196" y2="142" gradientUnits="userSpaceOnUse"/>
    <linearGradient gradientTransform="matrix(0.5106383,0,0,0.5106383,-57.702128,-57.702128)" inkscape:collect="always" xlink:href="#linearGradient7774" id="linearGradient7776-3" x1="122" y1="183" x2="196" y2="142" gradientUnits="userSpaceOnUse"/>
    <linearGradient inkscape:collect="always" xlink:href="#linearGradient5467" id="linearGradient5473-5" x1="24.53476" y1="7.9960122" x2="24.704725" y2="38.249725" gradientUnits="userSpaceOnUse" gradientTransform="matrix(1.0882156,0,0,1.0882156,-2.205891,-3.8137327)"/>
    <linearGradient inkscape:collect="always" xlink:href="#linearGradient5467" id="linearGradient7902" gradientUnits="userSpaceOnUse" gradientTransform="matrix(1.4056119,0,0,1.4056119,46.150729,44.073933)" x1="24.53476" y1="7.9960122" x2="24.704725" y2="38.249725"/>
    <linearGradient inkscape:collect="always" xlink:href="#linearGradient7774" id="linearGradient7904" gradientUnits="userSpaceOnUse" gradientTransform="matrix(0.65957449,0,0,0.65957449,-25.531913,-25.531913)" x1="122" y1="183" x2="196" y2="142"/>
    <linearGradient inkscape:collect="always" xlink:href="#linearGradient5467" id="linearGradient5473-7" x1="24.53476" y1="7.9960122" x2="24.704725" y2="38.249725" gradientUnits="userSpaceOnUse" gradientTransform="matrix(2.8112236,0,0,2.8112236,204.30144,200.14785)"/>
    <linearGradient gradientTransform="matrix(1.3191489,0,0,1.3191489,60.936166,60.936166)" inkscape:collect="always" xlink:href="#linearGradient7774" id="linearGradient7776-2" x1="122" y1="183" x2="196" y2="142" gradientUnits="userSpaceOnUse"/>
    <linearGradient inkscape:collect="always" xlink:href="#linearGradient5467" id="linearGradient5473-9" x1="24.53476" y1="7.9960122" x2="24.704725" y2="38.249725" gradientUnits="userSpaceOnUse" gradientTransform="matrix(0.72547707,0,0,0.72547707,-33.470593,-34.542488)"/>
    <linearGradient gradientTransform="matrix(0.34042553,0,0,0.34042553,-70.468084,-70.468084)" inkscape:collect="always" xlink:href="#linearGradient7774" id="linearGradient7776-8" x1="122" y1="183" x2="196" y2="142" gradientUnits="userSpaceOnUse"/>
    <linearGradient inkscape:collect="always" xlink:href="#linearGradient5467" id="linearGradient5473-9-1" x1="24.53476" y1="7.9960122" x2="24.704725" y2="38.249725" gradientUnits="userSpaceOnUse" gradientTransform="matrix(0.5441078,0,0,0.5441078,-57.102945,-57.906866)"/>
    <linearGradient gradientTransform="matrix(0.25531915,0,0,0.25531915,-84.851063,-84.851063)" inkscape:collect="always" xlink:href="#linearGradient7774" id="linearGradient7776-8-4" x1="122" y1="183" x2="196" y2="142" gradientUnits="userSpaceOnUse"/>
  </defs>
  <sodipodi:namedview pagecolor="#383c4a" bordercolor="#ffffff" borderopacity="0.62745098" objecttolerance="4" gridtolerance="10" guidetolerance="4" inkscape:pageopacity="0" inkscape:pageshadow="2" inkscape:window-width="640" inkscape:window-height="480" id="namedview20" showgrid="true" inkscape:zoom="16.386532" inkscape:cx="100.73209" inkscape:cy="-55.455318" inkscape:current-layer="g7905" inkscape:snap-smooth-nodes="false" showguides="true" borderlayer="true" inkscape:showpageshadow="false" inkscape:guide-bbox="true" guidecolor="#bd4fff" guideopacity="0.78431373" inkscape:snap-nodes="true" inkscape:lockguides="false" fit-margin-top="0" fit-margin-left="0" fit-margin-right="0" fit-margin-bottom="0" guidehicolor="#ff0101" guidehiopacity="0.78431373" inkscape:snap-page="true" inkscape:object-nodes="true" inkscape:snap-bbox="true" inkscape:snap-global="true" inkscape:snap-object-midpoints="false" inkscape:snap-bbox-edge-midpoints="false">
    <inkscape:grid type="xygrid" id="grid4171" empspacing="4" dotted="false" originx="2.7755576e-17" originy="0" spacingx="1" spacingy="1" color="#5a5a5a" opacity="0.23529412" empcolor="#5a5a5a" empopacity="0.47058824" visible="true"/>
    <inkscape:grid type="axonomgrid" id="grid4699" units="mm" empspacing="4" color="#5a5a5a" opacity="0.23529412" empcolor="#5a5a5a" empopacity="0.47058824" gridanglex="45" gridanglez="45" spacingy="3.7795276" visible="false" originx="1.3228346" originy="1.3228346"/>
    <sodipodi:guide position="48,0" orientation="1,0" id="guide4568" inkscape:locked="false" inkscape:label="" inkscape:color="rgb(189,79,255)"/>
    <sodipodi:guide position="111.99996,-3.9999999e-05" orientation="0,1" id="guide4570" inkscape:locked="false" inkscape:label="" inkscape:color="rgb(189,79,255)"/>
    <sodipodi:guide position="0,0" orientation="1,0" id="guide4572" inkscape:locked="false" inkscape:label="" inkscape:color="rgb(189,79,255)"/>
    <sodipodi:guide position="0,48" orientation="0,1" id="guide4574" inkscape:locked="false" inkscape:label="" inkscape:color="rgb(189,79,255)"/>
    <sodipodi:guide position="0,80" orientation="0,1" id="guide4576" inkscape:locked="false" inkscape:label="" inkscape:color="rgb(189,79,255)"/>
    <sodipodi:guide position="-32,48" orientation="1,0" id="guide4578" inkscape:locked="false" inkscape:label="" inkscape:color="rgb(189,79,255)"/>
    <sodipodi:guide position="-32,104" orientation="0,1" id="guide4580" inkscape:locked="false" inkscape:label="" inkscape:color="rgb(189,79,255)"/>
    <sodipodi:guide position="-56,80" orientation="1,0" id="guide4582" inkscape:locked="false" inkscape:label="" inkscape:color="rgb(189,79,255)"/>
    <sodipodi:guide position="48,-64" orientation="0,1" id="guide4584" inkscape:locked="false" inkscape:label="" inkscape:color="rgb(189,79,255)"/>
    <sodipodi:guide position="0,0" orientation="-0.70710678,0.70710678" id="guide4588" inkscape:locked="false" inkscape:label="" inkscape:color="rgb(189,79,255)"/>
    <sodipodi:guide position="-56,80" orientation="-0.70710678,0.70710678" id="guide4573" inkscape:locked="false" inkscape:label="" inkscape:color="rgb(189,79,255)"/>
    <sodipodi:guide position="-32,48" orientation="-0.70710678,0.70710678" id="guide4575" inkscape:locked="false" inkscape:label="" inkscape:color="rgb(189,79,255)"/>
    <sodipodi:guide position="48,-64" orientation="-0.70710678,0.70710678" id="guide4577" inkscape:locked="false" inkscape:label="" inkscape:color="rgb(189,79,255)"/>
    <sodipodi:guide position="47.999962,0" orientation="0.70710678,0.70710678" id="guide4697" inkscape:locked="false" inkscape:label="" inkscape:color="rgb(189,79,255)"/>
    <sodipodi:guide position="207.99995,-288" orientation="0,1" id="guide7833" inkscape:locked="false"/>
    <sodipodi:guide position="335.99994,-288" orientation="1,0" id="guide7835" inkscape:locked="false" inkscape:label="" inkscape:color="rgb(189,79,255)"/>
    <sodipodi:guide position="111.99996,-64" orientation="1,0" id="guide7915" inkscape:locked="false"/>
    <sodipodi:guide position="111.99996,-160" orientation="0,1" id="guide7917" inkscape:locked="false"/>
    <sodipodi:guide position="207.99996,-160" orientation="1,0" id="guide7919" inkscape:locked="false"/>
    <sodipodi:guide position="111.99996,-160" orientation="-0.70710678,0.70710678" id="guide7921" inkscape:locked="false" inkscape:label="" inkscape:color="rgb(189,79,255)"/>
    <sodipodi:guide position="207.99996,-288" orientation="-0.70710678,0.70710678" id="guide7923" inkscape:locked="false" inkscape:label="" inkscape:color="rgb(189,79,255)"/>
    <sodipodi:guide position="-72,104" orientation="1,0" id="guide7824" inkscape:locked="false"/>
    <sodipodi:guide position="-56,120" orientation="0,1" id="guide7826" inkscape:locked="false"/>
    <sodipodi:guide position="-72,104" orientation="-0.70710678,0.70710678" id="guide7828" inkscape:locked="false" inkscape:label="" inkscape:color="rgb(189,79,255)"/>
  </sodipodi:namedview>
  <g style="display:inline" inkscape:label="icon_96" id="g8840" inkscape:groupmode="layer" transform="translate(-111.99996,-112)">
    <g style="display:none" inkscape:label="frame" id="g8776" inkscape:groupmode="layer">
      <rect style="color:#000000;clip-rule:nonzero;display:inline;overflow:visible;visibility:visible;opacity:1;isolation:auto;mix-blend-mode:normal;color-interpolation:sRGB;color-interpolation-filters:linearRGB;solid-color:#000000;solid-opacity:1;vector-effect:none;fill:#000000;fill-opacity:1;fill-rule:nonzero;stroke:#ff24f7;stroke-width:0;stroke-linecap:square;stroke-linejoin:miter;stroke-miterlimit:4;stroke-dasharray:none;stroke-dashoffset:0;stroke-opacity:0.99481865;marker:none;marker-start:none;marker-mid:none;marker-end:none;paint-order:normal;color-rendering:auto;image-rendering:auto;shape-rendering:auto;text-rendering:auto;enable-background:accumulate" id="rect_96" width="96" height="96" x="111.99996" y="112" inkscape:label="frame_96"/>
      <text inkscape:label="txt_96" id="text_96" y="168.73633" x="144.72458" style="font-size:24px;line-height:0%;font-family:sans-serif;letter-spacing:0px;word-spacing:0px;display:inline;opacity:1;fill:#ffffff;fill-opacity:1;stroke:none;stroke-width:0.04917826px;stroke-linecap:butt;stroke-linejoin:miter;stroke-opacity:1" xml:space="preserve">
        <tspan id="tspan8768" style="font-size:24px;line-height:0%;fill:#ffffff;fill-opacity:1;stroke:none;stroke-width:0.04917826px" y="168.73633" x="144.72458" sodipodi:role="line">96</tspan>
      </text>
    </g>
    <g style="display:inline" inkscape:label="icon" id="g8838" inkscape:groupmode="layer">
      <circle style="color:#000000;clip-rule:nonzero;display:block;overflow:visible;visibility:visible;opacity:1;isolation:auto;mix-blend-mode:normal;color-interpolation:sRGB;color-interpolation-filters:linearRGB;solid-color:#000000;solid-opacity:1;fill:#000000;fill-opacity:0.15686275;fill-rule:nonzero;stroke:none;stroke-width:2.03996253;stroke-linecap:butt;stroke-linejoin:miter;stroke-miterlimit:4;stroke-dasharray:none;stroke-dashoffset:0;stroke-opacity:1;marker:none;marker-start:none;marker-mid:none;marker-end:none;color-rendering:auto;image-rendering:auto;shape-rendering:auto;text-rendering:auto;enable-background:accumulate" id="path5465-5" cx="160" cy="160" r="47" inkscape:label="sombra"/>
      <circle style="color:#000000;clip-rule:nonzero;display:inline;overflow:visible;visibility:visible;opacity:1;isolation:auto;mix-blend-mode:normal;color-interpolation:sRGB;color-interpolation-filters:linearRGB;solid-color:#000000;solid-opacity:1;fill:url(#linearGradient5473);fill-opacity:1;fill-rule:nonzero;stroke:#ffffff;stroke-width:2.48037529;stroke-linecap:butt;stroke-linejoin:miter;stroke-miterlimit:4;stroke-dasharray:none;stroke-dashoffset:0;stroke-opacity:1;marker:none;marker-start:none;marker-mid:none;marker-end:none;color-rendering:auto;image-rendering:auto;shape-rendering:auto;text-rendering:auto;enable-background:accumulate" id="path5465" cx="160" cy="160.00003" r="44.507652" inkscape:label="circle"/>
      <circle inkscape:label="circle" r="44.507652" cy="160.00003" cx="160" id="circle7768" style="color:#000000;clip-rule:nonzero;display:inline;overflow:visible;visibility:visible;opacity:0.10899999;isolation:auto;mix-blend-mode:normal;color-interpolation:sRGB;color-interpolation-filters:linearRGB;solid-color:#000000;solid-opacity:1;fill:url(#linearGradient7776);fill-opacity:1;fill-rule:nonzero;stroke:#ffffff;stroke-width:2.48037529;stroke-linecap:butt;stroke-linejoin:miter;stroke-miterlimit:4;stroke-dasharray:none;stroke-dashoffset:0;stroke-opacity:1;marker:none;marker-start:none;marker-mid:none;marker-end:none;color-rendering:auto;image-rendering:auto;shape-rendering:auto;text-rendering:auto;enable-background:accumulate"/>
      <circle inkscape:label="circle" r="7.573998" cy="160.00003" cx="160" id="circle7778" style="color:#000000;clip-rule:nonzero;display:inline;overflow:visible;visibility:visible;opacity:1;isolation:auto;mix-blend-mode:normal;color-interpolation:sRGB;color-interpolation-filters:linearRGB;solid-color:#000000;solid-opacity:1;fill:#efefef;fill-opacity:0.21354167;fill-rule:nonzero;stroke:none;stroke-width:0.42209274;stroke-linecap:butt;stroke-linejoin:miter;stroke-miterlimit:4;stroke-dasharray:none;stroke-dashoffset:0;stroke-opacity:1;marker:none;marker-start:none;marker-mid:none;marker-end:none;color-rendering:auto;image-rendering:auto;shape-rendering:auto;text-rendering:auto;enable-background:accumulate"/>
      <circle style="color:#000000;clip-rule:nonzero;display:inline;overflow:visible;visibility:visible;opacity:1;isolation:auto;mix-blend-mode:normal;color-interpolation:sRGB;color-interpolation-filters:linearRGB;solid-color:#000000;solid-opacity:1;fill:none;fill-opacity:0.21354167;fill-rule:nonzero;stroke:#ffffff;stroke-width:1.14576793;stroke-linecap:butt;stroke-linejoin:miter;stroke-miterlimit:4;stroke-dasharray:1.14576798, 9.16614386;stroke-dashoffset:0;stroke-opacity:0.29166667;marker:none;marker-start:none;marker-mid:none;marker-end:none;color-rendering:auto;image-rendering:auto;shape-rendering:auto;text-rendering:auto;enable-background:accumulate" id="circle7786" cx="160" cy="160.00003" r="36.619175" inkscape:label="circle"/>
      <path inkscape:connector-curvature="0" id="path7745" d="m 171.29337,192.16988 c -5.03744,-0.83655 -11.57951,-6.60312 -17.55239,-15.47169 -2.50583,-3.7207 -5.06975,-8.31557 -6.7434,-12.08505 -0.33572,-0.75611 -0.45842,-0.93795 -0.55985,-0.82959 -0.20316,0.21696 -1.66124,3.38744 -2.42945,5.2823 -1.29221,3.18737 -2.20302,6.22635 -2.72494,9.09223 -0.33437,1.83596 -0.36312,5.39334 -0.0524,6.49543 0.72176,2.56087 2.28688,3.62526 4.72885,3.21592 1.76026,-0.29508 3.8911,-1.25919 6.15197,-2.78349 1.00406,-0.67694 1.26813,-0.80576 1.65646,-0.80803 0.5938,-0.004 1.03705,0.31955 1.24475,0.90714 0.13764,0.38957 0.13723,0.50258 -0.004,0.87488 -0.13558,0.35732 -0.37041,0.56877 -1.43018,1.28739 -1.46368,0.99257 -3.96788,2.27196 -5.24901,2.68173 -3.3566,1.07371 -5.96792,0.68011 -7.80894,-1.17697 -1.68876,-1.70349 -2.41634,-4.45946 -2.19212,-8.30341 0.29182,-5.00249 2.49101,-11.83182 5.96586,-18.52631 l 0.87137,-1.67871 -0.65817,-1.78081 c -0.62988,-1.70427 -1.87565,-5.65534 -1.87565,-5.94883 0,-0.21618 -0.38115,-0.17177 -2.05215,0.23929 -3.82869,0.94183 -6.67343,2.14053 -8.71359,3.67169 -4.01016,3.00966 -2.94795,6.40447 3.06152,9.78483 0.95696,0.53829 1.17801,0.82817 1.17801,1.54485 0,0.37452 -0.0692,0.52822 -0.37608,0.83508 -0.65713,0.65717 -1.26903,0.52019 -3.29789,-0.73814 -2.93431,-1.81991 -4.78953,-3.89077 -5.443,-6.07564 -0.23864,-0.79795 -0.23949,-2.40526 -0.001,-3.2078 0.34672,-1.17008 0.93028,-2.0994 1.98356,-3.15879 2.36045,-2.37414 6.27486,-4.1971 11.64345,-5.42236 1.09349,-0.24958 1.34601,-0.3429 1.30482,-0.48227 -0.0281,-0.0951 -0.15305,-0.72036 -0.27773,-1.38957 -0.72941,-3.91588 -0.7516,-8.40562 -0.0538,-10.89543 0.8046,-2.8709 2.26134,-4.57963 4.58421,-5.37712 0.94843,-0.32562 2.84682,-0.27398 4.14801,0.11271 1.30864,0.389 2.93346,1.18907 4.36924,2.15144 1.71111,1.14692 2.21567,1.62814 2.28809,2.18234 0.16636,1.27338 -1.14918,1.96009 -2.2232,1.16041 -3.36753,-2.50741 -5.77128,-3.46151 -7.69722,-3.05518 -1.39962,0.29528 -2.46952,1.73428 -3.0095,4.04762 -0.21471,0.92005 -0.2441,1.35673 -0.24513,3.64471 -0.001,2.59691 0.0361,3.01457 0.51022,5.7374 l 0.23829,1.36817 0.56172,-0.068 c 2.57809,-0.31163 4.79987,-0.52835 6.16992,-0.60182 l 1.62608,-0.0871 0.2536,-0.32604 c 2.74661,-3.53144 6.74125,-7.65541 9.76785,-10.08408 5.79617,-4.65106 10.76734,-6.26632 14.18713,-4.60975 1.93181,0.93579 3.15273,2.84812 3.6262,5.67968 0.30912,1.8486 0.0649,6.22428 -0.41616,7.45678 -0.16615,0.42586 -0.69915,0.73265 -1.27352,0.73315 -0.36148,3.7e-4 -0.55075,-0.0732 -0.82959,-0.32227 -0.33054,-0.29526 -0.36101,-0.37745 -0.3587,-0.96785 0.001,-0.35486 0.0944,-1.36694 0.2069,-2.24909 0.32675,-2.56471 0.10214,-4.93544 -0.59762,-6.30702 -0.33964,-0.66578 -1.03457,-1.37659 -1.63554,-1.67286 -0.45082,-0.22225 -0.68297,-0.256 -1.7371,-0.25256 -1.10769,0.004 -1.3244,0.0408 -2.41762,0.41349 -3.38221,1.15355 -7.25757,3.92627 -11.41752,8.1689 -0.79554,0.81134 -1.9886,2.09737 -2.65124,2.85785 l -1.20483,1.38266 1.04734,0.025 c 14.66043,0.34754 27.01671,3.71416 32.8412,8.94806 1.31066,1.17776 2.44002,2.93239 2.76816,4.30075 0.16635,0.69372 0.16948,2.0407 0.006,2.76186 -0.60149,2.6611 -3.52719,5.27716 -7.79244,6.96781 -0.6742,0.26725 -0.81661,0.28893 -1.18094,0.17966 -0.59674,-0.17882 -0.98369,-0.6829 -0.98369,-1.28155 0,-0.70345 0.33893,-1.04133 1.55682,-1.55204 2.64935,-1.111 4.70386,-2.66856 5.48395,-4.15752 0.27106,-0.51742 0.31192,-0.7186 0.31178,-1.53564 -1e-4,-0.84982 -0.0359,-1.00934 -0.37103,-1.65921 -0.47275,-0.91647 -2.03515,-2.48318 -3.33126,-3.34043 -6.36766,-4.2116 -18.36689,-6.94617 -30.48143,-6.94656 l -1.99843,-6e-5 -0.75312,1.02318 c -1.12658,1.53056 -3.57124,5.25107 -4.54404,6.91551 l -0.85788,1.46779 0.58946,1.35286 c 5.91334,13.57147 15.09377,25.03009 21.86499,27.29099 1.47211,0.49153 2.58605,0.51548 3.48647,0.075 1.685,-0.82437 2.56755,-2.96438 2.7031,-6.55425 0.2262,-5.99139 -1.93173,-14.27209 -5.9556,-22.85343 -0.41722,-0.88974 -0.66767,-1.5688 -0.66767,-1.81019 0,-0.72576 0.59597,-1.29647 1.34311,-1.28616 0.66343,0.008 0.95444,0.27482 1.46046,1.33322 3.26321,6.82541 5.43852,13.66305 6.25079,19.6481 0.27316,2.01259 0.2748,6.10889 0.004,7.57272 -0.43462,2.34131 -1.20791,4.02805 -2.3912,5.21592 -1.44151,1.44707 -3.31237,1.99974 -5.52544,1.63224 z m -23.40938,-36.43296 c 0.41311,-0.66924 1.21721,-1.89868 1.78691,-2.73216 0.5697,-0.83346 1.03581,-1.54921 1.03581,-1.59051 0,-0.14225 -5.22655,0.38673 -5.38472,0.5449 -0.0951,0.0948 0.21824,1.25952 0.91415,3.39958 0.50611,1.55631 0.6431,1.87248 0.75731,1.74751 0.0767,-0.084 0.47741,-0.70012 0.89054,-1.36932 z m 11.15191,9.92179 c -1.66179,-0.59335 -2.63291,-1.97985 -2.61079,-3.72745 0.0125,-0.91499 0.22022,-1.54247 0.75519,-2.27125 1.35564,-1.84674 4.12407,-2.05677 5.79072,-0.43934 1.91436,1.85782 1.34769,5.1727 -1.07378,6.28129 -0.8333,0.3815 -2.04589,0.44791 -2.86134,0.1568 z" style="display:inline;opacity:1;fill:#000000;fill-opacity:0.23529412;stroke:none;stroke-width:0.4400939;stroke-miterlimit:4;stroke-dasharray:none;stroke-opacity:1" inkscape:label="sombra atom"/>
      <path style="display:inline;opacity:1;fill:#ffffff;fill-opacity:1;stroke:#ffffff;stroke-width:0.4400939;stroke-miterlimit:4;stroke-dasharray:none;stroke-opacity:1" d="m 171.29337,190.16988 c -5.03744,-0.83655 -11.57951,-6.60312 -17.55239,-15.47169 -2.50583,-3.7207 -5.06975,-8.31557 -6.7434,-12.08505 -0.33572,-0.75611 -0.45842,-0.93795 -0.55985,-0.82959 -0.20316,0.21696 -1.66124,3.38744 -2.42945,5.2823 -1.29221,3.18737 -2.20302,6.22635 -2.72494,9.09223 -0.33437,1.83596 -0.36312,5.39334 -0.0524,6.49543 0.72176,2.56087 2.28688,3.62526 4.72885,3.21592 1.76026,-0.29508 3.8911,-1.25919 6.15197,-2.78349 1.00406,-0.67694 1.26813,-0.80576 1.65646,-0.80803 0.5938,-0.004 1.03705,0.31955 1.24475,0.90714 0.13764,0.38957 0.13723,0.50258 -0.004,0.87488 -0.13558,0.35732 -0.37041,0.56877 -1.43018,1.28739 -1.46368,0.99257 -3.96788,2.27196 -5.24901,2.68173 -3.3566,1.07371 -5.96792,0.68011 -7.80894,-1.17697 -1.68876,-1.70349 -2.41634,-4.45946 -2.19212,-8.30341 0.29182,-5.00249 2.49101,-11.83182 5.96586,-18.52631 l 0.87137,-1.67871 -0.65817,-1.78081 c -0.62988,-1.70427 -1.87565,-5.65534 -1.87565,-5.94883 0,-0.21618 -0.38115,-0.17177 -2.05215,0.23929 -3.82869,0.94183 -6.67343,2.14053 -8.71359,3.67169 -4.01016,3.00966 -2.94795,6.40447 3.06152,9.78483 0.95696,0.53829 1.17801,0.82817 1.17801,1.54485 0,0.37452 -0.0692,0.52822 -0.37608,0.83508 -0.65713,0.65717 -1.26903,0.52019 -3.29789,-0.73814 -2.93431,-1.81991 -4.78953,-3.89077 -5.443,-6.07564 -0.23864,-0.79795 -0.23949,-2.40526 -0.001,-3.2078 0.34672,-1.17008 0.93028,-2.0994 1.98356,-3.15879 2.36045,-2.37414 6.27486,-4.1971 11.64345,-5.42236 1.09349,-0.24958 1.34601,-0.3429 1.30482,-0.48227 -0.0281,-0.0951 -0.15305,-0.72036 -0.27773,-1.38957 -0.72941,-3.91588 -0.7516,-8.40562 -0.0538,-10.89543 0.8046,-2.8709 2.26134,-4.57963 4.58421,-5.37712 0.94843,-0.32562 2.84682,-0.27398 4.14801,0.11271 1.30864,0.389 2.93346,1.18907 4.36924,2.15144 1.71111,1.14692 2.21567,1.62814 2.28809,2.18234 0.16636,1.27338 -1.14918,1.96009 -2.2232,1.16041 -3.36753,-2.50741 -5.77128,-3.46151 -7.69722,-3.05518 -1.39962,0.29528 -2.46952,1.73428 -3.0095,4.04762 -0.21471,0.92005 -0.2441,1.35673 -0.24513,3.64471 -0.001,2.59691 0.0361,3.01457 0.51022,5.7374 l 0.23829,1.36817 0.56172,-0.068 c 2.57809,-0.31163 4.79987,-0.52835 6.16992,-0.60182 l 1.62608,-0.0871 0.2536,-0.32604 c 2.74661,-3.53144 6.74125,-7.65541 9.76785,-10.08408 5.79617,-4.65106 10.76734,-6.26632 14.18713,-4.60975 1.93181,0.93579 3.15273,2.84812 3.6262,5.67968 0.30912,1.8486 0.0649,6.22428 -0.41616,7.45678 -0.16615,0.42586 -0.69915,0.73265 -1.27352,0.73315 -0.36148,3.7e-4 -0.55075,-0.0732 -0.82959,-0.32227 -0.33054,-0.29526 -0.36101,-0.37745 -0.3587,-0.96785 0.001,-0.35486 0.0944,-1.36694 0.2069,-2.24909 0.32675,-2.56471 0.10214,-4.93544 -0.59762,-6.30702 -0.33964,-0.66578 -1.03457,-1.37659 -1.63554,-1.67286 -0.45082,-0.22225 -0.68297,-0.256 -1.7371,-0.25256 -1.10769,0.004 -1.3244,0.0408 -2.41762,0.41349 -3.38221,1.15355 -7.25757,3.92627 -11.41752,8.1689 -0.79554,0.81134 -1.9886,2.09737 -2.65124,2.85785 l -1.20483,1.38266 1.04734,0.025 c 14.66043,0.34754 27.01671,3.71416 32.8412,8.94806 1.31066,1.17776 2.44002,2.93239 2.76816,4.30075 0.16635,0.69372 0.16948,2.0407 0.006,2.76186 -0.60149,2.6611 -3.52719,5.27716 -7.79244,6.96781 -0.6742,0.26725 -0.81661,0.28893 -1.18094,0.17966 -0.59674,-0.17882 -0.98369,-0.6829 -0.98369,-1.28155 0,-0.70345 0.33893,-1.04133 1.55682,-1.55204 2.64935,-1.111 4.70386,-2.66856 5.48395,-4.15752 0.27106,-0.51742 0.31192,-0.7186 0.31178,-1.53564 -1e-4,-0.84982 -0.0359,-1.00934 -0.37103,-1.65921 -0.47275,-0.91647 -2.03515,-2.48318 -3.33126,-3.34043 -6.36766,-4.2116 -18.36689,-6.94617 -30.48143,-6.94656 l -1.99843,-6e-5 -0.75312,1.02318 c -1.12658,1.53056 -3.57124,5.25107 -4.54404,6.91551 l -0.85788,1.46779 0.58946,1.35286 c 5.91334,13.57147 15.09377,25.03009 21.86499,27.29099 1.47211,0.49153 2.58605,0.51548 3.48647,0.075 1.685,-0.82437 2.56755,-2.96438 2.7031,-6.55425 0.2262,-5.99139 -1.93173,-14.27209 -5.9556,-22.85343 -0.41722,-0.88974 -0.66767,-1.5688 -0.66767,-1.81019 0,-0.72576 0.59597,-1.29647 1.34311,-1.28616 0.66343,0.008 0.95444,0.27482 1.46046,1.33322 3.26321,6.82541 5.43852,13.66305 6.25079,19.6481 0.27316,2.01259 0.2748,6.10889 0.004,7.57272 -0.43462,2.34131 -1.20791,4.02805 -2.3912,5.21592 -1.44151,1.44707 -3.31237,1.99974 -5.52544,1.63224 z m -23.40938,-36.43296 c 0.41311,-0.66924 1.21721,-1.89868 1.78691,-2.73216 0.5697,-0.83346 1.03581,-1.54921 1.03581,-1.59051 0,-0.14225 -5.22655,0.38673 -5.38472,0.5449 -0.0951,0.0948 0.21824,1.25952 0.91415,3.39958 0.50611,1.55631 0.6431,1.87248 0.75731,1.74751 0.0767,-0.084 0.47741,-0.70012 0.89054,-1.36932 z m 11.15191,9.92179 c -1.66179,-0.59335 -2.63291,-1.97985 -2.61079,-3.72745 0.0125,-0.91499 0.22022,-1.54247 0.75519,-2.27125 1.35564,-1.84674 4.12407,-2.05677 5.79072,-0.43934 1.91436,1.85782 1.34769,5.1727 -1.07378,6.28129 -0.8333,0.3815 -2.04589,0.44791 -2.86134,0.1568 z" id="path4662" inkscape:connector-curvature="0" inkscape:label="atom"/>
      <path style="color:#000000;clip-rule:nonzero;display:inline;overflow:visible;visibility:visible;opacity:1;isolation:auto;mix-blend-mode:normal;color-interpolation:sRGB;color-interpolation-filters:linearRGB;solid-color:#000000;solid-opacity:1;fill:#000000;fill-opacity:0.296875;fill-rule:nonzero;stroke:none;stroke-width:2.44670439;stroke-linecap:butt;stroke-linejoin:miter;stroke-miterlimit:4;stroke-dasharray:none;stroke-dashoffset:0;stroke-opacity:1;marker:none;marker-start:none;marker-mid:none;marker-end:none;color-rendering:auto;image-rendering:auto;shape-rendering:auto;text-rendering:auto;enable-background:accumulate" d="M 203.28673,158.41406 A 43.307478,44.507652 0 0 1 160,202.50781 43.307478,44.507652 0 0 1 116.71327,158.58594 43.307478,44.507652 0 0 0 116.69237,159 43.307478,44.507652 0 0 0 160,203.50781 43.307478,44.507652 0 0 0 203.30763,159 a 43.307478,44.507652 0 0 0 -0.0209,-0.58594 z" id="circle7747" inkscape:connector-curvature="0"/>
      <path inkscape:connector-curvature="0" id="path7766" d="M 203.48719,161.8718 A 43.508032,44.507652 0 0 0 160,117.77805 a 43.508032,44.507652 0 0 0 -43.48719,43.92187 43.508032,44.507652 0 0 1 -0.021,-0.41406 A 43.508032,44.507652 0 0 1 160,116.77805 a 43.508032,44.507652 0 0 1 43.50819,44.50781 43.508032,44.507652 0 0 1 -0.021,0.58594 z" style="color:#000000;clip-rule:nonzero;display:inline;overflow:visible;visibility:visible;opacity:1;isolation:auto;mix-blend-mode:normal;color-interpolation:sRGB;color-interpolation-filters:linearRGB;solid-color:#000000;solid-opacity:1;fill:#242424;fill-opacity:0.47058824;fill-rule:nonzero;stroke:none;stroke-width:2.45236301;stroke-linecap:butt;stroke-linejoin:miter;stroke-miterlimit:4;stroke-dasharray:none;stroke-dashoffset:0;stroke-opacity:1;marker:none;marker-start:none;marker-mid:none;marker-end:none;color-rendering:auto;image-rendering:auto;shape-rendering:auto;text-rendering:auto;enable-background:accumulate"/>
    </g>
  </g>
</svg>