<?xml version="1.0" encoding="UTF-8" standalone="yes"?>
<svg xmlns:osb="http://www.openswatchbook.org/uri/2009/osb" xmlns:dc="http://purl.org/dc/elements/1.1/" xmlns:cc="http://creativecommons.org/ns#" xmlns:rdf="http://www.w3.org/1999/02/22-rdf-syntax-ns#" xmlns:svg="http://www.w3.org/2000/svg" xmlns="http://www.w3.org/2000/svg" xmlns:xlink="http://www.w3.org/1999/xlink" xmlns:sodipodi="http://sodipodi.sourceforge.net/DTD/sodipodi-0.dtd" xmlns:inkscape="http://www.inkscape.org/namespaces/inkscape" height="96" viewBox="0 0 96 96" width="96" id="svg2" version="1.1" inkscape:version="0.92.1 r" sodipodi:docname="gnome-tweak-tool.svg" enable-background="new" folder="96">
  <title id="title4675">Template icons dark</title>
  <metadata id="metadata24">
    <rdf:RDF>
      <cc:Work rdf:about="">
        <dc:format>image/svg+xml</dc:format>
        <dc:type rdf:resource="http://purl.org/dc/dcmitype/StillImage"/>
        <dc:title>Template icons dark</dc:title>
        <dc:date>17/05/13</dc:date>
        <dc:creator>
          <cc:Agent>
            <dc:title>wfpaisa</dc:title>
          </cc:Agent>
        </dc:creator>
        <dc:rights>
          <cc:Agent>
            <dc:title>License: GPLv3</dc:title>
          </cc:Agent>
        </dc:rights>
        <dc:language>es-en</dc:language>
        <dc:subject>
          <rdf:Bag>
            <rdf:li>plane-icon-theme</rdf:li>
          </rdf:Bag>
        </dc:subject>
        <dc:description>Template for create set icons</dc:description>
        <cc:license rdf:resource="https://www.gnu.org/licenses/gpl-3.0.en.html"/>
      </cc:Work>
    </rdf:RDF>
  </metadata>
  <defs id="defs22">
    <linearGradient inkscape:collect="always" id="linearGradient8106">
      <stop style="stop-color:#d6dee0;stop-opacity:1" offset="0" id="stop8102"/>
      <stop style="stop-color:#ffffff;stop-opacity:0.47395834" offset="1" id="stop8104"/>
    </linearGradient>
    <linearGradient inkscape:collect="always" id="linearGradient8067">
      <stop style="stop-color:#403d60;stop-opacity:0.39607844" offset="0" id="stop8063"/>
      <stop style="stop-color:#000000;stop-opacity:0.07291666" offset="1" id="stop8065"/>
    </linearGradient>
    <linearGradient inkscape:collect="always" id="linearGradient8024">
      <stop style="stop-color:#c3ced1;stop-opacity:1" offset="0" id="stop8020"/>
      <stop style="stop-color:#f6f6f6;stop-opacity:1" offset="1" id="stop8022"/>
    </linearGradient>
    <linearGradient y2="6.7686791" x2="35.035843" y1="56.762737" x1="35.035843" gradientTransform="matrix(1.6693351,0,0,1.6746213,105.59431,107.20584)" gradientUnits="userSpaceOnUse" id="linearGradient6333" xlink:href="#linearGradient4471" inkscape:collect="always"/>
    <linearGradient id="linearGradient4471" inkscape:collect="always">
      <stop id="stop4473" offset="0" style="stop-color:#c9cfd1;stop-opacity:1"/>
      <stop id="stop4475" offset="1" style="stop-color:#ffffff;stop-opacity:1"/>
    </linearGradient>
    <linearGradient inkscape:collect="always" xlink:href="#selected_bg_color-black-2" id="linearGradient5867" gradientUnits="userSpaceOnUse" gradientTransform="matrix(1.1171118,0,0,1.1171118,312.64102,226.92818)" x1="-49.095852" y1="1041.1797" x2="-9.0958519" y2="1041.1797"/>
    <linearGradient id="selected_bg_color-black-2" osb:paint="solid">
      <stop style="stop-color:#2d393e;stop-opacity:0.11731844;" offset="0" id="stop5669"/>
    </linearGradient>
    <linearGradient inkscape:collect="always" xlink:href="#linearGradient9158" id="linearGradient8839-2" gradientUnits="userSpaceOnUse" gradientTransform="matrix(1.1665482,0,0,1.1545765,-1043.0007,-286.56471)" x1="1031.269" y1="365.65402" x2="1031.269" y2="380.15897"/>
    <linearGradient id="linearGradient9158">
      <stop style="stop-color:#000000;stop-opacity:0.20394737;" offset="0" id="stop9154"/>
      <stop style="stop-color:#000000;stop-opacity:0;" offset="1" id="stop9156"/>
    </linearGradient>
    <linearGradient inkscape:collect="always" xlink:href="#linearGradient9037" id="linearGradient9139" gradientUnits="userSpaceOnUse" gradientTransform="matrix(2.2252964,0,0,2.2252964,1436.4683,606.64496)" x1="-578.64746" y1="-204.78363" x2="-578.64746" y2="-214.62181"/>
    <linearGradient id="linearGradient9037" inkscape:collect="always">
      <stop id="stop9033" offset="0" style="stop-color:#dce1e8;stop-opacity:1"/>
      <stop id="stop9035" offset="1" style="stop-color:#ffffff;stop-opacity:1"/>
    </linearGradient>
    <linearGradient inkscape:collect="always" xlink:href="#selected_bg_color-4" id="linearGradient9055" gradientUnits="userSpaceOnUse" gradientTransform="matrix(0.89368935,0,0,0.89882962,135.66773,-754.15356)"/>
    <linearGradient id="selected_bg_color-4" osb:paint="solid">
      <stop style="stop-color:#33d351;stop-opacity:1;" offset="0" id="stop5956-1"/>
    </linearGradient>
    <linearGradient inkscape:collect="always" xlink:href="#linearGradient9158" id="linearGradient9057" gradientUnits="userSpaceOnUse" gradientTransform="matrix(1.1665482,0,0,0.92897385,-1044.1175,-161.78384)" x1="1031.269" y1="365.65402" x2="1031.269" y2="380.15897"/>
    <linearGradient inkscape:collect="always" xlink:href="#linearGradient9037" id="linearGradient8841" gradientUnits="userSpaceOnUse" gradientTransform="matrix(1.9920088,0,0,1.9920088,135.67203,147.62388)" x1="17.92" y1="19.84" x2="17.92" y2="11.306667"/>
    <linearGradient inkscape:collect="always" xlink:href="#linearGradient8024" id="linearGradient8010" x1="162.55118" y1="202.92914" x2="162.55118" y2="116" gradientUnits="userSpaceOnUse"/>
    <linearGradient inkscape:collect="always" xlink:href="#linearGradient8067" id="linearGradient8069" x1="160.30061" y1="202.34253" x2="160.42194" y2="115.35233" gradientUnits="userSpaceOnUse"/>
    <linearGradient gradientTransform="translate(-123.99997,-124)" inkscape:collect="always" xlink:href="#linearGradient8106" id="linearGradient8108-3" x1="160" y1="126.11024" x2="160" y2="194.14174" gradientUnits="userSpaceOnUse"/>
    <linearGradient inkscape:collect="always" xlink:href="#linearGradient9037" id="linearGradient33841" gradientUnits="userSpaceOnUse" gradientTransform="matrix(2.2252964,0,0,2.2252964,131.77023,147.33947)" x1="17.92" y1="19.84" x2="17.92" y2="11.306667"/>
    <linearGradient gradientTransform="matrix(0.68884547,0,0,0.68884547,-30.217202,-30.213324)" inkscape:collect="always" xlink:href="#linearGradient8024" id="linearGradient8010-3" x1="162.55118" y1="202.92914" x2="162.55118" y2="116" gradientUnits="userSpaceOnUse"/>
    <linearGradient inkscape:collect="always" xlink:href="#selected_bg_color-4" id="linearGradient9055-2" gradientUnits="userSpaceOnUse" gradientTransform="matrix(0.70887596,0,0,0.71295325,61.343185,-647.94897)"/>
    <linearGradient inkscape:collect="always" xlink:href="#linearGradient9158" id="linearGradient9057-1" gradientUnits="userSpaceOnUse" gradientTransform="matrix(0.92530814,0,0,0.73686371,-874.46461,-178.08027)" x1="1031.269" y1="365.65402" x2="1031.269" y2="380.15897"/>
    <linearGradient inkscape:collect="always" xlink:href="#linearGradient9037" id="linearGradient33841-0" gradientUnits="userSpaceOnUse" gradientTransform="matrix(1.7651089,0,0,1.7651089,58.251688,67.116911)" x1="17.92" y1="19.84" x2="17.92" y2="11.306667"/>
    <linearGradient inkscape:collect="always" xlink:href="#selected_bg_color-black-2" id="linearGradient5867-6" gradientUnits="userSpaceOnUse" gradientTransform="matrix(0.88609498,0,0,0.88609498,201.71872,134.24116)" x1="-49.095852" y1="1041.1797" x2="-9.0958519" y2="1041.1797"/>
    <linearGradient inkscape:collect="always" xlink:href="#linearGradient9158" id="linearGradient8839-2-6" gradientUnits="userSpaceOnUse" gradientTransform="matrix(0.92530814,0,0,0.91581213,-873.57869,-273.0623)" x1="1031.269" y1="365.65402" x2="1031.269" y2="380.15897"/>
    <linearGradient inkscape:collect="always" xlink:href="#linearGradient9037" id="linearGradient9139-2" gradientUnits="userSpaceOnUse" gradientTransform="matrix(1.7651089,0,0,1.7651089,1093.1405,435.4332)" x1="-578.64746" y1="-204.78363" x2="-578.64746" y2="-214.62181"/>
    <linearGradient inkscape:collect="always" xlink:href="#linearGradient9037" id="linearGradient9139-2-6" gradientUnits="userSpaceOnUse" gradientTransform="matrix(1.1791557,0,0,1.1791557,700.88405,260.05192)" x1="-578.64746" y1="-204.78363" x2="-578.64746" y2="-214.62181"/>
    <linearGradient inkscape:collect="always" xlink:href="#linearGradient9158" id="linearGradient8839-2-6-7" gradientUnits="userSpaceOnUse" gradientTransform="matrix(0.61813885,0,0,0.61179518,-612.95454,-213.24836)" x1="1031.269" y1="365.65402" x2="1031.269" y2="380.15897"/>
    <linearGradient inkscape:collect="always" xlink:href="#selected_bg_color-black-2" id="linearGradient5867-6-0" gradientUnits="userSpaceOnUse" gradientTransform="matrix(0.59194306,0,0,0.59194306,105.3825,58.844884)" x1="-49.095852" y1="1041.1797" x2="-9.0958519" y2="1041.1797"/>
    <linearGradient inkscape:collect="always" xlink:href="#linearGradient9037" id="linearGradient33841-0-3" gradientUnits="userSpaceOnUse" gradientTransform="matrix(1.1791557,0,0,1.1791557,9.5414004,16.895052)" x1="17.92" y1="19.84" x2="17.92" y2="11.306667"/>
    <linearGradient inkscape:collect="always" xlink:href="#linearGradient9158" id="linearGradient9057-1-7" gradientUnits="userSpaceOnUse" gradientTransform="matrix(0.61813885,0,0,0.49225125,-613.54637,-146.9054)" x1="1031.269" y1="365.65402" x2="1031.269" y2="380.15897"/>
    <linearGradient inkscape:collect="always" xlink:href="#selected_bg_color-4" id="linearGradient9055-2-5" gradientUnits="userSpaceOnUse" gradientTransform="matrix(0.47355443,0,0,0.47627821,11.60663,-460.79445)"/>
    <linearGradient gradientTransform="matrix(0.5332996,0,0,0.5332996,-61.329426,-61.326426)" inkscape:collect="always" xlink:href="#linearGradient8024" id="linearGradient8010-3-2" x1="162.55118" y1="202.92914" x2="162.55118" y2="116" gradientUnits="userSpaceOnUse"/>
    <linearGradient inkscape:collect="always" xlink:href="#linearGradient9037" id="linearGradient9139-6" gradientUnits="userSpaceOnUse" gradientTransform="matrix(2.6558437,0,0,2.6558437,1796.6932,803.67182)" x1="-578.64746" y1="-204.78363" x2="-578.64746" y2="-214.62181"/>
    <linearGradient inkscape:collect="always" xlink:href="#linearGradient9158" id="linearGradient8839-2-0" gradientUnits="userSpaceOnUse" gradientTransform="matrix(1.3922505,0,0,1.3779624,-1162.5002,-262.35488)" x1="1031.269" y1="365.65402" x2="1031.269" y2="380.15897"/>
    <linearGradient inkscape:collect="always" xlink:href="#selected_bg_color-black-2" id="linearGradient5867-5" gradientUnits="userSpaceOnUse" gradientTransform="matrix(1.333249,0,0,1.333249,455.42926,350.48792)" x1="-49.095852" y1="1041.1797" x2="-9.0958519" y2="1041.1797"/>
    <linearGradient inkscape:collect="always" xlink:href="#linearGradient9037" id="linearGradient33841-4" gradientUnits="userSpaceOnUse" gradientTransform="matrix(2.6558437,0,0,2.6558437,239.56383,255.50051)" x1="17.92" y1="19.84" x2="17.92" y2="11.306667"/>
    <linearGradient inkscape:collect="always" xlink:href="#linearGradient9158" id="linearGradient9057-7" gradientUnits="userSpaceOnUse" gradientTransform="matrix(1.3922505,0,0,1.1087105,-1163.8332,-113.43158)" x1="1031.269" y1="365.65402" x2="1031.269" y2="380.15897"/>
    <linearGradient inkscape:collect="always" xlink:href="#selected_bg_color-4" id="linearGradient9055-6" gradientUnits="userSpaceOnUse" gradientTransform="matrix(1.0665992,0,0,1.072734,244.2154,-820.4122)"/>
    <linearGradient gradientTransform="matrix(1.333249,0,0,1.333249,58.679234,58.681115)" inkscape:collect="always" xlink:href="#linearGradient8024" id="linearGradient8010-6" x1="162.55118" y1="202.92914" x2="162.55118" y2="116" gradientUnits="userSpaceOnUse"/>
    <linearGradient inkscape:collect="always" xlink:href="#linearGradient9037" id="linearGradient9139-2-6-9" gradientUnits="userSpaceOnUse" gradientTransform="matrix(0.79897004,0,0,0.79897004,442.50704,144.34584)" x1="-578.64746" y1="-204.78363" x2="-578.64746" y2="-214.62181"/>
    <linearGradient inkscape:collect="always" xlink:href="#linearGradient9037" id="linearGradient33841-0-3-6" gradientUnits="userSpaceOnUse" gradientTransform="matrix(0.79533722,0,0,0.79533722,-25.858265,-21.322208)" x1="17.92" y1="19.84" x2="17.92" y2="11.306667"/>
    <linearGradient inkscape:collect="always" xlink:href="#selected_bg_color-4" id="linearGradient9055-2-5-9" gradientUnits="userSpaceOnUse" gradientTransform="matrix(0.31941113,0,0,0.32124832,-24.465273,-343.52246)"/>
    <linearGradient gradientTransform="matrix(0.35553307,0,0,0.35553307,-72.886291,-72.884281)" inkscape:collect="always" xlink:href="#linearGradient8024" id="linearGradient8010-3-2-0" x1="162.55118" y1="202.92914" x2="162.55118" y2="116" gradientUnits="userSpaceOnUse"/>
    <linearGradient inkscape:collect="always" xlink:href="#linearGradient9037" id="linearGradient9139-2-6-9-7" gradientUnits="userSpaceOnUse" gradientTransform="matrix(0.59922752,0,0,0.59922752,299.88027,76.259378)" x1="-578.64746" y1="-204.78363" x2="-578.64746" y2="-214.62181"/>
    <linearGradient inkscape:collect="always" xlink:href="#linearGradient9037" id="linearGradient33841-0-3-6-5" gradientUnits="userSpaceOnUse" gradientTransform="matrix(0.59650291,0,0,0.59650291,-51.393699,-47.991657)" x1="17.92" y1="19.84" x2="17.92" y2="11.306667"/>
    <linearGradient inkscape:collect="always" xlink:href="#selected_bg_color-4" id="linearGradient9055-2-5-9-9" gradientUnits="userSpaceOnUse" gradientTransform="matrix(0.23955834,0,0,0.24093624,-50.348955,-289.64187)"/>
    <linearGradient gradientTransform="matrix(0.2666498,0,0,0.2666498,-86.664717,-86.663211)" inkscape:collect="always" xlink:href="#linearGradient8024" id="linearGradient8010-3-2-0-7" x1="162.55118" y1="202.92914" x2="162.55118" y2="116" gradientUnits="userSpaceOnUse"/>
    <linearGradient gradientTransform="matrix(0.193927,0,0,0.193927,-95.028862,-95.027772)" inkscape:collect="always" xlink:href="#linearGradient8024" id="linearGradient8010-3-2-0-7-8" x1="162.55118" y1="202.92914" x2="162.55118" y2="116" gradientUnits="userSpaceOnUse"/>
    <linearGradient inkscape:collect="always" xlink:href="#selected_bg_color-4" id="linearGradient9055-2-5-9-9-0" gradientUnits="userSpaceOnUse" gradientTransform="matrix(0.19448357,0,0,0.19560221,-69.167343,-264.47742)"/>
    <symbol id="icon-search" viewBox="0 0 26 28">
      <title id="title12944">search</title>
      <path d="M18 13c0-3.859-3.141-7-7-7s-7 3.141-7 7 3.141 7 7 7 7-3.141 7-7zM26 26c0 1.094-0.906 2-2 2-0.531 0-1.047-0.219-1.406-0.594l-5.359-5.344c-1.828 1.266-4.016 1.937-6.234 1.937-6.078 0-11-4.922-11-11s4.922-11 11-11 11 4.922 11 11c0 2.219-0.672 4.406-1.937 6.234l5.359 5.359c0.359 0.359 0.578 0.875 0.578 1.406z" id="path12946"/>
    </symbol>
    <symbol id="icon-sliders" viewBox="0 0 24 28">
      <title id="title15089">sliders</title>
      <path d="M5.5 22v2h-5.5v-2h5.5zM11 20c0.547 0 1 0.453 1 1v4c0 0.547-0.453 1-1 1h-4c-0.547 0-1-0.453-1-1v-4c0-0.547 0.453-1 1-1h4zM13.5 14v2h-13.5v-2h13.5zM3.5 6v2h-3.5v-2h3.5zM24 22v2h-11.5v-2h11.5zM9 4c0.547 0 1 0.453 1 1v4c0 0.547-0.453 1-1 1h-4c-0.547 0-1-0.453-1-1v-4c0-0.547 0.453-1 1-1h4zM19 12c0.547 0 1 0.453 1 1v4c0 0.547-0.453 1-1 1h-4c-0.547 0-1-0.453-1-1v-4c0-0.547 0.453-1 1-1h4zM24 14v2h-3.5v-2h3.5zM24 6v2h-13.5v-2h13.5z" id="path15091"/>
    </symbol>
  </defs>
  <sodipodi:namedview pagecolor="#383c4a" bordercolor="#ffffff" borderopacity="0.62745098" objecttolerance="4" gridtolerance="10" guidetolerance="4" inkscape:pageopacity="0" inkscape:pageshadow="2" inkscape:window-width="640" inkscape:window-height="480" id="namedview20" showgrid="true" inkscape:zoom="1.4789492" inkscape:cx="185.69572" inkscape:cy="-120.06035" inkscape:current-layer="layer12" inkscape:snap-smooth-nodes="true" showguides="true" borderlayer="true" inkscape:showpageshadow="false" inkscape:guide-bbox="true" guidecolor="#bd4fff" guideopacity="0.78431373" inkscape:snap-nodes="true" inkscape:lockguides="false" fit-margin-top="0" fit-margin-left="0" fit-margin-right="0" fit-margin-bottom="0" guidehicolor="#ff0101" guidehiopacity="0.78431373" inkscape:snap-page="true" inkscape:object-nodes="true" inkscape:snap-bbox="true" inkscape:snap-global="true" inkscape:snap-object-midpoints="false" inkscape:snap-bbox-edge-midpoints="false">
    <inkscape:grid type="xygrid" id="grid4171" empspacing="4" dotted="false" originx="2.7755576e-17" originy="0" spacingx="1" spacingy="1" color="#5a5a5a" opacity="0.23529412" empcolor="#5a5a5a" empopacity="0.47058824" visible="true"/>
    <inkscape:grid type="axonomgrid" id="grid4699" units="mm" empspacing="4" color="#5a5a5a" opacity="0.23529412" empcolor="#5a5a5a" empopacity="0.47058824" gridanglex="45" gridanglez="45" spacingy="3.7795276" visible="false" originx="1.3228346" originy="1.3228346"/>
    <sodipodi:guide position="48,0" orientation="1,0" id="guide4568" inkscape:locked="false" inkscape:label="" inkscape:color="rgb(189,79,255)"/>
    <sodipodi:guide position="111.99996,-3.9999999e-05" orientation="0,1" id="guide4570" inkscape:locked="false" inkscape:label="" inkscape:color="rgb(189,79,255)"/>
    <sodipodi:guide position="0,0" orientation="1,0" id="guide4572" inkscape:locked="false" inkscape:label="" inkscape:color="rgb(189,79,255)"/>
    <sodipodi:guide position="0,48" orientation="0,1" id="guide4574" inkscape:locked="false" inkscape:label="" inkscape:color="rgb(189,79,255)"/>
    <sodipodi:guide position="0,80" orientation="0,1" id="guide4576" inkscape:locked="false" inkscape:label="" inkscape:color="rgb(189,79,255)"/>
    <sodipodi:guide position="-32,48" orientation="1,0" id="guide4578" inkscape:locked="false" inkscape:label="" inkscape:color="rgb(189,79,255)"/>
    <sodipodi:guide position="-32,104" orientation="0,1" id="guide4580" inkscape:locked="false" inkscape:label="" inkscape:color="rgb(189,79,255)"/>
    <sodipodi:guide position="-56,80" orientation="1,0" id="guide4582" inkscape:locked="false" inkscape:label="" inkscape:color="rgb(189,79,255)"/>
    <sodipodi:guide position="48,-64" orientation="0,1" id="guide4584" inkscape:locked="false" inkscape:label="" inkscape:color="rgb(189,79,255)"/>
    <sodipodi:guide position="0,0" orientation="-0.70710678,0.70710678" id="guide4588" inkscape:locked="false" inkscape:label="" inkscape:color="rgb(189,79,255)"/>
    <sodipodi:guide position="-56,80" orientation="-0.70710678,0.70710678" id="guide4573" inkscape:locked="false" inkscape:label="" inkscape:color="rgb(189,79,255)"/>
    <sodipodi:guide position="-32,48" orientation="-0.70710678,0.70710678" id="guide4575" inkscape:locked="false" inkscape:label="" inkscape:color="rgb(189,79,255)"/>
    <sodipodi:guide position="48,-64" orientation="-0.70710678,0.70710678" id="guide4577" inkscape:locked="false" inkscape:label="" inkscape:color="rgb(189,79,255)"/>
    <sodipodi:guide position="47.999962,0" orientation="0.70710678,0.70710678" id="guide4697" inkscape:locked="false" inkscape:label="" inkscape:color="rgb(189,79,255)"/>
    <sodipodi:guide position="207.99995,-288" orientation="0,1" id="guide7833" inkscape:locked="false"/>
    <sodipodi:guide position="335.99994,-288" orientation="1,0" id="guide7835" inkscape:locked="false" inkscape:label="" inkscape:color="rgb(189,79,255)"/>
    <sodipodi:guide position="111.99996,-64" orientation="1,0" id="guide7915" inkscape:locked="false"/>
    <sodipodi:guide position="111.99996,-160" orientation="0,1" id="guide7917" inkscape:locked="false"/>
    <sodipodi:guide position="207.99996,-160" orientation="1,0" id="guide7919" inkscape:locked="false"/>
    <sodipodi:guide position="111.99996,-160" orientation="-0.70710678,0.70710678" id="guide7921" inkscape:locked="false" inkscape:label="" inkscape:color="rgb(189,79,255)"/>
    <sodipodi:guide position="207.99996,-288" orientation="-0.70710678,0.70710678" id="guide7923" inkscape:locked="false" inkscape:label="" inkscape:color="rgb(189,79,255)"/>
    <sodipodi:guide position="-72,104" orientation="1,0" id="guide7824" inkscape:locked="false"/>
    <sodipodi:guide position="-56,120" orientation="0,1" id="guide7826" inkscape:locked="false"/>
    <sodipodi:guide position="-72,104" orientation="-0.70710678,0.70710678" id="guide7828" inkscape:locked="false" inkscape:label="" inkscape:color="rgb(189,79,255)"/>
  </sodipodi:namedview>
  <g style="display:inline" inkscape:label="icon_96" id="g8840" inkscape:groupmode="layer" transform="translate(-111.99996,-112)">
    <g style="display:none" inkscape:label="frame" id="g8776" inkscape:groupmode="layer">
      <rect style="color:#000000;clip-rule:nonzero;display:inline;overflow:visible;visibility:visible;opacity:1;isolation:auto;mix-blend-mode:normal;color-interpolation:sRGB;color-interpolation-filters:linearRGB;solid-color:#000000;solid-opacity:1;vector-effect:none;fill:#000000;fill-opacity:1;fill-rule:nonzero;stroke:#ff24f7;stroke-width:0;stroke-linecap:square;stroke-linejoin:miter;stroke-miterlimit:4;stroke-dasharray:none;stroke-dashoffset:0;stroke-opacity:0.99481865;marker:none;marker-start:none;marker-mid:none;marker-end:none;paint-order:normal;color-rendering:auto;image-rendering:auto;shape-rendering:auto;text-rendering:auto;enable-background:accumulate" id="rect_96" width="96" height="96" x="111.99996" y="112" inkscape:label="frame_96"/>
      <text inkscape:label="txt_96" id="text_96" y="168.73633" x="144.72458" style="font-size:24px;line-height:0%;font-family:sans-serif;letter-spacing:0px;word-spacing:0px;display:inline;opacity:1;fill:#ffffff;fill-opacity:1;stroke:none;stroke-width:0.04917826px;stroke-linecap:butt;stroke-linejoin:miter;stroke-opacity:1" xml:space="preserve">
        <tspan id="tspan8768" style="font-size:24px;line-height:0%;fill:#ffffff;fill-opacity:1;stroke:none;stroke-width:0.04917826px" y="168.73633" x="144.72458" sodipodi:role="line">96</tspan>
      </text>
    </g>
    <g style="display:inline" inkscape:label="icon" id="g8838" inkscape:groupmode="layer">
      <path sodipodi:nodetypes="ccccccccc" inkscape:connector-curvature="0" id="path8074" d="m 126.68503,119 h 66.62987 c 4.25753,0 7.85312,3.43086 7.68507,7.68507 v 66.62986 C 200.99996,197.57246 197.57243,201 193.3149,201 h -66.62987 c -4.25753,0 -7.68508,-3.42754 -7.68507,-7.68507 v -66.62986 c -1e-5,-4.25753 3.43088,-7.85361 7.68507,-7.68507 z" style="color:#000000;clip-rule:nonzero;display:inline;overflow:visible;visibility:visible;opacity:1;isolation:auto;mix-blend-mode:normal;color-interpolation:sRGB;color-interpolation-filters:linearRGB;solid-color:#000000;solid-opacity:1;vector-effect:none;fill:#000000;fill-opacity:0.15104167;fill-rule:nonzero;stroke:none;stroke-width:1;stroke-linecap:butt;stroke-linejoin:miter;stroke-miterlimit:4;stroke-dasharray:none;stroke-dashoffset:0;stroke-opacity:0.45833333;marker:none;marker-start:none;marker-mid:none;marker-end:none;paint-order:fill markers stroke;color-rendering:auto;image-rendering:auto;shape-rendering:auto;text-rendering:auto;enable-background:accumulate" inkscape:label="base sombra"/>
      <path style="color:#000000;clip-rule:nonzero;display:inline;overflow:visible;visibility:visible;opacity:1;isolation:auto;mix-blend-mode:normal;color-interpolation:sRGB;color-interpolation-filters:linearRGB;solid-color:#000000;solid-opacity:1;vector-effect:none;fill:url(#linearGradient8010);fill-opacity:1;fill-rule:nonzero;stroke:none;stroke-width:1;stroke-linecap:butt;stroke-linejoin:miter;stroke-miterlimit:4;stroke-dasharray:none;stroke-dashoffset:0;stroke-opacity:0.45833333;marker:none;marker-start:none;marker-mid:none;marker-end:none;paint-order:fill markers stroke;color-rendering:auto;image-rendering:auto;shape-rendering:auto;text-rendering:auto;enable-background:accumulate" d="m 127.68503,120 h 64.62987 c 4.25753,0 7.68507,3.42754 7.68507,7.68507 v 64.62986 C 199.99996,196.57246 196.57243,200 192.3149,200 h -64.62987 c -4.25753,0 -7.68507,-3.42754 -7.68507,-7.68507 V 127.68507 C 119.99995,123.42754 123.4275,120 127.68503,120 Z" id="rect8071" inkscape:connector-curvature="0" sodipodi:nodetypes="ccccccccc" inkscape:label="base"/>
      <path style="color:#000000;clip-rule:nonzero;display:inline;overflow:visible;visibility:visible;opacity:1;isolation:auto;mix-blend-mode:normal;color-interpolation:sRGB;color-interpolation-filters:linearRGB;solid-color:#000000;solid-opacity:1;vector-effect:none;fill:#ffffff;fill-opacity:0.54166667;fill-rule:nonzero;stroke:none;stroke-width:1;stroke-linecap:butt;stroke-linejoin:miter;stroke-miterlimit:4;stroke-dasharray:none;stroke-dashoffset:0;stroke-opacity:0.45833333;marker:none;marker-start:none;marker-mid:none;marker-end:none;paint-order:fill markers stroke;color-rendering:auto;image-rendering:auto;shape-rendering:auto;text-rendering:auto;enable-background:accumulate" d="m 120,191.31445 v 1 c 0,0 3.43316,7.47643 7.68555,7.68555 h 20.3343 12.04314 H 172 192.31445 C 196.57198,200 200,196.57198 200,192.31445 v -1 c 0,4.25753 -3.43317,7.47622 -7.68555,7.68555 H 172 160.06299 148.01985 127.68555 C 123.42802,199 120,195.57198 120,191.31445 Z" id="rect8026" inkscape:connector-curvature="0" sodipodi:nodetypes="csscccsscscccsc" inkscape:label="base brillo inferior"/>
      <path style="display:inline;opacity:1;vector-effect:none;fill:#ffffff;fill-opacity:0.36458333;fill-rule:nonzero;stroke:none;stroke-width:1.25667632;stroke-linecap:butt;stroke-linejoin:miter;stroke-miterlimit:4;stroke-dasharray:none;stroke-dashoffset:0;stroke-opacity:1" d="m 145.50631,172.30713 h 29.47256 c 5.10244,0 9.21016,4.24789 9.21016,9.52441 0,5.27656 -4.10772,9.52444 -9.21016,9.52444 h -29.47256 c -5.10245,0 -9.21018,-4.24788 -9.21018,-9.52444 0,-5.27652 4.10773,-9.52441 9.21018,-9.52441 z" id="path8212" inkscape:connector-curvature="0" sodipodi:nodetypes="sssssss"/>
      <path style="display:inline;opacity:1;fill:url(#linearGradient9055);fill-opacity:1;fill-rule:nonzero;stroke:none;stroke-width:1.00836658" d="m 146.05649,173.45321 h 26.81069 c 4.6416,0 8.37833,3.73673 8.37833,8.37832 0,4.64161 -3.73673,8.37835 -8.37833,8.37835 h -26.81069 c -4.64159,0 -8.37833,-3.73674 -8.37833,-8.37835 0,-4.64159 3.73674,-8.37832 8.37833,-8.37832 z" id="rect9025" inkscape:connector-curvature="0" sodipodi:nodetypes="sssssss"/>
      <path inkscape:label="base sombra" inkscape:connector-curvature="0" id="path9027" d="m 146,173.46864 c -4.58462,0 -8.29109,3.70644 -8.29109,8.29108 v 0.12871 c 0,4.58464 3.70647,8.29326 8.29109,8.29326 h 26.97657 c 4.58463,0 8.29098,-3.70862 8.29098,-8.29326 v -0.12871 c 0,-4.58464 -3.70635,-8.29108 -8.29098,-8.29108 z m 0,1.11712 h 26.97657 c 3.98508,0 7.17387,3.18888 7.17387,7.17396 v 0.12871 c 0,3.98508 -3.18879,7.17614 -7.17387,7.17614 H 146 c -3.98507,0 -7.17398,-3.19106 -7.17398,-7.17614 v -0.12871 c 0,-3.98508 3.18891,-7.17396 7.17398,-7.17396 z" style="color:#000000;font-style:normal;font-variant:normal;font-weight:normal;font-stretch:normal;font-size:medium;line-height:normal;font-family:sans-serif;font-variant-ligatures:normal;font-variant-position:normal;font-variant-caps:normal;font-variant-numeric:normal;font-variant-alternates:normal;font-feature-settings:normal;text-indent:0;text-align:start;text-decoration:none;text-decoration-line:none;text-decoration-style:solid;text-decoration-color:#000000;letter-spacing:normal;word-spacing:normal;text-transform:none;writing-mode:lr-tb;direction:ltr;text-orientation:mixed;dominant-baseline:auto;baseline-shift:baseline;text-anchor:start;white-space:normal;shape-padding:0;clip-rule:nonzero;display:inline;overflow:visible;visibility:visible;opacity:1;isolation:auto;mix-blend-mode:normal;color-interpolation:sRGB;color-interpolation-filters:linearRGB;solid-color:#000000;solid-opacity:1;vector-effect:none;fill:url(#linearGradient9057);fill-opacity:1;fill-rule:nonzero;stroke:none;stroke-width:1.00204432;stroke-linecap:butt;stroke-linejoin:miter;stroke-miterlimit:4;stroke-dasharray:none;stroke-dashoffset:0;stroke-opacity:1;paint-order:normal;color-rendering:auto;image-rendering:auto;shape-rendering:auto;text-rendering:auto;enable-background:accumulate" sodipodi:nodetypes="ssssssssssssssssss"/>
      <path inkscape:connector-curvature="0" id="path8208" d="m 144.79276,130.97401 h 29.65005 c 5.13314,0 9.26561,4.24787 9.26561,9.52441 0,5.27653 -4.13247,9.52444 -9.26561,9.52444 h -29.65005 c -5.13314,0 -9.2656,-4.24791 -9.2656,-9.52444 0,-5.27654 4.13246,-9.52441 9.2656,-9.52441 z" style="display:inline;opacity:1;vector-effect:none;fill:#ffffff;fill-opacity:0.58333333;fill-rule:nonzero;stroke:none;stroke-width:1.26045406;stroke-linecap:butt;stroke-linejoin:miter;stroke-miterlimit:4;stroke-dasharray:none;stroke-dashoffset:0;stroke-opacity:1" sodipodi:nodetypes="sssssss"/>
      <path style="display:inline;opacity:1;vector-effect:none;fill:url(#linearGradient5867);fill-opacity:1;fill-rule:nonzero;stroke:none;stroke-width:1.12415969;stroke-linecap:butt;stroke-linejoin:miter;stroke-miterlimit:4;stroke-dasharray:none;stroke-dashoffset:0;stroke-opacity:1" d="m 147.17367,132.1201 h 26.8107 c 4.64158,0 8.37833,3.73672 8.37833,8.37832 0,4.6416 -3.73675,8.37834 -8.37833,8.37834 h -26.8107 c -4.64159,0 -8.37833,-3.73674 -8.37833,-8.37834 0,-4.6416 3.73674,-8.37832 8.37833,-8.37832 z" id="rect9025-2" inkscape:connector-curvature="0" sodipodi:nodetypes="sssssss"/>
      <path inkscape:label="base sombra" inkscape:connector-curvature="0" id="path9027-3" d="m 147.11713,132.13551 c -4.58464,0 -8.2911,3.70643 -8.2911,8.29108 v 0.12872 c 0,4.58461 3.70646,8.29325 8.2911,8.29325 h 26.97657 c 4.58463,0 8.29098,-3.70864 8.29098,-8.29325 v -0.12872 c 0,-4.58465 -3.70635,-8.29108 -8.29098,-8.29108 z m 0,1.11712 h 26.97657 c 3.98508,0 7.17386,3.18888 7.17386,7.17396 v 0.12872 c 0,3.98507 -3.18878,7.17614 -7.17386,7.17614 h -26.97657 c -3.98507,0 -7.17398,-3.19107 -7.17398,-7.17614 v -0.12872 c 0,-3.98508 3.18891,-7.17396 7.17398,-7.17396 z" style="color:#000000;font-style:normal;font-variant:normal;font-weight:normal;font-stretch:normal;font-size:medium;line-height:normal;font-family:sans-serif;font-variant-ligatures:normal;font-variant-position:normal;font-variant-caps:normal;font-variant-numeric:normal;font-variant-alternates:normal;font-feature-settings:normal;text-indent:0;text-align:start;text-decoration:none;text-decoration-line:none;text-decoration-style:solid;text-decoration-color:#000000;letter-spacing:normal;word-spacing:normal;text-transform:none;writing-mode:lr-tb;direction:ltr;text-orientation:mixed;dominant-baseline:auto;baseline-shift:baseline;text-anchor:start;white-space:normal;shape-padding:0;clip-rule:nonzero;display:inline;overflow:visible;visibility:visible;opacity:1;isolation:auto;mix-blend-mode:normal;color-interpolation:sRGB;color-interpolation-filters:linearRGB;solid-color:#000000;solid-opacity:1;vector-effect:none;fill:url(#linearGradient8839-2);fill-opacity:1;fill-rule:nonzero;stroke:none;stroke-width:1.1171118;stroke-linecap:butt;stroke-linejoin:miter;stroke-miterlimit:4;stroke-dasharray:none;stroke-dashoffset:0;stroke-opacity:1;paint-order:normal;color-rendering:auto;image-rendering:auto;shape-rendering:auto;text-rendering:auto;enable-background:accumulate" sodipodi:nodetypes="ssssssssssssssssss"/>
      <path style="color:#000000;clip-rule:nonzero;display:inline;overflow:visible;visibility:visible;opacity:1;isolation:auto;mix-blend-mode:normal;color-interpolation:sRGB;color-interpolation-filters:linearRGB;solid-color:#000000;solid-opacity:1;vector-effect:none;fill:#000000;fill-opacity:0.1875;fill-rule:nonzero;stroke:none;stroke-width:0.57726997;stroke-linecap:butt;stroke-linejoin:miter;stroke-miterlimit:4;stroke-dasharray:none;stroke-dashoffset:0;stroke-opacity:0.19791667;marker:none;marker-start:none;marker-mid:none;marker-end:none;paint-order:fill markers stroke;color-rendering:auto;image-rendering:auto;shape-rendering:auto;text-rendering:auto;enable-background:accumulate" d="m 126,124 c -1.10457,0 -2,0.89543 -2,2 0,1.10457 0.89543,2 2,2 1.10457,0 2,-0.89543 2,-2 0,-1.10457 -0.89543,-2 -2,-2 z m 68,0 c -1.10457,0 -2,0.89543 -2,2 0,1.10457 0.89543,2 2,2 1.10457,0 2,-0.89543 2,-2 0,-1.10457 -0.89543,-2 -2,-2 z m -68,68 c -1.10457,0 -2,0.89543 -2,2 0,1.10457 0.89543,2 2,2 1.10457,0 2,-0.89543 2,-2 0,-1.10457 -0.89543,-2 -2,-2 z m 68,0 c -1.10457,0 -2,0.89543 -2,2 0,1.10457 0.89543,2 2,2 1.10457,0 2,-0.89543 2,-2 0,-1.10457 -0.89543,-2 -2,-2 z" id="path8076" inkscape:connector-curvature="0" sodipodi:nodetypes="ssssssssssssssssssss"/>
      <path style="color:#000000;clip-rule:nonzero;display:inline;overflow:visible;visibility:visible;opacity:1;isolation:auto;mix-blend-mode:normal;color-interpolation:sRGB;color-interpolation-filters:linearRGB;solid-color:#000000;solid-opacity:1;vector-effect:none;fill:#000000;fill-opacity:0.31770833;fill-rule:nonzero;stroke:none;stroke-width:0.57726997;stroke-linecap:butt;stroke-linejoin:miter;stroke-miterlimit:4;stroke-dasharray:none;stroke-dashoffset:0;stroke-opacity:0.19791667;marker:none;marker-start:none;marker-mid:none;marker-end:none;paint-order:fill markers stroke;color-rendering:auto;image-rendering:auto;shape-rendering:auto;text-rendering:auto;enable-background:accumulate" d="m 127.98633,194.22552 c -0.10685,-1.01703 -0.9637,-1.78963 -1.98633,-1.79102 -1.0166,4e-4 -1.87117,0.76338 -1.98633,1.77344 -0.008,-0.0687 -0.0127,-0.13783 -0.0137,-0.20703 0,-1.10457 0.89543,-2 2,-2 1.10457,0 2,0.89543 2,2 -3.5e-4,0.0751 -0.005,0.15006 -0.0137,0.22461 z m 68,0 c -0.10685,-1.01703 -0.9637,-1.78963 -1.98633,-1.79102 -1.0166,4e-4 -1.87117,0.76338 -1.98633,1.77344 -0.008,-0.0687 -0.0127,-0.13783 -0.0137,-0.20703 0,-1.10457 0.89543,-2 2,-2 1.10457,0 2,0.89543 2,2 -3.5e-4,0.0751 -0.005,0.15006 -0.0137,0.22461 z m -68,-68 c -0.10685,-1.01703 -0.9637,-1.78963 -1.98633,-1.79102 -1.0166,4e-4 -1.87117,0.76338 -1.98633,1.77344 -0.008,-0.0687 -0.0127,-0.13783 -0.0137,-0.20703 0,-1.10457 0.89543,-2 2,-2 1.10457,0 2,0.89543 2,2 -3.5e-4,0.0751 -0.005,0.15006 -0.0137,0.22461 z m 68,0 c -0.10685,-1.01703 -0.9637,-1.78963 -1.98633,-1.79102 -1.0166,4e-4 -1.87117,0.76338 -1.98633,1.77344 -0.008,-0.0687 -0.0127,-0.13783 -0.0137,-0.20703 0,-1.10457 0.89543,-2 2,-2 1.10457,0 2,0.89543 2,2 -3.5e-4,0.0751 -0.005,0.15006 -0.0137,0.22461 z" id="path8095" inkscape:connector-curvature="0" sodipodi:nodetypes="ccccscccccccscccccccscccccccsccc"/>
      <path inkscape:connector-curvature="0" id="path8220" d="m 127.98633,126.18061 c -0.10685,1.01703 -0.9637,1.78963 -1.98633,1.79102 -1.0166,-4e-4 -1.87117,-0.76338 -1.98633,-1.77344 -0.008,0.0687 -0.0127,0.13783 -0.0137,0.20703 0,1.10457 0.89543,2 2,2 1.10457,0 2,-0.89543 2,-2 -3.5e-4,-0.0751 -0.005,-0.15006 -0.0137,-0.22461 z m 68,0 c -0.10685,1.01703 -0.9637,1.78963 -1.98633,1.79102 -1.0166,-4e-4 -1.87117,-0.76338 -1.98633,-1.77344 -0.008,0.0687 -0.0127,0.13783 -0.0137,0.20703 0,1.10457 0.89543,2 2,2 1.10457,0 2,-0.89543 2,-2 -3.5e-4,-0.0751 -0.005,-0.15006 -0.0137,-0.22461 z m -68,68 c -0.10685,1.01703 -0.9637,1.78963 -1.98633,1.79102 -1.0166,-4e-4 -1.87117,-0.76338 -1.98633,-1.77344 -0.008,0.0687 -0.0127,0.13783 -0.0137,0.20703 0,1.10457 0.89543,2 2,2 1.10457,0 2,-0.89543 2,-2 -3.5e-4,-0.0751 -0.005,-0.15006 -0.0137,-0.22461 z m 68,0 c -0.10685,1.01703 -0.9637,1.78963 -1.98633,1.79102 -1.0166,-4e-4 -1.87117,-0.76338 -1.98633,-1.77344 -0.008,0.0687 -0.0127,0.13783 -0.0137,0.20703 0,1.10457 0.89543,2 2,2 1.10457,0 2,-0.89543 2,-2 -3.5e-4,-0.0751 -0.005,-0.15006 -0.0137,-0.22461 z" style="color:#000000;clip-rule:nonzero;display:inline;overflow:visible;visibility:visible;opacity:1;isolation:auto;mix-blend-mode:normal;color-interpolation:sRGB;color-interpolation-filters:linearRGB;solid-color:#000000;solid-opacity:1;vector-effect:none;fill:#ffffff;fill-opacity:0.921875;fill-rule:nonzero;stroke:none;stroke-width:0.57726997;stroke-linecap:butt;stroke-linejoin:miter;stroke-miterlimit:4;stroke-dasharray:none;stroke-dashoffset:0;stroke-opacity:0.19791667;marker:none;marker-start:none;marker-mid:none;marker-end:none;paint-order:fill markers stroke;color-rendering:auto;image-rendering:auto;shape-rendering:auto;text-rendering:auto;enable-background:accumulate" sodipodi:nodetypes="ccccscccccccscccccccscccccccsccc"/>
      <path style="color:#000000;clip-rule:nonzero;display:block;overflow:visible;visibility:visible;opacity:1;isolation:auto;mix-blend-mode:normal;color-interpolation:sRGB;color-interpolation-filters:linearRGB;solid-color:#000000;solid-opacity:1;vector-effect:none;fill:#000000;fill-opacity:0.11458333;fill-rule:nonzero;stroke:none;stroke-width:0.82355034;stroke-linecap:butt;stroke-linejoin:miter;stroke-miterlimit:4;stroke-dasharray:none;stroke-dashoffset:0;stroke-opacity:0.59375;marker:none;marker-start:none;marker-mid:none;marker-end:none;paint-order:fill markers stroke;color-rendering:auto;image-rendering:auto;shape-rendering:auto;text-rendering:auto;enable-background:accumulate" d="m 120,160 h 80 v 1 h -80 z" id="rect8273" inkscape:connector-curvature="0" sodipodi:nodetypes="ccccc"/>
      <path style="color:#000000;clip-rule:nonzero;display:block;overflow:visible;visibility:visible;opacity:1;isolation:auto;mix-blend-mode:normal;color-interpolation:sRGB;color-interpolation-filters:linearRGB;solid-color:#000000;solid-opacity:1;vector-effect:none;fill:#ffffff;fill-opacity:0.72395833;fill-rule:nonzero;stroke:none;stroke-width:0.82355034;stroke-linecap:butt;stroke-linejoin:miter;stroke-miterlimit:4;stroke-dasharray:none;stroke-dashoffset:0;stroke-opacity:0.59375;marker:none;marker-start:none;marker-mid:none;marker-end:none;paint-order:fill markers stroke;color-rendering:auto;image-rendering:auto;shape-rendering:auto;text-rendering:auto;enable-background:accumulate" d="m 120,161 h 80 v 1 h -80 z" id="rect8275" inkscape:connector-curvature="0" sodipodi:nodetypes="ccccc"/>
      <circle style="display:inline;opacity:1;fill:#000000;fill-opacity:0.15686275;stroke:none;stroke-width:0.53562915;stroke-linejoin:miter;stroke-miterlimit:4.5999999;stroke-dasharray:none;stroke-opacity:0.19696972" id="circle4554-2-3-27" cx="171.75006" cy="182.94867" inkscape:label="circulo sombra" r="12.846785"/>
      <circle r="11.729672" cy="181.83156" cx="171.75006" id="path4221-7-5-9-8-0" style="display:inline;opacity:1;fill:url(#linearGradient33841);fill-opacity:1;stroke:none;stroke-width:0.46521559;stroke-linejoin:miter;stroke-miterlimit:4.5999999;stroke-dasharray:none;stroke-opacity:1" inkscape:label="circulo"/>
      <circle inkscape:label="circulo brillo" style="display:inline;opacity:1;fill:none;fill-opacity:1;stroke:#ffffff;stroke-width:1.06633329;stroke-linejoin:miter;stroke-miterlimit:4.5999999;stroke-dasharray:none;stroke-opacity:0.23706898" id="circle8782-9" cx="171.75006" cy="181.83156" r="11.196501"/>
      <circle transform="scale(-1,1)" inkscape:label="circulo sombra" r="12.846785" cy="141.61552" cx="-148.29094" id="circle4554-2-3-4-0" style="display:inline;opacity:1;fill:#000000;fill-opacity:0.15686275;stroke:none;stroke-width:0.53562915;stroke-linejoin:miter;stroke-miterlimit:4.5999999;stroke-dasharray:none;stroke-opacity:0.19696972"/>
      <circle r="11.729672" cy="140.49843" cx="148.29079" id="path4221-7-5-9-8-0-1" style="display:inline;opacity:1;vector-effect:none;fill:url(#linearGradient9139);fill-opacity:1;stroke:none;stroke-width:0.46521559;stroke-linecap:butt;stroke-linejoin:miter;stroke-miterlimit:4.5999999;stroke-dasharray:none;stroke-dashoffset:0;stroke-opacity:1" inkscape:label="circulo"/>
      <circle inkscape:label="circulo brillo" style="display:inline;opacity:1;fill:none;fill-opacity:1;stroke:#ffffff;stroke-width:1.06633329;stroke-linejoin:miter;stroke-miterlimit:4.5999999;stroke-dasharray:none;stroke-opacity:0.23706898" id="circle8782-9-3" cx="148.29079" cy="140.49843" r="11.196501"/>
    </g>
  </g>
</svg>