<?xml version="1.0" encoding="UTF-8" standalone="yes"?>
<svg xmlns:dc="http://purl.org/dc/elements/1.1/" xmlns:cc="http://creativecommons.org/ns#" xmlns:rdf="http://www.w3.org/1999/02/22-rdf-syntax-ns#" xmlns:svg="http://www.w3.org/2000/svg" xmlns="http://www.w3.org/2000/svg" xmlns:xlink="http://www.w3.org/1999/xlink" xmlns:sodipodi="http://sodipodi.sourceforge.net/DTD/sodipodi-0.dtd" xmlns:inkscape="http://www.inkscape.org/namespaces/inkscape" height="96" viewBox="0 0 96 96" width="96" id="svg2" version="1.1" inkscape:version="0.92.1 r" sodipodi:docname="stremio.svg" enable-background="new" folder="96">
  <title id="title4675">Template icons dark</title>
  <metadata id="metadata24">
    <rdf:RDF>
      <cc:Work rdf:about="">
        <dc:format>image/svg+xml</dc:format>
        <dc:type rdf:resource="http://purl.org/dc/dcmitype/StillImage"/>
        <dc:title>Template icons dark</dc:title>
        <dc:date>17/05/13</dc:date>
        <dc:creator>
          <cc:Agent>
            <dc:title>wfpaisa</dc:title>
          </cc:Agent>
        </dc:creator>
        <dc:rights>
          <cc:Agent>
            <dc:title>License: GPLv3</dc:title>
          </cc:Agent>
        </dc:rights>
        <dc:language>es-en</dc:language>
        <dc:subject>
          <rdf:Bag>
            <rdf:li>plane-icon-theme</rdf:li>
          </rdf:Bag>
        </dc:subject>
        <dc:description>Template for create set icons</dc:description>
        <cc:license rdf:resource="https://www.gnu.org/licenses/gpl-3.0.en.html"/>
      </cc:Work>
    </rdf:RDF>
  </metadata>
  <defs id="defs22">
    <filter inkscape:collect="always" style="color-interpolation-filters:sRGB" id="filter5626-3" x="-0.43919998" width="1.8784" y="-0.16969091" height="1.3393818">
      <feGaussianBlur inkscape:collect="always" stdDeviation="0.23464632" id="feGaussianBlur5628-6"/>
    </filter>
    <filter inkscape:collect="always" style="color-interpolation-filters:sRGB" id="filter5626" x="-0.43919998" width="1.8784" y="-0.16969091" height="1.3393818">
      <feGaussianBlur inkscape:collect="always" stdDeviation="0.23464632" id="feGaussianBlur5628"/>
    </filter>
    <filter inkscape:collect="always" style="color-interpolation-filters:sRGB" id="filter5626-3-3" x="-0.43919998" width="1.8784" y="-0.16969091" height="1.3393818">
      <feGaussianBlur inkscape:collect="always" stdDeviation="0.23464632" id="feGaussianBlur5628-6-6"/>
    </filter>
    <filter inkscape:collect="always" style="color-interpolation-filters:sRGB" id="filter5626-7" x="-0.43919998" width="1.8784" y="-0.16969091" height="1.3393818">
      <feGaussianBlur inkscape:collect="always" stdDeviation="0.23464632" id="feGaussianBlur5628-5"/>
    </filter>
    <filter inkscape:collect="always" style="color-interpolation-filters:sRGB" id="filter5626-3-9" x="-0.43919998" width="1.8784" y="-0.16969091" height="1.3393818">
      <feGaussianBlur inkscape:collect="always" stdDeviation="0.23464632" id="feGaussianBlur5628-6-2"/>
    </filter>
    <filter inkscape:collect="always" style="color-interpolation-filters:sRGB" id="filter5626-2" x="-0.43919998" width="1.8784" y="-0.16969091" height="1.3393818">
      <feGaussianBlur inkscape:collect="always" stdDeviation="0.23464632" id="feGaussianBlur5628-8"/>
    </filter>
    <filter inkscape:collect="always" style="color-interpolation-filters:sRGB" id="filter5626-3-4" x="-0.43919998" width="1.8784" y="-0.16969091" height="1.3393818">
      <feGaussianBlur inkscape:collect="always" stdDeviation="0.23464632" id="feGaussianBlur5628-6-7"/>
    </filter>
    <filter inkscape:collect="always" style="color-interpolation-filters:sRGB" id="filter5626-6" x="-0.43919998" width="1.8784" y="-0.16969091" height="1.3393818">
      <feGaussianBlur inkscape:collect="always" stdDeviation="0.23464632" id="feGaussianBlur5628-56"/>
    </filter>
    <filter inkscape:collect="always" style="color-interpolation-filters:sRGB" id="filter5626-3-6" x="-0.43919998" width="1.8784" y="-0.16969091" height="1.3393818">
      <feGaussianBlur inkscape:collect="always" stdDeviation="0.23464632" id="feGaussianBlur5628-6-4"/>
    </filter>
    <filter inkscape:collect="always" style="color-interpolation-filters:sRGB" id="filter5626-9" x="-0.43919998" width="1.8784" y="-0.16969091" height="1.3393818">
      <feGaussianBlur inkscape:collect="always" stdDeviation="0.23464632" id="feGaussianBlur5628-50"/>
    </filter>
    <linearGradient inkscape:collect="always" xlink:href="#linearGradient4597" id="linearGradient4590" gradientUnits="userSpaceOnUse" x1="14.053745" y1="22.892584" x2="-10.69499" y2="47.641319" gradientTransform="matrix(1.8282854,-1.8282854,1.8282854,1.8282854,94.383245,98.274761)"/>
    <linearGradient id="linearGradient4597" inkscape:collect="always">
      <stop id="stop4593" offset="0" style="stop-color:#36549f;stop-opacity:1"/>
      <stop id="stop4595" offset="1" style="stop-color:#1b2b5e;stop-opacity:1"/>
    </linearGradient>
    <linearGradient inkscape:collect="always" xlink:href="#linearGradient4584" id="linearGradient4586" x1="13.78858" y1="22.097086" x2="-11.402099" y2="47.287766" gradientUnits="userSpaceOnUse" gradientTransform="matrix(2.5855864,0,0,2.5855864,-2.7517081,136.2298)"/>
    <linearGradient inkscape:collect="always" id="linearGradient4584">
      <stop style="stop-color:#915faf;stop-opacity:1" offset="0" id="stop4580"/>
      <stop style="stop-color:#492f75;stop-opacity:1" offset="1" id="stop4582"/>
    </linearGradient>
    <linearGradient inkscape:collect="always" xlink:href="#linearGradient4597" id="linearGradient4590-3" gradientUnits="userSpaceOnUse" x1="14.053745" y1="22.892584" x2="-10.69499" y2="47.641319" gradientTransform="matrix(2.4379993,-2.4379993,2.4379993,2.4379993,184.51078,189.68254)"/>
    <linearGradient inkscape:collect="always" xlink:href="#linearGradient4584" id="linearGradient4586-2" x1="13.78858" y1="22.097086" x2="-11.402099" y2="47.287766" gradientUnits="userSpaceOnUse" gradientTransform="matrix(3.4478519,0,0,3.4478519,-3.6569921,264.59463)"/>
    <linearGradient inkscape:collect="always" xlink:href="#linearGradient4597" id="linearGradient4590-9" gradientUnits="userSpaceOnUse" x1="14.053745" y1="22.892584" x2="-10.69499" y2="47.641319" gradientTransform="matrix(1.2189906,-1.2189906,1.2189906,1.2189906,36.254214,38.841813)"/>
    <linearGradient inkscape:collect="always" xlink:href="#linearGradient4584" id="linearGradient4586-6" x1="13.78858" y1="22.097086" x2="-11.402099" y2="47.287766" gradientUnits="userSpaceOnUse" gradientTransform="matrix(1.7239131,0,0,1.7239131,-1.8297102,53.100913)"/>
    <linearGradient inkscape:collect="always" xlink:href="#linearGradient4597" id="linearGradient4590-93" gradientUnits="userSpaceOnUse" x1="14.053745" y1="22.892584" x2="-10.69499" y2="47.641319" gradientTransform="matrix(0.91409646,-0.91409646,0.91409646,0.91409646,-8.8079298,-6.8598503)"/>
    <linearGradient inkscape:collect="always" xlink:href="#linearGradient4584" id="linearGradient4586-5" x1="13.78858" y1="22.097086" x2="-11.402099" y2="47.287766" gradientUnits="userSpaceOnUse" gradientTransform="matrix(1.2927277,0,0,1.2927277,-1.3775004,-11.078792)"/>
    <linearGradient inkscape:collect="always" xlink:href="#linearGradient4597" id="linearGradient4590-4" gradientUnits="userSpaceOnUse" x1="14.053745" y1="22.892584" x2="-10.69499" y2="47.641319" gradientTransform="matrix(0.60950478,-0.60950478,0.60950478,0.60950478,-37.872486,-36.579534)"/>
    <linearGradient inkscape:collect="always" xlink:href="#linearGradient4584" id="linearGradient4586-1" x1="13.78858" y1="22.097086" x2="-11.402099" y2="47.287766" gradientUnits="userSpaceOnUse" gradientTransform="matrix(0.86196999,0,0,0.86196999,-0.91425559,-52.645529)"/>
  </defs>
  <sodipodi:namedview pagecolor="#383c4a" bordercolor="#ffffff" borderopacity="0.62745098" objecttolerance="4" gridtolerance="10" guidetolerance="4" inkscape:pageopacity="0" inkscape:pageshadow="2" inkscape:window-width="640" inkscape:window-height="480" id="namedview20" showgrid="true" inkscape:zoom="8.2423076" inkscape:cx="8.7993258" inkscape:cy="55.786744" inkscape:current-layer="layer8" inkscape:snap-smooth-nodes="false" showguides="true" borderlayer="true" inkscape:showpageshadow="false" inkscape:guide-bbox="true" guidecolor="#bd4fff" guideopacity="0.78431373" inkscape:snap-nodes="true" inkscape:lockguides="false" fit-margin-top="0" fit-margin-left="0" fit-margin-right="0" fit-margin-bottom="0" guidehicolor="#ff0101" guidehiopacity="0.78431373" inkscape:snap-page="true" inkscape:object-nodes="true" inkscape:snap-bbox="true" inkscape:snap-global="true" inkscape:snap-object-midpoints="false" inkscape:snap-bbox-edge-midpoints="false">
    <inkscape:grid type="xygrid" id="grid4171" empspacing="4" dotted="false" originx="2.7755576e-17" originy="0" spacingx="1" spacingy="1" color="#5a5a5a" opacity="0.23529412" empcolor="#5a5a5a" empopacity="0.47058824" visible="true"/>
    <inkscape:grid type="axonomgrid" id="grid4699" units="mm" empspacing="4" color="#5a5a5a" opacity="0.23529412" empcolor="#5a5a5a" empopacity="0.47058824" gridanglex="45" gridanglez="45" spacingy="3.7795276" visible="false" originx="1.3228346" originy="1.3228346"/>
    <sodipodi:guide position="48,0" orientation="1,0" id="guide4568" inkscape:locked="false" inkscape:label="" inkscape:color="rgb(189,79,255)"/>
    <sodipodi:guide position="111.99996,-3.9999999e-05" orientation="0,1" id="guide4570" inkscape:locked="false" inkscape:label="" inkscape:color="rgb(189,79,255)"/>
    <sodipodi:guide position="0,0" orientation="1,0" id="guide4572" inkscape:locked="false" inkscape:label="" inkscape:color="rgb(189,79,255)"/>
    <sodipodi:guide position="0,48" orientation="0,1" id="guide4574" inkscape:locked="false" inkscape:label="" inkscape:color="rgb(189,79,255)"/>
    <sodipodi:guide position="0,80" orientation="0,1" id="guide4576" inkscape:locked="false" inkscape:label="" inkscape:color="rgb(189,79,255)"/>
    <sodipodi:guide position="-32,48" orientation="1,0" id="guide4578" inkscape:locked="false" inkscape:label="" inkscape:color="rgb(189,79,255)"/>
    <sodipodi:guide position="-32,104" orientation="0,1" id="guide4580" inkscape:locked="false" inkscape:label="" inkscape:color="rgb(189,79,255)"/>
    <sodipodi:guide position="-56,80" orientation="1,0" id="guide4582" inkscape:locked="false" inkscape:label="" inkscape:color="rgb(189,79,255)"/>
    <sodipodi:guide position="48,-64" orientation="0,1" id="guide4584" inkscape:locked="false" inkscape:label="" inkscape:color="rgb(189,79,255)"/>
    <sodipodi:guide position="0,0" orientation="-0.70710678,0.70710678" id="guide4588" inkscape:locked="false" inkscape:label="" inkscape:color="rgb(189,79,255)"/>
    <sodipodi:guide position="-56,80" orientation="-0.70710678,0.70710678" id="guide4573" inkscape:locked="false" inkscape:label="" inkscape:color="rgb(189,79,255)"/>
    <sodipodi:guide position="-32,48" orientation="-0.70710678,0.70710678" id="guide4575" inkscape:locked="false" inkscape:label="" inkscape:color="rgb(189,79,255)"/>
    <sodipodi:guide position="48,-64" orientation="-0.70710678,0.70710678" id="guide4577" inkscape:locked="false" inkscape:label="" inkscape:color="rgb(189,79,255)"/>
    <sodipodi:guide position="47.999962,0" orientation="0.70710678,0.70710678" id="guide4697" inkscape:locked="false" inkscape:label="" inkscape:color="rgb(189,79,255)"/>
    <sodipodi:guide position="207.99995,-288" orientation="0,1" id="guide7833" inkscape:locked="false"/>
    <sodipodi:guide position="335.99994,-288" orientation="1,0" id="guide7835" inkscape:locked="false" inkscape:label="" inkscape:color="rgb(189,79,255)"/>
    <sodipodi:guide position="111.99996,-64" orientation="1,0" id="guide7915" inkscape:locked="false"/>
    <sodipodi:guide position="111.99996,-160" orientation="0,1" id="guide7917" inkscape:locked="false"/>
    <sodipodi:guide position="207.99996,-160" orientation="1,0" id="guide7919" inkscape:locked="false"/>
    <sodipodi:guide position="111.99996,-160" orientation="-0.70710678,0.70710678" id="guide7921" inkscape:locked="false" inkscape:label="" inkscape:color="rgb(189,79,255)"/>
    <sodipodi:guide position="207.99996,-288" orientation="-0.70710678,0.70710678" id="guide7923" inkscape:locked="false" inkscape:label="" inkscape:color="rgb(189,79,255)"/>
    <sodipodi:guide position="-72,104" orientation="1,0" id="guide7824" inkscape:locked="false"/>
    <sodipodi:guide position="-56,120" orientation="0,1" id="guide7826" inkscape:locked="false"/>
    <sodipodi:guide position="-72,104" orientation="-0.70710678,0.70710678" id="guide7828" inkscape:locked="false" inkscape:label="" inkscape:color="rgb(189,79,255)"/>
    <sodipodi:guide position="225.83602,-125.08881" orientation="0,1" id="guide7721" inkscape:locked="false"/>
  </sodipodi:namedview>
  <g style="display:inline" inkscape:label="icon_96" id="g8840" inkscape:groupmode="layer" transform="translate(-111.99996,-112)">
    <g style="display:none" inkscape:label="frame" id="g8776" inkscape:groupmode="layer">
      <rect style="color:#000000;clip-rule:nonzero;display:inline;overflow:visible;visibility:visible;opacity:1;isolation:auto;mix-blend-mode:normal;color-interpolation:sRGB;color-interpolation-filters:linearRGB;solid-color:#000000;solid-opacity:1;vector-effect:none;fill:#000000;fill-opacity:1;fill-rule:nonzero;stroke:#ff24f7;stroke-width:0;stroke-linecap:square;stroke-linejoin:miter;stroke-miterlimit:4;stroke-dasharray:none;stroke-dashoffset:0;stroke-opacity:0.99481865;marker:none;marker-start:none;marker-mid:none;marker-end:none;paint-order:normal;color-rendering:auto;image-rendering:auto;shape-rendering:auto;text-rendering:auto;enable-background:accumulate" id="rect_96" width="96" height="96" x="111.99996" y="112" inkscape:label="frame_96"/>
      <text inkscape:label="txt_96" id="text_96" y="168.73633" x="144.72458" style="font-size:24px;line-height:0%;font-family:sans-serif;letter-spacing:0px;word-spacing:0px;display:inline;opacity:1;fill:#ffffff;fill-opacity:1;stroke:none;stroke-width:0.04917826px;stroke-linecap:butt;stroke-linejoin:miter;stroke-opacity:1" xml:space="preserve">
        <tspan id="tspan8768" style="font-size:24px;line-height:0%;fill:#ffffff;fill-opacity:1;stroke:none;stroke-width:0.04917826px" y="168.73633" x="144.72458" sodipodi:role="line">96</tspan>
      </text>
    </g>
    <g style="display:inline" inkscape:label="icon" id="g8838" inkscape:groupmode="layer">
      <rect transform="rotate(-45)" ry="0" y="192.33702" x="-33.945099" height="67.871628" width="67.871628" id="rect4578" style="opacity:1;fill:url(#linearGradient4586);fill-opacity:1;stroke:none;stroke-width:25.85585976;stroke-linecap:butt;stroke-linejoin:miter;stroke-miterlimit:4;stroke-dasharray:none;stroke-opacity:1"/>
      <path sodipodi:nodetypes="ccccccccccc" inkscape:connector-curvature="0" id="rect4588" d="m 159.99249,112.01313 47.99249,47.99249 -47.99249,47.99249 V 177.5777 l 11.31192,-2.94858 2.9088,-8.76614 -10.66554,-6.50374 8.56475,-3.59498 -1.93918,-9.08934 -10.18075,-1.49417 z" style="opacity:1;fill:url(#linearGradient4590);fill-opacity:1;stroke:none;stroke-width:25.85585976;stroke-linecap:butt;stroke-linejoin:miter;stroke-miterlimit:4;stroke-dasharray:none;stroke-opacity:1"/>
      <path sodipodi:nodetypes="ccccccc" inkscape:connector-curvature="0" id="rect4599" d="M 207.98498,160.00562 159.99249,112.01313 112,160.00562 l 3.64648,3.66668 44.34601,-44.34603 44.33592,44.33594 z" style="color:#000000;font-style:normal;font-variant:normal;font-weight:normal;font-stretch:normal;font-size:medium;line-height:normal;font-family:sans-serif;text-indent:0;text-align:start;text-decoration:none;text-decoration-line:none;text-decoration-style:solid;text-decoration-color:#000000;letter-spacing:normal;word-spacing:normal;text-transform:none;writing-mode:lr-tb;direction:ltr;baseline-shift:baseline;text-anchor:start;white-space:normal;clip-rule:nonzero;display:inline;overflow:visible;visibility:visible;opacity:1;isolation:auto;mix-blend-mode:normal;color-interpolation:sRGB;color-interpolation-filters:linearRGB;solid-color:#000000;solid-opacity:1;fill:#ffffff;fill-opacity:0.11351348;fill-rule:nonzero;stroke:none;stroke-width:5.17117262;stroke-linecap:square;stroke-linejoin:miter;stroke-miterlimit:4;stroke-dasharray:none;stroke-dashoffset:0;stroke-opacity:1;paint-order:normal;color-rendering:auto;image-rendering:auto;shape-rendering:auto;text-rendering:auto;enable-background:accumulate"/>
      <path style="opacity:1;fill:#ffffff;fill-opacity:0.0918919;stroke:none;stroke-width:20.3486805;stroke-linecap:butt;stroke-linejoin:miter;stroke-miterlimit:4;stroke-dasharray:none;stroke-opacity:1" d="m 160.49113,112.01124 -22.18961,22.18961 v 51.60954 L 160.49113,208 182.68074,185.81039 v -51.60954 z" id="rect4224" inkscape:connector-curvature="0"/>
      <g aria-label="3" transform="scale(1.3312704,0.7511622)" style="font-style:normal;font-variant:normal;font-weight:normal;font-stretch:normal;font-size:30.41260529px;line-height:0%;font-family:Verdana;-inkscape-font-specification:Verdana;letter-spacing:0px;word-spacing:0px;fill:#ffffff;fill-opacity:1;stroke:#6c409a;stroke-width:1.07994246;stroke-linecap:butt;stroke-linejoin:miter;stroke-miterlimit:4;stroke-dasharray:none;stroke-opacity:1;paint-order:normal" id="text4628">
        <path d="m 130.92845,214.5907 q 1.33301,1.19415 2.19392,2.99928 0.8609,1.80512 0.8609,4.66554 0,2.83265 -1.02753,5.1932 -1.02753,2.36054 -2.88819,4.11012 -2.08284,1.94398 -4.91549,2.8882 -2.80488,0.91644 -6.16519,0.91644 -3.44361,0 -6.77614,-0.83313 -3.33254,-0.80536 -5.47091,-1.77735 v -5.80416 h 0.41656 q 2.36055,1.55518 5.55422,2.58271 3.19368,1.02753 6.16519,1.02753 1.74958,0 3.72133,-0.58319 1.97175,-0.58319 3.19367,-1.72181 1.27748,-1.22193 1.88844,-2.6938 0.63874,-1.47187 0.63874,-3.72132 0,-2.22169 -0.72205,-3.66579 -0.69428,-1.47187 -1.94398,-2.305 -1.2497,-0.86091 -3.02705,-1.16639 -1.77735,-0.33325 -3.83241,-0.33325 h -2.4994 v -4.61001 h 1.94397 q 4.22121,0 6.72061,-1.74957 2.52717,-1.77736 2.52717,-5.16543 0,-1.49964 -0.63873,-2.61048 -0.63874,-1.13862 -1.77735,-1.86067 -1.19416,-0.72205 -2.55495,-0.99976 -1.36078,-0.27771 -3.08259,-0.27771 -2.63825,0 -5.60976,0.94422 -2.97151,0.94422 -5.60976,2.66603 h -0.27771 v -5.80417 q 1.97174,-0.97198 5.24873,-1.77735 3.30477,-0.83313 6.38736,-0.83313 3.02705,0 5.33205,0.55542 2.305,0.55542 4.16567,1.77735 1.99951,1.33302 3.02705,3.22145 1.02753,1.88844 1.02753,4.41561 0,3.44361 -2.44386,6.02633 -2.41609,2.55494 -5.72085,3.22144 v 0.3888 q 1.33301,0.22217 3.05482,0.94422 1.72181,0.69428 2.91597,1.74958 z" style="font-style:normal;font-variant:normal;font-weight:normal;font-stretch:normal;font-size:56.87522125px;line-height:13.43226147;font-family:Verdana;-inkscape-font-specification:Verdana;fill:#ffffff;fill-opacity:1;stroke:#6c409a;stroke-width:1.07994246;stroke-miterlimit:4;stroke-dasharray:none;stroke-opacity:1;paint-order:normal" id="path8201" inkscape:connector-curvature="0"/>
      </g>
      <g id="g5632" transform="matrix(1.5206851,0,0,0.91327583,74.868073,101.76387)" style="opacity:0.98999999">
        <ellipse transform="matrix(0.37033535,0,0,0.93212608,35.10181,1.5043913)" ry="1.659344" rx="0.64111018" cy="19.942003" cx="55.927433" id="path5580" style="opacity:1;fill:#ffffff;fill-opacity:0.43939394;stroke:none;stroke-width:0.53100002;stroke-linecap:square;stroke-linejoin:miter;stroke-miterlimit:4;stroke-dasharray:none;stroke-opacity:0.61616163;paint-order:normal;filter:url(#filter5626)"/>
        <ellipse style="opacity:1;fill:#ffffff;fill-opacity:0.43939394;stroke:none;stroke-width:0.53100002;stroke-linecap:square;stroke-linejoin:miter;stroke-miterlimit:4;stroke-dasharray:none;stroke-opacity:0.61616163;paint-order:normal;filter:url(#filter5626)" id="ellipse5630" cx="55.927433" cy="19.942003" rx="0.64111018" ry="1.659344" transform="matrix(0,0.28572369,-1.7651272,0,91.013888,4.1058368)"/>
      </g>
      <g style="opacity:0.98999999" transform="matrix(0.91033992,0.77608672,-0.49005425,0.57482746,133.98892,93.17199)" id="g4218" inkscape:transform-center-y="1.2466071" inkscape:transform-center-x="0.74795561">
        <ellipse style="opacity:1;fill:#ffffff;fill-opacity:0.43939394;stroke:none;stroke-width:0.53100002;stroke-linecap:square;stroke-linejoin:miter;stroke-miterlimit:4;stroke-dasharray:none;stroke-opacity:0.61616163;paint-order:normal;filter:url(#filter5626-3)" id="ellipse4220" cx="55.927433" cy="19.942003" rx="0.64111018" ry="1.659344" transform="matrix(0.37033535,0,0,0.93212608,35.10181,1.5043913)"/>
        <ellipse transform="matrix(0,0.28572369,-1.7651272,0,91.013888,4.1058368)" ry="1.659344" rx="0.64111018" cy="19.942003" cx="55.927433" id="ellipse4222" style="opacity:1;fill:#ffffff;fill-opacity:0.43939394;stroke:none;stroke-width:0.53100002;stroke-linecap:square;stroke-linejoin:miter;stroke-miterlimit:4;stroke-dasharray:none;stroke-opacity:0.61616163;paint-order:normal;filter:url(#filter5626-3)"/>
      </g>
      <g aria-label="stremio" transform="matrix(2.2442663,-2.2442663,1.4310024,1.4310024,99.008873,99.338807)" style="font-style:normal;font-weight:normal;line-height:0%;font-family:sans-serif;letter-spacing:0px;word-spacing:0px;fill:#dddddd;fill-opacity:0.56216215;stroke:none;stroke-width:0.05587733;stroke-linecap:butt;stroke-linejoin:miter;stroke-miterlimit:4;stroke-dasharray:none;stroke-opacity:0.26486487" id="text4182">
        <path d="m -4.9897681,61.781515 v 0.294087 q -0.131832,-0.06761 -0.273805,-0.101409 -0.141973,-0.0338 -0.294087,-0.0338 -0.2315512,0 -0.3481719,0.07099 -0.1149305,0.07099 -0.1149305,0.21296 0,0.10817 0.082818,0.170705 0.082818,0.06085 0.3329605,0.116621 l 0.1064797,0.02366 q 0.3312704,0.07099 0.4698631,0.201129 0.1402828,0.128451 0.1402828,0.360003 0,0.263664 -0.2095792,0.417468 -0.207889,0.153804 -0.5729624,0.153804 -0.152114,0 -0.3177491,-0.03042 -0.1639451,-0.02873 -0.3464818,-0.08789 v -0.321129 q 0.1723958,0.08958 0.3397211,0.135212 0.1673254,0.04394 0.3312704,0.04394 0.2197201,0 0.3380309,-0.07437 0.1183109,-0.07606 0.1183109,-0.212959 0,-0.126762 -0.086198,-0.194368 -0.084508,-0.06761 -0.3735242,-0.130142 L -5.77569,62.770256 Q -6.0647065,62.70941 -6.1931583,62.584339 -6.32161,62.457577 -6.32161,62.237857 q 0,-0.267045 0.1892973,-0.412398 0.1892973,-0.145353 0.5374692,-0.145353 0.1723958,0 0.3245097,0.02535 0.152114,0.02535 0.2805657,0.07606 z" style="font-size:3.46143699px;line-height:10" id="path7700" inkscape:connector-curvature="0"/>
        <path d="m -4.0838451,61.188271 v 0.537469 h 0.6405686 v 0.241692 h -0.6405686 v 1.027614 q 0,0.231551 0.062536,0.297468 0.064226,0.06592 0.2585937,0.06592 h 0.3194392 v 0.260283 h -0.3194392 q -0.360003,0 -0.4969055,-0.133522 -0.1369025,-0.135212 -0.1369025,-0.490145 V 61.967432 H -4.6246946 V 61.72574 h 0.2281709 v -0.537469 z" style="font-size:3.46143699px;line-height:10" id="path7702" inkscape:connector-curvature="0"/>
        <path d="m -1.9356584,62.016447 q -0.052395,-0.03042 -0.1149305,-0.04394 -0.060846,-0.01521 -0.1352124,-0.01521 -0.2636641,0 -0.4056371,0.172396 -0.1402829,0.170706 -0.1402829,0.491835 v 0.997191 H -3.0443999 V 61.72574 h 0.3126786 v 0.294087 q 0.098029,-0.172396 0.2552134,-0.255213 0.1571844,-0.08451 0.381975,-0.08451 0.032113,0 0.070987,0.0051 0.038873,0.0034 0.086198,0.01183 z" style="font-size:3.46143699px;line-height:10" id="path7704" inkscape:connector-curvature="0"/>
        <path d="m -0.06127658,62.59448 v 0.152114 H -1.4911475 q 0.020282,0.321129 0.1926776,0.490144 0.174086,0.167326 0.48338429,0.167326 0.17915641,0 0.34648173,-0.04394 0.16901548,-0.04394 0.33465065,-0.131832 v 0.294087 q -0.16732532,0.07099 -0.34310142,0.108169 -0.1757761,0.03718 -0.35662266,0.03718 -0.45296149,0 -0.71831579,-0.263664 -0.2636641,-0.263664 -0.2636641,-0.713246 0,-0.464792 0.2501429,-0.736907 0.251833,-0.273805 0.67775204,-0.273805 0.38197498,0 0.60338525,0.246762 0.22310043,0.245073 0.22310043,0.667612 z m -0.31098847,-0.09127 q -0.00338,-0.255213 -0.14366316,-0.407327 -0.13859269,-0.152114 -0.36845374,-0.152114 -0.26028385,0 -0.41746825,0.147043 -0.1554942,0.147044 -0.1791564,0.414088 z" style="font-size:3.46143699px;line-height:10" id="path7706" inkscape:connector-curvature="0"/>
        <path d="m 1.9229649,62.089123 q 0.1166207,-0.209579 0.2788756,-0.309298 0.1622548,-0.09972 0.3819749,-0.09972 0.2957771,0 0.4563418,0.207889 0.1605647,0.206199 0.1605647,0.588174 v 1.142544 H 2.8880433 V 62.48631 q 0,-0.272115 -0.096339,-0.403947 -0.096339,-0.131832 -0.294087,-0.131832 -0.2416921,0 -0.3819749,0.160564 -0.1402829,0.160565 -0.1402829,0.43775 v 1.069868 H 1.6626811 V 62.48631 q 0,-0.273805 -0.096339,-0.403947 -0.096339,-0.131832 -0.2974673,-0.131832 -0.2383118,0 -0.37859465,0.162254 -0.14028285,0.160565 -0.14028285,0.43606 v 1.069868 H 0.43731887 V 61.72574 H 0.7499975 v 0.294087 q 0.10647975,-0.174086 0.2552134,-0.256904 0.1487336,-0.08282 0.3532423,-0.08282 0.2061989,0 0.3498621,0.104789 0.1453533,0.10479 0.2146496,0.304228 z" style="font-size:3.46143699px;line-height:10" id="path7708" inkscape:connector-curvature="0"/>
        <path d="m 3.8226989,61.72574 h 0.3109885 v 1.892973 H 3.8226989 Z m 0,-0.736907 h 0.3109885 v 0.393806 H 3.8226989 Z" style="font-size:3.46143699px;line-height:10" id="path7710" inkscape:connector-curvature="0"/>
        <path d="m 5.5162338,61.94377 q -0.2501429,0 -0.3954962,0.196058 -0.1453534,0.194368 -0.1453534,0.534089 0,0.339721 0.1436632,0.535779 0.1453533,0.194368 0.3971864,0.194368 0.2484527,0 0.393806,-0.196058 0.1453533,-0.196058 0.1453533,-0.534089 0,-0.336341 -0.1453533,-0.532399 Q 5.7646865,61.94377 5.5162338,61.94377 Z m 0,-0.263664 q 0.4056371,0 0.6371883,0.263664 0.2315512,0.263664 0.2315512,0.730147 0,0.464792 -0.2315512,0.730147 -0.2315512,0.263664 -0.6371883,0.263664 -0.4073273,0 -0.6388785,-0.263664 -0.2298611,-0.265355 -0.2298611,-0.730147 0,-0.466483 0.2298611,-0.730147 0.2315512,-0.263664 0.6388785,-0.263664 z" style="font-size:3.46143699px;line-height:10" id="path7712" inkscape:connector-curvature="0"/>
      </g>
    </g>
  </g>
</svg>