<?xml version="1.0" encoding="UTF-8" standalone="yes"?>
<svg xmlns:dc="http://purl.org/dc/elements/1.1/" xmlns:cc="http://creativecommons.org/ns#" xmlns:rdf="http://www.w3.org/1999/02/22-rdf-syntax-ns#" xmlns:svg="http://www.w3.org/2000/svg" xmlns="http://www.w3.org/2000/svg" xmlns:xlink="http://www.w3.org/1999/xlink" xmlns:sodipodi="http://sodipodi.sourceforge.net/DTD/sodipodi-0.dtd" xmlns:inkscape="http://www.inkscape.org/namespaces/inkscape" height="48" viewBox="0 0 48 48" width="48" id="svg2" version="1.1" inkscape:version="0.92.1 r" sodipodi:docname="network-workgroup.svg" enable-background="new" folder="48">
  <title id="title4675">Template icons dark</title>
  <metadata id="metadata24">
    <rdf:RDF>
      <cc:Work rdf:about="">
        <dc:format>image/svg+xml</dc:format>
        <dc:type rdf:resource="http://purl.org/dc/dcmitype/StillImage"/>
        <dc:title>Template icons dark</dc:title>
        <dc:date>17/05/13</dc:date>
        <dc:creator>
          <cc:Agent>
            <dc:title>wfpaisa</dc:title>
          </cc:Agent>
        </dc:creator>
        <dc:rights>
          <cc:Agent>
            <dc:title>License: GPLv3</dc:title>
          </cc:Agent>
        </dc:rights>
        <dc:language>es-en</dc:language>
        <dc:subject>
          <rdf:Bag>
            <rdf:li>plane-icon-theme</rdf:li>
          </rdf:Bag>
        </dc:subject>
        <dc:description>Template for create set icons</dc:description>
        <cc:license rdf:resource="https://www.gnu.org/licenses/gpl-3.0.en.html"/>
      </cc:Work>
    </rdf:RDF>
  </metadata>
  <defs id="defs22">
    <linearGradient id="linearGradient8578">
      <stop style="stop-color:#4ba8dc;stop-opacity:1;" offset="0" id="stop8574"/>
      <stop style="stop-color:#32b69b;stop-opacity:1;" offset="1" id="stop8576"/>
    </linearGradient>
    <linearGradient id="linearGradient7727">
      <stop style="stop-color:#0386ea;stop-opacity:1;" offset="0" id="stop7723"/>
      <stop style="stop-color:#11b4ff;stop-opacity:1;" offset="1" id="stop7725"/>
    </linearGradient>
    <clipPath clipPathUnits="userSpaceOnUse" id="clipPath88">
      <path d="m 4251.24,3890.73 c 2.61,8.02 5.1,16.09 7.46,24.19 -139.9,197.7 -370.37,326.77 -630.98,326.77 -426.63,0 -772.48,-345.85 -772.48,-772.48 0,-109.19 22.69,-213.05 63.55,-307.21 7.9,-1.64 15.83,-3.11 23.77,-4.51 118.52,-260.07 380.71,-440.86 685.16,-440.86 415.63,0 752.58,336.94 752.58,752.58 0,156.19 -47.59,301.26 -129.06,421.52 z" id="path86" inkscape:connector-curvature="0"/>
    </clipPath>
    <radialGradient inkscape:collect="always" xlink:href="#linearGradient8578" id="radialGradient8580" cx="15.713943" cy="18.263794" fx="15.713943" fy="18.263794" r="21.544892" gradientUnits="userSpaceOnUse" gradientTransform="matrix(1.4436277,0,0,1.4098437,-6.6116658,-7.4712195)"/>
    <radialGradient inkscape:collect="always" xlink:href="#linearGradient8578" id="radialGradient8580-3" cx="15.713943" cy="18.263794" fx="15.713943" fy="18.263794" r="21.544891" gradientUnits="userSpaceOnUse" gradientTransform="matrix(0.90918676,0,0,0.88790983,-35.197574,-35.777007)"/>
    <radialGradient inkscape:collect="always" xlink:href="#linearGradient8578" id="radialGradient8580-6" cx="15.713943" cy="18.263794" fx="15.713943" fy="18.263794" r="21.544891" gradientUnits="userSpaceOnUse" gradientTransform="matrix(2.7899588,0,0,2.7246677,100.63465,99.069437)"/>
    <radialGradient inkscape:collect="always" xlink:href="#linearGradient8578" id="radialGradient8580-8" cx="15.713943" cy="18.263794" fx="15.713943" fy="18.263794" r="21.544891" gradientUnits="userSpaceOnUse" gradientTransform="matrix(3.6390859,0,0,3.5539234,194.49978,192.4895)"/>
    <radialGradient inkscape:collect="always" xlink:href="#linearGradient8578" id="radialGradient8580-36" cx="15.713943" cy="18.263794" fx="15.713943" fy="18.263794" r="21.544891" gradientUnits="userSpaceOnUse" gradientTransform="matrix(1.8801872,0,0,1.8361868,40.064702,38.976336)"/>
  </defs>
  <sodipodi:namedview pagecolor="#383c4a" bordercolor="#ffffff" borderopacity="0.62745098" objecttolerance="4" gridtolerance="10" guidetolerance="4" inkscape:pageopacity="0" inkscape:pageshadow="2" inkscape:window-width="640" inkscape:window-height="480" id="namedview20" showgrid="true" inkscape:zoom="1.4789492" inkscape:cx="214.31045" inkscape:cy="-90.797206" inkscape:current-layer="layer8" inkscape:snap-smooth-nodes="true" showguides="true" borderlayer="true" inkscape:showpageshadow="false" inkscape:guide-bbox="true" guidecolor="#bd4fff" guideopacity="0.78431373" inkscape:snap-nodes="true" inkscape:lockguides="false" fit-margin-top="0" fit-margin-left="0" fit-margin-right="0" fit-margin-bottom="0" guidehicolor="#ff0101" guidehiopacity="0.78431373" inkscape:snap-page="true" inkscape:object-nodes="true" inkscape:snap-bbox="true" inkscape:snap-global="true" inkscape:snap-object-midpoints="false" inkscape:snap-bbox-edge-midpoints="false">
    <inkscape:grid type="xygrid" id="grid4171" empspacing="4" dotted="false" originx="2.7755576e-17" originy="0" spacingx="1" spacingy="1" color="#5a5a5a" opacity="0.23529412" empcolor="#5a5a5a" empopacity="0.47058824" visible="true"/>
    <inkscape:grid type="axonomgrid" id="grid4699" units="mm" empspacing="4" color="#5a5a5a" opacity="0.23529412" empcolor="#5a5a5a" empopacity="0.47058824" gridanglex="45" gridanglez="45" spacingy="3.7795276" visible="false" originx="1.3228346" originy="1.3228346"/>
    <sodipodi:guide position="48,0" orientation="1,0" id="guide4568" inkscape:locked="false" inkscape:label="" inkscape:color="rgb(189,79,255)"/>
    <sodipodi:guide position="111.99996,-3.9999999e-05" orientation="0,1" id="guide4570" inkscape:locked="false" inkscape:label="" inkscape:color="rgb(189,79,255)"/>
    <sodipodi:guide position="0,0" orientation="1,0" id="guide4572" inkscape:locked="false" inkscape:label="" inkscape:color="rgb(189,79,255)"/>
    <sodipodi:guide position="0,48" orientation="0,1" id="guide4574" inkscape:locked="false" inkscape:label="" inkscape:color="rgb(189,79,255)"/>
    <sodipodi:guide position="0,80" orientation="0,1" id="guide4576" inkscape:locked="false" inkscape:label="" inkscape:color="rgb(189,79,255)"/>
    <sodipodi:guide position="-32,48" orientation="1,0" id="guide4578" inkscape:locked="false" inkscape:label="" inkscape:color="rgb(189,79,255)"/>
    <sodipodi:guide position="-32,104" orientation="0,1" id="guide4580" inkscape:locked="false" inkscape:label="" inkscape:color="rgb(189,79,255)"/>
    <sodipodi:guide position="-56,80" orientation="1,0" id="guide4582" inkscape:locked="false" inkscape:label="" inkscape:color="rgb(189,79,255)"/>
    <sodipodi:guide position="48,-64" orientation="0,1" id="guide4584" inkscape:locked="false" inkscape:label="" inkscape:color="rgb(189,79,255)"/>
    <sodipodi:guide position="27.439936,27.439936" orientation="-0.70710678,0.70710678" id="guide4588" inkscape:locked="false" inkscape:label="" inkscape:color="rgb(189,79,255)"/>
    <sodipodi:guide position="-56,80" orientation="-0.70710678,0.70710678" id="guide4573" inkscape:locked="false" inkscape:label="" inkscape:color="rgb(189,79,255)"/>
    <sodipodi:guide position="-32,48" orientation="-0.70710678,0.70710678" id="guide4575" inkscape:locked="false" inkscape:label="" inkscape:color="rgb(189,79,255)"/>
    <sodipodi:guide position="48,-64" orientation="-0.70710678,0.70710678" id="guide4577" inkscape:locked="false" inkscape:label="" inkscape:color="rgb(189,79,255)"/>
    <sodipodi:guide position="47.999962,0" orientation="0.70710678,0.70710678" id="guide4697" inkscape:locked="false" inkscape:label="" inkscape:color="rgb(189,79,255)"/>
    <sodipodi:guide position="207.99995,-288" orientation="0,1" id="guide7833" inkscape:locked="false"/>
    <sodipodi:guide position="335.99994,-288" orientation="1,0" id="guide7835" inkscape:locked="false" inkscape:label="" inkscape:color="rgb(189,79,255)"/>
    <sodipodi:guide position="111.99996,-64" orientation="1,0" id="guide7915" inkscape:locked="false"/>
    <sodipodi:guide position="111.99996,-160" orientation="0,1" id="guide7917" inkscape:locked="false"/>
    <sodipodi:guide position="207.99996,-160" orientation="1,0" id="guide7919" inkscape:locked="false"/>
    <sodipodi:guide position="111.99996,-160" orientation="-0.70710678,0.70710678" id="guide7921" inkscape:locked="false" inkscape:label="" inkscape:color="rgb(189,79,255)"/>
    <sodipodi:guide position="207.99996,-288" orientation="-0.70710678,0.70710678" id="guide7923" inkscape:locked="false" inkscape:label="" inkscape:color="rgb(189,79,255)"/>
    <sodipodi:guide position="-72,104" orientation="1,0" id="guide7824" inkscape:locked="false"/>
    <sodipodi:guide position="-56,120" orientation="0,1" id="guide7826" inkscape:locked="false"/>
    <sodipodi:guide position="-72,104" orientation="-0.70710678,0.70710678" id="guide7828" inkscape:locked="false" inkscape:label="" inkscape:color="rgb(189,79,255)"/>
  </sodipodi:namedview>
  <g inkscape:groupmode="layer" id="layer3" inkscape:label="icon_48" style="display:inline" transform="translate(6.8969723e-7,-4.5367432e-7)">
    <g inkscape:groupmode="layer" id="layer9" inkscape:label="frame" style="display:none">
      <rect inkscape:label="frame_48" y="4.5367432e-07" x="-6.8969723e-07" height="48" width="48" id="frame_48" style="color:#000000;clip-rule:nonzero;display:block;overflow:visible;visibility:visible;opacity:1;isolation:auto;mix-blend-mode:normal;color-interpolation:sRGB;color-interpolation-filters:linearRGB;solid-color:#000000;solid-opacity:1;vector-effect:none;fill:#000000;fill-opacity:1;fill-rule:nonzero;stroke:#ff24f7;stroke-width:0;stroke-linecap:square;stroke-linejoin:miter;stroke-miterlimit:4;stroke-dasharray:none;stroke-dashoffset:0;stroke-opacity:0.99481865;marker:none;marker-start:none;marker-mid:none;marker-end:none;paint-order:normal;color-rendering:auto;image-rendering:auto;shape-rendering:auto;text-rendering:auto;enable-background:accumulate"/>
      <text xml:space="preserve" style="font-size:18.66666603px;line-height:1000%;font-family:sans-serif;letter-spacing:0px;word-spacing:0px;display:inline;opacity:1;fill:#ffffff;fill-opacity:1;stroke:none;stroke-width:0.11166908px;stroke-linecap:butt;stroke-linejoin:miter;stroke-opacity:1" x="12.301435" y="30.794922" id="txt_48" inkscape:label="txt_48">
        <tspan sodipodi:role="line" x="12.301435" y="30.794922" style="font-size:18.66666603px;fill:#ffffff;fill-opacity:1;stroke:none;stroke-width:0.11166908px" id="tspan5049-1">48</tspan>
      </text>
      <text xml:space="preserve" style="font-size:2.66666675px;line-height:1000%;font-family:sans-serif;letter-spacing:0px;word-spacing:0px;display:inline;opacity:1;fill:#ffffff;fill-opacity:0.44791667;stroke:none;stroke-width:0.0588377px;stroke-linecap:butt;stroke-linejoin:miter;stroke-opacity:1" x="25.824219" y="45.962238" id="txt_scalable_32-64" inkscape:label="txt_scalable_32-64">
        <tspan sodipodi:role="line" x="25.824219" y="45.962238" style="font-size:2.66666675px;fill:#ffffff;fill-opacity:0.44791667;stroke:none;stroke-width:0.0588377px" id="tspan5049-1-6">Scalable:32-64</tspan>
      </text>
    </g>
    <g inkscape:groupmode="layer" id="layer10" inkscape:label="icon" style="display:inline">
      <path d="M 44,24 C 44,12.954529 35.045468,3.9999999 23.999999,3.9999999 12.954264,3.9999999 4,12.954529 4,24 4,35.045736 12.954264,44 23.999999,44 35.045468,44 44,35.045736 44,24" style="display:inline;fill:url(#radialGradient8580);fill-opacity:1;fill-rule:nonzero;stroke:none;stroke-width:0.02657524" id="path78" inkscape:connector-curvature="0" inkscape:label="cirtulo"/>
      <path style="display:inline;fill:#90e2a3;fill-opacity:0.50520833;fill-rule:nonzero;stroke:none;stroke-width:0.02657524" d="m 5.4570312,31.416016 c 0.1118877,0.0242 0.2118828,0.07662 0.3242188,0.09961 2.0088384,0.411065 4.088386,0.626953 6.21875,0.626953 2.130313,0 4.20994,-0.215888 6.21875,-0.626953 2.00881,-0.411065 3.947028,-1.016107 5.792969,-1.796875 1.84594,-0.780768 3.600484,-1.736595 5.242187,-2.845703 1.641703,-1.109108 3.170309,-2.371494 4.566406,-3.767578 1.396098,-1.396085 2.658454,-2.926661 3.767579,-4.56836 1.109124,-1.641698 2.064919,-3.396237 2.845703,-5.242187 0.06451,-0.152514 0.08632,-0.32476 0.148437,-0.478516 C 36.987641,7.4976453 30.902429,4 24,4 12.954265,4 4,12.954529 4,24 c 0,2.625601 0.5373262,5.118934 1.4570312,7.416016 z" id="path8613" inkscape:connector-curvature="0" inkscape:label="brillo"/>
      <path style="display:inline;fill:#207fa2;fill-opacity:0.92708333;fill-rule:nonzero;stroke:none;stroke-width:0.02524834" d="m 23.653768,4.2475443 -3.484714,0.09474 -3.086806,1.0369738 2.378838,0.8113199 1.820733,-0.377238 0.15503,0.6028918 0.396186,1.0369737 -0.713135,0.8492162 0.158474,1.6967095 1.107598,0.3772378 0.713136,-1.9809299 1.345309,-0.2824978 1.505508,-1.2247315 -1.188559,-2.2634278 z m -7.813476,2.7543539 -2.797418,1.0731474 -4.5044631,3.2211644 -1.8637966,3.14365 -1.4762236,2.375394 0.077515,5.674072 0.6218398,-0.306614 0.1550293,-2.606214 0.5426026,4.06349 1.5537381,0.91984 1.3211941,0.995633 0.9318984,1.226454 1.905138,-0.225654 -0.310059,0.303169 0.418578,1.533067 -1.004244,0.844048 0.335896,1.455553 1.839682,2.914551 1.086927,0.153307 0.921564,0.766534 0.668349,2.990342 0.418578,1.60886 2.041219,3.374471 2.335775,0.649402 -1.533068,-2.106677 -0.334174,-1.533067 1.254015,-1.379762 1.004245,-2.45463 1.589912,-0.229098 1.004245,-2.990344 1.254014,-1.073147 -1.086927,-1.37976 -3.848171,-0.690742 -0.501262,-1.686375 -1.841404,-0.0758 -1.171332,-1.303969 -1.505506,-0.07751 -2.008491,-0.613227 -1.011136,0.985297 -1.378038,-0.831988 -0.389296,-1.226455 -1.3194716,-0.45992 0.3875732,-1.302246 -1.241957,0.842325 -0.6218397,-0.45992 0.077515,-2.606214 2.0188261,-0.91984 0.931898,0.153306 0.234266,1.762167 0.931898,-0.153307 0.232545,-2.912828 1.553738,-0.459921 v -1.379761 l 1.786281,-1.37976 1.941312,-0.07751 -0.697631,-1.455552 2.640666,-0.921563 -1.631254,-2.068781 -1.009412,0.459921 -0.311781,-1.4572762 -1.009413,0.3066134 -1.476224,2.9128288 -0.542603,-1.14894 -1.009412,-0.919841 2.251369,-1.5330668 c 0,0 1.553243,-0.5374349 1.863796,-0.5374349 0.310809,0 0.931899,0.6907416 0.931899,0.6907416 L 18.713499,8.5366925 18.324204,7.4618226 16.772189,7.6151293 Z m 16.775892,0.6907417 -1.708767,0.2290988 0.544325,2.9145503 1.24368,0.153308 1.241956,0.995632 v -1.073148 l -1.086927,-1.6088589 2.173854,1.3797609 0.07751,1.762167 -1.941312,0.23082 -0.854383,1.610583 0.854383,1.455553 -2.018826,-0.229099 0.387573,2.299602 1.166166,0.535712 1.396985,-1.302247 0.234267,-1.686373 0.931899,0.229098 1.009413,0.997355 -0.699355,0.995632 1.164442,0.308337 0.389296,-1.150662 0.62184,1.150662 0.775147,-0.844049 0.621839,1.302247 1.166165,0.308336 -0.07923,1.455553 -1.708767,-0.689019 -0.387573,0.45992 -2.098065,-0.766533 -0.542602,-0.997356 -3.798218,0.75792 -2.439127,3.73793 0.542602,2.980007 2.170411,2.139405 3.057521,-0.492649 1.166166,1.303969 -0.699355,2.070502 0.542602,2.530423 -1.552015,2.146295 -1.398708,3.296956 2.09634,-0.384128 3.340021,-3.14365 1.631252,-2.990343 1.08865,-3.066135 1.241957,-1.379761 -1.009413,-0.997355 -0.931898,-5.44325 1.086927,2.070501 v 2.68373 L 42.63624,24.788927 42.326182,21.032051 41.549314,18.885755 40.772444,15.895413 38.283362,12.38486 36.889821,10.223063 34.092403,8.8415793 Z" id="path90" inkscape:connector-curvature="0" inkscape:label="continentes sombra"/>
      <path style="display:inline;fill:#f6fef6;fill-opacity:1;fill-rule:nonzero;stroke:none;stroke-width:0.02524834" d="m 23.511719,4.2792969 -3.576172,0.080078 -3.169922,0.8945312 2.275391,0.3242188 1.86914,-0.3242188 0.326172,0.8945313 0.40625,0.8925781 -0.732422,0.7324219 0.16211,1.4628906 1.138672,0.3242188 0.732421,-1.7070313 1.38086,-0.2421875 1.544922,-1.0566406 -1.220703,-1.9511719 z M 15.464844,5.9863281 12.539062,7.1230469 7.8261719,10.537109 5.875,13.867188 4.3320312,16.388672 4.4121094,22.402344 5.0625,22.076172 5.2265625,19.3125 l 0.5683594,4.308594 0.1640625,0.09766 1.4589844,0.876953 1.3847656,1.056641 0.9746094,1.300781 1.9160152,-0.230469 -0.292968,0.3125 0.408203,1.625 -0.976563,0.892578 0.242188,1.144532 0.08398,0.40039 1.789063,3.087891 1.054687,0.164062 0.894531,0.810547 0.650391,3.171875 0.40625,1.705078 1.462891,2.275391 2.27539,1.300781 -0.974609,-1.542969 -0.326172,-1.626953 1.220703,-1.46289 0.97461,-2.59961 1.542968,-0.24414 0.97461,-3.169922 1.220703,-1.138672 -1.056641,-1.460937 -3.740234,-0.732422 -0.08203,-0.302735 -0.404296,-1.486328 -1.789063,-0.08008 -1.136719,-1.380859 -1.460937,-0.08203 -1.953125,-0.65039 -0.957031,1.017578 -1.398438,-0.853516 -0.4062499,-1.300781 -1.3828125,-0.488281 0.2949219,-1 0.1132813,-0.38086 -0.8789063,0.601563 -0.421875,0.292969 -0.1796875,-0.136719 -0.4707031,-0.351563 0.082031,-2.765625 2.1113281,-0.974609 0.976563,0.164062 0.242187,1.869141 0.97461,-0.164062 0.246093,-3.085938 1.623047,-0.488281 v -1.464844 l 1.871094,-1.460937 2.03125,-0.08203 -0.730469,-1.544921 2.763672,-0.97461 -1.707031,-2.1953124 -1.056641,0.4882814 -0.326172,-1.5429689 -1.05664,0.3242188 -1.542969,3.0898441 -0.568359,-1.220703 -1.058594,-0.97461 2.357422,-1.6249999 c 0,0 1.626227,-0.5683594 1.951172,-0.5683593 0.324947,0 0.974609,0.7304687 0.974609,0.7304687 l 1.300781,-0.9765625 -0.40625,-1.1367188 -1.625,0.1621094 z m 17.554687,0.7304688 -1.789062,0.2441406 0.570312,3.0878905 1.298828,0.16211 1.300782,1.05664 v -1.136719 l -1.136719,-1.7070309 2.27539,1.4609375 0.08203,1.8710934 -2.03125,0.242188 -0.894532,1.707031 0.894532,1.544922 -2.113282,-0.244141 0.40625,2.4375 1.216797,0.570313 1.464844,-1.382813 0.242188,-1.787109 0.976562,0.244141 1.056641,1.054687 -0.732422,1.058594 0.617187,0.164062 0.603516,0.160157 0.40625,-1.21875 0.648437,1.21875 0.814454,-0.894532 0.65039,1.382813 1.216797,0.324219 -0.08008,1.544921 -1.787109,-0.732421 -0.408204,0.488281 -2.193359,-0.8125 -0.398437,-0.742188 -0.169922,-0.314453 -3.25,0.732422 -2.521485,3.738281 0.160157,1.59961 0.166015,1.65039 2.4375,2.355469 2.519531,-0.40625 1.21875,1.382813 -0.730468,2.193359 0.568359,2.681641 -1.625,2.27539 -1.464844,3.496094 2.195313,-0.40625 3.496094,-3.332031 1.707031,-3.169922 1.136719,-3.251953 1.298828,-1.462891 -1.054688,-1.054687 -0.974609,-5.771485 1.136719,2.195313 v 2.84375 l 1.05664,-1.21875 -0.324218,-3.982422 -0.814454,-2.275391 -0.8125,-3.167969 -2.070312,-2.96289 L 38.949215,11.691406 37.49023,9.3984375 34.564449,7.9355469 Z" id="path98" inkscape:connector-curvature="0" inkscape:label="continentes"/>
      <ellipse inkscape:label="red2" transform="matrix(0.918118,-0.39630712,0.3323136,0.94316895,0,0)" ry="5.7845206" rx="23.299454" cy="24.421783" cx="15.769028" id="ellipse8631" style="color:#000000;clip-rule:nonzero;display:inline;overflow:visible;visibility:visible;opacity:1;isolation:auto;mix-blend-mode:normal;color-interpolation:sRGB;color-interpolation-filters:linearRGB;solid-color:#000000;solid-opacity:1;vector-effect:none;fill:none;fill-opacity:0.359375;fill-rule:nonzero;stroke:#000000;stroke-width:0.5005914;stroke-linecap:butt;stroke-linejoin:miter;stroke-miterlimit:4;stroke-dasharray:1.00118278, 0.50059139, 0.25029569, 0.50059139;stroke-dashoffset:0;stroke-opacity:0.16145833;marker:none;marker-start:none;marker-mid:none;marker-end:none;paint-order:fill markers stroke;color-rendering:auto;image-rendering:auto;shape-rendering:auto;text-rendering:auto;enable-background:accumulate"/>
      <ellipse inkscape:label="red2" style="color:#000000;clip-rule:nonzero;display:inline;overflow:visible;visibility:visible;opacity:1;isolation:auto;mix-blend-mode:normal;color-interpolation:sRGB;color-interpolation-filters:linearRGB;solid-color:#000000;solid-opacity:1;vector-effect:none;fill:none;fill-opacity:0.359375;fill-rule:nonzero;stroke:#000000;stroke-width:0.49369234;stroke-linecap:butt;stroke-linejoin:miter;stroke-miterlimit:4;stroke-dasharray:0.98738464, 0.49369232, 0.24684616, 0.49369232;stroke-dashoffset:0;stroke-opacity:0.16145833;marker:none;marker-start:none;marker-mid:none;marker-end:none;paint-order:fill markers stroke;color-rendering:auto;image-rendering:auto;shape-rendering:auto;text-rendering:auto;enable-background:accumulate" id="ellipse8633" cx="31.870098" cy="9.6824093" rx="25.284121" ry="6.2772508" transform="matrix(0.91225052,0.40963276,-0.47132018,0.88196218,0,0)"/>
      <ellipse inkscape:label="red2" transform="matrix(0.35540442,0.93471263,-0.95691513,0.29036774,0,0)" ry="6.1130724" rx="24.622826" cy="-9.2507057" cx="28.91507" id="ellipse8635" style="color:#000000;clip-rule:nonzero;display:inline;overflow:visible;visibility:visible;opacity:1;isolation:auto;mix-blend-mode:normal;color-interpolation:sRGB;color-interpolation-filters:linearRGB;solid-color:#000000;solid-opacity:1;vector-effect:none;fill:none;fill-opacity:0.359375;fill-rule:nonzero;stroke:#000000;stroke-width:0.5005914;stroke-linecap:butt;stroke-linejoin:miter;stroke-miterlimit:4;stroke-dasharray:1.00118278, 0.50059139, 0.25029569, 0.50059139;stroke-dashoffset:0;stroke-opacity:0.16145833;marker:none;marker-start:none;marker-mid:none;marker-end:none;paint-order:fill markers stroke;color-rendering:auto;image-rendering:auto;shape-rendering:auto;text-rendering:auto;enable-background:accumulate"/>
      <ellipse inkscape:label="red2" style="color:#000000;clip-rule:nonzero;display:inline;overflow:visible;visibility:visible;opacity:1;isolation:auto;mix-blend-mode:normal;color-interpolation:sRGB;color-interpolation-filters:linearRGB;solid-color:#000000;solid-opacity:1;vector-effect:none;fill:none;fill-opacity:0.359375;fill-rule:nonzero;stroke:#000000;stroke-width:0.49219921;stroke-linecap:butt;stroke-linejoin:miter;stroke-miterlimit:4;stroke-dasharray:0.98439841, 0.4921992, 0.2460996, 0.4921992;stroke-dashoffset:0;stroke-opacity:0.16145833;marker:none;marker-start:none;marker-mid:none;marker-end:none;paint-order:fill markers stroke;color-rendering:auto;image-rendering:auto;shape-rendering:auto;text-rendering:auto;enable-background:accumulate" id="ellipse8637" cx="7.6608944" cy="-28.172913" rx="24.210035" ry="6.0105896" transform="matrix(-0.50038712,0.86580178,-0.82938999,-0.55867007,0,0)"/>
      <ellipse style="color:#000000;clip-rule:nonzero;display:inline;overflow:visible;visibility:visible;opacity:1;isolation:auto;mix-blend-mode:normal;color-interpolation:sRGB;color-interpolation-filters:linearRGB;solid-color:#000000;solid-opacity:1;vector-effect:none;fill:none;fill-opacity:0.359375;fill-rule:nonzero;stroke:#ffffff;stroke-width:0.5005914;stroke-linecap:butt;stroke-linejoin:miter;stroke-miterlimit:4;stroke-dasharray:1.00118278, 0.50059139, 0.25029569, 0.50059139;stroke-dashoffset:0;stroke-opacity:1;marker:none;marker-start:none;marker-mid:none;marker-end:none;paint-order:fill markers stroke;color-rendering:auto;image-rendering:auto;shape-rendering:auto;text-rendering:auto;enable-background:accumulate" id="path8605" cx="15.452361" cy="23.940208" rx="23.299454" ry="5.7845206" transform="matrix(0.918118,-0.39630712,0.3323136,0.94316895,0,0)" inkscape:label="red"/>
      <ellipse transform="matrix(0.91225052,0.40963276,-0.47132018,0.88196218,0,0)" ry="6.2772508" rx="25.284121" cy="9.5685081" cx="31.323942" id="ellipse8607" style="color:#000000;clip-rule:nonzero;display:inline;overflow:visible;visibility:visible;opacity:1;isolation:auto;mix-blend-mode:normal;color-interpolation:sRGB;color-interpolation-filters:linearRGB;solid-color:#000000;solid-opacity:1;vector-effect:none;fill:none;fill-opacity:0.359375;fill-rule:nonzero;stroke:#ffffff;stroke-width:0.49369234;stroke-linecap:butt;stroke-linejoin:miter;stroke-miterlimit:4;stroke-dasharray:0.98738464, 0.49369232, 0.24684616, 0.49369232;stroke-dashoffset:0;stroke-opacity:1;marker:none;marker-start:none;marker-mid:none;marker-end:none;paint-order:fill markers stroke;color-rendering:auto;image-rendering:auto;shape-rendering:auto;text-rendering:auto;enable-background:accumulate" inkscape:label="red"/>
      <ellipse style="color:#000000;clip-rule:nonzero;display:inline;overflow:visible;visibility:visible;opacity:1;isolation:auto;mix-blend-mode:normal;color-interpolation:sRGB;color-interpolation-filters:linearRGB;solid-color:#000000;solid-opacity:1;vector-effect:none;fill:none;fill-opacity:0.359375;fill-rule:nonzero;stroke:#ffffff;stroke-width:0.5005914;stroke-linecap:butt;stroke-linejoin:miter;stroke-miterlimit:4;stroke-dasharray:1.00118278, 0.50059139, 0.25029569, 0.50059139;stroke-dashoffset:0;stroke-opacity:1;marker:none;marker-start:none;marker-mid:none;marker-end:none;paint-order:fill markers stroke;color-rendering:auto;image-rendering:auto;shape-rendering:auto;text-rendering:auto;enable-background:accumulate" id="ellipse8609" cx="28.468565" cy="-8.9454765" rx="24.622826" ry="6.1130724" transform="matrix(0.35540442,0.93471263,-0.95691513,0.29036774,0,0)" inkscape:label="red"/>
      <ellipse transform="matrix(-0.50038712,0.86580178,-0.82938999,-0.55867007,0,0)" ry="6.0105896" rx="24.210035" cy="-27.626163" cx="7.6403918" id="ellipse8611" style="color:#000000;clip-rule:nonzero;display:inline;overflow:visible;visibility:visible;opacity:1;isolation:auto;mix-blend-mode:normal;color-interpolation:sRGB;color-interpolation-filters:linearRGB;solid-color:#000000;solid-opacity:1;vector-effect:none;fill:none;fill-opacity:0.359375;fill-rule:nonzero;stroke:#ffffff;stroke-width:0.49219921;stroke-linecap:butt;stroke-linejoin:miter;stroke-miterlimit:4;stroke-dasharray:0.98439841, 0.4921992, 0.2460996, 0.4921992;stroke-dashoffset:0;stroke-opacity:1;marker:none;marker-start:none;marker-mid:none;marker-end:none;paint-order:fill markers stroke;color-rendering:auto;image-rendering:auto;shape-rendering:auto;text-rendering:auto;enable-background:accumulate" inkscape:label="red"/>
    </g>
  </g>
</svg>