<?xml version="1.0" encoding="UTF-8" standalone="yes"?>
<svg xmlns:dc="http://purl.org/dc/elements/1.1/" xmlns:cc="http://creativecommons.org/ns#" xmlns:rdf="http://www.w3.org/1999/02/22-rdf-syntax-ns#" xmlns:svg="http://www.w3.org/2000/svg" xmlns="http://www.w3.org/2000/svg" xmlns:xlink="http://www.w3.org/1999/xlink" xmlns:sodipodi="http://sodipodi.sourceforge.net/DTD/sodipodi-0.dtd" xmlns:inkscape="http://www.inkscape.org/namespaces/inkscape" height="128" viewBox="0 0 128 128" width="128" id="svg2" version="1.1" inkscape:version="0.92.2 5c3e80d, 2017-08-06" sodipodi:docname="gufw.svg" enable-background="new" folder="128">
  <title id="title4675">Template icons dark</title>
  <metadata id="metadata24">
    <rdf:RDF>
      <cc:Work rdf:about="">
        <dc:format>image/svg+xml</dc:format>
        <dc:type rdf:resource="http://purl.org/dc/dcmitype/StillImage"/>
        <dc:title>Template icons dark</dc:title>
        <dc:date>17/05/13</dc:date>
        <dc:creator>
          <cc:Agent>
            <dc:title>wfpaisa</dc:title>
          </cc:Agent>
        </dc:creator>
        <dc:rights>
          <cc:Agent>
            <dc:title>License: GPLv3</dc:title>
          </cc:Agent>
        </dc:rights>
        <dc:language>es-en</dc:language>
        <dc:subject>
          <rdf:Bag>
            <rdf:li>plane-icon-theme</rdf:li>
          </rdf:Bag>
        </dc:subject>
        <dc:description>Template for create set icons</dc:description>
        <cc:license rdf:resource="https://www.gnu.org/licenses/gpl-3.0.en.html"/>
      </cc:Work>
    </rdf:RDF>
  </metadata>
  <defs id="defs22">
    <linearGradient id="linearGradient39741">
      <stop id="stop39737" offset="0" style="stop-color:#1d6e99;stop-opacity:1;"/>
      <stop id="stop39739" offset="1" style="stop-color:#f93000;stop-opacity:1;"/>
    </linearGradient>
    <linearGradient inkscape:collect="always" id="linearGradient39682">
      <stop style="stop-color:#492f46;stop-opacity:0.70980394" offset="0" id="stop39678"/>
      <stop style="stop-color:#3c3543;stop-opacity:0.36813188" offset="1" id="stop39680"/>
    </linearGradient>
    <linearGradient inkscape:collect="always" id="linearGradient4208">
      <stop style="stop-color:#000000;stop-opacity:0.51098901" offset="0" id="stop4204"/>
      <stop style="stop-color:#000000;stop-opacity:0.26923078" offset="1" id="stop4206"/>
    </linearGradient>
    <linearGradient inkscape:collect="always" xlink:href="#linearGradient4722" id="linearGradient4720" gradientUnits="userSpaceOnUse" gradientTransform="matrix(0.87883305,0,0,0.87883305,117.72962,-726.32687)" x1="48.843494" y1="994.45337" x2="48.843494" y2="1014.9698"/>
    <linearGradient id="linearGradient4722" inkscape:collect="always">
      <stop id="stop4724" offset="0" style="stop-color:#313131;stop-opacity:0.50980395"/>
      <stop style="stop-color:#dfdfdf;stop-opacity:0.76078433" offset="0.60000002" id="stop4728"/>
      <stop id="stop4726" offset="1" style="stop-color:#ffffff;stop-opacity:1"/>
    </linearGradient>
    <linearGradient inkscape:collect="always" xlink:href="#linearGradient4145" id="linearGradient4147" x1="48.240433" y1="22.744709" x2="48.240433" y2="-17.955055" gradientUnits="userSpaceOnUse" gradientTransform="matrix(1.0633581,0,0,1.0633581,108.95881,153.77824)"/>
    <linearGradient inkscape:collect="always" id="linearGradient4145">
      <stop style="stop-color:#bcbcbc;stop-opacity:1" offset="0" id="stop4141"/>
      <stop style="stop-color:#ffffff;stop-opacity:1" offset="1" id="stop4143"/>
    </linearGradient>
    <linearGradient inkscape:collect="always" xlink:href="#linearGradient10165" id="linearGradient10167" x1="43.115879" y1="25.525976" x2="1.4625005" y2="25.525976" gradientUnits="userSpaceOnUse" gradientTransform="matrix(2.086771,0,0,2.086771,113.04765,106.78735)"/>
    <linearGradient inkscape:collect="always" id="linearGradient10165">
      <stop style="stop-color:#eeeeee;stop-opacity:1;" offset="0" id="stop10161"/>
      <stop id="stop4584" offset="0.41331291" style="stop-color:#a2a2a2;stop-opacity:1;"/>
      <stop id="stop4582" offset="0.49493894" style="stop-color:#707070;stop-opacity:1"/>
      <stop id="stop11618" offset="0.53019929" style="stop-color:#838383;stop-opacity:1"/>
      <stop style="stop-color:#d2d2d2;stop-opacity:1" offset="1" id="stop10163"/>
    </linearGradient>
    <linearGradient inkscape:collect="always" xlink:href="#linearGradient4247" id="linearGradient5819" gradientUnits="userSpaceOnUse" gradientTransform="matrix(1.771737,0,0,1.771737,73.572454,-1618.6902)" x1="50.10355" y1="1012.1684" x2="73.355255" y2="1012.1684"/>
    <linearGradient inkscape:collect="always" id="linearGradient4247">
      <stop style="stop-color:#353d5a;stop-opacity:0.81318682" offset="0" id="stop4243"/>
      <stop style="stop-color:#a33284;stop-opacity:0.58791208" offset="1" id="stop4245"/>
    </linearGradient>
    <linearGradient inkscape:collect="always" xlink:href="#linearGradient4241" id="linearGradient4235" gradientUnits="userSpaceOnUse" gradientTransform="matrix(1.771737,0,0,1.771737,73.572454,-1618.6902)" x1="49.679111" y1="1012.1684" x2="28.449266" y2="1012.1684"/>
    <linearGradient inkscape:collect="always" id="linearGradient4241">
      <stop style="stop-color:#54546a;stop-opacity:1" offset="0" id="stop4237"/>
      <stop style="stop-color:#5a6480;stop-opacity:1" offset="1" id="stop4239"/>
    </linearGradient>
    <linearGradient inkscape:collect="always" xlink:href="#linearGradient39682" id="linearGradient39684" x1="158.14174" y1="123.57748" x2="158.14174" y2="196" gradientUnits="userSpaceOnUse"/>
    <linearGradient inkscape:collect="always" xlink:href="#linearGradient39741" id="linearGradient39735" gradientUnits="userSpaceOnUse" gradientTransform="matrix(1.771737,0,0,1.771737,73.559604,-1618.6235)" x1="55.554264" y1="1018.5549" x2="6.8810019" y2="979.09015"/>
    <linearGradient inkscape:collect="always" xlink:href="#linearGradient10165" id="linearGradient10167-4" x1="43.115879" y1="25.525976" x2="1.4625005" y2="25.525976" gradientUnits="userSpaceOnUse" gradientTransform="matrix(0.52169801,0,0,0.52169801,-55.738177,-57.303381)"/>
    <linearGradient inkscape:collect="always" xlink:href="#linearGradient4247" id="linearGradient5819-75" gradientUnits="userSpaceOnUse" gradientTransform="matrix(0.44293871,0,0,0.44293871,-65.607075,-488.67712)" x1="50.10355" y1="1012.1684" x2="73.355255" y2="1012.1684"/>
    <linearGradient gradientTransform="matrix(0.25000252,0,0,0.25000252,-56.000092,-45.5001)" inkscape:collect="always" xlink:href="#linearGradient4208" id="linearGradient4210-21" x1="50.444756" y1="26.43075" x2="49.479927" y2="-19.018431" gradientUnits="userSpaceOnUse"/>
    <linearGradient inkscape:collect="always" xlink:href="#linearGradient4722" id="linearGradient4720-57" gradientUnits="userSpaceOnUse" gradientTransform="matrix(0.21971048,0,0,0.21971048,-54.567673,-265.58404)" x1="48.843494" y1="994.45337" x2="48.843494" y2="1014.9698"/>
    <linearGradient inkscape:collect="always" xlink:href="#linearGradient4145" id="linearGradient4147-5" x1="48.240433" y1="22.744709" x2="48.240433" y2="-17.955055" gradientUnits="userSpaceOnUse" gradientTransform="matrix(0.2658422,0,0,0.2658422,-56.760397,-45.555541)"/>
    <linearGradient inkscape:collect="always" xlink:href="#linearGradient39741" id="linearGradient39735-53" gradientUnits="userSpaceOnUse" gradientTransform="matrix(0.44293871,0,0,0.44293871,-65.610287,-488.66044)" x1="55.554264" y1="1018.5549" x2="6.8810019" y2="979.09015"/>
    <linearGradient inkscape:collect="always" xlink:href="#linearGradient4241" id="linearGradient4235-3" gradientUnits="userSpaceOnUse" gradientTransform="matrix(0.44293871,0,0,0.44293871,-65.607075,-488.67712)" x1="49.679111" y1="1012.1684" x2="28.449266" y2="1012.1684"/>
    <linearGradient inkscape:collect="always" xlink:href="#linearGradient10165" id="linearGradient10167-40" x1="43.115879" y1="25.525976" x2="1.4625005" y2="25.525976" gradientUnits="userSpaceOnUse" gradientTransform="matrix(0.34779866,0,0,0.34779866,-71.843043,-72.868933)"/>
    <linearGradient inkscape:collect="always" xlink:href="#linearGradient4247" id="linearGradient5819-2" gradientUnits="userSpaceOnUse" gradientTransform="matrix(0.29529246,0,0,0.29529246,-78.422309,-360.4514)" x1="50.10355" y1="1012.1684" x2="73.355255" y2="1012.1684"/>
    <linearGradient inkscape:collect="always" xlink:href="#linearGradient39741" id="linearGradient39735-0" gradientUnits="userSpaceOnUse" gradientTransform="matrix(0.29529246,0,0,0.29529246,-78.42445,-360.44029)" x1="55.554264" y1="1018.5549" x2="6.8810019" y2="979.09015"/>
    <linearGradient inkscape:collect="always" xlink:href="#linearGradient4241" id="linearGradient4235-0" gradientUnits="userSpaceOnUse" gradientTransform="matrix(0.29529246,0,0,0.29529246,-78.422309,-360.4514)" x1="49.679111" y1="1012.1684" x2="28.449266" y2="1012.1684"/>
    <linearGradient inkscape:collect="always" xlink:href="#linearGradient4241" id="linearGradient4235-7" gradientUnits="userSpaceOnUse" gradientTransform="matrix(2.2146743,0,0,2.2146743,165.35124,-1949.9798)" x1="49.679111" y1="1012.1684" x2="28.449266" y2="1012.1684"/>
    <linearGradient inkscape:collect="always" xlink:href="#linearGradient39741" id="linearGradient39735-50" gradientUnits="userSpaceOnUse" gradientTransform="matrix(2.2146743,0,0,2.2146743,165.33518,-1949.8965)" x1="55.554264" y1="1018.5549" x2="6.8810019" y2="979.09015"/>
    <linearGradient inkscape:collect="always" xlink:href="#linearGradient4145" id="linearGradient4147-1" x1="48.240433" y1="22.744709" x2="48.240433" y2="-17.955055" gradientUnits="userSpaceOnUse" gradientTransform="matrix(1.3291994,0,0,1.3291994,209.58425,265.60865)"/>
    <linearGradient inkscape:collect="always" xlink:href="#linearGradient4722" id="linearGradient4720-3" gradientUnits="userSpaceOnUse" gradientTransform="matrix(1.0985428,0,0,1.0985428,220.54778,-834.52423)" x1="48.843494" y1="994.45337" x2="48.843494" y2="1014.9698"/>
    <linearGradient inkscape:collect="always" xlink:href="#linearGradient4247" id="linearGradient5819-15" gradientUnits="userSpaceOnUse" gradientTransform="matrix(2.2146743,0,0,2.2146743,165.35124,-1949.9798)" x1="50.10355" y1="1012.1684" x2="73.355255" y2="1012.1684"/>
    <linearGradient inkscape:collect="always" xlink:href="#linearGradient10165" id="linearGradient10167-76" x1="43.115879" y1="25.525976" x2="1.4625005" y2="25.525976" gradientUnits="userSpaceOnUse" gradientTransform="matrix(2.6084673,0,0,2.6084673,214.6953,206.86996)"/>
    <linearGradient inkscape:collect="always" xlink:href="#linearGradient4241" id="linearGradient4235-4" gradientUnits="userSpaceOnUse" gradientTransform="matrix(1.1811507,0,0,1.1811507,22.317472,-1105.7858)" x1="49.679111" y1="1012.1684" x2="28.449266" y2="1012.1684"/>
    <linearGradient inkscape:collect="always" xlink:href="#linearGradient39741" id="linearGradient39735-06" gradientUnits="userSpaceOnUse" gradientTransform="matrix(1.1811507,0,0,1.1811507,22.308906,-1105.7413)" x1="55.554264" y1="1018.5549" x2="6.8810019" y2="979.09015"/>
    <linearGradient inkscape:collect="always" xlink:href="#linearGradient4145" id="linearGradient4147-2" x1="48.240433" y1="22.744709" x2="48.240433" y2="-17.955055" gradientUnits="userSpaceOnUse" gradientTransform="matrix(0.70890099,0,0,0.70890099,45.908229,75.852359)"/>
    <linearGradient inkscape:collect="always" xlink:href="#linearGradient4722" id="linearGradient4720-4" gradientUnits="userSpaceOnUse" gradientTransform="matrix(0.58588506,0,0,0.58588506,51.7554,-510.88073)" x1="48.843494" y1="994.45337" x2="48.843494" y2="1014.9698"/>
    <linearGradient inkscape:collect="always" xlink:href="#linearGradient4247" id="linearGradient5819-4" gradientUnits="userSpaceOnUse" gradientTransform="matrix(1.1811507,0,0,1.1811507,22.317472,-1105.7858)" x1="50.10355" y1="1012.1684" x2="73.355255" y2="1012.1684"/>
    <linearGradient inkscape:collect="always" xlink:href="#linearGradient10165" id="linearGradient10167-1" x1="43.115879" y1="25.525976" x2="1.4625005" y2="25.525976" gradientUnits="userSpaceOnUse" gradientTransform="matrix(1.391172,0,0,1.391172,48.634106,44.525295)"/>
    <linearGradient inkscape:collect="always" xlink:href="#linearGradient4241" id="linearGradient4235-77" gradientUnits="userSpaceOnUse" gradientTransform="matrix(0.88585814,0,0,0.88585814,-19.253977,-865.33475)" x1="49.679111" y1="1012.1684" x2="28.449266" y2="1012.1684"/>
    <linearGradient inkscape:collect="always" xlink:href="#linearGradient39741" id="linearGradient39735-3" gradientUnits="userSpaceOnUse" gradientTransform="matrix(0.88585814,0,0,0.88585814,-19.260402,-865.3014)" x1="55.554264" y1="1018.5549" x2="6.8810019" y2="979.09015"/>
    <linearGradient inkscape:collect="always" xlink:href="#linearGradient4145" id="linearGradient4147-6" x1="48.240433" y1="22.744709" x2="48.240433" y2="-17.955055" gradientUnits="userSpaceOnUse" gradientTransform="matrix(0.53167283,0,0,0.53167283,-1.5610053,20.8891)"/>
    <linearGradient inkscape:collect="always" xlink:href="#linearGradient4722" id="linearGradient4720-48" gradientUnits="userSpaceOnUse" gradientTransform="matrix(0.43941138,0,0,0.43941138,2.8243484,-419.15831)" x1="48.843494" y1="994.45337" x2="48.843494" y2="1014.9698"/>
    <linearGradient inkscape:collect="always" xlink:href="#linearGradient4247" id="linearGradient5819-3" gradientUnits="userSpaceOnUse" gradientTransform="matrix(0.88585814,0,0,0.88585814,-19.253977,-865.33475)" x1="50.10355" y1="1012.1684" x2="73.355255" y2="1012.1684"/>
    <linearGradient inkscape:collect="always" xlink:href="#linearGradient10165" id="linearGradient10167-8" x1="43.115879" y1="25.525976" x2="1.4625005" y2="25.525976" gradientUnits="userSpaceOnUse" gradientTransform="matrix(1.0433733,0,0,1.0433733,0.48339087,-2.6060701)"/>
    <linearGradient inkscape:collect="always" xlink:href="#linearGradient4241" id="linearGradient4235-1" gradientUnits="userSpaceOnUse" gradientTransform="matrix(0.59058495,0,0,0.59058495,-44.809445,-608.90278)" x1="49.679111" y1="1012.1684" x2="28.449266" y2="1012.1684"/>
    <linearGradient inkscape:collect="always" xlink:href="#linearGradient39741" id="linearGradient39735-9" gradientUnits="userSpaceOnUse" gradientTransform="matrix(0.59058495,0,0,0.59058495,-44.813729,-608.88055)" x1="55.554264" y1="1018.5549" x2="6.8810019" y2="979.09015"/>
    <linearGradient inkscape:collect="always" xlink:href="#linearGradient4145" id="linearGradient4147-17" x1="48.240433" y1="22.744709" x2="48.240433" y2="-17.955055" gradientUnits="userSpaceOnUse" gradientTransform="matrix(0.35445627,0,0,0.35445627,-33.013875,-18.074016)"/>
    <linearGradient inkscape:collect="always" xlink:href="#linearGradient4247" id="linearGradient5819-5" gradientUnits="userSpaceOnUse" gradientTransform="matrix(0.59058495,0,0,0.59058495,-44.809445,-608.90278)" x1="50.10355" y1="1012.1684" x2="73.355255" y2="1012.1684"/>
    <linearGradient inkscape:collect="always" xlink:href="#linearGradient10165" id="linearGradient10167-5" x1="43.115879" y1="25.525976" x2="1.4625005" y2="25.525976" gradientUnits="userSpaceOnUse" gradientTransform="matrix(0.69559734,0,0,0.69559734,-31.650915,-33.737804)"/>
    <symbol id="flame" viewBox="0 0 12 16">
      <title id="title13945">flame</title>
      <path d="M5.05.31c.81 2.17.41 3.38-.52 4.31C3.55 5.67 1.98 6.45.9 7.98c-1.45 2.05-1.7 6.53 3.53 7.7-2.2-1.16-2.67-4.52-.3-6.61-.61 2.03.53 3.33 1.94 2.86 1.39-.47 2.3.53 2.27 1.67-.02.78-.31 1.44-1.13 1.81 3.42-.59 4.78-3.42 4.78-5.56 0-2.84-2.53-3.22-1.25-5.61-1.52.13-2.03 1.13-1.89 2.75.09 1.08-1.02 1.8-1.86 1.33-.67-.41-.66-1.19-.06-1.78C8.18 5.31 8.68 2.45 5.05.32L5.03.3l.02.01z" id="path13947"/>
    </symbol>
    <symbol id="icon-space-shuttle" viewBox="0 0 34 28">
      <title id="title18373">space-shuttle</title>
      <path d="M9.688 17.5c-1.078 0.625-2.547 1-4.188 1h-2v-1h-1c-0.281 0-0.5-0.562-0.5-1.25 0-0.281 0.047-0.547 0.109-0.766-1.203-0.031-2.109-0.234-2.109-0.484s0.906-0.453 2.109-0.484c-0.063-0.219-0.109-0.484-0.109-0.766 0-0.688 0.219-1.25 0.5-1.25h1v-1h2c1.641 0 3.109 0.375 4.188 1h17.391c1.156 0.203 2.203 0.375 2.922 0.5 3 0.5 4 1.5 4 2s-1 1.5-4 2c-0.719 0.125-1.766 0.297-2.922 0.5h-17.391zM27.172 13.563c0.5 0.344 0.828 0.859 0.828 1.437s-0.328 1.094-0.828 1.437l1.266 0.469c0.641-0.453 1.062-1.141 1.062-1.906s-0.422-1.453-1.062-1.906zM9.766 17.75h15.859s-3.391 0.594-7.125 1.25c-2 0-3.5 1.5-3.5 1.5l-4.5 4.5s-1.516 1-2.5 1h-1.5l-1.453-7.25h0.453c1.594 0 3.109-0.359 4.266-1zM5.5 11.25h-0.453l1.453-7.25h1.5c1.016 0 2 0.5 2.5 1l4.5 4.5c0 0 1.5 1.5 3.5 1.5 3.734 0.656 7.125 1.25 7.125 1.25h-15.859c-1.156-0.641-2.672-1-4.266-1z" id="path18375"/>
    </symbol>
  </defs>
  <sodipodi:namedview pagecolor="#383c4a" bordercolor="#ffffff" borderopacity="0.62745098" objecttolerance="4" gridtolerance="10" guidetolerance="4" inkscape:pageopacity="0" inkscape:pageshadow="2" inkscape:window-width="640" inkscape:window-height="480" id="namedview20" showgrid="true" inkscape:zoom="15.622585" inkscape:cx="269.66731" inkscape:cy="-227.19515" inkscape:current-layer="layer12" inkscape:snap-smooth-nodes="false" showguides="true" borderlayer="true" inkscape:showpageshadow="false" inkscape:guide-bbox="true" guidecolor="#bd4fff" guideopacity="0.78431373" inkscape:snap-nodes="true" inkscape:lockguides="false" fit-margin-top="0" fit-margin-left="0" fit-margin-right="0" fit-margin-bottom="0" guidehicolor="#ff0101" guidehiopacity="0.78431373" inkscape:snap-page="true" inkscape:object-nodes="true" inkscape:snap-bbox="true" inkscape:snap-global="true" inkscape:snap-object-midpoints="false" inkscape:snap-bbox-edge-midpoints="false" inkscape:snap-bbox-midpoints="true">
    <inkscape:grid type="xygrid" id="grid4171" empspacing="4" dotted="false" originx="2.7755576e-17" originy="0" spacingx="1" spacingy="1" color="#5a5a5a" opacity="0.23529412" empcolor="#5a5a5a" empopacity="0.47058824" visible="true"/>
    <inkscape:grid type="axonomgrid" id="grid4699" units="mm" empspacing="4" color="#5a5a5a" opacity="0.23529412" empcolor="#5a5a5a" empopacity="0.47058824" gridanglex="45" gridanglez="45" spacingy="3.7795276" visible="false" originx="1.3228346" originy="1.3228346"/>
    <sodipodi:guide position="48,0" orientation="1,0" id="guide4568" inkscape:locked="false" inkscape:label="" inkscape:color="rgb(189,79,255)"/>
    <sodipodi:guide position="111.99996,-3.9999999e-05" orientation="0,1" id="guide4570" inkscape:locked="false" inkscape:label="" inkscape:color="rgb(189,79,255)"/>
    <sodipodi:guide position="0,0" orientation="1,0" id="guide4572" inkscape:locked="false" inkscape:label="" inkscape:color="rgb(189,79,255)"/>
    <sodipodi:guide position="0,48" orientation="0,1" id="guide4574" inkscape:locked="false" inkscape:label="" inkscape:color="rgb(189,79,255)"/>
    <sodipodi:guide position="0,80" orientation="0,1" id="guide4576" inkscape:locked="false" inkscape:label="" inkscape:color="rgb(189,79,255)"/>
    <sodipodi:guide position="-32,48" orientation="1,0" id="guide4578" inkscape:locked="false" inkscape:label="" inkscape:color="rgb(189,79,255)"/>
    <sodipodi:guide position="-32,104" orientation="0,1" id="guide4580" inkscape:locked="false" inkscape:label="" inkscape:color="rgb(189,79,255)"/>
    <sodipodi:guide position="-56,80" orientation="1,0" id="guide4582" inkscape:locked="false" inkscape:label="" inkscape:color="rgb(189,79,255)"/>
    <sodipodi:guide position="48,-64" orientation="0,1" id="guide4584" inkscape:locked="false" inkscape:label="" inkscape:color="rgb(189,79,255)"/>
    <sodipodi:guide position="0,0" orientation="-0.70710678,0.70710678" id="guide4588" inkscape:locked="false" inkscape:label="" inkscape:color="rgb(189,79,255)"/>
    <sodipodi:guide position="-56,80" orientation="-0.70710678,0.70710678" id="guide4573" inkscape:locked="false" inkscape:label="" inkscape:color="rgb(189,79,255)"/>
    <sodipodi:guide position="-32,48" orientation="-0.70710678,0.70710678" id="guide4575" inkscape:locked="false" inkscape:label="" inkscape:color="rgb(189,79,255)"/>
    <sodipodi:guide position="48,-64" orientation="-0.70710678,0.70710678" id="guide4577" inkscape:locked="false" inkscape:label="" inkscape:color="rgb(189,79,255)"/>
    <sodipodi:guide position="47.999962,0" orientation="0.70710678,0.70710678" id="guide4697" inkscape:locked="false" inkscape:label="" inkscape:color="rgb(189,79,255)"/>
    <sodipodi:guide position="207.99995,-288" orientation="0,1" id="guide7833" inkscape:locked="false"/>
    <sodipodi:guide position="335.99994,-288" orientation="1,0" id="guide7835" inkscape:locked="false" inkscape:label="" inkscape:color="rgb(189,79,255)"/>
    <sodipodi:guide position="111.99996,-64" orientation="1,0" id="guide7915" inkscape:locked="false"/>
    <sodipodi:guide position="111.99996,-160" orientation="0,1" id="guide7917" inkscape:locked="false"/>
    <sodipodi:guide position="207.99996,-160" orientation="1,0" id="guide7919" inkscape:locked="false"/>
    <sodipodi:guide position="111.99996,-160" orientation="-0.70710678,0.70710678" id="guide7921" inkscape:locked="false" inkscape:label="" inkscape:color="rgb(189,79,255)"/>
    <sodipodi:guide position="207.99996,-288" orientation="-0.70710678,0.70710678" id="guide7923" inkscape:locked="false" inkscape:label="" inkscape:color="rgb(189,79,255)"/>
    <sodipodi:guide position="-72,104" orientation="1,0" id="guide7824" inkscape:locked="false"/>
    <sodipodi:guide position="-56,120" orientation="0,1" id="guide7826" inkscape:locked="false"/>
    <sodipodi:guide position="-72,104" orientation="-0.70710678,0.70710678" id="guide7828" inkscape:locked="false" inkscape:label="" inkscape:color="rgb(189,79,255)"/>
  </sodipodi:namedview>
  <g inkscape:groupmode="layer" id="layer4" inkscape:label="icon_128" style="display:inline" transform="translate(-207.99995,-208)">
    <g inkscape:groupmode="layer" id="layer11" inkscape:label="frame" style="display:none">
      <rect inkscape:label="frame_128" y="208" x="207.99995" height="128" width="128" id="frame_128" style="color:#000000;clip-rule:nonzero;display:inline;overflow:visible;visibility:visible;opacity:1;isolation:auto;mix-blend-mode:normal;color-interpolation:sRGB;color-interpolation-filters:linearRGB;solid-color:#000000;solid-opacity:1;vector-effect:none;fill:#000000;fill-opacity:1;fill-rule:nonzero;stroke:#ff24f7;stroke-width:0;stroke-linecap:square;stroke-linejoin:miter;stroke-miterlimit:4;stroke-dasharray:none;stroke-dashoffset:0;stroke-opacity:0.99481865;marker:none;marker-start:none;marker-mid:none;marker-end:none;paint-order:normal;color-rendering:auto;image-rendering:auto;shape-rendering:auto;text-rendering:auto;enable-background:accumulate"/>
      <text xml:space="preserve" style="font-size:38.46457672px;line-height:0%;font-family:sans-serif;letter-spacing:0px;word-spacing:0px;display:inline;opacity:1;fill:#ffffff;fill-opacity:1;stroke:none;stroke-width:0.07881754px;stroke-linecap:butt;stroke-linejoin:miter;stroke-opacity:1" x="236.17479" y="283.34512" id="txt_128" inkscape:label="txt_128">
        <tspan sodipodi:role="line" x="236.17479" y="283.34512" style="font-size:38.46457672px;line-height:0%;fill:#ffffff;fill-opacity:1;stroke:none;stroke-width:0.07881754px" id="tspan5069-6">128</tspan>
      </text>
      <text xml:space="preserve" style="font-size:7.43228436px;line-height:1000%;font-family:sans-serif;letter-spacing:0px;word-spacing:0px;display:inline;opacity:1;fill:#ffffff;fill-opacity:0.42156863;stroke:none;stroke-width:0.16398695px;stroke-linecap:butt;stroke-linejoin:miter;stroke-opacity:1" x="265.97781" y="330.1329" id="txt_scalable_64_512" inkscape:label="txt_scalable_64_512">
        <tspan sodipodi:role="line" x="265.97781" y="330.1329" style="font-size:8.08990479px;fill:#ffffff;fill-opacity:0.42156863;stroke:none;stroke-width:0.16398695px" id="tspan5049-1-6-6">Scalable:96-512</tspan>
      </text>
    </g>
    <g inkscape:groupmode="layer" id="layer12" inkscape:label="icon" style="display:inline">
      <path sodipodi:nodetypes="ccccssccccsc" inkscape:connector-curvature="0" style="display:inline;fill:none;fill-opacity:1;stroke:#000000;stroke-width:5.04353857;stroke-miterlimit:4;stroke-dasharray:none;stroke-opacity:0.11538463" d="m 272.69502,215.90976 c -19.68388,0.35381 -54.02214,14.04674 -54.02214,23.14245 l -0.20725,34.40286 c 0,23.68028 38.99552,56.86445 54.64387,57.40718 0.0229,10e-4 0.0459,0 0.0691,0 h 0.34541 c 0.0205,0 0.0474,6.6e-4 0.0691,0 15.64833,-0.54273 54.71294,-33.7269 54.71294,-57.40718 l -0.34542,-34.40286 c 0,-9.09815 -34.27177,-22.79569 -53.95303,-23.14245 -0.25375,-0.005 -0.58013,0 -0.82899,0 -0.16594,0 -0.31954,-0.002 -0.48358,0 z" id="path4084-4" inkscape:label="base sombra"/>
      <path sodipodi:nodetypes="ccccssccccsc" inkscape:connector-curvature="0" style="display:inline;opacity:1;vector-effect:none;fill:url(#linearGradient4235-7);fill-opacity:1;stroke:none;stroke-width:2.21472239;stroke-linecap:butt;stroke-linejoin:miter;stroke-miterlimit:4;stroke-dasharray:none;stroke-dashoffset:0;stroke-opacity:0.07853406" d="m 272.69375,215.80479 c -19.71996,0.35447 -54.12112,14.07248 -54.12112,23.18487 l -0.20763,34.46589 c 0,23.72367 39.06697,56.96864 54.74398,57.51235 0.023,0.001 0.046,0 0.0693,0 h 0.34604 c 0.0204,0 0.0475,6.7e-4 0.0693,0 15.67705,-0.54371 54.81321,-33.78868 54.81321,-57.51235 l -0.34603,-34.46589 c 0,-9.11482 -34.33456,-22.83747 -54.0519,-23.18487 -0.2542,-0.005 -0.58119,0 -0.8305,0 -0.16624,0 -0.32013,-0.002 -0.48447,0 z" id="path3123-52" inkscape:label="base"/>
      <path inkscape:label="base" id="path39733-5" d="m 272.67768,215.88822 c -19.71995,0.35446 -54.12111,14.07248 -54.12111,23.18487 l -0.20764,34.46588 c 0,23.72367 39.06698,56.96864 54.74399,57.51235 0.023,0.001 0.046,0 0.0693,0 h 0.34604 c 0.0204,0 0.0475,6.8e-4 0.0692,0 15.67705,-0.54371 54.81321,-33.78868 54.81321,-57.51235 l -0.34604,-34.46588 c 0,-9.11483 -34.33456,-22.83747 -54.0519,-23.18487 -0.2542,-0.005 -0.58118,0 -0.8305,0 -0.16623,0 -0.32012,-0.002 -0.48446,0 z" style="display:inline;opacity:1;vector-effect:none;fill:url(#linearGradient39735-50);fill-opacity:1;stroke:none;stroke-width:2.21472239;stroke-linecap:butt;stroke-linejoin:miter;stroke-miterlimit:4;stroke-dasharray:none;stroke-dashoffset:0;stroke-opacity:0.07853406" inkscape:connector-curvature="0" sodipodi:nodetypes="ccccssccccsc"/>
      <path style="display:inline;opacity:1;vector-effect:none;fill:#a3eaf1;fill-opacity:0.18681317;stroke:none;stroke-width:2.21472239;stroke-linecap:butt;stroke-linejoin:miter;stroke-miterlimit:4;stroke-dasharray:none;stroke-dashoffset:0;stroke-opacity:0.07853406" d="m 272.69491,215.80522 c -19.71995,0.35446 -54.12118,14.07123 -54.12118,23.18362 l -0.20752,34.46782 c 0,9.95775 6.89061,21.58705 16.03762,31.77739 a 105.13775,98.813678 0 0 1 93.23255,-68.0665 c -3.96335,-9.01239 -35.18622,-21.03741 -53.628,-21.36233 -0.2542,-0.005 -0.58077,0 -0.83008,0 -0.16623,0 -0.31907,-0.002 -0.48339,0 z" id="path4259-4" inkscape:connector-curvature="0"/>
      <path style="color:#000000;clip-rule:nonzero;display:inline;overflow:visible;visibility:visible;opacity:1;isolation:auto;mix-blend-mode:normal;color-interpolation:sRGB;color-interpolation-filters:linearRGB;solid-color:#000000;solid-opacity:1;vector-effect:none;fill:none;fill-opacity:0.57142861;fill-rule:nonzero;stroke:#000000;stroke-width:1.8750025;stroke-linecap:square;stroke-linejoin:miter;stroke-miterlimit:3.70000005;stroke-dasharray:none;stroke-dashoffset:0;stroke-opacity:0.2857143;marker:none;marker-start:none;marker-mid:none;marker-end:none;paint-order:markers stroke fill;color-rendering:auto;image-rendering:auto;shape-rendering:auto;text-rendering:auto;enable-background:accumulate" d="m 301.54062,240.71905 c 14.96235,14.96235 1.311,7.02285 1.311,28.1828 0,21.15994 13.65135,13.22045 -1.311,28.18279 -14.96236,14.96236 -7.02286,1.31101 -28.18281,1.31101 -21.15994,0 -13.22044,13.65135 -28.18279,-1.311 -14.96236,-14.96235 -1.31101,-7.02286 -1.31101,-28.1828 1e-5,-21.15996 -13.65135,-13.22045 1.31101,-28.18281 14.96235,-14.96235 7.02285,-1.311 28.18279,-1.311 21.15995,0 13.22045,-13.65135 28.18281,1.31101 z" id="path4257-7" inkscape:connector-curvature="0"/>
      <path style="color:#000000;clip-rule:nonzero;display:inline;overflow:visible;visibility:visible;opacity:1;isolation:auto;mix-blend-mode:normal;color-interpolation:sRGB;color-interpolation-filters:linearRGB;solid-color:#000000;solid-opacity:1;vector-effect:none;fill:#d5d5d5;fill-opacity:1;fill-rule:nonzero;stroke:none;stroke-width:2.50000334;stroke-linecap:square;stroke-linejoin:miter;stroke-miterlimit:3.70000005;stroke-dasharray:none;stroke-dashoffset:0;stroke-opacity:0.98901098;marker:none;marker-start:none;marker-mid:none;marker-end:none;paint-order:markers stroke fill;color-rendering:auto;image-rendering:auto;shape-rendering:auto;text-rendering:auto;enable-background:accumulate" d="m 301.54062,240.71905 c 14.96235,14.96235 1.311,7.02285 1.311,28.1828 0,21.15994 13.65135,13.22045 -1.311,28.18279 -14.96236,14.96236 -7.02286,1.31101 -28.18281,1.31101 -21.15994,0 -13.22044,13.65135 -28.18279,-1.311 -14.96236,-14.96235 -1.31101,-7.02286 -1.31101,-28.1828 1e-5,-21.15996 -13.65135,-13.22045 1.31101,-28.18281 14.96235,-14.96235 7.02285,-1.311 28.18279,-1.311 21.15995,0 13.22045,-13.65135 28.18281,1.31101 z" id="path4255-44" inkscape:connector-curvature="0"/>
      <path style="display:inline;fill:#000000;fill-opacity:0.35714291;stroke:none;stroke-width:9.76016712;stroke-miterlimit:4;stroke-dasharray:none;stroke-opacity:1" d="m 273.38582,240.03746 c 17.11197,0 30.88803,13.77606 30.88803,30.88803 0,17.11196 -13.77606,30.88803 -30.88803,30.88803 -17.11197,0 -30.88803,-13.77607 -30.88803,-30.88803 0,-17.11197 13.77606,-30.88803 30.88803,-30.88803 z" id="rect4151-3" inkscape:connector-curvature="0"/>
      <path style="display:inline;fill:url(#linearGradient4147-1);fill-opacity:1;stroke:none;stroke-width:9.76016712;stroke-miterlimit:4;stroke-dasharray:none;stroke-opacity:1" d="m 273.38582,238.70827 c 17.11197,0 30.88803,13.77606 30.88803,30.88802 0,17.11197 -13.77606,30.88803 -30.88803,30.88803 -17.11197,0 -30.88803,-13.77606 -30.88803,-30.88803 0,-17.11196 13.77606,-30.88802 30.88803,-30.88802 z" id="rect4086-0" inkscape:connector-curvature="0"/>
      <path style="color:#000000;clip-rule:nonzero;display:inline;overflow:visible;visibility:visible;opacity:1;isolation:auto;mix-blend-mode:normal;color-interpolation:sRGB;color-interpolation-filters:linearRGB;solid-color:#000000;solid-opacity:1;fill:url(#linearGradient4720-3);fill-opacity:1;fill-rule:nonzero;stroke:none;stroke-width:0.2371202;stroke-linecap:round;stroke-linejoin:miter;stroke-miterlimit:4;stroke-dasharray:none;stroke-dashoffset:0;stroke-opacity:1;marker:none;marker-start:none;marker-mid:none;marker-end:none;paint-order:normal;color-rendering:auto;image-rendering:auto;shape-rendering:auto;text-rendering:auto;enable-background:accumulate" d="m 285.66769,269.63553 a 12.281867,12.281867 0 0 1 -12.28187,12.28186 12.281867,12.281867 0 0 1 -12.28187,-12.28186 12.281867,12.281867 0 0 1 12.28187,-12.28187 12.281867,12.281867 0 0 1 12.28187,12.28187 z" id="circle4718-7" inkscape:connector-curvature="0"/>
      <path style="color:#000000;clip-rule:nonzero;display:inline;overflow:visible;visibility:visible;opacity:1;isolation:auto;mix-blend-mode:normal;color-interpolation:sRGB;color-interpolation-filters:linearRGB;solid-color:#000000;solid-opacity:1;fill:#494949;fill-opacity:1;fill-rule:nonzero;stroke:none;stroke-width:1.50625205;stroke-linecap:round;stroke-linejoin:miter;stroke-miterlimit:4;stroke-dasharray:none;stroke-dashoffset:0;stroke-opacity:0.40659341;marker:none;marker-start:none;marker-mid:none;marker-end:none;paint-order:normal;color-rendering:auto;image-rendering:auto;shape-rendering:auto;text-rendering:auto;enable-background:accumulate" d="m 269,252 h 9 v 22 l -2,6 2,2 v 5 h -9 v -23 l 3,-5 -3,-3 z" id="rect5850-86" inkscape:connector-curvature="0" sodipodi:nodetypes="ccccccccccc" inkscape:label="llave ojo"/>
      <path inkscape:connector-curvature="0" id="path5815-8" d="m 273.48612,215.80372 v 115.16453 h 0.0382 c 0.0204,0 0.0451,6.6e-4 0.0669,0 15.67704,-0.54371 54.81435,-33.78935 54.81435,-57.513 l -0.3439,-34.46674 c 0,-9.11482 -34.33755,-22.83739 -54.05488,-23.18479 -0.16016,-0.002 -0.34031,-9.3e-4 -0.52064,0 z" style="display:inline;opacity:0.43859648;fill:url(#linearGradient5819-15);fill-opacity:1;stroke:none;stroke-width:2.21472239;stroke-opacity:0.07853406" inkscape:label="base derecho"/>
      <path id="path4706-4" d="m 272.70941,217.10734 c -19.27374,0.34644 -52.89651,13.75406 -52.89651,22.66026 l -0.20293,33.68603 c 0,23.18687 38.18299,55.67962 53.50529,56.21102 0.0225,0.001 0.0449,0 0.0676,0 h 0.33822 c 0.0201,0 0.0464,6.5e-4 0.0676,0 15.32228,-0.5314 53.57292,-33.02415 53.57292,-56.21102 l -0.33821,-33.68603 c 0,-8.90857 -33.55767,-22.32072 -52.82886,-22.66026 -0.24845,-0.005 -0.56804,0 -0.8117,0 -0.16249,0 -0.31289,-0.002 -0.4735,0 z" style="display:inline;fill:none;fill-opacity:1;stroke:url(#linearGradient10167-76);stroke-width:4.93844986;stroke-miterlimit:4;stroke-dasharray:none;stroke-opacity:1" inkscape:connector-curvature="0" sodipodi:nodetypes="ccccssccccsc" inkscape:label="base borde blanco"/>
      <path style="color:#000000;font-style:normal;font-variant:normal;font-weight:normal;font-stretch:normal;font-size:medium;line-height:normal;font-family:sans-serif;font-variant-ligatures:normal;font-variant-position:normal;font-variant-caps:normal;font-variant-numeric:normal;font-variant-alternates:normal;font-feature-settings:normal;text-indent:0;text-align:start;text-decoration:none;text-decoration-line:none;text-decoration-style:solid;text-decoration-color:#000000;letter-spacing:normal;word-spacing:normal;text-transform:none;writing-mode:lr-tb;direction:ltr;text-orientation:mixed;dominant-baseline:auto;baseline-shift:baseline;text-anchor:start;white-space:normal;shape-padding:0;clip-rule:nonzero;display:inline;overflow:visible;visibility:visible;opacity:1;isolation:auto;mix-blend-mode:normal;color-interpolation:sRGB;color-interpolation-filters:linearRGB;solid-color:#000000;solid-opacity:1;vector-effect:none;fill:#060606;fill-opacity:0.45054985;fill-rule:nonzero;stroke:none;stroke-width:4.93844986;stroke-linecap:butt;stroke-linejoin:miter;stroke-miterlimit:4;stroke-dasharray:none;stroke-dashoffset:0;stroke-opacity:1;color-rendering:auto;image-rendering:auto;shape-rendering:auto;text-rendering:auto;enable-background:accumulate" d="m 272.67781,215.88822 0.0317,3.68897 -0.0244,-3.68897 c -0.002,0 -0.005,-3e-5 -0.007,0 z m 0.0659,3.68897 c -0.0143,2.6e-4 -0.0296,0.002 -0.044,0.002 l 0.01,1.24756 -0.0125,-1.24756 c -9.08825,0.17571 -22.16918,3.531 -32.71488,7.92726 -5.28332,2.20249 -9.9545,4.67129 -13.16164,7.00684 -3.20713,2.33556 -4.53858,4.58101 -4.53858,5.25392 v 0.007 l -0.20264,33.67925 c 0,0.0415 0.007,0.0854 0.007,0.12695 l 0.19531,-32.5562 v -0.007 c 0,-0.67291 1.33145,-2.91836 4.53858,-5.25392 3.20714,-2.33555 7.87833,-4.80435 13.16165,-7.00684 10.5632,-4.40356 23.67124,-7.76428 32.76127,-7.9297 0.002,-4e-5 0.008,4e-5 0.01,0 0.11437,-0.001 0.24853,0 0.42968,0 0.27323,0 0.58684,-0.004 0.76905,0 9.08827,0.16012 22.18246,3.51965 32.73199,7.92482 5.27475,2.20258 9.93872,4.67348 13.13965,7.00929 3.20094,2.33579 4.53126,4.57942 4.53126,5.25635 v 0.0125 l 0.32715,32.62456 c 7.4e-4,-0.0649 0.01,-0.13316 0.01,-0.19776 l -0.33681,-33.67685 v -0.0125 c 0,-0.67692 -1.33033,-2.92055 -4.53126,-5.25634 -3.20093,-2.33576 -7.86491,-4.80667 -13.13967,-7.00925 -10.54951,-4.40516 -23.64371,-7.76468 -32.73197,-7.92482 -0.18222,-0.004 -0.49582,0 -0.76905,0 -0.18116,0 -0.31534,-0.001 -0.42969,0 -0.002,4e-5 -0.007,-3e-5 -0.01,0 z" id="path4098-3" inkscape:connector-curvature="0" sodipodi:nodetypes="cccccccccsssccccsssccscsssccccscscsccc" inkscape:label="base borde blanco sombra"/>
      <path style="display:inline;fill:#ffffff;fill-opacity:0.75824178;stroke:none;stroke-width:9.76016712;stroke-miterlimit:4;stroke-dasharray:none;stroke-opacity:1" d="m 273.38582,238.70807 c -17.11197,0 -30.88872,13.77676 -30.88872,30.88872 0,0.20965 0.013,0.41638 0.0171,0.625 0.33187,-16.82002 13.96931,-30.26371 30.87163,-30.26371 16.90232,0 30.53975,13.44369 30.87163,30.26371 0.004,-0.20862 0.0171,-0.41535 0.0171,-0.625 0,-17.11196 -13.77674,-30.88872 -30.88871,-30.88872 z" id="path1323-1" inkscape:connector-curvature="0"/>
    </g>
  </g>
</svg>