<?xml version="1.0" encoding="UTF-8" standalone="yes"?>
<svg xmlns:dc="http://purl.org/dc/elements/1.1/" xmlns:cc="http://creativecommons.org/ns#" xmlns:rdf="http://www.w3.org/1999/02/22-rdf-syntax-ns#" xmlns:svg="http://www.w3.org/2000/svg" xmlns="http://www.w3.org/2000/svg" xmlns:xlink="http://www.w3.org/1999/xlink" xmlns:sodipodi="http://sodipodi.sourceforge.net/DTD/sodipodi-0.dtd" xmlns:inkscape="http://www.inkscape.org/namespaces/inkscape" height="128" viewBox="0 0 128 128" width="128" id="svg2" version="1.1" inkscape:version="0.92.2 5c3e80d, 2017-08-06" sodipodi:docname="preferences-desktop.svg" enable-background="new" folder="128">
  <title id="title4675">Template icons dark</title>
  <metadata id="metadata24">
    <rdf:RDF>
      <cc:Work rdf:about="">
        <dc:format>image/svg+xml</dc:format>
        <dc:type rdf:resource="http://purl.org/dc/dcmitype/StillImage"/>
        <dc:title>Template icons dark</dc:title>
        <dc:date>17/05/13</dc:date>
        <dc:creator>
          <cc:Agent>
            <dc:title>wfpaisa</dc:title>
          </cc:Agent>
        </dc:creator>
        <dc:rights>
          <cc:Agent>
            <dc:title>License: GPLv3</dc:title>
          </cc:Agent>
        </dc:rights>
        <dc:language>es-en</dc:language>
        <dc:subject>
          <rdf:Bag>
            <rdf:li>plane-icon-theme</rdf:li>
          </rdf:Bag>
        </dc:subject>
        <dc:description>Template for create set icons</dc:description>
        <cc:license rdf:resource="https://www.gnu.org/licenses/gpl-3.0.en.html"/>
      </cc:Work>
    </rdf:RDF>
  </metadata>
  <defs id="defs22">
    <linearGradient inkscape:collect="always" id="linearGradient1388">
      <stop style="stop-color:#cfdde2;stop-opacity:1" offset="0" id="stop1384"/>
      <stop style="stop-color:#90a1b1;stop-opacity:1" offset="1" id="stop1386"/>
    </linearGradient>
    <linearGradient inkscape:collect="always" id="linearGradient1374">
      <stop style="stop-color:#ffffff;stop-opacity:0" offset="0" id="stop1370"/>
      <stop id="stop1378" offset="0.48049781" style="stop-color:#ffffff;stop-opacity:1"/>
      <stop style="stop-color:#f5f6f6;stop-opacity:0" offset="1" id="stop1372"/>
    </linearGradient>
    <linearGradient inkscape:collect="always" id="linearGradient1319">
      <stop style="stop-color:#eaf2f7;stop-opacity:1" offset="0" id="stop1315"/>
      <stop style="stop-color:#99b4c0;stop-opacity:1" offset="1" id="stop1317"/>
    </linearGradient>
    <linearGradient id="linearGradient1199" inkscape:collect="always">
      <stop id="stop1195" offset="0" style="stop-color:#c1dae3;stop-opacity:1"/>
      <stop id="stop1197" offset="1" style="stop-color:#8a98b4;stop-opacity:1"/>
    </linearGradient>
    <linearGradient inkscape:collect="always" id="linearGradient7891">
      <stop style="stop-color:#d2d2d2;stop-opacity:1" offset="0" id="stop7887"/>
      <stop style="stop-color:#939393;stop-opacity:1" offset="1" id="stop7889"/>
    </linearGradient>
    <linearGradient inkscape:collect="always" id="linearGradient7758">
      <stop style="stop-color:#671e1e;stop-opacity:1" offset="0" id="stop7754"/>
      <stop style="stop-color:#d04044;stop-opacity:1" offset="1" id="stop7756"/>
    </linearGradient>
    <linearGradient inkscape:collect="always" xlink:href="#linearGradient5419" id="linearGradient5425" x1="10.429825" y1="43.068272" x2="38.890873" y2="13.193013" gradientUnits="userSpaceOnUse" gradientTransform="matrix(0.9649266,0,0,0.9649266,-2.12316,-5.210928)"/>
    <linearGradient id="linearGradient5419">
      <stop style="stop-color:#0c708e;stop-opacity:1;" offset="0" id="stop5421"/>
      <stop style="stop-color:#4dc3a3;stop-opacity:1;" offset="1" id="stop5423"/>
    </linearGradient>
    <linearGradient inkscape:collect="always" xlink:href="#linearGradient1388" id="linearGradient7893" x1="161.70172" y1="118.89846" x2="161.70172" y2="197.93216" gradientUnits="userSpaceOnUse"/>
    <linearGradient inkscape:collect="always" xlink:href="#linearGradient7758" id="linearGradient7760-3" x1="162.58794" y1="185.95032" x2="162.58794" y2="134.43561" gradientUnits="userSpaceOnUse" gradientTransform="matrix(0.93996715,0,0,0.93996715,-124.0425,-124.16093)"/>
    <linearGradient inkscape:collect="always" xlink:href="#linearGradient7758" id="linearGradient1166" gradientUnits="userSpaceOnUse" gradientTransform="matrix(0.93996715,0,0,0.93996715,9.6851028,9.9555173)" x1="162.58794" y1="185.95032" x2="162.58794" y2="134.43561"/>
    <linearGradient gradientTransform="translate(-115,-115.12599)" inkscape:collect="always" xlink:href="#linearGradient7891" id="linearGradient7893-5" x1="161.70172" y1="118.89846" x2="161.70172" y2="197.93216" gradientUnits="userSpaceOnUse"/>
    <linearGradient inkscape:collect="always" xlink:href="#linearGradient1319" id="linearGradient1321" x1="168.35246" y1="125.66496" x2="168.35246" y2="190.8166" gradientUnits="userSpaceOnUse"/>
    <linearGradient inkscape:collect="always" xlink:href="#linearGradient5419" id="linearGradient5425-62" x1="10.429825" y1="43.068272" x2="38.890873" y2="13.193013" gradientUnits="userSpaceOnUse" gradientTransform="matrix(0.9649266,0,0,0.9649266,-135.77092,-138.98468)"/>
    <linearGradient inkscape:collect="always" xlink:href="#linearGradient1199" id="linearGradient1348" gradientUnits="userSpaceOnUse" x1="161.70172" y1="118.89846" x2="161.70172" y2="197.93216"/>
    <linearGradient inkscape:collect="always" xlink:href="#linearGradient1374" id="linearGradient1376" x1="146.80354" y1="139.47923" x2="174.4657" y2="139.47923" gradientUnits="userSpaceOnUse" gradientTransform="matrix(0.43047969,0,0,0.70272293,90.79219,41.511806)"/>
    <linearGradient inkscape:collect="always" xlink:href="#linearGradient1374" id="linearGradient1376-7" x1="146.80354" y1="139.47923" x2="174.4657" y2="139.47923" gradientUnits="userSpaceOnUse" gradientTransform="matrix(0.29664256,0,0,0.48424473,32.30908,-1.6499335)"/>
    <linearGradient inkscape:collect="always" xlink:href="#linearGradient5419" id="linearGradient5425-9" x1="10.429825" y1="43.068272" x2="38.890873" y2="13.193013" gradientUnits="userSpaceOnUse" gradientTransform="matrix(0.66492867,0,0,0.66492867,-31.718672,-33.846462)"/>
    <linearGradient gradientTransform="matrix(0.68909768,0,0,0.68909768,-30.255607,-30.255622)" inkscape:collect="always" xlink:href="#linearGradient1319" id="linearGradient1321-8" x1="168.35246" y1="125.66496" x2="168.35246" y2="190.8166" gradientUnits="userSpaceOnUse"/>
    <linearGradient gradientTransform="matrix(0.68909768,0,0,0.68909768,-30.255607,-30.255622)" inkscape:collect="always" xlink:href="#linearGradient1388" id="linearGradient7893-361" x1="161.70172" y1="118.89846" x2="161.70172" y2="197.93216" gradientUnits="userSpaceOnUse"/>
    <linearGradient inkscape:collect="always" xlink:href="#linearGradient1388" id="linearGradient1506" gradientUnits="userSpaceOnUse" x1="161.70172" y1="118.89846" x2="161.70172" y2="197.93216"/>
    <linearGradient inkscape:collect="always" xlink:href="#linearGradient7758" id="linearGradient1508" gradientUnits="userSpaceOnUse" gradientTransform="matrix(0.93996715,0,0,0.93996715,9.6851028,9.9555173)" x1="162.58794" y1="185.95032" x2="162.58794" y2="134.43561"/>
    <linearGradient inkscape:collect="always" xlink:href="#linearGradient1388" id="linearGradient1523" gradientUnits="userSpaceOnUse" x1="161.70172" y1="118.89846" x2="161.70172" y2="197.93216"/>
    <linearGradient inkscape:collect="always" xlink:href="#linearGradient1374" id="linearGradient1376-3" x1="146.80354" y1="139.47923" x2="174.4657" y2="139.47923" gradientUnits="userSpaceOnUse" gradientTransform="matrix(0.55545785,0,0,0.90673956,182.4407,119.57893)"/>
    <linearGradient inkscape:collect="always" xlink:href="#linearGradient5419" id="linearGradient5425-7" x1="10.429825" y1="43.068272" x2="38.890873" y2="13.193013" gradientUnits="userSpaceOnUse" gradientTransform="matrix(1.245067,0,0,1.245067,62.54989,59.291519)"/>
    <linearGradient gradientTransform="matrix(1.290323,0,0,1.290323,65.289452,66.015302)" inkscape:collect="always" xlink:href="#linearGradient1319" id="linearGradient1321-6" x1="168.35246" y1="125.66496" x2="168.35246" y2="190.8166" gradientUnits="userSpaceOnUse"/>
    <linearGradient gradientTransform="matrix(1.290323,0,0,1.290323,65.289452,66.015302)" inkscape:collect="always" xlink:href="#linearGradient1388" id="linearGradient1523-7" gradientUnits="userSpaceOnUse" x1="161.70172" y1="118.89846" x2="161.70172" y2="197.93216"/>
    <linearGradient inkscape:collect="always" xlink:href="#linearGradient1374" id="linearGradient1376-1" x1="146.80354" y1="139.47923" x2="174.4657" y2="139.47923" gradientUnits="userSpaceOnUse" gradientTransform="matrix(0.22218314,0,0,0.36269582,-11.720143,-37.155215)"/>
    <linearGradient inkscape:collect="always" xlink:href="#linearGradient5419" id="linearGradient5425-2" x1="10.429825" y1="43.068272" x2="38.890873" y2="13.193013" gradientUnits="userSpaceOnUse" gradientTransform="matrix(0.49802679,0,0,0.49802679,-59.67647,-61.270184)"/>
    <linearGradient gradientTransform="matrix(0.5161292,0,0,0.5161292,-58.580645,-58.580671)" inkscape:collect="always" xlink:href="#linearGradient1319" id="linearGradient1321-4" x1="168.35246" y1="125.66496" x2="168.35246" y2="190.8166" gradientUnits="userSpaceOnUse"/>
    <linearGradient gradientTransform="matrix(0.5161292,0,0,0.5161292,-58.580645,-58.580671)" inkscape:collect="always" xlink:href="#linearGradient1388" id="linearGradient1523-0" gradientUnits="userSpaceOnUse" x1="161.70172" y1="118.89846" x2="161.70172" y2="197.93216"/>
    <linearGradient inkscape:collect="always" xlink:href="#linearGradient1374" id="linearGradient1376-9" x1="146.80354" y1="139.47923" x2="174.4657" y2="139.47923" gradientUnits="userSpaceOnUse" gradientTransform="matrix(0.14812209,0,0,0.24179721,-39.813426,-56.770143)"/>
    <linearGradient inkscape:collect="always" xlink:href="#linearGradient5419" id="linearGradient5425-6" x1="10.429825" y1="43.068272" x2="38.890873" y2="13.193013" gradientUnits="userSpaceOnUse" gradientTransform="matrix(0.33201786,0,0,0.33201786,-71.78431,-72.846786)"/>
    <linearGradient gradientTransform="matrix(0.34408613,0,0,0.34408613,-71.05376,-71.053778)" inkscape:collect="always" xlink:href="#linearGradient1319" id="linearGradient1321-65" x1="168.35246" y1="125.66496" x2="168.35246" y2="190.8166" gradientUnits="userSpaceOnUse"/>
    <linearGradient gradientTransform="matrix(0.34408613,0,0,0.34408613,-71.05376,-71.053778)" inkscape:collect="always" xlink:href="#linearGradient1388" id="linearGradient1523-9" gradientUnits="userSpaceOnUse" x1="161.70172" y1="118.89846" x2="161.70172" y2="197.93216"/>
    <linearGradient inkscape:collect="always" xlink:href="#linearGradient5419" id="linearGradient5425-0" x1="10.429825" y1="43.068272" x2="38.890873" y2="13.193013" gradientUnits="userSpaceOnUse" gradientTransform="matrix(0.2490134,0,0,0.2490134,-85.838233,-86.635097)"/>
    <linearGradient gradientTransform="matrix(0.2580646,0,0,0.2580646,-85.290321,-85.290341)" inkscape:collect="always" xlink:href="#linearGradient1319" id="linearGradient1321-44" x1="168.35246" y1="125.66496" x2="168.35246" y2="190.8166" gradientUnits="userSpaceOnUse"/>
    <linearGradient gradientTransform="matrix(0.2580646,0,0,0.2580646,-85.290321,-85.290341)" inkscape:collect="always" xlink:href="#linearGradient1388" id="linearGradient1523-3" gradientUnits="userSpaceOnUse" x1="161.70172" y1="118.89846" x2="161.70172" y2="197.93216"/>
    <linearGradient inkscape:collect="always" xlink:href="#linearGradient5419" id="linearGradient5425-3" x1="10.429825" y1="43.068272" x2="38.890873" y2="13.193013" gradientUnits="userSpaceOnUse" gradientTransform="matrix(0.16600893,0,0,0.16600893,-91.892129,-92.42343)"/>
    <linearGradient gradientTransform="matrix(0.17204307,0,0,0.17204307,-91.526854,-91.526926)" inkscape:collect="always" xlink:href="#linearGradient1388" id="linearGradient1523-8" gradientUnits="userSpaceOnUse" x1="161.70172" y1="118.89846" x2="161.70172" y2="197.93216"/>
  </defs>
  <sodipodi:namedview pagecolor="#383c4a" bordercolor="#ffffff" borderopacity="0.62745098" objecttolerance="4" gridtolerance="10" guidetolerance="4" inkscape:pageopacity="0" inkscape:pageshadow="2" inkscape:window-width="640" inkscape:window-height="480" id="namedview20" showgrid="true" inkscape:zoom="2.0853184" inkscape:cx="213.96524" inkscape:cy="-120.9237" inkscape:current-layer="layer6" inkscape:snap-smooth-nodes="false" showguides="true" borderlayer="true" inkscape:showpageshadow="false" inkscape:guide-bbox="true" guidecolor="#bd4fff" guideopacity="0.78431373" inkscape:snap-nodes="true" inkscape:lockguides="false" fit-margin-top="0" fit-margin-left="0" fit-margin-right="0" fit-margin-bottom="0" guidehicolor="#ff0101" guidehiopacity="0.78431373" inkscape:snap-page="true" inkscape:object-nodes="true" inkscape:snap-bbox="true" inkscape:snap-global="true" inkscape:snap-object-midpoints="false" inkscape:snap-bbox-edge-midpoints="false">
    <inkscape:grid type="xygrid" id="grid4171" empspacing="4" dotted="false" originx="2.7755576e-17" originy="0" spacingx="1" spacingy="1" color="#5a5a5a" opacity="0.23529412" empcolor="#5a5a5a" empopacity="0.47058824" visible="true"/>
    <inkscape:grid type="axonomgrid" id="grid4699" units="mm" empspacing="4" color="#5a5a5a" opacity="0.23529412" empcolor="#5a5a5a" empopacity="0.47058824" gridanglex="45" gridanglez="45" spacingy="3.7795276" visible="false" originx="1.3228346" originy="1.3228346"/>
    <sodipodi:guide position="48,0" orientation="1,0" id="guide4568" inkscape:locked="false" inkscape:label="" inkscape:color="rgb(189,79,255)"/>
    <sodipodi:guide position="111.99996,-3.9999999e-05" orientation="0,1" id="guide4570" inkscape:locked="false" inkscape:label="" inkscape:color="rgb(189,79,255)"/>
    <sodipodi:guide position="0,0" orientation="1,0" id="guide4572" inkscape:locked="false" inkscape:label="" inkscape:color="rgb(189,79,255)"/>
    <sodipodi:guide position="0,48" orientation="0,1" id="guide4574" inkscape:locked="false" inkscape:label="" inkscape:color="rgb(189,79,255)"/>
    <sodipodi:guide position="0,80" orientation="0,1" id="guide4576" inkscape:locked="false" inkscape:label="" inkscape:color="rgb(189,79,255)"/>
    <sodipodi:guide position="-32,48" orientation="1,0" id="guide4578" inkscape:locked="false" inkscape:label="" inkscape:color="rgb(189,79,255)"/>
    <sodipodi:guide position="-32,104" orientation="0,1" id="guide4580" inkscape:locked="false" inkscape:label="" inkscape:color="rgb(189,79,255)"/>
    <sodipodi:guide position="-56,80" orientation="1,0" id="guide4582" inkscape:locked="false" inkscape:label="" inkscape:color="rgb(189,79,255)"/>
    <sodipodi:guide position="48,-64" orientation="0,1" id="guide4584" inkscape:locked="false" inkscape:label="" inkscape:color="rgb(189,79,255)"/>
    <sodipodi:guide position="0,0" orientation="-0.70710678,0.70710678" id="guide4588" inkscape:locked="false" inkscape:label="" inkscape:color="rgb(189,79,255)"/>
    <sodipodi:guide position="-56,80" orientation="-0.70710678,0.70710678" id="guide4573" inkscape:locked="false" inkscape:label="" inkscape:color="rgb(189,79,255)"/>
    <sodipodi:guide position="-32,48" orientation="-0.70710678,0.70710678" id="guide4575" inkscape:locked="false" inkscape:label="" inkscape:color="rgb(189,79,255)"/>
    <sodipodi:guide position="48,-64" orientation="-0.70710678,0.70710678" id="guide4577" inkscape:locked="false" inkscape:label="" inkscape:color="rgb(189,79,255)"/>
    <sodipodi:guide position="47.999962,0" orientation="0.70710678,0.70710678" id="guide4697" inkscape:locked="false" inkscape:label="" inkscape:color="rgb(189,79,255)"/>
    <sodipodi:guide position="207.99995,-288" orientation="0,1" id="guide7833" inkscape:locked="false"/>
    <sodipodi:guide position="335.99994,-288" orientation="1,0" id="guide7835" inkscape:locked="false" inkscape:label="" inkscape:color="rgb(189,79,255)"/>
    <sodipodi:guide position="111.99996,-64" orientation="1,0" id="guide7915" inkscape:locked="false"/>
    <sodipodi:guide position="111.99996,-160" orientation="0,1" id="guide7917" inkscape:locked="false"/>
    <sodipodi:guide position="207.99996,-160" orientation="1,0" id="guide7919" inkscape:locked="false"/>
    <sodipodi:guide position="111.99996,-160" orientation="-0.70710678,0.70710678" id="guide7921" inkscape:locked="false" inkscape:label="" inkscape:color="rgb(189,79,255)"/>
    <sodipodi:guide position="207.99996,-288" orientation="-0.70710678,0.70710678" id="guide7923" inkscape:locked="false" inkscape:label="" inkscape:color="rgb(189,79,255)"/>
    <sodipodi:guide position="-72,104" orientation="1,0" id="guide7824" inkscape:locked="false"/>
    <sodipodi:guide position="-56,120" orientation="0,1" id="guide7826" inkscape:locked="false"/>
    <sodipodi:guide position="-72,104" orientation="-0.70710678,0.70710678" id="guide7828" inkscape:locked="false" inkscape:label="" inkscape:color="rgb(189,79,255)"/>
  </sodipodi:namedview>
  <g inkscape:groupmode="layer" id="layer4" inkscape:label="icon_128" style="display:inline" transform="translate(-207.99995,-208)">
    <g inkscape:groupmode="layer" id="layer11" inkscape:label="frame" style="display:none">
      <rect inkscape:label="frame_128" y="208" x="207.99995" height="128" width="128" id="frame_128" style="color:#000000;clip-rule:nonzero;display:inline;overflow:visible;visibility:visible;opacity:1;isolation:auto;mix-blend-mode:normal;color-interpolation:sRGB;color-interpolation-filters:linearRGB;solid-color:#000000;solid-opacity:1;vector-effect:none;fill:#000000;fill-opacity:1;fill-rule:nonzero;stroke:#ff24f7;stroke-width:0;stroke-linecap:square;stroke-linejoin:miter;stroke-miterlimit:4;stroke-dasharray:none;stroke-dashoffset:0;stroke-opacity:0.99481865;marker:none;marker-start:none;marker-mid:none;marker-end:none;paint-order:normal;color-rendering:auto;image-rendering:auto;shape-rendering:auto;text-rendering:auto;enable-background:accumulate"/>
      <text xml:space="preserve" style="font-size:38.46457672px;line-height:0%;font-family:sans-serif;letter-spacing:0px;word-spacing:0px;display:inline;opacity:1;fill:#ffffff;fill-opacity:1;stroke:none;stroke-width:0.07881754px;stroke-linecap:butt;stroke-linejoin:miter;stroke-opacity:1" x="236.17479" y="283.34512" id="txt_128" inkscape:label="txt_128">
        <tspan sodipodi:role="line" x="236.17479" y="283.34512" style="font-size:38.46457672px;line-height:0%;fill:#ffffff;fill-opacity:1;stroke:none;stroke-width:0.07881754px" id="tspan5069-6">128</tspan>
      </text>
      <text xml:space="preserve" style="font-size:7.43228436px;line-height:1000%;font-family:sans-serif;letter-spacing:0px;word-spacing:0px;display:inline;opacity:1;fill:#ffffff;fill-opacity:0.42156863;stroke:none;stroke-width:0.16398695px;stroke-linecap:butt;stroke-linejoin:miter;stroke-opacity:1" x="265.97781" y="330.1329" id="txt_scalable_64_512" inkscape:label="txt_scalable_64_512">
        <tspan sodipodi:role="line" x="265.97781" y="330.1329" style="font-size:8.08990479px;fill:#ffffff;fill-opacity:0.42156863;stroke:none;stroke-width:0.16398695px" id="tspan5049-1-6-6">Scalable:96-512</tspan>
      </text>
    </g>
    <g inkscape:groupmode="layer" id="layer12" inkscape:label="icon" style="display:inline">
      <path inkscape:label="base sombra" sodipodi:nodetypes="cccccccccccssccccccccccsscccccsccccssccccccccccscccscsc" inkscape:connector-curvature="0" id="path1242-2" d="m 264.62056,214.40246 c -0.98557,0 -1.53602,0.77955 -1.78142,1.68186 l -3.78172,13.91263 c -2.582,0.92123 -5.97384,2.20821 -8.26026,3.40479 l -12.51952,-7.20511 c -0.81038,-0.4665 -1.75131,-0.6272 -2.4482,0.0697 l -10.18083,10.18071 c -0.69687,0.69684 -0.53418,1.62662 -0.0695,2.43818 l 7.03601,12.30047 c -1.51545,2.71756 -2.74288,5.58596 -3.66232,8.55856 l -13.59433,3.66227 c -0.90292,0.24307 -1.68188,0.79586 -1.68188,1.78137 v 14.40031 c 0,0.9855 0.77954,1.52602 1.68188,1.77142 l 13.29578,3.62246 c 0.89135,3.13365 2.12275,6.16041 3.67226,9.0263 l -6.85689,11.92228 c -0.46653,0.81034 -0.62721,1.75127 0.0697,2.44815 l 10.18081,10.18071 c 0.69687,0.69689 1.62668,0.53421 2.43822,0.0695 l 11.7632,-6.73736 c 2.92139,1.62485 6.01591,2.91671 9.22544,3.85136 l 3.53292,13.10661 c 0.24307,0.90291 0.79585,1.68183 1.78138,1.68183 h 14.40046 c 0.98553,0 1.52605,-0.77954 1.77144,-1.68183 l 3.57274,-13.1165 c 3.16763,-0.93663 6.22164,-2.22165 9.10602,-3.83146 l 11.89257,6.83688 c 0.81037,0.46655 1.7513,0.62722 2.44819,-0.0697 l 10.18083,-10.18072 c 0.69688,-0.69685 0.53418,-1.6366 0.0697,-2.44815 l -6.89673,-12.03175 c 1.49855,-2.80716 2.69293,-5.76636 3.56282,-8.82727 l 13.55451,-3.66224 c 0.90291,-0.24309 1.68185,-0.78591 1.68185,-1.77146 v -14.40028 c 0,-0.98553 -0.77954,-1.53597 -1.68185,-1.78138 l -13.78341,-3.7419 c -0.88576,-2.8916 -2.06282,-5.68579 -3.51304,-8.33961 l 7.18529,-12.47961 c 0.46652,-0.81034 0.62724,-1.75127 -0.0695,-2.44814 l -10.18082,-10.18071 c -0.69689,-0.6969 -1.63661,-0.53421 -2.44817,-0.0698 l -12.50958,7.16533 c -2.75797,-1.13227 -5.64444,-2.53005 -8.22023,-3.36413 l -3.79167,-14.0221 c -0.24308,-0.90292 -0.78593,-1.68188 -1.77147,-1.68188 h -14.40057 z m 7.1291,36.88224 c 11.73062,0 21.24012,9.50945 21.24012,21.23991 -10e-6,11.73044 -9.50952,21.23988 -21.24012,21.23988 -11.73058,0 -21.2401,-9.50944 -21.2401,-21.23988 0,-11.73046 9.5095,-21.23991 21.2401,-21.23991 z" style="color:#000000;clip-rule:nonzero;display:inline;overflow:visible;visibility:visible;opacity:1;isolation:auto;mix-blend-mode:normal;color-interpolation:sRGB;color-interpolation-filters:linearRGB;solid-color:#000000;solid-opacity:1;vector-effect:none;fill:none;fill-opacity:1;fill-rule:nonzero;stroke:#000000;stroke-width:3.87096906;stroke-linecap:butt;stroke-linejoin:miter;stroke-miterlimit:4;stroke-dasharray:none;stroke-dashoffset:0;stroke-opacity:0.16753929;marker:none;marker-start:none;marker-mid:none;marker-end:none;paint-order:fill markers stroke;color-rendering:auto;image-rendering:auto;shape-rendering:auto;text-rendering:auto;enable-background:accumulate"/>
      <path style="color:#000000;clip-rule:nonzero;display:inline;overflow:visible;visibility:visible;opacity:1;isolation:auto;mix-blend-mode:normal;color-interpolation:sRGB;color-interpolation-filters:linearRGB;solid-color:#000000;solid-opacity:1;vector-effect:none;fill:url(#linearGradient1523-7);fill-opacity:1;fill-rule:nonzero;stroke:none;stroke-width:2.41601968;stroke-linecap:butt;stroke-linejoin:miter;stroke-miterlimit:4;stroke-dasharray:none;stroke-dashoffset:0;stroke-opacity:0.14136125;marker:none;marker-start:none;marker-mid:none;marker-end:none;paint-order:fill markers stroke;color-rendering:auto;image-rendering:auto;shape-rendering:auto;text-rendering:auto;enable-background:accumulate" d="m 264.62056,214.40246 c -0.98557,0 -1.53602,0.77955 -1.78142,1.68186 l -3.78172,13.91263 c -2.582,0.92123 -5.97384,2.20821 -8.26026,3.40479 l -12.51952,-7.20511 c -0.81038,-0.4665 -1.75131,-0.6272 -2.4482,0.0697 l -10.18083,10.18071 c -0.69687,0.69684 -0.53418,1.62662 -0.0695,2.43818 l 7.03601,12.30047 c -1.51545,2.71756 -2.74288,5.58596 -3.66232,8.55856 l -13.59433,3.66227 c -0.90292,0.24307 -1.68188,0.79586 -1.68188,1.78137 v 14.40031 c 0,0.9855 0.77954,1.52602 1.68188,1.77142 l 13.29578,3.62246 c 0.89135,3.13365 2.12275,6.16041 3.67226,9.0263 l -6.85689,11.92228 c -0.46653,0.81034 -0.62721,1.75127 0.0697,2.44815 l 10.18081,10.18071 c 0.69687,0.69689 1.62668,0.53421 2.43822,0.0695 l 11.7632,-6.73736 c 2.92139,1.62485 6.01591,2.91671 9.22544,3.85136 l 3.53292,13.10661 c 0.24307,0.90291 0.79585,1.68183 1.78138,1.68183 h 14.40046 c 0.98553,0 1.52605,-0.77954 1.77144,-1.68183 l 3.57274,-13.1165 c 3.16763,-0.93663 6.22164,-2.22165 9.10602,-3.83146 l 11.89257,6.83688 c 0.81037,0.46655 1.7513,0.62722 2.44819,-0.0697 l 10.18083,-10.18072 c 0.69688,-0.69685 0.53418,-1.6366 0.0697,-2.44815 l -6.89673,-12.03175 c 1.49855,-2.80716 2.69293,-5.76636 3.56282,-8.82727 l 13.55451,-3.66224 c 0.90291,-0.24309 1.68185,-0.78591 1.68185,-1.77146 v -14.40028 c 0,-0.98553 -0.77954,-1.53597 -1.68185,-1.78138 l -13.78341,-3.7419 c -0.88576,-2.8916 -2.06282,-5.68579 -3.51304,-8.33961 l 7.18529,-12.47961 c 0.46652,-0.81034 0.62724,-1.75127 -0.0695,-2.44814 l -10.18082,-10.18071 c -0.69689,-0.6969 -1.63661,-0.53421 -2.44817,-0.0698 l -12.50958,7.16533 c -2.75797,-1.13227 -5.64444,-2.53005 -8.22023,-3.36413 l -3.79167,-14.0221 c -0.24308,-0.90292 -0.78593,-1.68188 -1.77147,-1.68188 h -14.40057 z m 7.1291,36.88224 c 11.73062,0 21.24012,9.50945 21.24012,21.23991 -10e-6,11.73044 -9.50952,21.23988 -21.24012,21.23988 -11.73058,0 -21.2401,-9.50944 -21.2401,-21.23988 0,-11.73046 9.5095,-21.23991 21.2401,-21.23991 z" id="path44247-5" inkscape:connector-curvature="0" sodipodi:nodetypes="cccccccccccssccccccccccsscccccsccccssccccccccccscccscsc" inkscape:label="base"/>
      <path style="color:#000000;font-style:normal;font-variant:normal;font-weight:normal;font-stretch:normal;font-size:medium;line-height:normal;font-family:sans-serif;text-indent:0;text-align:start;text-decoration:none;text-decoration-line:none;text-decoration-style:solid;text-decoration-color:#000000;letter-spacing:normal;word-spacing:normal;text-transform:none;writing-mode:lr-tb;direction:ltr;baseline-shift:baseline;text-anchor:start;white-space:normal;clip-rule:nonzero;display:inline;overflow:visible;visibility:visible;opacity:1;isolation:auto;mix-blend-mode:normal;color-interpolation:sRGB;color-interpolation-filters:linearRGB;solid-color:#000000;solid-opacity:1;vector-effect:none;fill:#000000;fill-opacity:0.17277485;fill-rule:nonzero;stroke:none;stroke-width:4.25055742;stroke-linecap:butt;stroke-linejoin:miter;stroke-miterlimit:4;stroke-dasharray:none;stroke-dashoffset:0;stroke-opacity:0.14136125;marker:none;marker-start:none;marker-mid:none;marker-end:none;paint-order:fill markers stroke;color-rendering:auto;image-rendering:auto;shape-rendering:auto;text-rendering:auto;enable-background:accumulate" d="m 271.74907,226.64454 c -25.21382,0 -45.83044,20.60067 -45.83044,45.81443 0,25.21381 20.61662,45.83045 45.83044,45.83045 25.21377,0 45.81448,-20.61664 45.81448,-45.83045 0,-25.21376 -20.60071,-45.81443 -45.81448,-45.81443 z m 10e-4,9.72062 c 20.06172,0 36.09201,16.03034 36.09201,36.09201 0,20.06177 -16.03029,36.11163 -36.09201,36.11163 -20.06167,0 -36.11165,-16.04986 -36.11165,-36.11163 0,-20.06167 16.04998,-36.09201 36.11165,-36.09201 z" id="path1313-4" inkscape:connector-curvature="0" sodipodi:nodetypes="ssssssssss" inkscape:label="r"/>
      <path inkscape:label="r" sodipodi:nodetypes="ssssssssss" inkscape:connector-curvature="0" id="path1309-7" d="m 271.74882,228.0316 c -24.45057,0 -44.44313,19.97708 -44.44313,44.42761 0,24.45058 19.99256,44.44315 44.44313,44.44315 24.45055,0 44.42767,-19.99257 44.42767,-44.44315 0,-24.45053 -19.97712,-44.42761 -44.42767,-44.42761 z m 10e-4,9.42639 c 19.45443,0 34.99948,15.54509 34.99948,34.99947 0,19.4545 -15.54505,35.01851 -34.99948,35.01851 -19.45441,0 -35.01853,-15.56401 -35.01853,-35.01851 0,-19.45438 15.56412,-34.99947 35.01853,-34.99947 z" style="color:#000000;font-style:normal;font-variant:normal;font-weight:normal;font-stretch:normal;font-size:medium;line-height:normal;font-family:sans-serif;text-indent:0;text-align:start;text-decoration:none;text-decoration-line:none;text-decoration-style:solid;text-decoration-color:#000000;letter-spacing:normal;word-spacing:normal;text-transform:none;writing-mode:lr-tb;direction:ltr;baseline-shift:baseline;text-anchor:start;white-space:normal;clip-rule:nonzero;display:inline;overflow:visible;visibility:visible;opacity:1;isolation:auto;mix-blend-mode:normal;color-interpolation:sRGB;color-interpolation-filters:linearRGB;solid-color:#000000;solid-opacity:1;vector-effect:none;fill:url(#linearGradient1321-6);fill-opacity:1;fill-rule:nonzero;stroke:none;stroke-width:4.12189054;stroke-linecap:butt;stroke-linejoin:miter;stroke-miterlimit:4;stroke-dasharray:none;stroke-dashoffset:0;stroke-opacity:0.14136125;marker:none;marker-start:none;marker-mid:none;marker-end:none;paint-order:fill markers stroke;color-rendering:auto;image-rendering:auto;shape-rendering:auto;text-rendering:auto;enable-background:accumulate"/>
      <path inkscape:label="azul" sodipodi:nodetypes="ssssssssss" inkscape:connector-curvature="0" id="path1323-4" d="m 271.74718,237.44639 c -19.27008,0 -35.0267,15.74442 -35.0267,35.01446 0,19.2701 15.75662,35.02672 35.0267,35.02672 19.27006,0 35.01452,-15.75662 35.01452,-35.02672 0,-19.27004 -15.74446,-35.01446 -35.01452,-35.01446 z m 0.003,8.83706 c 14.58611,0 26.24113,11.65504 26.24113,26.24112 0,14.58616 -11.65502,26.2554 -26.24113,26.2554 -14.58609,0 -26.2554,-11.66924 -26.2554,-26.2554 0,-14.58608 11.66931,-26.24112 26.2554,-26.24112 z" style="color:#000000;font-style:normal;font-variant:normal;font-weight:normal;font-stretch:normal;font-size:medium;line-height:normal;font-family:sans-serif;text-indent:0;text-align:start;text-decoration:none;text-decoration-line:none;text-decoration-style:solid;text-decoration-color:#000000;letter-spacing:normal;word-spacing:normal;text-transform:none;writing-mode:lr-tb;direction:ltr;baseline-shift:baseline;text-anchor:start;white-space:normal;clip-rule:nonzero;display:inline;overflow:visible;visibility:visible;opacity:1;isolation:auto;mix-blend-mode:normal;color-interpolation:sRGB;color-interpolation-filters:linearRGB;solid-color:#000000;solid-opacity:1;vector-effect:none;fill:url(#linearGradient5425-7);fill-opacity:1;fill-rule:nonzero;stroke:none;stroke-width:2.58064604;stroke-linecap:butt;stroke-linejoin:miter;stroke-miterlimit:4;stroke-dasharray:none;stroke-dashoffset:0;stroke-opacity:1;marker:none;marker-start:none;marker-mid:none;marker-end:none;paint-order:fill markers stroke;color-rendering:auto;image-rendering:auto;shape-rendering:auto;text-rendering:auto;enable-background:accumulate"/>
      <path style="color:#000000;font-style:normal;font-variant:normal;font-weight:normal;font-stretch:normal;font-size:medium;line-height:normal;font-family:sans-serif;text-indent:0;text-align:start;text-decoration:none;text-decoration-line:none;text-decoration-style:solid;text-decoration-color:#000000;letter-spacing:normal;word-spacing:normal;text-transform:none;writing-mode:lr-tb;direction:ltr;baseline-shift:baseline;text-anchor:start;white-space:normal;clip-rule:nonzero;display:inline;overflow:visible;visibility:visible;opacity:1;isolation:auto;mix-blend-mode:normal;color-interpolation:sRGB;color-interpolation-filters:linearRGB;solid-color:#000000;solid-opacity:1;vector-effect:none;fill:#000000;fill-opacity:0.2827225;fill-rule:nonzero;stroke:none;stroke-width:3.24856091;stroke-linecap:butt;stroke-linejoin:miter;stroke-miterlimit:4;stroke-dasharray:none;stroke-dashoffset:0;stroke-opacity:0.14136125;marker:none;marker-start:none;marker-mid:none;marker-end:none;paint-order:fill markers stroke;color-rendering:auto;image-rendering:auto;shape-rendering:auto;text-rendering:auto;enable-background:accumulate" d="m 271.74618,237.44682 c -19.27009,0 -35.02521,15.74507 -35.02521,35.01512 0,0.21651 0.0116,0.42956 0.0151,0.64516 0.34808,-18.9741 15.95621,-34.36996 35.0101,-34.36996 19.05386,0 34.6522,15.39586 35.00002,34.36996 0.004,-0.2156 0.0151,-0.42865 0.0151,-0.64516 0,-19.27005 -15.74506,-35.01512 -35.01512,-35.01512 z" id="path1212-3" inkscape:connector-curvature="0" sodipodi:nodetypes="cscscscc" inkscape:label="rojo sombra sup"/>
      <path style="color:#000000;clip-rule:nonzero;display:inline;overflow:visible;visibility:visible;opacity:1;isolation:auto;mix-blend-mode:normal;color-interpolation:sRGB;color-interpolation-filters:linearRGB;solid-color:#000000;solid-opacity:1;vector-effect:none;fill:#ffffff;fill-opacity:0.67539266;fill-rule:nonzero;stroke:none;stroke-width:2.41601968;stroke-linecap:butt;stroke-linejoin:miter;stroke-miterlimit:4;stroke-dasharray:none;stroke-dashoffset:0;stroke-opacity:0.14136125;marker:none;marker-start:none;marker-mid:none;marker-end:none;paint-order:fill markers stroke;color-rendering:auto;image-rendering:auto;shape-rendering:auto;text-rendering:auto;enable-background:accumulate" d="m 264.62167,214.40245 c -0.98557,0 -1.53636,0.77863 -1.78175,1.68094 l -3.78277,13.91382 c -2.582,0.92123 -5.97467,2.20816 -8.26108,3.40474 l -12.51765,-7.20515 c -0.81037,-0.4665 -1.75271,-0.62631 -2.4496,0.0706 l -10.18146,10.17893 c -0.52266,0.52263 -0.5594,1.17798 -0.35029,1.81452 0.0761,-0.18401 0.18727,-0.36116 0.35029,-0.5242 l 10.18146,-10.17893 c 0.69689,-0.69688 1.63923,-0.53707 2.4496,-0.0706 l 12.51765,7.20515 c 2.28641,-1.19658 5.67908,-2.48351 8.26108,-3.40473 l 3.78277,-13.91383 c 0.24539,-0.90231 0.79618,-1.68094 1.78175,-1.68094 h 14.40021 c 0.98554,0 1.5286,0.78055 1.77167,1.68347 l 3.79032,14.02219 c 2.57581,0.83407 5.4628,2.22961 8.22078,3.36188 l 12.51008,-7.16481 c 0.81156,-0.4644 1.75019,-0.62634 2.44708,0.0706 l 10.18145,10.18145 c 0.16425,0.16427 0.27665,0.34274 0.35283,0.52923 0.20845,-0.63841 0.1691,-1.29757 -0.35283,-1.81956 l -10.18145,-10.18145 c -0.69689,-0.6969 -1.63552,-0.53496 -2.44708,-0.0706 l -12.51008,7.16482 c -2.75798,-1.13227 -5.64497,-2.52781 -8.22078,-3.36189 l -3.79032,-14.02218 c -0.24307,-0.90292 -0.78613,-1.68347 -1.77167,-1.68347 z m -32.35887,37.45717 c -1.34874,2.51843 -2.46446,5.15519 -3.30899,7.88558 l -13.59627,3.6618 c -0.90292,0.24308 -1.68094,0.79625 -1.68094,1.78176 v 1.29032 c 0,-0.98551 0.77802,-1.53868 1.68094,-1.78175 l 13.59627,-3.66181 c 0.91945,-2.97259 2.14635,-5.84091 3.6618,-8.55847 z m 78.91383,0.30493 -0.3503,0.60988 c 1.45022,2.65382 2.62734,5.44762 3.5131,8.33922 l 13.78529,3.74244 c 0.90231,0.24541 1.68095,0.79622 1.68095,1.78175 v -1.29032 c 0,-0.98553 -0.77864,-1.53635 -1.68095,-1.78175 l -13.78529,-3.74244 c -0.81102,-2.64764 -1.87725,-5.20745 -3.1628,-7.65878 z m -79.19862,42.4471 -6.50958,11.31804 c -0.35655,0.61933 -0.5293,1.31573 -0.28226,1.92037 0.0698,-0.21388 0.16519,-0.42669 0.28226,-0.63005 l 6.85736,-11.92036 c -0.12232,-0.22615 -0.22947,-0.45987 -0.34778,-0.688 z m 79.37252,0 c -0.11691,0.22825 -0.22446,0.46169 -0.34527,0.688 l 6.89768,12.03125 c 0.11613,0.20289 0.21257,0.41442 0.28226,0.62753 0.24664,-0.60438 0.0728,-1.29757 -0.28226,-1.91785 z" id="path1201-0" inkscape:connector-curvature="0" sodipodi:nodetypes="scccccccccccccsscccccccccccccsscccsccccccccccsccccccccccccccc" inkscape:label="brillo superior"/>
      <path style="color:#000000;font-style:normal;font-variant:normal;font-weight:normal;font-stretch:normal;font-size:medium;line-height:normal;font-family:sans-serif;text-indent:0;text-align:start;text-decoration:none;text-decoration-line:none;text-decoration-style:solid;text-decoration-color:#000000;letter-spacing:normal;word-spacing:normal;text-transform:none;writing-mode:lr-tb;direction:ltr;baseline-shift:baseline;text-anchor:start;white-space:normal;clip-rule:nonzero;display:inline;overflow:visible;visibility:visible;opacity:1;isolation:auto;mix-blend-mode:normal;color-interpolation:sRGB;color-interpolation-filters:linearRGB;solid-color:#000000;solid-opacity:1;vector-effect:none;fill:#000000;fill-opacity:0.16753929;fill-rule:nonzero;stroke:none;stroke-width:2.63429356;stroke-linecap:butt;stroke-linejoin:miter;stroke-miterlimit:4;stroke-dasharray:none;stroke-dashoffset:0;stroke-opacity:0.14136125;marker:none;marker-start:none;marker-mid:none;marker-end:none;paint-order:fill markers stroke;color-rendering:auto;image-rendering:auto;shape-rendering:auto;text-rendering:auto;enable-background:accumulate" d="m 271.74773,247.97061 c -14.86564,0 -27.02085,12.1458 -27.02085,27.01139 0,14.86563 12.15521,27.02085 27.02085,27.02085 14.8656,0 27.01142,-12.15522 27.01142,-27.02085 0,-14.86559 -12.14582,-27.01139 -27.01142,-27.01139 z m -0.003,11.10411 c 8.87612,0 15.96858,7.09247 15.96858,15.96856 0,8.87616 -7.09246,15.97726 -15.96858,15.97726 -8.8761,0 -15.97725,-7.1011 -15.97725,-15.97726 0,-8.87609 7.10115,-15.96856 15.97725,-15.96856 z" id="path1210-7" inkscape:connector-curvature="0" sodipodi:nodetypes="ssssssssss" inkscape:label="sombra"/>
      <path sodipodi:nodetypes="sssss" inkscape:connector-curvature="0" id="path1206-8" d="m 271.82264,245.59051 c -14.86563,0 -27.02085,12.1458 -27.02085,27.01139 0,14.86563 12.15522,27.02085 27.02085,27.02085 14.86561,0 27.01143,-12.15522 27.01143,-27.02085 0,-14.86559 -12.14582,-27.01139 -27.01143,-27.01139 z" style="color:#000000;font-style:normal;font-variant:normal;font-weight:normal;font-stretch:normal;font-size:medium;line-height:normal;font-family:sans-serif;text-indent:0;text-align:start;text-decoration:none;text-decoration-line:none;text-decoration-style:solid;text-decoration-color:#000000;letter-spacing:normal;word-spacing:normal;text-transform:none;writing-mode:lr-tb;direction:ltr;baseline-shift:baseline;text-anchor:start;white-space:normal;clip-rule:nonzero;display:inline;overflow:visible;visibility:visible;opacity:1;isolation:auto;mix-blend-mode:normal;color-interpolation:sRGB;color-interpolation-filters:linearRGB;solid-color:#000000;solid-opacity:1;vector-effect:none;fill:#b1c7d0;fill-opacity:1;fill-rule:nonzero;stroke:none;stroke-width:2.63429356;stroke-linecap:butt;stroke-linejoin:miter;stroke-miterlimit:4;stroke-dasharray:none;stroke-dashoffset:0;stroke-opacity:0.14136125;marker:none;marker-start:none;marker-mid:none;marker-end:none;paint-order:fill markers stroke;color-rendering:auto;image-rendering:auto;shape-rendering:auto;text-rendering:auto;enable-background:accumulate" inkscape:label="aro interior"/>
      <path sodipodi:nodetypes="sscscsss" style="color:#000000;font-style:normal;font-variant:normal;font-weight:normal;font-stretch:normal;font-size:medium;line-height:normal;font-family:sans-serif;text-indent:0;text-align:start;text-decoration:none;text-decoration-line:none;text-decoration-style:solid;text-decoration-color:#000000;letter-spacing:normal;word-spacing:normal;text-transform:none;writing-mode:lr-tb;direction:ltr;baseline-shift:baseline;text-anchor:start;white-space:normal;clip-rule:nonzero;display:inline;overflow:visible;visibility:visible;opacity:1;isolation:auto;mix-blend-mode:normal;color-interpolation:sRGB;color-interpolation-filters:linearRGB;solid-color:#000000;solid-opacity:1;vector-effect:none;fill:#ffffff;fill-opacity:0.69109946;fill-rule:nonzero;stroke:none;stroke-width:2.63429356;stroke-linecap:butt;stroke-linejoin:miter;stroke-miterlimit:4;stroke-dasharray:none;stroke-dashoffset:0;stroke-opacity:0.14136125;marker:none;marker-start:none;marker-mid:none;marker-end:none;paint-order:fill markers stroke;color-rendering:auto;image-rendering:auto;shape-rendering:auto;text-rendering:auto;enable-background:accumulate" d="m 271.82218,245.59123 c -14.86563,0 -27.0196,12.14442 -27.0196,27.01001 0,0.20575 0.0103,0.40907 0.0143,0.61375 0.33003,-14.58382 12.34534,-26.39625 27.00521,-26.39625 14.65985,0 26.66582,11.81244 26.99561,26.39625 0.005,-0.20469 0.0168,-0.408 0.0168,-0.61375 0,-14.86559 -12.1468,-27.01001 -27.0124,-27.01001 z" id="path1237-8" inkscape:connector-curvature="0" inkscape:label="aro interior brillo"/>
      <path sodipodi:nodetypes="ccccccccccccccccc" inkscape:connector-curvature="0" id="path1117-8" d="M 257,257.00005 276,257 v 9 h -11.00004 l 4e-5,21 h -8 z M 268.01,269.01 h 7.98 L 276,287.01575 268,287 Z M 279,257 h 8 v 30 h -8 z" style="display:inline;fill:#000000;fill-opacity:0.23626374;stroke-width:0.14970808"/>
      <path style="display:inline;fill:#000000;fill-opacity:0.23076926;stroke-width:0.14970808" d="m 257,257 v 1 h 19 v -1 z m 22,0 v 1 h 7.99996 L 287,257 Z M 268.01,269.01 268,270 h 8 l -0.01,-0.99 z" id="path1121-7" inkscape:connector-curvature="0" sodipodi:nodetypes="ccccccccccccccc"/>
      <path inkscape:connector-curvature="0" id="path1126-9" d="m 257,288 v -1 h 8 v 1 z m 22,0 v -1 h 8 v 1 z m -11,0 v -1 l 8,0.0158 V 288 Z" style="display:inline;fill:#ffffff;fill-opacity:0.43406593;stroke-width:0.14970808" sodipodi:nodetypes="ccccccccccccccc"/>
      <rect inkscape:label="brillo" y="245.39023" x="263.98389" height="1.3201247" width="15.36516" id="rect1366-3" style="color:#000000;clip-rule:nonzero;display:inline;overflow:visible;visibility:visible;opacity:1;isolation:auto;mix-blend-mode:normal;color-interpolation:sRGB;color-interpolation-filters:linearRGB;solid-color:#000000;solid-opacity:1;vector-effect:none;fill:url(#linearGradient1376-3);fill-opacity:1;fill-rule:nonzero;stroke:none;stroke-width:1.41937399;stroke-linecap:butt;stroke-linejoin:miter;stroke-miterlimit:4;stroke-dasharray:none;stroke-dashoffset:0;stroke-opacity:1;marker:none;marker-start:none;marker-mid:none;marker-end:none;paint-order:fill markers stroke;color-rendering:auto;image-rendering:auto;shape-rendering:auto;text-rendering:auto;enable-background:accumulate"/>
    </g>
  </g>
</svg>