<?xml version="1.0" encoding="UTF-8" standalone="yes"?>
<svg xmlns:dc="http://purl.org/dc/elements/1.1/" xmlns:cc="http://creativecommons.org/ns#" xmlns:rdf="http://www.w3.org/1999/02/22-rdf-syntax-ns#" xmlns:svg="http://www.w3.org/2000/svg" xmlns="http://www.w3.org/2000/svg" xmlns:xlink="http://www.w3.org/1999/xlink" xmlns:sodipodi="http://sodipodi.sourceforge.net/DTD/sodipodi-0.dtd" xmlns:inkscape="http://www.inkscape.org/namespaces/inkscape" height="32" viewBox="0 0 32 32" width="32" id="svg2" version="1.1" inkscape:version="0.92.1 r" sodipodi:docname="atom.svg" enable-background="new" folder="32">
  <title id="title4675">Template icons dark</title>
  <metadata id="metadata24">
    <rdf:RDF>
      <cc:Work rdf:about="">
        <dc:format>image/svg+xml</dc:format>
        <dc:type rdf:resource="http://purl.org/dc/dcmitype/StillImage"/>
        <dc:title>Template icons dark</dc:title>
        <dc:date>17/05/13</dc:date>
        <dc:creator>
          <cc:Agent>
            <dc:title>wfpaisa</dc:title>
          </cc:Agent>
        </dc:creator>
        <dc:rights>
          <cc:Agent>
            <dc:title>License: GPLv3</dc:title>
          </cc:Agent>
        </dc:rights>
        <dc:language>es-en</dc:language>
        <dc:subject>
          <rdf:Bag>
            <rdf:li>plane-icon-theme</rdf:li>
          </rdf:Bag>
        </dc:subject>
        <dc:description>Template for create set icons</dc:description>
        <cc:license rdf:resource="https://www.gnu.org/licenses/gpl-3.0.en.html"/>
      </cc:Work>
    </rdf:RDF>
  </metadata>
  <defs id="defs22">
    <linearGradient inkscape:collect="always" id="linearGradient7774">
      <stop style="stop-color:#ff053c;stop-opacity:1" offset="0" id="stop7770"/>
      <stop style="stop-color:#0b31ff;stop-opacity:0.97395831" offset="1" id="stop7772"/>
    </linearGradient>
    <linearGradient inkscape:collect="always" xlink:href="#linearGradient5467" id="linearGradient5473" x1="24.53476" y1="7.9960122" x2="24.704725" y2="38.249725" gradientUnits="userSpaceOnUse" gradientTransform="matrix(2.1310889,0,0,2.1310889,108.68013,105.53144)"/>
    <linearGradient inkscape:collect="always" id="linearGradient5467">
      <stop style="stop-color:#20c686;stop-opacity:1" offset="0" id="stop5469"/>
      <stop style="stop-color:#259d68;stop-opacity:1" offset="1" id="stop5471"/>
    </linearGradient>
    <linearGradient inkscape:collect="always" xlink:href="#linearGradient7774" id="linearGradient7776" x1="122" y1="183" x2="196" y2="142" gradientUnits="userSpaceOnUse"/>
    <linearGradient gradientTransform="matrix(0.5106383,0,0,0.5106383,-57.702128,-57.702128)" inkscape:collect="always" xlink:href="#linearGradient7774" id="linearGradient7776-3" x1="122" y1="183" x2="196" y2="142" gradientUnits="userSpaceOnUse"/>
    <linearGradient inkscape:collect="always" xlink:href="#linearGradient5467" id="linearGradient5473-5" x1="24.53476" y1="7.9960122" x2="24.704725" y2="38.249725" gradientUnits="userSpaceOnUse" gradientTransform="matrix(1.0882156,0,0,1.0882156,-2.205891,-3.8137327)"/>
    <linearGradient inkscape:collect="always" xlink:href="#linearGradient5467" id="linearGradient7902" gradientUnits="userSpaceOnUse" gradientTransform="matrix(1.4056119,0,0,1.4056119,46.150729,44.073933)" x1="24.53476" y1="7.9960122" x2="24.704725" y2="38.249725"/>
    <linearGradient inkscape:collect="always" xlink:href="#linearGradient7774" id="linearGradient7904" gradientUnits="userSpaceOnUse" gradientTransform="matrix(0.65957449,0,0,0.65957449,-25.531913,-25.531913)" x1="122" y1="183" x2="196" y2="142"/>
    <linearGradient inkscape:collect="always" xlink:href="#linearGradient5467" id="linearGradient5473-7" x1="24.53476" y1="7.9960122" x2="24.704725" y2="38.249725" gradientUnits="userSpaceOnUse" gradientTransform="matrix(2.8112236,0,0,2.8112236,204.30144,200.14785)"/>
    <linearGradient gradientTransform="matrix(1.3191489,0,0,1.3191489,60.936166,60.936166)" inkscape:collect="always" xlink:href="#linearGradient7774" id="linearGradient7776-2" x1="122" y1="183" x2="196" y2="142" gradientUnits="userSpaceOnUse"/>
    <linearGradient inkscape:collect="always" xlink:href="#linearGradient5467" id="linearGradient5473-9" x1="24.53476" y1="7.9960122" x2="24.704725" y2="38.249725" gradientUnits="userSpaceOnUse" gradientTransform="matrix(0.72547707,0,0,0.72547707,-33.470593,-34.542488)"/>
    <linearGradient gradientTransform="matrix(0.34042553,0,0,0.34042553,-70.468084,-70.468084)" inkscape:collect="always" xlink:href="#linearGradient7774" id="linearGradient7776-8" x1="122" y1="183" x2="196" y2="142" gradientUnits="userSpaceOnUse"/>
    <linearGradient inkscape:collect="always" xlink:href="#linearGradient5467" id="linearGradient5473-9-1" x1="24.53476" y1="7.9960122" x2="24.704725" y2="38.249725" gradientUnits="userSpaceOnUse" gradientTransform="matrix(0.5441078,0,0,0.5441078,-57.102945,-57.906866)"/>
    <linearGradient gradientTransform="matrix(0.25531915,0,0,0.25531915,-84.851063,-84.851063)" inkscape:collect="always" xlink:href="#linearGradient7774" id="linearGradient7776-8-4" x1="122" y1="183" x2="196" y2="142" gradientUnits="userSpaceOnUse"/>
  </defs>
  <sodipodi:namedview pagecolor="#383c4a" bordercolor="#ffffff" borderopacity="0.62745098" objecttolerance="4" gridtolerance="10" guidetolerance="4" inkscape:pageopacity="0" inkscape:pageshadow="2" inkscape:window-width="640" inkscape:window-height="480" id="namedview20" showgrid="true" inkscape:zoom="16.386532" inkscape:cx="100.73209" inkscape:cy="-55.455318" inkscape:current-layer="g7905" inkscape:snap-smooth-nodes="false" showguides="true" borderlayer="true" inkscape:showpageshadow="false" inkscape:guide-bbox="true" guidecolor="#bd4fff" guideopacity="0.78431373" inkscape:snap-nodes="true" inkscape:lockguides="false" fit-margin-top="0" fit-margin-left="0" fit-margin-right="0" fit-margin-bottom="0" guidehicolor="#ff0101" guidehiopacity="0.78431373" inkscape:snap-page="true" inkscape:object-nodes="true" inkscape:snap-bbox="true" inkscape:snap-global="true" inkscape:snap-object-midpoints="false" inkscape:snap-bbox-edge-midpoints="false">
    <inkscape:grid type="xygrid" id="grid4171" empspacing="4" dotted="false" originx="2.7755576e-17" originy="0" spacingx="1" spacingy="1" color="#5a5a5a" opacity="0.23529412" empcolor="#5a5a5a" empopacity="0.47058824" visible="true"/>
    <inkscape:grid type="axonomgrid" id="grid4699" units="mm" empspacing="4" color="#5a5a5a" opacity="0.23529412" empcolor="#5a5a5a" empopacity="0.47058824" gridanglex="45" gridanglez="45" spacingy="3.7795276" visible="false" originx="1.3228346" originy="1.3228346"/>
    <sodipodi:guide position="48,0" orientation="1,0" id="guide4568" inkscape:locked="false" inkscape:label="" inkscape:color="rgb(189,79,255)"/>
    <sodipodi:guide position="111.99996,-3.9999999e-05" orientation="0,1" id="guide4570" inkscape:locked="false" inkscape:label="" inkscape:color="rgb(189,79,255)"/>
    <sodipodi:guide position="0,0" orientation="1,0" id="guide4572" inkscape:locked="false" inkscape:label="" inkscape:color="rgb(189,79,255)"/>
    <sodipodi:guide position="0,48" orientation="0,1" id="guide4574" inkscape:locked="false" inkscape:label="" inkscape:color="rgb(189,79,255)"/>
    <sodipodi:guide position="0,80" orientation="0,1" id="guide4576" inkscape:locked="false" inkscape:label="" inkscape:color="rgb(189,79,255)"/>
    <sodipodi:guide position="-32,48" orientation="1,0" id="guide4578" inkscape:locked="false" inkscape:label="" inkscape:color="rgb(189,79,255)"/>
    <sodipodi:guide position="-32,104" orientation="0,1" id="guide4580" inkscape:locked="false" inkscape:label="" inkscape:color="rgb(189,79,255)"/>
    <sodipodi:guide position="-56,80" orientation="1,0" id="guide4582" inkscape:locked="false" inkscape:label="" inkscape:color="rgb(189,79,255)"/>
    <sodipodi:guide position="48,-64" orientation="0,1" id="guide4584" inkscape:locked="false" inkscape:label="" inkscape:color="rgb(189,79,255)"/>
    <sodipodi:guide position="0,0" orientation="-0.70710678,0.70710678" id="guide4588" inkscape:locked="false" inkscape:label="" inkscape:color="rgb(189,79,255)"/>
    <sodipodi:guide position="-56,80" orientation="-0.70710678,0.70710678" id="guide4573" inkscape:locked="false" inkscape:label="" inkscape:color="rgb(189,79,255)"/>
    <sodipodi:guide position="-32,48" orientation="-0.70710678,0.70710678" id="guide4575" inkscape:locked="false" inkscape:label="" inkscape:color="rgb(189,79,255)"/>
    <sodipodi:guide position="48,-64" orientation="-0.70710678,0.70710678" id="guide4577" inkscape:locked="false" inkscape:label="" inkscape:color="rgb(189,79,255)"/>
    <sodipodi:guide position="47.999962,0" orientation="0.70710678,0.70710678" id="guide4697" inkscape:locked="false" inkscape:label="" inkscape:color="rgb(189,79,255)"/>
    <sodipodi:guide position="207.99995,-288" orientation="0,1" id="guide7833" inkscape:locked="false"/>
    <sodipodi:guide position="335.99994,-288" orientation="1,0" id="guide7835" inkscape:locked="false" inkscape:label="" inkscape:color="rgb(189,79,255)"/>
    <sodipodi:guide position="111.99996,-64" orientation="1,0" id="guide7915" inkscape:locked="false"/>
    <sodipodi:guide position="111.99996,-160" orientation="0,1" id="guide7917" inkscape:locked="false"/>
    <sodipodi:guide position="207.99996,-160" orientation="1,0" id="guide7919" inkscape:locked="false"/>
    <sodipodi:guide position="111.99996,-160" orientation="-0.70710678,0.70710678" id="guide7921" inkscape:locked="false" inkscape:label="" inkscape:color="rgb(189,79,255)"/>
    <sodipodi:guide position="207.99996,-288" orientation="-0.70710678,0.70710678" id="guide7923" inkscape:locked="false" inkscape:label="" inkscape:color="rgb(189,79,255)"/>
    <sodipodi:guide position="-72,104" orientation="1,0" id="guide7824" inkscape:locked="false"/>
    <sodipodi:guide position="-56,120" orientation="0,1" id="guide7826" inkscape:locked="false"/>
    <sodipodi:guide position="-72,104" orientation="-0.70710678,0.70710678" id="guide7828" inkscape:locked="false" inkscape:label="" inkscape:color="rgb(189,79,255)"/>
  </sodipodi:namedview>
  <g style="display:inline" inkscape:label="icon_32" id="g7816" inkscape:groupmode="layer" transform="translate(32,32)">
    <g style="display:none" inkscape:label="frame" id="g7802" inkscape:groupmode="layer">
      <rect style="color:#000000;clip-rule:nonzero;display:block;overflow:visible;visibility:visible;opacity:1;isolation:auto;mix-blend-mode:normal;color-interpolation:sRGB;color-interpolation-filters:linearRGB;solid-color:#000000;solid-opacity:1;vector-effect:none;fill:#000000;fill-opacity:1;fill-rule:nonzero;stroke:#ff24f7;stroke-width:0;stroke-linecap:square;stroke-linejoin:miter;stroke-miterlimit:4;stroke-dasharray:none;stroke-dashoffset:0;stroke-opacity:0.99481865;marker:none;marker-start:none;marker-mid:none;marker-end:none;paint-order:normal;color-rendering:auto;image-rendering:auto;shape-rendering:auto;text-rendering:auto;enable-background:accumulate" id="rect7792" width="32" height="32" x="-32" y="-32" inkscape:label="frame_32"/>
      <text inkscape:label="txt_32" id="text7796" y="-11.470053" x="-23.799042" style="font-size:12.4444437px;line-height:1000%;font-family:sans-serif;letter-spacing:0px;word-spacing:0px;display:inline;opacity:1;fill:#ffffff;fill-opacity:1;stroke:none;stroke-width:0.07444605px;stroke-linecap:butt;stroke-linejoin:miter;stroke-opacity:1" xml:space="preserve">
        <tspan id="tspan7794" style="font-size:12.4444437px;fill:#ffffff;fill-opacity:1;stroke:none;stroke-width:0.07444605px" y="-11.470053" x="-23.799042" sodipodi:role="line">32</tspan>
      </text>
    </g>
    <g style="display:inline" inkscape:label="icon" id="g7814" inkscape:groupmode="layer">
      <circle style="color:#000000;clip-rule:nonzero;display:block;overflow:visible;visibility:visible;opacity:1;isolation:auto;mix-blend-mode:normal;color-interpolation:sRGB;color-interpolation-filters:linearRGB;solid-color:#000000;solid-opacity:1;fill:#000000;fill-opacity:0.15686275;fill-rule:nonzero;stroke:none;stroke-width:0.69445533;stroke-linecap:butt;stroke-linejoin:miter;stroke-miterlimit:4;stroke-dasharray:none;stroke-dashoffset:0;stroke-opacity:1;marker:none;marker-start:none;marker-mid:none;marker-end:none;color-rendering:auto;image-rendering:auto;shape-rendering:auto;text-rendering:auto;enable-background:accumulate" id="path5465-5-0" cx="-16" cy="-16" r="16" inkscape:label="sombra"/>
      <circle style="color:#000000;clip-rule:nonzero;display:inline;overflow:visible;visibility:visible;opacity:1;isolation:auto;mix-blend-mode:normal;color-interpolation:sRGB;color-interpolation-filters:linearRGB;solid-color:#000000;solid-opacity:1;fill:url(#linearGradient5473-9);fill-opacity:1;fill-rule:nonzero;stroke:#ffffff;stroke-width:0.84438306;stroke-linecap:butt;stroke-linejoin:miter;stroke-miterlimit:4;stroke-dasharray:none;stroke-dashoffset:0;stroke-opacity:1;marker:none;marker-start:none;marker-mid:none;marker-end:none;color-rendering:auto;image-rendering:auto;shape-rendering:auto;text-rendering:auto;enable-background:accumulate" id="path5465-3" cx="-16" cy="-15.99999" r="15.151541" inkscape:label="circle"/>
      <circle inkscape:label="circle" r="15.151541" cy="-15.99999" cx="-16" id="circle7768-6" style="color:#000000;clip-rule:nonzero;display:inline;overflow:visible;visibility:visible;opacity:0.10899999;isolation:auto;mix-blend-mode:normal;color-interpolation:sRGB;color-interpolation-filters:linearRGB;solid-color:#000000;solid-opacity:1;fill:url(#linearGradient7776-8);fill-opacity:1;fill-rule:nonzero;stroke:#ffffff;stroke-width:0.84438306;stroke-linecap:butt;stroke-linejoin:miter;stroke-miterlimit:4;stroke-dasharray:none;stroke-dashoffset:0;stroke-opacity:1;marker:none;marker-start:none;marker-mid:none;marker-end:none;color-rendering:auto;image-rendering:auto;shape-rendering:auto;text-rendering:auto;enable-background:accumulate"/>
      <circle inkscape:label="circle" r="2.5783823" cy="-15.99999" cx="-16" id="circle7778-6" style="color:#000000;clip-rule:nonzero;display:inline;overflow:visible;visibility:visible;opacity:1;isolation:auto;mix-blend-mode:normal;color-interpolation:sRGB;color-interpolation-filters:linearRGB;solid-color:#000000;solid-opacity:1;fill:#efefef;fill-opacity:0.21354167;fill-rule:nonzero;stroke:none;stroke-width:0.14369114;stroke-linecap:butt;stroke-linejoin:miter;stroke-miterlimit:4;stroke-dasharray:none;stroke-dashoffset:0;stroke-opacity:1;marker:none;marker-start:none;marker-mid:none;marker-end:none;color-rendering:auto;image-rendering:auto;shape-rendering:auto;text-rendering:auto;enable-background:accumulate"/>
      <path inkscape:connector-curvature="0" id="path7745-10" d="m -12.155449,-4.8754287 c -1.714873,-0.284783 -3.94196,-2.2478706 -5.975281,-5.2669573 -0.853049,-1.266621 -1.725873,-2.830832 -2.295626,-4.114059 -0.114287,-0.2574 -0.156058,-0.319302 -0.190587,-0.282414 -0.06916,0.07386 -0.565528,1.153171 -0.827047,1.79823 -0.439901,1.085062 -0.749964,2.119608 -0.927639,3.0952258 -0.113828,0.6250077 -0.123615,1.8360307 -0.01784,2.2112103 0.245705,0.8717855 0.778512,1.234131 1.609821,1.0947812 0.599237,-0.1004527 1.32463,-0.4286604 2.094288,-0.947571 0.341807,-0.2304477 0.431704,-0.2743013 0.563901,-0.2750741 0.202145,-0.00136 0.353038,0.108783 0.423745,0.3088136 0.04686,0.1326196 0.04672,0.1710911 -0.0014,0.2978315 -0.04615,0.1216409 -0.126097,0.1936239 -0.48687,0.4382605 -0.498274,0.3378961 -1.350767,0.7734331 -1.786897,0.9129293 -1.142672,0.3655183 -2.031632,0.2315268 -2.658362,-0.4006706 -0.574897,-0.5799115 -0.822584,-1.5181141 -0.746254,-2.8266928 0.09934,-1.7029737 0.848003,-4.0278527 2.030931,-6.3068277 l 0.296637,-0.571476 -0.224058,-0.606233 c -0.214427,-0.580177 -0.638519,-1.925222 -0.638519,-2.025134 0,-0.07359 -0.129754,-0.05847 -0.698605,0.08146 -1.303383,0.320623 -2.271806,0.728691 -2.966328,1.249937 -1.365161,1.024565 -1.003558,2.180245 1.042219,3.331006 0.325774,0.183247 0.401025,0.28193 0.401025,0.525906 0,0.127496 -0.02356,0.17982 -0.128027,0.284283 -0.223704,0.223717 -0.43201,0.177086 -1.122686,-0.251282 -0.998914,-0.619544 -1.630478,-1.324517 -1.852936,-2.068303 -0.08124,-0.271642 -0.08153,-0.818812 -3.41e-4,-1.092017 0.118033,-0.398325 0.316691,-0.714689 0.675255,-1.075333 0.803557,-0.808218 2.136122,-1.4288 3.963727,-1.845909 0.372252,-0.08496 0.458217,-0.116732 0.444194,-0.164178 -0.0096,-0.03237 -0.0521,-0.245228 -0.09455,-0.473045 -0.24831,-1.333065 -0.255864,-2.861487 -0.01832,-3.709082 0.273907,-0.977328 0.769818,-1.559023 1.560582,-1.830509 0.32287,-0.110849 0.969131,-0.09327 1.412089,0.03837 0.445494,0.132426 0.998625,0.40479 1.487401,0.732405 0.582505,0.390441 0.75427,0.554261 0.778924,0.742925 0.05663,0.433491 -0.39121,0.667264 -0.756834,0.395033 -1.146393,-0.853587 -1.964691,-1.178387 -2.62033,-1.040061 -0.476467,0.10052 -0.840688,0.590393 -1.024511,1.377913 -0.07309,0.313208 -0.0831,0.461865 -0.08345,1.240752 -3.41e-4,0.884055 0.01229,1.026237 0.173691,1.953158 l 0.08112,0.46576 0.191224,-0.02315 c 0.877648,-0.106087 1.633999,-0.179864 2.100399,-0.204875 l 0.553559,-0.02965 0.08633,-0.110993 c 0.935016,-1.202192 2.294893,-2.606097 3.325225,-3.432878 1.973164,-1.58334 3.665478,-2.133215 4.829661,-1.569277 0.6576379,0.318567 1.0732703,0.969573 1.2344515,1.933508 0.1052324,0.629311 0.022094,2.118904 -0.1416715,2.538479 -0.056562,0.144973 -0.2380085,0.249413 -0.4335387,0.249583 -0.123057,1.26e-4 -0.1874893,-0.02492 -0.2824136,-0.109709 -0.1125243,-0.100514 -0.122897,-0.128494 -0.1221106,-0.329481 3.404e-4,-0.120803 0.032136,-0.465341 0.070434,-0.765648 0.111234,-0.873092 0.034771,-1.680149 -0.2034451,-2.14707 -0.115622,-0.226649 -0.352194,-0.468627 -0.55678,-0.569485 -0.15347,-0.07566 -0.2325,-0.08715 -0.591353,-0.08598 -0.377086,0.0014 -0.450859,0.01389 -0.823019,0.140762 -1.151391,0.392698 -2.470662,1.336603 -3.886816,2.780902 -0.270822,0.276201 -0.67697,0.713999 -0.902549,0.972885 l -0.410155,0.470693 0.356541,0.0085 c 4.990785,0.118311 9.1971778,1.264395 11.1799829,3.046148 0.4461821,0.400939 0.8306451,0.99826 0.9423524,1.464085 0.05663,0.23616 0.057695,0.694706 0.00204,0.940208 -0.2047625,0.905906 -1.2007455,1.79648 -2.6527455,2.37202 -0.2295149,0.09098 -0.2779949,0.09836 -0.4020222,0.06116 -0.2031455,-0.06087 -0.3348731,-0.232477 -0.3348731,-0.436272 0,-0.239473 0.1153804,-0.354496 0.5299812,-0.528355 0.9019064,-0.378212 1.6013141,-0.908445 1.8668766,-1.415325 0.092276,-0.176143 0.1061856,-0.24463 0.1061379,-0.522772 -3.4e-5,-0.2893 -0.012221,-0.343605 -0.1263081,-0.564837 -0.1609362,-0.31199 -0.692817,-0.845338 -1.1340459,-1.137168 -2.1677141,-1.433736 -6.2525592,-2.364653 -10.3766562,-2.364786 l -0.680317,-2e-5 -0.256381,0.348316 c -0.383518,0.521042 -1.215742,1.787598 -1.546908,2.354216 l -0.292045,0.499673 0.200668,0.460549 c 2.013051,4.620074 5.138304,8.5208801 7.4434,9.2905482 0.501144,0.1673293 0.880358,0.1754825 1.186884,0.025532 0.573617,-0.2806366 0.874059,-1.0091507 0.920204,-2.2312341 0.077,-2.0396211 -0.65761,-4.8585831 -2.027438,-7.7798901 -0.142033,-0.30289 -0.227292,-0.534059 -0.227292,-0.616235 0,-0.247067 0.202883,-0.441351 0.457229,-0.437841 0.225848,0.0027 0.324915,0.09355 0.497178,0.453862 1.11088,2.323544 1.8514112,4.651251 2.1279286,6.6887135 0.092991,0.685137 0.093549,2.0796221 0.00136,2.5779472 -0.1479557,0.7970417 -0.4112034,1.3712511 -0.8140256,1.7756324 -0.490727,0.4926195 -1.127615,0.6807625 -1.881001,0.5556561 z m -7.96915,-12.4027083 c 0.140633,-0.227827 0.414369,-0.646359 0.60831,-0.930097 0.19394,-0.283731 0.352616,-0.527391 0.352616,-0.541451 0,-0.04842 -1.779251,0.131653 -1.833096,0.185498 -0.03237,0.03227 0.07429,0.428773 0.3112,1.157304 0.172292,0.529808 0.218927,0.63744 0.257807,0.594897 0.02611,-0.0286 0.162523,-0.238339 0.303163,-0.466151 z m 3.796395,3.37763 c -0.565716,-0.201991 -0.89631,-0.673991 -0.88878,-1.268919 0.0043,-0.311486 0.07497,-0.525096 0.257086,-0.773191 0.461495,-0.628678 1.403939,-0.700177 1.971309,-0.149563 0.651697,0.63245 0.458788,1.760919 -0.365542,2.138312 -0.283677,0.129872 -0.696473,0.15248 -0.974073,0.05338 z" style="display:inline;opacity:1;fill:#000000;fill-opacity:0.4375;stroke:none;stroke-width:0.1498192;stroke-miterlimit:4;stroke-dasharray:none;stroke-opacity:1" inkscape:label="sombra atom"/>
      <path style="display:inline;opacity:1;fill:#ffffff;fill-opacity:1;stroke:#ffffff;stroke-width:0.1498192;stroke-miterlimit:4;stroke-dasharray:none;stroke-opacity:1" d="m -12.155449,-5.7294026 c -1.714873,-0.2847829 -3.94196,-2.2478706 -5.975281,-5.2669584 -0.853049,-1.266621 -1.725873,-2.830832 -2.295626,-4.114059 -0.114287,-0.2574 -0.156058,-0.319303 -0.190587,-0.282414 -0.06916,0.07386 -0.565528,1.153171 -0.827047,1.79823 -0.439901,1.085062 -0.749964,2.119608 -0.927639,3.095227 -0.113828,0.6250076 -0.123615,1.8360306 -0.01784,2.2112102 0.245705,0.8717855 0.778512,1.2341311 1.609821,1.0947813 0.599237,-0.1004528 1.32463,-0.4286605 2.094288,-0.9475711 0.341807,-0.2304477 0.431704,-0.2743013 0.563901,-0.275074 0.202145,-0.00136 0.353038,0.1087829 0.423745,0.3088136 0.04686,0.1326196 0.04672,0.171091 -0.0014,0.2978315 -0.04615,0.1216408 -0.126097,0.1936238 -0.48687,0.4382604 -0.498274,0.3378962 -1.350767,0.7734332 -1.786897,0.9129294 -1.142672,0.3655183 -2.031632,0.2315268 -2.658362,-0.4006707 -0.574897,-0.5799115 -0.822584,-1.518114 -0.746254,-2.8266927 0.09934,-1.7029749 0.848003,-4.0278539 2.030931,-6.3068289 l 0.296637,-0.571476 -0.224058,-0.606233 c -0.214427,-0.580177 -0.638519,-1.925222 -0.638519,-2.025134 0,-0.07359 -0.129754,-0.05848 -0.698605,0.08146 -1.303383,0.320623 -2.271806,0.728691 -2.966328,1.249937 -1.365161,1.024565 -1.003558,2.180245 1.042219,3.331006 0.325774,0.183247 0.401025,0.28193 0.401025,0.525906 0,0.127496 -0.02356,0.17982 -0.128027,0.284283 -0.223704,0.223717 -0.43201,0.177086 -1.122686,-0.251282 -0.998914,-0.619544 -1.630478,-1.324517 -1.852936,-2.068303 -0.08124,-0.271643 -0.08153,-0.818812 -3.41e-4,-1.092017 0.118033,-0.398325 0.316691,-0.714689 0.675255,-1.075333 0.803557,-0.808218 2.136122,-1.4288 3.963727,-1.84591 0.372252,-0.08496 0.458217,-0.116731 0.444194,-0.164177 -0.0096,-0.03237 -0.0521,-0.245229 -0.09455,-0.473045 -0.24831,-1.333065 -0.255864,-2.861487 -0.01832,-3.709082 0.273907,-0.977328 0.769818,-1.559023 1.560582,-1.830509 0.32287,-0.11085 0.969131,-0.09327 1.412089,0.03837 0.445494,0.132426 0.998625,0.40479 1.487401,0.732405 0.582505,0.390441 0.75427,0.554261 0.778924,0.742925 0.05663,0.433491 -0.39121,0.667264 -0.756834,0.395033 -1.146393,-0.853587 -1.964691,-1.178387 -2.62033,-1.040062 -0.476467,0.100521 -0.840688,0.590394 -1.024511,1.377914 -0.07309,0.313208 -0.0831,0.461865 -0.08345,1.240752 -3.41e-4,0.884054 0.01229,1.026237 0.173691,1.953157 l 0.08112,0.46576 0.191224,-0.02315 c 0.877648,-0.106087 1.633999,-0.179864 2.100399,-0.204875 l 0.553559,-0.02965 0.08633,-0.110993 c 0.935016,-1.202192 2.294893,-2.606097 3.325225,-3.432878 1.973164,-1.58334 3.665478,-2.133215 4.829661,-1.569277 0.6576379,0.318567 1.0732703,0.969573 1.2344515,1.933508 0.1052324,0.629311 0.022094,2.118904 -0.1416715,2.538479 -0.056562,0.144973 -0.2380085,0.249412 -0.4335387,0.249583 -0.123057,1.26e-4 -0.1874893,-0.02492 -0.2824136,-0.109709 -0.1125243,-0.100514 -0.122897,-0.128494 -0.1221106,-0.329481 3.404e-4,-0.120804 0.032136,-0.465341 0.070434,-0.765648 0.111234,-0.873093 0.034771,-1.68015 -0.2034451,-2.14707 -0.115622,-0.226649 -0.352194,-0.468627 -0.55678,-0.569485 -0.15347,-0.07566 -0.2325,-0.08715 -0.591353,-0.08598 -0.377086,0.0014 -0.450859,0.01389 -0.823019,0.140763 -1.151391,0.392698 -2.470662,1.336603 -3.886816,2.780902 -0.270822,0.276201 -0.67697,0.713998 -0.902549,0.972885 l -0.410155,0.470693 0.356541,0.0085 c 4.990785,0.118311 9.1971778,1.264395 11.1799829,3.046148 0.4461821,0.400939 0.8306451,0.99826 0.9423524,1.464085 0.05663,0.23616 0.057695,0.694706 0.00204,0.940208 -0.2047625,0.905906 -1.2007455,1.79648 -2.6527455,2.37202 -0.2295149,0.09098 -0.2779949,0.09836 -0.4020222,0.06116 -0.2031455,-0.06088 -0.3348731,-0.232477 -0.3348731,-0.436273 0,-0.239472 0.1153804,-0.354495 0.5299812,-0.528354 0.9019064,-0.378212 1.6013141,-0.908446 1.8668766,-1.415326 0.092276,-0.176143 0.1061856,-0.244629 0.1061379,-0.522771 -3.4e-5,-0.2893 -0.012221,-0.343605 -0.1263081,-0.564837 -0.1609362,-0.31199 -0.692817,-0.845338 -1.1340459,-1.137168 -2.1677141,-1.433736 -6.2525592,-2.364653 -10.3766562,-2.364786 l -0.680317,-2.1e-5 -0.256381,0.348317 c -0.383518,0.521042 -1.215742,1.787598 -1.546908,2.354216 l -0.292045,0.499673 0.200668,0.460549 c 2.013051,4.620074 5.138304,8.5208812 7.4434,9.2905493 0.501144,0.1673294 0.880358,0.1754826 1.186884,0.025532 0.573617,-0.2806366 0.874059,-1.0091506 0.920204,-2.231234 0.077,-2.0396223 -0.65761,-4.8585843 -2.027438,-7.7798913 -0.142033,-0.30289 -0.227292,-0.534059 -0.227292,-0.616235 0,-0.247067 0.202883,-0.441351 0.457229,-0.437841 0.225848,0.0027 0.324915,0.09355 0.497178,0.453862 1.11088,2.323543 1.8514112,4.651251 2.1279286,6.688715 0.092991,0.6851367 0.093549,2.0796218 0.00136,2.5779469 -0.1479557,0.7970417 -0.4112034,1.371251 -0.8140256,1.7756323 -0.490727,0.4926196 -1.127615,0.6807626 -1.881001,0.5556562 z m -7.96915,-12.4027094 c 0.140633,-0.227827 0.414369,-0.646359 0.60831,-0.930097 0.19394,-0.283731 0.352616,-0.527391 0.352616,-0.541451 0,-0.04842 -1.779251,0.131653 -1.833096,0.185498 -0.03237,0.03227 0.07429,0.428773 0.3112,1.157304 0.172292,0.529808 0.218927,0.63744 0.257807,0.594897 0.02611,-0.0286 0.162523,-0.238339 0.303163,-0.466151 z m 3.796395,3.37763 c -0.565716,-0.201991 -0.89631,-0.673991 -0.88878,-1.268919 0.0043,-0.311486 0.07497,-0.525096 0.257086,-0.773191 0.461495,-0.628678 1.403939,-0.700177 1.971309,-0.149563 0.651697,0.632449 0.458788,1.760919 -0.365542,2.138312 -0.283677,0.129872 -0.696473,0.15248 -0.974073,0.05338 z" id="path4662-3" inkscape:connector-curvature="0" inkscape:label="atom"/>
    </g>
  </g>
</svg>