<?xml version="1.0" encoding="UTF-8" standalone="yes"?>
<svg xmlns:dc="http://purl.org/dc/elements/1.1/" xmlns:cc="http://creativecommons.org/ns#" xmlns:rdf="http://www.w3.org/1999/02/22-rdf-syntax-ns#" xmlns:svg="http://www.w3.org/2000/svg" xmlns="http://www.w3.org/2000/svg" xmlns:xlink="http://www.w3.org/1999/xlink" xmlns:sodipodi="http://sodipodi.sourceforge.net/DTD/sodipodi-0.dtd" xmlns:inkscape="http://www.inkscape.org/namespaces/inkscape" height="32" viewBox="0 0 32 32" width="32" id="svg2" version="1.1" inkscape:version="0.92.2 5c3e80d, 2017-08-06" sodipodi:docname="filezilla.svg" enable-background="new" folder="32">
  <title id="title4675">Template icons dark</title>
  <metadata id="metadata24">
    <rdf:RDF>
      <cc:Work rdf:about="">
        <dc:format>image/svg+xml</dc:format>
        <dc:type rdf:resource="http://purl.org/dc/dcmitype/StillImage"/>
        <dc:title>Template icons dark</dc:title>
        <dc:date>17/05/13</dc:date>
        <dc:creator>
          <cc:Agent>
            <dc:title>wfpaisa</dc:title>
          </cc:Agent>
        </dc:creator>
        <dc:rights>
          <cc:Agent>
            <dc:title>License: GPLv3</dc:title>
          </cc:Agent>
        </dc:rights>
        <dc:language>es-en</dc:language>
        <dc:subject>
          <rdf:Bag>
            <rdf:li>plane-icon-theme</rdf:li>
          </rdf:Bag>
        </dc:subject>
        <dc:description>Template for create set icons</dc:description>
        <cc:license rdf:resource="https://www.gnu.org/licenses/gpl-3.0.en.html"/>
      </cc:Work>
    </rdf:RDF>
  </metadata>
  <defs id="defs22">
    <linearGradient id="linearGradient967" inkscape:collect="always">
      <stop id="stop963" offset="0" style="stop-color:#ffffff;stop-opacity:0.45604396"/>
      <stop id="stop965" offset="1" style="stop-color:#ffffff;stop-opacity:0"/>
    </linearGradient>
    <linearGradient inkscape:collect="always" id="linearGradient946">
      <stop style="stop-color:#c7c7c7;stop-opacity:1" offset="0" id="stop942"/>
      <stop style="stop-color:#ffffff;stop-opacity:0.98901099" offset="1" id="stop944"/>
    </linearGradient>
    <linearGradient inkscape:collect="always" id="linearGradient919">
      <stop style="stop-color:#a61f23;stop-opacity:1" offset="0" id="stop915"/>
      <stop style="stop-color:#ff4955;stop-opacity:1" offset="1" id="stop917"/>
    </linearGradient>
    <linearGradient inkscape:collect="always" id="linearGradient904">
      <stop style="stop-color:#88c1df;stop-opacity:1" offset="0" id="stop900"/>
      <stop style="stop-color:#f0f5f8;stop-opacity:1" offset="1" id="stop902"/>
    </linearGradient>
    <linearGradient inkscape:collect="always" xlink:href="#linearGradient904" id="linearGradient906" x1="170" y1="186" x2="170" y2="118" gradientUnits="userSpaceOnUse" gradientTransform="translate(-1,-1)"/>
    <linearGradient inkscape:collect="always" xlink:href="#linearGradient919" id="linearGradient921" x1="165.92126" y1="192" x2="159" y2="147.66142" gradientUnits="userSpaceOnUse" gradientTransform="matrix(1.5614379,0,0,1.5614379,-89.610624,-90.571879)"/>
    <linearGradient inkscape:collect="always" xlink:href="#linearGradient946" id="linearGradient948" x1="161" y1="192.39384" x2="161" y2="128.88977" gradientUnits="userSpaceOnUse"/>
    <linearGradient gradientUnits="userSpaceOnUse" y2="258.86499" y1="123.859" x2="187.94701" x1="187.94701" id="a" gradientTransform="matrix(0.26323921,0,0,0.26323073,141.52577,105.95773)">
      <stop id="stop2" stop-color="#BF0000" offset="0"/>
      <stop id="stop4" stop-color="#8F0000" offset="1"/>
    </linearGradient>
    <linearGradient inkscape:collect="always" xlink:href="#linearGradient904" id="linearGradient906-2-1" x1="170" y1="186" x2="170" y2="118" gradientUnits="userSpaceOnUse" gradientTransform="matrix(0.17631236,0,0,0.17631236,-92.513198,-91.862573)"/>
    <linearGradient inkscape:collect="always" xlink:href="#linearGradient919" id="linearGradient1101" gradientUnits="userSpaceOnUse" gradientTransform="matrix(1.8908949,0,0,1.8908949,-141.68152,-140.94084)" x1="165.92126" y1="192" x2="159" y2="147.66142"/>
    <linearGradient inkscape:collect="always" xlink:href="#linearGradient919" id="linearGradient1101-3" gradientUnits="userSpaceOnUse" gradientTransform="matrix(2.5148902,0,0,2.5148902,-129.84638,-129.25162)" x1="165.92126" y1="192" x2="159" y2="147.66142"/>
    <linearGradient inkscape:collect="always" xlink:href="#linearGradient904" id="linearGradient906-7" x1="170" y1="186" x2="170" y2="118" gradientUnits="userSpaceOnUse" gradientTransform="matrix(1.33,0,0,1.33,57.260035,56.869697)"/>
    <linearGradient inkscape:collect="always" xlink:href="#linearGradient919" id="linearGradient1101-2" gradientUnits="userSpaceOnUse" gradientTransform="matrix(1.3125166,0,0,1.3125166,-129.59549,-129.6902)" x1="165.92126" y1="192" x2="159" y2="147.66142"/>
    <linearGradient inkscape:collect="always" xlink:href="#linearGradient904" id="linearGradient906-76" x1="170" y1="186" x2="170" y2="118" gradientUnits="userSpaceOnUse" gradientTransform="matrix(0.69412459,0,0,0.69412459,-31.945027,-32.553825)"/>
    <linearGradient inkscape:collect="always" xlink:href="#linearGradient919" id="linearGradient1101-7" gradientUnits="userSpaceOnUse" gradientTransform="matrix(0.98439784,0,0,0.98439784,-133.17307,-133.22042)" x1="165.92126" y1="192" x2="159" y2="147.66142"/>
    <linearGradient inkscape:collect="always" xlink:href="#linearGradient904" id="linearGradient906-9" x1="170" y1="186" x2="170" y2="118" gradientUnits="userSpaceOnUse" gradientTransform="matrix(0.52059892,0,0,0.52059892,-59.934449,-60.367395)"/>
    <linearGradient inkscape:collect="always" xlink:href="#linearGradient919" id="linearGradient1101-27" gradientUnits="userSpaceOnUse" gradientTransform="matrix(0.65625833,0,0,0.65625833,-120.79765,-121.09694)" x1="165.92126" y1="192" x2="159" y2="147.66142"/>
    <linearGradient inkscape:collect="always" xlink:href="#linearGradient904" id="linearGradient906-1" x1="170" y1="186" x2="170" y2="118" gradientUnits="userSpaceOnUse" gradientTransform="matrix(0.3470623,0,0,0.3470623,-71.972378,-72.528771)"/>
    <linearGradient inkscape:collect="always" xlink:href="#linearGradient919" id="linearGradient1101-77" gradientUnits="userSpaceOnUse" gradientTransform="matrix(0.4921886,0,0,0.4921886,-122.62684,-122.69038)" x1="165.92126" y1="192" x2="159" y2="147.66142"/>
    <linearGradient inkscape:collect="always" xlink:href="#linearGradient904" id="linearGradient906-94" x1="170" y1="186" x2="170" y2="118" gradientUnits="userSpaceOnUse" gradientTransform="matrix(0.260294,0,0,0.260294,-86.008268,-86.264618)"/>
    <linearGradient inkscape:collect="always" xlink:href="#linearGradient919" id="linearGradient1101-77-6" gradientUnits="userSpaceOnUse" gradientTransform="matrix(0.25781096,0,0,0.25781096,-105.16377,-104.8453)" x1="165.92126" y1="192" x2="159" y2="147.66142"/>
    <radialGradient inkscape:collect="always" xlink:href="#linearGradient967" id="radialGradient961" cx="190.99977" cy="155.34175" fx="190.99977" fy="155.34175" r="45.37402" gradientTransform="matrix(0.75002159,0,0,0.58055928,45.746051,62.814905)" gradientUnits="userSpaceOnUse"/>
    <radialGradient inkscape:collect="always" xlink:href="#linearGradient967" id="radialGradient971" gradientUnits="userSpaceOnUse" gradientTransform="matrix(0.56451189,0,0,0.43696425,65.348655,86.110566)" cx="105.66889" cy="162.23166" fx="105.66889" fy="162.23166" r="45.37402"/>
    <radialGradient inkscape:collect="always" xlink:href="#linearGradient967" id="radialGradient971-2" gradientUnits="userSpaceOnUse" gradientTransform="matrix(0.75080081,0,0,0.58116245,145.50375,172.72675)" cx="105.66889" cy="162.23166" fx="105.66889" fy="162.23166" r="45.37402"/>
    <radialGradient inkscape:collect="always" xlink:href="#linearGradient967" id="radialGradient961-2" cx="190.99977" cy="155.34175" fx="190.99977" fy="155.34175" r="45.37402" gradientTransform="matrix(0.99752871,0,0,0.77214384,119.43229,141.74353)" gradientUnits="userSpaceOnUse"/>
    <radialGradient inkscape:collect="always" xlink:href="#linearGradient967" id="radialGradient971-1" gradientUnits="userSpaceOnUse" gradientTransform="matrix(0.39184158,0,0,0.30330763,14.109206,27.911761)" cx="105.66889" cy="162.23166" fx="105.66889" fy="162.23166" r="45.37402"/>
    <radialGradient inkscape:collect="always" xlink:href="#linearGradient967" id="radialGradient961-4" cx="190.99977" cy="155.34175" fx="190.99977" fy="155.34175" r="45.37402" gradientTransform="matrix(0.52060843,0,0,0.40298047,0.50255869,11.74167)" gradientUnits="userSpaceOnUse"/>
    <radialGradient inkscape:collect="always" xlink:href="#linearGradient967" id="radialGradient971-88" gradientUnits="userSpaceOnUse" gradientTransform="matrix(0.29388428,0,0,0.22748312,-25.393411,-15.017728)" cx="105.66889" cy="162.23166" fx="105.66889" fy="162.23166" r="45.37402"/>
    <radialGradient inkscape:collect="always" xlink:href="#linearGradient967" id="radialGradient961-14" cx="190.99977" cy="155.34175" fx="190.99977" fy="155.34175" r="45.37402" gradientTransform="matrix(0.39046043,0,0,0.30223853,-35.598505,-27.145424)" gradientUnits="userSpaceOnUse"/>
    <radialGradient inkscape:collect="always" xlink:href="#linearGradient967" id="radialGradient971-6" gradientUnits="userSpaceOnUse" gradientTransform="matrix(0.19592079,0,0,0.15165382,-48.94526,-42.295977)" cx="105.66889" cy="162.23166" fx="105.66889" fy="162.23166" r="45.37402"/>
    <radialGradient inkscape:collect="always" xlink:href="#linearGradient967" id="radialGradient961-6" cx="190.99977" cy="155.34175" fx="190.99977" fy="155.34175" r="45.37402" gradientTransform="matrix(0.26030422,0,0,0.20149024,-55.748586,-50.381025)" gradientUnits="userSpaceOnUse"/>
    <radialGradient inkscape:collect="always" xlink:href="#linearGradient967" id="radialGradient971-3" gradientUnits="userSpaceOnUse" gradientTransform="matrix(0.14693906,0,0,0.11373917,-68.738113,-63.590262)" cx="105.66889" cy="162.23166" fx="105.66889" fy="162.23166" r="45.37402"/>
    <radialGradient inkscape:collect="always" xlink:href="#linearGradient967" id="radialGradient961-63" cx="190.99977" cy="155.34175" fx="190.99977" fy="155.34175" r="45.37402" gradientTransform="matrix(0.19522612,0,0,0.1511161,-73.840552,-69.653983)" gradientUnits="userSpaceOnUse"/>
  </defs>
  <sodipodi:namedview pagecolor="#383c4a" bordercolor="#ffffff" borderopacity="0.62745098" objecttolerance="4" gridtolerance="10" guidetolerance="4" inkscape:pageopacity="0" inkscape:pageshadow="2" inkscape:window-width="640" inkscape:window-height="480" id="namedview20" showgrid="true" inkscape:zoom="16.386532" inkscape:cx="-45.388544" inkscape:cy="107.07527" inkscape:current-layer="layer6" inkscape:snap-smooth-nodes="false" showguides="true" borderlayer="true" inkscape:showpageshadow="false" inkscape:guide-bbox="true" guidecolor="#bd4fff" guideopacity="0.78431373" inkscape:snap-nodes="true" inkscape:lockguides="false" fit-margin-top="0" fit-margin-left="0" fit-margin-right="0" fit-margin-bottom="0" guidehicolor="#ff0101" guidehiopacity="0.78431373" inkscape:snap-page="true" inkscape:object-nodes="true" inkscape:snap-bbox="true" inkscape:snap-global="true" inkscape:snap-object-midpoints="false" inkscape:snap-bbox-edge-midpoints="false">
    <inkscape:grid type="xygrid" id="grid4171" empspacing="4" dotted="false" originx="2.7755576e-17" originy="0" spacingx="1" spacingy="1" color="#5a5a5a" opacity="0.23529412" empcolor="#5a5a5a" empopacity="0.47058824" visible="true"/>
    <inkscape:grid type="axonomgrid" id="grid4699" units="mm" empspacing="4" color="#5a5a5a" opacity="0.23529412" empcolor="#5a5a5a" empopacity="0.47058824" gridanglex="45" gridanglez="45" spacingy="3.7795276" visible="false" originx="1.3228346" originy="1.3228346"/>
    <sodipodi:guide position="48,0" orientation="1,0" id="guide4568" inkscape:locked="false" inkscape:label="" inkscape:color="rgb(189,79,255)"/>
    <sodipodi:guide position="111.99996,-3.9999999e-05" orientation="0,1" id="guide4570" inkscape:locked="false" inkscape:label="" inkscape:color="rgb(189,79,255)"/>
    <sodipodi:guide position="0,0" orientation="1,0" id="guide4572" inkscape:locked="false" inkscape:label="" inkscape:color="rgb(189,79,255)"/>
    <sodipodi:guide position="0,48" orientation="0,1" id="guide4574" inkscape:locked="false" inkscape:label="" inkscape:color="rgb(189,79,255)"/>
    <sodipodi:guide position="0,80" orientation="0,1" id="guide4576" inkscape:locked="false" inkscape:label="" inkscape:color="rgb(189,79,255)"/>
    <sodipodi:guide position="-32,48" orientation="1,0" id="guide4578" inkscape:locked="false" inkscape:label="" inkscape:color="rgb(189,79,255)"/>
    <sodipodi:guide position="-32,104" orientation="0,1" id="guide4580" inkscape:locked="false" inkscape:label="" inkscape:color="rgb(189,79,255)"/>
    <sodipodi:guide position="-56,80" orientation="1,0" id="guide4582" inkscape:locked="false" inkscape:label="" inkscape:color="rgb(189,79,255)"/>
    <sodipodi:guide position="48,-64" orientation="0,1" id="guide4584" inkscape:locked="false" inkscape:label="" inkscape:color="rgb(189,79,255)"/>
    <sodipodi:guide position="0,0" orientation="-0.70710678,0.70710678" id="guide4588" inkscape:locked="false" inkscape:label="" inkscape:color="rgb(189,79,255)"/>
    <sodipodi:guide position="-56,80" orientation="-0.70710678,0.70710678" id="guide4573" inkscape:locked="false" inkscape:label="" inkscape:color="rgb(189,79,255)"/>
    <sodipodi:guide position="-32,48" orientation="-0.70710678,0.70710678" id="guide4575" inkscape:locked="false" inkscape:label="" inkscape:color="rgb(189,79,255)"/>
    <sodipodi:guide position="48,-64" orientation="-0.70710678,0.70710678" id="guide4577" inkscape:locked="false" inkscape:label="" inkscape:color="rgb(189,79,255)"/>
    <sodipodi:guide position="47.999962,0" orientation="0.70710678,0.70710678" id="guide4697" inkscape:locked="false" inkscape:label="" inkscape:color="rgb(189,79,255)"/>
    <sodipodi:guide position="207.99995,-288" orientation="0,1" id="guide7833" inkscape:locked="false"/>
    <sodipodi:guide position="335.99994,-288" orientation="1,0" id="guide7835" inkscape:locked="false" inkscape:label="" inkscape:color="rgb(189,79,255)"/>
    <sodipodi:guide position="111.99996,-64" orientation="1,0" id="guide7915" inkscape:locked="false"/>
    <sodipodi:guide position="111.99996,-160" orientation="0,1" id="guide7917" inkscape:locked="false"/>
    <sodipodi:guide position="207.99996,-160" orientation="1,0" id="guide7919" inkscape:locked="false"/>
    <sodipodi:guide position="111.99996,-160" orientation="-0.70710678,0.70710678" id="guide7921" inkscape:locked="false" inkscape:label="" inkscape:color="rgb(189,79,255)"/>
    <sodipodi:guide position="207.99996,-288" orientation="-0.70710678,0.70710678" id="guide7923" inkscape:locked="false" inkscape:label="" inkscape:color="rgb(189,79,255)"/>
    <sodipodi:guide position="-72,104" orientation="1,0" id="guide7824" inkscape:locked="false"/>
    <sodipodi:guide position="-56,120" orientation="0,1" id="guide7826" inkscape:locked="false"/>
    <sodipodi:guide position="-72,104" orientation="-0.70710678,0.70710678" id="guide7828" inkscape:locked="false" inkscape:label="" inkscape:color="rgb(189,79,255)"/>
  </sodipodi:namedview>
  <g style="display:inline" inkscape:label="icon_32" id="g7816" inkscape:groupmode="layer" transform="translate(32,32)">
    <g style="display:none" inkscape:label="frame" id="g7802" inkscape:groupmode="layer">
      <rect style="color:#000000;clip-rule:nonzero;display:block;overflow:visible;visibility:visible;opacity:1;isolation:auto;mix-blend-mode:normal;color-interpolation:sRGB;color-interpolation-filters:linearRGB;solid-color:#000000;solid-opacity:1;vector-effect:none;fill:#000000;fill-opacity:1;fill-rule:nonzero;stroke:#ff24f7;stroke-width:0;stroke-linecap:square;stroke-linejoin:miter;stroke-miterlimit:4;stroke-dasharray:none;stroke-dashoffset:0;stroke-opacity:0.99481865;marker:none;marker-start:none;marker-mid:none;marker-end:none;paint-order:normal;color-rendering:auto;image-rendering:auto;shape-rendering:auto;text-rendering:auto;enable-background:accumulate" id="rect7792" width="32" height="32" x="-32" y="-32" inkscape:label="frame_32"/>
      <text inkscape:label="txt_32" id="text7796" y="-11.470053" x="-23.799042" style="font-size:12.4444437px;line-height:1000%;font-family:sans-serif;letter-spacing:0px;word-spacing:0px;display:inline;opacity:1;fill:#ffffff;fill-opacity:1;stroke:none;stroke-width:0.07444605px;stroke-linecap:butt;stroke-linejoin:miter;stroke-opacity:1" xml:space="preserve">
        <tspan id="tspan7794" style="font-size:12.4444437px;fill:#ffffff;fill-opacity:1;stroke:none;stroke-width:0.07444605px" y="-11.470053" x="-23.799042" sodipodi:role="line">32</tspan>
      </text>
    </g>
    <g style="display:inline" inkscape:label="icon" id="g7814" inkscape:groupmode="layer">
      <path inkscape:connector-curvature="0" id="path908-4" d="m -15.636438,-31.660152 a 9.0505006,9.0505006 0 0 0 -8.659614,6.427431 9.0505006,9.0505006 0 0 0 -7.4354,8.90093 9.0505006,9.0505006 0 0 0 3.657711,7.2550892 c 1.222415,1.1130774 2.844043,1.7956414 4.63518,1.7956414 h 0.757841 13.3944378 0.5341497 c 1.2694255,0 2.4523006,-0.345858 3.4713033,-0.9401849 a 9.0505006,9.0505006 0 0 0 5.04460248,-8.1105457 9.0505006,9.0505006 0 0 0 -6.68908088,-8.726042 9.0505006,9.0505006 0 0 0 -8.7111304,-6.602319 z" style="color:#000000;clip-rule:nonzero;display:block;overflow:visible;visibility:visible;opacity:1;isolation:auto;mix-blend-mode:normal;color-interpolation:sRGB;color-interpolation-filters:linearRGB;solid-color:#000000;solid-opacity:1;vector-effect:none;fill:none;fill-opacity:1;fill-rule:nonzero;stroke:#000000;stroke-width:0.5046286;stroke-linecap:round;stroke-linejoin:miter;stroke-miterlimit:4;stroke-dasharray:none;stroke-dashoffset:0;stroke-opacity:0.06593407;marker:none;marker-start:none;marker-mid:none;marker-end:none;paint-order:markers stroke fill;color-rendering:auto;image-rendering:auto;shape-rendering:auto;text-rendering:auto;enable-background:accumulate" inkscape:label="nube sombra"/>
      <path style="color:#000000;clip-rule:nonzero;display:inline;overflow:visible;visibility:visible;opacity:1;isolation:auto;mix-blend-mode:normal;color-interpolation:sRGB;color-interpolation-filters:linearRGB;solid-color:#000000;solid-opacity:1;vector-effect:none;fill:url(#linearGradient906-1);fill-opacity:1;fill-rule:nonzero;stroke:none;stroke-width:0.15740187;stroke-linecap:round;stroke-linejoin:miter;stroke-miterlimit:4;stroke-dasharray:none;stroke-dashoffset:0;stroke-opacity:1;marker:none;marker-start:none;marker-mid:none;marker-end:none;paint-order:markers stroke fill;color-rendering:auto;image-rendering:auto;shape-rendering:auto;text-rendering:auto;enable-background:accumulate" d="m -15.636438,-32.007214 a 9.0505006,9.0505006 0 0 0 -8.659614,6.427431 9.0505006,9.0505006 0 0 0 -7.4354,8.90093 9.0505006,9.0505006 0 0 0 3.657711,7.2550889 c 1.222415,1.1130774 2.844043,1.7956414 4.63518,1.7956414 h 0.757841 13.3944378 0.5341497 c 1.2694255,0 2.4523006,-0.345858 3.4713033,-0.9401849 a 9.0505006,9.0505006 0 0 0 5.04460248,-8.1105454 9.0505006,9.0505006 0 0 0 -6.68908088,-8.726042 9.0505006,9.0505006 0 0 0 -8.7111304,-6.602319 z" id="circle886-9" inkscape:connector-curvature="0" inkscape:label="nube"/>
      <path style="color:#000000;clip-rule:nonzero;display:inline;overflow:visible;visibility:visible;opacity:1;isolation:auto;mix-blend-mode:normal;color-interpolation:sRGB;color-interpolation-filters:linearRGB;solid-color:#000000;solid-opacity:1;vector-effect:none;fill:#365a83;fill-opacity:0.21978024;fill-rule:nonzero;stroke:none;stroke-width:0.15740187;stroke-linecap:round;stroke-linejoin:miter;stroke-miterlimit:4;stroke-dasharray:none;stroke-dashoffset:0;stroke-opacity:1;marker:none;marker-start:none;marker-mid:none;marker-end:none;paint-order:markers stroke fill;color-rendering:auto;image-rendering:auto;shape-rendering:auto;text-rendering:auto;enable-background:accumulate" d="m -31.714508,-17.045577 a 9.0505006,9.0505006 0 0 0 -0.01694,0.366724 9.0505006,9.0505006 0 0 0 3.65771,7.2550889 c 1.222409,1.1130774 2.844037,1.7956414 4.635174,1.7956414 h 0.757841 13.3944378 0.5341497 c 1.2694255,0 2.4523006,-0.345858 3.4713033,-0.9401849 a 9.0505006,9.0505006 0 0 0 5.04460248,-8.1105454 9.0505006,9.0505006 0 0 0 -0.0169366,-0.329439 9.0505006,9.0505006 0 0 1 -5.02765548,7.7458598 c -1.0190131,0.5943269 -2.2018882,0.9401849 -3.4713137,0.9401849 H -9.2862822 -22.68072 -23.438561 c -1.791137,0 -3.412765,-0.682564 -4.63518,-1.7956397 a 9.0505006,9.0505006 0 0 1 -3.640767,-6.92769 z" id="path952-0" inkscape:connector-curvature="0" inkscape:label="nube sombra"/>
      <path inkscape:connector-curvature="0" id="path959-9" d="m -15.636438,-32.007214 a 9.0505006,9.0505006 0 0 0 -8.659614,6.427431 9.0505006,9.0505006 0 0 0 -7.4354,8.90093 9.0505006,9.0505006 0 0 0 3.657711,7.2550889 c 1.222415,1.1130774 2.844043,1.7956414 4.63518,1.7956414 h 0.757841 13.3944378 0.5341497 c 1.2694255,0 2.4523006,-0.345858 3.4713033,-0.9401849 a 9.0505006,9.0505006 0 0 0 5.04460248,-8.1105454 9.0505006,9.0505006 0 0 0 -6.68908088,-8.726042 9.0505006,9.0505006 0 0 0 -8.7111304,-6.602319 z" style="color:#000000;clip-rule:nonzero;display:inline;overflow:visible;visibility:visible;opacity:1;isolation:auto;mix-blend-mode:normal;color-interpolation:sRGB;color-interpolation-filters:linearRGB;solid-color:#000000;solid-opacity:1;vector-effect:none;fill:url(#radialGradient961-6);fill-opacity:1;fill-rule:nonzero;stroke:none;stroke-width:0.15740187;stroke-linecap:round;stroke-linejoin:miter;stroke-miterlimit:4;stroke-dasharray:none;stroke-dashoffset:0;stroke-opacity:1;marker:none;marker-start:none;marker-mid:none;marker-end:none;paint-order:markers stroke fill;color-rendering:auto;image-rendering:auto;shape-rendering:auto;text-rendering:auto;enable-background:accumulate" inkscape:label="nube brillo"/>
      <path inkscape:label="nube brillo" style="color:#000000;clip-rule:nonzero;display:inline;overflow:visible;visibility:visible;opacity:1;isolation:auto;mix-blend-mode:normal;color-interpolation:sRGB;color-interpolation-filters:linearRGB;solid-color:#000000;solid-opacity:1;vector-effect:none;fill:url(#radialGradient971-6);fill-opacity:1;fill-rule:nonzero;stroke:none;stroke-width:0.15740187;stroke-linecap:round;stroke-linejoin:miter;stroke-miterlimit:4;stroke-dasharray:none;stroke-dashoffset:0;stroke-opacity:1;marker:none;marker-start:none;marker-mid:none;marker-end:none;paint-order:markers stroke fill;color-rendering:auto;image-rendering:auto;shape-rendering:auto;text-rendering:auto;enable-background:accumulate" d="m -15.636438,-32.007214 a 9.0505006,9.0505006 0 0 0 -8.659614,6.427431 9.0505006,9.0505006 0 0 0 -7.4354,8.90093 9.0505006,9.0505006 0 0 0 3.657711,7.2550889 c 1.222415,1.1130774 2.844043,1.7956414 4.63518,1.7956414 h 0.757841 13.3944378 0.5341497 c 1.2694255,0 2.4523006,-0.345858 3.4713033,-0.9401849 a 9.0505006,9.0505006 0 0 0 5.04460248,-8.1105454 9.0505006,9.0505006 0 0 0 -6.68908088,-8.726042 9.0505006,9.0505006 0 0 0 -8.7111304,-6.602319 z" id="path969-1" inkscape:connector-curvature="0"/>
      <path inkscape:connector-curvature="0" id="path913-7" d="m -15.675822,-25.652632 c -0.548858,-2.56e-4 -1.109798,0.247848 -1.522719,0.743411 l -9.408085,12.479167 c -0.345313,0.705442 -0.07248,1.411211 0.913892,1.411211 h 6.859953 l 2.256676,9.1964792 c 0.03203,0.86757943 0.351789,1.57014818 0.788831,1.57014818 0.437045,0 0.756783,-0.70256875 0.788831,-1.57014818 l 2.257845,-9.1964792 h 6.9073671 c 0.9812145,0 0.9806696,-1.335062 0.7280499,-1.668842 -3.0389469,-4.073311 -6.078177,-8.145664 -9.11713,-12.218971 -0.368081,-0.496549 -0.90465,-0.74574 -1.453511,-0.745976 z" style="color:#000000;clip-rule:nonzero;display:inline;overflow:visible;visibility:visible;opacity:1;isolation:auto;mix-blend-mode:normal;color-interpolation:sRGB;color-interpolation-filters:linearRGB;solid-color:#000000;solid-opacity:1;vector-effect:none;fill:#000000;fill-opacity:0.17582421;fill-rule:nonzero;stroke:none;stroke-width:0.14771871;stroke-linecap:round;stroke-linejoin:miter;stroke-miterlimit:4;stroke-dasharray:none;stroke-dashoffset:0;stroke-opacity:1;marker:none;marker-start:none;marker-mid:none;marker-end:none;paint-order:markers stroke fill;color-rendering:auto;image-rendering:auto;shape-rendering:auto;text-rendering:auto;enable-background:accumulate" sodipodi:nodetypes="cccsccsccsccc" inkscape:label="flecha sombra"/>
      <path style="color:#000000;clip-rule:nonzero;display:inline;overflow:visible;visibility:visible;opacity:1;isolation:auto;mix-blend-mode:normal;color-interpolation:sRGB;color-interpolation-filters:linearRGB;solid-color:#000000;solid-opacity:1;vector-effect:none;fill:url(#linearGradient1101-27);fill-opacity:1;fill-rule:nonzero;stroke:none;stroke-width:0.14771871;stroke-linecap:round;stroke-linejoin:miter;stroke-miterlimit:4;stroke-dasharray:none;stroke-dashoffset:0;stroke-opacity:1;marker:none;marker-start:none;marker-mid:none;marker-end:none;paint-order:markers stroke fill;color-rendering:auto;image-rendering:auto;shape-rendering:auto;text-rendering:auto;enable-background:accumulate" d="m -15.675822,-27.06361 c -0.548858,-2.46e-4 -1.109798,0.247858 -1.522719,0.743411 l -9.408085,12.47917 c -0.345313,0.705442 -0.07248,1.411211 0.913892,1.411211 h 6.859953 l 2.256676,9.1964758 c 0.03203,0.8675864 0.351789,1.5701481 0.788831,1.5701481 0.437045,0 0.756783,-0.7025617 0.788831,-1.5701481 l 2.257845,-9.1964758 h 6.9073671 c 0.9812145,0 0.9806696,-1.335062 0.7280499,-1.668846 -3.0389469,-4.07331 -6.078177,-8.145653 -9.11713,-12.218967 -0.368081,-0.496549 -0.90465,-0.745736 -1.453511,-0.745979 z" id="rect892-7" inkscape:connector-curvature="0" sodipodi:nodetypes="cccsccsccsccc" inkscape:label="flecha"/>
      <path style="color:#000000;clip-rule:nonzero;display:inline;overflow:visible;visibility:visible;opacity:1;isolation:auto;mix-blend-mode:normal;color-interpolation:sRGB;color-interpolation-filters:linearRGB;solid-color:#000000;solid-opacity:1;vector-effect:none;fill:#5d0a0a;fill-opacity:0.43406593;fill-rule:nonzero;stroke:none;stroke-width:0.14771871;stroke-linecap:round;stroke-linejoin:miter;stroke-miterlimit:4;stroke-dasharray:none;stroke-dashoffset:0;stroke-opacity:1;marker:none;marker-start:none;marker-mid:none;marker-end:none;paint-order:markers stroke fill;color-rendering:auto;image-rendering:auto;shape-rendering:auto;text-rendering:auto;enable-background:accumulate" d="m -4.9868605,-13.756939 c -0.061947,0.426938 -0.2974671,0.845853 -0.8467939,0.845853 h -6.9069886 l -2.257648,9.1956292 c -0.03203,0.8675863 -0.351879,1.5703285 -0.788921,1.5703285 -0.437042,0 -0.756866,-0.7027422 -0.788918,-1.5703285 l -2.256703,-9.1956292 h -6.85995 c -0.594785,0 -0.925934,-0.25878 -1.022734,-0.617216 -0.134712,0.586664 0.183801,1.098945 1.022734,1.098945 h 6.85995 l 2.256703,9.1956296 c 0.03207,0.8675829 0.351876,1.5703354 0.788918,1.5703354 0.437042,0 0.756874,-0.7027525 0.788921,-1.5703354 l 2.257648,-9.1956296 h 6.9069886 c 0.7673965,0 0.9313452,-0.812011 0.8467939,-1.327582 z" id="path973-1" inkscape:connector-curvature="0" inkscape:label="flecha sombtop" sodipodi:nodetypes="csccsccscsccsccsc"/>
      <path style="color:#000000;clip-rule:nonzero;display:inline;overflow:visible;visibility:visible;opacity:1;isolation:auto;mix-blend-mode:normal;color-interpolation:sRGB;color-interpolation-filters:linearRGB;solid-color:#000000;solid-opacity:1;vector-effect:none;fill:#ff0000;fill-opacity:0.36263739;fill-rule:nonzero;stroke:none;stroke-width:0.14771871;stroke-linecap:round;stroke-linejoin:miter;stroke-miterlimit:4;stroke-dasharray:none;stroke-dashoffset:0;stroke-opacity:1;marker:none;marker-start:none;marker-mid:none;marker-end:none;paint-order:markers stroke fill;color-rendering:auto;image-rendering:auto;shape-rendering:auto;text-rendering:auto;enable-background:accumulate" d="m -15.67577,-27.063166 c -0.548862,-2.43e-4 -1.109558,0.247924 -1.522486,0.743488 l -9.408141,12.478916 c -0.141514,0.2891 -0.17275,0.574964 -0.100065,0.815576 0.0237,-0.08751 0.05654,-0.175784 0.100065,-0.264691 l 9.408141,-12.478913 c 0.412928,-0.495563 0.973624,-0.743734 1.522486,-0.743484 0.548855,2.43e-4 1.085531,0.249087 1.453608,0.745636 3.03895,4.07331 6.0776211,8.145229 9.116568,12.21854 0.051289,0.06776 0.08857,0.183426 0.1129723,0.314171 0.060462,-0.348801 0.00312,-0.71204 -0.1129723,-0.865063 -3.0389469,-4.073311 -6.077618,-8.145226 -9.116568,-12.21854 -0.368077,-0.496549 -0.904753,-0.745393 -1.453608,-0.745636 z" id="path1100-1" inkscape:connector-curvature="0" sodipodi:nodetypes="ccccccccccccc" inkscape:label="flecha brillo"/>
      <path style="display:inline;fill:#000000;fill-opacity:0.2857143;stroke-width:0.07894093" inkscape:connector-curvature="0" id="path1103-5" d="m -10.785201,-19.510071 h -6.884079 l 0.359193,-1.680788 h 4.195771 L -12.729388,-23 h -6.030714 l -1.899031,8.956026 h 1.821988 l 0.833944,-3.913514 h 4.370243 l -3.797446,3.759496 0.667219,1.18039 c 0.307875,-0.20524 0.808378,-0.230974 1.154775,-0.230974 0.615983,0 1.219028,0.205392 1.84756,0.205392 0.576284,0 1.16637,-0.03854 2.128837,-0.50047 l 0.336289,-1.578167 c -0.654428,0.269349 -1.622894,0.526058 -2.465126,0.526058 -0.346239,0 -0.667063,-0.07698 -1.000673,-0.128277 l 3.681075,-3.57992 0.295247,-1.206186 z" inkscape:label="logo sombra"/>
      <path d="m -10.785201,-20.03494 h -6.884079 l 0.359193,-1.680782 h 4.195771 l 0.384928,-1.809141 h -6.030714 l -1.899031,8.95602 h 1.821988 l 0.833944,-3.913514 h 4.370243 l -3.797446,3.7595 0.667219,1.180392 c 0.307875,-0.205246 0.808378,-0.23098 1.154775,-0.23098 0.615983,0 1.219028,0.205398 1.84756,0.205398 0.576284,0 1.16637,-0.03854 2.128837,-0.500477 l 0.336289,-1.578166 c -0.654428,0.269343 -1.622894,0.526058 -2.465126,0.526058 -0.346239,0 -0.667063,-0.07698 -1.000673,-0.128277 l 3.681075,-3.57992 0.295247,-1.206192 z" id="path9-9" inkscape:connector-curvature="0" style="display:inline;fill:#ffffff;stroke-width:0.07894093" inkscape:label="logo"/>
    </g>
  </g>
</svg>