<?xml version="1.0" encoding="UTF-8" standalone="yes"?>
<svg xmlns:dc="http://purl.org/dc/elements/1.1/" xmlns:cc="http://creativecommons.org/ns#" xmlns:rdf="http://www.w3.org/1999/02/22-rdf-syntax-ns#" xmlns:svg="http://www.w3.org/2000/svg" xmlns="http://www.w3.org/2000/svg" xmlns:xlink="http://www.w3.org/1999/xlink" xmlns:sodipodi="http://sodipodi.sourceforge.net/DTD/sodipodi-0.dtd" xmlns:inkscape="http://www.inkscape.org/namespaces/inkscape" height="32" viewBox="0 0 32 32" width="32" id="svg2" version="1.1" inkscape:version="0.92.1 r" sodipodi:docname="flash-player-properties.svg" enable-background="new" folder="32">
  <title id="title4675">Template icons dark</title>
  <metadata id="metadata24">
    <rdf:RDF>
      <cc:Work rdf:about="">
        <dc:format>image/svg+xml</dc:format>
        <dc:type rdf:resource="http://purl.org/dc/dcmitype/StillImage"/>
        <dc:title>Template icons dark</dc:title>
        <dc:date>17/05/13</dc:date>
        <dc:creator>
          <cc:Agent>
            <dc:title>wfpaisa</dc:title>
          </cc:Agent>
        </dc:creator>
        <dc:rights>
          <cc:Agent>
            <dc:title>License: GPLv3</dc:title>
          </cc:Agent>
        </dc:rights>
        <dc:language>es-en</dc:language>
        <dc:subject>
          <rdf:Bag>
            <rdf:li>plane-icon-theme</rdf:li>
          </rdf:Bag>
        </dc:subject>
        <dc:description>Template for create set icons</dc:description>
        <cc:license rdf:resource="https://www.gnu.org/licenses/gpl-3.0.en.html"/>
      </cc:Work>
    </rdf:RDF>
  </metadata>
  <defs id="defs22">
    <linearGradient inkscape:collect="always" id="linearGradient7769">
      <stop style="stop-color:#ffffff;stop-opacity:0.171875" offset="0" id="stop7765"/>
      <stop style="stop-color:#000000;stop-opacity:0;" offset="1" id="stop7767"/>
    </linearGradient>
    <linearGradient id="linearGradient7744" inkscape:collect="always">
      <stop id="stop7740" offset="0" style="stop-color:#730216;stop-opacity:0.78125"/>
      <stop id="stop7742" offset="1" style="stop-color:#d9042a;stop-opacity:0.02745098"/>
    </linearGradient>
    <linearGradient inkscape:collect="always" id="linearGradient7748">
      <stop style="stop-color:#d40e0e;stop-opacity:1" offset="0" id="stop7744"/>
      <stop style="stop-color:#910404;stop-opacity:0.96470588" offset="1" id="stop7746"/>
    </linearGradient>
    <linearGradient inkscape:collect="always" xlink:href="#linearGradient7748" id="linearGradient7750" x1="160.85533" y1="121.50957" x2="160.85533" y2="200.85536" gradientUnits="userSpaceOnUse"/>
    <linearGradient inkscape:collect="always" xlink:href="#linearGradient7744" id="linearGradient7738" gradientUnits="userSpaceOnUse" x1="198.31935" y1="122.53598" x2="175.15457" y2="144.16115" gradientTransform="translate(1.9073486e-5,-319.99998)"/>
    <linearGradient inkscape:collect="always" xlink:href="#linearGradient7769" id="linearGradient7771" x1="160" y1="197.92126" x2="160" y2="120" gradientUnits="userSpaceOnUse"/>
    <linearGradient gradientTransform="matrix(1.3282359,0,0,1.3282359,59.610776,58.612616)" inkscape:collect="always" xlink:href="#linearGradient7769" id="linearGradient7771-3" x1="160" y1="197.92126" x2="160" y2="120" gradientUnits="userSpaceOnUse"/>
    <linearGradient inkscape:collect="always" xlink:href="#linearGradient7744" id="linearGradient7738-5" gradientUnits="userSpaceOnUse" x1="198.31935" y1="122.53598" x2="175.15457" y2="144.16115" gradientTransform="matrix(1.3282359,0,0,1.3282359,58.612642,-484.64619)"/>
    <linearGradient gradientTransform="matrix(1.3282359,0,0,1.3282359,59.610776,58.612616)" inkscape:collect="always" xlink:href="#linearGradient7748" id="linearGradient7750-6" x1="160.85533" y1="121.50957" x2="160.85533" y2="200.85536" gradientUnits="userSpaceOnUse"/>
    <linearGradient gradientTransform="matrix(0.67421035,0,0,0.67421035,-28.926023,-28.914299)" inkscape:collect="always" xlink:href="#linearGradient7769" id="linearGradient7771-6" x1="160" y1="197.92126" x2="160" y2="120" gradientUnits="userSpaceOnUse"/>
    <linearGradient inkscape:collect="always" xlink:href="#linearGradient7744" id="linearGradient7738-7" gradientUnits="userSpaceOnUse" x1="198.31935" y1="122.53598" x2="175.15457" y2="144.16115" gradientTransform="matrix(0.67421035,0,0,0.67421035,-28.914286,-186.82128)"/>
    <linearGradient gradientTransform="matrix(0.67421035,0,0,0.67421035,-28.926023,-28.914299)" inkscape:collect="always" xlink:href="#linearGradient7748" id="linearGradient7750-0" x1="160.85533" y1="121.50957" x2="160.85533" y2="200.85536" gradientUnits="userSpaceOnUse"/>
    <linearGradient gradientTransform="matrix(0.5,0,0,0.5,-56.999671,-57.000623)" inkscape:collect="always" xlink:href="#linearGradient7769" id="linearGradient7771-1" x1="160" y1="197.92126" x2="160" y2="120" gradientUnits="userSpaceOnUse"/>
    <linearGradient inkscape:collect="always" xlink:href="#linearGradient7744" id="linearGradient7738-3" gradientUnits="userSpaceOnUse" x1="198.31935" y1="122.53598" x2="175.15457" y2="144.16115" gradientTransform="matrix(0.5,0,0,0.5,-57.000613,-103.00032)"/>
    <linearGradient gradientTransform="matrix(0.5,0,0,0.5,-56.999671,-57.000623)" inkscape:collect="always" xlink:href="#linearGradient7748" id="linearGradient7750-4" x1="160.85533" y1="121.50957" x2="160.85533" y2="200.85536" gradientUnits="userSpaceOnUse"/>
    <linearGradient gradientTransform="matrix(0.36363218,0,0,0.36363218,-74.908599,-74.908229)" inkscape:collect="always" xlink:href="#linearGradient7769" id="linearGradient7771-5" x1="160" y1="197.92126" x2="160" y2="120" gradientUnits="userSpaceOnUse"/>
    <linearGradient inkscape:collect="always" xlink:href="#linearGradient7744" id="linearGradient7738-76" gradientUnits="userSpaceOnUse" x1="198.31935" y1="122.53598" x2="175.15457" y2="144.16115" gradientTransform="matrix(0.36363218,0,0,0.36363218,-74.908221,-41.453692)"/>
    <linearGradient gradientTransform="matrix(0.36363218,0,0,0.36363218,-74.908599,-74.908229)" inkscape:collect="always" xlink:href="#linearGradient7748" id="linearGradient7750-9" x1="160.85533" y1="121.50957" x2="160.85533" y2="200.85536" gradientUnits="userSpaceOnUse"/>
    <linearGradient gradientTransform="matrix(0.275,0,0,0.275,-87.999989,-88.000001)" inkscape:collect="always" xlink:href="#linearGradient7748" id="linearGradient7750-9-8" x1="160.85533" y1="121.50957" x2="160.85533" y2="200.85536" gradientUnits="userSpaceOnUse"/>
    <linearGradient gradientTransform="matrix(0.17499999,0,0,0.17499999,-91.999991,-91.999994)" inkscape:collect="always" xlink:href="#linearGradient7748" id="linearGradient7750-9-8-9" x1="160.85533" y1="199.99998" x2="160.85533" y2="211.42854" gradientUnits="userSpaceOnUse"/>
    <symbol id="icon-cog" viewBox="0 0 24 28">
      <title id="title12501">cog</title>
      <path d="M16 14c0-2.203-1.797-4-4-4s-4 1.797-4 4 1.797 4 4 4 4-1.797 4-4zM24 12.297v3.469c0 0.234-0.187 0.516-0.438 0.562l-2.891 0.438c-0.172 0.5-0.359 0.969-0.609 1.422 0.531 0.766 1.094 1.453 1.672 2.156 0.094 0.109 0.156 0.25 0.156 0.391s-0.047 0.25-0.141 0.359c-0.375 0.5-2.484 2.797-3.016 2.797-0.141 0-0.281-0.063-0.406-0.141l-2.156-1.687c-0.453 0.234-0.938 0.438-1.422 0.594-0.109 0.953-0.203 1.969-0.453 2.906-0.063 0.25-0.281 0.438-0.562 0.438h-3.469c-0.281 0-0.531-0.203-0.562-0.469l-0.438-2.875c-0.484-0.156-0.953-0.344-1.406-0.578l-2.203 1.672c-0.109 0.094-0.25 0.141-0.391 0.141s-0.281-0.063-0.391-0.172c-0.828-0.75-1.922-1.719-2.578-2.625-0.078-0.109-0.109-0.234-0.109-0.359 0-0.141 0.047-0.25 0.125-0.359 0.531-0.719 1.109-1.406 1.641-2.141-0.266-0.5-0.484-1.016-0.641-1.547l-2.859-0.422c-0.266-0.047-0.453-0.297-0.453-0.562v-3.469c0-0.234 0.187-0.516 0.422-0.562l2.906-0.438c0.156-0.5 0.359-0.969 0.609-1.437-0.531-0.75-1.094-1.453-1.672-2.156-0.094-0.109-0.156-0.234-0.156-0.375s0.063-0.25 0.141-0.359c0.375-0.516 2.484-2.797 3.016-2.797 0.141 0 0.281 0.063 0.406 0.156l2.156 1.672c0.453-0.234 0.938-0.438 1.422-0.594 0.109-0.953 0.203-1.969 0.453-2.906 0.063-0.25 0.281-0.438 0.562-0.438h3.469c0.281 0 0.531 0.203 0.562 0.469l0.438 2.875c0.484 0.156 0.953 0.344 1.406 0.578l2.219-1.672c0.094-0.094 0.234-0.141 0.375-0.141s0.281 0.063 0.391 0.156c0.828 0.766 1.922 1.734 2.578 2.656 0.078 0.094 0.109 0.219 0.109 0.344 0 0.141-0.047 0.25-0.125 0.359-0.531 0.719-1.109 1.406-1.641 2.141 0.266 0.5 0.484 1.016 0.641 1.531l2.859 0.438c0.266 0.047 0.453 0.297 0.453 0.562z" id="path12503"/>
    </symbol>
  </defs>
  <sodipodi:namedview pagecolor="#383c4a" bordercolor="#ffffff" borderopacity="0.62745098" objecttolerance="4" gridtolerance="10" guidetolerance="4" inkscape:pageopacity="0" inkscape:pageshadow="2" inkscape:window-width="640" inkscape:window-height="480" id="namedview20" showgrid="true" inkscape:zoom="11.621654" inkscape:cx="-73.27909" inkscape:cy="95.331744" inkscape:current-layer="layer6" inkscape:snap-smooth-nodes="false" showguides="true" borderlayer="true" inkscape:showpageshadow="false" inkscape:guide-bbox="true" guidecolor="#bd4fff" guideopacity="0.78431373" inkscape:snap-nodes="true" inkscape:lockguides="false" fit-margin-top="0" fit-margin-left="0" fit-margin-right="0" fit-margin-bottom="0" guidehicolor="#ff0101" guidehiopacity="0.78431373" inkscape:snap-page="true" inkscape:object-nodes="true" inkscape:snap-bbox="true" inkscape:snap-global="true" inkscape:snap-object-midpoints="false" inkscape:snap-bbox-edge-midpoints="false" inkscape:bbox-nodes="true">
    <inkscape:grid type="xygrid" id="grid4171" empspacing="4" dotted="false" originx="2.7755576e-17" originy="0" spacingx="1" spacingy="1" color="#5a5a5a" opacity="0.23529412" empcolor="#5a5a5a" empopacity="0.47058824" visible="true"/>
    <inkscape:grid type="axonomgrid" id="grid4699" units="mm" empspacing="4" color="#5a5a5a" opacity="0.23529412" empcolor="#5a5a5a" empopacity="0.47058824" gridanglex="45" gridanglez="45" spacingy="3.7795276" visible="false" originx="1.3228346" originy="1.3228346"/>
    <sodipodi:guide position="48,0" orientation="1,0" id="guide4568" inkscape:locked="false" inkscape:label="" inkscape:color="rgb(189,79,255)"/>
    <sodipodi:guide position="111.99996,-3.9999999e-05" orientation="0,1" id="guide4570" inkscape:locked="false" inkscape:label="" inkscape:color="rgb(189,79,255)"/>
    <sodipodi:guide position="0,0" orientation="1,0" id="guide4572" inkscape:locked="false" inkscape:label="" inkscape:color="rgb(189,79,255)"/>
    <sodipodi:guide position="0,48" orientation="0,1" id="guide4574" inkscape:locked="false" inkscape:label="" inkscape:color="rgb(189,79,255)"/>
    <sodipodi:guide position="0,80" orientation="0,1" id="guide4576" inkscape:locked="false" inkscape:label="" inkscape:color="rgb(189,79,255)"/>
    <sodipodi:guide position="-32,48" orientation="1,0" id="guide4578" inkscape:locked="false" inkscape:label="" inkscape:color="rgb(189,79,255)"/>
    <sodipodi:guide position="-32,104" orientation="0,1" id="guide4580" inkscape:locked="false" inkscape:label="" inkscape:color="rgb(189,79,255)"/>
    <sodipodi:guide position="-56,80" orientation="1,0" id="guide4582" inkscape:locked="false" inkscape:label="" inkscape:color="rgb(189,79,255)"/>
    <sodipodi:guide position="48,-64" orientation="0,1" id="guide4584" inkscape:locked="false" inkscape:label="" inkscape:color="rgb(189,79,255)"/>
    <sodipodi:guide position="0,0" orientation="-0.70710678,0.70710678" id="guide4588" inkscape:locked="false" inkscape:label="" inkscape:color="rgb(189,79,255)"/>
    <sodipodi:guide position="-56,80" orientation="-0.70710678,0.70710678" id="guide4573" inkscape:locked="false" inkscape:label="" inkscape:color="rgb(189,79,255)"/>
    <sodipodi:guide position="-32,48" orientation="-0.70710678,0.70710678" id="guide4575" inkscape:locked="false" inkscape:label="" inkscape:color="rgb(189,79,255)"/>
    <sodipodi:guide position="48,-64" orientation="-0.70710678,0.70710678" id="guide4577" inkscape:locked="false" inkscape:label="" inkscape:color="rgb(189,79,255)"/>
    <sodipodi:guide position="47.999962,0" orientation="0.70710678,0.70710678" id="guide4697" inkscape:locked="false" inkscape:label="" inkscape:color="rgb(189,79,255)"/>
    <sodipodi:guide position="207.99995,-288" orientation="0,1" id="guide7833" inkscape:locked="false"/>
    <sodipodi:guide position="335.99994,-288" orientation="1,0" id="guide7835" inkscape:locked="false" inkscape:label="" inkscape:color="rgb(189,79,255)"/>
    <sodipodi:guide position="111.99996,-64" orientation="1,0" id="guide7915" inkscape:locked="false"/>
    <sodipodi:guide position="111.99996,-160" orientation="0,1" id="guide7917" inkscape:locked="false"/>
    <sodipodi:guide position="207.99996,-160" orientation="1,0" id="guide7919" inkscape:locked="false"/>
    <sodipodi:guide position="111.99996,-160" orientation="-0.70710678,0.70710678" id="guide7921" inkscape:locked="false" inkscape:label="" inkscape:color="rgb(189,79,255)"/>
    <sodipodi:guide position="207.99996,-288" orientation="-0.70710678,0.70710678" id="guide7923" inkscape:locked="false" inkscape:label="" inkscape:color="rgb(189,79,255)"/>
    <sodipodi:guide position="-72,104" orientation="1,0" id="guide7824" inkscape:locked="false"/>
    <sodipodi:guide position="-56,120" orientation="0,1" id="guide7826" inkscape:locked="false"/>
    <sodipodi:guide position="-72,104" orientation="-0.70710678,0.70710678" id="guide7828" inkscape:locked="false" inkscape:label="" inkscape:color="rgb(189,79,255)"/>
  </sodipodi:namedview>
  <g style="display:inline" inkscape:label="icon_32" id="g7816" inkscape:groupmode="layer" transform="translate(32,32)">
    <g style="display:none" inkscape:label="frame" id="g7802" inkscape:groupmode="layer">
      <rect style="color:#000000;clip-rule:nonzero;display:block;overflow:visible;visibility:visible;opacity:1;isolation:auto;mix-blend-mode:normal;color-interpolation:sRGB;color-interpolation-filters:linearRGB;solid-color:#000000;solid-opacity:1;vector-effect:none;fill:#000000;fill-opacity:1;fill-rule:nonzero;stroke:#ff24f7;stroke-width:0;stroke-linecap:square;stroke-linejoin:miter;stroke-miterlimit:4;stroke-dasharray:none;stroke-dashoffset:0;stroke-opacity:0.99481865;marker:none;marker-start:none;marker-mid:none;marker-end:none;paint-order:normal;color-rendering:auto;image-rendering:auto;shape-rendering:auto;text-rendering:auto;enable-background:accumulate" id="rect7792" width="32" height="32" x="-32" y="-32" inkscape:label="frame_32"/>
      <text inkscape:label="txt_32" id="text7796" y="-11.470053" x="-23.799042" style="font-size:12.4444437px;line-height:1000%;font-family:sans-serif;letter-spacing:0px;word-spacing:0px;display:inline;opacity:1;fill:#ffffff;fill-opacity:1;stroke:none;stroke-width:0.07444605px;stroke-linecap:butt;stroke-linejoin:miter;stroke-opacity:1" xml:space="preserve">
        <tspan id="tspan7794" style="font-size:12.4444437px;fill:#ffffff;fill-opacity:1;stroke:none;stroke-width:0.07444605px" y="-11.470053" x="-23.799042" sodipodi:role="line">32</tspan>
      </text>
    </g>
    <g style="display:inline" inkscape:label="icon" id="g7814" inkscape:groupmode="layer">
      <rect inkscape:label="sombra" style="color:#000000;clip-rule:nonzero;display:block;overflow:visible;visibility:visible;opacity:1;isolation:auto;mix-blend-mode:normal;color-interpolation:sRGB;color-interpolation-filters:linearRGB;solid-color:#000000;solid-opacity:1;vector-effect:none;fill:#000000;fill-opacity:0.07843137;fill-rule:nonzero;stroke:none;stroke-width:0.37717941px;stroke-linecap:butt;stroke-linejoin:miter;stroke-miterlimit:4;stroke-dasharray:none;stroke-dashoffset:0;stroke-opacity:1;marker:none;marker-start:none;marker-mid:none;marker-end:none;paint-order:fill markers stroke;color-rendering:auto;image-rendering:auto;shape-rendering:auto;text-rendering:auto;enable-background:accumulate" id="rect7759-45" width="30.181471" height="30.545103" x="-32" y="-31.999632"/>
      <rect y="-31.636" x="-31.636385" height="29.817839" width="29.817852" id="rect29472-25" style="color:#000000;clip-rule:nonzero;display:block;overflow:visible;visibility:visible;opacity:1;isolation:auto;mix-blend-mode:normal;color-interpolation:sRGB;color-interpolation-filters:linearRGB;solid-color:#000000;solid-opacity:1;vector-effect:none;fill:#000000;fill-opacity:0.07843137;fill-rule:nonzero;stroke:none;stroke-width:0.37272301px;stroke-linecap:butt;stroke-linejoin:miter;stroke-miterlimit:4;stroke-dasharray:none;stroke-dashoffset:0;stroke-opacity:1;marker:none;marker-start:none;marker-mid:none;marker-end:none;paint-order:fill markers stroke;color-rendering:auto;image-rendering:auto;shape-rendering:auto;text-rendering:auto;enable-background:accumulate" inkscape:label="sombra"/>
      <rect style="color:#000000;clip-rule:nonzero;display:inline;overflow:visible;visibility:visible;opacity:1;isolation:auto;mix-blend-mode:normal;color-interpolation:sRGB;color-interpolation-filters:linearRGB;solid-color:#000000;solid-opacity:1;vector-effect:none;fill:url(#linearGradient7750-9);fill-opacity:1;fill-rule:nonzero;stroke:none;stroke-width:0.36363217px;stroke-linecap:butt;stroke-linejoin:miter;stroke-miterlimit:4;stroke-dasharray:none;stroke-dashoffset:0;stroke-opacity:1;marker:none;marker-start:none;marker-mid:none;marker-end:none;paint-order:fill markers stroke;color-rendering:auto;image-rendering:auto;shape-rendering:auto;text-rendering:auto;enable-background:accumulate" id="rect7742-4" width="29.090588" height="29.090574" x="-31.272753" y="-31.272367" inkscape:label="base"/>
      <rect y="2.182168" x="-31.272375" height="29.090574" width="29.090588" id="rect7736-7" style="color:#000000;clip-rule:nonzero;display:block;overflow:visible;visibility:visible;opacity:1;isolation:auto;mix-blend-mode:normal;color-interpolation:sRGB;color-interpolation-filters:linearRGB;solid-color:#000000;solid-opacity:1;vector-effect:none;fill:url(#linearGradient7738-76);fill-opacity:1;fill-rule:nonzero;stroke:none;stroke-width:0.36363217px;stroke-linecap:butt;stroke-linejoin:miter;stroke-miterlimit:4;stroke-dasharray:none;stroke-dashoffset:0;stroke-opacity:1;marker:none;marker-start:none;marker-mid:none;marker-end:none;paint-order:fill markers stroke;color-rendering:auto;image-rendering:auto;shape-rendering:auto;text-rendering:auto;enable-background:accumulate" inkscape:label="brillo" transform="rotate(90)"/>
      <path sodipodi:nodetypes="cccccccccc" inkscape:connector-curvature="0" id="path29510-4" d="m -21.818301,-13.090758 v 2.545425 c 1.954927,0.162958 4.422676,-0.585626 5.818115,-4.727218 h 2.909058 v -2.545426 h -1.818162 c 0.854474,-1.054682 2.051006,-1.925854 3.27269,-2.181793 v -2.545425 c -4.442032,0.443053 -5.010968,2.96578 -6.181747,5.090851 -1.60752,2.981256 -2.565251,3.563817 -3.999954,4.363586 z" style="display:inline;fill:#000000;fill-opacity:0.15104167;fill-rule:evenodd;stroke:none;stroke-width:0.36363217px;stroke-linecap:butt;stroke-linejoin:miter;stroke-opacity:1"/>
      <path style="display:inline;fill:#fefefe;fill-opacity:1;fill-rule:evenodd;stroke:none;stroke-width:0.36363217px;stroke-linecap:butt;stroke-linejoin:miter;stroke-opacity:1" d="m -21.818301,-13.45439 v 2.545425 c 1.954927,0.162958 4.422676,-0.585626 5.818115,-4.727219 h 2.909058 v -2.545425 h -1.818162 c 0.854474,-1.054682 2.051006,-1.925854 3.27269,-2.181793 v -2.545425 c -4.442032,0.443053 -5.010968,2.96578 -6.181747,5.09085 -1.60752,2.981257 -2.565251,3.563818 -3.999954,4.363587 z" id="path7736-4" inkscape:connector-curvature="0" sodipodi:nodetypes="cccccccccc"/>
      <path style="font-style:normal;font-variant:normal;font-weight:bold;font-stretch:normal;font-size:medium;line-height:1000%;font-family:sans-serif;-inkscape-font-specification:'sans-serif Bold';letter-spacing:0px;word-spacing:0px;display:inline;fill:#ffffff;fill-opacity:1;stroke:none;stroke-width:0.07193866px;stroke-linecap:butt;stroke-linejoin:miter;stroke-opacity:1" d="m -16.72745,-11.63623 v 0.163479 h 0.278476 v 0.675675 h 0.216932 v -0.675675 h 0.277852 v -0.163479 z m 0.884524,0 v 0.839154 h 0.205128 v -0.613516 l 0.193315,0.452522 h 0.137373 l 0.193317,-0.452522 v 0.613516 h 0.204503 v -0.839154 h -0.274742 l -0.192078,0.449413 -0.191448,-0.449413 z" id="path29502-3" inkscape:connector-curvature="0"/>
      <path style="color:#000000;font-style:normal;font-variant:normal;font-weight:normal;font-stretch:normal;font-size:medium;line-height:normal;font-family:sans-serif;font-variant-ligatures:normal;font-variant-position:normal;font-variant-caps:normal;font-variant-numeric:normal;font-variant-alternates:normal;font-feature-settings:normal;text-indent:0;text-align:start;text-decoration:none;text-decoration-line:none;text-decoration-style:solid;text-decoration-color:#000000;letter-spacing:normal;word-spacing:normal;text-transform:none;writing-mode:lr-tb;direction:ltr;text-orientation:mixed;dominant-baseline:auto;baseline-shift:baseline;text-anchor:start;white-space:normal;shape-padding:0;clip-rule:nonzero;display:inline;overflow:visible;visibility:visible;opacity:1;isolation:auto;mix-blend-mode:normal;color-interpolation:sRGB;color-interpolation-filters:linearRGB;solid-color:#000000;solid-opacity:1;vector-effect:none;fill:url(#linearGradient7771-5);fill-opacity:1;fill-rule:nonzero;stroke:none;stroke-width:0.36363217px;stroke-linecap:butt;stroke-linejoin:miter;stroke-miterlimit:4;stroke-dasharray:none;stroke-dashoffset:0;stroke-opacity:1;marker:none;paint-order:fill markers stroke;color-rendering:auto;image-rendering:auto;shape-rendering:auto;text-rendering:auto;enable-background:accumulate" d="M -2.1821774,-31.272367 H -31.272738 v 29.0905594 l 29.0905751,2.91e-5 z m -0.3636177,0.363632 -1.45e-5,28.3633098 H -30.90912 l 1.4e-5,-28.3633098 z" id="rect7761-07" inkscape:connector-curvature="0" sodipodi:nodetypes="cccccccccc"/>
      <path id="path29517-8" d="m -3.4008289,-4.5557694 c 0,-0.8362849 -0.6821412,-1.5184589 -1.5184043,-1.5184589 -0.8362595,0 -1.5183971,0.682174 -1.5183971,1.5184589 0,0.8363067 0.6821376,1.5184698 1.5183971,1.5184698 0.8362631,0 1.5184043,-0.6821631 1.5184043,-1.5184698 z m 3.03682687,-0.6464907 v 1.3168939 c 0,0.088795 -0.0709955,0.1958777 -0.16625627,0.2133466 l -1.0974383,0.1662745 c -0.065294,0.1897978 -0.1362747,0.3678358 -0.2311791,0.5398047 0.2015613,0.2907785 0.4152898,0.55159 0.6346909,0.818456 0.035672,0.041283 0.059181,0.09489 0.059181,0.1484201 0,0.05357 -0.017891,0.094897 -0.053505,0.136293 -0.1423584,0.1897978 -0.9429274,1.06177324 -1.1448814,1.06177324 -0.053501,0 -0.1066861,-0.0239997 -0.1541146,-0.0535085 L -3.3359351,-1.4949064 c -0.1719544,0.088788 -0.3560723,0.1662708 -0.5397974,0.2254847 -0.04128,0.36177759 -0.076996,0.74747133 -0.1719544,1.10315452 C -4.0716869,-0.07137737 -4.1543511,0 -4.2610154,0 H -5.5778766 C -5.6845335,0 -5.7794379,-0.0770937 -5.7911941,-0.17803068 L -5.9574613,-1.2694217 c -0.1837397,-0.059185 -0.3617595,-0.1305949 -0.5337284,-0.2194157 l -0.8362629,0.63471267 c -0.041283,0.0356723 -0.094894,0.0535085 -0.1484201,0.0535085 -0.053505,0 -0.1066715,-0.0240361 -0.1484238,-0.0652974 -0.3143164,-0.28471307 -0.7295989,-0.65257427 -0.9786287,-0.99649767 -0.029636,-0.041283 -0.041283,-0.088799 -0.041283,-0.1362711 0,-0.053505 0.017891,-0.094901 0.047392,-0.136293 0.2015686,-0.2729278 0.4209806,-0.5337321 0.6229346,-0.8127543 -0.1009733,-0.1897942 -0.1837397,-0.3856865 -0.2433208,-0.5872551 l -1.0852821,-0.1602018 c -0.1009915,-0.017891 -0.1719616,-0.1127441 -0.1719616,-0.2133393 v -1.3168866 c 0,-0.088799 0.070992,-0.1958815 0.1601872,-0.213354 l 1.1031146,-0.1662563 c 0.059178,-0.1898122 0.1362894,-0.3678647 0.2311864,-0.5455136 -0.2015685,-0.2847132 -0.4152897,-0.5515791 -0.6346908,-0.8184451 -0.035672,-0.04128 -0.059181,-0.088792 -0.059181,-0.1423621 0,-0.053505 0.024,-0.094901 0.053505,-0.1362821 0.1423474,-0.1958777 0.9429273,-1.0617769 1.1448741,-1.0617769 0.053505,0 0.1066715,0.024036 0.1541218,0.059185 l 0.8184232,0.6347163 c 0.1719653,-0.088795 0.3560686,-0.1662599 0.5398083,-0.2254847 0.041283,-0.3617849 0.077086,-0.7474605 0.1719544,-1.1031727 0.024,-0.094897 0.1066569,-0.1662745 0.2133357,-0.1662745 h 1.3168431 c 0.1066715,0 0.2015722,0.076996 0.213343,0.1780525 l 0.1662526,1.0913947 c 0.1837397,0.059181 0.3617667,0.1305731 0.5337284,0.2194048 l 0.8423358,-0.6347054 c 0.035745,-0.035672 0.088792,-0.053508 0.1423474,-0.053508 0.053505,0 0.1066715,0.024 0.1484419,0.059181 0.3143019,0.2907858 0.7295771,0.6582579 0.9786033,1.0082575 0.029636,0.035672 0.041283,0.083199 0.041283,0.1305912 0,0.053509 -0.017891,0.094897 -0.047396,0.1362858 -0.2015577,0.2729495 -0.4209588,0.533732 -0.6229129,0.812747 0.1009662,0.1897978 0.1837143,0.385701 0.2433172,0.5811933 l 1.08528935,0.1662635 c 0.10096974,0.017891 0.17194711,0.1127551 0.17194711,0.2133539 z" inkscape:connector-curvature="0" style="display:inline;fill:#000000;fill-opacity:0.27083333;stroke:none;stroke-width:0.37960872" inkscape:label="rueda"/>
      <path style="display:inline;fill:#fbfbfb;fill-opacity:1;stroke:none;stroke-width:0.37960872" inkscape:connector-curvature="0" d="m -3.7448213,-4.89978 c 0,-0.8362849 -0.6821449,-1.5184552 -1.5184116,-1.5184552 -0.8362522,0 -1.5183969,0.6821703 -1.5183969,1.5184552 0,0.8363068 0.6821447,1.5184735 1.5183969,1.5184735 0.8362667,0 1.5184116,-0.6821667 1.5184116,-1.5184735 z m 3.03682687,-0.6464835 v 1.316894 c 0,0.088795 -0.0709992,0.1958777 -0.16625991,0.2133466 L -1.971689,-3.8497521 c -0.065301,0.1898015 -0.1362784,0.3678394 -0.2311828,0.5398011 0.2015577,0.2907857 0.4152862,0.55159 0.6346946,0.8184597 0.035672,0.041279 0.059178,0.094886 0.059178,0.1484201 0,0.053567 -0.017891,0.094901 -0.053505,0.1362893 -0.1423547,0.1898015 -0.9429237,1.0617806 -1.1448777,1.0617806 -0.053505,0 -0.1066861,-0.024 -0.1541146,-0.053509 l -0.8184346,-0.6404072 c -0.1719581,0.088795 -0.3560687,0.1662744 -0.5397938,0.2254883 -0.041283,0.3617777 -0.076996,0.74747138 -0.1719544,1.10315093 -0.024,0.0948971 -0.1066679,0.16627445 -0.2133321,0.16627445 h -1.3168612 c -0.106657,0 -0.2015577,-0.0770973 -0.2133212,-0.17803432 L -6.3014537,-1.6134287 c -0.1837397,-0.059181 -0.3617595,-0.1305949 -0.5337282,-0.2194156 l -0.8362668,0.6347163 c -0.041283,0.035672 -0.09489,0.053508 -0.1484165,0.053508 -0.053505,0 -0.1066751,-0.024 -0.1484273,-0.065305 -0.3143164,-0.2847095 -0.7296026,-0.6525671 -0.9786288,-0.996494 -0.029636,-0.04128 -0.041283,-0.088795 -0.041283,-0.1362712 0,-0.053508 0.017891,-0.094897 0.047392,-0.1362893 0.201565,-0.2729314 0.4209807,-0.5337357 0.6229347,-0.812758 -0.1009734,-0.1897941 -0.1837397,-0.3856864 -0.2433245,-0.587255 l -1.0852748,-0.1602018 c -0.1009915,-0.017891 -0.1719616,-0.1127442 -0.1719616,-0.2133394 v -1.3168867 c 0,-0.088799 0.070992,-0.1958777 0.1601836,-0.2133539 l 1.1031182,-0.1662554 c 0.059178,-0.1898088 0.1362857,-0.3678613 0.2311828,-0.5455101 -0.2015722,-0.2847131 -0.4152934,-0.5515791 -0.6346909,-0.8184488 -0.035672,-0.041279 -0.059181,-0.088799 -0.059181,-0.142362 0,-0.053509 0.024,-0.094897 0.053505,-0.1362821 0.1423511,-0.1958777 0.9429274,-1.0617768 1.1448778,-1.0617768 0.053505,0 0.1066715,0.024036 0.1541218,0.059185 l 0.8184197,0.6347164 c 0.1719617,-0.088795 0.3560721,-0.1662599 0.5398082,-0.2254883 0.041283,-0.3617813 0.07709,-0.7474533 0.171958,-1.1031692 0.024,-0.094897 0.1066533,-0.1662708 0.2133321,-0.1662708 h 1.3168466 c 0.1066715,0 0.2015686,0.076992 0.2133358,0.1780525 l 0.1662599,1.0913875 c 0.183736,0.059185 0.3617667,0.1305803 0.5337284,0.219412 l 0.8423321,-0.6347091 c 0.035745,-0.035672 0.088792,-0.053508 0.1423511,-0.053508 0.053505,0 0.1066715,0.024036 0.1484383,0.059181 0.3143018,0.2907894 0.7295734,0.6582615 0.9786033,1.0082575 0.029636,0.035672 0.041283,0.083199 0.041283,0.1305912 0,0.053505 -0.017891,0.094901 -0.047396,0.1362857 -0.2015613,0.2729496 -0.4209588,0.533732 -0.6229128,0.812747 0.1009661,0.1897978 0.1837142,0.385701 0.2433172,0.5811897 l 1.08528567,0.1662708 c 0.10097702,0.017891 0.17195075,0.1127514 0.17195075,0.2133503 z" id="path29458-68" inkscape:label="rueda"/>
    </g>
  </g>
</svg>