<?xml version="1.0" encoding="UTF-8" standalone="yes"?>
<svg xmlns:dc="http://purl.org/dc/elements/1.1/" xmlns:cc="http://creativecommons.org/ns#" xmlns:rdf="http://www.w3.org/1999/02/22-rdf-syntax-ns#" xmlns:svg="http://www.w3.org/2000/svg" xmlns="http://www.w3.org/2000/svg" xmlns:xlink="http://www.w3.org/1999/xlink" xmlns:sodipodi="http://sodipodi.sourceforge.net/DTD/sodipodi-0.dtd" xmlns:inkscape="http://www.inkscape.org/namespaces/inkscape" height="64" viewBox="0 0 64 64" width="64" id="svg2" version="1.1" inkscape:version="0.92.1 r" sodipodi:docname="evolution.svg" enable-background="new" folder="64">
  <title id="title4675">Template icons dark</title>
  <metadata id="metadata24">
    <rdf:RDF>
      <cc:Work rdf:about="">
        <dc:format>image/svg+xml</dc:format>
        <dc:type rdf:resource="http://purl.org/dc/dcmitype/StillImage"/>
        <dc:title>Template icons dark</dc:title>
        <dc:date>17/05/13</dc:date>
        <dc:creator>
          <cc:Agent>
            <dc:title>wfpaisa</dc:title>
          </cc:Agent>
        </dc:creator>
        <dc:rights>
          <cc:Agent>
            <dc:title>License: GPLv3</dc:title>
          </cc:Agent>
        </dc:rights>
        <dc:language>es-en</dc:language>
        <dc:subject>
          <rdf:Bag>
            <rdf:li>plane-icon-theme</rdf:li>
          </rdf:Bag>
        </dc:subject>
        <dc:description>Template for create set icons</dc:description>
        <cc:license rdf:resource="https://www.gnu.org/licenses/gpl-3.0.en.html"/>
      </cc:Work>
    </rdf:RDF>
  </metadata>
  <defs id="defs22">
    <linearGradient inkscape:collect="always" id="linearGradient8505">
      <stop style="stop-color:#030303;stop-opacity:0.15104167" offset="0" id="stop8501"/>
      <stop style="stop-color:#030303;stop-opacity:0.16145833" offset="1" id="stop8503"/>
    </linearGradient>
    <linearGradient inkscape:collect="always" id="linearGradient8499">
      <stop style="stop-color:#030303;stop-opacity:0.203125" offset="0" id="stop8495"/>
      <stop style="stop-color:#030303;stop-opacity:0.16145833" offset="1" id="stop8497"/>
    </linearGradient>
    <linearGradient id="linearGradient8493" inkscape:collect="always">
      <stop id="stop8489" offset="0" style="stop-color:#000000;stop-opacity:0"/>
      <stop id="stop8491" offset="1" style="stop-color:#000000;stop-opacity:0.09375"/>
    </linearGradient>
    <linearGradient inkscape:collect="always" id="linearGradient7974">
      <stop style="stop-color:#000000;stop-opacity:0" offset="0" id="stop7970"/>
      <stop style="stop-color:#000000;stop-opacity:0.05208333" offset="1" id="stop7972"/>
    </linearGradient>
    <linearGradient inkscape:collect="always" id="linearGradient7966">
      <stop style="stop-color:#e6e6e6;stop-opacity:1" offset="0" id="stop7962"/>
      <stop style="stop-color:#ffffff;stop-opacity:1" offset="1" id="stop7964"/>
    </linearGradient>
    <linearGradient inkscape:collect="always" id="linearGradient7947">
      <stop style="stop-color:#030303;stop-opacity:0.13541667" offset="0" id="stop7943"/>
      <stop id="stop7951" offset="0.40221724" style="stop-color:#030303;stop-opacity:0.25"/>
      <stop style="stop-color:#030303;stop-opacity:0;" offset="1" id="stop7945"/>
    </linearGradient>
    <linearGradient inkscape:collect="always" id="linearGradient7913">
      <stop style="stop-color:#000000;stop-opacity:0.078125" offset="0" id="stop7909"/>
      <stop style="stop-color:#000000;stop-opacity:0" offset="1" id="stop7911"/>
    </linearGradient>
    <linearGradient inkscape:collect="always" id="linearGradient7905">
      <stop style="stop-color:#ffffff;stop-opacity:1" offset="0" id="stop7901"/>
      <stop style="stop-color:#e7e7e7;stop-opacity:1" offset="1" id="stop7903"/>
    </linearGradient>
    <linearGradient id="linearGradient7803" inkscape:collect="always">
      <stop id="stop7799" offset="0" style="stop-color:#030303;stop-opacity:0.078125"/>
      <stop id="stop7801" offset="1" style="stop-color:#030303;stop-opacity:0.16145833"/>
    </linearGradient>
    <linearGradient inkscape:collect="always" id="linearGradient7734">
      <stop style="stop-color:#030303;stop-opacity:0.18229167" offset="0" id="stop7730"/>
      <stop style="stop-color:#030303;stop-opacity:0;" offset="1" id="stop7732"/>
    </linearGradient>
    <linearGradient gradientTransform="translate(-116,-133)" inkscape:collect="always" xlink:href="#linearGradient7734" id="linearGradient7736-3" x1="160" y1="162" x2="160" y2="131.26768" gradientUnits="userSpaceOnUse"/>
    <linearGradient inkscape:collect="always" xlink:href="#linearGradient7803" id="linearGradient7797" gradientUnits="userSpaceOnUse" x1="160" y1="162" x2="160" y2="124"/>
    <linearGradient inkscape:collect="always" xlink:href="#linearGradient7803" id="linearGradient7837" gradientUnits="userSpaceOnUse" x1="160" y1="162" x2="160" y2="124" gradientTransform="matrix(1,0,0,-1,0,321)"/>
    <linearGradient inkscape:collect="always" xlink:href="#linearGradient7905" id="linearGradient7907" x1="160.06299" y1="163" x2="160.06299" y2="136" gradientUnits="userSpaceOnUse"/>
    <linearGradient inkscape:collect="always" xlink:href="#linearGradient7913" id="linearGradient7915" x1="160.12599" y1="160" x2="160.12599" y2="136" gradientUnits="userSpaceOnUse"/>
    <linearGradient inkscape:collect="always" xlink:href="#linearGradient7947" id="linearGradient7949" x1="146" y1="146" x2="177.07086" y2="146" gradientUnits="userSpaceOnUse"/>
    <linearGradient inkscape:collect="always" xlink:href="#linearGradient7803" id="linearGradient7953" gradientUnits="userSpaceOnUse" x1="160" y1="162" x2="160" y2="124"/>
    <linearGradient inkscape:collect="always" xlink:href="#linearGradient7966" id="linearGradient7968" x1="161" y1="187.4567" x2="161" y2="165" gradientUnits="userSpaceOnUse"/>
    <linearGradient inkscape:collect="always" xlink:href="#linearGradient7974" id="linearGradient7976" x1="160.06299" y1="184" x2="160.06299" y2="166.00932" gradientUnits="userSpaceOnUse"/>
    <linearGradient inkscape:collect="always" xlink:href="#linearGradient7803" id="linearGradient7837-1" gradientUnits="userSpaceOnUse" x1="160" y1="162" x2="160" y2="124" gradientTransform="matrix(1.33,0,0,-1.33,59.2,485.965)"/>
    <linearGradient gradientTransform="matrix(1.33,0,0,1.33,59.2,59.035)" inkscape:collect="always" xlink:href="#linearGradient7966" id="linearGradient7968-0" x1="161" y1="187.4567" x2="161" y2="165" gradientUnits="userSpaceOnUse"/>
    <linearGradient gradientTransform="matrix(1.33,0,0,1.33,59.2,59.035)" inkscape:collect="always" xlink:href="#linearGradient7974" id="linearGradient7976-6" x1="160.06299" y1="184" x2="160.06299" y2="166.00932" gradientUnits="userSpaceOnUse"/>
    <linearGradient gradientTransform="matrix(1.33,0,0,1.33,59.2,59.035)" inkscape:collect="always" xlink:href="#linearGradient7803" id="linearGradient7953-2" gradientUnits="userSpaceOnUse" x1="160" y1="162" x2="160" y2="124"/>
    <linearGradient gradientTransform="matrix(1.33,0,0,1.33,59.2,59.035)" inkscape:collect="always" xlink:href="#linearGradient7905" id="linearGradient7907-1" x1="160.06299" y1="163" x2="160.06299" y2="136" gradientUnits="userSpaceOnUse"/>
    <linearGradient gradientTransform="matrix(1.33,0,0,1.33,59.2,59.035)" inkscape:collect="always" xlink:href="#linearGradient7913" id="linearGradient7915-9" x1="160.12599" y1="160" x2="160.12599" y2="136" gradientUnits="userSpaceOnUse"/>
    <linearGradient gradientTransform="matrix(1.33,0,0,1.33,59.2,59.035)" inkscape:collect="always" xlink:href="#linearGradient7947" id="linearGradient7949-2" x1="146" y1="146" x2="177.07086" y2="146" gradientUnits="userSpaceOnUse"/>
    <linearGradient inkscape:collect="always" xlink:href="#linearGradient7803" id="linearGradient8164" gradientUnits="userSpaceOnUse" gradientTransform="matrix(1.33,0,0,1.33,59.2,59.035)" x1="160" y1="162" x2="160" y2="124"/>
    <linearGradient inkscape:collect="always" xlink:href="#linearGradient7803" id="linearGradient7837-19" gradientUnits="userSpaceOnUse" x1="160" y1="162" x2="160" y2="124" gradientTransform="matrix(0.70373823,0,0,-0.69090809,-32.633634,189.8907)"/>
    <linearGradient gradientTransform="matrix(0.70373823,0,0,0.69090809,-32.633634,-31.890786)" inkscape:collect="always" xlink:href="#linearGradient7966" id="linearGradient7968-8" x1="161" y1="187.4567" x2="161" y2="165" gradientUnits="userSpaceOnUse"/>
    <linearGradient gradientTransform="matrix(0.70373823,0,0,0.69090809,-32.633634,-31.890786)" inkscape:collect="always" xlink:href="#linearGradient7974" id="linearGradient7976-0" x1="160.06299" y1="184" x2="160.06299" y2="166.00932" gradientUnits="userSpaceOnUse"/>
    <linearGradient gradientTransform="matrix(0.70373823,0,0,0.69090809,-32.633634,-31.890786)" inkscape:collect="always" xlink:href="#linearGradient7803" id="linearGradient7953-1" gradientUnits="userSpaceOnUse" x1="160" y1="162" x2="160" y2="124"/>
    <linearGradient gradientTransform="matrix(0.70373823,0,0,0.69090809,-32.633634,-31.890786)" inkscape:collect="always" xlink:href="#linearGradient7905" id="linearGradient7907-6" x1="160.06299" y1="163" x2="160.06299" y2="136" gradientUnits="userSpaceOnUse"/>
    <linearGradient gradientTransform="matrix(0.70373823,0,0,0.69090809,-32.633634,-31.890786)" inkscape:collect="always" xlink:href="#linearGradient7913" id="linearGradient7915-0" x1="160.12599" y1="160" x2="160.12599" y2="136" gradientUnits="userSpaceOnUse"/>
    <linearGradient gradientTransform="matrix(0.70373823,0,0,0.69090809,-32.633634,-31.890786)" inkscape:collect="always" xlink:href="#linearGradient7947" id="linearGradient7949-5" x1="146" y1="146" x2="177.07086" y2="146" gradientUnits="userSpaceOnUse"/>
    <linearGradient inkscape:collect="always" xlink:href="#linearGradient7803" id="linearGradient8234" gradientUnits="userSpaceOnUse" gradientTransform="matrix(0.70373823,0,0,0.69090809,-32.633634,-31.890786)" x1="160" y1="162" x2="160" y2="124"/>
    <linearGradient inkscape:collect="always" xlink:href="#linearGradient8499" id="linearGradient7837-4" gradientUnits="userSpaceOnUse" x1="160" y1="162" x2="160" y2="124" gradientTransform="matrix(0.5,0,0,-0.5,-56,104.75)"/>
    <linearGradient gradientTransform="matrix(0.5,0,0,0.5,-56,-55.75)" inkscape:collect="always" xlink:href="#linearGradient7966" id="linearGradient7968-7" x1="161" y1="187.4567" x2="161" y2="165" gradientUnits="userSpaceOnUse"/>
    <linearGradient gradientTransform="matrix(0.5,0,0,0.5,-56,-55.75)" inkscape:collect="always" xlink:href="#linearGradient8493" id="linearGradient7976-8" x1="160.06299" y1="184" x2="160.06299" y2="166.00932" gradientUnits="userSpaceOnUse"/>
    <linearGradient gradientTransform="matrix(0.5,0,0,0.5,-56,-55.75)" inkscape:collect="always" xlink:href="#linearGradient7905" id="linearGradient7907-4" x1="160.06299" y1="163" x2="160.06299" y2="136" gradientUnits="userSpaceOnUse"/>
    <linearGradient gradientTransform="matrix(0.5,0,0,0.5,-56,-55.75)" inkscape:collect="always" xlink:href="#linearGradient7913" id="linearGradient7915-06" x1="160.12599" y1="160" x2="160.12599" y2="136" gradientUnits="userSpaceOnUse"/>
    <linearGradient inkscape:collect="always" xlink:href="#linearGradient8505" id="linearGradient8304" gradientUnits="userSpaceOnUse" gradientTransform="matrix(0.5,0,0,0.5,-56,-55.75)" x1="160" y1="162" x2="160" y2="124"/>
    <linearGradient gradientTransform="matrix(0.33,0,0,0.33,-68.8,-68.465)" inkscape:collect="always" xlink:href="#linearGradient7966" id="linearGradient7968-9" x1="161" y1="187.4567" x2="161" y2="165" gradientUnits="userSpaceOnUse"/>
    <linearGradient gradientTransform="matrix(0.33,0,0,0.33,-68.8,-68.465)" inkscape:collect="always" xlink:href="#linearGradient7905" id="linearGradient7907-9" x1="160.06299" y1="163" x2="160.06299" y2="136" gradientUnits="userSpaceOnUse"/>
  </defs>
  <sodipodi:namedview pagecolor="#383c4a" bordercolor="#ffffff" borderopacity="0.62745098" objecttolerance="4" gridtolerance="10" guidetolerance="4" inkscape:pageopacity="0" inkscape:pageshadow="2" inkscape:window-width="640" inkscape:window-height="480" id="namedview20" showgrid="true" inkscape:zoom="16.386532" inkscape:cx="88.273341" inkscape:cy="-43.076466" inkscape:current-layer="g7905" inkscape:snap-smooth-nodes="false" showguides="true" borderlayer="true" inkscape:showpageshadow="false" inkscape:guide-bbox="true" guidecolor="#bd4fff" guideopacity="0.78431373" inkscape:snap-nodes="true" inkscape:lockguides="false" fit-margin-top="0" fit-margin-left="0" fit-margin-right="0" fit-margin-bottom="0" guidehicolor="#ff0101" guidehiopacity="0.78431373" inkscape:snap-page="true" inkscape:object-nodes="true" inkscape:snap-bbox="true" inkscape:snap-global="true" inkscape:snap-object-midpoints="false" inkscape:snap-bbox-edge-midpoints="false">
    <inkscape:grid type="xygrid" id="grid4171" empspacing="4" dotted="false" originx="2.7755576e-17" originy="0" spacingx="1" spacingy="1" color="#5a5a5a" opacity="0.23529412" empcolor="#5a5a5a" empopacity="0.47058824" visible="true"/>
    <inkscape:grid type="axonomgrid" id="grid4699" units="mm" empspacing="4" color="#5a5a5a" opacity="0.23529412" empcolor="#5a5a5a" empopacity="0.47058824" gridanglex="45" gridanglez="45" spacingy="3.7795276" visible="false" originx="1.3228346" originy="1.3228346"/>
    <sodipodi:guide position="48,0" orientation="1,0" id="guide4568" inkscape:locked="false" inkscape:label="" inkscape:color="rgb(189,79,255)"/>
    <sodipodi:guide position="111.99996,-3.9999999e-05" orientation="0,1" id="guide4570" inkscape:locked="false" inkscape:label="" inkscape:color="rgb(189,79,255)"/>
    <sodipodi:guide position="0,0" orientation="1,0" id="guide4572" inkscape:locked="false" inkscape:label="" inkscape:color="rgb(189,79,255)"/>
    <sodipodi:guide position="0,48" orientation="0,1" id="guide4574" inkscape:locked="false" inkscape:label="" inkscape:color="rgb(189,79,255)"/>
    <sodipodi:guide position="0,80" orientation="0,1" id="guide4576" inkscape:locked="false" inkscape:label="" inkscape:color="rgb(189,79,255)"/>
    <sodipodi:guide position="-32,48" orientation="1,0" id="guide4578" inkscape:locked="false" inkscape:label="" inkscape:color="rgb(189,79,255)"/>
    <sodipodi:guide position="-32,104" orientation="0,1" id="guide4580" inkscape:locked="false" inkscape:label="" inkscape:color="rgb(189,79,255)"/>
    <sodipodi:guide position="-56,80" orientation="1,0" id="guide4582" inkscape:locked="false" inkscape:label="" inkscape:color="rgb(189,79,255)"/>
    <sodipodi:guide position="48,-64" orientation="0,1" id="guide4584" inkscape:locked="false" inkscape:label="" inkscape:color="rgb(189,79,255)"/>
    <sodipodi:guide position="0,0" orientation="-0.70710678,0.70710678" id="guide4588" inkscape:locked="false" inkscape:label="" inkscape:color="rgb(189,79,255)"/>
    <sodipodi:guide position="-56,80" orientation="-0.70710678,0.70710678" id="guide4573" inkscape:locked="false" inkscape:label="" inkscape:color="rgb(189,79,255)"/>
    <sodipodi:guide position="-32,48" orientation="-0.70710678,0.70710678" id="guide4575" inkscape:locked="false" inkscape:label="" inkscape:color="rgb(189,79,255)"/>
    <sodipodi:guide position="48,-64" orientation="-0.70710678,0.70710678" id="guide4577" inkscape:locked="false" inkscape:label="" inkscape:color="rgb(189,79,255)"/>
    <sodipodi:guide position="47.999962,0" orientation="0.70710678,0.70710678" id="guide4697" inkscape:locked="false" inkscape:label="" inkscape:color="rgb(189,79,255)"/>
    <sodipodi:guide position="207.99995,-288" orientation="0,1" id="guide7833" inkscape:locked="false"/>
    <sodipodi:guide position="335.99994,-288" orientation="1,0" id="guide7835" inkscape:locked="false" inkscape:label="" inkscape:color="rgb(189,79,255)"/>
    <sodipodi:guide position="111.99996,-64" orientation="1,0" id="guide7915" inkscape:locked="false"/>
    <sodipodi:guide position="111.99996,-160" orientation="0,1" id="guide7917" inkscape:locked="false"/>
    <sodipodi:guide position="207.99996,-160" orientation="1,0" id="guide7919" inkscape:locked="false"/>
    <sodipodi:guide position="111.99996,-160" orientation="-0.70710678,0.70710678" id="guide7921" inkscape:locked="false" inkscape:label="" inkscape:color="rgb(189,79,255)"/>
    <sodipodi:guide position="207.99996,-288" orientation="-0.70710678,0.70710678" id="guide7923" inkscape:locked="false" inkscape:label="" inkscape:color="rgb(189,79,255)"/>
    <sodipodi:guide position="-72,104" orientation="1,0" id="guide7824" inkscape:locked="false"/>
    <sodipodi:guide position="-56,120" orientation="0,1" id="guide7826" inkscape:locked="false"/>
    <sodipodi:guide position="-72,104" orientation="-0.70710678,0.70710678" id="guide7828" inkscape:locked="false" inkscape:label="" inkscape:color="rgb(189,79,255)"/>
  </sodipodi:namedview>
  <g inkscape:groupmode="layer" id="g7907" inkscape:label="icon_64" style="display:inline" transform="translate(-48,-48)">
    <g inkscape:groupmode="layer" id="g7843" inkscape:label="frame" style="display:none">
      <rect inkscape:label="frame_64" y="48" x="48" height="64" width="64" id="rect7837" style="color:#000000;clip-rule:nonzero;display:inline;overflow:visible;visibility:visible;opacity:1;isolation:auto;mix-blend-mode:normal;color-interpolation:sRGB;color-interpolation-filters:linearRGB;solid-color:#000000;solid-opacity:1;vector-effect:none;fill:#000000;fill-opacity:1;fill-rule:nonzero;stroke:#ff24f7;stroke-width:0;stroke-linecap:square;stroke-linejoin:miter;stroke-miterlimit:4;stroke-dasharray:none;stroke-dashoffset:0;stroke-opacity:0.99481865;marker:none;marker-start:none;marker-mid:none;marker-end:none;paint-order:normal;color-rendering:auto;image-rendering:auto;shape-rendering:auto;text-rendering:auto;enable-background:accumulate"/>
      <text xml:space="preserve" style="font-size:16px;line-height:0%;font-family:sans-serif;letter-spacing:0px;word-spacing:0px;display:inline;opacity:1;fill:#ffffff;fill-opacity:1;stroke:none;stroke-width:0.03278551px;stroke-linecap:butt;stroke-linejoin:miter;stroke-opacity:1" x="69.816406" y="85.824219" id="text7841" inkscape:label="txt_64">
        <tspan sodipodi:role="line" x="69.816406" y="85.824219" style="font-size:16px;line-height:0%;fill:#ffffff;fill-opacity:1;stroke:none;stroke-width:0.03278551px" id="tspan7839">64</tspan>
      </text>
    </g>
    <g inkscape:groupmode="layer" id="g7905" inkscape:label="icon" style="display:inline">
      <path style="color:#000000;clip-rule:nonzero;display:block;overflow:visible;visibility:visible;opacity:1;isolation:auto;mix-blend-mode:normal;color-interpolation:sRGB;color-interpolation-filters:linearRGB;solid-color:#000000;solid-opacity:1;vector-effect:none;fill:#000000;fill-opacity:0.11458333;fill-rule:nonzero;stroke:none;stroke-width:2.50091815px;stroke-linecap:butt;stroke-linejoin:miter;stroke-miterlimit:4;stroke-dasharray:none;stroke-dashoffset:0;stroke-opacity:1;marker:none;marker-start:none;marker-mid:none;marker-end:none;paint-order:fill markers stroke;color-rendering:auto;image-rendering:auto;shape-rendering:auto;text-rendering:auto;enable-background:accumulate" d="m 48,59 h 64 V 99 H 48 Z" id="rect7723-6" inkscape:connector-curvature="0" sodipodi:nodetypes="ccccc" inkscape:label="base sombra"/>
      <path style="color:#000000;clip-rule:nonzero;display:inline;overflow:visible;visibility:visible;opacity:1;isolation:auto;mix-blend-mode:normal;color-interpolation:sRGB;color-interpolation-filters:linearRGB;solid-color:#000000;solid-opacity:1;vector-effect:none;fill:#f2f2f2;fill-opacity:1;fill-rule:nonzero;stroke:none;stroke-width:2.46192908px;stroke-linecap:butt;stroke-linejoin:miter;stroke-miterlimit:4;stroke-dasharray:none;stroke-dashoffset:0;stroke-opacity:1;marker:none;marker-start:none;marker-mid:none;marker-end:none;paint-order:fill markers stroke;color-rendering:auto;image-rendering:auto;shape-rendering:auto;text-rendering:auto;enable-background:accumulate" d="M 49.000002,59.999994 H 110.92897 V 97.999946 H 49.000002 Z" id="rect7721-5" inkscape:connector-curvature="0" sodipodi:nodetypes="ccccc" inkscape:label="base"/>
      <path style="color:#000000;clip-rule:nonzero;display:inline;overflow:visible;visibility:visible;opacity:1;isolation:auto;mix-blend-mode:normal;color-interpolation:sRGB;color-interpolation-filters:linearRGB;solid-color:#000000;solid-opacity:1;vector-effect:none;fill:url(#linearGradient7837-19);fill-opacity:1;fill-rule:nonzero;stroke:none;stroke-width:2.46192908px;stroke-linecap:butt;stroke-linejoin:miter;stroke-miterlimit:4;stroke-dasharray:none;stroke-dashoffset:0;stroke-opacity:1;marker:none;marker-start:none;marker-mid:none;marker-end:none;paint-order:fill markers stroke;color-rendering:auto;image-rendering:auto;shape-rendering:auto;text-rendering:auto;enable-background:accumulate" d="M 49.000002,97.999946 H 110.92897 V 96.601797 L 109.5215,93.163588 82.788149,75.897298 c 0,0 -1.964773,-1.388234 -2.823665,-1.388234 -0.964009,0 -2.809091,1.377498 -2.809091,1.377498 l -26.747915,17.277026 -1.407476,3.454541 z" id="path7827-6" inkscape:connector-curvature="0" sodipodi:nodetypes="cccccscccc"/>
      <path sodipodi:nodetypes="ccccsccc" inkscape:connector-curvature="0" id="path7831-9" d="M 49.000002,97.999946 H 110.92897 L 109.5215,93.163588 82.788149,77.279114 c 0,0 -1.964773,-1.388233 -2.823665,-1.388233 -0.964009,0 -2.809091,1.377497 -2.809091,1.377497 l -26.747915,15.89521 z" style="color:#000000;clip-rule:nonzero;display:block;overflow:visible;visibility:visible;opacity:1;isolation:auto;mix-blend-mode:normal;color-interpolation:sRGB;color-interpolation-filters:linearRGB;solid-color:#000000;solid-opacity:1;vector-effect:none;fill:url(#linearGradient7968-8);fill-opacity:1;fill-rule:nonzero;stroke:none;stroke-width:2.46192908px;stroke-linecap:butt;stroke-linejoin:miter;stroke-miterlimit:4;stroke-dasharray:none;stroke-dashoffset:0;stroke-opacity:1;marker:none;marker-start:none;marker-mid:none;marker-end:none;paint-order:fill markers stroke;color-rendering:auto;image-rendering:auto;shape-rendering:auto;text-rendering:auto;enable-background:accumulate"/>
      <path style="color:#000000;clip-rule:nonzero;display:inline;overflow:visible;visibility:visible;opacity:1;isolation:auto;mix-blend-mode:normal;color-interpolation:sRGB;color-interpolation-filters:linearRGB;solid-color:#000000;solid-opacity:1;vector-effect:none;fill:url(#linearGradient7976-0);fill-opacity:1;fill-rule:nonzero;stroke:none;stroke-width:2.46192908px;stroke-linecap:butt;stroke-linejoin:miter;stroke-miterlimit:4;stroke-dasharray:none;stroke-dashoffset:0;stroke-opacity:1;marker:none;marker-start:none;marker-mid:none;marker-end:none;paint-order:fill markers stroke;color-rendering:auto;image-rendering:auto;shape-rendering:auto;text-rendering:auto;enable-background:accumulate" d="m 51.814955,96.618129 h 56.299065 l -1.40747,-3.454541 -23.918401,-13.12084 c 0,0 -1.964773,-1.388236 -2.823665,-1.388236 -0.964009,0 -2.809091,1.377499 -2.809091,1.377499 L 53.222432,93.163588 Z" id="path7833-3" inkscape:connector-curvature="0" sodipodi:nodetypes="ccccsccc"/>
      <path sodipodi:nodetypes="cccccscccc" inkscape:connector-curvature="0" id="path7773-74" d="m 49.000002,59.999994 h 61.928968 v 1.398142 l -1.40747,3.438216 -26.733351,17.957191 c 0,0 -1.964773,1.388235 -2.823665,1.388235 -0.964009,0 -2.809091,-1.377498 -2.809091,-1.377498 L 50.407478,64.836352 49.000002,61.38181 Z" style="color:#000000;clip-rule:nonzero;display:block;overflow:visible;visibility:visible;opacity:1;isolation:auto;mix-blend-mode:normal;color-interpolation:sRGB;color-interpolation-filters:linearRGB;solid-color:#000000;solid-opacity:1;vector-effect:none;fill:url(#linearGradient8234);fill-opacity:1;fill-rule:nonzero;stroke:none;stroke-width:2.46192908px;stroke-linecap:butt;stroke-linejoin:miter;stroke-miterlimit:4;stroke-dasharray:none;stroke-dashoffset:0;stroke-opacity:1;marker:none;marker-start:none;marker-mid:none;marker-end:none;paint-order:fill markers stroke;color-rendering:auto;image-rendering:auto;shape-rendering:auto;text-rendering:auto;enable-background:accumulate"/>
      <path style="color:#000000;clip-rule:nonzero;display:block;overflow:visible;visibility:visible;opacity:1;isolation:auto;mix-blend-mode:normal;color-interpolation:sRGB;color-interpolation-filters:linearRGB;solid-color:#000000;solid-opacity:1;vector-effect:none;fill:url(#linearGradient7953-1);fill-opacity:1;fill-rule:nonzero;stroke:none;stroke-width:2.46192908px;stroke-linecap:butt;stroke-linejoin:miter;stroke-miterlimit:4;stroke-dasharray:none;stroke-dashoffset:0;stroke-opacity:1;marker:none;marker-start:none;marker-mid:none;marker-end:none;paint-order:fill markers stroke;color-rendering:auto;image-rendering:auto;shape-rendering:auto;text-rendering:auto;enable-background:accumulate" d="m 49.000002,59.999994 h 61.928968 v 1.398142 l -1.40747,3.438216 -26.733351,16.575375 c 0,0 -1.964773,1.388235 -2.823665,1.388235 -0.964009,0 -2.809091,-1.377497 -2.809091,-1.377497 L 50.407478,64.836352 49.000002,61.38181 Z" id="path7809-5" inkscape:connector-curvature="0" sodipodi:nodetypes="cccccscccc"/>
      <path style="color:#000000;clip-rule:nonzero;display:block;overflow:visible;visibility:visible;opacity:1;isolation:auto;mix-blend-mode:normal;color-interpolation:sRGB;color-interpolation-filters:linearRGB;solid-color:#000000;solid-opacity:1;vector-effect:none;fill:url(#linearGradient7907-6);fill-opacity:1;fill-rule:nonzero;stroke:none;stroke-width:2.46192908px;stroke-linecap:butt;stroke-linejoin:miter;stroke-miterlimit:4;stroke-dasharray:none;stroke-dashoffset:0;stroke-opacity:1;marker:none;marker-start:none;marker-mid:none;marker-end:none;paint-order:fill markers stroke;color-rendering:auto;image-rendering:auto;shape-rendering:auto;text-rendering:auto;enable-background:accumulate" d="m 49.000002,59.999994 h 61.928968 l -1.40747,4.836358 -26.733351,15.884467 c 0,0 -1.964773,1.388234 -2.823665,1.388234 -0.964009,0 -2.809091,-1.377498 -2.809091,-1.377498 L 50.407478,64.836352 Z" id="rect7725-2" inkscape:connector-curvature="0" sodipodi:nodetypes="ccccsccc"/>
      <path sodipodi:nodetypes="ccccsccc" inkscape:connector-curvature="0" id="path7811-5" d="m 51.814955,61.38181 h 56.299065 l -1.40747,3.454542 -23.918401,13.120834 c 0,0 -1.964773,1.388236 -2.823665,1.388236 -0.964009,0 -2.809091,-1.377499 -2.809091,-1.377499 L 53.222432,64.836352 Z" style="color:#000000;clip-rule:nonzero;display:inline;overflow:visible;visibility:visible;opacity:1;isolation:auto;mix-blend-mode:normal;color-interpolation:sRGB;color-interpolation-filters:linearRGB;solid-color:#000000;solid-opacity:1;vector-effect:none;fill:url(#linearGradient7915-0);fill-opacity:1;fill-rule:nonzero;stroke:none;stroke-width:2.46192908px;stroke-linecap:butt;stroke-linejoin:miter;stroke-miterlimit:4;stroke-dasharray:none;stroke-dashoffset:0;stroke-opacity:1;marker:none;marker-start:none;marker-mid:none;marker-end:none;paint-order:fill markers stroke;color-rendering:auto;image-rendering:auto;shape-rendering:auto;text-rendering:auto;enable-background:accumulate"/>
      <path inkscape:connector-curvature="0" id="path7841-4" d="m 73.982709,65.161561 c -2.646309,0 -4.796968,2.111449 -4.796968,4.709513 0,2.598064 2.150659,4.709514 4.796968,4.709514 1.665418,0 3.132613,-0.837575 3.992891,-2.105115 v 0.493888 c 0,0 2.650735,-0.613615 4.003884,-0.690907 1.187425,-0.06785 2.018349,1.344568 3.595666,1.422302 0.949287,0.04678 2.618708,-1.961252 3.532434,-1.891898 1.049373,0.07965 1.944339,1.25352 2.7586,1.454685 1.326945,0.327816 2.295395,-0.294182 2.295395,-0.294182 v -0.680107 c 0,0 -0.91146,0.58756 -2.274777,0.458803 -0.796084,-0.07519 -1.746593,-1.540967 -2.759977,-1.617963 -0.926935,-0.07044 -2.609772,1.937667 -3.572294,1.890546 -1.55427,-0.07606 -2.36022,-1.488003 -3.531064,-1.422296 -1.307003,0.07336 -3.695724,0.612877 -3.914544,0.662567 0.168518,-0.279527 0.309103,-0.576611 0.416473,-0.889275 0.236992,-0.05431 2.57103,-0.586345 3.858189,-0.659865 1.187424,-0.06785 2.01972,1.34591 3.597037,1.423643 0.949288,0.04678 2.617337,-1.9626 3.531065,-1.893245 1.049371,0.07965 1.944336,1.254867 2.758596,1.456032 1.326948,0.327814 2.295398,-0.295522 2.295398,-0.295522 v -0.680116 c 0,0 -0.911455,0.587562 -2.274786,0.458804 -0.796082,-0.07519 -1.746585,-1.540953 -2.759969,-1.617962 -0.926937,-0.07043 -2.609771,1.937673 -3.572296,1.890546 -1.554268,-0.07605 -2.360217,-1.488002 -3.531062,-1.422297 -1.218713,0.0684 -3.241947,0.515189 -3.71937,0.622088 0.04371,-0.255125 0.07147,-0.515481 0.07147,-0.782668 0,-0.133195 -0.0095,-0.263616 -0.02062,-0.394032 0.317407,-0.07243 2.541509,-0.575658 3.803212,-0.647726 1.187424,-0.06785 2.018342,1.344562 3.595659,1.422296 0.949287,0.04678 2.617337,-1.961253 3.531064,-1.891901 1.049372,0.07966 1.945709,1.253523 2.75997,1.454688 1.326947,0.327816 2.294024,-0.294176 2.294024,-0.294176 v -0.680117 c 0,0 -0.91146,0.587564 -2.274777,0.458806 -0.796083,-0.07519 -1.745216,-1.540953 -2.758599,-1.617962 -0.926935,-0.07043 -2.611149,1.937672 -3.573673,1.890553 -1.55427,-0.07606 -2.360218,-1.488009 -3.531062,-1.422303 -1.32324,0.07428 -3.786817,0.633452 -3.950281,0.670665 -0.106341,-0.456082 -0.279349,-0.886782 -0.509936,-1.281954 0.43265,-0.09808 2.492584,-0.559075 3.713873,-0.628836 1.187426,-0.06785 2.018343,1.344562 3.59566,1.422296 0.949285,0.04678 2.617335,-1.961253 3.531062,-1.8919 1.049372,0.07965 1.94571,1.253521 2.759969,1.454687 1.326949,0.327816 2.294026,-0.294176 2.294026,-0.294176 v -0.680115 c 0,0 -0.911461,0.587569 -2.274777,0.458811 -0.796085,-0.07519 -1.745215,-1.54096 -2.7586,-1.617969 -0.926934,-0.07043 -2.611148,1.937673 -3.573673,1.890553 -1.554268,-0.07606 -2.360218,-1.487995 -3.531062,-1.422304 -1.367384,0.07675 -4.047868,0.690909 -4.047868,0.690909 v 0.180825 c -0.873073,-1.172804 -2.279952,-1.939131 -3.870555,-1.939131 z m 0,0.43722 c 2.406319,0 4.351629,1.909842 4.351629,4.272293 0,2.362449 -1.94531,4.272292 -4.351629,4.272292 -2.40632,0 -4.351629,-1.909843 -4.351629,-4.272292 0,-2.362451 1.945309,-4.272293 4.351629,-4.272293 z m -0.07698,0.233452 c -0.236136,-1.3e-4 -0.427596,0.187839 -0.427465,0.41967 -1.33e-4,0.231833 0.191328,0.419803 0.427465,0.419673 0.236141,1.33e-4 0.427605,-0.187838 0.427471,-0.419673 1.32e-4,-0.231833 -0.191331,-0.419803 -0.427471,-0.41967 z m 0.07698,1.094384 c -1.655066,0 -2.999135,1.319565 -2.999135,2.944457 0,1.624891 1.344069,2.944456 2.999135,2.944456 1.655066,0 2.999136,-1.319565 2.999136,-2.944456 0,-1.624892 -1.34407,-2.944457 -2.999136,-2.944457 z m 0,0.272585 c 1.504972,0 2.721489,1.194337 2.721489,2.671872 0,1.477535 -1.216517,2.671873 -2.721489,2.671873 -1.504972,0 -2.72149,-1.194338 -2.72149,-2.671873 0,-1.477535 1.216518,-2.671872 2.72149,-2.671872 z m 1.377237,1.820382 c -0.225591,0 -0.406198,0.0743 -0.541547,0.222652 -0.134633,0.147655 -0.202051,0.346201 -0.202051,0.595101 0,0.248892 0.06742,0.446099 0.202051,0.593752 0.135349,0.147647 0.315956,0.222653 0.541547,0.222653 0.224871,0 0.404163,-0.075 0.538803,-0.222653 0.134639,-0.148351 0.202051,-0.345557 0.202051,-0.593752 0,-0.2489 -0.06742,-0.447446 -0.202051,-0.595101 -0.13464,-0.14835 -0.313932,-0.222652 -0.538803,-0.222652 z m -3.50907,0.02832 v 1.574788 h 1.033614 v -0.179478 h -0.816441 v -0.570808 h 0.76421 V 69.69294 h -0.76421 V 69.227385 H 72.86525 V 69.04791 Z m 1.194434,0 0.611646,1.574788 h 0.246035 l 0.611646,-1.574788 h -0.225415 l -0.509935,1.325141 -0.507191,-1.325141 z m 2.314636,0.144392 c 0.157553,0 0.282192,0.05741 0.373862,0.172728 0.09238,0.115306 0.138826,0.273324 0.138826,0.472297 0,0.198271 -0.04644,0.354299 -0.138826,0.469604 -0.09167,0.115306 -0.216309,0.172727 -0.373862,0.172727 -0.157553,0 -0.283522,-0.05741 -0.376605,-0.172727 -0.0924,-0.115305 -0.137455,-0.271333 -0.137455,-0.469604 0,-0.198973 0.04504,-0.356991 0.137455,-0.472297 0.09309,-0.115314 0.219052,-0.172728 0.376605,-0.172728 z m 2.402605,0.330606 c -0.235601,6.13e-4 -0.426227,0.188366 -0.426094,0.419674 -1.35e-4,0.231308 0.190491,0.419064 0.426094,0.419677 0.236143,1.33e-4 0.427608,-0.18784 0.427472,-0.419677 1.33e-4,-0.231836 -0.191331,-0.419807 -0.427472,-0.419674 z m -7.442855,0.01078 c -0.235601,6.13e-4 -0.426224,0.188365 -0.426092,0.41967 -1.34e-4,0.231306 0.19049,0.419059 0.426092,0.419673 0.236137,1.3e-4 0.427596,-0.187841 0.427464,-0.419673 1.31e-4,-0.231831 -0.191328,-0.4198 -0.427464,-0.41967 z m 3.88018,3.540904 c -0.236137,-1.29e-4 -0.427597,0.187839 -0.427465,0.419671 -1.32e-4,0.231832 0.191329,0.419801 0.427465,0.419672 0.235601,-6.15e-4 0.426224,-0.188365 0.426092,-0.419672 1.33e-4,-0.231306 -0.19049,-0.419057 -0.426092,-0.419671 z" style="color:#000000;font-style:normal;font-variant:normal;font-weight:normal;font-stretch:normal;font-size:medium;line-height:normal;font-family:sans-serif;font-variant-ligatures:normal;font-variant-position:normal;font-variant-caps:normal;font-variant-numeric:normal;font-variant-alternates:normal;font-feature-settings:normal;text-indent:0;text-align:start;text-decoration:none;text-decoration-line:none;text-decoration-style:solid;text-decoration-color:#000000;letter-spacing:normal;word-spacing:normal;text-transform:none;writing-mode:lr-tb;direction:ltr;text-orientation:mixed;dominant-baseline:auto;baseline-shift:baseline;text-anchor:start;white-space:normal;shape-padding:0;clip-rule:nonzero;display:inline;overflow:visible;visibility:visible;opacity:1;isolation:auto;mix-blend-mode:normal;color-interpolation:sRGB;color-interpolation-filters:linearRGB;solid-color:#000000;solid-opacity:1;vector-effect:none;fill:url(#linearGradient7949-5);fill-opacity:1;fill-rule:nonzero;stroke:none;stroke-width:0.43999228;stroke-linecap:butt;stroke-linejoin:miter;stroke-miterlimit:4;stroke-dasharray:none;stroke-dashoffset:0;stroke-opacity:1;marker:none;paint-order:fill markers stroke;color-rendering:auto;image-rendering:auto;shape-rendering:auto;text-rendering:auto;enable-background:accumulate" inkscape:label="firm" sodipodi:nodetypes="csscccccccccccccccccccccccccscccccccccccccccccccccccccccssssscccccssssssssssscscscscscccccccccccccccccccccscscscscsccccccccccccccc"/>
      <path style="display:inline;fill:#5477b0;fill-opacity:1;fill-rule:evenodd;stroke:none;stroke-width:0.6972937px;stroke-linecap:butt;stroke-linejoin:miter;stroke-opacity:1" d="m 59.556075,59.994597 -10.556073,0.0054 v 5.527265 l 0.953338,-1.387214 v -3.144015 h 8.189762 z m 22.519623,0 -8.444858,0.0055 -1.407476,0.996037 h 8.439361 z m 22.519632,0 -8.444866,0.0055 -1.407476,0.996037 h 8.439362 z m 6.33915,1.001434 -0.88682,1.076687 -0.005,8.290897 0.89232,-1.387212 z m -60.98114,16.276665 -0.947842,1.381816 -0.0056,8.290899 0.953338,-1.387213 z m 60.98114,5.527266 -0.88682,1.381816 -0.005,8.290892 0.89232,-1.387206 z M 51.111216,97.064924 49.70374,97.999946 h 8.439362 l 1.412973,-0.935022 z m 22.519624,0 -1.407476,0.935022 h 8.439361 l 1.412973,-0.935022 z m 22.519624,0 -1.407476,0.935022 h 8.439362 l 1.41298,-0.935022 z" id="path7980-7" inkscape:connector-curvature="0" inkscape:label="blue" sodipodi:nodetypes="ccccccccccccccccccccccccccccccccccccccccccccccc"/>
      <path style="display:inline;fill:#b05457;fill-opacity:1;fill-rule:evenodd;stroke:none;stroke-width:0.6972937px;stroke-linecap:butt;stroke-linejoin:miter;stroke-opacity:1" d="m 70.815887,59.994597 -8.444859,0.0055 -1.407476,0.996037 h 8.439361 z m 22.519625,0 -8.44486,0.0055 -1.407477,0.996037 h 8.439362 z m 17.593458,0 -3.51869,0.0055 -1.40747,0.996037 h 3.51319 z m -60.97563,6.22357 -0.947842,1.381815 -0.0056,8.290899 0.953338,-1.387213 z m 60.98114,5.527264 -0.88682,1.381816 -0.005,8.290898 0.89232,-1.387212 z m -60.98114,16.581801 -0.947842,1.381804 -0.0056,8.29091 0.953338,-1.63132 z m 60.98114,5.527265 -0.88682,1.381817 -0.004,1.824568 -2.63315,0.0041 L 106.00296,98 h 4.22244 0.70374 z m -48.563452,3.210427 -1.407476,0.935022 h 8.444859 l 1.407476,-0.935022 z m 22.519624,0 -1.407477,0.935022 h 8.444859 l 1.407478,-0.935022 z" id="path7988-4" inkscape:connector-curvature="0" inkscape:label="red" sodipodi:nodetypes="cccccccccccccccccccccccccccccccccccccccccccccccc"/>
    </g>
  </g>
</svg>