<?xml version="1.0" encoding="UTF-8" standalone="yes"?>
<svg xmlns:dc="http://purl.org/dc/elements/1.1/" xmlns:cc="http://creativecommons.org/ns#" xmlns:rdf="http://www.w3.org/1999/02/22-rdf-syntax-ns#" xmlns:svg="http://www.w3.org/2000/svg" xmlns="http://www.w3.org/2000/svg" xmlns:xlink="http://www.w3.org/1999/xlink" xmlns:sodipodi="http://sodipodi.sourceforge.net/DTD/sodipodi-0.dtd" xmlns:inkscape="http://www.inkscape.org/namespaces/inkscape" height="64" viewBox="0 0 64 64" width="64" id="svg2" version="1.1" inkscape:version="0.92.2 5c3e80d, 2017-08-06" sodipodi:docname="gnome-disks.svg" enable-background="new" folder="64">
  <title id="title4675">Template icons dark</title>
  <metadata id="metadata24">
    <rdf:RDF>
      <cc:Work rdf:about="">
        <dc:format>image/svg+xml</dc:format>
        <dc:type rdf:resource="http://purl.org/dc/dcmitype/StillImage"/>
        <dc:title>Template icons dark</dc:title>
        <dc:date>17/05/13</dc:date>
        <dc:creator>
          <cc:Agent>
            <dc:title>wfpaisa</dc:title>
          </cc:Agent>
        </dc:creator>
        <dc:rights>
          <cc:Agent>
            <dc:title>License: GPLv3</dc:title>
          </cc:Agent>
        </dc:rights>
        <dc:language>es-en</dc:language>
        <dc:subject>
          <rdf:Bag>
            <rdf:li>plane-icon-theme</rdf:li>
          </rdf:Bag>
        </dc:subject>
        <dc:description>Template for create set icons</dc:description>
        <cc:license rdf:resource="https://www.gnu.org/licenses/gpl-3.0.en.html"/>
      </cc:Work>
    </rdf:RDF>
  </metadata>
  <defs id="defs22">
    <linearGradient inkscape:collect="always" id="linearGradient1756">
      <stop id="stop1754" offset="0" style="stop-color:#2aa591;stop-opacity:1"/>
      <stop id="stop1752" offset="1" style="stop-color:#2498e4;stop-opacity:1"/>
    </linearGradient>
    <linearGradient inkscape:collect="always" id="linearGradient1484">
      <stop id="stop1482" offset="0" style="stop-color:#eeda60;stop-opacity:1"/>
      <stop id="stop1480" offset="1" style="stop-color:#db9918;stop-opacity:1"/>
    </linearGradient>
    <linearGradient inkscape:collect="always" id="linearGradient982">
      <stop style="stop-color:#2a0ff3;stop-opacity:0.13186814" offset="0" id="stop978"/>
      <stop id="stop986" offset="0.52090698" style="stop-color:#3bf963;stop-opacity:0.2912088"/>
      <stop style="stop-color:#ef4cff;stop-opacity:0.29670331" offset="1" id="stop980"/>
    </linearGradient>
    <linearGradient gradientTransform="matrix(2.0982376,0,0,2.0982376,109.7053,109.70531)" inkscape:collect="always" xlink:href="#linearGradient8023" id="linearGradient8025-5" x1="9.1956701" y1="4.4297605" x2="37.228348" y2="43.999989" gradientUnits="userSpaceOnUse"/>
    <linearGradient inkscape:collect="always" id="linearGradient8023">
      <stop style="stop-color:#e1e3e7;stop-opacity:1;" offset="0" id="stop8019"/>
      <stop id="stop8031" offset="0.21010877" style="stop-color:#dee1e4;stop-opacity:1"/>
      <stop id="stop8029" offset="0.37979186" style="stop-color:#f1f2f3;stop-opacity:1"/>
      <stop id="stop8027" offset="0.66977036" style="stop-color:#c2c6cd;stop-opacity:1"/>
      <stop style="stop-color:#d7dadf;stop-opacity:1" offset="1" id="stop8021"/>
    </linearGradient>
    <linearGradient inkscape:collect="always" xlink:href="#linearGradient982" id="linearGradient984" x1="152.50394" y1="152.50398" x2="170" y2="165.24409" gradientUnits="userSpaceOnUse"/>
    <linearGradient id="linearGradient4990" y2="37.585999" xlink:href="#linearGradient5443" gradientUnits="userSpaceOnUse" x2="56.446999" gradientTransform="matrix(1.3532738,0,0,2.8052028,-351.70079,-26.644638)" y1="37.500999" x1="58.548"/>
    <linearGradient id="linearGradient5443">
      <stop id="stop5445" style="stop-color:#fff" offset="0"/>
      <stop id="stop5447" style="stop-color:#fff;stop-opacity:0" offset="1"/>
    </linearGradient>
    <linearGradient id="linearGradient4993" y2="40.376999" xlink:href="#linearGradient6221" gradientUnits="userSpaceOnUse" x2="-10.048" gradientTransform="matrix(0.67492692,0,0,1.8985156,-271.52458,3.7128013)" y1="40.389999" x1="-5.9351001"/>
    <linearGradient id="linearGradient6221">
      <stop id="stop6223" offset="0"/>
      <stop id="stop6225" style="stop-opacity:0" offset="1"/>
    </linearGradient>
    <linearGradient id="linearGradient4996" y2="36.911999" xlink:href="#linearGradient6221" gradientUnits="userSpaceOnUse" x2="-7.0093002" gradientTransform="matrix(0.7873129,0,0,1.9040247,-273.45231,2.8440928)" y1="36.902" x1="-10.535"/>
    <linearGradient id="linearGradient5007" y2="40.949001" gradientUnits="userSpaceOnUse" x2="-10.566" gradientTransform="matrix(1.0786984,-3.6953302e-8,0,2.1496436,-268.32208,-11.242527)" y1="40.972" x1="-2.1966">
      <stop id="stop4101" style="stop-color:#edd563" offset="0"/>
      <stop id="stop4103" style="stop-color:#e08223" offset="1"/>
    </linearGradient>
    <linearGradient id="linearGradient5009" y2="12.324" gradientUnits="userSpaceOnUse" x2="-36.083" gradientTransform="matrix(1.3365968,0,0,1.3365964,-222.20261,61.68125)" y1="7.7140002" x1="-45.569">
      <stop id="stop4095" style="stop-color:#bb5e12" offset="0"/>
      <stop id="stop4097" style="stop-color:#cd8033" offset="1"/>
    </linearGradient>
    <linearGradient id="linearGradient4987" y2="12.585" xlink:href="#linearGradient5443" gradientUnits="userSpaceOnUse" x2="54.721001" gradientTransform="matrix(-0.90023191,-0.90120345,0.90023191,-0.90120345,264.01385,226.8237)" y1="1" x1="54.764999"/>
    <linearGradient id="linearGradient4999" y2="22.476" xlink:href="#linearGradient7381" gradientUnits="userSpaceOnUse" x2="27.368" gradientTransform="matrix(-1.2816435,0,0,-1.2744797,265.2003,187.82583)" y1="20.761999" x1="25.572001"/>
    <linearGradient id="linearGradient7381">
      <stop id="stop7383" style="stop-color:#babdb6" offset="0"/>
      <stop id="stop7385" style="stop-color:#fff" offset="1"/>
    </linearGradient>
    <linearGradient id="linearGradient5001" y2="26.885" xlink:href="#linearGradient7444" gradientUnits="userSpaceOnUse" x2="31.089001" gradientTransform="matrix(1.2871391,0,0,1.2855689,202.6192,114.39453)" y1="35.624001" x1="22.375999"/>
    <linearGradient id="linearGradient7444">
      <stop id="stop7446" style="stop-color:#888a85" offset="0"/>
      <stop id="stop7448" style="stop-color:#555753" offset="1"/>
    </linearGradient>
    <linearGradient id="linearGradient4665" y2="44.139999" xlink:href="#linearGradient6221" gradientUnits="userSpaceOnUse" x2="-9.7747002" gradientTransform="matrix(0.61987975,-0.61783854,1.0518113,1.0483766,214.49493,117.87925)" y1="44.229" x1="-6.3077998"/>
    <linearGradient id="linearGradient4668" y2="35.078999" gradientUnits="userSpaceOnUse" x2="90.221001" gradientTransform="matrix(1.0190342,-1.0166789,0.89134088,0.88922116,125.32342,229.85475)" y1="35.152" x1="97.442001">
      <stop id="stop4958" style="stop-color:#f8b17e" offset="0"/>
      <stop id="stop4960" style="stop-color:#e35d4f" offset=".26238"/>
      <stop id="stop4962" style="stop-color:#c6262e" offset=".66347"/>
      <stop id="stop4964" style="stop-color:#690b54" offset="1"/>
    </linearGradient>
    <linearGradient id="linearGradient4972" y2="27.273001" gradientUnits="userSpaceOnUse" x2="36.000999" gradientTransform="matrix(1.2386604,0,0,1.2365014,214.63268,129.02003)" y1="34.022999" x1="29.278">
      <stop id="stop2492" style="stop-color:#791235" offset="0"/>
      <stop id="stop2494" style="stop-color:#dd3b27" offset="1"/>
    </linearGradient>
    <linearGradient id="linearGradient2919" y2="88.005997" gradientUnits="userSpaceOnUse" x2="317.16" gradientTransform="matrix(1.7051943,0,0,1.6957734,-290.5964,44.367767)" y1="75.574997" x1="326.60001">
      <stop id="stop7423" style="stop-color:#fff" offset="0"/>
      <stop id="stop7425" style="stop-color:#fff;stop-opacity:0" offset="1"/>
    </linearGradient>
    <linearGradient id="linearGradient4734" y2="60.768002" xlink:href="#linearGradient7381" gradientUnits="userSpaceOnUse" x2="308.64999" gradientTransform="matrix(1.7051943,0,0,1.6957734,-290.5964,44.367767)" y1="58.443001" x1="302.29001"/>
    <linearGradient id="linearGradient2907" y2="81.926003" gradientUnits="userSpaceOnUse" x2="335.29999" gradientTransform="matrix(1.7051943,0,0,1.6957734,-290.5964,44.367767)" y1="64.294998" x1="304.76001">
      <stop id="stop4436" style="stop-color:#d3d7cf" offset="0"/>
      <stop id="stop4438" style="stop-color:#babdb6" offset=".18304"/>
      <stop id="stop4440" style="stop-color:#fff" offset=".31893"/>
      <stop id="stop4442" style="stop-color:#babdb6" offset=".87644"/>
      <stop id="stop4444" style="stop-color:#eeeeec" offset="1"/>
    </linearGradient>
    <linearGradient id="linearGradient2909" y2="99.274002" xlink:href="#linearGradient7444" gradientUnits="userSpaceOnUse" x2="330.06" gradientTransform="matrix(1.7051943,0,0,1.6957734,-290.5964,44.367767)" y1="70.281998" x1="324.5"/>
    <linearGradient inkscape:collect="always" xlink:href="#linearGradient1484" id="linearGradient1486" x1="160.06299" y1="200" x2="160" y2="196.53442" gradientUnits="userSpaceOnUse"/>
    <linearGradient gradientTransform="matrix(2.8612458,0,0,2.8612458,203.44353,204.4619)" inkscape:collect="always" xlink:href="#linearGradient8023" id="linearGradient8025-5-9" x1="9.1956701" y1="4.4297605" x2="37.228348" y2="43.999989" gradientUnits="userSpaceOnUse"/>
    <linearGradient gradientTransform="matrix(1.3636424,0,0,1.3636424,53.844724,54.863094)" inkscape:collect="always" xlink:href="#linearGradient1484" id="linearGradient1486-3" x1="160.06299" y1="200" x2="160" y2="196.53442" gradientUnits="userSpaceOnUse"/>
    <linearGradient inkscape:collect="always" xlink:href="#linearGradient1756" id="linearGradient1758" x1="157" y1="190" x2="176" y2="190" gradientUnits="userSpaceOnUse" gradientTransform="translate(0,-64.882359)"/>
    <linearGradient inkscape:collect="always" xlink:href="#linearGradient8023" id="linearGradient8025" x1="9" y1="3.99999" x2="37.228348" y2="43.999989" gradientUnits="userSpaceOnUse"/>
    <linearGradient inkscape:collect="always" xlink:href="#linearGradient8023" id="linearGradient8081-1" gradientUnits="userSpaceOnUse" x1="9.5855684" y1="4.484941" x2="37.77005" y2="43.886402" gradientTransform="matrix(0.66666642,0,0,0.66666642,-59.833331,-59.999993)"/>
    <linearGradient inkscape:collect="always" xlink:href="#linearGradient8023" id="linearGradient8081-1-9" gradientUnits="userSpaceOnUse" x1="9.5855684" y1="4.484941" x2="37.77005" y2="43.886402" gradientTransform="matrix(0.66666642,0,0,0.66666642,-79.833331,-79.999993)"/>
    <linearGradient gradientTransform="matrix(1.5259977,0,0,1.5259977,43.634553,43.421777)" inkscape:collect="always" xlink:href="#linearGradient8023" id="linearGradient8025-5-93" x1="9.1956701" y1="4.4297605" x2="37.228348" y2="43.999989" gradientUnits="userSpaceOnUse"/>
    <linearGradient inkscape:collect="always" xlink:href="#linearGradient8023" id="linearGradient8081" gradientUnits="userSpaceOnUse" x1="9.5855684" y1="4.484941" x2="37.77005" y2="43.886402" gradientTransform="matrix(0.66666642,0,0,0.66666642,-31.833331,-31.999993)"/>
    <radialGradient id="radialGradient5004" xlink:href="#linearGradient5443" gradientUnits="userSpaceOnUse" cy="11.84" cx="-39.458" gradientTransform="matrix(3.0964543,-0.21495459,0.37738808,7.8586392,-154.66412,-25.229961)" r="3.9059999"/>
    <radialGradient id="radialGradient5017" xlink:href="#linearGradient6221" gradientUnits="userSpaceOnUse" cy="21.622999" cx="25.976999" gradientTransform="matrix(-1.3875312,-1.3669229,1.0969534,-1.080663,253.33381,209.6805)" r="2"/>
    <radialGradient id="radialGradient2912" xlink:href="#linearGradient6221" gradientUnits="userSpaceOnUse" cy="34.498001" cx="21.959999" gradientTransform="matrix(0.31004782,0,0,0.0889074,258.07853,180.89617)" r="12.728"/>
    <radialGradient id="radialGradient2915" xlink:href="#linearGradient6221" gradientUnits="userSpaceOnUse" cy="34.498001" cx="21.959999" gradientTransform="matrix(0.75788705,0,0,0.23544557,243.45848,168.48244)" r="12.728"/>
    <radialGradient id="radialGradient2918" xlink:href="#linearGradient6221" gradientUnits="userSpaceOnUse" cy="34.498001" cx="21.959999" gradientTransform="matrix(0.22242305,0,0,0.08888482,212.2327,174.50989)" r="12.728"/>
    <radialGradient id="radialGradient2921" xlink:href="#linearGradient6221" gradientUnits="userSpaceOnUse" cy="34.498001" cx="21.959999" gradientTransform="matrix(0.56841774,0,0,0.23538669,205.41657,167.92545)" r="12.728"/>
  </defs>
  <sodipodi:namedview pagecolor="#383c4a" bordercolor="#ffffff" borderopacity="0.62745098" objecttolerance="4" gridtolerance="10" guidetolerance="4" inkscape:pageopacity="0" inkscape:pageshadow="2" inkscape:window-width="640" inkscape:window-height="480" id="namedview20" showgrid="true" inkscape:zoom="16.386532" inkscape:cx="6.0928915" inkscape:cy="50.126523" inkscape:current-layer="g7814" inkscape:snap-smooth-nodes="false" showguides="true" borderlayer="true" inkscape:showpageshadow="false" inkscape:guide-bbox="true" guidecolor="#bd4fff" guideopacity="0.78431373" inkscape:snap-nodes="true" inkscape:lockguides="false" fit-margin-top="0" fit-margin-left="0" fit-margin-right="0" fit-margin-bottom="0" guidehicolor="#ff0101" guidehiopacity="0.78431373" inkscape:snap-page="true" inkscape:object-nodes="true" inkscape:snap-bbox="true" inkscape:snap-global="true" inkscape:snap-object-midpoints="false" inkscape:snap-bbox-edge-midpoints="false">
    <inkscape:grid type="xygrid" id="grid4171" empspacing="4" dotted="false" originx="2.7755576e-17" originy="0" spacingx="1" spacingy="1" color="#5a5a5a" opacity="0.23529412" empcolor="#5a5a5a" empopacity="0.47058824" visible="true"/>
    <inkscape:grid type="axonomgrid" id="grid4699" units="mm" empspacing="4" color="#5a5a5a" opacity="0.23529412" empcolor="#5a5a5a" empopacity="0.47058824" gridanglex="45" gridanglez="45" spacingy="3.7795276" visible="false" originx="1.3228346" originy="1.3228346"/>
    <sodipodi:guide position="48,0" orientation="1,0" id="guide4568" inkscape:locked="false" inkscape:label="" inkscape:color="rgb(189,79,255)"/>
    <sodipodi:guide position="111.99996,-3.9999999e-05" orientation="0,1" id="guide4570" inkscape:locked="false" inkscape:label="" inkscape:color="rgb(189,79,255)"/>
    <sodipodi:guide position="0,0" orientation="1,0" id="guide4572" inkscape:locked="false" inkscape:label="" inkscape:color="rgb(189,79,255)"/>
    <sodipodi:guide position="0,48" orientation="0,1" id="guide4574" inkscape:locked="false" inkscape:label="" inkscape:color="rgb(189,79,255)"/>
    <sodipodi:guide position="0,80" orientation="0,1" id="guide4576" inkscape:locked="false" inkscape:label="" inkscape:color="rgb(189,79,255)"/>
    <sodipodi:guide position="-32,48" orientation="1,0" id="guide4578" inkscape:locked="false" inkscape:label="" inkscape:color="rgb(189,79,255)"/>
    <sodipodi:guide position="-32,104" orientation="0,1" id="guide4580" inkscape:locked="false" inkscape:label="" inkscape:color="rgb(189,79,255)"/>
    <sodipodi:guide position="-56,80" orientation="1,0" id="guide4582" inkscape:locked="false" inkscape:label="" inkscape:color="rgb(189,79,255)"/>
    <sodipodi:guide position="48,-64" orientation="0,1" id="guide4584" inkscape:locked="false" inkscape:label="" inkscape:color="rgb(189,79,255)"/>
    <sodipodi:guide position="0,0" orientation="-0.70710678,0.70710678" id="guide4588" inkscape:locked="false" inkscape:label="" inkscape:color="rgb(189,79,255)"/>
    <sodipodi:guide position="-56,80" orientation="-0.70710678,0.70710678" id="guide4573" inkscape:locked="false" inkscape:label="" inkscape:color="rgb(189,79,255)"/>
    <sodipodi:guide position="-32,48" orientation="-0.70710678,0.70710678" id="guide4575" inkscape:locked="false" inkscape:label="" inkscape:color="rgb(189,79,255)"/>
    <sodipodi:guide position="48,-64" orientation="-0.70710678,0.70710678" id="guide4577" inkscape:locked="false" inkscape:label="" inkscape:color="rgb(189,79,255)"/>
    <sodipodi:guide position="47.999962,0" orientation="0.70710678,0.70710678" id="guide4697" inkscape:locked="false" inkscape:label="" inkscape:color="rgb(189,79,255)"/>
    <sodipodi:guide position="207.99995,-288" orientation="0,1" id="guide7833" inkscape:locked="false"/>
    <sodipodi:guide position="335.99994,-288" orientation="1,0" id="guide7835" inkscape:locked="false" inkscape:label="" inkscape:color="rgb(189,79,255)"/>
    <sodipodi:guide position="111.99996,-64" orientation="1,0" id="guide7915" inkscape:locked="false"/>
    <sodipodi:guide position="111.99996,-160" orientation="0,1" id="guide7917" inkscape:locked="false"/>
    <sodipodi:guide position="207.99996,-160" orientation="1,0" id="guide7919" inkscape:locked="false"/>
    <sodipodi:guide position="111.99996,-160" orientation="-0.70710678,0.70710678" id="guide7921" inkscape:locked="false" inkscape:label="" inkscape:color="rgb(189,79,255)"/>
    <sodipodi:guide position="207.99996,-288" orientation="-0.70710678,0.70710678" id="guide7923" inkscape:locked="false" inkscape:label="" inkscape:color="rgb(189,79,255)"/>
    <sodipodi:guide position="-72,104" orientation="1,0" id="guide7824" inkscape:locked="false"/>
    <sodipodi:guide position="-56,120" orientation="0,1" id="guide7826" inkscape:locked="false"/>
    <sodipodi:guide position="-72,104" orientation="-0.70710678,0.70710678" id="guide7828" inkscape:locked="false" inkscape:label="" inkscape:color="rgb(189,79,255)"/>
  </sodipodi:namedview>
  <g inkscape:groupmode="layer" id="g7907" inkscape:label="icon_64" style="display:inline" transform="translate(-48,-48)">
    <g inkscape:groupmode="layer" id="g7843" inkscape:label="frame" style="display:none">
      <rect inkscape:label="frame_64" y="48" x="48" height="64" width="64" id="rect7837" style="color:#000000;clip-rule:nonzero;display:inline;overflow:visible;visibility:visible;opacity:1;isolation:auto;mix-blend-mode:normal;color-interpolation:sRGB;color-interpolation-filters:linearRGB;solid-color:#000000;solid-opacity:1;vector-effect:none;fill:#000000;fill-opacity:1;fill-rule:nonzero;stroke:#ff24f7;stroke-width:0;stroke-linecap:square;stroke-linejoin:miter;stroke-miterlimit:4;stroke-dasharray:none;stroke-dashoffset:0;stroke-opacity:0.99481865;marker:none;marker-start:none;marker-mid:none;marker-end:none;paint-order:normal;color-rendering:auto;image-rendering:auto;shape-rendering:auto;text-rendering:auto;enable-background:accumulate"/>
      <text xml:space="preserve" style="font-size:16px;line-height:0%;font-family:sans-serif;letter-spacing:0px;word-spacing:0px;display:inline;opacity:1;fill:#ffffff;fill-opacity:1;stroke:none;stroke-width:0.03278551px;stroke-linecap:butt;stroke-linejoin:miter;stroke-opacity:1" x="69.816406" y="85.824219" id="text7841" inkscape:label="txt_64">
        <tspan sodipodi:role="line" x="69.816406" y="85.824219" style="font-size:16px;line-height:0%;fill:#ffffff;fill-opacity:1;stroke:none;stroke-width:0.03278551px" id="tspan7839">64</tspan>
      </text>
    </g>
    <g inkscape:groupmode="layer" id="g7905" inkscape:label="icon" style="display:inline">
      <path inkscape:connector-curvature="0" id="path946-4" d="M 57,50.00004 V 110 h 11 l 2,-2 h 21 l 2,2 h 10 V 50.00004 Z" style="display:inline;opacity:1;fill:#000000;fill-opacity:0.10439561;stroke:none;stroke-width:1.59366512;stroke-linecap:butt;stroke-linejoin:miter;stroke-miterlimit:4;stroke-dasharray:none;stroke-dashoffset:0;stroke-opacity:0.23979594" sodipodi:nodetypes="ccccccccc" inkscape:label="base sombra"/>
      <path sodipodi:nodetypes="ccccccccc" style="display:inline;opacity:1;fill:#565e66;fill-opacity:1;stroke:none;stroke-width:1.52599764;stroke-linecap:butt;stroke-linejoin:miter;stroke-miterlimit:4;stroke-dasharray:none;stroke-dashoffset:0;stroke-opacity:0.23979594" d="m 58,51 v 58.11943 L 68,109 72,104.01575 89,104 l 4,5 h 9 V 51 Z" id="path8033-93-5" inkscape:connector-curvature="0" inkscape:label="borde negro"/>
      <path inkscape:connector-curvature="0" id="rect4517-7-2-7-0" d="m 59,52 0.08661,56 H 68 l 4,-3.98425 17,-0.0157 4,4 h 8 V 52 Z" style="display:inline;opacity:1;fill:url(#linearGradient8025-5-93);fill-opacity:1;stroke:none;stroke-width:1.52599764;stroke-linecap:butt;stroke-linejoin:miter;stroke-miterlimit:4;stroke-dasharray:none;stroke-dashoffset:0;stroke-opacity:0.23979594" sodipodi:nodetypes="ccccccccc" inkscape:label="base"/>
      <path style="display:inline;fill:#6c7587;fill-opacity:1;fill-rule:evenodd;stroke:none;stroke-width:1.52599788px;stroke-linecap:butt;stroke-linejoin:miter;stroke-opacity:1" d="m 72,104.01575 -2.396099,2.98976 21.802124,-0.005 -2.406025,-3 z" id="path8005-5-3" inkscape:connector-curvature="0" sodipodi:nodetypes="ccccc" inkscape:label="baquelita"/>
      <path style="color:#000000;clip-rule:nonzero;display:block;overflow:visible;visibility:visible;opacity:1;isolation:auto;mix-blend-mode:normal;color-interpolation:sRGB;color-interpolation-filters:linearRGB;solid-color:#000000;solid-opacity:1;vector-effect:none;fill:#eeda60;fill-opacity:1;fill-rule:nonzero;stroke:none;stroke-width:0.19823384;stroke-linecap:round;stroke-linejoin:round;stroke-miterlimit:4;stroke-dasharray:none;stroke-dashoffset:0;stroke-opacity:0.96354167;marker:none;marker-start:none;marker-mid:none;marker-end:none;paint-order:normal;color-rendering:auto;image-rendering:auto;shape-rendering:auto;text-rendering:auto;enable-background:accumulate" d="m 71.984252,104 0.01575,3 h 1 v -3 z M 75,104 74.98425,107 H 76 v -3 z m 3,0 v 3 h 1 v -3 z m 4,0 v 3 h 1 v -3 z m 3,0 v 3 h 1 v -3 z m 3,0 v 3 h 1 v -3 z" id="rect8007-2-6" inkscape:connector-curvature="0" inkscape:label="contactos" sodipodi:nodetypes="cccccccccccccccccccccccccccccc"/>
      <path sodipodi:nodetypes="ccccc" inkscape:connector-curvature="0" id="path8207-8-1" d="M 72,104.01575 70.39738,106 H 90.600231 L 89,104 Z" style="display:inline;fill:#000000;fill-opacity:0.24725276;fill-rule:evenodd;stroke:none;stroke-width:1.07203293px;stroke-linecap:butt;stroke-linejoin:miter;stroke-opacity:1" inkscape:label="baquelita sombra"/>
      <path style="color:#000000;clip-rule:nonzero;display:block;overflow:visible;visibility:visible;opacity:1;isolation:auto;mix-blend-mode:normal;color-interpolation:sRGB;color-interpolation-filters:linearRGB;solid-color:#000000;solid-opacity:1;vector-effect:none;fill:#000000;fill-opacity:0.21978024;fill-rule:nonzero;stroke:none;stroke-width:0.39646769;stroke-linecap:round;stroke-linejoin:round;stroke-miterlimit:4;stroke-dasharray:none;stroke-dashoffset:0;stroke-opacity:0.96354167;marker:none;marker-start:none;marker-mid:none;marker-end:none;paint-order:normal;color-rendering:auto;image-rendering:auto;shape-rendering:auto;text-rendering:auto;enable-background:accumulate" d="m 68,62 h 24 l 0.0315,34 H 68 Z" id="rect8154-3-4-0" inkscape:connector-curvature="0" sodipodi:nodetypes="ccccc" inkscape:label="centro recuadro"/>
      <path style="color:#000000;clip-rule:nonzero;display:inline;overflow:visible;visibility:visible;opacity:1;isolation:auto;mix-blend-mode:normal;color-interpolation:sRGB;color-interpolation-filters:linearRGB;solid-color:#000000;solid-opacity:1;vector-effect:none;fill:#ffffff;fill-opacity:0.5;fill-rule:nonzero;stroke:none;stroke-width:0.72727591;stroke-linecap:square;stroke-linejoin:miter;stroke-miterlimit:4;stroke-dasharray:1.45455186, 1.45455186;stroke-dashoffset:9.73946476;stroke-opacity:1;marker:none;marker-start:none;marker-mid:none;marker-end:none;paint-order:markers stroke fill;color-rendering:auto;image-rendering:auto;shape-rendering:auto;text-rendering:auto;enable-background:accumulate" d="m 68,96 h 24.031497 l -0.0315,1 H 68 Z" id="rect956-3" inkscape:connector-curvature="0" inkscape:label="centro recuadro brillo inf" sodipodi:nodetypes="ccccc"/>
      <path sodipodi:nodetypes="sssss" inkscape:connector-curvature="0" id="path936-20" d="m 62.36523,79.999895 c 0.807327,0 1.457279,0.649945 1.457279,1.457279 0,0.807327 -0.649952,1.457272 -1.457279,1.457272 -0.807328,0 -1.45728,-0.649945 -1.45728,-1.457272 0,-0.807334 0.649952,-1.457279 1.45728,-1.457279 z" style="display:inline;opacity:1;fill:#737373;fill-opacity:1;stroke:none;stroke-width:1.94303656;stroke-linecap:butt;stroke-linejoin:miter;stroke-miterlimit:4;stroke-dasharray:none;stroke-dashoffset:0;stroke-opacity:0.64313725" inkscape:label="tornillo"/>
      <path style="display:inline;opacity:1;fill:#737373;fill-opacity:1;stroke:none;stroke-width:1.94303656;stroke-linecap:butt;stroke-linejoin:miter;stroke-miterlimit:4;stroke-dasharray:none;stroke-dashoffset:0;stroke-opacity:0.64313725" d="m 62.36523,103.14923 c 0.807327,0 1.457279,0.64995 1.457279,1.45728 0,0.80733 -0.649952,1.45727 -1.457279,1.45727 -0.807328,0 -1.45728,-0.64994 -1.45728,-1.45727 0,-0.80733 0.649952,-1.45728 1.45728,-1.45728 z" id="path938-6" inkscape:connector-curvature="0" sodipodi:nodetypes="sssss" inkscape:label="tornillo"/>
      <path sodipodi:nodetypes="sssss" inkscape:connector-curvature="0" id="path940-1" d="m 97.457828,54.02746 c 0.807322,0 1.457282,0.649944 1.457282,1.457279 0,0.807327 -0.64996,1.457272 -1.457282,1.457272 -0.807353,0 -1.457305,-0.649945 -1.457305,-1.457272 0,-0.807335 0.649952,-1.457279 1.457305,-1.457279 z" style="display:inline;opacity:1;fill:#737373;fill-opacity:1;stroke:none;stroke-width:1.94303656;stroke-linecap:butt;stroke-linejoin:miter;stroke-miterlimit:4;stroke-dasharray:none;stroke-dashoffset:0;stroke-opacity:0.64313725" inkscape:label="tornillo"/>
      <path style="display:inline;opacity:1;fill:#737373;fill-opacity:1;stroke:none;stroke-width:1.94303656;stroke-linecap:butt;stroke-linejoin:miter;stroke-miterlimit:4;stroke-dasharray:none;stroke-dashoffset:0;stroke-opacity:0.64313725" d="m 97.457828,79.999895 c 0.807322,0 1.457282,0.649945 1.457282,1.457279 0,0.807327 -0.64996,1.457272 -1.457282,1.457272 -0.807353,0 -1.457305,-0.649945 -1.457305,-1.457272 0,-0.807334 0.649952,-1.457279 1.457305,-1.457279 z" id="path942-55" inkscape:connector-curvature="0" sodipodi:nodetypes="sssss" inkscape:label="tornillo"/>
      <path sodipodi:nodetypes="sssss" inkscape:connector-curvature="0" id="path944-4" d="m 97.457828,103.14923 c 0.807322,0 1.457282,0.64995 1.457282,1.45728 0,0.80733 -0.64996,1.45727 -1.457282,1.45727 -0.807353,0 -1.457305,-0.64994 -1.457305,-1.45727 0,-0.80733 0.649952,-1.45728 1.457305,-1.45728 z" style="display:inline;opacity:1;fill:#737373;fill-opacity:1;stroke:none;stroke-width:1.94303656;stroke-linecap:butt;stroke-linejoin:miter;stroke-miterlimit:4;stroke-dasharray:none;stroke-dashoffset:0;stroke-opacity:0.64313725" inkscape:label="tornillo"/>
      <path sodipodi:nodetypes="sssss" inkscape:connector-curvature="0" id="rect4617-5-3-9-68-7" d="m 62.36523,54.02746 c 0.807327,0 1.457279,0.649944 1.457279,1.457279 0,0.807327 -0.649952,1.457272 -1.457279,1.457272 -0.807328,0 -1.45728,-0.649945 -1.45728,-1.457272 0,-0.807335 0.649952,-1.457279 1.45728,-1.457279 z" style="display:inline;opacity:1;fill:#737373;fill-opacity:1;stroke:none;stroke-width:1.94303656;stroke-linecap:butt;stroke-linejoin:miter;stroke-miterlimit:4;stroke-dasharray:none;stroke-dashoffset:0;stroke-opacity:0.64313725" inkscape:label="tornillo"/>
      <path style="display:inline;opacity:1;fill:#000000;fill-opacity:0.46153846;stroke:none;stroke-width:1.94303656;stroke-linecap:butt;stroke-linejoin:miter;stroke-miterlimit:4;stroke-dasharray:none;stroke-dashoffset:0;stroke-opacity:0.64313725" d="m 62.36523,54.02746 c -0.807328,0 -1.457396,0.650061 -1.457396,1.457395 0,0.0712 0.01156,0.138983 0.02131,0.207383 0.10163,-0.70668 0.700425,-1.24858 1.436087,-1.24858 0.735661,0 1.334456,0.5419 1.436086,1.24858 0.0097,-0.06844 0.02131,-0.136197 0.02131,-0.207383 0,-0.807334 -0.650068,-1.457395 -1.457395,-1.457395 z m 35.092598,0 c -0.807353,0 -1.457422,0.650061 -1.457422,1.457395 0,0.0712 0.01156,0.138983 0.02131,0.207383 0.10163,-0.70668 0.700425,-1.24858 1.436112,-1.24858 0.735662,0 1.334452,0.5419 1.436082,1.24858 0.01,-0.06844 0.0213,-0.136197 0.0213,-0.207383 0,-0.807334 -0.65007,-1.457395 -1.457392,-1.457395 z M 62.36523,79.999895 c -0.807328,0 -1.457396,0.650061 -1.457396,1.457396 0,0.0712 0.01156,0.138982 0.02131,0.207382 0.10163,-0.706679 0.700425,-1.24858 1.436087,-1.24858 0.735661,0 1.334456,0.541901 1.436086,1.24858 0.0097,-0.06844 0.02131,-0.136197 0.02131,-0.207382 -2e-6,-0.807335 -0.65007,-1.457396 -1.457397,-1.457396 z m 35.092598,0 c -0.807353,0 -1.457422,0.650061 -1.457422,1.457396 0,0.0712 0.01156,0.138982 0.02131,0.207382 0.10163,-0.706679 0.700425,-1.24858 1.436112,-1.24858 0.735662,0 1.334452,0.541901 1.436082,1.24858 0.01,-0.06844 0.0213,-0.136197 0.0213,-0.207382 1e-5,-0.807335 -0.65006,-1.457396 -1.457382,-1.457396 z M 62.36523,103.14923 c -0.807328,0 -1.457396,0.65006 -1.457396,1.4574 0,0.0712 0.01156,0.13898 0.02131,0.20738 0.10163,-0.70668 0.700425,-1.24858 1.436087,-1.24858 0.735661,0 1.334456,0.5419 1.436086,1.24858 0.0097,-0.0684 0.02131,-0.1362 0.02131,-0.20738 0,-0.80734 -0.650068,-1.4574 -1.457395,-1.4574 z m 35.092598,0 c -0.807353,0 -1.457422,0.65006 -1.457422,1.4574 0,0.0712 0.01156,0.13898 0.02131,0.20738 0.10163,-0.70668 0.700425,-1.24858 1.436112,-1.24858 0.735662,0 1.334452,0.5419 1.436082,1.24858 0.01,-0.0684 0.0213,-0.1362 0.0213,-0.20738 0,-0.80734 -0.65007,-1.4574 -1.457392,-1.4574 z" id="path958-6" inkscape:connector-curvature="0" inkscape:label="tornillos sombra" sodipodi:nodetypes="sscscssscscscsccsscsccssscsccssscscssscscscscc"/>
      <path style="color:#000000;clip-rule:nonzero;display:block;overflow:visible;visibility:visible;opacity:1;isolation:auto;mix-blend-mode:normal;color-interpolation:sRGB;color-interpolation-filters:linearRGB;solid-color:#000000;solid-opacity:1;vector-effect:none;fill:#ffffff;fill-opacity:0.27472528;fill-rule:nonzero;stroke:none;stroke-width:0.27589288;stroke-linecap:butt;stroke-linejoin:miter;stroke-miterlimit:4;stroke-dasharray:none;stroke-dashoffset:0;stroke-opacity:0.28021982;marker:none;marker-start:none;marker-mid:none;marker-end:none;paint-order:fill markers stroke;color-rendering:auto;image-rendering:auto;shape-rendering:auto;text-rendering:auto;enable-background:accumulate" d="m 62.36523,54.754736 c -0.401664,0 -0.727276,0.325612 -0.727276,0.727276 0,0.401663 0.325612,0.727276 0.727276,0.727276 0.401663,0 0.727276,-0.325613 0.727276,-0.727276 0,-0.401664 -0.325613,-0.727276 -0.727276,-0.727276 z m 35.092598,0 c -0.401673,-1.5e-5 -0.727302,0.325602 -0.727302,0.727276 0,0.401673 0.325629,0.72729 0.727302,0.727276 0.401662,-4e-6 0.727272,-0.325615 0.727272,-0.727276 0,-0.401662 -0.32561,-0.727273 -0.727272,-0.727276 z M 62.36523,80.727171 c -0.401664,0 -0.727276,0.325613 -0.727276,0.727276 0,0.401663 0.325612,0.727276 0.727276,0.727276 0.401663,0 0.727276,-0.325613 0.727276,-0.727276 0,-0.401663 -0.325613,-0.727276 -0.727276,-0.727276 z m 35.092598,0 c -0.401673,-1.4e-5 -0.727302,0.325602 -0.727302,0.727276 0,0.401674 0.325629,0.72729 0.727302,0.727276 0.401662,-3e-6 0.727272,-0.325615 0.727272,-0.727276 0,-0.401661 -0.32561,-0.727273 -0.727272,-0.727276 z M 62.36523,103.87651 c -0.401665,0 -0.727279,0.32562 -0.727276,0.72728 3e-6,0.40167 0.325615,0.72727 0.727276,0.72727 0.401661,0 0.727272,-0.3256 0.727276,-0.72727 2e-6,-0.40166 -0.325611,-0.72728 -0.727276,-0.72728 z m 35.092598,0.027 c -0.401675,-1e-5 -0.727304,0.32561 -0.727302,0.72728 4e-6,0.40168 0.325631,0.72729 0.727302,0.72727 0.401659,0 0.727272,-0.32561 0.727272,-0.72727 0,-0.40166 -0.325609,-0.72727 -0.727272,-0.72728 z" id="path1490-5" inkscape:connector-curvature="0" inkscape:label="tornillo centro" sodipodi:nodetypes="ssssscscscssssscscscscscsccccc"/>
      <path style="color:#000000;clip-rule:nonzero;display:block;overflow:visible;visibility:visible;opacity:1;isolation:auto;mix-blend-mode:normal;color-interpolation:sRGB;color-interpolation-filters:linearRGB;solid-color:#000000;solid-opacity:1;vector-effect:none;fill:#ffffff;fill-opacity:0.3241762;fill-rule:nonzero;stroke:#000000;stroke-width:0.55800003;stroke-linecap:butt;stroke-linejoin:miter;stroke-miterlimit:4;stroke-dasharray:none;stroke-dashoffset:0;stroke-opacity:0.28021982;marker:none;marker-start:none;marker-mid:none;marker-end:none;paint-order:fill markers stroke;color-rendering:auto;image-rendering:auto;shape-rendering:auto;text-rendering:auto;enable-background:accumulate" d="m 81.240488,66.699756 c -6.216865,0 -10.129989,4.47482 -10.13012,10.021726 0.0015,1.957816 0.575212,3.872504 1.650575,5.508548 -2.550878,0.615859 -4.349159,2.897159 -4.352296,5.521326 -3.18e-4,3.140712 2.545394,5.687062 5.686106,5.687531 3.141265,3.13e-4 5.687841,-2.546266 5.687523,-5.687531 -0.0023,-0.37319 -0.0413,-0.74525 -0.116473,-1.110797 0.492457,0.07809 0.990046,0.119396 1.488639,0.123578 5.546352,-1.31e-4 10.042527,-4.496303 10.042662,-10.042655 -1.31e-4,-5.546355 -4.152122,-10.021589 -9.956616,-10.021726 z" id="path1469-6" inkscape:connector-curvature="0" inkscape:label="engranaje back" sodipodi:nodetypes="cccccccccc"/>
      <path style="color:#000000;clip-rule:nonzero;display:inline;overflow:visible;visibility:visible;opacity:1;isolation:auto;mix-blend-mode:normal;color-interpolation:sRGB;color-interpolation-filters:linearRGB;solid-color:#000000;solid-opacity:1;vector-effect:none;fill:#656c76;fill-opacity:1;fill-rule:nonzero;stroke:#f7f2f8;stroke-width:0.27589288;stroke-linecap:butt;stroke-linejoin:miter;stroke-miterlimit:4;stroke-dasharray:none;stroke-dashoffset:0;stroke-opacity:0.80769228;marker:none;marker-start:none;marker-mid:none;marker-end:none;paint-order:fill markers stroke;color-rendering:auto;image-rendering:auto;shape-rendering:auto;text-rendering:auto;enable-background:accumulate" d="m 80.235405,68.774 c -0.138786,0 -0.215746,0.110066 -0.250001,0.237215 l -0.497159,1.845179 c -0.452002,0.131616 -0.888302,0.313791 -1.299722,0.542621 l -1.656262,-0.94887 c -0.114284,-0.06538 -0.245601,-0.0882 -0.343746,0.01 l -1.43325,1.43325 c -0.09823,0.09813 -0.07561,0.231056 -0.01,0.345165 l 0.964491,1.678989 c -0.218219,0.403602 -0.391521,0.830004 -0.517042,1.271315 l -1.872168,0.509944 c -0.127077,0.03455 -0.237216,0.111208 -0.237216,0.250001 v 2.026998 c 0,0.138786 0.110059,0.217165 0.237216,0.25142 l 1.914779,0.515624 c 0.129484,0.418627 0.302205,0.823269 0.515624,1.205976 l -0.990055,1.731542 c -0.06538,0.114284 -0.08962,0.245616 0.0085,0.343747 l 1.434668,1.43325 c 0.09814,0.09822 0.231056,0.07561 0.345173,0.01 l 1.762793,-1.014208 c 0.321987,0.168517 0.799727,0.348961 1.163358,0.478693 l 0.532671,1.960234 c 0.03455,0.127077 0.111208,0.235797 0.250001,0.235797 h 2.028417 c 0.138793,0 0.215746,-0.10864 0.250001,-0.235797 l 0.534097,-1.975856 c 0.36275,-0.11747 0.769268,-0.313558 1.15767,-0.473013 l 1.761375,1.00852 c 0.114299,0.06531 0.247027,0.08821 0.345173,-0.01 l 1.433242,-1.433243 c 0.09815,-0.09815 0.07561,-0.231055 0.01,-0.345172 L 86.76525,79.906207 c 0.204234,-0.373747 0.370998,-0.767487 0.495741,-1.174717 l 1.94035,-0.526992 c 0.12707,-0.03454 0.237216,-0.111208 0.237216,-0.250001 v -2.028416 c 0,-0.138786 -0.110074,-0.215747 -0.237216,-0.250001 l -1.909099,-0.515632 c -0.12251,-0.431071 -0.290394,-0.847567 -0.501428,-1.2429 l 0.971597,-1.694611 c 0.06531,-0.114284 0.0882,-0.247041 -0.01,-0.345172 l -1.43325,-1.433243 c -0.09815,-0.09822 -0.231041,-0.07561 -0.345165,-0.01 l -1.674727,0.963074 C 83.893108,71.17089 83.462736,70.989733 83.016639,70.85782 L 82.513793,69.011215 C 82.479253,68.884138 82.402593,68.774 82.263792,68.774 Z m 1.026994,5.177579 c 1.652014,0 2.991489,1.339511 2.991489,2.991497 0,1.651985 -1.339475,2.991489 -2.991489,2.991489 -1.652008,0 -2.99149,-1.339504 -2.99149,-2.991489 0,-1.651993 1.33949,-2.991497 2.99149,-2.991497 z m -7.898813,9.769236 c -0.07258,0 -0.114139,0.05702 -0.132103,0.123578 L 72.97154,84.81031 c -0.236583,0.06887 -0.465056,0.164314 -0.680395,0.284089 l -0.866484,-0.49574 c -0.05985,-0.03426 -0.129055,-0.04706 -0.180401,0.0044 l -0.750003,0.751429 c -0.05135,0.05135 -0.04007,0.120684 -0.0058,0.180394 l 0.505683,0.877843 c -0.114219,0.211252 -0.204212,0.435217 -0.269885,0.6662 l -0.980121,0.267048 c -0.06655,0.01811 -0.123579,0.05804 -0.123579,0.130677 v 1.061088 c 0,0.07265 0.05702,0.112721 0.123579,0.130685 l 1.00143,0.269884 c 0.06778,0.219114 0.158183,0.430373 0.269885,0.630687 l -0.518468,0.907669 c -0.03426,0.05978 -0.04567,0.127637 0.0058,0.178983 l 0.750004,0.751421 c 0.05134,0.05135 0.120691,0.03869 0.1804,0.0044 l 0.923299,-0.531253 c 0.168532,0.0882 0.417631,0.183492 0.607959,0.251419 l 0.279827,1.025576 c 0.01811,0.06655 0.05804,0.123578 0.130684,0.123578 h 1.061081 c 0.07258,0 0.112721,-0.05702 0.130684,-0.123578 l 0.279834,-1.034092 c 0.18987,-0.06145 0.403238,-0.163703 0.606534,-0.247165 l 0.92188,0.52841 c 0.05986,0.03425 0.129055,0.04567 0.180401,-0.0058 l 0.750003,-0.750003 c 0.05135,-0.05135 0.04007,-0.120691 0.0058,-0.180401 l -0.529974,-0.92052 c 0.106903,-0.195623 0.193216,-0.401907 0.258525,-0.615057 l 1.015634,-0.275572 c 0.06655,-0.01811 0.124997,-0.05804 0.124997,-0.130685 v -1.062499 c 0,-0.07258 -0.05847,-0.11272 -0.124997,-0.130684 l -0.998587,-0.269892 c -0.06414,-0.225623 -0.152328,-0.443646 -0.262786,-0.65057 l 0.508526,-0.886368 c 0.03425,-0.05978 0.04567,-0.129048 -0.0058,-0.180393 l -0.750003,-0.750004 c -0.05135,-0.05134 -0.120691,-0.04007 -0.180401,-0.0058 L 75.48988,85.094378 C 75.277268,84.975716 75.0515,84.880726 74.818,84.811708 l -0.262779,-0.967335 c -0.01811,-0.06647 -0.05804,-0.123579 -0.130684,-0.123579 z m 0.53694,2.710237 c 0.86468,0 1.565345,0.700687 1.565345,1.565353 0,0.864672 -0.700665,1.565345 -1.565345,1.565345 -0.86468,0 -1.565352,-0.700673 -1.565352,-1.565345 0,-0.864666 0.700679,-1.565353 1.565352,-1.565353 z" id="path1242-7-9" inkscape:connector-curvature="0" inkscape:label="engranaje" sodipodi:nodetypes="sccccccccccssccccccccccsscccccsccccssccccccccccssssssscccccccccccssccccccccccsscccccsccccsscccccsccccccsssss"/>
      <rect style="color:#000000;clip-rule:nonzero;display:block;overflow:visible;visibility:visible;opacity:1;isolation:auto;mix-blend-mode:normal;color-interpolation:sRGB;color-interpolation-filters:linearRGB;solid-color:#000000;solid-opacity:1;vector-effect:none;fill:#000000;fill-opacity:0.2857143;fill-rule:nonzero;stroke:none;stroke-width:0.72727591;stroke-linecap:square;stroke-linejoin:miter;stroke-miterlimit:4;stroke-dasharray:1.45455186, 1.45455186;stroke-dashoffset:9.73946476;stroke-opacity:1;marker:none;marker-start:none;marker-mid:none;marker-end:none;paint-order:markers stroke fill;color-rendering:auto;image-rendering:auto;shape-rendering:auto;text-rendering:auto;enable-background:accumulate" id="rect954-6" width="24" height="1" x="68" y="62" inkscape:label="centro recuadro sombra top"/>
    </g>
  </g>
</svg>