<?xml version="1.0" encoding="UTF-8" standalone="yes"?>
<svg xmlns:osb="http://www.openswatchbook.org/uri/2009/osb" xmlns:dc="http://purl.org/dc/elements/1.1/" xmlns:cc="http://creativecommons.org/ns#" xmlns:rdf="http://www.w3.org/1999/02/22-rdf-syntax-ns#" xmlns:svg="http://www.w3.org/2000/svg" xmlns="http://www.w3.org/2000/svg" xmlns:xlink="http://www.w3.org/1999/xlink" xmlns:sodipodi="http://sodipodi.sourceforge.net/DTD/sodipodi-0.dtd" xmlns:inkscape="http://www.inkscape.org/namespaces/inkscape" height="64" viewBox="0 0 64 64" width="64" id="svg2" version="1.1" inkscape:version="0.92.1 r" sodipodi:docname="libreoffice-math.svg" enable-background="new" folder="64">
  <title id="title4675">Template icons dark</title>
  <metadata id="metadata24">
    <rdf:RDF>
      <cc:Work rdf:about="">
        <dc:format>image/svg+xml</dc:format>
        <dc:type rdf:resource="http://purl.org/dc/dcmitype/StillImage"/>
        <dc:title>Template icons dark</dc:title>
        <dc:date>17/05/13</dc:date>
        <dc:creator>
          <cc:Agent>
            <dc:title>wfpaisa</dc:title>
          </cc:Agent>
        </dc:creator>
        <dc:rights>
          <cc:Agent>
            <dc:title>License: GPLv3</dc:title>
          </cc:Agent>
        </dc:rights>
        <dc:language>es-en</dc:language>
        <dc:subject>
          <rdf:Bag>
            <rdf:li>plane-icon-theme</rdf:li>
          </rdf:Bag>
        </dc:subject>
        <dc:description>Template for create set icons</dc:description>
        <cc:license rdf:resource="https://www.gnu.org/licenses/gpl-3.0.en.html"/>
      </cc:Work>
    </rdf:RDF>
  </metadata>
  <defs id="defs22">
    <linearGradient id="linearGradient7995" inkscape:collect="always">
      <stop id="stop7991" offset="0" style="stop-color:#ffffff;stop-opacity:0.05729167"/>
      <stop id="stop7993" offset="1" style="stop-color:#ffffff;stop-opacity:0.63541669"/>
    </linearGradient>
    <linearGradient inkscape:collect="always" id="linearGradient9793">
      <stop style="stop-color:#ffffff;stop-opacity:0.46354166" offset="0" id="stop9789"/>
      <stop style="stop-color:#f6f6f6;stop-opacity:0.21875" offset="1" id="stop9791"/>
    </linearGradient>
    <linearGradient inkscape:collect="always" id="linearGradient9499">
      <stop style="stop-color:#000000;stop-opacity:0.296875" offset="0" id="stop9495"/>
      <stop style="stop-color:#000000;stop-opacity:0.078125" offset="1" id="stop9497"/>
    </linearGradient>
    <linearGradient id="linearGradient9422" osb:paint="solid">
      <stop style="stop-color:#a3bfcf;stop-opacity:1;" offset="0" id="stop9420"/>
    </linearGradient>
    <linearGradient id="linearGradient9052">
      <stop style="stop-color:#000000;stop-opacity:0.41145834" offset="0" id="stop9048"/>
      <stop style="stop-color:#000000;stop-opacity:0.515625" offset="1" id="stop9050"/>
    </linearGradient>
    <linearGradient id="linearGradient7827">
      <stop id="stop7823" offset="0" style="stop-color:#a3bfcf;stop-opacity:1;"/>
      <stop id="stop7825" offset="1" style="stop-color:#6d8aa9;stop-opacity:1;"/>
    </linearGradient>
    <linearGradient inkscape:collect="always" xlink:href="#linearGradient7827" id="linearGradient7785" x1="160" y1="137" x2="160" y2="188" gradientUnits="userSpaceOnUse"/>
    <linearGradient gradientTransform="matrix(0.71910112,0,0,0.71910112,-35.934044,-35.407549)" inkscape:collect="always" xlink:href="#linearGradient7827" id="linearGradient7785-2" x1="160" y1="137" x2="160" y2="188" gradientUnits="userSpaceOnUse"/>
    <linearGradient inkscape:collect="always" xlink:href="#linearGradient9052" id="linearGradient9054" x1="160" y1="119" x2="160" y2="201.5748" gradientUnits="userSpaceOnUse"/>
    <linearGradient inkscape:collect="always" xlink:href="#linearGradient9422" id="linearGradient9424" x1="172" y1="128" x2="194" y2="128" gradientUnits="userSpaceOnUse"/>
    <linearGradient inkscape:collect="always" xlink:href="#linearGradient9499" id="linearGradient9501" x1="160" y1="204" x2="160" y2="119" gradientUnits="userSpaceOnUse"/>
    <linearGradient inkscape:collect="always" xlink:href="#linearGradient9499" id="linearGradient9719" gradientUnits="userSpaceOnUse" x1="75.590553" y1="110.653" x2="75.590553" y2="48"/>
    <linearGradient inkscape:collect="always" xlink:href="#linearGradient9499" id="linearGradient9730" gradientUnits="userSpaceOnUse" x1="21" y1="47.456692" x2="21" y2="2"/>
    <linearGradient inkscape:collect="always" xlink:href="#linearGradient9793" id="linearGradient9795" x1="-64" y1="-57" x2="-64" y2="-71" gradientUnits="userSpaceOnUse"/>
    <linearGradient inkscape:collect="always" xlink:href="#linearGradient9793" id="linearGradient9834" gradientUnits="userSpaceOnUse" x1="-44.031498" y1="-34" x2="-44.031498" y2="-54"/>
    <linearGradient gradientTransform="translate(100,98.000004)" inkscape:collect="always" xlink:href="#linearGradient9052" id="linearGradient9054-3" x1="160" y1="119" x2="160" y2="201.5748" gradientUnits="userSpaceOnUse"/>
    <linearGradient inkscape:collect="always" xlink:href="#linearGradient7995" id="linearGradient8964" gradientUnits="userSpaceOnUse" x1="192.57616" y1="117.25631" x2="192.57616" y2="136.34877"/>
    <linearGradient inkscape:collect="always" xlink:href="#linearGradient7827" id="linearGradient9991" gradientUnits="userSpaceOnUse" x1="273.44882" y1="218.04546" x2="273.44882" y2="328"/>
    <linearGradient inkscape:collect="always" xlink:href="#linearGradient9499" id="linearGradient10016" gradientUnits="userSpaceOnUse" x1="272" y1="328.6929" x2="272" y2="214.4252"/>
    <linearGradient inkscape:collect="always" xlink:href="#linearGradient7827" id="linearGradient8207" gradientUnits="userSpaceOnUse" gradientTransform="matrix(0.71910112,0,0,0.71910112,-35.934044,-35.407549)" x1="86.127029" y1="50.62925" x2="86.127029" y2="112.38956"/>
    <linearGradient inkscape:collect="always" xlink:href="#linearGradient7827" id="linearGradient8285" gradientUnits="userSpaceOnUse" gradientTransform="matrix(0.71910112,0,0,0.71910112,-35.934044,-35.407549)" x1="28.947159" y1="7.5198727" x2="28.947159" y2="46.457375"/>
    <linearGradient inkscape:collect="always" xlink:href="#linearGradient7827" id="linearGradient8287" gradientUnits="userSpaceOnUse" gradientTransform="matrix(0.71910112,0,0,0.71910112,-35.934044,-35.407549)" x1="-11.216721" y1="-25.855127" x2="-11.216721" y2="1.9573728"/>
    <linearGradient inkscape:collect="always" xlink:href="#linearGradient9052" id="linearGradient7937" gradientUnits="userSpaceOnUse" x1="79.842522" y1="50.497295" x2="79.842522" y2="108"/>
    <style type="text/css" id="style51071-8">
   
    .str0 {stroke:#1F1A17;stroke-width:3}
    .fil0 {fill:none}
   
  </style>
    <style id="style2031-6" type="text/css">
   
    .str0 {stroke:#1F1A17;stroke-width:0.0762}
    .fil0 {fill:none}
    .fil1 {fill:none;fill-rule:nonzero}
   
  </style>
    <style id="style5368-2" type="text/css">
   
    .str0 {stroke:#000000;stroke-width:63}
    .str1 {stroke:#09098F;stroke-width:63}
    .fil5 {fill:none}
    .fil1 {fill:#000000}
    .fil2 {fill:#000000}
    .fil3 {fill:#4D66CC}
    .fil0 {fill:#576ECD}
    .fil4 {fill:#89A1D4}
   
  </style>
    <style type="text/css" id="style51071">
   
    .str0 {stroke:#1F1A17;stroke-width:3}
    .fil0 {fill:none}
   
  </style>
    <style id="style2031" type="text/css">
   
    .str0 {stroke:#1F1A17;stroke-width:0.0762}
    .fil0 {fill:none}
    .fil1 {fill:none;fill-rule:nonzero}
   
  </style>
    <style id="style5368" type="text/css">
   
    .str0 {stroke:#000000;stroke-width:63}
    .str1 {stroke:#09098F;stroke-width:63}
    .fil5 {fill:none}
    .fil1 {fill:#000000}
    .fil2 {fill:#000000}
    .fil3 {fill:#4D66CC}
    .fil0 {fill:#576ECD}
    .fil4 {fill:#89A1D4}
   
  </style>
  </defs>
  <sodipodi:namedview pagecolor="#383c4a" bordercolor="#ffffff" borderopacity="0.62745098" objecttolerance="4" gridtolerance="10" guidetolerance="4" inkscape:pageopacity="0" inkscape:pageshadow="2" inkscape:window-width="640" inkscape:window-height="480" id="namedview20" showgrid="true" inkscape:zoom="16.386532" inkscape:cx="-19.689007" inkscape:cy="49.247553" inkscape:current-layer="layer10" inkscape:snap-smooth-nodes="false" showguides="true" borderlayer="true" inkscape:showpageshadow="false" inkscape:guide-bbox="true" guidecolor="#bd4fff" guideopacity="0.78431373" inkscape:snap-nodes="true" inkscape:lockguides="false" fit-margin-top="0" fit-margin-left="0" fit-margin-right="0" fit-margin-bottom="0" guidehicolor="#ff0101" guidehiopacity="0.78431373" inkscape:snap-page="true" inkscape:object-nodes="true" inkscape:snap-bbox="true" inkscape:snap-global="true" inkscape:snap-object-midpoints="false" inkscape:snap-bbox-edge-midpoints="false" inkscape:bbox-nodes="true" inkscape:measure-start="170,-69.0866" inkscape:measure-end="194.079,-69" inkscape:snap-bbox-midpoints="true" inkscape:snap-grids="true">
    <inkscape:grid type="xygrid" id="grid4171" empspacing="4" dotted="false" originx="2.7755576e-17" originy="0" spacingx="1" spacingy="1" color="#5a5a5a" opacity="0.23529412" empcolor="#5a5a5a" empopacity="0.47058824" visible="true"/>
    <inkscape:grid type="axonomgrid" id="grid4699" units="mm" empspacing="4" color="#5a5a5a" opacity="0.23529412" empcolor="#5a5a5a" empopacity="0.47058824" gridanglex="45" gridanglez="45" spacingy="3.7795276" visible="false" originx="1.3228346" originy="1.3228346"/>
    <sodipodi:guide position="48,0" orientation="1,0" id="guide4568" inkscape:locked="false" inkscape:label="" inkscape:color="rgb(189,79,255)"/>
    <sodipodi:guide position="111.99996,-3.9999999e-05" orientation="0,1" id="guide4570" inkscape:locked="false" inkscape:label="" inkscape:color="rgb(189,79,255)"/>
    <sodipodi:guide position="0,0" orientation="1,0" id="guide4572" inkscape:locked="false" inkscape:label="" inkscape:color="rgb(189,79,255)"/>
    <sodipodi:guide position="0,48" orientation="0,1" id="guide4574" inkscape:locked="false" inkscape:label="" inkscape:color="rgb(189,79,255)"/>
    <sodipodi:guide position="0,80" orientation="0,1" id="guide4576" inkscape:locked="false" inkscape:label="" inkscape:color="rgb(189,79,255)"/>
    <sodipodi:guide position="-32,48" orientation="1,0" id="guide4578" inkscape:locked="false" inkscape:label="" inkscape:color="rgb(189,79,255)"/>
    <sodipodi:guide position="-32,104" orientation="0,1" id="guide4580" inkscape:locked="false" inkscape:label="" inkscape:color="rgb(189,79,255)"/>
    <sodipodi:guide position="-56,80" orientation="1,0" id="guide4582" inkscape:locked="false" inkscape:label="" inkscape:color="rgb(189,79,255)"/>
    <sodipodi:guide position="48,-64" orientation="0,1" id="guide4584" inkscape:locked="false" inkscape:label="" inkscape:color="rgb(189,79,255)"/>
    <sodipodi:guide position="0,0" orientation="-0.70710678,0.70710678" id="guide4588" inkscape:locked="false" inkscape:label="" inkscape:color="rgb(189,79,255)"/>
    <sodipodi:guide position="-56,80" orientation="-0.70710678,0.70710678" id="guide4573" inkscape:locked="false" inkscape:label="" inkscape:color="rgb(189,79,255)"/>
    <sodipodi:guide position="-32,48" orientation="-0.70710678,0.70710678" id="guide4575" inkscape:locked="false" inkscape:label="" inkscape:color="rgb(189,79,255)"/>
    <sodipodi:guide position="48,-64" orientation="-0.70710678,0.70710678" id="guide4577" inkscape:locked="false" inkscape:label="" inkscape:color="rgb(189,79,255)"/>
    <sodipodi:guide position="47.999962,0" orientation="0.70710678,0.70710678" id="guide4697" inkscape:locked="false" inkscape:label="" inkscape:color="rgb(189,79,255)"/>
    <sodipodi:guide position="207.99995,-288" orientation="0,1" id="guide7833" inkscape:locked="false"/>
    <sodipodi:guide position="335.99994,-288" orientation="1,0" id="guide7835" inkscape:locked="false" inkscape:label="" inkscape:color="rgb(189,79,255)"/>
    <sodipodi:guide position="111.99996,-64" orientation="1,0" id="guide7915" inkscape:locked="false"/>
    <sodipodi:guide position="111.99996,-160" orientation="0,1" id="guide7917" inkscape:locked="false"/>
    <sodipodi:guide position="207.99996,-160" orientation="1,0" id="guide7919" inkscape:locked="false"/>
    <sodipodi:guide position="160.028,-111.4979" orientation="-0.70710678,0.70710678" id="guide7921" inkscape:locked="false" inkscape:label="" inkscape:color="rgb(189,79,255)"/>
    <sodipodi:guide position="207.99996,-288" orientation="-0.70710678,0.70710678" id="guide7923" inkscape:locked="false" inkscape:label="" inkscape:color="rgb(189,79,255)"/>
    <sodipodi:guide position="-72,104" orientation="1,0" id="guide7824" inkscape:locked="false"/>
    <sodipodi:guide position="-56,120" orientation="0,1" id="guide7826" inkscape:locked="false"/>
    <sodipodi:guide position="-72,104" orientation="-0.70710678,0.70710678" id="guide7828" inkscape:locked="false" inkscape:label="" inkscape:color="rgb(189,79,255)"/>
  </sodipodi:namedview>
  <g inkscape:groupmode="layer" id="g7907" inkscape:label="icon_64" style="display:inline" transform="translate(-48,-48)">
    <g inkscape:groupmode="layer" id="g7843" inkscape:label="frame" style="display:none">
      <rect inkscape:label="frame_64" y="48" x="48" height="64" width="64" id="rect7837" style="color:#000000;clip-rule:nonzero;display:inline;overflow:visible;visibility:visible;opacity:1;isolation:auto;mix-blend-mode:normal;color-interpolation:sRGB;color-interpolation-filters:linearRGB;solid-color:#000000;solid-opacity:1;vector-effect:none;fill:#000000;fill-opacity:1;fill-rule:nonzero;stroke:#ff24f7;stroke-width:0;stroke-linecap:square;stroke-linejoin:miter;stroke-miterlimit:4;stroke-dasharray:none;stroke-dashoffset:0;stroke-opacity:0.99481865;marker:none;marker-start:none;marker-mid:none;marker-end:none;paint-order:normal;color-rendering:auto;image-rendering:auto;shape-rendering:auto;text-rendering:auto;enable-background:accumulate"/>
      <text xml:space="preserve" style="font-size:16px;line-height:0%;font-family:sans-serif;letter-spacing:0px;word-spacing:0px;display:inline;opacity:1;fill:#ffffff;fill-opacity:1;stroke:none;stroke-width:0.03278551px;stroke-linecap:butt;stroke-linejoin:miter;stroke-opacity:1" x="69.816406" y="85.824219" id="text7841" inkscape:label="txt_64">
        <tspan sodipodi:role="line" x="69.816406" y="85.824219" style="font-size:16px;line-height:0%;fill:#ffffff;fill-opacity:1;stroke:none;stroke-width:0.03278551px" id="tspan7839">64</tspan>
      </text>
    </g>
    <g inkscape:groupmode="layer" id="g7905" inkscape:label="icon" style="display:inline">
      <path sodipodi:nodetypes="ccccccccccc" inkscape:connector-curvature="0" id="path7759-9" d="M 57,48.00004 79,48 c 0.717224,0 2.257758,0.257758 3,1 l 22,22 c 0.7191,0.719101 0.98334,1.24073 1,2 v 36 c 8e-5,2 -1,3 -3,3 H 56.944883 C 55,112 54,111 54,109 V 51 c 0,-2 1,-2.99996 3,-2.99996 z" style="color:#000000;clip-rule:nonzero;display:block;overflow:visible;visibility:visible;opacity:1;isolation:auto;mix-blend-mode:normal;color-interpolation:sRGB;color-interpolation-filters:linearRGB;solid-color:#000000;solid-opacity:1;vector-effect:none;fill:#000000;fill-opacity:0.125;fill-rule:nonzero;stroke:none;stroke-width:0.15592436;stroke-linecap:butt;stroke-linejoin:miter;stroke-miterlimit:4;stroke-dasharray:none;stroke-dashoffset:0;stroke-opacity:1;marker:none;marker-start:none;marker-mid:none;marker-end:none;paint-order:fill markers stroke;color-rendering:auto;image-rendering:auto;shape-rendering:auto;text-rendering:auto;enable-background:accumulate" inkscape:label="base sombra exterior"/>
      <path style="color:#000000;clip-rule:nonzero;display:block;overflow:visible;visibility:visible;opacity:1;isolation:auto;mix-blend-mode:normal;color-interpolation:sRGB;color-interpolation-filters:linearRGB;solid-color:#000000;solid-opacity:1;vector-effect:none;fill:url(#linearGradient7785-2);fill-opacity:1;fill-rule:nonzero;stroke:none;stroke-width:0.14478691;stroke-linecap:butt;stroke-linejoin:miter;stroke-miterlimit:4;stroke-dasharray:none;stroke-dashoffset:0;stroke-opacity:1;marker:none;marker-start:none;marker-mid:none;marker-end:none;paint-order:fill markers stroke;color-rendering:auto;image-rendering:auto;shape-rendering:auto;text-rendering:auto;enable-background:accumulate" d="M 58.015749,49 H 78.007874 C 78.730427,49 80.26482,49.264789 81,50 l 22,21 c 0.72015,0.720158 1,1.271464 1,2 v 35 c 0,2 -1,3 -3,3 H 58.015749 C 56,111 55,110 55,108 V 52 c 0,-2 1,-3 3.015749,-3 z" id="rect7756-2" inkscape:connector-curvature="0" sodipodi:nodetypes="ccccccccccc" inkscape:label="base"/>
      <path style="color:#000000;font-style:normal;font-variant:normal;font-weight:normal;font-stretch:normal;font-size:medium;line-height:normal;font-family:sans-serif;font-variant-ligatures:normal;font-variant-position:normal;font-variant-caps:normal;font-variant-numeric:normal;font-variant-alternates:normal;font-feature-settings:normal;text-indent:0;text-align:start;text-decoration:none;text-decoration-line:none;text-decoration-style:solid;text-decoration-color:#000000;letter-spacing:normal;word-spacing:normal;text-transform:none;writing-mode:lr-tb;direction:ltr;text-orientation:mixed;dominant-baseline:auto;baseline-shift:baseline;text-anchor:start;white-space:normal;shape-padding:0;clip-rule:nonzero;display:inline;overflow:visible;visibility:visible;opacity:1;isolation:auto;mix-blend-mode:normal;color-interpolation:sRGB;color-interpolation-filters:linearRGB;solid-color:#000000;solid-opacity:1;vector-effect:none;fill:url(#linearGradient9719);fill-opacity:1;fill-rule:nonzero;stroke:none;stroke-width:0.2013443;stroke-linecap:butt;stroke-linejoin:miter;stroke-miterlimit:4;stroke-dasharray:none;stroke-dashoffset:0;stroke-opacity:1;marker:none;marker-start:none;marker-mid:none;marker-end:none;paint-order:fill markers stroke;color-rendering:auto;image-rendering:auto;shape-rendering:auto;text-rendering:auto;enable-background:accumulate" d="m 55,52 v 55.91339 C 55,110 56,111 58,111 h 43 c 2,0 3,-1 3,-3 V 72.988897 c 0,-0.717433 -0.22325,-1.236394 -1.01718,-2.005537 L 81,50 C 80.262037,49.284401 78.730427,49 78,49 H 58.015749 C 56,49 55,50 55,52 Z m 2,-1 h 22 l 23,22 v 36 H 57 Z" id="path7787-2" inkscape:connector-curvature="0" sodipodi:nodetypes="ccccccccccccccccc" inkscape:label="base sombra interior"/>
      <path style="display:inline;opacity:1;vector-effect:none;fill:#000000;fill-opacity:0.125;fill-rule:evenodd;stroke:none;stroke-width:0.15592436;stroke-linecap:butt;stroke-linejoin:miter;stroke-miterlimit:4;stroke-dasharray:none;stroke-dashoffset:0;stroke-opacity:1;marker:none;marker-start:none;marker-mid:none;marker-end:none;paint-order:fill markers stroke" d="m 102,48 -16,4e-5 L 105,67 V 51 c 0,-2 -1,-3 -3,-3 z" id="path7763-8" inkscape:connector-curvature="0" sodipodi:nodetypes="ccccc" inkscape:label="pestana sombra"/>
      <path sodipodi:nodetypes="ccccc" inkscape:connector-curvature="0" id="path7761-9" d="M 101,49 H 88 L 103.94488,65 104,52 c 0,-2 -1,-3 -3,-3 z" style="display:inline;opacity:1;vector-effect:none;fill:url(#linearGradient9424);fill-opacity:1;fill-rule:evenodd;stroke:none;stroke-width:1px;stroke-linecap:butt;stroke-linejoin:miter;stroke-miterlimit:4;stroke-dasharray:none;stroke-dashoffset:0;stroke-opacity:1" inkscape:label="pestana"/>
      <path style="color:#000000;font-style:normal;font-variant:normal;font-weight:normal;font-stretch:normal;font-size:medium;line-height:normal;font-family:sans-serif;font-variant-ligatures:normal;font-variant-position:normal;font-variant-caps:normal;font-variant-numeric:normal;font-variant-alternates:normal;font-feature-settings:normal;text-indent:0;text-align:start;text-decoration:none;text-decoration-line:none;text-decoration-style:solid;text-decoration-color:#000000;letter-spacing:normal;word-spacing:normal;text-transform:none;writing-mode:lr-tb;direction:ltr;text-orientation:mixed;dominant-baseline:auto;baseline-shift:baseline;text-anchor:start;white-space:normal;shape-padding:0;clip-rule:nonzero;display:inline;overflow:visible;visibility:visible;opacity:1;isolation:auto;mix-blend-mode:normal;color-interpolation:sRGB;color-interpolation-filters:linearRGB;solid-color:#000000;solid-opacity:1;vector-effect:none;fill:#ffffff;fill-opacity:0.23529412;fill-rule:evenodd;stroke:none;stroke-width:1;stroke-linecap:butt;stroke-linejoin:miter;stroke-miterlimit:4;stroke-dasharray:none;stroke-dashoffset:0;stroke-opacity:1;color-rendering:auto;image-rendering:auto;shape-rendering:auto;text-rendering:auto;enable-background:accumulate" d="M 88,49 103.94488,65 104,52 c 0,-2 -1,-2.952755 -3,-2.952755 z m 2,1 h 13 v 13 z" id="path7797-7" inkscape:connector-curvature="0" sodipodi:nodetypes="ccccccccc" inkscape:label="pestana brillo"/>
      <path inkscape:connector-curvature="0" id="path7869-6-0" d="M 64,71 H 94 L 93.92126,93 H 64 Z" style="color:#000000;clip-rule:nonzero;display:block;overflow:visible;visibility:visible;opacity:1;isolation:auto;mix-blend-mode:normal;color-interpolation:sRGB;color-interpolation-filters:linearRGB;solid-color:#000000;solid-opacity:1;vector-effect:none;fill:#222c55;fill-opacity:0.22916667;fill-rule:nonzero;stroke:none;stroke-width:0.17938022;stroke-linecap:butt;stroke-linejoin:miter;stroke-miterlimit:4;stroke-dasharray:none;stroke-dashoffset:0;stroke-opacity:0.38541667;marker:none;marker-start:none;marker-mid:none;marker-end:none;paint-order:normal;color-rendering:auto;image-rendering:auto;shape-rendering:auto;text-rendering:auto;enable-background:accumulate" sodipodi:nodetypes="ccccc" inkscape:label="all relleno"/>
      <path sodipodi:nodetypes="ccccccccccccccc" inkscape:connector-curvature="0" id="path7875-2-6" d="m 64,71 v 29 h 30 l -3.8e-5,-29 z m 1,2 H 93 V 93 H 65 Z M 65,94.056831 93,94 v 4 H 65 Z" style="color:#000000;clip-rule:nonzero;display:inline;overflow:visible;visibility:visible;opacity:1;isolation:auto;mix-blend-mode:normal;color-interpolation:sRGB;color-interpolation-filters:linearRGB;solid-color:#000000;solid-opacity:1;vector-effect:none;fill:#1a3e7b;fill-opacity:0.51041667;fill-rule:nonzero;stroke:none;stroke-width:0.46488729px;stroke-linecap:butt;stroke-linejoin:miter;stroke-miterlimit:4;stroke-dasharray:none;stroke-dashoffset:0;stroke-opacity:1;marker:none;marker-start:none;marker-mid:none;marker-end:none;paint-order:normal;color-rendering:auto;image-rendering:auto;shape-rendering:auto;text-rendering:auto;enable-background:accumulate" inkscape:label="all sombra"/>
      <path style="color:#000000;clip-rule:nonzero;display:inline;overflow:visible;visibility:visible;opacity:1;isolation:auto;mix-blend-mode:normal;color-interpolation:sRGB;color-interpolation-filters:linearRGB;solid-color:#000000;solid-opacity:1;vector-effect:none;fill:#ffffff;fill-opacity:1;fill-rule:nonzero;stroke:none;stroke-width:0.19435354;stroke-linecap:butt;stroke-linejoin:miter;stroke-miterlimit:4;stroke-dasharray:none;stroke-dashoffset:0;stroke-opacity:0.38541667;marker:none;marker-start:none;marker-mid:none;marker-end:none;paint-order:normal;color-rendering:auto;image-rendering:auto;shape-rendering:auto;text-rendering:auto;enable-background:accumulate" d="m 64,71 v 28 h 30 l -3.8e-5,-28 z m 1,1 H 93 V 92 H 65 Z m 0,21 h 28 v 5 H 65 Z" id="rect7853-9-2" inkscape:connector-curvature="0" sodipodi:nodetypes="ccccccccccccccc" inkscape:label="all borde"/>
      <path inkscape:label="formula" sodipodi:nodetypes="cccccccccccccccccccccccccc" inkscape:connector-curvature="0" id="path8141" d="m 76,78 -4,9 -3,-5 -2,2 1,1 1,-1 3,6 5.047245,-11 H 90 v 1 h 1 v -2 z m 5,3 -1,1 3,3 -3,3 1,1 3,-3 3,3 1,-1 -3,-3 3,-3 -1,-1 -3,3 z" style="display:inline;opacity:1;vector-effect:none;fill:#1a3e7b;fill-opacity:0.51041667;fill-rule:evenodd;stroke:none;stroke-width:0.46488729px;stroke-linecap:butt;stroke-linejoin:miter;stroke-miterlimit:4;stroke-dasharray:none;stroke-dashoffset:0;stroke-opacity:1;marker:none;marker-start:none;marker-mid:none;marker-end:none;paint-order:normal"/>
      <path style="display:inline;fill:#f8fafb;fill-opacity:1;fill-rule:evenodd;stroke:none;stroke-width:0.46488729px;stroke-linecap:butt;stroke-linejoin:miter;stroke-opacity:1" d="m 76,77 -4,9 -3,-5 -2,2 1,1 1,-1 3,6 5.047245,-11 H 90 v 1 h 1 v -2 z m 5,3 -1,1 3,3 -3,3 1,1 3,-3 3,3 1,-1 -3,-3 3,-3 -1,-1 -3,3 z" id="path7855-2-1" inkscape:connector-curvature="0" sodipodi:nodetypes="cccccccccccccccccccccccccc" inkscape:label="formula"/>
      <path inkscape:label="sqrt" style="font-size:medium;line-height:1000%;font-family:sans-serif;letter-spacing:0px;word-spacing:0px;display:inline;fill:#fcfcfd;fill-opacity:1;stroke:none;stroke-width:0.21748798px;stroke-linecap:butt;stroke-linejoin:miter;stroke-opacity:1" d="m 82.010351,93.830275 c -0.282049,8e-6 -0.471199,0.04148 -0.567482,0.125299 -0.09515,0.08269 -0.142554,0.249955 -0.142554,0.500289 v 0.407693 c 0,0.168782 -0.0314,0.285691 -0.09262,0.351382 -0.06002,0.06455 -0.315641,0.258281 -0.33232,0.09716 h -0.103517 v 0.24243 h 0.103517 c 0.160852,0 0.271156,0.03329 0.33232,0.09898 0.06117,0.0657 0.09262,0.183966 0.09262,0.355015 v 0.40586 c 0,0.250347 0.04743,0.41739 0.142554,0.501216 0.09628,0.08383 0.537933,0.406703 0.567482,0.126206 h 0.105344 V 96.796654 H 82.00037 c -0.159714,0 -0.264537,-0.02456 -0.313251,-0.07446 -0.04865,-0.04987 -0.07264,-0.154443 -0.07264,-0.314158 v -0.421301 c 0,-0.176712 -0.02531,-0.305476 -0.07627,-0.385891 -0.05095,-0.08042 -0.139394,-0.135578 -0.265126,-0.16617 0.124595,-0.02828 0.212339,-0.08301 0.263312,-0.163436 0.05217,-0.08042 0.07809,-0.209863 0.07809,-0.387705 V 94.46223 c 0,-0.159721 0.02395,-0.264321 0.07264,-0.314171 0.04872,-0.0498 0.294953,0.08421 0.313251,-0.07445 h 0.115325 v -0.243337 z m 3.036306,0 v 0.243337 h 0.118945 c 0.158585,0 0.261134,0.02456 0.308711,0.07445 0.04872,0.04865 0.07355,0.15332 0.07355,0.314171 v 0.421302 c 0,0.177842 0.02531,0.307282 0.07627,0.387705 0.05095,0.08042 0.139394,0.13511 0.265133,0.163436 -0.125739,0.03059 -0.214159,0.08574 -0.265133,0.16617 -0.05095,0.08042 -0.07627,0.209179 -0.07627,0.385891 v 0.421301 c 0,0.161982 -0.02477,0.267265 -0.07355,0.315978 -0.04764,0.04865 -0.150126,0.07264 -0.308711,0.07264 h -0.118945 v 0.245151 h 0.107138 c 0.282063,0 0.469845,-0.04243 0.563855,-0.126206 0.09515,-0.08383 0.142554,-0.250869 0.142554,-0.501216 v -0.40586 c 0,-0.171049 0.03059,-0.289324 0.0917,-0.355015 0.06117,-0.06571 0.172381,-0.09898 0.333232,-0.09898 h 0.105331 V 95.3121 h -0.105331 c -0.160851,0 -0.272055,-0.03262 -0.333232,-0.09716 -0.06117,-0.06571 -0.0917,-0.1826 -0.0917,-0.351382 v -0.407693 c 0,-0.250334 -0.04743,-0.4176 -0.142554,-0.500289 -0.09401,-0.08383 -0.281792,-0.125294 -0.563855,-0.125299 z m -6.86163,0.200659 v 0.540247 h -0.228809 v 0.24243 h 0.228809 V 95.8469 c 0,0.23787 0.04622,0.402416 0.138014,0.493035 0.09176,0.08948 0.258109,0.13438 0.499382,0.13438 h 0.321432 v -0.261499 h -0.321432 c -0.130265,0 -0.216629,-0.02213 -0.259678,-0.06631 -0.04195,-0.04419 -0.06266,-0.144455 -0.06266,-0.299636 v -1.033288 h 0.643757 V 94.571147 H 78.500085 V 94.0309 Z m -4.846811,0.493942 c -0.233343,0 -0.414291,0.04872 -0.54116,0.146188 -0.126862,0.09742 -0.189772,0.235982 -0.189772,0.414948 0,0.14725 0.0429,0.263712 0.128939,0.348661 0.08609,0.08383 0.225785,0.145362 0.419488,0.186131 l 0.108958,0.02544 c 0.193703,0.04195 0.319273,0.08635 0.37591,0.131653 0.05779,0.04534 0.08625,0.110263 0.08625,0.195219 0,0.09176 -0.03965,0.163308 -0.118945,0.214281 -0.07928,0.04987 -0.19233,0.07446 -0.339586,0.07446 -0.109885,0 -0.221089,-0.01502 -0.333233,-0.04452 -0.112145,-0.03059 -0.225866,-0.07617 -0.341401,-0.1362 v 0.323239 c 0.122335,0.03965 0.238784,0.06882 0.348668,0.08808 0.111008,0.02043 0.216751,0.03086 0.318691,0.03086 0.244684,0 0.437244,-0.05129 0.576577,-0.154369 0.140463,-0.103077 0.210654,-0.242768 0.210654,-0.419488 0,-0.15518 -0.04764,-0.276189 -0.141647,-0.362275 -0.09289,-0.08723 -0.250124,-0.15491 -0.472153,-0.202487 l -0.107137,-0.02362 c -0.167652,-0.03742 -0.278633,-0.07635 -0.33414,-0.117131 -0.05549,-0.04195 -0.08353,-0.0991 -0.08353,-0.171604 0,-0.09515 0.0383,-0.166711 0.115318,-0.214288 0.07816,-0.04764 0.195294,-0.07083 0.350481,-0.07083 0.101948,0 0.199936,0.01096 0.295096,0.03356 0.09515,0.02267 0.186768,0.05643 0.275114,0.101697 v -0.295096 c -0.08609,-0.03397 -0.179534,-0.06016 -0.281474,-0.07718 -0.101954,-0.01698 -0.210431,-0.02544 -0.325966,-0.02544 z m 1.851383,0 c -0.229953,0 -0.417052,0.09253 -0.562042,0.276028 -0.143867,0.183499 -0.216108,0.424617 -0.216108,0.723658 0,0.299047 0.07224,0.540158 0.216108,0.723664 0.14499,0.183506 0.332089,0.275128 0.562042,0.275128 0.140456,0 0.260768,-0.02741 0.360462,-0.08172 0.10081,-0.05549 0.184,-0.14005 0.249691,-0.253332 v 1.009673 h 0.312351 v -2.626792 h -0.312351 v 0.288735 c -0.0657,-0.113268 -0.148881,-0.197134 -0.249691,-0.251505 -0.09969,-0.05549 -0.360462,0.05693 -0.360462,-0.08353 z m 2.509661,0 c -0.150661,0 -0.278734,0.02869 -0.384078,0.08535 -0.105344,0.05549 -0.190348,0.141424 -0.256059,0.256958 v -0.296002 h -0.314158 v 1.903134 h 0.314158 v -1.002412 c 0,-0.215215 0.04676,-0.380437 0.140747,-0.494842 0.09514,-0.115555 0.230975,-0.173437 0.407687,-0.173437 0.04987,0 0.09542,0.0054 0.136187,0.0155 0.04195,0.0091 0.0802,0.02409 0.115325,0.04452 l -0.002,-0.321425 c -0.03174,-0.0054 -0.06016,-0.0096 -0.08626,-0.01184 -0.02612,-0.0034 -0.05021,-0.0054 -0.07173,-0.0054 z m 5.015701,0.04628 0.67644,0.907069 -0.7391,0.996058 h 0.368643 l 0.553868,-0.748174 0.553868,0.748174 h 0.368636 L 83.773658,95.4973 84.461906,94.571156 H 84.09327 l -0.50483,0.678253 -0.50485,-0.678253 z m -7.449102,0.216101 c 0.165385,0 0.296186,0.06557 0.391346,0.197026 0.09515,0.130266 0.142547,0.310307 0.142547,0.540253 0,0.229953 -0.04743,0.410671 -0.142547,0.542067 -0.09516,0.130266 -0.225961,0.195213 -0.391346,0.195213 -0.165378,0 -0.295278,-0.06489 -0.390425,-0.195213 -0.09402,-0.131396 -0.14074,-0.312114 -0.14074,-0.542067 0,-0.229946 0.04676,-0.409987 0.14074,-0.540253 0.09515,-0.131396 0.225047,-0.197026 0.390425,-0.197026 z" id="path7912-0-7" inkscape:connector-curvature="0" sodipodi:nodetypes="scsscsccscsscsccscsscccsscsccsccscsscccsscsccscsscsccscsscsccccccscsccscsccccccccsccccscsccccscsccccscsccccccccscsccccccccscccccccscscccccccscccccccccccssscscscss"/>
      <path inkscape:label="base border" sodipodi:nodetypes="cccccccccccc" inkscape:connector-curvature="0" id="path8019-2" d="m 57,51 v 58 h 45 V 73 L 79.06299,51 Z m 1,1 H 79.06299 L 101,73 v 35 H 58 Z" style="color:#000000;font-style:normal;font-variant:normal;font-weight:normal;font-stretch:normal;font-size:medium;line-height:normal;font-family:sans-serif;font-variant-ligatures:normal;font-variant-position:normal;font-variant-caps:normal;font-variant-numeric:normal;font-variant-alternates:normal;font-feature-settings:normal;text-indent:0;text-align:start;text-decoration:none;text-decoration-line:none;text-decoration-style:solid;text-decoration-color:#000000;letter-spacing:normal;word-spacing:normal;text-transform:none;writing-mode:lr-tb;direction:ltr;text-orientation:mixed;dominant-baseline:auto;baseline-shift:baseline;text-anchor:start;white-space:normal;shape-padding:0;clip-rule:nonzero;display:inline;overflow:visible;visibility:visible;opacity:1;isolation:auto;mix-blend-mode:normal;color-interpolation:sRGB;color-interpolation-filters:linearRGB;solid-color:#000000;solid-opacity:1;vector-effect:none;fill:#ffffff;fill-opacity:0.23529412;fill-rule:evenodd;stroke:none;stroke-width:1;stroke-linecap:butt;stroke-linejoin:miter;stroke-miterlimit:4;stroke-dasharray:none;stroke-dashoffset:0;stroke-opacity:1;color-rendering:auto;image-rendering:auto;shape-rendering:auto;text-rendering:auto;enable-background:accumulate"/>
      <path style="color:#000000;font-style:normal;font-variant:normal;font-weight:normal;font-stretch:normal;font-size:medium;line-height:normal;font-family:sans-serif;font-variant-ligatures:normal;font-variant-position:normal;font-variant-caps:normal;font-variant-numeric:normal;font-variant-alternates:normal;font-feature-settings:normal;text-indent:0;text-align:start;text-decoration:none;text-decoration-line:none;text-decoration-style:solid;text-decoration-color:#000000;letter-spacing:normal;word-spacing:normal;text-transform:none;writing-mode:lr-tb;direction:ltr;text-orientation:mixed;dominant-baseline:auto;baseline-shift:baseline;text-anchor:start;white-space:normal;shape-padding:0;clip-rule:nonzero;display:inline;overflow:visible;visibility:visible;opacity:0.39800002;isolation:auto;mix-blend-mode:normal;color-interpolation:sRGB;color-interpolation-filters:linearRGB;solid-color:#000000;solid-opacity:1;vector-effect:none;fill:url(#linearGradient7937);fill-opacity:1;fill-rule:evenodd;stroke:none;stroke-width:1;stroke-linecap:butt;stroke-linejoin:miter;stroke-miterlimit:4;stroke-dasharray:none;stroke-dashoffset:0;stroke-opacity:1;color-rendering:auto;image-rendering:auto;shape-rendering:auto;text-rendering:auto;enable-background:accumulate" d="m 56,50 v 60 h 47 V 73 L 79,50 Z m 1,1 H 78.80315 L 102,73 v 36 H 57 Z" id="path7898" inkscape:connector-curvature="0" sodipodi:nodetypes="cccccccccccc" inkscape:label="base border"/>
    </g>
  </g>
</svg>