<?xml version="1.0" encoding="UTF-8" standalone="yes"?>
<svg xmlns:dc="http://purl.org/dc/elements/1.1/" xmlns:cc="http://creativecommons.org/ns#" xmlns:rdf="http://www.w3.org/1999/02/22-rdf-syntax-ns#" xmlns:svg="http://www.w3.org/2000/svg" xmlns="http://www.w3.org/2000/svg" xmlns:xlink="http://www.w3.org/1999/xlink" xmlns:sodipodi="http://sodipodi.sourceforge.net/DTD/sodipodi-0.dtd" xmlns:inkscape="http://www.inkscape.org/namespaces/inkscape" height="32" viewBox="0 0 32 32" width="32" id="svg2" version="1.1" inkscape:version="0.92.2 5c3e80d, 2017-08-06" sodipodi:docname="accessories-character-map.svg" enable-background="new" folder="32">
  <title id="title4675">Template icons dark</title>
  <metadata id="metadata24">
    <rdf:RDF>
      <cc:Work rdf:about="">
        <dc:format>image/svg+xml</dc:format>
        <dc:type rdf:resource="http://purl.org/dc/dcmitype/StillImage"/>
        <dc:title>Template icons dark</dc:title>
        <dc:date>17/05/13</dc:date>
        <dc:creator>
          <cc:Agent>
            <dc:title>wfpaisa</dc:title>
          </cc:Agent>
        </dc:creator>
        <dc:rights>
          <cc:Agent>
            <dc:title>License: GPLv3</dc:title>
          </cc:Agent>
        </dc:rights>
        <dc:language>es-en</dc:language>
        <dc:subject>
          <rdf:Bag>
            <rdf:li>plane-icon-theme</rdf:li>
          </rdf:Bag>
        </dc:subject>
        <dc:description>Template for create set icons</dc:description>
        <cc:license rdf:resource="https://www.gnu.org/licenses/gpl-3.0.en.html"/>
      </cc:Work>
    </rdf:RDF>
  </metadata>
  <defs id="defs22">
    <linearGradient id="linearGradient7762">
      <stop style="stop-color:#003783;stop-opacity:1" offset="0" id="stop7758"/>
      <stop style="stop-color:#69e5ff;stop-opacity:1" offset="1" id="stop7760"/>
    </linearGradient>
    <linearGradient inkscape:collect="always" xlink:href="#linearGradient7762" id="linearGradient7994" gradientUnits="userSpaceOnUse" x1="120" y1="120" x2="203.05511" y2="204"/>
    <linearGradient inkscape:collect="always" xlink:href="#linearGradient7762" id="linearGradient8343" gradientUnits="userSpaceOnUse" x1="120" y1="120" x2="203.05511" y2="204"/>
    <clipPath clipPathUnits="userSpaceOnUse" id="clipPath8339-4">
      <path inkscape:label="base para recorte" style="color:#000000;clip-rule:nonzero;display:inline;overflow:visible;visibility:visible;opacity:1;isolation:auto;mix-blend-mode:normal;color-interpolation:sRGB;color-interpolation-filters:linearRGB;solid-color:#000000;solid-opacity:1;vector-effect:none;fill:url(#linearGradient8343);fill-opacity:1;fill-rule:nonzero;stroke:none;stroke-width:1;stroke-linecap:butt;stroke-linejoin:miter;stroke-miterlimit:4;stroke-dasharray:none;stroke-dashoffset:0;stroke-opacity:0.43455499;marker:none;marker-start:none;marker-mid:none;marker-end:none;paint-order:fill markers stroke;color-rendering:auto;image-rendering:auto;shape-rendering:auto;text-rendering:auto;enable-background:accumulate" d="M 128.55273,116 C 121.5982,116 116,121.5982 116,128.55273 v 30.89454 c 0,0.0936 0.0117,0.18419 0.0137,0.27734 -0.005,0.0918 -0.009,0.18358 -0.0137,0.27539 2e-5,24.30052 19.69948,43.99998 44,44 24.30052,-2e-5 43.99998,-19.69948 44,-44 -2e-5,-24.30052 -19.69948,-43.99998 -44,-44 -0.10809,0.004 -0.21616,0.007 -0.32422,0.0117 C 159.59898,116.0107 159.52444,116 159.44727,116 Z M 130,122 c 4.41828,-1e-5 8.00001,3.58172 8,8 1e-5,4.41828 -3.58172,8.00001 -8,8 -4.41828,1e-5 -8.00001,-3.58172 -8,-8 -1e-5,-4.41828 3.58172,-8.00001 8,-8 z" id="path8341-7" inkscape:connector-curvature="0" sodipodi:nodetypes="sssccccccssccccc" sodipodi:insensitive="true"/>
    </clipPath>
  </defs>
  <sodipodi:namedview pagecolor="#383c4a" bordercolor="#ffffff" borderopacity="0.62745098" objecttolerance="4" gridtolerance="10" guidetolerance="4" inkscape:pageopacity="0" inkscape:pageshadow="2" inkscape:window-width="640" inkscape:window-height="480" id="namedview20" showgrid="true" inkscape:zoom="2.9402989" inkscape:cx="281.78867" inkscape:cy="-216.80815" inkscape:current-layer="layer6" inkscape:snap-smooth-nodes="false" showguides="true" borderlayer="true" inkscape:showpageshadow="false" inkscape:guide-bbox="true" guidecolor="#bd4fff" guideopacity="0.78431373" inkscape:snap-nodes="true" inkscape:lockguides="false" fit-margin-top="0" fit-margin-left="0" fit-margin-right="0" fit-margin-bottom="0" guidehicolor="#ff0101" guidehiopacity="0.78431373" inkscape:snap-page="true" inkscape:object-nodes="true" inkscape:snap-bbox="true" inkscape:snap-global="true" inkscape:snap-object-midpoints="false" inkscape:snap-bbox-edge-midpoints="false">
    <inkscape:grid type="xygrid" id="grid4171" empspacing="4" dotted="false" originx="2.7755576e-17" originy="0" spacingx="1" spacingy="1" color="#5a5a5a" opacity="0.23529412" empcolor="#5a5a5a" empopacity="0.47058824" visible="true"/>
    <inkscape:grid type="axonomgrid" id="grid4699" units="mm" empspacing="4" color="#5a5a5a" opacity="0.23529412" empcolor="#5a5a5a" empopacity="0.47058824" gridanglex="45" gridanglez="45" spacingy="3.7795276" visible="false" originx="1.3228346" originy="1.3228346"/>
    <sodipodi:guide position="48,0" orientation="1,0" id="guide4568" inkscape:locked="false" inkscape:label="" inkscape:color="rgb(189,79,255)"/>
    <sodipodi:guide position="111.99996,-3.9999999e-05" orientation="0,1" id="guide4570" inkscape:locked="false" inkscape:label="" inkscape:color="rgb(189,79,255)"/>
    <sodipodi:guide position="0,0" orientation="1,0" id="guide4572" inkscape:locked="false" inkscape:label="" inkscape:color="rgb(189,79,255)"/>
    <sodipodi:guide position="0,48" orientation="0,1" id="guide4574" inkscape:locked="false" inkscape:label="" inkscape:color="rgb(189,79,255)"/>
    <sodipodi:guide position="0,80" orientation="0,1" id="guide4576" inkscape:locked="false" inkscape:label="" inkscape:color="rgb(189,79,255)"/>
    <sodipodi:guide position="-32,48" orientation="1,0" id="guide4578" inkscape:locked="false" inkscape:label="" inkscape:color="rgb(189,79,255)"/>
    <sodipodi:guide position="-32,104" orientation="0,1" id="guide4580" inkscape:locked="false" inkscape:label="" inkscape:color="rgb(189,79,255)"/>
    <sodipodi:guide position="-56,80" orientation="1,0" id="guide4582" inkscape:locked="false" inkscape:label="" inkscape:color="rgb(189,79,255)"/>
    <sodipodi:guide position="48,-64" orientation="0,1" id="guide4584" inkscape:locked="false" inkscape:label="" inkscape:color="rgb(189,79,255)"/>
    <sodipodi:guide position="0,0" orientation="-0.70710678,0.70710678" id="guide4588" inkscape:locked="false" inkscape:label="" inkscape:color="rgb(189,79,255)"/>
    <sodipodi:guide position="-56,80" orientation="-0.70710678,0.70710678" id="guide4573" inkscape:locked="false" inkscape:label="" inkscape:color="rgb(189,79,255)"/>
    <sodipodi:guide position="-32,48" orientation="-0.70710678,0.70710678" id="guide4575" inkscape:locked="false" inkscape:label="" inkscape:color="rgb(189,79,255)"/>
    <sodipodi:guide position="48,-64" orientation="-0.70710678,0.70710678" id="guide4577" inkscape:locked="false" inkscape:label="" inkscape:color="rgb(189,79,255)"/>
    <sodipodi:guide position="160,-112.12599" orientation="0.70710678,0.70710678" id="guide4697" inkscape:locked="false" inkscape:label="" inkscape:color="rgb(189,79,255)"/>
    <sodipodi:guide position="207.99995,-288" orientation="0,1" id="guide7833" inkscape:locked="false"/>
    <sodipodi:guide position="335.99994,-288" orientation="1,0" id="guide7835" inkscape:locked="false" inkscape:label="" inkscape:color="rgb(189,79,255)"/>
    <sodipodi:guide position="111.99996,-64" orientation="1,0" id="guide7915" inkscape:locked="false"/>
    <sodipodi:guide position="111.99996,-160" orientation="0,1" id="guide7917" inkscape:locked="false"/>
    <sodipodi:guide position="207.99996,-160" orientation="1,0" id="guide7919" inkscape:locked="false"/>
    <sodipodi:guide position="111.99996,-160" orientation="-0.70710678,0.70710678" id="guide7921" inkscape:locked="false" inkscape:label="" inkscape:color="rgb(189,79,255)"/>
    <sodipodi:guide position="207.99996,-288" orientation="-0.70710678,0.70710678" id="guide7923" inkscape:locked="false" inkscape:label="" inkscape:color="rgb(189,79,255)"/>
    <sodipodi:guide position="-72,104" orientation="1,0" id="guide7824" inkscape:locked="false"/>
    <sodipodi:guide position="-56,120" orientation="0,1" id="guide7826" inkscape:locked="false"/>
    <sodipodi:guide position="-72,104" orientation="-0.70710678,0.70710678" id="guide7828" inkscape:locked="false" inkscape:label="" inkscape:color="rgb(189,79,255)"/>
  </sodipodi:namedview>
  <g style="display:inline" inkscape:label="icon_32" id="g7816" inkscape:groupmode="layer" transform="translate(32,32)">
    <g style="display:none" inkscape:label="frame" id="g7802" inkscape:groupmode="layer">
      <rect style="color:#000000;clip-rule:nonzero;display:block;overflow:visible;visibility:visible;opacity:1;isolation:auto;mix-blend-mode:normal;color-interpolation:sRGB;color-interpolation-filters:linearRGB;solid-color:#000000;solid-opacity:1;vector-effect:none;fill:#000000;fill-opacity:1;fill-rule:nonzero;stroke:#ff24f7;stroke-width:0;stroke-linecap:square;stroke-linejoin:miter;stroke-miterlimit:4;stroke-dasharray:none;stroke-dashoffset:0;stroke-opacity:0.99481865;marker:none;marker-start:none;marker-mid:none;marker-end:none;paint-order:normal;color-rendering:auto;image-rendering:auto;shape-rendering:auto;text-rendering:auto;enable-background:accumulate" id="rect7792" width="32" height="32" x="-32" y="-32" inkscape:label="frame_32"/>
      <text inkscape:label="txt_32" id="text7796" y="-11.470053" x="-23.799042" style="font-size:12.4444437px;line-height:1000%;font-family:sans-serif;letter-spacing:0px;word-spacing:0px;display:inline;opacity:1;fill:#ffffff;fill-opacity:1;stroke:none;stroke-width:0.07444605px;stroke-linecap:butt;stroke-linejoin:miter;stroke-opacity:1" xml:space="preserve">
        <tspan id="tspan7794" style="font-size:12.4444437px;fill:#ffffff;fill-opacity:1;stroke:none;stroke-width:0.07444605px" y="-11.470053" x="-23.799042" sodipodi:role="line">32</tspan>
      </text>
    </g>
    <g style="display:inline" inkscape:label="icon" id="g7814" inkscape:groupmode="layer">
      <path style="color:#000000;clip-rule:nonzero;display:block;overflow:visible;visibility:visible;opacity:1;isolation:auto;mix-blend-mode:normal;color-interpolation:sRGB;color-interpolation-filters:linearRGB;solid-color:#000000;solid-opacity:1;vector-effect:none;fill:#000000;fill-opacity:0.14136125;fill-rule:nonzero;stroke:none;stroke-width:0.89150888;stroke-linecap:butt;stroke-linejoin:miter;stroke-miterlimit:4;stroke-dasharray:none;stroke-dashoffset:0;stroke-opacity:0.07853406;marker:none;marker-start:none;marker-mid:none;marker-end:none;paint-order:fill markers stroke;color-rendering:auto;image-rendering:auto;shape-rendering:auto;text-rendering:auto;enable-background:accumulate" d="M -29.999999,-30 H -1 v 29 h -29 z" id="rect7865-6-5-8" inkscape:connector-curvature="0" sodipodi:nodetypes="ccccc"/>
      <path style="color:#000000;clip-rule:nonzero;display:block;overflow:visible;visibility:visible;opacity:1;isolation:auto;mix-blend-mode:normal;color-interpolation:sRGB;color-interpolation-filters:linearRGB;solid-color:#000000;solid-opacity:1;vector-effect:none;fill:#a3acc3;fill-opacity:1;fill-rule:nonzero;stroke:none;stroke-width:0.75;stroke-linecap:butt;stroke-linejoin:miter;stroke-miterlimit:4;stroke-dasharray:none;stroke-dashoffset:0;stroke-opacity:0.07853406;marker:none;marker-start:none;marker-mid:none;marker-end:none;paint-order:fill markers stroke;color-rendering:auto;image-rendering:auto;shape-rendering:auto;text-rendering:auto;enable-background:accumulate" d="M -29.002666,-29.002666 H -2 V -2 h -27.002666 z" id="rect7904-2-9-6" inkscape:connector-curvature="0" sodipodi:nodetypes="ccccc"/>
      <path style="color:#000000;clip-rule:nonzero;display:block;overflow:visible;visibility:visible;opacity:1;isolation:auto;mix-blend-mode:normal;color-interpolation:sRGB;color-interpolation-filters:linearRGB;solid-color:#000000;solid-opacity:1;vector-effect:none;fill:#79859c;fill-opacity:1;fill-rule:nonzero;stroke:none;stroke-width:0.75;stroke-linecap:butt;stroke-linejoin:miter;stroke-miterlimit:4;stroke-dasharray:none;stroke-dashoffset:0;stroke-opacity:0.07853406;marker:none;marker-start:none;marker-mid:none;marker-end:none;paint-order:fill markers stroke;color-rendering:auto;image-rendering:auto;shape-rendering:auto;text-rendering:auto;enable-background:accumulate" d="m -20,-20 h 9 v 9 h -9 z" id="rect7819-9-2-8" inkscape:connector-curvature="0" sodipodi:nodetypes="ccccc"/>
      <path style="color:#000000;clip-rule:nonzero;display:block;overflow:visible;visibility:visible;opacity:1;isolation:auto;mix-blend-mode:normal;color-interpolation:sRGB;color-interpolation-filters:linearRGB;solid-color:#000000;solid-opacity:1;vector-effect:none;fill:#696e82;fill-opacity:1;fill-rule:nonzero;stroke:none;stroke-width:0.75;stroke-linecap:butt;stroke-linejoin:miter;stroke-miterlimit:4;stroke-dasharray:none;stroke-dashoffset:0;stroke-opacity:0.07853406;marker:none;marker-start:none;marker-mid:none;marker-end:none;paint-order:fill markers stroke;color-rendering:auto;image-rendering:auto;shape-rendering:auto;text-rendering:auto;enable-background:accumulate" d="m -20,-29 h 9 v 9 h -9 z" id="rect7838-1-2-8" inkscape:connector-curvature="0" sodipodi:nodetypes="ccccc"/>
      <path style="color:#000000;clip-rule:nonzero;display:block;overflow:visible;visibility:visible;opacity:1;isolation:auto;mix-blend-mode:normal;color-interpolation:sRGB;color-interpolation-filters:linearRGB;solid-color:#000000;solid-opacity:1;vector-effect:none;fill:#565a68;fill-opacity:1;fill-rule:nonzero;stroke:none;stroke-width:0.75;stroke-linecap:butt;stroke-linejoin:miter;stroke-miterlimit:4;stroke-dasharray:none;stroke-dashoffset:0;stroke-opacity:0.07853406;marker:none;marker-start:none;marker-mid:none;marker-end:none;paint-order:fill markers stroke;color-rendering:auto;image-rendering:auto;shape-rendering:auto;text-rendering:auto;enable-background:accumulate" d="m -29,-29 h 9 v 9 h -9 z" id="rect7840-2-8-4" inkscape:connector-curvature="0" sodipodi:nodetypes="ccccc"/>
      <path style="color:#000000;clip-rule:nonzero;display:block;overflow:visible;visibility:visible;opacity:1;isolation:auto;mix-blend-mode:normal;color-interpolation:sRGB;color-interpolation-filters:linearRGB;solid-color:#000000;solid-opacity:1;vector-effect:none;fill:#777a8b;fill-opacity:1;fill-rule:nonzero;stroke:none;stroke-width:0.75;stroke-linecap:butt;stroke-linejoin:miter;stroke-miterlimit:4;stroke-dasharray:none;stroke-dashoffset:0;stroke-opacity:0.07853406;marker:none;marker-start:none;marker-mid:none;marker-end:none;paint-order:fill markers stroke;color-rendering:auto;image-rendering:auto;shape-rendering:auto;text-rendering:auto;enable-background:accumulate" d="m -29,-20 h 9 v 9 h -9 z" id="rect7842-7-9-3" inkscape:connector-curvature="0" sodipodi:nodetypes="ccccc"/>
      <path style="color:#000000;clip-rule:nonzero;display:block;overflow:visible;visibility:visible;opacity:1;isolation:auto;mix-blend-mode:normal;color-interpolation:sRGB;color-interpolation-filters:linearRGB;solid-color:#000000;solid-opacity:1;vector-effect:none;fill:#8d98b6;fill-opacity:1;fill-rule:nonzero;stroke:none;stroke-width:0.75;stroke-linecap:butt;stroke-linejoin:miter;stroke-miterlimit:4;stroke-dasharray:none;stroke-dashoffset:0;stroke-opacity:0.07853406;marker:none;marker-start:none;marker-mid:none;marker-end:none;paint-order:fill markers stroke;color-rendering:auto;image-rendering:auto;shape-rendering:auto;text-rendering:auto;enable-background:accumulate" d="m -11,-20 h 8.9973339 v 9 H -11 Z" id="rect7844-0-7-1" inkscape:connector-curvature="0" sodipodi:nodetypes="ccccc"/>
      <path style="color:#000000;clip-rule:nonzero;display:block;overflow:visible;visibility:visible;opacity:1;isolation:auto;mix-blend-mode:normal;color-interpolation:sRGB;color-interpolation-filters:linearRGB;solid-color:#000000;solid-opacity:1;vector-effect:none;fill:#7a8399;fill-opacity:1;fill-rule:nonzero;stroke:none;stroke-width:0.75;stroke-linecap:butt;stroke-linejoin:miter;stroke-miterlimit:4;stroke-dasharray:none;stroke-dashoffset:0;stroke-opacity:0.07853406;marker:none;marker-start:none;marker-mid:none;marker-end:none;paint-order:fill markers stroke;color-rendering:auto;image-rendering:auto;shape-rendering:auto;text-rendering:auto;enable-background:accumulate" d="m -11,-29 h 8.9973339 v 9 H -11 Z" id="rect7846-9-3-4" inkscape:connector-curvature="0" sodipodi:nodetypes="ccccc"/>
      <path style="color:#000000;clip-rule:nonzero;display:block;overflow:visible;visibility:visible;opacity:1;isolation:auto;mix-blend-mode:normal;color-interpolation:sRGB;color-interpolation-filters:linearRGB;solid-color:#000000;solid-opacity:1;vector-effect:none;fill:#9098b0;fill-opacity:1;fill-rule:nonzero;stroke:none;stroke-width:0.75;stroke-linecap:butt;stroke-linejoin:miter;stroke-miterlimit:4;stroke-dasharray:none;stroke-dashoffset:0;stroke-opacity:0.07853406;marker:none;marker-start:none;marker-mid:none;marker-end:none;paint-order:fill markers stroke;color-rendering:auto;image-rendering:auto;shape-rendering:auto;text-rendering:auto;enable-background:accumulate" d="m -20,-11 h 9 v 8.9973339 h -9 z" id="rect7848-3-6-9" inkscape:connector-curvature="0" sodipodi:nodetypes="ccccc"/>
      <path style="color:#000000;clip-rule:nonzero;display:block;overflow:visible;visibility:visible;opacity:1;isolation:auto;mix-blend-mode:normal;color-interpolation:sRGB;color-interpolation-filters:linearRGB;solid-color:#000000;solid-opacity:1;vector-effect:none;fill:#818da2;fill-opacity:1;fill-rule:nonzero;stroke:none;stroke-width:0.75;stroke-linecap:butt;stroke-linejoin:miter;stroke-miterlimit:4;stroke-dasharray:none;stroke-dashoffset:0;stroke-opacity:0.07853406;marker:none;marker-start:none;marker-mid:none;marker-end:none;paint-order:fill markers stroke;color-rendering:auto;image-rendering:auto;shape-rendering:auto;text-rendering:auto;enable-background:accumulate" d="m -29,-11 h 9 v 8.9973339 h -9 z" id="rect7850-6-1-2" inkscape:connector-curvature="0" sodipodi:nodetypes="ccccc"/>
      <path style="color:#000000;clip-rule:nonzero;display:block;overflow:visible;visibility:visible;opacity:1;isolation:auto;mix-blend-mode:normal;color-interpolation:sRGB;color-interpolation-filters:linearRGB;solid-color:#000000;solid-opacity:1;vector-effect:none;fill:#ffffff;fill-opacity:0.25654452;fill-rule:nonzero;stroke:none;stroke-width:0.09955257;stroke-linecap:butt;stroke-linejoin:miter;stroke-miterlimit:4;stroke-dasharray:none;stroke-dashoffset:0;stroke-opacity:0.07853406;marker:none;marker-start:none;marker-mid:none;marker-end:none;paint-order:fill markers stroke;color-rendering:auto;image-rendering:auto;shape-rendering:auto;text-rendering:auto;enable-background:accumulate" d="m -29,-3 h 27.0026661 v 0.9973401 H -29 Z" id="rect7902-0-2-0" inkscape:connector-curvature="0" sodipodi:nodetypes="ccccc"/>
      <path style="font-size:medium;line-height:1000%;font-family:sans-serif;letter-spacing:0px;word-spacing:0px;display:inline;fill:#fefefe;fill-opacity:1;stroke:none;stroke-width:0.48976725px;stroke-linecap:butt;stroke-linejoin:miter;stroke-opacity:1" d="m -6.3345226,-27.185447 c -0.8647444,0 -1.5456016,0.264994 -2.0430194,0.795574 -0.497419,0.528031 -0.746475,1.251373 -0.746475,2.169688 0,0.915762 0.249056,1.639106 0.746475,2.169686 0.4974178,0.52803 1.178275,0.792019 2.0430194,0.792019 0.3367178,0 0.6553971,-0.04622 0.9563984,-0.138054 0.3035553,-0.09183 0.5906534,-0.229779 0.8610426,-0.413441 v -0.806963 c -0.2601876,0.242331 -0.5381006,0.423067 -0.8340012,0.542958 -0.2933501,0.11989 -0.6055731,0.180036 -0.9371829,0.180036 -0.6530251,0 -1.1531467,-0.199102 -1.5000661,-0.597041 -0.3469192,-0.400485 -0.5201862,-0.976696 -0.5201862,-1.7292 0,-0.755059 0.173267,-1.331267 0.5201862,-1.729201 0.3469194,-0.400489 0.847041,-0.601307 1.5000661,-0.601307 0.3316098,0 0.6438328,0.06014 0.9371829,0.180036 0.2959006,0.11989 0.5738136,0.301332 0.8340012,0.543667 v -0.815504 c -0.2652884,-0.18111 -0.5496612,-0.316332 -0.8532129,-0.405614 -0.301005,-0.09183 -0.6224095,-0.137339 -0.9642281,-0.137339 z m -18.0833274,0.103182 -2.181073,5.712773 h 0.8155 l 0.520185,-1.465909 h 2.574589 l 0.520896,1.465909 h 0.803404 l -2.177514,-5.712773 z m 7.271188,0 v 5.712773 h 2.05085 c 0.640265,0 1.13393,-0.138957 1.48085,-0.417001 0.34692,-0.278044 0.520187,-0.672514 0.520187,-1.182691 0,-0.387733 -0.105656,-0.710143 -0.317379,-0.967781 -0.209172,-0.26019 -0.503736,-0.431443 -0.883815,-0.513069 0.316308,-0.05102 0.556177,-0.179782 0.719434,-0.386404 0.163254,-0.206619 0.244791,-0.484532 0.244791,-0.834001 0,-0.4515 -0.159341,-0.799753 -0.478199,-1.044635 -0.318858,-0.244885 -0.773473,-0.367191 -1.362724,-0.367191 z m 0.772806,0.635464 h 1.144261 c 0.377528,0 0.658165,0.07135 0.841831,0.214193 0.186215,0.142851 0.278947,0.357889 0.278947,0.646139 0,0.290799 -0.09273,0.507558 -0.278947,0.650409 -0.183666,0.140298 -0.464303,0.210634 -0.841831,0.210634 h -1.144261 z m -7.607778,0.125957 1.052464,2.842863 h -2.100662 z m 7.607778,2.223055 h 1.239617 c 0.41579,0 0.723274,0.08527 0.922241,0.256176 0.201521,0.168359 0.302433,0.431342 0.302433,0.788463 0,0.354571 -0.100912,0.618554 -0.302433,0.792014 -0.198967,0.170909 -0.506451,0.25618 -0.922241,0.25618 h -1.239617 z m -8.043994,7.083327 c -0.22958,0 -0.465713,0.02583 -0.708048,0.07686 -0.242332,0.04846 -0.492394,0.122536 -0.750032,0.222023 v 0.650405 c 0.21427,-0.117339 0.437491,-0.205335 0.669621,-0.264005 0.232129,-0.05867 0.470989,-0.08823 0.715875,-0.08823 0.385178,0 0.683477,0.08971 0.895199,0.268276 0.214273,0.17601 0.321649,0.425363 0.321649,0.749321 v 0.06903 h -0.987 c -0.64027,0 -1.122735,0.122302 -1.446694,0.367187 -0.321411,0.244886 -0.481758,0.60878 -0.481758,1.090892 0,0.413241 0.128766,0.743834 0.386403,0.991266 0.260188,0.244886 0.609446,0.367192 1.048194,0.367192 0.346919,0 0.640478,-0.06115 0.880258,-0.183596 0.239781,-0.124995 0.439892,-0.317633 0.600597,-0.577825 v 0.650409 h 0.703778 v -2.445079 c 0,-0.653021 -0.152886,-1.14023 -0.458988,-1.461638 -0.306106,-0.321408 -0.769196,-0.482466 -1.389054,-0.482466 z m 0.444042,2.235151 h 0.700222 v 0.156555 c 0,0.459155 -0.118575,0.827789 -0.355806,1.105833 -0.23468,0.275494 -0.547614,0.413445 -0.937897,0.413445 -0.283145,0 -0.507372,-0.07307 -0.673177,-0.218463 -0.163258,-0.147953 -0.244795,-0.347051 -0.244795,-0.597037 0,-0.313757 0.109387,-0.535259 0.328765,-0.665351 0.219374,-0.130095 0.613844,-0.194982 1.182688,-0.194982 z m -0.675316,5.643749 c -0.162464,0 -0.293146,0.05577 -0.39138,0.1672259 -0.09635,0.1114596 -0.144458,0.2624903 -0.144458,0.4532927 h 0.354381 v -0.017087 c 0,-0.085012 0.01843,-0.1513077 0.05621,-0.1985373 0.03778,-0.047226 0.09067,-0.070449 0.158689,-0.070449 0.02266,0 0.04852,0.00502 0.07686,0.016359 0.03024,0.00944 0.06875,0.027654 0.115992,0.054079 l 0.161536,0.093934 c 0.09823,0.051008 0.175062,0.083802 0.229848,0.098912 0.05667,0.01512 0.117227,0.022772 0.181457,0.022772 0.158689,0 0.285787,-0.055767 0.382133,-0.1672258 0.09823,-0.1133468 0.149205,-0.2643776 0.152994,-0.4532925 h -0.353667 v 0.01709 c 0,0.07746 -0.01913,0.1401696 -0.05693,0.1892867 -0.03778,0.047229 -0.08685,0.07116 -0.147303,0.07116 -0.02835,0 -0.05897,-0.00572 -0.09109,-0.017087 -0.0321,-0.011331 -0.06969,-0.029511 -0.113143,-0.054083 l -0.161534,-0.084679 c -0.09068,-0.05101 -0.164883,-0.08381 -0.223444,-0.09891 -0.05667,-0.01512 -0.119144,-0.02277 -0.187155,-0.02277 z m 0.121686,0.7478963 -0.59775,0.7535908 h 0.393518 l 0.470373,-0.5045301 0.470371,0.5045301 h 0.394228 l -0.597747,-0.7535908 z m 0.291758,1.0795059 c -0.476067,0 -0.854954,0.1529472 -1.136434,0.4589874 -0.279592,0.3041529 -0.419135,0.7165409 -0.419135,1.2360565 0,0.5025154 0.147201,0.9007887 0.441907,1.1954979 0.296596,0.2947091 0.698459,0.441907 1.204749,0.441907 0.20214,0 0.401279,-0.02033 0.59775,-0.061909 0.196472,-0.041561 0.387952,-0.1021142 0.574976,-0.181457 v -0.4931444 c -0.185134,0.098238 -0.371829,0.1714813 -0.560744,0.2205983 -0.187025,0.049117 -0.381135,0.074005 -0.581385,0.074005 -0.345714,0 -0.615936,-0.093344 -0.810519,-0.2803723 -0.192698,-0.1889115 -0.300404,-0.462966 -0.323067,-0.821905 h 2.397398 v -0.2547554 c 0,-0.4722858 -0.124226,-0.8454269 -0.373594,-1.119354 -0.247479,-0.2758144 -0.584954,-0.4141551 -1.011902,-0.414155 z m 0.0057,0.4419071 c 0.256924,0 0.462763,0.085441 0.617674,0.2554657 0.156787,0.170024 0.237445,0.3971695 0.241234,0.6824312 l -1.859427,0.00292 c 0.02645,-0.2984838 0.126496,-0.5294585 0.300297,-0.6938169 0.17569,-0.1643512 0.409291,-0.2469256 0.700222,-0.2469256 z" id="path1054-5" inkscape:connector-curvature="0"/>
    </g>
  </g>
</svg>