<?xml version="1.0" encoding="UTF-8" standalone="yes"?>
<svg xmlns:dc="http://purl.org/dc/elements/1.1/" xmlns:cc="http://creativecommons.org/ns#" xmlns:rdf="http://www.w3.org/1999/02/22-rdf-syntax-ns#" xmlns:svg="http://www.w3.org/2000/svg" xmlns="http://www.w3.org/2000/svg" xmlns:xlink="http://www.w3.org/1999/xlink" xmlns:sodipodi="http://sodipodi.sourceforge.net/DTD/sodipodi-0.dtd" xmlns:inkscape="http://www.inkscape.org/namespaces/inkscape" height="32" viewBox="0 0 32 32" width="32" id="svg2" version="1.1" inkscape:version="0.92.2 5c3e80d, 2017-08-06" sodipodi:docname="gnome-disks.svg" enable-background="new" folder="32">
  <title id="title4675">Template icons dark</title>
  <metadata id="metadata24">
    <rdf:RDF>
      <cc:Work rdf:about="">
        <dc:format>image/svg+xml</dc:format>
        <dc:type rdf:resource="http://purl.org/dc/dcmitype/StillImage"/>
        <dc:title>Template icons dark</dc:title>
        <dc:date>17/05/13</dc:date>
        <dc:creator>
          <cc:Agent>
            <dc:title>wfpaisa</dc:title>
          </cc:Agent>
        </dc:creator>
        <dc:rights>
          <cc:Agent>
            <dc:title>License: GPLv3</dc:title>
          </cc:Agent>
        </dc:rights>
        <dc:language>es-en</dc:language>
        <dc:subject>
          <rdf:Bag>
            <rdf:li>plane-icon-theme</rdf:li>
          </rdf:Bag>
        </dc:subject>
        <dc:description>Template for create set icons</dc:description>
        <cc:license rdf:resource="https://www.gnu.org/licenses/gpl-3.0.en.html"/>
      </cc:Work>
    </rdf:RDF>
  </metadata>
  <defs id="defs22">
    <linearGradient inkscape:collect="always" id="linearGradient1756">
      <stop id="stop1754" offset="0" style="stop-color:#2aa591;stop-opacity:1"/>
      <stop id="stop1752" offset="1" style="stop-color:#2498e4;stop-opacity:1"/>
    </linearGradient>
    <linearGradient inkscape:collect="always" id="linearGradient1484">
      <stop id="stop1482" offset="0" style="stop-color:#eeda60;stop-opacity:1"/>
      <stop id="stop1480" offset="1" style="stop-color:#db9918;stop-opacity:1"/>
    </linearGradient>
    <linearGradient inkscape:collect="always" id="linearGradient982">
      <stop style="stop-color:#2a0ff3;stop-opacity:0.13186814" offset="0" id="stop978"/>
      <stop id="stop986" offset="0.52090698" style="stop-color:#3bf963;stop-opacity:0.2912088"/>
      <stop style="stop-color:#ef4cff;stop-opacity:0.29670331" offset="1" id="stop980"/>
    </linearGradient>
    <linearGradient gradientTransform="matrix(2.0982376,0,0,2.0982376,109.7053,109.70531)" inkscape:collect="always" xlink:href="#linearGradient8023" id="linearGradient8025-5" x1="9.1956701" y1="4.4297605" x2="37.228348" y2="43.999989" gradientUnits="userSpaceOnUse"/>
    <linearGradient inkscape:collect="always" id="linearGradient8023">
      <stop style="stop-color:#e1e3e7;stop-opacity:1;" offset="0" id="stop8019"/>
      <stop id="stop8031" offset="0.21010877" style="stop-color:#dee1e4;stop-opacity:1"/>
      <stop id="stop8029" offset="0.37979186" style="stop-color:#f1f2f3;stop-opacity:1"/>
      <stop id="stop8027" offset="0.66977036" style="stop-color:#c2c6cd;stop-opacity:1"/>
      <stop style="stop-color:#d7dadf;stop-opacity:1" offset="1" id="stop8021"/>
    </linearGradient>
    <linearGradient inkscape:collect="always" xlink:href="#linearGradient982" id="linearGradient984" x1="152.50394" y1="152.50398" x2="170" y2="165.24409" gradientUnits="userSpaceOnUse"/>
    <linearGradient id="linearGradient4990" y2="37.585999" xlink:href="#linearGradient5443" gradientUnits="userSpaceOnUse" x2="56.446999" gradientTransform="matrix(1.3532738,0,0,2.8052028,-351.70079,-26.644638)" y1="37.500999" x1="58.548"/>
    <linearGradient id="linearGradient5443">
      <stop id="stop5445" style="stop-color:#fff" offset="0"/>
      <stop id="stop5447" style="stop-color:#fff;stop-opacity:0" offset="1"/>
    </linearGradient>
    <linearGradient id="linearGradient4993" y2="40.376999" xlink:href="#linearGradient6221" gradientUnits="userSpaceOnUse" x2="-10.048" gradientTransform="matrix(0.67492692,0,0,1.8985156,-271.52458,3.7128013)" y1="40.389999" x1="-5.9351001"/>
    <linearGradient id="linearGradient6221">
      <stop id="stop6223" offset="0"/>
      <stop id="stop6225" style="stop-opacity:0" offset="1"/>
    </linearGradient>
    <linearGradient id="linearGradient4996" y2="36.911999" xlink:href="#linearGradient6221" gradientUnits="userSpaceOnUse" x2="-7.0093002" gradientTransform="matrix(0.7873129,0,0,1.9040247,-273.45231,2.8440928)" y1="36.902" x1="-10.535"/>
    <linearGradient id="linearGradient5007" y2="40.949001" gradientUnits="userSpaceOnUse" x2="-10.566" gradientTransform="matrix(1.0786984,-3.6953302e-8,0,2.1496436,-268.32208,-11.242527)" y1="40.972" x1="-2.1966">
      <stop id="stop4101" style="stop-color:#edd563" offset="0"/>
      <stop id="stop4103" style="stop-color:#e08223" offset="1"/>
    </linearGradient>
    <linearGradient id="linearGradient5009" y2="12.324" gradientUnits="userSpaceOnUse" x2="-36.083" gradientTransform="matrix(1.3365968,0,0,1.3365964,-222.20261,61.68125)" y1="7.7140002" x1="-45.569">
      <stop id="stop4095" style="stop-color:#bb5e12" offset="0"/>
      <stop id="stop4097" style="stop-color:#cd8033" offset="1"/>
    </linearGradient>
    <linearGradient id="linearGradient4987" y2="12.585" xlink:href="#linearGradient5443" gradientUnits="userSpaceOnUse" x2="54.721001" gradientTransform="matrix(-0.90023191,-0.90120345,0.90023191,-0.90120345,264.01385,226.8237)" y1="1" x1="54.764999"/>
    <linearGradient id="linearGradient4999" y2="22.476" xlink:href="#linearGradient7381" gradientUnits="userSpaceOnUse" x2="27.368" gradientTransform="matrix(-1.2816435,0,0,-1.2744797,265.2003,187.82583)" y1="20.761999" x1="25.572001"/>
    <linearGradient id="linearGradient7381">
      <stop id="stop7383" style="stop-color:#babdb6" offset="0"/>
      <stop id="stop7385" style="stop-color:#fff" offset="1"/>
    </linearGradient>
    <linearGradient id="linearGradient5001" y2="26.885" xlink:href="#linearGradient7444" gradientUnits="userSpaceOnUse" x2="31.089001" gradientTransform="matrix(1.2871391,0,0,1.2855689,202.6192,114.39453)" y1="35.624001" x1="22.375999"/>
    <linearGradient id="linearGradient7444">
      <stop id="stop7446" style="stop-color:#888a85" offset="0"/>
      <stop id="stop7448" style="stop-color:#555753" offset="1"/>
    </linearGradient>
    <linearGradient id="linearGradient4665" y2="44.139999" xlink:href="#linearGradient6221" gradientUnits="userSpaceOnUse" x2="-9.7747002" gradientTransform="matrix(0.61987975,-0.61783854,1.0518113,1.0483766,214.49493,117.87925)" y1="44.229" x1="-6.3077998"/>
    <linearGradient id="linearGradient4668" y2="35.078999" gradientUnits="userSpaceOnUse" x2="90.221001" gradientTransform="matrix(1.0190342,-1.0166789,0.89134088,0.88922116,125.32342,229.85475)" y1="35.152" x1="97.442001">
      <stop id="stop4958" style="stop-color:#f8b17e" offset="0"/>
      <stop id="stop4960" style="stop-color:#e35d4f" offset=".26238"/>
      <stop id="stop4962" style="stop-color:#c6262e" offset=".66347"/>
      <stop id="stop4964" style="stop-color:#690b54" offset="1"/>
    </linearGradient>
    <linearGradient id="linearGradient4972" y2="27.273001" gradientUnits="userSpaceOnUse" x2="36.000999" gradientTransform="matrix(1.2386604,0,0,1.2365014,214.63268,129.02003)" y1="34.022999" x1="29.278">
      <stop id="stop2492" style="stop-color:#791235" offset="0"/>
      <stop id="stop2494" style="stop-color:#dd3b27" offset="1"/>
    </linearGradient>
    <linearGradient id="linearGradient2919" y2="88.005997" gradientUnits="userSpaceOnUse" x2="317.16" gradientTransform="matrix(1.7051943,0,0,1.6957734,-290.5964,44.367767)" y1="75.574997" x1="326.60001">
      <stop id="stop7423" style="stop-color:#fff" offset="0"/>
      <stop id="stop7425" style="stop-color:#fff;stop-opacity:0" offset="1"/>
    </linearGradient>
    <linearGradient id="linearGradient4734" y2="60.768002" xlink:href="#linearGradient7381" gradientUnits="userSpaceOnUse" x2="308.64999" gradientTransform="matrix(1.7051943,0,0,1.6957734,-290.5964,44.367767)" y1="58.443001" x1="302.29001"/>
    <linearGradient id="linearGradient2907" y2="81.926003" gradientUnits="userSpaceOnUse" x2="335.29999" gradientTransform="matrix(1.7051943,0,0,1.6957734,-290.5964,44.367767)" y1="64.294998" x1="304.76001">
      <stop id="stop4436" style="stop-color:#d3d7cf" offset="0"/>
      <stop id="stop4438" style="stop-color:#babdb6" offset=".18304"/>
      <stop id="stop4440" style="stop-color:#fff" offset=".31893"/>
      <stop id="stop4442" style="stop-color:#babdb6" offset=".87644"/>
      <stop id="stop4444" style="stop-color:#eeeeec" offset="1"/>
    </linearGradient>
    <linearGradient id="linearGradient2909" y2="99.274002" xlink:href="#linearGradient7444" gradientUnits="userSpaceOnUse" x2="330.06" gradientTransform="matrix(1.7051943,0,0,1.6957734,-290.5964,44.367767)" y1="70.281998" x1="324.5"/>
    <linearGradient inkscape:collect="always" xlink:href="#linearGradient1484" id="linearGradient1486" x1="160.06299" y1="200" x2="160" y2="196.53442" gradientUnits="userSpaceOnUse"/>
    <linearGradient gradientTransform="matrix(2.8612458,0,0,2.8612458,203.44353,204.4619)" inkscape:collect="always" xlink:href="#linearGradient8023" id="linearGradient8025-5-9" x1="9.1956701" y1="4.4297605" x2="37.228348" y2="43.999989" gradientUnits="userSpaceOnUse"/>
    <linearGradient gradientTransform="matrix(1.3636424,0,0,1.3636424,53.844724,54.863094)" inkscape:collect="always" xlink:href="#linearGradient1484" id="linearGradient1486-3" x1="160.06299" y1="200" x2="160" y2="196.53442" gradientUnits="userSpaceOnUse"/>
    <linearGradient inkscape:collect="always" xlink:href="#linearGradient1756" id="linearGradient1758" x1="157" y1="190" x2="176" y2="190" gradientUnits="userSpaceOnUse" gradientTransform="translate(0,-64.882359)"/>
    <linearGradient inkscape:collect="always" xlink:href="#linearGradient8023" id="linearGradient8025" x1="9" y1="3.99999" x2="37.228348" y2="43.999989" gradientUnits="userSpaceOnUse"/>
    <linearGradient inkscape:collect="always" xlink:href="#linearGradient8023" id="linearGradient8081-1" gradientUnits="userSpaceOnUse" x1="9.5855684" y1="4.484941" x2="37.77005" y2="43.886402" gradientTransform="matrix(0.66666642,0,0,0.66666642,-59.833331,-59.999993)"/>
    <linearGradient inkscape:collect="always" xlink:href="#linearGradient8023" id="linearGradient8081-1-9" gradientUnits="userSpaceOnUse" x1="9.5855684" y1="4.484941" x2="37.77005" y2="43.886402" gradientTransform="matrix(0.66666642,0,0,0.66666642,-79.833331,-79.999993)"/>
    <linearGradient gradientTransform="matrix(1.5259977,0,0,1.5259977,43.634553,43.421777)" inkscape:collect="always" xlink:href="#linearGradient8023" id="linearGradient8025-5-93" x1="9.1956701" y1="4.4297605" x2="37.228348" y2="43.999989" gradientUnits="userSpaceOnUse"/>
    <linearGradient inkscape:collect="always" xlink:href="#linearGradient8023" id="linearGradient8081" gradientUnits="userSpaceOnUse" x1="9.5855684" y1="4.484941" x2="37.77005" y2="43.886402" gradientTransform="matrix(0.66666642,0,0,0.66666642,-31.833331,-31.999993)"/>
    <radialGradient id="radialGradient5004" xlink:href="#linearGradient5443" gradientUnits="userSpaceOnUse" cy="11.84" cx="-39.458" gradientTransform="matrix(3.0964543,-0.21495459,0.37738808,7.8586392,-154.66412,-25.229961)" r="3.9059999"/>
    <radialGradient id="radialGradient5017" xlink:href="#linearGradient6221" gradientUnits="userSpaceOnUse" cy="21.622999" cx="25.976999" gradientTransform="matrix(-1.3875312,-1.3669229,1.0969534,-1.080663,253.33381,209.6805)" r="2"/>
    <radialGradient id="radialGradient2912" xlink:href="#linearGradient6221" gradientUnits="userSpaceOnUse" cy="34.498001" cx="21.959999" gradientTransform="matrix(0.31004782,0,0,0.0889074,258.07853,180.89617)" r="12.728"/>
    <radialGradient id="radialGradient2915" xlink:href="#linearGradient6221" gradientUnits="userSpaceOnUse" cy="34.498001" cx="21.959999" gradientTransform="matrix(0.75788705,0,0,0.23544557,243.45848,168.48244)" r="12.728"/>
    <radialGradient id="radialGradient2918" xlink:href="#linearGradient6221" gradientUnits="userSpaceOnUse" cy="34.498001" cx="21.959999" gradientTransform="matrix(0.22242305,0,0,0.08888482,212.2327,174.50989)" r="12.728"/>
    <radialGradient id="radialGradient2921" xlink:href="#linearGradient6221" gradientUnits="userSpaceOnUse" cy="34.498001" cx="21.959999" gradientTransform="matrix(0.56841774,0,0,0.23538669,205.41657,167.92545)" r="12.728"/>
  </defs>
  <sodipodi:namedview pagecolor="#383c4a" bordercolor="#ffffff" borderopacity="0.62745098" objecttolerance="4" gridtolerance="10" guidetolerance="4" inkscape:pageopacity="0" inkscape:pageshadow="2" inkscape:window-width="640" inkscape:window-height="480" id="namedview20" showgrid="true" inkscape:zoom="16.386532" inkscape:cx="6.0928915" inkscape:cy="50.126523" inkscape:current-layer="g7814" inkscape:snap-smooth-nodes="false" showguides="true" borderlayer="true" inkscape:showpageshadow="false" inkscape:guide-bbox="true" guidecolor="#bd4fff" guideopacity="0.78431373" inkscape:snap-nodes="true" inkscape:lockguides="false" fit-margin-top="0" fit-margin-left="0" fit-margin-right="0" fit-margin-bottom="0" guidehicolor="#ff0101" guidehiopacity="0.78431373" inkscape:snap-page="true" inkscape:object-nodes="true" inkscape:snap-bbox="true" inkscape:snap-global="true" inkscape:snap-object-midpoints="false" inkscape:snap-bbox-edge-midpoints="false">
    <inkscape:grid type="xygrid" id="grid4171" empspacing="4" dotted="false" originx="2.7755576e-17" originy="0" spacingx="1" spacingy="1" color="#5a5a5a" opacity="0.23529412" empcolor="#5a5a5a" empopacity="0.47058824" visible="true"/>
    <inkscape:grid type="axonomgrid" id="grid4699" units="mm" empspacing="4" color="#5a5a5a" opacity="0.23529412" empcolor="#5a5a5a" empopacity="0.47058824" gridanglex="45" gridanglez="45" spacingy="3.7795276" visible="false" originx="1.3228346" originy="1.3228346"/>
    <sodipodi:guide position="48,0" orientation="1,0" id="guide4568" inkscape:locked="false" inkscape:label="" inkscape:color="rgb(189,79,255)"/>
    <sodipodi:guide position="111.99996,-3.9999999e-05" orientation="0,1" id="guide4570" inkscape:locked="false" inkscape:label="" inkscape:color="rgb(189,79,255)"/>
    <sodipodi:guide position="0,0" orientation="1,0" id="guide4572" inkscape:locked="false" inkscape:label="" inkscape:color="rgb(189,79,255)"/>
    <sodipodi:guide position="0,48" orientation="0,1" id="guide4574" inkscape:locked="false" inkscape:label="" inkscape:color="rgb(189,79,255)"/>
    <sodipodi:guide position="0,80" orientation="0,1" id="guide4576" inkscape:locked="false" inkscape:label="" inkscape:color="rgb(189,79,255)"/>
    <sodipodi:guide position="-32,48" orientation="1,0" id="guide4578" inkscape:locked="false" inkscape:label="" inkscape:color="rgb(189,79,255)"/>
    <sodipodi:guide position="-32,104" orientation="0,1" id="guide4580" inkscape:locked="false" inkscape:label="" inkscape:color="rgb(189,79,255)"/>
    <sodipodi:guide position="-56,80" orientation="1,0" id="guide4582" inkscape:locked="false" inkscape:label="" inkscape:color="rgb(189,79,255)"/>
    <sodipodi:guide position="48,-64" orientation="0,1" id="guide4584" inkscape:locked="false" inkscape:label="" inkscape:color="rgb(189,79,255)"/>
    <sodipodi:guide position="0,0" orientation="-0.70710678,0.70710678" id="guide4588" inkscape:locked="false" inkscape:label="" inkscape:color="rgb(189,79,255)"/>
    <sodipodi:guide position="-56,80" orientation="-0.70710678,0.70710678" id="guide4573" inkscape:locked="false" inkscape:label="" inkscape:color="rgb(189,79,255)"/>
    <sodipodi:guide position="-32,48" orientation="-0.70710678,0.70710678" id="guide4575" inkscape:locked="false" inkscape:label="" inkscape:color="rgb(189,79,255)"/>
    <sodipodi:guide position="48,-64" orientation="-0.70710678,0.70710678" id="guide4577" inkscape:locked="false" inkscape:label="" inkscape:color="rgb(189,79,255)"/>
    <sodipodi:guide position="47.999962,0" orientation="0.70710678,0.70710678" id="guide4697" inkscape:locked="false" inkscape:label="" inkscape:color="rgb(189,79,255)"/>
    <sodipodi:guide position="207.99995,-288" orientation="0,1" id="guide7833" inkscape:locked="false"/>
    <sodipodi:guide position="335.99994,-288" orientation="1,0" id="guide7835" inkscape:locked="false" inkscape:label="" inkscape:color="rgb(189,79,255)"/>
    <sodipodi:guide position="111.99996,-64" orientation="1,0" id="guide7915" inkscape:locked="false"/>
    <sodipodi:guide position="111.99996,-160" orientation="0,1" id="guide7917" inkscape:locked="false"/>
    <sodipodi:guide position="207.99996,-160" orientation="1,0" id="guide7919" inkscape:locked="false"/>
    <sodipodi:guide position="111.99996,-160" orientation="-0.70710678,0.70710678" id="guide7921" inkscape:locked="false" inkscape:label="" inkscape:color="rgb(189,79,255)"/>
    <sodipodi:guide position="207.99996,-288" orientation="-0.70710678,0.70710678" id="guide7923" inkscape:locked="false" inkscape:label="" inkscape:color="rgb(189,79,255)"/>
    <sodipodi:guide position="-72,104" orientation="1,0" id="guide7824" inkscape:locked="false"/>
    <sodipodi:guide position="-56,120" orientation="0,1" id="guide7826" inkscape:locked="false"/>
    <sodipodi:guide position="-72,104" orientation="-0.70710678,0.70710678" id="guide7828" inkscape:locked="false" inkscape:label="" inkscape:color="rgb(189,79,255)"/>
  </sodipodi:namedview>
  <g style="display:inline" inkscape:label="icon_32" id="g7816" inkscape:groupmode="layer" transform="translate(32,32)">
    <g style="display:none" inkscape:label="frame" id="g7802" inkscape:groupmode="layer">
      <rect style="color:#000000;clip-rule:nonzero;display:block;overflow:visible;visibility:visible;opacity:1;isolation:auto;mix-blend-mode:normal;color-interpolation:sRGB;color-interpolation-filters:linearRGB;solid-color:#000000;solid-opacity:1;vector-effect:none;fill:#000000;fill-opacity:1;fill-rule:nonzero;stroke:#ff24f7;stroke-width:0;stroke-linecap:square;stroke-linejoin:miter;stroke-miterlimit:4;stroke-dasharray:none;stroke-dashoffset:0;stroke-opacity:0.99481865;marker:none;marker-start:none;marker-mid:none;marker-end:none;paint-order:normal;color-rendering:auto;image-rendering:auto;shape-rendering:auto;text-rendering:auto;enable-background:accumulate" id="rect7792" width="32" height="32" x="-32" y="-32" inkscape:label="frame_32"/>
      <text inkscape:label="txt_32" id="text7796" y="-11.470053" x="-23.799042" style="font-size:12.4444437px;line-height:1000%;font-family:sans-serif;letter-spacing:0px;word-spacing:0px;display:inline;opacity:1;fill:#ffffff;fill-opacity:1;stroke:none;stroke-width:0.07444605px;stroke-linecap:butt;stroke-linejoin:miter;stroke-opacity:1" xml:space="preserve">
        <tspan id="tspan7794" style="font-size:12.4444437px;fill:#ffffff;fill-opacity:1;stroke:none;stroke-width:0.07444605px" y="-11.470053" x="-23.799042" sodipodi:role="line">32</tspan>
      </text>
    </g>
    <g style="display:inline" inkscape:label="icon" id="g7814" inkscape:groupmode="layer">
      <path sodipodi:nodetypes="ccccccccc" style="display:inline;opacity:1;fill:#000000;fill-opacity:0.23529412;stroke:none;stroke-width:0.66666639;stroke-linecap:butt;stroke-linejoin:miter;stroke-miterlimit:4;stroke-dasharray:none;stroke-dashoffset:0;stroke-opacity:0.23979594" d="m -28,-31 v 30 h 7 l 1,-4 h 8 l 1.094488,4 H -4 v -30 z" id="path1916" inkscape:connector-curvature="0"/>
      <path inkscape:connector-curvature="0" id="path8047" d="m -27,-30 v 28 h 6 l 1,-3 h 8 l 1.094488,3 H -5 v -28 z" style="display:inline;opacity:1;vector-effect:none;fill:#565e66;fill-opacity:1;stroke:none;stroke-width:1.52599764;stroke-linecap:butt;stroke-linejoin:miter;stroke-miterlimit:4;stroke-dasharray:none;stroke-dashoffset:0;stroke-opacity:0.23979594" sodipodi:nodetypes="ccccccccc"/>
      <path sodipodi:nodetypes="ccccccccc" style="display:inline;opacity:1;fill:url(#linearGradient8081);fill-opacity:1;stroke:none;stroke-width:0.66666639;stroke-linecap:butt;stroke-linejoin:miter;stroke-miterlimit:4;stroke-dasharray:none;stroke-dashoffset:0;stroke-opacity:0.23979594" d="m -26,-29 v 26 h 4 l 1,-3 h 10 l 1,3 h 4 v -26 z" id="path8049" inkscape:connector-curvature="0"/>
      <path style="display:inline;opacity:1;fill:#454545;fill-opacity:1;stroke:none;stroke-width:0.66666651;stroke-linecap:butt;stroke-linejoin:miter;stroke-miterlimit:4;stroke-dasharray:none;stroke-dashoffset:0;stroke-opacity:0.64313725" d="m -24.5,-28 c -0.277,0 -0.5,0.223 -0.5,0.5 0,0.277 0.223,0.5 0.5,0.5 0.277,0 0.5,-0.223 0.5,-0.5 0,-0.277 -0.223,-0.5 -0.5,-0.5 z m 17,0 c -0.277,0 -0.5,0.223 -0.5,0.5 0,0.277 0.223,0.5 0.5,0.5 0.277,0 0.5,-0.223 0.5,-0.5 0,-0.277 -0.223,-0.5 -0.5,-0.5 z m -16.982422,11 C -24.769237,-17 -25,-16.769237 -25,-16.482422 c 0,0.286815 0.230763,0.517578 0.517578,0.517578 0.286815,0 0.517578,-0.230763 0.517578,-0.517578 0,-0.286815 -0.230763,-0.517578 -0.517578,-0.517578 z M -7.5,-17 c -0.277,0 -0.5,0.223 -0.5,0.5 0,0.277 0.223,0.5 0.5,0.5 0.277,0 0.5,-0.223 0.5,-0.5 0,-0.277 -0.223,-0.5 -0.5,-0.5 z m -17,11 c -0.277,0 -0.5,0.223 -0.5,0.5 0,0.277 0.223,0.5 0.5,0.5 0.277,0 0.5,-0.223 0.5,-0.5 0,-0.277 -0.223,-0.5 -0.5,-0.5 z m 16.984375,0 c -0.277,0 -0.5,0.223 -0.5,0.5 0,0.277 0.223,0.5 0.5,0.5 0.277,0 0.5,-0.223 0.5,-0.5 0,-0.277 -0.223,-0.5 -0.5,-0.5 z" id="rect8055" inkscape:connector-curvature="0" sodipodi:nodetypes="ssssssssssssssssssssssssssssss"/>
      <path sodipodi:nodetypes="ccccc" inkscape:connector-curvature="0" id="path8063" d="m -21,-6 -0.637339,2 h 11.302507 L -11,-6 Z" style="display:inline;fill:#6c7587;fill-opacity:1;fill-rule:evenodd;stroke:none;stroke-width:0.66666645px;stroke-linecap:butt;stroke-linejoin:miter;stroke-opacity:1"/>
      <path style="color:#000000;clip-rule:nonzero;display:block;overflow:visible;visibility:visible;opacity:1;isolation:auto;mix-blend-mode:normal;color-interpolation:sRGB;color-interpolation-filters:linearRGB;solid-color:#000000;solid-opacity:1;vector-effect:none;fill:#000000;fill-opacity:0.32960893;fill-rule:nonzero;stroke:none;stroke-width:0.11366636;stroke-linecap:round;stroke-linejoin:round;stroke-miterlimit:4;stroke-dasharray:none;stroke-dashoffset:0;stroke-opacity:0.96354167;marker:none;marker-start:none;marker-mid:none;marker-end:none;paint-order:normal;color-rendering:auto;image-rendering:auto;shape-rendering:auto;text-rendering:auto;enable-background:accumulate" d="m -21,-6 h 10 l 0.329928,1 h -10.684259 z" id="rect8152" inkscape:connector-curvature="0" sodipodi:nodetypes="ccccc"/>
      <path style="color:#000000;clip-rule:nonzero;display:block;overflow:visible;visibility:visible;opacity:1;isolation:auto;mix-blend-mode:normal;color-interpolation:sRGB;color-interpolation-filters:linearRGB;solid-color:#000000;solid-opacity:1;vector-effect:none;fill:#000000;fill-opacity:0.21978024;fill-rule:nonzero;stroke:none;stroke-width:0.26609281;stroke-linecap:round;stroke-linejoin:round;stroke-miterlimit:4;stroke-dasharray:none;stroke-dashoffset:0;stroke-opacity:0.96354167;marker:none;marker-start:none;marker-mid:none;marker-end:none;paint-order:normal;color-rendering:auto;image-rendering:auto;shape-rendering:auto;text-rendering:auto;enable-background:accumulate;font-variant-east_asian:normal" d="m -22,-25 h 12 v 15 h -12 z" id="rect8154" inkscape:connector-curvature="0" sodipodi:nodetypes="ccccc"/>
      <path style="color:#000000;clip-rule:nonzero;display:inline;overflow:visible;visibility:visible;opacity:1;isolation:auto;mix-blend-mode:normal;color-interpolation:sRGB;color-interpolation-filters:linearRGB;solid-color:#000000;solid-opacity:1;vector-effect:none;fill:#ffffff;fill-opacity:0.5;fill-rule:nonzero;stroke:none;stroke-width:0.31239533;stroke-linecap:square;stroke-linejoin:miter;stroke-miterlimit:4;stroke-dasharray:0.62479068, 0.62479068;stroke-dashoffset:9.73946476;stroke-opacity:1;marker:none;marker-start:none;marker-mid:none;marker-end:none;paint-order:markers stroke fill;color-rendering:auto;image-rendering:auto;shape-rendering:auto;text-rendering:auto;enable-background:accumulate" d="m -22,-10 h 12 v 0.968503 L -22,-9 Z" id="rect956-3-4-4-1" inkscape:connector-curvature="0" inkscape:label="centro recuadro brillo inf" sodipodi:nodetypes="ccccc"/>
      <path style="color:#000000;clip-rule:nonzero;display:inline;overflow:visible;visibility:visible;opacity:1;isolation:auto;mix-blend-mode:normal;color-interpolation:sRGB;color-interpolation-filters:linearRGB;solid-color:#000000;solid-opacity:1;vector-effect:none;fill:#ffffff;fill-opacity:0.92307691;fill-rule:nonzero;stroke:none;stroke-width:0.23968425;stroke-linecap:butt;stroke-linejoin:miter;stroke-miterlimit:4;stroke-dasharray:none;stroke-dashoffset:0;stroke-opacity:0.28021982;marker:none;marker-start:none;marker-mid:none;marker-end:none;paint-order:fill markers stroke;color-rendering:auto;image-rendering:auto;shape-rendering:auto;text-rendering:auto;enable-background:accumulate" d="m -15.38739,-22.111862 a 4.2850069,4.3428757 0 0 0 -4.285509,4.342773 4.2850069,4.3428757 0 0 0 0.704251,2.382075 2.4264551,2.4592242 0 0 0 -1.856994,2.3876 2.4264551,2.4592242 0 0 0 2.426092,2.459474 2.4264551,2.4592242 0 0 0 2.426697,-2.459474 2.4264551,2.4592242 0 0 0 -0.04969,-0.480344 4.2850069,4.3428757 0 0 0 0.635158,0.05344 4.2850069,4.3428757 0 0 0 4.284906,-4.342769 4.2850069,4.3428757 0 0 0 -4.284906,-4.342773 z" id="path1469-6-3-9" inkscape:connector-curvature="0" inkscape:label="engranaje back"/>
      <path style="color:#000000;clip-rule:nonzero;display:inline;overflow:visible;visibility:visible;opacity:1;isolation:auto;mix-blend-mode:normal;color-interpolation:sRGB;color-interpolation-filters:linearRGB;solid-color:#000000;solid-opacity:1;vector-effect:none;fill:#656c76;fill-opacity:1;fill-rule:nonzero;stroke:none;stroke-width:0.11850749;stroke-linecap:butt;stroke-linejoin:miter;stroke-miterlimit:4;stroke-dasharray:none;stroke-dashoffset:0;stroke-opacity:0.80769228;marker:none;marker-start:none;marker-mid:none;marker-end:none;paint-order:fill markers stroke;color-rendering:auto;image-rendering:auto;shape-rendering:auto;text-rendering:auto;enable-background:accumulate" d="m -15.779515,-21.205838 c -0.05922,0 -0.09205,0.0476 -0.106669,0.10258 l -0.212123,0.797915 c -0.192856,0.05692 -0.379012,0.135693 -0.554553,0.234647 l -0.706678,-0.410322 c -0.04876,-0.02828 -0.10479,-0.03814 -0.146666,0.0044 l -0.611525,0.619783 c -0.04191,0.04243 -0.03226,0.09992 -0.0044,0.14926 l 0.41152,0.72605 c -0.09311,0.17453 -0.167051,0.358921 -0.220607,0.549758 l -0.798797,0.220516 c -0.05422,0.01494 -0.101214,0.04809 -0.101214,0.108108 v 0.876541 c 0,0.06002 0.04696,0.09391 0.101214,0.108722 l 0.816978,0.222972 c 0.05524,0.181028 0.128942,0.356008 0.220002,0.521503 l -0.422427,0.748775 c -0.0279,0.04942 -0.03824,0.106212 0.0036,0.148648 l 0.61213,0.619783 c 0.04188,0.04247 0.09858,0.0327 0.147275,0.0044 l 0.752135,-0.438576 c 0.137383,0.07288 0.341221,0.150902 0.496371,0.207003 l 0.227275,0.847668 c 0.01474,0.05495 0.04745,0.101967 0.106668,0.101967 h 0.865466 c 0.05922,0 0.09205,-0.04698 0.106667,-0.101967 l 0.227884,-0.854423 c 0.154774,-0.0508 0.328223,-0.135593 0.493943,-0.204547 l 0.751526,0.436117 c 0.04877,0.02825 0.105399,0.03815 0.147275,-0.0044 l 0.611522,-0.619781 c 0.04188,-0.04244 0.03226,-0.09992 0.0044,-0.149264 l -0.432151,-0.759861 c 0.08714,-0.16162 0.158294,-0.331885 0.211519,-0.507985 l 0.827889,-0.227889 c 0.05422,-0.01494 0.101212,-0.04809 0.101212,-0.108108 v -0.877153 c 0,-0.06002 -0.04696,-0.0933 -0.101212,-0.108109 l -0.814555,-0.222976 c -0.05228,-0.186409 -0.123903,-0.366515 -0.213945,-0.53747 l 0.414552,-0.732805 c 0.02787,-0.04942 0.03763,-0.106828 -0.0044,-0.149263 l -0.611496,-0.619781 c -0.04188,-0.04247 -0.09858,-0.0327 -0.147271,-0.0044 l -0.714556,0.416464 c -0.173298,-0.09803 -0.356925,-0.176373 -0.547261,-0.233416 l -0.214549,-0.798533 c -0.01474,-0.05495 -0.04744,-0.102579 -0.106668,-0.102579 z m 0.438186,2.238954 c 0.704866,0 1.27638,0.579248 1.27638,1.293619 0,0.714372 -0.571514,1.293618 -1.27638,1.293618 -0.704862,0 -1.27638,-0.579246 -1.27638,-1.293618 0,-0.714375 0.571521,-1.293619 1.27638,-1.293619 z m -3.370188,4.224534 c -0.03097,0 -0.0487,0.02466 -0.05636,0.05344 l -0.110909,0.417694 c -0.100943,0.02978 -0.198426,0.07106 -0.290305,0.12285 l -0.369702,-0.214376 c -0.02553,-0.01481 -0.05506,-0.02035 -0.07697,0.0019 l -0.320004,0.324942 c -0.02191,0.02221 -0.0171,0.05219 -0.0025,0.07801 l 0.215761,0.379607 c -0.04873,0.09135 -0.08713,0.188201 -0.115152,0.288086 l -0.418189,0.11548 c -0.0284,0.0078 -0.05273,0.0251 -0.05273,0.05651 v 0.458849 c 0,0.03142 0.02433,0.04874 0.05273,0.05651 l 0.42728,0.116706 c 0.02892,0.09475 0.0675,0.186108 0.115153,0.27273 l -0.221215,0.392505 c -0.01462,0.02585 -0.01948,0.05519 0.0025,0.0774 l 0.320005,0.324939 c 0.02191,0.02221 0.05149,0.01673 0.07697,0.0019 l 0.393944,-0.229731 c 0.07191,0.03814 0.17819,0.07935 0.259398,0.108722 l 0.119394,0.443492 c 0.0077,0.02878 0.02477,0.05344 0.05576,0.05344 h 0.452731 c 0.03097,0 0.04809,-0.02466 0.05576,-0.05344 l 0.119396,-0.447175 c 0.08101,-0.02657 0.17205,-0.07079 0.258791,-0.106882 l 0.393338,0.228502 c 0.02554,0.01481 0.05506,0.01975 0.07697,-0.0025 l 0.320004,-0.324326 c 0.02191,-0.02221 0.0171,-0.05219 0.0025,-0.07801 l -0.226113,-0.398112 c 0.04562,-0.08459 0.08244,-0.173798 0.110306,-0.26597 l 0.43334,-0.119167 c 0.0284,-0.0078 0.05333,-0.0251 0.05333,-0.05651 v -0.459459 c 0,-0.03139 -0.02494,-0.04874 -0.05333,-0.05651 l -0.426067,-0.11671 c -0.02737,-0.09757 -0.06499,-0.191847 -0.112123,-0.281327 l 0.216972,-0.383295 c 0.01461,-0.02585 0.01948,-0.0558 -0.0025,-0.078 l -0.320004,-0.324326 c -0.02191,-0.0222 -0.05149,-0.01732 -0.07697,-0.0025 l -0.373945,0.21806 c -0.09071,-0.05132 -0.187043,-0.09239 -0.286671,-0.122235 l -0.11212,-0.418308 c -0.0077,-0.02874 -0.02477,-0.05344 -0.05576,-0.05344 z m 0.229096,1.171994 c 0.368933,0 0.667886,0.303 0.667886,0.676909 0,0.373913 -0.298953,0.676906 -0.667886,0.676906 -0.368933,0 -0.667889,-0.302993 -0.667889,-0.676906 0,-0.373909 0.298958,-0.676909 0.667889,-0.676909 z" id="path1242-7-9-0-2" inkscape:connector-curvature="0" inkscape:label="engranaje" sodipodi:nodetypes="sccccccccccssccccccccccsscccccsccccssccccccccccssssssscccccccccccssccccccccccsscccccsccccsscccccsccccccsssss"/>
      <rect y="-6" x="-20" height="2.0000005" width="7.9999847" id="rect8065" style="color:#000000;clip-rule:nonzero;display:block;overflow:visible;visibility:visible;opacity:1;isolation:auto;mix-blend-mode:normal;color-interpolation:sRGB;color-interpolation-filters:linearRGB;solid-color:#000000;solid-opacity:1;vector-effect:none;fill:#dbb518;fill-opacity:1;fill-rule:nonzero;stroke:none;stroke-width:0.22733246;stroke-linecap:round;stroke-linejoin:round;stroke-miterlimit:4;stroke-dasharray:none;stroke-dashoffset:0;stroke-opacity:0.96354167;marker:none;marker-start:none;marker-mid:none;marker-end:none;paint-order:normal;color-rendering:auto;image-rendering:auto;shape-rendering:auto;text-rendering:auto;enable-background:accumulate"/>
      <rect style="color:#000000;clip-rule:nonzero;display:block;overflow:visible;visibility:visible;opacity:1;isolation:auto;mix-blend-mode:normal;color-interpolation:sRGB;color-interpolation-filters:linearRGB;solid-color:#000000;solid-opacity:1;vector-effect:none;fill:#000000;fill-opacity:0.2857143;fill-rule:nonzero;stroke:none;stroke-width:0.34221193;stroke-linecap:square;stroke-linejoin:miter;stroke-miterlimit:4;stroke-dasharray:0.68442389, 0.68442389;stroke-dashoffset:9.73946476;stroke-opacity:1;marker:none;marker-start:none;marker-mid:none;marker-end:none;paint-order:markers stroke fill;color-rendering:auto;image-rendering:auto;shape-rendering:auto;text-rendering:auto;enable-background:accumulate" id="rect954-6-4-1-3" width="12" height="1" x="-22" y="-25" inkscape:label="centro recuadro sombra top"/>
    </g>
  </g>
</svg>