<?xml version="1.0" encoding="UTF-8" standalone="yes"?>
<svg xmlns:dc="http://purl.org/dc/elements/1.1/" xmlns:cc="http://creativecommons.org/ns#" xmlns:rdf="http://www.w3.org/1999/02/22-rdf-syntax-ns#" xmlns:svg="http://www.w3.org/2000/svg" xmlns="http://www.w3.org/2000/svg" xmlns:xlink="http://www.w3.org/1999/xlink" xmlns:sodipodi="http://sodipodi.sourceforge.net/DTD/sodipodi-0.dtd" xmlns:inkscape="http://www.inkscape.org/namespaces/inkscape" height="32" viewBox="0 0 32 32" width="32" id="svg2" version="1.1" inkscape:version="0.92.2 5c3e80d, 2017-08-06" sodipodi:docname="gufw.svg" enable-background="new" folder="32">
  <title id="title4675">Template icons dark</title>
  <metadata id="metadata24">
    <rdf:RDF>
      <cc:Work rdf:about="">
        <dc:format>image/svg+xml</dc:format>
        <dc:type rdf:resource="http://purl.org/dc/dcmitype/StillImage"/>
        <dc:title>Template icons dark</dc:title>
        <dc:date>17/05/13</dc:date>
        <dc:creator>
          <cc:Agent>
            <dc:title>wfpaisa</dc:title>
          </cc:Agent>
        </dc:creator>
        <dc:rights>
          <cc:Agent>
            <dc:title>License: GPLv3</dc:title>
          </cc:Agent>
        </dc:rights>
        <dc:language>es-en</dc:language>
        <dc:subject>
          <rdf:Bag>
            <rdf:li>plane-icon-theme</rdf:li>
          </rdf:Bag>
        </dc:subject>
        <dc:description>Template for create set icons</dc:description>
        <cc:license rdf:resource="https://www.gnu.org/licenses/gpl-3.0.en.html"/>
      </cc:Work>
    </rdf:RDF>
  </metadata>
  <defs id="defs22">
    <linearGradient id="linearGradient39741">
      <stop id="stop39737" offset="0" style="stop-color:#1d6e99;stop-opacity:1;"/>
      <stop id="stop39739" offset="1" style="stop-color:#f93000;stop-opacity:1;"/>
    </linearGradient>
    <linearGradient inkscape:collect="always" id="linearGradient39682">
      <stop style="stop-color:#492f46;stop-opacity:0.70980394" offset="0" id="stop39678"/>
      <stop style="stop-color:#3c3543;stop-opacity:0.36813188" offset="1" id="stop39680"/>
    </linearGradient>
    <linearGradient inkscape:collect="always" id="linearGradient4208">
      <stop style="stop-color:#000000;stop-opacity:0.51098901" offset="0" id="stop4204"/>
      <stop style="stop-color:#000000;stop-opacity:0.26923078" offset="1" id="stop4206"/>
    </linearGradient>
    <linearGradient inkscape:collect="always" xlink:href="#linearGradient4722" id="linearGradient4720" gradientUnits="userSpaceOnUse" gradientTransform="matrix(0.87883305,0,0,0.87883305,117.72962,-726.32687)" x1="48.843494" y1="994.45337" x2="48.843494" y2="1014.9698"/>
    <linearGradient id="linearGradient4722" inkscape:collect="always">
      <stop id="stop4724" offset="0" style="stop-color:#313131;stop-opacity:0.50980395"/>
      <stop style="stop-color:#dfdfdf;stop-opacity:0.76078433" offset="0.60000002" id="stop4728"/>
      <stop id="stop4726" offset="1" style="stop-color:#ffffff;stop-opacity:1"/>
    </linearGradient>
    <linearGradient inkscape:collect="always" xlink:href="#linearGradient4145" id="linearGradient4147" x1="48.240433" y1="22.744709" x2="48.240433" y2="-17.955055" gradientUnits="userSpaceOnUse" gradientTransform="matrix(1.0633581,0,0,1.0633581,108.95881,153.77824)"/>
    <linearGradient inkscape:collect="always" id="linearGradient4145">
      <stop style="stop-color:#bcbcbc;stop-opacity:1" offset="0" id="stop4141"/>
      <stop style="stop-color:#ffffff;stop-opacity:1" offset="1" id="stop4143"/>
    </linearGradient>
    <linearGradient inkscape:collect="always" xlink:href="#linearGradient10165" id="linearGradient10167" x1="43.115879" y1="25.525976" x2="1.4625005" y2="25.525976" gradientUnits="userSpaceOnUse" gradientTransform="matrix(2.086771,0,0,2.086771,113.04765,106.78735)"/>
    <linearGradient inkscape:collect="always" id="linearGradient10165">
      <stop style="stop-color:#eeeeee;stop-opacity:1;" offset="0" id="stop10161"/>
      <stop id="stop4584" offset="0.41331291" style="stop-color:#a2a2a2;stop-opacity:1;"/>
      <stop id="stop4582" offset="0.49493894" style="stop-color:#707070;stop-opacity:1"/>
      <stop id="stop11618" offset="0.53019929" style="stop-color:#838383;stop-opacity:1"/>
      <stop style="stop-color:#d2d2d2;stop-opacity:1" offset="1" id="stop10163"/>
    </linearGradient>
    <linearGradient inkscape:collect="always" xlink:href="#linearGradient4247" id="linearGradient5819" gradientUnits="userSpaceOnUse" gradientTransform="matrix(1.771737,0,0,1.771737,73.572454,-1618.6902)" x1="50.10355" y1="1012.1684" x2="73.355255" y2="1012.1684"/>
    <linearGradient inkscape:collect="always" id="linearGradient4247">
      <stop style="stop-color:#353d5a;stop-opacity:0.81318682" offset="0" id="stop4243"/>
      <stop style="stop-color:#a33284;stop-opacity:0.58791208" offset="1" id="stop4245"/>
    </linearGradient>
    <linearGradient inkscape:collect="always" xlink:href="#linearGradient4241" id="linearGradient4235" gradientUnits="userSpaceOnUse" gradientTransform="matrix(1.771737,0,0,1.771737,73.572454,-1618.6902)" x1="49.679111" y1="1012.1684" x2="28.449266" y2="1012.1684"/>
    <linearGradient inkscape:collect="always" id="linearGradient4241">
      <stop style="stop-color:#54546a;stop-opacity:1" offset="0" id="stop4237"/>
      <stop style="stop-color:#5a6480;stop-opacity:1" offset="1" id="stop4239"/>
    </linearGradient>
    <linearGradient inkscape:collect="always" xlink:href="#linearGradient39682" id="linearGradient39684" x1="158.14174" y1="123.57748" x2="158.14174" y2="196" gradientUnits="userSpaceOnUse"/>
    <linearGradient inkscape:collect="always" xlink:href="#linearGradient39741" id="linearGradient39735" gradientUnits="userSpaceOnUse" gradientTransform="matrix(1.771737,0,0,1.771737,73.559604,-1618.6235)" x1="55.554264" y1="1018.5549" x2="6.8810019" y2="979.09015"/>
    <linearGradient inkscape:collect="always" xlink:href="#linearGradient10165" id="linearGradient10167-4" x1="43.115879" y1="25.525976" x2="1.4625005" y2="25.525976" gradientUnits="userSpaceOnUse" gradientTransform="matrix(0.52169801,0,0,0.52169801,-55.738177,-57.303381)"/>
    <linearGradient inkscape:collect="always" xlink:href="#linearGradient4247" id="linearGradient5819-75" gradientUnits="userSpaceOnUse" gradientTransform="matrix(0.44293871,0,0,0.44293871,-65.607075,-488.67712)" x1="50.10355" y1="1012.1684" x2="73.355255" y2="1012.1684"/>
    <linearGradient gradientTransform="matrix(0.25000252,0,0,0.25000252,-56.000092,-45.5001)" inkscape:collect="always" xlink:href="#linearGradient4208" id="linearGradient4210-21" x1="50.444756" y1="26.43075" x2="49.479927" y2="-19.018431" gradientUnits="userSpaceOnUse"/>
    <linearGradient inkscape:collect="always" xlink:href="#linearGradient4722" id="linearGradient4720-57" gradientUnits="userSpaceOnUse" gradientTransform="matrix(0.21971048,0,0,0.21971048,-54.567673,-265.58404)" x1="48.843494" y1="994.45337" x2="48.843494" y2="1014.9698"/>
    <linearGradient inkscape:collect="always" xlink:href="#linearGradient4145" id="linearGradient4147-5" x1="48.240433" y1="22.744709" x2="48.240433" y2="-17.955055" gradientUnits="userSpaceOnUse" gradientTransform="matrix(0.2658422,0,0,0.2658422,-56.760397,-45.555541)"/>
    <linearGradient inkscape:collect="always" xlink:href="#linearGradient39741" id="linearGradient39735-53" gradientUnits="userSpaceOnUse" gradientTransform="matrix(0.44293871,0,0,0.44293871,-65.610287,-488.66044)" x1="55.554264" y1="1018.5549" x2="6.8810019" y2="979.09015"/>
    <linearGradient inkscape:collect="always" xlink:href="#linearGradient4241" id="linearGradient4235-3" gradientUnits="userSpaceOnUse" gradientTransform="matrix(0.44293871,0,0,0.44293871,-65.607075,-488.67712)" x1="49.679111" y1="1012.1684" x2="28.449266" y2="1012.1684"/>
    <linearGradient inkscape:collect="always" xlink:href="#linearGradient10165" id="linearGradient10167-40" x1="43.115879" y1="25.525976" x2="1.4625005" y2="25.525976" gradientUnits="userSpaceOnUse" gradientTransform="matrix(0.34779866,0,0,0.34779866,-71.843043,-72.868933)"/>
    <linearGradient inkscape:collect="always" xlink:href="#linearGradient4247" id="linearGradient5819-2" gradientUnits="userSpaceOnUse" gradientTransform="matrix(0.29529246,0,0,0.29529246,-78.422309,-360.4514)" x1="50.10355" y1="1012.1684" x2="73.355255" y2="1012.1684"/>
    <linearGradient inkscape:collect="always" xlink:href="#linearGradient39741" id="linearGradient39735-0" gradientUnits="userSpaceOnUse" gradientTransform="matrix(0.29529246,0,0,0.29529246,-78.42445,-360.44029)" x1="55.554264" y1="1018.5549" x2="6.8810019" y2="979.09015"/>
    <linearGradient inkscape:collect="always" xlink:href="#linearGradient4241" id="linearGradient4235-0" gradientUnits="userSpaceOnUse" gradientTransform="matrix(0.29529246,0,0,0.29529246,-78.422309,-360.4514)" x1="49.679111" y1="1012.1684" x2="28.449266" y2="1012.1684"/>
    <linearGradient inkscape:collect="always" xlink:href="#linearGradient4241" id="linearGradient4235-7" gradientUnits="userSpaceOnUse" gradientTransform="matrix(2.2146743,0,0,2.2146743,165.35124,-1949.9798)" x1="49.679111" y1="1012.1684" x2="28.449266" y2="1012.1684"/>
    <linearGradient inkscape:collect="always" xlink:href="#linearGradient39741" id="linearGradient39735-50" gradientUnits="userSpaceOnUse" gradientTransform="matrix(2.2146743,0,0,2.2146743,165.33518,-1949.8965)" x1="55.554264" y1="1018.5549" x2="6.8810019" y2="979.09015"/>
    <linearGradient inkscape:collect="always" xlink:href="#linearGradient4145" id="linearGradient4147-1" x1="48.240433" y1="22.744709" x2="48.240433" y2="-17.955055" gradientUnits="userSpaceOnUse" gradientTransform="matrix(1.3291994,0,0,1.3291994,209.58425,265.60865)"/>
    <linearGradient inkscape:collect="always" xlink:href="#linearGradient4722" id="linearGradient4720-3" gradientUnits="userSpaceOnUse" gradientTransform="matrix(1.0985428,0,0,1.0985428,220.54778,-834.52423)" x1="48.843494" y1="994.45337" x2="48.843494" y2="1014.9698"/>
    <linearGradient inkscape:collect="always" xlink:href="#linearGradient4247" id="linearGradient5819-15" gradientUnits="userSpaceOnUse" gradientTransform="matrix(2.2146743,0,0,2.2146743,165.35124,-1949.9798)" x1="50.10355" y1="1012.1684" x2="73.355255" y2="1012.1684"/>
    <linearGradient inkscape:collect="always" xlink:href="#linearGradient10165" id="linearGradient10167-76" x1="43.115879" y1="25.525976" x2="1.4625005" y2="25.525976" gradientUnits="userSpaceOnUse" gradientTransform="matrix(2.6084673,0,0,2.6084673,214.6953,206.86996)"/>
    <linearGradient inkscape:collect="always" xlink:href="#linearGradient4241" id="linearGradient4235-4" gradientUnits="userSpaceOnUse" gradientTransform="matrix(1.1811507,0,0,1.1811507,22.317472,-1105.7858)" x1="49.679111" y1="1012.1684" x2="28.449266" y2="1012.1684"/>
    <linearGradient inkscape:collect="always" xlink:href="#linearGradient39741" id="linearGradient39735-06" gradientUnits="userSpaceOnUse" gradientTransform="matrix(1.1811507,0,0,1.1811507,22.308906,-1105.7413)" x1="55.554264" y1="1018.5549" x2="6.8810019" y2="979.09015"/>
    <linearGradient inkscape:collect="always" xlink:href="#linearGradient4145" id="linearGradient4147-2" x1="48.240433" y1="22.744709" x2="48.240433" y2="-17.955055" gradientUnits="userSpaceOnUse" gradientTransform="matrix(0.70890099,0,0,0.70890099,45.908229,75.852359)"/>
    <linearGradient inkscape:collect="always" xlink:href="#linearGradient4722" id="linearGradient4720-4" gradientUnits="userSpaceOnUse" gradientTransform="matrix(0.58588506,0,0,0.58588506,51.7554,-510.88073)" x1="48.843494" y1="994.45337" x2="48.843494" y2="1014.9698"/>
    <linearGradient inkscape:collect="always" xlink:href="#linearGradient4247" id="linearGradient5819-4" gradientUnits="userSpaceOnUse" gradientTransform="matrix(1.1811507,0,0,1.1811507,22.317472,-1105.7858)" x1="50.10355" y1="1012.1684" x2="73.355255" y2="1012.1684"/>
    <linearGradient inkscape:collect="always" xlink:href="#linearGradient10165" id="linearGradient10167-1" x1="43.115879" y1="25.525976" x2="1.4625005" y2="25.525976" gradientUnits="userSpaceOnUse" gradientTransform="matrix(1.391172,0,0,1.391172,48.634106,44.525295)"/>
    <linearGradient inkscape:collect="always" xlink:href="#linearGradient4241" id="linearGradient4235-77" gradientUnits="userSpaceOnUse" gradientTransform="matrix(0.88585814,0,0,0.88585814,-19.253977,-865.33475)" x1="49.679111" y1="1012.1684" x2="28.449266" y2="1012.1684"/>
    <linearGradient inkscape:collect="always" xlink:href="#linearGradient39741" id="linearGradient39735-3" gradientUnits="userSpaceOnUse" gradientTransform="matrix(0.88585814,0,0,0.88585814,-19.260402,-865.3014)" x1="55.554264" y1="1018.5549" x2="6.8810019" y2="979.09015"/>
    <linearGradient inkscape:collect="always" xlink:href="#linearGradient4145" id="linearGradient4147-6" x1="48.240433" y1="22.744709" x2="48.240433" y2="-17.955055" gradientUnits="userSpaceOnUse" gradientTransform="matrix(0.53167283,0,0,0.53167283,-1.5610053,20.8891)"/>
    <linearGradient inkscape:collect="always" xlink:href="#linearGradient4722" id="linearGradient4720-48" gradientUnits="userSpaceOnUse" gradientTransform="matrix(0.43941138,0,0,0.43941138,2.8243484,-419.15831)" x1="48.843494" y1="994.45337" x2="48.843494" y2="1014.9698"/>
    <linearGradient inkscape:collect="always" xlink:href="#linearGradient4247" id="linearGradient5819-3" gradientUnits="userSpaceOnUse" gradientTransform="matrix(0.88585814,0,0,0.88585814,-19.253977,-865.33475)" x1="50.10355" y1="1012.1684" x2="73.355255" y2="1012.1684"/>
    <linearGradient inkscape:collect="always" xlink:href="#linearGradient10165" id="linearGradient10167-8" x1="43.115879" y1="25.525976" x2="1.4625005" y2="25.525976" gradientUnits="userSpaceOnUse" gradientTransform="matrix(1.0433733,0,0,1.0433733,0.48339087,-2.6060701)"/>
    <linearGradient inkscape:collect="always" xlink:href="#linearGradient4241" id="linearGradient4235-1" gradientUnits="userSpaceOnUse" gradientTransform="matrix(0.59058495,0,0,0.59058495,-44.809445,-608.90278)" x1="49.679111" y1="1012.1684" x2="28.449266" y2="1012.1684"/>
    <linearGradient inkscape:collect="always" xlink:href="#linearGradient39741" id="linearGradient39735-9" gradientUnits="userSpaceOnUse" gradientTransform="matrix(0.59058495,0,0,0.59058495,-44.813729,-608.88055)" x1="55.554264" y1="1018.5549" x2="6.8810019" y2="979.09015"/>
    <linearGradient inkscape:collect="always" xlink:href="#linearGradient4145" id="linearGradient4147-17" x1="48.240433" y1="22.744709" x2="48.240433" y2="-17.955055" gradientUnits="userSpaceOnUse" gradientTransform="matrix(0.35445627,0,0,0.35445627,-33.013875,-18.074016)"/>
    <linearGradient inkscape:collect="always" xlink:href="#linearGradient4247" id="linearGradient5819-5" gradientUnits="userSpaceOnUse" gradientTransform="matrix(0.59058495,0,0,0.59058495,-44.809445,-608.90278)" x1="50.10355" y1="1012.1684" x2="73.355255" y2="1012.1684"/>
    <linearGradient inkscape:collect="always" xlink:href="#linearGradient10165" id="linearGradient10167-5" x1="43.115879" y1="25.525976" x2="1.4625005" y2="25.525976" gradientUnits="userSpaceOnUse" gradientTransform="matrix(0.69559734,0,0,0.69559734,-31.650915,-33.737804)"/>
    <symbol id="flame" viewBox="0 0 12 16">
      <title id="title13945">flame</title>
      <path d="M5.05.31c.81 2.17.41 3.38-.52 4.31C3.55 5.67 1.98 6.45.9 7.98c-1.45 2.05-1.7 6.53 3.53 7.7-2.2-1.16-2.67-4.52-.3-6.61-.61 2.03.53 3.33 1.94 2.86 1.39-.47 2.3.53 2.27 1.67-.02.78-.31 1.44-1.13 1.81 3.42-.59 4.78-3.42 4.78-5.56 0-2.84-2.53-3.22-1.25-5.61-1.52.13-2.03 1.13-1.89 2.75.09 1.08-1.02 1.8-1.86 1.33-.67-.41-.66-1.19-.06-1.78C8.18 5.31 8.68 2.45 5.05.32L5.03.3l.02.01z" id="path13947"/>
    </symbol>
    <symbol id="icon-space-shuttle" viewBox="0 0 34 28">
      <title id="title18373">space-shuttle</title>
      <path d="M9.688 17.5c-1.078 0.625-2.547 1-4.188 1h-2v-1h-1c-0.281 0-0.5-0.562-0.5-1.25 0-0.281 0.047-0.547 0.109-0.766-1.203-0.031-2.109-0.234-2.109-0.484s0.906-0.453 2.109-0.484c-0.063-0.219-0.109-0.484-0.109-0.766 0-0.688 0.219-1.25 0.5-1.25h1v-1h2c1.641 0 3.109 0.375 4.188 1h17.391c1.156 0.203 2.203 0.375 2.922 0.5 3 0.5 4 1.5 4 2s-1 1.5-4 2c-0.719 0.125-1.766 0.297-2.922 0.5h-17.391zM27.172 13.563c0.5 0.344 0.828 0.859 0.828 1.437s-0.328 1.094-0.828 1.437l1.266 0.469c0.641-0.453 1.062-1.141 1.062-1.906s-0.422-1.453-1.062-1.906zM9.766 17.75h15.859s-3.391 0.594-7.125 1.25c-2 0-3.5 1.5-3.5 1.5l-4.5 4.5s-1.516 1-2.5 1h-1.5l-1.453-7.25h0.453c1.594 0 3.109-0.359 4.266-1zM5.5 11.25h-0.453l1.453-7.25h1.5c1.016 0 2 0.5 2.5 1l4.5 4.5c0 0 1.5 1.5 3.5 1.5 3.734 0.656 7.125 1.25 7.125 1.25h-15.859c-1.156-0.641-2.672-1-4.266-1z" id="path18375"/>
    </symbol>
  </defs>
  <sodipodi:namedview pagecolor="#383c4a" bordercolor="#ffffff" borderopacity="0.62745098" objecttolerance="4" gridtolerance="10" guidetolerance="4" inkscape:pageopacity="0" inkscape:pageshadow="2" inkscape:window-width="640" inkscape:window-height="480" id="namedview20" showgrid="true" inkscape:zoom="15.622585" inkscape:cx="269.66731" inkscape:cy="-227.19515" inkscape:current-layer="layer12" inkscape:snap-smooth-nodes="false" showguides="true" borderlayer="true" inkscape:showpageshadow="false" inkscape:guide-bbox="true" guidecolor="#bd4fff" guideopacity="0.78431373" inkscape:snap-nodes="true" inkscape:lockguides="false" fit-margin-top="0" fit-margin-left="0" fit-margin-right="0" fit-margin-bottom="0" guidehicolor="#ff0101" guidehiopacity="0.78431373" inkscape:snap-page="true" inkscape:object-nodes="true" inkscape:snap-bbox="true" inkscape:snap-global="true" inkscape:snap-object-midpoints="false" inkscape:snap-bbox-edge-midpoints="false" inkscape:snap-bbox-midpoints="true">
    <inkscape:grid type="xygrid" id="grid4171" empspacing="4" dotted="false" originx="2.7755576e-17" originy="0" spacingx="1" spacingy="1" color="#5a5a5a" opacity="0.23529412" empcolor="#5a5a5a" empopacity="0.47058824" visible="true"/>
    <inkscape:grid type="axonomgrid" id="grid4699" units="mm" empspacing="4" color="#5a5a5a" opacity="0.23529412" empcolor="#5a5a5a" empopacity="0.47058824" gridanglex="45" gridanglez="45" spacingy="3.7795276" visible="false" originx="1.3228346" originy="1.3228346"/>
    <sodipodi:guide position="48,0" orientation="1,0" id="guide4568" inkscape:locked="false" inkscape:label="" inkscape:color="rgb(189,79,255)"/>
    <sodipodi:guide position="111.99996,-3.9999999e-05" orientation="0,1" id="guide4570" inkscape:locked="false" inkscape:label="" inkscape:color="rgb(189,79,255)"/>
    <sodipodi:guide position="0,0" orientation="1,0" id="guide4572" inkscape:locked="false" inkscape:label="" inkscape:color="rgb(189,79,255)"/>
    <sodipodi:guide position="0,48" orientation="0,1" id="guide4574" inkscape:locked="false" inkscape:label="" inkscape:color="rgb(189,79,255)"/>
    <sodipodi:guide position="0,80" orientation="0,1" id="guide4576" inkscape:locked="false" inkscape:label="" inkscape:color="rgb(189,79,255)"/>
    <sodipodi:guide position="-32,48" orientation="1,0" id="guide4578" inkscape:locked="false" inkscape:label="" inkscape:color="rgb(189,79,255)"/>
    <sodipodi:guide position="-32,104" orientation="0,1" id="guide4580" inkscape:locked="false" inkscape:label="" inkscape:color="rgb(189,79,255)"/>
    <sodipodi:guide position="-56,80" orientation="1,0" id="guide4582" inkscape:locked="false" inkscape:label="" inkscape:color="rgb(189,79,255)"/>
    <sodipodi:guide position="48,-64" orientation="0,1" id="guide4584" inkscape:locked="false" inkscape:label="" inkscape:color="rgb(189,79,255)"/>
    <sodipodi:guide position="0,0" orientation="-0.70710678,0.70710678" id="guide4588" inkscape:locked="false" inkscape:label="" inkscape:color="rgb(189,79,255)"/>
    <sodipodi:guide position="-56,80" orientation="-0.70710678,0.70710678" id="guide4573" inkscape:locked="false" inkscape:label="" inkscape:color="rgb(189,79,255)"/>
    <sodipodi:guide position="-32,48" orientation="-0.70710678,0.70710678" id="guide4575" inkscape:locked="false" inkscape:label="" inkscape:color="rgb(189,79,255)"/>
    <sodipodi:guide position="48,-64" orientation="-0.70710678,0.70710678" id="guide4577" inkscape:locked="false" inkscape:label="" inkscape:color="rgb(189,79,255)"/>
    <sodipodi:guide position="47.999962,0" orientation="0.70710678,0.70710678" id="guide4697" inkscape:locked="false" inkscape:label="" inkscape:color="rgb(189,79,255)"/>
    <sodipodi:guide position="207.99995,-288" orientation="0,1" id="guide7833" inkscape:locked="false"/>
    <sodipodi:guide position="335.99994,-288" orientation="1,0" id="guide7835" inkscape:locked="false" inkscape:label="" inkscape:color="rgb(189,79,255)"/>
    <sodipodi:guide position="111.99996,-64" orientation="1,0" id="guide7915" inkscape:locked="false"/>
    <sodipodi:guide position="111.99996,-160" orientation="0,1" id="guide7917" inkscape:locked="false"/>
    <sodipodi:guide position="207.99996,-160" orientation="1,0" id="guide7919" inkscape:locked="false"/>
    <sodipodi:guide position="111.99996,-160" orientation="-0.70710678,0.70710678" id="guide7921" inkscape:locked="false" inkscape:label="" inkscape:color="rgb(189,79,255)"/>
    <sodipodi:guide position="207.99996,-288" orientation="-0.70710678,0.70710678" id="guide7923" inkscape:locked="false" inkscape:label="" inkscape:color="rgb(189,79,255)"/>
    <sodipodi:guide position="-72,104" orientation="1,0" id="guide7824" inkscape:locked="false"/>
    <sodipodi:guide position="-56,120" orientation="0,1" id="guide7826" inkscape:locked="false"/>
    <sodipodi:guide position="-72,104" orientation="-0.70710678,0.70710678" id="guide7828" inkscape:locked="false" inkscape:label="" inkscape:color="rgb(189,79,255)"/>
  </sodipodi:namedview>
  <g style="display:inline" inkscape:label="icon_32" id="g7816" inkscape:groupmode="layer" transform="translate(32,32)">
    <g style="display:none" inkscape:label="frame" id="g7802" inkscape:groupmode="layer">
      <rect style="color:#000000;clip-rule:nonzero;display:block;overflow:visible;visibility:visible;opacity:1;isolation:auto;mix-blend-mode:normal;color-interpolation:sRGB;color-interpolation-filters:linearRGB;solid-color:#000000;solid-opacity:1;vector-effect:none;fill:#000000;fill-opacity:1;fill-rule:nonzero;stroke:#ff24f7;stroke-width:0;stroke-linecap:square;stroke-linejoin:miter;stroke-miterlimit:4;stroke-dasharray:none;stroke-dashoffset:0;stroke-opacity:0.99481865;marker:none;marker-start:none;marker-mid:none;marker-end:none;paint-order:normal;color-rendering:auto;image-rendering:auto;shape-rendering:auto;text-rendering:auto;enable-background:accumulate" id="rect7792" width="32" height="32" x="-32" y="-32" inkscape:label="frame_32"/>
      <text inkscape:label="txt_32" id="text7796" y="-11.470053" x="-23.799042" style="font-size:12.4444437px;line-height:1000%;font-family:sans-serif;letter-spacing:0px;word-spacing:0px;display:inline;opacity:1;fill:#ffffff;fill-opacity:1;stroke:none;stroke-width:0.07444605px;stroke-linecap:butt;stroke-linejoin:miter;stroke-opacity:1" xml:space="preserve">
        <tspan id="tspan7794" style="font-size:12.4444437px;fill:#ffffff;fill-opacity:1;stroke:none;stroke-width:0.07444605px" y="-11.470053" x="-23.799042" sodipodi:role="line">32</tspan>
      </text>
    </g>
    <g style="display:inline" inkscape:label="icon" id="g7814" inkscape:groupmode="layer">
      <path sodipodi:nodetypes="ccccssccccsc" inkscape:connector-curvature="0" style="display:inline;fill:none;fill-opacity:1;stroke:#000000;stroke-width:1.34495533;stroke-miterlimit:4;stroke-dasharray:none;stroke-opacity:0.11538463" d="m -16.184189,-31.327169 c -5.249079,0.09435 -14.406028,3.745831 -14.406028,6.171375 l -0.05527,9.174176 c 0,6.3147965 10.398894,15.16398551 14.571823,15.30871363 0.0061,2.9334e-4 0.01223,0 0.01843,0 h 0.09211 c 0.0055,0 0.01263,1.7667e-4 0.01843,0 4.172925,-0.14472812 14.5902433,-8.99391713 14.5902433,-15.30871363 l -0.092111,-9.174176 c 0,-2.426194 -9.1392183,-6.078905 -14.3876013,-6.171375 -0.06767,-0.0013 -0.154702,0 -0.221066,0 -0.04425,0 -0.08521,-6.67e-4 -0.128954,0 z" id="path4084-8" inkscape:label="base sombra"/>
      <path sodipodi:nodetypes="ccccssccccsc" inkscape:connector-curvature="0" style="display:inline;opacity:1;vector-effect:none;fill:url(#linearGradient4235-1);fill-opacity:1;stroke:none;stroke-width:0.59059781;stroke-linecap:butt;stroke-linejoin:miter;stroke-miterlimit:4;stroke-dasharray:none;stroke-dashoffset:0;stroke-opacity:0.07853406" d="m -16.184529,-31.35516 c -5.258699,0.09453 -14.432422,3.752695 -14.432422,6.182686 l -0.05537,9.190982 c 0,6.3263673 10.417951,15.19176979 14.598523,15.33676125 0.0061,2.9667e-4 0.01227,0 0.01847,0 h 0.09228 c 0.0054,0 0.01267,1.8e-4 0.01847,0 4.180582,-0.14499146 14.6169833,-9.01039395 14.6169833,-15.33676125 l -0.092278,-9.190982 c 0,-2.430641 -9.1559613,-6.090045 -14.4139643,-6.182686 -0.06779,-0.0013 -0.154985,0 -0.221469,0 -0.04433,0 -0.08537,-6.66e-4 -0.129192,0 z" id="path3123-9" inkscape:label="base"/>
      <path inkscape:label="base" id="path39733-6" d="m -16.188812,-31.332913 c -5.2587,0.09452 -14.432422,3.752695 -14.432422,6.182686 l -0.05537,9.190982 c 0,6.3263672 10.417952,15.19176968 14.598524,15.33676114 0.0061,2.9667e-4 0.01227,0 0.01847,0 h 0.09228 c 0.0054,0 0.01267,1.8e-4 0.01847,0 4.180582,-0.14499146 14.6169839,-9.01039394 14.6169839,-15.33676114 l -0.092278,-9.190982 c 0,-2.430641 -9.1559619,-6.090045 -14.4139649,-6.182686 -0.06779,-0.0013 -0.154985,0 -0.221469,0 -0.04433,0 -0.08537,-6.67e-4 -0.129191,0 z" style="display:inline;opacity:1;vector-effect:none;fill:url(#linearGradient39735-9);fill-opacity:1;stroke:none;stroke-width:0.59059781;stroke-linecap:butt;stroke-linejoin:miter;stroke-miterlimit:4;stroke-dasharray:none;stroke-dashoffset:0;stroke-opacity:0.07853406" inkscape:connector-curvature="0" sodipodi:nodetypes="ccccssccccsc"/>
      <path style="display:inline;opacity:1;vector-effect:none;fill:#a3eaf1;fill-opacity:0.18681317;stroke:none;stroke-width:0.59059781;stroke-linecap:butt;stroke-linejoin:miter;stroke-miterlimit:4;stroke-dasharray:none;stroke-dashoffset:0;stroke-opacity:0.07853406" d="m -16.184219,-31.355046 c -5.258699,0.09452 -14.432438,3.752361 -14.432438,6.182352 l -0.05534,9.191499 c 0,2.655423 1.837512,5.756598 4.276736,8.4740452 A 28.036977,26.350543 0 0 1 -1.5330315,-25.658376 c -1.0569039,-2.403324 -9.3830745,-5.610023 -14.3009235,-5.69667 -0.06779,-0.0013 -0.154875,0 -0.221359,0 -0.04433,0 -0.08508,-6.67e-4 -0.128905,0 z" id="path4259-43" inkscape:connector-curvature="0"/>
      <path style="color:#000000;clip-rule:nonzero;display:inline;overflow:visible;visibility:visible;opacity:1;isolation:auto;mix-blend-mode:normal;color-interpolation:sRGB;color-interpolation-filters:linearRGB;solid-color:#000000;solid-opacity:1;vector-effect:none;fill:none;fill-opacity:0.57142861;fill-rule:nonzero;stroke:#000000;stroke-width:0.50000501;stroke-linecap:square;stroke-linejoin:miter;stroke-miterlimit:3.70000005;stroke-dasharray:none;stroke-dashoffset:0;stroke-opacity:0.2857143;marker:none;marker-start:none;marker-mid:none;marker-end:none;paint-order:markers stroke fill;color-rendering:auto;image-rendering:auto;shape-rendering:auto;text-rendering:auto;enable-background:accumulate" d="m -8.4919615,-24.7113 c 3.9899935,3.989994 0.3496036,1.872776 0.3496036,7.515479 0,5.642701 3.6403899,3.525483 -0.3496036,7.515476 -3.9899965,3.9899968 -1.8727785,0.3496069 -7.5154825,0.3496069 -5.6427,0 -3.525482,3.6403899 -7.515475,-0.3496036 -3.989997,-3.9899963 -0.349607,-1.8727783 -0.349607,-7.5154793 3e-6,-5.642706 -3.64039,-3.525485 0.349607,-7.515482 3.989993,-3.989993 1.872775,-0.349603 7.515475,-0.349603 5.642704,0 3.525486,-3.64039 7.5154825,0.349606 z" id="path4257-3" inkscape:connector-curvature="0"/>
      <path style="color:#000000;clip-rule:nonzero;display:inline;overflow:visible;visibility:visible;opacity:1;isolation:auto;mix-blend-mode:normal;color-interpolation:sRGB;color-interpolation-filters:linearRGB;solid-color:#000000;solid-opacity:1;vector-effect:none;fill:#d5d5d5;fill-opacity:1;fill-rule:nonzero;stroke:none;stroke-width:0.66667336;stroke-linecap:square;stroke-linejoin:miter;stroke-miterlimit:3.70000005;stroke-dasharray:none;stroke-dashoffset:0;stroke-opacity:0.98901098;marker:none;marker-start:none;marker-mid:none;marker-end:none;paint-order:markers stroke fill;color-rendering:auto;image-rendering:auto;shape-rendering:auto;text-rendering:auto;enable-background:accumulate" d="m -8.4919615,-24.7113 c 3.9899935,3.989994 0.3496036,1.872776 0.3496036,7.515479 0,5.642701 3.6403899,3.525483 -0.3496036,7.515476 -3.9899965,3.9899968 -1.8727785,0.3496069 -7.5154825,0.3496069 -5.6427,0 -3.525482,3.6403899 -7.515475,-0.3496036 -3.989997,-3.9899963 -0.349607,-1.8727783 -0.349607,-7.5154793 3e-6,-5.642706 -3.64039,-3.525485 0.349607,-7.515482 3.989993,-3.989993 1.872775,-0.349603 7.515475,-0.349603 5.642704,0 3.525486,-3.64039 7.5154825,0.349606 z" id="path4255-3" inkscape:connector-curvature="0"/>
      <path style="display:inline;fill:#000000;fill-opacity:0.35714291;stroke:none;stroke-width:2.60273385;stroke-miterlimit:4;stroke-dasharray:none;stroke-opacity:1" d="m -15.999974,-24.893058 c 4.563233,0 8.2368799,3.673647 8.2368799,8.236879 0,4.56323 -3.6736469,8.23688 -8.2368799,8.23688 -4.563232,0 -8.236879,-3.67365 -8.236879,-8.23688 0,-4.563232 3.673647,-8.236879 8.236879,-8.236879 z" id="rect4151-86" inkscape:connector-curvature="0"/>
      <path style="display:inline;fill:url(#linearGradient4147-17);fill-opacity:1;stroke:none;stroke-width:2.60273385;stroke-miterlimit:4;stroke-dasharray:none;stroke-opacity:1" d="m -15.999974,-25.247512 c 4.563233,0 8.2368799,3.673647 8.2368799,8.236877 0,4.563232 -3.6736469,8.2368791 -8.2368799,8.2368791 -4.563232,0 -8.236879,-3.6736471 -8.236879,-8.2368791 0,-4.56323 3.673647,-8.236877 8.236879,-8.236877 z" id="rect4086-04" inkscape:connector-curvature="0"/>
      <path style="color:#000000;clip-rule:nonzero;display:inline;overflow:visible;visibility:visible;opacity:1;isolation:auto;mix-blend-mode:normal;color-interpolation:sRGB;color-interpolation-filters:linearRGB;solid-color:#000000;solid-opacity:1;fill:#000000;fill-opacity:0.18681317;fill-rule:nonzero;stroke:none;stroke-width:0.07904984;stroke-linecap:round;stroke-linejoin:miter;stroke-miterlimit:4;stroke-dasharray:none;stroke-dashoffset:0;stroke-opacity:1;marker:none;marker-start:none;marker-mid:none;marker-end:none;paint-order:normal;color-rendering:auto;image-rendering:auto;shape-rendering:auto;text-rendering:auto;enable-background:accumulate" d="m -11.905512,-17.000172 a 4.0944621,4.0944621 0 0 1 -4.094462,4.094462 4.0944621,4.0944621 0 0 1 -4.094462,-4.094462 4.0944621,4.0944621 0 0 1 4.094462,-4.094462 4.0944621,4.0944621 0 0 1 4.094462,4.094462 z" id="circle4718-8" inkscape:connector-curvature="0"/>
      <path style="color:#000000;clip-rule:nonzero;display:inline;overflow:visible;visibility:visible;opacity:1;isolation:auto;mix-blend-mode:normal;color-interpolation:sRGB;color-interpolation-filters:linearRGB;solid-color:#000000;solid-opacity:1;fill:#494949;fill-opacity:1;fill-rule:nonzero;stroke:none;stroke-width:0.40167072;stroke-linecap:round;stroke-linejoin:miter;stroke-miterlimit:4;stroke-dasharray:none;stroke-dashoffset:0;stroke-opacity:0.40659341;marker:none;marker-start:none;marker-mid:none;marker-end:none;paint-order:normal;color-rendering:auto;image-rendering:auto;shape-rendering:auto;text-rendering:auto;enable-background:accumulate" d="m -17,-22 h 2 v 6 l -1,2 1,1 v 1 h -2 v -6 l 0.779528,-2 L -17,-21 Z" id="rect5850-88" inkscape:connector-curvature="0" sodipodi:nodetypes="ccccccccccc" inkscape:label="llave ojo"/>
      <path inkscape:connector-curvature="0" id="path5815-77" d="m -15.973227,-31.355446 v 30.71080858 h 0.0102 c 0.0054,0 0.01203,1.7667e-4 0.01783,0 4.180582,-0.14499145 14.6172869,-9.01057068 14.6172869,-15.33693458 l -0.091707,-9.191209 c 0,-2.430641 -9.1567579,-6.090024 -14.4147589,-6.182665 -0.04271,-6.67e-4 -0.09075,-2.47e-4 -0.138838,0 z" style="display:inline;opacity:0.43859648;fill:url(#linearGradient5819-5);fill-opacity:1;stroke:none;stroke-width:0.59059781;stroke-opacity:0.07853406" inkscape:label="base derecho"/>
      <path id="path4706-6" d="m -16.180352,-31.00781 c -5.139709,0.09239 -14.105859,3.667781 -14.105859,6.042788 l -0.05411,8.98302 c 0,6.1832192 10.182219,14.8480263 14.268201,14.98973442 0.006,2.9e-4 0.01197,0 0.01803,0 h 0.09019 c 0.0054,0 0.01237,1.7334e-4 0.01803,0 4.085977,-0.14170812 14.2862366,-8.80651522 14.2862366,-14.98973442 l -0.090191,-8.98302 c 0,-2.375641 -8.9487896,-5.952243 -14.0878186,-6.042788 -0.06625,-0.0013 -0.151478,0 -0.216455,0 -0.04333,0 -0.08344,-6.66e-4 -0.126268,0 z" style="display:inline;fill:none;fill-opacity:1;stroke:url(#linearGradient10167-5);stroke-width:1.31693149;stroke-miterlimit:4;stroke-dasharray:none;stroke-opacity:1" inkscape:connector-curvature="0" sodipodi:nodetypes="ccccssccccsc" inkscape:label="base borde blanco"/>
      <path style="color:#000000;font-style:normal;font-variant:normal;font-weight:normal;font-stretch:normal;font-size:medium;line-height:normal;font-family:sans-serif;font-variant-ligatures:normal;font-variant-position:normal;font-variant-caps:normal;font-variant-numeric:normal;font-variant-alternates:normal;font-feature-settings:normal;text-indent:0;text-align:start;text-decoration:none;text-decoration-line:none;text-decoration-style:solid;text-decoration-color:#000000;letter-spacing:normal;word-spacing:normal;text-transform:none;writing-mode:lr-tb;direction:ltr;text-orientation:mixed;dominant-baseline:auto;baseline-shift:baseline;text-anchor:start;white-space:normal;shape-padding:0;clip-rule:nonzero;display:inline;overflow:visible;visibility:visible;opacity:1;isolation:auto;mix-blend-mode:normal;color-interpolation:sRGB;color-interpolation-filters:linearRGB;solid-color:#000000;solid-opacity:1;vector-effect:none;fill:#060606;fill-opacity:0.45054985;fill-rule:nonzero;stroke:none;stroke-width:1.31693149;stroke-linecap:butt;stroke-linejoin:miter;stroke-miterlimit:4;stroke-dasharray:none;stroke-dashoffset:0;stroke-opacity:1;color-rendering:auto;image-rendering:auto;shape-rendering:auto;text-rendering:auto;enable-background:accumulate" d="m -16.188779,-31.332913 0.0085,0.983733 -0.0065,-0.983733 c -6.67e-4,0 -0.0013,-6e-6 -0.002,0 z m 0.01757,0.983733 c -0.0038,7e-5 -0.0079,6.67e-4 -0.01173,6.67e-4 l 0.0027,0.332687 -0.0033,-0.332687 c -2.423555,0.04686 -5.911833,0.94161 -8.724045,2.113955 -1.408897,0.587336 -2.654556,1.245689 -3.509802,1.868508 -0.855242,0.62282 -1.210298,1.221613 -1.210298,1.401058 v 0.002 l -0.05404,8.98121 c 0,0.01107 0.002,0.02277 0.002,0.03385 l 0.05208,-8.681727 v -0.002 c 0,-0.179446 0.355057,-0.778238 1.210299,-1.401058 0.855245,-0.622819 2.100905,-1.281173 3.509802,-1.868509 2.816878,-1.174291 6.312387,-2.07049 8.736415,-2.114604 6.66e-4,-10e-6 0.002,10e-6 0.0027,0 0.0305,-3.34e-4 0.06628,0 0.114585,0 0.07286,0 0.156491,-10e-4 0.205082,0 2.423558,0.0427 5.9153727,0.938583 8.7286043,2.113304 1.4066142,0.58736 2.65035,1.246273 3.5039386,1.869159 0.8535919,0.622883 1.2083455,1.221189 1.2083455,1.401708 v 0.0033 l 0.087241,8.699957 c 1.967e-4,-0.0173 0.00267,-0.03551 0.00267,-0.05274 l -0.089818,-8.98057 v -0.0033 c 0,-0.180516 -0.3547569,-0.778822 -1.2083455,-1.401705 -0.8535886,-0.622872 -2.0973277,-1.281789 -3.5039419,-1.869148 -2.8132283,-1.174719 -6.305043,-2.070601 -8.728601,-2.113305 -0.04859,-10e-4 -0.132221,0 -0.205082,0 -0.04831,0 -0.08409,-3.33e-4 -0.114585,0 -6.66e-4,10e-6 -0.002,-7e-6 -0.0027,0 z" id="path4098-4" inkscape:connector-curvature="0" sodipodi:nodetypes="cccccccccsssccccsssccscsssccccscscsccc" inkscape:label="base borde blanco sombra"/>
      <path style="display:inline;fill:#ffffff;fill-opacity:0.75824178;stroke:none;stroke-width:2.60273385;stroke-miterlimit:4;stroke-dasharray:none;stroke-opacity:1" d="m -15.999974,-25.247565 c -4.563232,0 -8.237063,3.673834 -8.237063,8.237063 0,0.05591 0.0035,0.111034 0.0046,0.166668 0.0885,-4.485378 3.725181,-8.070394 8.232506,-8.070394 4.507326,0 8.1440056,3.585016 8.2325065,8.070394 10e-4,-0.05563 0.00457,-0.110761 0.00457,-0.166668 0,-4.563229 -3.6738305,-8.237063 -8.2370635,-8.237063 z" id="path1323-30" inkscape:connector-curvature="0"/>
    </g>
  </g>
</svg>