<?xml version="1.0" encoding="UTF-8" standalone="yes"?>
<svg xmlns:dc="http://purl.org/dc/elements/1.1/" xmlns:cc="http://creativecommons.org/ns#" xmlns:rdf="http://www.w3.org/1999/02/22-rdf-syntax-ns#" xmlns:svg="http://www.w3.org/2000/svg" xmlns="http://www.w3.org/2000/svg" xmlns:xlink="http://www.w3.org/1999/xlink" xmlns:sodipodi="http://sodipodi.sourceforge.net/DTD/sodipodi-0.dtd" xmlns:inkscape="http://www.inkscape.org/namespaces/inkscape" height="32" viewBox="0 0 32 32" width="32" id="svg2" version="1.1" inkscape:version="0.92.2 5c3e80d, 2017-08-06" sodipodi:docname="org.gnome.ChromeGnomeShell.svg" enable-background="new" folder="32">
  <title id="title4675">Template icons dark</title>
  <metadata id="metadata24">
    <rdf:RDF>
      <cc:Work rdf:about="">
        <dc:format>image/svg+xml</dc:format>
        <dc:type rdf:resource="http://purl.org/dc/dcmitype/StillImage"/>
        <dc:title>Template icons dark</dc:title>
        <dc:date>17/05/13</dc:date>
        <dc:creator>
          <cc:Agent>
            <dc:title>wfpaisa</dc:title>
          </cc:Agent>
        </dc:creator>
        <dc:rights>
          <cc:Agent>
            <dc:title>License: GPLv3</dc:title>
          </cc:Agent>
        </dc:rights>
        <dc:language>es-en</dc:language>
        <dc:subject>
          <rdf:Bag>
            <rdf:li>plane-icon-theme</rdf:li>
          </rdf:Bag>
        </dc:subject>
        <dc:description>Template for create set icons</dc:description>
        <cc:license rdf:resource="https://www.gnu.org/licenses/gpl-3.0.en.html"/>
      </cc:Work>
    </rdf:RDF>
  </metadata>
  <defs id="defs22">
    <linearGradient inkscape:collect="always" id="linearGradient24388">
      <stop style="stop-color:#e9e9e9;stop-opacity:1" offset="0" id="stop24384"/>
      <stop style="stop-color:#ffffff;stop-opacity:1" offset="1" id="stop24386"/>
    </linearGradient>
    <linearGradient inkscape:collect="always" xlink:href="#linearGradient24388" id="linearGradient24390" x1="168" y1="201.74074" x2="168" y2="114.33071" gradientUnits="userSpaceOnUse"/>
    <linearGradient gradientTransform="matrix(0.17390774,0,0,0.17390774,-91.825276,-91.825242)" inkscape:collect="always" xlink:href="#linearGradient24388" id="linearGradient24390-3" x1="168" y1="201.74074" x2="168" y2="114.33071" gradientUnits="userSpaceOnUse"/>
    <linearGradient gradientTransform="matrix(0.26087493,0,0,0.26087493,-85.740023,-85.739992)" inkscape:collect="always" xlink:href="#linearGradient24388" id="linearGradient24390-35" x1="168" y1="201.74074" x2="168" y2="114.33071" gradientUnits="userSpaceOnUse"/>
    <linearGradient gradientTransform="matrix(0.34044067,0,0,0.34044067,-70.470159,-70.471989)" inkscape:collect="always" xlink:href="#linearGradient24388" id="linearGradient24390-1" x1="168" y1="201.74074" x2="168" y2="114.33071" gradientUnits="userSpaceOnUse"/>
    <linearGradient gradientTransform="matrix(0.51065451,0,0,0.51065451,-57.704463,-57.703546)" inkscape:collect="always" xlink:href="#linearGradient24388" id="linearGradient24390-6" x1="168" y1="201.74074" x2="168" y2="114.33071" gradientUnits="userSpaceOnUse"/>
    <linearGradient gradientTransform="matrix(0.68086833,0,0,0.68086833,-28.938763,-28.939647)" inkscape:collect="always" xlink:href="#linearGradient24388" id="linearGradient24390-18" x1="168" y1="201.74074" x2="168" y2="114.33071" gradientUnits="userSpaceOnUse"/>
    <linearGradient gradientTransform="matrix(1.2766363,0,0,1.2766363,67.738053,67.738821)" inkscape:collect="always" xlink:href="#linearGradient24388" id="linearGradient24390-37" x1="168" y1="201.74074" x2="168" y2="114.33071" gradientUnits="userSpaceOnUse"/>
  </defs>
  <sodipodi:namedview pagecolor="#383c4a" bordercolor="#ffffff" borderopacity="0.62745098" objecttolerance="4" gridtolerance="10" guidetolerance="4" inkscape:pageopacity="0" inkscape:pageshadow="2" inkscape:window-width="640" inkscape:window-height="480" id="namedview20" showgrid="true" inkscape:zoom="5.8456083" inkscape:cx="271.48334" inkscape:cy="-238.29924" inkscape:current-layer="layer12" inkscape:snap-smooth-nodes="false" showguides="true" borderlayer="true" inkscape:showpageshadow="false" inkscape:guide-bbox="true" guidecolor="#bd4fff" guideopacity="0.78431373" inkscape:snap-nodes="true" inkscape:lockguides="false" fit-margin-top="0" fit-margin-left="0" fit-margin-right="0" fit-margin-bottom="0" guidehicolor="#ff0101" guidehiopacity="0.78431373" inkscape:snap-page="true" inkscape:object-nodes="true" inkscape:snap-bbox="true" inkscape:snap-global="true" inkscape:snap-object-midpoints="false" inkscape:snap-bbox-edge-midpoints="false">
    <inkscape:grid type="xygrid" id="grid4171" empspacing="4" dotted="false" originx="2.7755576e-17" originy="0" spacingx="1" spacingy="1" color="#5a5a5a" opacity="0.23529412" empcolor="#5a5a5a" empopacity="0.47058824" visible="true"/>
    <inkscape:grid type="axonomgrid" id="grid4699" units="mm" empspacing="4" color="#5a5a5a" opacity="0.23529412" empcolor="#5a5a5a" empopacity="0.47058824" gridanglex="45" gridanglez="45" spacingy="3.7795276" visible="false" originx="1.3228346" originy="1.3228346"/>
    <sodipodi:guide position="48,0" orientation="1,0" id="guide4568" inkscape:locked="false" inkscape:label="" inkscape:color="rgb(189,79,255)"/>
    <sodipodi:guide position="111.99996,-3.9999999e-05" orientation="0,1" id="guide4570" inkscape:locked="false" inkscape:label="" inkscape:color="rgb(189,79,255)"/>
    <sodipodi:guide position="0,0" orientation="1,0" id="guide4572" inkscape:locked="false" inkscape:label="" inkscape:color="rgb(189,79,255)"/>
    <sodipodi:guide position="0,48" orientation="0,1" id="guide4574" inkscape:locked="false" inkscape:label="" inkscape:color="rgb(189,79,255)"/>
    <sodipodi:guide position="0,80" orientation="0,1" id="guide4576" inkscape:locked="false" inkscape:label="" inkscape:color="rgb(189,79,255)"/>
    <sodipodi:guide position="-32,48" orientation="1,0" id="guide4578" inkscape:locked="false" inkscape:label="" inkscape:color="rgb(189,79,255)"/>
    <sodipodi:guide position="-32,104" orientation="0,1" id="guide4580" inkscape:locked="false" inkscape:label="" inkscape:color="rgb(189,79,255)"/>
    <sodipodi:guide position="-56,80" orientation="1,0" id="guide4582" inkscape:locked="false" inkscape:label="" inkscape:color="rgb(189,79,255)"/>
    <sodipodi:guide position="48,-64" orientation="0,1" id="guide4584" inkscape:locked="false" inkscape:label="" inkscape:color="rgb(189,79,255)"/>
    <sodipodi:guide position="0,0" orientation="-0.70710678,0.70710678" id="guide4588" inkscape:locked="false" inkscape:label="" inkscape:color="rgb(189,79,255)"/>
    <sodipodi:guide position="-56,80" orientation="-0.70710678,0.70710678" id="guide4573" inkscape:locked="false" inkscape:label="" inkscape:color="rgb(189,79,255)"/>
    <sodipodi:guide position="-32,48" orientation="-0.70710678,0.70710678" id="guide4575" inkscape:locked="false" inkscape:label="" inkscape:color="rgb(189,79,255)"/>
    <sodipodi:guide position="48,-64" orientation="-0.70710678,0.70710678" id="guide4577" inkscape:locked="false" inkscape:label="" inkscape:color="rgb(189,79,255)"/>
    <sodipodi:guide position="47.999962,0" orientation="0.70710678,0.70710678" id="guide4697" inkscape:locked="false" inkscape:label="" inkscape:color="rgb(189,79,255)"/>
    <sodipodi:guide position="207.99995,-288" orientation="0,1" id="guide7833" inkscape:locked="false"/>
    <sodipodi:guide position="335.99994,-288" orientation="1,0" id="guide7835" inkscape:locked="false" inkscape:label="" inkscape:color="rgb(189,79,255)"/>
    <sodipodi:guide position="111.99996,-64" orientation="1,0" id="guide7915" inkscape:locked="false"/>
    <sodipodi:guide position="111.99996,-160" orientation="0,1" id="guide7917" inkscape:locked="false"/>
    <sodipodi:guide position="207.99996,-160" orientation="1,0" id="guide7919" inkscape:locked="false"/>
    <sodipodi:guide position="111.99996,-160" orientation="-0.70710678,0.70710678" id="guide7921" inkscape:locked="false" inkscape:label="" inkscape:color="rgb(189,79,255)"/>
    <sodipodi:guide position="207.99996,-288" orientation="-0.70710678,0.70710678" id="guide7923" inkscape:locked="false" inkscape:label="" inkscape:color="rgb(189,79,255)"/>
    <sodipodi:guide position="-72,104" orientation="1,0" id="guide7824" inkscape:locked="false"/>
    <sodipodi:guide position="-56,120" orientation="0,1" id="guide7826" inkscape:locked="false"/>
    <sodipodi:guide position="-72,104" orientation="-0.70710678,0.70710678" id="guide7828" inkscape:locked="false" inkscape:label="" inkscape:color="rgb(189,79,255)"/>
  </sodipodi:namedview>
  <g style="display:inline" inkscape:label="icon_32" id="g7816" inkscape:groupmode="layer" transform="translate(32,32)">
    <g style="display:none" inkscape:label="frame" id="g7802" inkscape:groupmode="layer">
      <rect style="color:#000000;clip-rule:nonzero;display:block;overflow:visible;visibility:visible;opacity:1;isolation:auto;mix-blend-mode:normal;color-interpolation:sRGB;color-interpolation-filters:linearRGB;solid-color:#000000;solid-opacity:1;vector-effect:none;fill:#000000;fill-opacity:1;fill-rule:nonzero;stroke:#ff24f7;stroke-width:0;stroke-linecap:square;stroke-linejoin:miter;stroke-miterlimit:4;stroke-dasharray:none;stroke-dashoffset:0;stroke-opacity:0.99481865;marker:none;marker-start:none;marker-mid:none;marker-end:none;paint-order:normal;color-rendering:auto;image-rendering:auto;shape-rendering:auto;text-rendering:auto;enable-background:accumulate" id="rect7792" width="32" height="32" x="-32" y="-32" inkscape:label="frame_32"/>
      <text inkscape:label="txt_32" id="text7796" y="-11.470053" x="-23.799042" style="font-size:12.4444437px;line-height:1000%;font-family:sans-serif;letter-spacing:0px;word-spacing:0px;display:inline;opacity:1;fill:#ffffff;fill-opacity:1;stroke:none;stroke-width:0.07444605px;stroke-linecap:butt;stroke-linejoin:miter;stroke-opacity:1" xml:space="preserve">
        <tspan id="tspan7794" style="font-size:12.4444437px;fill:#ffffff;fill-opacity:1;stroke:none;stroke-width:0.07444605px" y="-11.470053" x="-23.799042" sodipodi:role="line">32</tspan>
      </text>
    </g>
    <g style="display:inline" inkscape:label="icon" id="g7814" inkscape:groupmode="layer">
      <path inkscape:connector-curvature="0" id="path24382-0" d="m -17.447642,-0.69918729 c -2.191178,-0.72791321 -3.743976,-1.71657331 -5.491465,-3.49640051 -1.953625,-1.9897668 -3.10392,-4.0718713 -3.58821,-6.4948592 -0.669946,-3.351853 1.108151,-6.424405 4.858211,-8.395008 4.525484,-2.37807 10.712616,-2.602829 12.9936668,-0.472024 0.6991868,0.653135 0.8536209,1.028665 0.8536209,2.075694 0,2.000085 -1.1043215,3.238642 -5.4216677,6.080747 -5.21487,3.4329454 -5.759691,4.2735513 -3.945554,6.0876881 0.741882,0.7418815 1.220912,0.976949 1.990839,0.976949 0.996068,0 1.893715,-0.5742689 1.940907,-1.2417131 0.138273,-1.955675 0.432462,-2.3171821 2.285902,-2.8090031 1.5555045,-0.4127707 3.3221873,-0.1485956 3.6976321,0.5529165 0.4289246,0.801462 -0.5998224,3.374567 -1.8762741,4.6929371 -2.381161,2.45936038 -5.490702,3.37453298 -8.297608,2.44207621 z M -27.516273,-19.663319 c -1.568867,-1.568863 -1.690939,-3.619453 -0.254439,-4.273963 0.632655,-0.288255 0.818096,-0.235204 1.475419,0.422119 1.247885,1.247892 1.262643,4.81186 0.01992,4.81186 -0.154482,0 -0.712893,-0.432006 -1.240903,-0.960016 z m 4.377358,-3.0014 c -0.580291,-0.641216 -1.348512,-2.449412 -1.348512,-3.174057 0,-0.921063 1.103845,-2.059346 1.997038,-2.059346 1.072671,0 1.509708,0.59492 1.671121,2.274739 0.184533,1.92048 -0.353288,3.472025 -1.203532,3.472025 -0.358338,0 -0.860583,-0.231009 -1.116115,-0.513361 z m 12.093055,-0.07955 c -1.362753,-0.794265 -1.169757,-4.446043 0.345534,-6.537836 2.1261679,-2.935096 7.4759138,-3.243334 7.4759138,-0.430739 0,1.906641 -2.7548561,5.598887 -4.9818147,6.67693 -1.3537521,0.655341 -2.0864991,0.730609 -2.8396331,0.291645 z m -6.836177,-1.777607 c -1.609951,-2.639413 -0.623055,-5.962267 1.770819,-5.962267 1.12711,0 1.680622,0.702397 1.680622,2.13269 0,2.212674 -1.243656,4.763429 -2.322489,4.763429 -0.322646,0 -0.80038,-0.39518 -1.128952,-0.933852 z" style="display:inline;fill:none;fill-opacity:1;stroke:#000000;stroke-width:0.68088132;stroke-miterlimit:4;stroke-dasharray:none;stroke-opacity:0.17582421"/>
      <path style="display:inline;fill:url(#linearGradient24390-1);fill-opacity:1;stroke-width:0.28733805" d="m -17.447642,-0.69918729 c -2.191178,-0.72791321 -3.743976,-1.71657331 -5.491465,-3.49640051 -1.953625,-1.9897668 -3.10392,-4.0718713 -3.58821,-6.4948592 -0.669946,-3.351853 1.108151,-6.424405 4.858211,-8.395008 4.525484,-2.37807 10.712616,-2.602829 12.9936668,-0.472024 0.6991868,0.653135 0.8536209,1.028665 0.8536209,2.075694 0,2.000085 -1.1043215,3.238642 -5.4216677,6.080747 -5.21487,3.4329454 -5.759691,4.2735513 -3.945554,6.0876881 0.741882,0.7418815 1.220912,0.976949 1.990839,0.976949 0.996068,0 1.893715,-0.5742689 1.940907,-1.2417131 0.138273,-1.955675 0.432462,-2.3171821 2.285902,-2.8090031 1.5555045,-0.4127707 3.3221873,-0.1485956 3.6976321,0.5529165 0.4289246,0.801462 -0.5998224,3.374567 -1.8762741,4.6929371 -2.381161,2.45936038 -5.490702,3.37453298 -8.297608,2.44207621 z M -27.516273,-19.663319 c -1.568867,-1.568863 -1.690939,-3.619453 -0.254439,-4.273963 0.632655,-0.288255 0.818096,-0.235204 1.475419,0.422119 1.247885,1.247892 1.262643,4.81186 0.01992,4.81186 -0.154482,0 -0.712893,-0.432006 -1.240903,-0.960016 z m 4.377358,-3.0014 c -0.580291,-0.641216 -1.348512,-2.449412 -1.348512,-3.174057 0,-0.921063 1.103845,-2.059346 1.997038,-2.059346 1.072671,0 1.509708,0.59492 1.671121,2.274739 0.184533,1.92048 -0.353288,3.472025 -1.203532,3.472025 -0.358338,0 -0.860583,-0.231009 -1.116115,-0.513361 z m 12.093055,-0.07955 c -1.362753,-0.794265 -1.169757,-4.446043 0.345534,-6.537836 2.1261679,-2.935096 7.4759138,-3.243334 7.4759138,-0.430739 0,1.906641 -2.7548561,5.598887 -4.9818147,6.67693 -1.3537521,0.655341 -2.0864991,0.730609 -2.8396331,0.291645 z m -6.836177,-1.777607 c -1.609951,-2.639413 -0.623055,-5.962267 1.770819,-5.962267 1.12711,0 1.680622,0.702397 1.680622,2.13269 0,2.212674 -1.243656,4.763429 -2.322489,4.763429 -0.322646,0 -0.80038,-0.39518 -1.128952,-0.933852 z" id="path24380-93" inkscape:connector-curvature="0"/>
    </g>
  </g>
</svg>