<?xml version="1.0" encoding="UTF-8" standalone="yes"?>
<svg xmlns:osb="http://www.openswatchbook.org/uri/2009/osb" xmlns:dc="http://purl.org/dc/elements/1.1/" xmlns:cc="http://creativecommons.org/ns#" xmlns:rdf="http://www.w3.org/1999/02/22-rdf-syntax-ns#" xmlns:svg="http://www.w3.org/2000/svg" xmlns="http://www.w3.org/2000/svg" xmlns:xlink="http://www.w3.org/1999/xlink" xmlns:sodipodi="http://sodipodi.sourceforge.net/DTD/sodipodi-0.dtd" xmlns:inkscape="http://www.inkscape.org/namespaces/inkscape" height="64" viewBox="0 0 64 64" width="64" id="svg2" version="1.1" inkscape:version="0.92.1 r" sodipodi:docname="font-x-generic.svg" enable-background="new" folder="64">
  <title id="title4675">Template icons dark</title>
  <metadata id="metadata24">
    <rdf:RDF>
      <cc:Work rdf:about="">
        <dc:format>image/svg+xml</dc:format>
        <dc:type rdf:resource="http://purl.org/dc/dcmitype/StillImage"/>
        <dc:title>Template icons dark</dc:title>
        <dc:date>17/05/13</dc:date>
        <dc:creator>
          <cc:Agent>
            <dc:title>wfpaisa</dc:title>
          </cc:Agent>
        </dc:creator>
        <dc:rights>
          <cc:Agent>
            <dc:title>License: GPLv3</dc:title>
          </cc:Agent>
        </dc:rights>
        <dc:language>es-en</dc:language>
        <dc:subject>
          <rdf:Bag>
            <rdf:li>plane-icon-theme</rdf:li>
          </rdf:Bag>
        </dc:subject>
        <dc:description>Template for create set icons</dc:description>
        <cc:license rdf:resource="https://www.gnu.org/licenses/gpl-3.0.en.html"/>
      </cc:Work>
    </rdf:RDF>
  </metadata>
  <defs id="defs22">
    <linearGradient id="Pestana-sombra-3" osb:paint="solid">
      <stop style="stop-color:#000000;stop-opacity:0.19553073;" offset="0" id="stop8273"/>
    </linearGradient>
    <linearGradient id="Hoja-brillo-8" osb:paint="solid">
      <stop style="stop-color:#ffffff;stop-opacity:0.78212291;" offset="0" id="stop8267"/>
    </linearGradient>
    <linearGradient id="Hoja-sombra-2_-2" osb:paint="solid">
      <stop style="stop-color:#000000;stop-opacity:0.07821229;" offset="0" id="stop8261"/>
    </linearGradient>
    <linearGradient id="Hoja-sombra-1_-9" osb:paint="solid">
      <stop style="stop-color:#000000;stop-opacity:0.15686275;" offset="0" id="stop8255"/>
    </linearGradient>
    <linearGradient id="Pestana-6">
      <stop id="stop7875" offset="0" style="stop-color:#ffffff;stop-opacity:1;"/>
      <stop id="stop7879" offset="1" style="stop-color:#dfdfdf;stop-opacity:1;"/>
    </linearGradient>
    <linearGradient id="Hoja_-5">
      <stop id="stop7831" offset="0" style="stop-color:#f0f0f0;stop-opacity:1;"/>
      <stop id="stop7833" offset="1" style="stop-color:#ffffff;stop-opacity:1"/>
    </linearGradient>
    <linearGradient inkscape:collect="always" xlink:href="#Hoja_-5" id="linearGradient8848" gradientUnits="userSpaceOnUse" gradientTransform="matrix(2.1943448,0,0,2.19615,107.37835,109.17328)" x1="24.116938" y1="4.9307919" x2="24.058121" y2="42.556389"/>
    <linearGradient inkscape:collect="always" xlink:href="#Pestana-6" id="linearGradient8852" gradientUnits="userSpaceOnUse" gradientTransform="matrix(2.5078225,0,0,2.19615,97.006583,108.93197)" x1="33.093815" y1="10.50385" x2="29.903797" y2="14.146588"/>
    <linearGradient inkscape:collect="always" xlink:href="#Hoja_-5" id="linearGradient7823-7" gradientUnits="userSpaceOnUse" x1="24.116938" y1="4.9307919" x2="24.058121" y2="42.556389" gradientTransform="matrix(1.1194338,0,0,1.1203548,-2.9435792,-2.6942142)"/>
    <linearGradient inkscape:collect="always" xlink:href="#Hoja-sombra-2" id="linearGradient7865-3" gradientUnits="userSpaceOnUse" gradientTransform="matrix(1.1194338,0,0,1.1203548,-2.9435792,-2.6942142)" x1="26.072924" y1="18.962273" x2="34.373611" y2="10.815324"/>
    <linearGradient inkscape:collect="always" xlink:href="#Pestana-6" id="linearGradient7825-6" gradientUnits="userSpaceOnUse" x1="34.176132" y1="10.27618" x2="30.758255" y2="13.691247" gradientTransform="matrix(1.2793529,0,0,1.1203548,-8.2346867,-2.8173169)"/>
    <linearGradient inkscape:collect="always" xlink:href="#Hoja_-5" id="linearGradient7909" gradientUnits="userSpaceOnUse" gradientTransform="matrix(1.4628966,0,0,1.4641001,44.91893,46.115528)" x1="24.116938" y1="4.9307919" x2="24.058121" y2="42.556389"/>
    <linearGradient inkscape:collect="always" xlink:href="#Hoja-sombra-2" id="linearGradient7911" gradientUnits="userSpaceOnUse" gradientTransform="matrix(1.4628966,0,0,1.4641001,44.91893,46.115528)" x1="26.072924" y1="18.962273" x2="34.373611" y2="10.815324"/>
    <linearGradient inkscape:collect="always" xlink:href="#Pestana-6" id="linearGradient7913" gradientUnits="userSpaceOnUse" gradientTransform="matrix(1.6718818,0,0,1.4641001,38.00441,45.954658)" x1="34.176132" y1="10.27618" x2="30.758255" y2="13.691247"/>
    <linearGradient inkscape:collect="always" xlink:href="#Hoja-sombra-2" id="linearGradient8850-3" gradientUnits="userSpaceOnUse" gradientTransform="matrix(2.1943448,0,0,2.19615,107.37835,109.17328)" x1="23.980556" y1="23.143555" x2="45.854969" y2="1.2871252"/>
    <linearGradient inkscape:collect="always" xlink:href="#Hoja-sombra-2" id="linearGradient4621" gradientUnits="userSpaceOnUse" gradientTransform="matrix(2.1943448,0,0,2.19615,107.37835,109.17328)" x1="23.980556" y1="23.143555" x2="2.1061459" y2="44.999985"/>
    <linearGradient inkscape:collect="always" xlink:href="#Hoja-sombra-2" id="linearGradient8301" gradientUnits="userSpaceOnUse" gradientTransform="matrix(2.1943448,0,0,2.19615,107.37835,109.17328)" x1="23.980556" y1="23.143555" x2="45.854969" y2="44.999985"/>
    <linearGradient id="Hoja-sombra-2">
      <stop id="stop8303" offset="0" style="stop-color:#000000;stop-opacity:0"/>
      <stop id="stop8305" offset="1" style="stop-color:#000000;stop-opacity:0.10196079"/>
    </linearGradient>
    <linearGradient inkscape:collect="always" xlink:href="#Hoja-sombra-2" id="linearGradient7895" gradientUnits="userSpaceOnUse" gradientTransform="matrix(2.1943448,0,0,2.19615,107.37835,109.17328)" x1="23.980556" y1="23.143555" x2="2.1061459" y2="1.2871252"/>
    <linearGradient inkscape:collect="always" xlink:href="#Hoja_-5" id="linearGradient7818" gradientUnits="userSpaceOnUse" gradientTransform="matrix(0.74628918,0,0,0.74690318,-33.962385,-33.796142)" x1="24.116938" y1="4.9307919" x2="24.058121" y2="42.556389"/>
    <linearGradient inkscape:collect="always" xlink:href="#Pestana-6" id="linearGradient7822" gradientUnits="userSpaceOnUse" gradientTransform="matrix(0.85290191,0,0,0.74690318,-37.489791,-33.878211)" x1="28.713491" y1="15.702977" x2="25.196087" y2="18.581003"/>
    <linearGradient inkscape:collect="always" xlink:href="#Hoja-sombra-1_-9" id="linearGradient8259" x1="125.99999" y1="161.5" x2="193.99999" y2="161.5" gradientUnits="userSpaceOnUse"/>
    <linearGradient inkscape:collect="always" xlink:href="#Hoja-sombra-2_-2" id="linearGradient8265" x1="125" y1="161.49999" x2="195" y2="161.49999" gradientUnits="userSpaceOnUse"/>
    <linearGradient inkscape:collect="always" xlink:href="#Hoja-brillo-8" id="linearGradient8271" x1="126.99999" y1="120.5" x2="168.99999" y2="120.5" gradientUnits="userSpaceOnUse"/>
    <linearGradient inkscape:collect="always" xlink:href="#Pestana-sombra-3" id="linearGradient8277" x1="165.99999" y1="133.47244" x2="192.99999" y2="133.47244" gradientUnits="userSpaceOnUse"/>
    <linearGradient gradientTransform="matrix(1.33333,0,0,1.33333,58.6672,56.167208)" inkscape:collect="always" xlink:href="#Hoja-sombra-2_-2" id="linearGradient8265-7" x1="125" y1="161.49998" x2="195" y2="161.49998" gradientUnits="userSpaceOnUse"/>
    <linearGradient gradientTransform="matrix(1.33333,0,0,1.33333,58.6672,56.167208)" inkscape:collect="always" xlink:href="#Hoja-sombra-1_-9" id="linearGradient8259-9" x1="125.99999" y1="161.5" x2="193.99998" y2="161.5" gradientUnits="userSpaceOnUse"/>
    <linearGradient inkscape:collect="always" xlink:href="#Hoja_-5" id="linearGradient8848-4" gradientUnits="userSpaceOnUse" gradientTransform="matrix(2.9257858,0,0,2.9281927,201.83798,201.73122)" x1="24.116938" y1="4.9307919" x2="24.058121" y2="42.556389"/>
    <linearGradient inkscape:collect="always" xlink:href="#Hoja-sombra-2" id="linearGradient8301-3" gradientUnits="userSpaceOnUse" gradientTransform="matrix(2.9257858,0,0,2.9281927,201.83798,201.73122)" x1="23.980556" y1="23.143555" x2="45.854969" y2="44.999985"/>
    <linearGradient inkscape:collect="always" xlink:href="#Hoja-sombra-2" id="linearGradient4621-0" gradientUnits="userSpaceOnUse" gradientTransform="matrix(2.9257858,0,0,2.9281927,201.83798,201.73122)" x1="23.980556" y1="23.143555" x2="2.1061459" y2="44.999985"/>
    <linearGradient inkscape:collect="always" xlink:href="#Hoja-sombra-2" id="linearGradient8850-3-8" gradientUnits="userSpaceOnUse" gradientTransform="matrix(2.9257858,0,0,2.9281927,201.83798,201.73122)" x1="23.980556" y1="23.143555" x2="45.854969" y2="1.2871252"/>
    <linearGradient inkscape:collect="always" xlink:href="#Hoja-sombra-2" id="linearGradient7895-1" gradientUnits="userSpaceOnUse" gradientTransform="matrix(2.9257858,0,0,2.9281927,201.83798,201.73122)" x1="23.980556" y1="23.143555" x2="2.1061459" y2="1.2871252"/>
    <linearGradient gradientTransform="matrix(1.33333,0,0,1.33333,58.6672,56.167208)" inkscape:collect="always" xlink:href="#Hoja-brillo-8" id="linearGradient8271-9" x1="126.99999" y1="120.5" x2="168.99998" y2="120.5" gradientUnits="userSpaceOnUse"/>
    <linearGradient gradientTransform="matrix(1.33333,0,0,1.33333,58.6672,56.167208)" inkscape:collect="always" xlink:href="#Pestana-sombra-3" id="linearGradient8277-7" x1="165.99998" y1="133.47244" x2="192.99998" y2="133.47244" gradientUnits="userSpaceOnUse"/>
    <linearGradient inkscape:collect="always" xlink:href="#Pestana-6" id="linearGradient8852-2" gradientUnits="userSpaceOnUse" gradientTransform="matrix(3.343755,0,0,2.9281927,188.00898,201.40947)" x1="33.093815" y1="10.50385" x2="29.903797" y2="14.146588"/>
    <linearGradient gradientTransform="matrix(0.33418093,0,0,0.34277768,-69.503435,-71.57129)" inkscape:collect="always" xlink:href="#patron-6" id="linearGradient9428-9" gradientUnits="userSpaceOnUse" x1="188" y1="173.49998" x2="189" y2="173.49998"/>
    <linearGradient id="patron-6" osb:paint="solid">
      <stop style="stop-color:#000000;stop-opacity:0.08379889;" offset="0" id="stop9305"/>
    </linearGradient>
    <linearGradient gradientTransform="matrix(0.5003165,0,0,0.50586389,-56.546906,-57.711743)" inkscape:collect="always" xlink:href="#patron-6" id="linearGradient9428-62" gradientUnits="userSpaceOnUse" x1="188" y1="173.49998" x2="189" y2="173.49998"/>
    <linearGradient gradientTransform="matrix(0.66742097,0,0,0.67482117,-26.771695,-27.999411)" inkscape:collect="always" xlink:href="#patron-6" id="linearGradient9428-62-7" gradientUnits="userSpaceOnUse" x1="188" y1="173.49998" x2="189" y2="173.49998"/>
    <linearGradient gradientTransform="matrix(0.99981922,0,0,1.0002963,0.01735681,-0.05481329)" inkscape:collect="always" xlink:href="#patron-6" id="linearGradient9428-62-2" gradientUnits="userSpaceOnUse" x1="188" y1="173.49998" x2="189" y2="173.49998"/>
    <linearGradient gradientTransform="matrix(1.3339076,0,0,1.3368226,58.573291,55.576961)" inkscape:collect="always" xlink:href="#patron-6" id="linearGradient9428-62-0" gradientUnits="userSpaceOnUse" x1="188" y1="173.49998" x2="189" y2="173.49998"/>
  </defs>
  <sodipodi:namedview pagecolor="#383c4a" bordercolor="#ffffff" borderopacity="0.62745098" objecttolerance="4" gridtolerance="10" guidetolerance="4" inkscape:pageopacity="0" inkscape:pageshadow="2" inkscape:window-width="640" inkscape:window-height="480" id="namedview20" showgrid="false" inkscape:zoom="5.8456082" inkscape:cx="290.54486" inkscape:cy="-231.49736" inkscape:current-layer="layer12" inkscape:snap-smooth-nodes="false" showguides="true" borderlayer="true" inkscape:showpageshadow="false" inkscape:guide-bbox="true" guidecolor="#bd4fff" guideopacity="0.78431373" inkscape:snap-nodes="true" inkscape:lockguides="false" fit-margin-top="0" fit-margin-left="0" fit-margin-right="0" fit-margin-bottom="0" guidehicolor="#ff0101" guidehiopacity="0.78431373" inkscape:snap-page="true" inkscape:object-nodes="true" inkscape:snap-bbox="true" inkscape:snap-global="true" inkscape:snap-object-midpoints="false" inkscape:snap-bbox-edge-midpoints="false">
    <inkscape:grid type="xygrid" id="grid4171" empspacing="4" dotted="false" originx="2.7755576e-17" originy="0" spacingx="1" spacingy="1" color="#5a5a5a" opacity="0.23529412" empcolor="#5a5a5a" empopacity="0.47058824" visible="true"/>
    <inkscape:grid type="axonomgrid" id="grid4699" units="mm" empspacing="4" color="#5a5a5a" opacity="0.23529412" empcolor="#5a5a5a" empopacity="0.47058824" gridanglex="45" gridanglez="45" spacingy="3.7795276" visible="false" originx="1.3228346" originy="1.3228346"/>
    <sodipodi:guide position="48,0" orientation="1,0" id="guide4568" inkscape:locked="false" inkscape:label="" inkscape:color="rgb(189,79,255)"/>
    <sodipodi:guide position="111.99996,-3.9999999e-05" orientation="0,1" id="guide4570" inkscape:locked="false" inkscape:label="" inkscape:color="rgb(189,79,255)"/>
    <sodipodi:guide position="0,0" orientation="1,0" id="guide4572" inkscape:locked="false" inkscape:label="" inkscape:color="rgb(189,79,255)"/>
    <sodipodi:guide position="0,48" orientation="0,1" id="guide4574" inkscape:locked="false" inkscape:label="" inkscape:color="rgb(189,79,255)"/>
    <sodipodi:guide position="0,80" orientation="0,1" id="guide4576" inkscape:locked="false" inkscape:label="" inkscape:color="rgb(189,79,255)"/>
    <sodipodi:guide position="-32,48" orientation="1,0" id="guide4578" inkscape:locked="false" inkscape:label="" inkscape:color="rgb(189,79,255)"/>
    <sodipodi:guide position="-32,104" orientation="0,1" id="guide4580" inkscape:locked="false" inkscape:label="" inkscape:color="rgb(189,79,255)"/>
    <sodipodi:guide position="-56,80" orientation="1,0" id="guide4582" inkscape:locked="false" inkscape:label="" inkscape:color="rgb(189,79,255)"/>
    <sodipodi:guide position="48,-64" orientation="0,1" id="guide4584" inkscape:locked="false" inkscape:label="" inkscape:color="rgb(189,79,255)"/>
    <sodipodi:guide position="0,0" orientation="-0.70710678,0.70710678" id="guide4588" inkscape:locked="false" inkscape:label="" inkscape:color="rgb(189,79,255)"/>
    <sodipodi:guide position="-56,80" orientation="-0.70710678,0.70710678" id="guide4573" inkscape:locked="false" inkscape:label="" inkscape:color="rgb(189,79,255)"/>
    <sodipodi:guide position="-32,48" orientation="-0.70710678,0.70710678" id="guide4575" inkscape:locked="false" inkscape:label="" inkscape:color="rgb(189,79,255)"/>
    <sodipodi:guide position="48,-64" orientation="-0.70710678,0.70710678" id="guide4577" inkscape:locked="false" inkscape:label="" inkscape:color="rgb(189,79,255)"/>
    <sodipodi:guide position="47.999962,0" orientation="0.70710678,0.70710678" id="guide4697" inkscape:locked="false" inkscape:label="" inkscape:color="rgb(189,79,255)"/>
    <sodipodi:guide position="207.99995,-288" orientation="0,1" id="guide7833" inkscape:locked="false"/>
    <sodipodi:guide position="335.99994,-288" orientation="1,0" id="guide7835" inkscape:locked="false" inkscape:label="" inkscape:color="rgb(189,79,255)"/>
    <sodipodi:guide position="111.99996,-64" orientation="1,0" id="guide7915" inkscape:locked="false"/>
    <sodipodi:guide position="111.99996,-160" orientation="0,1" id="guide7917" inkscape:locked="false"/>
    <sodipodi:guide position="207.99996,-160" orientation="1,0" id="guide7919" inkscape:locked="false"/>
    <sodipodi:guide position="111.99996,-160" orientation="-0.70710678,0.70710678" id="guide7921" inkscape:locked="false" inkscape:label="" inkscape:color="rgb(189,79,255)"/>
    <sodipodi:guide position="207.99996,-288" orientation="-0.70710678,0.70710678" id="guide7923" inkscape:locked="false" inkscape:label="" inkscape:color="rgb(189,79,255)"/>
    <sodipodi:guide position="-72,104" orientation="1,0" id="guide7824" inkscape:locked="false"/>
    <sodipodi:guide position="-56,120" orientation="0,1" id="guide7826" inkscape:locked="false"/>
    <sodipodi:guide position="-72,104" orientation="-0.70710678,0.70710678" id="guide7828" inkscape:locked="false" inkscape:label="" inkscape:color="rgb(189,79,255)"/>
  </sodipodi:namedview>
  <g inkscape:groupmode="layer" id="g7907" inkscape:label="icon_64" style="display:inline" transform="translate(-48,-48)">
    <g inkscape:groupmode="layer" id="g7843" inkscape:label="frame" style="display:none">
      <rect inkscape:label="frame_64" y="48" x="48" height="64" width="64" id="rect7837" style="color:#000000;clip-rule:nonzero;display:inline;overflow:visible;visibility:visible;opacity:1;isolation:auto;mix-blend-mode:normal;color-interpolation:sRGB;color-interpolation-filters:linearRGB;solid-color:#000000;solid-opacity:1;vector-effect:none;fill:#000000;fill-opacity:1;fill-rule:nonzero;stroke:#ff24f7;stroke-width:0;stroke-linecap:square;stroke-linejoin:miter;stroke-miterlimit:4;stroke-dasharray:none;stroke-dashoffset:0;stroke-opacity:0.99481865;marker:none;marker-start:none;marker-mid:none;marker-end:none;paint-order:normal;color-rendering:auto;image-rendering:auto;shape-rendering:auto;text-rendering:auto;enable-background:accumulate"/>
      <text xml:space="preserve" style="font-size:16px;line-height:0%;font-family:sans-serif;letter-spacing:0px;word-spacing:0px;display:inline;opacity:1;fill:#ffffff;fill-opacity:1;stroke:none;stroke-width:0.03278551px;stroke-linecap:butt;stroke-linejoin:miter;stroke-opacity:1" x="69.816406" y="85.824219" id="text7841" inkscape:label="txt_64">
        <tspan sodipodi:role="line" x="69.816406" y="85.824219" style="font-size:16px;line-height:0%;fill:#ffffff;fill-opacity:1;stroke:none;stroke-width:0.03278551px" id="tspan7839">64</tspan>
      </text>
    </g>
    <g inkscape:groupmode="layer" id="g7905" inkscape:label="icon" style="display:inline">
      <path inkscape:label="Hoja sombra" sodipodi:nodetypes="cccccc" inkscape:connector-curvature="0" id="path7845" d="m 57,51.999958 h 29.01574 l 16.98426,17 V 109.99996 H 57 Z" style="color:#000000;clip-rule:nonzero;display:inline;overflow:visible;visibility:visible;opacity:1;isolation:auto;mix-blend-mode:normal;color-interpolation:sRGB;color-interpolation-filters:linearRGB;solid-color:#000000;solid-opacity:1;vector-effect:none;fill:url(#linearGradient8259);fill-opacity:1;fill-rule:nonzero;stroke:none;stroke-width:0.85190946;stroke-linecap:butt;stroke-linejoin:miter;stroke-miterlimit:4;stroke-dasharray:none;stroke-dashoffset:0;stroke-opacity:1;marker:none;marker-start:none;marker-mid:none;marker-end:none;paint-order:fill markers stroke;color-rendering:auto;image-rendering:auto;shape-rendering:auto;text-rendering:auto;enable-background:accumulate"/>
      <path style="color:#000000;clip-rule:nonzero;display:inline;overflow:visible;visibility:visible;opacity:1;isolation:auto;mix-blend-mode:normal;color-interpolation:sRGB;color-interpolation-filters:linearRGB;solid-color:#000000;solid-opacity:1;vector-effect:none;fill:url(#linearGradient7909);fill-opacity:1;fill-rule:nonzero;stroke:none;stroke-width:0.55247194;stroke-linecap:butt;stroke-linejoin:miter;stroke-miterlimit:4;stroke-dasharray:none;stroke-dashoffset:0;stroke-opacity:1;marker:none;marker-start:none;marker-mid:none;marker-end:none;paint-order:fill markers stroke;color-rendering:auto;image-rendering:auto;shape-rendering:auto;text-rendering:auto;enable-background:accumulate" d="m 58,52.999958 h 28 l 16,16 c 1.7e-4,13.11112 0,40.000002 0,40.000002 H 58 c -3e-5,-18.444452 -1e-5,-37.555552 0,-56.000002 z" id="path7847" inkscape:connector-curvature="0" sodipodi:nodetypes="cccccc" inkscape:label="Hoja"/>
      <path inkscape:label="Hoja sombra sobre derecha" sodipodi:nodetypes="cccccc" inkscape:connector-curvature="0" id="path7849" d="m 58,52.999958 h 28 l 16,16 c 1.7e-4,13.11112 -2.6e-4,26.88888 0,40.000002 H 58 Z" style="color:#000000;clip-rule:nonzero;display:inline;overflow:visible;visibility:visible;opacity:1;isolation:auto;mix-blend-mode:normal;color-interpolation:sRGB;color-interpolation-filters:linearRGB;solid-color:#000000;solid-opacity:1;vector-effect:none;fill:url(#linearGradient7911);fill-opacity:1;fill-rule:nonzero;stroke:none;stroke-width:0.55247194;stroke-linecap:butt;stroke-linejoin:miter;stroke-miterlimit:4;stroke-dasharray:none;stroke-dashoffset:0;stroke-opacity:1;marker:none;marker-start:none;marker-mid:none;marker-end:none;paint-order:fill markers stroke;color-rendering:auto;image-rendering:auto;shape-rendering:auto;text-rendering:auto;enable-background:accumulate"/>
      <path sodipodi:nodetypes="cccc" inkscape:connector-curvature="0" id="path7901" d="m 86,52.999958 16,16 -18,2 z" style="display:inline;opacity:1;vector-effect:none;fill:url(#linearGradient8277);fill-opacity:1;fill-rule:evenodd;stroke:none;stroke-width:2.19524717px;stroke-linecap:butt;stroke-linejoin:miter;stroke-miterlimit:4;stroke-dasharray:none;stroke-dashoffset:0;stroke-opacity:1" inkscape:label="Pestaña sombra"/>
      <path style="fill:url(#linearGradient7913);fill-opacity:1;fill-rule:evenodd;stroke:none;stroke-width:1.56454539px;stroke-linecap:butt;stroke-linejoin:miter;stroke-opacity:1" d="m 86,52.999958 16,16 H 86 Z" id="path7903" inkscape:connector-curvature="0" sodipodi:nodetypes="cccc" inkscape:label="Pestaña"/>
      <path style="color:#000000;clip-rule:nonzero;display:inline;overflow:visible;visibility:visible;opacity:0.4;isolation:auto;mix-blend-mode:normal;color-interpolation:sRGB;color-interpolation-filters:linearRGB;solid-color:#000000;solid-opacity:1;vector-effect:none;fill:url(#linearGradient9428-62-7);fill-opacity:1;fill-rule:nonzero;stroke:none;stroke-width:0.56390136;stroke-linecap:butt;stroke-linejoin:miter;stroke-miterlimit:4;stroke-dasharray:none;stroke-dashoffset:0;stroke-opacity:0.34375;marker:none;marker-start:none;marker-mid:none;marker-end:none;paint-order:fill markers stroke;color-rendering:auto;image-rendering:auto;shape-rendering:auto;text-rendering:auto;enable-background:accumulate" d="m 58.658179,52.979124 v 2.024463 h -0.667421 v 0.67482 h 0.667421 v 2.024465 h -0.667421 v 0.674821 h 0.667421 v 2.024464 h -0.667421 v 0.674821 h 0.667421 v 2.024464 h -0.667421 v 0.67482 h 0.667421 v 2.024464 h -0.667421 v 0.674824 h 0.667421 v 2.024463 h -0.667421 v 0.674821 h 0.667421 v 2.024464 h -0.667421 v 0.67482 h 0.667421 v 2.024464 h -0.667421 v 0.674823 h 0.667421 v 2.024461 h -0.667421 v 0.674822 h 0.667421 v 2.024464 h -0.667421 v 0.67482 h 0.667421 v 2.024466 h -0.667421 v 0.674822 h 0.667421 v 2.02446 h -0.667421 v 0.674822 h 0.667421 v 2.024463 h -0.667421 v 0.674822 h 0.667421 v 2.024465 h -0.667421 v 0.674821 h 0.667421 v 2.024462 h -0.667421 v 0.67482 h 0.667421 v 2.024466 h -0.667421 v 0.67482 h 0.667421 v 2.024465 h -0.667421 v 0.674821 h 0.667421 v 2.024463 h -0.667421 v 0.67482 h 0.667421 v 2.02446 h -0.667421 v 0.67483 h 0.667421 V 106.29 h -0.667421 v 0.67482 h 0.667421 v 2.02446 H 59.3256 v -2.02446 h 2.002264 v 2.02446 h 0.667417 v -2.02446 h 2.002263 v 2.02446 h 0.667421 v -2.02446 h 2.002265 v 2.02446 h 0.667419 v -2.02446 h 2.002263 v 2.02446 h 0.667423 v -2.02446 h 2.002262 v 2.02446 h 0.667419 v -2.02446 h 2.002265 v 2.02446 h 0.667421 v -2.02446 h 2.002262 v 2.02446 h 0.667422 v -2.02446 h 2.002262 v 2.02446 h 0.667421 v -2.02446 h 2.002264 v 2.02446 h 0.667421 v -2.02446 h 2.002263 v 2.02446 h 0.667421 v -2.02446 H 88.0247 v 2.02446 h 0.667422 v -2.02446 h 2.002264 v 2.02446 h 0.66742 v -2.02446 h 2.002263 v 1.9612 h 0.66742 v -1.9612 h 2.002263 v 2.02446 h 0.667421 v -2.02446 h 2.002265 v 2.02446 h 0.667419 v -2.02446 h 2.669693 V 106.29 h -2.669693 v -2.02446 h 2.669693 v -0.67483 h -2.669693 v -2.02446 h 2.669693 v -0.67482 h -2.669693 v -2.024463 h 2.669693 v -0.674821 h -2.669693 v -2.024465 h 2.669693 v -0.67482 h -2.669693 v -2.024466 h 2.669693 v -0.67482 h -2.669693 v -2.024462 h 2.669693 v -0.674821 h -2.669693 v -2.024465 h 2.669693 v -0.674822 h -2.669693 v -2.024463 h 2.669693 V 84.69572 h -2.669693 v -2.02446 h 2.669693 v -0.674822 h -2.669693 v -2.024466 h 2.669693 v -0.67482 h -2.669693 v -2.024464 h 2.669693 v -0.674822 h -2.669693 v -2.024461 h 2.669693 v -0.674823 h -2.669693 v -2.024464 h 2.669693 v -0.67482 h -2.669693 v -2.024464 h -0.667419 v 2.024464 h -2.002265 v -2.024464 h -0.667421 v 2.024464 h -2.002263 v -2.087729 h -0.66742 v 2.087729 h -2.002263 v -2.024464 h -0.66742 v 2.024464 H 88.692122 V 69.174834 H 88.0247 v 2.024464 H 86.022438 V 52.979124 h -0.667421 v 2.024463 h -2.002263 v -2.024463 h -0.667421 v 2.024463 h -2.002264 v -2.024463 h -0.667421 v 2.024463 h -2.002262 v -2.024463 h -0.667422 v 2.024463 h -2.002262 v -2.024463 h -0.667421 v 2.024463 h -2.002265 v -2.024463 h -0.667419 v 2.024463 h -2.002262 v -2.024463 h -0.667423 v 2.024463 H 67.334649 V 52.979124 H 66.66723 v 2.024463 h -2.002265 v -2.024463 h -0.667421 v 2.024463 h -2.002263 v -2.024463 h -0.667417 v 2.024463 H 59.3256 v -2.024463 z m 0.667421,2.699283 h 2.002264 v 2.024465 H 59.3256 Z m 2.669681,0 h 2.002263 v 2.024465 h -2.002263 z m 2.669684,0 h 2.002265 v 2.024465 h -2.002265 z m 2.669684,0 h 2.002263 v 2.024465 h -2.002263 z m 2.669686,0 h 2.002262 v 2.024465 h -2.002262 z m 2.669681,0 h 2.002265 v 2.024465 h -2.002265 z m 2.669686,0 h 2.002262 v 2.024465 h -2.002262 z m 2.669684,0 h 2.002262 v 2.024465 h -2.002262 z m 2.669683,0 h 2.002264 v 2.024465 h -2.002264 z m 2.669685,0 h 2.002263 v 2.024465 H 83.352754 Z M 59.3256,58.377693 h 2.002264 v 2.024464 H 59.3256 Z m 2.669681,0 h 2.002263 v 2.024464 h -2.002263 z m 2.669684,0 h 2.002265 v 2.024464 h -2.002265 z m 2.669684,0 h 2.002263 v 2.024464 h -2.002263 z m 2.669686,0 h 2.002262 v 2.024464 h -2.002262 z m 2.669681,0 h 2.002265 v 2.024464 h -2.002265 z m 2.669686,0 h 2.002262 v 2.024464 h -2.002262 z m 2.669684,0 h 2.002262 v 2.024464 h -2.002262 z m 2.669683,0 h 2.002264 v 2.024464 h -2.002264 z m 2.669685,0 h 2.002263 v 2.024464 H 83.352754 Z M 59.3256,61.076978 h 2.002264 v 2.024464 H 59.3256 Z m 2.669681,0 h 2.002263 v 2.024464 h -2.002263 z m 2.669684,0 h 2.002265 v 2.024464 h -2.002265 z m 2.669684,0 h 2.002263 v 2.024464 h -2.002263 z m 2.669686,0 h 2.002262 v 2.024464 h -2.002262 z m 2.669681,0 h 2.002265 v 2.024464 h -2.002265 z m 2.669686,0 h 2.002262 v 2.024464 h -2.002262 z m 2.669684,0 h 2.002262 v 2.024464 h -2.002262 z m 2.669683,0 h 2.002264 v 2.024464 h -2.002264 z m 2.669685,0 h 2.002263 v 2.024464 H 83.352754 Z M 59.3256,63.776262 h 2.002264 v 2.024464 H 59.3256 Z m 2.669681,0 h 2.002263 v 2.024464 h -2.002263 z m 2.669684,0 h 2.002265 v 2.024464 h -2.002265 z m 2.669684,0 h 2.002263 v 2.024464 h -2.002263 z m 2.669686,0 h 2.002262 v 2.024464 h -2.002262 z m 2.669681,0 h 2.002265 v 2.024464 h -2.002265 z m 2.669686,0 h 2.002262 v 2.024464 h -2.002262 z m 2.669684,0 h 2.002262 v 2.024464 h -2.002262 z m 2.669683,0 h 2.002264 v 2.024464 h -2.002264 z m 2.669685,0 h 2.002263 v 2.024464 H 83.352754 Z M 59.3256,66.47555 h 2.002264 v 2.024463 H 59.3256 Z m 2.669681,0 h 2.002263 v 2.024463 h -2.002263 z m 2.669684,0 h 2.002265 v 2.024463 h -2.002265 z m 2.669684,0 h 2.002263 v 2.024463 h -2.002263 z m 2.669686,0 h 2.002262 v 2.024463 h -2.002262 z m 2.669681,0 h 2.002265 v 2.024463 h -2.002265 z m 2.669686,0 h 2.002262 v 2.024463 h -2.002262 z m 2.669684,0 h 2.002262 v 2.024463 h -2.002262 z m 2.669683,0 h 2.002264 v 2.024463 h -2.002264 z m 2.669685,0 h 2.002263 v 2.024463 H 83.352754 Z M 59.3256,69.174834 h 2.002264 v 2.024464 H 59.3256 Z m 2.669681,0 h 2.002263 v 2.024464 h -2.002263 z m 2.669684,0 h 2.002265 v 2.024464 h -2.002265 z m 2.669684,0 h 2.002263 v 2.024464 h -2.002263 z m 2.669686,0 h 2.002262 v 2.024464 h -2.002262 z m 2.669681,0 h 2.002265 v 2.024464 h -2.002265 z m 2.669686,0 h 2.002262 v 2.024464 h -2.002262 z m 2.669684,0 h 2.002262 v 2.024464 h -2.002262 z m 2.669683,0 h 2.002264 v 2.024464 h -2.002264 z m 2.669685,0 h 2.002263 v 2.024464 H 83.352754 Z M 59.3256,71.874118 h 2.002264 v 2.024464 H 59.3256 Z m 2.669681,0 h 2.002263 v 2.024464 h -2.002263 z m 2.669684,0 h 2.002265 v 2.024464 h -2.002265 z m 2.669684,0 h 2.002263 v 2.024464 h -2.002263 z m 2.669686,0 h 2.002262 v 2.024464 h -2.002262 z m 2.669681,0 h 2.002265 v 2.024464 h -2.002265 z m 2.669686,0 h 2.002262 v 2.024464 h -2.002262 z m 2.669684,0 h 2.002262 v 2.024464 h -2.002262 z m 2.669683,0 h 2.002264 v 2.024464 h -2.002264 z m 2.669685,0 h 2.002263 v 2.024464 h -2.002263 z m 2.669684,0 H 88.0247 v 2.024464 h -2.002262 z m 2.669684,0 h 2.002264 v 2.024464 h -2.002264 z m 2.669684,0 h 2.002263 v 2.024464 h -2.002263 z m 2.669683,0 h 2.002263 v 2.024464 h -2.002263 z m 2.669684,0 h 2.002265 v 2.024464 H 96.701173 Z M 59.3256,74.573405 h 2.002264 v 2.024461 H 59.3256 Z m 2.669681,0 h 2.002263 v 2.024461 h -2.002263 z m 2.669684,0 h 2.002265 v 2.024461 h -2.002265 z m 2.669684,0 h 2.002263 v 2.024461 h -2.002263 z m 2.669686,0 h 2.002262 v 2.024461 h -2.002262 z m 2.669681,0 h 2.002265 v 2.024461 h -2.002265 z m 2.669686,0 h 2.002262 v 2.024461 h -2.002262 z m 2.669684,0 h 2.002262 v 2.024461 h -2.002262 z m 2.669683,0 h 2.002264 v 2.024461 h -2.002264 z m 2.669685,0 h 2.002263 v 2.024461 h -2.002263 z m 2.669684,0 H 88.0247 v 2.024461 h -2.002262 z m 2.669684,0 h 2.002264 v 2.024461 h -2.002264 z m 2.669684,0 h 2.002263 v 2.024461 h -2.002263 z m 2.669683,0 h 2.002263 v 2.024461 h -2.002263 z m 2.669684,0 h 2.002265 v 2.024461 H 96.701173 Z M 59.3256,77.272688 h 2.002264 v 2.024464 H 59.3256 Z m 2.669681,0 h 2.002263 v 2.024464 h -2.002263 z m 2.669684,0 h 2.002265 v 2.024464 h -2.002265 z m 2.669684,0 h 2.002263 v 2.024464 h -2.002263 z m 2.669686,0 h 2.002262 v 2.024464 h -2.002262 z m 2.669681,0 h 2.002265 v 2.024464 h -2.002265 z m 2.669686,0 h 2.002262 v 2.024464 h -2.002262 z m 2.669684,0 h 2.002262 v 2.024464 h -2.002262 z m 2.669683,0 h 2.002264 v 2.024464 h -2.002264 z m 2.669685,0 h 2.002263 v 2.024464 h -2.002263 z m 2.669684,0 H 88.0247 v 2.024464 h -2.002262 z m 2.669684,0 h 2.002264 v 2.024464 h -2.002264 z m 2.669684,0 h 2.002263 v 2.024464 h -2.002263 z m 2.669683,0 h 2.002263 v 2.024464 h -2.002263 z m 2.669684,0 h 2.002265 v 2.024464 H 96.701173 Z M 59.3256,79.971972 h 2.002264 v 2.024466 H 59.3256 Z m 2.669681,0 h 2.002263 v 2.024466 h -2.002263 z m 2.669684,0 h 2.002265 v 2.024466 h -2.002265 z m 2.669684,0 h 2.002263 v 2.024466 h -2.002263 z m 2.669686,0 h 2.002262 v 2.024466 h -2.002262 z m 2.669681,0 h 2.002265 v 2.024466 h -2.002265 z m 2.669686,0 h 2.002262 v 2.024466 h -2.002262 z m 2.669684,0 h 2.002262 v 2.024466 h -2.002262 z m 2.669683,0 h 2.002264 v 2.024466 h -2.002264 z m 2.669685,0 h 2.002263 v 2.024466 h -2.002263 z m 2.669684,0 H 88.0247 v 2.024466 h -2.002262 z m 2.669684,0 h 2.002264 v 2.024466 h -2.002264 z m 2.669684,0 h 2.002263 v 2.024466 h -2.002263 z m 2.669683,0 h 2.002263 v 2.024466 h -2.002263 z m 2.669684,0 h 2.002265 v 2.024466 H 96.701173 Z M 59.3256,82.67126 h 2.002264 v 2.02446 H 59.3256 Z m 2.669681,0 h 2.002263 v 2.02446 h -2.002263 z m 2.669684,0 h 2.002265 v 2.02446 h -2.002265 z m 2.669684,0 h 2.002263 v 2.02446 h -2.002263 z m 2.669686,0 h 2.002262 v 2.02446 h -2.002262 z m 2.669681,0 h 2.002265 v 2.02446 h -2.002265 z m 2.669686,0 h 2.002262 v 2.02446 h -2.002262 z m 2.669684,0 h 2.002262 v 2.02446 h -2.002262 z m 2.669683,0 h 2.002264 v 2.02446 h -2.002264 z m 2.669685,0 h 2.002263 v 2.02446 h -2.002263 z m 2.669684,0 H 88.0247 v 2.02446 h -2.002262 z m 2.669684,0 h 2.002264 v 2.02446 h -2.002264 z m 2.669684,0 h 2.002263 v 2.02446 h -2.002263 z m 2.669683,0 h 2.002263 v 2.02446 h -2.002263 z m 2.669684,0 h 2.002265 v 2.02446 H 96.701173 Z M 59.3256,85.370542 h 2.002264 v 2.024463 H 59.3256 Z m 2.669681,0 h 2.002263 v 2.024463 h -2.002263 z m 2.669684,0 h 2.002265 v 2.024463 h -2.002265 z m 2.669684,0 h 2.002263 v 2.024463 h -2.002263 z m 2.669686,0 h 2.002262 v 2.024463 h -2.002262 z m 2.669681,0 h 2.002265 v 2.024463 h -2.002265 z m 2.669686,0 h 2.002262 v 2.024463 h -2.002262 z m 2.669684,0 h 2.002262 v 2.024463 h -2.002262 z m 2.669683,0 h 2.002264 v 2.024463 h -2.002264 z m 2.669685,0 h 2.002263 v 2.024463 h -2.002263 z m 2.669684,0 H 88.0247 v 2.024463 h -2.002262 z m 2.669684,0 h 2.002264 v 2.024463 h -2.002264 z m 2.669684,0 h 2.002263 v 2.024463 h -2.002263 z m 2.669683,0 h 2.002263 v 2.024463 h -2.002263 z m 2.669684,0 h 2.002265 v 2.024463 H 96.701173 Z M 59.3256,88.069827 h 2.002264 v 2.024465 H 59.3256 Z m 2.669681,0 h 2.002263 v 2.024465 h -2.002263 z m 2.669684,0 h 2.002265 v 2.024465 h -2.002265 z m 2.669684,0 h 2.002263 v 2.024465 h -2.002263 z m 2.669686,0 h 2.002262 v 2.024465 h -2.002262 z m 2.669681,0 h 2.002265 v 2.024465 h -2.002265 z m 2.669686,0 h 2.002262 v 2.024465 h -2.002262 z m 2.669684,0 h 2.002262 v 2.024465 h -2.002262 z m 2.669683,0 h 2.002264 v 2.024465 h -2.002264 z m 2.669685,0 h 2.002263 v 2.024465 h -2.002263 z m 2.669684,0 H 88.0247 v 2.024465 h -2.002262 z m 2.669684,0 h 2.002264 v 2.024465 h -2.002264 z m 2.669684,0 h 2.002263 v 2.024465 h -2.002263 z m 2.669683,0 h 2.002263 v 2.024465 h -2.002263 z m 2.669684,0 h 2.002265 v 2.024465 H 96.701173 Z M 59.3256,90.769113 h 2.002264 v 2.024462 H 59.3256 Z m 2.669681,0 h 2.002263 v 2.024462 h -2.002263 z m 2.669684,0 h 2.002265 v 2.024462 h -2.002265 z m 2.669684,0 h 2.002263 v 2.024462 h -2.002263 z m 2.669686,0 h 2.002262 v 2.024462 h -2.002262 z m 2.669681,0 h 2.002265 v 2.024462 h -2.002265 z m 2.669686,0 h 2.002262 v 2.024462 h -2.002262 z m 2.669684,0 h 2.002262 v 2.024462 h -2.002262 z m 2.669683,0 h 2.002264 v 2.024462 h -2.002264 z m 2.669685,0 h 2.002263 v 2.024462 h -2.002263 z m 2.669684,0 H 88.0247 v 2.024462 h -2.002262 z m 2.669684,0 h 2.002264 v 2.024462 h -2.002264 z m 2.669684,0 h 2.002263 v 2.024462 h -2.002263 z m 2.669683,0 h 2.002263 v 2.024462 h -2.002263 z m 2.669684,0 h 2.002265 v 2.024462 H 96.701173 Z M 59.3256,93.468395 h 2.002264 v 2.024466 H 59.3256 Z m 2.669681,0 h 2.002263 v 2.024466 h -2.002263 z m 2.669684,0 h 2.002265 v 2.024466 h -2.002265 z m 2.669684,0 h 2.002263 v 2.024466 h -2.002263 z m 2.669686,0 h 2.002262 v 2.024466 h -2.002262 z m 2.669681,0 h 2.002265 v 2.024466 h -2.002265 z m 2.669686,0 h 2.002262 v 2.024466 h -2.002262 z m 2.669684,0 h 2.002262 v 2.024466 h -2.002262 z m 2.669683,0 h 2.002264 v 2.024466 h -2.002264 z m 2.669685,0 h 2.002263 v 2.024466 h -2.002263 z m 2.669684,0 H 88.0247 v 2.024466 h -2.002262 z m 2.669684,0 h 2.002264 v 2.024466 h -2.002264 z m 2.669684,0 h 2.002263 v 2.024466 h -2.002263 z m 2.669683,0 h 2.002263 v 2.024466 h -2.002263 z m 2.669684,0 h 2.002265 v 2.024466 H 96.701173 Z M 59.3256,96.167681 h 2.002264 v 2.024465 H 59.3256 Z m 2.669681,0 h 2.002263 v 2.024465 h -2.002263 z m 2.669684,0 h 2.002265 v 2.024465 h -2.002265 z m 2.669684,0 h 2.002263 v 2.024465 h -2.002263 z m 2.669686,0 h 2.002262 v 2.024465 h -2.002262 z m 2.669681,0 h 2.002265 v 2.024465 h -2.002265 z m 2.669686,0 h 2.002262 v 2.024465 h -2.002262 z m 2.669684,0 h 2.002262 v 2.024465 h -2.002262 z m 2.669683,0 h 2.002264 v 2.024465 h -2.002264 z m 2.669685,0 h 2.002263 v 2.024465 h -2.002263 z m 2.669684,0 H 88.0247 v 2.024465 h -2.002262 z m 2.669684,0 h 2.002264 v 2.024465 h -2.002264 z m 2.669684,0 h 2.002263 v 2.024465 h -2.002263 z m 2.669683,0 h 2.002263 v 2.024465 h -2.002263 z m 2.669684,0 h 2.002265 v 2.024465 H 96.701173 Z M 59.3256,98.866967 h 2.002264 v 2.024463 H 59.3256 Z m 2.669681,0 h 2.002263 v 2.024463 h -2.002263 z m 2.669684,0 h 2.002265 v 2.024463 h -2.002265 z m 2.669684,0 h 2.002263 v 2.024463 h -2.002263 z m 2.669686,0 h 2.002262 v 2.024463 h -2.002262 z m 2.669681,0 h 2.002265 v 2.024463 h -2.002265 z m 2.669686,0 h 2.002262 v 2.024463 h -2.002262 z m 2.669684,0 h 2.002262 v 2.024463 h -2.002262 z m 2.669683,0 h 2.002264 v 2.024463 h -2.002264 z m 2.669685,0 h 2.002263 v 2.024463 h -2.002263 z m 2.669684,0 H 88.0247 v 2.024463 h -2.002262 z m 2.669684,0 h 2.002264 v 2.024463 h -2.002264 z m 2.669684,0 h 2.002263 v 2.024463 h -2.002263 z m 2.669683,0 h 2.002263 v 2.024463 h -2.002263 z m 2.669684,0 h 2.002265 v 2.024463 H 96.701173 Z M 59.3256,101.56625 h 2.002264 v 2.02446 H 59.3256 Z m 2.669681,0 h 2.002263 v 2.02446 h -2.002263 z m 2.669684,0 h 2.002265 v 2.02446 h -2.002265 z m 2.669684,0 h 2.002263 v 2.02446 h -2.002263 z m 2.669686,0 h 2.002262 v 2.02446 h -2.002262 z m 2.669681,0 h 2.002265 v 2.02446 h -2.002265 z m 2.669686,0 h 2.002262 v 2.02446 h -2.002262 z m 2.669684,0 h 2.002262 v 2.02446 h -2.002262 z m 2.669683,0 h 2.002264 v 2.02446 h -2.002264 z m 2.669685,0 h 2.002263 v 2.02446 h -2.002263 z m 2.669684,0 H 88.0247 v 2.02446 h -2.002262 z m 2.669684,0 h 2.002264 v 2.02446 h -2.002264 z m 2.669684,0 h 2.002263 v 2.02446 h -2.002263 z m 2.669683,0 h 2.002263 v 2.02446 h -2.002263 z m 2.669684,0 h 2.002265 v 2.02446 H 96.701173 Z M 59.3256,104.26554 h 2.002264 V 106.29 H 59.3256 Z m 2.669681,0 h 2.002263 V 106.29 h -2.002263 z m 2.669684,0 H 66.66723 V 106.29 h -2.002265 z m 2.669684,0 h 2.002263 V 106.29 h -2.002263 z m 2.669686,0 h 2.002262 V 106.29 h -2.002262 z m 2.669681,0 h 2.002265 V 106.29 h -2.002265 z m 2.669686,0 h 2.002262 V 106.29 h -2.002262 z m 2.669684,0 h 2.002262 V 106.29 h -2.002262 z m 2.669683,0 h 2.002264 V 106.29 h -2.002264 z m 2.669685,0 h 2.002263 V 106.29 h -2.002263 z m 2.669684,0 H 88.0247 V 106.29 h -2.002262 z m 2.669684,0 h 2.002264 V 106.29 h -2.002264 z m 2.669684,0 h 2.002263 V 106.29 h -2.002263 z m 2.669683,0 h 2.002263 V 106.29 h -2.002263 z m 2.669684,0 h 2.002265 V 106.29 h -2.002265 z" id="rect9275-1-3" inkscape:connector-curvature="0" inkscape:label="patron" sodipodi:insensitive="true"/>
      <path inkscape:connector-curvature="0" id="path7919-8-5" style="font-size:53.33333206px;line-height:1000%;font-family:sans-serif;letter-spacing:0px;word-spacing:0px;display:inline;fill:#9dc3ef;fill-opacity:0.63020833;stroke:#82a9e5;stroke-width:0.40045261;stroke-linecap:butt;stroke-linejoin:miter;stroke-miterlimit:4;stroke-dasharray:none;stroke-opacity:0.99481865" d="m 81.144805,84.738173 q -3.875908,0 -5.370656,0.886416 -1.494743,0.886423 -1.494743,3.024251 0,1.703317 1.112372,2.711396 1.129741,0.990709 3.059008,0.990709 2.659253,0 4.258287,-1.877122 1.616406,-1.894502 1.616406,-5.023038 v -0.712612 z m 6.378737,-1.320939 v 11.106307 h -3.198063 v -2.954732 q -1.094983,1.772837 -2.728776,2.624491 -1.633794,0.834276 -3.997572,0.834276 -2.989492,0 -4.762331,-1.668552 -1.755457,-1.685933 -1.755457,-4.501616 0,-3.284957 2.189976,-4.953512 2.207357,-1.668551 6.569927,-1.668551 h 4.484233 v -0.312854 q 0,-2.207353 -1.459982,-3.406631 -1.442605,-1.216654 -4.067097,-1.216654 -1.668555,0 -3.250201,0.399758 -1.581648,0.399758 -3.04163,1.199276 v -2.954733 q 1.755457,-0.677846 3.406629,-1.00808 1.651166,-0.347618 3.215435,-0.347618 4.223524,0 6.309218,2.189973 2.085691,2.189976 2.085691,6.639452 z" inkscape:label="a"/>
      <path style="color:#000000;font-style:normal;font-variant:normal;font-weight:normal;font-stretch:normal;font-size:medium;line-height:normal;font-family:sans-serif;font-variant-ligatures:normal;font-variant-position:normal;font-variant-caps:normal;font-variant-numeric:normal;font-variant-alternates:normal;font-feature-settings:normal;text-indent:0;text-align:start;text-decoration:none;text-decoration-line:none;text-decoration-style:solid;text-decoration-color:#000000;letter-spacing:normal;word-spacing:normal;text-transform:none;writing-mode:lr-tb;direction:ltr;text-orientation:mixed;dominant-baseline:auto;baseline-shift:baseline;text-anchor:start;white-space:normal;shape-padding:0;clip-rule:nonzero;display:inline;overflow:visible;visibility:visible;opacity:1;isolation:auto;mix-blend-mode:normal;color-interpolation:sRGB;color-interpolation-filters:linearRGB;solid-color:#000000;solid-opacity:1;vector-effect:none;fill:#83a9e5;fill-opacity:1;fill-rule:evenodd;stroke:none;stroke-width:0.66742098px;stroke-linecap:butt;stroke-linejoin:miter;stroke-miterlimit:4;stroke-dasharray:none;stroke-dashoffset:0;stroke-opacity:1;color-rendering:auto;image-rendering:auto;shape-rendering:auto;text-rendering:auto;enable-background:accumulate" d="m 72.960802,69.274889 c -0.0586,0 -0.121208,0.0053 -0.187714,0.01562 -0.06587,0.01041 -0.135459,0.02583 -0.211178,0.04693 v 0.178581 c 0.07505,-0.02502 0.14341,-0.04419 0.20596,-0.05607 0.06253,-0.01201 0.121341,-0.01697 0.175985,-0.01697 0.100086,0 0.176087,0.02049 0.229427,0.06126 0.05399,0.04018 0.08083,0.09764 0.08083,0.173371 0,0.07376 -0.0249,0.129958 -0.0769,0.169465 -0.052,0.03884 -0.127397,0.05867 -0.225516,0.05867 H 72.7718 v 0.164246 h 0.172074 c 0.10864,0 0.192311,0.0249 0.252885,0.07432 0.06126,0.04872 0.09255,0.116445 0.09255,0.203359 -1.3e-5,0.09417 -0.03324,0.165698 -0.09907,0.215082 -0.06521,0.04939 -0.160376,0.07432 -0.285484,0.07432 -0.07179,0 -0.140117,-0.0081 -0.205959,-0.02477 -0.06587,-0.01649 -0.127184,-0.04072 -0.182501,-0.07298 v 0.191625 c 0.0698,0.02437 0.138171,0.04292 0.203358,0.05472 0.06581,0.01254 0.129731,0.01954 0.191624,0.01954 0.184368,0 0.326181,-0.04024 0.426262,-0.119926 0.100086,-0.07966 0.149909,-0.192109 0.149909,-0.337618 0,-0.09482 -0.02683,-0.175326 -0.08083,-0.23986 -0.05333,-0.06455 -0.127437,-0.106026 -0.222911,-0.12645 0.08625,-0.02176 0.152691,-0.06132 0.199446,-0.117325 0.04679,-0.05666 0.07039,-0.125623 0.07039,-0.207269 0,-0.117205 -0.04472,-0.210477 -0.132973,-0.278961 -0.08824,-0.06912 -0.208334,-0.102985 -0.35978,-0.102985 z m 1.402625,0.02609 -0.613973,0.934648 v 0.192924 h 0.666117 v 0.348055 H 74.61371 V 70.42855 h 0.209872 V 70.262992 H 74.61371 v -0.96202 z m 0.05214,0.174676 v 0.787343 h -0.504475 z m -4.411217,1.523829 v 2.669684 h 0.667416 v -2.669684 z m 8.009052,0 v 2.669684 h 0.667421 v -2.669684 z m -6.67421,1.334841 v 0.66742 h 5.965075 V 72.33432 Z m 18.020364,4.004528 v 0.667422 h 3.337106 V 76.33886 Z m 1.33484,1.257939 v 16.762432 h 0.66742 V 77.596795 Z m 4.790568,7.413326 c -0.165275,0 -0.291764,0.06581 -0.37933,0.196836 -0.08691,0.130385 -0.130372,0.319454 -0.130372,0.568348 0,0.248242 0.04345,0.438623 0.130372,0.569657 0.08758,0.130385 0.214055,0.195535 0.37933,0.195535 0.165272,0 0.291116,-0.06514 0.378032,-0.195535 0.08758,-0.131038 0.131666,-0.321415 0.131666,-0.569657 0,-0.248894 -0.04413,-0.437968 -0.131666,-0.568348 -0.08691,-0.131038 -0.21276,-0.196836 -0.378032,-0.196836 z m 1.220131,0 c -0.05793,0 -0.121833,0.0081 -0.191623,0.02477 -0.0698,0.01648 -0.145178,0.04071 -0.225517,0.07298 v 0.202055 c 0.07901,-0.04413 0.153777,-0.07736 0.222908,-0.09907 0.0698,-0.02169 0.135586,-0.03258 0.198144,-0.03258 0.08824,0 0.159127,0.0249 0.213781,0.07432 0.05533,0.04939 0.08341,0.113256 0.08341,0.191623 0,0.04805 -0.01342,0.09725 -0.03911,0.1473 -0.02501,0.04939 -0.06909,0.109415 -0.13296,0.181197 -0.03356,0.03818 -0.115351,0.123155 -0.246372,0.255496 -0.130385,0.131692 -0.234525,0.237103 -0.310251,0.315456 v 0.168164 h 0.937262 v -0.168157 h -0.696102 c 0.160662,-0.163951 0.284588,-0.291069 0.372822,-0.381938 0.08824,-0.09153 0.139958,-0.147767 0.156424,-0.166852 0.05995,-0.07376 0.101463,-0.137634 0.123848,-0.191626 0.02304,-0.05466 0.03518,-0.111482 0.03518,-0.172069 0,-0.127744 -0.04598,-0.229958 -0.136874,-0.306339 -0.09084,-0.07639 -0.212227,-0.11471 -0.364992,-0.11471 z m -2.57583,0.02736 -0.35326,0.07039 v 0.182511 l 0.354567,-0.07169 v 1.124966 H 93.80468 v 0.168163 h 0.849917 v -0.168163 h -0.32589 v -1.306163 z m 1.355699,0.130373 c 0.103384,0 0.180676,0.05113 0.232033,0.152512 0.052,0.100745 0.07823,0.252138 0.07823,0.45494 0,0.20215 -0.02623,0.354842 -0.07823,0.456249 -0.05133,0.100756 -0.128663,0.151212 -0.232033,0.151212 -0.102731,0 -0.180011,-0.05045 -0.23203,-0.151212 -0.05139,-0.101411 -0.07692,-0.254099 -0.07692,-0.456249 0,-0.202802 0.02555,-0.3542 0.07692,-0.45494 0.052,-0.101397 0.129317,-0.152512 0.23203,-0.152512 z m -6.125413,9.858803 v 0.66742 h 3.337106 v -0.667415 z m -20.305503,1.701144 v 2.669683 h 0.667424 v -2.669683 z m 19.296552,0 v 2.669683 h 0.667421 V 96.72779 Z M 70.671766,97.69633 v 0.667422 H 87.43419 V 97.69633 Z m 8.664741,1.957941 c -0.05793,0 -0.121834,0.0082 -0.191624,0.02477 -0.0698,0.01649 -0.145186,0.04072 -0.225516,0.07299 v 0.202046 c 0.07901,-0.04413 0.153769,-0.07736 0.222914,-0.09906 0.0698,-0.02169 0.135579,-0.03256 0.198138,-0.03256 0.08824,0 0.160434,0.02489 0.215088,0.07432 0.05532,0.04939 0.0821,0.113253 0.0821,0.191613 0,0.0481 -0.01228,0.0973 -0.03779,0.14731 -0.02501,0.0494 -0.07039,0.10945 -0.134267,0.18119 -0.03356,0.0382 -0.115338,0.12446 -0.246371,0.2568 -0.130372,0.1317 -0.233217,0.2358 -0.308943,0.31416 v 0.16816 h 0.935959 v -0.1682 h -0.696091 c 0.160668,-0.16395 0.284588,-0.29107 0.372821,-0.38194 0.08824,-0.0915 0.141265,-0.14646 0.157732,-0.16555 0.05995,-0.0737 0.10145,-0.13763 0.123835,-0.19162 0.02304,-0.0547 0.0339,-0.1128 0.0339,-0.17338 -1.3e-5,-0.127745 -0.04473,-0.229953 -0.135574,-0.306333 -0.09086,-0.07639 -0.213541,-0.114709 -0.366301,-0.114709 z m -1.287918,0.02736 -0.351956,0.07039 V 99.93452 L 78.0512,99.86281 v 1.12497 h -0.325889 v 0.16816 h 0.848613 v -0.16815 h -0.325898 v -1.30616 z m 2.219964,0 v 0.740419 c 0.05533,-0.025 0.108961,-0.0429 0.161635,-0.0547 0.05333,-0.012 0.107014,-0.0182 0.160342,-0.0182 0.113896,0 0.20333,0.03 0.26983,0.0899 0.06647,0.06 0.100368,0.14105 0.100368,0.24377 0,0.10271 -0.0339,0.18384 -0.100368,0.24376 -0.06647,0.06 -0.155922,0.0899 -0.26983,0.0899 -0.07045,0 -0.137536,-0.008 -0.200747,-0.0235 -0.06319,-0.0158 -0.124542,-0.0394 -0.183801,-0.0717 v 0.20075 c 0.06849,0.021 0.134266,0.0364 0.198138,0.0469 0.06455,0.0106 0.128437,0.0157 0.190322,0.0157 0.179755,0 0.318372,-0.0441 0.417137,-0.13166 0.09876,-0.0882 0.148601,-0.21151 0.148601,-0.37021 0,-0.15407 -0.0486,-0.27609 -0.144691,-0.3663 -0.09616,-0.0902 -0.226448,-0.13557 -0.391068,-0.13557 -0.02896,0 -0.05707,0.003 -0.08603,0.008 -0.02897,0.005 -0.05841,0.0124 -0.08734,0.0222 v -0.361089 h 0.600939 v -0.168155 z" id="path7818-7-6" inkscape:connector-curvature="0" inkscape:label="acotes"/>
    </g>
  </g>
</svg>