<?xml version="1.0" encoding="UTF-8" standalone="yes"?>
<svg xmlns:osb="http://www.openswatchbook.org/uri/2009/osb" xmlns:dc="http://purl.org/dc/elements/1.1/" xmlns:cc="http://creativecommons.org/ns#" xmlns:rdf="http://www.w3.org/1999/02/22-rdf-syntax-ns#" xmlns:svg="http://www.w3.org/2000/svg" xmlns="http://www.w3.org/2000/svg" xmlns:xlink="http://www.w3.org/1999/xlink" xmlns:sodipodi="http://sodipodi.sourceforge.net/DTD/sodipodi-0.dtd" xmlns:inkscape="http://www.inkscape.org/namespaces/inkscape" height="64" viewBox="0 0 64 64" width="64" id="svg2" version="1.1" inkscape:version="0.92.1 r" sodipodi:docname="text-x-generic-template.svg" enable-background="new" folder="64">
  <title id="title4675">Template icons dark</title>
  <metadata id="metadata24">
    <rdf:RDF>
      <cc:Work rdf:about="">
        <dc:format>image/svg+xml</dc:format>
        <dc:type rdf:resource="http://purl.org/dc/dcmitype/StillImage"/>
        <dc:title>Template icons dark</dc:title>
        <dc:date>17/05/13</dc:date>
        <dc:creator>
          <cc:Agent>
            <dc:title>wfpaisa</dc:title>
          </cc:Agent>
        </dc:creator>
        <dc:rights>
          <cc:Agent>
            <dc:title>License: GPLv3</dc:title>
          </cc:Agent>
        </dc:rights>
        <dc:language>es-en</dc:language>
        <dc:subject>
          <rdf:Bag>
            <rdf:li>plane-icon-theme</rdf:li>
          </rdf:Bag>
        </dc:subject>
        <dc:description>Template for create set icons</dc:description>
        <cc:license rdf:resource="https://www.gnu.org/licenses/gpl-3.0.en.html"/>
      </cc:Work>
    </rdf:RDF>
  </metadata>
  <defs id="defs22">
    <linearGradient id="Pestana-sombra-3" osb:paint="solid">
      <stop style="stop-color:#000000;stop-opacity:0.19553073;" offset="0" id="stop8273"/>
    </linearGradient>
    <linearGradient id="Hoja-brillo-8" osb:paint="solid">
      <stop style="stop-color:#ffffff;stop-opacity:0.33333334;" offset="0" id="stop8267"/>
    </linearGradient>
    <linearGradient id="Hoja-sombra-2_-2" osb:paint="solid">
      <stop style="stop-color:#000000;stop-opacity:0.07821229;" offset="0" id="stop8261"/>
    </linearGradient>
    <linearGradient id="Hoja-sombra-1_-9" osb:paint="solid">
      <stop style="stop-color:#000000;stop-opacity:0.15686275;" offset="0" id="stop8255"/>
    </linearGradient>
    <linearGradient id="Pestana-6">
      <stop id="stop7875" offset="0" style="stop-color:#5ebfff;stop-opacity:1;"/>
      <stop id="stop7879" offset="1" style="stop-color:#40b3ff;stop-opacity:1;"/>
    </linearGradient>
    <linearGradient id="Hoja_-5">
      <stop id="stop7831" offset="0" style="stop-color:#36afff;stop-opacity:1;"/>
      <stop id="stop7833" offset="1" style="stop-color:#0090ee;stop-opacity:1;"/>
    </linearGradient>
    <linearGradient inkscape:collect="always" xlink:href="#Hoja_-5" id="linearGradient8848" gradientUnits="userSpaceOnUse" gradientTransform="matrix(2.1943448,0,0,2.19615,107.37835,109.17328)" x1="24.116938" y1="4.9307919" x2="24.058121" y2="42.556389"/>
    <linearGradient inkscape:collect="always" xlink:href="#Pestana-6" id="linearGradient8852" gradientUnits="userSpaceOnUse" gradientTransform="matrix(2.5078225,0,0,2.19615,97.006583,108.93197)" x1="33.093815" y1="10.50385" x2="29.903797" y2="14.146588"/>
    <linearGradient inkscape:collect="always" xlink:href="#Hoja_-5" id="linearGradient7823-7" gradientUnits="userSpaceOnUse" x1="24.116938" y1="4.9307919" x2="24.058121" y2="42.556389" gradientTransform="matrix(1.1194338,0,0,1.1203548,-2.9435792,-2.6942142)"/>
    <linearGradient inkscape:collect="always" xlink:href="#Hoja-sombra-2" id="linearGradient7865-3" gradientUnits="userSpaceOnUse" gradientTransform="matrix(1.1194338,0,0,1.1203548,-2.9435792,-2.6942142)" x1="26.072924" y1="18.962273" x2="34.373611" y2="10.815324"/>
    <linearGradient inkscape:collect="always" xlink:href="#Pestana-6" id="linearGradient7825-6" gradientUnits="userSpaceOnUse" x1="34.176132" y1="10.27618" x2="30.758255" y2="13.691247" gradientTransform="matrix(1.2793529,0,0,1.1203548,-8.2346867,-2.8173169)"/>
    <linearGradient id="Hoja-16_-2">
      <stop style="stop-color:#ffffff;stop-opacity:0.25;" offset="0" id="stop7714"/>
      <stop style="stop-color:#ffffff;stop-opacity:0.28289473;" offset="1" id="stop7716"/>
    </linearGradient>
    <linearGradient inkscape:collect="always" xlink:href="#Hoja_-5" id="linearGradient7909" gradientUnits="userSpaceOnUse" gradientTransform="matrix(1.4628966,0,0,1.4641001,44.91893,46.115528)" x1="24.116938" y1="4.9307919" x2="24.058121" y2="42.556389"/>
    <linearGradient inkscape:collect="always" xlink:href="#Hoja-sombra-2" id="linearGradient7911" gradientUnits="userSpaceOnUse" gradientTransform="matrix(1.4628966,0,0,1.4641001,44.91893,46.115528)" x1="26.072924" y1="18.962273" x2="34.373611" y2="10.815324"/>
    <linearGradient inkscape:collect="always" xlink:href="#Pestana-6" id="linearGradient7913" gradientUnits="userSpaceOnUse" gradientTransform="matrix(1.6718818,0,0,1.4641001,38.00441,45.954658)" x1="34.176132" y1="10.27618" x2="30.758255" y2="13.691247"/>
    <linearGradient inkscape:collect="always" xlink:href="#Hoja-sombra-2" id="linearGradient8850-3" gradientUnits="userSpaceOnUse" gradientTransform="matrix(2.1943448,0,0,2.19615,107.37835,109.17328)" x1="23.980556" y1="23.143555" x2="45.854969" y2="1.2871252"/>
    <linearGradient inkscape:collect="always" xlink:href="#Hoja-sombra-2" id="linearGradient4621" gradientUnits="userSpaceOnUse" gradientTransform="matrix(2.1943448,0,0,2.19615,107.37835,109.17328)" x1="23.980556" y1="23.143555" x2="2.1061459" y2="44.999985"/>
    <linearGradient inkscape:collect="always" xlink:href="#Hoja-sombra-2" id="linearGradient8301" gradientUnits="userSpaceOnUse" gradientTransform="matrix(2.1943448,0,0,2.19615,107.37835,109.17328)" x1="23.980556" y1="23.143555" x2="45.854969" y2="44.999985"/>
    <linearGradient id="Hoja-sombra-2">
      <stop id="stop8303" offset="0" style="stop-color:#000000;stop-opacity:0"/>
      <stop id="stop8305" offset="1" style="stop-color:#000000;stop-opacity:0.10196079"/>
    </linearGradient>
    <linearGradient inkscape:collect="always" xlink:href="#Hoja-sombra-2" id="linearGradient7895" gradientUnits="userSpaceOnUse" gradientTransform="matrix(2.1943448,0,0,2.19615,107.37835,109.17328)" x1="23.980556" y1="23.143555" x2="2.1061459" y2="1.2871252"/>
    <linearGradient inkscape:collect="always" xlink:href="#Hoja_-5" id="linearGradient7818" gradientUnits="userSpaceOnUse" gradientTransform="matrix(0.74628918,0,0,0.74690318,-33.962385,-33.796142)" x1="24.116938" y1="4.9307919" x2="24.058121" y2="42.556389"/>
    <linearGradient inkscape:collect="always" xlink:href="#Pestana-6" id="linearGradient7822" gradientUnits="userSpaceOnUse" gradientTransform="matrix(0.85290191,0,0,0.74690318,-37.489791,-33.878211)" x1="28.713491" y1="15.702977" x2="25.196087" y2="18.581003"/>
    <linearGradient inkscape:collect="always" xlink:href="#Hoja-sombra-1_-9" id="linearGradient8259" x1="125.99999" y1="161.5" x2="193.99999" y2="161.5" gradientUnits="userSpaceOnUse"/>
    <linearGradient inkscape:collect="always" xlink:href="#Hoja-sombra-2_-2" id="linearGradient8265" x1="125" y1="161.49999" x2="195" y2="161.49999" gradientUnits="userSpaceOnUse"/>
    <linearGradient inkscape:collect="always" xlink:href="#Hoja-brillo-8" id="linearGradient8271" x1="126.99999" y1="120.5" x2="168.99999" y2="120.5" gradientUnits="userSpaceOnUse"/>
    <linearGradient inkscape:collect="always" xlink:href="#Pestana-sombra-3" id="linearGradient8277" x1="165.99999" y1="133.47244" x2="192.99999" y2="133.47244" gradientUnits="userSpaceOnUse"/>
    <linearGradient gradientTransform="matrix(1.33333,0,0,1.33333,58.6672,56.167208)" inkscape:collect="always" xlink:href="#Hoja-sombra-2_-2" id="linearGradient8265-7" x1="125" y1="161.49998" x2="195" y2="161.49998" gradientUnits="userSpaceOnUse"/>
    <linearGradient gradientTransform="matrix(1.33333,0,0,1.33333,58.6672,56.167208)" inkscape:collect="always" xlink:href="#Hoja-sombra-1_-9" id="linearGradient8259-9" x1="125.99999" y1="161.5" x2="193.99998" y2="161.5" gradientUnits="userSpaceOnUse"/>
    <linearGradient inkscape:collect="always" xlink:href="#Hoja_-5" id="linearGradient8848-4" gradientUnits="userSpaceOnUse" gradientTransform="matrix(2.9257858,0,0,2.9281927,201.83798,201.73122)" x1="24.116938" y1="4.9307919" x2="24.058121" y2="42.556389"/>
    <linearGradient inkscape:collect="always" xlink:href="#Hoja-sombra-2" id="linearGradient8301-3" gradientUnits="userSpaceOnUse" gradientTransform="matrix(2.9257858,0,0,2.9281927,201.83798,201.73122)" x1="23.980556" y1="23.143555" x2="45.854969" y2="44.999985"/>
    <linearGradient inkscape:collect="always" xlink:href="#Hoja-sombra-2" id="linearGradient4621-0" gradientUnits="userSpaceOnUse" gradientTransform="matrix(2.9257858,0,0,2.9281927,201.83798,201.73122)" x1="23.980556" y1="23.143555" x2="2.1061459" y2="44.999985"/>
    <linearGradient inkscape:collect="always" xlink:href="#Hoja-sombra-2" id="linearGradient8850-3-8" gradientUnits="userSpaceOnUse" gradientTransform="matrix(2.9257858,0,0,2.9281927,201.83798,201.73122)" x1="23.980556" y1="23.143555" x2="45.854969" y2="1.2871252"/>
    <linearGradient inkscape:collect="always" xlink:href="#Hoja-sombra-2" id="linearGradient7895-1" gradientUnits="userSpaceOnUse" gradientTransform="matrix(2.9257858,0,0,2.9281927,201.83798,201.73122)" x1="23.980556" y1="23.143555" x2="2.1061459" y2="1.2871252"/>
    <linearGradient gradientTransform="matrix(1.33333,0,0,1.33333,58.6672,56.167208)" inkscape:collect="always" xlink:href="#Hoja-brillo-8" id="linearGradient8271-9" x1="126.99999" y1="120.5" x2="168.99998" y2="120.5" gradientUnits="userSpaceOnUse"/>
    <linearGradient gradientTransform="matrix(1.33333,0,0,1.33333,58.6672,56.167208)" inkscape:collect="always" xlink:href="#Pestana-sombra-3" id="linearGradient8277-7" x1="165.99998" y1="133.47244" x2="192.99998" y2="133.47244" gradientUnits="userSpaceOnUse"/>
    <linearGradient inkscape:collect="always" xlink:href="#Pestana-6" id="linearGradient8852-2" gradientUnits="userSpaceOnUse" gradientTransform="matrix(3.343755,0,0,2.9281927,188.00898,201.40947)" x1="33.093815" y1="10.50385" x2="29.903797" y2="14.146588"/>
    <linearGradient inkscape:collect="always" xlink:href="#Hoja_-5" id="linearGradient8613" x1="-43.047825" y1="-34" x2="-43.047825" y2="-28" gradientUnits="userSpaceOnUse"/>
    <linearGradient gradientTransform="translate(0.0025287,0.00911844)" inkscape:collect="always" xlink:href="#patron-6" id="linearGradient9428" gradientUnits="userSpaceOnUse" x1="188" y1="173.49998" x2="189" y2="173.49998"/>
    <linearGradient id="patron-6" osb:paint="solid">
      <stop style="stop-color:#ffffff;stop-opacity:0.27843139;" offset="0" id="stop9305"/>
    </linearGradient>
    <linearGradient gradientTransform="matrix(1.3331528,0,0,1.3374408,58.689935,55.49812)" inkscape:collect="always" xlink:href="#patron-6" id="linearGradient9428-3" gradientUnits="userSpaceOnUse" x1="188" y1="173.49998" x2="189" y2="173.49998"/>
    <linearGradient gradientTransform="matrix(0.66625707,0,0,0.67462792,-26.614534,-27.958409)" inkscape:collect="always" xlink:href="#patron-6" id="linearGradient9428-2" gradientUnits="userSpaceOnUse" x1="188" y1="173.49998" x2="189" y2="173.49998"/>
    <linearGradient gradientTransform="matrix(0.49999999,0,0,0.50607896,-56.499996,-57.739183)" inkscape:collect="always" xlink:href="#patron-6" id="linearGradient9428-36" gradientUnits="userSpaceOnUse" x1="188" y1="173.49998" x2="189" y2="173.49998"/>
    <linearGradient gradientTransform="matrix(1.5,0,0,1.5,52.049369,52.049369)" inkscape:collect="always" xlink:href="#Hoja_-5" id="linearGradient8613-1" x1="-43.047825" y1="-34" x2="-43.047825" y2="-28" gradientUnits="userSpaceOnUse"/>
    <linearGradient inkscape:collect="always" xlink:href="#Hoja_-5" id="linearGradient8081" gradientUnits="userSpaceOnUse" gradientTransform="matrix(1.5,0,0,1.5,52.049369,52.049369)" x1="-43.047825" y1="-34" x2="-43.047825" y2="-28"/>
  </defs>
  <sodipodi:namedview pagecolor="#383c4a" bordercolor="#ffffff" borderopacity="0.62745098" objecttolerance="4" gridtolerance="10" guidetolerance="4" inkscape:pageopacity="0" inkscape:pageshadow="2" inkscape:window-width="640" inkscape:window-height="480" id="namedview20" showgrid="true" inkscape:zoom="23.10501" inkscape:cx="-39.209813" inkscape:cy="88.642553" inkscape:current-layer="layer8" inkscape:snap-smooth-nodes="false" showguides="true" borderlayer="true" inkscape:showpageshadow="false" inkscape:guide-bbox="true" guidecolor="#bd4fff" guideopacity="0.78431373" inkscape:snap-nodes="true" inkscape:lockguides="false" fit-margin-top="0" fit-margin-left="0" fit-margin-right="0" fit-margin-bottom="0" guidehicolor="#ff0101" guidehiopacity="0.78431373" inkscape:snap-page="true" inkscape:object-nodes="true" inkscape:snap-bbox="true" inkscape:snap-global="true" inkscape:snap-object-midpoints="false" inkscape:snap-bbox-edge-midpoints="false">
    <inkscape:grid type="xygrid" id="grid4171" empspacing="4" dotted="false" originx="2.7755576e-17" originy="0" spacingx="1" spacingy="1" color="#5a5a5a" opacity="0.23529412" empcolor="#5a5a5a" empopacity="0.47058824" visible="true"/>
    <inkscape:grid type="axonomgrid" id="grid4699" units="mm" empspacing="4" color="#5a5a5a" opacity="0.23529412" empcolor="#5a5a5a" empopacity="0.47058824" gridanglex="45" gridanglez="45" spacingy="3.7795276" visible="false" originx="1.3228346" originy="1.3228346"/>
    <sodipodi:guide position="48,0" orientation="1,0" id="guide4568" inkscape:locked="false" inkscape:label="" inkscape:color="rgb(189,79,255)"/>
    <sodipodi:guide position="111.99996,-3.9999999e-05" orientation="0,1" id="guide4570" inkscape:locked="false" inkscape:label="" inkscape:color="rgb(189,79,255)"/>
    <sodipodi:guide position="0,0" orientation="1,0" id="guide4572" inkscape:locked="false" inkscape:label="" inkscape:color="rgb(189,79,255)"/>
    <sodipodi:guide position="0,48" orientation="0,1" id="guide4574" inkscape:locked="false" inkscape:label="" inkscape:color="rgb(189,79,255)"/>
    <sodipodi:guide position="0,80" orientation="0,1" id="guide4576" inkscape:locked="false" inkscape:label="" inkscape:color="rgb(189,79,255)"/>
    <sodipodi:guide position="-32,48" orientation="1,0" id="guide4578" inkscape:locked="false" inkscape:label="" inkscape:color="rgb(189,79,255)"/>
    <sodipodi:guide position="-32,104" orientation="0,1" id="guide4580" inkscape:locked="false" inkscape:label="" inkscape:color="rgb(189,79,255)"/>
    <sodipodi:guide position="-56,80" orientation="1,0" id="guide4582" inkscape:locked="false" inkscape:label="" inkscape:color="rgb(189,79,255)"/>
    <sodipodi:guide position="48,-64" orientation="0,1" id="guide4584" inkscape:locked="false" inkscape:label="" inkscape:color="rgb(189,79,255)"/>
    <sodipodi:guide position="0,0" orientation="-0.70710678,0.70710678" id="guide4588" inkscape:locked="false" inkscape:label="" inkscape:color="rgb(189,79,255)"/>
    <sodipodi:guide position="-56,80" orientation="-0.70710678,0.70710678" id="guide4573" inkscape:locked="false" inkscape:label="" inkscape:color="rgb(189,79,255)"/>
    <sodipodi:guide position="-32,48" orientation="-0.70710678,0.70710678" id="guide4575" inkscape:locked="false" inkscape:label="" inkscape:color="rgb(189,79,255)"/>
    <sodipodi:guide position="48,-64" orientation="-0.70710678,0.70710678" id="guide4577" inkscape:locked="false" inkscape:label="" inkscape:color="rgb(189,79,255)"/>
    <sodipodi:guide position="47.999962,0" orientation="0.70710678,0.70710678" id="guide4697" inkscape:locked="false" inkscape:label="" inkscape:color="rgb(189,79,255)"/>
    <sodipodi:guide position="207.99995,-288" orientation="0,1" id="guide7833" inkscape:locked="false"/>
    <sodipodi:guide position="335.99994,-288" orientation="1,0" id="guide7835" inkscape:locked="false" inkscape:label="" inkscape:color="rgb(189,79,255)"/>
    <sodipodi:guide position="111.99996,-64" orientation="1,0" id="guide7915" inkscape:locked="false"/>
    <sodipodi:guide position="111.99996,-160" orientation="0,1" id="guide7917" inkscape:locked="false"/>
    <sodipodi:guide position="207.99996,-160" orientation="1,0" id="guide7919" inkscape:locked="false"/>
    <sodipodi:guide position="111.99996,-160" orientation="-0.70710678,0.70710678" id="guide7921" inkscape:locked="false" inkscape:label="" inkscape:color="rgb(189,79,255)"/>
    <sodipodi:guide position="207.99996,-288" orientation="-0.70710678,0.70710678" id="guide7923" inkscape:locked="false" inkscape:label="" inkscape:color="rgb(189,79,255)"/>
    <sodipodi:guide position="-72,104" orientation="1,0" id="guide7824" inkscape:locked="false"/>
    <sodipodi:guide position="-56,120" orientation="0,1" id="guide7826" inkscape:locked="false"/>
    <sodipodi:guide position="-72,104" orientation="-0.70710678,0.70710678" id="guide7828" inkscape:locked="false" inkscape:label="" inkscape:color="rgb(189,79,255)"/>
  </sodipodi:namedview>
  <g inkscape:groupmode="layer" id="g7907" inkscape:label="icon_64" style="display:inline" transform="translate(-48,-48)">
    <g inkscape:groupmode="layer" id="g7843" inkscape:label="frame" style="display:none">
      <rect inkscape:label="frame_64" y="48" x="48" height="64" width="64" id="rect7837" style="color:#000000;clip-rule:nonzero;display:inline;overflow:visible;visibility:visible;opacity:1;isolation:auto;mix-blend-mode:normal;color-interpolation:sRGB;color-interpolation-filters:linearRGB;solid-color:#000000;solid-opacity:1;vector-effect:none;fill:#000000;fill-opacity:1;fill-rule:nonzero;stroke:#ff24f7;stroke-width:0;stroke-linecap:square;stroke-linejoin:miter;stroke-miterlimit:4;stroke-dasharray:none;stroke-dashoffset:0;stroke-opacity:0.99481865;marker:none;marker-start:none;marker-mid:none;marker-end:none;paint-order:normal;color-rendering:auto;image-rendering:auto;shape-rendering:auto;text-rendering:auto;enable-background:accumulate"/>
      <text xml:space="preserve" style="font-size:16px;line-height:0%;font-family:sans-serif;letter-spacing:0px;word-spacing:0px;display:inline;opacity:1;fill:#ffffff;fill-opacity:1;stroke:none;stroke-width:0.03278551px;stroke-linecap:butt;stroke-linejoin:miter;stroke-opacity:1" x="69.816406" y="85.824219" id="text7841" inkscape:label="txt_64">
        <tspan sodipodi:role="line" x="69.816406" y="85.824219" style="font-size:16px;line-height:0%;fill:#ffffff;fill-opacity:1;stroke:none;stroke-width:0.03278551px" id="tspan7839">64</tspan>
      </text>
    </g>
    <g inkscape:groupmode="layer" id="g7905" inkscape:label="icon" style="display:inline">
      <path inkscape:label="Hoja sombra" sodipodi:nodetypes="cccccc" inkscape:connector-curvature="0" id="path7845" d="m 57,51.999958 h 29.01574 l 16.98426,17 V 109.99996 H 57 Z" style="color:#000000;clip-rule:nonzero;display:inline;overflow:visible;visibility:visible;opacity:1;isolation:auto;mix-blend-mode:normal;color-interpolation:sRGB;color-interpolation-filters:linearRGB;solid-color:#000000;solid-opacity:1;vector-effect:none;fill:url(#linearGradient8259);fill-opacity:1;fill-rule:nonzero;stroke:none;stroke-width:0.85190946;stroke-linecap:butt;stroke-linejoin:miter;stroke-miterlimit:4;stroke-dasharray:none;stroke-dashoffset:0;stroke-opacity:1;marker:none;marker-start:none;marker-mid:none;marker-end:none;paint-order:fill markers stroke;color-rendering:auto;image-rendering:auto;shape-rendering:auto;text-rendering:auto;enable-background:accumulate"/>
      <path style="color:#000000;clip-rule:nonzero;display:inline;overflow:visible;visibility:visible;opacity:1;isolation:auto;mix-blend-mode:normal;color-interpolation:sRGB;color-interpolation-filters:linearRGB;solid-color:#000000;solid-opacity:1;vector-effect:none;fill:url(#linearGradient7909);fill-opacity:1;fill-rule:nonzero;stroke:none;stroke-width:0.55247194;stroke-linecap:butt;stroke-linejoin:miter;stroke-miterlimit:4;stroke-dasharray:none;stroke-dashoffset:0;stroke-opacity:1;marker:none;marker-start:none;marker-mid:none;marker-end:none;paint-order:fill markers stroke;color-rendering:auto;image-rendering:auto;shape-rendering:auto;text-rendering:auto;enable-background:accumulate" d="m 58,52.999958 h 28 l 16,16 c 1.7e-4,13.11112 0,40.000002 0,40.000002 H 58 c -3e-5,-18.444452 -1e-5,-37.555552 0,-56.000002 z" id="path7847" inkscape:connector-curvature="0" sodipodi:nodetypes="cccccc" inkscape:label="Hoja"/>
      <path inkscape:label="Hoja sombra sobre derecha" sodipodi:nodetypes="cccccc" inkscape:connector-curvature="0" id="path7849" d="m 58,52.999958 h 28 l 16,16 c 1.7e-4,13.11112 -2.6e-4,26.88888 0,40.000002 H 58 Z" style="color:#000000;clip-rule:nonzero;display:inline;overflow:visible;visibility:visible;opacity:1;isolation:auto;mix-blend-mode:normal;color-interpolation:sRGB;color-interpolation-filters:linearRGB;solid-color:#000000;solid-opacity:1;vector-effect:none;fill:url(#linearGradient7911);fill-opacity:1;fill-rule:nonzero;stroke:none;stroke-width:0.55247194;stroke-linecap:butt;stroke-linejoin:miter;stroke-miterlimit:4;stroke-dasharray:none;stroke-dashoffset:0;stroke-opacity:1;marker:none;marker-start:none;marker-mid:none;marker-end:none;paint-order:fill markers stroke;color-rendering:auto;image-rendering:auto;shape-rendering:auto;text-rendering:auto;enable-background:accumulate"/>
      <path style="color:#000000;clip-rule:nonzero;display:inline;overflow:visible;visibility:visible;opacity:0.4;isolation:auto;mix-blend-mode:normal;color-interpolation:sRGB;color-interpolation-filters:linearRGB;solid-color:#000000;solid-opacity:1;vector-effect:none;fill:url(#linearGradient9428-2);fill-opacity:1;fill-rule:nonzero;stroke:none;stroke-width:0.56332874;stroke-linecap:butt;stroke-linejoin:miter;stroke-miterlimit:4;stroke-dasharray:none;stroke-dashoffset:0;stroke-opacity:0.34375;marker:none;marker-start:none;marker-mid:none;marker-end:none;paint-order:fill markers stroke;color-rendering:auto;image-rendering:auto;shape-rendering:auto;text-rendering:auto;enable-background:accumulate" d="m 58.666369,52.996943 v 2.023884 h -0.666257 v 0.674627 h 0.666257 v 2.023884 h -0.666257 v 0.674629 h 0.666257 v 2.023884 h -0.666257 v 0.674627 h 0.666257 v 2.023884 h -0.666257 v 0.674628 h 0.666257 v 2.023884 h -0.666257 v 0.674627 h 0.666257 v 2.023884 h -0.666257 v 0.674629 h 0.666257 v 2.023884 h -0.666257 v 0.674627 h 0.666257 v 2.023884 h -0.666257 v 0.674628 h 0.666257 v 2.023884 h -0.666257 v 0.674627 h 0.666257 v 2.023884 h -0.666257 v 0.674629 h 0.666257 v 2.023884 h -0.666257 v 0.674627 h 0.666257 v 2.023884 h -0.666257 v 0.674628 h 0.666257 v 2.023884 h -0.666257 v 0.674627 h 0.666257 v 2.023884 h -0.666257 v 0.674629 h 0.666257 v 2.023884 h -0.666257 v 0.674627 h 0.666257 v 2.023886 h -0.666257 v 0.674628 h 0.666257 v 2.023884 h -0.666257 v 0.674627 h 0.666257 v 2.023886 h -0.666257 v 0.67463 h 0.666257 v 2.02389 h -0.666257 v 0.67463 h 0.666257 v 2.02388 h -0.666257 v 0.67462 h 0.666257 v 2.02389 h 0.666257 v -2.02389 h 1.998771 v 2.02389 h 0.666257 v -2.02389 h 1.998772 v 2.02389 h 0.666257 v -2.02389 h 1.998771 v 2.02389 h 0.666257 v -2.02389 h 1.998771 v 2.02389 h 0.666257 v -2.02389 h 1.998771 v 2.02389 h 0.666257 v -2.02389 h 1.998772 v 2.02389 h 0.666257 v -2.02389 h 1.998771 v 2.02389 h 0.666257 v -2.02389 h 1.998771 v 2.02389 h 0.666257 v -2.02389 h 1.998771 v 2.02389 h 0.666257 v -2.02389 h 1.998772 v 2.02389 h 0.666257 v -2.02389 h 1.998771 v 2.02389 h 0.666257 v -2.02389 h 1.998771 v 2.02389 h 0.666257 v -2.02389 h 1.998769 v 1.96065 h 0.666257 v -1.96065 h 1.998772 v 2.02389 h 0.666257 v -2.02389 h 1.998771 v 2.02389 h 0.666257 v -2.02389 h 2.665032 v -0.67462 h -2.665032 v -2.02388 h 2.665032 v -0.67463 h -2.665032 v -2.02389 h 2.665032 v -0.67463 h -2.665032 v -2.023886 h 2.665032 v -0.674627 h -2.665032 v -2.023884 h 2.665032 v -0.674628 h -2.665032 v -2.023886 h 2.665032 v -0.674627 h -2.665032 v -2.023884 h 2.665032 v -0.674629 h -2.665032 v -2.023884 h 2.665032 v -0.674627 h -2.665032 v -2.023884 h 2.665032 v -0.674628 h -2.665032 v -2.023884 h 2.665032 v -0.674627 h -2.665032 v -2.023884 h 2.665032 v -0.674629 h -2.665032 v -2.023884 h 2.665032 v -0.674627 h -2.665032 v -2.023884 h 2.665032 v -0.674628 h -2.665032 v -2.023884 h 2.665032 v -0.674627 h -2.665032 v -2.023884 h -0.666257 v 2.023884 H 96.64302 v -2.023884 h -0.666257 v 2.023884 h -1.998772 v -2.087132 h -0.666257 v 2.087132 h -1.998769 v -2.023884 h -0.666257 v 2.023884 H 88.647937 V 69.188014 H 87.98168 v 2.023884 H 85.982909 V 52.996943 h -0.666257 v 2.023884 H 83.31788 v -2.023884 h -0.666257 v 2.023884 h -1.998771 v -2.023884 h -0.666257 v 2.023884 h -1.998771 v -2.023884 h -0.666257 v 2.023884 h -1.998771 v -2.023884 h -0.666257 v 2.023884 H 72.657767 V 52.996943 H 71.99151 v 2.023884 h -1.998771 v -2.023884 h -0.666257 v 2.023884 h -1.998771 v -2.023884 h -0.666257 v 2.023884 h -1.998771 v -2.023884 h -0.666257 v 2.023884 h -1.998772 v -2.023884 h -0.666257 v 2.023884 h -1.998771 v -2.023884 z m 0.666257,2.698511 h 1.998771 v 2.023884 h -1.998771 z m 2.665028,0 h 1.998772 v 2.023884 h -1.998772 z m 2.665029,0 h 1.998771 v 2.023884 h -1.998771 z m 2.665028,0 h 1.998771 v 2.023884 h -1.998771 z m 2.665028,0 h 1.998771 v 2.023884 h -1.998771 z m 2.665028,0 h 1.998772 v 2.023884 h -1.998772 z m 2.665029,0 h 1.998771 v 2.023884 h -1.998771 z m 2.665028,0 h 1.998771 v 2.023884 h -1.998771 z m 2.665028,0 h 1.998771 v 2.023884 h -1.998771 z m 2.665028,0 h 1.998772 v 2.023884 H 83.31788 Z m -23.985254,2.698513 h 1.998771 v 2.023884 h -1.998771 z m 2.665028,0 h 1.998772 v 2.023884 h -1.998772 z m 2.665029,0 h 1.998771 v 2.023884 h -1.998771 z m 2.665028,0 h 1.998771 v 2.023884 h -1.998771 z m 2.665028,0 h 1.998771 v 2.023884 h -1.998771 z m 2.665028,0 h 1.998772 v 2.023884 h -1.998772 z m 2.665029,0 h 1.998771 v 2.023884 h -1.998771 z m 2.665028,0 h 1.998771 v 2.023884 h -1.998771 z m 2.665028,0 h 1.998771 v 2.023884 h -1.998771 z m 2.665028,0 h 1.998772 v 2.023884 H 83.31788 Z m -23.985254,2.698511 h 1.998771 v 2.023884 h -1.998771 z m 2.665028,0 h 1.998772 v 2.023884 h -1.998772 z m 2.665029,0 h 1.998771 v 2.023884 h -1.998771 z m 2.665028,0 h 1.998771 v 2.023884 h -1.998771 z m 2.665028,0 h 1.998771 v 2.023884 h -1.998771 z m 2.665028,0 h 1.998772 v 2.023884 h -1.998772 z m 2.665029,0 h 1.998771 v 2.023884 h -1.998771 z m 2.665028,0 h 1.998771 v 2.023884 h -1.998771 z m 2.665028,0 h 1.998771 v 2.023884 h -1.998771 z m 2.665028,0 h 1.998772 v 2.023884 H 83.31788 Z M 59.332626,63.79099 h 1.998771 v 2.023884 h -1.998771 z m 2.665028,0 h 1.998772 v 2.023884 h -1.998772 z m 2.665029,0 h 1.998771 v 2.023884 h -1.998771 z m 2.665028,0 h 1.998771 v 2.023884 h -1.998771 z m 2.665028,0 h 1.998771 v 2.023884 h -1.998771 z m 2.665028,0 h 1.998772 v 2.023884 h -1.998772 z m 2.665029,0 h 1.998771 v 2.023884 h -1.998771 z m 2.665028,0 h 1.998771 v 2.023884 h -1.998771 z m 2.665028,0 h 1.998771 v 2.023884 h -1.998771 z m 2.665028,0 h 1.998772 v 2.023884 H 83.31788 Z m -23.985254,2.698511 h 1.998771 v 2.023884 h -1.998771 z m 2.665028,0 h 1.998772 v 2.023884 h -1.998772 z m 2.665029,0 h 1.998771 v 2.023884 h -1.998771 z m 2.665028,0 h 1.998771 v 2.023884 h -1.998771 z m 2.665028,0 h 1.998771 v 2.023884 h -1.998771 z m 2.665028,0 h 1.998772 v 2.023884 h -1.998772 z m 2.665029,0 h 1.998771 v 2.023884 h -1.998771 z m 2.665028,0 h 1.998771 v 2.023884 h -1.998771 z m 2.665028,0 h 1.998771 v 2.023884 h -1.998771 z m 2.665028,0 h 1.998772 v 2.023884 H 83.31788 Z m -23.985254,2.698513 h 1.998771 v 2.023884 h -1.998771 z m 2.665028,0 h 1.998772 v 2.023884 h -1.998772 z m 2.665029,0 h 1.998771 v 2.023884 h -1.998771 z m 2.665028,0 h 1.998771 v 2.023884 h -1.998771 z m 2.665028,0 h 1.998771 v 2.023884 h -1.998771 z m 2.665028,0 h 1.998772 v 2.023884 h -1.998772 z m 2.665029,0 h 1.998771 v 2.023884 h -1.998771 z m 2.665028,0 h 1.998771 v 2.023884 h -1.998771 z m 2.665028,0 h 1.998771 v 2.023884 h -1.998771 z m 2.665028,0 h 1.998772 v 2.023884 H 83.31788 Z m -23.985254,2.698511 h 1.998771 v 2.023884 h -1.998771 z m 2.665028,0 h 1.998772 v 2.023884 h -1.998772 z m 2.665029,0 h 1.998771 v 2.023884 h -1.998771 z m 2.665028,0 h 1.998771 v 2.023884 h -1.998771 z m 2.665028,0 h 1.998771 v 2.023884 h -1.998771 z m 2.665028,0 h 1.998772 v 2.023884 h -1.998772 z m 2.665029,0 h 1.998771 v 2.023884 h -1.998771 z m 2.665028,0 h 1.998771 v 2.023884 h -1.998771 z m 2.665028,0 h 1.998771 v 2.023884 h -1.998771 z m 2.665028,0 h 1.998772 v 2.023884 H 83.31788 Z m 2.665029,0 h 1.998771 v 2.023884 h -1.998771 z m 2.665028,0 h 1.998771 v 2.023884 h -1.998771 z m 2.665028,0 h 1.998769 v 2.023884 h -1.998769 z m 2.665026,0 h 1.998772 v 2.023884 h -1.998772 z m 2.665029,0 h 1.998771 v 2.023884 H 96.64302 Z m -37.310394,2.698512 h 1.998771 v 2.023884 h -1.998771 z m 2.665028,0 h 1.998772 v 2.023884 h -1.998772 z m 2.665029,0 h 1.998771 v 2.023884 h -1.998771 z m 2.665028,0 h 1.998771 v 2.023884 h -1.998771 z m 2.665028,0 h 1.998771 v 2.023884 h -1.998771 z m 2.665028,0 h 1.998772 v 2.023884 h -1.998772 z m 2.665029,0 h 1.998771 v 2.023884 h -1.998771 z m 2.665028,0 h 1.998771 v 2.023884 h -1.998771 z m 2.665028,0 h 1.998771 v 2.023884 h -1.998771 z m 2.665028,0 h 1.998772 v 2.023884 H 83.31788 Z m 2.665029,0 h 1.998771 v 2.023884 h -1.998771 z m 2.665028,0 h 1.998771 v 2.023884 h -1.998771 z m 2.665028,0 h 1.998769 v 2.023884 h -1.998769 z m 2.665026,0 h 1.998772 v 2.023884 h -1.998772 z m 2.665029,0 h 1.998771 v 2.023884 H 96.64302 Z m -37.310394,2.698511 h 1.998771 v 2.023884 h -1.998771 z m 2.665028,0 h 1.998772 v 2.023884 h -1.998772 z m 2.665029,0 h 1.998771 v 2.023884 h -1.998771 z m 2.665028,0 h 1.998771 v 2.023884 h -1.998771 z m 2.665028,0 h 1.998771 v 2.023884 h -1.998771 z m 2.665028,0 h 1.998772 v 2.023884 h -1.998772 z m 2.665029,0 h 1.998771 v 2.023884 h -1.998771 z m 2.665028,0 h 1.998771 v 2.023884 h -1.998771 z m 2.665028,0 h 1.998771 v 2.023884 h -1.998771 z m 2.665028,0 h 1.998772 v 2.023884 H 83.31788 Z m 2.665029,0 h 1.998771 v 2.023884 h -1.998771 z m 2.665028,0 h 1.998771 v 2.023884 h -1.998771 z m 2.665028,0 h 1.998769 v 2.023884 h -1.998769 z m 2.665026,0 h 1.998772 v 2.023884 h -1.998772 z m 2.665029,0 h 1.998771 v 2.023884 H 96.64302 Z m -37.310394,2.698513 h 1.998771 v 2.023884 h -1.998771 z m 2.665028,0 h 1.998772 v 2.023884 h -1.998772 z m 2.665029,0 h 1.998771 v 2.023884 h -1.998771 z m 2.665028,0 h 1.998771 v 2.023884 h -1.998771 z m 2.665028,0 h 1.998771 v 2.023884 h -1.998771 z m 2.665028,0 h 1.998772 v 2.023884 h -1.998772 z m 2.665029,0 h 1.998771 v 2.023884 h -1.998771 z m 2.665028,0 h 1.998771 v 2.023884 h -1.998771 z m 2.665028,0 h 1.998771 v 2.023884 h -1.998771 z m 2.665028,0 h 1.998772 v 2.023884 H 83.31788 Z m 2.665029,0 h 1.998771 v 2.023884 h -1.998771 z m 2.665028,0 h 1.998771 v 2.023884 h -1.998771 z m 2.665028,0 h 1.998769 v 2.023884 h -1.998769 z m 2.665026,0 h 1.998772 v 2.023884 h -1.998772 z m 2.665029,0 h 1.998771 v 2.023884 H 96.64302 Z m -37.310394,2.698511 h 1.998771 v 2.023884 h -1.998771 z m 2.665028,0 h 1.998772 v 2.023884 h -1.998772 z m 2.665029,0 h 1.998771 v 2.023884 h -1.998771 z m 2.665028,0 h 1.998771 v 2.023884 h -1.998771 z m 2.665028,0 h 1.998771 v 2.023884 h -1.998771 z m 2.665028,0 h 1.998772 v 2.023884 h -1.998772 z m 2.665029,0 h 1.998771 v 2.023884 h -1.998771 z m 2.665028,0 h 1.998771 v 2.023884 h -1.998771 z m 2.665028,0 h 1.998771 v 2.023884 h -1.998771 z m 2.665028,0 h 1.998772 v 2.023884 H 83.31788 Z m 2.665029,0 h 1.998771 v 2.023884 h -1.998771 z m 2.665028,0 h 1.998771 v 2.023884 h -1.998771 z m 2.665028,0 h 1.998769 v 2.023884 h -1.998769 z m 2.665026,0 h 1.998772 v 2.023884 h -1.998772 z m 2.665029,0 h 1.998771 v 2.023884 H 96.64302 Z m -37.310394,2.698512 h 1.998771 v 2.023884 h -1.998771 z m 2.665028,0 h 1.998772 v 2.023884 h -1.998772 z m 2.665029,0 h 1.998771 v 2.023884 h -1.998771 z m 2.665028,0 h 1.998771 v 2.023884 h -1.998771 z m 2.665028,0 h 1.998771 v 2.023884 h -1.998771 z m 2.665028,0 h 1.998772 v 2.023884 h -1.998772 z m 2.665029,0 h 1.998771 v 2.023884 h -1.998771 z m 2.665028,0 h 1.998771 v 2.023884 h -1.998771 z m 2.665028,0 h 1.998771 v 2.023884 h -1.998771 z m 2.665028,0 h 1.998772 v 2.023884 H 83.31788 Z m 2.665029,0 h 1.998771 v 2.023884 h -1.998771 z m 2.665028,0 h 1.998771 v 2.023884 h -1.998771 z m 2.665028,0 h 1.998769 v 2.023884 h -1.998769 z m 2.665026,0 h 1.998772 v 2.023884 h -1.998772 z m 2.665029,0 h 1.998771 v 2.023884 H 96.64302 Z m -37.310394,2.698511 h 1.998771 v 2.023884 h -1.998771 z m 2.665028,0 h 1.998772 v 2.023884 h -1.998772 z m 2.665029,0 h 1.998771 v 2.023884 h -1.998771 z m 2.665028,0 h 1.998771 v 2.023884 h -1.998771 z m 2.665028,0 h 1.998771 v 2.023884 h -1.998771 z m 2.665028,0 h 1.998772 v 2.023884 h -1.998772 z m 2.665029,0 h 1.998771 v 2.023884 h -1.998771 z m 2.665028,0 h 1.998771 v 2.023884 h -1.998771 z m 2.665028,0 h 1.998771 v 2.023884 h -1.998771 z m 2.665028,0 h 1.998772 v 2.023884 H 83.31788 Z m 2.665029,0 h 1.998771 v 2.023884 h -1.998771 z m 2.665028,0 h 1.998771 v 2.023884 h -1.998771 z m 2.665028,0 h 1.998769 v 2.023884 h -1.998769 z m 2.665026,0 h 1.998772 v 2.023884 h -1.998772 z m 2.665029,0 h 1.998771 v 2.023884 H 96.64302 Z m -37.310394,2.698513 h 1.998771 v 2.023884 h -1.998771 z m 2.665028,0 h 1.998772 v 2.023884 h -1.998772 z m 2.665029,0 h 1.998771 v 2.023884 h -1.998771 z m 2.665028,0 h 1.998771 v 2.023884 h -1.998771 z m 2.665028,0 h 1.998771 v 2.023884 h -1.998771 z m 2.665028,0 h 1.998772 v 2.023884 h -1.998772 z m 2.665029,0 h 1.998771 v 2.023884 h -1.998771 z m 2.665028,0 h 1.998771 v 2.023884 h -1.998771 z m 2.665028,0 h 1.998771 v 2.023884 h -1.998771 z m 2.665028,0 h 1.998772 v 2.023884 H 83.31788 Z m 2.665029,0 h 1.998771 v 2.023884 h -1.998771 z m 2.665028,0 h 1.998771 v 2.023884 h -1.998771 z m 2.665028,0 h 1.998769 v 2.023884 h -1.998769 z m 2.665026,0 h 1.998772 v 2.023884 h -1.998772 z m 2.665029,0 h 1.998771 v 2.023884 H 96.64302 Z m -37.310394,2.698511 h 1.998771 v 2.023886 h -1.998771 z m 2.665028,0 h 1.998772 v 2.023886 h -1.998772 z m 2.665029,0 h 1.998771 v 2.023886 h -1.998771 z m 2.665028,0 h 1.998771 v 2.023886 h -1.998771 z m 2.665028,0 h 1.998771 v 2.023886 h -1.998771 z m 2.665028,0 h 1.998772 v 2.023886 h -1.998772 z m 2.665029,0 h 1.998771 v 2.023886 h -1.998771 z m 2.665028,0 h 1.998771 v 2.023886 h -1.998771 z m 2.665028,0 h 1.998771 v 2.023886 h -1.998771 z m 2.665028,0 h 1.998772 v 2.023886 H 83.31788 Z m 2.665029,0 h 1.998771 v 2.023886 h -1.998771 z m 2.665028,0 h 1.998771 v 2.023886 h -1.998771 z m 2.665028,0 h 1.998769 v 2.023886 h -1.998769 z m 2.665026,0 h 1.998772 v 2.023886 h -1.998772 z m 2.665029,0 h 1.998771 v 2.023886 H 96.64302 Z m -37.310394,2.698514 h 1.998771 v 2.023884 h -1.998771 z m 2.665028,0 h 1.998772 v 2.023884 h -1.998772 z m 2.665029,0 h 1.998771 v 2.023884 h -1.998771 z m 2.665028,0 h 1.998771 v 2.023884 h -1.998771 z m 2.665028,0 h 1.998771 v 2.023884 h -1.998771 z m 2.665028,0 h 1.998772 v 2.023884 h -1.998772 z m 2.665029,0 h 1.998771 v 2.023884 h -1.998771 z m 2.665028,0 h 1.998771 v 2.023884 h -1.998771 z m 2.665028,0 h 1.998771 v 2.023884 h -1.998771 z m 2.665028,0 h 1.998772 v 2.023884 H 83.31788 Z m 2.665029,0 h 1.998771 v 2.023884 h -1.998771 z m 2.665028,0 h 1.998771 v 2.023884 h -1.998771 z m 2.665028,0 h 1.998769 v 2.023884 h -1.998769 z m 2.665026,0 h 1.998772 v 2.023884 h -1.998772 z m 2.665029,0 h 1.998771 v 2.023884 H 96.64302 Z m -37.310394,2.698511 h 1.998771 v 2.023886 h -1.998771 z m 2.665028,0 h 1.998772 v 2.023886 h -1.998772 z m 2.665029,0 h 1.998771 v 2.023886 h -1.998771 z m 2.665028,0 h 1.998771 v 2.023886 h -1.998771 z m 2.665028,0 h 1.998771 v 2.023886 h -1.998771 z m 2.665028,0 h 1.998772 v 2.023886 h -1.998772 z m 2.665029,0 h 1.998771 v 2.023886 h -1.998771 z m 2.665028,0 h 1.998771 v 2.023886 h -1.998771 z m 2.665028,0 h 1.998771 v 2.023886 h -1.998771 z m 2.665028,0 h 1.998772 v 2.023886 H 83.31788 Z m 2.665029,0 h 1.998771 v 2.023886 h -1.998771 z m 2.665028,0 h 1.998771 v 2.023886 h -1.998771 z m 2.665028,0 h 1.998769 v 2.023886 h -1.998769 z m 2.665026,0 h 1.998772 v 2.023886 h -1.998772 z m 2.665029,0 h 1.998771 v 2.023886 H 96.64302 Z m -37.310394,2.698516 h 1.998771 v 2.02389 h -1.998771 z m 2.665028,0 h 1.998772 v 2.02389 h -1.998772 z m 2.665029,0 h 1.998771 v 2.02389 h -1.998771 z m 2.665028,0 h 1.998771 v 2.02389 h -1.998771 z m 2.665028,0 h 1.998771 v 2.02389 h -1.998771 z m 2.665028,0 h 1.998772 v 2.02389 h -1.998772 z m 2.665029,0 h 1.998771 v 2.02389 h -1.998771 z m 2.665028,0 h 1.998771 v 2.02389 h -1.998771 z m 2.665028,0 h 1.998771 v 2.02389 h -1.998771 z m 2.665028,0 h 1.998772 v 2.02389 H 83.31788 Z m 2.665029,0 h 1.998771 v 2.02389 h -1.998771 z m 2.665028,0 h 1.998771 v 2.02389 h -1.998771 z m 2.665028,0 h 1.998769 v 2.02389 h -1.998769 z m 2.665026,0 h 1.998772 v 2.02389 h -1.998772 z m 2.665029,0 h 1.998771 v 2.02389 H 96.64302 Z m -37.310394,2.69852 h 1.998771 v 2.02388 h -1.998771 z m 2.665028,0 h 1.998772 v 2.02388 h -1.998772 z m 2.665029,0 h 1.998771 v 2.02388 h -1.998771 z m 2.665028,0 h 1.998771 v 2.02388 h -1.998771 z m 2.665028,0 h 1.998771 v 2.02388 h -1.998771 z m 2.665028,0 h 1.998772 v 2.02388 h -1.998772 z m 2.665029,0 h 1.998771 v 2.02388 h -1.998771 z m 2.665028,0 h 1.998771 v 2.02388 h -1.998771 z m 2.665028,0 h 1.998771 v 2.02388 h -1.998771 z m 2.665028,0 h 1.998772 v 2.02388 H 83.31788 Z m 2.665029,0 h 1.998771 v 2.02388 h -1.998771 z m 2.665028,0 h 1.998771 v 2.02388 h -1.998771 z m 2.665028,0 h 1.998769 v 2.02388 h -1.998769 z m 2.665026,0 h 1.998772 v 2.02388 h -1.998772 z m 2.665029,0 h 1.998771 v 2.02388 H 96.64302 Z" id="rect9275-1" inkscape:connector-curvature="0" inkscape:label="patron"/>
      <path style="color:#000000;clip-rule:nonzero;display:inline;overflow:visible;visibility:visible;opacity:1;isolation:auto;mix-blend-mode:normal;color-interpolation:sRGB;color-interpolation-filters:linearRGB;solid-color:#000000;solid-opacity:1;vector-effect:none;fill:none;fill-opacity:1;fill-rule:nonzero;stroke:#b3d4ee;stroke-width:1.32949471;stroke-linecap:butt;stroke-linejoin:miter;stroke-miterlimit:4;stroke-dasharray:none;stroke-dashoffset:0;stroke-opacity:0.21354167;marker:none;marker-start:none;marker-mid:none;marker-end:none;paint-order:fill markers stroke;color-rendering:auto;image-rendering:auto;shape-rendering:auto;text-rendering:auto;enable-background:accumulate" d="m 61.329892,55.660465 h 23.983023 l 12.967198,13.266051 0.356694,36.706244 H 61.329892 Z" id="rect9431-2" inkscape:connector-curvature="0" sodipodi:nodetypes="cccccc" inkscape:label="borde interior"/>
      <path style="display:inline;fill:none;fill-rule:evenodd;stroke:#b8eff9;stroke-width:1.33251417;stroke-linecap:butt;stroke-linejoin:miter;stroke-miterlimit:4;stroke-dasharray:none;stroke-opacity:1" d="M 64.662683,92.30611 H 91.312965 V 76.982197 Z" id="path9444-7" inkscape:connector-curvature="0" sodipodi:nodetypes="cccc" inkscape:label="escuadra"/>
      <path style="color:#000000;font-style:normal;font-variant:normal;font-weight:normal;font-stretch:normal;font-size:medium;line-height:normal;font-family:sans-serif;font-variant-ligatures:normal;font-variant-position:normal;font-variant-caps:normal;font-variant-numeric:normal;font-variant-alternates:normal;font-feature-settings:normal;text-indent:0;text-align:start;text-decoration:none;text-decoration-line:none;text-decoration-style:solid;text-decoration-color:#000000;letter-spacing:normal;word-spacing:normal;text-transform:none;writing-mode:lr-tb;direction:ltr;text-orientation:mixed;dominant-baseline:auto;baseline-shift:baseline;text-anchor:start;white-space:normal;shape-padding:0;clip-rule:nonzero;display:inline;overflow:visible;visibility:visible;opacity:1;isolation:auto;mix-blend-mode:normal;color-interpolation:sRGB;color-interpolation-filters:linearRGB;solid-color:#000000;solid-opacity:1;vector-effect:none;fill:#f8f8f8;fill-opacity:1;fill-rule:evenodd;stroke:none;stroke-width:0.16921203;stroke-linecap:butt;stroke-linejoin:miter;stroke-miterlimit:4;stroke-dasharray:none;stroke-dashoffset:0;stroke-opacity:1;color-rendering:auto;image-rendering:auto;shape-rendering:auto;text-rendering:auto;enable-background:accumulate" d="m 90.89265,71.18758 -0.150947,1.112602 -1.035822,-0.433326 -0.06767,0.161353 1.078763,0.451549 -0.02345,0.173067 -29.423291,16.988256 0.08849,-0.648042 -0.173074,-0.02472 -0.106707,0.783379 -0.3058,0.176971 0.03252,0.05723 -0.806798,-0.338332 -0.06766,0.161355 1.078764,0.452848 -0.157456,1.158141 0.174372,0.02472 0.150947,-1.112595 1.034524,0.433326 0.06896,-0.16136 -1.080063,-0.452849 0.02732,-0.199091 29.423317,-16.988256 -0.09239,0.675365 0.174373,0.02345 0.110612,-0.810701 0.32011,-0.18478 0.756048,0.317512 0.06766,-0.16266 -0.709197,-0.296692 -0.09109,-0.157456 -0.11972,0.06896 -0.158756,-0.06636 0.157457,-1.15944 z m 3.248001,3.600653 -0.104103,0.134031 0.788575,0.610304 v 0.104103 l -0.793778,0.603795 0.102803,0.13533 0.690975,-0.525717 v 17.010376 l -0.797682,-0.618106 -0.09891,0.127521 0.8133,0.629826 -0.818503,0.622011 0.09759,0.127528 0.852343,-0.648041 0.847133,0.654544 0.09889,-0.126222 -0.723515,-0.559557 v -0.137935 l 0.728718,-0.554345 -0.09759,-0.127522 -0.631125,0.480171 V 75.742073 l 0.828923,0.640232 0.104096,-0.132731 -0.857539,-0.663652 0.862749,-0.65585 -0.102803,-0.13533 -0.838025,0.636328 h -0.122324 z m -18.160706,1.802278 -0.852343,0.491884 0.465861,0.806798 c 0.04451,-0.06196 0.09195,-0.116629 0.141839,-0.16266 0.05064,-0.04637 0.104596,-0.08619 0.16266,-0.11972 0.124011,-0.07162 0.241299,-0.09633 0.351345,-0.07287 0.110065,0.02345 0.196998,0.09118 0.261558,0.203001 0.06456,0.111825 0.079,0.222191 0.04424,0.329225 -0.03472,0.107034 -0.114116,0.196466 -0.238134,0.268069 -0.07671,0.04431 -0.154191,0.07768 -0.23293,0.100198 -0.07876,0.02245 -0.159848,0.03425 -0.244643,0.03645 l 0.124924,0.218612 c 0.0878,-0.02012 0.169789,-0.0455 0.245942,-0.07417 0.07687,-0.02912 0.149928,-0.06256 0.217313,-0.101498 0.1957,-0.11299 0.319683,-0.248581 0.372171,-0.406003 0.05204,-0.158143 0.02818,-0.323029 -0.07157,-0.495789 -0.09686,-0.16773 -0.226421,-0.2706 -0.387788,-0.308403 -0.161354,-0.03778 -0.330883,-0.0047 -0.510099,0.09889 -0.03151,0.01819 -0.06157,0.03851 -0.0898,0.06243 -0.02865,0.02319 -0.05537,0.05037 -0.08068,0.07937 l -0.227726,-0.394291 0.653245,-0.377368 z m -1.413198,0.943427 c -0.146936,-0.02605 -0.303453,0.0081 -0.469757,0.104109 -0.0631,0.03645 -0.128261,0.08654 -0.193895,0.148342 -0.06563,0.06183 -0.131919,0.135611 -0.199097,0.221218 l 0.127528,0.218618 c 0.05829,-0.0977 0.117968,-0.180129 0.179577,-0.247248 0.0623,-0.06753 0.127095,-0.120745 0.195193,-0.160054 0.09606,-0.0555 0.189237,-0.0741 0.279774,-0.05463 0.09126,0.01899 0.161561,0.07214 0.210811,0.157456 0.03018,0.0523 0.04717,0.112857 0.05076,0.18348 0.004,0.06949 -0.0068,0.164093 -0.03124,0.28238 -0.01253,0.0627 -0.04857,0.206873 -0.108007,0.433327 -0.05917,0.225315 -0.104755,0.404532 -0.137935,0.537429 l 0.105409,0.183482 1.0189,-0.589485 -0.105402,-0.182181 -0.757347,0.437231 c 0.07185,-0.279482 0.126308,-0.496255 0.165264,-0.65064 0.03851,-0.155098 0.06169,-0.248641 0.06766,-0.279775 0.01885,-0.117947 0.02258,-0.213429 0.013,-0.286283 -0.0092,-0.07399 -0.03218,-0.143553 -0.07028,-0.209505 -0.08029,-0.139081 -0.194,-0.221211 -0.340937,-0.247248 z m -1.638312,0.817211 -0.217313,0.126222 -0.338333,0.299296 0.113211,0.197792 0.342237,-0.300595 0.706598,1.224507 -0.355255,0.205607 0.105409,0.182174 0.925211,-0.533525 -0.105402,-0.183481 -0.355255,0.205607 z m 25.558504,5.659281 c -0.207766,0 -0.367481,0.08253 -0.477573,0.247241 -0.109259,0.163899 -0.163959,0.40152 -0.163959,0.714407 0,0.312055 0.0547,0.550982 0.163959,0.715707 0.110092,0.163886 0.269807,0.245942 0.477573,0.245942 0.207759,0 0.365702,-0.08206 0.474968,-0.245942 0.110086,-0.164725 0.165265,-0.403652 0.165265,-0.715707 0,-0.312887 -0.05517,-0.550508 -0.165265,-0.714407 -0.109266,-0.164719 -0.267209,-0.247241 -0.474968,-0.247241 z m -2.153622,0.03252 v 0.931714 c 0.06953,-0.03144 0.138081,-0.0541 0.204301,-0.06896 0.06704,-0.01486 0.133344,-0.02212 0.200396,-0.02212 0.143199,0 0.257335,0.03657 0.340938,0.111905 0.0836,0.07533 0.124923,0.177977 0.124923,0.307104 0,0.129128 -0.04131,0.231784 -0.124923,0.307105 -0.0836,0.07533 -0.197739,0.11321 -0.340938,0.11321 -0.08857,0 -0.172987,-0.01006 -0.252451,-0.02991 -0.07946,-0.01986 -0.155831,-0.05057 -0.230325,-0.09109 v 0.252452 c 0.08609,0.02645 0.169556,0.0453 0.249847,0.05856 0.08111,0.01326 0.160321,0.02078 0.238133,0.02078 0.225974,0 0.401553,-0.05517 0.525716,-0.165266 0.124164,-0.110917 0.186086,-0.266376 0.186086,-0.465859 0,-0.193695 -0.0613,-0.347254 -0.182182,-0.460651 -0.120845,-0.113404 -0.284951,-0.170468 -0.491883,-0.170468 -0.03645,0 -0.07159,0.004 -0.108007,0.01039 -0.03645,0.006 -0.07288,0.01493 -0.109306,0.02732 v -0.454153 h 0.754743 v -0.21211 z m 2.153622,0.165259 c 0.129954,0 0.226921,0.06383 0.291487,0.191288 0.06536,0.126649 0.09759,0.317619 0.09759,0.572568 0,0.254111 -0.03218,0.445087 -0.09759,0.572562 -0.06456,0.126641 -0.161533,0.189989 -0.291487,0.189989 -0.129134,0 -0.227387,-0.06336 -0.292793,-0.189989 -0.06456,-0.127475 -0.09629,-0.318451 -0.09629,-0.572562 0,-0.254949 0.03171,-0.445919 0.09629,-0.572568 0.06536,-0.127468 0.163659,-0.191288 0.292793,-0.191288 z m -37.449634,5.854473 -0.0027,0.01819 -0.01693,-0.0067 z m 2.54271,5.729554 -0.134031,0.102804 0.627214,0.823713 v 0.145743 l -0.635022,0.821109 0.134031,0.104103 0.663658,-0.856247 0.655844,0.86145 0.134031,-0.102803 -0.619413,-0.8133 h 26.129769 l -0.588178,0.761251 0.127528,0.09891 0.62852,-0.813306 0.623311,0.818509 0.127528,-0.0976 -0.588178,-0.772959 v -0.157456 l 0.594688,-0.769061 -0.127529,-0.09889 -0.540035,0.697484 H 90.61678 l -0.534831,-0.702694 -0.127522,0.0976 0.46065,0.605094 H 64.535155 l 0.498393,-0.644137 -0.134031,-0.104103 -0.579071,0.74824 h -0.166564 z m 14.668063,3.000761 c -0.207753,0 -0.366175,0.08253 -0.476268,0.247242 -0.109259,0.1639 -0.163958,0.402819 -0.163958,0.715709 0,0.312052 0.0547,0.549682 0.163958,0.714402 0.110093,0.16389 0.268509,0.24594 0.476268,0.24594 0.207772,0 0.367014,-0.082 0.476273,-0.24594 0.110093,-0.16472 0.16396,-0.40235 0.16396,-0.714402 0,-0.31289 -0.05384,-0.551809 -0.16396,-0.715709 -0.109259,-0.164718 -0.268488,-0.247242 -0.476273,-0.247242 z m 1.618798,0 c -0.207766,0 -0.366175,0.08253 -0.476268,0.247242 -0.109259,0.1639 -0.163966,0.402819 -0.163959,0.715709 0,0.312052 0.0547,0.549682 0.163959,0.714402 0.110093,0.16389 0.268502,0.24594 0.476268,0.24594 0.207765,0 0.367008,-0.082 0.476274,-0.24594 0.110092,-0.16472 0.165258,-0.40235 0.165258,-0.714402 0,-0.31289 -0.05517,-0.551809 -0.165258,-0.715709 -0.109266,-0.164718 -0.268509,-0.247242 -0.476274,-0.247242 z m -3.323478,0.03385 -0.443733,0.0898 v 0.22772 l 0.446339,-0.08979 v 1.414493 h -0.409908 v 0.2108 h 1.068357 v -0.2108 h -0.409908 v -1.64222 z m 1.70468,0.165266 c 0.129967,0 0.226927,0.06383 0.291487,0.191289 0.06542,0.126642 0.09889,0.317618 0.09889,0.572565 0,0.254113 -0.03351,0.443783 -0.09889,0.571263 -0.06456,0.12664 -0.16152,0.18999 -0.291487,0.18999 -0.129121,0 -0.226075,-0.0633 -0.291488,-0.18999 -0.06456,-0.12748 -0.09759,-0.31715 -0.09759,-0.571263 0,-0.254947 0.03304,-0.445923 0.09759,-0.572565 0.06542,-0.127476 0.162367,-0.191289 0.291488,-0.191289 z m 1.618798,0 c 0.12996,0 0.228226,0.06383 0.292793,0.191289 0.06536,0.126642 0.09759,0.317618 0.09759,0.572565 0,0.254113 -0.03218,0.443783 -0.09759,0.571263 -0.06456,0.12664 -0.162833,0.18999 -0.292793,0.18999 -0.129128,0 -0.226094,-0.0633 -0.291488,-0.18999 -0.06456,-0.12748 -0.09629,-0.31715 -0.09629,-0.571263 0,-0.254947 0.03171,-0.445923 0.09629,-0.572565 0.06542,-0.127476 0.16236,-0.191289 0.291488,-0.191289 z" id="path9446-0" inkscape:connector-curvature="0" inkscape:label="acotes"/>
      <path inkscape:connector-curvature="0" id="path7850-9" d="m 72.866893,61.135599 v 2.248618 h 0.265456 v -2.248618 z m -8.177267,0.09109 v 0.245943 h 0.766455 v 1.911585 h 0.292788 V 61.47263 h 0.766455 v -0.245943 z m 10.808456,0.07937 v 0.459351 h -0.195188 v 0.206906 h 0.195188 v 0.878366 c 6e-6,0.20229 0.03911,0.34195 0.117121,0.419009 0.07802,0.0761 0.219038,0.114517 0.424213,0.114517 h 0.273272 v -0.222523 h -0.273272 c -0.110779,6e-6 -0.183314,-0.01839 -0.219912,-0.05597 -0.03564,-0.03758 -0.05463,-0.123084 -0.05463,-0.25505 v -0.878366 h 0.547836 v -0.206907 h -0.547836 v -0.45935 z m -8.536419,0.420314 c -0.242744,0 -0.435546,0.07818 -0.579071,0.23423 -0.142566,0.155084 -0.214707,0.364922 -0.214707,0.629819 0,0.256237 0.07615,0.460038 0.22642,0.610306 0.151234,0.150273 0.354749,0.225121 0.612903,0.225121 0.10307,0 0.20562,-0.01006 0.305805,-0.03124 0.100179,-0.02119 0.197426,-0.0519 0.292788,-0.09239 v -0.252444 c -0.0944,0.0501 -0.189957,0.08815 -0.286285,0.11321 -0.09536,0.02505 -0.193281,0.03771 -0.295385,0.03771 -0.176284,0 -0.314593,-0.04777 -0.413812,-0.143138 -0.09827,-0.09633 -0.152413,-0.235995 -0.163959,-0.419016 h 1.221902 v -0.130127 c 0,-0.240825 -0.06416,-0.431594 -0.19129,-0.571269 -0.126189,-0.140633 -0.297603,-0.210803 -0.515309,-0.210803 z m 1.920699,0 c -0.116555,0 -0.217133,0.02438 -0.301901,0.07157 -0.08476,0.04717 -0.15793,0.119399 -0.218612,0.218619 V 61.765411 H 68.09378 v 1.618798 h 0.268069 v -0.914805 c 0,-0.15701 0.03978,-0.28196 0.11972,-0.373463 0.07995,-0.09248 0.188197,-0.137942 0.324013,-0.137942 0.114636,0 0.198851,0.03677 0.253751,0.111911 0.0549,0.07417 0.08198,0.190089 0.08198,0.346141 v 0.968158 h 0.268062 v -0.914805 c 0,-0.157969 0.03978,-0.283252 0.11972,-0.37477 0.07995,-0.0915 0.188871,-0.136635 0.326626,-0.136635 0.112697,0 0.196232,0.03677 0.251145,0.111911 0.0549,0.07514 0.08328,0.191056 0.08328,0.346141 v 0.968158 h 0.266763 v -0.977266 c 0,-0.2177 -0.04644,-0.384776 -0.137935,-0.502291 -0.09152,-0.118488 -0.220511,-0.178278 -0.389088,-0.178278 -0.125222,0 -0.234142,0.02905 -0.326619,0.08588 -0.09247,0.05683 -0.172973,0.144718 -0.239439,0.264165 -0.03951,-0.113671 -0.100638,-0.200538 -0.183481,-0.26026 -0.08187,-0.05969 -0.180469,-0.08979 -0.29799,-0.08979 z m 2.881042,0 c -0.118487,0 -0.221371,0.02438 -0.307104,0.07157 -0.08476,0.04624 -0.154939,0.117081 -0.210811,0.213408 v -0.245933 h -0.266762 v 2.234306 h 0.266762 V 63.14088 c 0.0559,0.09632 0.126043,0.168809 0.210811,0.216007 0.08573,0.04624 0.188617,0.06897 0.307104,0.06897 0.196506,0 0.355228,-0.07818 0.477567,-0.234229 0.123297,-0.156052 0.184786,-0.361205 0.184786,-0.615508 0,-0.254305 -0.0615,-0.459458 -0.184786,-0.615509 -0.122339,-0.156051 -0.281061,-0.23423 -0.477567,-0.23423 z m 2.491955,0 c -0.08669,0 -0.175252,0.0093 -0.266763,0.02865 -0.09151,0.01826 -0.186385,0.04698 -0.283678,0.08458 v 0.245942 c 0.08091,-0.0443 0.164791,-0.07803 0.252444,-0.100199 0.08766,-0.02219 0.17819,-0.03385 0.270674,-0.03385 0.145451,0 0.258381,0.03405 0.338332,0.101497 0.08091,0.0665 0.121018,0.161348 0.121018,0.28368 v 0.02605 h -0.372171 c -0.241778,0 -0.424199,0.04543 -0.546537,0.137935 -0.121372,0.09248 -0.182181,0.230445 -0.182181,0.412507 0,0.15605 0.04844,0.280028 0.145743,0.373463 0.09826,0.09248 0.229906,0.139242 0.395591,0.139242 0.131006,0 0.242584,-0.02272 0.333128,-0.06897 0.09054,-0.04717 0.165738,-0.120359 0.226427,-0.218612 v 0.245943 h 0.265464 v -0.923913 c 0,-0.246602 -0.0575,-0.430375 -0.173074,-0.55174 -0.115588,-0.121379 -0.290341,-0.182182 -0.524417,-0.182182 z m 3.086642,0 c -0.242744,0 -0.435538,0.07818 -0.579071,0.23423 -0.142565,0.155084 -0.214708,0.364922 -0.214708,0.629819 0,0.256237 0.07485,0.460038 0.225123,0.610306 0.151233,0.150273 0.356047,0.225121 0.614201,0.225121 0.10307,0 0.205628,-0.01006 0.305806,-0.03124 0.100178,-0.02119 0.197425,-0.0519 0.292786,-0.09239 v -0.252444 c -0.0944,0.0501 -0.189956,0.08815 -0.286283,0.11321 -0.09537,0.02505 -0.193282,0.03771 -0.295392,0.03771 -0.176279,0 -0.314594,-0.04777 -0.413806,-0.143138 -0.09827,-0.09633 -0.153712,-0.235995 -0.165265,-0.419016 H 78.0486 v -0.130127 c 0,-0.240825 -0.06416,-0.431594 -0.191289,-0.571269 -0.126189,-0.140633 -0.297604,-0.210803 -0.51531,-0.210803 z m -5.643664,0.222517 c 0.140641,0 0.250574,0.05609 0.330524,0.16787 0.08092,0.110772 0.121019,0.263805 0.121019,0.459352 0,0.195539 -0.0401,0.348911 -0.121019,0.46065 -0.07995,0.110778 -0.189883,0.166564 -0.330524,0.166564 -0.14064,6e-6 -0.252211,-0.05577 -0.333128,-0.166564 -0.07996,-0.111739 -0.11972,-0.265111 -0.11972,-0.46065 0,-0.195547 0.03978,-0.34858 0.11972,-0.459352 0.08092,-0.111744 0.192488,-0.16787 0.333128,-0.16787 z m -4.734069,0.0027 c 0.131006,0 0.235921,0.04344 0.314914,0.130127 0.0801,0.08669 0.121844,0.203288 0.123616,0.348745 l -0.94863,0.0013 c 0.01346,-0.152199 0.06497,-0.270147 0.153553,-0.353949 0.08958,-0.0838 0.208205,-0.126223 0.356547,-0.126223 z m 10.380338,0 c 0.131006,0 0.235922,0.04344 0.314913,0.130127 0.0801,0.08669 0.121846,0.203288 0.123618,0.348745 l -0.948637,0.0013 c 0.01345,-0.152199 0.06497,-0.270147 0.153552,-0.353949 0.08959,-0.0838 0.208212,-0.126223 0.356554,-0.126223 z m -2.921384,0.619412 h 0.264164 v 0.05856 c 0,0.173387 -0.04444,0.312715 -0.134031,0.417711 -0.08862,0.104035 -0.206572,0.156151 -0.353948,0.156151 -0.106922,0 -0.192442,-0.02705 -0.255056,-0.08198 -0.06163,-0.0559 -0.09239,-0.130727 -0.09239,-0.225121 0,-0.118488 0.0421,-0.203329 0.124923,-0.252452 0.08284,-0.0491 0.23153,-0.07287 0.446338,-0.07287 z" style="font-size:medium;line-height:1000%;font-family:sans-serif;letter-spacing:0px;word-spacing:0px;display:inline;fill:#ffffff;fill-opacity:0.53125;stroke:none;stroke-width:0.18494853px;stroke-linecap:butt;stroke-linejoin:miter;stroke-opacity:1" inkscape:label="txt-template"/>
      <path sodipodi:nodetypes="cccc" inkscape:connector-curvature="0" id="path7901" d="m 86,52.999958 16,16 -18,2 z" style="display:inline;opacity:1;vector-effect:none;fill:url(#linearGradient8277);fill-opacity:1;fill-rule:evenodd;stroke:none;stroke-width:2.19524717px;stroke-linecap:butt;stroke-linejoin:miter;stroke-miterlimit:4;stroke-dasharray:none;stroke-dashoffset:0;stroke-opacity:1" inkscape:label="Pestaa sombra"/>
      <path style="fill:url(#linearGradient7913);fill-opacity:1;fill-rule:evenodd;stroke:none;stroke-width:1.56454539px;stroke-linecap:butt;stroke-linejoin:miter;stroke-opacity:1" d="m 86,52.999958 16,16 H 86 Z" id="path7903" inkscape:connector-curvature="0" sodipodi:nodetypes="cccc" inkscape:label="Pestaa"/>
    </g>
  </g>
</svg>