<?xml version="1.0" encoding="UTF-8" standalone="no"?>
<svg
   xmlns:osb="http://www.openswatchbook.org/uri/2009/osb"
   xmlns:dc="http://purl.org/dc/elements/1.1/"
   xmlns:cc="http://creativecommons.org/ns#"
   xmlns:rdf="http://www.w3.org/1999/02/22-rdf-syntax-ns#"
   xmlns:svg="http://www.w3.org/2000/svg"
   xmlns="http://www.w3.org/2000/svg"
   xmlns:xlink="http://www.w3.org/1999/xlink"
   xmlns:sodipodi="http://sodipodi.sourceforge.net/DTD/sodipodi-0.dtd"
   xmlns:inkscape="http://www.inkscape.org/namespaces/inkscape"
   viewBox="0 0 16 16"
   version="1.1"
   id="svg6"
   sodipodi:docname="object-rotate-right.svg"
   inkscape:version="0.92.2 5c3e80d, 2017-08-06">
  <metadata
     id="metadata10">
    <rdf:RDF>
      <cc:Work
         rdf:about="">
        <dc:format>image/svg+xml</dc:format>
        <dc:type
           rdf:resource="http://purl.org/dc/dcmitype/StillImage" />
      </cc:Work>
    </rdf:RDF>
  </metadata>
  <sodipodi:namedview
     pagecolor="#ffffff"
     bordercolor="#666666"
     borderopacity="1"
     objecttolerance="10"
     gridtolerance="10"
     guidetolerance="10"
     inkscape:pageopacity="0"
     inkscape:pageshadow="2"
     inkscape:window-width="640"
     inkscape:window-height="480"
     id="namedview8"
     showgrid="false"
     inkscape:zoom="41.875"
     inkscape:cx="3.3910448"
     inkscape:cy="7.9044776"
     inkscape:current-layer="svg6" />
  <defs
     id="defs3051">
    <style
       type="text/css"
       id="current-color-scheme">
      .ColorScheme-Text {
        color:#f2f2f2;
      }
      </style>
    <linearGradient
       inkscape:collect="always"
       xlink:href="#default_color"
       id="linearGradient846"
       gradientUnits="userSpaceOnUse"
       gradientTransform="translate(67,515.00001)"
       x1="3"
       y1="-436.5"
       x2="15.000001"
       y2="-436.5" />
    <linearGradient
       id="default_color"
       osb:paint="solid">
      <stop
         style="stop-color:#000000;stop-opacity:1;"
         offset="0"
         id="stop823" />
    </linearGradient>
  </defs>
  <path
     style="fill:url(#linearGradient846);fill-opacity:1;stroke:none;font-variant-east_asian:normal;opacity:0.63999999;vector-effect:none;stroke-width:0.12990442;stroke-linecap:round;stroke-linejoin:round;stroke-miterlimit:4;stroke-dasharray:none;stroke-dashoffset:0;stroke-opacity:0.96354167;marker:none;marker-start:none;marker-mid:none;marker-end:none;paint-order:normal"
     d="M 8.171875 1.671875 L 7.4648438 2.3789062 L 8.4140625 3.328125 L 9.0859375 4 L 5 4 L 5 5 L 9.0859375 5 L 8.4140625 5.671875 L 7.4648438 6.6210938 L 8.171875 7.328125 L 9.1210938 6.3789062 L 11 4.5 L 9.1210938 2.6210938 L 8.171875 1.671875 z M 3.5 5 C 3.22386 5 3 5.22386 3 5.5 C 3 5.77614 3.22386 6 3.5 6 C 3.77614 6 4 5.77614 4 5.5 C 4 5.22386 3.77614 5 3.5 5 z M 10.46875 6.5625 L 6.5625 10.46875 L 10.09375 14 L 14 10.09375 L 10.46875 6.5625 z M 2.5 8 C 2.22386 8 2 8.22386 2 8.5 C 2 8.77614 2.22386 9 2.5 9 C 2.77614 9 3 8.77614 3 8.5 C 3 8.22386 2.77614 8 2.5 8 z M 3.5 11 C 3.22386 11 3 11.22386 3 11.5 C 3 11.77614 3.22386 12 3.5 12 C 3.77614 12 4 11.77614 4 11.5 C 4 11.22386 3.77614 11 3.5 11 z M 6.5 12 C 6.22386 12 6 12.22386 6 12.5 C 6 12.77614 6.22386 13 6.5 13 C 6.77614 13 7 12.77614 7 12.5 C 7 12.22386 6.77614 12 6.5 12 z "
     class="ColorScheme-Text"
     id="path4" />
</svg>
