<?xml version="1.0" encoding="UTF-8" standalone="yes"?>
<svg xmlns:osb="http://www.openswatchbook.org/uri/2009/osb" xmlns:dc="http://purl.org/dc/elements/1.1/" xmlns:cc="http://creativecommons.org/ns#" xmlns:rdf="http://www.w3.org/1999/02/22-rdf-syntax-ns#" xmlns:svg="http://www.w3.org/2000/svg" xmlns="http://www.w3.org/2000/svg" xmlns:xlink="http://www.w3.org/1999/xlink" xmlns:sodipodi="http://sodipodi.sourceforge.net/DTD/sodipodi-0.dtd" xmlns:inkscape="http://www.inkscape.org/namespaces/inkscape" height="48" viewBox="0 0 48 48" width="48" id="svg2" version="1.1" inkscape:version="0.92.1 r" sodipodi:docname="font-x-generic.svg" enable-background="new" folder="48">
  <title id="title4675">Template icons dark</title>
  <metadata id="metadata24">
    <rdf:RDF>
      <cc:Work rdf:about="">
        <dc:format>image/svg+xml</dc:format>
        <dc:type rdf:resource="http://purl.org/dc/dcmitype/StillImage"/>
        <dc:title>Template icons dark</dc:title>
        <dc:date>17/05/13</dc:date>
        <dc:creator>
          <cc:Agent>
            <dc:title>wfpaisa</dc:title>
          </cc:Agent>
        </dc:creator>
        <dc:rights>
          <cc:Agent>
            <dc:title>License: GPLv3</dc:title>
          </cc:Agent>
        </dc:rights>
        <dc:language>es-en</dc:language>
        <dc:subject>
          <rdf:Bag>
            <rdf:li>plane-icon-theme</rdf:li>
          </rdf:Bag>
        </dc:subject>
        <dc:description>Template for create set icons</dc:description>
        <cc:license rdf:resource="https://www.gnu.org/licenses/gpl-3.0.en.html"/>
      </cc:Work>
    </rdf:RDF>
  </metadata>
  <defs id="defs22">
    <linearGradient id="Pestana-sombra-3" osb:paint="solid">
      <stop style="stop-color:#000000;stop-opacity:0.19553073;" offset="0" id="stop8273"/>
    </linearGradient>
    <linearGradient id="Hoja-brillo-8" osb:paint="solid">
      <stop style="stop-color:#ffffff;stop-opacity:0.78212291;" offset="0" id="stop8267"/>
    </linearGradient>
    <linearGradient id="Hoja-sombra-2_-2" osb:paint="solid">
      <stop style="stop-color:#000000;stop-opacity:0.07821229;" offset="0" id="stop8261"/>
    </linearGradient>
    <linearGradient id="Hoja-sombra-1_-9" osb:paint="solid">
      <stop style="stop-color:#000000;stop-opacity:0.15686275;" offset="0" id="stop8255"/>
    </linearGradient>
    <linearGradient id="Pestana-6">
      <stop id="stop7875" offset="0" style="stop-color:#ffffff;stop-opacity:1;"/>
      <stop id="stop7879" offset="1" style="stop-color:#dfdfdf;stop-opacity:1;"/>
    </linearGradient>
    <linearGradient id="Hoja_-5">
      <stop id="stop7831" offset="0" style="stop-color:#f0f0f0;stop-opacity:1;"/>
      <stop id="stop7833" offset="1" style="stop-color:#ffffff;stop-opacity:1"/>
    </linearGradient>
    <linearGradient inkscape:collect="always" xlink:href="#Hoja_-5" id="linearGradient8848" gradientUnits="userSpaceOnUse" gradientTransform="matrix(2.1943448,0,0,2.19615,107.37835,109.17328)" x1="24.116938" y1="4.9307919" x2="24.058121" y2="42.556389"/>
    <linearGradient inkscape:collect="always" xlink:href="#Pestana-6" id="linearGradient8852" gradientUnits="userSpaceOnUse" gradientTransform="matrix(2.5078225,0,0,2.19615,97.006583,108.93197)" x1="33.093815" y1="10.50385" x2="29.903797" y2="14.146588"/>
    <linearGradient inkscape:collect="always" xlink:href="#Hoja_-5" id="linearGradient7823-7" gradientUnits="userSpaceOnUse" x1="24.116938" y1="4.9307919" x2="24.058121" y2="42.556389" gradientTransform="matrix(1.1194338,0,0,1.1203548,-2.9435792,-2.6942142)"/>
    <linearGradient inkscape:collect="always" xlink:href="#Hoja-sombra-2" id="linearGradient7865-3" gradientUnits="userSpaceOnUse" gradientTransform="matrix(1.1194338,0,0,1.1203548,-2.9435792,-2.6942142)" x1="26.072924" y1="18.962273" x2="34.373611" y2="10.815324"/>
    <linearGradient inkscape:collect="always" xlink:href="#Pestana-6" id="linearGradient7825-6" gradientUnits="userSpaceOnUse" x1="34.176132" y1="10.27618" x2="30.758255" y2="13.691247" gradientTransform="matrix(1.2793529,0,0,1.1203548,-8.2346867,-2.8173169)"/>
    <linearGradient inkscape:collect="always" xlink:href="#Hoja_-5" id="linearGradient7909" gradientUnits="userSpaceOnUse" gradientTransform="matrix(1.4628966,0,0,1.4641001,44.91893,46.115528)" x1="24.116938" y1="4.9307919" x2="24.058121" y2="42.556389"/>
    <linearGradient inkscape:collect="always" xlink:href="#Hoja-sombra-2" id="linearGradient7911" gradientUnits="userSpaceOnUse" gradientTransform="matrix(1.4628966,0,0,1.4641001,44.91893,46.115528)" x1="26.072924" y1="18.962273" x2="34.373611" y2="10.815324"/>
    <linearGradient inkscape:collect="always" xlink:href="#Pestana-6" id="linearGradient7913" gradientUnits="userSpaceOnUse" gradientTransform="matrix(1.6718818,0,0,1.4641001,38.00441,45.954658)" x1="34.176132" y1="10.27618" x2="30.758255" y2="13.691247"/>
    <linearGradient inkscape:collect="always" xlink:href="#Hoja-sombra-2" id="linearGradient8850-3" gradientUnits="userSpaceOnUse" gradientTransform="matrix(2.1943448,0,0,2.19615,107.37835,109.17328)" x1="23.980556" y1="23.143555" x2="45.854969" y2="1.2871252"/>
    <linearGradient inkscape:collect="always" xlink:href="#Hoja-sombra-2" id="linearGradient4621" gradientUnits="userSpaceOnUse" gradientTransform="matrix(2.1943448,0,0,2.19615,107.37835,109.17328)" x1="23.980556" y1="23.143555" x2="2.1061459" y2="44.999985"/>
    <linearGradient inkscape:collect="always" xlink:href="#Hoja-sombra-2" id="linearGradient8301" gradientUnits="userSpaceOnUse" gradientTransform="matrix(2.1943448,0,0,2.19615,107.37835,109.17328)" x1="23.980556" y1="23.143555" x2="45.854969" y2="44.999985"/>
    <linearGradient id="Hoja-sombra-2">
      <stop id="stop8303" offset="0" style="stop-color:#000000;stop-opacity:0"/>
      <stop id="stop8305" offset="1" style="stop-color:#000000;stop-opacity:0.10196079"/>
    </linearGradient>
    <linearGradient inkscape:collect="always" xlink:href="#Hoja-sombra-2" id="linearGradient7895" gradientUnits="userSpaceOnUse" gradientTransform="matrix(2.1943448,0,0,2.19615,107.37835,109.17328)" x1="23.980556" y1="23.143555" x2="2.1061459" y2="1.2871252"/>
    <linearGradient inkscape:collect="always" xlink:href="#Hoja_-5" id="linearGradient7818" gradientUnits="userSpaceOnUse" gradientTransform="matrix(0.74628918,0,0,0.74690318,-33.962385,-33.796142)" x1="24.116938" y1="4.9307919" x2="24.058121" y2="42.556389"/>
    <linearGradient inkscape:collect="always" xlink:href="#Pestana-6" id="linearGradient7822" gradientUnits="userSpaceOnUse" gradientTransform="matrix(0.85290191,0,0,0.74690318,-37.489791,-33.878211)" x1="28.713491" y1="15.702977" x2="25.196087" y2="18.581003"/>
    <linearGradient inkscape:collect="always" xlink:href="#Hoja-sombra-1_-9" id="linearGradient8259" x1="125.99999" y1="161.5" x2="193.99999" y2="161.5" gradientUnits="userSpaceOnUse"/>
    <linearGradient inkscape:collect="always" xlink:href="#Hoja-sombra-2_-2" id="linearGradient8265" x1="125" y1="161.49999" x2="195" y2="161.49999" gradientUnits="userSpaceOnUse"/>
    <linearGradient inkscape:collect="always" xlink:href="#Hoja-brillo-8" id="linearGradient8271" x1="126.99999" y1="120.5" x2="168.99999" y2="120.5" gradientUnits="userSpaceOnUse"/>
    <linearGradient inkscape:collect="always" xlink:href="#Pestana-sombra-3" id="linearGradient8277" x1="165.99999" y1="133.47244" x2="192.99999" y2="133.47244" gradientUnits="userSpaceOnUse"/>
    <linearGradient gradientTransform="matrix(1.33333,0,0,1.33333,58.6672,56.167208)" inkscape:collect="always" xlink:href="#Hoja-sombra-2_-2" id="linearGradient8265-7" x1="125" y1="161.49998" x2="195" y2="161.49998" gradientUnits="userSpaceOnUse"/>
    <linearGradient gradientTransform="matrix(1.33333,0,0,1.33333,58.6672,56.167208)" inkscape:collect="always" xlink:href="#Hoja-sombra-1_-9" id="linearGradient8259-9" x1="125.99999" y1="161.5" x2="193.99998" y2="161.5" gradientUnits="userSpaceOnUse"/>
    <linearGradient inkscape:collect="always" xlink:href="#Hoja_-5" id="linearGradient8848-4" gradientUnits="userSpaceOnUse" gradientTransform="matrix(2.9257858,0,0,2.9281927,201.83798,201.73122)" x1="24.116938" y1="4.9307919" x2="24.058121" y2="42.556389"/>
    <linearGradient inkscape:collect="always" xlink:href="#Hoja-sombra-2" id="linearGradient8301-3" gradientUnits="userSpaceOnUse" gradientTransform="matrix(2.9257858,0,0,2.9281927,201.83798,201.73122)" x1="23.980556" y1="23.143555" x2="45.854969" y2="44.999985"/>
    <linearGradient inkscape:collect="always" xlink:href="#Hoja-sombra-2" id="linearGradient4621-0" gradientUnits="userSpaceOnUse" gradientTransform="matrix(2.9257858,0,0,2.9281927,201.83798,201.73122)" x1="23.980556" y1="23.143555" x2="2.1061459" y2="44.999985"/>
    <linearGradient inkscape:collect="always" xlink:href="#Hoja-sombra-2" id="linearGradient8850-3-8" gradientUnits="userSpaceOnUse" gradientTransform="matrix(2.9257858,0,0,2.9281927,201.83798,201.73122)" x1="23.980556" y1="23.143555" x2="45.854969" y2="1.2871252"/>
    <linearGradient inkscape:collect="always" xlink:href="#Hoja-sombra-2" id="linearGradient7895-1" gradientUnits="userSpaceOnUse" gradientTransform="matrix(2.9257858,0,0,2.9281927,201.83798,201.73122)" x1="23.980556" y1="23.143555" x2="2.1061459" y2="1.2871252"/>
    <linearGradient gradientTransform="matrix(1.33333,0,0,1.33333,58.6672,56.167208)" inkscape:collect="always" xlink:href="#Hoja-brillo-8" id="linearGradient8271-9" x1="126.99999" y1="120.5" x2="168.99998" y2="120.5" gradientUnits="userSpaceOnUse"/>
    <linearGradient gradientTransform="matrix(1.33333,0,0,1.33333,58.6672,56.167208)" inkscape:collect="always" xlink:href="#Pestana-sombra-3" id="linearGradient8277-7" x1="165.99998" y1="133.47244" x2="192.99998" y2="133.47244" gradientUnits="userSpaceOnUse"/>
    <linearGradient inkscape:collect="always" xlink:href="#Pestana-6" id="linearGradient8852-2" gradientUnits="userSpaceOnUse" gradientTransform="matrix(3.343755,0,0,2.9281927,188.00898,201.40947)" x1="33.093815" y1="10.50385" x2="29.903797" y2="14.146588"/>
    <linearGradient gradientTransform="matrix(0.33418093,0,0,0.34277768,-69.503435,-71.57129)" inkscape:collect="always" xlink:href="#patron-6" id="linearGradient9428-9" gradientUnits="userSpaceOnUse" x1="188" y1="173.49998" x2="189" y2="173.49998"/>
    <linearGradient id="patron-6" osb:paint="solid">
      <stop style="stop-color:#000000;stop-opacity:0.08379889;" offset="0" id="stop9305"/>
    </linearGradient>
    <linearGradient gradientTransform="matrix(0.5003165,0,0,0.50586389,-56.546906,-57.711743)" inkscape:collect="always" xlink:href="#patron-6" id="linearGradient9428-62" gradientUnits="userSpaceOnUse" x1="188" y1="173.49998" x2="189" y2="173.49998"/>
    <linearGradient gradientTransform="matrix(0.66742097,0,0,0.67482117,-26.771695,-27.999411)" inkscape:collect="always" xlink:href="#patron-6" id="linearGradient9428-62-7" gradientUnits="userSpaceOnUse" x1="188" y1="173.49998" x2="189" y2="173.49998"/>
    <linearGradient gradientTransform="matrix(0.99981922,0,0,1.0002963,0.01735681,-0.05481329)" inkscape:collect="always" xlink:href="#patron-6" id="linearGradient9428-62-2" gradientUnits="userSpaceOnUse" x1="188" y1="173.49998" x2="189" y2="173.49998"/>
    <linearGradient gradientTransform="matrix(1.3339076,0,0,1.3368226,58.573291,55.576961)" inkscape:collect="always" xlink:href="#patron-6" id="linearGradient9428-62-0" gradientUnits="userSpaceOnUse" x1="188" y1="173.49998" x2="189" y2="173.49998"/>
  </defs>
  <sodipodi:namedview pagecolor="#383c4a" bordercolor="#ffffff" borderopacity="0.62745098" objecttolerance="4" gridtolerance="10" guidetolerance="4" inkscape:pageopacity="0" inkscape:pageshadow="2" inkscape:window-width="640" inkscape:window-height="480" id="namedview20" showgrid="false" inkscape:zoom="5.8456082" inkscape:cx="290.54486" inkscape:cy="-231.49736" inkscape:current-layer="layer12" inkscape:snap-smooth-nodes="false" showguides="true" borderlayer="true" inkscape:showpageshadow="false" inkscape:guide-bbox="true" guidecolor="#bd4fff" guideopacity="0.78431373" inkscape:snap-nodes="true" inkscape:lockguides="false" fit-margin-top="0" fit-margin-left="0" fit-margin-right="0" fit-margin-bottom="0" guidehicolor="#ff0101" guidehiopacity="0.78431373" inkscape:snap-page="true" inkscape:object-nodes="true" inkscape:snap-bbox="true" inkscape:snap-global="true" inkscape:snap-object-midpoints="false" inkscape:snap-bbox-edge-midpoints="false">
    <inkscape:grid type="xygrid" id="grid4171" empspacing="4" dotted="false" originx="2.7755576e-17" originy="0" spacingx="1" spacingy="1" color="#5a5a5a" opacity="0.23529412" empcolor="#5a5a5a" empopacity="0.47058824" visible="true"/>
    <inkscape:grid type="axonomgrid" id="grid4699" units="mm" empspacing="4" color="#5a5a5a" opacity="0.23529412" empcolor="#5a5a5a" empopacity="0.47058824" gridanglex="45" gridanglez="45" spacingy="3.7795276" visible="false" originx="1.3228346" originy="1.3228346"/>
    <sodipodi:guide position="48,0" orientation="1,0" id="guide4568" inkscape:locked="false" inkscape:label="" inkscape:color="rgb(189,79,255)"/>
    <sodipodi:guide position="111.99996,-3.9999999e-05" orientation="0,1" id="guide4570" inkscape:locked="false" inkscape:label="" inkscape:color="rgb(189,79,255)"/>
    <sodipodi:guide position="0,0" orientation="1,0" id="guide4572" inkscape:locked="false" inkscape:label="" inkscape:color="rgb(189,79,255)"/>
    <sodipodi:guide position="0,48" orientation="0,1" id="guide4574" inkscape:locked="false" inkscape:label="" inkscape:color="rgb(189,79,255)"/>
    <sodipodi:guide position="0,80" orientation="0,1" id="guide4576" inkscape:locked="false" inkscape:label="" inkscape:color="rgb(189,79,255)"/>
    <sodipodi:guide position="-32,48" orientation="1,0" id="guide4578" inkscape:locked="false" inkscape:label="" inkscape:color="rgb(189,79,255)"/>
    <sodipodi:guide position="-32,104" orientation="0,1" id="guide4580" inkscape:locked="false" inkscape:label="" inkscape:color="rgb(189,79,255)"/>
    <sodipodi:guide position="-56,80" orientation="1,0" id="guide4582" inkscape:locked="false" inkscape:label="" inkscape:color="rgb(189,79,255)"/>
    <sodipodi:guide position="48,-64" orientation="0,1" id="guide4584" inkscape:locked="false" inkscape:label="" inkscape:color="rgb(189,79,255)"/>
    <sodipodi:guide position="0,0" orientation="-0.70710678,0.70710678" id="guide4588" inkscape:locked="false" inkscape:label="" inkscape:color="rgb(189,79,255)"/>
    <sodipodi:guide position="-56,80" orientation="-0.70710678,0.70710678" id="guide4573" inkscape:locked="false" inkscape:label="" inkscape:color="rgb(189,79,255)"/>
    <sodipodi:guide position="-32,48" orientation="-0.70710678,0.70710678" id="guide4575" inkscape:locked="false" inkscape:label="" inkscape:color="rgb(189,79,255)"/>
    <sodipodi:guide position="48,-64" orientation="-0.70710678,0.70710678" id="guide4577" inkscape:locked="false" inkscape:label="" inkscape:color="rgb(189,79,255)"/>
    <sodipodi:guide position="47.999962,0" orientation="0.70710678,0.70710678" id="guide4697" inkscape:locked="false" inkscape:label="" inkscape:color="rgb(189,79,255)"/>
    <sodipodi:guide position="207.99995,-288" orientation="0,1" id="guide7833" inkscape:locked="false"/>
    <sodipodi:guide position="335.99994,-288" orientation="1,0" id="guide7835" inkscape:locked="false" inkscape:label="" inkscape:color="rgb(189,79,255)"/>
    <sodipodi:guide position="111.99996,-64" orientation="1,0" id="guide7915" inkscape:locked="false"/>
    <sodipodi:guide position="111.99996,-160" orientation="0,1" id="guide7917" inkscape:locked="false"/>
    <sodipodi:guide position="207.99996,-160" orientation="1,0" id="guide7919" inkscape:locked="false"/>
    <sodipodi:guide position="111.99996,-160" orientation="-0.70710678,0.70710678" id="guide7921" inkscape:locked="false" inkscape:label="" inkscape:color="rgb(189,79,255)"/>
    <sodipodi:guide position="207.99996,-288" orientation="-0.70710678,0.70710678" id="guide7923" inkscape:locked="false" inkscape:label="" inkscape:color="rgb(189,79,255)"/>
    <sodipodi:guide position="-72,104" orientation="1,0" id="guide7824" inkscape:locked="false"/>
    <sodipodi:guide position="-56,120" orientation="0,1" id="guide7826" inkscape:locked="false"/>
    <sodipodi:guide position="-72,104" orientation="-0.70710678,0.70710678" id="guide7828" inkscape:locked="false" inkscape:label="" inkscape:color="rgb(189,79,255)"/>
  </sodipodi:namedview>
  <g inkscape:groupmode="layer" id="layer3" inkscape:label="icon_48" style="display:inline" transform="translate(6.8969723e-7,-4.5367432e-7)">
    <g inkscape:groupmode="layer" id="layer9" inkscape:label="frame" style="display:none">
      <rect inkscape:label="frame_48" y="4.5367432e-07" x="-6.8969723e-07" height="48" width="48" id="frame_48" style="color:#000000;clip-rule:nonzero;display:block;overflow:visible;visibility:visible;opacity:1;isolation:auto;mix-blend-mode:normal;color-interpolation:sRGB;color-interpolation-filters:linearRGB;solid-color:#000000;solid-opacity:1;vector-effect:none;fill:#000000;fill-opacity:1;fill-rule:nonzero;stroke:#ff24f7;stroke-width:0;stroke-linecap:square;stroke-linejoin:miter;stroke-miterlimit:4;stroke-dasharray:none;stroke-dashoffset:0;stroke-opacity:0.99481865;marker:none;marker-start:none;marker-mid:none;marker-end:none;paint-order:normal;color-rendering:auto;image-rendering:auto;shape-rendering:auto;text-rendering:auto;enable-background:accumulate"/>
      <text xml:space="preserve" style="font-size:18.66666603px;line-height:1000%;font-family:sans-serif;letter-spacing:0px;word-spacing:0px;display:inline;opacity:1;fill:#ffffff;fill-opacity:1;stroke:none;stroke-width:0.11166908px;stroke-linecap:butt;stroke-linejoin:miter;stroke-opacity:1" x="12.301435" y="30.794922" id="txt_48" inkscape:label="txt_48">
        <tspan sodipodi:role="line" x="12.301435" y="30.794922" style="font-size:18.66666603px;fill:#ffffff;fill-opacity:1;stroke:none;stroke-width:0.11166908px" id="tspan5049-1">48</tspan>
      </text>
      <text xml:space="preserve" style="font-size:2.66666675px;line-height:1000%;font-family:sans-serif;letter-spacing:0px;word-spacing:0px;display:inline;opacity:1;fill:#ffffff;fill-opacity:0.44791667;stroke:none;stroke-width:0.0588377px;stroke-linecap:butt;stroke-linejoin:miter;stroke-opacity:1" x="25.824219" y="45.962238" id="txt_scalable_32-64" inkscape:label="txt_scalable_32-64">
        <tspan sodipodi:role="line" x="25.824219" y="45.962238" style="font-size:2.66666675px;fill:#ffffff;fill-opacity:0.44791667;stroke:none;stroke-width:0.0588377px" id="tspan5049-1-6">Scalable:32-64</tspan>
      </text>
    </g>
    <g inkscape:groupmode="layer" id="layer10" inkscape:label="icon" style="display:inline">
      <path inkscape:label="Hoja sombra" sodipodi:nodetypes="cccccc" inkscape:connector-curvature="0" id="path7883-1" d="M 6,1.99999 H 28 L 41,15 40.999974,45.99999 H 6 Z" style="color:#000000;clip-rule:nonzero;display:inline;overflow:visible;visibility:visible;opacity:1;isolation:auto;mix-blend-mode:normal;color-interpolation:sRGB;color-interpolation-filters:linearRGB;solid-color:#000000;solid-opacity:1;vector-effect:none;fill:url(#linearGradient8259);fill-opacity:1;fill-rule:nonzero;stroke:none;stroke-width:0.85190946;stroke-linecap:butt;stroke-linejoin:miter;stroke-miterlimit:4;stroke-dasharray:none;stroke-dashoffset:0;stroke-opacity:1;marker:none;marker-start:none;marker-mid:none;marker-end:none;paint-order:fill markers stroke;color-rendering:auto;image-rendering:auto;shape-rendering:auto;text-rendering:auto;enable-background:accumulate"/>
      <path style="color:#000000;clip-rule:nonzero;display:inline;overflow:visible;visibility:visible;opacity:1;isolation:auto;mix-blend-mode:normal;color-interpolation:sRGB;color-interpolation-filters:linearRGB;solid-color:#000000;solid-opacity:1;vector-effect:none;fill:url(#linearGradient7823-7);fill-opacity:1;fill-rule:nonzero;stroke:none;stroke-width:0.42276114;stroke-linecap:butt;stroke-linejoin:miter;stroke-miterlimit:4;stroke-dasharray:none;stroke-dashoffset:0;stroke-opacity:1;marker:none;marker-start:none;marker-mid:none;marker-end:none;paint-order:fill markers stroke;color-rendering:auto;image-rendering:auto;shape-rendering:auto;text-rendering:auto;enable-background:accumulate" d="m 7,2.99999 h 21 l 12,12 v 30 H 6.992126 Z" id="rect7694-2-8" inkscape:connector-curvature="0" sodipodi:nodetypes="cccccc" inkscape:label="Hoja"/>
      <path inkscape:label="Hoja sombra sobre derecha" sodipodi:nodetypes="cccccc" inkscape:connector-curvature="0" id="path7863-7" d="m 7,2.99999 h 21 l 12,12 v 30 H 6.992126 Z" style="color:#000000;clip-rule:nonzero;display:inline;overflow:visible;visibility:visible;opacity:1;isolation:auto;mix-blend-mode:normal;color-interpolation:sRGB;color-interpolation-filters:linearRGB;solid-color:#000000;solid-opacity:1;vector-effect:none;fill:url(#linearGradient7865-3);fill-opacity:1;fill-rule:nonzero;stroke:none;stroke-width:0.42276114;stroke-linecap:butt;stroke-linejoin:miter;stroke-miterlimit:4;stroke-dasharray:none;stroke-dashoffset:0;stroke-opacity:1;marker:none;marker-start:none;marker-mid:none;marker-end:none;paint-order:fill markers stroke;color-rendering:auto;image-rendering:auto;shape-rendering:auto;text-rendering:auto;enable-background:accumulate"/>
      <path sodipodi:nodetypes="cccc" inkscape:connector-curvature="0" id="path7764-1-5" d="m 28,2.99999 12,12 L 26,17 Z" style="display:inline;opacity:1;vector-effect:none;fill:url(#linearGradient8277);fill-opacity:1;fill-rule:evenodd;stroke:none;stroke-width:2.19524717px;stroke-linecap:butt;stroke-linejoin:miter;stroke-miterlimit:4;stroke-dasharray:none;stroke-dashoffset:0;stroke-opacity:1" inkscape:label="Pestaña sombra"/>
      <path style="display:inline;fill:url(#linearGradient7825-6);fill-opacity:1;fill-rule:evenodd;stroke:none;stroke-width:1.19721723px;stroke-linecap:butt;stroke-linejoin:miter;stroke-opacity:1" d="m 28,2.99999 12,12 H 28 Z" id="path7748-2-0" inkscape:connector-curvature="0" sodipodi:nodetypes="cccc" inkscape:label="Pestaña"/>
      <path style="color:#000000;clip-rule:nonzero;display:inline;overflow:visible;visibility:visible;opacity:0.4;isolation:auto;mix-blend-mode:normal;color-interpolation:sRGB;color-interpolation-filters:linearRGB;solid-color:#000000;solid-opacity:1;vector-effect:none;fill:url(#linearGradient9428-62);fill-opacity:1;fill-rule:nonzero;stroke:none;stroke-width:0.42271549;stroke-linecap:butt;stroke-linejoin:miter;stroke-miterlimit:4;stroke-dasharray:none;stroke-dashoffset:0;stroke-opacity:0.34375;marker:none;marker-start:none;marker-mid:none;marker-end:none;paint-order:fill markers stroke;color-rendering:auto;image-rendering:auto;shape-rendering:auto;text-rendering:auto;enable-background:accumulate" d="M 7.4936222,2.9919253 V 4.509517 H 6.9933056 V 5.0153809 H 7.4936222 V 6.5329726 H 6.9933056 V 7.0388369 H 7.4936222 V 8.5564287 H 6.9933056 V 9.0622926 H 7.4936222 V 10.579883 H 6.9933056 v 0.505863 h 0.5003166 v 1.517592 H 6.9933056 v 0.505865 h 0.5003166 v 1.517591 H 6.9933056 v 0.505864 H 7.4936222 V 16.65025 H 6.9933056 v 0.505863 h 0.5003166 v 1.517592 H 6.9933056 v 0.505866 H 7.4936222 V 20.69716 H 6.9933056 v 0.505865 h 0.5003166 v 1.517592 H 6.9933056 v 0.505863 h 0.5003166 v 1.517593 H 6.9933056 v 0.505865 h 0.5003166 v 1.517589 H 6.9933056 v 0.505865 h 0.5003166 v 1.517591 H 6.9933056 v 0.505864 H 7.4936222 V 30.81444 H 6.9933056 v 0.505864 h 0.5003166 v 1.517591 H 6.9933056 v 0.505863 h 0.5003166 v 1.517593 H 6.9933056 v 0.505863 h 0.5003166 v 1.517593 H 6.9933056 v 0.505864 h 0.5003166 v 1.517591 H 6.9933056 v 0.505864 h 0.5003166 v 1.517591 H 6.9933056 v 0.505865 h 0.5003166 v 1.517592 H 6.9933056 v 0.505864 h 0.5003166 v 1.51759 h 0.5003166 v -1.51759 h 1.5009484 v 1.51759 h 0.5003022 v -1.51759 h 1.5009496 v 1.51759 h 0.500316 v -1.51759 h 1.500951 v 1.51759 h 0.500315 v -1.51759 h 1.50095 v 1.51759 h 0.500318 v -1.51759 h 1.500949 v 1.51759 h 0.500315 v -1.51759 h 1.500951 v 1.51759 h 0.500316 v -1.51759 h 1.500949 v 1.51759 h 0.500318 v -1.51759 h 1.500949 v 1.51759 h 0.500316 v -1.51759 h 1.50095 v 1.51759 h 0.500317 v -1.51759 h 1.500949 v 1.51759 h 0.500317 v -1.51759 h 1.500949 v 1.51759 h 0.500317 v -1.51759 h 1.50095 v 1.51759 h 0.500316 v -1.51759 h 1.50095 v 1.470166 h 0.500316 v -1.470166 h 1.500949 v 1.51759 h 0.500317 v -1.51759 H 37.5126 v 1.51759 h 0.500315 v -1.51759 h 2.001266 v -0.505864 h -2.001266 v -1.517592 h 2.001266 v -0.505865 h -2.001266 v -1.517591 h 2.001266 v -0.505864 h -2.001266 v -1.517591 h 2.001266 v -0.505864 h -2.001266 v -1.517593 h 2.001266 v -0.505863 h -2.001266 v -1.517593 h 2.001266 v -0.505863 h -2.001266 v -1.517591 h 2.001266 V 30.81444 h -2.001266 v -1.517593 h 2.001266 v -0.505864 h -2.001266 v -1.517591 h 2.001266 v -0.505865 h -2.001266 v -1.517589 h 2.001266 V 24.744073 H 38.012915 V 23.22648 h 2.001266 v -0.505863 h -2.001266 v -1.517592 h 2.001266 V 20.69716 h -2.001266 v -1.517589 h 2.001266 v -0.505866 h -2.001266 v -1.517592 h 2.001266 V 16.65025 H 38.012915 V 15.132658 H 37.5126 v 1.517592 h -1.500951 v -1.517592 h -0.500317 v 1.517592 h -1.500949 v -1.565017 h -0.500316 v 1.565017 h -1.50095 v -1.517592 h -0.500316 v 1.517592 h -1.50095 V 15.132658 H 29.507534 V 16.65025 H 28.006585 V 2.9919253 H 27.506268 V 4.509517 H 26.005319 V 2.9919253 H 25.505002 V 4.509517 h -1.50095 V 2.9919253 H 23.503736 V 4.509517 H 22.002787 V 2.9919253 H 21.502469 V 4.509517 H 20.00152 V 2.9919253 H 19.501204 V 4.509517 H 18.000253 V 2.9919253 H 17.499938 V 4.509517 H 15.998989 V 2.9919253 H 15.498671 V 4.509517 h -1.50095 V 2.9919253 H 13.497406 V 4.509517 H 11.996455 V 2.9919253 H 11.496139 V 4.509517 H 9.9951894 V 2.9919253 H 9.4948872 V 4.509517 H 7.9939388 V 2.9919253 Z M 7.9939388,5.0153809 H 9.4948872 V 6.5329726 H 7.9939388 Z m 2.0012506,0 H 11.496139 V 6.5329726 H 9.9951894 Z m 2.0012656,0 h 1.500951 v 1.5175917 h -1.500951 z m 2.001266,0 h 1.50095 v 1.5175917 h -1.50095 z m 2.001268,0 h 1.500949 v 1.5175917 h -1.500949 z m 2.001264,0 h 1.500951 v 1.5175917 h -1.500951 z m 2.001267,0 h 1.500949 V 6.5329726 H 20.00152 Z m 2.001267,0 h 1.500949 v 1.5175917 h -1.500949 z m 2.001265,0 h 1.50095 v 1.5175917 h -1.50095 z m 2.001267,0 h 1.500949 V 6.5329726 H 26.005319 Z M 7.9939388,7.0388369 H 9.4948872 V 8.5564287 H 7.9939388 Z m 2.0012506,0 H 11.496139 V 8.5564287 H 9.9951894 Z m 2.0012656,0 h 1.500951 v 1.5175918 h -1.500951 z m 2.001266,0 h 1.50095 v 1.5175918 h -1.50095 z m 2.001268,0 h 1.500949 v 1.5175918 h -1.500949 z m 2.001264,0 h 1.500951 v 1.5175918 h -1.500951 z m 2.001267,0 h 1.500949 V 8.5564287 H 20.00152 Z m 2.001267,0 h 1.500949 v 1.5175918 h -1.500949 z m 2.001265,0 h 1.50095 v 1.5175918 h -1.50095 z m 2.001267,0 h 1.500949 V 8.5564287 H 26.005319 Z M 7.9939388,9.0622926 H 9.4948872 V 10.579883 H 7.9939388 Z m 2.0012506,0 H 11.496139 V 10.579883 H 9.9951894 Z m 2.0012656,0 h 1.500951 v 1.5175904 h -1.500951 z m 2.001266,0 h 1.50095 v 1.5175904 h -1.50095 z m 2.001268,0 h 1.500949 v 1.5175904 h -1.500949 z m 2.001264,0 h 1.500951 v 1.5175904 h -1.500951 z m 2.001267,0 h 1.500949 V 10.579883 H 20.00152 Z m 2.001267,0 h 1.500949 v 1.5175904 h -1.500949 z m 2.001265,0 h 1.50095 v 1.5175904 h -1.50095 z m 2.001267,0 h 1.500949 V 10.579883 H 26.005319 Z M 7.9939388,11.085746 h 1.5009484 v 1.517592 H 7.9939388 Z m 2.0012506,0 h 1.5009496 v 1.517592 H 9.9951894 Z m 2.0012656,0 h 1.500951 v 1.517592 h -1.500951 z m 2.001266,0 h 1.50095 v 1.517592 h -1.50095 z m 2.001268,0 h 1.500949 v 1.517592 h -1.500949 z m 2.001264,0 h 1.500951 v 1.517592 h -1.500951 z m 2.001267,0 h 1.500949 v 1.517592 H 20.00152 Z m 2.001267,0 h 1.500949 v 1.517592 h -1.500949 z m 2.001265,0 h 1.50095 v 1.517592 h -1.50095 z m 2.001267,0 h 1.500949 v 1.517592 H 26.005319 Z M 7.9939388,13.109203 h 1.5009484 v 1.517591 H 7.9939388 Z m 2.0012506,0 h 1.5009496 v 1.517591 H 9.9951894 Z m 2.0012656,0 h 1.500951 v 1.517591 h -1.500951 z m 2.001266,0 h 1.50095 v 1.517591 h -1.50095 z m 2.001268,0 h 1.500949 v 1.517591 h -1.500949 z m 2.001264,0 h 1.500951 v 1.517591 h -1.500951 z m 2.001267,0 h 1.500949 v 1.517591 H 20.00152 Z m 2.001267,0 h 1.500949 v 1.517591 h -1.500949 z m 2.001265,0 h 1.50095 v 1.517591 h -1.50095 z m 2.001267,0 h 1.500949 v 1.517591 H 26.005319 Z M 7.9939388,15.132658 H 9.4948872 V 16.65025 H 7.9939388 Z m 2.0012506,0 H 11.496139 V 16.65025 H 9.9951894 Z m 2.0012656,0 h 1.500951 v 1.517592 h -1.500951 z m 2.001266,0 h 1.50095 v 1.517592 h -1.50095 z m 2.001268,0 h 1.500949 v 1.517592 h -1.500949 z m 2.001264,0 h 1.500951 v 1.517592 h -1.500951 z m 2.001267,0 h 1.500949 V 16.65025 H 20.00152 Z m 2.001267,0 h 1.500949 v 1.517592 h -1.500949 z m 2.001265,0 h 1.50095 v 1.517592 h -1.50095 z m 2.001267,0 h 1.500949 V 16.65025 H 26.005319 Z M 7.9939388,17.156113 h 1.5009484 v 1.517592 H 7.9939388 Z m 2.0012506,0 h 1.5009496 v 1.517592 H 9.9951894 Z m 2.0012656,0 h 1.500951 v 1.517592 h -1.500951 z m 2.001266,0 h 1.50095 v 1.517592 h -1.50095 z m 2.001268,0 h 1.500949 v 1.517592 h -1.500949 z m 2.001264,0 h 1.500951 v 1.517592 h -1.500951 z m 2.001267,0 h 1.500949 v 1.517592 H 20.00152 Z m 2.001267,0 h 1.500949 v 1.517592 h -1.500949 z m 2.001265,0 h 1.50095 v 1.517592 h -1.50095 z m 2.001267,0 h 1.500949 v 1.517592 h -1.500949 z m 2.001266,0 h 1.500949 v 1.517592 h -1.500949 z m 2.001266,0 h 1.50095 v 1.517592 h -1.50095 z m 2.001266,0 h 1.50095 v 1.517592 h -1.50095 z m 2.001266,0 h 1.500949 v 1.517592 h -1.500949 z m 2.001266,0 H 37.5126 v 1.517592 H 36.011649 Z M 7.9939388,19.179571 H 9.4948872 V 20.69716 H 7.9939388 Z m 2.0012506,0 H 11.496139 V 20.69716 H 9.9951894 Z m 2.0012656,0 h 1.500951 v 1.517589 h -1.500951 z m 2.001266,0 h 1.50095 v 1.517589 h -1.50095 z m 2.001268,0 h 1.500949 v 1.517589 h -1.500949 z m 2.001264,0 h 1.500951 v 1.517589 h -1.500951 z m 2.001267,0 h 1.500949 V 20.69716 H 20.00152 Z m 2.001267,0 h 1.500949 v 1.517589 h -1.500949 z m 2.001265,0 h 1.50095 v 1.517589 h -1.50095 z m 2.001267,0 h 1.500949 v 1.517589 h -1.500949 z m 2.001266,0 h 1.500949 v 1.517589 h -1.500949 z m 2.001266,0 h 1.50095 v 1.517589 h -1.50095 z m 2.001266,0 h 1.50095 v 1.517589 h -1.50095 z m 2.001266,0 h 1.500949 v 1.517589 h -1.500949 z m 2.001266,0 H 37.5126 V 20.69716 H 36.011649 Z M 7.9939388,21.203025 h 1.5009484 v 1.517592 H 7.9939388 Z m 2.0012506,0 h 1.5009496 v 1.517592 H 9.9951894 Z m 2.0012656,0 h 1.500951 v 1.517592 h -1.500951 z m 2.001266,0 h 1.50095 v 1.517592 h -1.50095 z m 2.001268,0 h 1.500949 v 1.517592 h -1.500949 z m 2.001264,0 h 1.500951 v 1.517592 h -1.500951 z m 2.001267,0 h 1.500949 v 1.517592 H 20.00152 Z m 2.001267,0 h 1.500949 v 1.517592 h -1.500949 z m 2.001265,0 h 1.50095 v 1.517592 h -1.50095 z m 2.001267,0 h 1.500949 v 1.517592 h -1.500949 z m 2.001266,0 h 1.500949 v 1.517592 h -1.500949 z m 2.001266,0 h 1.50095 v 1.517592 h -1.50095 z m 2.001266,0 h 1.50095 v 1.517592 h -1.50095 z m 2.001266,0 h 1.500949 v 1.517592 h -1.500949 z m 2.001266,0 H 37.5126 v 1.517592 H 36.011649 Z M 7.9939388,23.22648 h 1.5009484 v 1.517593 H 7.9939388 Z m 2.0012506,0 h 1.5009496 v 1.517593 H 9.9951894 Z m 2.0012656,0 h 1.500951 v 1.517593 h -1.500951 z m 2.001266,0 h 1.50095 v 1.517593 h -1.50095 z m 2.001268,0 h 1.500949 v 1.517593 h -1.500949 z m 2.001264,0 h 1.500951 v 1.517593 h -1.500951 z m 2.001267,0 h 1.500949 v 1.517593 H 20.00152 Z m 2.001267,0 h 1.500949 v 1.517593 h -1.500949 z m 2.001265,0 h 1.50095 v 1.517593 h -1.50095 z m 2.001267,0 h 1.500949 v 1.517593 h -1.500949 z m 2.001266,0 h 1.500949 v 1.517593 h -1.500949 z m 2.001266,0 h 1.50095 v 1.517593 h -1.50095 z m 2.001266,0 h 1.50095 v 1.517593 h -1.50095 z m 2.001266,0 h 1.500949 v 1.517593 h -1.500949 z m 2.001266,0 H 37.5126 v 1.517593 H 36.011649 Z M 7.9939388,25.249938 h 1.5009484 v 1.517589 H 7.9939388 Z m 2.0012506,0 h 1.5009496 v 1.517589 H 9.9951894 Z m 2.0012656,0 h 1.500951 v 1.517589 h -1.500951 z m 2.001266,0 h 1.50095 v 1.517589 h -1.50095 z m 2.001268,0 h 1.500949 v 1.517589 h -1.500949 z m 2.001264,0 h 1.500951 v 1.517589 h -1.500951 z m 2.001267,0 h 1.500949 v 1.517589 H 20.00152 Z m 2.001267,0 h 1.500949 v 1.517589 h -1.500949 z m 2.001265,0 h 1.50095 v 1.517589 h -1.50095 z m 2.001267,0 h 1.500949 v 1.517589 h -1.500949 z m 2.001266,0 h 1.500949 v 1.517589 h -1.500949 z m 2.001266,0 h 1.50095 v 1.517589 h -1.50095 z m 2.001266,0 h 1.50095 v 1.517589 h -1.50095 z m 2.001266,0 h 1.500949 v 1.517589 h -1.500949 z m 2.001266,0 H 37.5126 v 1.517589 H 36.011649 Z M 7.9939388,27.273392 h 1.5009484 v 1.517591 H 7.9939388 Z m 2.0012506,0 h 1.5009496 v 1.517591 H 9.9951894 Z m 2.0012656,0 h 1.500951 v 1.517591 h -1.500951 z m 2.001266,0 h 1.50095 v 1.517591 h -1.50095 z m 2.001268,0 h 1.500949 v 1.517591 h -1.500949 z m 2.001264,0 h 1.500951 v 1.517591 h -1.500951 z m 2.001267,0 h 1.500949 v 1.517591 H 20.00152 Z m 2.001267,0 h 1.500949 v 1.517591 h -1.500949 z m 2.001265,0 h 1.50095 v 1.517591 h -1.50095 z m 2.001267,0 h 1.500949 v 1.517591 h -1.500949 z m 2.001266,0 h 1.500949 v 1.517591 h -1.500949 z m 2.001266,0 h 1.50095 v 1.517591 h -1.50095 z m 2.001266,0 h 1.50095 v 1.517591 h -1.50095 z m 2.001266,0 h 1.500949 v 1.517591 h -1.500949 z m 2.001266,0 H 37.5126 v 1.517591 H 36.011649 Z M 7.9939388,29.296847 H 9.4948872 V 30.81444 H 7.9939388 Z m 2.0012506,0 H 11.496139 V 30.81444 H 9.9951894 Z m 2.0012656,0 h 1.500951 v 1.517593 h -1.500951 z m 2.001266,0 h 1.50095 v 1.517593 h -1.50095 z m 2.001268,0 h 1.500949 v 1.517593 h -1.500949 z m 2.001264,0 h 1.500951 v 1.517593 h -1.500951 z m 2.001267,0 h 1.500949 V 30.81444 H 20.00152 Z m 2.001267,0 h 1.500949 v 1.517593 h -1.500949 z m 2.001265,0 h 1.50095 v 1.517593 h -1.50095 z m 2.001267,0 h 1.500949 v 1.517593 h -1.500949 z m 2.001266,0 h 1.500949 v 1.517593 h -1.500949 z m 2.001266,0 h 1.50095 v 1.517593 h -1.50095 z m 2.001266,0 h 1.50095 v 1.517593 h -1.50095 z m 2.001266,0 h 1.500949 v 1.517593 h -1.500949 z m 2.001266,0 H 37.5126 V 30.81444 H 36.011649 Z M 7.9939388,31.320304 h 1.5009484 v 1.517591 H 7.9939388 Z m 2.0012506,0 h 1.5009496 v 1.517591 H 9.9951894 Z m 2.0012656,0 h 1.500951 v 1.517591 h -1.500951 z m 2.001266,0 h 1.50095 v 1.517591 h -1.50095 z m 2.001268,0 h 1.500949 v 1.517591 h -1.500949 z m 2.001264,0 h 1.500951 v 1.517591 h -1.500951 z m 2.001267,0 h 1.500949 v 1.517591 H 20.00152 Z m 2.001267,0 h 1.500949 v 1.517591 h -1.500949 z m 2.001265,0 h 1.50095 v 1.517591 h -1.50095 z m 2.001267,0 h 1.500949 v 1.517591 h -1.500949 z m 2.001266,0 h 1.500949 v 1.517591 h -1.500949 z m 2.001266,0 h 1.50095 v 1.517591 h -1.50095 z m 2.001266,0 h 1.50095 v 1.517591 h -1.50095 z m 2.001266,0 h 1.500949 v 1.517591 h -1.500949 z m 2.001266,0 H 37.5126 v 1.517591 H 36.011649 Z M 7.9939388,33.343758 h 1.5009484 v 1.517593 H 7.9939388 Z m 2.0012506,0 h 1.5009496 v 1.517593 H 9.9951894 Z m 2.0012656,0 h 1.500951 v 1.517593 h -1.500951 z m 2.001266,0 h 1.50095 v 1.517593 h -1.50095 z m 2.001268,0 h 1.500949 v 1.517593 h -1.500949 z m 2.001264,0 h 1.500951 v 1.517593 h -1.500951 z m 2.001267,0 h 1.500949 v 1.517593 H 20.00152 Z m 2.001267,0 h 1.500949 v 1.517593 h -1.500949 z m 2.001265,0 h 1.50095 v 1.517593 h -1.50095 z m 2.001267,0 h 1.500949 v 1.517593 h -1.500949 z m 2.001266,0 h 1.500949 v 1.517593 h -1.500949 z m 2.001266,0 h 1.50095 v 1.517593 h -1.50095 z m 2.001266,0 h 1.50095 v 1.517593 h -1.50095 z m 2.001266,0 h 1.500949 v 1.517593 h -1.500949 z m 2.001266,0 H 37.5126 v 1.517593 H 36.011649 Z M 7.9939388,35.367214 h 1.5009484 v 1.517593 H 7.9939388 Z m 2.0012506,0 h 1.5009496 v 1.517593 H 9.9951894 Z m 2.0012656,0 h 1.500951 v 1.517593 h -1.500951 z m 2.001266,0 h 1.50095 v 1.517593 h -1.50095 z m 2.001268,0 h 1.500949 v 1.517593 h -1.500949 z m 2.001264,0 h 1.500951 v 1.517593 h -1.500951 z m 2.001267,0 h 1.500949 v 1.517593 H 20.00152 Z m 2.001267,0 h 1.500949 v 1.517593 h -1.500949 z m 2.001265,0 h 1.50095 v 1.517593 h -1.50095 z m 2.001267,0 h 1.500949 v 1.517593 h -1.500949 z m 2.001266,0 h 1.500949 v 1.517593 h -1.500949 z m 2.001266,0 h 1.50095 v 1.517593 h -1.50095 z m 2.001266,0 h 1.50095 v 1.517593 h -1.50095 z m 2.001266,0 h 1.500949 v 1.517593 h -1.500949 z m 2.001266,0 H 37.5126 v 1.517593 H 36.011649 Z M 7.9939388,37.390671 h 1.5009484 v 1.517591 H 7.9939388 Z m 2.0012506,0 h 1.5009496 v 1.517591 H 9.9951894 Z m 2.0012656,0 h 1.500951 v 1.517591 h -1.500951 z m 2.001266,0 h 1.50095 v 1.517591 h -1.50095 z m 2.001268,0 h 1.500949 v 1.517591 h -1.500949 z m 2.001264,0 h 1.500951 v 1.517591 h -1.500951 z m 2.001267,0 h 1.500949 v 1.517591 H 20.00152 Z m 2.001267,0 h 1.500949 v 1.517591 h -1.500949 z m 2.001265,0 h 1.50095 v 1.517591 h -1.50095 z m 2.001267,0 h 1.500949 v 1.517591 h -1.500949 z m 2.001266,0 h 1.500949 v 1.517591 h -1.500949 z m 2.001266,0 h 1.50095 v 1.517591 h -1.50095 z m 2.001266,0 h 1.50095 v 1.517591 h -1.50095 z m 2.001266,0 h 1.500949 v 1.517591 h -1.500949 z m 2.001266,0 H 37.5126 v 1.517591 H 36.011649 Z M 7.9939388,39.414126 h 1.5009484 v 1.517591 H 7.9939388 Z m 2.0012506,0 h 1.5009496 v 1.517591 H 9.9951894 Z m 2.0012656,0 h 1.500951 v 1.517591 h -1.500951 z m 2.001266,0 h 1.50095 v 1.517591 h -1.50095 z m 2.001268,0 h 1.500949 v 1.517591 h -1.500949 z m 2.001264,0 h 1.500951 v 1.517591 h -1.500951 z m 2.001267,0 h 1.500949 v 1.517591 H 20.00152 Z m 2.001267,0 h 1.500949 v 1.517591 h -1.500949 z m 2.001265,0 h 1.50095 v 1.517591 h -1.50095 z m 2.001267,0 h 1.500949 v 1.517591 h -1.500949 z m 2.001266,0 h 1.500949 v 1.517591 h -1.500949 z m 2.001266,0 h 1.50095 v 1.517591 h -1.50095 z m 2.001266,0 h 1.50095 v 1.517591 h -1.50095 z m 2.001266,0 h 1.500949 v 1.517591 h -1.500949 z m 2.001266,0 H 37.5126 v 1.517591 H 36.011649 Z M 7.9939388,41.437582 h 1.5009484 v 1.517592 H 7.9939388 Z m 2.0012506,0 h 1.5009496 v 1.517592 H 9.9951894 Z m 2.0012656,0 h 1.500951 v 1.517592 h -1.500951 z m 2.001266,0 h 1.50095 v 1.517592 h -1.50095 z m 2.001268,0 h 1.500949 v 1.517592 h -1.500949 z m 2.001264,0 h 1.500951 v 1.517592 h -1.500951 z m 2.001267,0 h 1.500949 v 1.517592 H 20.00152 Z m 2.001267,0 h 1.500949 v 1.517592 h -1.500949 z m 2.001265,0 h 1.50095 v 1.517592 h -1.50095 z m 2.001267,0 h 1.500949 v 1.517592 h -1.500949 z m 2.001266,0 h 1.500949 v 1.517592 h -1.500949 z m 2.001266,0 h 1.50095 v 1.517592 h -1.50095 z m 2.001266,0 h 1.50095 v 1.517592 h -1.50095 z m 2.001266,0 h 1.500949 v 1.517592 h -1.500949 z m 2.001266,0 H 37.5126 v 1.517592 h -1.500951 z" id="rect9275-1" inkscape:connector-curvature="0" inkscape:label="patron" sodipodi:insensitive="true"/>
      <path inkscape:connector-curvature="0" id="path7919-8" style="font-size:53.33333206px;line-height:1000%;font-family:sans-serif;letter-spacing:0px;word-spacing:0px;display:inline;fill:#6399d6;fill-opacity:0.63020833;stroke:#82a9e5;stroke-width:0.30018994;stroke-linecap:butt;stroke-linejoin:miter;stroke-miterlimit:4;stroke-dasharray:none;stroke-opacity:0.99481865" d="m 24.350181,26.799351 q -2.905483,0 -4.025986,0.664481 -1.120499,0.664486 -1.120499,2.267059 0,1.276852 0.833863,2.032535 0.846885,0.742661 2.293114,0.742661 1.993447,0 3.192126,-1.40714 1.211701,-1.420169 1.211701,-3.765403 v -0.534193 z m 4.781671,-0.990211 v 8.325583 H 26.7345 v -2.214946 q -0.820829,1.328966 -2.045564,1.967389 -1.224735,0.625395 -2.996686,0.625395 -2.241003,0 -3.56997,-1.250791 -1.315937,-1.26382 -1.315937,-3.374531 0,-2.462491 1.641664,-3.713284 1.654693,-1.25079 4.924992,-1.25079 H 26.7345 v -0.234524 q 0,-1.654691 -1.094442,-2.553701 -1.081415,-0.912037 -3.048804,-0.912037 -1.250793,0 -2.436437,0.29967 -1.185645,0.299669 -2.280087,0.899009 v -2.214946 q 1.315937,-0.508132 2.5537,-0.755684 1.237758,-0.260584 2.410375,-0.260584 3.166067,0 4.729558,1.641662 1.563489,1.641665 1.563489,4.97711 z" inkscape:label="a"/>
      <path style="color:#000000;font-style:normal;font-variant:normal;font-weight:normal;font-stretch:normal;font-size:medium;line-height:normal;font-family:sans-serif;font-variant-ligatures:normal;font-variant-position:normal;font-variant-caps:normal;font-variant-numeric:normal;font-variant-alternates:normal;font-feature-settings:normal;text-indent:0;text-align:start;text-decoration:none;text-decoration-line:none;text-decoration-style:solid;text-decoration-color:#000000;letter-spacing:normal;word-spacing:normal;text-transform:none;writing-mode:lr-tb;direction:ltr;text-orientation:mixed;dominant-baseline:auto;baseline-shift:baseline;text-anchor:start;white-space:normal;shape-padding:0;clip-rule:nonzero;display:inline;overflow:visible;visibility:visible;opacity:1;isolation:auto;mix-blend-mode:normal;color-interpolation:sRGB;color-interpolation-filters:linearRGB;solid-color:#000000;solid-opacity:1;vector-effect:none;fill:#83a9e5;fill-opacity:1;fill-rule:evenodd;stroke:none;stroke-width:0.5003165px;stroke-linecap:butt;stroke-linejoin:miter;stroke-miterlimit:4;stroke-dasharray:none;stroke-dashoffset:0;stroke-opacity:1;color-rendering:auto;image-rendering:auto;shape-rendering:auto;text-rendering:auto;enable-background:accumulate" d="m 18.215235,15.207662 c -0.04393,0 -0.09086,0.004 -0.140715,0.01171 -0.04938,0.0078 -0.101544,0.01936 -0.158305,0.03518 v 0.133869 c 0.05626,-0.01876 0.107504,-0.03313 0.154393,-0.04203 0.04688,-0.009 0.09096,-0.01272 0.131923,-0.01272 0.07503,0 0.132,0.01536 0.171985,0.04592 0.04047,0.03012 0.06059,0.0732 0.06059,0.129963 0,0.05529 -0.01867,0.09742 -0.05765,0.127036 -0.03898,0.02911 -0.0955,0.04398 -0.169053,0.04398 h -0.134855 v 0.123123 h 0.128991 c 0.08144,0 0.144162,0.01867 0.18957,0.05571 0.04592,0.03652 0.06938,0.08729 0.06938,0.152443 -10e-6,0.07059 -0.02492,0.124212 -0.07427,0.161231 -0.04888,0.03702 -0.120222,0.05571 -0.214006,0.05571 -0.05381,0 -0.105036,-0.0061 -0.154393,-0.01857 -0.04938,-0.01236 -0.09534,-0.03052 -0.136807,-0.05471 v 0.143647 c 0.05232,0.01827 0.103576,0.03217 0.152442,0.04102 0.04933,0.0094 0.09725,0.01465 0.143647,0.01465 0.138207,0 0.244514,-0.03017 0.319537,-0.0899 0.07503,-0.05972 0.112376,-0.14401 0.112376,-0.253088 0,-0.07108 -0.02011,-0.131429 -0.06059,-0.179805 -0.03998,-0.04839 -0.09553,-0.07948 -0.1671,-0.09479 0.06466,-0.01631 0.114461,-0.04597 0.14951,-0.08795 0.03508,-0.04247 0.05277,-0.09417 0.05277,-0.155374 0,-0.08786 -0.03353,-0.157779 -0.09968,-0.209117 -0.06615,-0.05182 -0.156173,-0.0772 -0.269701,-0.0772 z m 1.051445,0.01956 -0.46025,0.700637 v 0.144621 h 0.499339 v 0.260911 h 0.14853 V 16.07248 h 0.157325 v -0.124107 h -0.157325 v -0.721155 z m 0.03908,0.130942 v 0.590213 h -0.378168 z m -3.306766,1.142302 v 2.001267 h 0.500313 v -2.001267 z m 6.003799,0 v 2.001267 h 0.500316 v -2.001267 z m -5.003166,1.000633 v 0.500316 h 4.471579 v -0.500319 z m 13.508545,3.0019 v 0.500318 h 2.501583 v -0.500315 z m 1.000631,0.942985 v 12.565565 h 0.500316 V 21.445984 Z m 3.591137,5.557226 c -0.123894,0 -0.218714,0.04933 -0.284356,0.147554 -0.06515,0.09774 -0.09773,0.239471 -0.09773,0.426049 0,0.186088 0.03257,0.328803 0.09773,0.42703 0.06565,0.09774 0.160462,0.146578 0.284356,0.146578 0.123893,0 0.218228,-0.04883 0.283383,-0.146578 0.06565,-0.09823 0.0987,-0.240942 0.0987,-0.42703 0,-0.186578 -0.03308,-0.328313 -0.0987,-0.426049 -0.06515,-0.09823 -0.15949,-0.147554 -0.283383,-0.147554 z m 0.914643,0 c -0.04343,0 -0.09133,0.0061 -0.143646,0.01857 -0.05232,0.01236 -0.108829,0.03052 -0.169053,0.05471 v 0.151466 c 0.05923,-0.03308 0.115275,-0.05799 0.167097,-0.07427 0.05232,-0.01626 0.101639,-0.02442 0.148534,-0.02442 0.06615,0 0.119286,0.01867 0.160256,0.05571 0.04148,0.03702 0.06253,0.0849 0.06253,0.143646 0,0.03602 -0.01006,0.0729 -0.02932,0.11042 -0.01875,0.03702 -0.05179,0.08202 -0.09967,0.13583 -0.02516,0.02862 -0.08647,0.09232 -0.184687,0.191526 -0.09774,0.09872 -0.175806,0.177739 -0.232572,0.236475 v 0.12606 h 0.702596 v -0.126055 h -0.521816 c 0.120436,-0.122902 0.213334,-0.218193 0.279477,-0.286311 0.06615,-0.06861 0.104916,-0.11077 0.117259,-0.125077 0.04494,-0.05529 0.07606,-0.103173 0.09284,-0.143647 0.01727,-0.04097 0.02637,-0.08357 0.02637,-0.128988 0,-0.09576 -0.03447,-0.172383 -0.102605,-0.22964 -0.0681,-0.05726 -0.159091,-0.08599 -0.273608,-0.08599 z m -1.930911,0.02051 -0.264813,0.05277 v 0.136815 l 0.265793,-0.05374 v 0.843304 h -0.244295 v 0.12606 h 0.63712 v -0.12606 h -0.244296 v -0.979135 z m 1.016268,0.09773 c 0.0775,0 0.13544,0.03833 0.173939,0.114328 0.03898,0.07552 0.05864,0.189009 0.05864,0.341035 0,0.151536 -0.01966,0.265999 -0.05864,0.342016 -0.03848,0.07553 -0.09645,0.113353 -0.173939,0.113353 -0.07701,0 -0.134941,-0.03782 -0.173936,-0.113353 -0.03853,-0.07602 -0.05766,-0.19048 -0.05766,-0.342016 0,-0.152026 0.01915,-0.265518 0.05766,-0.341035 0.03898,-0.07601 0.09694,-0.114328 0.173936,-0.114328 z m -4.591772,7.390421 v 0.500316 h 2.501583 v -0.500312 z m -15.221545,1.275223 v 2.001265 h 0.500318 v -2.001265 z m 14.465208,0 v 2.001265 h 0.500317 v -2.00127 z m -13.252524,0.726038 v 0.500317 h 12.565565 v -0.500317 z m 6.49532,1.467724 c -0.04343,0 -0.09133,0.0062 -0.143646,0.01857 -0.05232,0.01236 -0.108835,0.03052 -0.169053,0.05472 v 0.151459 c 0.05923,-0.03308 0.115269,-0.05799 0.167102,-0.07426 0.05232,-0.01626 0.101634,-0.02441 0.14853,-0.02441 0.06615,0 0.120265,0.01866 0.161235,0.05571 0.04147,0.03702 0.06155,0.0849 0.06155,0.14364 0,0.03602 -0.0092,0.0729 -0.02833,0.110425 -0.01875,0.03702 -0.05277,0.08204 -0.10065,0.135825 -0.02516,0.02862 -0.08646,0.0933 -0.184686,0.192508 -0.09773,0.09872 -0.174826,0.176757 -0.231592,0.235499 v 0.126055 h 0.70162 v -0.126082 h -0.521809 c 0.120441,-0.122909 0.213335,-0.218199 0.279477,-0.286312 0.06615,-0.06862 0.105896,-0.109794 0.11824,-0.124104 0.04494,-0.05529 0.07605,-0.10317 0.09283,-0.143645 0.01727,-0.04097 0.02541,-0.08455 0.02541,-0.129969 -10e-6,-0.09576 -0.03353,-0.172378 -0.10163,-0.229634 -0.06811,-0.05726 -0.160076,-0.08599 -0.274589,-0.08599 z m -0.965457,0.02051 -0.263836,0.05277 v 0.136806 l 0.265793,-0.05375 v 0.843309 h -0.244295 v 0.126055 h 0.636143 v -0.126047 h -0.244298 v -0.979134 z m 1.664144,0 v 0.555036 c 0.04148,-0.01875 0.08168,-0.03217 0.121166,-0.04102 0.03998,-0.009 0.08022,-0.01365 0.120196,-0.01365 0.08538,0 0.152422,0.02251 0.202272,0.06742 0.04983,0.04493 0.07524,0.105727 0.07524,0.18273 0,0.077 -0.02541,0.137816 -0.07524,0.182731 -0.04983,0.04493 -0.116883,0.06743 -0.202272,0.06743 -0.05281,0 -0.1031,-0.0057 -0.150485,-0.01761 -0.04737,-0.01186 -0.09336,-0.02956 -0.137782,-0.05374 v 0.150485 c 0.05134,0.01576 0.100649,0.02727 0.148529,0.03517 0.04839,0.0079 0.09628,0.01171 0.142671,0.01171 0.134749,0 0.23866,-0.03308 0.312697,-0.09869 0.07403,-0.06615 0.111395,-0.15856 0.111395,-0.27752 0,-0.115499 -0.03643,-0.206967 -0.108464,-0.27459 -0.07208,-0.06762 -0.169751,-0.101624 -0.293155,-0.101624 -0.02171,0 -0.04278,0.0019 -0.06449,0.0058 -0.02172,0.0035 -0.04378,0.0093 -0.06547,0.01661 v -0.270681 h 0.450479 v -0.126054 z" id="path7818-7" inkscape:connector-curvature="0" inkscape:label="acotes"/>
    </g>
  </g>
</svg>