<?xml version="1.0" encoding="UTF-8" standalone="yes"?>
<svg xmlns:dc="http://purl.org/dc/elements/1.1/" xmlns:cc="http://creativecommons.org/ns#" xmlns:rdf="http://www.w3.org/1999/02/22-rdf-syntax-ns#" xmlns:svg="http://www.w3.org/2000/svg" xmlns="http://www.w3.org/2000/svg" xmlns:xlink="http://www.w3.org/1999/xlink" xmlns:sodipodi="http://sodipodi.sourceforge.net/DTD/sodipodi-0.dtd" xmlns:inkscape="http://www.inkscape.org/namespaces/inkscape" height="96" viewBox="0 0 96 96" width="96" id="svg2" version="1.1" inkscape:version="0.92.1 r" sodipodi:docname="network-workgroup.svg" enable-background="new" folder="96">
  <title id="title4675">Template icons dark</title>
  <metadata id="metadata24">
    <rdf:RDF>
      <cc:Work rdf:about="">
        <dc:format>image/svg+xml</dc:format>
        <dc:type rdf:resource="http://purl.org/dc/dcmitype/StillImage"/>
        <dc:title>Template icons dark</dc:title>
        <dc:date>17/05/13</dc:date>
        <dc:creator>
          <cc:Agent>
            <dc:title>wfpaisa</dc:title>
          </cc:Agent>
        </dc:creator>
        <dc:rights>
          <cc:Agent>
            <dc:title>License: GPLv3</dc:title>
          </cc:Agent>
        </dc:rights>
        <dc:language>es-en</dc:language>
        <dc:subject>
          <rdf:Bag>
            <rdf:li>plane-icon-theme</rdf:li>
          </rdf:Bag>
        </dc:subject>
        <dc:description>Template for create set icons</dc:description>
        <cc:license rdf:resource="https://www.gnu.org/licenses/gpl-3.0.en.html"/>
      </cc:Work>
    </rdf:RDF>
  </metadata>
  <defs id="defs22">
    <linearGradient id="linearGradient8578">
      <stop style="stop-color:#4ba8dc;stop-opacity:1;" offset="0" id="stop8574"/>
      <stop style="stop-color:#32b69b;stop-opacity:1;" offset="1" id="stop8576"/>
    </linearGradient>
    <linearGradient id="linearGradient7727">
      <stop style="stop-color:#0386ea;stop-opacity:1;" offset="0" id="stop7723"/>
      <stop style="stop-color:#11b4ff;stop-opacity:1;" offset="1" id="stop7725"/>
    </linearGradient>
    <clipPath clipPathUnits="userSpaceOnUse" id="clipPath88">
      <path d="m 4251.24,3890.73 c 2.61,8.02 5.1,16.09 7.46,24.19 -139.9,197.7 -370.37,326.77 -630.98,326.77 -426.63,0 -772.48,-345.85 -772.48,-772.48 0,-109.19 22.69,-213.05 63.55,-307.21 7.9,-1.64 15.83,-3.11 23.77,-4.51 118.52,-260.07 380.71,-440.86 685.16,-440.86 415.63,0 752.58,336.94 752.58,752.58 0,156.19 -47.59,301.26 -129.06,421.52 z" id="path86" inkscape:connector-curvature="0"/>
    </clipPath>
    <radialGradient inkscape:collect="always" xlink:href="#linearGradient8578" id="radialGradient8580" cx="15.713943" cy="18.263794" fx="15.713943" fy="18.263794" r="21.544892" gradientUnits="userSpaceOnUse" gradientTransform="matrix(1.4436277,0,0,1.4098437,-6.6116658,-7.4712195)"/>
    <radialGradient inkscape:collect="always" xlink:href="#linearGradient8578" id="radialGradient8580-3" cx="15.713943" cy="18.263794" fx="15.713943" fy="18.263794" r="21.544891" gradientUnits="userSpaceOnUse" gradientTransform="matrix(0.90918676,0,0,0.88790983,-35.197574,-35.777007)"/>
    <radialGradient inkscape:collect="always" xlink:href="#linearGradient8578" id="radialGradient8580-6" cx="15.713943" cy="18.263794" fx="15.713943" fy="18.263794" r="21.544891" gradientUnits="userSpaceOnUse" gradientTransform="matrix(2.7899588,0,0,2.7246677,100.63465,99.069437)"/>
    <radialGradient inkscape:collect="always" xlink:href="#linearGradient8578" id="radialGradient8580-8" cx="15.713943" cy="18.263794" fx="15.713943" fy="18.263794" r="21.544891" gradientUnits="userSpaceOnUse" gradientTransform="matrix(3.6390859,0,0,3.5539234,194.49978,192.4895)"/>
    <radialGradient inkscape:collect="always" xlink:href="#linearGradient8578" id="radialGradient8580-36" cx="15.713943" cy="18.263794" fx="15.713943" fy="18.263794" r="21.544891" gradientUnits="userSpaceOnUse" gradientTransform="matrix(1.8801872,0,0,1.8361868,40.064702,38.976336)"/>
  </defs>
  <sodipodi:namedview pagecolor="#383c4a" bordercolor="#ffffff" borderopacity="0.62745098" objecttolerance="4" gridtolerance="10" guidetolerance="4" inkscape:pageopacity="0" inkscape:pageshadow="2" inkscape:window-width="640" inkscape:window-height="480" id="namedview20" showgrid="true" inkscape:zoom="1.4789492" inkscape:cx="214.31045" inkscape:cy="-90.797206" inkscape:current-layer="layer8" inkscape:snap-smooth-nodes="true" showguides="true" borderlayer="true" inkscape:showpageshadow="false" inkscape:guide-bbox="true" guidecolor="#bd4fff" guideopacity="0.78431373" inkscape:snap-nodes="true" inkscape:lockguides="false" fit-margin-top="0" fit-margin-left="0" fit-margin-right="0" fit-margin-bottom="0" guidehicolor="#ff0101" guidehiopacity="0.78431373" inkscape:snap-page="true" inkscape:object-nodes="true" inkscape:snap-bbox="true" inkscape:snap-global="true" inkscape:snap-object-midpoints="false" inkscape:snap-bbox-edge-midpoints="false">
    <inkscape:grid type="xygrid" id="grid4171" empspacing="4" dotted="false" originx="2.7755576e-17" originy="0" spacingx="1" spacingy="1" color="#5a5a5a" opacity="0.23529412" empcolor="#5a5a5a" empopacity="0.47058824" visible="true"/>
    <inkscape:grid type="axonomgrid" id="grid4699" units="mm" empspacing="4" color="#5a5a5a" opacity="0.23529412" empcolor="#5a5a5a" empopacity="0.47058824" gridanglex="45" gridanglez="45" spacingy="3.7795276" visible="false" originx="1.3228346" originy="1.3228346"/>
    <sodipodi:guide position="48,0" orientation="1,0" id="guide4568" inkscape:locked="false" inkscape:label="" inkscape:color="rgb(189,79,255)"/>
    <sodipodi:guide position="111.99996,-3.9999999e-05" orientation="0,1" id="guide4570" inkscape:locked="false" inkscape:label="" inkscape:color="rgb(189,79,255)"/>
    <sodipodi:guide position="0,0" orientation="1,0" id="guide4572" inkscape:locked="false" inkscape:label="" inkscape:color="rgb(189,79,255)"/>
    <sodipodi:guide position="0,48" orientation="0,1" id="guide4574" inkscape:locked="false" inkscape:label="" inkscape:color="rgb(189,79,255)"/>
    <sodipodi:guide position="0,80" orientation="0,1" id="guide4576" inkscape:locked="false" inkscape:label="" inkscape:color="rgb(189,79,255)"/>
    <sodipodi:guide position="-32,48" orientation="1,0" id="guide4578" inkscape:locked="false" inkscape:label="" inkscape:color="rgb(189,79,255)"/>
    <sodipodi:guide position="-32,104" orientation="0,1" id="guide4580" inkscape:locked="false" inkscape:label="" inkscape:color="rgb(189,79,255)"/>
    <sodipodi:guide position="-56,80" orientation="1,0" id="guide4582" inkscape:locked="false" inkscape:label="" inkscape:color="rgb(189,79,255)"/>
    <sodipodi:guide position="48,-64" orientation="0,1" id="guide4584" inkscape:locked="false" inkscape:label="" inkscape:color="rgb(189,79,255)"/>
    <sodipodi:guide position="27.439936,27.439936" orientation="-0.70710678,0.70710678" id="guide4588" inkscape:locked="false" inkscape:label="" inkscape:color="rgb(189,79,255)"/>
    <sodipodi:guide position="-56,80" orientation="-0.70710678,0.70710678" id="guide4573" inkscape:locked="false" inkscape:label="" inkscape:color="rgb(189,79,255)"/>
    <sodipodi:guide position="-32,48" orientation="-0.70710678,0.70710678" id="guide4575" inkscape:locked="false" inkscape:label="" inkscape:color="rgb(189,79,255)"/>
    <sodipodi:guide position="48,-64" orientation="-0.70710678,0.70710678" id="guide4577" inkscape:locked="false" inkscape:label="" inkscape:color="rgb(189,79,255)"/>
    <sodipodi:guide position="47.999962,0" orientation="0.70710678,0.70710678" id="guide4697" inkscape:locked="false" inkscape:label="" inkscape:color="rgb(189,79,255)"/>
    <sodipodi:guide position="207.99995,-288" orientation="0,1" id="guide7833" inkscape:locked="false"/>
    <sodipodi:guide position="335.99994,-288" orientation="1,0" id="guide7835" inkscape:locked="false" inkscape:label="" inkscape:color="rgb(189,79,255)"/>
    <sodipodi:guide position="111.99996,-64" orientation="1,0" id="guide7915" inkscape:locked="false"/>
    <sodipodi:guide position="111.99996,-160" orientation="0,1" id="guide7917" inkscape:locked="false"/>
    <sodipodi:guide position="207.99996,-160" orientation="1,0" id="guide7919" inkscape:locked="false"/>
    <sodipodi:guide position="111.99996,-160" orientation="-0.70710678,0.70710678" id="guide7921" inkscape:locked="false" inkscape:label="" inkscape:color="rgb(189,79,255)"/>
    <sodipodi:guide position="207.99996,-288" orientation="-0.70710678,0.70710678" id="guide7923" inkscape:locked="false" inkscape:label="" inkscape:color="rgb(189,79,255)"/>
    <sodipodi:guide position="-72,104" orientation="1,0" id="guide7824" inkscape:locked="false"/>
    <sodipodi:guide position="-56,120" orientation="0,1" id="guide7826" inkscape:locked="false"/>
    <sodipodi:guide position="-72,104" orientation="-0.70710678,0.70710678" id="guide7828" inkscape:locked="false" inkscape:label="" inkscape:color="rgb(189,79,255)"/>
  </sodipodi:namedview>
  <g style="display:inline" inkscape:label="icon_96" id="g8840" inkscape:groupmode="layer" transform="translate(-111.99996,-112)">
    <g style="display:none" inkscape:label="frame" id="g8776" inkscape:groupmode="layer">
      <rect style="color:#000000;clip-rule:nonzero;display:inline;overflow:visible;visibility:visible;opacity:1;isolation:auto;mix-blend-mode:normal;color-interpolation:sRGB;color-interpolation-filters:linearRGB;solid-color:#000000;solid-opacity:1;vector-effect:none;fill:#000000;fill-opacity:1;fill-rule:nonzero;stroke:#ff24f7;stroke-width:0;stroke-linecap:square;stroke-linejoin:miter;stroke-miterlimit:4;stroke-dasharray:none;stroke-dashoffset:0;stroke-opacity:0.99481865;marker:none;marker-start:none;marker-mid:none;marker-end:none;paint-order:normal;color-rendering:auto;image-rendering:auto;shape-rendering:auto;text-rendering:auto;enable-background:accumulate" id="rect_96" width="96" height="96" x="111.99996" y="112" inkscape:label="frame_96"/>
      <text inkscape:label="txt_96" id="text_96" y="168.73633" x="144.72458" style="font-size:24px;line-height:0%;font-family:sans-serif;letter-spacing:0px;word-spacing:0px;display:inline;opacity:1;fill:#ffffff;fill-opacity:1;stroke:none;stroke-width:0.04917826px;stroke-linecap:butt;stroke-linejoin:miter;stroke-opacity:1" xml:space="preserve">
        <tspan id="tspan8768" style="font-size:24px;line-height:0%;fill:#ffffff;fill-opacity:1;stroke:none;stroke-width:0.04917826px" y="168.73633" x="144.72458" sodipodi:role="line">96</tspan>
      </text>
    </g>
    <g style="display:inline" inkscape:label="icon" id="g8838" inkscape:groupmode="layer">
      <path d="m 198.44689,159.8908 c 0,-21.34651 -17.30555,-38.65205 -38.65206,-38.65205 -21.34702,0 -38.65205,17.30554 -38.65205,38.65205 0,21.34702 17.30503,38.65205 38.65205,38.65205 21.34651,0 38.65206,-17.30503 38.65206,-38.65205" style="display:inline;fill:url(#radialGradient8580-6);fill-opacity:1;fill-rule:nonzero;stroke:none;stroke-width:0.05135938" id="path78-2" inkscape:connector-curvature="0" inkscape:label="cirtulo"/>
      <path style="display:inline;fill:#90e2a3;fill-opacity:0.50520833;fill-rule:nonzero;stroke:none;stroke-width:0.05135938" d="m 123.95864,174.22302 c 0.21624,0.0468 0.40948,0.14804 0.62659,0.19249 3.88229,0.79441 7.90123,1.21164 12.01837,1.21164 4.11705,0 8.13614,-0.41723 12.01838,-1.21164 3.88223,-0.79444 7.62804,-1.96374 11.1955,-3.47266 3.56747,-1.50892 6.9583,-3.35614 10.13107,-5.49961 3.17276,-2.14347 6.12695,-4.58316 8.82504,-7.28123 2.69811,-2.69807 5.13775,-5.65607 7.28124,-8.82883 2.1435,-3.17275 3.99067,-6.56358 5.4996,-10.13107 0.12466,-0.29474 0.16679,-0.62763 0.28688,-0.92477 -6.94653,-10.27903 -18.70682,-17.03859 -32.04648,-17.03859 -21.347,0 -38.65205,17.30554 -38.65205,38.65205 0,5.07424 1.03845,9.89286 2.81586,14.33222 z" id="path8613-6" inkscape:connector-curvature="0" inkscape:label="brillo"/>
      <path style="display:inline;fill:#207fa2;fill-opacity:0.92708333;fill-rule:nonzero;stroke:none;stroke-width:0.04879501" d="m 159.12571,121.71716 -6.73458,0.18302 -5.96556,2.00405 4.59735,1.56796 3.51875,-0.72906 0.29961,1.16515 0.76568,2.00407 -1.37821,1.64119 0.30625,3.27906 2.14056,0.72906 1.37821,-3.82835 2.59995,-0.54596 2.90955,-2.36692 -2.29701,-4.37431 z m -15.10035,5.32307 -5.4063,2.07397 -8.70534,6.22522 -3.60198,6.07543 -2.85295,4.59068 0.14978,10.96574 1.20177,-0.59257 0.29959,-5.03677 1.04865,7.85311 3.00276,1.77769 2.55334,1.92415 1.80099,2.37026 3.68188,-0.43611 -0.59922,0.58591 0.80895,2.96282 -1.94082,1.63121 0.64916,2.813 3.55537,5.63267 2.1006,0.29628 1.78101,1.4814 1.29166,5.77914 0.80895,3.10929 3.94486,6.52151 4.51412,1.25505 -2.96282,-4.07138 -0.64581,-2.96281 2.4235,-2.66653 1.94082,-4.74382 3.07266,-0.44276 1.94082,-5.77914 2.4235,-2.07398 -2.1006,-2.66652 -7.43699,-1.33493 -0.96873,-3.2591 -3.5587,-0.14649 -2.26373,-2.52006 -2.90954,-0.14978 -3.88161,-1.18511 -1.95413,1.90418 -2.66321,-1.60789 -0.75234,-2.37026 -2.55001,-0.88884 0.74902,-2.51671 -2.40022,1.62787 -1.20177,-0.88885 0.14978,-5.03676 3.90158,-1.77769 1.80099,0.29627 0.45275,3.40557 1.80099,-0.29629 0.44941,-5.62934 3.00276,-0.88884 v -2.66653 l 3.45217,-2.66653 3.75178,-0.14977 -1.34824,-2.813 5.10337,-1.78101 -3.15258,-3.99813 -1.95079,0.88884 -0.60254,-2.81634 -1.95079,0.59257 -2.85297,5.62933 -1.04863,-2.22045 -1.95079,-1.77768 4.35101,-2.9628 c 0,0 3.00179,-1.03866 3.60196,-1.03866 0.60067,0 1.80099,1.33493 1.80099,1.33493 l 2.40354,-1.77769 -0.75236,-2.07729 -2.99942,0.29628 z m 32.42113,1.33492 -3.30236,0.44276 1.05196,5.63267 2.40354,0.29628 2.40021,1.92416 v -2.07397 l -2.1006,-3.10929 4.2012,2.66653 0.14978,3.40557 -3.7518,0.44609 -1.65118,3.11261 1.65118,2.81302 -3.90158,-0.44276 0.74902,4.44421 2.25375,1.03532 2.6998,-2.51674 0.45275,-3.25908 1.801,0.44276 1.95079,1.92748 -1.35157,1.92418 2.2504,0.59588 0.75234,-2.22377 1.20177,2.22377 1.49806,-1.63122 1.20177,2.51674 2.25372,0.5959 -0.15306,2.813 -3.30235,-1.33161 -0.74904,0.88885 -4.05472,-1.4814 -1.04863,-1.9275 -7.34045,1.46476 -4.71387,7.22393 1.04863,5.75917 4.19456,4.13461 5.90897,-0.95207 2.25373,2.52003 -1.35157,4.00148 1.04863,4.89029 -2.99944,4.14793 -2.70313,6.37171 4.05139,-0.74237 6.45494,-6.07542 3.15255,-5.77914 2.10393,-5.92563 2.40022,-2.66653 -1.95081,-1.92748 -1.80097,-10.51964 2.10058,4.00145 v 5.18659 l 1.95079,-2.22377 -0.59922,-7.26056 -1.50138,-4.14793 -1.50139,-5.77915 -4.8104,-6.7845 -2.69316,-4.1779 -5.4063,-2.66985 z" id="path90-1" inkscape:connector-curvature="0" inkscape:label="continentes sombra"/>
      <path style="display:inline;fill:#f6fef6;fill-opacity:1;fill-rule:nonzero;stroke:none;stroke-width:0.04879501" d="m 158.85118,121.77852 -6.91131,0.1548 -6.1262,1.72877 4.39743,0.62659 3.6123,-0.62659 0.63036,1.72877 0.78512,1.72501 -1.41548,1.41547 0.3133,2.82719 2.20059,0.62659 1.41548,-3.29901 2.66865,-0.46806 2.98572,-2.04207 -2.35913,-3.77083 z m -15.55142,3.29901 -5.65437,2.19683 -9.10814,6.59802 -3.77084,6.43572 -2.98195,4.87302 0.1548,11.62204 1.25695,-0.63036 0.31706,-5.34108 1.09842,8.3268 0.31706,0.18881 2.81965,1.69482 2.67619,2.04206 1.88353,2.51389 3.70291,-0.4454 -0.5662,0.60393 0.78889,3.14048 -1.8873,1.72501 0.46806,2.21192 0.16233,0.77379 3.45755,5.96767 2.03829,0.31706 1.72877,1.56647 1.25695,6.12998 0.78512,3.29523 2.82718,4.39742 4.39743,2.51391 -1.88353,-2.98195 -0.63036,-3.14426 2.35913,-2.82719 1.88353,-5.02401 2.98195,-0.47183 1.88353,-6.12619 2.35915,-2.2006 -2.04208,-2.82342 -7.22838,-1.41547 -0.15848,-0.58506 -0.78135,-2.87248 -3.45754,-0.15481 -2.19683,-2.66865 -2.8234,-0.15847 -3.77462,-1.25695 -1.84956,1.96658 -2.70263,-1.64952 -0.78512,-2.51389 -2.67242,-0.94365 0.56996,-1.9326 0.21893,-0.73605 -1.69857,1.16257 -0.81532,0.5662 -0.34727,-0.26423 -0.90968,-0.67942 0.15848,-5.34487 4.08036,-1.88353 1.8873,0.31708 0.46806,3.61231 1.88353,-0.31707 0.4756,-5.96389 3.13671,-0.94365 v -2.83098 l 3.61607,-2.82339 3.9256,-0.15848 -1.41171,-2.98573 5.3411,-1.88354 -3.29901,-4.24266 -2.04209,0.94365 -0.63036,-2.98193 -2.04206,0.62657 -2.98195,5.97146 -1.09841,-2.35915 -2.04584,-1.88352 4.55596,-3.14048 c 0,0 3.14286,-1.09841 3.77084,-1.09841 0.62799,0 1.88353,1.41169 1.88353,1.41169 l 2.51389,-1.8873 -0.78512,-2.19683 -3.14048,0.31329 z m 33.92624,1.41171 -3.45754,0.47183 1.10218,5.96766 2.51012,0.31329 2.5139,2.04207 v -2.19683 l -2.19683,-3.29901 4.39742,2.82342 0.15848,3.61607 -3.9256,0.46806 -1.72877,3.29901 1.72877,2.98572 -4.08413,-0.47183 0.78512,4.71072 2.35159,1.10218 2.83095,-2.67242 0.46806,-3.45377 1.8873,0.47182 2.04207,2.0383 -1.41548,2.04583 1.19278,0.31706 1.16635,0.30953 0.78512,-2.35536 1.25317,2.35536 1.57401,-1.72877 1.25695,2.67242 2.35159,0.62659 -0.1548,2.98572 -3.45378,-1.41548 -0.78889,0.94365 -4.23889,-1.57024 -0.77003,-1.43436 -0.32838,-0.6077 -6.28096,1.41547 -4.87302,7.22461 0.30951,3.09141 0.32085,3.18955 4.71072,4.55219 4.86925,-0.78512 2.35535,2.67244 -1.4117,4.23889 1.09841,5.18255 -3.14048,4.39742 -2.83095,6.75656 4.24266,-0.78512 6.75655,-6.43949 3.29901,-6.1262 2.19683,-6.28475 2.51012,-2.82718 -2.03829,-2.03828 -1.88354,-11.154 2.19683,4.24267 v 5.49583 l 2.04207,-2.35535 -0.62659,-7.69644 -1.57401,-4.39742 -1.57024,-6.12243 -4.00109,-5.72609 -1.03046,-1.46832 -2.81965,-4.4314 -5.65437,-2.82718 z" id="path98-8" inkscape:connector-curvature="0" inkscape:label="continentes"/>
      <ellipse inkscape:label="red2" transform="matrix(0.918118,-0.39630712,0.3323136,0.94316895,0,0)" ry="11.17918" rx="45.028587" cy="196.71083" cx="99.885826" id="ellipse8631-7" style="color:#000000;clip-rule:nonzero;display:inline;overflow:visible;visibility:visible;opacity:1;isolation:auto;mix-blend-mode:normal;color-interpolation:sRGB;color-interpolation-filters:linearRGB;solid-color:#000000;solid-opacity:1;vector-effect:none;fill:none;fill-opacity:0.359375;fill-rule:nonzero;stroke:#000000;stroke-width:0.96744424;stroke-linecap:butt;stroke-linejoin:miter;stroke-miterlimit:4;stroke-dasharray:1.9348885, 0.96744425, 0.48372211, 0.96744425;stroke-dashoffset:0;stroke-opacity:0.16145833;marker:none;marker-start:none;marker-mid:none;marker-end:none;paint-order:fill markers stroke;color-rendering:auto;image-rendering:auto;shape-rendering:auto;text-rendering:auto;enable-background:accumulate"/>
      <ellipse inkscape:label="red2" style="color:#000000;clip-rule:nonzero;display:inline;overflow:visible;visibility:visible;opacity:1;isolation:auto;mix-blend-mode:normal;color-interpolation:sRGB;color-interpolation-filters:linearRGB;solid-color:#000000;solid-opacity:1;vector-effect:none;fill:none;fill-opacity:0.359375;fill-rule:nonzero;stroke:#000000;stroke-width:0.9541111;stroke-linecap:butt;stroke-linejoin:miter;stroke-miterlimit:4;stroke-dasharray:1.90822218, 0.95411109, 0.47705554, 0.95411109;stroke-dashoffset:0;stroke-opacity:0.16145833;marker:none;marker-start:none;marker-mid:none;marker-end:none;paint-order:fill markers stroke;color-rendering:auto;image-rendering:auto;shape-rendering:auto;text-rendering:auto;enable-background:accumulate" id="ellipse8633-92" cx="215.47981" cy="75.937996" rx="48.864159" ry="12.131432" transform="matrix(0.91225052,0.40963276,-0.47132018,0.88196218,0,0)"/>
      <ellipse inkscape:label="red2" transform="matrix(0.35540442,0.93471263,-0.95691513,0.29036774,0,0)" ry="11.81414" rx="47.58614" cy="-83.699982" cx="197.76552" id="ellipse8635-0" style="color:#000000;clip-rule:nonzero;display:inline;overflow:visible;visibility:visible;opacity:1;isolation:auto;mix-blend-mode:normal;color-interpolation:sRGB;color-interpolation-filters:linearRGB;solid-color:#000000;solid-opacity:1;vector-effect:none;fill:none;fill-opacity:0.359375;fill-rule:nonzero;stroke:#000000;stroke-width:0.96744424;stroke-linecap:butt;stroke-linejoin:miter;stroke-miterlimit:4;stroke-dasharray:1.9348885, 0.96744425, 0.48372211, 0.96744425;stroke-dashoffset:0;stroke-opacity:0.16145833;marker:none;marker-start:none;marker-mid:none;marker-end:none;paint-order:fill markers stroke;color-rendering:auto;image-rendering:auto;shape-rendering:auto;text-rendering:auto;enable-background:accumulate"/>
      <ellipse inkscape:label="red2" style="color:#000000;clip-rule:nonzero;display:inline;overflow:visible;visibility:visible;opacity:1;isolation:auto;mix-blend-mode:normal;color-interpolation:sRGB;color-interpolation-filters:linearRGB;solid-color:#000000;solid-opacity:1;vector-effect:none;fill:none;fill-opacity:0.359375;fill-rule:nonzero;stroke:#000000;stroke-width:0.95122552;stroke-linecap:butt;stroke-linejoin:miter;stroke-miterlimit:4;stroke-dasharray:1.90245098, 0.95122548, 0.47561274, 0.95122548;stroke-dashoffset:0;stroke-opacity:0.16145833;marker:none;marker-start:none;marker-mid:none;marker-end:none;paint-order:fill markers stroke;color-rendering:auto;image-rendering:auto;shape-rendering:auto;text-rendering:auto;enable-background:accumulate" id="ellipse8637-23" cx="45.660904" cy="-209.80464" rx="46.78838" ry="11.616081" transform="matrix(-0.50038712,0.86580178,-0.82938999,-0.55867007,0,0)"/>
      <ellipse style="color:#000000;clip-rule:nonzero;display:inline;overflow:visible;visibility:visible;opacity:1;isolation:auto;mix-blend-mode:normal;color-interpolation:sRGB;color-interpolation-filters:linearRGB;solid-color:#000000;solid-opacity:1;vector-effect:none;fill:none;fill-opacity:0.359375;fill-rule:nonzero;stroke:#ffffff;stroke-width:0.96744424;stroke-linecap:butt;stroke-linejoin:miter;stroke-miterlimit:4;stroke-dasharray:1.9348885, 0.96744425, 0.48372211, 0.96744425;stroke-dashoffset:0;stroke-opacity:1;marker:none;marker-start:none;marker-mid:none;marker-end:none;paint-order:fill markers stroke;color-rendering:auto;image-rendering:auto;shape-rendering:auto;text-rendering:auto;enable-background:accumulate" id="path8605-75" cx="99.273842" cy="195.78015" rx="45.028587" ry="11.17918" transform="matrix(0.918118,-0.39630712,0.3323136,0.94316895,0,0)" inkscape:label="red"/>
      <ellipse transform="matrix(0.91225052,0.40963276,-0.47132018,0.88196218,0,0)" ry="12.131432" rx="48.864159" cy="75.717873" cx="214.4243" id="ellipse8607-9" style="color:#000000;clip-rule:nonzero;display:inline;overflow:visible;visibility:visible;opacity:1;isolation:auto;mix-blend-mode:normal;color-interpolation:sRGB;color-interpolation-filters:linearRGB;solid-color:#000000;solid-opacity:1;vector-effect:none;fill:none;fill-opacity:0.359375;fill-rule:nonzero;stroke:#ffffff;stroke-width:0.9541111;stroke-linecap:butt;stroke-linejoin:miter;stroke-miterlimit:4;stroke-dasharray:1.90822218, 0.95411109, 0.47705554, 0.95411109;stroke-dashoffset:0;stroke-opacity:1;marker:none;marker-start:none;marker-mid:none;marker-end:none;paint-order:fill markers stroke;color-rendering:auto;image-rendering:auto;shape-rendering:auto;text-rendering:auto;enable-background:accumulate" inkscape:label="red"/>
      <ellipse style="color:#000000;clip-rule:nonzero;display:inline;overflow:visible;visibility:visible;opacity:1;isolation:auto;mix-blend-mode:normal;color-interpolation:sRGB;color-interpolation-filters:linearRGB;solid-color:#000000;solid-opacity:1;vector-effect:none;fill:none;fill-opacity:0.359375;fill-rule:nonzero;stroke:#ffffff;stroke-width:0.96744424;stroke-linecap:butt;stroke-linejoin:miter;stroke-miterlimit:4;stroke-dasharray:1.9348885, 0.96744425, 0.48372211, 0.96744425;stroke-dashoffset:0;stroke-opacity:1;marker:none;marker-start:none;marker-mid:none;marker-end:none;paint-order:fill markers stroke;color-rendering:auto;image-rendering:auto;shape-rendering:auto;text-rendering:auto;enable-background:accumulate" id="ellipse8609-2" cx="196.90262" cy="-83.1101" rx="47.58614" ry="11.81414" transform="matrix(0.35540442,0.93471263,-0.95691513,0.29036774,0,0)" inkscape:label="red"/>
      <ellipse transform="matrix(-0.50038712,0.86580178,-0.82938999,-0.55867007,0,0)" ry="11.616081" rx="46.78838" cy="-208.74799" cx="45.621284" id="ellipse8611-2" style="color:#000000;clip-rule:nonzero;display:inline;overflow:visible;visibility:visible;opacity:1;isolation:auto;mix-blend-mode:normal;color-interpolation:sRGB;color-interpolation-filters:linearRGB;solid-color:#000000;solid-opacity:1;vector-effect:none;fill:none;fill-opacity:0.359375;fill-rule:nonzero;stroke:#ffffff;stroke-width:0.95122552;stroke-linecap:butt;stroke-linejoin:miter;stroke-miterlimit:4;stroke-dasharray:1.90245098, 0.95122548, 0.47561274, 0.95122548;stroke-dashoffset:0;stroke-opacity:1;marker:none;marker-start:none;marker-mid:none;marker-end:none;paint-order:fill markers stroke;color-rendering:auto;image-rendering:auto;shape-rendering:auto;text-rendering:auto;enable-background:accumulate" inkscape:label="red"/>
    </g>
  </g>
</svg>