<?xml version="1.0" encoding="UTF-8" standalone="no"?>
<svg
   xmlns:osb="http://www.openswatchbook.org/uri/2009/osb"
   xmlns:dc="http://purl.org/dc/elements/1.1/"
   xmlns:cc="http://creativecommons.org/ns#"
   xmlns:rdf="http://www.w3.org/1999/02/22-rdf-syntax-ns#"
   xmlns:svg="http://www.w3.org/2000/svg"
   xmlns="http://www.w3.org/2000/svg"
   width="24"
   version="1.1"
   style="enable-background:new"
   id="svg7384"
   height="24">
  <metadata
     id="metadata90">
    <rdf:RDF>
      <cc:Work
         rdf:about="">
        <dc:format>image/svg+xml</dc:format>
        <dc:type
           rdf:resource="http://purl.org/dc/dcmitype/StillImage" />
        <dc:title>Moka Symbolic Icon Theme</dc:title>
      </cc:Work>
    </rdf:RDF>
  </metadata>
  <title
     id="title8473">Moka Symbolic Icon Theme</title>
  <defs
     id="defs7386">
    <linearGradient
       osb:paint="solid"
       id="linearGradient5606">
      <stop
         style="stop-color:#000000;stop-opacity:1;"
         offset="0"
         id="stop5608" />
    </linearGradient>
    <filter
       id="filter7554"
       color-interpolation-filters="sRGB">
      <feBlend
         mode="darken"
         in2="BackgroundImage"
         id="feBlend7556" />
    </filter>
  </defs>
  <g
     transform="translate(-301.0002,391.00375)"
     style="display:inline"
     id="layer9">
    <path
       d="m 306.0002,-381.00375 2.48437,0 2.96876,-3 0.54687,0.0156 0,12 -0.4753,8.3e-4 -3.04033,-3.01643 -2.48437,0 z"
       id="path6521"
       style="color:#ffffff;fill:#000000;fill-opacity:1;fill-rule:nonzero;stroke:none;stroke-width:1;marker:none;visibility:visible;display:inline;overflow:visible;opacity:0.35" />
    <path
       clip-path="none"
       d="m 315.00019,-378.00355 c 0,-1.25733 -0.31165,-2.21571 -1,-3 l -1,0 0,3 0,0.375 0,2.625 1,0 c 0.67206,-0.8369 1,-1.74267 1,-3 z"
       id="path6523"
       mask="none"
       style="font-size:medium;font-style:normal;font-variant:normal;font-weight:normal;font-stretch:normal;text-indent:0;text-align:start;text-decoration:none;line-height:normal;letter-spacing:normal;word-spacing:normal;text-transform:none;direction:ltr;block-progression:tb;writing-mode:lr-tb;text-anchor:start;baseline-shift:baseline;color:#000000;fill:#000000;fill-opacity:1;stroke:none;stroke-width:2.32782053999999983;marker:none;visibility:visible;display:inline;overflow:visible;enable-background:accumulate;font-family:Sans;-inkscape-font-specification:Sans;opacity:0.35" />
    <path
       style="color:#ffffff;fill:#ffffff;fill-opacity:1;fill-rule:nonzero;stroke:none;stroke-width:1;marker:none;visibility:visible;display:inline;overflow:visible"
       id="path5491-75"
       d="m 306.0002,-382.00375 2.48437,0 2.96876,-3 0.54687,0.0156 0,12 -0.4753,8.3e-4 -3.04033,-3.01643 -2.48437,0 z" />
    <path
       style="opacity:0.35;color:#000000;fill:#ffffff;fill-opacity:1;fill-rule:nonzero;stroke:none;stroke-width:1;marker:none;visibility:visible;display:inline;overflow:visible;enable-background:accumulate"
       id="rect11714-3-9"
       d="m 321.00019,-379.00355 c 0,-2.81422 -1,-5.17173 -2.58557,-7 l -1.41443,0 0,1.48072 c 1.26466,1.51928 2,3.21936 2,5.51928 0,2.29992 -0.77953,4 -2,5.51928 l 0,1.48072 1.38128,0 c 1.46575,-1.64044 2.61872,-4.18578 2.61872,-7 z" />
    <path
       style="opacity:0.35;color:#000000;fill:#ffffff;fill-opacity:1;fill-rule:nonzero;stroke:none;stroke-width:1;marker:none;visibility:visible;display:inline;overflow:visible;enable-background:accumulate"
       id="rect11703-1-9"
       d="m 318.00019,-379.00355 c 0,-2.16664 -0.73878,-4.01982 -2,-5 l -1,0 0,2 c 0.60652,0.78878 1,1.75887 1,3 0,1.24113 -0.39348,2.21938 -1,3 l 0,2 1,0 c 1.2229,-0.99478 2,-2.8734 2,-5 z" />
    <path
       style="font-size:medium;font-style:normal;font-variant:normal;font-weight:normal;font-stretch:normal;text-indent:0;text-align:start;text-decoration:none;line-height:normal;letter-spacing:normal;word-spacing:normal;text-transform:none;direction:ltr;block-progression:tb;writing-mode:lr-tb;text-anchor:start;baseline-shift:baseline;color:#000000;fill:#ffffff;fill-opacity:1;stroke:none;stroke-width:2.32782054;marker:none;visibility:visible;display:inline;overflow:visible;enable-background:accumulate;font-family:Sans;-inkscape-font-specification:Sans"
       mask="none"
       id="path6297-6-8"
       d="m 315.00019,-379.00355 c 0,-1.25733 -0.31165,-2.21571 -1,-3 l -1,0 0,3 0,0.375 0,2.625 1,0 c 0.67206,-0.8369 1,-1.74267 1,-3 z"
       clip-path="none" />
  </g>
  <g
     transform="translate(-301.0002,391.00375)"
     style="display:inline;filter:url(#filter7554)"
     id="layer10" />
  <g
     transform="translate(-59.999998,-225.99625)"
     style="display:inline"
     id="layer1" />
  <g
     transform="translate(-301.0002,391.00375)"
     style="display:inline"
     id="layer14" />
  <g
     transform="translate(-301.0002,391.00375)"
     style="display:inline"
     id="layer15" />
  <g
     transform="translate(-301.0002,391.00375)"
     style="display:inline"
     id="g71291" />
  <g
     transform="translate(-59.999998,-75.99625)"
     style="display:inline"
     id="layer2" />
  <g
     transform="translate(-59.999998,-75.99625)"
     style="display:inline"
     id="g6058" />
  <g
     transform="translate(-301.0002,391.00375)"
     style="display:inline"
     id="layer12" />
</svg>
