<?xml version="1.0" encoding="UTF-8" standalone="no"?>
<svg
   xmlns:osb="http://www.openswatchbook.org/uri/2009/osb"
   xmlns:dc="http://purl.org/dc/elements/1.1/"
   xmlns:cc="http://creativecommons.org/ns#"
   xmlns:rdf="http://www.w3.org/1999/02/22-rdf-syntax-ns#"
   xmlns:svg="http://www.w3.org/2000/svg"
   xmlns="http://www.w3.org/2000/svg"
   height="24"
   id="svg7384"
   style="enable-background:new"
   version="1.1"
   width="24">
  <metadata
     id="metadata90">
    <rdf:RDF>
      <cc:Work
         rdf:about="">
        <dc:format>image/svg+xml</dc:format>
        <dc:type
           rdf:resource="http://purl.org/dc/dcmitype/StillImage" />
        <dc:title>Moka Symbolic Icon Theme</dc:title>
      </cc:Work>
    </rdf:RDF>
  </metadata>
  <title
     id="title8473">Moka Symbolic Icon Theme</title>
  <defs
     id="defs7386">
    <linearGradient
       id="linearGradient5606"
       osb:paint="solid">
      <stop
         id="stop5608"
         offset="0"
         style="stop-color:#000000;stop-opacity:1;" />
    </linearGradient>
    <filter
       color-interpolation-filters="sRGB"
       id="filter7554">
      <feBlend
         id="feBlend7556"
         in2="BackgroundImage"
         mode="darken" />
    </filter>
  </defs>
  <g
     id="layer9"
     style="display:inline"
     transform="translate(-261.0002,391.00375)">
    <path
       style="opacity:0.35;color:#ffffff;fill:#000000;fill-opacity:1;fill-rule:nonzero;stroke:none;stroke-width:1;marker:none;visibility:visible;display:inline;overflow:visible"
       id="path6519"
       d="m 277.0002,-385 0,1.46875 c 1.26466,1.51928 2,3.23133 2,5.53125 0,2.29992 -0.77953,4.01197 -2,5.53125 l 0,1.46875 1.375,0 c 1.46575,-1.64044 2.625,-4.18578 2.625,-7 0,-2.81422 -1.00818,-5.17173 -2.59375,-7 l -1.40625,0 z m -5.53125,1 -3,3 -2.46875,0 0,6 2.46875,0 3.0625,3 0.46875,0 0,-12 -0.53125,0 z m 3.53125,1 0,2 c 0.60652,0.78878 1,1.75887 1,3 0,1.24113 -0.39348,2.21938 -1,3 l 0,2 1,0 c 1.2229,-0.99478 2,-2.8734 2,-5 0,-2.16664 -0.73878,-4.01982 -2,-5 l -1,0 z m -2,2 0,3 0,0.375 0,2.625 1,0 c 0.67206,-0.8369 1,-1.74267 1,-3 0,-1.25733 -0.31165,-2.21571 -1,-3 l -1,0 z" />
    <path
       d="m 277.0002,-386 0,1.46875 c 1.26466,1.51928 2,3.23133 2,5.53125 0,2.29992 -0.77953,4.01197 -2,5.53125 l 0,1.46875 1.375,0 c 1.46575,-1.64044 2.625,-4.18578 2.625,-7 0,-2.81422 -1.00818,-5.17173 -2.59375,-7 l -1.40625,0 z m -5.53125,1 -3,3 -2.46875,0 0,6 2.46875,0 3.0625,3 0.46875,0 0,-12 -0.53125,0 z m 3.53125,1 0,2 c 0.60652,0.78878 1,1.75887 1,3 0,1.24113 -0.39348,2.21938 -1,3 l 0,2 1,0 c 1.2229,-0.99478 2,-2.8734 2,-5 0,-2.16664 -0.73878,-4.01982 -2,-5 l -1,0 z m -2,2 0,3 0,0.375 0,2.625 1,0 c 0.67206,-0.8369 1,-1.74267 1,-3 0,-1.25733 -0.31165,-2.21571 -1,-3 l -1,0 z"
       id="path5491-2"
       style="color:#ffffff;fill:#ffffff;fill-opacity:1;fill-rule:nonzero;stroke:none;stroke-width:1;marker:none;visibility:visible;display:inline;overflow:visible" />
  </g>
  <g
     id="layer10"
     style="display:inline;filter:url(#filter7554)"
     transform="translate(-261.0002,391.00375)" />
  <g
     id="layer1"
     style="display:inline"
     transform="translate(-19.999998,-225.99625)" />
  <g
     id="layer14"
     style="display:inline"
     transform="translate(-261.0002,391.00375)" />
  <g
     id="layer15"
     style="display:inline"
     transform="translate(-261.0002,391.00375)" />
  <g
     id="g71291"
     style="display:inline"
     transform="translate(-261.0002,391.00375)" />
  <g
     id="layer2"
     style="display:inline"
     transform="translate(-19.999998,-75.99625)" />
  <g
     id="g6058"
     style="display:inline"
     transform="translate(-19.999998,-75.99625)" />
  <g
     id="layer12"
     style="display:inline"
     transform="translate(-261.0002,391.00375)" />
</svg>
