<?xml version="1.0" encoding="UTF-8" standalone="no"?>
<svg
   xmlns:osb="http://www.openswatchbook.org/uri/2009/osb"
   xmlns:dc="http://purl.org/dc/elements/1.1/"
   xmlns:cc="http://creativecommons.org/ns#"
   xmlns:rdf="http://www.w3.org/1999/02/22-rdf-syntax-ns#"
   xmlns:svg="http://www.w3.org/2000/svg"
   xmlns="http://www.w3.org/2000/svg"
   width="24"
   version="1.1"
   style="enable-background:new"
   id="svg7384"
   height="24">
  <metadata
     id="metadata90">
    <rdf:RDF>
      <cc:Work
         rdf:about="">
        <dc:format>image/svg+xml</dc:format>
        <dc:type
           rdf:resource="http://purl.org/dc/dcmitype/StillImage" />
        <dc:title>Moka Symbolic Icon Theme</dc:title>
      </cc:Work>
    </rdf:RDF>
  </metadata>
  <title
     id="title8473">Moka Symbolic Icon Theme</title>
  <defs
     id="defs7386">
    <linearGradient
       osb:paint="solid"
       id="linearGradient5606">
      <stop
         style="stop-color:#000000;stop-opacity:1;"
         offset="0"
         id="stop5608" />
    </linearGradient>
    <filter
       id="filter7554"
       color-interpolation-filters="sRGB">
      <feBlend
         mode="darken"
         in2="BackgroundImage"
         id="feBlend7556" />
    </filter>
  </defs>
  <g
     transform="translate(-321.00018,391.00375)"
     style="display:inline"
     id="layer9">
    <path
       d="m 337.46894,-384.51566 -11,11 1.0625,1.0625 11,-11 -1.0625,-1.0625 z"
       id="path6535"
       style="font-size:medium;font-style:normal;font-variant:normal;font-weight:normal;font-stretch:normal;text-indent:0;text-align:start;text-decoration:none;line-height:normal;letter-spacing:normal;word-spacing:normal;text-transform:none;direction:ltr;block-progression:tb;writing-mode:lr-tb;text-anchor:start;baseline-shift:baseline;opacity:0.35;color:#000000;fill:#00aff0;fill-opacity:1;stroke:none;stroke-width:1.5;marker:none;visibility:visible;display:inline;overflow:visible;enable-background:accumulate;font-family:Sans;-inkscape-font-specification:Sans" />
    <path
       d="m 331.46895,-384 -2.96875,3 -2.5,0 0,6 2.5,0 0.71875,0.71875 2.78125,-2.78125 0,-6.9375 -0.53125,0 z m 3.53125,1 0,2 c 0.13751,0.17883 0.2615,0.36399 0.375,0.5625 L 336.9377,-382 c -0.26616,-0.39813 -0.585,-0.72604 -0.9375,-1 l -1,0 z m -2,2 0,2.9375 1.71875,-1.71875 c -0.16379,-0.45547 -0.39697,-0.85212 -0.71875,-1.21875 l -1,0 z m 4.59375,0.46875 -1.65625,1.65625 c 0.0464,0.27781 0.0625,0.56472 0.0625,0.875 0,1.24113 -0.39348,2.21938 -1,3 l 0,2 1,0 c 1.2229,-0.99478 2,-2.8734 2,-5 0,-0.91695 -0.158,-1.769 -0.40625,-2.53125 z m -2.59375,2.59375 -2,2 0,0.9375 1,0 c 0.66012,-0.82203 0.98855,-1.71469 1,-2.9375 z m -3,3 -1.71875,1.71875 1.25,1.25 0.46875,-0.0312 0,-2.9375 z"
       id="path6537"
       style="opacity:0.35;color:#ffffff;fill:#00aff0;fill-opacity:1;fill-rule:nonzero;stroke:none;stroke-width:1;marker:none;visibility:visible;display:inline;overflow:visible" />
    <path
       style="font-size:medium;font-style:normal;font-variant:normal;font-weight:normal;font-stretch:normal;text-indent:0;text-align:start;text-decoration:none;line-height:normal;letter-spacing:normal;word-spacing:normal;text-transform:none;direction:ltr;block-progression:tb;writing-mode:lr-tb;text-anchor:start;baseline-shift:baseline;color:#000000;fill:#00aff0;fill-opacity:1;stroke:none;stroke-width:1.5;marker:none;visibility:visible;display:inline;overflow:visible;enable-background:accumulate;font-family:Sans;-inkscape-font-specification:Sans"
       id="path6508"
       d="m 337.46894,-385.51566 -11,11 1.0625,1.0625 11,-11 -1.0625,-1.0625 z" />
    <path
       style="color:#ffffff;fill:#00aff0;fill-opacity:1;fill-rule:nonzero;stroke:none;stroke-width:1;marker:none;visibility:visible;display:inline;overflow:visible"
       id="path6770"
       d="m 331.46895,-385 -2.96875,3 -2.5,0 0,6 2.5,0 0.71875,0.71875 2.78125,-2.78125 0,-6.9375 -0.53125,0 z m 3.53125,1 0,2 c 0.13751,0.17883 0.2615,0.36399 0.375,0.5625 L 336.9377,-383 c -0.26616,-0.39813 -0.585,-0.72604 -0.9375,-1 l -1,0 z m -2,2 0,2.9375 1.71875,-1.71875 c -0.16379,-0.45547 -0.39697,-0.85212 -0.71875,-1.21875 l -1,0 z m 4.59375,0.46875 -1.65625,1.65625 c 0.0464,0.27781 0.0625,0.56472 0.0625,0.875 0,1.24113 -0.39348,2.21938 -1,3 l 0,2 1,0 c 1.2229,-0.99478 2,-2.8734 2,-5 0,-0.91695 -0.158,-1.769 -0.40625,-2.53125 z m -2.59375,2.59375 -2,2 0,0.9375 1,0 c 0.66012,-0.82203 0.98855,-1.71469 1,-2.9375 z m -3,3 -1.71875,1.71875 1.25,1.25 0.46875,-0.0312 0,-2.9375 z" />
  </g>
  <g
     transform="translate(-321.00018,391.00375)"
     style="display:inline;filter:url(#filter7554)"
     id="layer10" />
  <g
     transform="translate(-79.999983,-225.99625)"
     style="display:inline"
     id="layer1" />
  <g
     transform="translate(-321.00018,391.00375)"
     style="display:inline"
     id="layer14" />
  <g
     transform="translate(-321.00018,391.00375)"
     style="display:inline"
     id="layer15" />
  <g
     transform="translate(-321.00018,391.00375)"
     style="display:inline"
     id="g71291" />
  <g
     transform="translate(-79.999983,-75.996246)"
     style="display:inline"
     id="layer2" />
  <g
     transform="translate(-79.999983,-75.996246)"
     style="display:inline"
     id="g6058" />
  <g
     transform="translate(-321.00018,391.00375)"
     style="display:inline"
     id="layer12" />
</svg>
