<?xml version="1.0" encoding="UTF-8" standalone="yes"?>
<svg xmlns:osb="http://www.openswatchbook.org/uri/2009/osb" xmlns:dc="http://purl.org/dc/elements/1.1/" xmlns:cc="http://creativecommons.org/ns#" xmlns:rdf="http://www.w3.org/1999/02/22-rdf-syntax-ns#" xmlns:svg="http://www.w3.org/2000/svg" xmlns="http://www.w3.org/2000/svg" xmlns:xlink="http://www.w3.org/1999/xlink" xmlns:sodipodi="http://sodipodi.sourceforge.net/DTD/sodipodi-0.dtd" xmlns:inkscape="http://www.inkscape.org/namespaces/inkscape" height="32" viewBox="0 0 32 32" width="32" id="svg2" version="1.1" inkscape:version="0.92.2 5c3e80d, 2017-08-06" sodipodi:docname="text-x-generic-template.svg" enable-background="new" folder="32">
  <title id="title4675">Template icons dark</title>
  <metadata id="metadata24">
    <rdf:RDF>
      <cc:Work rdf:about="">
        <dc:format>image/svg+xml</dc:format>
        <dc:type rdf:resource="http://purl.org/dc/dcmitype/StillImage"/>
        <dc:title>Template icons dark</dc:title>
        <dc:date>17/05/13</dc:date>
        <dc:creator>
          <cc:Agent>
            <dc:title>wfpaisa</dc:title>
          </cc:Agent>
        </dc:creator>
        <dc:rights>
          <cc:Agent>
            <dc:title>License: GPLv3</dc:title>
          </cc:Agent>
        </dc:rights>
        <dc:language>es-en</dc:language>
        <dc:subject>
          <rdf:Bag>
            <rdf:li>plane-icon-theme</rdf:li>
          </rdf:Bag>
        </dc:subject>
        <dc:description>Template for create set icons</dc:description>
        <cc:license rdf:resource="https://www.gnu.org/licenses/gpl-3.0.en.html"/>
      </cc:Work>
    </rdf:RDF>
  </metadata>
  <defs id="defs22">
    <linearGradient id="Pestana-sombra-3" osb:paint="solid">
      <stop style="stop-color:#000000;stop-opacity:0.19553073;" offset="0" id="stop8273"/>
    </linearGradient>
    <linearGradient id="Hoja-brillo-8" osb:paint="solid">
      <stop style="stop-color:#ffffff;stop-opacity:0.33333334;" offset="0" id="stop8267"/>
    </linearGradient>
    <linearGradient id="Hoja-sombra-2_-2" osb:paint="solid">
      <stop style="stop-color:#000000;stop-opacity:0.00877193;" offset="0" id="stop8261"/>
    </linearGradient>
    <linearGradient id="Hoja-sombra-1_-9" osb:paint="solid">
      <stop style="stop-color:#000000;stop-opacity:0.03070175;" offset="0" id="stop8255"/>
    </linearGradient>
    <linearGradient id="Pestana-6">
      <stop id="stop7875" offset="0" style="stop-color:#5ebfff;stop-opacity:1;"/>
      <stop id="stop7879" offset="1" style="stop-color:#40b3ff;stop-opacity:1;"/>
    </linearGradient>
    <linearGradient id="Hoja_-5">
      <stop id="stop7831" offset="0" style="stop-color:#36afff;stop-opacity:1;"/>
      <stop id="stop7833" offset="1" style="stop-color:#0090ee;stop-opacity:1;"/>
    </linearGradient>
    <linearGradient inkscape:collect="always" xlink:href="#Hoja_-5" id="linearGradient8848" gradientUnits="userSpaceOnUse" gradientTransform="matrix(2.1943448,0,0,2.19615,107.37835,109.17328)" x1="24.116938" y1="4.9307919" x2="24.058121" y2="42.556389"/>
    <linearGradient inkscape:collect="always" xlink:href="#Pestana-6" id="linearGradient8852" gradientUnits="userSpaceOnUse" gradientTransform="matrix(2.5078225,0,0,2.19615,97.006583,108.93197)" x1="33.093815" y1="10.50385" x2="29.903797" y2="14.146588"/>
    <linearGradient inkscape:collect="always" xlink:href="#Hoja_-5" id="linearGradient7823-7" gradientUnits="userSpaceOnUse" x1="24.116938" y1="4.9307919" x2="24.058121" y2="42.556389" gradientTransform="matrix(1.1194338,0,0,1.1203548,-2.9435792,-2.6942142)"/>
    <linearGradient inkscape:collect="always" xlink:href="#Hoja-sombra-2" id="linearGradient7865-3" gradientUnits="userSpaceOnUse" gradientTransform="matrix(1.1194338,0,0,1.1203548,-2.9435792,-2.6942142)" x1="26.072924" y1="18.962273" x2="34.373611" y2="10.815324"/>
    <linearGradient inkscape:collect="always" xlink:href="#Pestana-6" id="linearGradient7825-6" gradientUnits="userSpaceOnUse" x1="34.176132" y1="10.27618" x2="30.758255" y2="13.691247" gradientTransform="matrix(1.2793529,0,0,1.1203548,-8.2346867,-2.8173169)"/>
    <linearGradient id="Hoja-16_-2">
      <stop style="stop-color:#ffffff;stop-opacity:0.25;" offset="0" id="stop7714"/>
      <stop style="stop-color:#ffffff;stop-opacity:0.28289473;" offset="1" id="stop7716"/>
    </linearGradient>
    <linearGradient inkscape:collect="always" xlink:href="#Hoja_-5" id="linearGradient7909" gradientUnits="userSpaceOnUse" gradientTransform="matrix(1.4628966,0,0,1.4641001,44.91893,46.115528)" x1="24.116938" y1="4.9307919" x2="24.058121" y2="42.556389"/>
    <linearGradient inkscape:collect="always" xlink:href="#Hoja-sombra-2" id="linearGradient7911" gradientUnits="userSpaceOnUse" gradientTransform="matrix(1.4628966,0,0,1.4641001,44.91893,46.115528)" x1="26.072924" y1="18.962273" x2="34.373611" y2="10.815324"/>
    <linearGradient inkscape:collect="always" xlink:href="#Pestana-6" id="linearGradient7913" gradientUnits="userSpaceOnUse" gradientTransform="matrix(1.6718818,0,0,1.4641001,38.00441,45.954658)" x1="34.176132" y1="10.27618" x2="30.758255" y2="13.691247"/>
    <linearGradient inkscape:collect="always" xlink:href="#Hoja-sombra-2" id="linearGradient8850-3" gradientUnits="userSpaceOnUse" gradientTransform="matrix(2.1943448,0,0,2.19615,107.37835,109.17328)" x1="23.980556" y1="23.143555" x2="45.854969" y2="1.2871252"/>
    <linearGradient inkscape:collect="always" xlink:href="#Hoja-sombra-2" id="linearGradient4621" gradientUnits="userSpaceOnUse" gradientTransform="matrix(2.1943448,0,0,2.19615,107.37835,109.17328)" x1="23.980556" y1="23.143555" x2="2.1061459" y2="44.999985"/>
    <linearGradient inkscape:collect="always" xlink:href="#Hoja-sombra-2" id="linearGradient8301" gradientUnits="userSpaceOnUse" gradientTransform="matrix(2.1943448,0,0,2.19615,107.37835,109.17328)" x1="23.980556" y1="23.143555" x2="45.854969" y2="44.999985"/>
    <linearGradient id="Hoja-sombra-2">
      <stop id="stop8303" offset="0" style="stop-color:#000000;stop-opacity:0"/>
      <stop id="stop8305" offset="1" style="stop-color:#000000;stop-opacity:0.10196079"/>
    </linearGradient>
    <linearGradient inkscape:collect="always" xlink:href="#Hoja-sombra-2" id="linearGradient7895" gradientUnits="userSpaceOnUse" gradientTransform="matrix(2.1943448,0,0,2.19615,107.37835,109.17328)" x1="23.980556" y1="23.143555" x2="2.1061459" y2="1.2871252"/>
    <linearGradient inkscape:collect="always" xlink:href="#Hoja_-5" id="linearGradient7818" gradientUnits="userSpaceOnUse" gradientTransform="matrix(0.74628918,0,0,0.74690318,-33.962385,-33.796142)" x1="24.116938" y1="4.9307919" x2="24.058121" y2="42.556389"/>
    <linearGradient inkscape:collect="always" xlink:href="#Pestana-6" id="linearGradient7822" gradientUnits="userSpaceOnUse" gradientTransform="matrix(0.85290191,0,0,0.74690318,-37.489791,-33.878211)" x1="28.713491" y1="15.702977" x2="25.196087" y2="18.581003"/>
    <linearGradient inkscape:collect="always" xlink:href="#Hoja-sombra-1_-9" id="linearGradient8259" x1="125.99999" y1="161.5" x2="193.99999" y2="161.5" gradientUnits="userSpaceOnUse"/>
    <linearGradient inkscape:collect="always" xlink:href="#Hoja-sombra-2_-2" id="linearGradient8265" x1="125" y1="161.49999" x2="195" y2="161.49999" gradientUnits="userSpaceOnUse"/>
    <linearGradient inkscape:collect="always" xlink:href="#Hoja-brillo-8" id="linearGradient8271" x1="126.99999" y1="120.5" x2="168.99999" y2="120.5" gradientUnits="userSpaceOnUse"/>
    <linearGradient inkscape:collect="always" xlink:href="#Pestana-sombra-3" id="linearGradient8277" x1="165.99999" y1="133.47244" x2="192.99999" y2="133.47244" gradientUnits="userSpaceOnUse"/>
    <linearGradient gradientTransform="matrix(1.33333,0,0,1.33333,58.6672,56.167208)" inkscape:collect="always" xlink:href="#Hoja-sombra-2_-2" id="linearGradient8265-7" x1="125" y1="161.49998" x2="195" y2="161.49998" gradientUnits="userSpaceOnUse"/>
    <linearGradient gradientTransform="matrix(1.33333,0,0,1.33333,58.6672,56.167208)" inkscape:collect="always" xlink:href="#Hoja-sombra-1_-9" id="linearGradient8259-9" x1="125.99999" y1="161.5" x2="193.99998" y2="161.5" gradientUnits="userSpaceOnUse"/>
    <linearGradient inkscape:collect="always" xlink:href="#Hoja_-5" id="linearGradient8848-4" gradientUnits="userSpaceOnUse" gradientTransform="matrix(2.9257858,0,0,2.9281927,201.83798,201.73122)" x1="24.116938" y1="4.9307919" x2="24.058121" y2="42.556389"/>
    <linearGradient inkscape:collect="always" xlink:href="#Hoja-sombra-2" id="linearGradient8301-3" gradientUnits="userSpaceOnUse" gradientTransform="matrix(2.9257858,0,0,2.9281927,201.83798,201.73122)" x1="23.980556" y1="23.143555" x2="45.854969" y2="44.999985"/>
    <linearGradient inkscape:collect="always" xlink:href="#Hoja-sombra-2" id="linearGradient4621-0" gradientUnits="userSpaceOnUse" gradientTransform="matrix(2.9257858,0,0,2.9281927,201.83798,201.73122)" x1="23.980556" y1="23.143555" x2="2.1061459" y2="44.999985"/>
    <linearGradient inkscape:collect="always" xlink:href="#Hoja-sombra-2" id="linearGradient8850-3-8" gradientUnits="userSpaceOnUse" gradientTransform="matrix(2.9257858,0,0,2.9281927,201.83798,201.73122)" x1="23.980556" y1="23.143555" x2="45.854969" y2="1.2871252"/>
    <linearGradient inkscape:collect="always" xlink:href="#Hoja-sombra-2" id="linearGradient7895-1" gradientUnits="userSpaceOnUse" gradientTransform="matrix(2.9257858,0,0,2.9281927,201.83798,201.73122)" x1="23.980556" y1="23.143555" x2="2.1061459" y2="1.2871252"/>
    <linearGradient gradientTransform="matrix(1.33333,0,0,1.33333,58.6672,56.167208)" inkscape:collect="always" xlink:href="#Hoja-brillo-8" id="linearGradient8271-9" x1="126.99999" y1="120.5" x2="168.99998" y2="120.5" gradientUnits="userSpaceOnUse"/>
    <linearGradient gradientTransform="matrix(1.33333,0,0,1.33333,58.6672,56.167208)" inkscape:collect="always" xlink:href="#Pestana-sombra-3" id="linearGradient8277-7" x1="165.99998" y1="133.47244" x2="192.99998" y2="133.47244" gradientUnits="userSpaceOnUse"/>
    <linearGradient inkscape:collect="always" xlink:href="#Pestana-6" id="linearGradient8852-2" gradientUnits="userSpaceOnUse" gradientTransform="matrix(3.343755,0,0,2.9281927,188.00898,201.40947)" x1="33.093815" y1="10.50385" x2="29.903797" y2="14.146588"/>
    <linearGradient inkscape:collect="always" xlink:href="#Hoja_-5" id="linearGradient8613" x1="-43.047825" y1="-34" x2="-43.047825" y2="-28" gradientUnits="userSpaceOnUse"/>
    <linearGradient gradientTransform="translate(0.0025287,0.00911844)" inkscape:collect="always" xlink:href="#patron-6" id="linearGradient9428" gradientUnits="userSpaceOnUse" x1="188" y1="173.49998" x2="189" y2="173.49998"/>
    <linearGradient id="patron-6" osb:paint="solid">
      <stop style="stop-color:#ffffff;stop-opacity:0.27843139;" offset="0" id="stop9305"/>
    </linearGradient>
    <linearGradient gradientTransform="matrix(1.3331528,0,0,1.3374408,58.689935,55.49812)" inkscape:collect="always" xlink:href="#patron-6" id="linearGradient9428-3" gradientUnits="userSpaceOnUse" x1="188" y1="173.49998" x2="189" y2="173.49998"/>
    <linearGradient gradientTransform="matrix(0.66625707,0,0,0.67462792,-26.614534,-27.958409)" inkscape:collect="always" xlink:href="#patron-6" id="linearGradient9428-2" gradientUnits="userSpaceOnUse" x1="188" y1="173.49998" x2="189" y2="173.49998"/>
    <linearGradient gradientTransform="matrix(0.49999999,0,0,0.50607896,-56.499996,-57.739183)" inkscape:collect="always" xlink:href="#patron-6" id="linearGradient9428-36" gradientUnits="userSpaceOnUse" x1="188" y1="173.49998" x2="189" y2="173.49998"/>
    <linearGradient inkscape:collect="always" xlink:href="#Hoja_-5" id="linearGradient7818-3" gradientUnits="userSpaceOnUse" gradientTransform="matrix(0.74628918,0,0,0.74690318,-6.962385,-3.796142)" x1="24.116938" y1="4.9307919" x2="24.058121" y2="42.556389"/>
    <linearGradient gradientTransform="translate(69,70.00001)" inkscape:collect="always" xlink:href="#Hoja_-5" id="linearGradient8613-3" x1="-43.047825" y1="-34" x2="-43.047825" y2="-28" gradientUnits="userSpaceOnUse"/>
    <linearGradient inkscape:collect="always" xlink:href="#Hoja_-5" id="linearGradient7818-9" gradientUnits="userSpaceOnUse" gradientTransform="matrix(0.74628918,0,0,0.74690318,36.037615,37.203858)" x1="24.116938" y1="4.9307919" x2="24.058121" y2="42.556389"/>
  </defs>
  <sodipodi:namedview pagecolor="#ffffff" bordercolor="#ffffff" borderopacity="0.62745098" objecttolerance="4" gridtolerance="10" guidetolerance="4" inkscape:pageopacity="0" inkscape:pageshadow="2" inkscape:window-width="640" inkscape:window-height="480" id="namedview20" showgrid="true" inkscape:zoom="32.578064" inkscape:cx="238.34857" inkscape:cy="-280.54463" inkscape:current-layer="layer12" inkscape:snap-smooth-nodes="false" showguides="true" borderlayer="true" inkscape:showpageshadow="false" inkscape:guide-bbox="true" guidecolor="#bd4fff" guideopacity="0.78431373" inkscape:snap-nodes="true" inkscape:lockguides="false" fit-margin-top="0" fit-margin-left="0" fit-margin-right="0" fit-margin-bottom="0" guidehicolor="#ff0101" guidehiopacity="0.78431373" inkscape:snap-page="true" inkscape:object-nodes="true" inkscape:snap-bbox="true" inkscape:snap-global="true" inkscape:snap-object-midpoints="false" inkscape:snap-bbox-edge-midpoints="false">
    <inkscape:grid type="xygrid" id="grid4171" empspacing="4" dotted="false" originx="2.7755576e-17" originy="0" spacingx="1" spacingy="1" color="#000000" opacity="0.09411765" empcolor="#000000" empopacity="0.19607843" visible="true"/>
    <inkscape:grid type="axonomgrid" id="grid4699" units="mm" empspacing="4" color="#5a5a5a" opacity="0.23529412" empcolor="#5a5a5a" empopacity="0.47058824" gridanglex="45" gridanglez="45" spacingy="3.7795276" visible="false" originx="1.3228346" originy="1.3228346"/>
    <sodipodi:guide position="48,0" orientation="1,0" id="guide4568" inkscape:locked="false" inkscape:label="" inkscape:color="rgb(189,79,255)"/>
    <sodipodi:guide position="111.99996,-3.9999999e-05" orientation="0,1" id="guide4570" inkscape:locked="false" inkscape:label="" inkscape:color="rgb(189,79,255)"/>
    <sodipodi:guide position="0,0" orientation="1,0" id="guide4572" inkscape:locked="false" inkscape:label="" inkscape:color="rgb(189,79,255)"/>
    <sodipodi:guide position="0,48" orientation="0,1" id="guide4574" inkscape:locked="false" inkscape:label="" inkscape:color="rgb(189,79,255)"/>
    <sodipodi:guide position="0,80" orientation="0,1" id="guide4576" inkscape:locked="false" inkscape:label="" inkscape:color="rgb(189,79,255)"/>
    <sodipodi:guide position="-32,48" orientation="1,0" id="guide4578" inkscape:locked="false" inkscape:label="" inkscape:color="rgb(189,79,255)"/>
    <sodipodi:guide position="-32,104" orientation="0,1" id="guide4580" inkscape:locked="false" inkscape:label="" inkscape:color="rgb(189,79,255)"/>
    <sodipodi:guide position="-56,80" orientation="1,0" id="guide4582" inkscape:locked="false" inkscape:label="" inkscape:color="rgb(189,79,255)"/>
    <sodipodi:guide position="48,-64" orientation="0,1" id="guide4584" inkscape:locked="false" inkscape:label="" inkscape:color="rgb(189,79,255)"/>
    <sodipodi:guide position="0,0" orientation="-0.70710678,0.70710678" id="guide4588" inkscape:locked="false" inkscape:label="" inkscape:color="rgb(189,79,255)"/>
    <sodipodi:guide position="-56,80" orientation="-0.70710678,0.70710678" id="guide4573" inkscape:locked="false" inkscape:label="" inkscape:color="rgb(189,79,255)"/>
    <sodipodi:guide position="-32,48" orientation="-0.70710678,0.70710678" id="guide4575" inkscape:locked="false" inkscape:label="" inkscape:color="rgb(189,79,255)"/>
    <sodipodi:guide position="48,-64" orientation="-0.70710678,0.70710678" id="guide4577" inkscape:locked="false" inkscape:label="" inkscape:color="rgb(189,79,255)"/>
    <sodipodi:guide position="47.999962,0" orientation="0.70710678,0.70710678" id="guide4697" inkscape:locked="false" inkscape:label="" inkscape:color="rgb(189,79,255)"/>
    <sodipodi:guide position="207.99995,-288" orientation="0,1" id="guide7833" inkscape:locked="false"/>
    <sodipodi:guide position="335.99994,-288" orientation="1,0" id="guide7835" inkscape:locked="false" inkscape:label="" inkscape:color="rgb(189,79,255)"/>
    <sodipodi:guide position="111.99996,-64" orientation="1,0" id="guide7915" inkscape:locked="false"/>
    <sodipodi:guide position="111.99996,-160" orientation="0,1" id="guide7917" inkscape:locked="false"/>
    <sodipodi:guide position="207.99996,-160" orientation="1,0" id="guide7919" inkscape:locked="false"/>
    <sodipodi:guide position="111.99996,-160" orientation="-0.70710678,0.70710678" id="guide7921" inkscape:locked="false" inkscape:label="" inkscape:color="rgb(189,79,255)"/>
    <sodipodi:guide position="207.99996,-288" orientation="-0.70710678,0.70710678" id="guide7923" inkscape:locked="false" inkscape:label="" inkscape:color="rgb(189,79,255)"/>
    <sodipodi:guide position="-72,104" orientation="1,0" id="guide7824" inkscape:locked="false"/>
    <sodipodi:guide position="-56,120" orientation="0,1" id="guide7826" inkscape:locked="false"/>
    <sodipodi:guide position="-72,104" orientation="-0.70710678,0.70710678" id="guide7828" inkscape:locked="false" inkscape:label="" inkscape:color="rgb(189,79,255)"/>
  </sodipodi:namedview>
  <g style="display:inline" inkscape:label="icon_32" id="g7816" inkscape:groupmode="layer" transform="translate(32,32)">
    <g style="display:none" inkscape:label="frame" id="g7802" inkscape:groupmode="layer">
      <rect style="color:#000000;clip-rule:nonzero;display:block;overflow:visible;visibility:visible;opacity:1;isolation:auto;mix-blend-mode:normal;color-interpolation:sRGB;color-interpolation-filters:linearRGB;solid-color:#000000;solid-opacity:1;vector-effect:none;fill:#000000;fill-opacity:1;fill-rule:nonzero;stroke:#ff24f7;stroke-width:0;stroke-linecap:square;stroke-linejoin:miter;stroke-miterlimit:4;stroke-dasharray:none;stroke-dashoffset:0;stroke-opacity:0.99481865;marker:none;marker-start:none;marker-mid:none;marker-end:none;paint-order:normal;color-rendering:auto;image-rendering:auto;shape-rendering:auto;text-rendering:auto;enable-background:accumulate" id="rect7792" width="32" height="32" x="-32" y="-32" inkscape:label="frame_32"/>
      <text inkscape:label="txt_32" id="text7796" y="-11.470053" x="-23.799042" style="font-size:12.4444437px;line-height:1000%;font-family:sans-serif;letter-spacing:0px;word-spacing:0px;display:inline;opacity:1;fill:#ffffff;fill-opacity:1;stroke:none;stroke-width:0.07444605px;stroke-linecap:butt;stroke-linejoin:miter;stroke-opacity:1" xml:space="preserve">
        <tspan id="tspan7794" style="font-size:12.4444437px;fill:#ffffff;fill-opacity:1;stroke:none;stroke-width:0.07444605px" y="-11.470053" x="-23.799042" sodipodi:role="line">32</tspan>
      </text>
    </g>
    <g style="display:inline" inkscape:label="icon" id="g7814" inkscape:groupmode="layer">
      <path style="color:#000000;clip-rule:nonzero;display:inline;overflow:visible;visibility:visible;opacity:1;isolation:auto;mix-blend-mode:normal;color-interpolation:sRGB;color-interpolation-filters:linearRGB;solid-color:#000000;solid-opacity:1;vector-effect:none;fill:url(#linearGradient8259);fill-opacity:1;fill-rule:nonzero;stroke:none;stroke-width:0.85190946;stroke-linecap:butt;stroke-linejoin:miter;stroke-miterlimit:4;stroke-dasharray:none;stroke-dashoffset:0;stroke-opacity:1;marker:none;marker-start:none;marker-mid:none;marker-end:none;paint-order:fill markers stroke;color-rendering:auto;image-rendering:auto;shape-rendering:auto;text-rendering:auto;enable-background:accumulate" d="m -28,-31 h 15 l 9,9 v 21 h -24 z" id="path7804" inkscape:connector-curvature="0" sodipodi:nodetypes="cccccc" inkscape:label="Hoja sombra"/>
      <path inkscape:label="Hoja" sodipodi:nodetypes="cccccc" inkscape:connector-curvature="0" id="path7806" d="m -27,-30 h 14 l 8,8 v 20 h -22 z" style="color:#000000;clip-rule:nonzero;display:inline;overflow:visible;visibility:visible;opacity:1;isolation:auto;mix-blend-mode:normal;color-interpolation:sRGB;color-interpolation-filters:linearRGB;solid-color:#000000;solid-opacity:1;vector-effect:none;fill:url(#linearGradient7818);fill-opacity:1;fill-rule:nonzero;stroke:none;stroke-width:0.28184074;stroke-linecap:butt;stroke-linejoin:miter;stroke-miterlimit:4;stroke-dasharray:none;stroke-dashoffset:0;stroke-opacity:1;marker:none;marker-start:none;marker-mid:none;marker-end:none;paint-order:fill markers stroke;color-rendering:auto;image-rendering:auto;shape-rendering:auto;text-rendering:auto;enable-background:accumulate"/>
      <path inkscape:label="Pestaña sombra" style="display:inline;opacity:1;vector-effect:none;fill:url(#linearGradient8277);fill-opacity:1;fill-rule:evenodd;stroke:none;stroke-width:2.19524717px;stroke-linecap:butt;stroke-linejoin:miter;stroke-miterlimit:4;stroke-dasharray:none;stroke-dashoffset:0;stroke-opacity:1" d="m -13,-30 8,8 v 1 h -9 v -9 z" id="path7810" inkscape:connector-curvature="0" sodipodi:nodetypes="cccccc"/>
      <path inkscape:label="Pestaña" sodipodi:nodetypes="cccc" inkscape:connector-curvature="0" id="path7812" d="m -13,-30 8,8 h -8 z" style="display:inline;fill:url(#linearGradient7822);fill-opacity:1;fill-rule:evenodd;stroke:none;stroke-width:0.79814482px;stroke-linecap:butt;stroke-linejoin:miter;stroke-opacity:1"/>
      <path style="color:#000000;font-style:normal;font-variant:normal;font-weight:normal;font-stretch:normal;font-size:medium;line-height:normal;font-family:sans-serif;font-variant-ligatures:normal;font-variant-position:normal;font-variant-caps:normal;font-variant-numeric:normal;font-variant-alternates:normal;font-feature-settings:normal;text-indent:0;text-align:start;text-decoration:none;text-decoration-line:none;text-decoration-style:solid;text-decoration-color:#000000;letter-spacing:normal;word-spacing:normal;text-transform:none;writing-mode:lr-tb;direction:ltr;text-orientation:mixed;dominant-baseline:auto;baseline-shift:baseline;text-anchor:start;white-space:normal;shape-padding:0;clip-rule:nonzero;display:inline;overflow:visible;visibility:visible;opacity:1;isolation:auto;mix-blend-mode:normal;color-interpolation:sRGB;color-interpolation-filters:linearRGB;solid-color:#000000;solid-opacity:1;vector-effect:none;fill:#b8eff9;fill-opacity:0.87745098;fill-rule:evenodd;stroke:none;stroke-width:0.71428573;stroke-linecap:butt;stroke-linejoin:miter;stroke-miterlimit:4;stroke-dasharray:none;stroke-dashoffset:0;stroke-opacity:1;color-rendering:auto;image-rendering:auto;shape-rendering:auto;text-rendering:auto;enable-background:accumulate" d="m -9,-17 -14,10 h 14 z m -1.015748,2 L -10,-8 h -10 z" id="path9444-1-9" inkscape:connector-curvature="0" sodipodi:nodetypes="cccccccc"/>
      <path inkscape:connector-curvature="0" id="path7850-7-2" d="m -19.347441,-22.685919 v 1.685911 h 0.199027 v -1.685911 z m -6.130944,0.0683 v 0.184396 h 0.574654 v 1.433219 h 0.219518 v -1.433219 h 0.574654 v -0.184396 z m 8.10369,0.05951 v 0.3444 h -0.146342 v 0.155129 h 0.146342 v 0.65856 c 5e-6,0.151667 0.02932,0.256378 0.08781,0.314154 0.0585,0.05706 0.164225,0.08586 0.318055,0.08586 h 0.204887 v -0.16684 h -0.204887 c -0.08305,5e-6 -0.13744,-0.01379 -0.164879,-0.04196 -0.02672,-0.02817 -0.04096,-0.09228 -0.04096,-0.191225 v -0.658559 h 0.410743 v -0.155129 h -0.410748 v -0.344401 z m -6.40022,0.315133 c -0.181998,0 -0.326552,0.05861 -0.434161,0.175615 -0.106889,0.116275 -0.160978,0.273602 -0.160978,0.47221 0,0.192114 0.0571,0.344915 0.16976,0.457579 0.113388,0.112669 0.265974,0.168786 0.459527,0.168786 0.07728,0 0.154165,-0.0076 0.229279,-0.02343 0.07511,-0.01588 0.148021,-0.03891 0.219518,-0.06927 v -0.189272 c -0.07077,0.03757 -0.142421,0.0661 -0.214643,0.08488 -0.07149,0.01878 -0.144913,0.02827 -0.221466,0.02827 -0.13217,0 -0.235868,-0.03582 -0.310258,-0.107319 -0.07368,-0.07222 -0.114272,-0.176938 -0.122929,-0.314159 h 0.916127 v -0.09757 c 0,-0.18056 -0.0481,-0.32359 -0.14342,-0.428312 -0.09461,-0.10544 -0.22313,-0.158051 -0.386356,-0.158051 z m 1.440053,0 c -0.08739,0 -0.162796,0.01828 -0.226351,0.05366 -0.06356,0.03537 -0.118409,0.08953 -0.163906,0.163911 v -0.188304 h -0.200986 v 1.213701 h 0.200986 v -0.685879 c 0,-0.117718 0.02982,-0.2114 0.08977,-0.280006 0.05994,-0.06933 0.141102,-0.103422 0.242931,-0.103422 0.08595,0 0.149089,0.02757 0.19025,0.08391 0.04116,0.05561 0.06146,0.142521 0.06146,0.25952 v 0.725881 h 0.200981 v -0.685879 c 0,-0.118438 0.02982,-0.212369 0.08977,-0.280984 0.05994,-0.06862 0.141606,-0.102444 0.244889,-0.102444 0.08449,0 0.147126,0.02757 0.188297,0.08391 0.04116,0.05634 0.06244,0.143245 0.06244,0.25952 V -21 h 0.200006 v -0.73271 c 0,-0.16322 -0.03482,-0.288487 -0.103417,-0.376594 -0.06862,-0.08884 -0.16533,-0.133664 -0.291721,-0.133664 -0.09389,0 -0.175549,0.02178 -0.244884,0.06439 -0.06934,0.04261 -0.129688,0.108503 -0.179521,0.198058 -0.02962,-0.08522 -0.07545,-0.150353 -0.137565,-0.195131 -0.06138,-0.04476 -0.135308,-0.06732 -0.22342,-0.06732 z m 2.160075,0 c -0.08884,0 -0.165973,0.01828 -0.230253,0.05366 -0.06355,0.03467 -0.116165,0.08779 -0.158056,0.160004 v -0.184397 h -0.200007 v 1.675181 h 0.200007 v -0.643923 c 0.04191,0.07221 0.0945,0.126566 0.158056,0.161952 0.06428,0.03467 0.141417,0.05171 0.230253,0.05171 0.147331,0 0.266334,-0.05861 0.358058,-0.175615 0.09244,-0.117 0.138544,-0.270815 0.138544,-0.46148 0,-0.190665 -0.04611,-0.34448 -0.138544,-0.46148 -0.09172,-0.116998 -0.210727,-0.175612 -0.358058,-0.175612 z m 1.868355,0 c -0.065,0 -0.131396,0.007 -0.200007,0.02148 -0.06862,0.01369 -0.139743,0.03522 -0.212689,0.06342 v 0.184396 c 0.06067,-0.03322 0.123553,-0.0585 0.189271,-0.07512 0.06573,-0.01663 0.133599,-0.02538 0.202939,-0.02538 0.109052,0 0.193722,0.02553 0.253666,0.0761 0.06066,0.04985 0.09073,0.120971 0.09073,0.21269 v 0.01953 h -0.279038 c -0.181274,0 -0.318045,0.03407 -0.409768,0.103417 -0.09099,0.06934 -0.136592,0.172777 -0.136592,0.309279 0,0.117 0.03632,0.209952 0.109272,0.280006 0.07367,0.06934 0.172373,0.104397 0.296596,0.104397 0.09822,0 0.181878,-0.01703 0.249764,-0.05171 0.06789,-0.03537 0.124263,-0.09023 0.169766,-0.163905 v 0.184396 h 0.199032 v -0.692707 c 0,-0.184896 -0.04311,-0.322681 -0.129763,-0.413675 -0.08667,-0.091 -0.217685,-0.136588 -0.393184,-0.136588 z m 2.314224,0 c -0.181998,0 -0.326547,0.05861 -0.434161,0.175615 -0.106889,0.116275 -0.160978,0.273602 -0.160978,0.47221 0,0.192114 0.05612,0.344915 0.168786,0.457579 0.113388,0.112669 0.266948,0.168786 0.460501,0.168786 0.07728,0 0.15417,-0.0076 0.229279,-0.02343 0.07511,-0.01588 0.148021,-0.03891 0.219518,-0.06927 v -0.189272 c -0.07078,0.03757 -0.142421,0.0661 -0.214643,0.08488 -0.07149,0.01878 -0.144913,0.02827 -0.221471,0.02827 -0.132165,0 -0.235868,-0.03582 -0.310253,-0.107319 -0.07367,-0.07222 -0.115246,-0.176938 -0.123908,-0.314159 h 0.917106 v -0.09757 c 0,-0.18056 -0.0481,-0.32359 -0.14342,-0.428312 -0.09461,-0.10544 -0.22313,-0.158051 -0.386356,-0.158051 z m -4.231363,0.166832 c 0.105446,0 0.187868,0.04206 0.247812,0.125862 0.06067,0.08305 0.09073,0.197788 0.09073,0.3444 0,0.146607 -0.03007,0.261598 -0.09073,0.345375 -0.05994,0.08306 -0.142366,0.124882 -0.247812,0.124882 -0.105446,5e-6 -0.189097,-0.04181 -0.249765,-0.124882 -0.05995,-0.08377 -0.08976,-0.198768 -0.08976,-0.345375 0,-0.146612 0.02982,-0.261348 0.08976,-0.3444 0.06066,-0.08378 0.144319,-0.125862 0.249765,-0.125862 z m -3.549391,0.002 c 0.09822,0 0.176884,0.03257 0.236108,0.09756 0.06005,0.065 0.09135,0.152417 0.09268,0.261474 l -0.71124,9.99e-4 c 0.01009,-0.114112 0.0487,-0.202544 0.115126,-0.265375 0.06717,-0.06283 0.156103,-0.09463 0.267323,-0.09463 z m 7.782707,0 c 0.09822,0 0.176884,0.03257 0.236108,0.09756 0.06005,0.065 0.09135,0.152417 0.09268,0.261474 l -0.711245,9.99e-4 c 0.01009,-0.114112 0.0487,-0.202544 0.115126,-0.265375 0.06717,-0.06283 0.156108,-0.09463 0.267328,-0.09463 z m -2.190321,0.464408 h 0.198059 v 0.04391 c 0,0.129998 -0.03332,0.234459 -0.100491,0.31318 -0.06645,0.07801 -0.154879,0.117075 -0.265375,0.117075 -0.08016,0 -0.144284,-0.02028 -0.19123,-0.06146 -0.04621,-0.04191 -0.06926,-0.09802 -0.06926,-0.168786 0,-0.08884 0.03157,-0.152447 0.09366,-0.189277 0.06211,-0.03681 0.173592,-0.05463 0.334645,-0.05463 z" style="font-size:medium;line-height:1000%;font-family:sans-serif;letter-spacing:0px;word-spacing:0px;display:inline;fill:#ffffff;fill-opacity:0.80392157;stroke:none;stroke-width:0.13866602px;stroke-linecap:butt;stroke-linejoin:miter;stroke-opacity:1" inkscape:label="txt-template"/>
      <path style="color:#000000;font-style:normal;font-variant:normal;font-weight:normal;font-stretch:normal;font-size:medium;line-height:normal;font-family:sans-serif;font-variant-ligatures:normal;font-variant-position:normal;font-variant-caps:normal;font-variant-numeric:normal;font-variant-alternates:normal;font-feature-settings:normal;text-indent:0;text-align:start;text-decoration:none;text-decoration-line:none;text-decoration-style:solid;text-decoration-color:#000000;letter-spacing:normal;word-spacing:normal;text-transform:none;writing-mode:lr-tb;direction:ltr;text-orientation:mixed;dominant-baseline:auto;baseline-shift:baseline;text-anchor:start;white-space:normal;shape-padding:0;clip-rule:nonzero;display:inline;overflow:visible;visibility:visible;opacity:1;isolation:auto;mix-blend-mode:normal;color-interpolation:sRGB;color-interpolation-filters:linearRGB;solid-color:#000000;solid-opacity:1;vector-effect:none;fill:#f8f8f8;fill-opacity:1;fill-rule:evenodd;stroke:none;stroke-width:0.08871139;stroke-linecap:butt;stroke-linejoin:miter;stroke-miterlimit:4;stroke-dasharray:none;stroke-dashoffset:0;stroke-opacity:1;color-rendering:auto;image-rendering:auto;shape-rendering:auto;text-rendering:auto;enable-background:accumulate" d="m -9.810807,-18.891088 -0.07914,0.583296 -0.543042,-0.227177 -0.03547,0.08459 0.565555,0.23673 -0.01229,0.09073 -14.42551,9.9062924 0.04639,-0.3397432 -0.09073,-0.012957 -0.05594,0.4106948 -0.160319,0.092779 0.01704,0.030005 -0.422974,-0.1773759 -0.03548,0.084592 0.565554,0.2374109 -0.08255,0.6071693 0.09142,0.012957 0.07913,-0.5832915 0.54236,0.2271768 0.03615,-0.084595 -0.566236,-0.2374109 0.01432,-0.1043756 14.42552,-9.9062921 -0.04843,0.354068 0.09142,0.01229 0.05799,-0.425019 0.167821,-0.09687 0.396368,0.166459 0.03547,-0.08528 -0.371805,-0.155544 -0.04776,-0.08255 -0.06277,0.03615 -0.08323,-0.03479 0.08255,-0.60785 z m 1.7028045,1.887685 -0.054583,0.07027 0.4134199,0.319959 v 0.05458 l -0.4161484,0.316547 0.053898,0.07094 0.3622519,-0.275613 v 8.9178863 l -0.4181949,-0.3240493 -0.051849,0.066854 0.4263817,0.3301937 -0.4291094,0.326096 0.051164,0.066862 0.44685,-0.3397432 0.4441195,0.3431527 0.051849,-0.06617 -0.3793115,-0.2933541 v -0.072314 l 0.38204,-0.2906222 -0.051164,-0.066854 -0.3308748,0.2517357 V -16.50335 l 0.4345733,0.33565 0.054576,-0.06959 -0.449575,-0.347928 0.452307,-0.343836 L -7.1692806,-17 -7.608625,-16.666397 h -0.064127 z m -9.5209645,0.944866 -0.446852,0.257876 0.244233,0.422972 c 0.02333,-0.03248 0.0482,-0.06114 0.07436,-0.08528 0.02654,-0.02431 0.05484,-0.04518 0.08528,-0.06276 0.06502,-0.03755 0.126504,-0.0505 0.184196,-0.0382 0.0577,0.01229 0.103279,0.04781 0.137125,0.106427 0.03384,0.05863 0.04141,0.116485 0.0232,0.172599 -0.0182,0.05611 -0.05983,0.102999 -0.124844,0.140538 -0.04021,0.02323 -0.08083,0.04072 -0.122116,0.05254 -0.04128,0.01177 -0.0838,0.01796 -0.128257,0.01911 l 0.06549,0.11461 c 0.04603,-0.01055 0.08901,-0.02386 0.128939,-0.03889 0.04029,-0.01526 0.07861,-0.0328 0.113929,-0.05321 0.102598,-0.05924 0.167598,-0.130321 0.195115,-0.212852 0.02728,-0.08291 0.01478,-0.169351 -0.03752,-0.259922 -0.05078,-0.08793 -0.118704,-0.141866 -0.203303,-0.161685 -0.0846,-0.01981 -0.17347,-0.0025 -0.267426,0.05185 -0.01653,0.0095 -0.03228,0.02019 -0.04708,0.03273 -0.01502,0.01215 -0.02902,0.02641 -0.04229,0.04161 l -0.11939,-0.206712 0.342472,-0.197839 z m -0.740885,0.494602 c -0.07703,-0.01365 -0.15909,0.0042 -0.246276,0.05458 -0.03308,0.01911 -0.06724,0.04538 -0.101651,0.07777 -0.0344,0.03241 -0.06916,0.0711 -0.10438,0.115976 l 0.06685,0.114613 c 0.03057,-0.05122 0.06184,-0.09444 0.09415,-0.129623 0.03266,-0.0354 0.06663,-0.06329 0.102332,-0.0839 0.05036,-0.0291 0.09921,-0.03885 0.146675,-0.02864 0.04784,0.01 0.0847,0.03783 0.11052,0.08255 0.01582,0.02741 0.02473,0.05916 0.02661,0.09619 0.0021,0.03643 -0.0035,0.08602 -0.01638,0.14804 -0.0065,0.03287 -0.02547,0.108457 -0.05662,0.227178 -0.03101,0.118123 -0.05492,0.21208 -0.07232,0.281753 l 0.05527,0.09619 0.534171,-0.309044 -0.05526,-0.09551 -0.397048,0.229224 c 0.03767,-0.146522 0.06622,-0.260167 0.08664,-0.341105 0.02019,-0.08132 0.03235,-0.130354 0.03548,-0.146676 0.0099,-0.06184 0.01183,-0.111893 0.0068,-0.150088 -0.0048,-0.03878 -0.01687,-0.07526 -0.03684,-0.109835 -0.04209,-0.07292 -0.101708,-0.115972 -0.17874,-0.129623 z m -0.858905,0.428433 -0.113929,0.06618 -0.177375,0.156908 0.05936,0.103695 0.179421,-0.15759 0.370443,0.641963 -0.186246,0.107791 0.05525,0.09551 0.485053,-0.279707 -0.05526,-0.09619 -0.186247,0.107792 z m 13.3993472,2.966944 c -0.1089241,0 -0.1926565,0.04327 -0.2503736,0.129619 -0.057275,0.08592 -0.085958,0.210502 -0.085958,0.374537 0,0.163598 0.028676,0.288858 0.085958,0.375217 0.057716,0.08591 0.1414495,0.128938 0.2503736,0.128938 0.1089199,0 0.191723,-0.04302 0.2490065,-0.128938 0.057716,-0.08636 0.086643,-0.211619 0.086643,-0.375217 0,-0.164035 -0.028921,-0.28861 -0.086643,-0.374537 -0.057282,-0.08636 -0.1400873,-0.129619 -0.2490065,-0.129619 z m -1.1290622,0.01705 v 0.488461 c 0.036452,-0.01649 0.072392,-0.02836 0.1071074,-0.03615 0.035151,-0.0078 0.06991,-0.01159 0.1050601,-0.01159 0.075074,0 0.1349108,0.01917 0.1787401,0.05866 0.043829,0.03949 0.065491,0.09331 0.065491,0.161003 0,0.06769 -0.021656,0.121515 -0.065491,0.161004 -0.043829,0.03949 -0.1036665,0.05935 -0.1787401,0.05935 -0.046437,0 -0.090691,-0.0053 -0.1323502,-0.01569 -0.041661,-0.01041 -0.081697,-0.02651 -0.1207511,-0.04775 v 0.13235 c 0.045136,0.01386 0.088892,0.02375 0.1309853,0.0307 0.042528,0.0069 0.08405,0.0109 0.1248437,0.0109 0.1184702,0 0.2105194,-0.02892 0.2756135,-0.08664 0.065093,-0.05815 0.097558,-0.139651 0.097558,-0.244233 0,-0.101546 -0.032137,-0.182052 -0.095511,-0.241501 -0.063351,-0.05945 -0.1493886,-0.08937 -0.2578757,-0.08937 -0.019103,0 -0.037529,0.0021 -0.056618,0.0055 -0.019103,0.0032 -0.038213,0.0078 -0.057303,0.01433 v -0.238092 h 0.3956829 v -0.111201 z m 1.1290622,0.08664 c 0.068134,0 0.1189652,0.03347 0.1528156,0.100286 0.034263,0.06639 0.051164,0.166515 0.051164,0.300176 0,0.13322 -0.016873,0.233341 -0.051164,0.300171 -0.033843,0.06639 -0.084686,0.0996 -0.1528156,0.0996 -0.067701,0 -0.1192107,-0.03322 -0.1535002,-0.0996 -0.03385,-0.06684 -0.050485,-0.166951 -0.050485,-0.300171 0,-0.133661 0.016628,-0.233779 0.050485,-0.300176 0.034263,-0.06683 0.0858,-0.100286 0.1535002,-0.100286 z m -18.6334122,4.0692768 -0.0014,0.00954 -0.0089,-0.0035 z m 0.333046,2.0037847 -0.07026,0.053898 0.328824,0.4318414 v 0.076407 l -0.332918,0.4304759 0.07027,0.054584 0.34793,-0.4488974 0.343835,0.4516251 0.07027,-0.053898 -0.324735,-0.4263825 h 13.698839 l -0.30836,0.3990959 0.06686,0.051849 0.32951,-0.4263859 0.326778,0.4291137 0.06686,-0.05117 -0.308359,-0.4052323 v -0.082548 l 0.311772,-0.4031885 -0.06686,-0.051842 -0.28312,0.3656649 h -0.09278 l -0.280392,-0.3683962 -0.06686,0.05117 0.241501,0.3172283 h -13.567863 l 0.261289,-0.3376965 -0.07027,-0.054584 -0.303585,0.392274 h -0.08732 z m 7.689904,1.5731844 c -0.108917,0 -0.191971,0.043262 -0.249688,0.1296189 -0.05727,0.085927 -0.08596,0.2111831 -0.08596,0.3752181 0,0.1636015 0.02868,0.2881768 0.08596,0.3745363 0.05772,0.085922 0.140768,0.1289378 0.249688,0.1289378 0.108927,0 0.192412,-0.043018 0.249692,-0.1289378 0.05772,-0.086359 0.08596,-0.2109348 0.08596,-0.3745363 0,-0.164035 -0.02822,-0.2892914 -0.08596,-0.3752181 -0.05727,-0.086355 -0.140759,-0.1296189 -0.249692,-0.1296189 z m 0.848674,0 c -0.108925,0 -0.191972,0.043262 -0.249689,0.1296189 -0.05727,0.085927 -0.08596,0.2111831 -0.08596,0.3752181 0,0.1636015 0.02868,0.2881768 0.08596,0.3745363 0.05772,0.085922 0.140764,0.1289378 0.249689,0.1289378 0.108923,0 0.192407,-0.043018 0.249691,-0.1289378 0.05772,-0.086359 0.08664,-0.2109348 0.08664,-0.3745363 0,-0.164035 -0.02892,-0.2892914 -0.08664,-0.3752181 -0.05728,-0.086355 -0.140768,-0.1296189 -0.249691,-0.1296189 z m -1.742372,0.017746 -0.232633,0.047073 v 0.1193847 l 0.233999,-0.047073 v 0.7415633 h -0.214899 v 0.1105198 h 0.560098 V -3.539933 h -0.214899 v -0.8609516 z m 0.893698,0.086642 c 0.06814,0 0.118969,0.033466 0.152816,0.1002857 0.03429,0.066393 0.05185,0.1665152 0.05185,0.3001723 0,0.1332235 -0.01757,0.2326638 -0.05185,0.2994905 -0.03384,0.066394 -0.08468,0.099605 -0.152816,0.099605 -0.06769,0 -0.118522,-0.033221 -0.152816,-0.099605 -0.03384,-0.066827 -0.05117,-0.166267 -0.05117,-0.2994905 0,-0.1336571 0.01732,-0.2337784 0.05117,-0.3001723 0.0343,-0.066827 0.08512,-0.1002857 0.152816,-0.1002857 z m 0.848674,0 c 0.06813,0 0.119649,0.033466 0.1535,0.1002857 0.03426,0.066393 0.05116,0.1665152 0.05116,0.3001723 0,0.1332235 -0.01687,0.2326638 -0.05116,0.2994905 -0.03384,0.066394 -0.08537,0.099605 -0.1535,0.099605 -0.06769,0 -0.118533,-0.033221 -0.152816,-0.099605 -0.03384,-0.066827 -0.05048,-0.166267 -0.05048,-0.2994905 0,-0.1336571 0.01662,-0.2337784 0.05048,-0.3001723 0.0343,-0.066827 0.08512,-0.1002857 0.152816,-0.1002857 z" id="path9446-8-0" inkscape:connector-curvature="0" inkscape:label="acotes" sodipodi:nodetypes="cccccccccccccccccccccccccccccccccccccccccccccccccccccccccccccccccccccccccccccccccccccccccccccccccccccccccccccccccccccccccccscscscscscccscscsccccscscsccccccscscscscscccccccccccccccccccccccccccccccccccscscscscsscscscscsccccccccccccscscscscsscscscscs"/>
    </g>
  </g>
</svg>