<?xml version="1.0" encoding="UTF-8" standalone="yes"?>
<svg xmlns:osb="http://www.openswatchbook.org/uri/2009/osb" xmlns:dc="http://purl.org/dc/elements/1.1/" xmlns:cc="http://creativecommons.org/ns#" xmlns:rdf="http://www.w3.org/1999/02/22-rdf-syntax-ns#" xmlns:svg="http://www.w3.org/2000/svg" xmlns="http://www.w3.org/2000/svg" xmlns:xlink="http://www.w3.org/1999/xlink" xmlns:sodipodi="http://sodipodi.sourceforge.net/DTD/sodipodi-0.dtd" xmlns:inkscape="http://www.inkscape.org/namespaces/inkscape" height="128" viewBox="0 0 128 128" width="128" id="svg2" version="1.1" inkscape:version="0.92.2 5c3e80d, 2017-08-06" sodipodi:docname="font-x-generic.svg" enable-background="new" folder="128">
  <title id="title4675">Template icons dark</title>
  <metadata id="metadata24">
    <rdf:RDF>
      <cc:Work rdf:about="">
        <dc:format>image/svg+xml</dc:format>
        <dc:type rdf:resource="http://purl.org/dc/dcmitype/StillImage"/>
        <dc:title>Template icons dark</dc:title>
        <dc:date>17/05/13</dc:date>
        <dc:creator>
          <cc:Agent>
            <dc:title>wfpaisa</dc:title>
          </cc:Agent>
        </dc:creator>
        <dc:rights>
          <cc:Agent>
            <dc:title>License: GPLv3</dc:title>
          </cc:Agent>
        </dc:rights>
        <dc:language>es-en</dc:language>
        <dc:subject>
          <rdf:Bag>
            <rdf:li>plane-icon-theme</rdf:li>
          </rdf:Bag>
        </dc:subject>
        <dc:description>Template for create set icons</dc:description>
        <cc:license rdf:resource="https://www.gnu.org/licenses/gpl-3.0.en.html"/>
      </cc:Work>
    </rdf:RDF>
  </metadata>
  <defs id="defs22">
    <linearGradient id="Pestana-sombra-3" osb:paint="solid">
      <stop style="stop-color:#000000;stop-opacity:0.19553073;" offset="0" id="stop8273"/>
    </linearGradient>
    <linearGradient id="Hoja-brillo-8" osb:paint="solid">
      <stop style="stop-color:#ffffff;stop-opacity:0.78212291;" offset="0" id="stop8267"/>
    </linearGradient>
    <linearGradient id="Hoja-sombra-2_-2" osb:paint="solid">
      <stop style="stop-color:#000000;stop-opacity:0;" offset="0" id="stop8261"/>
    </linearGradient>
    <linearGradient id="Hoja-sombra-1_-9" osb:paint="solid">
      <stop style="stop-color:#000000;stop-opacity:0.15686275;" offset="0" id="stop8255"/>
    </linearGradient>
    <linearGradient id="Pestana-6">
      <stop id="stop7875" offset="0" style="stop-color:#ffffff;stop-opacity:1;"/>
      <stop id="stop7879" offset="1" style="stop-color:#dfdfdf;stop-opacity:1;"/>
    </linearGradient>
    <linearGradient id="Hoja_-5">
      <stop id="stop7831" offset="0" style="stop-color:#f0f0f0;stop-opacity:1;"/>
      <stop id="stop7833" offset="1" style="stop-color:#ffffff;stop-opacity:1"/>
    </linearGradient>
    <linearGradient inkscape:collect="always" xlink:href="#Hoja_-5" id="linearGradient8848" gradientUnits="userSpaceOnUse" gradientTransform="matrix(2.1943448,0,0,2.19615,107.37835,109.17328)" x1="24.116938" y1="4.9307919" x2="24.058121" y2="42.556389"/>
    <linearGradient inkscape:collect="always" xlink:href="#Pestana-6" id="linearGradient8852" gradientUnits="userSpaceOnUse" gradientTransform="matrix(2.5078225,0,0,2.19615,97.006583,108.93197)" x1="33.093815" y1="10.50385" x2="29.903797" y2="14.146588"/>
    <linearGradient inkscape:collect="always" xlink:href="#Hoja_-5" id="linearGradient7823-7" gradientUnits="userSpaceOnUse" x1="24.116938" y1="4.9307919" x2="24.058121" y2="42.556389" gradientTransform="matrix(1.1194338,0,0,1.1203548,-2.9435792,-2.6942142)"/>
    <linearGradient inkscape:collect="always" xlink:href="#Hoja-sombra-2" id="linearGradient7865-3" gradientUnits="userSpaceOnUse" gradientTransform="matrix(1.1194338,0,0,1.1203548,-2.9435792,-2.6942142)" x1="26.072924" y1="18.962273" x2="34.373611" y2="10.815324"/>
    <linearGradient inkscape:collect="always" xlink:href="#Pestana-6" id="linearGradient7825-6" gradientUnits="userSpaceOnUse" x1="34.176132" y1="10.27618" x2="30.758255" y2="13.691247" gradientTransform="matrix(1.2793529,0,0,1.1203548,-8.2346867,-2.8173169)"/>
    <linearGradient inkscape:collect="always" xlink:href="#Hoja_-5" id="linearGradient7909" gradientUnits="userSpaceOnUse" gradientTransform="matrix(1.4628966,0,0,1.4641001,44.91893,46.115528)" x1="24.116938" y1="4.9307919" x2="24.058121" y2="42.556389"/>
    <linearGradient inkscape:collect="always" xlink:href="#Hoja-sombra-2" id="linearGradient7911" gradientUnits="userSpaceOnUse" gradientTransform="matrix(1.4628966,0,0,1.4641001,44.91893,46.115528)" x1="26.072924" y1="18.962273" x2="34.373611" y2="10.815324"/>
    <linearGradient inkscape:collect="always" xlink:href="#Pestana-6" id="linearGradient7913" gradientUnits="userSpaceOnUse" gradientTransform="matrix(1.6718818,0,0,1.4641001,38.00441,45.954658)" x1="34.176132" y1="10.27618" x2="30.758255" y2="13.691247"/>
    <linearGradient inkscape:collect="always" xlink:href="#Hoja-sombra-2" id="linearGradient8850-3" gradientUnits="userSpaceOnUse" gradientTransform="matrix(2.1943448,0,0,2.19615,107.37835,109.17328)" x1="23.980556" y1="23.143555" x2="45.854969" y2="1.2871252"/>
    <linearGradient inkscape:collect="always" xlink:href="#Hoja-sombra-2" id="linearGradient4621" gradientUnits="userSpaceOnUse" gradientTransform="matrix(2.1943448,0,0,2.19615,107.37835,109.17328)" x1="23.980556" y1="23.143555" x2="2.1061459" y2="44.999985"/>
    <linearGradient inkscape:collect="always" xlink:href="#Hoja-sombra-2" id="linearGradient8301" gradientUnits="userSpaceOnUse" gradientTransform="matrix(2.1943448,0,0,2.19615,107.37835,109.17328)" x1="23.980556" y1="23.143555" x2="45.854969" y2="44.999985"/>
    <linearGradient id="Hoja-sombra-2">
      <stop id="stop8303" offset="0" style="stop-color:#000000;stop-opacity:0"/>
      <stop id="stop8305" offset="1" style="stop-color:#000000;stop-opacity:0.03825137;"/>
    </linearGradient>
    <linearGradient inkscape:collect="always" xlink:href="#Hoja-sombra-2" id="linearGradient7895" gradientUnits="userSpaceOnUse" gradientTransform="matrix(2.1943448,0,0,2.19615,107.37835,109.17328)" x1="23.980556" y1="23.143555" x2="2.1061459" y2="1.2871252"/>
    <linearGradient inkscape:collect="always" xlink:href="#Hoja_-5" id="linearGradient7818" gradientUnits="userSpaceOnUse" gradientTransform="matrix(0.74628918,0,0,0.74690318,-33.962385,-33.796142)" x1="24.116938" y1="4.9307919" x2="24.058121" y2="42.556389"/>
    <linearGradient inkscape:collect="always" xlink:href="#Pestana-6" id="linearGradient7822" gradientUnits="userSpaceOnUse" gradientTransform="matrix(0.85290191,0,0,0.74690318,-37.489791,-33.878211)" x1="28.713491" y1="15.702977" x2="25.196087" y2="18.581003"/>
    <linearGradient inkscape:collect="always" xlink:href="#Hoja-sombra-1_-9" id="linearGradient8259" x1="125.99999" y1="161.5" x2="193.99999" y2="161.5" gradientUnits="userSpaceOnUse"/>
    <linearGradient inkscape:collect="always" xlink:href="#Hoja-sombra-2_-2" id="linearGradient8265" x1="125" y1="161.49999" x2="195" y2="161.49999" gradientUnits="userSpaceOnUse"/>
    <linearGradient inkscape:collect="always" xlink:href="#Hoja-brillo-8" id="linearGradient8271" x1="126.99999" y1="120.5" x2="168.99999" y2="120.5" gradientUnits="userSpaceOnUse"/>
    <linearGradient inkscape:collect="always" xlink:href="#Pestana-sombra-3" id="linearGradient8277" x1="165.99999" y1="133.47244" x2="192.99999" y2="133.47244" gradientUnits="userSpaceOnUse"/>
    <linearGradient gradientTransform="matrix(1.33333,0,0,1.33333,58.6672,56.167208)" inkscape:collect="always" xlink:href="#Hoja-sombra-2_-2" id="linearGradient8265-7" x1="125" y1="161.49998" x2="195" y2="161.49998" gradientUnits="userSpaceOnUse"/>
    <linearGradient gradientTransform="matrix(1.33333,0,0,1.33333,58.6672,56.167208)" inkscape:collect="always" xlink:href="#Hoja-sombra-1_-9" id="linearGradient8259-9" x1="125.99999" y1="161.5" x2="193.99998" y2="161.5" gradientUnits="userSpaceOnUse"/>
    <linearGradient inkscape:collect="always" xlink:href="#Hoja_-5" id="linearGradient8848-4" gradientUnits="userSpaceOnUse" gradientTransform="matrix(2.9257858,0,0,2.9281927,201.83798,201.73122)" x1="24.116938" y1="4.9307919" x2="24.058121" y2="42.556389"/>
    <linearGradient inkscape:collect="always" xlink:href="#Hoja-sombra-2" id="linearGradient8301-3" gradientUnits="userSpaceOnUse" gradientTransform="matrix(2.9257858,0,0,2.9281927,201.83798,201.73122)" x1="23.980556" y1="23.143555" x2="45.854969" y2="44.999985"/>
    <linearGradient inkscape:collect="always" xlink:href="#Hoja-sombra-2" id="linearGradient4621-0" gradientUnits="userSpaceOnUse" gradientTransform="matrix(2.9257858,0,0,2.9281927,201.83798,201.73122)" x1="23.980556" y1="23.143555" x2="2.1061459" y2="44.999985"/>
    <linearGradient inkscape:collect="always" xlink:href="#Hoja-sombra-2" id="linearGradient8850-3-8" gradientUnits="userSpaceOnUse" gradientTransform="matrix(2.9257858,0,0,2.9281927,201.83798,201.73122)" x1="23.980556" y1="23.143555" x2="45.854969" y2="1.2871252"/>
    <linearGradient inkscape:collect="always" xlink:href="#Hoja-sombra-2" id="linearGradient7895-1" gradientUnits="userSpaceOnUse" gradientTransform="matrix(2.9257858,0,0,2.9281927,201.83798,201.73122)" x1="23.980556" y1="23.143555" x2="2.1061459" y2="1.2871252"/>
    <linearGradient gradientTransform="matrix(1.33333,0,0,1.33333,58.6672,56.167208)" inkscape:collect="always" xlink:href="#Hoja-brillo-8" id="linearGradient8271-9" x1="126.99999" y1="120.5" x2="168.99998" y2="120.5" gradientUnits="userSpaceOnUse"/>
    <linearGradient gradientTransform="matrix(1.33333,0,0,1.33333,58.6672,56.167208)" inkscape:collect="always" xlink:href="#Pestana-sombra-3" id="linearGradient8277-7" x1="165.99998" y1="133.47244" x2="192.99998" y2="133.47244" gradientUnits="userSpaceOnUse"/>
    <linearGradient inkscape:collect="always" xlink:href="#Pestana-6" id="linearGradient8852-2" gradientUnits="userSpaceOnUse" gradientTransform="matrix(3.343755,0,0,2.9281927,188.00898,201.40947)" x1="33.093815" y1="10.50385" x2="29.903797" y2="14.146588"/>
    <linearGradient gradientTransform="matrix(0.33418093,0,0,0.34277768,-69.503435,-71.57129)" inkscape:collect="always" xlink:href="#patron-6" id="linearGradient9428-9" gradientUnits="userSpaceOnUse" x1="188" y1="173.49998" x2="189" y2="173.49998"/>
    <linearGradient id="patron-6" osb:paint="solid">
      <stop style="stop-color:#000000;stop-opacity:0.08379889;" offset="0" id="stop9305"/>
    </linearGradient>
    <linearGradient gradientTransform="matrix(0.5003165,0,0,0.50586389,-56.546906,-57.711743)" inkscape:collect="always" xlink:href="#patron-6" id="linearGradient9428-62" gradientUnits="userSpaceOnUse" x1="188" y1="173.49998" x2="189" y2="173.49998"/>
    <linearGradient gradientTransform="matrix(0.66742097,0,0,0.67482117,-26.771695,-27.999411)" inkscape:collect="always" xlink:href="#patron-6" id="linearGradient9428-62-7" gradientUnits="userSpaceOnUse" x1="188" y1="173.49998" x2="189" y2="173.49998"/>
    <linearGradient gradientTransform="matrix(0.99981922,0,0,1.0002963,0.01735681,-0.05481329)" inkscape:collect="always" xlink:href="#patron-6" id="linearGradient9428-62-2" gradientUnits="userSpaceOnUse" x1="188" y1="173.49998" x2="189" y2="173.49998"/>
    <linearGradient gradientTransform="matrix(1.3339076,0,0,1.3368226,58.573291,55.576961)" inkscape:collect="always" xlink:href="#patron-6" id="linearGradient9428-62-0" gradientUnits="userSpaceOnUse" x1="188" y1="173.49998" x2="189" y2="173.49998"/>
  </defs>
  <sodipodi:namedview pagecolor="#ffffff" bordercolor="#ffffff" borderopacity="0.62745098" objecttolerance="4" gridtolerance="10" guidetolerance="4" inkscape:pageopacity="0" inkscape:pageshadow="2" inkscape:window-width="640" inkscape:window-height="480" id="namedview20" showgrid="false" inkscape:zoom="16.386532" inkscape:cx="-46.065617" inkscape:cy="95.013787" inkscape:current-layer="layer8" inkscape:snap-smooth-nodes="false" showguides="true" borderlayer="true" inkscape:showpageshadow="false" inkscape:guide-bbox="true" guidecolor="#bd4fff" guideopacity="0.78431373" inkscape:snap-nodes="true" inkscape:lockguides="false" fit-margin-top="0" fit-margin-left="0" fit-margin-right="0" fit-margin-bottom="0" guidehicolor="#ff0101" guidehiopacity="0.78431373" inkscape:snap-page="true" inkscape:object-nodes="true" inkscape:snap-bbox="true" inkscape:snap-global="true" inkscape:snap-object-midpoints="false" inkscape:snap-bbox-edge-midpoints="false">
    <inkscape:grid type="xygrid" id="grid4171" empspacing="4" dotted="false" originx="2.7755576e-17" originy="0" spacingx="1" spacingy="1" color="#000000" opacity="0.05490196" empcolor="#5a5a5a" empopacity="0.16470588" visible="true"/>
    <inkscape:grid type="axonomgrid" id="grid4699" units="mm" empspacing="4" color="#5a5a5a" opacity="0.23529412" empcolor="#5a5a5a" empopacity="0.47058824" gridanglex="45" gridanglez="45" spacingy="3.7795276" visible="false" originx="1.3228346" originy="1.3228346"/>
    <sodipodi:guide position="48,0" orientation="1,0" id="guide4568" inkscape:locked="false" inkscape:label="" inkscape:color="rgb(189,79,255)"/>
    <sodipodi:guide position="111.99996,-3.9999999e-05" orientation="0,1" id="guide4570" inkscape:locked="false" inkscape:label="" inkscape:color="rgb(189,79,255)"/>
    <sodipodi:guide position="0,0" orientation="1,0" id="guide4572" inkscape:locked="false" inkscape:label="" inkscape:color="rgb(189,79,255)"/>
    <sodipodi:guide position="0,48" orientation="0,1" id="guide4574" inkscape:locked="false" inkscape:label="" inkscape:color="rgb(189,79,255)"/>
    <sodipodi:guide position="0,80" orientation="0,1" id="guide4576" inkscape:locked="false" inkscape:label="" inkscape:color="rgb(189,79,255)"/>
    <sodipodi:guide position="-32,48" orientation="1,0" id="guide4578" inkscape:locked="false" inkscape:label="" inkscape:color="rgb(189,79,255)"/>
    <sodipodi:guide position="-32,104" orientation="0,1" id="guide4580" inkscape:locked="false" inkscape:label="" inkscape:color="rgb(189,79,255)"/>
    <sodipodi:guide position="-56,80" orientation="1,0" id="guide4582" inkscape:locked="false" inkscape:label="" inkscape:color="rgb(189,79,255)"/>
    <sodipodi:guide position="48,-64" orientation="0,1" id="guide4584" inkscape:locked="false" inkscape:label="" inkscape:color="rgb(189,79,255)"/>
    <sodipodi:guide position="0,0" orientation="-0.70710678,0.70710678" id="guide4588" inkscape:locked="false" inkscape:label="" inkscape:color="rgb(189,79,255)"/>
    <sodipodi:guide position="-56,80" orientation="-0.70710678,0.70710678" id="guide4573" inkscape:locked="false" inkscape:label="" inkscape:color="rgb(189,79,255)"/>
    <sodipodi:guide position="-32,48" orientation="-0.70710678,0.70710678" id="guide4575" inkscape:locked="false" inkscape:label="" inkscape:color="rgb(189,79,255)"/>
    <sodipodi:guide position="48,-64" orientation="-0.70710678,0.70710678" id="guide4577" inkscape:locked="false" inkscape:label="" inkscape:color="rgb(189,79,255)"/>
    <sodipodi:guide position="47.999962,0" orientation="0.70710678,0.70710678" id="guide4697" inkscape:locked="false" inkscape:label="" inkscape:color="rgb(189,79,255)"/>
    <sodipodi:guide position="207.99995,-288" orientation="0,1" id="guide7833" inkscape:locked="false"/>
    <sodipodi:guide position="335.99994,-288" orientation="1,0" id="guide7835" inkscape:locked="false" inkscape:label="" inkscape:color="rgb(189,79,255)"/>
    <sodipodi:guide position="111.99996,-64" orientation="1,0" id="guide7915" inkscape:locked="false"/>
    <sodipodi:guide position="111.99996,-160" orientation="0,1" id="guide7917" inkscape:locked="false"/>
    <sodipodi:guide position="207.99996,-160" orientation="1,0" id="guide7919" inkscape:locked="false"/>
    <sodipodi:guide position="111.99996,-160" orientation="-0.70710678,0.70710678" id="guide7921" inkscape:locked="false" inkscape:label="" inkscape:color="rgb(189,79,255)"/>
    <sodipodi:guide position="207.99996,-288" orientation="-0.70710678,0.70710678" id="guide7923" inkscape:locked="false" inkscape:label="" inkscape:color="rgb(189,79,255)"/>
    <sodipodi:guide position="-72,104" orientation="1,0" id="guide7824" inkscape:locked="false"/>
    <sodipodi:guide position="-56,120" orientation="0,1" id="guide7826" inkscape:locked="false"/>
    <sodipodi:guide position="-72,104" orientation="-0.70710678,0.70710678" id="guide7828" inkscape:locked="false" inkscape:label="" inkscape:color="rgb(189,79,255)"/>
  </sodipodi:namedview>
  <g inkscape:groupmode="layer" id="layer4" inkscape:label="icon_128" style="display:inline" transform="translate(-207.99995,-208)">
    <g inkscape:groupmode="layer" id="layer11" inkscape:label="frame" style="display:none">
      <rect inkscape:label="frame_128" y="208" x="207.99995" height="128" width="128" id="frame_128" style="color:#000000;clip-rule:nonzero;display:inline;overflow:visible;visibility:visible;opacity:1;isolation:auto;mix-blend-mode:normal;color-interpolation:sRGB;color-interpolation-filters:linearRGB;solid-color:#000000;solid-opacity:1;vector-effect:none;fill:#000000;fill-opacity:1;fill-rule:nonzero;stroke:#ff24f7;stroke-width:0;stroke-linecap:square;stroke-linejoin:miter;stroke-miterlimit:4;stroke-dasharray:none;stroke-dashoffset:0;stroke-opacity:0.99481865;marker:none;marker-start:none;marker-mid:none;marker-end:none;paint-order:normal;color-rendering:auto;image-rendering:auto;shape-rendering:auto;text-rendering:auto;enable-background:accumulate"/>
      <text xml:space="preserve" style="font-size:38.46457672px;line-height:0%;font-family:sans-serif;letter-spacing:0px;word-spacing:0px;display:inline;opacity:1;fill:#ffffff;fill-opacity:1;stroke:none;stroke-width:0.07881754px;stroke-linecap:butt;stroke-linejoin:miter;stroke-opacity:1" x="236.17479" y="283.34512" id="txt_128" inkscape:label="txt_128">
        <tspan sodipodi:role="line" x="236.17479" y="283.34512" style="font-size:38.46457672px;line-height:0%;fill:#ffffff;fill-opacity:1;stroke:none;stroke-width:0.07881754px" id="tspan5069-6">128</tspan>
      </text>
      <text xml:space="preserve" style="font-size:7.43228436px;line-height:1000%;font-family:sans-serif;letter-spacing:0px;word-spacing:0px;display:inline;opacity:1;fill:#ffffff;fill-opacity:0.42156863;stroke:none;stroke-width:0.16398695px;stroke-linecap:butt;stroke-linejoin:miter;stroke-opacity:1" x="265.97781" y="330.1329" id="txt_scalable_64_512" inkscape:label="txt_scalable_64_512">
        <tspan sodipodi:role="line" x="265.97781" y="330.1329" style="font-size:8.08990479px;fill:#ffffff;fill-opacity:0.42156863;stroke:none;stroke-width:0.16398695px" id="tspan5049-1-6-6">Scalable:96-512</tspan>
      </text>
    </g>
    <g inkscape:groupmode="layer" id="layer12" inkscape:label="icon" style="display:inline">
      <path inkscape:label="Hoja sombra 2" sodipodi:nodetypes="cccccc" inkscape:connector-curvature="0" id="path4587-4" d="m 226,214 h 58 l 34,34 v 81 h -92 z" style="color:#000000;clip-rule:nonzero;display:inline;overflow:visible;visibility:visible;opacity:1;isolation:auto;mix-blend-mode:normal;color-interpolation:sRGB;color-interpolation-filters:linearRGB;solid-color:#000000;solid-opacity:1;vector-effect:none;fill:url(#linearGradient8265-7);fill-opacity:1;fill-rule:nonzero;stroke:none;stroke-width:1.17154503;stroke-linecap:butt;stroke-linejoin:miter;stroke-miterlimit:4;stroke-dasharray:none;stroke-dashoffset:0;stroke-opacity:1;marker:none;marker-start:none;marker-mid:none;marker-end:none;paint-order:fill markers stroke;color-rendering:auto;image-rendering:auto;shape-rendering:auto;text-rendering:auto;enable-background:accumulate"/>
      <path style="color:#000000;clip-rule:nonzero;display:inline;overflow:visible;visibility:visible;opacity:1;isolation:auto;mix-blend-mode:normal;color-interpolation:sRGB;color-interpolation-filters:linearRGB;solid-color:#000000;solid-opacity:1;vector-effect:none;fill:url(#linearGradient8259-9);fill-opacity:1;fill-rule:nonzero;stroke:none;stroke-width:1.13587642;stroke-linecap:butt;stroke-linejoin:miter;stroke-miterlimit:4;stroke-dasharray:none;stroke-dashoffset:0;stroke-opacity:1;marker:none;marker-start:none;marker-mid:none;marker-end:none;paint-order:fill markers stroke;color-rendering:auto;image-rendering:auto;shape-rendering:auto;text-rendering:auto;enable-background:accumulate" d="m 227,215 h 57 l 33,33 v 80 h -90 z" id="path8778-9" inkscape:connector-curvature="0" sodipodi:nodetypes="cccccc" inkscape:label="Hoja sombra 1"/>
      <path inkscape:label="Hoja" sodipodi:nodetypes="cccccc" inkscape:connector-curvature="0" id="path8780-0" d="m 228,216 h 56 l 32,32 c 3.4e-4,26.22216 0,79 0,79 h -88 c -6e-5,-36.8888 -2e-5,-74.1112 0,-111 z" style="color:#000000;clip-rule:nonzero;display:inline;overflow:visible;visibility:visible;opacity:1;isolation:auto;mix-blend-mode:normal;color-interpolation:sRGB;color-interpolation-filters:linearRGB;solid-color:#000000;solid-opacity:1;vector-effect:none;fill:url(#linearGradient8848-4);fill-opacity:1;fill-rule:nonzero;stroke:none;stroke-width:1.10494101;stroke-linecap:butt;stroke-linejoin:miter;stroke-miterlimit:4;stroke-dasharray:none;stroke-dashoffset:0;stroke-opacity:1;marker:none;marker-start:none;marker-mid:none;marker-end:none;paint-order:fill markers stroke;color-rendering:auto;image-rendering:auto;shape-rendering:auto;text-rendering:auto;enable-background:accumulate"/>
      <path style="color:#000000;clip-rule:nonzero;display:inline;overflow:visible;visibility:visible;opacity:1;isolation:auto;mix-blend-mode:normal;color-interpolation:sRGB;color-interpolation-filters:linearRGB;solid-color:#000000;solid-opacity:1;vector-effect:none;fill:url(#linearGradient8301-3);fill-opacity:1;fill-rule:nonzero;stroke:none;stroke-width:1.10494101;stroke-linecap:butt;stroke-linejoin:miter;stroke-miterlimit:4;stroke-dasharray:none;stroke-dashoffset:0;stroke-opacity:1;marker:none;marker-start:none;marker-mid:none;marker-end:none;paint-order:fill markers stroke;color-rendering:auto;image-rendering:auto;shape-rendering:auto;text-rendering:auto;enable-background:accumulate" d="m 228,216 h 56 l 32,32 c 3.4e-4,26.22216 -5.2e-4,52.77784 0,79 h -88 z" id="path8299-2" inkscape:connector-curvature="0" sodipodi:nodetypes="cccccc" inkscape:label="Hoja sombra inferior derecha"/>
      <path inkscape:label="Hoja sombra inferior izquierda" sodipodi:nodetypes="cccccc" inkscape:connector-curvature="0" id="path4619-0" d="m 228,216 h 56 l 32,32 c 3.4e-4,26.22216 -5.2e-4,52.77784 0,79 h -88 z" style="color:#000000;clip-rule:nonzero;display:inline;overflow:visible;visibility:visible;opacity:1;isolation:auto;mix-blend-mode:normal;color-interpolation:sRGB;color-interpolation-filters:linearRGB;solid-color:#000000;solid-opacity:1;vector-effect:none;fill:url(#linearGradient4621-0);fill-opacity:1;fill-rule:nonzero;stroke:none;stroke-width:1.10494101;stroke-linecap:butt;stroke-linejoin:miter;stroke-miterlimit:4;stroke-dasharray:none;stroke-dashoffset:0;stroke-opacity:1;marker:none;marker-start:none;marker-mid:none;marker-end:none;paint-order:fill markers stroke;color-rendering:auto;image-rendering:auto;shape-rendering:auto;text-rendering:auto;enable-background:accumulate"/>
      <path style="color:#000000;clip-rule:nonzero;display:inline;overflow:visible;visibility:visible;opacity:1;isolation:auto;mix-blend-mode:normal;color-interpolation:sRGB;color-interpolation-filters:linearRGB;solid-color:#000000;solid-opacity:1;vector-effect:none;fill:url(#linearGradient8850-3-8);fill-opacity:1;fill-rule:nonzero;stroke:none;stroke-width:1.10494101;stroke-linecap:butt;stroke-linejoin:miter;stroke-miterlimit:4;stroke-dasharray:none;stroke-dashoffset:0;stroke-opacity:1;marker:none;marker-start:none;marker-mid:none;marker-end:none;paint-order:fill markers stroke;color-rendering:auto;image-rendering:auto;shape-rendering:auto;text-rendering:auto;enable-background:accumulate" d="m 228,216 h 56 l 32,32 c 3.4e-4,26.22216 -5.2e-4,52.77784 0,79 h -88 z" id="path8782-6-1" inkscape:connector-curvature="0" sodipodi:nodetypes="cccccc" inkscape:label="Hoja sombra superior derecha"/>
      <path inkscape:label="Hoja sombra superior izquierda" sodipodi:nodetypes="cccccc" inkscape:connector-curvature="0" id="path7893-9" d="m 228,216 h 56 l 32,32 c 3.4e-4,26.22216 -5.2e-4,52.77784 0,79 h -88 z" style="color:#000000;clip-rule:nonzero;display:inline;overflow:visible;visibility:visible;opacity:1;isolation:auto;mix-blend-mode:normal;color-interpolation:sRGB;color-interpolation-filters:linearRGB;solid-color:#000000;solid-opacity:1;vector-effect:none;fill:url(#linearGradient7895-1);fill-opacity:1;fill-rule:nonzero;stroke:none;stroke-width:1.10494101;stroke-linecap:butt;stroke-linejoin:miter;stroke-miterlimit:4;stroke-dasharray:none;stroke-dashoffset:0;stroke-opacity:1;marker:none;marker-start:none;marker-mid:none;marker-end:none;paint-order:fill markers stroke;color-rendering:auto;image-rendering:auto;shape-rendering:auto;text-rendering:auto;enable-background:accumulate"/>
      <path style="color:#000000;clip-rule:nonzero;display:block;overflow:visible;visibility:visible;opacity:1;isolation:auto;mix-blend-mode:normal;color-interpolation:sRGB;color-interpolation-filters:linearRGB;solid-color:#000000;solid-opacity:1;vector-effect:none;fill:url(#linearGradient8271-9);fill-opacity:1;fill-rule:nonzero;stroke:none;stroke-width:0.266666;stroke-linecap:butt;stroke-linejoin:miter;stroke-miterlimit:4;stroke-dasharray:none;stroke-dashoffset:0;stroke-opacity:1;marker:none;marker-start:none;marker-mid:none;marker-end:none;paint-order:fill markers stroke;color-rendering:auto;image-rendering:auto;shape-rendering:auto;text-rendering:auto;enable-background:accumulate" d="m 228,216 h 56 v 1 h -56 z" id="rect7891-6" inkscape:connector-curvature="0" sodipodi:nodetypes="ccccc" inkscape:label="Hoja brillo superior"/>
      <path inkscape:label="Pestaña sombra" style="display:inline;fill:url(#linearGradient8277-7);fill-opacity:1;fill-rule:evenodd;stroke:none;stroke-width:2.92698884px;stroke-linecap:butt;stroke-linejoin:miter;stroke-opacity:1" d="m 284,216 32,32 -36,4 z" id="path8834-2" inkscape:connector-curvature="0" sodipodi:nodetypes="cccc"/>
      <path inkscape:label="Pestaña" sodipodi:nodetypes="cccc" inkscape:connector-curvature="0" id="path8836-1" d="m 284,216 32,32 h -32 z" style="display:inline;fill:url(#linearGradient8852-2);fill-opacity:1;fill-rule:evenodd;stroke:none;stroke-width:3.12908292px;stroke-linecap:butt;stroke-linejoin:miter;stroke-opacity:1"/>
      <path style="color:#000000;clip-rule:nonzero;display:inline;overflow:visible;visibility:visible;opacity:0.4;isolation:auto;mix-blend-mode:normal;color-interpolation:sRGB;color-interpolation-filters:linearRGB;solid-color:#000000;solid-opacity:1;vector-effect:none;fill:url(#linearGradient9428-62-0);fill-opacity:1;fill-rule:nonzero;stroke:none;stroke-width:1.12204087;stroke-linecap:butt;stroke-linejoin:miter;stroke-miterlimit:4;stroke-dasharray:none;stroke-dashoffset:0;stroke-opacity:0.34375;marker:none;marker-start:none;marker-mid:none;marker-end:none;paint-order:fill markers stroke;color-rendering:auto;image-rendering:auto;shape-rendering:auto;text-rendering:auto;enable-background:accumulate" d="m 229.31347,215.99567 v 4.01046 h -1.3339 v 1.33685 h 1.3339 v 4.01046 h -1.3339 v 1.33682 h 1.3339 v 4.01048 h -1.3339 v 1.33682 h 1.3339 v 4.01045 h -1.3339 v 1.33684 h 1.3339 v 4.01048 h -1.3339 v 1.3368 h 1.3339 v 4.01047 h -1.3339 v 1.33684 h 1.3339 v 4.01046 h -1.3339 v 1.33681 h 1.3339 v 4.01045 h -1.3339 v 1.33684 h 1.3339 v 4.01048 h -1.3339 v 1.3368 h 1.3339 v 4.01049 h -1.3339 v 1.33682 h 1.3339 v 4.01046 h -1.3339 v 1.33683 h 1.3339 v 4.01047 h -1.3339 v 1.33681 h 1.3339 v 4.01048 h -1.3339 v 1.33683 h 1.3339 v 4.01046 h -1.3339 v 1.33682 h 1.3339 v 4.01046 h -1.3339 v 1.33683 h 1.3339 v 4.01047 h -1.3339 v 1.33681 h 1.3339 v 4.0105 h -1.3339 v 1.33681 h 1.3339 v 4.01046 h -1.3339 v 1.33684 h 1.3339 v 4.01046 h -1.3339 v 1.33681 h 1.3339 v 4.01047 h -1.3339 v 1.33685 h 1.3339 v 4.01046 h 1.3339 v -4.01046 h 4.00174 v 4.01046 h 1.33388 v -4.01046 h 4.00173 v 4.01046 h 1.33392 v -4.01046 h 4.00172 v 4.01046 h 1.33392 v -4.01046 h 4.00172 v 4.01046 h 1.33389 v -4.01046 h 4.00173 v 4.01046 h 1.33392 v -4.01046 h 4.00171 v 4.01046 h 1.3339 v -4.01046 h 4.00171 v 4.01046 h 1.33394 v -4.01046 h 4.00171 v 4.01046 h 1.33392 v -4.01046 h 4.00173 v 4.01046 h 1.33388 v -4.01046 h 4.00172 v 4.01046 h 1.33391 v -4.01046 h 4.00174 v 4.01046 h 1.33389 v -4.01046 h 4.00172 v 4.01046 h 1.33392 v -4.01046 h 4.00171 v 3.88511 h 1.33393 v -3.88511 h 4.00172 v 4.01046 h 1.33389 v -4.01046 h 4.00172 v 4.01046 h 1.33393 v -4.01046 h 5.33562 v -1.33685 h -5.33562 v -4.01047 h 5.33562 v -1.33681 h -5.33562 v -4.01046 h 5.33562 v -1.33684 h -5.33562 v -4.01046 h 5.33562 v -1.33681 h -5.33562 v -4.0105 h 5.33562 v -1.33681 h -5.33562 v -4.01047 h 5.33562 v -1.33683 h -5.33562 v -4.01046 h 5.33562 v -1.33682 h -5.33562 v -4.01046 h 5.33562 v -1.33683 h -5.33562 v -4.01048 h 5.33562 v -1.33681 h -5.33562 v -4.01047 h 5.33562 v -1.33683 h -5.33562 v -4.01046 h 5.33562 v -1.33682 h -5.33562 v -4.01049 h 5.33562 v -1.3368 h -5.33562 V 258.774 h 5.33562 v -1.33684 h -5.33562 v -4.01045 h 5.33562 v -1.33681 h -5.33562 v -4.01046 h -1.33393 v 4.01046 h -4.00172 v -4.01046 h -1.33389 v 4.01046 h -4.00172 v -4.1358 h -1.33393 v 4.1358 h -4.00171 v -4.01046 h -1.33392 v 4.01046 h -4.00172 v -4.01046 h -1.33389 v 4.01046 h -4.00174 v -36.09423 h -1.33391 v 4.01046 h -4.00172 v -4.01046 h -1.33388 v 4.01046 h -4.00173 v -4.01046 h -1.33392 v 4.01046 h -4.00171 v -4.01046 h -1.33394 v 4.01046 h -4.00171 v -4.01046 h -1.3339 v 4.01046 h -4.00171 v -4.01046 h -1.33392 v 4.01046 h -4.00173 v -4.01046 H 250.656 v 4.01046 h -4.00172 v -4.01046 h -1.33392 v 4.01046 h -4.00172 v -4.01046 h -1.33392 v 4.01046 h -4.00173 v -4.01046 h -1.33388 v 4.01046 h -4.00174 v -4.01046 z m 1.3339,5.34731 h 4.00174 v 4.01046 h -4.00174 z m 5.33562,0 h 4.00173 v 4.01046 h -4.00173 z m 5.33565,0 h 4.00172 v 4.01046 h -4.00172 z m 5.33564,0 h 4.00172 v 4.01046 h -4.00172 z m 5.33561,0 h 4.00173 v 4.01046 h -4.00173 z m 5.33565,0 h 4.00171 v 4.01046 h -4.00171 z m 5.33561,0 h 4.00171 v 4.01046 h -4.00171 z m 5.33565,0 h 4.00171 v 4.01046 h -4.00171 z m 5.33563,0 h 4.00173 v 4.01046 h -4.00173 z m 5.33561,0 h 4.00172 v 4.01046 h -4.00172 z m -48.02067,5.34728 h 4.00174 v 4.01048 h -4.00174 z m 5.33562,0 h 4.00173 v 4.01048 h -4.00173 z m 5.33565,0 h 4.00172 v 4.01048 h -4.00172 z m 5.33564,0 h 4.00172 v 4.01048 h -4.00172 z m 5.33561,0 h 4.00173 v 4.01048 h -4.00173 z m 5.33565,0 h 4.00171 v 4.01048 h -4.00171 z m 5.33561,0 h 4.00171 v 4.01048 h -4.00171 z m 5.33565,0 h 4.00171 v 4.01048 h -4.00171 z m 5.33563,0 h 4.00173 v 4.01048 h -4.00173 z m 5.33561,0 h 4.00172 v 4.01048 h -4.00172 z m -48.02067,5.3473 h 4.00174 v 4.01045 h -4.00174 z m 5.33562,0 h 4.00173 v 4.01045 h -4.00173 z m 5.33565,0 h 4.00172 v 4.01045 h -4.00172 z m 5.33564,0 h 4.00172 v 4.01045 h -4.00172 z m 5.33561,0 h 4.00173 v 4.01045 h -4.00173 z m 5.33565,0 h 4.00171 v 4.01045 h -4.00171 z m 5.33561,0 h 4.00171 v 4.01045 h -4.00171 z m 5.33565,0 h 4.00171 v 4.01045 h -4.00171 z m 5.33563,0 h 4.00173 v 4.01045 h -4.00173 z m 5.33561,0 h 4.00172 v 4.01045 h -4.00172 z m -48.02067,5.34729 h 4.00174 v 4.01048 h -4.00174 z m 5.33562,0 h 4.00173 v 4.01048 h -4.00173 z m 5.33565,0 h 4.00172 v 4.01048 h -4.00172 z m 5.33564,0 h 4.00172 v 4.01048 h -4.00172 z m 5.33561,0 h 4.00173 v 4.01048 h -4.00173 z m 5.33565,0 h 4.00171 v 4.01048 h -4.00171 z m 5.33561,0 h 4.00171 v 4.01048 h -4.00171 z m 5.33565,0 h 4.00171 v 4.01048 h -4.00171 z m 5.33563,0 h 4.00173 v 4.01048 h -4.00173 z m 5.33561,0 h 4.00172 v 4.01048 h -4.00172 z m -48.02067,5.34728 h 4.00174 v 4.01047 h -4.00174 z m 5.33562,0 h 4.00173 v 4.01047 h -4.00173 z m 5.33565,0 h 4.00172 v 4.01047 h -4.00172 z m 5.33564,0 h 4.00172 v 4.01047 h -4.00172 z m 5.33561,0 h 4.00173 v 4.01047 h -4.00173 z m 5.33565,0 h 4.00171 v 4.01047 h -4.00171 z m 5.33561,0 h 4.00171 v 4.01047 h -4.00171 z m 5.33565,0 h 4.00171 v 4.01047 h -4.00171 z m 5.33563,0 h 4.00173 v 4.01047 h -4.00173 z m 5.33561,0 h 4.00172 v 4.01047 h -4.00172 z m -48.02067,5.34731 h 4.00174 v 4.01046 h -4.00174 z m 5.33562,0 h 4.00173 v 4.01046 h -4.00173 z m 5.33565,0 h 4.00172 v 4.01046 h -4.00172 z m 5.33564,0 h 4.00172 v 4.01046 h -4.00172 z m 5.33561,0 h 4.00173 v 4.01046 h -4.00173 z m 5.33565,0 h 4.00171 v 4.01046 h -4.00171 z m 5.33561,0 h 4.00171 v 4.01046 h -4.00171 z m 5.33565,0 h 4.00171 v 4.01046 h -4.00171 z m 5.33563,0 h 4.00173 v 4.01046 h -4.00173 z m 5.33561,0 h 4.00172 v 4.01046 h -4.00172 z m -48.02067,5.34727 h 4.00174 v 4.01045 h -4.00174 z m 5.33562,0 h 4.00173 v 4.01045 h -4.00173 z m 5.33565,0 h 4.00172 v 4.01045 h -4.00172 z m 5.33564,0 h 4.00172 v 4.01045 h -4.00172 z m 5.33561,0 h 4.00173 v 4.01045 h -4.00173 z m 5.33565,0 h 4.00171 v 4.01045 h -4.00171 z m 5.33561,0 h 4.00171 v 4.01045 h -4.00171 z m 5.33565,0 h 4.00171 v 4.01045 h -4.00171 z m 5.33563,0 h 4.00173 v 4.01045 h -4.00173 z m 5.33561,0 h 4.00172 v 4.01045 h -4.00172 z m 5.33563,0 h 4.00174 v 4.01045 h -4.00174 z m 5.33563,0 h 4.00172 v 4.01045 h -4.00172 z m 5.33564,0 h 4.00171 v 4.01045 h -4.00171 z m 5.33564,0 h 4.00172 v 4.01045 h -4.00172 z m 5.33561,0 h 4.00172 v 4.01045 h -4.00172 z m -74.69882,5.34729 h 4.00174 v 4.01048 h -4.00174 z m 5.33562,0 h 4.00173 v 4.01048 h -4.00173 z m 5.33565,0 h 4.00172 v 4.01048 h -4.00172 z m 5.33564,0 h 4.00172 v 4.01048 h -4.00172 z m 5.33561,0 h 4.00173 v 4.01048 h -4.00173 z m 5.33565,0 h 4.00171 v 4.01048 h -4.00171 z m 5.33561,0 h 4.00171 v 4.01048 h -4.00171 z m 5.33565,0 h 4.00171 v 4.01048 h -4.00171 z m 5.33563,0 h 4.00173 v 4.01048 h -4.00173 z m 5.33561,0 h 4.00172 v 4.01048 h -4.00172 z m 5.33563,0 h 4.00174 v 4.01048 h -4.00174 z m 5.33563,0 h 4.00172 v 4.01048 h -4.00172 z m 5.33564,0 h 4.00171 v 4.01048 h -4.00171 z m 5.33564,0 h 4.00172 v 4.01048 h -4.00172 z m 5.33561,0 h 4.00172 v 4.01048 h -4.00172 z m -74.69882,5.34728 h 4.00174 v 4.01049 h -4.00174 z m 5.33562,0 h 4.00173 v 4.01049 h -4.00173 z m 5.33565,0 h 4.00172 v 4.01049 h -4.00172 z m 5.33564,0 h 4.00172 v 4.01049 h -4.00172 z m 5.33561,0 h 4.00173 v 4.01049 h -4.00173 z m 5.33565,0 h 4.00171 v 4.01049 h -4.00171 z m 5.33561,0 h 4.00171 v 4.01049 h -4.00171 z m 5.33565,0 h 4.00171 v 4.01049 h -4.00171 z m 5.33563,0 h 4.00173 v 4.01049 h -4.00173 z m 5.33561,0 h 4.00172 v 4.01049 h -4.00172 z m 5.33563,0 h 4.00174 v 4.01049 h -4.00174 z m 5.33563,0 h 4.00172 v 4.01049 h -4.00172 z m 5.33564,0 h 4.00171 v 4.01049 h -4.00171 z m 5.33564,0 h 4.00172 v 4.01049 h -4.00172 z m 5.33561,0 h 4.00172 v 4.01049 h -4.00172 z m -74.69882,5.34731 h 4.00174 v 4.01046 h -4.00174 z m 5.33562,0 h 4.00173 v 4.01046 h -4.00173 z m 5.33565,0 h 4.00172 v 4.01046 h -4.00172 z m 5.33564,0 h 4.00172 v 4.01046 h -4.00172 z m 5.33561,0 h 4.00173 v 4.01046 h -4.00173 z m 5.33565,0 h 4.00171 v 4.01046 h -4.00171 z m 5.33561,0 h 4.00171 v 4.01046 h -4.00171 z m 5.33565,0 h 4.00171 v 4.01046 h -4.00171 z m 5.33563,0 h 4.00173 v 4.01046 h -4.00173 z m 5.33561,0 h 4.00172 v 4.01046 h -4.00172 z m 5.33563,0 h 4.00174 v 4.01046 h -4.00174 z m 5.33563,0 h 4.00172 v 4.01046 h -4.00172 z m 5.33564,0 h 4.00171 v 4.01046 h -4.00171 z m 5.33564,0 h 4.00172 v 4.01046 h -4.00172 z m 5.33561,0 h 4.00172 v 4.01046 h -4.00172 z m -74.69882,5.34729 h 4.00174 v 4.01047 h -4.00174 z m 5.33562,0 h 4.00173 v 4.01047 h -4.00173 z m 5.33565,0 h 4.00172 v 4.01047 h -4.00172 z m 5.33564,0 h 4.00172 v 4.01047 h -4.00172 z m 5.33561,0 h 4.00173 v 4.01047 h -4.00173 z m 5.33565,0 h 4.00171 v 4.01047 h -4.00171 z m 5.33561,0 h 4.00171 v 4.01047 h -4.00171 z m 5.33565,0 h 4.00171 v 4.01047 h -4.00171 z m 5.33563,0 h 4.00173 v 4.01047 h -4.00173 z m 5.33561,0 h 4.00172 v 4.01047 h -4.00172 z m 5.33563,0 h 4.00174 v 4.01047 h -4.00174 z m 5.33563,0 h 4.00172 v 4.01047 h -4.00172 z m 5.33564,0 h 4.00171 v 4.01047 h -4.00171 z m 5.33564,0 h 4.00172 v 4.01047 h -4.00172 z m 5.33561,0 h 4.00172 v 4.01047 h -4.00172 z m -74.69882,5.34728 h 4.00174 v 4.01048 h -4.00174 z m 5.33562,0 h 4.00173 v 4.01048 h -4.00173 z m 5.33565,0 h 4.00172 v 4.01048 h -4.00172 z m 5.33564,0 h 4.00172 v 4.01048 h -4.00172 z m 5.33561,0 h 4.00173 v 4.01048 h -4.00173 z m 5.33565,0 h 4.00171 v 4.01048 h -4.00171 z m 5.33561,0 h 4.00171 v 4.01048 h -4.00171 z m 5.33565,0 h 4.00171 v 4.01048 h -4.00171 z m 5.33563,0 h 4.00173 v 4.01048 h -4.00173 z m 5.33561,0 h 4.00172 v 4.01048 h -4.00172 z m 5.33563,0 h 4.00174 v 4.01048 h -4.00174 z m 5.33563,0 h 4.00172 v 4.01048 h -4.00172 z m 5.33564,0 h 4.00171 v 4.01048 h -4.00171 z m 5.33564,0 h 4.00172 v 4.01048 h -4.00172 z m 5.33561,0 h 4.00172 v 4.01048 h -4.00172 z m -74.69882,5.34731 h 4.00174 v 4.01046 h -4.00174 z m 5.33562,0 h 4.00173 v 4.01046 h -4.00173 z m 5.33565,0 h 4.00172 v 4.01046 h -4.00172 z m 5.33564,0 h 4.00172 v 4.01046 h -4.00172 z m 5.33561,0 h 4.00173 v 4.01046 h -4.00173 z m 5.33565,0 h 4.00171 v 4.01046 h -4.00171 z m 5.33561,0 h 4.00171 v 4.01046 h -4.00171 z m 5.33565,0 h 4.00171 v 4.01046 h -4.00171 z m 5.33563,0 h 4.00173 v 4.01046 h -4.00173 z m 5.33561,0 h 4.00172 v 4.01046 h -4.00172 z m 5.33563,0 h 4.00174 v 4.01046 h -4.00174 z m 5.33563,0 h 4.00172 v 4.01046 h -4.00172 z m 5.33564,0 h 4.00171 v 4.01046 h -4.00171 z m 5.33564,0 h 4.00172 v 4.01046 h -4.00172 z m 5.33561,0 h 4.00172 v 4.01046 h -4.00172 z m -74.69882,5.34728 h 4.00174 v 4.01046 h -4.00174 z m 5.33562,0 h 4.00173 v 4.01046 h -4.00173 z m 5.33565,0 h 4.00172 v 4.01046 h -4.00172 z m 5.33564,0 h 4.00172 v 4.01046 h -4.00172 z m 5.33561,0 h 4.00173 v 4.01046 h -4.00173 z m 5.33565,0 h 4.00171 v 4.01046 h -4.00171 z m 5.33561,0 h 4.00171 v 4.01046 h -4.00171 z m 5.33565,0 h 4.00171 v 4.01046 h -4.00171 z m 5.33563,0 h 4.00173 v 4.01046 h -4.00173 z m 5.33561,0 h 4.00172 v 4.01046 h -4.00172 z m 5.33563,0 h 4.00174 v 4.01046 h -4.00174 z m 5.33563,0 h 4.00172 v 4.01046 h -4.00172 z m 5.33564,0 h 4.00171 v 4.01046 h -4.00171 z m 5.33564,0 h 4.00172 v 4.01046 h -4.00172 z m 5.33561,0 h 4.00172 v 4.01046 h -4.00172 z m -74.69882,5.34729 h 4.00174 v 4.01047 h -4.00174 z m 5.33562,0 h 4.00173 v 4.01047 h -4.00173 z m 5.33565,0 h 4.00172 v 4.01047 h -4.00172 z m 5.33564,0 h 4.00172 v 4.01047 h -4.00172 z m 5.33561,0 h 4.00173 v 4.01047 h -4.00173 z m 5.33565,0 h 4.00171 v 4.01047 h -4.00171 z m 5.33561,0 h 4.00171 v 4.01047 h -4.00171 z m 5.33565,0 h 4.00171 v 4.01047 h -4.00171 z m 5.33563,0 h 4.00173 v 4.01047 h -4.00173 z m 5.33561,0 h 4.00172 v 4.01047 h -4.00172 z m 5.33563,0 h 4.00174 v 4.01047 h -4.00174 z m 5.33563,0 h 4.00172 v 4.01047 h -4.00172 z m 5.33564,0 h 4.00171 v 4.01047 h -4.00171 z m 5.33564,0 h 4.00172 v 4.01047 h -4.00172 z m 5.33561,0 h 4.00172 v 4.01047 h -4.00172 z m -74.69882,5.34728 h 4.00174 v 4.0105 h -4.00174 z m 5.33562,0 h 4.00173 v 4.0105 h -4.00173 z m 5.33565,0 h 4.00172 v 4.0105 h -4.00172 z m 5.33564,0 h 4.00172 v 4.0105 h -4.00172 z m 5.33561,0 h 4.00173 v 4.0105 h -4.00173 z m 5.33565,0 h 4.00171 v 4.0105 h -4.00171 z m 5.33561,0 h 4.00171 v 4.0105 h -4.00171 z m 5.33565,0 h 4.00171 v 4.0105 h -4.00171 z m 5.33563,0 h 4.00173 v 4.0105 h -4.00173 z m 5.33561,0 h 4.00172 v 4.0105 h -4.00172 z m 5.33563,0 h 4.00174 v 4.0105 h -4.00174 z m 5.33563,0 h 4.00172 v 4.0105 h -4.00172 z m 5.33564,0 h 4.00171 v 4.0105 h -4.00171 z m 5.33564,0 h 4.00172 v 4.0105 h -4.00172 z m 5.33561,0 h 4.00172 v 4.0105 h -4.00172 z m -74.69882,5.34731 h 4.00174 v 4.01046 h -4.00174 z m 5.33562,0 h 4.00173 v 4.01046 h -4.00173 z m 5.33565,0 h 4.00172 v 4.01046 h -4.00172 z m 5.33564,0 h 4.00172 v 4.01046 h -4.00172 z m 5.33561,0 h 4.00173 v 4.01046 h -4.00173 z m 5.33565,0 h 4.00171 v 4.01046 h -4.00171 z m 5.33561,0 h 4.00171 v 4.01046 h -4.00171 z m 5.33565,0 h 4.00171 v 4.01046 h -4.00171 z m 5.33563,0 h 4.00173 v 4.01046 h -4.00173 z m 5.33561,0 h 4.00172 v 4.01046 h -4.00172 z m 5.33563,0 h 4.00174 v 4.01046 h -4.00174 z m 5.33563,0 h 4.00172 v 4.01046 h -4.00172 z m 5.33564,0 h 4.00171 v 4.01046 h -4.00171 z m 5.33564,0 h 4.00172 v 4.01046 h -4.00172 z m 5.33561,0 h 4.00172 v 4.01046 h -4.00172 z m -74.69882,5.3473 h 4.00174 v 4.01046 h -4.00174 z m 5.33562,0 h 4.00173 v 4.01046 h -4.00173 z m 5.33565,0 h 4.00172 v 4.01046 h -4.00172 z m 5.33564,0 h 4.00172 v 4.01046 h -4.00172 z m 5.33561,0 h 4.00173 v 4.01046 h -4.00173 z m 5.33565,0 h 4.00171 v 4.01046 h -4.00171 z m 5.33561,0 h 4.00171 v 4.01046 h -4.00171 z m 5.33565,0 h 4.00171 v 4.01046 h -4.00171 z m 5.33563,0 h 4.00173 v 4.01046 h -4.00173 z m 5.33561,0 h 4.00172 v 4.01046 h -4.00172 z m 5.33563,0 h 4.00174 v 4.01046 h -4.00174 z m 5.33563,0 h 4.00172 v 4.01046 h -4.00172 z m 5.33564,0 h 4.00171 v 4.01046 h -4.00171 z m 5.33564,0 h 4.00172 v 4.01046 h -4.00172 z m 5.33561,0 h 4.00172 v 4.01046 h -4.00172 z m -74.69882,5.34727 h 4.00174 v 4.01047 h -4.00174 z m 5.33562,0 h 4.00173 v 4.01047 h -4.00173 z m 5.33565,0 h 4.00172 v 4.01047 h -4.00172 z m 5.33564,0 h 4.00172 v 4.01047 h -4.00172 z m 5.33561,0 h 4.00173 v 4.01047 h -4.00173 z m 5.33565,0 h 4.00171 v 4.01047 h -4.00171 z m 5.33561,0 h 4.00171 v 4.01047 h -4.00171 z m 5.33565,0 h 4.00171 v 4.01047 h -4.00171 z m 5.33563,0 h 4.00173 v 4.01047 h -4.00173 z m 5.33561,0 h 4.00172 v 4.01047 h -4.00172 z m 5.33563,0 h 4.00174 v 4.01047 h -4.00174 z m 5.33563,0 h 4.00172 v 4.01047 h -4.00172 z m 5.33564,0 h 4.00171 v 4.01047 h -4.00171 z m 5.33564,0 h 4.00172 v 4.01047 h -4.00172 z m 5.33561,0 h 4.00172 v 4.01047 h -4.00172 z" id="rect9275-1-36" inkscape:connector-curvature="0" inkscape:label="patron" sodipodi:insensitive="true"/>
      <path inkscape:connector-curvature="0" id="path7919-8-0" style="font-size:53.33333206px;line-height:1000%;font-family:sans-serif;letter-spacing:0px;word-spacing:0px;display:inline;fill:#9dc3ef;fill-opacity:0.63020833;stroke:#82a9e5;stroke-width:0.79089683;stroke-linecap:butt;stroke-linejoin:miter;stroke-miterlimit:4;stroke-dasharray:none;stroke-opacity:0.99481865" d="m 273.70896,278.72003 q -7.65494,0 -10.60707,1.75066 -2.95213,1.75071 -2.95213,5.97294 0,3.36405 2.19694,5.35504 2.23125,1.95664 6.04157,1.95664 5.25203,0 8.41013,-3.70733 3.19241,-3.74166 3.19241,-9.92056 v -1.40739 z m 12.59807,-2.60887 v 21.93503 h -6.31622 v -5.8356 q -2.1626,3.50135 -5.38934,5.18339 -3.22677,1.64769 -7.89525,1.64769 -5.90425,0 -9.40563,-3.29539 -3.46703,-3.32975 -3.46703,-8.89073 0,-6.48781 4.32521,-9.78324 4.35955,-3.2954 12.97566,-3.2954 h 8.85638 v -0.61787 q 0,-4.35955 -2.88346,-6.72812 -2.84915,-2.40292 -8.03254,-2.40292 -3.29543,0 -6.41918,0.78953 -3.12375,0.78952 -6.00725,2.36858 v -5.8356 q 3.46705,-1.33877 6.72811,-1.99097 3.26109,-0.68655 6.35053,-0.68655 8.34151,0 12.46075,4.32521 4.11926,4.32521 4.11926,13.11296 z" inkscape:label="a"/>
      <path style="color:#000000;font-style:normal;font-variant:normal;font-weight:normal;font-stretch:normal;font-size:medium;line-height:normal;font-family:sans-serif;font-variant-ligatures:normal;font-variant-position:normal;font-variant-caps:normal;font-variant-numeric:normal;font-variant-alternates:normal;font-feature-settings:normal;text-indent:0;text-align:start;text-decoration:none;text-decoration-line:none;text-decoration-style:solid;text-decoration-color:#000000;letter-spacing:normal;word-spacing:normal;text-transform:none;writing-mode:lr-tb;direction:ltr;text-orientation:mixed;dominant-baseline:auto;baseline-shift:baseline;text-anchor:start;white-space:normal;shape-padding:0;clip-rule:nonzero;display:inline;overflow:visible;visibility:visible;opacity:1;isolation:auto;mix-blend-mode:normal;color-interpolation:sRGB;color-interpolation-filters:linearRGB;solid-color:#000000;solid-opacity:1;vector-effect:none;fill:#83a9e5;fill-opacity:1;fill-rule:evenodd;stroke:none;stroke-width:1.31816113px;stroke-linecap:butt;stroke-linejoin:miter;stroke-miterlimit:4;stroke-dasharray:none;stroke-dashoffset:0;stroke-opacity:1;color-rendering:auto;image-rendering:auto;shape-rendering:auto;text-rendering:auto;enable-background:accumulate" d="m 257.5455,248.17993 c -0.11565,0 -0.23948,0.0103 -0.37074,0.0308 -0.13015,0.0211 -0.26753,0.0511 -0.41707,0.0927 v 0.35271 c 0.14833,-0.0495 0.28323,-0.0872 0.40676,-0.11073 0.12357,-0.0237 0.23976,-0.0334 0.34758,-0.0334 0.19759,0 0.34776,0.0407 0.45312,0.12093 0.10674,0.0794 0.15967,0.19286 0.15967,0.3424 0,0.1457 -0.0492,0.25662 -0.15176,0.33471 -0.10274,0.0767 -0.25162,0.11592 -0.44539,0.11592 h -0.35531 v 0.32438 h 0.33985 c 0.21446,0 0.37981,0.0493 0.49944,0.14675 0.12095,0.0961 0.18286,0.23 0.18286,0.40166 -4e-5,0.186 -0.0657,0.32724 -0.19576,0.42477 -0.12884,0.0976 -0.31674,0.14676 -0.56382,0.14676 -0.14175,0 -0.27675,-0.0158 -0.40678,-0.049 -0.13016,-0.0327 -0.25109,-0.0803 -0.36044,-0.14411 v 0.37844 c 0.13781,0.0482 0.27289,0.0849 0.40163,0.10799 0.1299,0.0237 0.25609,0.0387 0.37847,0.0387 0.36411,0 0.6442,-0.0796 0.84186,-0.23686 0.19759,-0.15729 0.29608,-0.37942 0.29608,-0.66677 0,-0.18733 -0.053,-0.34627 -0.15966,-0.47374 -0.10537,-0.12752 -0.25161,-0.20946 -0.44025,-0.24977 0.17045,-0.0429 0.30156,-0.12119 0.3939,-0.23185 0.0925,-0.11197 0.13912,-0.24818 0.13912,-0.40934 0,-0.23159 -0.0884,-0.4157 -0.26268,-0.55095 -0.17416,-0.13649 -0.41145,-0.2034 -0.71057,-0.2034 z m 2.77019,0.0516 -1.2126,1.84596 v 0.38102 h 1.31559 v 0.6874 h 0.39133 v -0.6874 h 0.4145 v -0.32699 h -0.4145 v -1.89999 z m 0.10294,0.34499 v 1.55502 h -0.99633 z m -8.71217,3.0096 v 5.27262 h 1.31815 v -5.27262 z m 15.81794,0 v 5.27262 h 1.31814 v -5.27262 z m -13.18163,2.6363 v 1.31815 h 11.78111 v -1.31815 z m 35.59037,7.90898 v 1.31817 h 6.59079 v -1.31817 z m 2.63631,2.48443 v 33.10592 h 1.31815 v -33.10592 z m 9.46139,14.64137 c -0.32641,0 -0.57624,0.12989 -0.74917,0.38874 -0.17178,0.25741 -0.25741,0.63092 -0.25741,1.12249 0,0.49029 0.0859,0.86631 0.25741,1.12509 0.17283,0.25739 0.42276,0.38618 0.74917,0.38618 0.32643,0 0.57496,-0.12857 0.74663,-0.38618 0.1731,-0.25872 0.26004,-0.6348 0.26004,-1.12509 0,-0.49157 -0.0871,-0.86497 -0.26004,-1.12249 -0.17152,-0.25871 -0.4202,-0.38874 -0.74663,-0.38874 z m 2.40978,0 c -0.11434,0 -0.24055,0.0158 -0.37847,0.049 -0.13779,0.0327 -0.28673,0.0804 -0.44539,0.14411 v 0.39908 c 0.15598,-0.0871 0.3037,-0.15282 0.44023,-0.19577 0.1378,-0.0429 0.26779,-0.0643 0.39136,-0.0643 0.17414,0 0.31425,0.0493 0.42219,0.14676 0.10936,0.0975 0.16467,0.22367 0.16467,0.37842 0,0.0949 -0.0266,0.19207 -0.0772,0.29094 -0.0494,0.0976 -0.13646,0.21603 -0.26267,0.35786 -0.0663,0.0753 -0.22789,0.24317 -0.48657,0.5046 -0.25739,0.26005 -0.46319,0.4683 -0.61273,0.62303 v 0.33212 h 1.85108 v -0.3321 h -1.37479 c 0.31729,-0.3238 0.56206,-0.57488 0.7363,-0.75433 0.17415,-0.18073 0.27643,-0.29183 0.30894,-0.32954 0.1183,-0.1457 0.2005,-0.27181 0.2445,-0.37847 0.0456,-0.10798 0.0695,-0.22026 0.0695,-0.33985 0,-0.25239 -0.0909,-0.45416 -0.2703,-0.60501 -0.17943,-0.15097 -0.41915,-0.22658 -0.72087,-0.22658 z m -5.08728,0.0541 -0.69771,0.1391 v 0.36045 l 0.7003,-0.14149 v 2.22184 h -0.64365 v 0.33212 h 1.67859 v -0.33212 h -0.64365 v -2.57971 z m 2.6775,0.2574 c 0.20419,0 0.35683,0.10097 0.45827,0.30121 0.10273,0.19891 0.15439,0.49798 0.15439,0.8985 0,0.39926 -0.0519,0.70082 -0.15439,0.9011 -0.1014,0.19892 -0.25425,0.29864 -0.45827,0.29864 -0.20288,0 -0.35552,-0.0995 -0.45824,-0.29864 -0.10139,-0.20023 -0.15202,-0.50184 -0.15202,-0.9011 0,-0.40052 0.0506,-0.69954 0.15202,-0.8985 0.10274,-0.20023 0.25528,-0.30121 0.45824,-0.30121 z m -12.09773,19.4712 v 1.31816 h 6.5908 v -1.31816 z m -40.1035,3.35977 v 5.27264 h 1.31817 v -5.27264 z m 38.11081,0 v 5.27264 h 1.31816 v -5.27264 z m -34.91581,1.91285 v 1.31818 h 33.10592 v -1.31818 z m 17.11291,3.86697 c -0.11433,0 -0.24053,0.0158 -0.37847,0.049 -0.13779,0.0327 -0.28672,0.0804 -0.44538,0.14412 v 0.39902 c 0.15597,-0.0871 0.30369,-0.15282 0.44025,-0.19576 0.13779,-0.0429 0.26779,-0.0643 0.39133,-0.0643 0.17415,0 0.31686,0.0493 0.42481,0.14676 0.10936,0.0975 0.16203,0.22367 0.16203,0.37844 0,0.0949 -0.0237,0.19206 -0.0745,0.29094 -0.0495,0.0976 -0.13913,0.21603 -0.26519,0.35785 -0.0663,0.0753 -0.22789,0.2458 -0.48659,0.50719 -0.25741,0.26004 -0.46059,0.4657 -0.61017,0.62045 v 0.33213 h 1.84853 v -0.3322 h -1.37478 c 0.31731,-0.3238 0.56208,-0.57486 0.73633,-0.75433 0.17414,-0.18074 0.27898,-0.28925 0.31153,-0.32696 0.11829,-0.1457 0.20049,-0.27182 0.24449,-0.37846 0.0456,-0.10799 0.0669,-0.2229 0.0669,-0.34243 -2e-5,-0.2524 -0.0883,-0.45414 -0.26775,-0.605 -0.17941,-0.15096 -0.42176,-0.22658 -0.72345,-0.22658 z m -2.54365,0.054 -0.6951,0.13911 v 0.36041 l 0.70027,-0.14148 v 2.22183 h -0.64362 v 0.33212 h 1.676 v -0.33208 h -0.64364 v -2.57971 z m 4.38446,0 v 1.46231 c 0.10935,-0.0492 0.21525,-0.0847 0.31921,-0.108 0.10537,-0.0237 0.2113,-0.0361 0.31669,-0.0361 0.225,0 0.40158,0.0593 0.53292,0.17758 0.1312,0.11829 0.19811,0.27855 0.19811,0.48142 0,0.20287 -0.0669,0.36311 -0.19811,0.48143 -0.13121,0.1183 -0.30794,0.17758 -0.53292,0.17758 -0.1391,0 -0.27163,-0.0158 -0.39649,-0.0464 -0.12488,-0.0315 -0.24608,-0.0779 -0.363,-0.1415 v 0.3965 c 0.13516,0.0417 0.26518,0.0719 0.39133,0.0927 0.12751,0.0211 0.25371,0.0308 0.37588,0.0308 0.35503,0 0.62879,-0.0871 0.82387,-0.26004 0.19495,-0.17414 0.29345,-0.41775 0.29345,-0.73118 0,-0.30429 -0.0959,-0.54528 -0.28575,-0.72343 -0.18995,-0.17811 -0.44722,-0.26777 -0.77234,-0.26777 -0.0571,0 -0.11277,0.005 -0.16993,0.0158 -0.0571,0.008 -0.1154,0.0237 -0.17258,0.0437 v -0.71316 h 1.18684 v -0.3321 z" id="path7818-7-62" inkscape:connector-curvature="0" inkscape:label="acotes"/>
    </g>
  </g>
</svg>