<?xml version="1.0" encoding="UTF-8" standalone="yes"?>
<svg xmlns:osb="http://www.openswatchbook.org/uri/2009/osb" xmlns:dc="http://purl.org/dc/elements/1.1/" xmlns:cc="http://creativecommons.org/ns#" xmlns:rdf="http://www.w3.org/1999/02/22-rdf-syntax-ns#" xmlns:svg="http://www.w3.org/2000/svg" xmlns="http://www.w3.org/2000/svg" xmlns:xlink="http://www.w3.org/1999/xlink" xmlns:sodipodi="http://sodipodi.sourceforge.net/DTD/sodipodi-0.dtd" xmlns:inkscape="http://www.inkscape.org/namespaces/inkscape" height="64" viewBox="0 0 64 64" width="64" id="svg2" version="1.1" inkscape:version="0.92.2 5c3e80d, 2017-08-06" sodipodi:docname="drive-harddisk.svg" enable-background="new" folder="64">
  <title id="title4675">Template icons dark</title>
  <metadata id="metadata24">
    <rdf:RDF>
      <cc:Work rdf:about="">
        <dc:format>image/svg+xml</dc:format>
        <dc:type rdf:resource="http://purl.org/dc/dcmitype/StillImage"/>
        <dc:title>Template icons dark</dc:title>
        <dc:date>17/05/13</dc:date>
        <dc:creator>
          <cc:Agent>
            <dc:title>wfpaisa</dc:title>
          </cc:Agent>
        </dc:creator>
        <dc:rights>
          <cc:Agent>
            <dc:title>License: GPLv3</dc:title>
          </cc:Agent>
        </dc:rights>
        <dc:language>es-en</dc:language>
        <dc:subject>
          <rdf:Bag>
            <rdf:li>plane-icon-theme</rdf:li>
          </rdf:Bag>
        </dc:subject>
        <dc:description>Template for create set icons</dc:description>
        <cc:license rdf:resource="https://www.gnu.org/licenses/gpl-3.0.en.html"/>
      </cc:Work>
    </rdf:RDF>
  </metadata>
  <defs id="defs22">
    <linearGradient inkscape:collect="always" xlink:href="#linearGradient8023" id="linearGradient8081" gradientUnits="userSpaceOnUse" x1="9.5855684" y1="4.484941" x2="37.77005" y2="43.886402" gradientTransform="matrix(0.66666642,0,0,0.66666642,-31.833331,-31.999993)"/>
    <linearGradient inkscape:collect="always" id="linearGradient8023">
      <stop style="stop-color:#e1e3e7;stop-opacity:1;" offset="0" id="stop8019"/>
      <stop id="stop8031" offset="0.21010877" style="stop-color:#dee1e4;stop-opacity:1"/>
      <stop id="stop8029" offset="0.37979186" style="stop-color:#f1f2f3;stop-opacity:1"/>
      <stop id="stop8027" offset="0.66977036" style="stop-color:#c2c6cd;stop-opacity:1"/>
      <stop style="stop-color:#d7dadf;stop-opacity:1" offset="1" id="stop8021"/>
    </linearGradient>
    <linearGradient inkscape:collect="always" xlink:href="#linearGradient8023" id="linearGradient8025" x1="9" y1="3.99999" x2="37.228348" y2="43.999989" gradientUnits="userSpaceOnUse"/>
    <linearGradient gradientTransform="matrix(2.0982376,0,0,2.0982376,109.7053,109.70531)" inkscape:collect="always" xlink:href="#linearGradient8023" id="linearGradient8025-5" x1="9.1956701" y1="4.4297605" x2="37.228348" y2="43.999989" gradientUnits="userSpaceOnUse"/>
    <linearGradient inkscape:collect="always" xlink:href="#linearGradient8023" id="linearGradient8081-1" gradientUnits="userSpaceOnUse" x1="9.5855684" y1="4.484941" x2="37.77005" y2="43.886402" gradientTransform="matrix(0.66666642,0,0,0.66666642,-59.833331,-59.999993)"/>
    <linearGradient gradientTransform="matrix(1.5259977,0,0,1.5259977,43.634553,43.421777)" inkscape:collect="always" xlink:href="#linearGradient8023" id="linearGradient8025-5-93" x1="9.1956701" y1="4.4297605" x2="37.228348" y2="43.999989" gradientUnits="userSpaceOnUse"/>
    <linearGradient inkscape:collect="always" xlink:href="#linearGradient1484" id="linearGradient1486" x1="160.06299" y1="200" x2="160" y2="196.53442" gradientUnits="userSpaceOnUse"/>
    <linearGradient inkscape:collect="always" id="linearGradient1484">
      <stop id="stop1482" offset="0" style="stop-color:#eeda60;stop-opacity:1"/>
      <stop id="stop1480" offset="1" style="stop-color:#db9918;stop-opacity:1"/>
    </linearGradient>
    <linearGradient gradientTransform="matrix(2.0982376,0,0,2.0982376,109.7053,109.70531)" inkscape:collect="always" xlink:href="#linearGradient8023" id="linearGradient8025-5-3" x1="9.1956701" y1="4.4297605" x2="37.228348" y2="43.999989" gradientUnits="userSpaceOnUse"/>
    <linearGradient gradientTransform="matrix(2.8612458,0,0,2.8612458,203.44353,204.4619)" inkscape:collect="always" xlink:href="#linearGradient8023" id="linearGradient8025-5-9" x1="9.1956701" y1="4.4297605" x2="37.228348" y2="43.999989" gradientUnits="userSpaceOnUse"/>
    <linearGradient gradientTransform="matrix(1.3636424,0,0,1.3636424,53.84472,54.86309)" inkscape:collect="always" xlink:href="#linearGradient1484" id="linearGradient1486-3" x1="160.06299" y1="200" x2="160" y2="196.53442" gradientUnits="userSpaceOnUse"/>
    <linearGradient gradientTransform="translate(-3,444.00001)" inkscape:collect="always" xlink:href="#default_color" id="linearGradient849" x1="3" y1="-436.5" x2="15.000001" y2="-436.5" gradientUnits="userSpaceOnUse"/>
    <linearGradient id="default_color" osb:paint="solid">
      <stop style="stop-color:#000000;stop-opacity:1;" offset="0" id="stop845"/>
    </linearGradient>
    <linearGradient gradientTransform="translate(-229,231.00001)" inkscape:collect="always" xlink:href="#default_color" id="linearGradient849-5" x1="3" y1="-436.5" x2="15.000001" y2="-436.5" gradientUnits="userSpaceOnUse"/>
    <linearGradient gradientTransform="translate(-10,442.00002)" inkscape:collect="always" xlink:href="#default_color" id="linearGradient849-9" x1="3" y1="-436.5" x2="15.000001" y2="-436.5" gradientUnits="userSpaceOnUse"/>
    <linearGradient inkscape:collect="always" xlink:href="#default_color" id="linearGradient944" x1="3" y1="-436.5" x2="15.000001" y2="-436.5" gradientUnits="userSpaceOnUse"/>
    <linearGradient inkscape:collect="always" xlink:href="#default_color" id="linearGradient1074" gradientUnits="userSpaceOnUse" gradientTransform="translate(-72.97638,373.00001)" x1="3" y1="-436.5" x2="15.000001" y2="-436.5"/>
    <linearGradient inkscape:collect="always" xlink:href="#default_color" id="linearGradient8185" gradientUnits="userSpaceOnUse" gradientTransform="matrix(0.66666663,0,0,0.66666667,34.847589,62.000001)" x1="-153.4238" y1="-84" x2="-129.4238" y2="-84"/>
  </defs>
  <sodipodi:namedview pagecolor="#ffffff" bordercolor="#ffffff" borderopacity="0.62745098" objecttolerance="4" gridtolerance="10" guidetolerance="4" inkscape:pageopacity="0" inkscape:pageshadow="2" inkscape:window-width="640" inkscape:window-height="480" id="namedview20" showgrid="true" inkscape:zoom="23.10501" inkscape:cx="11.197762" inkscape:cy="27.375777" inkscape:current-layer="layer9" inkscape:snap-smooth-nodes="false" showguides="true" borderlayer="true" inkscape:showpageshadow="false" inkscape:guide-bbox="true" guidecolor="#bd4fff" guideopacity="0.78431373" inkscape:snap-nodes="true" inkscape:lockguides="false" fit-margin-top="0" fit-margin-left="0" fit-margin-right="0" fit-margin-bottom="0" guidehicolor="#ff0101" guidehiopacity="0.78431373" inkscape:snap-page="true" inkscape:object-nodes="true" inkscape:snap-bbox="true" inkscape:snap-global="true" inkscape:snap-object-midpoints="false" inkscape:snap-bbox-edge-midpoints="false">
    <inkscape:grid type="xygrid" id="grid4171" empspacing="4" dotted="false" originx="2.7755576e-17" originy="0" spacingx="1" spacingy="1" color="#5a5a5a" opacity="0.23529412" empcolor="#5a5a5a" empopacity="0.47058824" visible="true"/>
    <inkscape:grid type="axonomgrid" id="grid4699" units="mm" empspacing="4" color="#5a5a5a" opacity="0.23529412" empcolor="#5a5a5a" empopacity="0.47058824" gridanglex="45" gridanglez="45" spacingy="3.7795276" visible="false" originx="1.3228346" originy="1.3228346"/>
    <sodipodi:guide position="48,0" orientation="1,0" id="guide4568" inkscape:locked="false" inkscape:label="" inkscape:color="rgb(189,79,255)"/>
    <sodipodi:guide position="111.99996,-3.9999999e-05" orientation="0,1" id="guide4570" inkscape:locked="false" inkscape:label="" inkscape:color="rgb(189,79,255)"/>
    <sodipodi:guide position="0,0" orientation="1,0" id="guide4572" inkscape:locked="false" inkscape:label="" inkscape:color="rgb(189,79,255)"/>
    <sodipodi:guide position="0,48" orientation="0,1" id="guide4574" inkscape:locked="false" inkscape:label="" inkscape:color="rgb(189,79,255)"/>
    <sodipodi:guide position="0,80" orientation="0,1" id="guide4576" inkscape:locked="false" inkscape:label="" inkscape:color="rgb(189,79,255)"/>
    <sodipodi:guide position="-32,48" orientation="1,0" id="guide4578" inkscape:locked="false" inkscape:label="" inkscape:color="rgb(189,79,255)"/>
    <sodipodi:guide position="-32,104" orientation="0,1" id="guide4580" inkscape:locked="false" inkscape:label="" inkscape:color="rgb(189,79,255)"/>
    <sodipodi:guide position="-56,80" orientation="1,0" id="guide4582" inkscape:locked="false" inkscape:label="" inkscape:color="rgb(189,79,255)"/>
    <sodipodi:guide position="48,-64" orientation="0,1" id="guide4584" inkscape:locked="false" inkscape:label="" inkscape:color="rgb(189,79,255)"/>
    <sodipodi:guide position="0,0" orientation="-0.70710678,0.70710678" id="guide4588" inkscape:locked="false" inkscape:label="" inkscape:color="rgb(189,79,255)"/>
    <sodipodi:guide position="-56,80" orientation="-0.70710678,0.70710678" id="guide4573" inkscape:locked="false" inkscape:label="" inkscape:color="rgb(189,79,255)"/>
    <sodipodi:guide position="-32,48" orientation="-0.70710678,0.70710678" id="guide4575" inkscape:locked="false" inkscape:label="" inkscape:color="rgb(189,79,255)"/>
    <sodipodi:guide position="48,-64" orientation="-0.70710678,0.70710678" id="guide4577" inkscape:locked="false" inkscape:label="" inkscape:color="rgb(189,79,255)"/>
    <sodipodi:guide position="47.999962,0" orientation="0.70710678,0.70710678" id="guide4697" inkscape:locked="false" inkscape:label="" inkscape:color="rgb(189,79,255)"/>
    <sodipodi:guide position="207.99995,-288" orientation="0,1" id="guide7833" inkscape:locked="false"/>
    <sodipodi:guide position="335.99994,-288" orientation="1,0" id="guide7835" inkscape:locked="false" inkscape:label="" inkscape:color="rgb(189,79,255)"/>
    <sodipodi:guide position="111.99996,-64" orientation="1,0" id="guide7915" inkscape:locked="false"/>
    <sodipodi:guide position="111.99996,-160" orientation="0,1" id="guide7917" inkscape:locked="false"/>
    <sodipodi:guide position="207.99996,-160" orientation="1,0" id="guide7919" inkscape:locked="false"/>
    <sodipodi:guide position="111.99996,-160" orientation="-0.70710678,0.70710678" id="guide7921" inkscape:locked="false" inkscape:label="" inkscape:color="rgb(189,79,255)"/>
    <sodipodi:guide position="207.99996,-288" orientation="-0.70710678,0.70710678" id="guide7923" inkscape:locked="false" inkscape:label="" inkscape:color="rgb(189,79,255)"/>
    <sodipodi:guide position="-72,104" orientation="1,0" id="guide7824" inkscape:locked="false"/>
    <sodipodi:guide position="-56,120" orientation="0,1" id="guide7826" inkscape:locked="false"/>
    <sodipodi:guide position="-72,104" orientation="-0.70710678,0.70710678" id="guide7828" inkscape:locked="false" inkscape:label="" inkscape:color="rgb(189,79,255)"/>
  </sodipodi:namedview>
  <g inkscape:groupmode="layer" id="g7907" inkscape:label="icon_64" style="display:inline" transform="translate(-48,-48)">
    <g inkscape:groupmode="layer" id="g7843" inkscape:label="frame" style="display:none">
      <rect inkscape:label="frame_64" y="48" x="48" height="64" width="64" id="rect7837" style="color:#000000;clip-rule:nonzero;display:inline;overflow:visible;visibility:visible;opacity:1;isolation:auto;mix-blend-mode:normal;color-interpolation:sRGB;color-interpolation-filters:linearRGB;solid-color:#000000;solid-opacity:1;vector-effect:none;fill:#000000;fill-opacity:1;fill-rule:nonzero;stroke:#ff24f7;stroke-width:0;stroke-linecap:square;stroke-linejoin:miter;stroke-miterlimit:4;stroke-dasharray:none;stroke-dashoffset:0;stroke-opacity:0.99481865;marker:none;marker-start:none;marker-mid:none;marker-end:none;paint-order:normal;color-rendering:auto;image-rendering:auto;shape-rendering:auto;text-rendering:auto;enable-background:accumulate"/>
      <text xml:space="preserve" style="font-size:16px;line-height:0%;font-family:sans-serif;letter-spacing:0px;word-spacing:0px;display:inline;opacity:1;fill:#ffffff;fill-opacity:1;stroke:none;stroke-width:0.03278551px;stroke-linecap:butt;stroke-linejoin:miter;stroke-opacity:1" x="69.816406" y="85.824219" id="text7841" inkscape:label="txt_64">
        <tspan sodipodi:role="line" x="69.816406" y="85.824219" style="font-size:16px;line-height:0%;fill:#ffffff;fill-opacity:1;stroke:none;stroke-width:0.03278551px" id="tspan7839">64</tspan>
      </text>
    </g>
    <g inkscape:groupmode="layer" id="g7905" inkscape:label="icon" style="display:inline">
      <path inkscape:connector-curvature="0" id="path946-4" d="M 57,50.00004 V 110 h 11 l 2,-2 h 21 l 2,2 h 10 V 50.00004 Z" style="display:inline;opacity:0.05;vector-effect:none;fill:url(#linearGradient849);fill-opacity:1;stroke:none;stroke-width:0.12990442;stroke-linecap:round;stroke-linejoin:round;stroke-miterlimit:4;stroke-dasharray:none;stroke-dashoffset:0;stroke-opacity:0.96354167;marker:none;marker-start:none;marker-mid:none;marker-end:none;paint-order:normal" sodipodi:nodetypes="ccccccccc" inkscape:label="base sombra"/>
      <path sodipodi:nodetypes="ccccccccc" style="display:inline;opacity:1;vector-effect:none;fill:#8b93a1;fill-opacity:1;stroke:none;stroke-width:2.86124563;stroke-linecap:butt;stroke-linejoin:miter;stroke-miterlimit:4;stroke-dasharray:none;stroke-dashoffset:0;stroke-opacity:0.23979594" d="m 58,51 v 58 h 10 l 4,-4.98425 17,-0.0157 4,5 h 9 V 51 Z" id="path8033-93-5" inkscape:connector-curvature="0" inkscape:label="borde negro"/>
      <path inkscape:connector-curvature="0" id="rect4517-7-2-7-0" d="m 59,52 0.08661,56 H 68 l 4,-3.98425 17,-0.0157 4,4 h 8 V 52 Z" style="display:inline;opacity:1;fill:url(#linearGradient8025-5-93);fill-opacity:1;stroke:none;stroke-width:1.52599764;stroke-linecap:butt;stroke-linejoin:miter;stroke-miterlimit:4;stroke-dasharray:none;stroke-dashoffset:0;stroke-opacity:0.23979594" sodipodi:nodetypes="ccccccccc" inkscape:label="base"/>
      <path style="display:inline;fill:#6c7587;fill-opacity:1;fill-rule:evenodd;stroke:none;stroke-width:1.52599788px;stroke-linecap:butt;stroke-linejoin:miter;stroke-opacity:1" d="m 72,104.01575 -2.396099,2.98976 21.802124,-0.005 -2.406025,-3 z" id="path8005-5-3" inkscape:connector-curvature="0" sodipodi:nodetypes="ccccc" inkscape:label="baquelita"/>
      <path style="color:#000000;clip-rule:nonzero;display:block;overflow:visible;visibility:visible;opacity:1;isolation:auto;mix-blend-mode:normal;color-interpolation:sRGB;color-interpolation-filters:linearRGB;solid-color:#000000;solid-opacity:1;vector-effect:none;fill:#eeda60;fill-opacity:1;fill-rule:nonzero;stroke:none;stroke-width:0.19823384;stroke-linecap:round;stroke-linejoin:round;stroke-miterlimit:4;stroke-dasharray:none;stroke-dashoffset:0;stroke-opacity:0.96354167;marker:none;marker-start:none;marker-mid:none;marker-end:none;paint-order:normal;color-rendering:auto;image-rendering:auto;shape-rendering:auto;text-rendering:auto;enable-background:accumulate" d="m 71.984252,104 0.01575,3 h 1 v -3 z M 75,104 74.98425,107 H 76 v -3 z m 3,0 v 3 h 1 v -3 z m 4,0 v 3 h 1 v -3 z m 3,0 v 3 h 1 v -3 z m 3,0 v 3 h 1 v -3 z" id="rect8007-2-6" inkscape:connector-curvature="0" inkscape:label="contactos" sodipodi:nodetypes="cccccccccccccccccccccccccccccc"/>
      <path sodipodi:nodetypes="ccccc" inkscape:connector-curvature="0" id="path8207-8-1" d="M 72,104.01575 70.39738,106 H 90.600231 L 89,104 Z" style="display:inline;fill:#000000;fill-opacity:0.24725276;fill-rule:evenodd;stroke:none;stroke-width:1.07203293px;stroke-linecap:butt;stroke-linejoin:miter;stroke-opacity:1" inkscape:label="baquelita sombra"/>
      <path style="color:#000000;clip-rule:nonzero;display:block;overflow:visible;visibility:visible;opacity:1;isolation:auto;mix-blend-mode:normal;color-interpolation:sRGB;color-interpolation-filters:linearRGB;solid-color:#000000;solid-opacity:1;vector-effect:none;fill:#000000;fill-opacity:0.07843137;fill-rule:nonzero;stroke:none;stroke-width:0.25980884;stroke-linecap:round;stroke-linejoin:round;stroke-miterlimit:4;stroke-dasharray:none;stroke-dashoffset:0;stroke-opacity:0.96354167;marker:none;marker-start:none;marker-mid:none;marker-end:none;paint-order:normal;color-rendering:auto;image-rendering:auto;shape-rendering:auto;text-rendering:auto;enable-background:accumulate" d="m 68,62 h 24 l 0.0315,34 H 68 Z" id="rect8154-3-4-0" inkscape:connector-curvature="0" sodipodi:nodetypes="ccccc" inkscape:label="centro recuadro"/>
      <path style="color:#000000;clip-rule:nonzero;display:inline;overflow:visible;visibility:visible;opacity:1;isolation:auto;mix-blend-mode:normal;color-interpolation:sRGB;color-interpolation-filters:linearRGB;solid-color:#000000;solid-opacity:1;vector-effect:none;fill:#ffffff;fill-opacity:0.5;fill-rule:nonzero;stroke:none;stroke-width:0.72727591;stroke-linecap:square;stroke-linejoin:miter;stroke-miterlimit:4;stroke-dasharray:1.45455186, 1.45455186;stroke-dashoffset:9.73946476;stroke-opacity:1;marker:none;marker-start:none;marker-mid:none;marker-end:none;paint-order:markers stroke fill;color-rendering:auto;image-rendering:auto;shape-rendering:auto;text-rendering:auto;enable-background:accumulate" d="m 68,96 h 24.031497 l -0.0315,1 H 68 Z" id="rect956-3" inkscape:connector-curvature="0" inkscape:label="centro recuadro brillo inf" sodipodi:nodetypes="ccccc"/>
      <path sodipodi:nodetypes="sssss" inkscape:connector-curvature="0" id="path936-20" d="m 62.36523,79.999895 c 0.807327,0 1.457279,0.649945 1.457279,1.457279 0,0.807327 -0.649952,1.457272 -1.457279,1.457272 -0.807328,0 -1.45728,-0.649945 -1.45728,-1.457272 0,-0.807334 0.649952,-1.457279 1.45728,-1.457279 z" style="display:inline;opacity:1;fill:#737373;fill-opacity:1;stroke:none;stroke-width:1.94303656;stroke-linecap:butt;stroke-linejoin:miter;stroke-miterlimit:4;stroke-dasharray:none;stroke-dashoffset:0;stroke-opacity:0.64313725" inkscape:label="tornillo"/>
      <path style="display:inline;opacity:1;fill:#737373;fill-opacity:1;stroke:none;stroke-width:1.94303656;stroke-linecap:butt;stroke-linejoin:miter;stroke-miterlimit:4;stroke-dasharray:none;stroke-dashoffset:0;stroke-opacity:0.64313725" d="m 62.36523,103.14923 c 0.807327,0 1.457279,0.64995 1.457279,1.45728 0,0.80733 -0.649952,1.45727 -1.457279,1.45727 -0.807328,0 -1.45728,-0.64994 -1.45728,-1.45727 0,-0.80733 0.649952,-1.45728 1.45728,-1.45728 z" id="path938-6" inkscape:connector-curvature="0" sodipodi:nodetypes="sssss" inkscape:label="tornillo"/>
      <path sodipodi:nodetypes="sssss" inkscape:connector-curvature="0" id="path940-1" d="m 97.457828,54.02746 c 0.807322,0 1.457282,0.649944 1.457282,1.457279 0,0.807327 -0.64996,1.457272 -1.457282,1.457272 -0.807353,0 -1.457305,-0.649945 -1.457305,-1.457272 0,-0.807335 0.649952,-1.457279 1.457305,-1.457279 z" style="display:inline;opacity:1;fill:#737373;fill-opacity:1;stroke:none;stroke-width:1.94303656;stroke-linecap:butt;stroke-linejoin:miter;stroke-miterlimit:4;stroke-dasharray:none;stroke-dashoffset:0;stroke-opacity:0.64313725" inkscape:label="tornillo"/>
      <path style="display:inline;opacity:1;fill:#737373;fill-opacity:1;stroke:none;stroke-width:1.94303656;stroke-linecap:butt;stroke-linejoin:miter;stroke-miterlimit:4;stroke-dasharray:none;stroke-dashoffset:0;stroke-opacity:0.64313725" d="m 97.457828,79.999895 c 0.807322,0 1.457282,0.649945 1.457282,1.457279 0,0.807327 -0.64996,1.457272 -1.457282,1.457272 -0.807353,0 -1.457305,-0.649945 -1.457305,-1.457272 0,-0.807334 0.649952,-1.457279 1.457305,-1.457279 z" id="path942-55" inkscape:connector-curvature="0" sodipodi:nodetypes="sssss" inkscape:label="tornillo"/>
      <path sodipodi:nodetypes="sssss" inkscape:connector-curvature="0" id="path944-4" d="m 97.457828,103.14923 c 0.807322,0 1.457282,0.64995 1.457282,1.45728 0,0.80733 -0.64996,1.45727 -1.457282,1.45727 -0.807353,0 -1.457305,-0.64994 -1.457305,-1.45727 0,-0.80733 0.649952,-1.45728 1.457305,-1.45728 z" style="display:inline;opacity:1;fill:#737373;fill-opacity:1;stroke:none;stroke-width:1.94303656;stroke-linecap:butt;stroke-linejoin:miter;stroke-miterlimit:4;stroke-dasharray:none;stroke-dashoffset:0;stroke-opacity:0.64313725" inkscape:label="tornillo"/>
      <path sodipodi:nodetypes="sssss" inkscape:connector-curvature="0" id="rect4617-5-3-9-68-7" d="m 62.36523,54.02746 c 0.807327,0 1.457279,0.649944 1.457279,1.457279 0,0.807327 -0.649952,1.457272 -1.457279,1.457272 -0.807328,0 -1.45728,-0.649945 -1.45728,-1.457272 0,-0.807335 0.649952,-1.457279 1.45728,-1.457279 z" style="display:inline;opacity:1;fill:#737373;fill-opacity:1;stroke:none;stroke-width:1.94303656;stroke-linecap:butt;stroke-linejoin:miter;stroke-miterlimit:4;stroke-dasharray:none;stroke-dashoffset:0;stroke-opacity:0.64313725" inkscape:label="tornillo"/>
      <path style="display:inline;opacity:1;fill:#000000;fill-opacity:0.46153846;stroke:none;stroke-width:1.94303656;stroke-linecap:butt;stroke-linejoin:miter;stroke-miterlimit:4;stroke-dasharray:none;stroke-dashoffset:0;stroke-opacity:0.64313725" d="m 62.36523,54.02746 c -0.807328,0 -1.457396,0.650061 -1.457396,1.457395 0,0.0712 0.01156,0.138983 0.02131,0.207383 0.10163,-0.70668 0.700425,-1.24858 1.436087,-1.24858 0.735661,0 1.334456,0.5419 1.436086,1.24858 0.0097,-0.06844 0.02131,-0.136197 0.02131,-0.207383 0,-0.807334 -0.650068,-1.457395 -1.457395,-1.457395 z m 35.092598,0 c -0.807353,0 -1.457422,0.650061 -1.457422,1.457395 0,0.0712 0.01156,0.138983 0.02131,0.207383 0.10163,-0.70668 0.700425,-1.24858 1.436112,-1.24858 0.735662,0 1.334452,0.5419 1.436082,1.24858 0.01,-0.06844 0.0213,-0.136197 0.0213,-0.207383 0,-0.807334 -0.65007,-1.457395 -1.457392,-1.457395 z M 62.36523,79.999895 c -0.807328,0 -1.457396,0.650061 -1.457396,1.457396 0,0.0712 0.01156,0.138982 0.02131,0.207382 0.10163,-0.706679 0.700425,-1.24858 1.436087,-1.24858 0.735661,0 1.334456,0.541901 1.436086,1.24858 0.0097,-0.06844 0.02131,-0.136197 0.02131,-0.207382 -2e-6,-0.807335 -0.65007,-1.457396 -1.457397,-1.457396 z m 35.092598,0 c -0.807353,0 -1.457422,0.650061 -1.457422,1.457396 0,0.0712 0.01156,0.138982 0.02131,0.207382 0.10163,-0.706679 0.700425,-1.24858 1.436112,-1.24858 0.735662,0 1.334452,0.541901 1.436082,1.24858 0.01,-0.06844 0.0213,-0.136197 0.0213,-0.207382 1e-5,-0.807335 -0.65006,-1.457396 -1.457382,-1.457396 z M 62.36523,103.14923 c -0.807328,0 -1.457396,0.65006 -1.457396,1.4574 0,0.0712 0.01156,0.13898 0.02131,0.20738 0.10163,-0.70668 0.700425,-1.24858 1.436087,-1.24858 0.735661,0 1.334456,0.5419 1.436086,1.24858 0.0097,-0.0684 0.02131,-0.1362 0.02131,-0.20738 0,-0.80734 -0.650068,-1.4574 -1.457395,-1.4574 z m 35.092598,0 c -0.807353,0 -1.457422,0.65006 -1.457422,1.4574 0,0.0712 0.01156,0.13898 0.02131,0.20738 0.10163,-0.70668 0.700425,-1.24858 1.436112,-1.24858 0.735662,0 1.334452,0.5419 1.436082,1.24858 0.01,-0.0684 0.0213,-0.1362 0.0213,-0.20738 0,-0.80734 -0.65007,-1.4574 -1.457392,-1.4574 z" id="path958-6" inkscape:connector-curvature="0" inkscape:label="tornillos sombra" sodipodi:nodetypes="sscscssscscscsccsscsccssscsccssscscssscscscscc"/>
      <path style="color:#000000;clip-rule:nonzero;display:block;overflow:visible;visibility:visible;opacity:1;isolation:auto;mix-blend-mode:normal;color-interpolation:sRGB;color-interpolation-filters:linearRGB;solid-color:#000000;solid-opacity:1;vector-effect:none;fill:#ffffff;fill-opacity:0.27472528;fill-rule:nonzero;stroke:none;stroke-width:0.27589288;stroke-linecap:butt;stroke-linejoin:miter;stroke-miterlimit:4;stroke-dasharray:none;stroke-dashoffset:0;stroke-opacity:0.28021982;marker:none;marker-start:none;marker-mid:none;marker-end:none;paint-order:fill markers stroke;color-rendering:auto;image-rendering:auto;shape-rendering:auto;text-rendering:auto;enable-background:accumulate" d="m 62.36523,54.754736 c -0.401664,0 -0.727276,0.325612 -0.727276,0.727276 0,0.401663 0.325612,0.727276 0.727276,0.727276 0.401663,0 0.727276,-0.325613 0.727276,-0.727276 0,-0.401664 -0.325613,-0.727276 -0.727276,-0.727276 z m 35.092598,0 c -0.401673,-1.5e-5 -0.727302,0.325602 -0.727302,0.727276 0,0.401673 0.325629,0.72729 0.727302,0.727276 0.401662,-4e-6 0.727272,-0.325615 0.727272,-0.727276 0,-0.401662 -0.32561,-0.727273 -0.727272,-0.727276 z M 62.36523,80.727171 c -0.401664,0 -0.727276,0.325613 -0.727276,0.727276 0,0.401663 0.325612,0.727276 0.727276,0.727276 0.401663,0 0.727276,-0.325613 0.727276,-0.727276 0,-0.401663 -0.325613,-0.727276 -0.727276,-0.727276 z m 35.092598,0 c -0.401673,-1.4e-5 -0.727302,0.325602 -0.727302,0.727276 0,0.401674 0.325629,0.72729 0.727302,0.727276 0.401662,-3e-6 0.727272,-0.325615 0.727272,-0.727276 0,-0.401661 -0.32561,-0.727273 -0.727272,-0.727276 z M 62.36523,103.87651 c -0.401665,0 -0.727279,0.32562 -0.727276,0.72728 3e-6,0.40167 0.325615,0.72727 0.727276,0.72727 0.401661,0 0.727272,-0.3256 0.727276,-0.72727 2e-6,-0.40166 -0.325611,-0.72728 -0.727276,-0.72728 z m 35.092598,0.027 c -0.401675,-1e-5 -0.727304,0.32561 -0.727302,0.72728 4e-6,0.40168 0.325631,0.72729 0.727302,0.72727 0.401659,0 0.727272,-0.32561 0.727272,-0.72727 0,-0.40166 -0.325609,-0.72727 -0.727272,-0.72728 z" id="path1490-5" inkscape:connector-curvature="0" inkscape:label="tornillo centro" sodipodi:nodetypes="ssssscscscssssscscscscscsccccc"/>
      <rect style="color:#000000;clip-rule:nonzero;display:block;overflow:visible;visibility:visible;opacity:1;isolation:auto;mix-blend-mode:normal;color-interpolation:sRGB;color-interpolation-filters:linearRGB;solid-color:#000000;solid-opacity:1;vector-effect:none;fill:#000000;fill-opacity:0.2857143;fill-rule:nonzero;stroke:none;stroke-width:0.72727591;stroke-linecap:square;stroke-linejoin:miter;stroke-miterlimit:4;stroke-dasharray:1.45455186, 1.45455186;stroke-dashoffset:9.73946476;stroke-opacity:1;marker:none;marker-start:none;marker-mid:none;marker-end:none;paint-order:markers stroke fill;color-rendering:auto;image-rendering:auto;shape-rendering:auto;text-rendering:auto;enable-background:accumulate" id="rect954-6" width="24" height="1" x="68" y="62" inkscape:label="centro recuadro sombra top"/>
    </g>
  </g>
</svg>