<?xml version="1.0" encoding="UTF-8" standalone="yes"?>
<svg xmlns:dc="http://purl.org/dc/elements/1.1/" xmlns:cc="http://creativecommons.org/ns#" xmlns:rdf="http://www.w3.org/1999/02/22-rdf-syntax-ns#" xmlns:svg="http://www.w3.org/2000/svg" xmlns="http://www.w3.org/2000/svg" xmlns:xlink="http://www.w3.org/1999/xlink" xmlns:sodipodi="http://sodipodi.sourceforge.net/DTD/sodipodi-0.dtd" xmlns:inkscape="http://www.inkscape.org/namespaces/inkscape" height="48" viewBox="0 0 48 48" width="48" id="svg2" version="1.1" inkscape:version="0.92.2 5c3e80d, 2017-08-06" sodipodi:docname="filezilla.svg" enable-background="new" folder="48">
  <title id="title4675">Template icons dark</title>
  <metadata id="metadata24">
    <rdf:RDF>
      <cc:Work rdf:about="">
        <dc:format>image/svg+xml</dc:format>
        <dc:type rdf:resource="http://purl.org/dc/dcmitype/StillImage"/>
        <dc:title>Template icons dark</dc:title>
        <dc:date>17/05/13</dc:date>
        <dc:creator>
          <cc:Agent>
            <dc:title>wfpaisa</dc:title>
          </cc:Agent>
        </dc:creator>
        <dc:rights>
          <cc:Agent>
            <dc:title>License: GPLv3</dc:title>
          </cc:Agent>
        </dc:rights>
        <dc:language>es-en</dc:language>
        <dc:subject>
          <rdf:Bag>
            <rdf:li>plane-icon-theme</rdf:li>
          </rdf:Bag>
        </dc:subject>
        <dc:description>Template for create set icons</dc:description>
        <cc:license rdf:resource="https://www.gnu.org/licenses/gpl-3.0.en.html"/>
      </cc:Work>
    </rdf:RDF>
  </metadata>
  <defs id="defs22">
    <linearGradient id="linearGradient967" inkscape:collect="always">
      <stop id="stop963" offset="0" style="stop-color:#ffffff;stop-opacity:0.45604396"/>
      <stop id="stop965" offset="1" style="stop-color:#ffffff;stop-opacity:0"/>
    </linearGradient>
    <linearGradient inkscape:collect="always" id="linearGradient946">
      <stop style="stop-color:#c7c7c7;stop-opacity:1" offset="0" id="stop942"/>
      <stop style="stop-color:#ffffff;stop-opacity:0.98901099" offset="1" id="stop944"/>
    </linearGradient>
    <linearGradient inkscape:collect="always" id="linearGradient919">
      <stop style="stop-color:#a61f23;stop-opacity:1" offset="0" id="stop915"/>
      <stop style="stop-color:#ff4955;stop-opacity:1" offset="1" id="stop917"/>
    </linearGradient>
    <linearGradient inkscape:collect="always" id="linearGradient904">
      <stop style="stop-color:#88c1df;stop-opacity:1" offset="0" id="stop900"/>
      <stop style="stop-color:#f0f5f8;stop-opacity:1" offset="1" id="stop902"/>
    </linearGradient>
    <linearGradient inkscape:collect="always" xlink:href="#linearGradient904" id="linearGradient906" x1="170" y1="186" x2="170" y2="118" gradientUnits="userSpaceOnUse" gradientTransform="translate(-1,-1)"/>
    <linearGradient inkscape:collect="always" xlink:href="#linearGradient919" id="linearGradient921" x1="165.92126" y1="192" x2="159" y2="147.66142" gradientUnits="userSpaceOnUse" gradientTransform="matrix(1.5614379,0,0,1.5614379,-89.610624,-90.571879)"/>
    <linearGradient inkscape:collect="always" xlink:href="#linearGradient946" id="linearGradient948" x1="161" y1="192.39384" x2="161" y2="128.88977" gradientUnits="userSpaceOnUse"/>
    <linearGradient gradientUnits="userSpaceOnUse" y2="258.86499" y1="123.859" x2="187.94701" x1="187.94701" id="a" gradientTransform="matrix(0.26323921,0,0,0.26323073,141.52577,105.95773)">
      <stop id="stop2" stop-color="#BF0000" offset="0"/>
      <stop id="stop4" stop-color="#8F0000" offset="1"/>
    </linearGradient>
    <linearGradient inkscape:collect="always" xlink:href="#linearGradient904" id="linearGradient906-2-1" x1="170" y1="186" x2="170" y2="118" gradientUnits="userSpaceOnUse" gradientTransform="matrix(0.17631236,0,0,0.17631236,-92.513198,-91.862573)"/>
    <linearGradient inkscape:collect="always" xlink:href="#linearGradient919" id="linearGradient1101" gradientUnits="userSpaceOnUse" gradientTransform="matrix(1.8908949,0,0,1.8908949,-141.68152,-140.94084)" x1="165.92126" y1="192" x2="159" y2="147.66142"/>
    <linearGradient inkscape:collect="always" xlink:href="#linearGradient919" id="linearGradient1101-3" gradientUnits="userSpaceOnUse" gradientTransform="matrix(2.5148902,0,0,2.5148902,-129.84638,-129.25162)" x1="165.92126" y1="192" x2="159" y2="147.66142"/>
    <linearGradient inkscape:collect="always" xlink:href="#linearGradient904" id="linearGradient906-7" x1="170" y1="186" x2="170" y2="118" gradientUnits="userSpaceOnUse" gradientTransform="matrix(1.33,0,0,1.33,57.260035,56.869697)"/>
    <linearGradient inkscape:collect="always" xlink:href="#linearGradient919" id="linearGradient1101-2" gradientUnits="userSpaceOnUse" gradientTransform="matrix(1.3125166,0,0,1.3125166,-129.59549,-129.6902)" x1="165.92126" y1="192" x2="159" y2="147.66142"/>
    <linearGradient inkscape:collect="always" xlink:href="#linearGradient904" id="linearGradient906-76" x1="170" y1="186" x2="170" y2="118" gradientUnits="userSpaceOnUse" gradientTransform="matrix(0.69412459,0,0,0.69412459,-31.945027,-32.553825)"/>
    <linearGradient inkscape:collect="always" xlink:href="#linearGradient919" id="linearGradient1101-7" gradientUnits="userSpaceOnUse" gradientTransform="matrix(0.98439784,0,0,0.98439784,-133.17307,-133.22042)" x1="165.92126" y1="192" x2="159" y2="147.66142"/>
    <linearGradient inkscape:collect="always" xlink:href="#linearGradient904" id="linearGradient906-9" x1="170" y1="186" x2="170" y2="118" gradientUnits="userSpaceOnUse" gradientTransform="matrix(0.52059892,0,0,0.52059892,-59.934449,-60.367395)"/>
    <linearGradient inkscape:collect="always" xlink:href="#linearGradient919" id="linearGradient1101-27" gradientUnits="userSpaceOnUse" gradientTransform="matrix(0.65625833,0,0,0.65625833,-120.79765,-121.09694)" x1="165.92126" y1="192" x2="159" y2="147.66142"/>
    <linearGradient inkscape:collect="always" xlink:href="#linearGradient904" id="linearGradient906-1" x1="170" y1="186" x2="170" y2="118" gradientUnits="userSpaceOnUse" gradientTransform="matrix(0.3470623,0,0,0.3470623,-71.972378,-72.528771)"/>
    <linearGradient inkscape:collect="always" xlink:href="#linearGradient919" id="linearGradient1101-77" gradientUnits="userSpaceOnUse" gradientTransform="matrix(0.4921886,0,0,0.4921886,-122.62684,-122.69038)" x1="165.92126" y1="192" x2="159" y2="147.66142"/>
    <linearGradient inkscape:collect="always" xlink:href="#linearGradient904" id="linearGradient906-94" x1="170" y1="186" x2="170" y2="118" gradientUnits="userSpaceOnUse" gradientTransform="matrix(0.260294,0,0,0.260294,-86.008268,-86.264618)"/>
    <linearGradient inkscape:collect="always" xlink:href="#linearGradient919" id="linearGradient1101-77-6" gradientUnits="userSpaceOnUse" gradientTransform="matrix(0.25781096,0,0,0.25781096,-105.16377,-104.8453)" x1="165.92126" y1="192" x2="159" y2="147.66142"/>
    <radialGradient inkscape:collect="always" xlink:href="#linearGradient967" id="radialGradient961" cx="190.99977" cy="155.34175" fx="190.99977" fy="155.34175" r="45.37402" gradientTransform="matrix(0.75002159,0,0,0.58055928,45.746051,62.814905)" gradientUnits="userSpaceOnUse"/>
    <radialGradient inkscape:collect="always" xlink:href="#linearGradient967" id="radialGradient971" gradientUnits="userSpaceOnUse" gradientTransform="matrix(0.56451189,0,0,0.43696425,65.348655,86.110566)" cx="105.66889" cy="162.23166" fx="105.66889" fy="162.23166" r="45.37402"/>
    <radialGradient inkscape:collect="always" xlink:href="#linearGradient967" id="radialGradient971-2" gradientUnits="userSpaceOnUse" gradientTransform="matrix(0.75080081,0,0,0.58116245,145.50375,172.72675)" cx="105.66889" cy="162.23166" fx="105.66889" fy="162.23166" r="45.37402"/>
    <radialGradient inkscape:collect="always" xlink:href="#linearGradient967" id="radialGradient961-2" cx="190.99977" cy="155.34175" fx="190.99977" fy="155.34175" r="45.37402" gradientTransform="matrix(0.99752871,0,0,0.77214384,119.43229,141.74353)" gradientUnits="userSpaceOnUse"/>
    <radialGradient inkscape:collect="always" xlink:href="#linearGradient967" id="radialGradient971-1" gradientUnits="userSpaceOnUse" gradientTransform="matrix(0.39184158,0,0,0.30330763,14.109206,27.911761)" cx="105.66889" cy="162.23166" fx="105.66889" fy="162.23166" r="45.37402"/>
    <radialGradient inkscape:collect="always" xlink:href="#linearGradient967" id="radialGradient961-4" cx="190.99977" cy="155.34175" fx="190.99977" fy="155.34175" r="45.37402" gradientTransform="matrix(0.52060843,0,0,0.40298047,0.50255869,11.74167)" gradientUnits="userSpaceOnUse"/>
    <radialGradient inkscape:collect="always" xlink:href="#linearGradient967" id="radialGradient971-88" gradientUnits="userSpaceOnUse" gradientTransform="matrix(0.29388428,0,0,0.22748312,-25.393411,-15.017728)" cx="105.66889" cy="162.23166" fx="105.66889" fy="162.23166" r="45.37402"/>
    <radialGradient inkscape:collect="always" xlink:href="#linearGradient967" id="radialGradient961-14" cx="190.99977" cy="155.34175" fx="190.99977" fy="155.34175" r="45.37402" gradientTransform="matrix(0.39046043,0,0,0.30223853,-35.598505,-27.145424)" gradientUnits="userSpaceOnUse"/>
    <radialGradient inkscape:collect="always" xlink:href="#linearGradient967" id="radialGradient971-6" gradientUnits="userSpaceOnUse" gradientTransform="matrix(0.19592079,0,0,0.15165382,-48.94526,-42.295977)" cx="105.66889" cy="162.23166" fx="105.66889" fy="162.23166" r="45.37402"/>
    <radialGradient inkscape:collect="always" xlink:href="#linearGradient967" id="radialGradient961-6" cx="190.99977" cy="155.34175" fx="190.99977" fy="155.34175" r="45.37402" gradientTransform="matrix(0.26030422,0,0,0.20149024,-55.748586,-50.381025)" gradientUnits="userSpaceOnUse"/>
    <radialGradient inkscape:collect="always" xlink:href="#linearGradient967" id="radialGradient971-3" gradientUnits="userSpaceOnUse" gradientTransform="matrix(0.14693906,0,0,0.11373917,-68.738113,-63.590262)" cx="105.66889" cy="162.23166" fx="105.66889" fy="162.23166" r="45.37402"/>
    <radialGradient inkscape:collect="always" xlink:href="#linearGradient967" id="radialGradient961-63" cx="190.99977" cy="155.34175" fx="190.99977" fy="155.34175" r="45.37402" gradientTransform="matrix(0.19522612,0,0,0.1511161,-73.840552,-69.653983)" gradientUnits="userSpaceOnUse"/>
  </defs>
  <sodipodi:namedview pagecolor="#383c4a" bordercolor="#ffffff" borderopacity="0.62745098" objecttolerance="4" gridtolerance="10" guidetolerance="4" inkscape:pageopacity="0" inkscape:pageshadow="2" inkscape:window-width="640" inkscape:window-height="480" id="namedview20" showgrid="true" inkscape:zoom="16.386532" inkscape:cx="-45.388544" inkscape:cy="107.07527" inkscape:current-layer="layer6" inkscape:snap-smooth-nodes="false" showguides="true" borderlayer="true" inkscape:showpageshadow="false" inkscape:guide-bbox="true" guidecolor="#bd4fff" guideopacity="0.78431373" inkscape:snap-nodes="true" inkscape:lockguides="false" fit-margin-top="0" fit-margin-left="0" fit-margin-right="0" fit-margin-bottom="0" guidehicolor="#ff0101" guidehiopacity="0.78431373" inkscape:snap-page="true" inkscape:object-nodes="true" inkscape:snap-bbox="true" inkscape:snap-global="true" inkscape:snap-object-midpoints="false" inkscape:snap-bbox-edge-midpoints="false">
    <inkscape:grid type="xygrid" id="grid4171" empspacing="4" dotted="false" originx="2.7755576e-17" originy="0" spacingx="1" spacingy="1" color="#5a5a5a" opacity="0.23529412" empcolor="#5a5a5a" empopacity="0.47058824" visible="true"/>
    <inkscape:grid type="axonomgrid" id="grid4699" units="mm" empspacing="4" color="#5a5a5a" opacity="0.23529412" empcolor="#5a5a5a" empopacity="0.47058824" gridanglex="45" gridanglez="45" spacingy="3.7795276" visible="false" originx="1.3228346" originy="1.3228346"/>
    <sodipodi:guide position="48,0" orientation="1,0" id="guide4568" inkscape:locked="false" inkscape:label="" inkscape:color="rgb(189,79,255)"/>
    <sodipodi:guide position="111.99996,-3.9999999e-05" orientation="0,1" id="guide4570" inkscape:locked="false" inkscape:label="" inkscape:color="rgb(189,79,255)"/>
    <sodipodi:guide position="0,0" orientation="1,0" id="guide4572" inkscape:locked="false" inkscape:label="" inkscape:color="rgb(189,79,255)"/>
    <sodipodi:guide position="0,48" orientation="0,1" id="guide4574" inkscape:locked="false" inkscape:label="" inkscape:color="rgb(189,79,255)"/>
    <sodipodi:guide position="0,80" orientation="0,1" id="guide4576" inkscape:locked="false" inkscape:label="" inkscape:color="rgb(189,79,255)"/>
    <sodipodi:guide position="-32,48" orientation="1,0" id="guide4578" inkscape:locked="false" inkscape:label="" inkscape:color="rgb(189,79,255)"/>
    <sodipodi:guide position="-32,104" orientation="0,1" id="guide4580" inkscape:locked="false" inkscape:label="" inkscape:color="rgb(189,79,255)"/>
    <sodipodi:guide position="-56,80" orientation="1,0" id="guide4582" inkscape:locked="false" inkscape:label="" inkscape:color="rgb(189,79,255)"/>
    <sodipodi:guide position="48,-64" orientation="0,1" id="guide4584" inkscape:locked="false" inkscape:label="" inkscape:color="rgb(189,79,255)"/>
    <sodipodi:guide position="0,0" orientation="-0.70710678,0.70710678" id="guide4588" inkscape:locked="false" inkscape:label="" inkscape:color="rgb(189,79,255)"/>
    <sodipodi:guide position="-56,80" orientation="-0.70710678,0.70710678" id="guide4573" inkscape:locked="false" inkscape:label="" inkscape:color="rgb(189,79,255)"/>
    <sodipodi:guide position="-32,48" orientation="-0.70710678,0.70710678" id="guide4575" inkscape:locked="false" inkscape:label="" inkscape:color="rgb(189,79,255)"/>
    <sodipodi:guide position="48,-64" orientation="-0.70710678,0.70710678" id="guide4577" inkscape:locked="false" inkscape:label="" inkscape:color="rgb(189,79,255)"/>
    <sodipodi:guide position="47.999962,0" orientation="0.70710678,0.70710678" id="guide4697" inkscape:locked="false" inkscape:label="" inkscape:color="rgb(189,79,255)"/>
    <sodipodi:guide position="207.99995,-288" orientation="0,1" id="guide7833" inkscape:locked="false"/>
    <sodipodi:guide position="335.99994,-288" orientation="1,0" id="guide7835" inkscape:locked="false" inkscape:label="" inkscape:color="rgb(189,79,255)"/>
    <sodipodi:guide position="111.99996,-64" orientation="1,0" id="guide7915" inkscape:locked="false"/>
    <sodipodi:guide position="111.99996,-160" orientation="0,1" id="guide7917" inkscape:locked="false"/>
    <sodipodi:guide position="207.99996,-160" orientation="1,0" id="guide7919" inkscape:locked="false"/>
    <sodipodi:guide position="111.99996,-160" orientation="-0.70710678,0.70710678" id="guide7921" inkscape:locked="false" inkscape:label="" inkscape:color="rgb(189,79,255)"/>
    <sodipodi:guide position="207.99996,-288" orientation="-0.70710678,0.70710678" id="guide7923" inkscape:locked="false" inkscape:label="" inkscape:color="rgb(189,79,255)"/>
    <sodipodi:guide position="-72,104" orientation="1,0" id="guide7824" inkscape:locked="false"/>
    <sodipodi:guide position="-56,120" orientation="0,1" id="guide7826" inkscape:locked="false"/>
    <sodipodi:guide position="-72,104" orientation="-0.70710678,0.70710678" id="guide7828" inkscape:locked="false" inkscape:label="" inkscape:color="rgb(189,79,255)"/>
  </sodipodi:namedview>
  <g inkscape:groupmode="layer" id="layer3" inkscape:label="icon_48" style="display:inline" transform="translate(6.8969723e-7,-4.5367432e-7)">
    <g inkscape:groupmode="layer" id="layer9" inkscape:label="frame" style="display:none">
      <rect inkscape:label="frame_48" y="4.5367432e-07" x="-6.8969723e-07" height="48" width="48" id="frame_48" style="color:#000000;clip-rule:nonzero;display:block;overflow:visible;visibility:visible;opacity:1;isolation:auto;mix-blend-mode:normal;color-interpolation:sRGB;color-interpolation-filters:linearRGB;solid-color:#000000;solid-opacity:1;vector-effect:none;fill:#000000;fill-opacity:1;fill-rule:nonzero;stroke:#ff24f7;stroke-width:0;stroke-linecap:square;stroke-linejoin:miter;stroke-miterlimit:4;stroke-dasharray:none;stroke-dashoffset:0;stroke-opacity:0.99481865;marker:none;marker-start:none;marker-mid:none;marker-end:none;paint-order:normal;color-rendering:auto;image-rendering:auto;shape-rendering:auto;text-rendering:auto;enable-background:accumulate"/>
      <text xml:space="preserve" style="font-size:18.66666603px;line-height:1000%;font-family:sans-serif;letter-spacing:0px;word-spacing:0px;display:inline;opacity:1;fill:#ffffff;fill-opacity:1;stroke:none;stroke-width:0.11166908px;stroke-linecap:butt;stroke-linejoin:miter;stroke-opacity:1" x="12.301435" y="30.794922" id="txt_48" inkscape:label="txt_48">
        <tspan sodipodi:role="line" x="12.301435" y="30.794922" style="font-size:18.66666603px;fill:#ffffff;fill-opacity:1;stroke:none;stroke-width:0.11166908px" id="tspan5049-1">48</tspan>
      </text>
      <text xml:space="preserve" style="font-size:2.66666675px;line-height:1000%;font-family:sans-serif;letter-spacing:0px;word-spacing:0px;display:inline;opacity:1;fill:#ffffff;fill-opacity:0.44791667;stroke:none;stroke-width:0.0588377px;stroke-linecap:butt;stroke-linejoin:miter;stroke-opacity:1" x="25.824219" y="45.962238" id="txt_scalable_32-64" inkscape:label="txt_scalable_32-64">
        <tspan sodipodi:role="line" x="25.824219" y="45.962238" style="font-size:2.66666675px;fill:#ffffff;fill-opacity:0.44791667;stroke:none;stroke-width:0.0588377px" id="tspan5049-1-6">Scalable:32-64</tspan>
      </text>
    </g>
    <g inkscape:groupmode="layer" id="layer10" inkscape:label="icon" style="display:inline">
      <path inkscape:connector-curvature="0" id="path908-6" d="M 24.570349,0.93618042 A 13.575893,13.575893 0 0 0 11.580792,10.577427 13.575893,13.575893 0 0 0 0.42757565,23.928961 13.575893,13.575893 0 0 0 5.9141986,34.811712 c 1.8336431,1.669634 4.2661104,2.69349 6.9528424,2.69349 h 1.136774 20.091865 0.801233 c 1.904158,0 3.678489,-0.518792 5.207009,-1.410292 A 13.575893,13.575893 0 0 0 47.670906,23.928961 13.575893,13.575893 0 0 0 37.637179,10.839761 13.575893,13.575893 0 0 0 24.570349,0.93618042 Z" style="color:#000000;clip-rule:nonzero;display:block;overflow:visible;visibility:visible;opacity:1;isolation:auto;mix-blend-mode:normal;color-interpolation:sRGB;color-interpolation-filters:linearRGB;solid-color:#000000;solid-opacity:1;vector-effect:none;fill:none;fill-opacity:1;fill-rule:nonzero;stroke:#000000;stroke-width:0.75695086;stroke-linecap:round;stroke-linejoin:miter;stroke-miterlimit:4;stroke-dasharray:none;stroke-dashoffset:0;stroke-opacity:0.06593407;marker:none;marker-start:none;marker-mid:none;marker-end:none;paint-order:markers stroke fill;color-rendering:auto;image-rendering:auto;shape-rendering:auto;text-rendering:auto;enable-background:accumulate" inkscape:label="nube sombra"/>
      <path style="color:#000000;clip-rule:nonzero;display:inline;overflow:visible;visibility:visible;opacity:1;isolation:auto;mix-blend-mode:normal;color-interpolation:sRGB;color-interpolation-filters:linearRGB;solid-color:#000000;solid-opacity:1;vector-effect:none;fill:url(#linearGradient906-9);fill-opacity:1;fill-rule:nonzero;stroke:none;stroke-width:0.23610528;stroke-linecap:round;stroke-linejoin:miter;stroke-miterlimit:4;stroke-dasharray:none;stroke-dashoffset:0;stroke-opacity:1;marker:none;marker-start:none;marker-mid:none;marker-end:none;paint-order:markers stroke fill;color-rendering:auto;image-rendering:auto;shape-rendering:auto;text-rendering:auto;enable-background:accumulate" d="M 24.570349,0.4155815 A 13.575893,13.575893 0 0 0 11.580792,10.056829 13.575893,13.575893 0 0 0 0.42757565,23.408362 13.575893,13.575893 0 0 0 5.9141986,34.291113 c 1.8336431,1.669634 4.2661104,2.69349 6.9528424,2.69349 h 1.136774 20.091865 0.801233 c 1.904158,0 3.678489,-0.518792 5.207009,-1.410292 A 13.575893,13.575893 0 0 0 47.670906,23.408362 13.575893,13.575893 0 0 0 37.637179,10.319163 13.575893,13.575893 0 0 0 24.570349,0.4155815 Z" id="circle886-8" inkscape:connector-curvature="0" inkscape:label="nube"/>
      <path style="color:#000000;clip-rule:nonzero;display:inline;overflow:visible;visibility:visible;opacity:1;isolation:auto;mix-blend-mode:normal;color-interpolation:sRGB;color-interpolation-filters:linearRGB;solid-color:#000000;solid-opacity:1;vector-effect:none;fill:#365a83;fill-opacity:0.21978024;fill-rule:nonzero;stroke:none;stroke-width:0.23610528;stroke-linecap:round;stroke-linejoin:miter;stroke-miterlimit:4;stroke-dasharray:none;stroke-dashoffset:0;stroke-opacity:1;marker:none;marker-start:none;marker-mid:none;marker-end:none;paint-order:markers stroke fill;color-rendering:auto;image-rendering:auto;shape-rendering:auto;text-rendering:auto;enable-background:accumulate" d="m 0.45299128,22.858272 a 13.575893,13.575893 0 0 0 -0.0254052,0.55009 13.575893,13.575893 0 0 0 5.48662292,10.882751 c 1.8336327,1.669634 4.2661,2.69349 6.952832,2.69349 h 1.136774 20.091865 0.801233 c 1.904158,0 3.678489,-0.518792 5.207009,-1.410292 a 13.575893,13.575893 0 0 0 7.566984,-12.165949 13.575893,13.575893 0 0 0 -0.0254,-0.494163 13.575893,13.575893 0 0 1 -7.541563,11.618915 c -1.528536,0.891499 -3.302867,1.410292 -5.207025,1.410292 H 34.09568 14.003815 12.867041 c -2.686732,0 -5.1191993,-1.023857 -6.9528424,-2.693491 A 13.575893,13.575893 0 0 1 0.45299128,22.858272 Z" id="path952-9" inkscape:connector-curvature="0" inkscape:label="nube sombra"/>
      <path inkscape:connector-curvature="0" id="path959-26" d="M 24.570349,0.4155815 A 13.575893,13.575893 0 0 0 11.580792,10.056829 13.575893,13.575893 0 0 0 0.42757565,23.408362 13.575893,13.575893 0 0 0 5.9141986,34.291113 c 1.8336431,1.669634 4.2661104,2.69349 6.9528424,2.69349 h 1.136774 20.091865 0.801233 c 1.904158,0 3.678489,-0.518792 5.207009,-1.410292 A 13.575893,13.575893 0 0 0 47.670906,23.408362 13.575893,13.575893 0 0 0 37.637179,10.319163 13.575893,13.575893 0 0 0 24.570349,0.4155815 Z" style="color:#000000;clip-rule:nonzero;display:inline;overflow:visible;visibility:visible;opacity:1;isolation:auto;mix-blend-mode:normal;color-interpolation:sRGB;color-interpolation-filters:linearRGB;solid-color:#000000;solid-opacity:1;vector-effect:none;fill:url(#radialGradient961-14);fill-opacity:1;fill-rule:nonzero;stroke:none;stroke-width:0.23610528;stroke-linecap:round;stroke-linejoin:miter;stroke-miterlimit:4;stroke-dasharray:none;stroke-dashoffset:0;stroke-opacity:1;marker:none;marker-start:none;marker-mid:none;marker-end:none;paint-order:markers stroke fill;color-rendering:auto;image-rendering:auto;shape-rendering:auto;text-rendering:auto;enable-background:accumulate" inkscape:label="nube brillo"/>
      <path inkscape:label="nube brillo" style="color:#000000;clip-rule:nonzero;display:inline;overflow:visible;visibility:visible;opacity:1;isolation:auto;mix-blend-mode:normal;color-interpolation:sRGB;color-interpolation-filters:linearRGB;solid-color:#000000;solid-opacity:1;vector-effect:none;fill:url(#radialGradient971-88);fill-opacity:1;fill-rule:nonzero;stroke:none;stroke-width:0.23610528;stroke-linecap:round;stroke-linejoin:miter;stroke-miterlimit:4;stroke-dasharray:none;stroke-dashoffset:0;stroke-opacity:1;marker:none;marker-start:none;marker-mid:none;marker-end:none;paint-order:markers stroke fill;color-rendering:auto;image-rendering:auto;shape-rendering:auto;text-rendering:auto;enable-background:accumulate" d="M 24.570349,0.4155815 A 13.575893,13.575893 0 0 0 11.580792,10.056829 13.575893,13.575893 0 0 0 0.42757565,23.408362 13.575893,13.575893 0 0 0 5.9141986,34.291113 c 1.8336431,1.669634 4.2661104,2.69349 6.9528424,2.69349 h 1.136774 20.091865 0.801233 c 1.904158,0 3.678489,-0.518792 5.207009,-1.410292 A 13.575893,13.575893 0 0 0 47.670906,23.408362 13.575893,13.575893 0 0 0 37.637179,10.319163 13.575893,13.575893 0 0 0 24.570349,0.4155815 Z" id="path969-64" inkscape:connector-curvature="0"/>
      <path inkscape:connector-curvature="0" id="path913-95" d="M 24.511272,9.9475548 C 23.687976,9.9471696 22.846558,10.31933 22.22717,11.062682 L 8.1148952,29.781628 c -0.5179751,1.058175 -0.1087271,2.116839 1.3708515,2.116839 H 19.775784 l 3.385049,13.794866 c 0.04805,1.301383 0.527689,2.355247 1.183259,2.355247 0.655574,0 1.135186,-1.053864 1.183258,-2.355247 l 3.386804,-13.794866 h 10.361157 c 1.471837,0 1.47102,-2.002614 1.092087,-2.50329 C 35.808929,23.285147 31.250039,17.176554 26.691561,11.066529 26.139434,10.321699 25.334573,9.9479088 24.511272,9.9475548 Z" style="color:#000000;clip-rule:nonzero;display:inline;overflow:visible;visibility:visible;opacity:1;isolation:auto;mix-blend-mode:normal;color-interpolation:sRGB;color-interpolation-filters:linearRGB;solid-color:#000000;solid-opacity:1;vector-effect:none;fill:#000000;fill-opacity:0.17582421;fill-rule:nonzero;stroke:none;stroke-width:0.2215804;stroke-linecap:round;stroke-linejoin:miter;stroke-miterlimit:4;stroke-dasharray:none;stroke-dashoffset:0;stroke-opacity:1;marker:none;marker-start:none;marker-mid:none;marker-end:none;paint-order:markers stroke fill;color-rendering:auto;image-rendering:auto;shape-rendering:auto;text-rendering:auto;enable-background:accumulate" sodipodi:nodetypes="cccsccsccsccc" inkscape:label="flecha sombra"/>
      <path style="color:#000000;clip-rule:nonzero;display:inline;overflow:visible;visibility:visible;opacity:1;isolation:auto;mix-blend-mode:normal;color-interpolation:sRGB;color-interpolation-filters:linearRGB;solid-color:#000000;solid-opacity:1;vector-effect:none;fill:url(#linearGradient1101-7);fill-opacity:1;fill-rule:nonzero;stroke:none;stroke-width:0.2215804;stroke-linecap:round;stroke-linejoin:miter;stroke-miterlimit:4;stroke-dasharray:none;stroke-dashoffset:0;stroke-opacity:1;marker:none;marker-start:none;marker-mid:none;marker-end:none;paint-order:markers stroke fill;color-rendering:auto;image-rendering:auto;shape-rendering:auto;text-rendering:auto;enable-background:accumulate" d="M 24.511272,7.8310651 C 23.687976,7.8306955 22.846558,8.202856 22.22717,8.9461932 L 8.1148952,27.665144 c -0.5179751,1.058174 -0.1087271,2.116838 1.3708515,2.116838 H 19.775784 l 3.385049,13.794862 c 0.04805,1.301393 0.527689,2.355246 1.183259,2.355246 0.655574,0 1.135186,-1.053853 1.183258,-2.355246 l 3.386804,-13.794862 h 10.361157 c 1.471837,0 1.47102,-2.002614 1.092087,-2.503295 C 35.808929,21.168657 31.250039,15.06008 26.691561,8.9500456 26.139434,8.2052144 25.334573,7.8314295 24.511272,7.8310651 Z" id="rect892-0" inkscape:connector-curvature="0" sodipodi:nodetypes="cccsccsccsccc" inkscape:label="flecha"/>
      <path style="color:#000000;clip-rule:nonzero;display:inline;overflow:visible;visibility:visible;opacity:1;isolation:auto;mix-blend-mode:normal;color-interpolation:sRGB;color-interpolation-filters:linearRGB;solid-color:#000000;solid-opacity:1;vector-effect:none;fill:#5d0a0a;fill-opacity:0.43406593;fill-rule:nonzero;stroke:none;stroke-width:0.2215804;stroke-linecap:round;stroke-linejoin:miter;stroke-miterlimit:4;stroke-dasharray:none;stroke-dashoffset:0;stroke-opacity:1;marker:none;marker-start:none;marker-mid:none;marker-end:none;paint-order:markers stroke fill;color-rendering:auto;image-rendering:auto;shape-rendering:auto;text-rendering:auto;enable-background:accumulate" d="m 40.54488,27.791279 c -0.09292,0.640415 -0.446205,1.268794 -1.270204,1.268794 H 28.914086 L 25.52758,42.853664 c -0.04805,1.301393 -0.527825,2.355517 -1.183395,2.355517 -0.655569,0 -1.135311,-1.054124 -1.183389,-2.355517 L 19.775706,29.060073 H 9.4856738 c -0.8921868,0 -1.3889163,-0.388174 -1.5341165,-0.925833 -0.2020705,0.880004 0.275704,1.648434 1.5341165,1.648434 H 19.775706 l 3.38509,13.793592 c 0.0481,1.301388 0.52782,2.355528 1.183389,2.355528 0.65557,0 1.135322,-1.05414 1.183395,-2.355528 l 3.386506,-13.793592 h 10.36059 c 1.151107,0 1.397032,-1.218029 1.270204,-1.991395 z" id="path973-48" inkscape:connector-curvature="0" inkscape:label="flecha sombtop" sodipodi:nodetypes="csccsccscsccsccsc"/>
      <path style="color:#000000;clip-rule:nonzero;display:inline;overflow:visible;visibility:visible;opacity:1;isolation:auto;mix-blend-mode:normal;color-interpolation:sRGB;color-interpolation-filters:linearRGB;solid-color:#000000;solid-opacity:1;vector-effect:none;fill:#ff0000;fill-opacity:0.36263739;fill-rule:nonzero;stroke:none;stroke-width:0.2215804;stroke-linecap:round;stroke-linejoin:miter;stroke-miterlimit:4;stroke-dasharray:none;stroke-dashoffset:0;stroke-opacity:1;marker:none;marker-start:none;marker-mid:none;marker-end:none;paint-order:markers stroke fill;color-rendering:auto;image-rendering:auto;shape-rendering:auto;text-rendering:auto;enable-background:accumulate" d="M 24.51135,7.8317315 C 23.688048,7.8313671 22.846995,8.2036213 22.227597,8.9469741 L 8.1152388,27.665544 C 7.9029646,28.099198 7.8561107,28.528 7.9651397,28.888921 c 0.035557,-0.131259 0.084811,-0.263679 0.1500991,-0.39704 L 22.227597,9.7733156 c 0.619398,-0.7433528 1.460451,-1.1156123 2.283753,-1.1152375 0.82329,3.645e-4 1.628313,0.3736339 2.180435,1.1184652 4.558473,6.1100287 9.116525,12.2179717 13.674993,18.3280017 0.07693,0.101647 0.132857,0.275141 0.16946,0.471261 0.09069,-0.523207 0.0047,-1.068071 -0.16946,-1.297608 C 35.80831,21.168168 31.250258,15.060231 26.691785,8.9501966 26.139663,8.2053653 25.33464,7.8320959 24.51135,7.8317315 Z" id="path1100-7" inkscape:connector-curvature="0" sodipodi:nodetypes="ccccccccccccc" inkscape:label="flecha brillo"/>
      <path style="display:inline;fill:#000000;fill-opacity:0.2857143;stroke-width:0.08083554" inkscape:connector-curvature="0" id="path1103-1" d="m 29.497209,19.751197 h -7.0493 l 0.367814,-1.721126 h 4.296471 l 0.394166,-1.852562 h -6.175453 l -1.944609,9.170975 h 1.865717 l 0.853959,-4.007441 h 4.475131 l -3.888587,3.849725 0.683234,1.208721 c 0.315264,-0.210165 0.827778,-0.236518 1.182488,-0.236518 0.630768,0 1.248287,0.210322 1.891903,0.210322 0.590115,0 1.194364,-0.03946 2.17993,-0.512483 l 0.344361,-1.616043 c -0.670136,0.275813 -1.661846,0.538685 -2.524291,0.538685 -0.354548,0 -0.683072,-0.07882 -1.024689,-0.131358 l 3.769422,-3.665839 0.302333,-1.235137 z" inkscape:label="logo sombra"/>
      <path d="m 29.497209,19.21373 h -7.0493 l 0.367814,-1.721121 h 4.296471 l 0.394166,-1.852561 h -6.175453 l -1.944609,9.170969 h 1.865717 l 0.853959,-4.00744 h 4.475131 l -3.888587,3.84973 0.683234,1.208721 c 0.315264,-0.210171 0.827778,-0.236523 1.182488,-0.236523 0.630768,0 1.248287,0.210327 1.891903,0.210327 0.590115,0 1.194364,-0.03946 2.17993,-0.512488 l 0.344361,-1.616043 c -0.670136,0.275808 -1.661846,0.538684 -2.524291,0.538684 -0.354548,0 -0.683072,-0.07882 -1.024689,-0.131352 l 3.769422,-3.665839 0.302333,-1.235142 z" id="path9-7" inkscape:connector-curvature="0" style="display:inline;fill:#ffffff;stroke-width:0.08083554" inkscape:label="logo"/>
    </g>
  </g>
</svg>