<?xml version="1.0" encoding="UTF-8" standalone="yes"?>
<svg xmlns:osb="http://www.openswatchbook.org/uri/2009/osb" xmlns:dc="http://purl.org/dc/elements/1.1/" xmlns:cc="http://creativecommons.org/ns#" xmlns:rdf="http://www.w3.org/1999/02/22-rdf-syntax-ns#" xmlns:svg="http://www.w3.org/2000/svg" xmlns="http://www.w3.org/2000/svg" xmlns:xlink="http://www.w3.org/1999/xlink" xmlns:sodipodi="http://sodipodi.sourceforge.net/DTD/sodipodi-0.dtd" xmlns:inkscape="http://www.inkscape.org/namespaces/inkscape" height="48" viewBox="0 0 48 48" width="48" id="svg2" version="1.1" inkscape:version="0.92.1 r" sodipodi:docname="gnome-tweak-tool.svg" enable-background="new" folder="48">
  <title id="title4675">Template icons dark</title>
  <metadata id="metadata24">
    <rdf:RDF>
      <cc:Work rdf:about="">
        <dc:format>image/svg+xml</dc:format>
        <dc:type rdf:resource="http://purl.org/dc/dcmitype/StillImage"/>
        <dc:title>Template icons dark</dc:title>
        <dc:date>17/05/13</dc:date>
        <dc:creator>
          <cc:Agent>
            <dc:title>wfpaisa</dc:title>
          </cc:Agent>
        </dc:creator>
        <dc:rights>
          <cc:Agent>
            <dc:title>License: GPLv3</dc:title>
          </cc:Agent>
        </dc:rights>
        <dc:language>es-en</dc:language>
        <dc:subject>
          <rdf:Bag>
            <rdf:li>plane-icon-theme</rdf:li>
          </rdf:Bag>
        </dc:subject>
        <dc:description>Template for create set icons</dc:description>
        <cc:license rdf:resource="https://www.gnu.org/licenses/gpl-3.0.en.html"/>
      </cc:Work>
    </rdf:RDF>
  </metadata>
  <defs id="defs22">
    <linearGradient inkscape:collect="always" id="linearGradient8106">
      <stop style="stop-color:#d6dee0;stop-opacity:1" offset="0" id="stop8102"/>
      <stop style="stop-color:#ffffff;stop-opacity:0.47395834" offset="1" id="stop8104"/>
    </linearGradient>
    <linearGradient inkscape:collect="always" id="linearGradient8067">
      <stop style="stop-color:#403d60;stop-opacity:0.39607844" offset="0" id="stop8063"/>
      <stop style="stop-color:#000000;stop-opacity:0.07291666" offset="1" id="stop8065"/>
    </linearGradient>
    <linearGradient inkscape:collect="always" id="linearGradient8024">
      <stop style="stop-color:#c3ced1;stop-opacity:1" offset="0" id="stop8020"/>
      <stop style="stop-color:#f6f6f6;stop-opacity:1" offset="1" id="stop8022"/>
    </linearGradient>
    <linearGradient y2="6.7686791" x2="35.035843" y1="56.762737" x1="35.035843" gradientTransform="matrix(1.6693351,0,0,1.6746213,105.59431,107.20584)" gradientUnits="userSpaceOnUse" id="linearGradient6333" xlink:href="#linearGradient4471" inkscape:collect="always"/>
    <linearGradient id="linearGradient4471" inkscape:collect="always">
      <stop id="stop4473" offset="0" style="stop-color:#c9cfd1;stop-opacity:1"/>
      <stop id="stop4475" offset="1" style="stop-color:#ffffff;stop-opacity:1"/>
    </linearGradient>
    <linearGradient inkscape:collect="always" xlink:href="#selected_bg_color-black-2" id="linearGradient5867" gradientUnits="userSpaceOnUse" gradientTransform="matrix(1.1171118,0,0,1.1171118,312.64102,226.92818)" x1="-49.095852" y1="1041.1797" x2="-9.0958519" y2="1041.1797"/>
    <linearGradient id="selected_bg_color-black-2" osb:paint="solid">
      <stop style="stop-color:#2d393e;stop-opacity:0.11731844;" offset="0" id="stop5669"/>
    </linearGradient>
    <linearGradient inkscape:collect="always" xlink:href="#linearGradient9158" id="linearGradient8839-2" gradientUnits="userSpaceOnUse" gradientTransform="matrix(1.1665482,0,0,1.1545765,-1043.0007,-286.56471)" x1="1031.269" y1="365.65402" x2="1031.269" y2="380.15897"/>
    <linearGradient id="linearGradient9158">
      <stop style="stop-color:#000000;stop-opacity:0.20394737;" offset="0" id="stop9154"/>
      <stop style="stop-color:#000000;stop-opacity:0;" offset="1" id="stop9156"/>
    </linearGradient>
    <linearGradient inkscape:collect="always" xlink:href="#linearGradient9037" id="linearGradient9139" gradientUnits="userSpaceOnUse" gradientTransform="matrix(2.2252964,0,0,2.2252964,1436.4683,606.64496)" x1="-578.64746" y1="-204.78363" x2="-578.64746" y2="-214.62181"/>
    <linearGradient id="linearGradient9037" inkscape:collect="always">
      <stop id="stop9033" offset="0" style="stop-color:#dce1e8;stop-opacity:1"/>
      <stop id="stop9035" offset="1" style="stop-color:#ffffff;stop-opacity:1"/>
    </linearGradient>
    <linearGradient inkscape:collect="always" xlink:href="#selected_bg_color-4" id="linearGradient9055" gradientUnits="userSpaceOnUse" gradientTransform="matrix(0.89368935,0,0,0.89882962,135.66773,-754.15356)"/>
    <linearGradient id="selected_bg_color-4" osb:paint="solid">
      <stop style="stop-color:#33d351;stop-opacity:1;" offset="0" id="stop5956-1"/>
    </linearGradient>
    <linearGradient inkscape:collect="always" xlink:href="#linearGradient9158" id="linearGradient9057" gradientUnits="userSpaceOnUse" gradientTransform="matrix(1.1665482,0,0,0.92897385,-1044.1175,-161.78384)" x1="1031.269" y1="365.65402" x2="1031.269" y2="380.15897"/>
    <linearGradient inkscape:collect="always" xlink:href="#linearGradient9037" id="linearGradient8841" gradientUnits="userSpaceOnUse" gradientTransform="matrix(1.9920088,0,0,1.9920088,135.67203,147.62388)" x1="17.92" y1="19.84" x2="17.92" y2="11.306667"/>
    <linearGradient inkscape:collect="always" xlink:href="#linearGradient8024" id="linearGradient8010" x1="162.55118" y1="202.92914" x2="162.55118" y2="116" gradientUnits="userSpaceOnUse"/>
    <linearGradient inkscape:collect="always" xlink:href="#linearGradient8067" id="linearGradient8069" x1="160.30061" y1="202.34253" x2="160.42194" y2="115.35233" gradientUnits="userSpaceOnUse"/>
    <linearGradient gradientTransform="translate(-123.99997,-124)" inkscape:collect="always" xlink:href="#linearGradient8106" id="linearGradient8108-3" x1="160" y1="126.11024" x2="160" y2="194.14174" gradientUnits="userSpaceOnUse"/>
    <linearGradient inkscape:collect="always" xlink:href="#linearGradient9037" id="linearGradient33841" gradientUnits="userSpaceOnUse" gradientTransform="matrix(2.2252964,0,0,2.2252964,131.77023,147.33947)" x1="17.92" y1="19.84" x2="17.92" y2="11.306667"/>
    <linearGradient gradientTransform="matrix(0.68884547,0,0,0.68884547,-30.217202,-30.213324)" inkscape:collect="always" xlink:href="#linearGradient8024" id="linearGradient8010-3" x1="162.55118" y1="202.92914" x2="162.55118" y2="116" gradientUnits="userSpaceOnUse"/>
    <linearGradient inkscape:collect="always" xlink:href="#selected_bg_color-4" id="linearGradient9055-2" gradientUnits="userSpaceOnUse" gradientTransform="matrix(0.70887596,0,0,0.71295325,61.343185,-647.94897)"/>
    <linearGradient inkscape:collect="always" xlink:href="#linearGradient9158" id="linearGradient9057-1" gradientUnits="userSpaceOnUse" gradientTransform="matrix(0.92530814,0,0,0.73686371,-874.46461,-178.08027)" x1="1031.269" y1="365.65402" x2="1031.269" y2="380.15897"/>
    <linearGradient inkscape:collect="always" xlink:href="#linearGradient9037" id="linearGradient33841-0" gradientUnits="userSpaceOnUse" gradientTransform="matrix(1.7651089,0,0,1.7651089,58.251688,67.116911)" x1="17.92" y1="19.84" x2="17.92" y2="11.306667"/>
    <linearGradient inkscape:collect="always" xlink:href="#selected_bg_color-black-2" id="linearGradient5867-6" gradientUnits="userSpaceOnUse" gradientTransform="matrix(0.88609498,0,0,0.88609498,201.71872,134.24116)" x1="-49.095852" y1="1041.1797" x2="-9.0958519" y2="1041.1797"/>
    <linearGradient inkscape:collect="always" xlink:href="#linearGradient9158" id="linearGradient8839-2-6" gradientUnits="userSpaceOnUse" gradientTransform="matrix(0.92530814,0,0,0.91581213,-873.57869,-273.0623)" x1="1031.269" y1="365.65402" x2="1031.269" y2="380.15897"/>
    <linearGradient inkscape:collect="always" xlink:href="#linearGradient9037" id="linearGradient9139-2" gradientUnits="userSpaceOnUse" gradientTransform="matrix(1.7651089,0,0,1.7651089,1093.1405,435.4332)" x1="-578.64746" y1="-204.78363" x2="-578.64746" y2="-214.62181"/>
    <linearGradient inkscape:collect="always" xlink:href="#linearGradient9037" id="linearGradient9139-2-6" gradientUnits="userSpaceOnUse" gradientTransform="matrix(1.1791557,0,0,1.1791557,700.88405,260.05192)" x1="-578.64746" y1="-204.78363" x2="-578.64746" y2="-214.62181"/>
    <linearGradient inkscape:collect="always" xlink:href="#linearGradient9158" id="linearGradient8839-2-6-7" gradientUnits="userSpaceOnUse" gradientTransform="matrix(0.61813885,0,0,0.61179518,-612.95454,-213.24836)" x1="1031.269" y1="365.65402" x2="1031.269" y2="380.15897"/>
    <linearGradient inkscape:collect="always" xlink:href="#selected_bg_color-black-2" id="linearGradient5867-6-0" gradientUnits="userSpaceOnUse" gradientTransform="matrix(0.59194306,0,0,0.59194306,105.3825,58.844884)" x1="-49.095852" y1="1041.1797" x2="-9.0958519" y2="1041.1797"/>
    <linearGradient inkscape:collect="always" xlink:href="#linearGradient9037" id="linearGradient33841-0-3" gradientUnits="userSpaceOnUse" gradientTransform="matrix(1.1791557,0,0,1.1791557,9.5414004,16.895052)" x1="17.92" y1="19.84" x2="17.92" y2="11.306667"/>
    <linearGradient inkscape:collect="always" xlink:href="#linearGradient9158" id="linearGradient9057-1-7" gradientUnits="userSpaceOnUse" gradientTransform="matrix(0.61813885,0,0,0.49225125,-613.54637,-146.9054)" x1="1031.269" y1="365.65402" x2="1031.269" y2="380.15897"/>
    <linearGradient inkscape:collect="always" xlink:href="#selected_bg_color-4" id="linearGradient9055-2-5" gradientUnits="userSpaceOnUse" gradientTransform="matrix(0.47355443,0,0,0.47627821,11.60663,-460.79445)"/>
    <linearGradient gradientTransform="matrix(0.5332996,0,0,0.5332996,-61.329426,-61.326426)" inkscape:collect="always" xlink:href="#linearGradient8024" id="linearGradient8010-3-2" x1="162.55118" y1="202.92914" x2="162.55118" y2="116" gradientUnits="userSpaceOnUse"/>
    <linearGradient inkscape:collect="always" xlink:href="#linearGradient9037" id="linearGradient9139-6" gradientUnits="userSpaceOnUse" gradientTransform="matrix(2.6558437,0,0,2.6558437,1796.6932,803.67182)" x1="-578.64746" y1="-204.78363" x2="-578.64746" y2="-214.62181"/>
    <linearGradient inkscape:collect="always" xlink:href="#linearGradient9158" id="linearGradient8839-2-0" gradientUnits="userSpaceOnUse" gradientTransform="matrix(1.3922505,0,0,1.3779624,-1162.5002,-262.35488)" x1="1031.269" y1="365.65402" x2="1031.269" y2="380.15897"/>
    <linearGradient inkscape:collect="always" xlink:href="#selected_bg_color-black-2" id="linearGradient5867-5" gradientUnits="userSpaceOnUse" gradientTransform="matrix(1.333249,0,0,1.333249,455.42926,350.48792)" x1="-49.095852" y1="1041.1797" x2="-9.0958519" y2="1041.1797"/>
    <linearGradient inkscape:collect="always" xlink:href="#linearGradient9037" id="linearGradient33841-4" gradientUnits="userSpaceOnUse" gradientTransform="matrix(2.6558437,0,0,2.6558437,239.56383,255.50051)" x1="17.92" y1="19.84" x2="17.92" y2="11.306667"/>
    <linearGradient inkscape:collect="always" xlink:href="#linearGradient9158" id="linearGradient9057-7" gradientUnits="userSpaceOnUse" gradientTransform="matrix(1.3922505,0,0,1.1087105,-1163.8332,-113.43158)" x1="1031.269" y1="365.65402" x2="1031.269" y2="380.15897"/>
    <linearGradient inkscape:collect="always" xlink:href="#selected_bg_color-4" id="linearGradient9055-6" gradientUnits="userSpaceOnUse" gradientTransform="matrix(1.0665992,0,0,1.072734,244.2154,-820.4122)"/>
    <linearGradient gradientTransform="matrix(1.333249,0,0,1.333249,58.679234,58.681115)" inkscape:collect="always" xlink:href="#linearGradient8024" id="linearGradient8010-6" x1="162.55118" y1="202.92914" x2="162.55118" y2="116" gradientUnits="userSpaceOnUse"/>
    <linearGradient inkscape:collect="always" xlink:href="#linearGradient9037" id="linearGradient9139-2-6-9" gradientUnits="userSpaceOnUse" gradientTransform="matrix(0.79897004,0,0,0.79897004,442.50704,144.34584)" x1="-578.64746" y1="-204.78363" x2="-578.64746" y2="-214.62181"/>
    <linearGradient inkscape:collect="always" xlink:href="#linearGradient9037" id="linearGradient33841-0-3-6" gradientUnits="userSpaceOnUse" gradientTransform="matrix(0.79533722,0,0,0.79533722,-25.858265,-21.322208)" x1="17.92" y1="19.84" x2="17.92" y2="11.306667"/>
    <linearGradient inkscape:collect="always" xlink:href="#selected_bg_color-4" id="linearGradient9055-2-5-9" gradientUnits="userSpaceOnUse" gradientTransform="matrix(0.31941113,0,0,0.32124832,-24.465273,-343.52246)"/>
    <linearGradient gradientTransform="matrix(0.35553307,0,0,0.35553307,-72.886291,-72.884281)" inkscape:collect="always" xlink:href="#linearGradient8024" id="linearGradient8010-3-2-0" x1="162.55118" y1="202.92914" x2="162.55118" y2="116" gradientUnits="userSpaceOnUse"/>
    <linearGradient inkscape:collect="always" xlink:href="#linearGradient9037" id="linearGradient9139-2-6-9-7" gradientUnits="userSpaceOnUse" gradientTransform="matrix(0.59922752,0,0,0.59922752,299.88027,76.259378)" x1="-578.64746" y1="-204.78363" x2="-578.64746" y2="-214.62181"/>
    <linearGradient inkscape:collect="always" xlink:href="#linearGradient9037" id="linearGradient33841-0-3-6-5" gradientUnits="userSpaceOnUse" gradientTransform="matrix(0.59650291,0,0,0.59650291,-51.393699,-47.991657)" x1="17.92" y1="19.84" x2="17.92" y2="11.306667"/>
    <linearGradient inkscape:collect="always" xlink:href="#selected_bg_color-4" id="linearGradient9055-2-5-9-9" gradientUnits="userSpaceOnUse" gradientTransform="matrix(0.23955834,0,0,0.24093624,-50.348955,-289.64187)"/>
    <linearGradient gradientTransform="matrix(0.2666498,0,0,0.2666498,-86.664717,-86.663211)" inkscape:collect="always" xlink:href="#linearGradient8024" id="linearGradient8010-3-2-0-7" x1="162.55118" y1="202.92914" x2="162.55118" y2="116" gradientUnits="userSpaceOnUse"/>
    <linearGradient gradientTransform="matrix(0.193927,0,0,0.193927,-95.028862,-95.027772)" inkscape:collect="always" xlink:href="#linearGradient8024" id="linearGradient8010-3-2-0-7-8" x1="162.55118" y1="202.92914" x2="162.55118" y2="116" gradientUnits="userSpaceOnUse"/>
    <linearGradient inkscape:collect="always" xlink:href="#selected_bg_color-4" id="linearGradient9055-2-5-9-9-0" gradientUnits="userSpaceOnUse" gradientTransform="matrix(0.19448357,0,0,0.19560221,-69.167343,-264.47742)"/>
    <symbol id="icon-search" viewBox="0 0 26 28">
      <title id="title12944">search</title>
      <path d="M18 13c0-3.859-3.141-7-7-7s-7 3.141-7 7 3.141 7 7 7 7-3.141 7-7zM26 26c0 1.094-0.906 2-2 2-0.531 0-1.047-0.219-1.406-0.594l-5.359-5.344c-1.828 1.266-4.016 1.937-6.234 1.937-6.078 0-11-4.922-11-11s4.922-11 11-11 11 4.922 11 11c0 2.219-0.672 4.406-1.937 6.234l5.359 5.359c0.359 0.359 0.578 0.875 0.578 1.406z" id="path12946"/>
    </symbol>
    <symbol id="icon-sliders" viewBox="0 0 24 28">
      <title id="title15089">sliders</title>
      <path d="M5.5 22v2h-5.5v-2h5.5zM11 20c0.547 0 1 0.453 1 1v4c0 0.547-0.453 1-1 1h-4c-0.547 0-1-0.453-1-1v-4c0-0.547 0.453-1 1-1h4zM13.5 14v2h-13.5v-2h13.5zM3.5 6v2h-3.5v-2h3.5zM24 22v2h-11.5v-2h11.5zM9 4c0.547 0 1 0.453 1 1v4c0 0.547-0.453 1-1 1h-4c-0.547 0-1-0.453-1-1v-4c0-0.547 0.453-1 1-1h4zM19 12c0.547 0 1 0.453 1 1v4c0 0.547-0.453 1-1 1h-4c-0.547 0-1-0.453-1-1v-4c0-0.547 0.453-1 1-1h4zM24 14v2h-3.5v-2h3.5zM24 6v2h-13.5v-2h13.5z" id="path15091"/>
    </symbol>
  </defs>
  <sodipodi:namedview pagecolor="#383c4a" bordercolor="#ffffff" borderopacity="0.62745098" objecttolerance="4" gridtolerance="10" guidetolerance="4" inkscape:pageopacity="0" inkscape:pageshadow="2" inkscape:window-width="640" inkscape:window-height="480" id="namedview20" showgrid="true" inkscape:zoom="1.4789492" inkscape:cx="185.69572" inkscape:cy="-120.06035" inkscape:current-layer="layer12" inkscape:snap-smooth-nodes="true" showguides="true" borderlayer="true" inkscape:showpageshadow="false" inkscape:guide-bbox="true" guidecolor="#bd4fff" guideopacity="0.78431373" inkscape:snap-nodes="true" inkscape:lockguides="false" fit-margin-top="0" fit-margin-left="0" fit-margin-right="0" fit-margin-bottom="0" guidehicolor="#ff0101" guidehiopacity="0.78431373" inkscape:snap-page="true" inkscape:object-nodes="true" inkscape:snap-bbox="true" inkscape:snap-global="true" inkscape:snap-object-midpoints="false" inkscape:snap-bbox-edge-midpoints="false">
    <inkscape:grid type="xygrid" id="grid4171" empspacing="4" dotted="false" originx="2.7755576e-17" originy="0" spacingx="1" spacingy="1" color="#5a5a5a" opacity="0.23529412" empcolor="#5a5a5a" empopacity="0.47058824" visible="true"/>
    <inkscape:grid type="axonomgrid" id="grid4699" units="mm" empspacing="4" color="#5a5a5a" opacity="0.23529412" empcolor="#5a5a5a" empopacity="0.47058824" gridanglex="45" gridanglez="45" spacingy="3.7795276" visible="false" originx="1.3228346" originy="1.3228346"/>
    <sodipodi:guide position="48,0" orientation="1,0" id="guide4568" inkscape:locked="false" inkscape:label="" inkscape:color="rgb(189,79,255)"/>
    <sodipodi:guide position="111.99996,-3.9999999e-05" orientation="0,1" id="guide4570" inkscape:locked="false" inkscape:label="" inkscape:color="rgb(189,79,255)"/>
    <sodipodi:guide position="0,0" orientation="1,0" id="guide4572" inkscape:locked="false" inkscape:label="" inkscape:color="rgb(189,79,255)"/>
    <sodipodi:guide position="0,48" orientation="0,1" id="guide4574" inkscape:locked="false" inkscape:label="" inkscape:color="rgb(189,79,255)"/>
    <sodipodi:guide position="0,80" orientation="0,1" id="guide4576" inkscape:locked="false" inkscape:label="" inkscape:color="rgb(189,79,255)"/>
    <sodipodi:guide position="-32,48" orientation="1,0" id="guide4578" inkscape:locked="false" inkscape:label="" inkscape:color="rgb(189,79,255)"/>
    <sodipodi:guide position="-32,104" orientation="0,1" id="guide4580" inkscape:locked="false" inkscape:label="" inkscape:color="rgb(189,79,255)"/>
    <sodipodi:guide position="-56,80" orientation="1,0" id="guide4582" inkscape:locked="false" inkscape:label="" inkscape:color="rgb(189,79,255)"/>
    <sodipodi:guide position="48,-64" orientation="0,1" id="guide4584" inkscape:locked="false" inkscape:label="" inkscape:color="rgb(189,79,255)"/>
    <sodipodi:guide position="0,0" orientation="-0.70710678,0.70710678" id="guide4588" inkscape:locked="false" inkscape:label="" inkscape:color="rgb(189,79,255)"/>
    <sodipodi:guide position="-56,80" orientation="-0.70710678,0.70710678" id="guide4573" inkscape:locked="false" inkscape:label="" inkscape:color="rgb(189,79,255)"/>
    <sodipodi:guide position="-32,48" orientation="-0.70710678,0.70710678" id="guide4575" inkscape:locked="false" inkscape:label="" inkscape:color="rgb(189,79,255)"/>
    <sodipodi:guide position="48,-64" orientation="-0.70710678,0.70710678" id="guide4577" inkscape:locked="false" inkscape:label="" inkscape:color="rgb(189,79,255)"/>
    <sodipodi:guide position="47.999962,0" orientation="0.70710678,0.70710678" id="guide4697" inkscape:locked="false" inkscape:label="" inkscape:color="rgb(189,79,255)"/>
    <sodipodi:guide position="207.99995,-288" orientation="0,1" id="guide7833" inkscape:locked="false"/>
    <sodipodi:guide position="335.99994,-288" orientation="1,0" id="guide7835" inkscape:locked="false" inkscape:label="" inkscape:color="rgb(189,79,255)"/>
    <sodipodi:guide position="111.99996,-64" orientation="1,0" id="guide7915" inkscape:locked="false"/>
    <sodipodi:guide position="111.99996,-160" orientation="0,1" id="guide7917" inkscape:locked="false"/>
    <sodipodi:guide position="207.99996,-160" orientation="1,0" id="guide7919" inkscape:locked="false"/>
    <sodipodi:guide position="111.99996,-160" orientation="-0.70710678,0.70710678" id="guide7921" inkscape:locked="false" inkscape:label="" inkscape:color="rgb(189,79,255)"/>
    <sodipodi:guide position="207.99996,-288" orientation="-0.70710678,0.70710678" id="guide7923" inkscape:locked="false" inkscape:label="" inkscape:color="rgb(189,79,255)"/>
    <sodipodi:guide position="-72,104" orientation="1,0" id="guide7824" inkscape:locked="false"/>
    <sodipodi:guide position="-56,120" orientation="0,1" id="guide7826" inkscape:locked="false"/>
    <sodipodi:guide position="-72,104" orientation="-0.70710678,0.70710678" id="guide7828" inkscape:locked="false" inkscape:label="" inkscape:color="rgb(189,79,255)"/>
  </sodipodi:namedview>
  <g inkscape:groupmode="layer" id="layer3" inkscape:label="icon_48" style="display:inline" transform="translate(6.8969723e-7,-4.5367432e-7)">
    <g inkscape:groupmode="layer" id="layer9" inkscape:label="frame" style="display:none">
      <rect inkscape:label="frame_48" y="4.5367432e-07" x="-6.8969723e-07" height="48" width="48" id="frame_48" style="color:#000000;clip-rule:nonzero;display:block;overflow:visible;visibility:visible;opacity:1;isolation:auto;mix-blend-mode:normal;color-interpolation:sRGB;color-interpolation-filters:linearRGB;solid-color:#000000;solid-opacity:1;vector-effect:none;fill:#000000;fill-opacity:1;fill-rule:nonzero;stroke:#ff24f7;stroke-width:0;stroke-linecap:square;stroke-linejoin:miter;stroke-miterlimit:4;stroke-dasharray:none;stroke-dashoffset:0;stroke-opacity:0.99481865;marker:none;marker-start:none;marker-mid:none;marker-end:none;paint-order:normal;color-rendering:auto;image-rendering:auto;shape-rendering:auto;text-rendering:auto;enable-background:accumulate"/>
      <text xml:space="preserve" style="font-size:18.66666603px;line-height:1000%;font-family:sans-serif;letter-spacing:0px;word-spacing:0px;display:inline;opacity:1;fill:#ffffff;fill-opacity:1;stroke:none;stroke-width:0.11166908px;stroke-linecap:butt;stroke-linejoin:miter;stroke-opacity:1" x="12.301435" y="30.794922" id="txt_48" inkscape:label="txt_48">
        <tspan sodipodi:role="line" x="12.301435" y="30.794922" style="font-size:18.66666603px;fill:#ffffff;fill-opacity:1;stroke:none;stroke-width:0.11166908px" id="tspan5049-1">48</tspan>
      </text>
      <text xml:space="preserve" style="font-size:2.66666675px;line-height:1000%;font-family:sans-serif;letter-spacing:0px;word-spacing:0px;display:inline;opacity:1;fill:#ffffff;fill-opacity:0.44791667;stroke:none;stroke-width:0.0588377px;stroke-linecap:butt;stroke-linejoin:miter;stroke-opacity:1" x="25.824219" y="45.962238" id="txt_scalable_32-64" inkscape:label="txt_scalable_32-64">
        <tspan sodipodi:role="line" x="25.824219" y="45.962238" style="font-size:2.66666675px;fill:#ffffff;fill-opacity:0.44791667;stroke:none;stroke-width:0.0588377px" id="tspan5049-1-6">Scalable:32-64</tspan>
      </text>
    </g>
    <g inkscape:groupmode="layer" id="layer10" inkscape:label="icon" style="display:inline">
      <path inkscape:label="base sombra" style="color:#000000;clip-rule:nonzero;display:inline;overflow:visible;visibility:visible;opacity:1;isolation:auto;mix-blend-mode:normal;color-interpolation:sRGB;color-interpolation-filters:linearRGB;solid-color:#000000;solid-opacity:1;vector-effect:none;fill:#000000;fill-opacity:0.09895833;fill-rule:nonzero;stroke:none;stroke-width:0.53329957;stroke-linecap:butt;stroke-linejoin:miter;stroke-miterlimit:4;stroke-dasharray:none;stroke-dashoffset:0;stroke-opacity:0.45833333;marker:none;marker-start:none;marker-mid:none;marker-end:none;paint-order:fill markers stroke;color-rendering:auto;image-rendering:auto;shape-rendering:auto;text-rendering:auto;enable-background:accumulate" d="M 4.0984518,0.00302954 H 43.898536 c 2.270539,0 4.188069,1.82967586 4.098448,4.09844486 V 43.901545 c -8e-6,2.270538 -1.827909,4.098448 -4.098448,4.098448 H 4.0984518 C 1.827913,47.999993 1.418062e-6,46.172083 6.8374156e-6,43.901545 V 4.1014744 C 1.418062e-6,1.8309348 1.8296936,-0.08685276 4.0984518,0.00302954 Z" id="path33850-9" inkscape:connector-curvature="0" sodipodi:nodetypes="ccccccccc"/>
      <path inkscape:label="base" sodipodi:nodetypes="ccccccccc" inkscape:connector-curvature="0" id="path33852-7" d="m 5,1 h 38 c 2.270539,0 4,1.7294612 4,4 l -1.5e-5,37.533559 C 46.999977,44.804098 45.270539,46.978765 43,46.978765 L 5,47 C 2.7294612,47 0.9999791,44.804098 0.9999791,42.533559 L 1,5 C 0.99999458,2.7294612 2.7294612,1 5,1 Z" style="color:#000000;clip-rule:nonzero;display:inline;overflow:visible;visibility:visible;opacity:1;isolation:auto;mix-blend-mode:normal;color-interpolation:sRGB;color-interpolation-filters:linearRGB;solid-color:#000000;solid-opacity:1;vector-effect:none;fill:url(#linearGradient8010-3-2);fill-opacity:1;fill-rule:nonzero;stroke:none;stroke-width:0.53329957;stroke-linecap:butt;stroke-linejoin:miter;stroke-miterlimit:4;stroke-dasharray:none;stroke-dashoffset:0;stroke-opacity:0.45833333;marker:none;marker-start:none;marker-mid:none;marker-end:none;paint-order:fill markers stroke;color-rendering:auto;image-rendering:auto;shape-rendering:auto;text-rendering:auto;enable-background:accumulate"/>
      <path inkscape:label="base brillo inferior" sodipodi:nodetypes="csccscccc" inkscape:connector-curvature="0" id="path33854-3" d="m 1,42 v 0.533303 C 1,44.803842 2.7297383,47 5.0002779,47 L 43,46.978765 c 2.270144,-0.04219 4,-2.174923 4,-4.445462 V 42 c 0,2.270539 -1.731032,3.915628 -4,4 H 5 C 2.7294604,46 1,44.270539 1,42 Z" style="color:#000000;clip-rule:nonzero;display:inline;overflow:visible;visibility:visible;opacity:1;isolation:auto;mix-blend-mode:normal;color-interpolation:sRGB;color-interpolation-filters:linearRGB;solid-color:#000000;solid-opacity:1;vector-effect:none;fill:#ffffff;fill-opacity:0.54166667;fill-rule:nonzero;stroke:none;stroke-width:0.53329957;stroke-linecap:butt;stroke-linejoin:miter;stroke-miterlimit:4;stroke-dasharray:none;stroke-dashoffset:0;stroke-opacity:0.45833333;marker:none;marker-start:none;marker-mid:none;marker-end:none;paint-order:fill markers stroke;color-rendering:auto;image-rendering:auto;shape-rendering:auto;text-rendering:auto;enable-background:accumulate"/>
      <path inkscape:connector-curvature="0" id="path33856-6" d="m 16.819961,30.125094 h 15.617138 c 2.703712,0 4.880341,2.250902 4.880341,5.046867 0,2.795964 -2.176629,5.046873 -4.880341,5.046873 H 16.819961 c -2.703712,0 -4.880346,-2.250909 -4.880346,-5.046873 0,-2.795965 2.176634,-5.046867 4.880346,-5.046867 z" style="display:inline;opacity:1;vector-effect:none;fill:#ffffff;fill-opacity:0.36458333;fill-rule:nonzero;stroke:none;stroke-width:0.66589653;stroke-linecap:butt;stroke-linejoin:miter;stroke-miterlimit:4;stroke-dasharray:none;stroke-dashoffset:0;stroke-opacity:1"/>
      <path inkscape:connector-curvature="0" id="path33858-1" d="m 17.111505,30.73238 h 14.206632 c 2.459524,0 4.439573,1.980051 4.439573,4.439581 0,2.45952 -1.980049,4.439574 -4.439573,4.439574 H 17.111505 c -2.459523,0 -4.439573,-1.980054 -4.439573,-4.439574 0,-2.45953 1.98005,-4.439581 4.439573,-4.439581 z" style="display:inline;opacity:1;fill:url(#linearGradient9055-2-5);fill-opacity:1;fill-rule:nonzero;stroke:none;stroke-width:0.53432041"/>
      <path style="color:#000000;font-style:normal;font-variant:normal;font-weight:normal;font-stretch:normal;font-size:medium;line-height:normal;font-family:sans-serif;font-variant-ligatures:normal;font-variant-position:normal;font-variant-caps:normal;font-variant-numeric:normal;font-variant-alternates:normal;font-feature-settings:normal;text-indent:0;text-align:start;text-decoration:none;text-decoration-line:none;text-decoration-style:solid;text-decoration-color:#000000;letter-spacing:normal;word-spacing:normal;text-transform:none;writing-mode:lr-tb;direction:ltr;text-orientation:mixed;dominant-baseline:auto;baseline-shift:baseline;text-anchor:start;white-space:normal;shape-padding:0;clip-rule:nonzero;display:inline;overflow:visible;visibility:visible;opacity:1;isolation:auto;mix-blend-mode:normal;color-interpolation:sRGB;color-interpolation-filters:linearRGB;solid-color:#000000;solid-opacity:1;vector-effect:none;fill:url(#linearGradient9057-1-7);fill-opacity:1;fill-rule:nonzero;stroke:none;stroke-width:0.53097039;stroke-linecap:butt;stroke-linejoin:miter;stroke-miterlimit:4;stroke-dasharray:none;stroke-dashoffset:0;stroke-opacity:1;paint-order:normal;color-rendering:auto;image-rendering:auto;shape-rendering:auto;text-rendering:auto;enable-background:accumulate" d="m 17.08157,30.740561 c -2.429334,0 -4.393342,1.96399 -4.393342,4.393332 v 0.06823 c 0,2.429333 1.964008,4.394484 4.393342,4.394484 h 14.294536 c 2.429334,0 4.393284,-1.965151 4.393284,-4.394484 v -0.06823 c 0,-2.429342 -1.96395,-4.393332 -4.393284,-4.393332 z m 0,0.591947 h 14.294536 c 2.111639,0 3.80134,1.689744 3.80134,3.801385 v 0.06823 c 0,2.111639 -1.689701,3.802538 -3.80134,3.802538 H 17.08157 c -2.111638,0 -3.801399,-1.690899 -3.801399,-3.802538 v -0.06823 c 0,-2.111641 1.689761,-3.801385 3.801399,-3.801385 z" id="path33860-2" inkscape:connector-curvature="0" inkscape:label="base sombra"/>
      <path style="display:inline;opacity:1;vector-effect:none;fill:#ffffff;fill-opacity:0.58333333;fill-rule:nonzero;stroke:none;stroke-width:0.66789824;stroke-linecap:butt;stroke-linejoin:miter;stroke-miterlimit:4;stroke-dasharray:none;stroke-dashoffset:0;stroke-opacity:1" d="m 16.441869,8 h 15.711175 c 2.71999,0 4.909724,2.250899 4.909724,5.046865 0,2.795967 -2.189734,5.046871 -4.909724,5.046871 H 16.441869 c -2.719989,0 -4.90973,-2.250904 -4.90973,-5.046871 C 11.532139,10.250899 13.72188,8 16.441869,8 Z" id="path33868-9" inkscape:connector-curvature="0"/>
      <path inkscape:connector-curvature="0" id="path33870-4" d="m 17.703483,8.6072987 h 14.20664 c 2.459517,0 4.439566,1.9800433 4.439566,4.4395663 0,2.459524 -1.980049,4.439573 -4.439566,4.439573 h -14.20664 c -2.459523,0 -4.439574,-1.980049 -4.439574,-4.439573 0,-2.459523 1.980051,-4.4395663 4.439574,-4.4395663 z" style="display:inline;opacity:1;vector-effect:none;fill:url(#linearGradient5867-6-0);fill-opacity:1;fill-rule:nonzero;stroke:none;stroke-width:0.59567767;stroke-linecap:butt;stroke-linejoin:miter;stroke-miterlimit:4;stroke-dasharray:none;stroke-dashoffset:0;stroke-opacity:1"/>
      <path style="color:#000000;font-style:normal;font-variant:normal;font-weight:normal;font-stretch:normal;font-size:medium;line-height:normal;font-family:sans-serif;font-variant-ligatures:normal;font-variant-position:normal;font-variant-caps:normal;font-variant-numeric:normal;font-variant-alternates:normal;font-feature-settings:normal;text-indent:0;text-align:start;text-decoration:none;text-decoration-line:none;text-decoration-style:solid;text-decoration-color:#000000;letter-spacing:normal;word-spacing:normal;text-transform:none;writing-mode:lr-tb;direction:ltr;text-orientation:mixed;dominant-baseline:auto;baseline-shift:baseline;text-anchor:start;white-space:normal;shape-padding:0;clip-rule:nonzero;display:inline;overflow:visible;visibility:visible;opacity:1;isolation:auto;mix-blend-mode:normal;color-interpolation:sRGB;color-interpolation-filters:linearRGB;solid-color:#000000;solid-opacity:1;vector-effect:none;fill:url(#linearGradient8839-2-6-7);fill-opacity:1;fill-rule:nonzero;stroke:none;stroke-width:0.59194303;stroke-linecap:butt;stroke-linejoin:miter;stroke-miterlimit:4;stroke-dasharray:none;stroke-dashoffset:0;stroke-opacity:1;paint-order:normal;color-rendering:auto;image-rendering:auto;shape-rendering:auto;text-rendering:auto;enable-background:accumulate" d="m 17.673519,8.6154675 c -2.429335,0 -4.393342,1.9639905 -4.393342,4.3933295 v 0.06821 c 0,2.429334 1.964007,4.394485 4.393342,4.394485 h 14.294536 c 2.429335,0 4.393284,-1.965151 4.393284,-4.394485 v -0.06821 c 0,-2.429339 -1.963949,-4.3933295 -4.393284,-4.3933295 z m 0,0.5919425 h 14.294536 c 2.111639,0 3.801341,1.68975 3.801341,3.801387 v 0.06821 c 0,2.111638 -1.689702,3.802541 -3.801341,3.802541 H 17.673519 c -2.111637,0 -3.8014,-1.690903 -3.8014,-3.802541 v -0.06821 c 0,-2.111637 1.689763,-3.801387 3.8014,-3.801387 z" id="path33872-7" inkscape:connector-curvature="0" inkscape:label="base sombra"/>
      <path inkscape:connector-curvature="0" id="path33880-0" d="m 4.6532217,3.107229 c -0.8460106,0 -1.5318368,0.6858269 -1.5318368,1.5318368 0,0.8460099 0.6858262,1.5318368 1.5318368,1.5318368 0.8460099,0 1.5318368,-0.6858269 1.5318368,-1.5318368 0,-0.8460099 -0.6858269,-1.5318368 -1.5318368,-1.5318368 z M 43.365426,3.139993 c -0.849243,0 -1.537687,0.6884468 -1.537687,1.5376866 0,0.8492398 0.688444,1.5376866 1.537687,1.5376866 0.849244,0 1.537688,-0.6884468 1.537688,-1.5376866 0,-0.8492398 -0.688444,-1.5376866 -1.537688,-1.5376866 z M 4.6511748,41.518817 c -0.851831,0 -1.5423782,0.690542 -1.5423782,1.542379 0,0.85183 0.6905472,1.542372 1.5423782,1.542372 0.8518318,0 1.542379,-0.690542 1.542379,-1.542372 0,-0.851837 -0.6905472,-1.542379 -1.542379,-1.542379 z m 38.7036602,-0.02885 c -0.854895,0 -1.547922,0.693027 -1.547922,1.54793 0,0.854895 0.693027,1.547922 1.547922,1.547922 0.854896,0 1.547923,-0.693027 1.547923,-1.547922 0,-0.854903 -0.693027,-1.54793 -1.547923,-1.54793 z" style="color:#000000;clip-rule:nonzero;display:inline;overflow:visible;visibility:visible;opacity:1;isolation:auto;mix-blend-mode:normal;color-interpolation:sRGB;color-interpolation-filters:linearRGB;solid-color:#000000;solid-opacity:1;vector-effect:none;fill:#000000;fill-opacity:0.1875;fill-rule:nonzero;stroke:none;stroke-width:0.30785784;stroke-linecap:butt;stroke-linejoin:miter;stroke-miterlimit:4;stroke-dasharray:none;stroke-dashoffset:0;stroke-opacity:0.19791667;marker:none;marker-start:none;marker-mid:none;marker-end:none;paint-order:fill markers stroke;color-rendering:auto;image-rendering:auto;shape-rendering:auto;text-rendering:auto;enable-background:accumulate" sodipodi:nodetypes="ssssscscscscscsccccc"/>
      <path inkscape:connector-curvature="0" id="path33882-3" d="m 6.1830124,43.235111 c -0.082398,-0.784327 -0.743197,-1.380139 -1.5318376,-1.381215 -0.7839962,3.1e-4 -1.4430268,0.588704 -1.531836,1.367659 -0.00627,-0.05296 -0.00974,-0.106242 -0.010521,-0.159654 0,-0.851837 0.6905472,-1.542379 1.542379,-1.542379 0.851831,0 1.5423774,0.690542 1.5423774,1.542379 -2.539e-4,0.05791 -0.00379,0.115711 -0.010521,0.17321 z m 38.7091616,-0.02268 c -0.08269,-0.787153 -0.745865,-1.385117 -1.537339,-1.386193 -0.78682,3.18e-4 -1.448221,0.590826 -1.537354,1.372583 -0.0054,-0.05311 -0.009,-0.10663 -0.01014,-0.160235 0,-0.854895 0.693027,-1.547922 1.54793,-1.547922 0.854895,0 1.547922,0.693027 1.547922,1.547922 -1.01e-4,0.05806 -0.0031,0.116137 -0.01014,0.173845 z M 6.1745891,4.8117961 C 6.0927484,4.0328352 5.4364701,3.4410867 4.6532217,3.4400214 3.8745853,3.4403311 3.220059,4.024707 3.1318551,4.7983313 3.1256616,4.7456939 3.122139,4.6927647 3.1214035,4.6397626 c 0,-0.8460099 0.685827,-1.5318368 1.5318368,-1.5318368 0.8460099,7e-7 1.5318361,0.6858277 1.5318361,1.5318368 -2.524e-4,0.057492 -0.00372,0.1149306 -0.010452,0.1720335 z m 38.7180029,0.039267 c -0.08214,-0.7819338 -0.740926,-1.3759406 -1.527166,-1.3770137 -0.781618,3.082e-4 -1.438644,0.5869168 -1.527181,1.3634978 -0.0054,-0.052846 -0.0089,-0.105977 -0.01006,-0.1591741 0,-0.8492399 0.688444,-1.5376867 1.537688,-1.5376867 0.849243,0 1.537687,0.6884468 1.537687,1.5376867 -1.01e-4,0.057701 -0.0031,0.115361 -0.01006,0.17269 z" style="color:#000000;clip-rule:nonzero;display:inline;overflow:visible;visibility:visible;opacity:1;isolation:auto;mix-blend-mode:normal;color-interpolation:sRGB;color-interpolation-filters:linearRGB;solid-color:#000000;solid-opacity:1;vector-effect:none;fill:#000000;fill-opacity:0.31770833;fill-rule:nonzero;stroke:none;stroke-width:0.30785784;stroke-linecap:butt;stroke-linejoin:miter;stroke-miterlimit:4;stroke-dasharray:none;stroke-dashoffset:0;stroke-opacity:0.19791667;marker:none;marker-start:none;marker-mid:none;marker-end:none;paint-order:fill markers stroke;color-rendering:auto;image-rendering:auto;shape-rendering:auto;text-rendering:auto;enable-background:accumulate" sodipodi:nodetypes="ccccscccccccccccccccsccccccccccc"/>
      <path style="color:#000000;clip-rule:nonzero;display:inline;overflow:visible;visibility:visible;opacity:1;isolation:auto;mix-blend-mode:normal;color-interpolation:sRGB;color-interpolation-filters:linearRGB;solid-color:#000000;solid-opacity:1;vector-effect:none;fill:#ffffff;fill-opacity:0.921875;fill-rule:nonzero;stroke:none;stroke-width:0.30785784;stroke-linecap:butt;stroke-linejoin:miter;stroke-miterlimit:4;stroke-dasharray:none;stroke-dashoffset:0;stroke-opacity:0.19791667;marker:none;marker-start:none;marker-mid:none;marker-end:none;paint-order:fill markers stroke;color-rendering:auto;image-rendering:auto;shape-rendering:auto;text-rendering:auto;enable-background:accumulate" d="M 6.1745891,4.7773987 C 6.0927484,5.5563603 5.4364701,6.1481088 4.6532217,6.1491741 3.8745853,6.1488637 3.220059,5.5644878 3.1318551,4.7908627 c -0.00619,0.052637 -0.00972,0.1055675 -0.010452,0.1585687 0,0.8460099 0.685827,1.5318368 1.5318368,1.5318368 C 5.4992498,6.4812674 6.185076,5.7954413 6.185076,4.9494314 6.1848236,4.8919394 6.181356,4.8345017 6.174624,4.7773987 Z m 38.7180029,0.039136 c -0.08214,0.7819337 -0.740926,1.3759413 -1.527166,1.3770136 -0.781618,-3.081e-4 -1.438644,-0.5869168 -1.527181,-1.3634985 -0.0054,0.052846 -0.0089,0.105977 -0.01006,0.1591741 0,0.8492398 0.688444,1.5376866 1.537688,1.5376866 0.849243,0 1.537687,-0.6884468 1.537687,-1.5376866 -1.01e-4,-0.057708 -0.0031,-0.1153602 -0.01006,-0.1726892 z M 6.1830124,43.200474 c -0.082398,0.784327 -0.743197,1.380147 -1.5318376,1.381223 -0.7839962,-3.18e-4 -1.4430268,-0.588712 -1.531836,-1.367667 -0.00627,0.05295 -0.00974,0.10625 -0.010521,0.15967 0,0.851837 0.6905472,1.542379 1.542379,1.542379 0.851831,0 1.5423774,-0.690542 1.5423774,-1.542379 -2.539e-4,-0.05791 -0.00379,-0.115727 -0.010521,-0.173226 z m 38.7091616,-0.02276 c -0.08269,0.787153 -0.745865,1.385109 -1.537339,1.386193 -0.78682,-3.18e-4 -1.448221,-0.590834 -1.537354,-1.372583 -0.0054,0.05311 -0.009,0.106738 -0.01014,0.160242 0,0.854896 0.693027,1.547923 1.54793,1.547923 0.854895,0 1.547922,-0.693027 1.547922,-1.547923 -1.01e-4,-0.05806 -0.0031,-0.116136 -0.01014,-0.173852 z" id="path33884-6" inkscape:connector-curvature="0" sodipodi:nodetypes="ccccscccccccccccccccsccccccccccc"/>
      <path style="color:#000000;clip-rule:nonzero;display:block;overflow:visible;visibility:visible;opacity:1;isolation:auto;mix-blend-mode:normal;color-interpolation:sRGB;color-interpolation-filters:linearRGB;solid-color:#000000;solid-opacity:1;vector-effect:none;fill:#000000;fill-opacity:0.203125;fill-rule:nonzero;stroke:none;stroke-width:0.31056067;stroke-linecap:butt;stroke-linejoin:miter;stroke-miterlimit:4;stroke-dasharray:none;stroke-dashoffset:0;stroke-opacity:0.59375;marker:none;marker-start:none;marker-mid:none;marker-end:none;paint-order:fill markers stroke;color-rendering:auto;image-rendering:auto;shape-rendering:auto;text-rendering:auto;enable-background:accumulate" d="m 1,23.500002 h 46 v 0.5 H 1 Z" id="rect33886-1" inkscape:connector-curvature="0"/>
      <path style="color:#000000;clip-rule:nonzero;display:block;overflow:visible;visibility:visible;opacity:1;isolation:auto;mix-blend-mode:normal;color-interpolation:sRGB;color-interpolation-filters:linearRGB;solid-color:#000000;solid-opacity:1;vector-effect:none;fill:#ffffff;fill-opacity:0.69791667;fill-rule:nonzero;stroke:none;stroke-width:0.31056067;stroke-linecap:butt;stroke-linejoin:miter;stroke-miterlimit:4;stroke-dasharray:none;stroke-dashoffset:0;stroke-opacity:0.59375;marker:none;marker-start:none;marker-mid:none;marker-end:none;paint-order:fill markers stroke;color-rendering:auto;image-rendering:auto;shape-rendering:auto;text-rendering:auto;enable-background:accumulate" d="m 1,24 h 46 v 0.5 H 1 Z" id="rect33888-0" inkscape:connector-curvature="0"/>
      <circle r="6.8073449" inkscape:label="circulo sombra" cy="35.763901" cx="30.726191" id="circle33862-9" style="display:inline;opacity:1;fill:#000000;fill-opacity:0.15686275;stroke:none;stroke-width:0.28382295;stroke-linejoin:miter;stroke-miterlimit:4.5999999;stroke-dasharray:none;stroke-opacity:0.19696972"/>
      <circle inkscape:label="circulo" style="display:inline;opacity:1;fill:url(#linearGradient33841-0-3);fill-opacity:1;stroke:none;stroke-width:0.24651173;stroke-linejoin:miter;stroke-miterlimit:4.5999999;stroke-dasharray:none;stroke-opacity:1" id="circle33864-3" cx="30.726191" cy="35.171955" r="6.2154016"/>
      <circle r="5.9328814" cy="35.171955" cx="30.726191" id="circle33866-1" style="display:inline;opacity:1;fill:none;fill-opacity:1;stroke:#ffffff;stroke-width:0.5650363;stroke-linejoin:miter;stroke-miterlimit:4.5999999;stroke-dasharray:none;stroke-opacity:0.23706898" inkscape:label="circulo brillo"/>
      <circle style="display:inline;opacity:1;fill:#000000;fill-opacity:0.15686275;stroke:none;stroke-width:0.28382295;stroke-linejoin:miter;stroke-miterlimit:4.5999999;stroke-dasharray:none;stroke-opacity:0.19696972" id="circle33874-8" cx="-18.2955" cy="13.638803" r="6.8073449" inkscape:label="circulo sombra" transform="scale(-1,1)"/>
      <circle inkscape:label="circulo" style="display:inline;opacity:1;vector-effect:none;fill:url(#linearGradient9139-2-6);fill-opacity:1;stroke:none;stroke-width:0.24651173;stroke-linecap:butt;stroke-linejoin:miter;stroke-miterlimit:4.5999999;stroke-dasharray:none;stroke-dashoffset:0;stroke-opacity:1" id="circle33876-4" cx="18.295427" cy="13.046865" r="6.2154016"/>
      <circle r="5.9328814" cy="13.046865" cx="18.295427" id="circle33878-5" style="display:inline;opacity:1;fill:none;fill-opacity:1;stroke:#ffffff;stroke-width:0.5650363;stroke-linejoin:miter;stroke-miterlimit:4.5999999;stroke-dasharray:none;stroke-opacity:0.23706898" inkscape:label="circulo brillo"/>
    </g>
  </g>
</svg>