<?xml version="1.0" encoding="UTF-8" standalone="yes"?>
<svg xmlns:dc="http://purl.org/dc/elements/1.1/" xmlns:cc="http://creativecommons.org/ns#" xmlns:rdf="http://www.w3.org/1999/02/22-rdf-syntax-ns#" xmlns:svg="http://www.w3.org/2000/svg" xmlns="http://www.w3.org/2000/svg" xmlns:xlink="http://www.w3.org/1999/xlink" xmlns:sodipodi="http://sodipodi.sourceforge.net/DTD/sodipodi-0.dtd" xmlns:inkscape="http://www.inkscape.org/namespaces/inkscape" height="48" viewBox="0 0 48 48" width="48" id="svg2" version="1.1" inkscape:version="0.92.2 5c3e80d, 2017-08-06" sodipodi:docname="hexchat.svg" enable-background="new" folder="48">
  <title id="title4675">Template icons dark</title>
  <metadata id="metadata24">
    <rdf:RDF>
      <cc:Work rdf:about="">
        <dc:format>image/svg+xml</dc:format>
        <dc:type rdf:resource="http://purl.org/dc/dcmitype/StillImage"/>
        <dc:title>Template icons dark</dc:title>
        <dc:date>17/05/13</dc:date>
        <dc:creator>
          <cc:Agent>
            <dc:title>wfpaisa</dc:title>
          </cc:Agent>
        </dc:creator>
        <dc:rights>
          <cc:Agent>
            <dc:title>License: GPLv3</dc:title>
          </cc:Agent>
        </dc:rights>
        <dc:language>es-en</dc:language>
        <dc:subject>
          <rdf:Bag>
            <rdf:li>plane-icon-theme</rdf:li>
          </rdf:Bag>
        </dc:subject>
        <dc:description>Template for create set icons</dc:description>
        <cc:license rdf:resource="https://www.gnu.org/licenses/gpl-3.0.en.html"/>
      </cc:Work>
    </rdf:RDF>
  </metadata>
  <defs id="defs22">
    <linearGradient inkscape:collect="always" id="linearGradient1062">
      <stop style="stop-color:#6e685c;stop-opacity:1" offset="0" id="stop1058"/>
      <stop style="stop-color:#7f6a7f;stop-opacity:1" offset="1" id="stop1060"/>
    </linearGradient>
    <linearGradient id="linearGradient1011">
      <stop style="stop-color:#fadd9a;stop-opacity:0.26373628" offset="0" id="stop1007"/>
      <stop style="stop-color:#ffffff;stop-opacity:0" offset="1" id="stop1009"/>
    </linearGradient>
    <linearGradient id="linearGradient1003">
      <stop id="stop999" offset="0" style="stop-color:#000000;stop-opacity:0.02197802"/>
      <stop id="stop1001" offset="1" style="stop-color:#ffffff;stop-opacity:0"/>
    </linearGradient>
    <linearGradient id="linearGradient951">
      <stop style="stop-color:#000000;stop-opacity:0.02197802" offset="0" id="stop947"/>
      <stop style="stop-color:#111111;stop-opacity:0.55128205;" offset="1" id="stop949"/>
    </linearGradient>
    <linearGradient inkscape:collect="always" id="linearGradient937">
      <stop style="stop-color:#262532;stop-opacity:1" offset="0" id="stop933"/>
      <stop style="stop-color:#39343d;stop-opacity:1" offset="1" id="stop935"/>
    </linearGradient>
    <linearGradient inkscape:collect="always" id="linearGradient919">
      <stop style="stop-color:#f75100;stop-opacity:1" offset="0" id="stop915"/>
      <stop style="stop-color:#ffae11;stop-opacity:1" offset="1" id="stop917"/>
    </linearGradient>
    <linearGradient inkscape:collect="always" id="linearGradient890">
      <stop style="stop-color:#23211d;stop-opacity:1" offset="0" id="stop886"/>
      <stop style="stop-color:#3f474b;stop-opacity:1" offset="1" id="stop888"/>
    </linearGradient>
    <linearGradient inkscape:collect="always" xlink:href="#linearGradient890" id="linearGradient892" x1="163.84251" y1="197.85826" x2="163.84251" y2="124" gradientUnits="userSpaceOnUse"/>
    <linearGradient inkscape:collect="always" xlink:href="#linearGradient919" id="linearGradient921" x1="160" y1="182.11389" x2="160" y2="138" gradientUnits="userSpaceOnUse"/>
    <linearGradient inkscape:collect="always" xlink:href="#linearGradient937" id="linearGradient939" x1="165.5748" y1="196.64023" x2="165.5748" y2="124" gradientUnits="userSpaceOnUse"/>
    <linearGradient inkscape:collect="always" xlink:href="#linearGradient951" id="linearGradient957" gradientUnits="userSpaceOnUse" x1="157.44095" y1="165" x2="152.50394" y2="178" gradientTransform="matrix(-1,0,0,1,319.97656,0)"/>
    <linearGradient inkscape:collect="always" xlink:href="#linearGradient951" id="linearGradient963" gradientUnits="userSpaceOnUse" x1="157.44095" y1="165" x2="152.50394" y2="178" gradientTransform="matrix(1,0,0,-1,0,321.42)"/>
    <linearGradient inkscape:collect="always" xlink:href="#linearGradient951" id="linearGradient965" gradientUnits="userSpaceOnUse" gradientTransform="rotate(-180,159.98828,160.71002)" x1="157.44095" y1="165" x2="152.50394" y2="178"/>
    <linearGradient inkscape:collect="always" xlink:href="#linearGradient951" id="linearGradient991" gradientUnits="userSpaceOnUse" x1="152.96036" y1="169.59766" x2="150.53516" y2="166.59766" gradientTransform="matrix(1,0,0,-1,-9.53516,354.59766)"/>
    <linearGradient inkscape:collect="always" xlink:href="#linearGradient951" id="linearGradient957-3" gradientUnits="userSpaceOnUse" x1="157.44095" y1="165" x2="152.50394" y2="178" gradientTransform="matrix(-1,0,0,1,159.98828,-160.75391)"/>
    <linearGradient inkscape:collect="always" xlink:href="#linearGradient951" id="linearGradient1036" gradientUnits="userSpaceOnUse" gradientTransform="matrix(-1,0,0,1,319.97656,0)" x1="162.53561" y1="165" x2="171.25215" y2="173"/>
    <linearGradient inkscape:collect="always" xlink:href="#linearGradient1062" id="linearGradient1064" x1="166.3307" y1="203.9016" x2="166.3307" y2="116" gradientUnits="userSpaceOnUse"/>
    <linearGradient inkscape:collect="always" xlink:href="#linearGradient937" id="linearGradient1073" gradientUnits="userSpaceOnUse" x1="165.5748" y1="196.64023" x2="165.5748" y2="124"/>
    <linearGradient gradientTransform="matrix(1.3333331,0,0,1.3333331,58.666708,58.666698)" inkscape:collect="always" xlink:href="#linearGradient937" id="linearGradient1073-3" gradientUnits="userSpaceOnUse" x1="165.5748" y1="196.64023" x2="165.5748" y2="124"/>
    <linearGradient gradientTransform="matrix(1.3333331,0,0,1.3333331,58.666708,58.666698)" inkscape:collect="always" xlink:href="#linearGradient919" id="linearGradient921-2" x1="160" y1="182.11389" x2="160" y2="138" gradientUnits="userSpaceOnUse"/>
    <linearGradient inkscape:collect="always" xlink:href="#linearGradient951" id="linearGradient1036-2" gradientUnits="userSpaceOnUse" gradientTransform="matrix(-1.3333331,0,0,1.3333331,485.30205,58.666698)" x1="162.53561" y1="165" x2="171.25215" y2="173"/>
    <linearGradient inkscape:collect="always" xlink:href="#linearGradient951" id="linearGradient957-9" gradientUnits="userSpaceOnUse" x1="157.44095" y1="165" x2="152.50394" y2="178" gradientTransform="matrix(-1.3333331,0,0,1.3333331,485.30205,58.666698)"/>
    <linearGradient inkscape:collect="always" xlink:href="#linearGradient951" id="linearGradient963-3" gradientUnits="userSpaceOnUse" x1="157.44095" y1="165" x2="152.50394" y2="178" gradientTransform="matrix(1.3333331,0,0,-1.3333331,58.666708,487.22662)"/>
    <linearGradient inkscape:collect="always" xlink:href="#linearGradient951" id="linearGradient965-6" gradientUnits="userSpaceOnUse" gradientTransform="matrix(-1.3333331,0,0,-1.3333331,485.30207,487.22668)" x1="157.44095" y1="165" x2="152.50394" y2="178"/>
    <linearGradient gradientTransform="matrix(0.66667093,0,0,0.66667093,-26.667364,-26.667346)" inkscape:collect="always" xlink:href="#linearGradient937" id="linearGradient1073-5" gradientUnits="userSpaceOnUse" x1="165.5748" y1="196.64023" x2="165.5748" y2="124"/>
    <linearGradient gradientTransform="matrix(0.66667093,0,0,0.66667093,-26.667364,-26.667346)" inkscape:collect="always" xlink:href="#linearGradient919" id="linearGradient921-28" x1="160" y1="182.11389" x2="160" y2="138" gradientUnits="userSpaceOnUse"/>
    <linearGradient inkscape:collect="always" xlink:href="#linearGradient951" id="linearGradient1036-3" gradientUnits="userSpaceOnUse" gradientTransform="matrix(-0.66667093,0,0,0.66667093,186.65171,-26.667346)" x1="162.53561" y1="165" x2="171.25215" y2="173"/>
    <linearGradient inkscape:collect="always" xlink:href="#linearGradient951" id="linearGradient957-2" gradientUnits="userSpaceOnUse" x1="157.44095" y1="165" x2="152.50394" y2="178" gradientTransform="matrix(-0.66667093,0,0,0.66667093,186.65171,-26.667346)"/>
    <linearGradient inkscape:collect="always" xlink:href="#linearGradient951" id="linearGradient963-9" gradientUnits="userSpaceOnUse" x1="157.44095" y1="165" x2="152.50394" y2="178" gradientTransform="matrix(0.66667093,0,0,-0.66667093,-26.667364,187.61402)"/>
    <linearGradient inkscape:collect="always" xlink:href="#linearGradient951" id="linearGradient965-3" gradientUnits="userSpaceOnUse" gradientTransform="matrix(-0.66667093,0,0,-0.66667093,186.65171,187.61405)" x1="157.44095" y1="165" x2="152.50394" y2="178"/>
    <linearGradient gradientTransform="matrix(0.49999736,0,0,0.49999736,-55.999599,-55.999578)" inkscape:collect="always" xlink:href="#linearGradient937" id="linearGradient1073-32" gradientUnits="userSpaceOnUse" x1="165.5748" y1="196.64023" x2="165.5748" y2="124"/>
    <linearGradient gradientTransform="matrix(0.49999736,0,0,0.49999736,-55.999599,-55.999578)" inkscape:collect="always" xlink:href="#linearGradient919" id="linearGradient921-1" x1="160" y1="182.11389" x2="160" y2="138" gradientUnits="userSpaceOnUse"/>
    <linearGradient inkscape:collect="always" xlink:href="#linearGradient951" id="linearGradient1036-4" gradientUnits="userSpaceOnUse" gradientTransform="matrix(-0.49999736,0,0,0.49999736,103.98784,-55.999578)" x1="162.53561" y1="165" x2="171.25215" y2="173"/>
    <linearGradient inkscape:collect="always" xlink:href="#linearGradient951" id="linearGradient957-5" gradientUnits="userSpaceOnUse" x1="157.44095" y1="165" x2="152.50394" y2="178" gradientTransform="matrix(-0.49999736,0,0,0.49999736,103.98784,-55.999578)"/>
    <linearGradient inkscape:collect="always" xlink:href="#linearGradient951" id="linearGradient963-6" gradientUnits="userSpaceOnUse" x1="157.44095" y1="165" x2="152.50394" y2="178" gradientTransform="matrix(0.49999736,0,0,-0.49999736,-55.999599,104.70957)"/>
    <linearGradient inkscape:collect="always" xlink:href="#linearGradient951" id="linearGradient965-9" gradientUnits="userSpaceOnUse" gradientTransform="matrix(-0.49999736,0,0,-0.49999736,103.98784,104.70959)" x1="157.44095" y1="165" x2="152.50394" y2="178"/>
    <linearGradient gradientTransform="matrix(0.33333546,0,0,0.33333546,-69.333702,-69.333674)" inkscape:collect="always" xlink:href="#linearGradient937" id="linearGradient1073-8" gradientUnits="userSpaceOnUse" x1="165.5748" y1="196.64023" x2="165.5748" y2="124"/>
    <linearGradient gradientTransform="matrix(0.33333546,0,0,0.33333546,-69.333702,-69.333674)" inkscape:collect="always" xlink:href="#linearGradient919" id="linearGradient921-14" x1="160" y1="182.11389" x2="160" y2="138" gradientUnits="userSpaceOnUse"/>
    <linearGradient gradientTransform="matrix(0.27426685,0,0,0.27426685,-87.882725,-87.943515)" inkscape:collect="always" xlink:href="#linearGradient919" id="linearGradient921-14-9" x1="160" y1="182.11389" x2="160" y2="138" gradientUnits="userSpaceOnUse"/>
    <linearGradient gradientTransform="matrix(0.24124709,0,0,0.24124709,-82.599567,-82.599535)" inkscape:collect="always" xlink:href="#linearGradient937" id="linearGradient1073-8-0" gradientUnits="userSpaceOnUse" x1="165.5748" y1="196.64023" x2="165.5748" y2="124"/>
    <linearGradient gradientTransform="matrix(0.14893698,0,0,0.14893698,-87.829957,-87.829915)" inkscape:collect="always" xlink:href="#linearGradient937" id="linearGradient1073-8-0-9" gradientUnits="userSpaceOnUse" x1="165.5748" y1="196.64023" x2="165.5748" y2="124"/>
    <linearGradient gradientTransform="matrix(0.19618943,0,0,0.19618943,-95.39034,-95.464324)" inkscape:collect="always" xlink:href="#linearGradient919" id="linearGradient921-14-9-6" x1="160" y1="182.11389" x2="160" y2="138" gradientUnits="userSpaceOnUse"/>
  </defs>
  <sodipodi:namedview pagecolor="#383c4a" bordercolor="#ffffff" borderopacity="0.62745098" objecttolerance="4" gridtolerance="10" guidetolerance="4" inkscape:pageopacity="0" inkscape:pageshadow="2" inkscape:window-width="640" inkscape:window-height="480" id="namedview20" showgrid="true" inkscape:zoom="32.578064" inkscape:cx="-61.617454" inkscape:cy="112.57787" inkscape:current-layer="layer6" inkscape:snap-smooth-nodes="false" showguides="true" borderlayer="true" inkscape:showpageshadow="false" inkscape:guide-bbox="true" guidecolor="#bd4fff" guideopacity="0.78431373" inkscape:snap-nodes="true" inkscape:lockguides="false" fit-margin-top="0" fit-margin-left="0" fit-margin-right="0" fit-margin-bottom="0" guidehicolor="#ff0101" guidehiopacity="0.78431373" inkscape:snap-page="true" inkscape:object-nodes="true" inkscape:snap-bbox="true" inkscape:snap-global="true" inkscape:snap-object-midpoints="false" inkscape:snap-bbox-edge-midpoints="false">
    <inkscape:grid type="xygrid" id="grid4171" empspacing="4" dotted="false" originx="2.7755576e-17" originy="0" spacingx="1" spacingy="1" color="#5a5a5a" opacity="0.23529412" empcolor="#5a5a5a" empopacity="0.47058824" visible="true"/>
    <inkscape:grid type="axonomgrid" id="grid4699" units="mm" empspacing="4" color="#5a5a5a" opacity="0.23529412" empcolor="#5a5a5a" empopacity="0.47058824" gridanglex="45" gridanglez="45" spacingy="3.7795276" visible="false" originx="1.3228346" originy="1.3228346"/>
    <sodipodi:guide position="48,0" orientation="1,0" id="guide4568" inkscape:locked="false" inkscape:label="" inkscape:color="rgb(189,79,255)"/>
    <sodipodi:guide position="111.99996,-3.9999999e-05" orientation="0,1" id="guide4570" inkscape:locked="false" inkscape:label="" inkscape:color="rgb(189,79,255)"/>
    <sodipodi:guide position="0,0" orientation="1,0" id="guide4572" inkscape:locked="false" inkscape:label="" inkscape:color="rgb(189,79,255)"/>
    <sodipodi:guide position="0,48" orientation="0,1" id="guide4574" inkscape:locked="false" inkscape:label="" inkscape:color="rgb(189,79,255)"/>
    <sodipodi:guide position="0,80" orientation="0,1" id="guide4576" inkscape:locked="false" inkscape:label="" inkscape:color="rgb(189,79,255)"/>
    <sodipodi:guide position="-32,48" orientation="1,0" id="guide4578" inkscape:locked="false" inkscape:label="" inkscape:color="rgb(189,79,255)"/>
    <sodipodi:guide position="-32,104" orientation="0,1" id="guide4580" inkscape:locked="false" inkscape:label="" inkscape:color="rgb(189,79,255)"/>
    <sodipodi:guide position="-56,80" orientation="1,0" id="guide4582" inkscape:locked="false" inkscape:label="" inkscape:color="rgb(189,79,255)"/>
    <sodipodi:guide position="48,-64" orientation="0,1" id="guide4584" inkscape:locked="false" inkscape:label="" inkscape:color="rgb(189,79,255)"/>
    <sodipodi:guide position="0,0" orientation="-0.70710678,0.70710678" id="guide4588" inkscape:locked="false" inkscape:label="" inkscape:color="rgb(189,79,255)"/>
    <sodipodi:guide position="-56,80" orientation="-0.70710678,0.70710678" id="guide4573" inkscape:locked="false" inkscape:label="" inkscape:color="rgb(189,79,255)"/>
    <sodipodi:guide position="-32,48" orientation="-0.70710678,0.70710678" id="guide4575" inkscape:locked="false" inkscape:label="" inkscape:color="rgb(189,79,255)"/>
    <sodipodi:guide position="48,-64" orientation="-0.70710678,0.70710678" id="guide4577" inkscape:locked="false" inkscape:label="" inkscape:color="rgb(189,79,255)"/>
    <sodipodi:guide position="47.999962,0" orientation="0.70710678,0.70710678" id="guide4697" inkscape:locked="false" inkscape:label="" inkscape:color="rgb(189,79,255)"/>
    <sodipodi:guide position="207.99995,-288" orientation="0,1" id="guide7833" inkscape:locked="false"/>
    <sodipodi:guide position="335.99994,-288" orientation="1,0" id="guide7835" inkscape:locked="false" inkscape:label="" inkscape:color="rgb(189,79,255)"/>
    <sodipodi:guide position="111.99996,-64" orientation="1,0" id="guide7915" inkscape:locked="false"/>
    <sodipodi:guide position="111.99996,-160" orientation="0,1" id="guide7917" inkscape:locked="false"/>
    <sodipodi:guide position="207.99996,-160" orientation="1,0" id="guide7919" inkscape:locked="false"/>
    <sodipodi:guide position="111.99996,-160" orientation="-0.70710678,0.70710678" id="guide7921" inkscape:locked="false" inkscape:label="" inkscape:color="rgb(189,79,255)"/>
    <sodipodi:guide position="207.99996,-288" orientation="-0.70710678,0.70710678" id="guide7923" inkscape:locked="false" inkscape:label="" inkscape:color="rgb(189,79,255)"/>
    <sodipodi:guide position="-72,104" orientation="1,0" id="guide7824" inkscape:locked="false"/>
    <sodipodi:guide position="-56,120" orientation="0,1" id="guide7826" inkscape:locked="false"/>
    <sodipodi:guide position="-72,104" orientation="-0.70710678,0.70710678" id="guide7828" inkscape:locked="false" inkscape:label="" inkscape:color="rgb(189,79,255)"/>
  </sodipodi:namedview>
  <g inkscape:groupmode="layer" id="layer3" inkscape:label="icon_48" style="display:inline" transform="translate(6.8969723e-7,-4.5367432e-7)">
    <g inkscape:groupmode="layer" id="layer9" inkscape:label="frame" style="display:none">
      <rect inkscape:label="frame_48" y="4.5367432e-07" x="-6.8969723e-07" height="48" width="48" id="frame_48" style="color:#000000;clip-rule:nonzero;display:block;overflow:visible;visibility:visible;opacity:1;isolation:auto;mix-blend-mode:normal;color-interpolation:sRGB;color-interpolation-filters:linearRGB;solid-color:#000000;solid-opacity:1;vector-effect:none;fill:#000000;fill-opacity:1;fill-rule:nonzero;stroke:#ff24f7;stroke-width:0;stroke-linecap:square;stroke-linejoin:miter;stroke-miterlimit:4;stroke-dasharray:none;stroke-dashoffset:0;stroke-opacity:0.99481865;marker:none;marker-start:none;marker-mid:none;marker-end:none;paint-order:normal;color-rendering:auto;image-rendering:auto;shape-rendering:auto;text-rendering:auto;enable-background:accumulate"/>
      <text xml:space="preserve" style="font-size:18.66666603px;line-height:1000%;font-family:sans-serif;letter-spacing:0px;word-spacing:0px;display:inline;opacity:1;fill:#ffffff;fill-opacity:1;stroke:none;stroke-width:0.11166908px;stroke-linecap:butt;stroke-linejoin:miter;stroke-opacity:1" x="12.301435" y="30.794922" id="txt_48" inkscape:label="txt_48">
        <tspan sodipodi:role="line" x="12.301435" y="30.794922" style="font-size:18.66666603px;fill:#ffffff;fill-opacity:1;stroke:none;stroke-width:0.11166908px" id="tspan5049-1">48</tspan>
      </text>
      <text xml:space="preserve" style="font-size:2.66666675px;line-height:1000%;font-family:sans-serif;letter-spacing:0px;word-spacing:0px;display:inline;opacity:1;fill:#ffffff;fill-opacity:0.44791667;stroke:none;stroke-width:0.0588377px;stroke-linecap:butt;stroke-linejoin:miter;stroke-opacity:1" x="25.824219" y="45.962238" id="txt_scalable_32-64" inkscape:label="txt_scalable_32-64">
        <tspan sodipodi:role="line" x="25.824219" y="45.962238" style="font-size:2.66666675px;fill:#ffffff;fill-opacity:0.44791667;stroke:none;stroke-width:0.0588377px" id="tspan5049-1-6">Scalable:32-64</tspan>
      </text>
    </g>
    <g inkscape:groupmode="layer" id="layer10" inkscape:label="icon" style="display:inline">
      <path d="m 47.999836,24 c 0,1.679991 -10.545024,19.944508 -11.999939,20.784504 -1.454915,0.839996 -22.544963,0.839996 -23.999878,0 C 10.545104,43.944508 8.0108643e-5,25.679991 8.0108643e-5,24 8.0108643e-5,22.320009 10.545104,4.0554918 12.000019,3.215496 c 1.454915,-0.8399957 22.544963,-0.8399957 23.999878,0 C 37.454812,4.0554918 47.999836,22.320009 47.999836,24 Z" inkscape:randomized="0" inkscape:rounded="0.07" inkscape:flatsided="true" sodipodi:arg2="0.52359878" sodipodi:arg1="0" sodipodi:r2="20.784504" sodipodi:r1="23.999878" sodipodi:cy="24" sodipodi:cx="23.999958" sodipodi:sides="6" id="path941-3" style="color:#000000;clip-rule:nonzero;display:block;overflow:visible;visibility:visible;opacity:1;isolation:auto;mix-blend-mode:normal;color-interpolation:sRGB;color-interpolation-filters:linearRGB;solid-color:#000000;solid-opacity:1;vector-effect:none;fill:#000000;fill-opacity:0.42307691;fill-rule:nonzero;stroke:none;stroke-width:4.46522236;stroke-linecap:butt;stroke-linejoin:miter;stroke-miterlimit:4;stroke-dasharray:none;stroke-dashoffset:0;stroke-opacity:1;marker:none;marker-start:none;marker-mid:none;marker-end:none;paint-order:fill markers stroke;color-rendering:auto;image-rendering:auto;shape-rendering:auto;text-rendering:auto;enable-background:accumulate" sodipodi:type="star"/>
      <path sodipodi:type="star" style="color:#000000;clip-rule:nonzero;display:block;overflow:visible;visibility:visible;opacity:1;isolation:auto;mix-blend-mode:normal;color-interpolation:sRGB;color-interpolation-filters:linearRGB;solid-color:#000000;solid-opacity:1;vector-effect:none;fill:url(#linearGradient1073-32);fill-opacity:1;fill-rule:nonzero;stroke:none;stroke-width:4.37220049;stroke-linecap:butt;stroke-linejoin:miter;stroke-miterlimit:4;stroke-dasharray:none;stroke-dashoffset:0;stroke-opacity:1;marker:none;marker-start:none;marker-mid:none;marker-end:none;paint-order:fill markers stroke;color-rendering:auto;image-rendering:auto;shape-rendering:auto;text-rendering:auto;enable-background:accumulate" id="path931-7" sodipodi:sides="6" sodipodi:cx="23.999958" sodipodi:cy="24" sodipodi:r1="23.499899" sodipodi:r2="20.351509" sodipodi:arg1="0" sodipodi:arg2="0.52359878" inkscape:flatsided="true" inkscape:rounded="0.07" inkscape:randomized="0" d="m 47.499857,24 c 0,1.644993 -10.325344,19.529013 -11.74995,20.351509 -1.424605,0.822497 -22.075293,0.822497 -23.499898,0 C 10.825403,43.529013 0.50005913,25.644993 0.50005913,24 c 0,-1.644993 10.32534387,-19.529013 11.74994987,-20.3515094 1.424605,-0.8224965 22.075293,-0.8224965 23.499898,0 C 37.174513,4.470987 47.499857,22.355007 47.499857,24 Z"/>
      <path d="m 43.999874,24 c 0,1.399994 -8.787527,16.620438 -9.999958,17.320435 -1.21243,0.699997 -18.787486,0.699997 -19.999916,0 C 12.78757,40.620438 4.000042,25.399994 4.000042,24 4.000042,22.600006 12.78757,7.3795617 14,6.6795646 c 1.21243,-0.6999971 18.787486,-0.6999971 19.999916,0 C 35.212347,7.3795617 43.999874,22.600006 43.999874,24 Z" inkscape:randomized="0" inkscape:rounded="0.07" inkscape:flatsided="true" sodipodi:arg2="0.52359878" sodipodi:arg1="0" sodipodi:r2="17.320436" sodipodi:r1="19.999916" sodipodi:cy="24" sodipodi:cx="23.999958" sodipodi:sides="6" id="path927-45" style="color:#000000;clip-rule:nonzero;display:block;overflow:visible;visibility:visible;opacity:1;isolation:auto;mix-blend-mode:normal;color-interpolation:sRGB;color-interpolation-filters:linearRGB;solid-color:#000000;solid-opacity:1;vector-effect:none;fill:#f6f5f4;fill-opacity:0.09890113;fill-rule:nonzero;stroke:none;stroke-width:3.72102213;stroke-linecap:butt;stroke-linejoin:miter;stroke-miterlimit:4;stroke-dasharray:none;stroke-dashoffset:0;stroke-opacity:1;marker:none;marker-start:none;marker-mid:none;marker-end:none;paint-order:fill markers stroke;color-rendering:auto;image-rendering:auto;shape-rendering:auto;text-rendering:auto;enable-background:accumulate" sodipodi:type="star"/>
      <path sodipodi:type="star" style="color:#000000;clip-rule:nonzero;display:block;overflow:visible;visibility:visible;opacity:1;isolation:auto;mix-blend-mode:normal;color-interpolation:sRGB;color-interpolation-filters:linearRGB;solid-color:#000000;solid-opacity:1;vector-effect:none;fill:#f6f5f4;fill-opacity:0.09890113;fill-rule:nonzero;stroke:none;stroke-width:3.2558949;stroke-linecap:butt;stroke-linejoin:miter;stroke-miterlimit:4;stroke-dasharray:none;stroke-dashoffset:0;stroke-opacity:1;marker:none;marker-start:none;marker-mid:none;marker-end:none;paint-order:fill markers stroke;color-rendering:auto;image-rendering:auto;shape-rendering:auto;text-rendering:auto;enable-background:accumulate" id="path925-2" sodipodi:sides="6" sodipodi:cx="23.999958" sodipodi:cy="24" sodipodi:r1="17.499929" sodipodi:r2="15.155384" sodipodi:arg1="0" sodipodi:arg2="0.52359878" inkscape:flatsided="true" inkscape:rounded="0.07" inkscape:randomized="0" d="m 41.499887,24 c 0,1.224995 -7.689087,14.542886 -8.749964,15.155383 -1.060877,0.612498 -16.439053,0.612498 -17.49993,0 C 14.189116,38.542886 6.5000286,25.224995 6.5000286,24 c 0,-1.224995 7.6890874,-14.5428859 8.7499644,-15.1553834 1.060877,-0.6124976 16.439053,-0.6124976 17.49993,0 C 33.8108,9.4571141 41.499887,22.775005 41.499887,24 Z"/>
      <path inkscape:connector-curvature="0" id="path982-5" d="m 23.999981,3.0313602 c -5.518821,0 -11.037637,0.205934 -11.749938,0.6171868 C 10.825435,4.4710426 0.50010463,22.355008 0.50010463,24 c 0,0.06009 0.0173499,0.148199 0.0439498,0.249998 C 1.2461057,21.564887 10.87748,4.9409952 12.250048,4.1485443 c 1.424607,-0.8225006 22.075268,-0.8225006 23.499875,0 1.372568,0.7924509 11.003942,17.4163427 11.705994,20.1014537 0.0266,-0.101799 0.04395,-0.189909 0.04395,-0.249998 0,-1.644992 -10.32533,-19.5289574 -11.749938,-20.351453 C 35.037627,3.2372942 29.518811,3.0313602 23.999991,3.0313602 Z" style="color:#000000;clip-rule:nonzero;display:inline;overflow:visible;visibility:visible;opacity:1;isolation:auto;mix-blend-mode:normal;color-interpolation:sRGB;color-interpolation-filters:linearRGB;solid-color:#000000;solid-opacity:1;vector-effect:none;fill:#f5deb2;fill-opacity:0.24725276;fill-rule:nonzero;stroke:none;stroke-width:4.37220049;stroke-linecap:butt;stroke-linejoin:miter;stroke-miterlimit:4;stroke-dasharray:none;stroke-dashoffset:0;stroke-opacity:1;marker:none;marker-start:none;marker-mid:none;marker-end:none;paint-order:fill markers stroke;color-rendering:auto;image-rendering:auto;shape-rendering:auto;text-rendering:auto;enable-background:accumulate"/>
      <path style="color:#000000;font-style:normal;font-variant:normal;font-weight:normal;font-stretch:normal;font-size:medium;line-height:normal;font-family:sans-serif;font-variant-ligatures:normal;font-variant-position:normal;font-variant-caps:normal;font-variant-numeric:normal;font-variant-alternates:normal;font-feature-settings:normal;text-indent:0;text-align:start;text-decoration:none;text-decoration-line:none;text-decoration-style:solid;text-decoration-color:#000000;letter-spacing:normal;word-spacing:normal;text-transform:none;writing-mode:lr-tb;direction:ltr;text-orientation:mixed;dominant-baseline:auto;baseline-shift:baseline;text-anchor:start;white-space:normal;shape-padding:0;clip-rule:nonzero;display:block;overflow:visible;visibility:visible;opacity:1;isolation:auto;mix-blend-mode:normal;color-interpolation:sRGB;color-interpolation-filters:linearRGB;solid-color:#000000;solid-opacity:1;vector-effect:none;fill:#000000;fill-opacity:0.2142857;fill-rule:nonzero;stroke:none;stroke-width:2.99998426;stroke-linecap:butt;stroke-linejoin:miter;stroke-miterlimit:4;stroke-dasharray:none;stroke-dashoffset:0;stroke-opacity:1;marker:none;paint-order:fill markers stroke;color-rendering:auto;image-rendering:auto;shape-rendering:auto;text-rendering:auto;enable-background:accumulate" d="m 23.999981,12.006898 c -1.579602,0 -3.156639,0.02775 -4.415017,0.08594 -0.629187,0.0291 -1.175719,0.06528 -1.626942,0.11328 -0.225613,0.024 -0.425967,0.05044 -0.623046,0.08789 -0.197074,0.03745 -0.346063,0.0275 -0.741206,0.249024 -0.395148,0.221509 -0.462788,0.353003 -0.594722,0.499997 -0.131945,0.146994 -0.255434,0.301779 -0.389648,0.479488 -0.268429,0.355418 -0.573517,0.797005 -0.91406,1.311518 -0.681097,1.029029 -1.494362,2.341663 -2.284163,3.669901 -0.789801,1.328238 -1.552597,2.66764 -2.129874,3.754865 -0.2886435,0.543617 -0.5310672,1.021374 -0.7138613,1.424797 -0.091399,0.201709 -0.1682591,0.382938 -0.2333987,0.567377 -0.065135,0.184439 -0.1484392,0.306004 -0.1484392,0.749021 0,0.443018 0.083304,0.564582 0.1484392,0.749021 0.06514,0.184439 0.1419992,0.365668 0.2333987,0.567377 0.1827941,0.403423 0.4252178,0.881181 0.7138613,1.424798 0.577277,1.087224 1.340073,2.426627 2.129874,3.754865 0.509317,0.85654 1.014844,1.674581 1.501942,2.446277 l -2.087599,6.055313 5.282897,-2.334633 c 0.07789,0.0161 0.151089,0.02865 0.226559,0.04295 0.197079,0.03745 0.397433,0.06389 0.623046,0.08789 0.451223,0.048 0.997755,0.08418 1.626942,0.113279 1.258378,0.05819 2.835415,0.08594 4.415017,0.08594 1.579606,0 3.155663,-0.02775 4.414036,-0.08594 0.629187,-0.0291 1.176699,-0.06528 1.627922,-0.113279 0.225613,-0.024 0.425962,-0.05045 0.623046,-0.08789 0.197074,-0.03745 0.346058,-0.0275 0.741206,-0.249024 0.395148,-0.221508 0.462788,-0.353003 0.594722,-0.499997 0.13194,-0.146994 0.255434,-0.301778 0.389648,-0.479487 0.268424,-0.355419 0.573517,-0.797006 0.91406,-1.311518 0.681097,-1.02903 1.494357,-2.341663 2.284163,-3.669901 0.789801,-1.328238 1.552592,-2.667641 2.129874,-3.754865 0.288644,-0.543617 0.530092,-1.021375 0.712886,-1.424798 0.0914,-0.201709 0.169234,-0.382938 0.234374,-0.567377 0.06514,-0.184439 0.148439,-0.306003 0.148439,-0.749021 0,-0.443017 -0.0833,-0.564582 -0.148439,-0.749021 -0.06514,-0.184439 -0.142974,-0.365668 -0.234374,-0.567377 -0.182799,-0.403423 -0.424242,-0.88118 -0.712886,-1.424797 -0.577282,-1.087225 -1.340073,-2.426627 -2.129874,-3.754865 -0.789806,-1.328238 -1.603076,-2.640872 -2.284163,-3.669901 -0.340548,-0.514513 -0.645636,-0.9561 -0.91406,-1.311518 -0.134214,-0.177709 -0.257708,-0.332494 -0.389648,-0.479488 -0.131934,-0.146994 -0.199574,-0.278488 -0.594722,-0.499997 -0.395148,-0.221509 -0.544132,-0.211574 -0.741206,-0.249024 -0.197084,-0.03745 -0.397433,-0.06389 -0.623046,-0.08789 -0.451223,-0.048 -0.99873,-0.08418 -1.627922,-0.11328 -1.258373,-0.05819 -2.83443,-0.08594 -4.414036,-0.08594 z m 0,2.956039 c 1.541791,0 3.087103,0.0283 4.270487,0.08301 0.171304,0.0079 0.262114,0.02025 0.416988,0.0293 l -4.71384,7.017544 -4.77244,-7.010709 c 0.189904,-0.01175 0.311308,-0.0261 0.528317,-0.03615 1.183389,-0.05473 2.728701,-0.08301 4.270488,-0.08301 z m 7.453085,2.580067 c 0.481563,0.760921 0.987305,1.577901 1.499017,2.438462 0.770896,1.296443 1.518627,2.609381 2.061509,3.631816 0.271444,0.511222 0.492118,0.952385 0.631837,1.260738 0.0262,0.05783 0.0327,0.07869 0.05273,0.125974 -0.02005,0.0473 -0.02655,0.06814 -0.05273,0.125975 -0.139719,0.308353 -0.360393,0.749516 -0.631837,1.260738 -0.542882,1.022434 -1.290613,2.335373 -2.061509,3.631816 -0.586512,0.986355 -1.167544,1.920455 -1.704096,2.758775 l -5.047823,-7.415001 z m -14.960856,0.08496 5.275362,7.748984 -4.994113,7.433551 c -0.541892,-0.845616 -1.131294,-1.792541 -1.725581,-2.791975 -0.770896,-1.296443 -1.518627,-2.609382 -2.061509,-3.631816 -0.271444,-0.511222 -0.492118,-0.952385 -0.631837,-1.260738 -0.0262,-0.05784 -0.0327,-0.07869 -0.05273,-0.125975 0.02005,-0.0473 0.02655,-0.06814 0.05273,-0.125974 0.139719,-0.308353 0.360393,-0.749516 0.631837,-1.260738 0.542882,-1.022435 1.290613,-2.335373 2.061509,-3.631816 0.491842,-0.827146 0.97841,-1.615207 1.444332,-2.353503 z m 7.501911,11.018497 4.292947,6.306607 c -0.0068,3.15e-4 -0.0098,4.75e-4 -0.0166,10e-4 -1.183384,0.05473 -2.728696,0.08301 -4.270487,0.08301 -1.531627,0 -3.063809,-0.02805 -4.244118,-0.08203 z" id="path923-47" inkscape:connector-curvature="0" sodipodi:nodetypes="ccccccscscccsccccccccccsccccccccscssscsccccscccccccccccccccscccscccccccsscccscccccscc"/>
      <path style="color:#000000;font-style:normal;font-variant:normal;font-weight:normal;font-stretch:normal;font-size:medium;line-height:normal;font-family:sans-serif;font-variant-ligatures:normal;font-variant-position:normal;font-variant-caps:normal;font-variant-numeric:normal;font-variant-alternates:normal;font-feature-settings:normal;text-indent:0;text-align:start;text-decoration:none;text-decoration-line:none;text-decoration-style:solid;text-decoration-color:#000000;letter-spacing:normal;word-spacing:normal;text-transform:none;writing-mode:lr-tb;direction:ltr;text-orientation:mixed;dominant-baseline:auto;baseline-shift:baseline;text-anchor:start;white-space:normal;shape-padding:0;clip-rule:nonzero;display:block;overflow:visible;visibility:visible;opacity:1;isolation:auto;mix-blend-mode:normal;color-interpolation:sRGB;color-interpolation-filters:linearRGB;solid-color:#000000;solid-opacity:1;vector-effect:none;fill:url(#linearGradient921-1);fill-opacity:1;fill-rule:nonzero;stroke:none;stroke-width:0.49999735;stroke-linecap:butt;stroke-linejoin:miter;stroke-miterlimit:4;stroke-dasharray:none;stroke-dashoffset:0;stroke-opacity:0.28021982;marker:none;paint-order:fill markers stroke;color-rendering:auto;image-rendering:auto;shape-rendering:auto;text-rendering:auto;enable-background:accumulate" d="m 23.999981,11.006903 c -1.579602,0 -3.156639,0.02775 -4.415017,0.08594 -0.629187,0.0291 -1.175719,0.06528 -1.626942,0.113279 -0.225613,0.024 -0.425967,0.05044 -0.623046,0.08789 -0.197074,0.03745 -0.346063,0.0275 -0.741206,0.249024 -0.395148,0.221509 -0.462788,0.353003 -0.594722,0.499998 -0.131945,0.146994 -0.255434,0.301778 -0.389648,0.479487 -0.268429,0.355418 -0.573517,0.797006 -0.91406,1.311518 -0.681097,1.02903 -1.494362,2.341663 -2.284163,3.669901 -0.789801,1.328238 -1.552597,2.667641 -2.129874,3.754865 C 9.9926595,21.802421 9.7502358,22.280179 9.5674417,22.683601 9.4760422,22.88531 9.3991826,23.066539 9.334043,23.250978 9.2689083,23.435417 9.1856038,23.556982 9.1856038,24 c 0,0.443017 0.083304,0.564582 0.1484392,0.749021 0.06514,0.184439 0.1419992,0.365668 0.2333987,0.567377 0.1827941,0.403422 0.4252178,0.88118 0.7138613,1.424797 0.577277,1.087224 1.340073,2.426627 2.129874,3.754865 0.504662,0.848711 1.006024,1.659716 1.489247,2.425767 l -2.057604,6.578091 5.163057,-2.861315 c 0.125995,0.03715 0.221959,0.047 0.329099,0.06738 0.197079,0.03745 0.397433,0.06389 0.623046,0.08789 0.451223,0.048 0.997755,0.08418 1.626942,0.113279 1.258378,0.05819 2.835415,0.08594 4.415017,0.08594 1.579606,0 3.155663,-0.02775 4.414036,-0.08594 0.629187,-0.0291 1.176699,-0.06528 1.627922,-0.113279 0.225613,-0.024 0.425962,-0.05045 0.623046,-0.08789 0.197074,-0.03745 0.346058,-0.0275 0.741206,-0.249023 0.395148,-0.221509 0.462788,-0.353003 0.594722,-0.499998 0.13194,-0.146994 0.255434,-0.301778 0.389648,-0.479487 0.268424,-0.355418 0.573517,-0.797006 0.91406,-1.311518 0.681097,-1.02903 1.494357,-2.341663 2.284163,-3.669901 0.789801,-1.328238 1.552592,-2.667641 2.129874,-3.754865 0.288644,-0.543617 0.530092,-1.021375 0.712886,-1.424797 0.0914,-0.201709 0.169234,-0.382938 0.234374,-0.567377 0.06514,-0.184439 0.148439,-0.306004 0.148439,-0.749021 0,-0.443018 -0.0833,-0.564583 -0.148439,-0.749022 -0.06514,-0.184439 -0.142974,-0.365668 -0.234374,-0.567377 -0.182799,-0.403422 -0.424242,-0.88118 -0.712886,-1.424797 -0.577282,-1.087224 -1.340073,-2.426627 -2.129874,-3.754865 -0.789806,-1.328238 -1.603076,-2.640871 -2.284163,-3.669901 -0.340548,-0.514512 -0.645636,-0.9561 -0.91406,-1.311518 -0.134214,-0.177709 -0.257708,-0.332493 -0.389648,-0.479487 -0.131934,-0.146995 -0.199574,-0.278489 -0.594722,-0.499998 -0.395148,-0.221509 -0.544132,-0.211574 -0.741206,-0.249024 -0.197084,-0.03745 -0.397433,-0.06389 -0.623046,-0.08789 -0.451223,-0.048 -0.99873,-0.08418 -1.627922,-0.113279 -1.258373,-0.05819 -2.83443,-0.08594 -4.414036,-0.08594 z m 0,2.956039 c 1.541791,0 3.087103,0.0283 4.270487,0.08301 0.171304,0.0079 0.262114,0.02025 0.416988,0.0293 l -4.71384,7.017543 -4.77244,-7.010708 c 0.189904,-0.01175 0.311308,-0.0261 0.528317,-0.03615 1.183389,-0.05473 2.728701,-0.08301 4.270488,-0.08301 z m 7.453085,2.580067 c 0.481563,0.760921 0.987305,1.577902 1.499017,2.438462 0.770896,1.296443 1.518627,2.609381 2.061509,3.631816 0.271444,0.511222 0.492118,0.952385 0.631837,1.260738 0.0262,0.05784 0.0327,0.07869 0.05273,0.125975 -0.02005,0.0473 -0.02655,0.06814 -0.05273,0.125974 -0.139719,0.308353 -0.360393,0.749516 -0.631837,1.260738 -0.542882,1.022435 -1.290613,2.335373 -2.061509,3.631816 -0.586512,0.986355 -1.167544,1.920455 -1.704096,2.758775 l -5.047823,-7.415 z m -14.960856,0.08496 5.275362,7.748985 -4.994113,7.43355 c -0.541892,-0.845615 -1.131294,-1.79254 -1.725581,-2.791975 -0.770896,-1.296443 -1.518627,-2.609381 -2.061509,-3.631816 -0.271444,-0.511222 -0.492118,-0.952385 -0.631837,-1.260738 -0.0262,-0.05784 -0.0327,-0.07869 -0.05273,-0.125974 0.02005,-0.0473 0.02655,-0.06814 0.05273,-0.125975 0.139719,-0.308353 0.360393,-0.749516 0.631837,-1.260738 0.542882,-1.022435 1.290613,-2.335373 2.061509,-3.631816 0.491842,-0.827146 0.97841,-1.615206 1.444332,-2.353503 z m 7.501911,11.018497 4.292947,6.306607 c -0.0068,3.15e-4 -0.0098,4.75e-4 -0.0166,10e-4 -1.183384,0.05473 -2.728696,0.08301 -4.270487,0.08301 -1.531627,0 -3.063809,-0.02805 -4.244118,-0.08203 z" id="path902-4" inkscape:connector-curvature="0" sodipodi:nodetypes="scccccscscccscccsccccccsccccccccscssscsccccscccsccccccccccscccscccccccsscccscccccscc"/>
      <path style="display:inline;opacity:1;vector-effect:none;fill:url(#linearGradient1036-4);fill-opacity:1;fill-rule:evenodd;stroke:none;stroke-width:0.49999735px;stroke-linecap:butt;stroke-linejoin:miter;stroke-miterlimit:4;stroke-dasharray:none;stroke-dashoffset:0;stroke-opacity:1" d="m 16.773459,31.810503 7.220662,-4.164038 -2.226549,-3.269512 z" id="path945-4" inkscape:connector-curvature="0" sodipodi:nodetypes="cccc"/>
      <path sodipodi:nodetypes="cccc" inkscape:connector-curvature="0" id="path955-30" d="m 31.247987,31.777303 -7.253866,-4.130838 2.226548,-3.269512 z" style="display:inline;fill:url(#linearGradient957-5);fill-opacity:1;fill-rule:evenodd;stroke:none;stroke-width:0.49999735px;stroke-linecap:butt;stroke-linejoin:miter;stroke-opacity:1"/>
      <path sodipodi:nodetypes="cccc" inkscape:connector-curvature="0" id="path959-7" d="m 16.49221,16.627968 7.481406,4.464827 -2.206044,3.284158 z" style="display:inline;fill:url(#linearGradient963-6);fill-opacity:1;fill-rule:evenodd;stroke:none;stroke-width:0.49999735px;stroke-linecap:butt;stroke-linejoin:miter;stroke-opacity:1"/>
      <path style="display:inline;fill:url(#linearGradient965-9);fill-opacity:1;fill-rule:evenodd;stroke:none;stroke-width:0.49999735px;stroke-linecap:butt;stroke-linejoin:miter;stroke-opacity:1" d="m 31.499941,16.563034 -7.526325,4.529761 2.226548,3.269508 z" id="path961-8" inkscape:connector-curvature="0" sodipodi:nodetypes="cccc"/>
      <path style="color:#000000;font-style:normal;font-variant:normal;font-weight:normal;font-stretch:normal;font-size:medium;line-height:normal;font-family:sans-serif;font-variant-ligatures:normal;font-variant-position:normal;font-variant-caps:normal;font-variant-numeric:normal;font-variant-alternates:normal;font-feature-settings:normal;text-indent:0;text-align:start;text-decoration:none;text-decoration-line:none;text-decoration-style:solid;text-decoration-color:#000000;letter-spacing:normal;word-spacing:normal;text-transform:none;writing-mode:lr-tb;direction:ltr;text-orientation:mixed;dominant-baseline:auto;baseline-shift:baseline;text-anchor:start;white-space:normal;shape-padding:0;clip-rule:nonzero;display:block;overflow:visible;visibility:visible;opacity:1;isolation:auto;mix-blend-mode:normal;color-interpolation:sRGB;color-interpolation-filters:linearRGB;solid-color:#000000;solid-opacity:1;vector-effect:none;fill:#f5edb2;fill-opacity:0.38461543;fill-rule:nonzero;stroke:none;stroke-width:0.49999735;stroke-linecap:butt;stroke-linejoin:miter;stroke-miterlimit:4;stroke-dasharray:none;stroke-dashoffset:0;stroke-opacity:0.28021982;marker:none;paint-order:fill markers stroke;color-rendering:auto;image-rendering:auto;shape-rendering:auto;text-rendering:auto;enable-background:accumulate" d="m 23.999981,11.006903 c -1.579602,0 -3.156639,0.02775 -4.415017,0.08594 -0.629187,0.0291 -1.175719,0.06528 -1.626942,0.113279 -0.225613,0.024 -0.425967,0.05044 -0.623046,0.08789 -0.197074,0.03745 -0.346063,0.0275 -0.741206,0.249024 -0.395148,0.221509 -0.462788,0.353003 -0.594722,0.499998 -0.131945,0.146994 -0.255434,0.301778 -0.389648,0.479487 -0.268429,0.355418 -0.573517,0.797006 -0.91406,1.311518 -0.681097,1.02903 -1.494362,2.341663 -2.284163,3.669901 -0.789801,1.328238 -1.552597,2.667641 -2.129874,3.754865 C 9.9926595,21.802421 9.7502358,22.280179 9.5674417,22.683601 9.4760422,22.88531 9.3991826,23.066539 9.334043,23.250978 9.2689083,23.435417 9.1856038,23.556982 9.1856038,24 c 0,0.09949 0.00545,0.178579 0.0127,0.249998 0.02505,-0.246599 0.085235,-0.356003 0.1357443,-0.499022 0.06514,-0.184439 0.1419992,-0.365668 0.2333987,-0.567377 0.1827941,-0.403423 0.4252178,-0.881181 0.7138612,-1.424798 0.577277,-1.087224 1.340073,-2.426627 2.129874,-3.754865 0.789801,-1.328238 1.603066,-2.640871 2.284163,-3.669901 0.340543,-0.514512 0.645631,-0.9561 0.91406,-1.311518 0.134214,-0.177709 0.257703,-0.332493 0.389648,-0.479487 0.131934,-0.146994 0.199574,-0.278489 0.594722,-0.499997 0.395143,-0.221524 0.544132,-0.211574 0.741206,-0.249024 0.197079,-0.03745 0.397433,-0.06389 0.623046,-0.08789 0.451223,-0.048 0.997755,-0.08418 1.626942,-0.113279 1.258378,-0.05819 2.835415,-0.08594 4.415017,-0.08594 1.579606,0 3.155663,0.02775 4.414036,0.08594 0.629192,0.0291 1.176699,0.06528 1.627922,0.113279 0.225613,0.024 0.425962,0.05044 0.623046,0.08789 0.197074,0.03745 0.346058,0.0275 0.741206,0.249024 0.395148,0.221508 0.462788,0.353003 0.594722,0.499997 0.13194,0.146994 0.255434,0.301778 0.389648,0.479487 0.268424,0.355418 0.573512,0.797006 0.91406,1.311518 0.681082,1.02903 1.494357,2.341663 2.284163,3.669901 0.789801,1.328238 1.552592,2.667641 2.129874,3.754865 0.288644,0.543617 0.530087,1.021375 0.712886,1.424798 0.0914,0.201709 0.169234,0.382938 0.234374,0.567377 0.05051,0.143019 0.110699,0.252423 0.135744,0.499022 0.0072,-0.07142 0.0127,-0.150504 0.0127,-0.249998 0,-0.443018 -0.0833,-0.564583 -0.148439,-0.749022 -0.06514,-0.184439 -0.142974,-0.365668 -0.234374,-0.567377 -0.182799,-0.403422 -0.424242,-0.88118 -0.712886,-1.424797 -0.577282,-1.087224 -1.340073,-2.426627 -2.129874,-3.754865 -0.789806,-1.328238 -1.603081,-2.640871 -2.284163,-3.669901 -0.340548,-0.514512 -0.645636,-0.9561 -0.91406,-1.311518 -0.134214,-0.177709 -0.257708,-0.332493 -0.389648,-0.479487 -0.131934,-0.146995 -0.199574,-0.278489 -0.594722,-0.499998 -0.395148,-0.221509 -0.544132,-0.211574 -0.741206,-0.249024 -0.197084,-0.03745 -0.397433,-0.06389 -0.623046,-0.08789 -0.451223,-0.048 -0.99873,-0.08418 -1.627922,-0.113279 -1.258373,-0.05819 -2.83443,-0.08594 -4.414036,-0.08594 z m 4.367166,3.545881 -4.393531,6.540006 -4.447247,-6.533171 c -0.103259,0.0076 -0.208294,0.01525 -0.325193,0.02245 l 4.77244,7.010708 4.71384,-7.017543 c -0.118965,-0.0069 -0.211429,-0.0151 -0.320309,-0.02245 z m -15.950115,9.697214 c -0.0153,0.0329 -0.04875,0.09365 -0.0625,0.124025 -0.0262,0.05783 -0.0327,0.07867 -0.05273,0.125974 0.02005,0.0473 0.02655,0.06814 0.05273,0.125974 0.139719,0.308354 0.360393,0.749516 0.631837,1.260739 0.542882,1.022434 1.290613,2.335372 2.061509,3.631815 0.594287,0.999435 1.183689,1.94636 1.725581,2.791976 l 4.994113,-7.433551 -0.168944,-0.248049 -4.825169,7.181602 c -0.541892,-0.845615 -1.131294,-1.79254 -1.725581,-2.791975 -0.770896,-1.296443 -1.518627,-2.609381 -2.061509,-3.631816 -0.244714,-0.460877 -0.429263,-0.835695 -0.569337,-1.136714 z m 23.165897,0 c -0.140074,0.301019 -0.324623,0.675837 -0.569337,1.136714 -0.542882,1.022435 -1.290613,2.335373 -2.061509,3.631816 -0.586512,0.986355 -1.167544,1.920455 -1.704096,2.758775 l -4.878879,-7.166957 -0.168944,0.251954 5.047823,7.415001 c 0.536552,-0.838321 1.117584,-1.772421 1.704096,-2.758776 0.770896,-1.296443 1.518627,-2.609381 2.061509,-3.631815 0.271444,-0.511223 0.492118,-0.952385 0.631837,-1.260739 0.0262,-0.05784 0.0327,-0.07867 0.05273,-0.125974 -0.02005,-0.0473 -0.02655,-0.06814 -0.05273,-0.125974 -0.01375,-0.03035 -0.0472,-0.09114 -0.0625,-0.124025 z m -21.767465,9.032177 -1.972644,6.217743 0.138669,-0.08496 1.918935,-5.993133 c -0.02775,-0.044 -0.05709,-0.09536 -0.08496,-0.13965 z m 14.138596,0.681637 c -1.140424,0.04655 -2.534187,0.07324 -3.954079,0.07324 -1.404998,0 -2.781131,-0.0267 -3.91502,-0.07226 l -0.329098,0.490232 c 1.180309,0.05398 2.712491,0.08203 4.244118,0.08203 1.541791,0 3.087103,-0.0283 4.270487,-0.08301 0.0068,-5e-4 0.0098,-5e-4 0.0166,-0.001 z" id="path977-6" inkscape:connector-curvature="0" sodipodi:nodetypes="scccccscscccsccccscscccccsccccccccscccsscsccccscccsscccccccccccssccccsccccccccccsccccccccccsccsccc"/>
      <path sodipodi:type="star" style="color:#000000;clip-rule:nonzero;display:inline;overflow:visible;visibility:visible;opacity:1;isolation:auto;mix-blend-mode:normal;color-interpolation:sRGB;color-interpolation-filters:linearRGB;solid-color:#000000;solid-opacity:1;vector-effect:none;fill:#000000;fill-opacity:0.1978022;fill-rule:nonzero;stroke:none;stroke-width:0.52205139;stroke-linecap:butt;stroke-linejoin:miter;stroke-miterlimit:4;stroke-dasharray:none;stroke-dashoffset:0;stroke-opacity:0.28021982;marker:none;marker-start:none;marker-mid:none;marker-end:none;paint-order:fill markers stroke;color-rendering:auto;image-rendering:auto;shape-rendering:auto;text-rendering:auto;enable-background:accumulate" id="path987-8" sodipodi:sides="4" sodipodi:cx="23.999958" sodipodi:cy="24.4112" sodipodi:r1="2.0887876" sodipodi:r2="0.77243418" sodipodi:arg1="1.5707963" sodipodi:arg2="2.3561945" inkscape:flatsided="false" inkscape:rounded="0.07" inkscape:randomized="0" d="m 23.999958,26.499987 c -0.11455,0 -0.465194,-1.461595 -0.546193,-1.542594 -0.081,-0.081 -1.542595,-0.431643 -1.542595,-0.546193 0,-0.114551 1.461595,-0.465194 1.542595,-0.546194 0.081,-0.081 0.431642,-1.542594 0.546193,-1.542594 0.114551,0 0.465194,1.461595 0.546193,1.542594 0.081,0.081 1.542595,0.431643 1.542595,0.546194 0,0.11455 -1.461595,0.465194 -1.542595,0.546193 -0.081,0.081 -0.431642,1.542594 -0.546193,1.542594 z"/>
    </g>
  </g>
</svg>