<?xml version="1.0" encoding="UTF-8" standalone="yes"?>
<svg xmlns:dc="http://purl.org/dc/elements/1.1/" xmlns:cc="http://creativecommons.org/ns#" xmlns:rdf="http://www.w3.org/1999/02/22-rdf-syntax-ns#" xmlns:svg="http://www.w3.org/2000/svg" xmlns="http://www.w3.org/2000/svg" xmlns:xlink="http://www.w3.org/1999/xlink" xmlns:sodipodi="http://sodipodi.sourceforge.net/DTD/sodipodi-0.dtd" xmlns:inkscape="http://www.inkscape.org/namespaces/inkscape" height="32" viewBox="0 0 32 32" width="32" id="svg2" version="1.1" inkscape:version="0.92.1 r" sodipodi:docname="org.gnome.Calendar.svg" enable-background="new" folder="32">
  <title id="title4675">Template icons dark</title>
  <metadata id="metadata24">
    <rdf:RDF>
      <cc:Work rdf:about="">
        <dc:format>image/svg+xml</dc:format>
        <dc:type rdf:resource="http://purl.org/dc/dcmitype/StillImage"/>
        <dc:title>Template icons dark</dc:title>
        <dc:date>17/05/13</dc:date>
        <dc:creator>
          <cc:Agent>
            <dc:title>wfpaisa</dc:title>
          </cc:Agent>
        </dc:creator>
        <dc:rights>
          <cc:Agent>
            <dc:title>License: GPLv3</dc:title>
          </cc:Agent>
        </dc:rights>
        <dc:language>es-en</dc:language>
        <dc:subject>
          <rdf:Bag>
            <rdf:li>plane-icon-theme</rdf:li>
          </rdf:Bag>
        </dc:subject>
        <dc:description>Template for create set icons</dc:description>
        <cc:license rdf:resource="https://www.gnu.org/licenses/gpl-3.0.en.html"/>
      </cc:Work>
    </rdf:RDF>
  </metadata>
  <defs id="defs22">
    <linearGradient inkscape:collect="always" id="linearGradient8739">
      <stop style="stop-color:#647780;stop-opacity:1" offset="0" id="stop8735"/>
      <stop style="stop-color:#ffffff;stop-opacity:1" offset="1" id="stop8737"/>
    </linearGradient>
    <linearGradient inkscape:collect="always" id="linearGradient8731">
      <stop style="stop-color:#000000;stop-opacity:0.13541667" offset="0" id="stop8727"/>
      <stop style="stop-color:#000000;stop-opacity:0;" offset="1" id="stop8729"/>
    </linearGradient>
    <linearGradient id="linearGradient8021">
      <stop style="stop-color:#391f3c;stop-opacity:0.05921053;" offset="0" id="stop8017"/>
      <stop style="stop-color:#391f3c;stop-opacity:0;" offset="1" id="stop8019"/>
    </linearGradient>
    <linearGradient inkscape:collect="always" id="linearGradient7998">
      <stop style="stop-color:#d8d8d8;stop-opacity:1" offset="0" id="stop7994"/>
      <stop style="stop-color:#ffffff;stop-opacity:0.99479169" offset="1" id="stop7996"/>
    </linearGradient>
    <linearGradient inkscape:collect="always" id="linearGradient7949">
      <stop style="stop-color:#626262;stop-opacity:1;" offset="0" id="stop7945"/>
      <stop style="stop-color:#626262;stop-opacity:0;" offset="1" id="stop7947"/>
    </linearGradient>
    <linearGradient id="linearGradient7937">
      <stop style="stop-color:#69c2b7;stop-opacity:1;" offset="0" id="stop7933"/>
      <stop style="stop-color:#64a5b5;stop-opacity:1;" offset="1" id="stop7935"/>
    </linearGradient>
    <linearGradient inkscape:collect="always" xlink:href="#linearGradient7949" id="linearGradient7951" x1="118" y1="160" x2="120" y2="160" gradientUnits="userSpaceOnUse"/>
    <linearGradient inkscape:collect="always" xlink:href="#linearGradient7937" id="linearGradient7973" gradientUnits="userSpaceOnUse" x1="164" y1="143.61456" x2="164" y2="180" gradientTransform="matrix(1.1292722,0,0,1.1292722,-20.7064,-15.965197)"/>
    <linearGradient inkscape:collect="always" xlink:href="#linearGradient7998" id="linearGradient8000" x1="196" y1="196" x2="159.99995" y2="160" gradientUnits="userSpaceOnUse"/>
    <linearGradient inkscape:collect="always" xlink:href="#linearGradient8021" id="linearGradient8023" x1="160.06299" y1="136" x2="160.06299" y2="118.48818" gradientUnits="userSpaceOnUse"/>
    <linearGradient gradientTransform="matrix(0.53332955,0,0,0.53332955,-61.351528,-61.866057)" inkscape:collect="always" xlink:href="#linearGradient8021" id="linearGradient8023-7" x1="160.06299" y1="136" x2="160.06299" y2="118.48818" gradientUnits="userSpaceOnUse"/>
    <linearGradient gradientTransform="matrix(0.53332955,0,0,0.53332955,-61.351528,-61.866057)" inkscape:collect="always" xlink:href="#linearGradient7998" id="linearGradient8000-5" x1="196" y1="196" x2="159.99995" y2="160" gradientUnits="userSpaceOnUse"/>
    <linearGradient gradientTransform="matrix(1.3333295,0,0,1.3333295,58.163328,57.829998)" inkscape:collect="always" xlink:href="#linearGradient8021" id="linearGradient8023-2" x1="160.06299" y1="136" x2="160.06299" y2="118.48818" gradientUnits="userSpaceOnUse"/>
    <linearGradient gradientTransform="matrix(1.3333295,0,0,1.3333295,58.163328,57.829998)" inkscape:collect="always" xlink:href="#linearGradient7998" id="linearGradient8000-7" x1="196" y1="196" x2="159.99995" y2="160" gradientUnits="userSpaceOnUse"/>
    <linearGradient gradientTransform="matrix(0.68888636,0,0,0.68888636,-30.221818,-30.910704)" inkscape:collect="always" xlink:href="#linearGradient8021" id="linearGradient8023-3" x1="160.06299" y1="136" x2="160.06299" y2="118.48818" gradientUnits="userSpaceOnUse"/>
    <linearGradient gradientTransform="matrix(0.68888636,0,0,0.68888636,-30.221818,-30.910704)" inkscape:collect="always" xlink:href="#linearGradient7998" id="linearGradient8000-6" x1="196" y1="196" x2="159.99995" y2="160" gradientUnits="userSpaceOnUse"/>
    <linearGradient inkscape:collect="always" xlink:href="#linearGradient7937" id="linearGradient10555" gradientUnits="userSpaceOnUse" gradientTransform="matrix(1.0735468,0,0,1.0735468,-13.860128,-5.0001125)" x1="164" y1="143.61456" x2="164" y2="180"/>
    <linearGradient gradientTransform="matrix(0.18550593,0,0,0.18550593,-93.68749,-93.866455)" inkscape:collect="always" xlink:href="#linearGradient7998" id="linearGradient8000-5-1-8" x1="196" y1="196" x2="159.99995" y2="160" gradientUnits="userSpaceOnUse"/>
    <linearGradient inkscape:collect="always" xlink:href="#linearGradient7937" id="linearGradient10642" gradientUnits="userSpaceOnUse" gradientTransform="matrix(0.21848582,0,0,0.21848582,-98.970103,-98.329383)" x1="161.60631" y1="106.77756" x2="161.60631" y2="142.73558"/>
    <linearGradient inkscape:collect="always" xlink:href="#linearGradient7937" id="linearGradient10642-0" gradientUnits="userSpaceOnUse" gradientTransform="matrix(0.32772866,0,0,0.32772866,-96.455136,-95.494062)" x1="164" y1="143.61456" x2="164" y2="180"/>
    <linearGradient inkscape:collect="always" xlink:href="#linearGradient8731" id="linearGradient8733" x1="162" y1="188.70297" x2="162" y2="145" gradientUnits="userSpaceOnUse"/>
    <linearGradient inkscape:collect="always" xlink:href="#linearGradient8739" id="linearGradient8741" x1="174" y1="144.17661" x2="174" y2="189.1181" gradientUnits="userSpaceOnUse"/>
    <linearGradient inkscape:collect="always" xlink:href="#linearGradient8731" id="linearGradient8881" gradientUnits="userSpaceOnUse" x1="162" y1="188.70297" x2="162" y2="145"/>
    <linearGradient inkscape:collect="always" xlink:href="#linearGradient8739" id="linearGradient8883" gradientUnits="userSpaceOnUse" x1="174" y1="144.17661" x2="174" y2="189.1181"/>
    <linearGradient inkscape:collect="always" xlink:href="#linearGradient7937" id="linearGradient8885" gradientUnits="userSpaceOnUse" gradientTransform="matrix(1.1292722,0,0,1.1292722,-20.7064,-15.965197)" x1="164" y1="143.61456" x2="164" y2="180"/>
    <linearGradient inkscape:collect="always" xlink:href="#linearGradient8731" id="linearGradient8913" gradientUnits="userSpaceOnUse" x1="162" y1="188.70297" x2="162" y2="145"/>
    <linearGradient inkscape:collect="always" xlink:href="#linearGradient8739" id="linearGradient8915" gradientUnits="userSpaceOnUse" x1="174" y1="144.17661" x2="174" y2="189.1181"/>
    <linearGradient inkscape:collect="always" xlink:href="#linearGradient7937" id="linearGradient8917" gradientUnits="userSpaceOnUse" gradientTransform="matrix(1.1292722,0,0,1.1292722,-20.7064,-15.965197)" x1="164" y1="143.61456" x2="164" y2="180"/>
    <linearGradient inkscape:collect="always" xlink:href="#linearGradient8739" id="linearGradient8969" gradientUnits="userSpaceOnUse" x1="174" y1="144.17661" x2="174" y2="189.1181"/>
    <linearGradient inkscape:collect="always" xlink:href="#linearGradient7937" id="linearGradient8971" gradientUnits="userSpaceOnUse" gradientTransform="matrix(1.1292722,0,0,1.1292722,-20.7064,-15.965197)" x1="164" y1="143.61456" x2="164" y2="180"/>
  </defs>
  <sodipodi:namedview pagecolor="#383c4a" bordercolor="#ffffff" borderopacity="0.62745098" objecttolerance="4" gridtolerance="10" guidetolerance="4" inkscape:pageopacity="0" inkscape:pageshadow="2" inkscape:window-width="640" inkscape:window-height="480" id="namedview20" showgrid="true" inkscape:zoom="16.386532" inkscape:cx="-17.861891" inkscape:cy="48.045217" inkscape:current-layer="g7814" inkscape:snap-smooth-nodes="true" showguides="true" borderlayer="true" inkscape:showpageshadow="false" inkscape:guide-bbox="true" guidecolor="#bd4fff" guideopacity="0.78431373" inkscape:snap-nodes="true" inkscape:lockguides="false" fit-margin-top="0" fit-margin-left="0" fit-margin-right="0" fit-margin-bottom="0" guidehicolor="#ff0101" guidehiopacity="0.78431373" inkscape:snap-page="true" inkscape:object-nodes="true" inkscape:snap-bbox="true" inkscape:snap-global="true" inkscape:snap-object-midpoints="false" inkscape:snap-bbox-edge-midpoints="false" inkscape:object-paths="false">
    <inkscape:grid type="xygrid" id="grid4171" empspacing="4" dotted="false" originx="2.7755576e-17" originy="0" spacingx="1" spacingy="1" color="#5a5a5a" opacity="0.23529412" empcolor="#5a5a5a" empopacity="0.47058824" visible="true"/>
    <inkscape:grid type="axonomgrid" id="grid4699" units="mm" empspacing="4" color="#5a5a5a" opacity="0.23529412" empcolor="#5a5a5a" empopacity="0.47058824" gridanglex="45" gridanglez="45" spacingy="3.7795276" visible="false" originx="1.3228346" originy="1.3228346"/>
    <sodipodi:guide position="48,0" orientation="1,0" id="guide4568" inkscape:locked="false" inkscape:label="" inkscape:color="rgb(189,79,255)"/>
    <sodipodi:guide position="111.99996,-3.9999999e-05" orientation="0,1" id="guide4570" inkscape:locked="false" inkscape:label="" inkscape:color="rgb(189,79,255)"/>
    <sodipodi:guide position="0,0" orientation="1,0" id="guide4572" inkscape:locked="false" inkscape:label="" inkscape:color="rgb(189,79,255)"/>
    <sodipodi:guide position="0,48" orientation="0,1" id="guide4574" inkscape:locked="false" inkscape:label="" inkscape:color="rgb(189,79,255)"/>
    <sodipodi:guide position="0,80" orientation="0,1" id="guide4576" inkscape:locked="false" inkscape:label="" inkscape:color="rgb(189,79,255)"/>
    <sodipodi:guide position="-32,48" orientation="1,0" id="guide4578" inkscape:locked="false" inkscape:label="" inkscape:color="rgb(189,79,255)"/>
    <sodipodi:guide position="-32,104" orientation="0,1" id="guide4580" inkscape:locked="false" inkscape:label="" inkscape:color="rgb(189,79,255)"/>
    <sodipodi:guide position="-56,80" orientation="1,0" id="guide4582" inkscape:locked="false" inkscape:label="" inkscape:color="rgb(189,79,255)"/>
    <sodipodi:guide position="48,-64" orientation="0,1" id="guide4584" inkscape:locked="false" inkscape:label="" inkscape:color="rgb(189,79,255)"/>
    <sodipodi:guide position="0,0" orientation="-0.70710678,0.70710678" id="guide4588" inkscape:locked="false" inkscape:label="" inkscape:color="rgb(189,79,255)"/>
    <sodipodi:guide position="-56,80" orientation="-0.70710678,0.70710678" id="guide4573" inkscape:locked="false" inkscape:label="" inkscape:color="rgb(189,79,255)"/>
    <sodipodi:guide position="-32,48" orientation="-0.70710678,0.70710678" id="guide4575" inkscape:locked="false" inkscape:label="" inkscape:color="rgb(189,79,255)"/>
    <sodipodi:guide position="48,-64" orientation="-0.70710678,0.70710678" id="guide4577" inkscape:locked="false" inkscape:label="" inkscape:color="rgb(189,79,255)"/>
    <sodipodi:guide position="47.999962,0" orientation="0.70710678,0.70710678" id="guide4697" inkscape:locked="false" inkscape:label="" inkscape:color="rgb(189,79,255)"/>
    <sodipodi:guide position="207.99995,-288" orientation="0,1" id="guide7833" inkscape:locked="false"/>
    <sodipodi:guide position="335.99994,-288" orientation="1,0" id="guide7835" inkscape:locked="false" inkscape:label="" inkscape:color="rgb(189,79,255)"/>
    <sodipodi:guide position="111.99996,-64" orientation="1,0" id="guide7915" inkscape:locked="false"/>
    <sodipodi:guide position="111.99996,-160" orientation="0,1" id="guide7917" inkscape:locked="false"/>
    <sodipodi:guide position="207.99996,-160" orientation="1,0" id="guide7919" inkscape:locked="false"/>
    <sodipodi:guide position="111.99996,-160" orientation="-0.70710678,0.70710678" id="guide7921" inkscape:locked="false" inkscape:label="" inkscape:color="rgb(189,79,255)"/>
    <sodipodi:guide position="207.99996,-288" orientation="-0.70710678,0.70710678" id="guide7923" inkscape:locked="false" inkscape:label="" inkscape:color="rgb(189,79,255)"/>
    <sodipodi:guide position="-72,104" orientation="1,0" id="guide7824" inkscape:locked="false"/>
    <sodipodi:guide position="-56,120" orientation="0,1" id="guide7826" inkscape:locked="false"/>
    <sodipodi:guide position="-72,104" orientation="-0.70710678,0.70710678" id="guide7828" inkscape:locked="false" inkscape:label="" inkscape:color="rgb(189,79,255)"/>
  </sodipodi:namedview>
  <g style="display:inline" inkscape:label="icon_32" id="g7816" inkscape:groupmode="layer" transform="translate(32,32)">
    <g style="display:none" inkscape:label="frame" id="g7802" inkscape:groupmode="layer">
      <rect style="color:#000000;clip-rule:nonzero;display:block;overflow:visible;visibility:visible;opacity:1;isolation:auto;mix-blend-mode:normal;color-interpolation:sRGB;color-interpolation-filters:linearRGB;solid-color:#000000;solid-opacity:1;vector-effect:none;fill:#000000;fill-opacity:1;fill-rule:nonzero;stroke:#ff24f7;stroke-width:0;stroke-linecap:square;stroke-linejoin:miter;stroke-miterlimit:4;stroke-dasharray:none;stroke-dashoffset:0;stroke-opacity:0.99481865;marker:none;marker-start:none;marker-mid:none;marker-end:none;paint-order:normal;color-rendering:auto;image-rendering:auto;shape-rendering:auto;text-rendering:auto;enable-background:accumulate" id="rect7792" width="32" height="32" x="-32" y="-32" inkscape:label="frame_32"/>
      <text inkscape:label="txt_32" id="text7796" y="-11.470053" x="-23.799042" style="font-size:12.4444437px;line-height:1000%;font-family:sans-serif;letter-spacing:0px;word-spacing:0px;display:inline;opacity:1;fill:#ffffff;fill-opacity:1;stroke:none;stroke-width:0.07444605px;stroke-linecap:butt;stroke-linejoin:miter;stroke-opacity:1" xml:space="preserve">
        <tspan id="tspan7794" style="font-size:12.4444437px;fill:#ffffff;fill-opacity:1;stroke:none;stroke-width:0.07444605px" y="-11.470053" x="-23.799042" sodipodi:role="line">32</tspan>
      </text>
    </g>
    <g style="display:inline" inkscape:label="icon" id="g7814" inkscape:groupmode="layer">
      <path style="color:#000000;clip-rule:nonzero;display:block;overflow:visible;visibility:visible;opacity:1;isolation:auto;mix-blend-mode:normal;color-interpolation:sRGB;color-interpolation-filters:linearRGB;solid-color:#000000;solid-opacity:1;vector-effect:none;fill:#202020;fill-opacity:0.11764706;fill-rule:nonzero;stroke:none;stroke-width:1.06666672;stroke-linecap:butt;stroke-linejoin:miter;stroke-miterlimit:4;stroke-dasharray:none;stroke-dashoffset:0;stroke-opacity:1;marker:none;marker-start:none;marker-mid:none;marker-end:none;paint-order:normal;color-rendering:auto;image-rendering:auto;shape-rendering:auto;text-rendering:auto;enable-background:accumulate" d="M -27.568061,-31.99996 H -4.4319391 C -1.9766448,-31.99996 0,-30.023315 0,-27.568021 V -4.4319391 C 0,-1.9766448 -1.9766448,0 -4.4319391,0 H -27.568061 C -30.023355,0 -32,-1.9766448 -32,-4.4319391 V -27.568021 c 0,-2.455294 1.976645,-4.431939 4.431939,-4.431939 z" id="rect10557" inkscape:connector-curvature="0"/>
      <path inkscape:connector-curvature="0" id="path10566" d="m -1,-6.845017 v 1.6900745 C -1,-2.8531044 -2.8531044,-1 -5.1549425,-1 H -26.845056 c -2.301838,0 -4.154942,-1.8531044 -4.154942,-4.1549425 V -6.845017 Z" style="color:#000000;clip-rule:nonzero;display:block;overflow:visible;visibility:visible;opacity:1;isolation:auto;mix-blend-mode:normal;color-interpolation:sRGB;color-interpolation-filters:linearRGB;solid-color:#000000;solid-opacity:1;vector-effect:none;fill:#cacaca;fill-opacity:1;fill-rule:nonzero;stroke:none;stroke-width:0.99999988;stroke-linecap:butt;stroke-linejoin:miter;stroke-miterlimit:4;stroke-dasharray:none;stroke-dashoffset:0;stroke-opacity:1;marker:none;marker-start:none;marker-mid:none;marker-end:none;paint-order:normal;color-rendering:auto;image-rendering:auto;shape-rendering:auto;text-rendering:auto;enable-background:accumulate" sodipodi:nodetypes="csssscc"/>
      <path style="color:#000000;clip-rule:nonzero;display:block;overflow:visible;visibility:visible;opacity:1;isolation:auto;mix-blend-mode:normal;color-interpolation:sRGB;color-interpolation-filters:linearRGB;solid-color:#000000;solid-opacity:1;vector-effect:none;fill:#ffffff;fill-opacity:1;fill-rule:nonzero;stroke:none;stroke-width:0.99999988;stroke-linecap:butt;stroke-linejoin:miter;stroke-miterlimit:4;stroke-dasharray:none;stroke-dashoffset:0;stroke-opacity:1;marker:none;marker-start:none;marker-mid:none;marker-end:none;paint-order:normal;color-rendering:auto;image-rendering:auto;shape-rendering:auto;text-rendering:auto;enable-background:accumulate" d="M -26.845056,-30.99996 H -5.1549425 C -2.8531044,-30.99996 -1,-29.146856 -1,-26.845017 V -7.1549425 C -1,-4.8531044 -2.8531044,-3 -5.1549425,-3 H -26.845056 c -2.301838,0 -4.154942,-1.8531044 -4.154942,-4.1549425 V -26.845017 c 0,-2.301839 1.853104,-4.154943 4.154942,-4.154943 z" id="rect10559" inkscape:connector-curvature="0" sodipodi:nodetypes="sssssssss"/>
      <path style="color:#000000;clip-rule:nonzero;display:block;overflow:visible;visibility:visible;opacity:1;isolation:auto;mix-blend-mode:normal;color-interpolation:sRGB;color-interpolation-filters:linearRGB;solid-color:#000000;solid-opacity:1;vector-effect:none;fill:#000000;fill-opacity:0.08854167;fill-rule:nonzero;stroke:none;stroke-width:0.21248864;stroke-linecap:butt;stroke-linejoin:miter;stroke-miterlimit:4;stroke-dasharray:none;stroke-dashoffset:0;stroke-opacity:0.58333333;marker:none;marker-start:none;marker-mid:none;marker-end:none;paint-order:normal;color-rendering:auto;image-rendering:auto;shape-rendering:auto;text-rendering:auto;enable-background:accumulate" d="m -29.217391,-31.304348 c -1.233243,0 -1.996096,0.857065 -2.086957,2.086957 v 4.173913 h 30.60869583 v -4.173913 c 0,-1.233243 -0.85371343,-2.086957 -2.08695653,-2.086957 z m 8.75217,1.576909 c 0.819617,0 1.484048,0.664431 1.484048,1.484048 0,0.819616 -0.664431,1.484048 -1.484048,1.484047 -0.819617,0 -1.484047,-0.664431 -1.484047,-1.484047 0,-0.819617 0.66443,-1.484048 1.484047,-1.484048 z m 8.904285,0 c 0.819617,0 1.484048,0.664431 1.484048,1.484048 0,0.819616 -0.664431,1.484047 -1.484048,1.484047 -0.819616,10e-7 -1.484048,-0.664431 -1.484048,-1.484047 0,-0.819617 0.664432,-1.484048 1.484048,-1.484048 z" id="rect7917-0-8" inkscape:connector-curvature="0" inkscape:label="top" sodipodi:nodetypes="ssccsssssssssssss"/>
      <path style="color:#000000;clip-rule:nonzero;display:block;overflow:visible;visibility:visible;opacity:1;isolation:auto;mix-blend-mode:normal;color-interpolation:sRGB;color-interpolation-filters:linearRGB;solid-color:#000000;solid-opacity:1;vector-effect:none;fill:#ffffff;fill-opacity:0.92708333;fill-rule:nonzero;stroke:none;stroke-width:0.54234385;stroke-linecap:butt;stroke-linejoin:miter;stroke-miterlimit:4;stroke-dasharray:none;stroke-dashoffset:0;stroke-opacity:0.58333333;marker:none;marker-start:none;marker-mid:none;marker-end:none;paint-order:normal;color-rendering:auto;image-rendering:auto;shape-rendering:auto;text-rendering:auto;enable-background:accumulate" d="m -20.218362,-30.051205 c -0.998427,0 -1.807813,0.809385 -1.807813,1.807812 0,0.998428 0.809385,1.807813 1.807813,1.807813 0.998427,0 1.807813,-0.809385 1.807813,-1.807813 0,-0.998428 -0.809386,-1.807812 -1.807813,-1.807812 z m 8.41055,0 c -0.998427,0 -1.807813,0.809385 -1.807813,1.807812 0,0.998428 0.809385,1.807813 1.807813,1.807813 0.998427,0 1.807812,-0.809385 1.807812,-1.807813 0,-0.998427 -0.809386,-1.807812 -1.807812,-1.807812 z" id="circle7931-3-3" inkscape:connector-curvature="0" inkscape:label="circle" sodipodi:nodetypes="ssssssssss"/>
      <path style="color:#000000;clip-rule:nonzero;display:block;overflow:visible;visibility:visible;opacity:1;isolation:auto;mix-blend-mode:normal;color-interpolation:sRGB;color-interpolation-filters:linearRGB;solid-color:#000000;solid-opacity:1;vector-effect:none;fill:#000000;fill-opacity:0.40104167;fill-rule:nonzero;stroke:none;stroke-width:0.54234385;stroke-linecap:butt;stroke-linejoin:miter;stroke-miterlimit:4;stroke-dasharray:none;stroke-dashoffset:0;stroke-opacity:0.58333333;marker:none;marker-start:none;marker-mid:none;marker-end:none;paint-order:normal;color-rendering:auto;image-rendering:auto;shape-rendering:auto;text-rendering:auto;enable-background:accumulate" d="m -20.218362,-30.051205 c -0.998427,0 -1.807813,0.809385 -1.807813,1.807812 4.63e-4,0.07646 0.0057,0.15283 0.01591,0.228625 0.11257,-0.904303 0.88062,-1.583445 1.791903,-1.584484 0.909511,6.92e-4 1.676901,0.676979 1.791922,1.579187 0.0099,-0.07404 0.01523,-0.148628 0.01591,-0.223328 0,-0.998428 -0.809385,-1.807812 -1.807813,-1.807812 z m 8.41055,0 c -0.998427,0 -1.807813,0.809385 -1.807813,1.807812 4.63e-4,0.07646 0.0057,0.15283 0.01591,0.228625 0.11257,-0.904304 0.880621,-1.583445 1.791904,-1.584484 0.909511,6.92e-4 1.676901,0.676979 1.791922,1.579187 0.0099,-0.07404 0.01523,-0.148628 0.01591,-0.223328 0,-0.998427 -0.809386,-1.807812 -1.807813,-1.807812 z" id="path8002-6-1" inkscape:connector-curvature="0" sodipodi:nodetypes="scccccssscccccss"/>
      <path style="font-size:medium;line-height:1000%;font-family:sans-serif;letter-spacing:0px;word-spacing:0px;display:inline;fill:#000000;fill-opacity:0.515625;stroke:none;stroke-width:0.1812399px;stroke-linecap:butt;stroke-linejoin:miter;stroke-opacity:1" d="m -15.526895,-24.260185 v 2.203596 h 0.260415 v -2.203596 z m -2.68468,0.08995 v 1.966189 c 0,0.183125 -0.0265,0.309887 -0.07844,0.380682 -0.05189,0.07081 -0.1402,0.106672 -0.266687,0.106672 h -0.08995 v 0.240545 h 0.109819 c 0.214274,0 0.36911,-0.0574 0.4654,-0.172566 0.09723,-0.115159 0.145369,-0.300476 0.145369,-0.555338 v -1.966189 z m 0.816802,0.528152 v 0.960088 c 0,0.218055 0.04782,0.383501 0.142235,0.496773 0.09439,0.113268 0.231972,0.169429 0.414155,0.169429 0.110454,0 0.207677,-0.02276 0.290746,-0.06903 0.08401,-0.04718 0.157428,-0.119156 0.220672,-0.215442 v 0.243683 h 0.260416 v -1.585501 h -0.260416 v 0.898378 c 0,0.15481 -0.04128,0.277418 -0.123414,0.367093 -0.08118,0.08968 -0.19193,0.134917 -0.332577,0.134917 -0.117049,0 -0.205031,-0.03732 -0.263553,-0.111897 -0.05852,-0.07553 -0.08785,-0.188765 -0.08785,-0.338852 v -0.949627 z m 2.484924,0 0.641104,1.560396 -0.046,0.118175 c -0.04815,0.126489 -0.09212,0.207608 -0.131771,0.241594 -0.03963,0.034 -0.09559,0.05017 -0.167335,0.05017 h -0.152696 v 0.218579 h 0.208122 c 0.117049,0 0.210441,-0.02924 0.280288,-0.08681 0.06985,-0.05759 0.141816,-0.180395 0.215446,-0.369181 l 0.696535,-1.732972 h -0.276106 l -0.495728,1.240366 -0.495731,-1.240366 z" id="path8037-2-6" inkscape:connector-curvature="0" inkscape:label="july"/>
      <g transform="matrix(0.37101186,0,0,0.37101186,-75.037377,-75.732911)" style="display:inline" id="g8070-6-4" inkscape:label="30">
        <path inkscape:label="30" inkscape:connector-curvature="0" id="path7968-8-3" d="m 145.31839,148.95531 c -3.40891,0 -6.22355,1.00478 -8.44372,3.01516 -2.20267,1.9929 -3.3024,4.50099 -3.3024,7.52531 h 4.84983 c 0,-1.97543 0.62074,-3.55624 1.86193,-4.745 1.25867,-1.20623 2.93655,-1.80951 5.03436,-1.80951 4.4578,0 6.68659,2.23648 6.68659,6.71176 0,1.99291 -0.65565,3.57583 -1.96677,4.74709 -1.31112,1.17124 -3.1112,1.77453 -5.40129,1.80952 h -3.64418 v 3.9587 h 3.64418 c 2.56979,0.035 4.53675,0.64802 5.90033,1.83677 1.36354,1.18874 2.04434,2.89176 2.04434,5.11193 0,2.29009 -0.61864,4.04757 -1.85983,5.27128 -1.2412,1.22371 -3.03358,1.83468 -5.37612,1.83468 -2.20268,0 -3.96017,-0.60329 -5.27129,-1.80952 -1.31112,-1.20622 -1.96677,-2.81428 -1.96677,-4.82466 h -4.87709 c 0,3.18165 1.11929,5.7442 3.35693,7.68465 2.25513,1.94047 5.17449,2.91033 8.75822,2.91033 3.58373,0 6.49332,-1.00478 8.73095,-3.01516 2.23764,-2.01039 3.35693,-4.73004 3.35693,-8.15644 0,-2.22016 -0.57605,-4.09983 -1.72983,-5.63821 -1.13631,-1.53839 -2.75414,-2.63812 -4.85193,-3.30242 1.85305,-0.76919 3.31377,-1.93315 4.38014,-3.48903 1.08387,-1.55587 1.62501,-3.16391 1.62501,-4.82467 0,-3.39143 -1.02223,-6.03918 -3.06758,-7.94466 -2.04534,-1.90549 -4.86974,-2.8579 -8.47094,-2.8579 z m 28.14487,0 c -4.14314,0 -7.18469,1.36367 -9.12515,4.0908 -1.94045,2.72712 -2.91031,6.89565 -2.91031,12.50724 v 6.47692 c 0.0699,5.36685 1.08239,9.4055 3.04032,12.11515 1.95793,2.69216 4.97436,4.03838 9.04757,4.03838 4.12565,0 7.15952,-1.38113 9.09998,-4.14322 1.94045,-2.76209 2.91032,-6.98508 2.91032,-12.66659 v -6.29241 c -0.0525,-5.48922 -1.04953,-9.54533 -2.98999,-12.16757 -1.94047,-2.63972 -4.96457,-3.9587 -9.07274,-3.9587 z m 0,3.98596 c 2.49987,0 4.32719,0.94264 5.48096,2.83063 1.15378,1.87055 1.72984,4.85973 1.72984,8.9679 v 7.94677 c -0.0525,3.9858 -0.66341,6.90517 -1.83466,8.75821 -1.15379,1.85305 -2.92874,2.77822 -5.32371,2.77822 -2.42995,0 -4.24748,-0.97755 -5.45371,-2.93548 -1.18874,-1.97542 -1.78434,-5.02676 -1.78434,-9.15241 v -7.76224 c 0.035,-3.88092 0.62077,-6.75561 1.75708,-8.62612 1.13631,-1.87054 2.94616,-2.80548 5.42854,-2.80548 z" style="font-style:normal;font-variant:normal;font-weight:normal;font-stretch:normal;font-size:medium;line-height:1000%;font-family:Roboto;-inkscape-font-specification:Roboto;letter-spacing:0px;word-spacing:0px;fill:url(#linearGradient10555);fill-opacity:1;stroke:none;stroke-width:3.35646534px;stroke-linecap:butt;stroke-linejoin:miter;stroke-opacity:1" sodipodi:nodetypes="sccccssccccccsssccccscscccscsscsccscsccsscsccscsccs"/>
      </g>
    </g>
  </g>
</svg>