<?xml version="1.0" encoding="UTF-8" standalone="yes"?>
<svg xmlns:dc="http://purl.org/dc/elements/1.1/" xmlns:cc="http://creativecommons.org/ns#" xmlns:rdf="http://www.w3.org/1999/02/22-rdf-syntax-ns#" xmlns:svg="http://www.w3.org/2000/svg" xmlns="http://www.w3.org/2000/svg" xmlns:xlink="http://www.w3.org/1999/xlink" xmlns:sodipodi="http://sodipodi.sourceforge.net/DTD/sodipodi-0.dtd" xmlns:inkscape="http://www.inkscape.org/namespaces/inkscape" height="32" viewBox="0 0 32 32" width="32" id="svg2" version="1.1" inkscape:version="0.92.1 r" sodipodi:docname="evolution.svg" enable-background="new" folder="32">
  <title id="title4675">Template icons dark</title>
  <metadata id="metadata24">
    <rdf:RDF>
      <cc:Work rdf:about="">
        <dc:format>image/svg+xml</dc:format>
        <dc:type rdf:resource="http://purl.org/dc/dcmitype/StillImage"/>
        <dc:title>Template icons dark</dc:title>
        <dc:date>17/05/13</dc:date>
        <dc:creator>
          <cc:Agent>
            <dc:title>wfpaisa</dc:title>
          </cc:Agent>
        </dc:creator>
        <dc:rights>
          <cc:Agent>
            <dc:title>License: GPLv3</dc:title>
          </cc:Agent>
        </dc:rights>
        <dc:language>es-en</dc:language>
        <dc:subject>
          <rdf:Bag>
            <rdf:li>plane-icon-theme</rdf:li>
          </rdf:Bag>
        </dc:subject>
        <dc:description>Template for create set icons</dc:description>
        <cc:license rdf:resource="https://www.gnu.org/licenses/gpl-3.0.en.html"/>
      </cc:Work>
    </rdf:RDF>
  </metadata>
  <defs id="defs22">
    <linearGradient inkscape:collect="always" id="linearGradient8505">
      <stop style="stop-color:#030303;stop-opacity:0.15104167" offset="0" id="stop8501"/>
      <stop style="stop-color:#030303;stop-opacity:0.16145833" offset="1" id="stop8503"/>
    </linearGradient>
    <linearGradient inkscape:collect="always" id="linearGradient8499">
      <stop style="stop-color:#030303;stop-opacity:0.203125" offset="0" id="stop8495"/>
      <stop style="stop-color:#030303;stop-opacity:0.16145833" offset="1" id="stop8497"/>
    </linearGradient>
    <linearGradient id="linearGradient8493" inkscape:collect="always">
      <stop id="stop8489" offset="0" style="stop-color:#000000;stop-opacity:0"/>
      <stop id="stop8491" offset="1" style="stop-color:#000000;stop-opacity:0.09375"/>
    </linearGradient>
    <linearGradient inkscape:collect="always" id="linearGradient7974">
      <stop style="stop-color:#000000;stop-opacity:0" offset="0" id="stop7970"/>
      <stop style="stop-color:#000000;stop-opacity:0.05208333" offset="1" id="stop7972"/>
    </linearGradient>
    <linearGradient inkscape:collect="always" id="linearGradient7966">
      <stop style="stop-color:#e6e6e6;stop-opacity:1" offset="0" id="stop7962"/>
      <stop style="stop-color:#ffffff;stop-opacity:1" offset="1" id="stop7964"/>
    </linearGradient>
    <linearGradient inkscape:collect="always" id="linearGradient7947">
      <stop style="stop-color:#030303;stop-opacity:0.13541667" offset="0" id="stop7943"/>
      <stop id="stop7951" offset="0.40221724" style="stop-color:#030303;stop-opacity:0.25"/>
      <stop style="stop-color:#030303;stop-opacity:0;" offset="1" id="stop7945"/>
    </linearGradient>
    <linearGradient inkscape:collect="always" id="linearGradient7913">
      <stop style="stop-color:#000000;stop-opacity:0.078125" offset="0" id="stop7909"/>
      <stop style="stop-color:#000000;stop-opacity:0" offset="1" id="stop7911"/>
    </linearGradient>
    <linearGradient inkscape:collect="always" id="linearGradient7905">
      <stop style="stop-color:#ffffff;stop-opacity:1" offset="0" id="stop7901"/>
      <stop style="stop-color:#e7e7e7;stop-opacity:1" offset="1" id="stop7903"/>
    </linearGradient>
    <linearGradient id="linearGradient7803" inkscape:collect="always">
      <stop id="stop7799" offset="0" style="stop-color:#030303;stop-opacity:0.078125"/>
      <stop id="stop7801" offset="1" style="stop-color:#030303;stop-opacity:0.16145833"/>
    </linearGradient>
    <linearGradient inkscape:collect="always" id="linearGradient7734">
      <stop style="stop-color:#030303;stop-opacity:0.18229167" offset="0" id="stop7730"/>
      <stop style="stop-color:#030303;stop-opacity:0;" offset="1" id="stop7732"/>
    </linearGradient>
    <linearGradient gradientTransform="translate(-116,-133)" inkscape:collect="always" xlink:href="#linearGradient7734" id="linearGradient7736-3" x1="160" y1="162" x2="160" y2="131.26768" gradientUnits="userSpaceOnUse"/>
    <linearGradient inkscape:collect="always" xlink:href="#linearGradient7803" id="linearGradient7797" gradientUnits="userSpaceOnUse" x1="160" y1="162" x2="160" y2="124"/>
    <linearGradient inkscape:collect="always" xlink:href="#linearGradient7803" id="linearGradient7837" gradientUnits="userSpaceOnUse" x1="160" y1="162" x2="160" y2="124" gradientTransform="matrix(1,0,0,-1,0,321)"/>
    <linearGradient inkscape:collect="always" xlink:href="#linearGradient7905" id="linearGradient7907" x1="160.06299" y1="163" x2="160.06299" y2="136" gradientUnits="userSpaceOnUse"/>
    <linearGradient inkscape:collect="always" xlink:href="#linearGradient7913" id="linearGradient7915" x1="160.12599" y1="160" x2="160.12599" y2="136" gradientUnits="userSpaceOnUse"/>
    <linearGradient inkscape:collect="always" xlink:href="#linearGradient7947" id="linearGradient7949" x1="146" y1="146" x2="177.07086" y2="146" gradientUnits="userSpaceOnUse"/>
    <linearGradient inkscape:collect="always" xlink:href="#linearGradient7803" id="linearGradient7953" gradientUnits="userSpaceOnUse" x1="160" y1="162" x2="160" y2="124"/>
    <linearGradient inkscape:collect="always" xlink:href="#linearGradient7966" id="linearGradient7968" x1="161" y1="187.4567" x2="161" y2="165" gradientUnits="userSpaceOnUse"/>
    <linearGradient inkscape:collect="always" xlink:href="#linearGradient7974" id="linearGradient7976" x1="160.06299" y1="184" x2="160.06299" y2="166.00932" gradientUnits="userSpaceOnUse"/>
    <linearGradient inkscape:collect="always" xlink:href="#linearGradient7803" id="linearGradient7837-1" gradientUnits="userSpaceOnUse" x1="160" y1="162" x2="160" y2="124" gradientTransform="matrix(1.33,0,0,-1.33,59.2,485.965)"/>
    <linearGradient gradientTransform="matrix(1.33,0,0,1.33,59.2,59.035)" inkscape:collect="always" xlink:href="#linearGradient7966" id="linearGradient7968-0" x1="161" y1="187.4567" x2="161" y2="165" gradientUnits="userSpaceOnUse"/>
    <linearGradient gradientTransform="matrix(1.33,0,0,1.33,59.2,59.035)" inkscape:collect="always" xlink:href="#linearGradient7974" id="linearGradient7976-6" x1="160.06299" y1="184" x2="160.06299" y2="166.00932" gradientUnits="userSpaceOnUse"/>
    <linearGradient gradientTransform="matrix(1.33,0,0,1.33,59.2,59.035)" inkscape:collect="always" xlink:href="#linearGradient7803" id="linearGradient7953-2" gradientUnits="userSpaceOnUse" x1="160" y1="162" x2="160" y2="124"/>
    <linearGradient gradientTransform="matrix(1.33,0,0,1.33,59.2,59.035)" inkscape:collect="always" xlink:href="#linearGradient7905" id="linearGradient7907-1" x1="160.06299" y1="163" x2="160.06299" y2="136" gradientUnits="userSpaceOnUse"/>
    <linearGradient gradientTransform="matrix(1.33,0,0,1.33,59.2,59.035)" inkscape:collect="always" xlink:href="#linearGradient7913" id="linearGradient7915-9" x1="160.12599" y1="160" x2="160.12599" y2="136" gradientUnits="userSpaceOnUse"/>
    <linearGradient gradientTransform="matrix(1.33,0,0,1.33,59.2,59.035)" inkscape:collect="always" xlink:href="#linearGradient7947" id="linearGradient7949-2" x1="146" y1="146" x2="177.07086" y2="146" gradientUnits="userSpaceOnUse"/>
    <linearGradient inkscape:collect="always" xlink:href="#linearGradient7803" id="linearGradient8164" gradientUnits="userSpaceOnUse" gradientTransform="matrix(1.33,0,0,1.33,59.2,59.035)" x1="160" y1="162" x2="160" y2="124"/>
    <linearGradient inkscape:collect="always" xlink:href="#linearGradient7803" id="linearGradient7837-19" gradientUnits="userSpaceOnUse" x1="160" y1="162" x2="160" y2="124" gradientTransform="matrix(0.70373823,0,0,-0.69090809,-32.633634,189.8907)"/>
    <linearGradient gradientTransform="matrix(0.70373823,0,0,0.69090809,-32.633634,-31.890786)" inkscape:collect="always" xlink:href="#linearGradient7966" id="linearGradient7968-8" x1="161" y1="187.4567" x2="161" y2="165" gradientUnits="userSpaceOnUse"/>
    <linearGradient gradientTransform="matrix(0.70373823,0,0,0.69090809,-32.633634,-31.890786)" inkscape:collect="always" xlink:href="#linearGradient7974" id="linearGradient7976-0" x1="160.06299" y1="184" x2="160.06299" y2="166.00932" gradientUnits="userSpaceOnUse"/>
    <linearGradient gradientTransform="matrix(0.70373823,0,0,0.69090809,-32.633634,-31.890786)" inkscape:collect="always" xlink:href="#linearGradient7803" id="linearGradient7953-1" gradientUnits="userSpaceOnUse" x1="160" y1="162" x2="160" y2="124"/>
    <linearGradient gradientTransform="matrix(0.70373823,0,0,0.69090809,-32.633634,-31.890786)" inkscape:collect="always" xlink:href="#linearGradient7905" id="linearGradient7907-6" x1="160.06299" y1="163" x2="160.06299" y2="136" gradientUnits="userSpaceOnUse"/>
    <linearGradient gradientTransform="matrix(0.70373823,0,0,0.69090809,-32.633634,-31.890786)" inkscape:collect="always" xlink:href="#linearGradient7913" id="linearGradient7915-0" x1="160.12599" y1="160" x2="160.12599" y2="136" gradientUnits="userSpaceOnUse"/>
    <linearGradient gradientTransform="matrix(0.70373823,0,0,0.69090809,-32.633634,-31.890786)" inkscape:collect="always" xlink:href="#linearGradient7947" id="linearGradient7949-5" x1="146" y1="146" x2="177.07086" y2="146" gradientUnits="userSpaceOnUse"/>
    <linearGradient inkscape:collect="always" xlink:href="#linearGradient7803" id="linearGradient8234" gradientUnits="userSpaceOnUse" gradientTransform="matrix(0.70373823,0,0,0.69090809,-32.633634,-31.890786)" x1="160" y1="162" x2="160" y2="124"/>
    <linearGradient inkscape:collect="always" xlink:href="#linearGradient8499" id="linearGradient7837-4" gradientUnits="userSpaceOnUse" x1="160" y1="162" x2="160" y2="124" gradientTransform="matrix(0.5,0,0,-0.5,-56,104.75)"/>
    <linearGradient gradientTransform="matrix(0.5,0,0,0.5,-56,-55.75)" inkscape:collect="always" xlink:href="#linearGradient7966" id="linearGradient7968-7" x1="161" y1="187.4567" x2="161" y2="165" gradientUnits="userSpaceOnUse"/>
    <linearGradient gradientTransform="matrix(0.5,0,0,0.5,-56,-55.75)" inkscape:collect="always" xlink:href="#linearGradient8493" id="linearGradient7976-8" x1="160.06299" y1="184" x2="160.06299" y2="166.00932" gradientUnits="userSpaceOnUse"/>
    <linearGradient gradientTransform="matrix(0.5,0,0,0.5,-56,-55.75)" inkscape:collect="always" xlink:href="#linearGradient7905" id="linearGradient7907-4" x1="160.06299" y1="163" x2="160.06299" y2="136" gradientUnits="userSpaceOnUse"/>
    <linearGradient gradientTransform="matrix(0.5,0,0,0.5,-56,-55.75)" inkscape:collect="always" xlink:href="#linearGradient7913" id="linearGradient7915-06" x1="160.12599" y1="160" x2="160.12599" y2="136" gradientUnits="userSpaceOnUse"/>
    <linearGradient inkscape:collect="always" xlink:href="#linearGradient8505" id="linearGradient8304" gradientUnits="userSpaceOnUse" gradientTransform="matrix(0.5,0,0,0.5,-56,-55.75)" x1="160" y1="162" x2="160" y2="124"/>
    <linearGradient gradientTransform="matrix(0.33,0,0,0.33,-68.8,-68.465)" inkscape:collect="always" xlink:href="#linearGradient7966" id="linearGradient7968-9" x1="161" y1="187.4567" x2="161" y2="165" gradientUnits="userSpaceOnUse"/>
    <linearGradient gradientTransform="matrix(0.33,0,0,0.33,-68.8,-68.465)" inkscape:collect="always" xlink:href="#linearGradient7905" id="linearGradient7907-9" x1="160.06299" y1="163" x2="160.06299" y2="136" gradientUnits="userSpaceOnUse"/>
  </defs>
  <sodipodi:namedview pagecolor="#383c4a" bordercolor="#ffffff" borderopacity="0.62745098" objecttolerance="4" gridtolerance="10" guidetolerance="4" inkscape:pageopacity="0" inkscape:pageshadow="2" inkscape:window-width="640" inkscape:window-height="480" id="namedview20" showgrid="true" inkscape:zoom="16.386532" inkscape:cx="88.273341" inkscape:cy="-43.076466" inkscape:current-layer="g7905" inkscape:snap-smooth-nodes="false" showguides="true" borderlayer="true" inkscape:showpageshadow="false" inkscape:guide-bbox="true" guidecolor="#bd4fff" guideopacity="0.78431373" inkscape:snap-nodes="true" inkscape:lockguides="false" fit-margin-top="0" fit-margin-left="0" fit-margin-right="0" fit-margin-bottom="0" guidehicolor="#ff0101" guidehiopacity="0.78431373" inkscape:snap-page="true" inkscape:object-nodes="true" inkscape:snap-bbox="true" inkscape:snap-global="true" inkscape:snap-object-midpoints="false" inkscape:snap-bbox-edge-midpoints="false">
    <inkscape:grid type="xygrid" id="grid4171" empspacing="4" dotted="false" originx="2.7755576e-17" originy="0" spacingx="1" spacingy="1" color="#5a5a5a" opacity="0.23529412" empcolor="#5a5a5a" empopacity="0.47058824" visible="true"/>
    <inkscape:grid type="axonomgrid" id="grid4699" units="mm" empspacing="4" color="#5a5a5a" opacity="0.23529412" empcolor="#5a5a5a" empopacity="0.47058824" gridanglex="45" gridanglez="45" spacingy="3.7795276" visible="false" originx="1.3228346" originy="1.3228346"/>
    <sodipodi:guide position="48,0" orientation="1,0" id="guide4568" inkscape:locked="false" inkscape:label="" inkscape:color="rgb(189,79,255)"/>
    <sodipodi:guide position="111.99996,-3.9999999e-05" orientation="0,1" id="guide4570" inkscape:locked="false" inkscape:label="" inkscape:color="rgb(189,79,255)"/>
    <sodipodi:guide position="0,0" orientation="1,0" id="guide4572" inkscape:locked="false" inkscape:label="" inkscape:color="rgb(189,79,255)"/>
    <sodipodi:guide position="0,48" orientation="0,1" id="guide4574" inkscape:locked="false" inkscape:label="" inkscape:color="rgb(189,79,255)"/>
    <sodipodi:guide position="0,80" orientation="0,1" id="guide4576" inkscape:locked="false" inkscape:label="" inkscape:color="rgb(189,79,255)"/>
    <sodipodi:guide position="-32,48" orientation="1,0" id="guide4578" inkscape:locked="false" inkscape:label="" inkscape:color="rgb(189,79,255)"/>
    <sodipodi:guide position="-32,104" orientation="0,1" id="guide4580" inkscape:locked="false" inkscape:label="" inkscape:color="rgb(189,79,255)"/>
    <sodipodi:guide position="-56,80" orientation="1,0" id="guide4582" inkscape:locked="false" inkscape:label="" inkscape:color="rgb(189,79,255)"/>
    <sodipodi:guide position="48,-64" orientation="0,1" id="guide4584" inkscape:locked="false" inkscape:label="" inkscape:color="rgb(189,79,255)"/>
    <sodipodi:guide position="0,0" orientation="-0.70710678,0.70710678" id="guide4588" inkscape:locked="false" inkscape:label="" inkscape:color="rgb(189,79,255)"/>
    <sodipodi:guide position="-56,80" orientation="-0.70710678,0.70710678" id="guide4573" inkscape:locked="false" inkscape:label="" inkscape:color="rgb(189,79,255)"/>
    <sodipodi:guide position="-32,48" orientation="-0.70710678,0.70710678" id="guide4575" inkscape:locked="false" inkscape:label="" inkscape:color="rgb(189,79,255)"/>
    <sodipodi:guide position="48,-64" orientation="-0.70710678,0.70710678" id="guide4577" inkscape:locked="false" inkscape:label="" inkscape:color="rgb(189,79,255)"/>
    <sodipodi:guide position="47.999962,0" orientation="0.70710678,0.70710678" id="guide4697" inkscape:locked="false" inkscape:label="" inkscape:color="rgb(189,79,255)"/>
    <sodipodi:guide position="207.99995,-288" orientation="0,1" id="guide7833" inkscape:locked="false"/>
    <sodipodi:guide position="335.99994,-288" orientation="1,0" id="guide7835" inkscape:locked="false" inkscape:label="" inkscape:color="rgb(189,79,255)"/>
    <sodipodi:guide position="111.99996,-64" orientation="1,0" id="guide7915" inkscape:locked="false"/>
    <sodipodi:guide position="111.99996,-160" orientation="0,1" id="guide7917" inkscape:locked="false"/>
    <sodipodi:guide position="207.99996,-160" orientation="1,0" id="guide7919" inkscape:locked="false"/>
    <sodipodi:guide position="111.99996,-160" orientation="-0.70710678,0.70710678" id="guide7921" inkscape:locked="false" inkscape:label="" inkscape:color="rgb(189,79,255)"/>
    <sodipodi:guide position="207.99996,-288" orientation="-0.70710678,0.70710678" id="guide7923" inkscape:locked="false" inkscape:label="" inkscape:color="rgb(189,79,255)"/>
    <sodipodi:guide position="-72,104" orientation="1,0" id="guide7824" inkscape:locked="false"/>
    <sodipodi:guide position="-56,120" orientation="0,1" id="guide7826" inkscape:locked="false"/>
    <sodipodi:guide position="-72,104" orientation="-0.70710678,0.70710678" id="guide7828" inkscape:locked="false" inkscape:label="" inkscape:color="rgb(189,79,255)"/>
  </sodipodi:namedview>
  <g style="display:inline" inkscape:label="icon_32" id="g7816" inkscape:groupmode="layer" transform="translate(32,32)">
    <g style="display:none" inkscape:label="frame" id="g7802" inkscape:groupmode="layer">
      <rect style="color:#000000;clip-rule:nonzero;display:block;overflow:visible;visibility:visible;opacity:1;isolation:auto;mix-blend-mode:normal;color-interpolation:sRGB;color-interpolation-filters:linearRGB;solid-color:#000000;solid-opacity:1;vector-effect:none;fill:#000000;fill-opacity:1;fill-rule:nonzero;stroke:#ff24f7;stroke-width:0;stroke-linecap:square;stroke-linejoin:miter;stroke-miterlimit:4;stroke-dasharray:none;stroke-dashoffset:0;stroke-opacity:0.99481865;marker:none;marker-start:none;marker-mid:none;marker-end:none;paint-order:normal;color-rendering:auto;image-rendering:auto;shape-rendering:auto;text-rendering:auto;enable-background:accumulate" id="rect7792" width="32" height="32" x="-32" y="-32" inkscape:label="frame_32"/>
      <text inkscape:label="txt_32" id="text7796" y="-11.470053" x="-23.799042" style="font-size:12.4444437px;line-height:1000%;font-family:sans-serif;letter-spacing:0px;word-spacing:0px;display:inline;opacity:1;fill:#ffffff;fill-opacity:1;stroke:none;stroke-width:0.07444605px;stroke-linecap:butt;stroke-linejoin:miter;stroke-opacity:1" xml:space="preserve">
        <tspan id="tspan7794" style="font-size:12.4444437px;fill:#ffffff;fill-opacity:1;stroke:none;stroke-width:0.07444605px" y="-11.470053" x="-23.799042" sodipodi:role="line">32</tspan>
      </text>
    </g>
    <g style="display:inline" inkscape:label="icon" id="g7814" inkscape:groupmode="layer">
      <path style="color:#000000;clip-rule:nonzero;display:block;overflow:visible;visibility:visible;opacity:1;isolation:auto;mix-blend-mode:normal;color-interpolation:sRGB;color-interpolation-filters:linearRGB;solid-color:#000000;solid-opacity:1;vector-effect:none;fill:#000000;fill-opacity:0.11458333;fill-rule:nonzero;stroke:none;stroke-width:1.16512823px;stroke-linecap:butt;stroke-linejoin:miter;stroke-miterlimit:4;stroke-dasharray:none;stroke-dashoffset:0;stroke-opacity:1;marker:none;marker-start:none;marker-mid:none;marker-end:none;paint-order:fill markers stroke;color-rendering:auto;image-rendering:auto;shape-rendering:auto;text-rendering:auto;enable-background:accumulate" d="M -32,-26 H 0 v 21 h -32 z" id="rect7723-94" inkscape:connector-curvature="0" sodipodi:nodetypes="ccccc" inkscape:label="base sombra"/>
      <path style="color:#000000;clip-rule:nonzero;display:inline;overflow:visible;visibility:visible;opacity:1;isolation:auto;mix-blend-mode:normal;color-interpolation:sRGB;color-interpolation-filters:linearRGB;solid-color:#000000;solid-opacity:1;vector-effect:none;fill:#f2f2f2;fill-opacity:1;fill-rule:nonzero;stroke:none;stroke-width:1.16512823px;stroke-linecap:butt;stroke-linejoin:miter;stroke-miterlimit:4;stroke-dasharray:none;stroke-dashoffset:0;stroke-opacity:1;marker:none;marker-start:none;marker-mid:none;marker-end:none;paint-order:fill markers stroke;color-rendering:auto;image-rendering:auto;shape-rendering:auto;text-rendering:auto;enable-background:accumulate" d="M -31,-25 H -1 V -6 H -31 Z" id="rect7721-8" inkscape:connector-curvature="0" sodipodi:nodetypes="ccccc" inkscape:label="base"/>
      <path style="color:#000000;clip-rule:nonzero;display:inline;overflow:visible;visibility:visible;opacity:1;isolation:auto;mix-blend-mode:normal;color-interpolation:sRGB;color-interpolation-filters:linearRGB;solid-color:#000000;solid-opacity:1;vector-effect:none;fill:#000000;fill-opacity:0.27083333;fill-rule:nonzero;stroke:none;stroke-width:1.16512823px;stroke-linecap:butt;stroke-linejoin:miter;stroke-miterlimit:4;stroke-dasharray:none;stroke-dashoffset:0;stroke-opacity:1;marker:none;marker-start:none;marker-mid:none;marker-end:none;paint-order:fill markers stroke;color-rendering:auto;image-rendering:auto;shape-rendering:auto;text-rendering:auto;enable-background:accumulate" d="M -30.52,-6.425 H -1.48 V -7.0927979 L -2.14,-8.735 -14.675915,-16.981934 c 0,0 -0.92133,-0.663066 -1.324085,-0.663066 -0.452047,0 -1.317251,0.657937 -1.317251,0.657937 L -29.86,-8.735 l -0.66,1.65 z" id="path7827-1" inkscape:connector-curvature="0" sodipodi:nodetypes="cccccscccc"/>
      <path sodipodi:nodetypes="ccccsccc" inkscape:connector-curvature="0" id="path7831-2" d="m -30.52,-6.425 h 29.04 l -0.66,-2.31 -12.535915,-7.586934 c 0,0 -0.92133,-0.663066 -1.324085,-0.663066 -0.452047,0 -1.317251,0.657937 -1.317251,0.657937 L -29.86,-8.735 Z" style="color:#000000;clip-rule:nonzero;display:block;overflow:visible;visibility:visible;opacity:1;isolation:auto;mix-blend-mode:normal;color-interpolation:sRGB;color-interpolation-filters:linearRGB;solid-color:#000000;solid-opacity:1;vector-effect:none;fill:url(#linearGradient7968-9);fill-opacity:1;fill-rule:nonzero;stroke:none;stroke-width:1.16512823px;stroke-linecap:butt;stroke-linejoin:miter;stroke-miterlimit:4;stroke-dasharray:none;stroke-dashoffset:0;stroke-opacity:1;marker:none;marker-start:none;marker-mid:none;marker-end:none;paint-order:fill markers stroke;color-rendering:auto;image-rendering:auto;shape-rendering:auto;text-rendering:auto;enable-background:accumulate"/>
      <path sodipodi:nodetypes="cccccscccc" inkscape:connector-curvature="0" id="path7773-9" d="m -30.52,-24.575 h 29.04 v 0.667798 l -0.66,1.642202 -12.535915,8.576934 c 0,0 -0.92133,0.663066 -1.324085,0.663066 -0.452047,0 -1.317251,-0.657938 -1.317251,-0.657938 L -29.86,-22.265 l -0.66,-1.65 z" style="color:#000000;clip-rule:nonzero;display:block;overflow:visible;visibility:visible;opacity:1;isolation:auto;mix-blend-mode:normal;color-interpolation:sRGB;color-interpolation-filters:linearRGB;solid-color:#000000;solid-opacity:1;vector-effect:none;fill:#000000;fill-opacity:0.265625;fill-rule:nonzero;stroke:none;stroke-width:1.16512823px;stroke-linecap:butt;stroke-linejoin:miter;stroke-miterlimit:4;stroke-dasharray:none;stroke-dashoffset:0;stroke-opacity:1;marker:none;marker-start:none;marker-mid:none;marker-end:none;paint-order:fill markers stroke;color-rendering:auto;image-rendering:auto;shape-rendering:auto;text-rendering:auto;enable-background:accumulate"/>
      <path style="color:#000000;clip-rule:nonzero;display:block;overflow:visible;visibility:visible;opacity:1;isolation:auto;mix-blend-mode:normal;color-interpolation:sRGB;color-interpolation-filters:linearRGB;solid-color:#000000;solid-opacity:1;vector-effect:none;fill:url(#linearGradient7907-9);fill-opacity:1;fill-rule:nonzero;stroke:none;stroke-width:1.16512823px;stroke-linecap:butt;stroke-linejoin:miter;stroke-miterlimit:4;stroke-dasharray:none;stroke-dashoffset:0;stroke-opacity:1;marker:none;marker-start:none;marker-mid:none;marker-end:none;paint-order:fill markers stroke;color-rendering:auto;image-rendering:auto;shape-rendering:auto;text-rendering:auto;enable-background:accumulate" d="m -30.52,-24.575 h 29.04 l -0.66,2.31 -12.535915,7.586934 c 0,0 -0.92133,0.663066 -1.324085,0.663066 -0.452047,0 -1.317251,-0.657938 -1.317251,-0.657938 L -29.86,-22.265 Z" id="rect7725-8" inkscape:connector-curvature="0" sodipodi:nodetypes="ccccsccc"/>
      <path inkscape:connector-curvature="0" id="path7841-5" d="m -18.383018,-21.970693 c -1.334508,0 -2.419064,1.084556 -2.419064,2.419064 0,1.334509 1.084556,2.419066 2.419064,2.419066 0.839854,0 1.579747,-0.430225 2.013577,-1.081303 v 0.253688 l 2.019119,-0.354888 0.02218,-0.349342 c 0,0 -1.863716,0.314808 -1.974066,0.340332 0.08498,-0.143582 0.155877,-0.296179 0.210023,-0.456781 0.119512,-0.0279 1.945647,-0.338944 1.945647,-0.338944 l 0.02218,-0.349344 c 0,0 -1.634882,0.264629 -1.875642,0.319538 0.02203,-0.131046 0.03605,-0.264779 0.03605,-0.402022 0,-0.06842 -0.0048,-0.135407 -0.01043,-0.202396 0.160066,-0.03721 1.917923,-0.332708 1.917923,-0.332708 l 0.02149,-0.349344 c 0,0 -1.909654,0.325375 -1.992088,0.34449 -0.05363,-0.234269 -0.140873,-0.455499 -0.257156,-0.658481 0.218183,-0.05038 1.87287,-0.323006 1.87287,-0.323006 l 0.02152,-0.349344 -2.041301,0.354888 v 0.09288 c -0.440285,-0.602416 -1.149759,-0.996044 -1.951886,-0.996044 z m 0,0.224581 c 1.213484,0 2.194485,0.981 2.194485,2.194483 0,1.213484 -0.981001,2.194485 -2.194485,2.194485 -1.213483,0 -2.194484,-0.981001 -2.194484,-2.194485 0,-1.213483 0.981001,-2.194483 2.194484,-2.194483 z m -0.03881,0.119912 c -0.119082,-6.6e-5 -0.215633,0.09648 -0.215566,0.215567 -6.6e-5,0.119081 0.09649,0.215632 0.215566,0.215566 0.119083,6.9e-5 0.215636,-0.09648 0.21557,-0.215566 6.7e-5,-0.119083 -0.09649,-0.215636 -0.21557,-0.215567 z m 0.03881,0.562137 c -0.834634,0 -1.512435,0.677801 -1.512435,1.512434 0,0.834634 0.677801,1.512436 1.512435,1.512436 0.834634,0 1.512436,-0.677802 1.512436,-1.512436 0,-0.834633 -0.677802,-1.512434 -1.512436,-1.512434 z m 0,0.140014 c 0.758943,0 1.372421,0.613478 1.372421,1.37242 0,0.758943 -0.613478,1.372421 -1.372421,1.372421 -0.758942,0 -1.372421,-0.613478 -1.372421,-1.372421 0,-0.758942 0.613479,-1.37242 1.372421,-1.37242 z m 0.694528,0.935049 c -0.113764,0 -0.204842,0.03817 -0.273098,0.114366 -0.06789,0.07584 -0.101896,0.177828 -0.101896,0.305676 0,0.127846 0.03399,0.229141 0.101896,0.304985 0.06826,0.07584 0.159334,0.114366 0.273098,0.114366 0.1134,0 0.203815,-0.03852 0.271713,-0.114366 0.06789,-0.07621 0.101896,-0.177498 0.101896,-0.304985 0,-0.127848 -0.03399,-0.229832 -0.101896,-0.305676 -0.0679,-0.0762 -0.158313,-0.114366 -0.271713,-0.114366 z m -1.769591,0.01455 v 0.808897 h 0.521243 v -0.09219 h -0.411724 v -0.293199 h 0.385384 v -0.09219 h -0.385384 v -0.239135 h 0.40202 v -0.09219 z m 0.602341,0 0.308448,0.808897 h 0.124073 l 0.308447,-0.808897 h -0.113674 l -0.257156,0.680665 -0.255771,-0.680665 z m 1.16725,0.07417 c 0.07945,0 0.142307,0.02949 0.188534,0.08872 0.04659,0.05922 0.07001,0.140393 0.07001,0.242598 0,0.101842 -0.02342,0.181987 -0.07001,0.241214 -0.04622,0.05922 -0.109082,0.08872 -0.188534,0.08872 -0.07945,0 -0.142977,-0.02949 -0.189919,-0.08872 -0.0466,-0.05922 -0.06931,-0.139372 -0.06931,-0.241214 0,-0.102208 0.02271,-0.183371 0.06931,-0.242598 0.04695,-0.05923 0.110467,-0.08872 0.189919,-0.08872 z m 1.21161,0.169818 c -0.118811,3.15e-4 -0.214941,0.09676 -0.214874,0.215566 -6.8e-5,0.118813 0.09606,0.215254 0.214874,0.215569 0.119084,6.9e-5 0.215638,-0.09649 0.21557,-0.215569 6.6e-5,-0.119083 -0.09649,-0.215635 -0.21557,-0.215566 z m -3.75336,0.0055 c -0.118811,3.15e-4 -0.21494,0.09675 -0.214874,0.215565 -6.7e-5,0.118812 0.09606,0.215252 0.214874,0.215567 0.119082,6.6e-5 0.215633,-0.09649 0.215566,-0.215567 6.6e-5,-0.119081 -0.09649,-0.215631 -0.215566,-0.215565 z m 1.956738,1.818802 c -0.119082,-6.7e-5 -0.215633,0.09648 -0.215567,0.215566 -6.7e-5,0.119082 0.09649,0.215634 0.215567,0.215567 0.118811,-3.15e-4 0.214941,-0.09676 0.214874,-0.215567 6.7e-5,-0.118811 -0.09606,-0.215251 -0.214874,-0.215566 z" style="color:#000000;font-style:normal;font-variant:normal;font-weight:normal;font-stretch:normal;font-size:medium;line-height:normal;font-family:sans-serif;font-variant-ligatures:normal;font-variant-position:normal;font-variant-caps:normal;font-variant-numeric:normal;font-variant-alternates:normal;font-feature-settings:normal;text-indent:0;text-align:start;text-decoration:none;text-decoration-line:none;text-decoration-style:solid;text-decoration-color:#000000;letter-spacing:normal;word-spacing:normal;text-transform:none;writing-mode:lr-tb;direction:ltr;text-orientation:mixed;dominant-baseline:auto;baseline-shift:baseline;text-anchor:start;white-space:normal;shape-padding:0;clip-rule:nonzero;display:inline;overflow:visible;visibility:visible;opacity:1;isolation:auto;mix-blend-mode:normal;color-interpolation:sRGB;color-interpolation-filters:linearRGB;solid-color:#000000;solid-opacity:1;vector-effect:none;fill:#000000;fill-opacity:0.26041667;fill-rule:nonzero;stroke:none;stroke-width:0.22393455;stroke-linecap:butt;stroke-linejoin:miter;stroke-miterlimit:4;stroke-dasharray:none;stroke-dashoffset:0;stroke-opacity:1;marker:none;paint-order:fill markers stroke;color-rendering:auto;image-rendering:auto;shape-rendering:auto;text-rendering:auto;enable-background:accumulate" inkscape:label="firm" sodipodi:nodetypes="csscccccccccscccccccccccssssscccccssssssssssscscscscscccccccccccccccccccccscscscscscccccccccczcccz"/>
      <path style="display:inline;fill:#5477b0;fill-opacity:1;fill-rule:evenodd;stroke:none;stroke-width:0.34317398px;stroke-linecap:butt;stroke-linejoin:miter;stroke-opacity:1" d="M -25.886364,-25.002661 -31,-24.999939 v 2.763631 l 0.988178,-0.693605 v -1.110686 h 3.440978 z m 10.909091,0 -4.090909,0.0028 -0.681818,0.959364 h 4.088247 z m 10.9090912,0 -4.0909091,0.0028 -0.6818182,0.959364 h 4.0882466 z m 3.0708443,0.348152 -0.9548191,1.059254 -0.00272,3.7771 0.95748163,-0.693606 z m -29.0144845,8.290893 -0.985515,0.690907 -0.0026,4.145447 0.988178,-0.693605 z m 29.0144845,2.763631 -0.9548191,0.690907 -0.00272,4.145447 0.95748163,-0.6936058 z M -29.977273,-6.9593639 -30.659091,-6 h 4.088247 l 0.68448,-0.9593639 z m 10.909091,0 L -19.75,-6 h 4.088247 l 0.68448,-0.9593639 z m 10.9090911,0 L -8.8409091,-6 h 4.0882466 l 0.6844807,-0.9593639 z" id="path7980-09" inkscape:connector-curvature="0" inkscape:label="blue" sodipodi:nodetypes="ccccccccccccccccccccccccccccccccccccccccccccccc"/>
      <path style="display:inline;fill:#b05457;fill-opacity:1;fill-rule:evenodd;stroke:none;stroke-width:0.34317398px;stroke-linecap:butt;stroke-linejoin:miter;stroke-opacity:1" d="m -20.431818,-25.002661 -4.090909,0.0028 -0.681818,0.959364 h 4.088246 z m 10.9090908,0 -4.0909088,0.0028 -0.681819,0.959364 h 4.088247 z m 8.5227272,0 -1.7045454,0.0028 -0.6818182,0.959364 h 1.7018829 z m -29.011822,3.111783 -0.985515,0.690907 -0.0026,4.145447 0.988178,-0.693605 z m 29.0144845,2.76363 -0.9548191,0.690909 -0.00272,4.145446 0.95748163,-0.693606 z m -29.0144845,8.290894 -0.985515,0.690908 -0.0026,4.145446 0.988178,-1.3075158 z m 29.0144845,2.7636307 -0.9548191,0.6909078 -0.00204,0.4204272 -0.7503434,0.00203 L -3.3863636,-6 H -1.3409091 -1 Z M -24.522727,-6.9593639 -25.204545,-6 h 4.090909 l 0.681818,-0.9593639 z m 10.909091,0 L -14.295455,-6 h 4.09091 l 0.6818178,-0.9593639 z" id="path7988-63" inkscape:connector-curvature="0" inkscape:label="red" sodipodi:nodetypes="cccccccccccccccccccccccccccccccccccccccccccccccc"/>
    </g>
  </g>
</svg>