<?xml version="1.0" encoding="UTF-8" standalone="yes"?>
<svg xmlns:dc="http://purl.org/dc/elements/1.1/" xmlns:cc="http://creativecommons.org/ns#" xmlns:rdf="http://www.w3.org/1999/02/22-rdf-syntax-ns#" xmlns:svg="http://www.w3.org/2000/svg" xmlns="http://www.w3.org/2000/svg" xmlns:xlink="http://www.w3.org/1999/xlink" xmlns:sodipodi="http://sodipodi.sourceforge.net/DTD/sodipodi-0.dtd" xmlns:inkscape="http://www.inkscape.org/namespaces/inkscape" height="32" viewBox="0 0 32 32" width="32" id="svg2" version="1.1" inkscape:version="0.92.2 5c3e80d, 2017-08-06" sodipodi:docname="hexchat.svg" enable-background="new" folder="32">
  <title id="title4675">Template icons dark</title>
  <metadata id="metadata24">
    <rdf:RDF>
      <cc:Work rdf:about="">
        <dc:format>image/svg+xml</dc:format>
        <dc:type rdf:resource="http://purl.org/dc/dcmitype/StillImage"/>
        <dc:title>Template icons dark</dc:title>
        <dc:date>17/05/13</dc:date>
        <dc:creator>
          <cc:Agent>
            <dc:title>wfpaisa</dc:title>
          </cc:Agent>
        </dc:creator>
        <dc:rights>
          <cc:Agent>
            <dc:title>License: GPLv3</dc:title>
          </cc:Agent>
        </dc:rights>
        <dc:language>es-en</dc:language>
        <dc:subject>
          <rdf:Bag>
            <rdf:li>plane-icon-theme</rdf:li>
          </rdf:Bag>
        </dc:subject>
        <dc:description>Template for create set icons</dc:description>
        <cc:license rdf:resource="https://www.gnu.org/licenses/gpl-3.0.en.html"/>
      </cc:Work>
    </rdf:RDF>
  </metadata>
  <defs id="defs22">
    <linearGradient inkscape:collect="always" id="linearGradient1062">
      <stop style="stop-color:#6e685c;stop-opacity:1" offset="0" id="stop1058"/>
      <stop style="stop-color:#7f6a7f;stop-opacity:1" offset="1" id="stop1060"/>
    </linearGradient>
    <linearGradient id="linearGradient1011">
      <stop style="stop-color:#fadd9a;stop-opacity:0.26373628" offset="0" id="stop1007"/>
      <stop style="stop-color:#ffffff;stop-opacity:0" offset="1" id="stop1009"/>
    </linearGradient>
    <linearGradient id="linearGradient1003">
      <stop id="stop999" offset="0" style="stop-color:#000000;stop-opacity:0.02197802"/>
      <stop id="stop1001" offset="1" style="stop-color:#ffffff;stop-opacity:0"/>
    </linearGradient>
    <linearGradient id="linearGradient951">
      <stop style="stop-color:#000000;stop-opacity:0.02197802" offset="0" id="stop947"/>
      <stop style="stop-color:#111111;stop-opacity:0.55128205;" offset="1" id="stop949"/>
    </linearGradient>
    <linearGradient inkscape:collect="always" id="linearGradient937">
      <stop style="stop-color:#262532;stop-opacity:1" offset="0" id="stop933"/>
      <stop style="stop-color:#39343d;stop-opacity:1" offset="1" id="stop935"/>
    </linearGradient>
    <linearGradient inkscape:collect="always" id="linearGradient919">
      <stop style="stop-color:#f75100;stop-opacity:1" offset="0" id="stop915"/>
      <stop style="stop-color:#ffae11;stop-opacity:1" offset="1" id="stop917"/>
    </linearGradient>
    <linearGradient inkscape:collect="always" id="linearGradient890">
      <stop style="stop-color:#23211d;stop-opacity:1" offset="0" id="stop886"/>
      <stop style="stop-color:#3f474b;stop-opacity:1" offset="1" id="stop888"/>
    </linearGradient>
    <linearGradient inkscape:collect="always" xlink:href="#linearGradient890" id="linearGradient892" x1="163.84251" y1="197.85826" x2="163.84251" y2="124" gradientUnits="userSpaceOnUse"/>
    <linearGradient inkscape:collect="always" xlink:href="#linearGradient919" id="linearGradient921" x1="160" y1="182.11389" x2="160" y2="138" gradientUnits="userSpaceOnUse"/>
    <linearGradient inkscape:collect="always" xlink:href="#linearGradient937" id="linearGradient939" x1="165.5748" y1="196.64023" x2="165.5748" y2="124" gradientUnits="userSpaceOnUse"/>
    <linearGradient inkscape:collect="always" xlink:href="#linearGradient951" id="linearGradient957" gradientUnits="userSpaceOnUse" x1="157.44095" y1="165" x2="152.50394" y2="178" gradientTransform="matrix(-1,0,0,1,319.97656,0)"/>
    <linearGradient inkscape:collect="always" xlink:href="#linearGradient951" id="linearGradient963" gradientUnits="userSpaceOnUse" x1="157.44095" y1="165" x2="152.50394" y2="178" gradientTransform="matrix(1,0,0,-1,0,321.42)"/>
    <linearGradient inkscape:collect="always" xlink:href="#linearGradient951" id="linearGradient965" gradientUnits="userSpaceOnUse" gradientTransform="rotate(-180,159.98828,160.71002)" x1="157.44095" y1="165" x2="152.50394" y2="178"/>
    <linearGradient inkscape:collect="always" xlink:href="#linearGradient951" id="linearGradient991" gradientUnits="userSpaceOnUse" x1="152.96036" y1="169.59766" x2="150.53516" y2="166.59766" gradientTransform="matrix(1,0,0,-1,-9.53516,354.59766)"/>
    <linearGradient inkscape:collect="always" xlink:href="#linearGradient951" id="linearGradient957-3" gradientUnits="userSpaceOnUse" x1="157.44095" y1="165" x2="152.50394" y2="178" gradientTransform="matrix(-1,0,0,1,159.98828,-160.75391)"/>
    <linearGradient inkscape:collect="always" xlink:href="#linearGradient951" id="linearGradient1036" gradientUnits="userSpaceOnUse" gradientTransform="matrix(-1,0,0,1,319.97656,0)" x1="162.53561" y1="165" x2="171.25215" y2="173"/>
    <linearGradient inkscape:collect="always" xlink:href="#linearGradient1062" id="linearGradient1064" x1="166.3307" y1="203.9016" x2="166.3307" y2="116" gradientUnits="userSpaceOnUse"/>
    <linearGradient inkscape:collect="always" xlink:href="#linearGradient937" id="linearGradient1073" gradientUnits="userSpaceOnUse" x1="165.5748" y1="196.64023" x2="165.5748" y2="124"/>
    <linearGradient gradientTransform="matrix(1.3333331,0,0,1.3333331,58.666708,58.666698)" inkscape:collect="always" xlink:href="#linearGradient937" id="linearGradient1073-3" gradientUnits="userSpaceOnUse" x1="165.5748" y1="196.64023" x2="165.5748" y2="124"/>
    <linearGradient gradientTransform="matrix(1.3333331,0,0,1.3333331,58.666708,58.666698)" inkscape:collect="always" xlink:href="#linearGradient919" id="linearGradient921-2" x1="160" y1="182.11389" x2="160" y2="138" gradientUnits="userSpaceOnUse"/>
    <linearGradient inkscape:collect="always" xlink:href="#linearGradient951" id="linearGradient1036-2" gradientUnits="userSpaceOnUse" gradientTransform="matrix(-1.3333331,0,0,1.3333331,485.30205,58.666698)" x1="162.53561" y1="165" x2="171.25215" y2="173"/>
    <linearGradient inkscape:collect="always" xlink:href="#linearGradient951" id="linearGradient957-9" gradientUnits="userSpaceOnUse" x1="157.44095" y1="165" x2="152.50394" y2="178" gradientTransform="matrix(-1.3333331,0,0,1.3333331,485.30205,58.666698)"/>
    <linearGradient inkscape:collect="always" xlink:href="#linearGradient951" id="linearGradient963-3" gradientUnits="userSpaceOnUse" x1="157.44095" y1="165" x2="152.50394" y2="178" gradientTransform="matrix(1.3333331,0,0,-1.3333331,58.666708,487.22662)"/>
    <linearGradient inkscape:collect="always" xlink:href="#linearGradient951" id="linearGradient965-6" gradientUnits="userSpaceOnUse" gradientTransform="matrix(-1.3333331,0,0,-1.3333331,485.30207,487.22668)" x1="157.44095" y1="165" x2="152.50394" y2="178"/>
    <linearGradient gradientTransform="matrix(0.66667093,0,0,0.66667093,-26.667364,-26.667346)" inkscape:collect="always" xlink:href="#linearGradient937" id="linearGradient1073-5" gradientUnits="userSpaceOnUse" x1="165.5748" y1="196.64023" x2="165.5748" y2="124"/>
    <linearGradient gradientTransform="matrix(0.66667093,0,0,0.66667093,-26.667364,-26.667346)" inkscape:collect="always" xlink:href="#linearGradient919" id="linearGradient921-28" x1="160" y1="182.11389" x2="160" y2="138" gradientUnits="userSpaceOnUse"/>
    <linearGradient inkscape:collect="always" xlink:href="#linearGradient951" id="linearGradient1036-3" gradientUnits="userSpaceOnUse" gradientTransform="matrix(-0.66667093,0,0,0.66667093,186.65171,-26.667346)" x1="162.53561" y1="165" x2="171.25215" y2="173"/>
    <linearGradient inkscape:collect="always" xlink:href="#linearGradient951" id="linearGradient957-2" gradientUnits="userSpaceOnUse" x1="157.44095" y1="165" x2="152.50394" y2="178" gradientTransform="matrix(-0.66667093,0,0,0.66667093,186.65171,-26.667346)"/>
    <linearGradient inkscape:collect="always" xlink:href="#linearGradient951" id="linearGradient963-9" gradientUnits="userSpaceOnUse" x1="157.44095" y1="165" x2="152.50394" y2="178" gradientTransform="matrix(0.66667093,0,0,-0.66667093,-26.667364,187.61402)"/>
    <linearGradient inkscape:collect="always" xlink:href="#linearGradient951" id="linearGradient965-3" gradientUnits="userSpaceOnUse" gradientTransform="matrix(-0.66667093,0,0,-0.66667093,186.65171,187.61405)" x1="157.44095" y1="165" x2="152.50394" y2="178"/>
    <linearGradient gradientTransform="matrix(0.49999736,0,0,0.49999736,-55.999599,-55.999578)" inkscape:collect="always" xlink:href="#linearGradient937" id="linearGradient1073-32" gradientUnits="userSpaceOnUse" x1="165.5748" y1="196.64023" x2="165.5748" y2="124"/>
    <linearGradient gradientTransform="matrix(0.49999736,0,0,0.49999736,-55.999599,-55.999578)" inkscape:collect="always" xlink:href="#linearGradient919" id="linearGradient921-1" x1="160" y1="182.11389" x2="160" y2="138" gradientUnits="userSpaceOnUse"/>
    <linearGradient inkscape:collect="always" xlink:href="#linearGradient951" id="linearGradient1036-4" gradientUnits="userSpaceOnUse" gradientTransform="matrix(-0.49999736,0,0,0.49999736,103.98784,-55.999578)" x1="162.53561" y1="165" x2="171.25215" y2="173"/>
    <linearGradient inkscape:collect="always" xlink:href="#linearGradient951" id="linearGradient957-5" gradientUnits="userSpaceOnUse" x1="157.44095" y1="165" x2="152.50394" y2="178" gradientTransform="matrix(-0.49999736,0,0,0.49999736,103.98784,-55.999578)"/>
    <linearGradient inkscape:collect="always" xlink:href="#linearGradient951" id="linearGradient963-6" gradientUnits="userSpaceOnUse" x1="157.44095" y1="165" x2="152.50394" y2="178" gradientTransform="matrix(0.49999736,0,0,-0.49999736,-55.999599,104.70957)"/>
    <linearGradient inkscape:collect="always" xlink:href="#linearGradient951" id="linearGradient965-9" gradientUnits="userSpaceOnUse" gradientTransform="matrix(-0.49999736,0,0,-0.49999736,103.98784,104.70959)" x1="157.44095" y1="165" x2="152.50394" y2="178"/>
    <linearGradient gradientTransform="matrix(0.33333546,0,0,0.33333546,-69.333702,-69.333674)" inkscape:collect="always" xlink:href="#linearGradient937" id="linearGradient1073-8" gradientUnits="userSpaceOnUse" x1="165.5748" y1="196.64023" x2="165.5748" y2="124"/>
    <linearGradient gradientTransform="matrix(0.33333546,0,0,0.33333546,-69.333702,-69.333674)" inkscape:collect="always" xlink:href="#linearGradient919" id="linearGradient921-14" x1="160" y1="182.11389" x2="160" y2="138" gradientUnits="userSpaceOnUse"/>
    <linearGradient gradientTransform="matrix(0.27426685,0,0,0.27426685,-87.882725,-87.943515)" inkscape:collect="always" xlink:href="#linearGradient919" id="linearGradient921-14-9" x1="160" y1="182.11389" x2="160" y2="138" gradientUnits="userSpaceOnUse"/>
    <linearGradient gradientTransform="matrix(0.24124709,0,0,0.24124709,-82.599567,-82.599535)" inkscape:collect="always" xlink:href="#linearGradient937" id="linearGradient1073-8-0" gradientUnits="userSpaceOnUse" x1="165.5748" y1="196.64023" x2="165.5748" y2="124"/>
    <linearGradient gradientTransform="matrix(0.14893698,0,0,0.14893698,-87.829957,-87.829915)" inkscape:collect="always" xlink:href="#linearGradient937" id="linearGradient1073-8-0-9" gradientUnits="userSpaceOnUse" x1="165.5748" y1="196.64023" x2="165.5748" y2="124"/>
    <linearGradient gradientTransform="matrix(0.19618943,0,0,0.19618943,-95.39034,-95.464324)" inkscape:collect="always" xlink:href="#linearGradient919" id="linearGradient921-14-9-6" x1="160" y1="182.11389" x2="160" y2="138" gradientUnits="userSpaceOnUse"/>
  </defs>
  <sodipodi:namedview pagecolor="#383c4a" bordercolor="#ffffff" borderopacity="0.62745098" objecttolerance="4" gridtolerance="10" guidetolerance="4" inkscape:pageopacity="0" inkscape:pageshadow="2" inkscape:window-width="640" inkscape:window-height="480" id="namedview20" showgrid="true" inkscape:zoom="32.578064" inkscape:cx="-61.617454" inkscape:cy="112.57787" inkscape:current-layer="layer6" inkscape:snap-smooth-nodes="false" showguides="true" borderlayer="true" inkscape:showpageshadow="false" inkscape:guide-bbox="true" guidecolor="#bd4fff" guideopacity="0.78431373" inkscape:snap-nodes="true" inkscape:lockguides="false" fit-margin-top="0" fit-margin-left="0" fit-margin-right="0" fit-margin-bottom="0" guidehicolor="#ff0101" guidehiopacity="0.78431373" inkscape:snap-page="true" inkscape:object-nodes="true" inkscape:snap-bbox="true" inkscape:snap-global="true" inkscape:snap-object-midpoints="false" inkscape:snap-bbox-edge-midpoints="false">
    <inkscape:grid type="xygrid" id="grid4171" empspacing="4" dotted="false" originx="2.7755576e-17" originy="0" spacingx="1" spacingy="1" color="#5a5a5a" opacity="0.23529412" empcolor="#5a5a5a" empopacity="0.47058824" visible="true"/>
    <inkscape:grid type="axonomgrid" id="grid4699" units="mm" empspacing="4" color="#5a5a5a" opacity="0.23529412" empcolor="#5a5a5a" empopacity="0.47058824" gridanglex="45" gridanglez="45" spacingy="3.7795276" visible="false" originx="1.3228346" originy="1.3228346"/>
    <sodipodi:guide position="48,0" orientation="1,0" id="guide4568" inkscape:locked="false" inkscape:label="" inkscape:color="rgb(189,79,255)"/>
    <sodipodi:guide position="111.99996,-3.9999999e-05" orientation="0,1" id="guide4570" inkscape:locked="false" inkscape:label="" inkscape:color="rgb(189,79,255)"/>
    <sodipodi:guide position="0,0" orientation="1,0" id="guide4572" inkscape:locked="false" inkscape:label="" inkscape:color="rgb(189,79,255)"/>
    <sodipodi:guide position="0,48" orientation="0,1" id="guide4574" inkscape:locked="false" inkscape:label="" inkscape:color="rgb(189,79,255)"/>
    <sodipodi:guide position="0,80" orientation="0,1" id="guide4576" inkscape:locked="false" inkscape:label="" inkscape:color="rgb(189,79,255)"/>
    <sodipodi:guide position="-32,48" orientation="1,0" id="guide4578" inkscape:locked="false" inkscape:label="" inkscape:color="rgb(189,79,255)"/>
    <sodipodi:guide position="-32,104" orientation="0,1" id="guide4580" inkscape:locked="false" inkscape:label="" inkscape:color="rgb(189,79,255)"/>
    <sodipodi:guide position="-56,80" orientation="1,0" id="guide4582" inkscape:locked="false" inkscape:label="" inkscape:color="rgb(189,79,255)"/>
    <sodipodi:guide position="48,-64" orientation="0,1" id="guide4584" inkscape:locked="false" inkscape:label="" inkscape:color="rgb(189,79,255)"/>
    <sodipodi:guide position="0,0" orientation="-0.70710678,0.70710678" id="guide4588" inkscape:locked="false" inkscape:label="" inkscape:color="rgb(189,79,255)"/>
    <sodipodi:guide position="-56,80" orientation="-0.70710678,0.70710678" id="guide4573" inkscape:locked="false" inkscape:label="" inkscape:color="rgb(189,79,255)"/>
    <sodipodi:guide position="-32,48" orientation="-0.70710678,0.70710678" id="guide4575" inkscape:locked="false" inkscape:label="" inkscape:color="rgb(189,79,255)"/>
    <sodipodi:guide position="48,-64" orientation="-0.70710678,0.70710678" id="guide4577" inkscape:locked="false" inkscape:label="" inkscape:color="rgb(189,79,255)"/>
    <sodipodi:guide position="47.999962,0" orientation="0.70710678,0.70710678" id="guide4697" inkscape:locked="false" inkscape:label="" inkscape:color="rgb(189,79,255)"/>
    <sodipodi:guide position="207.99995,-288" orientation="0,1" id="guide7833" inkscape:locked="false"/>
    <sodipodi:guide position="335.99994,-288" orientation="1,0" id="guide7835" inkscape:locked="false" inkscape:label="" inkscape:color="rgb(189,79,255)"/>
    <sodipodi:guide position="111.99996,-64" orientation="1,0" id="guide7915" inkscape:locked="false"/>
    <sodipodi:guide position="111.99996,-160" orientation="0,1" id="guide7917" inkscape:locked="false"/>
    <sodipodi:guide position="207.99996,-160" orientation="1,0" id="guide7919" inkscape:locked="false"/>
    <sodipodi:guide position="111.99996,-160" orientation="-0.70710678,0.70710678" id="guide7921" inkscape:locked="false" inkscape:label="" inkscape:color="rgb(189,79,255)"/>
    <sodipodi:guide position="207.99996,-288" orientation="-0.70710678,0.70710678" id="guide7923" inkscape:locked="false" inkscape:label="" inkscape:color="rgb(189,79,255)"/>
    <sodipodi:guide position="-72,104" orientation="1,0" id="guide7824" inkscape:locked="false"/>
    <sodipodi:guide position="-56,120" orientation="0,1" id="guide7826" inkscape:locked="false"/>
    <sodipodi:guide position="-72,104" orientation="-0.70710678,0.70710678" id="guide7828" inkscape:locked="false" inkscape:label="" inkscape:color="rgb(189,79,255)"/>
  </sodipodi:namedview>
  <g style="display:inline" inkscape:label="icon_32" id="g7816" inkscape:groupmode="layer" transform="translate(32,32)">
    <g style="display:none" inkscape:label="frame" id="g7802" inkscape:groupmode="layer">
      <rect style="color:#000000;clip-rule:nonzero;display:block;overflow:visible;visibility:visible;opacity:1;isolation:auto;mix-blend-mode:normal;color-interpolation:sRGB;color-interpolation-filters:linearRGB;solid-color:#000000;solid-opacity:1;vector-effect:none;fill:#000000;fill-opacity:1;fill-rule:nonzero;stroke:#ff24f7;stroke-width:0;stroke-linecap:square;stroke-linejoin:miter;stroke-miterlimit:4;stroke-dasharray:none;stroke-dashoffset:0;stroke-opacity:0.99481865;marker:none;marker-start:none;marker-mid:none;marker-end:none;paint-order:normal;color-rendering:auto;image-rendering:auto;shape-rendering:auto;text-rendering:auto;enable-background:accumulate" id="rect7792" width="32" height="32" x="-32" y="-32" inkscape:label="frame_32"/>
      <text inkscape:label="txt_32" id="text7796" y="-11.470053" x="-23.799042" style="font-size:12.4444437px;line-height:1000%;font-family:sans-serif;letter-spacing:0px;word-spacing:0px;display:inline;opacity:1;fill:#ffffff;fill-opacity:1;stroke:none;stroke-width:0.07444605px;stroke-linecap:butt;stroke-linejoin:miter;stroke-opacity:1" xml:space="preserve">
        <tspan id="tspan7794" style="font-size:12.4444437px;fill:#ffffff;fill-opacity:1;stroke:none;stroke-width:0.07444605px" y="-11.470053" x="-23.799042" sodipodi:role="line">32</tspan>
      </text>
    </g>
    <g style="display:inline" inkscape:label="icon" id="g7814" inkscape:groupmode="layer">
      <path d="m 6.2942505e-5,-16 c 0,1.120007 -7.030097642505,13.2964936 -8.000052442505,13.8564973 -0.9699548,0.5600037 -15.0301505,0.5600037 -16.0001045,0 C -24.970049,-2.7035064 -32.000147,-14.879993 -32.000147,-16 c 0,-1.120007 7.030098,-13.296494 8.000053,-13.856497 0.969954,-0.560004 15.0301497,-0.560004 16.0001045,0 C -7.0300347,-29.296494 6.2942505e-5,-17.120007 6.2942505e-5,-16 Z" inkscape:randomized="0" inkscape:rounded="0.07" inkscape:flatsided="true" sodipodi:arg2="0.52359878" sodipodi:arg1="0" sodipodi:r2="13.856497" sodipodi:r1="16.000105" sodipodi:cy="-16" sodipodi:cx="-16.000042" sodipodi:sides="6" id="path941-9" style="color:#000000;clip-rule:nonzero;display:block;overflow:visible;visibility:visible;opacity:1;isolation:auto;mix-blend-mode:normal;color-interpolation:sRGB;color-interpolation-filters:linearRGB;solid-color:#000000;solid-opacity:1;vector-effect:none;fill:#000000;fill-opacity:0.42307691;fill-rule:nonzero;stroke:none;stroke-width:2.97684956;stroke-linecap:butt;stroke-linejoin:miter;stroke-miterlimit:4;stroke-dasharray:none;stroke-dashoffset:0;stroke-opacity:1;marker:none;marker-start:none;marker-mid:none;marker-end:none;paint-order:fill markers stroke;color-rendering:auto;image-rendering:auto;shape-rendering:auto;text-rendering:auto;enable-background:accumulate" sodipodi:type="star"/>
      <path sodipodi:type="star" style="color:#000000;clip-rule:nonzero;display:block;overflow:visible;visibility:visible;opacity:1;isolation:auto;mix-blend-mode:normal;color-interpolation:sRGB;color-interpolation-filters:linearRGB;solid-color:#000000;solid-opacity:1;vector-effect:none;fill:url(#linearGradient1073-8);fill-opacity:1;fill-rule:nonzero;stroke:none;stroke-width:2.91483426;stroke-linecap:butt;stroke-linejoin:miter;stroke-miterlimit:4;stroke-dasharray:none;stroke-dashoffset:0;stroke-opacity:1;marker:none;marker-start:none;marker-mid:none;marker-end:none;paint-order:fill markers stroke;color-rendering:auto;image-rendering:auto;shape-rendering:auto;text-rendering:auto;enable-background:accumulate" id="path931-5" sodipodi:sides="6" sodipodi:cx="-16.000042" sodipodi:cy="-16" sodipodi:r1="15.666782" sodipodi:r2="13.567832" sodipodi:arg1="0" sodipodi:arg2="0.52359878" inkscape:flatsided="true" inkscape:rounded="0.07" inkscape:randomized="0" d="m -0.33325958,-16 c 0,1.096675 -6.88364302,13.0194942 -7.83339122,13.5678315 -0.9497482,0.5483374 -14.7170342,0.5483374 -15.6667822,0 C -24.783181,-2.9805058 -31.666824,-14.903325 -31.666824,-16 c 0,-1.096675 6.883643,-13.019494 7.833391,-13.567832 0.949748,-0.548337 14.717034,-0.548337 15.6667822,0 0.9497482,0.548338 7.83339122,12.471157 7.83339122,13.567832 z"/>
      <path sodipodi:type="star" style="color:#000000;clip-rule:nonzero;display:block;overflow:visible;visibility:visible;opacity:1;isolation:auto;mix-blend-mode:normal;color-interpolation:sRGB;color-interpolation-filters:linearRGB;solid-color:#000000;solid-opacity:1;vector-effect:none;fill:#f6f5f4;fill-opacity:0.09890113;fill-rule:nonzero;stroke:none;stroke-width:2.79078579;stroke-linecap:butt;stroke-linejoin:miter;stroke-miterlimit:4;stroke-dasharray:none;stroke-dashoffset:0;stroke-opacity:1;marker:none;marker-start:none;marker-mid:none;marker-end:none;paint-order:fill markers stroke;color-rendering:auto;image-rendering:auto;shape-rendering:auto;text-rendering:auto;enable-background:accumulate" id="path925-4" sodipodi:sides="6" sodipodi:cx="-16.000042" sodipodi:cy="-16" sodipodi:r1="15.000042" sodipodi:r2="12.990417" sodipodi:arg1="0" sodipodi:arg2="0.52359878" inkscape:flatsided="true" inkscape:rounded="0.07" inkscape:randomized="0" d="m -1,-16 c 0,1.050003 -6.5906918,12.4654159 -7.500021,12.9904174 -0.9093292,0.5250015 -14.090713,0.5250015 -15.000042,0 C -24.409392,-3.5345841 -31.000084,-14.949997 -31.000084,-16 c 0,-1.050003 6.590692,-12.465416 7.500021,-12.990417 0.909329,-0.525002 14.0907128,-0.525002 15.000042,0 C -7.5906918,-28.465416 -1,-17.050003 -1,-16 Z"/>
      <path style="color:#000000;font-style:normal;font-variant:normal;font-weight:normal;font-stretch:normal;font-size:medium;line-height:normal;font-family:sans-serif;font-variant-ligatures:normal;font-variant-position:normal;font-variant-caps:normal;font-variant-numeric:normal;font-variant-alternates:normal;font-feature-settings:normal;text-indent:0;text-align:start;text-decoration:none;text-decoration-line:none;text-decoration-style:solid;text-decoration-color:#000000;letter-spacing:normal;word-spacing:normal;text-transform:none;writing-mode:lr-tb;direction:ltr;text-orientation:mixed;dominant-baseline:auto;baseline-shift:baseline;text-anchor:start;white-space:normal;shape-padding:0;clip-rule:nonzero;display:block;overflow:visible;visibility:visible;opacity:1;isolation:auto;mix-blend-mode:normal;color-interpolation:sRGB;color-interpolation-filters:linearRGB;solid-color:#000000;solid-opacity:1;vector-effect:none;fill:url(#linearGradient921-14);fill-opacity:1;fill-rule:nonzero;stroke:none;stroke-width:0.33333546;stroke-linecap:butt;stroke-linejoin:miter;stroke-miterlimit:4;stroke-dasharray:none;stroke-dashoffset:0;stroke-opacity:0.28021982;marker:none;paint-order:fill markers stroke;color-rendering:auto;image-rendering:auto;shape-rendering:auto;text-rendering:auto;enable-background:accumulate" d="m -16.000027,-24.662166 c -1.05308,0 -2.10445,0.0185 -2.943379,0.05729 -0.419462,0.0194 -0.783821,0.04352 -1.08464,0.07552 -0.150411,0.016 -0.283982,0.03363 -0.415369,0.05859 -0.131385,0.02497 -0.230712,0.01833 -0.494144,0.166018 -0.263435,0.147674 -0.308528,0.235338 -0.396485,0.333335 -0.08796,0.098 -0.170291,0.201188 -0.259769,0.319662 -0.178954,0.236949 -0.382349,0.531344 -0.60938,0.874356 -0.45407,0.686028 -0.996253,1.561127 -1.522793,2.446629 -0.52654,0.885502 -1.035077,1.778448 -1.419933,2.503273 -0.192431,0.362415 -0.354049,0.680924 -0.475913,0.949876 -0.06093,0.134474 -0.112174,0.255295 -0.155601,0.378255 -0.04342,0.122961 -0.09896,0.204005 -0.09896,0.499354 0,0.295348 0.05554,0.376392 0.09896,0.499353 0.04343,0.122961 0.09467,0.243781 0.155601,0.378256 0.121864,0.268951 0.283482,0.58746 0.475913,0.949876 0.384856,0.724824 0.893393,1.61777 1.419933,2.503272 0.336445,0.565814 0.670691,1.106491 0.992843,1.617197 l -1.371752,4.3854451 3.442078,-1.9075657 c 0.084,0.024767 0.147974,0.031334 0.219402,0.044924 0.131387,0.024967 0.264958,0.042594 0.415369,0.058594 0.300819,0.032 0.665178,0.056124 1.08464,0.07552 0.838929,0.038797 1.890299,0.057294 2.943379,0.057294 1.053083,0 2.1038,-0.0185 2.942726,-0.057294 0.419462,-0.0194 0.784475,-0.04352 1.085293,-0.07552 0.150411,-0.016 0.283979,-0.03363 0.415369,-0.058594 0.131385,-0.024967 0.230709,-0.018333 0.494144,-0.1660178 0.263435,-0.1476743 0.308528,-0.2353381 0.396485,-0.3333354 0.08796,-0.097997 0.170292,-0.201188 0.259769,-0.3196621 0.178951,-0.2369482 0.382349,-0.5313434 0.6093803,-0.8743556 0.4540696,-0.6860277 0.9962498,-1.5611265 1.5227931,-2.4466295 0.5265401,-0.885502 1.0350733,-1.778448 1.4199324,-2.503272 0.1924313,-0.362416 0.353399,-0.680925 0.4752631,-0.949876 0.060934,-0.134475 0.112824,-0.255295 0.156251,-0.378256 0.043427,-0.122961 0.098961,-0.204005 0.098961,-0.499353 0,-0.295349 -0.055534,-0.376393 -0.098961,-0.499354 -0.043427,-0.12296 -0.095317,-0.243781 -0.156251,-0.378255 -0.1218675,-0.268952 -0.2828318,-0.587461 -0.4752631,-0.949876 -0.3848591,-0.724825 -0.8933923,-1.617771 -1.4199324,-2.503273 -0.5265433,-0.885502 -1.0687301,-1.760601 -1.5227931,-2.446629 -0.2270343,-0.343012 -0.4304293,-0.637407 -0.6093803,-0.874356 -0.08948,-0.118474 -0.171808,-0.221664 -0.259769,-0.319662 -0.08796,-0.098 -0.13305,-0.185661 -0.396485,-0.333335 -0.263435,-0.147674 -0.362759,-0.141051 -0.494144,-0.166018 -0.13139,-0.02497 -0.264958,-0.04259 -0.415369,-0.05859 -0.300818,-0.032 -0.665827,-0.05612 -1.085293,-0.07552 -0.838926,-0.0388 -1.889643,-0.05729 -2.942726,-0.05729 z m 0,1.970716 c 1.027873,0 2.058093,0.01887 2.847025,0.05534 0.114204,0.0053 0.174744,0.0135 0.277995,0.01953 l -3.142597,4.678417 -3.181663,-4.67386 c 0.126604,-0.0078 0.207541,-0.0174 0.352215,-0.0241 0.788935,-0.03649 1.819155,-0.05534 2.847025,-0.05534 z m 4.968782,1.720065 c 0.321045,0.507286 0.658211,1.051946 0.999356,1.62566 0.5139368,0.864305 1.01243,1.739608 1.3743556,2.421239 0.1809645,0.340819 0.3280821,0.63493 0.4212294,0.840502 0.017467,0.03856 0.0218,0.05246 0.035154,0.08398 -0.013367,0.03153 -0.0177,0.04543 -0.035154,0.08398 -0.093147,0.205571 -0.2402649,0.499683 -0.4212294,0.840502 -0.3619256,0.681631 -0.8604188,1.556933 -1.3743556,2.421238 -0.391012,0.657578 -0.778371,1.280318 -1.136077,1.839205 l -3.365255,-4.943391 z m -9.974021,0.05664 3.51695,5.16605 -3.329448,4.955758 c -0.361266,-0.56375 -0.754205,-1.195041 -1.150401,-1.861339 -0.513937,-0.864305 -1.01243,-1.739607 -1.374356,-2.421238 -0.180964,-0.340819 -0.328082,-0.634931 -0.421229,-0.840502 -0.01747,-0.03856 -0.0218,-0.05246 -0.03515,-0.08398 0.01337,-0.03153 0.0177,-0.04543 0.03515,-0.08398 0.09315,-0.205572 0.240265,-0.499683 0.421229,-0.840502 0.361926,-0.681631 0.860419,-1.556934 1.374356,-2.421239 0.327899,-0.551437 0.652281,-1.076817 0.962899,-1.56902 z m 5.001332,7.34575 2.861999,4.2044537 c -0.0045,2.1e-4 -0.0065,3.166e-4 -0.01107,6.666e-4 -0.788932,0.036487 -1.819152,0.05534 -2.847025,0.05534 -1.021097,0 -2.042563,-0.0187 -2.829445,-0.054687 z" id="path902-72" inkscape:connector-curvature="0" sodipodi:nodetypes="scccccscscccscccsccccccsccccccccscssscsccccscccsccccccccccscccscccccccsscccscccccscc"/>
      <path d="m -3,-16 c 0,0.910003 -5.7119353,10.8033651 -6.500021,11.2583666 -0.788086,0.4550015 -12.211956,0.4550015 -13.000042,0 C -23.288149,-5.1966349 -29.000084,-15.089997 -29.000084,-16 c 0,-0.910003 5.711935,-10.803365 6.500021,-11.258367 0.788086,-0.455001 12.211956,-0.455001 13.000042,0 C -8.7119353,-26.803365 -3,-16.910003 -3,-16 Z" inkscape:randomized="0" inkscape:rounded="0.07" inkscape:flatsided="true" sodipodi:arg2="0.52359878" sodipodi:arg1="0" sodipodi:r2="11.258366" sodipodi:r1="13.000042" sodipodi:cy="-16" sodipodi:cx="-16.000042" sodipodi:sides="6" id="path1374" style="color:#000000;clip-rule:nonzero;display:block;overflow:visible;visibility:visible;opacity:1;isolation:auto;mix-blend-mode:normal;color-interpolation:sRGB;color-interpolation-filters:linearRGB;solid-color:#000000;solid-opacity:1;vector-effect:none;fill:#f6f5f4;fill-opacity:0.09890113;fill-rule:nonzero;stroke:none;stroke-width:2.4186821;stroke-linecap:butt;stroke-linejoin:miter;stroke-miterlimit:4;stroke-dasharray:none;stroke-dashoffset:0;stroke-opacity:1;marker:none;marker-start:none;marker-mid:none;marker-end:none;paint-order:fill markers stroke;color-rendering:auto;image-rendering:auto;shape-rendering:auto;text-rendering:auto;enable-background:accumulate" sodipodi:type="star"/>
    </g>
  </g>
</svg>