<?xml version="1.0" encoding="UTF-8" standalone="yes"?>
<svg xmlns:dc="http://purl.org/dc/elements/1.1/" xmlns:cc="http://creativecommons.org/ns#" xmlns:rdf="http://www.w3.org/1999/02/22-rdf-syntax-ns#" xmlns:svg="http://www.w3.org/2000/svg" xmlns="http://www.w3.org/2000/svg" xmlns:xlink="http://www.w3.org/1999/xlink" xmlns:sodipodi="http://sodipodi.sourceforge.net/DTD/sodipodi-0.dtd" xmlns:inkscape="http://www.inkscape.org/namespaces/inkscape" height="48" viewBox="0 0 48 48" width="48" id="svg2" version="1.1" inkscape:version="0.92.1 r" sodipodi:docname="blender.svg" enable-background="new" folder="48">
  <title id="title4675">Template icons dark</title>
  <metadata id="metadata24">
    <rdf:RDF>
      <cc:Work rdf:about="">
        <dc:format>image/svg+xml</dc:format>
        <dc:type rdf:resource="http://purl.org/dc/dcmitype/StillImage"/>
        <dc:title>Template icons dark</dc:title>
        <dc:date>17/05/13</dc:date>
        <dc:creator>
          <cc:Agent>
            <dc:title>wfpaisa</dc:title>
          </cc:Agent>
        </dc:creator>
        <dc:rights>
          <cc:Agent>
            <dc:title>License: GPLv3</dc:title>
          </cc:Agent>
        </dc:rights>
        <dc:language>es-en</dc:language>
        <dc:subject>
          <rdf:Bag>
            <rdf:li>plane-icon-theme</rdf:li>
          </rdf:Bag>
        </dc:subject>
        <dc:description>Template for create set icons</dc:description>
        <cc:license rdf:resource="https://www.gnu.org/licenses/gpl-3.0.en.html"/>
      </cc:Work>
    </rdf:RDF>
  </metadata>
  <defs id="defs22">
    <linearGradient inkscape:collect="always" xlink:href="#linearGradient8666" id="linearGradient8856-9" gradientUnits="userSpaceOnUse" x1="213.2054" y1="165.99998" x2="213.2054" y2="261.88123" gradientTransform="matrix(0.0851244,0,0,0.0851244,-58.753023,-59.09931)"/>
    <linearGradient inkscape:collect="always" id="linearGradient8666">
      <stop style="stop-color:#fbfbfb;stop-opacity:1" offset="0" id="stop8662"/>
      <stop style="stop-color:#cfcfcf;stop-opacity:1" offset="1" id="stop8664"/>
    </linearGradient>
    <linearGradient inkscape:collect="always" xlink:href="#linearGradient8633" id="linearGradient8858-4" gradientUnits="userSpaceOnUse" gradientTransform="matrix(0.49771961,0,0,0.49771961,-55.728848,-55.747898)" x1="2.133321" y1="1.424881" x2="45.916695" y2="45.208263"/>
    <linearGradient id="linearGradient8633">
      <stop id="stop8629" offset="0" style="stop-color:#ff8545;stop-opacity:1"/>
      <stop style="stop-color:#f47200;stop-opacity:1" offset="0.52534759" id="stop8672"/>
      <stop id="stop8631" offset="1" style="stop-color:#ffa04d;stop-opacity:1"/>
    </linearGradient>
    <linearGradient inkscape:collect="always" xlink:href="#linearGradient8633" id="linearGradient8858-9" gradientUnits="userSpaceOnUse" gradientTransform="matrix(1.0443701,0,0,1.0443701,-1.0115932,-0.51698865)" x1="2.133321" y1="1.424881" x2="45.916695" y2="45.208263"/>
    <linearGradient inkscape:collect="always" xlink:href="#linearGradient8666" id="linearGradient8856-4" gradientUnits="userSpaceOnUse" x1="213.2054" y1="165.99998" x2="213.2054" y2="261.88123" gradientTransform="matrix(0.17861737,0,0,0.17861737,-7.3572502,-7.5492915)"/>
    <linearGradient inkscape:collect="always" xlink:href="#linearGradient8782" id="linearGradient8784-0" x1="214" y1="191.32283" x2="214" y2="237.51836" gradientUnits="userSpaceOnUse" gradientTransform="matrix(0.18867359,0,0,0.18867359,-9.501418,-9.6916253)"/>
    <linearGradient inkscape:collect="always" id="linearGradient8782">
      <stop style="stop-color:#2c60d3;stop-opacity:0.609375" offset="0" id="stop8778"/>
      <stop style="stop-color:#2c60d3;stop-opacity:0;" offset="1" id="stop8780"/>
    </linearGradient>
    <linearGradient inkscape:collect="always" xlink:href="#linearGradient8807" id="linearGradient8809-7" x1="164.30165" y1="206.35252" x2="230" y2="226.22047" gradientUnits="userSpaceOnUse" gradientTransform="matrix(0.17861737,0,0,0.17861737,-7.3266944,-7.4270692)"/>
    <linearGradient id="linearGradient8807">
      <stop style="stop-color:#000000;stop-opacity:0.28947368;" offset="0" id="stop8803"/>
      <stop style="stop-color:#c1c1c1;stop-opacity:0;" offset="1" id="stop8805"/>
    </linearGradient>
    <linearGradient inkscape:collect="always" xlink:href="#linearGradient8807" id="linearGradient8813-2" gradientUnits="userSpaceOnUse" x1="164.30165" y1="206.35252" x2="230" y2="226.22047" gradientTransform="matrix(-0.12630154,-0.12630154,0.12630154,-0.12630154,30.59004,84.501919)"/>
    <linearGradient inkscape:collect="always" xlink:href="#linearGradient8807" id="linearGradient8817-7" gradientUnits="userSpaceOnUse" gradientTransform="matrix(-0.12630154,0.12630154,-0.12630154,-0.12630154,84.594033,30.596683)" x1="164.30165" y1="206.35252" x2="230" y2="226.22047"/>
    <linearGradient gradientTransform="matrix(0.18280347,0,0,0.18280347,-7.8761359,-8.0701603)" inkscape:collect="always" xlink:href="#linearGradient8930" id="linearGradient8884-2" x1="153.6378" y1="71.999992" x2="250.77165" y2="141.16536" gradientUnits="userSpaceOnUse"/>
    <linearGradient id="linearGradient8930">
      <stop id="stop8926" offset="0" style="stop-color:#da6607;stop-opacity:0.35526314;"/>
      <stop id="stop8928" offset="1" style="stop-color:#ffffff;stop-opacity:0.24342105;"/>
    </linearGradient>
    <linearGradient inkscape:collect="always" xlink:href="#linearGradient8971" id="linearGradient8973-1" x1="196" y1="124.12598" x2="156.07875" y2="61.999989" gradientUnits="userSpaceOnUse" gradientTransform="matrix(0.17226839,0,0,0.17226839,-6.0388642,-6.220389)"/>
    <linearGradient inkscape:collect="always" id="linearGradient8971">
      <stop style="stop-color:#763704;stop-opacity:1;" offset="0" id="stop8967"/>
      <stop style="stop-color:#763704;stop-opacity:0;" offset="1" id="stop8969"/>
    </linearGradient>
    <linearGradient inkscape:collect="always" xlink:href="#linearGradient8971" id="linearGradient8977-1" gradientUnits="userSpaceOnUse" x1="196" y1="124.12598" x2="156.07875" y2="61.999989" gradientTransform="matrix(0.12181216,-0.12181216,0.12181216,0.12181216,-21.499412,30.416447)"/>
    <linearGradient inkscape:collect="always" xlink:href="#linearGradient8971" id="linearGradient8981-5" gradientUnits="userSpaceOnUse" gradientTransform="matrix(0,-0.17226839,0.17226839,0,-6.0223935,66.782322)" x1="196" y1="124.12598" x2="156.07875" y2="61.999989"/>
    <linearGradient inkscape:collect="always" xlink:href="#linearGradient8633" id="linearGradient8858-4-5" gradientUnits="userSpaceOnUse" gradientTransform="matrix(0.69227462,0,0,0.69227462,-32.429545,-33.818398)" x1="2.133321" y1="1.424881" x2="45.916695" y2="45.208263"/>
    <linearGradient inkscape:collect="always" xlink:href="#linearGradient8666" id="linearGradient8856-9-1" gradientUnits="userSpaceOnUse" x1="213.2054" y1="165.99998" x2="213.2054" y2="261.88123" gradientTransform="matrix(0.11839891,0,0,0.11839891,-36.635848,-38.479853)"/>
    <linearGradient inkscape:collect="always" xlink:href="#linearGradient8633" id="linearGradient8858-9-0" gradientUnits="userSpaceOnUse" gradientTransform="matrix(1.3924931,0,0,1.3924931,46.454761,47.434085)" x1="2.133321" y1="1.424881" x2="45.916695" y2="45.208263"/>
    <linearGradient inkscape:collect="always" xlink:href="#linearGradient8666" id="linearGradient8856-4-1" gradientUnits="userSpaceOnUse" x1="213.2054" y1="165.99998" x2="213.2054" y2="261.88123" gradientTransform="matrix(0.23815643,0,0,0.23815643,37.993887,38.057684)"/>
    <linearGradient inkscape:collect="always" xlink:href="#linearGradient8782" id="linearGradient8784-0-9" x1="214" y1="191.32283" x2="214" y2="237.51836" gradientUnits="userSpaceOnUse" gradientTransform="matrix(0.25156472,0,0,0.25156472,35.134997,35.201239)"/>
    <linearGradient inkscape:collect="always" xlink:href="#linearGradient8807" id="linearGradient8809-7-2" x1="164.30165" y1="206.35252" x2="230" y2="226.22047" gradientUnits="userSpaceOnUse" gradientTransform="matrix(0.23815643,0,0,0.23815643,38.034629,38.220646)"/>
    <linearGradient inkscape:collect="always" xlink:href="#linearGradient8807" id="linearGradient8813-2-5" gradientUnits="userSpaceOnUse" x1="164.30165" y1="206.35252" x2="230" y2="226.22047" gradientTransform="matrix(-0.16840201,-0.16840201,0.16840201,-0.16840201,88.590261,160.7926)"/>
    <linearGradient inkscape:collect="always" xlink:href="#linearGradient8807" id="linearGradient8817-7-9" gradientUnits="userSpaceOnUse" gradientTransform="matrix(-0.16840201,0.16840201,-0.16840201,-0.16840201,160.59557,88.91897)" x1="164.30165" y1="206.35252" x2="230" y2="226.22047"/>
    <linearGradient gradientTransform="matrix(0.2437379,0,0,0.2437379,37.302041,37.363192)" inkscape:collect="always" xlink:href="#linearGradient8930" id="linearGradient8884-2-2" x1="153.6378" y1="71.999992" x2="250.77165" y2="141.16536" gradientUnits="userSpaceOnUse"/>
    <linearGradient inkscape:collect="always" xlink:href="#linearGradient8971" id="linearGradient8973-1-9" x1="196" y1="124.12598" x2="156.07875" y2="61.999989" gradientUnits="userSpaceOnUse" gradientTransform="matrix(0.22969113,0,0,0.22969113,39.751735,39.829553)"/>
    <linearGradient inkscape:collect="always" xlink:href="#linearGradient8971" id="linearGradient8977-1-6" gradientUnits="userSpaceOnUse" x1="196" y1="124.12598" x2="156.07875" y2="61.999989" gradientTransform="matrix(0.16241617,-0.16241617,0.16241617,0.16241617,19.137676,88.678655)"/>
    <linearGradient inkscape:collect="always" xlink:href="#linearGradient8971" id="linearGradient8981-5-1" gradientUnits="userSpaceOnUse" gradientTransform="matrix(0,-0.22969113,0.22969113,0,39.773696,137.16648)" x1="196" y1="124.12598" x2="156.07875" y2="61.999989"/>
    <linearGradient inkscape:collect="always" xlink:href="#linearGradient8633" id="linearGradient8858-9-0-5" gradientUnits="userSpaceOnUse" gradientTransform="matrix(2.0887397,0,0,2.0887397,109.9948,110.85959)" x1="2.133321" y1="1.424881" x2="45.916695" y2="45.208263"/>
    <linearGradient inkscape:collect="always" xlink:href="#linearGradient8666" id="linearGradient8856-4-1-5" gradientUnits="userSpaceOnUse" x1="213.2054" y1="165.99998" x2="213.2054" y2="261.88123" gradientTransform="matrix(0.35723465,0,0,0.35723465,97.303485,96.794988)"/>
    <linearGradient inkscape:collect="always" xlink:href="#linearGradient8782" id="linearGradient8784-0-9-3" x1="214" y1="191.32283" x2="214" y2="237.51836" gradientUnits="userSpaceOnUse" gradientTransform="matrix(0.37734708,0,0,0.37734708,93.01515,92.510328)"/>
    <linearGradient inkscape:collect="always" xlink:href="#linearGradient8807" id="linearGradient8809-7-2-5" x1="164.30165" y1="206.35252" x2="230" y2="226.22047" gradientUnits="userSpaceOnUse" gradientTransform="matrix(0.35723465,0,0,0.35723465,97.364595,97.039428)"/>
    <linearGradient inkscape:collect="always" xlink:href="#linearGradient8807" id="linearGradient8813-2-5-4" gradientUnits="userSpaceOnUse" x1="164.30165" y1="206.35252" x2="230" y2="226.22047" gradientTransform="matrix(-0.25260302,-0.25260302,0.25260302,-0.25260302,173.19805,280.89737)"/>
    <linearGradient inkscape:collect="always" xlink:href="#linearGradient8807" id="linearGradient8817-7-9-7" gradientUnits="userSpaceOnUse" gradientTransform="matrix(-0.25260302,0.25260302,-0.25260302,-0.25260302,281.206,173.08692)" x1="164.30165" y1="206.35252" x2="230" y2="226.22047"/>
    <linearGradient gradientTransform="matrix(0.36560685,0,0,0.36560685,96.265725,95.753253)" inkscape:collect="always" xlink:href="#linearGradient8930" id="linearGradient8884-2-2-4" x1="153.6378" y1="71.999992" x2="250.77165" y2="141.16536" gradientUnits="userSpaceOnUse"/>
    <linearGradient inkscape:collect="always" xlink:href="#linearGradient8971" id="linearGradient8973-1-9-0" x1="196" y1="124.12598" x2="156.07875" y2="61.999989" gradientUnits="userSpaceOnUse" gradientTransform="matrix(0.3445367,0,0,0.3445367,99.94026,99.45279)"/>
    <linearGradient inkscape:collect="always" xlink:href="#linearGradient8971" id="linearGradient8977-1-6-6" gradientUnits="userSpaceOnUse" x1="196" y1="124.12598" x2="156.07875" y2="61.999989" gradientTransform="matrix(0.24362425,-0.24362425,0.24362425,0.24362425,69.019172,172.72644)"/>
    <linearGradient inkscape:collect="always" xlink:href="#linearGradient8971" id="linearGradient8981-5-1-8" gradientUnits="userSpaceOnUse" gradientTransform="matrix(0,-0.3445367,0.3445367,0,99.9732,245.45819)" x1="196" y1="124.12598" x2="156.07875" y2="61.999989"/>
    <linearGradient inkscape:collect="always" xlink:href="#linearGradient8633" id="linearGradient8858-9-0-7" gradientUnits="userSpaceOnUse" gradientTransform="matrix(2.7849862,0,0,2.7849862,204.97078,206.15322)" x1="2.133321" y1="1.424881" x2="45.916695" y2="45.208263"/>
    <linearGradient inkscape:collect="always" xlink:href="#linearGradient8666" id="linearGradient8856-4-1-2" gradientUnits="userSpaceOnUse" x1="213.2054" y1="165.99998" x2="213.2054" y2="261.88123" gradientTransform="matrix(0.47631286,0,0,0.47631286,188.04904,187.4004)"/>
    <linearGradient inkscape:collect="always" xlink:href="#linearGradient8782" id="linearGradient8784-0-9-0" x1="214" y1="191.32283" x2="214" y2="237.51836" gradientUnits="userSpaceOnUse" gradientTransform="matrix(0.50312944,0,0,0.50312944,182.33126,181.68752)"/>
    <linearGradient inkscape:collect="always" xlink:href="#linearGradient8807" id="linearGradient8809-7-2-59" x1="164.30165" y1="206.35252" x2="230" y2="226.22047" gradientUnits="userSpaceOnUse" gradientTransform="matrix(0.47631286,0,0,0.47631286,188.13052,187.72634)"/>
    <linearGradient inkscape:collect="always" xlink:href="#linearGradient8807" id="linearGradient8813-2-5-0" gradientUnits="userSpaceOnUse" x1="164.30165" y1="206.35252" x2="230" y2="226.22047" gradientTransform="matrix(-0.33680402,-0.33680402,0.33680402,-0.33680402,289.24178,432.87024)"/>
    <linearGradient inkscape:collect="always" xlink:href="#linearGradient8807" id="linearGradient8817-7-9-9" gradientUnits="userSpaceOnUse" gradientTransform="matrix(-0.33680402,0.33680402,-0.33680402,-0.33680402,433.2524,289.12298)" x1="164.30165" y1="206.35252" x2="230" y2="226.22047"/>
    <linearGradient gradientTransform="matrix(0.4874758,0,0,0.4874758,186.66534,186.01142)" inkscape:collect="always" xlink:href="#linearGradient8930" id="linearGradient8884-2-2-1" x1="153.6378" y1="71.999992" x2="250.77165" y2="141.16536" gradientUnits="userSpaceOnUse"/>
    <linearGradient inkscape:collect="always" xlink:href="#linearGradient8971" id="linearGradient8973-1-9-1" x1="196" y1="124.12598" x2="156.07875" y2="61.999989" gradientUnits="userSpaceOnUse" gradientTransform="matrix(0.45938226,0,0,0.45938226,191.56472,190.94414)"/>
    <linearGradient inkscape:collect="always" xlink:href="#linearGradient8971" id="linearGradient8977-1-6-9" gradientUnits="userSpaceOnUse" x1="196" y1="124.12598" x2="156.07875" y2="61.999989" gradientTransform="matrix(0.32483234,-0.32483234,0.32483234,0.32483234,150.33662,288.64236)"/>
    <linearGradient inkscape:collect="always" xlink:href="#linearGradient8971" id="linearGradient8981-5-1-7" gradientUnits="userSpaceOnUse" gradientTransform="matrix(0,-0.45938226,0.45938226,0,191.60866,385.618)" x1="196" y1="124.12598" x2="156.07875" y2="61.999989"/>
    <filter inkscape:collect="always" style="color-interpolation-filters:sRGB" id="filter8868-6" x="-0.011991367" width="1.0239826" y="-0.012008646" height="1.0240173">
      <feGaussianBlur inkscape:collect="always" stdDeviation="1.2464968" id="feGaussianBlur8870-8"/>
    </filter>
    <filter inkscape:collect="always" style="color-interpolation-filters:sRGB" id="filter8868-6-3" x="-0.011991367" width="1.0239826" y="-0.012008646" height="1.0240173">
      <feGaussianBlur inkscape:collect="always" stdDeviation="1.2464968" id="feGaussianBlur8870-8-6"/>
    </filter>
    <filter inkscape:collect="always" style="color-interpolation-filters:sRGB" id="filter8868-6-3-1" x="-0.011991367" width="1.0239826" y="-0.012008646" height="1.0240173">
      <feGaussianBlur inkscape:collect="always" stdDeviation="1.2464968" id="feGaussianBlur8870-8-6-5"/>
    </filter>
    <filter inkscape:collect="always" style="color-interpolation-filters:sRGB" id="filter8868-6-3-7" x="-0.011991367" width="1.0239826" y="-0.012008646" height="1.0240173">
      <feGaussianBlur inkscape:collect="always" stdDeviation="1.2464968" id="feGaussianBlur8870-8-6-1"/>
    </filter>
  </defs>
  <sodipodi:namedview pagecolor="#383c4a" bordercolor="#ffffff" borderopacity="0.62745098" objecttolerance="4" gridtolerance="10" guidetolerance="4" inkscape:pageopacity="0" inkscape:pageshadow="2" inkscape:window-width="640" inkscape:window-height="480" id="namedview20" showgrid="true" inkscape:zoom="16.386532" inkscape:cx="-50.133191" inkscape:cy="102.20575" inkscape:current-layer="layer6" inkscape:snap-smooth-nodes="false" showguides="true" borderlayer="true" inkscape:showpageshadow="false" inkscape:guide-bbox="true" guidecolor="#bd4fff" guideopacity="0.78431373" inkscape:snap-nodes="true" inkscape:lockguides="false" fit-margin-top="0" fit-margin-left="0" fit-margin-right="0" fit-margin-bottom="0" guidehicolor="#ff0101" guidehiopacity="0.78431373" inkscape:snap-page="true" inkscape:object-nodes="true" inkscape:snap-bbox="true" inkscape:snap-global="true" inkscape:snap-object-midpoints="false" inkscape:snap-bbox-edge-midpoints="false">
    <inkscape:grid type="xygrid" id="grid4171" empspacing="4" dotted="false" originx="2.7755576e-17" originy="0" spacingx="1" spacingy="1" color="#5a5a5a" opacity="0.23529412" empcolor="#5a5a5a" empopacity="0.47058824" visible="true"/>
    <inkscape:grid type="axonomgrid" id="grid4699" units="mm" empspacing="4" color="#5a5a5a" opacity="0.23529412" empcolor="#5a5a5a" empopacity="0.47058824" gridanglex="45" gridanglez="45" spacingy="3.7795276" visible="false" originx="1.3228346" originy="1.3228346"/>
    <sodipodi:guide position="48,0" orientation="1,0" id="guide4568" inkscape:locked="false" inkscape:label="" inkscape:color="rgb(189,79,255)"/>
    <sodipodi:guide position="111.99996,-3.9999999e-05" orientation="0,1" id="guide4570" inkscape:locked="false" inkscape:label="" inkscape:color="rgb(189,79,255)"/>
    <sodipodi:guide position="0,0" orientation="1,0" id="guide4572" inkscape:locked="false" inkscape:label="" inkscape:color="rgb(189,79,255)"/>
    <sodipodi:guide position="0,48" orientation="0,1" id="guide4574" inkscape:locked="false" inkscape:label="" inkscape:color="rgb(189,79,255)"/>
    <sodipodi:guide position="0,80" orientation="0,1" id="guide4576" inkscape:locked="false" inkscape:label="" inkscape:color="rgb(189,79,255)"/>
    <sodipodi:guide position="-32,48" orientation="1,0" id="guide4578" inkscape:locked="false" inkscape:label="" inkscape:color="rgb(189,79,255)"/>
    <sodipodi:guide position="-32,104" orientation="0,1" id="guide4580" inkscape:locked="false" inkscape:label="" inkscape:color="rgb(189,79,255)"/>
    <sodipodi:guide position="-56,80" orientation="1,0" id="guide4582" inkscape:locked="false" inkscape:label="" inkscape:color="rgb(189,79,255)"/>
    <sodipodi:guide position="48,-64" orientation="0,1" id="guide4584" inkscape:locked="false" inkscape:label="" inkscape:color="rgb(189,79,255)"/>
    <sodipodi:guide position="0,0" orientation="-0.70710678,0.70710678" id="guide4588" inkscape:locked="false" inkscape:label="" inkscape:color="rgb(189,79,255)"/>
    <sodipodi:guide position="-56,80" orientation="-0.70710678,0.70710678" id="guide4573" inkscape:locked="false" inkscape:label="" inkscape:color="rgb(189,79,255)"/>
    <sodipodi:guide position="-32,48" orientation="-0.70710678,0.70710678" id="guide4575" inkscape:locked="false" inkscape:label="" inkscape:color="rgb(189,79,255)"/>
    <sodipodi:guide position="48,-64" orientation="-0.70710678,0.70710678" id="guide4577" inkscape:locked="false" inkscape:label="" inkscape:color="rgb(189,79,255)"/>
    <sodipodi:guide position="47.999962,0" orientation="0.70710678,0.70710678" id="guide4697" inkscape:locked="false" inkscape:label="" inkscape:color="rgb(189,79,255)"/>
    <sodipodi:guide position="207.99995,-288" orientation="0,1" id="guide7833" inkscape:locked="false"/>
    <sodipodi:guide position="335.99994,-288" orientation="1,0" id="guide7835" inkscape:locked="false" inkscape:label="" inkscape:color="rgb(189,79,255)"/>
    <sodipodi:guide position="111.99996,-64" orientation="1,0" id="guide7915" inkscape:locked="false"/>
    <sodipodi:guide position="111.99996,-160" orientation="0,1" id="guide7917" inkscape:locked="false"/>
    <sodipodi:guide position="207.99996,-160" orientation="1,0" id="guide7919" inkscape:locked="false"/>
    <sodipodi:guide position="111.99996,-160" orientation="-0.70710678,0.70710678" id="guide7921" inkscape:locked="false" inkscape:label="" inkscape:color="rgb(189,79,255)"/>
    <sodipodi:guide position="207.99996,-288" orientation="-0.70710678,0.70710678" id="guide7923" inkscape:locked="false" inkscape:label="" inkscape:color="rgb(189,79,255)"/>
    <sodipodi:guide position="-72,104" orientation="1,0" id="guide7824" inkscape:locked="false"/>
    <sodipodi:guide position="-56,120" orientation="0,1" id="guide7826" inkscape:locked="false"/>
    <sodipodi:guide position="-72,104" orientation="-0.70710678,0.70710678" id="guide7828" inkscape:locked="false" inkscape:label="" inkscape:color="rgb(189,79,255)"/>
  </sodipodi:namedview>
  <g inkscape:groupmode="layer" id="layer3" inkscape:label="icon_48" style="display:inline" transform="translate(6.8969723e-7,-4.5367432e-7)">
    <g inkscape:groupmode="layer" id="layer9" inkscape:label="frame" style="display:none">
      <rect inkscape:label="frame_48" y="4.5367432e-07" x="-6.8969723e-07" height="48" width="48" id="frame_48" style="color:#000000;clip-rule:nonzero;display:block;overflow:visible;visibility:visible;opacity:1;isolation:auto;mix-blend-mode:normal;color-interpolation:sRGB;color-interpolation-filters:linearRGB;solid-color:#000000;solid-opacity:1;vector-effect:none;fill:#000000;fill-opacity:1;fill-rule:nonzero;stroke:#ff24f7;stroke-width:0;stroke-linecap:square;stroke-linejoin:miter;stroke-miterlimit:4;stroke-dasharray:none;stroke-dashoffset:0;stroke-opacity:0.99481865;marker:none;marker-start:none;marker-mid:none;marker-end:none;paint-order:normal;color-rendering:auto;image-rendering:auto;shape-rendering:auto;text-rendering:auto;enable-background:accumulate"/>
      <text xml:space="preserve" style="font-size:18.66666603px;line-height:1000%;font-family:sans-serif;letter-spacing:0px;word-spacing:0px;display:inline;opacity:1;fill:#ffffff;fill-opacity:1;stroke:none;stroke-width:0.11166908px;stroke-linecap:butt;stroke-linejoin:miter;stroke-opacity:1" x="12.301435" y="30.794922" id="txt_48" inkscape:label="txt_48">
        <tspan sodipodi:role="line" x="12.301435" y="30.794922" style="font-size:18.66666603px;fill:#ffffff;fill-opacity:1;stroke:none;stroke-width:0.11166908px" id="tspan5049-1">48</tspan>
      </text>
      <text xml:space="preserve" style="font-size:2.66666675px;line-height:1000%;font-family:sans-serif;letter-spacing:0px;word-spacing:0px;display:inline;opacity:1;fill:#ffffff;fill-opacity:0.44791667;stroke:none;stroke-width:0.0588377px;stroke-linecap:butt;stroke-linejoin:miter;stroke-opacity:1" x="25.824219" y="45.962238" id="txt_scalable_32-64" inkscape:label="txt_scalable_32-64">
        <tspan sodipodi:role="line" x="25.824219" y="45.962238" style="font-size:2.66666675px;fill:#ffffff;fill-opacity:0.44791667;stroke:none;stroke-width:0.0588377px" id="tspan5049-1-6">Scalable:32-64</tspan>
      </text>
    </g>
    <g inkscape:groupmode="layer" id="layer10" inkscape:label="icon" style="display:inline">
      <path sodipodi:nodetypes="scccsscccsccccccsccccc" inkscape:connector-curvature="0" id="path8866-9" d="m 164.15165,51.022459 c -4.39592,0 -8.79217,1.683765 -12.16054,5.052123 -6.7367,6.736779 -6.7367,17.584297 0,24.321065 L 199.76788,128.1724 H 75.214104 c -9.527177,0 -17.196172,7.66901 -17.196172,17.19617 0,9.52712 7.668995,17.19618 17.196172,17.19618 17.90524,-0.0494 43.298866,-0.0556 67.616436,-0.0495 l -88.121625,88.12161 c -6.736779,6.73671 -6.736716,17.58434 0,24.32108 6.736716,6.73671 17.584353,6.73671 24.321066,0 12.934463,-13.00792 31.461609,-31.5437 49.031539,-49.10366 5.84024,42.53217 42.15746,74.2395 85.08871,74.28803 47.48813,-1.4e-4 85.98482,-38.49685 85.98498,-85.98497 -0.0238,-24.81357 -10.76598,-48.40712 -29.46592,-64.71742 -6.36599,-6.34936 -63.54227,-63.379025 -93.35917,-93.365366 -3.36835,-3.368359 -7.76256,-5.052123 -12.15847,-5.052123 z m 50.00939,142.675061 c 11.08341,1.1e-4 20.06828,8.98497 20.06838,20.06839 -1e-4,11.0834 -8.98497,20.06827 -20.06838,20.06837 -11.08342,-1e-4 -20.06828,-8.98497 -20.06838,-20.06837 1e-4,-11.08342 8.98496,-20.06828 20.06838,-20.06839 z" style="display:inline;opacity:1;fill:#000000;fill-opacity:0.203125;stroke:none;stroke-width:0.53740788;stroke-linecap:round;stroke-linejoin:round;stroke-miterlimit:4;stroke-dasharray:none;stroke-opacity:1;filter:url(#filter8868-6);enable-background:new" transform="matrix(0.17226838,0,0,0.17226838,-6.0388629,-6.2203881)"/>
      <path style="display:inline;opacity:1;fill:url(#linearGradient8858-9);fill-opacity:1;stroke:none;stroke-width:0.09099224;stroke-linecap:round;stroke-linejoin:round;stroke-miterlimit:4;stroke-dasharray:none;stroke-opacity:1;enable-background:new" d="m 22.269516,2.9368045 c -0.744303,0 -1.488663,0.2850899 -2.058985,0.8554099 -1.140637,1.1406504 -1.140637,2.9773187 0,4.1179674 l 8.089415,8.0894092 H 7.2108815 c -1.6131119,0 -2.9116023,1.298493 -2.9116023,2.911602 0,1.613103 1.2984904,2.911603 2.9116023,2.911603 3.0316615,-0.0084 7.3312325,-0.0094 11.4486105,-0.0084 L 3.7390068,36.734902 c -1.1406507,1.140639 -1.1406401,2.977327 0,4.117969 1.1406399,1.140639 2.9773286,1.140639 4.117967,0 2.1900242,-2.202459 5.3269862,-5.340882 8.3018732,-8.314078 0.988852,7.201414 7.137971,12.570001 14.406956,12.578219 8.040544,-2.5e-5 14.558685,-6.518167 14.558712,-14.558709 -0.004,-4.201356 -1.822863,-8.196145 -4.989079,-10.957753 C 39.057565,18.525496 29.376657,8.8694127 24.328151,3.7922181 23.757832,3.2218978 23.013817,2.9368081 22.269516,2.9368081 Z M 30.736951,27.0941 c 1.87661,1.9e-5 3.3979,1.521306 3.397916,3.397917 -1.6e-5,1.876608 -1.521306,3.397899 -3.397916,3.397916 -1.876611,-1.7e-5 -3.397899,-1.521308 -3.397915,-3.397916 1.6e-5,-1.876611 1.521304,-3.397898 3.397915,-3.397917 z" id="circle4567-3-4" inkscape:connector-curvature="0" sodipodi:nodetypes="scccsscccsccccccsccccc"/>
      <path inkscape:connector-curvature="0" id="path8852-9" d="M 30.724887,19.318051 A 11.18521,11.18521 0 0 0 19.539801,30.503134 11.18521,11.18521 0 0 0 30.724887,41.68822 11.18521,11.18521 0 0 0 41.909969,30.503134 11.18521,11.18521 0 0 0 30.724887,19.318051 Z m 0,6.810488 a 4.3745291,4.3745291 0 0 1 4.374594,4.374595 4.3745291,4.3745291 0 0 1 -4.374594,4.374602 4.3745291,4.3745291 0 0 1 -4.3746,-4.374602 4.3745291,4.3745291 0 0 1 4.3746,-4.374595 z" style="display:inline;opacity:1;fill:#000000;fill-opacity:0.09895833;stroke:none;stroke-width:0.11651263;stroke-linecap:round;stroke-linejoin:round;stroke-miterlimit:4;stroke-dasharray:none;stroke-opacity:1;enable-background:new"/>
      <path style="display:inline;opacity:1;fill:url(#linearGradient8856-4);fill-opacity:1;stroke:none;stroke-width:0.09099224;stroke-linecap:round;stroke-linejoin:round;stroke-miterlimit:4;stroke-dasharray:none;stroke-opacity:1;enable-background:new" d="m 30.724887,21.756863 a 8.7352549,8.7352549 0 0 0 -8.73516,8.735154 8.7352549,8.7352549 0 0 0 8.73516,8.735158 8.7352549,8.7352549 0 0 0 8.735156,-8.735158 8.7352549,8.7352549 0 0 0 -8.735156,-8.735154 z m 0,5.318748 a 3.4163529,3.4163529 0 0 1 3.416402,3.416406 3.4163529,3.4163529 0 0 1 -3.416402,3.416407 3.4163529,3.4163529 0 0 1 -3.416408,-3.416407 3.4163529,3.4163529 0 0 1 3.416408,-3.416406 z" id="circle4575-7-0" inkscape:connector-curvature="0"/>
      <path inkscape:connector-curvature="0" style="display:inline;opacity:0.88399999;fill:#f5eece;fill-opacity:0.671875;stroke:none;stroke-width:0.09099224;stroke-linecap:round;stroke-linejoin:round;stroke-miterlimit:4;stroke-dasharray:none;stroke-opacity:1;enable-background:new" d="m 22.214142,3.0521183 c -0.744288,0 -1.488551,0.2852178 -2.058867,0.8555374 -0.593569,0.5935677 -0.877607,1.3755504 -0.85341,2.1498682 0.02235,-0.7136609 0.306335,-1.4208141 0.85341,-1.9678867 0.570316,-0.5703195 1.314579,-0.8555374 2.058867,-0.8555374 0.744306,0 1.488564,0.2852179 2.058883,0.8555374 C 29.32152,9.1668317 39.002214,18.822889 40.080076,19.89794 a 14.558759,14.558759 0 0 1 4.985383,10.883173 14.558759,14.558759 0 0 0 0.0042,-0.107526 14.558759,14.558759 0 0 0 -4.98911,-10.957633 C 39.00262,18.640894 29.321927,8.984851 24.273428,3.9076557 23.703111,3.3373361 22.958851,3.0521183 22.214551,3.0521183 Z M 7.1558185,16.114833 c -1.6131147,0 -2.9117571,1.298633 -2.9117571,2.911746 0,0.03049 0.00105,0.06067 0.00208,0.09097 0.047833,-1.570586 1.3268406,-2.82076 2.9094459,-2.82076 H 28.244466 L 28.062484,16.114806 Z M 18.422327,22.111962 3.6838928,36.850394 c -0.5935679,0.593566 -0.8776052,1.375549 -0.8534073,2.149875 0.02235,-0.71367 0.3063349,-1.420811 0.8534073,-1.967893 L 18.604311,22.111962 c -0.0611,-9e-6 -0.120801,2e-5 -0.181984,0 z" id="path4672-5-9"/>
      <path inkscape:connector-curvature="0" style="display:inline;opacity:1;fill:#000000;fill-opacity:0.55208333;stroke:none;stroke-width:0.09099224;stroke-linecap:round;stroke-linejoin:round;stroke-miterlimit:4;stroke-dasharray:none;stroke-opacity:1;enable-background:new" d="m 19.395833,5.8467749 c -0.02423,0.7743175 0.259838,1.5563 0.853407,2.1498683 l 7.907437,7.9074338 h 0.181991 L 20.24924,7.8146599 C 19.702166,7.2675891 19.41814,6.5604355 19.395833,5.8467749 Z M 4.3403489,18.90682 c -9.14e-4,0.03028 -0.00208,0.06046 -0.00208,0.09097 0,1.613112 1.2986437,2.911752 2.9117563,2.911752 2.9866688,-0.0084 7.2052268,-0.0094 11.2665068,-0.0084 l 0.181983,-0.181983 c -4.117375,-9.13e-4 -8.41683,-1.72e-4 -11.4484898,0.0084 -1.5826061,0 -2.861595,-1.250175 -2.9094481,-2.82076 z M 45.159428,30.570352 A 14.558759,14.558759 0 0 1 30.604409,45.021592 14.558759,14.558759 0 0 1 16.197596,32.443515 c -2.974892,2.973194 -6.111948,6.111423 -8.3019715,8.313884 -1.1406397,1.140641 -2.9771122,1.140641 -4.1177522,0 C 3.2308,40.210327 2.9467624,39.503173 2.9244655,38.789513 c -0.024228,0.774316 0.2598389,1.5563 0.8534068,2.149866 1.14064,1.140641 2.9771125,1.140641 4.1177522,0 2.1900235,-2.202462 5.3270795,-5.34069 8.3019715,-8.313873 a 14.558759,14.558759 0 0 0 14.406813,12.578069 14.558759,14.558759 0 0 0 14.558759,-14.558761 14.558759,14.558759 0 0 0 -0.0042,-0.07446 z" id="path4677-2-1"/>
      <path style="display:inline;opacity:1;fill:#000000;fill-opacity:0.57291667;stroke:none;stroke-width:0.09099224;stroke-linecap:round;stroke-linejoin:round;stroke-miterlimit:4;stroke-dasharray:none;stroke-opacity:1;enable-background:new" d="m 30.724887,21.756863 a 8.7352549,8.7352549 0 0 0 -8.73516,8.735154 8.7352549,8.7352549 0 0 0 0.0074,0.20862 8.7352549,8.7352549 0 0 1 8.727831,-8.58654 8.7352549,8.7352549 0 0 1 8.727827,8.525139 8.7352549,8.7352549 0 0 0 0.0074,-0.147219 8.7352549,8.7352549 0 0 0 -8.735157,-8.735154 z" id="circle8657-7" inkscape:connector-curvature="0"/>
      <path inkscape:connector-curvature="0" id="path8670-7" d="m 30.684035,39.268144 a 8.7352549,8.7352549 0 0 0 8.735158,-8.735152 8.7352549,8.7352549 0 0 0 -0.0074,-0.208622 8.7352549,8.7352549 0 0 1 -8.727829,8.586542 8.7352549,8.7352549 0 0 1 -8.727831,-8.52514 8.7352549,8.7352549 0 0 0 -0.0074,0.14722 8.7352549,8.7352549 0 0 0 8.73516,8.735152 z" style="display:inline;opacity:1;fill:#f4f4f4;fill-opacity:1;stroke:none;stroke-width:0.09099224;stroke-linecap:round;stroke-linejoin:round;stroke-miterlimit:4;stroke-dasharray:none;stroke-opacity:1;enable-background:new"/>
      <path style="display:inline;opacity:1;fill:url(#linearGradient8809-7);fill-opacity:1;stroke:none;stroke-width:0.09099224;stroke-linecap:round;stroke-linejoin:round;stroke-miterlimit:4;stroke-dasharray:none;stroke-opacity:1;enable-background:new" d="m 30.755596,22.061887 a 8.7352549,8.7352549 0 0 0 -8.735156,8.735159 8.7352549,8.7352549 0 0 0 0.656905,3.311747 l 5.315963,-5.31596 a 3.4163529,3.4163529 0 0 1 2.762288,-1.412196 3.4163529,3.4163529 0 0 1 3.416407,3.416409 3.4163529,3.4163529 0 0 1 -0.840062,2.24039 l 3.762827,3.762827 a 8.7352549,8.7352549 0 0 0 2.395984,-6.003217 8.7352549,8.7352549 0 0 0 -8.735156,-8.735159 z" id="path8794-1" inkscape:connector-curvature="0"/>
      <path inkscape:connector-curvature="0" id="path8811-5" d="m 24.513636,36.721839 a 8.7352549,8.7352549 0 0 0 12.353375,0 8.7352549,8.7352549 0 0 0 1.877258,-2.806263 h -7.517902 a 3.4163529,3.4163529 0 0 1 -2.951805,-0.954661 3.4163529,3.4163529 0 0 1 0,-4.831527 3.4163529,3.4163529 0 0 1 2.178207,-0.990184 v -5.321442 a 8.7352549,8.7352549 0 0 0 -5.939133,2.550698 8.7352549,8.7352549 0 0 0 0,12.353379 z" style="display:inline;opacity:1;fill:url(#linearGradient8813-2);fill-opacity:1;stroke:none;stroke-width:0.09099224;stroke-linecap:round;stroke-linejoin:round;stroke-miterlimit:4;stroke-dasharray:none;stroke-opacity:1;enable-background:new"/>
      <path style="display:inline;opacity:1;fill:url(#linearGradient8817-7);fill-opacity:1;stroke:none;stroke-width:0.09099224;stroke-linecap:round;stroke-linejoin:round;stroke-miterlimit:4;stroke-dasharray:none;stroke-opacity:1;enable-background:new" d="m 36.813958,36.67308 a 8.7352549,8.7352549 0 0 0 0,-12.353373 8.7352549,8.7352549 0 0 0 -2.806261,-1.87726 v 7.517903 a 3.4163529,3.4163529 0 0 1 -0.954662,2.951807 3.4163529,3.4163529 0 0 1 -4.83153,0 3.4163529,3.4163529 0 0 1 -0.990183,-2.178207 H 21.90988 a 8.7352549,8.7352549 0 0 0 2.550701,5.93913 8.7352549,8.7352549 0 0 0 12.353377,0 z" id="path8815-9" inkscape:connector-curvature="0"/>
      <path style="display:inline;opacity:1;fill:#000000;fill-opacity:0.484375;stroke:none;stroke-width:0.36618933;stroke-linecap:round;stroke-linejoin:round;stroke-miterlimit:4;stroke-dasharray:none;stroke-opacity:0.203125;enable-background:new" d="M 30.724887,19.318051 A 11.164451,11.164451 0 0 0 19.560405,30.48253 11.164451,11.164451 0 0 0 19.570515,30.766417 11.164451,11.164451 0 0 1 30.724879,19.803629 11.164451,11.164451 0 0 1 41.879239,30.683591 11.164451,11.164451 0 0 0 41.889349,30.48253 11.164451,11.164451 0 0 0 30.724872,19.318051 Z" id="circle8736-7" inkscape:connector-curvature="0"/>
      <path inkscape:connector-curvature="0" id="path8850-7" d="M 30.686589,42.021768 A 11.14649,11.14649 0 0 0 41.833105,30.87525 11.14649,11.14649 0 0 0 41.822992,30.591819 11.14649,11.14649 0 0 1 30.686573,41.53697 11.14649,11.14649 0 0 1 19.550157,30.674513 11.14649,11.14649 0 0 0 19.540047,30.87525 11.14649,11.14649 0 0 0 30.686566,42.021768 Z" style="display:inline;opacity:1;fill:#ffffff;fill-opacity:0.38020833;stroke:none;stroke-width:0.36560026;stroke-linecap:round;stroke-linejoin:round;stroke-miterlimit:4;stroke-dasharray:none;stroke-opacity:0.203125;enable-background:new"/>
      <path sodipodi:nodetypes="ccccccsc" inkscape:connector-curvature="0" id="path8876-3" d="m 22.163442,1.6470402 c -0.789821,0 -1.579702,0.3025246 -2.184902,0.9077224 -1.210393,1.210407 -1.210393,3.1593966 0,4.3698017 l 8.584124,8.5841177 12.55929,3.821175 c 0,0 -11.416734,-11.3874003 -16.773981,-16.7750904 C 23.742776,1.9495684 22.953262,1.6470441 22.163442,1.6470441 Z" style="display:none;opacity:1;fill:url(#linearGradient8884-2);fill-opacity:1;stroke:none;stroke-width:0.09655686;stroke-linecap:round;stroke-linejoin:round;stroke-miterlimit:4;stroke-dasharray:none;stroke-opacity:1;enable-background:new" inkscape:label="x"/>
      <path inkscape:label="x" style="display:inline;opacity:1;fill:url(#linearGradient8973-1);fill-opacity:1;stroke:none;stroke-width:0.09099224;stroke-linecap:round;stroke-linejoin:round;stroke-miterlimit:4;stroke-dasharray:none;stroke-opacity:1;enable-background:new" d="m 22.269516,2.9368045 c -0.744303,0 -1.488663,0.2850899 -2.058985,0.8554099 -1.140637,1.1406504 -1.140637,2.9773187 0,4.1179674 l 8.089415,8.0894092 -6.03043,-13.0627829 z" id="path8965-6" inkscape:connector-curvature="0" sodipodi:nodetypes="cccccc"/>
      <path sodipodi:nodetypes="cccccc" inkscape:connector-curvature="0" id="path8975-5" d="m 4.9927459,16.874516 c -0.5263005,0.526304 -0.851054,1.254233 -0.8510558,2.060789 1.06e-5,1.613115 1.2987315,2.911835 2.9118443,2.91184 l 11.4401606,-1e-6 -13.5009456,-4.972625 z" style="display:inline;opacity:1;fill:url(#linearGradient8977-1);fill-opacity:1;stroke:none;stroke-width:0.09099224;stroke-linecap:round;stroke-linejoin:round;stroke-miterlimit:4;stroke-dasharray:none;stroke-opacity:1;enable-background:new" inkscape:label="x"/>
      <path inkscape:label="x" style="display:inline;opacity:1;fill:url(#linearGradient8981-5);fill-opacity:1;stroke:none;stroke-width:0.09099224;stroke-linecap:round;stroke-linejoin:round;stroke-miterlimit:4;stroke-dasharray:none;stroke-opacity:1;enable-background:new" d="m 3.1348031,38.473942 c 1.2e-6,0.744306 0.2850904,1.488666 0.8554099,2.058987 1.1406514,1.140636 2.9773206,1.140636 4.1179674,-2e-6 L 16.197596,32.443515 3.1348079,38.473942 Z" id="path8979-6" inkscape:connector-curvature="0" sodipodi:nodetypes="cccccc"/>
      <circle style="color:#000000;clip-rule:nonzero;display:block;overflow:visible;visibility:visible;opacity:1;isolation:auto;mix-blend-mode:normal;color-interpolation:sRGB;color-interpolation-filters:linearRGB;solid-color:#000000;solid-opacity:1;vector-effect:none;fill:url(#linearGradient8784-0);fill-opacity:1;fill-rule:nonzero;stroke:none;stroke-width:0.37734717;stroke-linecap:butt;stroke-linejoin:miter;stroke-miterlimit:4;stroke-dasharray:none;stroke-dashoffset:0;stroke-opacity:0.203125;marker:none;marker-start:none;marker-mid:none;marker-end:none;paint-order:fill markers stroke;color-rendering:auto;image-rendering:auto;shape-rendering:auto;text-rendering:auto;enable-background:accumulate" id="path8776-1" cx="30.727116" cy="30.502485" r="4.4717126"/>
      <circle r="7.085146" cy="30.502485" cx="30.727116" id="circle8860-6" style="color:#000000;clip-rule:nonzero;display:block;overflow:visible;visibility:visible;opacity:1;isolation:auto;mix-blend-mode:normal;color-interpolation:sRGB;color-interpolation-filters:linearRGB;solid-color:#000000;solid-opacity:1;vector-effect:none;fill:none;fill-opacity:1;fill-rule:nonzero;stroke:#f4f4f4;stroke-width:0.09836525;stroke-linecap:butt;stroke-linejoin:miter;stroke-miterlimit:4;stroke-dasharray:none;stroke-dashoffset:0;stroke-opacity:1;marker:none;marker-start:none;marker-mid:none;marker-end:none;paint-order:fill markers stroke;color-rendering:auto;image-rendering:auto;shape-rendering:auto;text-rendering:auto;enable-background:accumulate"/>
      <circle style="color:#000000;clip-rule:nonzero;display:block;overflow:visible;visibility:visible;opacity:1;isolation:auto;mix-blend-mode:normal;color-interpolation:sRGB;color-interpolation-filters:linearRGB;solid-color:#000000;solid-opacity:1;vector-effect:none;fill:none;fill-opacity:1;fill-rule:nonzero;stroke:#f4f4f4;stroke-width:0.08075552;stroke-linecap:butt;stroke-linejoin:miter;stroke-miterlimit:4;stroke-dasharray:none;stroke-dashoffset:0;stroke-opacity:1;marker:none;marker-start:none;marker-mid:none;marker-end:none;paint-order:fill markers stroke;color-rendering:auto;image-rendering:auto;shape-rendering:auto;text-rendering:auto;enable-background:accumulate" id="circle8864-7" cx="30.727116" cy="30.502485" r="5.8167343"/>
    </g>
  </g>
</svg>