<?xml version="1.0" encoding="UTF-8" standalone="yes"?>
<svg xmlns:dc="http://purl.org/dc/elements/1.1/" xmlns:cc="http://creativecommons.org/ns#" xmlns:rdf="http://www.w3.org/1999/02/22-rdf-syntax-ns#" xmlns:svg="http://www.w3.org/2000/svg" xmlns="http://www.w3.org/2000/svg" xmlns:xlink="http://www.w3.org/1999/xlink" xmlns:sodipodi="http://sodipodi.sourceforge.net/DTD/sodipodi-0.dtd" xmlns:inkscape="http://www.inkscape.org/namespaces/inkscape" height="48" viewBox="0 0 48 48" width="48" id="svg2" version="1.1" inkscape:version="0.92.1 r" sodipodi:docname="evolution.svg" enable-background="new" folder="48">
  <title id="title4675">Template icons dark</title>
  <metadata id="metadata24">
    <rdf:RDF>
      <cc:Work rdf:about="">
        <dc:format>image/svg+xml</dc:format>
        <dc:type rdf:resource="http://purl.org/dc/dcmitype/StillImage"/>
        <dc:title>Template icons dark</dc:title>
        <dc:date>17/05/13</dc:date>
        <dc:creator>
          <cc:Agent>
            <dc:title>wfpaisa</dc:title>
          </cc:Agent>
        </dc:creator>
        <dc:rights>
          <cc:Agent>
            <dc:title>License: GPLv3</dc:title>
          </cc:Agent>
        </dc:rights>
        <dc:language>es-en</dc:language>
        <dc:subject>
          <rdf:Bag>
            <rdf:li>plane-icon-theme</rdf:li>
          </rdf:Bag>
        </dc:subject>
        <dc:description>Template for create set icons</dc:description>
        <cc:license rdf:resource="https://www.gnu.org/licenses/gpl-3.0.en.html"/>
      </cc:Work>
    </rdf:RDF>
  </metadata>
  <defs id="defs22">
    <linearGradient inkscape:collect="always" id="linearGradient8505">
      <stop style="stop-color:#030303;stop-opacity:0.15104167" offset="0" id="stop8501"/>
      <stop style="stop-color:#030303;stop-opacity:0.16145833" offset="1" id="stop8503"/>
    </linearGradient>
    <linearGradient inkscape:collect="always" id="linearGradient8499">
      <stop style="stop-color:#030303;stop-opacity:0.203125" offset="0" id="stop8495"/>
      <stop style="stop-color:#030303;stop-opacity:0.16145833" offset="1" id="stop8497"/>
    </linearGradient>
    <linearGradient id="linearGradient8493" inkscape:collect="always">
      <stop id="stop8489" offset="0" style="stop-color:#000000;stop-opacity:0"/>
      <stop id="stop8491" offset="1" style="stop-color:#000000;stop-opacity:0.09375"/>
    </linearGradient>
    <linearGradient inkscape:collect="always" id="linearGradient7974">
      <stop style="stop-color:#000000;stop-opacity:0" offset="0" id="stop7970"/>
      <stop style="stop-color:#000000;stop-opacity:0.05208333" offset="1" id="stop7972"/>
    </linearGradient>
    <linearGradient inkscape:collect="always" id="linearGradient7966">
      <stop style="stop-color:#e6e6e6;stop-opacity:1" offset="0" id="stop7962"/>
      <stop style="stop-color:#ffffff;stop-opacity:1" offset="1" id="stop7964"/>
    </linearGradient>
    <linearGradient inkscape:collect="always" id="linearGradient7947">
      <stop style="stop-color:#030303;stop-opacity:0.13541667" offset="0" id="stop7943"/>
      <stop id="stop7951" offset="0.40221724" style="stop-color:#030303;stop-opacity:0.25"/>
      <stop style="stop-color:#030303;stop-opacity:0;" offset="1" id="stop7945"/>
    </linearGradient>
    <linearGradient inkscape:collect="always" id="linearGradient7913">
      <stop style="stop-color:#000000;stop-opacity:0.078125" offset="0" id="stop7909"/>
      <stop style="stop-color:#000000;stop-opacity:0" offset="1" id="stop7911"/>
    </linearGradient>
    <linearGradient inkscape:collect="always" id="linearGradient7905">
      <stop style="stop-color:#ffffff;stop-opacity:1" offset="0" id="stop7901"/>
      <stop style="stop-color:#e7e7e7;stop-opacity:1" offset="1" id="stop7903"/>
    </linearGradient>
    <linearGradient id="linearGradient7803" inkscape:collect="always">
      <stop id="stop7799" offset="0" style="stop-color:#030303;stop-opacity:0.078125"/>
      <stop id="stop7801" offset="1" style="stop-color:#030303;stop-opacity:0.16145833"/>
    </linearGradient>
    <linearGradient inkscape:collect="always" id="linearGradient7734">
      <stop style="stop-color:#030303;stop-opacity:0.18229167" offset="0" id="stop7730"/>
      <stop style="stop-color:#030303;stop-opacity:0;" offset="1" id="stop7732"/>
    </linearGradient>
    <linearGradient gradientTransform="translate(-116,-133)" inkscape:collect="always" xlink:href="#linearGradient7734" id="linearGradient7736-3" x1="160" y1="162" x2="160" y2="131.26768" gradientUnits="userSpaceOnUse"/>
    <linearGradient inkscape:collect="always" xlink:href="#linearGradient7803" id="linearGradient7797" gradientUnits="userSpaceOnUse" x1="160" y1="162" x2="160" y2="124"/>
    <linearGradient inkscape:collect="always" xlink:href="#linearGradient7803" id="linearGradient7837" gradientUnits="userSpaceOnUse" x1="160" y1="162" x2="160" y2="124" gradientTransform="matrix(1,0,0,-1,0,321)"/>
    <linearGradient inkscape:collect="always" xlink:href="#linearGradient7905" id="linearGradient7907" x1="160.06299" y1="163" x2="160.06299" y2="136" gradientUnits="userSpaceOnUse"/>
    <linearGradient inkscape:collect="always" xlink:href="#linearGradient7913" id="linearGradient7915" x1="160.12599" y1="160" x2="160.12599" y2="136" gradientUnits="userSpaceOnUse"/>
    <linearGradient inkscape:collect="always" xlink:href="#linearGradient7947" id="linearGradient7949" x1="146" y1="146" x2="177.07086" y2="146" gradientUnits="userSpaceOnUse"/>
    <linearGradient inkscape:collect="always" xlink:href="#linearGradient7803" id="linearGradient7953" gradientUnits="userSpaceOnUse" x1="160" y1="162" x2="160" y2="124"/>
    <linearGradient inkscape:collect="always" xlink:href="#linearGradient7966" id="linearGradient7968" x1="161" y1="187.4567" x2="161" y2="165" gradientUnits="userSpaceOnUse"/>
    <linearGradient inkscape:collect="always" xlink:href="#linearGradient7974" id="linearGradient7976" x1="160.06299" y1="184" x2="160.06299" y2="166.00932" gradientUnits="userSpaceOnUse"/>
    <linearGradient inkscape:collect="always" xlink:href="#linearGradient7803" id="linearGradient7837-1" gradientUnits="userSpaceOnUse" x1="160" y1="162" x2="160" y2="124" gradientTransform="matrix(1.33,0,0,-1.33,59.2,485.965)"/>
    <linearGradient gradientTransform="matrix(1.33,0,0,1.33,59.2,59.035)" inkscape:collect="always" xlink:href="#linearGradient7966" id="linearGradient7968-0" x1="161" y1="187.4567" x2="161" y2="165" gradientUnits="userSpaceOnUse"/>
    <linearGradient gradientTransform="matrix(1.33,0,0,1.33,59.2,59.035)" inkscape:collect="always" xlink:href="#linearGradient7974" id="linearGradient7976-6" x1="160.06299" y1="184" x2="160.06299" y2="166.00932" gradientUnits="userSpaceOnUse"/>
    <linearGradient gradientTransform="matrix(1.33,0,0,1.33,59.2,59.035)" inkscape:collect="always" xlink:href="#linearGradient7803" id="linearGradient7953-2" gradientUnits="userSpaceOnUse" x1="160" y1="162" x2="160" y2="124"/>
    <linearGradient gradientTransform="matrix(1.33,0,0,1.33,59.2,59.035)" inkscape:collect="always" xlink:href="#linearGradient7905" id="linearGradient7907-1" x1="160.06299" y1="163" x2="160.06299" y2="136" gradientUnits="userSpaceOnUse"/>
    <linearGradient gradientTransform="matrix(1.33,0,0,1.33,59.2,59.035)" inkscape:collect="always" xlink:href="#linearGradient7913" id="linearGradient7915-9" x1="160.12599" y1="160" x2="160.12599" y2="136" gradientUnits="userSpaceOnUse"/>
    <linearGradient gradientTransform="matrix(1.33,0,0,1.33,59.2,59.035)" inkscape:collect="always" xlink:href="#linearGradient7947" id="linearGradient7949-2" x1="146" y1="146" x2="177.07086" y2="146" gradientUnits="userSpaceOnUse"/>
    <linearGradient inkscape:collect="always" xlink:href="#linearGradient7803" id="linearGradient8164" gradientUnits="userSpaceOnUse" gradientTransform="matrix(1.33,0,0,1.33,59.2,59.035)" x1="160" y1="162" x2="160" y2="124"/>
    <linearGradient inkscape:collect="always" xlink:href="#linearGradient7803" id="linearGradient7837-19" gradientUnits="userSpaceOnUse" x1="160" y1="162" x2="160" y2="124" gradientTransform="matrix(0.70373823,0,0,-0.69090809,-32.633634,189.8907)"/>
    <linearGradient gradientTransform="matrix(0.70373823,0,0,0.69090809,-32.633634,-31.890786)" inkscape:collect="always" xlink:href="#linearGradient7966" id="linearGradient7968-8" x1="161" y1="187.4567" x2="161" y2="165" gradientUnits="userSpaceOnUse"/>
    <linearGradient gradientTransform="matrix(0.70373823,0,0,0.69090809,-32.633634,-31.890786)" inkscape:collect="always" xlink:href="#linearGradient7974" id="linearGradient7976-0" x1="160.06299" y1="184" x2="160.06299" y2="166.00932" gradientUnits="userSpaceOnUse"/>
    <linearGradient gradientTransform="matrix(0.70373823,0,0,0.69090809,-32.633634,-31.890786)" inkscape:collect="always" xlink:href="#linearGradient7803" id="linearGradient7953-1" gradientUnits="userSpaceOnUse" x1="160" y1="162" x2="160" y2="124"/>
    <linearGradient gradientTransform="matrix(0.70373823,0,0,0.69090809,-32.633634,-31.890786)" inkscape:collect="always" xlink:href="#linearGradient7905" id="linearGradient7907-6" x1="160.06299" y1="163" x2="160.06299" y2="136" gradientUnits="userSpaceOnUse"/>
    <linearGradient gradientTransform="matrix(0.70373823,0,0,0.69090809,-32.633634,-31.890786)" inkscape:collect="always" xlink:href="#linearGradient7913" id="linearGradient7915-0" x1="160.12599" y1="160" x2="160.12599" y2="136" gradientUnits="userSpaceOnUse"/>
    <linearGradient gradientTransform="matrix(0.70373823,0,0,0.69090809,-32.633634,-31.890786)" inkscape:collect="always" xlink:href="#linearGradient7947" id="linearGradient7949-5" x1="146" y1="146" x2="177.07086" y2="146" gradientUnits="userSpaceOnUse"/>
    <linearGradient inkscape:collect="always" xlink:href="#linearGradient7803" id="linearGradient8234" gradientUnits="userSpaceOnUse" gradientTransform="matrix(0.70373823,0,0,0.69090809,-32.633634,-31.890786)" x1="160" y1="162" x2="160" y2="124"/>
    <linearGradient inkscape:collect="always" xlink:href="#linearGradient8499" id="linearGradient7837-4" gradientUnits="userSpaceOnUse" x1="160" y1="162" x2="160" y2="124" gradientTransform="matrix(0.5,0,0,-0.5,-56,104.75)"/>
    <linearGradient gradientTransform="matrix(0.5,0,0,0.5,-56,-55.75)" inkscape:collect="always" xlink:href="#linearGradient7966" id="linearGradient7968-7" x1="161" y1="187.4567" x2="161" y2="165" gradientUnits="userSpaceOnUse"/>
    <linearGradient gradientTransform="matrix(0.5,0,0,0.5,-56,-55.75)" inkscape:collect="always" xlink:href="#linearGradient8493" id="linearGradient7976-8" x1="160.06299" y1="184" x2="160.06299" y2="166.00932" gradientUnits="userSpaceOnUse"/>
    <linearGradient gradientTransform="matrix(0.5,0,0,0.5,-56,-55.75)" inkscape:collect="always" xlink:href="#linearGradient7905" id="linearGradient7907-4" x1="160.06299" y1="163" x2="160.06299" y2="136" gradientUnits="userSpaceOnUse"/>
    <linearGradient gradientTransform="matrix(0.5,0,0,0.5,-56,-55.75)" inkscape:collect="always" xlink:href="#linearGradient7913" id="linearGradient7915-06" x1="160.12599" y1="160" x2="160.12599" y2="136" gradientUnits="userSpaceOnUse"/>
    <linearGradient inkscape:collect="always" xlink:href="#linearGradient8505" id="linearGradient8304" gradientUnits="userSpaceOnUse" gradientTransform="matrix(0.5,0,0,0.5,-56,-55.75)" x1="160" y1="162" x2="160" y2="124"/>
    <linearGradient gradientTransform="matrix(0.33,0,0,0.33,-68.8,-68.465)" inkscape:collect="always" xlink:href="#linearGradient7966" id="linearGradient7968-9" x1="161" y1="187.4567" x2="161" y2="165" gradientUnits="userSpaceOnUse"/>
    <linearGradient gradientTransform="matrix(0.33,0,0,0.33,-68.8,-68.465)" inkscape:collect="always" xlink:href="#linearGradient7905" id="linearGradient7907-9" x1="160.06299" y1="163" x2="160.06299" y2="136" gradientUnits="userSpaceOnUse"/>
  </defs>
  <sodipodi:namedview pagecolor="#383c4a" bordercolor="#ffffff" borderopacity="0.62745098" objecttolerance="4" gridtolerance="10" guidetolerance="4" inkscape:pageopacity="0" inkscape:pageshadow="2" inkscape:window-width="640" inkscape:window-height="480" id="namedview20" showgrid="true" inkscape:zoom="16.386532" inkscape:cx="88.273341" inkscape:cy="-43.076466" inkscape:current-layer="g7905" inkscape:snap-smooth-nodes="false" showguides="true" borderlayer="true" inkscape:showpageshadow="false" inkscape:guide-bbox="true" guidecolor="#bd4fff" guideopacity="0.78431373" inkscape:snap-nodes="true" inkscape:lockguides="false" fit-margin-top="0" fit-margin-left="0" fit-margin-right="0" fit-margin-bottom="0" guidehicolor="#ff0101" guidehiopacity="0.78431373" inkscape:snap-page="true" inkscape:object-nodes="true" inkscape:snap-bbox="true" inkscape:snap-global="true" inkscape:snap-object-midpoints="false" inkscape:snap-bbox-edge-midpoints="false">
    <inkscape:grid type="xygrid" id="grid4171" empspacing="4" dotted="false" originx="2.7755576e-17" originy="0" spacingx="1" spacingy="1" color="#5a5a5a" opacity="0.23529412" empcolor="#5a5a5a" empopacity="0.47058824" visible="true"/>
    <inkscape:grid type="axonomgrid" id="grid4699" units="mm" empspacing="4" color="#5a5a5a" opacity="0.23529412" empcolor="#5a5a5a" empopacity="0.47058824" gridanglex="45" gridanglez="45" spacingy="3.7795276" visible="false" originx="1.3228346" originy="1.3228346"/>
    <sodipodi:guide position="48,0" orientation="1,0" id="guide4568" inkscape:locked="false" inkscape:label="" inkscape:color="rgb(189,79,255)"/>
    <sodipodi:guide position="111.99996,-3.9999999e-05" orientation="0,1" id="guide4570" inkscape:locked="false" inkscape:label="" inkscape:color="rgb(189,79,255)"/>
    <sodipodi:guide position="0,0" orientation="1,0" id="guide4572" inkscape:locked="false" inkscape:label="" inkscape:color="rgb(189,79,255)"/>
    <sodipodi:guide position="0,48" orientation="0,1" id="guide4574" inkscape:locked="false" inkscape:label="" inkscape:color="rgb(189,79,255)"/>
    <sodipodi:guide position="0,80" orientation="0,1" id="guide4576" inkscape:locked="false" inkscape:label="" inkscape:color="rgb(189,79,255)"/>
    <sodipodi:guide position="-32,48" orientation="1,0" id="guide4578" inkscape:locked="false" inkscape:label="" inkscape:color="rgb(189,79,255)"/>
    <sodipodi:guide position="-32,104" orientation="0,1" id="guide4580" inkscape:locked="false" inkscape:label="" inkscape:color="rgb(189,79,255)"/>
    <sodipodi:guide position="-56,80" orientation="1,0" id="guide4582" inkscape:locked="false" inkscape:label="" inkscape:color="rgb(189,79,255)"/>
    <sodipodi:guide position="48,-64" orientation="0,1" id="guide4584" inkscape:locked="false" inkscape:label="" inkscape:color="rgb(189,79,255)"/>
    <sodipodi:guide position="0,0" orientation="-0.70710678,0.70710678" id="guide4588" inkscape:locked="false" inkscape:label="" inkscape:color="rgb(189,79,255)"/>
    <sodipodi:guide position="-56,80" orientation="-0.70710678,0.70710678" id="guide4573" inkscape:locked="false" inkscape:label="" inkscape:color="rgb(189,79,255)"/>
    <sodipodi:guide position="-32,48" orientation="-0.70710678,0.70710678" id="guide4575" inkscape:locked="false" inkscape:label="" inkscape:color="rgb(189,79,255)"/>
    <sodipodi:guide position="48,-64" orientation="-0.70710678,0.70710678" id="guide4577" inkscape:locked="false" inkscape:label="" inkscape:color="rgb(189,79,255)"/>
    <sodipodi:guide position="47.999962,0" orientation="0.70710678,0.70710678" id="guide4697" inkscape:locked="false" inkscape:label="" inkscape:color="rgb(189,79,255)"/>
    <sodipodi:guide position="207.99995,-288" orientation="0,1" id="guide7833" inkscape:locked="false"/>
    <sodipodi:guide position="335.99994,-288" orientation="1,0" id="guide7835" inkscape:locked="false" inkscape:label="" inkscape:color="rgb(189,79,255)"/>
    <sodipodi:guide position="111.99996,-64" orientation="1,0" id="guide7915" inkscape:locked="false"/>
    <sodipodi:guide position="111.99996,-160" orientation="0,1" id="guide7917" inkscape:locked="false"/>
    <sodipodi:guide position="207.99996,-160" orientation="1,0" id="guide7919" inkscape:locked="false"/>
    <sodipodi:guide position="111.99996,-160" orientation="-0.70710678,0.70710678" id="guide7921" inkscape:locked="false" inkscape:label="" inkscape:color="rgb(189,79,255)"/>
    <sodipodi:guide position="207.99996,-288" orientation="-0.70710678,0.70710678" id="guide7923" inkscape:locked="false" inkscape:label="" inkscape:color="rgb(189,79,255)"/>
    <sodipodi:guide position="-72,104" orientation="1,0" id="guide7824" inkscape:locked="false"/>
    <sodipodi:guide position="-56,120" orientation="0,1" id="guide7826" inkscape:locked="false"/>
    <sodipodi:guide position="-72,104" orientation="-0.70710678,0.70710678" id="guide7828" inkscape:locked="false" inkscape:label="" inkscape:color="rgb(189,79,255)"/>
  </sodipodi:namedview>
  <g inkscape:groupmode="layer" id="layer3" inkscape:label="icon_48" style="display:inline" transform="translate(6.8969723e-7,-4.5367432e-7)">
    <g inkscape:groupmode="layer" id="layer9" inkscape:label="frame" style="display:none">
      <rect inkscape:label="frame_48" y="4.5367432e-07" x="-6.8969723e-07" height="48" width="48" id="frame_48" style="color:#000000;clip-rule:nonzero;display:block;overflow:visible;visibility:visible;opacity:1;isolation:auto;mix-blend-mode:normal;color-interpolation:sRGB;color-interpolation-filters:linearRGB;solid-color:#000000;solid-opacity:1;vector-effect:none;fill:#000000;fill-opacity:1;fill-rule:nonzero;stroke:#ff24f7;stroke-width:0;stroke-linecap:square;stroke-linejoin:miter;stroke-miterlimit:4;stroke-dasharray:none;stroke-dashoffset:0;stroke-opacity:0.99481865;marker:none;marker-start:none;marker-mid:none;marker-end:none;paint-order:normal;color-rendering:auto;image-rendering:auto;shape-rendering:auto;text-rendering:auto;enable-background:accumulate"/>
      <text xml:space="preserve" style="font-size:18.66666603px;line-height:1000%;font-family:sans-serif;letter-spacing:0px;word-spacing:0px;display:inline;opacity:1;fill:#ffffff;fill-opacity:1;stroke:none;stroke-width:0.11166908px;stroke-linecap:butt;stroke-linejoin:miter;stroke-opacity:1" x="12.301435" y="30.794922" id="txt_48" inkscape:label="txt_48">
        <tspan sodipodi:role="line" x="12.301435" y="30.794922" style="font-size:18.66666603px;fill:#ffffff;fill-opacity:1;stroke:none;stroke-width:0.11166908px" id="tspan5049-1">48</tspan>
      </text>
      <text xml:space="preserve" style="font-size:2.66666675px;line-height:1000%;font-family:sans-serif;letter-spacing:0px;word-spacing:0px;display:inline;opacity:1;fill:#ffffff;fill-opacity:0.44791667;stroke:none;stroke-width:0.0588377px;stroke-linecap:butt;stroke-linejoin:miter;stroke-opacity:1" x="25.824219" y="45.962238" id="txt_scalable_32-64" inkscape:label="txt_scalable_32-64">
        <tspan sodipodi:role="line" x="25.824219" y="45.962238" style="font-size:2.66666675px;fill:#ffffff;fill-opacity:0.44791667;stroke:none;stroke-width:0.0588377px" id="tspan5049-1-6">Scalable:32-64</tspan>
      </text>
    </g>
    <g inkscape:groupmode="layer" id="layer10" inkscape:label="icon" style="display:inline">
      <path style="color:#000000;clip-rule:nonzero;display:block;overflow:visible;visibility:visible;opacity:1;isolation:auto;mix-blend-mode:normal;color-interpolation:sRGB;color-interpolation-filters:linearRGB;solid-color:#000000;solid-opacity:1;vector-effect:none;fill:#000000;fill-opacity:0.11458333;fill-rule:nonzero;stroke:none;stroke-width:1.76534581px;stroke-linecap:butt;stroke-linejoin:miter;stroke-miterlimit:4;stroke-dasharray:none;stroke-dashoffset:0;stroke-opacity:1;marker:none;marker-start:none;marker-mid:none;marker-end:none;paint-order:fill markers stroke;color-rendering:auto;image-rendering:auto;shape-rendering:auto;text-rendering:auto;enable-background:accumulate" d="M 0,9 H 48 V 40 H 0 Z" id="rect7723-5" inkscape:connector-curvature="0" sodipodi:nodetypes="ccccc" inkscape:label="base sombra"/>
      <path style="color:#000000;clip-rule:nonzero;display:inline;overflow:visible;visibility:visible;opacity:1;isolation:auto;mix-blend-mode:normal;color-interpolation:sRGB;color-interpolation-filters:linearRGB;solid-color:#000000;solid-opacity:1;vector-effect:none;fill:#e2e2e2;fill-opacity:1;fill-rule:nonzero;stroke:none;stroke-width:1.76534581px;stroke-linecap:butt;stroke-linejoin:miter;stroke-miterlimit:4;stroke-dasharray:none;stroke-dashoffset:0;stroke-opacity:1;marker:none;marker-start:none;marker-mid:none;marker-end:none;paint-order:fill markers stroke;color-rendering:auto;image-rendering:auto;shape-rendering:auto;text-rendering:auto;enable-background:accumulate" d="M 1,10 H 47 V 39 H 1 Z" id="rect7721-0" inkscape:connector-curvature="0" sodipodi:nodetypes="ccccc" inkscape:label="base"/>
      <path style="color:#000000;clip-rule:nonzero;display:inline;overflow:visible;visibility:visible;opacity:1;isolation:auto;mix-blend-mode:normal;color-interpolation:sRGB;color-interpolation-filters:linearRGB;solid-color:#000000;solid-opacity:1;vector-effect:none;fill:url(#linearGradient7837-4);fill-opacity:1;fill-rule:nonzero;stroke:none;stroke-width:1.76534581px;stroke-linecap:butt;stroke-linejoin:miter;stroke-miterlimit:4;stroke-dasharray:none;stroke-dashoffset:0;stroke-opacity:1;marker:none;marker-start:none;marker-mid:none;marker-end:none;paint-order:fill markers stroke;color-rendering:auto;image-rendering:auto;shape-rendering:auto;text-rendering:auto;enable-background:accumulate" d="M 2,38.25 H 46 V 37.238185 L 45,34.75 26.00619,22.254645 c 0,0 -1.395955,-1.004645 -2.00619,-1.004645 -0.68492,0 -1.995835,0.996875 -1.995835,0.996875 L 3,34.75 2,37.25 Z" id="path7827-4" inkscape:connector-curvature="0" sodipodi:nodetypes="cccccscccc"/>
      <path sodipodi:nodetypes="ccccsccc" inkscape:connector-curvature="0" id="path7831-87" d="M 2,38.25 H 46 L 45,34.75 26.00619,23.254645 c 0,0 -1.395955,-1.004645 -2.00619,-1.004645 -0.68492,0 -1.995835,0.996875 -1.995835,0.996875 L 3,34.75 Z" style="color:#000000;clip-rule:nonzero;display:block;overflow:visible;visibility:visible;opacity:1;isolation:auto;mix-blend-mode:normal;color-interpolation:sRGB;color-interpolation-filters:linearRGB;solid-color:#000000;solid-opacity:1;vector-effect:none;fill:url(#linearGradient7968-7);fill-opacity:1;fill-rule:nonzero;stroke:none;stroke-width:1.76534581px;stroke-linecap:butt;stroke-linejoin:miter;stroke-miterlimit:4;stroke-dasharray:none;stroke-dashoffset:0;stroke-opacity:1;marker:none;marker-start:none;marker-mid:none;marker-end:none;paint-order:fill markers stroke;color-rendering:auto;image-rendering:auto;shape-rendering:auto;text-rendering:auto;enable-background:accumulate"/>
      <path style="color:#000000;clip-rule:nonzero;display:inline;overflow:visible;visibility:visible;opacity:1;isolation:auto;mix-blend-mode:normal;color-interpolation:sRGB;color-interpolation-filters:linearRGB;solid-color:#000000;solid-opacity:1;vector-effect:none;fill:url(#linearGradient7976-8);fill-opacity:1;fill-rule:nonzero;stroke:none;stroke-width:1.76534581px;stroke-linecap:butt;stroke-linejoin:miter;stroke-miterlimit:4;stroke-dasharray:none;stroke-dashoffset:0;stroke-opacity:1;marker:none;marker-start:none;marker-mid:none;marker-end:none;paint-order:fill markers stroke;color-rendering:auto;image-rendering:auto;shape-rendering:auto;text-rendering:auto;enable-background:accumulate" d="m 4,37.25 h 40 l -1,-2.5 -16.99381,-9.495355 c 0,0 -1.395955,-1.004645 -2.00619,-1.004645 -0.68492,0 -1.995835,0.996875 -1.995835,0.996875 L 5,34.75 Z" id="path7833-1" inkscape:connector-curvature="0" sodipodi:nodetypes="ccccsccc"/>
      <path sodipodi:nodetypes="cccccscccc" inkscape:connector-curvature="0" id="path7773-72" d="m 2,10.75 h 44 v 1.011815 L 45,14.25 26.00619,27.245355 c 0,0 -1.395955,1.004645 -2.00619,1.004645 -0.68492,0 -1.995835,-0.996875 -1.995835,-0.996875 L 3,14.25 2,11.75 Z" style="color:#000000;clip-rule:nonzero;display:block;overflow:visible;visibility:visible;opacity:1;isolation:auto;mix-blend-mode:normal;color-interpolation:sRGB;color-interpolation-filters:linearRGB;solid-color:#000000;solid-opacity:1;vector-effect:none;fill:url(#linearGradient8304);fill-opacity:1;fill-rule:nonzero;stroke:none;stroke-width:1.76534581px;stroke-linecap:butt;stroke-linejoin:miter;stroke-miterlimit:4;stroke-dasharray:none;stroke-dashoffset:0;stroke-opacity:1;marker:none;marker-start:none;marker-mid:none;marker-end:none;paint-order:fill markers stroke;color-rendering:auto;image-rendering:auto;shape-rendering:auto;text-rendering:auto;enable-background:accumulate"/>
      <path style="color:#000000;clip-rule:nonzero;display:block;overflow:visible;visibility:visible;opacity:1;isolation:auto;mix-blend-mode:normal;color-interpolation:sRGB;color-interpolation-filters:linearRGB;solid-color:#000000;solid-opacity:1;vector-effect:none;fill:url(#linearGradient7907-4);fill-opacity:1;fill-rule:nonzero;stroke:none;stroke-width:1.76534581px;stroke-linecap:butt;stroke-linejoin:miter;stroke-miterlimit:4;stroke-dasharray:none;stroke-dashoffset:0;stroke-opacity:1;marker:none;marker-start:none;marker-mid:none;marker-end:none;paint-order:fill markers stroke;color-rendering:auto;image-rendering:auto;shape-rendering:auto;text-rendering:auto;enable-background:accumulate" d="m 2,10.75 h 44 l -1,3.5 -18.99381,11.495355 c 0,0 -1.395955,1.004645 -2.00619,1.004645 -0.68492,0 -1.995835,-0.996875 -1.995835,-0.996875 L 3,14.25 Z" id="rect7725-22" inkscape:connector-curvature="0" sodipodi:nodetypes="ccccsccc"/>
      <path sodipodi:nodetypes="ccccsccc" inkscape:connector-curvature="0" id="path7811-6" d="m 4,11.75 h 40 l -1,2.5 -16.99381,9.495355 c 0,0 -1.395955,1.004645 -2.00619,1.004645 -0.68492,0 -1.995835,-0.996875 -1.995835,-0.996875 L 5,14.25 Z" style="color:#000000;clip-rule:nonzero;display:inline;overflow:visible;visibility:visible;opacity:1;isolation:auto;mix-blend-mode:normal;color-interpolation:sRGB;color-interpolation-filters:linearRGB;solid-color:#000000;solid-opacity:1;vector-effect:none;fill:url(#linearGradient7915-06);fill-opacity:1;fill-rule:nonzero;stroke:none;stroke-width:1.76534581px;stroke-linecap:butt;stroke-linejoin:miter;stroke-miterlimit:4;stroke-dasharray:none;stroke-dashoffset:0;stroke-opacity:1;marker:none;marker-start:none;marker-mid:none;marker-end:none;paint-order:fill markers stroke;color-rendering:auto;image-rendering:auto;shape-rendering:auto;text-rendering:auto;enable-background:accumulate"/>
      <path inkscape:connector-curvature="0" id="path7841-1" d="m 19.75,14.48535 c -1.88018,0 -3.408205,1.528025 -3.408205,3.408205 0,1.88018 1.528025,3.408205 3.408205,3.408205 1.183265,0 2.225695,-0.60614 2.836915,-1.52344 v 0.35742 c 0,0 1.883325,-0.444065 2.844725,-0.5 0.843655,-0.0491 1.43402,0.973045 2.55469,1.0293 0.67446,0.03385 1.86057,-1.41933 2.509765,-1.36914 0.74557,0.05765 1.381435,0.907155 1.95996,1.052735 0.942785,0.237235 1.63086,-0.212895 1.63086,-0.212895 v -0.492185 c 0,0 -0.647585,0.42521 -1.61621,0.33203 -0.56561,-0.05441 -1.24094,-1.115175 -1.96094,-1.170895 -0.65858,-0.05098 -1.85422,1.40226 -2.538085,1.36816 -1.104295,-0.05505 -1.676915,-1.076845 -2.50879,-1.029295 -0.928615,0.05308 -2.62578,0.44353 -2.78125,0.47949 0.11973,-0.20229 0.219615,-0.417285 0.2959,-0.643555 0.16838,-0.0393 1.826695,-0.42433 2.74121,-0.477535 0.843655,-0.0491 1.434995,0.974015 2.555665,1.03027 0.67446,0.03385 1.859595,-1.420305 2.50879,-1.370115 0.74557,0.05765 1.381435,0.90813 1.95996,1.05371 0.942785,0.237235 1.63086,-0.213865 1.63086,-0.213865 v -0.49219 c 0,0 -0.64758,0.42521 -1.616215,0.33203 -0.56561,-0.05441 -1.240935,-1.115165 -1.960935,-1.170895 -0.65858,-0.05097 -1.85422,1.402265 -2.538085,1.36816 -1.104295,-0.05504 -1.676915,-1.076845 -2.50879,-1.029295 -0.865885,0.0495 -2.303375,0.372835 -2.64258,0.450195 0.03105,-0.18463 0.05078,-0.373045 0.05078,-0.566405 0,-0.09639 -0.0068,-0.190775 -0.01465,-0.285155 0.225515,-0.05242 1.80572,-0.416595 2.70215,-0.46875 0.843655,-0.0491 1.434015,0.97304 2.554685,1.029295 0.67446,0.03385 1.859595,-1.41933 2.50879,-1.36914 0.74557,0.05765 1.38241,0.907155 1.960935,1.052735 C 33.8129,18.089775 34.5,17.63965 34.5,17.63965 v -0.49219 c 0,0 -0.647585,0.42521 -1.61621,0.33203 -0.56561,-0.05441 -1.23996,-1.115165 -1.95996,-1.170895 -0.65858,-0.05097 -1.8552,1.402265 -2.539065,1.368165 -1.104295,-0.05505 -1.676915,-1.07685 -2.50879,-1.0293 -0.94015,0.05375 -2.6905,0.45842 -2.80664,0.48535 -0.07555,-0.33006 -0.198475,-0.64175 -0.362305,-0.92773 0.307395,-0.07098 1.77096,-0.404595 2.638675,-0.45508 0.843655,-0.0491 1.434015,0.97304 2.554685,1.029295 0.67446,0.03385 1.859595,-1.41933 2.50879,-1.36914 0.74557,0.05765 1.38241,0.907155 1.960935,1.052735 C 33.3129,16.700125 34,16.25 34,16.25 v -0.49219 c 0,0 -0.647585,0.425215 -1.61621,0.332035 -0.56561,-0.05441 -1.23996,-1.11517 -1.95996,-1.1709 -0.65858,-0.05097 -1.8552,1.402265 -2.539065,1.368165 -1.104295,-0.05505 -1.676915,-1.07684 -2.50879,-1.0293 -0.971515,0.05555 -2.875975,0.5 -2.875975,0.5 v 0.13086 c -0.620315,-0.84874 -1.61989,-1.40332 -2.75,-1.40332 z m 0,0.31641 c 1.70967,0 3.091795,1.382125 3.091795,3.091795 0,1.70967 -1.382125,3.091795 -3.091795,3.091795 -1.70967,0 -3.091795,-1.382125 -3.091795,-3.091795 0,-1.70967 1.382125,-3.091795 3.091795,-3.091795 z m -0.05469,0.168945 a 0.30354023,0.30354023 0 0 0 -0.30371,0.30371 0.30354023,0.30354023 0 0 0 0.30371,0.30371 0.30354023,0.30354023 0 0 0 0.303715,-0.30371 0.30354023,0.30354023 0 0 0 -0.303715,-0.30371 z m 0.05469,0.79199 c -1.17591,0 -2.13086,0.95495 -2.13086,2.13086 0,1.17591 0.95495,2.13086 2.13086,2.13086 1.17591,0 2.13086,-0.95495 2.13086,-2.13086 0,-1.17591 -0.95495,-2.13086 -2.13086,-2.13086 z m 0,0.197265 c 1.06927,0 1.933595,0.864325 1.933595,1.933595 0,1.06927 -0.864325,1.933595 -1.933595,1.933595 -1.06927,0 -1.933595,-0.864325 -1.933595,-1.933595 0,-1.06927 0.864325,-1.933595 1.933595,-1.933595 z m 0.978515,1.317385 c -0.16028,0 -0.2886,0.05377 -0.384765,0.16113 -0.09566,0.106855 -0.143555,0.25054 -0.143555,0.430665 0,0.18012 0.0479,0.322835 0.143555,0.42969 0.09616,0.10685 0.224485,0.16113 0.384765,0.16113 0.15977,0 0.287155,-0.05428 0.382815,-0.16113 0.09566,-0.10736 0.143555,-0.250075 0.143555,-0.42969 0,-0.180125 -0.0479,-0.32381 -0.143555,-0.430665 -0.09566,-0.10736 -0.223045,-0.16113 -0.382815,-0.16113 z m -2.493165,0.0205 v 1.13965 h 0.734375 V 18.30761 H 18.38965 v -0.413085 h 0.542965 v -0.12988 H 18.38965 V 17.42773 h 0.566405 v -0.129885 z m 0.848635,0 0.43457,1.13965 h 0.174805 l 0.43457,-1.13965 H 19.967775 L 19.60547,18.25683 19.245115,17.297845 Z m 1.64453,0.104495 c 0.11194,0 0.200495,0.04155 0.265625,0.125 0.06563,0.08345 0.09863,0.1978 0.09863,0.341795 0,0.143485 -0.033,0.2564 -0.09863,0.339845 -0.06513,0.08345 -0.153685,0.125 -0.265625,0.125 -0.11194,0 -0.20144,-0.04155 -0.267575,-0.125 -0.06565,-0.08345 -0.09766,-0.19636 -0.09766,-0.339845 0,-0.143995 0.032,-0.25835 0.09766,-0.341795 0.06614,-0.08345 0.155635,-0.125 0.267575,-0.125 z m 1.70703,0.239255 a 0.30354023,0.30354023 0 0 0 -0.302735,0.30371 0.30354023,0.30354023 0 0 0 0.302735,0.303715 0.30354023,0.30354023 0 0 0 0.303715,-0.303715 0.30354023,0.30354023 0 0 0 -0.303715,-0.30371 z m -5.288085,0.0078 a 0.30354023,0.30354023 0 0 0 -0.302735,0.30371 0.30354023,0.30354023 0 0 0 0.302735,0.30371 0.30354023,0.30354023 0 0 0 0.30371,-0.30371 0.30354023,0.30354023 0 0 0 -0.30371,-0.30371 z m 2.756835,2.5625 a 0.30354023,0.30354023 0 0 0 -0.30371,0.30371 0.30354023,0.30354023 0 0 0 0.30371,0.30371 0.30354023,0.30354023 0 0 0 0.302735,-0.30371 0.30354023,0.30354023 0 0 0 -0.302735,-0.30371 z" style="color:#000000;font-style:normal;font-variant:normal;font-weight:normal;font-stretch:normal;font-size:medium;line-height:normal;font-family:sans-serif;font-variant-ligatures:normal;font-variant-position:normal;font-variant-caps:normal;font-variant-numeric:normal;font-variant-alternates:normal;font-feature-settings:normal;text-indent:0;text-align:start;text-decoration:none;text-decoration-line:none;text-decoration-style:solid;text-decoration-color:#000000;letter-spacing:normal;word-spacing:normal;text-transform:none;writing-mode:lr-tb;direction:ltr;text-orientation:mixed;dominant-baseline:auto;baseline-shift:baseline;text-anchor:start;white-space:normal;shape-padding:0;clip-rule:nonzero;display:inline;overflow:visible;visibility:visible;opacity:1;isolation:auto;mix-blend-mode:normal;color-interpolation:sRGB;color-interpolation-filters:linearRGB;solid-color:#000000;solid-opacity:1;vector-effect:none;fill:#000000;fill-opacity:0.15625;fill-rule:nonzero;stroke:none;stroke-width:0.31549999;stroke-linecap:butt;stroke-linejoin:miter;stroke-miterlimit:4;stroke-dasharray:none;stroke-dashoffset:0;stroke-opacity:1;marker:none;paint-order:fill markers stroke;color-rendering:auto;image-rendering:auto;shape-rendering:auto;text-rendering:auto;enable-background:accumulate" inkscape:label="firm"/>
      <path style="display:inline;fill:#5477b0;fill-opacity:1;fill-rule:evenodd;stroke:none;stroke-width:0.52499413px;stroke-linecap:butt;stroke-linejoin:miter;stroke-opacity:1" d="m 8.8409109,9.9959885 -7.8409087,0.00412 v 4.218168 l 1.0150155,-1.058659 v -2.144031 h 5.7763562 z m 16.7272721,0 -6.272727,0.00422 -1.045454,1.015476 h 6.268644 z m 16.727272,0 -6.272727,0.00422 -1.045454,1.015476 h 6.268644 z m 4.708628,1.0195945 -0.888882,1.054542 -0.0042,5.839043 0.892964,-1.058659 z M 2.0150177,23.181876 1.0040846,24.236418 0.99990284,30.563667 2.0149184,29.505008 Z m 44.9890653,4.218167 -0.888882,1.054541 -0.0042,6.32725 0.892964,-1.05866 z M 2.5681839,38.106576 1.5227294,39 h 6.2686445 l 1.049537,-0.893424 z m 16.7272721,0 L 18.250002,39 h 6.268644 l 1.049537,-0.893424 z m 16.727272,0 L 34.977274,39 h 6.268644 l 1.049537,-0.893424 z" id="path7980-0" inkscape:connector-curvature="0" inkscape:label="blue" sodipodi:nodetypes="ccccccccccccccccccccccccccccccccccccccccccccccc"/>
      <path style="display:inline;fill:#b05457;fill-opacity:1;fill-rule:evenodd;stroke:none;stroke-width:0.52499413px;stroke-linecap:butt;stroke-linejoin:miter;stroke-opacity:1" d="m 17.204546,9.9959885 -6.272726,0.00422 -1.0454545,1.015476 h 6.2686435 z m 16.727273,0 -6.272727,0.00422 -1.045454,1.015476 h 6.268644 z m 13.068181,0 -2.613636,0.00422 -1.045454,1.015476 h 2.609553 z M 2.0150177,14.745543 1.0040846,15.800085 0.99990284,22.127334 2.0149184,21.068675 Z m 44.9890653,4.218167 -0.888882,1.054542 -0.0042,6.327249 0.892964,-1.05866 z M 2.0150177,31.618209 1.0040846,32.672751 0.99990284,39 2.0149184,37.575187 Z m 44.9890653,4.218166 -0.888882,1.054542 -0.0032,1.212569 -1.725701,0.0031 L 43.34091,39 H 46.477273 47 Z M 10.93182,38.106576 9.8863655,39 h 6.2727265 l 1.045454,-0.893424 z m 16.727272,0 L 26.613638,39 h 6.272726 l 1.045455,-0.893424 z" id="path7988-6" inkscape:connector-curvature="0" inkscape:label="red" sodipodi:nodetypes="cccccccccccccccccccccccccccccccccccccccccccccccc"/>
    </g>
  </g>
</svg>