<?xml version="1.0" encoding="UTF-8" standalone="no"?>
<svg
   xmlns:dc="http://purl.org/dc/elements/1.1/"
   xmlns:cc="http://creativecommons.org/ns#"
   xmlns:rdf="http://www.w3.org/1999/02/22-rdf-syntax-ns#"
   xmlns:svg="http://www.w3.org/2000/svg"
   xmlns="http://www.w3.org/2000/svg"
   xmlns:xlink="http://www.w3.org/1999/xlink"
   xmlns:sodipodi="http://sodipodi.sourceforge.net/DTD/sodipodi-0.dtd"
   xmlns:inkscape="http://www.inkscape.org/namespaces/inkscape"
   height="48"
   viewBox="0 0 48 48"
   width="48"
   id="svg2"
   version="1.1"
   inkscape:version="0.92.1 r"
   sodipodi:docname="accessories-calculator.svg">
  <metadata
     id="metadata24">
    <rdf:RDF>
      <cc:Work
         rdf:about="">
        <dc:format>image/svg+xml</dc:format>
        <dc:type
           rdf:resource="http://purl.org/dc/dcmitype/StillImage" />
        <dc:title />
      </cc:Work>
    </rdf:RDF>
  </metadata>
  <defs
     id="defs22">
    <linearGradient
       inkscape:collect="always"
       id="linearGradient7872">
      <stop
         style="stop-color:#ffffff;stop-opacity:0.5"
         offset="0"
         id="stop7868" />
      <stop
         style="stop-color:#000000;stop-opacity:1"
         offset="1"
         id="stop7870" />
    </linearGradient>
    <linearGradient
       id="linearGradient4248"
       inkscape:collect="always">
      <stop
         id="stop4250"
         offset="0"
         style="stop-color:#bee0ea;stop-opacity:0.18324608" />
      <stop
         id="stop4252"
         offset="1"
         style="stop-color:#ffffff;stop-opacity:0" />
    </linearGradient>
    <linearGradient
       inkscape:collect="always"
       id="linearGradient4553">
      <stop
         style="stop-color:#1f2329;stop-opacity:1"
         offset="0"
         id="stop4555" />
      <stop
         style="stop-color:#2d333d;stop-opacity:0;"
         offset="1"
         id="stop4557" />
    </linearGradient>
    <linearGradient
       inkscape:collect="always"
       id="linearGradient4540">
      <stop
         style="stop-color:#3d5673;stop-opacity:1"
         offset="0"
         id="stop4542" />
      <stop
         style="stop-color:#3a7690;stop-opacity:1"
         offset="1"
         id="stop4545" />
    </linearGradient>
    <linearGradient
       inkscape:collect="always"
       id="linearGradient4536">
      <stop
         style="stop-color:#b6b6b6;stop-opacity:1"
         offset="0"
         id="stop4538" />
      <stop
         id="stop4544"
         offset="0.48217213"
         style="stop-color:#ffffff;stop-opacity:1;" />
      <stop
         style="stop-color:#cfcfcf;stop-opacity:1"
         offset="1"
         id="stop4540" />
    </linearGradient>
    <linearGradient
       inkscape:collect="always"
       id="linearGradient4492">
      <stop
         style="stop-color:#165dc2;stop-opacity:1;"
         offset="0"
         id="stop4494" />
      <stop
         style="stop-color:#1680c2;stop-opacity:1"
         offset="1"
         id="stop4496" />
    </linearGradient>
    <inkscape:perspective
       sodipodi:type="inkscape:persp3d"
       inkscape:vp_x="0 : 50 : 1"
       inkscape:vp_y="0 : 1000 : 0"
       inkscape:vp_z="100 : 50 : 1"
       inkscape:persp3d-origin="50 : 33.333333 : 1"
       id="perspective4380" />
    <filter
       style="color-interpolation-filters:sRGB"
       id="filter4672"
       inkscape:label="filtro0">
      <feGaussianBlur
         stdDeviation="19.539999999999999"
         id="feGaussianBlur4674" />
    </filter>
    <filter
       style="color-interpolation-filters:sRGB"
       id="filter4680"
       inkscape:label="filtro1">
      <feDiffuseLighting
         id="feDiffuseLighting4682" />
    </filter>
    <linearGradient
       gradientTransform="translate(-29.321003,-3.241)"
       inkscape:collect="always"
       xlink:href="#linearGradient4492"
       id="linearGradient4498-3"
       x1="32.94767"
       y1="16.16"
       x2="41.579502"
       y2="6.4204984"
       gradientUnits="userSpaceOnUse" />
    <linearGradient
       gradientTransform="translate(-29.321003,-3.241)"
       inkscape:collect="always"
       xlink:href="#linearGradient4536"
       id="linearGradient4542-0"
       x1="29.321003"
       y1="10.72"
       x2="44.279003"
       y2="10.72"
       gradientUnits="userSpaceOnUse" />
    <linearGradient
       id="linearGradient3244"
       inkscape:collect="always">
      <stop
         id="stop3246"
         offset="0"
         style="stop-color:#d0611f;stop-opacity:1" />
      <stop
         id="stop3248"
         offset="1"
         style="stop-color:#f77a2c;stop-opacity:1" />
    </linearGradient>
    <linearGradient
       inkscape:collect="always"
       xlink:href="#linearGradient3244"
       id="linearGradient3242-3"
       gradientUnits="userSpaceOnUse"
       gradientTransform="matrix(0.49438202,0,0,0.49438202,-34.11236,-485.66219)"
       x1="78.89711"
       y1="1042.14"
       x2="78.89711"
       y2="982.4278" />
    <linearGradient
       inkscape:collect="always"
       xlink:href="#linearGradient4540"
       id="linearGradient4547"
       x1="36.958115"
       y1="44.530464"
       x2="36.958115"
       y2="20.017427"
       gradientUnits="userSpaceOnUse"
       gradientTransform="translate(0.10666666,-0.05333333)" />
    <linearGradient
       inkscape:collect="always"
       xlink:href="#linearGradient4553"
       id="linearGradient4559"
       x1="10.88"
       y1="23.786667"
       x2="40.746666"
       y2="23.786667"
       gradientUnits="userSpaceOnUse" />
    <linearGradient
       inkscape:collect="always"
       xlink:href="#linearGradient4248"
       id="linearGradient4246"
       gradientUnits="userSpaceOnUse"
       x1="8.2133341"
       y1="4"
       x2="19.093332"
       y2="15.84" />
    <linearGradient
       inkscape:collect="always"
       xlink:href="#linearGradient7872"
       id="linearGradient7874"
       x1="30.997219"
       y1="45.973331"
       x2="30.997219"
       y2="1.7066648"
       gradientUnits="userSpaceOnUse" />
    <filter
       inkscape:collect="always"
       style="color-interpolation-filters:sRGB"
       id="filter7990"
       x="-0.025846154"
       width="1.0516923"
       y="-0.0224"
       height="1.0448">
      <feGaussianBlur
         inkscape:collect="always"
         stdDeviation="0.4090489"
         id="feGaussianBlur7992" />
    </filter>
  </defs>
  <sodipodi:namedview
     pagecolor="#383c4a"
     bordercolor="#666666"
     borderopacity="1"
     objecttolerance="4"
     gridtolerance="10"
     guidetolerance="4"
     inkscape:pageopacity="0"
     inkscape:pageshadow="2"
     inkscape:window-width="640"
     inkscape:window-height="480"
     id="namedview20"
     showgrid="false"
     inkscape:zoom="18.75"
     inkscape:cx="34.980027"
     inkscape:cy="23.992651"
     inkscape:current-layer="layer7"
     inkscape:snap-smooth-nodes="true"
     showguides="true"
     borderlayer="true"
     inkscape:showpageshadow="false"
     inkscape:guide-bbox="true"
     guidecolor="#38cf02"
     guideopacity="0.49803922"
     inkscape:snap-nodes="true"
     inkscape:lockguides="true">
    <inkscape:grid
       type="xygrid"
       id="grid4171"
       empspacing="4"
       dotted="false" />
    <sodipodi:guide
       position="4,0"
       orientation="1,0"
       id="guide4173"
       inkscape:locked="true"
       inkscape:label=""
       inkscape:color="rgb(56,207,2)" />
    <sodipodi:guide
       position="44,0"
       orientation="1,0"
       id="guide4175"
       inkscape:locked="true"
       inkscape:label=""
       inkscape:color="rgb(56,207,2)" />
    <sodipodi:guide
       position="0,44"
       orientation="0,1"
       id="guide4177"
       inkscape:locked="true"
       inkscape:label=""
       inkscape:color="rgb(56,207,2)" />
    <sodipodi:guide
       position="0,4"
       orientation="0,1"
       id="guide4179"
       inkscape:locked="true"
       inkscape:label=""
       inkscape:color="rgb(56,207,2)" />
    <sodipodi:guide
       position="8,0"
       orientation="1,0"
       id="guide4243"
       inkscape:locked="true"
       inkscape:label=""
       inkscape:color="rgb(56,207,2)" />
    <sodipodi:guide
       position="40,0"
       orientation="1,0"
       id="guide4251"
       inkscape:locked="true"
       inkscape:label=""
       inkscape:color="rgb(56,207,2)" />
    <sodipodi:guide
       position="0,40"
       orientation="0,1"
       id="guide4514"
       inkscape:locked="true"
       inkscape:label=""
       inkscape:color="rgb(56,207,2)" />
    <sodipodi:guide
       position="0,8"
       orientation="0,1"
       id="guide4516"
       inkscape:locked="true"
       inkscape:label=""
       inkscape:color="rgb(56,207,2)" />
    <sodipodi:guide
       position="0,0"
       orientation="-0.70710678,0.70710678"
       id="guide5275"
       inkscape:locked="true"
       inkscape:label=""
       inkscape:color="rgb(56,207,2)" />
    <sodipodi:guide
       position="0,48"
       orientation="-0.70710678,-0.70710678"
       id="guide5277"
       inkscape:locked="true"
       inkscape:label=""
       inkscape:color="rgb(56,207,2)" />
  </sodipodi:namedview>
  <g
     inkscape:groupmode="layer"
     id="layer7"
     inkscape:label="workbench"
     style="display:inline">
    <rect
       style="color:#000000;clip-rule:nonzero;display:inline;overflow:visible;visibility:visible;opacity:1;isolation:auto;mix-blend-mode:normal;color-interpolation:sRGB;color-interpolation-filters:linearRGB;solid-color:#000000;solid-opacity:1;fill:#000000;fill-opacity:1;fill-rule:nonzero;stroke:none;stroke-width:0.99780649;stroke-linecap:butt;stroke-linejoin:miter;stroke-miterlimit:4;stroke-dasharray:none;stroke-dashoffset:0;stroke-opacity:1;marker:none;marker-start:none;marker-mid:none;marker-end:none;paint-order:normal;color-rendering:auto;image-rendering:auto;shape-rendering:auto;text-rendering:auto;enable-background:accumulate;filter:url(#filter7990)"
       id="rect4231"
       width="37.983112"
       height="43.826668"
       x="5.0084443"
       y="2.0866666"
       ry="3.8110144" />
    <rect
       style="color:#000000;clip-rule:nonzero;display:inline;overflow:visible;visibility:visible;opacity:1;isolation:auto;mix-blend-mode:normal;color-interpolation:sRGB;color-interpolation-filters:linearRGB;solid-color:#000000;solid-opacity:1;fill:#2d333d;fill-opacity:1;fill-rule:nonzero;stroke:none;stroke-width:1;stroke-linecap:butt;stroke-linejoin:miter;stroke-miterlimit:4;stroke-dasharray:none;stroke-dashoffset:0;stroke-opacity:1;marker:none;marker-start:none;marker-mid:none;marker-end:none;paint-order:normal;color-rendering:auto;image-rendering:auto;shape-rendering:auto;text-rendering:auto;enable-background:accumulate"
       id="rect4233"
       width="38"
       height="44"
       x="5"
       y="2"
       ry="3.826087" />
    <rect
       ry="3.826087"
       y="2"
       x="5"
       height="44"
       width="38"
       id="rect4551"
       style="color:#000000;clip-rule:nonzero;display:inline;overflow:visible;visibility:visible;opacity:1;isolation:auto;mix-blend-mode:normal;color-interpolation:sRGB;color-interpolation-filters:linearRGB;solid-color:#000000;solid-opacity:1;fill:url(#linearGradient4559);fill-opacity:1;fill-rule:nonzero;stroke:none;stroke-width:1;stroke-linecap:butt;stroke-linejoin:miter;stroke-miterlimit:4;stroke-dasharray:none;stroke-dashoffset:0;stroke-opacity:1;marker:none;marker-start:none;marker-mid:none;marker-end:none;paint-order:normal;color-rendering:auto;image-rendering:auto;shape-rendering:auto;text-rendering:auto;enable-background:accumulate" />
    <g
       aria-label="3.1415"
       style="font-style:normal;font-variant:normal;font-weight:normal;font-stretch:normal;line-height:0%;font-family:'Nokia Sans S60';-inkscape-font-specification:'Nokia Sans S60';text-align:end;letter-spacing:0px;word-spacing:0px;text-anchor:end;display:inline;fill:#dadcdc;fill-opacity:0.68062828;stroke:none"
       id="text3213-3">
      <path
         d="m 19.036752,9.2274947 q 0.561653,0.1200775 0.875404,0.4996772 0.317624,0.3796001 0.317624,0.9373791 0,0.856036 -0.588767,1.324725 -0.588767,0.46869 -1.673338,0.46869 -0.364106,0 -0.751452,-0.0736 -0.383473,-0.06972 -0.794061,-0.213041 v -0.755326 q 0.325371,0.1898 0.712718,0.286637 0.387347,0.09684 0.809555,0.09684 0.735958,0 1.119431,-0.29051 0.387347,-0.29051 0.387347,-0.844416 0,-0.511298 -0.360232,-0.7979343 -0.356359,-0.29051 -0.995481,-0.29051 H 17.421517 V 8.9331112 h 0.70497 q 0.577147,0 0.883151,-0.2285345 0.306004,-0.232408 0.306004,-0.6662363 0,-0.4454487 -0.317624,-0.6817302 -0.313751,-0.2401549 -0.902518,-0.2401549 -0.321498,0 -0.689477,0.069722 -0.36798,0.069722 -0.809555,0.2169141 v -0.697224 q 0.445449,-0.1239509 0.832795,-0.1859264 0.391221,-0.061975 0.735959,-0.061975 0.890898,0 1.409942,0.406714 0.519045,0.4028405 0.519045,1.0923176 0,0.4803099 -0.275017,0.813428 -0.275016,0.3292447 -0.78244,0.4570691 z"
         style="font-style:normal;font-variant:normal;font-weight:normal;font-stretch:normal;font-size:7.9328599px;line-height:1.25;font-family:'Century Gothic';-inkscape-font-specification:'Century Gothic';text-align:end;letter-spacing:-0.52079028px;text-anchor:end;fill:#dadcdc;fill-opacity:0.68062828"
         id="path7961"
         inkscape:connector-curvature="0" />
      <path
         d="m 21.196401,11.361775 h 0.817302 v 0.98386 h -0.817302 z"
         style="font-style:normal;font-variant:normal;font-weight:normal;font-stretch:normal;font-size:7.9328599px;line-height:1.25;font-family:'Century Gothic';-inkscape-font-specification:'Century Gothic';text-align:end;letter-spacing:-0.52079028px;text-anchor:end;fill:#dadcdc;fill-opacity:0.68062828"
         id="path7963"
         inkscape:connector-curvature="0" />
      <path
         d="m 23.336682,11.687146 h 1.278244 V 7.2752674 L 23.224352,7.554157 V 6.8414392 l 1.382827,-0.2788896 h 0.78244 v 5.1245964 h 1.278244 v 0.658489 h -3.331181 z"
         style="font-style:normal;font-variant:normal;font-weight:normal;font-stretch:normal;font-size:7.9328599px;line-height:1.25;font-family:'Century Gothic';-inkscape-font-specification:'Century Gothic';text-align:end;letter-spacing:-0.52079028px;text-anchor:end;fill:#dadcdc;fill-opacity:0.68062828"
         id="path7965"
         inkscape:connector-curvature="0" />
      <path
         d="m 29.881095,7.2442797 -1.975468,3.0871533 h 1.975468 z M 29.675801,6.5625496 h 0.983861 v 3.7688834 h 0.825048 v 0.650742 h -0.825048 v 1.36346 h -0.778567 v -1.36346 h -2.610717 v -0.755326 z"
         style="font-style:normal;font-variant:normal;font-weight:normal;font-stretch:normal;font-size:7.9328599px;line-height:1.25;font-family:'Century Gothic';-inkscape-font-specification:'Century Gothic';text-align:end;letter-spacing:-0.52079028px;text-anchor:end;fill:#dadcdc;fill-opacity:0.68062828"
         id="path7967"
         inkscape:connector-curvature="0" />
      <path
         d="m 32.397103,11.687146 h 1.278244 V 7.2752674 L 32.284772,7.554157 V 6.8414392 L 33.6676,6.5625496 h 0.78244 v 5.1245964 h 1.278244 v 0.658489 h -3.331181 z"
         style="font-style:normal;font-variant:normal;font-weight:normal;font-stretch:normal;font-size:7.9328599px;line-height:1.25;font-family:'Century Gothic';-inkscape-font-specification:'Century Gothic';text-align:end;letter-spacing:-0.52079028px;text-anchor:end;fill:#dadcdc;fill-opacity:0.68062828"
         id="path7969"
         inkscape:connector-curvature="0" />
      <path
         d="m 36.799489,6.5625496 h 3.071659 V 7.2210389 H 37.51608 v 1.4176888 q 0.170433,-0.058102 0.340865,-0.085216 0.170433,-0.030988 0.340865,-0.030988 0.968367,0 1.533893,0.530665 0.565526,0.5306649 0.565526,1.4370563 0,0.933505 -0.58102,1.45255 -0.58102,0.515171 -1.638476,0.515171 -0.364106,0 -0.743706,-0.06198 -0.375726,-0.06197 -0.778567,-0.185926 v -0.78631 q 0.348612,0.1898 0.720465,0.282763 0.371853,0.09296 0.786314,0.09296 0.67011,0 1.06133,-0.352486 0.39122,-0.352485 0.39122,-0.956746 0,-0.604261 -0.39122,-0.9567464 -0.39122,-0.3524855 -1.06133,-0.3524855 -0.313751,0 -0.627502,0.069722 -0.309877,0.069722 -0.635248,0.2169141 z"
         style="font-style:normal;font-variant:normal;font-weight:normal;font-stretch:normal;font-size:7.9328599px;line-height:1.25;font-family:'Century Gothic';-inkscape-font-specification:'Century Gothic';text-align:end;letter-spacing:-0.52079028px;text-anchor:end;fill:#dadcdc;fill-opacity:0.68062828"
         id="path7971"
         inkscape:connector-curvature="0" />
    </g>
    <path
       style="color:#000000;clip-rule:nonzero;display:inline;overflow:visible;visibility:visible;opacity:1;isolation:auto;mix-blend-mode:normal;color-interpolation:sRGB;color-interpolation-filters:linearRGB;solid-color:#000000;solid-opacity:1;fill:#1f2329;fill-opacity:1;fill-rule:nonzero;stroke:none;stroke-width:1;stroke-linecap:butt;stroke-linejoin:miter;stroke-miterlimit:4;stroke-dasharray:none;stroke-dashoffset:0;stroke-opacity:1;marker:none;marker-start:none;marker-mid:none;marker-end:none;paint-order:normal;color-rendering:auto;image-rendering:auto;shape-rendering:auto;text-rendering:auto;enable-background:accumulate"
       d="M 33.681821,19.650478 V 46 H 9.0064516 C 6.7868774,46 5,44.213123 5,41.993548 v -22.34307 z"
       id="rect4521"
       inkscape:connector-curvature="0"
       sodipodi:nodetypes="ccsscc" />
    <path
       style="color:#000000;clip-rule:nonzero;display:inline;overflow:visible;visibility:visible;opacity:1;isolation:auto;mix-blend-mode:normal;color-interpolation:sRGB;color-interpolation-filters:linearRGB;solid-color:#000000;solid-opacity:1;fill:url(#linearGradient4547);fill-opacity:1;fill-rule:nonzero;stroke:none;stroke-width:1;stroke-linecap:butt;stroke-linejoin:miter;stroke-miterlimit:4;stroke-dasharray:none;stroke-dashoffset:0;stroke-opacity:1;marker:none;marker-start:none;marker-mid:none;marker-end:none;paint-order:normal;color-rendering:auto;image-rendering:auto;shape-rendering:auto;text-rendering:auto;enable-background:accumulate"
       d="m 42.955819,19.689435 v 22.627904 c 0,2.010648 -1.618681,3.629328 -3.629328,3.629328 -2.698914,0.249595 -5.558429,0.06897 -5.558429,0.06897 V 19.689432 Z"
       id="rect4538"
       inkscape:connector-curvature="0"
       sodipodi:nodetypes="cscccc" />
    <path
       inkscape:connector-curvature="0"
       style="display:inline;opacity:0.1;fill:#ffffff;fill-opacity:1;stroke:none"
       d="m 5.0298779,25.971257 v 0.475556 H 42.940148 v -0.475556 z"
       id="path3264-9" />
    <path
       id="path3266-1"
       d="m 5.0298779,32.058331 v 0.475556 H 42.940148 v -0.475556 z"
       style="display:inline;opacity:0.1;fill:#ffffff;fill-opacity:1;stroke:none"
       inkscape:connector-curvature="0" />
    <path
       inkscape:connector-curvature="0"
       style="display:inline;opacity:0.1;fill:#ffffff;fill-opacity:1;stroke:none"
       d="m 5.0298779,38.145453 v 0.475556 H 42.940148 v -0.475556 z"
       id="path3268-2" />
    <path
       inkscape:connector-curvature="0"
       style="display:inline;opacity:0.2;fill:#000000;fill-opacity:1;stroke:none"
       d="m 5.029877,25.495707 v 0.475557 h 37.910271 v -0.475557 z"
       id="path3250-7" />
    <path
       id="path3252-0"
       d="m 5.029877,31.582781 v 0.475557 h 37.910271 v -0.475557 z"
       style="display:inline;opacity:0.2;fill:#000000;fill-opacity:1;stroke:none"
       inkscape:connector-curvature="0" />
    <path
       inkscape:connector-curvature="0"
       style="display:inline;opacity:0.2;fill:#000000;fill-opacity:1;stroke:none"
       d="M 5.029877,37.669903 V 38.14546 H 42.940148 V 37.669903 Z"
       id="path3254-9" />
    <path
       id="path3271-6"
       d="M 23.698018,19.981788 V 46.1182 h 0.475557 V 19.981788 Z"
       style="display:inline;opacity:0.2;fill:#000000;fill-opacity:1;stroke:none"
       inkscape:connector-curvature="0" />
    <path
       inkscape:connector-curvature="0"
       style="display:inline;opacity:0.2;fill:#000000;fill-opacity:1;stroke:none"
       d="M 13.711333,19.906363 V 38.745501 H 14.18689 V 19.906363 Z"
       id="path3275-6" />
    <path
       inkscape:connector-curvature="0"
       style="display:inline;opacity:0.1;fill:#ffffff;fill-opacity:1;stroke:none"
       d="m 24.173575,19.981784 v 26.13641 h 0.475556 v -26.13641 z"
       id="path3292-2" />
    <path
       id="path3297-1"
       d="m 14.186891,19.906359 v 18.80582 h 0.475556 v -18.80582 z"
       style="display:inline;opacity:0.1;fill:#ffffff;fill-opacity:1;stroke:none"
       inkscape:connector-curvature="0" />
    <path
       inkscape:connector-curvature="0"
       id="path7899"
       style="font-style:normal;font-variant:normal;font-weight:normal;font-stretch:normal;font-size:2.85333848px;line-height:1.25;font-family:'Liberation Sans';-inkscape-font-specification:'Liberation Sans';text-align:center;letter-spacing:0px;word-spacing:0px;text-anchor:middle;fill:#ffffff;fill-opacity:1;stroke:none"
       d="M 9.6811807,21.929672 Q 9.3802427,22.389438 9.256245,22.649973 9.1322474,22.910507 9.069552,23.164075 9.00825,23.417643 9.00825,23.689323 H 8.7463222 q 0,-0.376172 0.1588285,-0.791355 0.1602216,-0.416576 0.5336077,-0.958544 H 8.384082 V 21.72626 h 1.2970987 z" />
    <path
       inkscape:connector-curvature="0"
       id="path7902"
       style="font-style:normal;font-variant:normal;font-weight:normal;font-stretch:normal;font-size:2.85333848px;line-height:1.25;font-family:'Liberation Sans';-inkscape-font-specification:'Liberation Sans';text-align:center;letter-spacing:0px;word-spacing:0px;text-anchor:middle;fill:#ffffff;fill-opacity:1;stroke:none"
       d="M 9.4652298,29.554539 V 29.99898 H 9.2283804 V 29.554539 H 8.3032746 V 29.359486 L 9.201909,28.035916 H 9.4652298 V 29.3567 h 0.2758599 v 0.197839 z M 9.2283804,28.318742 q -0.00279,0.0084 -0.03901,0.07384 -0.036224,0.06548 -0.054336,0.09195 l -0.5029567,0.741199 -0.075234,0.103099 -0.022292,0.02786 h 0.6938294 z" />
    <path
       inkscape:connector-curvature="0"
       id="path7905"
       style="font-style:normal;font-variant:normal;font-weight:normal;font-stretch:normal;font-size:2.85333848px;line-height:1.25;font-family:'Liberation Sans';-inkscape-font-specification:'Liberation Sans';text-align:center;letter-spacing:0px;word-spacing:0px;text-anchor:middle;fill:#ffffff;fill-opacity:1;stroke:none"
       d="M 8.4551368,35.904106 V 35.690942 H 8.955307 v -1.510263 l -0.4430477,0.316263 v -0.236849 l 0.4639462,-0.31905 h 0.2312764 v 1.749899 h 0.4778785 v 0.213164 z" />
    <path
       inkscape:connector-curvature="0"
       id="path7908"
       style="font-style:normal;font-variant:normal;font-weight:normal;font-stretch:normal;font-size:2.85333848px;line-height:1.25;font-family:'Liberation Sans';-inkscape-font-specification:'Liberation Sans';text-align:center;letter-spacing:0px;word-spacing:0px;text-anchor:middle;fill:#ffffff;fill-opacity:1;stroke:none"
       d="m 9.4869486,42.289252 q 0,0.491811 -0.1741539,0.750952 -0.1727608,0.259141 -0.5113161,0.259141 -0.3385553,0 -0.5085295,-0.257748 -0.1699743,-0.257748 -0.1699743,-0.752345 0,-0.505743 0.1644014,-0.757918 0.1657945,-0.252175 0.5224618,-0.252175 0.3469147,0 0.5113161,0.254962 0.1657945,0.254961 0.1657945,0.755131 z m -0.2549614,0 q 0,-0.424935 -0.098919,-0.615808 -0.097526,-0.190873 -0.3232298,-0.190873 -0.2312764,0 -0.3329823,0.188086 -0.1003127,0.188087 -0.1003127,0.618595 0,0.41797 0.1017059,0.611629 0.1030991,0.193659 0.3260162,0.193659 0.2215238,0 0.324623,-0.197839 0.1030991,-0.197839 0.1030987,-0.607449 z" />
    <path
       inkscape:connector-curvature="0"
       id="path7911"
       style="font-style:normal;font-variant:normal;font-weight:normal;font-stretch:normal;font-size:2.85333848px;line-height:1.25;font-family:'Liberation Sans';-inkscape-font-specification:'Liberation Sans';text-align:center;letter-spacing:0px;word-spacing:0px;text-anchor:middle;fill:#ffffff;fill-opacity:1;stroke:none"
       d="m 18.248575,35.904106 v -0.17694 q 0.07105,-0.163008 0.17276,-0.287006 0.103099,-0.125391 0.215951,-0.225704 0.112852,-0.101705 0.222917,-0.188086 0.111459,-0.08638 0.200626,-0.172761 0.08917,-0.08638 0.143503,-0.18112 0.05573,-0.09474 0.05573,-0.214557 0,-0.161615 -0.09474,-0.250782 -0.09474,-0.08917 -0.263321,-0.08917 -0.160221,0 -0.264714,0.08777 -0.103099,0.08638 -0.121211,0.243815 l -0.256355,-0.02369 q 0.02786,-0.235456 0.199233,-0.374779 0.17276,-0.139323 0.443047,-0.139323 0.296759,0 0.455587,0.140716 0.160222,0.139323 0.160222,0.397071 0,0.114245 -0.05294,0.227097 -0.05155,0.112852 -0.154649,0.225704 -0.103099,0.112851 -0.394284,0.349701 -0.160222,0.130963 -0.254962,0.236849 -0.09474,0.104492 -0.136537,0.202019 h 1.024026 v 0.213164 z" />
    <path
       inkscape:connector-curvature="0"
       id="path7914"
       style="font-style:normal;font-variant:normal;font-weight:normal;font-stretch:normal;font-size:2.85333848px;line-height:1.25;font-family:'Liberation Sans';-inkscape-font-specification:'Liberation Sans';text-align:center;letter-spacing:0px;word-spacing:0px;text-anchor:middle;fill:#ffffff;fill-opacity:1;stroke:none"
       d="m 29.730917,35.362139 q 0,0.27168 -0.172761,0.420756 -0.172761,0.149076 -0.493204,0.149076 -0.298152,0 -0.476485,-0.13375 -0.176941,-0.135144 -0.210378,-0.398465 l 0.259141,-0.02368 q 0.05016,0.348308 0.427722,0.348308 0.189479,0 0.296758,-0.09335 0.108672,-0.09335 0.108672,-0.277253 0,-0.160222 -0.123997,-0.249389 -0.122605,-0.09056 -0.355274,-0.09056 h -0.14211 v -0.217344 h 0.136537 q 0.206198,0 0.31905,-0.08917 0.114245,-0.09056 0.114245,-0.249388 0,-0.157436 -0.09335,-0.247996 -0.09195,-0.09195 -0.274467,-0.09195 -0.165794,0 -0.268893,0.08499 -0.101706,0.08499 -0.118425,0.239636 l -0.252175,-0.0195 q 0.02787,-0.241029 0.199232,-0.376173 0.172761,-0.135143 0.443048,-0.135143 0.295365,0 0.458373,0.13793 0.164402,0.136536 0.164402,0.381745 0,0.188087 -0.105886,0.306511 -0.104492,0.117032 -0.305118,0.158829 v 0.0056 q 0.220131,0.02369 0.342735,0.147682 0.122605,0.123998 0.122605,0.312084 z" />
    <path
       inkscape:connector-curvature="0"
       id="path7917"
       style="font-style:normal;font-variant:normal;font-weight:normal;font-stretch:normal;font-size:2.85333848px;line-height:1.25;font-family:'Liberation Sans';-inkscape-font-specification:'Liberation Sans';text-align:center;letter-spacing:0px;word-spacing:0px;text-anchor:middle;fill:#ffffff;fill-opacity:1;stroke:none"
       d="m 19.572145,29.359486 q 0,0.310691 -0.1853,0.489025 -0.183907,0.178333 -0.511316,0.178333 -0.274467,0 -0.443048,-0.119818 -0.168581,-0.119818 -0.213164,-0.346914 l 0.253568,-0.02926 q 0.07941,0.291185 0.408217,0.291185 0.202018,0 0.316263,-0.121211 0.114245,-0.122604 0.114245,-0.335769 0,-0.1853 -0.115638,-0.299545 -0.114245,-0.114245 -0.309297,-0.114245 -0.101706,0 -0.18948,0.03205 -0.08777,0.03204 -0.175547,0.108672 h -0.245209 l 0.06548,-1.05607 H 19.4579 v 0.213165 h -0.887489 l -0.03762,0.622774 q 0.163008,-0.125391 0.40543,-0.125391 0.289792,0 0.46116,0.169975 0.172761,0.169974 0.172761,0.443047 z" />
    <path
       inkscape:connector-curvature="0"
       id="path7920"
       style="font-style:normal;font-variant:normal;font-weight:normal;font-stretch:normal;font-size:2.85333848px;line-height:1.25;font-family:'Liberation Sans';-inkscape-font-specification:'Liberation Sans';text-align:center;letter-spacing:0px;word-spacing:0px;text-anchor:middle;fill:#ffffff;fill-opacity:1;stroke:none"
       d="m 29.730917,29.328835 q 0,0.310691 -0.168581,0.490418 -0.168582,0.179727 -0.46534,0.179727 -0.331589,0 -0.507136,-0.246602 -0.175547,-0.246602 -0.175547,-0.717515 0,-0.509922 0.182513,-0.782996 0.182513,-0.273073 0.519675,-0.273073 0.444441,0 0.56008,0.399857 l -0.239636,0.04319 q -0.07384,-0.239635 -0.32323,-0.239635 -0.214558,0 -0.332982,0.200625 -0.117032,0.199232 -0.117032,0.578191 0.06827,-0.126784 0.192266,-0.192266 0.123998,-0.06687 0.284219,-0.06687 0.27168,0 0.430509,0.169974 0.160222,0.169975 0.160222,0.45698 z m -0.254962,0.01115 q 0,-0.213164 -0.104492,-0.328803 -0.104493,-0.115638 -0.291186,-0.115638 -0.175547,0 -0.284219,0.103099 -0.107279,0.101706 -0.107279,0.281433 0,0.227097 0.111459,0.371993 0.112852,0.144896 0.288399,0.144896 0.18112,0 0.284219,-0.121211 0.103099,-0.122604 0.103099,-0.335769 z" />
    <path
       inkscape:connector-curvature="0"
       id="path7923"
       style="font-style:normal;font-variant:normal;font-weight:normal;font-stretch:normal;font-size:2.85333848px;line-height:1.25;font-family:'Liberation Sans';-inkscape-font-specification:'Liberation Sans';text-align:center;letter-spacing:0px;word-spacing:0px;text-anchor:middle;fill:#ffffff;fill-opacity:1;stroke:none"
       d="m 19.567965,23.141783 q 0,0.271681 -0.172761,0.423543 -0.17276,0.151862 -0.49599,0.151862 -0.314871,0 -0.493204,-0.149076 -0.176941,-0.149076 -0.176941,-0.423542 0,-0.192266 0.110066,-0.32323 0.110065,-0.130964 0.281432,-0.158828 v -0.0056 q -0.160221,-0.03762 -0.253568,-0.163008 -0.09195,-0.125391 -0.09195,-0.293972 0,-0.224311 0.167188,-0.363634 0.168581,-0.139323 0.451407,-0.139323 0.289792,0 0.45698,0.136537 0.168581,0.136537 0.168581,0.369206 0,0.168581 -0.09335,0.293972 -0.09335,0.125391 -0.254961,0.157435 v 0.0056 q 0.188086,0.03065 0.292579,0.160222 0.104492,0.128177 0.104492,0.321836 z m -0.309297,-0.925105 q 0,-0.332983 -0.365027,-0.332983 -0.176941,0 -0.270287,0.08359 -0.09195,0.08359 -0.09195,0.249389 0,0.168581 0.09474,0.257747 0.09613,0.08777 0.270287,0.08777 0.176941,0 0.268894,-0.08081 0.09335,-0.0822 0.09335,-0.264714 z m 0.04876,0.90142 q 0,-0.182513 -0.108672,-0.274466 -0.108672,-0.09335 -0.305118,-0.09335 -0.190873,0 -0.298152,0.100313 -0.107279,0.09892 -0.107279,0.273073 0,0.405431 0.41379,0.405431 0.204805,0 0.305118,-0.09753 0.100313,-0.09892 0.100313,-0.313478 z" />
    <path
       inkscape:connector-curvature="0"
       id="path7926"
       style="font-style:normal;font-variant:normal;font-weight:normal;font-stretch:normal;font-size:2.85333848px;line-height:1.25;font-family:'Liberation Sans';-inkscape-font-specification:'Liberation Sans';text-align:center;letter-spacing:0px;word-spacing:0px;text-anchor:middle;fill:#ffffff;fill-opacity:1;stroke:none"
       d="m 29.721164,22.640218 q 0,0.505743 -0.1853,0.777424 -0.183906,0.27168 -0.525248,0.27168 -0.229883,0 -0.369207,-0.09613 -0.13793,-0.09753 -0.197839,-0.313477 l 0.239636,-0.03762 q 0.07524,0.245209 0.331589,0.245209 0.215951,0 0.334376,-0.200625 0.118425,-0.200626 0.123998,-0.572618 -0.05573,0.12539 -0.190873,0.202018 -0.135144,0.07524 -0.296758,0.07524 -0.264714,0 -0.423543,-0.18112 -0.158828,-0.181121 -0.158828,-0.480665 0,-0.307905 0.17276,-0.483452 0.172761,-0.17694 0.480665,-0.17694 0.32741,0 0.495991,0.242422 0.168581,0.242422 0.168581,0.72866 z m -0.273073,-0.242422 q 0,-0.236849 -0.108673,-0.380352 -0.108672,-0.144896 -0.291185,-0.144896 -0.18112,0 -0.285612,0.123997 -0.104493,0.122605 -0.104493,0.332983 0,0.214557 0.104493,0.339948 0.104492,0.123998 0.282826,0.123998 0.108672,0 0.202018,-0.04876 0.09335,-0.05016 0.146289,-0.140717 0.05434,-0.09056 0.05434,-0.206198 z" />
    <path
       inkscape:connector-curvature="0"
       id="path7929"
       style="font-style:normal;font-variant:normal;font-weight:normal;font-stretch:normal;font-size:2.853338px;line-height:1.25;font-family:'Liberation Sans';-inkscape-font-specification:'Liberation Sans';text-align:center;letter-spacing:0px;word-spacing:0px;text-anchor:middle;fill:#e6e6e6;fill-opacity:1;stroke:none"
       d="m 38.075455,35.425731 v -0.203412 h 1.386265 v 0.203412 z" />
    <path
       inkscape:connector-curvature="0"
       id="path7932"
       style="font-style:normal;font-variant:normal;font-weight:normal;font-stretch:normal;font-size:2.85333848px;line-height:1.25;font-family:'Liberation Sans';-inkscape-font-specification:'Liberation Sans';text-align:center;letter-spacing:0px;word-spacing:0px;text-anchor:middle;fill:#e6e6e6;fill-opacity:1;stroke:none"
       d="m 38.870989,23.028142 v 0.596303 h -0.204805 v -0.596303 h -0.59073 V 22.82473 h 0.59073 v -0.596303 h 0.204805 v 0.596303 h 0.59073 v 0.203412 z" />
    <path
       inkscape:connector-curvature="0"
       id="path7935"
       style="font-style:normal;font-variant:normal;font-weight:normal;font-stretch:normal;font-size:2.85333848px;line-height:1.25;font-family:'Liberation Sans';-inkscape-font-specification:'Liberation Sans';text-align:center;letter-spacing:0px;word-spacing:0px;text-anchor:middle;fill:#e6e6e6;fill-opacity:1;stroke:none"
       d="m 38.769077,29.125266 -0.42165,0.42165 -0.144819,-0.144819 0.42165,-0.42165 -0.417709,-0.417709 0.143834,-0.143834 0.417709,0.41771 0.42165,-0.42165 0.144819,0.144819 -0.42165,0.42165 0.41771,0.417709 -0.143834,0.143834 z" />
    <path
       inkscape:connector-curvature="0"
       id="path7938"
       style="font-style:normal;font-variant:normal;font-weight:normal;font-stretch:normal;font-size:4.96936369px;line-height:1.25;font-family:'Liberation Sans';-inkscape-font-specification:'Liberation Sans';text-align:center;letter-spacing:0px;word-spacing:0px;text-anchor:middle;fill:#ffffff;fill-opacity:1;stroke:none"
       d="m 28.928413,42.064686 v -0.531392 h 0.473157 v 0.531392 z" />
    <path
       inkscape:connector-curvature="0"
       id="path7941"
       style="font-style:normal;font-variant:normal;font-weight:normal;font-stretch:normal;font-size:3.2718339px;line-height:1.25;font-family:'Liberation Sans';-inkscape-font-specification:'Liberation Sans';text-align:center;letter-spacing:0px;word-spacing:0px;text-anchor:middle;fill:#e6e6e6;fill-opacity:1;stroke:none"
       d="m 38.022839,42.173939 v -0.248585 h 1.491505 v 0.248585 z" />
    <path
       inkscape:connector-curvature="0"
       id="path7896"
       style="font-style:normal;font-variant:normal;font-weight:normal;font-stretch:normal;font-size:3.2718339px;line-height:1.25;font-family:'Liberation Sans';-inkscape-font-specification:'Liberation Sans';text-align:center;letter-spacing:0px;word-spacing:0px;text-anchor:middle;fill:#e6e6e6;fill-opacity:1;stroke:none"
       d="m 38.022839,43.155018 v -0.248585 h 1.491505 v 0.248585 z" />
    <path
       id="path4561"
       d="m 5.0298779,20.197529 v 0.475556 H 42.940148 v -0.475556 z"
       style="display:inline;opacity:0.1;fill:#ffffff;fill-opacity:1;stroke:none"
       inkscape:connector-curvature="0" />
    <path
       id="path4563"
       d="m 5.029877,19.721979 v 0.475557 h 37.910271 v -0.475557 z"
       style="display:inline;opacity:0.2;fill:#000000;fill-opacity:1;stroke:none"
       inkscape:connector-curvature="0" />
    <path
       style="color:#000000;clip-rule:nonzero;display:inline;overflow:visible;visibility:visible;opacity:1;isolation:auto;mix-blend-mode:normal;color-interpolation:sRGB;color-interpolation-filters:linearRGB;solid-color:#000000;solid-opacity:1;fill:url(#linearGradient4246);fill-opacity:1;fill-rule:nonzero;stroke:none;stroke-width:1;stroke-linecap:butt;stroke-linejoin:miter;stroke-miterlimit:4;stroke-dasharray:none;stroke-dashoffset:0;stroke-opacity:1;marker:none;marker-start:none;marker-mid:none;marker-end:none;paint-order:normal;color-rendering:auto;image-rendering:auto;shape-rendering:auto;text-rendering:auto;enable-background:accumulate"
       d="M 8.826087,2 H 39.173913 C 41.293565,2 43,3.7064348 43,5.826087 V 19.747246 H 5 V 5.826087 C 5,3.7064348 6.7064348,2 8.826087,2 Z"
       id="rect4241"
       inkscape:connector-curvature="0"
       sodipodi:nodetypes="sssccss" />
    <path
       style="color:#000000;clip-rule:nonzero;display:inline;overflow:visible;visibility:visible;opacity:1;isolation:auto;mix-blend-mode:normal;color-interpolation:sRGB;color-interpolation-filters:linearRGB;solid-color:#000000;solid-opacity:1;fill:none;fill-opacity:1;fill-rule:nonzero;stroke:url(#linearGradient7874);stroke-width:0.39888641;stroke-linecap:butt;stroke-linejoin:miter;stroke-miterlimit:4;stroke-dasharray:none;stroke-dashoffset:0;stroke-opacity:0.359375;marker:none;marker-start:none;marker-mid:none;marker-end:none;paint-order:normal;color-rendering:auto;image-rendering:auto;shape-rendering:auto;text-rendering:auto;enable-background:accumulate"
       d="M 8.9024019,2.1106458 H 39.097597 c 2.108992,0 3.806844,1.6978525 3.806844,3.8068442 v 36.165017 c 0,2.108992 -1.697852,3.806844 -3.806844,3.806844 H 8.9024019 c -2.1089917,0 -3.8068442,-1.697852 -3.8068442,-3.806844 V 5.91749 c 0,-2.1089917 1.6978525,-3.8068442 3.8068442,-3.8068442 z"
       id="rect7858"
       inkscape:connector-curvature="0" />
  </g>
</svg>
