<?xml version="1.0" encoding="UTF-8" standalone="no"?>
<svg
   xmlns:dc="http://purl.org/dc/elements/1.1/"
   xmlns:cc="http://creativecommons.org/ns#"
   xmlns:rdf="http://www.w3.org/1999/02/22-rdf-syntax-ns#"
   xmlns:svg="http://www.w3.org/2000/svg"
   xmlns="http://www.w3.org/2000/svg"
   xmlns:sodipodi="http://sodipodi.sourceforge.net/DTD/sodipodi-0.dtd"
   xmlns:inkscape="http://www.inkscape.org/namespaces/inkscape"
   width="48"
   height="48"
   viewBox="0 0 48.000002 47.999999"
   overflow="visible"
   version="1.1"
   id="svg13"
   sodipodi:docname="filezilla.svg"
   style="overflow:visible"
   inkscape:version="0.92.1 r">
  <metadata
     id="metadata19">
    <rdf:RDF>
      <cc:Work
         rdf:about="">
        <dc:format>image/svg+xml</dc:format>
        <dc:type
           rdf:resource="http://purl.org/dc/dcmitype/StillImage" />
        <dc:title></dc:title>
      </cc:Work>
    </rdf:RDF>
  </metadata>
  <defs
     id="defs17" />
  <sodipodi:namedview
     pagecolor="#ffffff"
     bordercolor="#666666"
     borderopacity="1"
     objecttolerance="10"
     gridtolerance="10"
     guidetolerance="10"
     inkscape:pageopacity="0"
     inkscape:pageshadow="2"
     inkscape:window-width="640"
     inkscape:window-height="480"
     id="namedview15"
     showgrid="false"
     inkscape:zoom="1.7698835"
     inkscape:cx="208.05778"
     inkscape:cy="155.09495"
     inkscape:current-layer="svg13" />
  <g
     id="g4502"
     transform="matrix(0.12106069,0,0,0.12106069,1.0001696,41.197625)">
    <g
       id="g11"
       transform="matrix(2.17444,0,0,2.17437,-218.687,-555.42301)">
      <linearGradient
         gradientUnits="userSpaceOnUse"
         y2="258.86499"
         y1="123.859"
         x2="187.94701"
         x1="187.94701"
         id="a">
        <stop
           id="stop2"
           stop-color="#BF0000"
           offset="0" />
        <stop
           id="stop4"
           stop-color="#8F0000"
           offset="1" />
      </linearGradient>
      <path
         style="fill:url(#a)"
         inkscape:connector-curvature="0"
         id="path7"
         d="m 100.572,108.605 v 7.715 c 3.226,0 5.85,2.625 5.85,5.85 0,3.227 -2.624,5.852 -5.85,5.852 v 7.715 c 3.226,0 5.85,2.625 5.85,5.85 0,3.227 -2.624,5.852 -5.85,5.852 v 7.71 c 3.226,0 5.85,2.62 5.85,5.85 0,3.23 -2.624,5.85 -5.85,5.85 v 7.71 c 3.226,0 5.85,2.62 5.85,5.85 0,3.224 -2.624,5.85 -5.85,5.85 v 7.712 c 3.226,0 5.85,2.623 5.85,5.85 0,3.227 -2.624,5.852 -5.85,5.852 v 7.712 c 3.226,0 5.85,2.62 5.85,5.85 0,3.225 -2.624,5.85 -5.85,5.85 v 7.715 c 3.226,0 5.85,2.624 5.85,5.85 0,3.228 -2.624,5.853 -5.85,5.853 v 7.713 c 3.226,0 5.85,2.623 5.85,5.85 0,3.227 -2.624,5.85 -5.85,5.85 v 7.72 c 1.54,0 3.048,0.624 4.138,1.714 1.088,1.086 1.713,2.594 1.713,4.135 h 7.715 c 0,-3.228 2.625,-5.85 5.85,-5.85 3.227,0 5.852,2.622 5.852,5.85 h 7.715 c 0,-3.228 2.625,-5.85 5.85,-5.85 3.227,0 5.852,2.622 5.852,5.85 h 7.715 c 0,-3.228 2.625,-5.85 5.85,-5.85 3.227,0 5.852,2.622 5.852,5.85 h 7.715 c 0,-3.228 2.62,-5.85 5.85,-5.85 3.22,0 5.85,2.622 5.85,5.85 h 7.71 c 0,-3.228 2.62,-5.85 5.85,-5.85 3.22,0 5.85,2.622 5.85,5.85 h 7.71 c 0,-3.228 2.62,-5.85 5.85,-5.85 3.22,0 5.85,2.622 5.85,5.85 h 7.71 c 0,-3.228 2.623,-5.85 5.85,-5.85 3.225,0 5.85,2.622 5.85,5.85 h 7.715 c 0,-3.228 2.626,-5.85 5.85,-5.85 3.23,0 5.853,2.622 5.853,5.85 h 7.72 c 0,-1.54 0.625,-3.05 1.715,-4.138 1.09,-1.09 2.594,-1.714 4.135,-1.714 v -7.716 c -3.224,0 -5.85,-2.626 -5.85,-5.85 0,-3.23 2.627,-5.85 5.854,-5.85 V 244.5 c -3.23,0 -5.854,-2.628 -5.854,-5.855 0,-3.227 2.63,-5.85 5.856,-5.85 v -7.71 c -3.228,0 -5.853,-2.626 -5.853,-5.853 0,-3.225 2.628,-5.85 5.855,-5.85 v -7.71 c -3.226,0 -5.85,-2.624 -5.85,-5.85 0,-3.228 2.625,-5.85 5.852,-5.85 v -7.716 c -3.23,0 -5.855,-2.623 -5.855,-5.85 0,-3.223 2.627,-5.85 5.854,-5.85 v -7.71 c -3.23,0 -5.854,-2.626 -5.854,-5.855 0,-3.23 2.626,-5.85 5.853,-5.85 v -7.713 c -3.23,0 -5.854,-2.626 -5.854,-5.853 0,-3.224 2.627,-5.85 5.854,-5.85 v -7.714 c -3.23,0 -5.855,-2.625 -5.855,-5.85 0,-3.228 2.626,-5.85 5.853,-5.85 v -7.72 c -1.54,0 -3.05,-0.627 -4.14,-1.715 -1.09,-1.09 -1.714,-2.6 -1.714,-4.14 h -7.71 c 0,3.227 -2.625,5.852 -5.85,5.852 -3.227,0 -5.85,-2.626 -5.85,-5.853 h -7.716 c 0,3.226 -2.624,5.85 -5.85,5.85 -3.226,0 -5.85,-2.625 -5.85,-5.852 h -7.715 c 0,3.228 -2.63,5.853 -5.856,5.853 -3.226,0 -5.85,-2.626 -5.85,-5.853 h -7.71 c 0,3.226 -2.622,5.85 -5.85,5.85 -3.224,0 -5.85,-2.625 -5.85,-5.852 h -7.71 c 0,3.23 -2.625,5.853 -5.85,5.853 -3.23,0 -5.852,-2.624 -5.852,-5.85 h -7.714 c 0,3.23 -2.625,5.854 -5.85,5.854 -3.227,0 -5.852,-2.626 -5.852,-5.853 h -7.713 c 0,3.228 -2.627,5.85 -5.85,5.85 -3.23,0 -5.85,-2.623 -5.85,-5.85 h -7.72 c 0,3.227 -2.624,5.85 -5.85,5.85 -3.226,0 -5.85,-2.624 -5.85,-5.85 h -7.72 c 0,1.54 -0.624,3.05 -1.71,4.14 -1.09,1.086 -2.6,1.71 -4.14,1.71 z" />
      <path
         style="fill:#ffffff"
         inkscape:connector-curvature="0"
         id="path9"
         d="M 249.444,172.68 H 162.24 l 4.55,-21.292 h 53.15 l 4.876,-22.918 h -76.394 l -24.056,113.454 h 23.08 l 10.564,-49.576 h 55.36 l -48.104,47.625 8.452,14.953 c 3.9,-2.6 10.24,-2.926 14.628,-2.926 7.803,0 15.442,2.602 23.404,2.602 7.3,0 14.775,-0.488 26.967,-6.34 l 4.26,-19.992 c -8.29,3.412 -20.558,6.664 -31.227,6.664 -4.386,0 -8.45,-0.975 -12.676,-1.625 l 46.63,-45.35 3.74,-15.28 z" />
    </g>
  </g>
</svg>
