<?xml version="1.0" encoding="UTF-8" standalone="no"?>
<svg
   xmlns:dc="http://purl.org/dc/elements/1.1/"
   xmlns:cc="http://creativecommons.org/ns#"
   xmlns:rdf="http://www.w3.org/1999/02/22-rdf-syntax-ns#"
   xmlns:svg="http://www.w3.org/2000/svg"
   xmlns="http://www.w3.org/2000/svg"
   xmlns:xlink="http://www.w3.org/1999/xlink"
   xmlns:sodipodi="http://sodipodi.sourceforge.net/DTD/sodipodi-0.dtd"
   xmlns:inkscape="http://www.inkscape.org/namespaces/inkscape"
   height="48"
   viewBox="0 0 48 48"
   width="48"
   id="svg2"
   version="1.1"
   inkscape:version="0.91 r13725"
   sodipodi:docname="hardinfo.svg">
  <metadata
     id="metadata24">
    <rdf:RDF>
      <cc:Work
         rdf:about="">
        <dc:format>image/svg+xml</dc:format>
        <dc:type
           rdf:resource="http://purl.org/dc/dcmitype/StillImage" />
        <dc:title />
      </cc:Work>
    </rdf:RDF>
  </metadata>
  <defs
     id="defs22">
    <linearGradient
       inkscape:collect="always"
       id="linearGradient4261">
      <stop
         style="stop-color:#000000;stop-opacity:1;"
         offset="0"
         id="stop4263" />
      <stop
         style="stop-color:#000000;stop-opacity:0;"
         offset="1"
         id="stop4265" />
    </linearGradient>
    <linearGradient
       inkscape:collect="always"
       id="linearGradient49897">
      <stop
         style="stop-color:#176875;stop-opacity:1"
         offset="0"
         id="stop49899" />
      <stop
         style="stop-color:#186a77;stop-opacity:1"
         offset="1"
         id="stop49901" />
    </linearGradient>
    <linearGradient
       inkscape:collect="always"
       id="linearGradient4536">
      <stop
         style="stop-color:#b6b6b6;stop-opacity:1"
         offset="0"
         id="stop4538" />
      <stop
         id="stop4544"
         offset="0.48217213"
         style="stop-color:#ffffff;stop-opacity:1;" />
      <stop
         style="stop-color:#cfcfcf;stop-opacity:1"
         offset="1"
         id="stop4540" />
    </linearGradient>
    <linearGradient
       inkscape:collect="always"
       id="linearGradient4492">
      <stop
         style="stop-color:#165dc2;stop-opacity:1;"
         offset="0"
         id="stop4494" />
      <stop
         style="stop-color:#1680c2;stop-opacity:1"
         offset="1"
         id="stop4496" />
    </linearGradient>
    <inkscape:perspective
       sodipodi:type="inkscape:persp3d"
       inkscape:vp_x="0 : 50 : 1"
       inkscape:vp_y="0 : 1000 : 0"
       inkscape:vp_z="100 : 50 : 1"
       inkscape:persp3d-origin="50 : 33.333333 : 1"
       id="perspective4380" />
    <filter
       style="color-interpolation-filters:sRGB"
       id="filter4672"
       inkscape:label="filtro0">
      <feGaussianBlur
         stdDeviation="19.539999999999999"
         id="feGaussianBlur4674" />
    </filter>
    <filter
       style="color-interpolation-filters:sRGB"
       id="filter4680"
       inkscape:label="filtro1">
      <feDiffuseLighting
         id="feDiffuseLighting4682" />
    </filter>
    <linearGradient
       gradientTransform="translate(-29.321003,-3.241)"
       inkscape:collect="always"
       xlink:href="#linearGradient4492"
       id="linearGradient4498-3"
       x1="32.94767"
       y1="16.16"
       x2="41.579502"
       y2="6.4204984"
       gradientUnits="userSpaceOnUse" />
    <linearGradient
       gradientTransform="translate(-29.321003,-3.241)"
       inkscape:collect="always"
       xlink:href="#linearGradient4536"
       id="linearGradient4542-0"
       x1="29.321003"
       y1="10.72"
       x2="44.279003"
       y2="10.72"
       gradientUnits="userSpaceOnUse" />
    <linearGradient
       id="linearGradient3244"
       inkscape:collect="always">
      <stop
         id="stop3246"
         offset="0"
         style="stop-color:#d0611f;stop-opacity:1" />
      <stop
         id="stop3248"
         offset="1"
         style="stop-color:#f77a2c;stop-opacity:1" />
    </linearGradient>
    <linearGradient
       inkscape:collect="always"
       xlink:href="#linearGradient3244"
       id="linearGradient3242-3"
       gradientUnits="userSpaceOnUse"
       gradientTransform="matrix(0.49438202,0,0,0.49438202,-34.11236,-485.66219)"
       x1="78.89711"
       y1="1042.14"
       x2="78.89711"
       y2="982.4278" />
    <symbol
       id="icon-refresh"
       viewBox="0 0 24 28">
      <title
         id="title9852">refresh</title>
      <path
         class="path1"
         d="M23.609 16.5c0 0.031 0 0.078-0.016 0.109-1.328 5.531-5.891 9.391-11.656 9.391-3.047 0-6-1.203-8.219-3.313l-2.016 2.016c-0.187 0.187-0.438 0.297-0.703 0.297-0.547 0-1-0.453-1-1v-7c0-0.547 0.453-1 1-1h7c0.547 0 1 0.453 1 1 0 0.266-0.109 0.516-0.297 0.703l-2.141 2.141c1.469 1.375 3.422 2.156 5.437 2.156 2.781 0 5.359-1.437 6.813-3.813 0.375-0.609 0.562-1.203 0.828-1.828 0.078-0.219 0.234-0.359 0.469-0.359h3c0.281 0 0.5 0.234 0.5 0.5zM24 4v7c0 0.547-0.453 1-1 1h-7c-0.547 0-1-0.453-1-1 0-0.266 0.109-0.516 0.297-0.703l2.156-2.156c-1.484-1.375-3.437-2.141-5.453-2.141-2.781 0-5.359 1.437-6.813 3.813-0.375 0.609-0.562 1.203-0.828 1.828-0.078 0.219-0.234 0.359-0.469 0.359h-3.109c-0.281 0-0.5-0.234-0.5-0.5v-0.109c1.344-5.547 5.953-9.391 11.719-9.391 3.063 0 6.047 1.219 8.266 3.313l2.031-2.016c0.187-0.187 0.438-0.297 0.703-0.297 0.547 0 1 0.453 1 1z"
         id="path9854" />
    </symbol>
    <symbol
       id="symbol5687">
      <title
         id="title5689">Replay</title>
      <path
         d="M24 10V2L14 12l10 10v-8c6.63 0 12 5.37 12 12s-5.37 12-12 12-12-5.37-12-12H8c0 8.84 7.16 16 16 16s16-7.16 16-16-7.16-16-16-16z"
         style="stroke:none"
         id="path5691" />
    </symbol>
    <symbol
       id="symbol20353">
      <title
         id="title20355">Refresh</title>
      <path
         d="M35.3 12.7C32.41 9.8 28.42 8 24 8 15.16 8 8.02 15.16 8.02 24S15.16 40 24 40c7.45 0 13.69-5.1 15.46-12H35.3c-1.65 4.66-6.07 8-11.3 8-6.63 0-12-5.37-12-12s5.37-12 12-12c3.31 0 6.28 1.38 8.45 3.55L26 22h14V8l-4.7 4.7z"
         style="stroke:none"
         id="path20357" />
    </symbol>
    <linearGradient
       inkscape:collect="always"
       xlink:href="#linearGradient49897"
       id="linearGradient49903-2"
       x1="24.333614"
       y1="44.351692"
       x2="24.333614"
       y2="-0.59979343"
       gradientUnits="userSpaceOnUse" />
    <linearGradient
       inkscape:collect="always"
       xlink:href="#linearGradient49897"
       id="linearGradient50365"
       gradientUnits="userSpaceOnUse"
       x1="24.333614"
       y1="44.351692"
       x2="24.333614"
       y2="-0.59979343"
       gradientTransform="matrix(1.0514827,0,0,1.0514827,-1.2359443,-1.105721)" />
    <linearGradient
       inkscape:collect="always"
       xlink:href="#linearGradient4261"
       id="linearGradient4267"
       x1="8.02"
       y1="24"
       x2="40"
       y2="24"
       gradientUnits="userSpaceOnUse" />
    <filter
       inkscape:collect="always"
       style="color-interpolation-filters:sRGB"
       id="filter5370"
       x="-0.071047924"
       width="1.1420958"
       y="-0.051925592"
       height="1.1038512">
      <feGaussianBlur
         inkscape:collect="always"
         stdDeviation="1.8946195"
         id="feGaussianBlur5372" />
    </filter>
    <linearGradient
       inkscape:collect="always"
       xlink:href="#linearGradient5181"
       id="linearGradient5179"
       x1="255.44232"
       y1="1039.9878"
       x2="254.91199"
       y2="1000.7434"
       gradientUnits="userSpaceOnUse" />
    <linearGradient
       id="linearGradient5181"
       inkscape:collect="always">
      <stop
         id="stop5183"
         offset="0"
         style="stop-color:#cfd1d5;stop-opacity:1" />
      <stop
         id="stop5185"
         offset="1"
         style="stop-color:#f5f7f7;stop-opacity:1" />
    </linearGradient>
    <linearGradient
       inkscape:collect="always"
       xlink:href="#linearGradient5171"
       id="linearGradient5177"
       x1="257.03333"
       y1="1035.3916"
       x2="258.44754"
       y2="1004.8093"
       gradientUnits="userSpaceOnUse" />
    <linearGradient
       inkscape:collect="always"
       id="linearGradient5171">
      <stop
         style="stop-color:#ebe9ea;stop-opacity:1"
         offset="0"
         id="stop5173" />
      <stop
         style="stop-color:#ebe9ea;stop-opacity:1"
         offset="1"
         id="stop5175" />
    </linearGradient>
    <linearGradient
       inkscape:collect="always"
       xlink:href="#linearGradient5141"
       id="linearGradient5263"
       gradientUnits="userSpaceOnUse"
       x1="324.6875"
       y1="970.17468"
       x2="324.6875"
       y2="965.79968"
       gradientTransform="matrix(-1,0,0,1,621.89645,0)" />
    <linearGradient
       inkscape:collect="always"
       id="linearGradient5141">
      <stop
         style="stop-color:#272c41;stop-opacity:1"
         offset="0"
         id="stop5143" />
      <stop
         id="stop5149"
         offset="0.44285771"
         style="stop-color:#596379;stop-opacity:1" />
      <stop
         id="stop5147"
         offset="0.60000056"
         style="stop-color:#586278;stop-opacity:1" />
      <stop
         style="stop-color:#4b647b;stop-opacity:1"
         offset="1"
         id="stop5145" />
    </linearGradient>
    <linearGradient
       inkscape:collect="always"
       xlink:href="#linearGradient5229"
       id="linearGradient5265"
       gradientUnits="userSpaceOnUse"
       x1="313"
       y1="1034.3622"
       x2="313.5"
       y2="964.36218"
       gradientTransform="matrix(-1,0,0,1,621.89645,0)" />
    <linearGradient
       inkscape:collect="always"
       id="linearGradient5229">
      <stop
         style="stop-color:#d9e5ee;stop-opacity:1"
         offset="0"
         id="stop5231" />
      <stop
         style="stop-color:#f0f3f6;stop-opacity:1"
         offset="1"
         id="stop5233" />
    </linearGradient>
    <linearGradient
       inkscape:collect="always"
       xlink:href="#linearGradient5249"
       id="linearGradient5267"
       gradientUnits="userSpaceOnUse"
       x1="314.18091"
       y1="24.922836"
       x2="302.66379"
       y2="15.010517"
       gradientTransform="matrix(-1,0,0,1,621.89645,956.36218)" />
    <linearGradient
       inkscape:collect="always"
       id="linearGradient5249">
      <stop
         style="stop-color:#a8bdca;stop-opacity:1;"
         offset="0"
         id="stop5251" />
      <stop
         style="stop-color:#a8bdca;stop-opacity:0;"
         offset="1"
         id="stop5253" />
    </linearGradient>
    <linearGradient
       inkscape:collect="always"
       xlink:href="#linearGradient5221"
       id="linearGradient5227"
       x1="352.31595"
       y1="1045.1144"
       x2="292.38864"
       y2="1053.4229"
       gradientUnits="userSpaceOnUse" />
    <linearGradient
       inkscape:collect="always"
       id="linearGradient5221">
      <stop
         style="stop-color:#38404d;stop-opacity:1"
         offset="0"
         id="stop5223" />
      <stop
         style="stop-color:#374154;stop-opacity:1"
         offset="1"
         id="stop5225" />
    </linearGradient>
    <linearGradient
       inkscape:collect="always"
       xlink:href="#linearGradient5187"
       id="linearGradient5193"
       x1="249.78548"
       y1="1029.0277"
       x2="251.19968"
       y2="1008.5215"
       gradientUnits="userSpaceOnUse" />
    <linearGradient
       inkscape:collect="always"
       id="linearGradient5187">
      <stop
         style="stop-color:#222424;stop-opacity:1"
         offset="0"
         id="stop5189" />
      <stop
         style="stop-color:#8f959d;stop-opacity:1"
         offset="1"
         id="stop5191" />
    </linearGradient>
    <linearGradient
       inkscape:collect="always"
       xlink:href="#linearGradient5195"
       id="linearGradient5201"
       x1="253.321"
       y1="1028.1438"
       x2="253.321"
       y2="1011.7036"
       gradientUnits="userSpaceOnUse" />
    <linearGradient
       inkscape:collect="always"
       id="linearGradient5195">
      <stop
         style="stop-color:#747474;stop-opacity:1"
         offset="0"
         id="stop5197" />
      <stop
         style="stop-color:#fafafa;stop-opacity:1"
         offset="1"
         id="stop5199" />
    </linearGradient>
    <linearGradient
       inkscape:collect="always"
       xlink:href="#linearGradient5205"
       id="linearGradient5211"
       x1="256.625"
       y1="1024.9872"
       x2="256.625"
       y2="1015.8622"
       gradientUnits="userSpaceOnUse" />
    <linearGradient
       inkscape:collect="always"
       id="linearGradient5205">
      <stop
         style="stop-color:#2e2e2e;stop-opacity:1"
         offset="0"
         id="stop5207" />
      <stop
         style="stop-color:#9d9d9d;stop-opacity:1"
         offset="1"
         id="stop5209" />
    </linearGradient>
    <linearGradient
       inkscape:collect="always"
       xlink:href="#linearGradient5141"
       id="linearGradient5139"
       x1="324.6875"
       y1="970.17468"
       x2="324.6875"
       y2="965.79968"
       gradientUnits="userSpaceOnUse" />
    <linearGradient
       inkscape:collect="always"
       xlink:href="#linearGradient5229"
       id="linearGradient5235"
       x1="313"
       y1="1034.3622"
       x2="313.5"
       y2="964.36218"
       gradientUnits="userSpaceOnUse" />
    <linearGradient
       inkscape:collect="always"
       xlink:href="#linearGradient5249"
       id="linearGradient5255"
       x1="314.18091"
       y1="24.922836"
       x2="302.66379"
       y2="15.010517"
       gradientUnits="userSpaceOnUse" />
    <linearGradient
       id="linearGradient3070">
      <stop
         id="stop3072"
         offset="0"
         style="stop-color:#c9cacc;stop-opacity:1" />
      <stop
         style="stop-color:#e7e7e9;stop-opacity:1"
         offset="0.38192597"
         id="stop4300" />
      <stop
         id="stop4302"
         offset="0.66534281"
         style="stop-color:#e4e4e5;stop-opacity:1" />
      <stop
         id="stop3074"
         offset="1"
         style="stop-color:#c9cace;stop-opacity:1" />
    </linearGradient>
    <linearGradient
       inkscape:collect="always"
       xlink:href="#linearGradient5266"
       id="linearGradient5272"
       x1="22.321409"
       y1="1088.6146"
       x2="22.321409"
       y2="1059.358"
       gradientUnits="userSpaceOnUse" />
    <linearGradient
       inkscape:collect="always"
       id="linearGradient5266">
      <stop
         style="stop-color:#0079e6;stop-opacity:1"
         offset="0"
         id="stop5268" />
      <stop
         style="stop-color:#3699ed;stop-opacity:1"
         offset="1"
         id="stop5270" />
    </linearGradient>
    <linearGradient
       x1="12.9375"
       y1="8.4375"
       x2="15.25"
       y2="19.8125"
       id="linearGradient2441-5-2-8"
       xlink:href="#linearGradient5274"
       gradientUnits="userSpaceOnUse"
       gradientTransform="matrix(1.0309942,0,0,1.2571467,43.323108,20.738869)" />
    <linearGradient
       id="linearGradient5274">
      <stop
         offset="0"
         style="stop-color:#ffffff;stop-opacity:0.18324608"
         id="stop5276" />
      <stop
         offset="1"
         style="stop-color:#ffffff;stop-opacity:0"
         id="stop5278" />
    </linearGradient>
    <linearGradient
       x1="15.573899"
       y1="46.971004"
       x2="23.578077"
       y2="46.971004"
       id="linearGradient2448-0-8-4"
       xlink:href="#linearGradient5274"
       gradientUnits="userSpaceOnUse"
       gradientTransform="matrix(1.0690434,0,0,0.93122035,42.771165,17.961284)"
       spreadMethod="reflect" />
    <linearGradient
       x1="361.10583"
       y1="87.050117"
       x2="361.10583"
       y2="94.396416"
       id="linearGradient2451-6-6-1"
       xlink:href="#linearGradient3912"
       gradientUnits="userSpaceOnUse"
       gradientTransform="matrix(0.91573057,0,0,0.9314784,-260.00843,-25.623248)" />
    <linearGradient
       id="linearGradient3912">
      <stop
         id="stop3914"
         style="stop-color:#787878;stop-opacity:1"
         offset="0" />
      <stop
         id="stop3916"
         style="stop-color:#bebebe;stop-opacity:1"
         offset="0.35046947" />
      <stop
         id="stop3918"
         style="stop-color:#c8c8c8;stop-opacity:1"
         offset="0.49417919" />
      <stop
         id="stop3920"
         style="stop-color:#e6e6e6;stop-opacity:1"
         offset="0.58907253" />
      <stop
         id="stop3922"
         style="stop-color:#8c8c8c;stop-opacity:1"
         offset="1" />
    </linearGradient>
    <linearGradient
       x1="61.968769"
       y1="35.944077"
       x2="61.968769"
       y2="43.378311"
       id="linearGradient2453-6-0-3"
       xlink:href="#linearGradient3924"
       gradientUnits="userSpaceOnUse"
       gradientTransform="matrix(0.91903087,0,0,0.93134447,10.99724,21.8872)" />
    <linearGradient
       id="linearGradient3924">
      <stop
         id="stop3926"
         style="stop-color:#464646;stop-opacity:1"
         offset="0" />
      <stop
         id="stop3928"
         style="stop-color:#8c8c8c;stop-opacity:1"
         offset="0.35046947" />
      <stop
         id="stop3930"
         style="stop-color:#969696;stop-opacity:1"
         offset="0.50989443" />
      <stop
         id="stop3932"
         style="stop-color:#aaaaaa;stop-opacity:1"
         offset="0.61998242" />
      <stop
         id="stop3934"
         style="stop-color:#646464;stop-opacity:1"
         offset="1" />
    </linearGradient>
    <radialGradient
       cx="6.702713"
       cy="73.615715"
       r="7.228416"
       fx="6.702713"
       fy="73.615715"
       id="radialGradient2456-9-4-7"
       xlink:href="#linearGradient4261"
       gradientUnits="userSpaceOnUse"
       gradientTransform="matrix(1.8035884,0,0,0.17052706,56.469063,50.898176)" />
  </defs>
  <sodipodi:namedview
     pagecolor="#383c4a"
     bordercolor="#666666"
     borderopacity="1"
     objecttolerance="4"
     gridtolerance="10"
     guidetolerance="4"
     inkscape:pageopacity="0"
     inkscape:pageshadow="2"
     inkscape:window-width="640"
     inkscape:window-height="480"
     id="namedview20"
     showgrid="false"
     inkscape:zoom="9.3749999"
     inkscape:cx="53.75027"
     inkscape:cy="14.993471"
     inkscape:current-layer="layer7"
     inkscape:snap-smooth-nodes="true"
     showguides="true"
     borderlayer="true"
     inkscape:showpageshadow="false"
     inkscape:guide-bbox="true"
     guidecolor="#38cf02"
     guideopacity="0.49803922"
     inkscape:snap-nodes="true"
     inkscape:lockguides="true">
    <inkscape:grid
       type="xygrid"
       id="grid4171"
       empspacing="4"
       dotted="false" />
    <sodipodi:guide
       position="4,0"
       orientation="1,0"
       id="guide4173"
       inkscape:locked="true"
       inkscape:label=""
       inkscape:color="rgb(56,207,2)" />
    <sodipodi:guide
       position="44,0"
       orientation="1,0"
       id="guide4175"
       inkscape:locked="true"
       inkscape:label=""
       inkscape:color="rgb(56,207,2)" />
    <sodipodi:guide
       position="0,44"
       orientation="0,1"
       id="guide4177"
       inkscape:locked="true"
       inkscape:label=""
       inkscape:color="rgb(56,207,2)" />
    <sodipodi:guide
       position="0,4"
       orientation="0,1"
       id="guide4179"
       inkscape:locked="true"
       inkscape:label=""
       inkscape:color="rgb(56,207,2)" />
    <sodipodi:guide
       position="8,0"
       orientation="1,0"
       id="guide4243"
       inkscape:locked="true"
       inkscape:label=""
       inkscape:color="rgb(56,207,2)" />
    <sodipodi:guide
       position="40,0"
       orientation="1,0"
       id="guide4251"
       inkscape:locked="true"
       inkscape:label=""
       inkscape:color="rgb(56,207,2)" />
    <sodipodi:guide
       position="0,40"
       orientation="0,1"
       id="guide4514"
       inkscape:locked="true"
       inkscape:label=""
       inkscape:color="rgb(56,207,2)" />
    <sodipodi:guide
       position="0,8"
       orientation="0,1"
       id="guide4516"
       inkscape:locked="true"
       inkscape:label=""
       inkscape:color="rgb(56,207,2)" />
    <sodipodi:guide
       position="0,0"
       orientation="-0.70710678,0.70710678"
       id="guide5275"
       inkscape:locked="true"
       inkscape:label=""
       inkscape:color="rgb(56,207,2)" />
    <sodipodi:guide
       position="0,48"
       orientation="-0.70710678,-0.70710678"
       id="guide5277"
       inkscape:locked="true"
       inkscape:label=""
       inkscape:color="rgb(56,207,2)" />
  </sodipodi:namedview>
  <g
     inkscape:groupmode="layer"
     id="layer6"
     inkscape:label="background-white"
     style="display:none;opacity:1"
     sodipodi:insensitive="true">
    <rect
       style="color:#000000;clip-rule:nonzero;display:inline;overflow:visible;visibility:visible;opacity:1;isolation:auto;mix-blend-mode:normal;color-interpolation:sRGB;color-interpolation-filters:linearRGB;solid-color:#000000;solid-opacity:1;fill:#ffffff;fill-opacity:1;fill-rule:nonzero;stroke:none;stroke-width:0.20080347;stroke-linecap:butt;stroke-linejoin:miter;stroke-miterlimit:4;stroke-dasharray:none;stroke-dashoffset:0;stroke-opacity:1;marker:none;marker-start:none;marker-mid:none;marker-end:none;paint-order:normal;color-rendering:auto;image-rendering:auto;shape-rendering:auto;text-rendering:auto;enable-background:accumulate"
       id="rect49905"
       width="60"
       height="60"
       x="-6"
       y="-6"
       rx="0"
       ry="2.4035539e-06" />
  </g>
  <g
     inkscape:groupmode="layer"
     id="layer7"
     inkscape:label="workbench"
     style="display:inline">
    <rect
       style="color:#000000;clip-rule:nonzero;display:inline;overflow:visible;visibility:visible;opacity:1;isolation:auto;mix-blend-mode:normal;color-interpolation:sRGB;color-interpolation-filters:linearRGB;solid-color:#000000;solid-opacity:1;fill:#ff0000;fill-opacity:1;fill-rule:nonzero;stroke:none;stroke-width:0.61812234;stroke-linecap:round;stroke-linejoin:miter;stroke-miterlimit:4;stroke-dasharray:none;stroke-dashoffset:0;stroke-opacity:0.77083333;marker:none;marker-start:none;marker-mid:none;marker-end:none;paint-order:normal;color-rendering:auto;image-rendering:auto;shape-rendering:auto;text-rendering:auto;enable-background:accumulate"
       id="rect4356"
       width="0"
       height="0"
       x="0"
       y="0" />
    <g
       id="g4777"
       transform="translate(-42.977154,-16.910076)">
      <rect
         ry="0.63666701"
         y="17.135824"
         x="43.977154"
         height="3.9374998"
         width="19.999998"
         id="rect4969"
         style="color:#000000;clip-rule:nonzero;display:inline;overflow:visible;visibility:visible;opacity:0;isolation:auto;mix-blend-mode:normal;color-interpolation:sRGB;color-interpolation-filters:linearRGB;solid-color:#000000;solid-opacity:1;fill:#ffffff;fill-opacity:0.27748694;fill-rule:nonzero;stroke:none;stroke-width:0.61812234;stroke-linecap:round;stroke-linejoin:miter;stroke-miterlimit:4;stroke-dasharray:none;stroke-dashoffset:0;stroke-opacity:1;marker:none;marker-start:none;marker-mid:none;marker-end:none;paint-order:normal;color-rendering:auto;image-rendering:auto;shape-rendering:auto;text-rendering:auto;enable-background:accumulate" />
      <path
         d="m 81.59508,63.451655 c 0,0.680811 -5.836902,1.232672 -13.037084,1.232672 -7.200182,0 -13.037086,-0.551861 -13.037086,-1.232672 0,-0.680745 5.836904,-1.232607 13.037086,-1.232607 7.200182,0 13.037084,0.551862 13.037084,1.232607 l 0,0 z"
         inkscape:connector-curvature="0"
         id="path2589"
         style="display:inline;overflow:visible;visibility:visible;opacity:0.3;fill:url(#radialGradient2456-9-4-7);fill-opacity:1;fill-rule:nonzero;stroke:none;stroke-width:0.80000001;marker:none" />
      <path
         d="m 62.33381,54.716923 c 0,0 0.130296,3.965482 -0.519571,4.889646 -0.649861,0.924312 -1.942969,0.935223 -1.942969,0.935223 -0.82978,0.09746 -0.836644,1.858947 0,1.858947 l 16.211697,0 c 0.836652,0 0.82996,-1.763084 0,-1.858947 0,0 -1.293049,-0.01454 -1.942903,-0.935223 -0.649851,-0.924164 -0.519631,-4.889646 -0.519631,-4.889646 l -11.286623,0 0,0 z"
         inkscape:connector-curvature="0"
         id="rect1789"
         style="display:inline;overflow:visible;visibility:visible;opacity:1;fill:url(#linearGradient2451-6-6-1);fill-opacity:1;fill-rule:nonzero;stroke:url(#linearGradient2453-6-0-3);stroke-width:0.46467561;stroke-linecap:round;stroke-linejoin:round;stroke-miterlimit:4;stroke-dasharray:none;stroke-dashoffset:0.5;stroke-opacity:1;marker:none;enable-background:new" />
      <path
         d="m 59.954862,61.701615 16.044582,0"
         inkscape:connector-curvature="0"
         id="path3340"
         style="display:inline;opacity:1;fill:none;stroke:url(#linearGradient2448-0-8-4);stroke-width:0.69841522px;stroke-linecap:square;stroke-linejoin:miter;stroke-opacity:1" />
      <rect
         width="44"
         height="30.730055"
         rx="0.97778308"
         ry="0.93122053"
         x="45.977154"
         y="23.987324"
         id="rect2722"
         style="display:inline;opacity:1;fill:#e7e7e7;fill-opacity:1;stroke:none;stroke-width:0.50000006;stroke-linecap:round;stroke-linejoin:round;stroke-miterlimit:4;stroke-dasharray:none;stroke-dashoffset:0.5;stroke-opacity:1" />
      <rect
         width="39.111263"
         height="25.84137"
         x="48.42152"
         y="26.431635"
         id="rect2716"
         style="display:inline;opacity:1;fill:#404a50;fill-opacity:1;fill-rule:evenodd;stroke:none;enable-background:new" />
      <path
         sodipodi:nodetypes="ccccc"
         d="m 46.416089,24.510442 43.301765,0 0,10.057138 -43.478542,15.429126 z"
         inkscape:connector-curvature="0"
         id="rect6588"
         style="display:inline;opacity:0.66552902;fill:url(#linearGradient2441-5-2-8);fill-opacity:1;stroke:none" />
      <g
         style="display:inline;opacity:1"
         transform="matrix(0.69841521,0,0,0.69841521,62.498521,-710.26752)"
         id="layer1-0"
         inkscape:label="Capa 1">
        <path
           style="opacity:1;fill:url(#linearGradient5272);fill-opacity:1;stroke:none;stroke-opacity:1"
           d="m -20.154407,1054.8153 57.09604,0 10e-7,0 10e-7,0 0,37.0273 -2e-6,0 -56.961808,0 -0.121842,0 z"
           id="rect4157"
           inkscape:connector-curvature="0"
           sodipodi:nodetypes="ccccccccc" />
      </g>
    </g>
    <g
       id="g4791"
       transform="matrix(0.96739222,0,0,0.96739222,0.74834581,0.28498196)">
      <path
         transform="matrix(0.50000001,0,0,0.50000001,0.03532602,-477.50086)"
         inkscape:connector-curvature="0"
         id="circle5292"
         d="m 56.662109,960.2585 c -0.973648,-0.11868 -3.111404,0.75482 -3.142578,0.76758 0,0 -0.002,0 -0.002,0 -2.595449,5.2e-4 -5.82206,1.07766 -8.304687,2.84179 0.0041,-0.003 0.0076,-0.008 0.01172,-0.0117 -0.05261,0.0373 -0.106273,0.0715 -0.158203,0.10938 -0.156314,0.11408 -0.309774,0.2378 -0.458984,0.36914 -0.149564,0.13166 -0.293711,0.27155 -0.435547,0.41992 -1.98131,2.07154 -3.180693,5.73942 -2.798828,10.13086 5.8e-5,6.7e-4 -5.8e-5,10e-4 0,0.002 0.301658,3.46237 2.295038,7.87254 3.273437,9.86133 0.326176,0.66302 0.539063,1.05664 0.539063,1.05664 l 4.71875,7.70899 0.494141,-0.38672 1.152343,-0.89844 c 0,0 -3.942416,-5.02648 -6.886719,-11.28125 -2.256112,-4.79277 -2.72251,-10.30089 0.119141,-14.38086 0.551447,-0.79175 1.237719,-1.43001 1.976563,-1.95508 0.0025,-0.002 0.0053,-0.004 0.0078,-0.006 0.682958,-0.48428 1.41367,-0.86044 2.132813,-1.16211 0.259561,-0.10846 0.513776,-0.19871 0.767578,-0.2871 0.294525,-0.10302 0.576767,-0.1965 0.855469,-0.2754 0.241652,-0.0679 0.485367,-0.1394 0.708984,-0.1914 0.185759,-0.0435 0.353683,-0.0756 0.523437,-0.10938 0.177414,-0.0349 0.355616,-0.0702 0.511719,-0.0957 0.108678,-0.018 0.209821,-0.0329 0.306641,-0.0469 0.489227,-0.0676 0.878994,-0.10258 0.933593,-0.10352 L 55.75,963.10225 c 0,0 1.079769,0.45388 1.619141,-0.68164 0.539373,-1.13552 0.283784,-1.53199 -0.369141,-2.04297 -0.08162,-0.0639 -0.19778,-0.10206 -0.337891,-0.11914 z m -5.111328,31.9707 -1.96875,1.54688 c 7.001855,9.00702 9.687859,11.67602 10.587891,19.68942 0.797731,7.1025 0.365819,19.7458 -2.25586,24.8125 -6.062182,11.7157 -17.210343,7.3622 -21.882812,0.3223 -3.793963,-5.7163 -0.88125,-16.0415 0.945312,-21.6875 1.826563,-5.6459 5.84155,-11.9574 4.476563,-18.3809 -1.030428,-4.84901 -4.666846,-8.31902 -7.701172,-10.24996 A 9.1133089,9.1133089 0 0 0 34.226562,985.40498 9.1133089,9.1133089 0 0 0 25.113281,976.2917 9.1133089,9.1133089 0 0 0 16,985.40498 a 9.1133089,9.1133089 0 0 0 9.113281,9.11328 9.1133089,9.1133089 0 0 0 7.484375,-3.91796 c 1.771499,1.12253 3.294838,2.51722 5.34375,5.64453 3.221478,5.73577 -0.710574,10.14697 -4.757812,23.24417 -1.544355,4.9976 -4.243974,17.746 3.705078,24.3301 7.949056,6.5841 17.813252,4.7365 22.630859,-3.3731 4.817607,-8.1097 3.385037,-26.1596 3.271485,-29.6797 -0.113552,-3.5201 1.703125,-6.3593 1.703125,-6.3593 l 6.990234,-10.83795 -0.08008,-0.0625 4.710937,-7.70118 c 0,0 3.412988,-6.30307 3.814454,-10.91992 0.40914,-4.70512 -0.998226,-8.5806 -3.236329,-10.55078 -0.149209,-0.13134 -0.300716,-0.25506 -0.457031,-0.36914 -0.05193,-0.0379 -0.105593,-0.074 -0.158203,-0.11133 0.0062,0.005 0.01141,0.0124 0.01758,0.0176 -2.483381,-1.76655 -5.713107,-2.84518 -8.310547,-2.8457 0,0 -0.002,0 -0.002,0 -0.03553,-0.0145 -2.831679,-1.15815 -3.480469,-0.65039 -0.652924,0.51098 -0.908513,0.9094 -0.36914,2.04492 0.539372,1.13552 1.617187,0.68164 1.617187,0.68164 l 2.244141,-0.76758 c 0.05591,10e-4 0.4441,0.035 0.9375,0.10352 0.09266,0.0134 0.189474,0.0279 0.292969,0.0449 0.158431,0.0258 0.340969,0.0622 0.521484,0.0977 0.173421,0.0345 0.343123,0.0686 0.533203,0.11328 0.157225,0.0367 0.331554,0.0884 0.498047,0.13282 0.37305,0.10028 0.760639,0.22436 1.164063,0.36914 0.217934,0.0779 0.43438,0.15347 0.65625,0.24609 0.723241,0.30311 1.458016,0.68204 2.144531,1.16992 0.738748,0.52503 1.425177,1.16341 1.976562,1.95508 2.84165,4.07997 2.373301,9.58809 0.117188,14.38086 -2.941435,6.24868 -6.875152,11.26757 -6.882813,11.27735 l -0.05078,-0.0391 c 0,0 -5.208422,7.50715 -7.082031,10.23245 -1.87361,2.7252 -3.292969,0 -3.292969,0 l -7.597656,-10.3301 -0.179688,0.14062 z"
         style="opacity:0.3;fill:#000000;fill-opacity:1;stroke:none;stroke-width:1;stroke-miterlimit:4;stroke-dasharray:none;stroke-opacity:1;filter:url(#filter5370)" />
      <g
         transform="matrix(0.22710422,0,0,0.22710422,-45.841587,-218.45001)"
         id="g5274">
        <circle
           style="opacity:1;fill:url(#linearGradient5179);fill-opacity:1;stroke:none;stroke-width:1;stroke-miterlimit:4;stroke-dasharray:none;stroke-opacity:1"
           id="path5121"
           cx="257.29846"
           cy="1020.2772"
           r="20.064156" />
        <circle
           r="19.063999"
           cy="1020.2772"
           cx="257.29846"
           id="circle5169"
           style="opacity:1;fill:url(#linearGradient5177);fill-opacity:1;stroke:none;stroke-width:1;stroke-miterlimit:4;stroke-dasharray:none;stroke-opacity:1" />
        <g
           id="g5269"
           transform="translate(49.182474,-6.5047463e-4)">
          <path
             style="fill:url(#linearGradient5263);fill-opacity:1;fill-rule:evenodd;stroke:none;stroke-width:1px;stroke-linecap:butt;stroke-linejoin:miter;stroke-opacity:1"
             d="m 302.08395,966.61218 0,2.875 -4.9375,1.6875 c 0,0 -2.375,1 -3.5625,-1.5 -1.1875,-2.5 -0.625,-3.375 0.8125,-4.5 1.4375,-1.125 7.6875,1.4375 7.6875,1.4375 z"
             id="path5257"
             inkscape:connector-curvature="0" />
          <path
             style="fill:url(#linearGradient5265);fill-opacity:1;fill-rule:evenodd;stroke:none;stroke-width:1px;stroke-linecap:butt;stroke-linejoin:miter;stroke-opacity:1"
             d="m 302.05217,969.48153 c 0.47684,0.004 13.30658,0.80295 19.23995,9.32194 6.25627,8.9826 5.22786,21.1107 0.26073,31.66263 -6.48227,13.7707 -15.15861,24.8371 -15.15861,24.8371 l 3.62392,2.8284 10.38564,-16.9705 c 0,0 7.51301,-13.877 8.39689,-24.04164 0.96083,-11.04954 -2.62537,-20.02313 -8.13173,-24.04163 -5.50637,-4.0185 -12.78678,-6.47444 -18.61126,-6.47444 z"
             id="path5259"
             inkscape:connector-curvature="0"
             sodipodi:nodetypes="csscccszcc" />
          <path
             style="fill:url(#linearGradient5267);fill-opacity:1;fill-rule:evenodd;stroke:none;stroke-width:1px;stroke-linecap:butt;stroke-linejoin:miter;stroke-opacity:1"
             d="m 302.05465,967.83093 c 2.62716,0.28298 9.63023,2.35712 14.88672,6.66797 -6.32301,-4.49355 -14.5094,-5.0144 -14.88867,-5.01758 z m 18.26563,5.00195 c 0.11583,0.0821 0.23528,0.16071 0.34961,0.24414 5.50636,4.0185 9.09169,12.99343 8.13086,24.04297 -0.88388,10.16461 -8.39649,24.04101 -8.39649,24.04101 l -10.38672,16.9707 -1.08984,-0.8496 10.38281,-16.9648 c 0,0 7.51261,-13.8765 8.39649,-24.04106 0.9165,-10.53973 -2.30876,-19.17997 -7.38672,-23.44336 z"
             id="path5261"
             inkscape:connector-curvature="0"
             sodipodi:nodetypes="cccccssccccsc" />
        </g>
        <path
           style="fill:url(#linearGradient5227);fill-opacity:1;fill-rule:evenodd;stroke:none;stroke-width:2;stroke-linecap:butt;stroke-linejoin:miter;stroke-miterlimit:4;stroke-dasharray:none;stroke-opacity:1"
           d="m 311.17118,1038.7062 4.72877,-3.7123 16.72505,22.7433 c 0,0 3.125,6 7.25,0 4.125,-6 15.59375,-22.5312 15.59375,-22.5312 l 3.92187,3.0468 L 344,1062.1122 c 0,0 -4,6.25 -3.75,14 0.25,7.75 3.40389,47.491 -7.20271,65.3454 -10.6066,17.8545 -32.3224,21.9204 -49.8233,7.4247 -17.50089,-14.4957 -11.55955,-42.5604 -8.15945,-53.5634 8.91053,-28.8351 17.57043,-38.5462 10.47792,-51.1742 -6.71752,-10.2531 -10.83884,-12.0815 -18.07932,-16.0009 -10.82661,-5.8606 -3.71231,-7.2479 3.0052,-4.5962 6.71752,2.6516 19.79899,11.4905 22.8042,25.6326 3.0052,14.1421 -5.83519,28.0338 -9.85661,40.4641 -4.02142,12.4303 -10.43133,35.166 -2.07842,47.7512 10.28706,15.4993 34.82755,25.083 48.17425,-0.7108 5.77197,-11.1549 6.72278,-38.9888 4.96647,-54.6259 -1.98154,-17.6425 -7.89154,-23.5226 -23.30705,-43.3526 z"
           id="path5153"
           inkscape:connector-curvature="0"
           sodipodi:nodetypes="cccscccsssscscszsssc" />
        <circle
           r="12.816311"
           cy="1020.2772"
           cx="257.29846"
           id="circle5123"
           style="opacity:1;fill:url(#linearGradient5193);fill-opacity:1;stroke:none;stroke-width:1;stroke-miterlimit:4;stroke-dasharray:none;stroke-opacity:1" />
        <circle
           style="opacity:1;fill:url(#linearGradient5201);fill-opacity:1;stroke:none;stroke-width:1;stroke-miterlimit:4;stroke-dasharray:none;stroke-opacity:1"
           id="circle5125"
           cx="257.29846"
           cy="1020.2772"
           r="9.6343307" />
        <circle
           style="opacity:0.3;fill:#3a3a3a;fill-opacity:1;stroke:none;stroke-width:1;stroke-miterlimit:4;stroke-dasharray:none;stroke-opacity:1"
           id="circle5203"
           cx="257.29846"
           cy="1020.2772"
           r="8.0433407" />
        <circle
           r="7.1594572"
           cy="1020.2772"
           cx="257.29846"
           id="circle5127"
           style="opacity:0.98999999;fill:url(#linearGradient5211);fill-opacity:1;stroke:none;stroke-width:1;stroke-miterlimit:4;stroke-dasharray:none;stroke-opacity:1" />
        <path
           style="fill:url(#linearGradient5139);fill-opacity:1;fill-rule:evenodd;stroke:none;stroke-width:1px;stroke-linecap:butt;stroke-linejoin:miter;stroke-opacity:1"
           d="m 319.8125,966.61218 0,2.875 4.9375,1.6875 c 0,0 2.375,1 3.5625,-1.5 1.1875,-2.5 0.625,-3.375 -0.8125,-4.5 -1.4375,-1.125 -7.6875,1.4375 -7.6875,1.4375 z"
           id="path5129"
           inkscape:connector-curvature="0" />
        <path
           style="fill:url(#linearGradient5235);fill-opacity:1;fill-rule:evenodd;stroke:none;stroke-width:1px;stroke-linecap:butt;stroke-linejoin:miter;stroke-opacity:1"
           d="m 319.84428,969.48153 c -0.47684,0.004 -13.30658,0.80295 -19.23995,9.32194 -6.25627,8.9826 -5.22786,21.1107 -0.26073,31.66263 6.48227,13.7707 15.15861,24.8371 15.15861,24.8371 l -3.62392,2.8284 -10.38564,-16.9705 c 0,0 -7.51301,-13.877 -8.39689,-24.04164 -0.96083,-11.04954 2.62537,-20.02313 8.13173,-24.04163 5.50637,-4.0185 12.78678,-6.47444 18.61126,-6.47444 z"
           id="path5151"
           inkscape:connector-curvature="0"
           sodipodi:nodetypes="csscccszcc" />
        <path
           style="fill:url(#linearGradient5255);fill-opacity:1;fill-rule:evenodd;stroke:none;stroke-width:1px;stroke-linecap:butt;stroke-linejoin:miter;stroke-opacity:1"
           d="m 319.8418,11.46875 c -2.62716,0.282983 -9.63023,2.357118 -14.88672,6.667969 6.32301,-4.493549 14.5094,-5.014397 14.88867,-5.017578 z m -18.26563,5.001953 c -0.11583,0.08208 -0.23528,0.160704 -0.34961,0.244141 -5.50636,4.0185 -9.09169,12.993429 -8.13086,24.042968 0.88388,10.164641 8.39649,24.041016 8.39649,24.041016 l 10.38672,16.970703 1.08984,-0.849609 -10.38281,-16.964844 c 0,0 -7.51261,-13.876425 -8.39649,-24.041016 -0.9165,-10.539729 2.30876,-19.179968 7.38672,-23.443359 z"
           transform="translate(0,956.36218)"
           id="path5237"
           inkscape:connector-curvature="0"
           sodipodi:nodetypes="cccccssccccsc" />
      </g>
    </g>
  </g>
  <g
     inkscape:groupmode="layer"
     id="layer1"
     inkscape:label="circles"
     style="display:none">
    <rect
       rx="6.6500416"
       ry="6.6500416"
       y="4.0498753"
       x="4.0498753"
       height="39.900249"
       width="39.900249"
       id="rect5279-6"
       style="display:inline;opacity:1;fill:none;fill-opacity:0.95027627;stroke:#ff1300;stroke-width:0.09975062;stroke-linecap:square;stroke-linejoin:miter;stroke-miterlimit:4;stroke-dasharray:0.09975062, 0.19950125;stroke-dashoffset:0;stroke-opacity:1;paint-order:normal" />
    <circle
       r="15.950156"
       cy="24"
       cx="24"
       id="path5297-7"
       style="display:inline;opacity:1;fill:none;fill-opacity:0.95027627;stroke:#ff1300;stroke-width:0.09968847;stroke-linecap:square;stroke-linejoin:miter;stroke-miterlimit:4;stroke-dasharray:0.09968847, 0.19937695;stroke-dashoffset:0;stroke-opacity:1;paint-order:normal" />
    <circle
       style="display:inline;opacity:1;fill:none;fill-opacity:0.95027627;stroke:#ff1300;stroke-width:0.02492211;stroke-linecap:square;stroke-linejoin:miter;stroke-miterlimit:4;stroke-dasharray:0.02492211, 0.04984424;stroke-dashoffset:0;stroke-opacity:1;paint-order:normal"
       id="circle5299-5"
       cx="24"
       cy="24"
       r="3.9875391" />
    <circle
       style="display:inline;opacity:1;fill:none;fill-opacity:0.95027627;stroke:#ff00dc;stroke-width:0.14953269;stroke-linecap:square;stroke-linejoin:miter;stroke-miterlimit:4;stroke-dasharray:0.14953269, 0.2990654;stroke-dashoffset:0;stroke-opacity:1;paint-order:normal"
       id="circle5277"
       cx="24"
       cy="24"
       r="23.925234" />
  </g>
</svg>
