<?xml version="1.0" encoding="UTF-8" standalone="no"?>
<svg
   xmlns:dc="http://purl.org/dc/elements/1.1/"
   xmlns:cc="http://creativecommons.org/ns#"
   xmlns:rdf="http://www.w3.org/1999/02/22-rdf-syntax-ns#"
   xmlns:svg="http://www.w3.org/2000/svg"
   xmlns="http://www.w3.org/2000/svg"
   xmlns:xlink="http://www.w3.org/1999/xlink"
   xmlns:sodipodi="http://sodipodi.sourceforge.net/DTD/sodipodi-0.dtd"
   xmlns:inkscape="http://www.inkscape.org/namespaces/inkscape"
   height="48"
   viewBox="0 0 48 48"
   width="48"
   id="svg2"
   version="1.1"
   inkscape:version="0.92.1 r"
   sodipodi:docname="org.gnome.Calendar.svg">
  <metadata
     id="metadata24">
    <rdf:RDF>
      <cc:Work
         rdf:about="">
        <dc:format>image/svg+xml</dc:format>
        <dc:type
           rdf:resource="http://purl.org/dc/dcmitype/StillImage" />
        <dc:title />
      </cc:Work>
    </rdf:RDF>
  </metadata>
  <defs
     id="defs22">
    <linearGradient
       id="linearGradient4250"
       inkscape:collect="always">
      <stop
         id="stop4252"
         offset="0"
         style="stop-color:#9fadbf;stop-opacity:1" />
      <stop
         id="stop4256"
         offset="1"
         style="stop-color:#a4b2c5;stop-opacity:1" />
    </linearGradient>
    <linearGradient
       id="linearGradient4251"
       inkscape:collect="always">
      <stop
         id="stop4253"
         offset="0"
         style="stop-color:#ffffff;stop-opacity:1" />
      <stop
         id="stop4255"
         offset="1"
         style="stop-color:#b8b8b8;stop-opacity:1" />
    </linearGradient>
    <linearGradient
       id="linearGradient4419"
       inkscape:collect="always">
      <stop
         id="stop4421"
         offset="0"
         style="stop-color:#6d6d80;stop-opacity:1" />
      <stop
         style="stop-color:#5a5a6c;stop-opacity:1"
         offset="0.40329388"
         id="stop4429" />
      <stop
         style="stop-color:#383840;stop-opacity:1"
         offset="0.50557768"
         id="stop4427" />
      <stop
         id="stop4431"
         offset="0.6441558"
         style="stop-color:#727486;stop-opacity:1" />
      <stop
         id="stop4425"
         offset="1"
         style="stop-color:#898c9d;stop-opacity:1" />
    </linearGradient>
    <linearGradient
       id="linearGradient4350"
       inkscape:collect="always">
      <stop
         id="stop4352"
         offset="0"
         style="stop-color:#333333;stop-opacity:1" />
      <stop
         style="stop-color:#bebebe;stop-opacity:1"
         offset="0.48217213"
         id="stop4354" />
      <stop
         id="stop4356"
         offset="1"
         style="stop-color:#191919;stop-opacity:1" />
    </linearGradient>
    <linearGradient
       inkscape:collect="always"
       id="linearGradient4326">
      <stop
         style="stop-color:#d74242;stop-opacity:1"
         offset="0"
         id="stop4328" />
      <stop
         id="stop4334"
         offset="0.51443428"
         style="stop-color:#ce7272;stop-opacity:1" />
      <stop
         style="stop-color:#a34040;stop-opacity:1"
         offset="1"
         id="stop4330" />
    </linearGradient>
    <linearGradient
       inkscape:collect="always"
       id="linearGradient4222">
      <stop
         style="stop-color:#ffffff;stop-opacity:1"
         offset="0"
         id="stop4224" />
      <stop
         id="stop4269"
         offset="0.65795386"
         style="stop-color:#afafaf;stop-opacity:1" />
      <stop
         style="stop-color:#ffffff;stop-opacity:1"
         offset="1"
         id="stop4226" />
    </linearGradient>
    <linearGradient
       inkscape:collect="always"
       id="linearGradient4261">
      <stop
         style="stop-color:#000000;stop-opacity:1;"
         offset="0"
         id="stop4263" />
      <stop
         style="stop-color:#000000;stop-opacity:0;"
         offset="1"
         id="stop4265" />
    </linearGradient>
    <linearGradient
       inkscape:collect="always"
       id="linearGradient49897">
      <stop
         style="stop-color:#176875;stop-opacity:1"
         offset="0"
         id="stop49899" />
      <stop
         style="stop-color:#186a77;stop-opacity:1"
         offset="1"
         id="stop49901" />
    </linearGradient>
    <linearGradient
       inkscape:collect="always"
       id="linearGradient4536">
      <stop
         style="stop-color:#b6b6b6;stop-opacity:1"
         offset="0"
         id="stop4538" />
      <stop
         id="stop4544"
         offset="0.48217213"
         style="stop-color:#ffffff;stop-opacity:1;" />
      <stop
         style="stop-color:#cfcfcf;stop-opacity:1"
         offset="1"
         id="stop4540" />
    </linearGradient>
    <linearGradient
       inkscape:collect="always"
       id="linearGradient4492">
      <stop
         style="stop-color:#165dc2;stop-opacity:1;"
         offset="0"
         id="stop4494" />
      <stop
         style="stop-color:#1680c2;stop-opacity:1"
         offset="1"
         id="stop4496" />
    </linearGradient>
    <inkscape:perspective
       sodipodi:type="inkscape:persp3d"
       inkscape:vp_x="0 : 50 : 1"
       inkscape:vp_y="0 : 1000 : 0"
       inkscape:vp_z="100 : 50 : 1"
       inkscape:persp3d-origin="50 : 33.333333 : 1"
       id="perspective4380" />
    <filter
       style="color-interpolation-filters:sRGB"
       id="filter4672"
       inkscape:label="filtro0">
      <feGaussianBlur
         stdDeviation="19.539999999999999"
         id="feGaussianBlur4674" />
    </filter>
    <filter
       style="color-interpolation-filters:sRGB"
       id="filter4680"
       inkscape:label="filtro1">
      <feDiffuseLighting
         id="feDiffuseLighting4682" />
    </filter>
    <linearGradient
       gradientTransform="translate(-29.321003,-3.241)"
       inkscape:collect="always"
       xlink:href="#linearGradient4492"
       id="linearGradient4498-3"
       x1="32.94767"
       y1="16.16"
       x2="41.579502"
       y2="6.4204984"
       gradientUnits="userSpaceOnUse" />
    <linearGradient
       gradientTransform="translate(-29.321003,-3.241)"
       inkscape:collect="always"
       xlink:href="#linearGradient4536"
       id="linearGradient4542-0"
       x1="29.321003"
       y1="10.72"
       x2="44.279003"
       y2="10.72"
       gradientUnits="userSpaceOnUse" />
    <linearGradient
       id="linearGradient3244"
       inkscape:collect="always">
      <stop
         id="stop3246"
         offset="0"
         style="stop-color:#d0611f;stop-opacity:1" />
      <stop
         id="stop3248"
         offset="1"
         style="stop-color:#f77a2c;stop-opacity:1" />
    </linearGradient>
    <linearGradient
       inkscape:collect="always"
       xlink:href="#linearGradient3244"
       id="linearGradient3242-3"
       gradientUnits="userSpaceOnUse"
       gradientTransform="matrix(0.49438202,0,0,0.49438202,-34.11236,-485.66219)"
       x1="78.89711"
       y1="1042.14"
       x2="78.89711"
       y2="982.4278" />
    <symbol
       id="icon-refresh"
       viewBox="0 0 24 28">
      <title
         id="title9852">refresh</title>
      <path
         class="path1"
         d="M23.609 16.5c0 0.031 0 0.078-0.016 0.109-1.328 5.531-5.891 9.391-11.656 9.391-3.047 0-6-1.203-8.219-3.313l-2.016 2.016c-0.187 0.187-0.438 0.297-0.703 0.297-0.547 0-1-0.453-1-1v-7c0-0.547 0.453-1 1-1h7c0.547 0 1 0.453 1 1 0 0.266-0.109 0.516-0.297 0.703l-2.141 2.141c1.469 1.375 3.422 2.156 5.437 2.156 2.781 0 5.359-1.437 6.813-3.813 0.375-0.609 0.562-1.203 0.828-1.828 0.078-0.219 0.234-0.359 0.469-0.359h3c0.281 0 0.5 0.234 0.5 0.5zM24 4v7c0 0.547-0.453 1-1 1h-7c-0.547 0-1-0.453-1-1 0-0.266 0.109-0.516 0.297-0.703l2.156-2.156c-1.484-1.375-3.437-2.141-5.453-2.141-2.781 0-5.359 1.437-6.813 3.813-0.375 0.609-0.562 1.203-0.828 1.828-0.078 0.219-0.234 0.359-0.469 0.359h-3.109c-0.281 0-0.5-0.234-0.5-0.5v-0.109c1.344-5.547 5.953-9.391 11.719-9.391 3.063 0 6.047 1.219 8.266 3.313l2.031-2.016c0.187-0.187 0.438-0.297 0.703-0.297 0.547 0 1 0.453 1 1z"
         id="path9854" />
    </symbol>
    <symbol
       id="symbol5687">
      <title
         id="title5689">Replay</title>
      <path
         d="M24 10V2L14 12l10 10v-8c6.63 0 12 5.37 12 12s-5.37 12-12 12-12-5.37-12-12H8c0 8.84 7.16 16 16 16s16-7.16 16-16-7.16-16-16-16z"
         style="stroke:none"
         id="path5691" />
    </symbol>
    <symbol
       id="symbol20353">
      <title
         id="title20355">Refresh</title>
      <path
         d="M35.3 12.7C32.41 9.8 28.42 8 24 8 15.16 8 8.02 15.16 8.02 24S15.16 40 24 40c7.45 0 13.69-5.1 15.46-12H35.3c-1.65 4.66-6.07 8-11.3 8-6.63 0-12-5.37-12-12s5.37-12 12-12c3.31 0 6.28 1.38 8.45 3.55L26 22h14V8l-4.7 4.7z"
         style="stroke:none"
         id="path20357" />
    </symbol>
    <linearGradient
       inkscape:collect="always"
       xlink:href="#linearGradient49897"
       id="linearGradient49903-2"
       x1="24.333614"
       y1="44.351692"
       x2="24.333614"
       y2="-0.59979343"
       gradientUnits="userSpaceOnUse" />
    <linearGradient
       inkscape:collect="always"
       xlink:href="#linearGradient49897"
       id="linearGradient50365"
       gradientUnits="userSpaceOnUse"
       x1="24.333614"
       y1="44.351692"
       x2="24.333614"
       y2="-0.59979343"
       gradientTransform="matrix(1.0514827,0,0,1.0514827,-1.2359443,-1.105721)" />
    <linearGradient
       inkscape:collect="always"
       xlink:href="#linearGradient4261"
       id="linearGradient4267"
       x1="8.02"
       y1="24"
       x2="40"
       y2="24"
       gradientUnits="userSpaceOnUse" />
    <linearGradient
       inkscape:collect="always"
       xlink:href="#linearGradient4222"
       id="linearGradient4228"
       x1="23.30624"
       y1="38.232964"
       x2="23.30624"
       y2="16.600801"
       gradientUnits="userSpaceOnUse"
       gradientTransform="matrix(1.0077262,0,0,1.0077262,-0.18542846,-0.18542846)" />
    <linearGradient
       inkscape:collect="always"
       xlink:href="#linearGradient4251"
       id="linearGradient4237"
       x1="23.872988"
       y1="34.5625"
       x2="23.872988"
       y2="26.228287"
       gradientUnits="userSpaceOnUse" />
    <linearGradient
       inkscape:collect="always"
       xlink:href="#linearGradient4419"
       id="linearGradient4332"
       x1="30.228815"
       y1="14.235651"
       x2="30.228815"
       y2="33.17804"
       gradientUnits="userSpaceOnUse"
       gradientTransform="translate(0.01620435,-0.06250007)" />
    <linearGradient
       inkscape:collect="always"
       xlink:href="#linearGradient4350"
       id="linearGradient4348"
       x1="43.520557"
       y1="25.411074"
       x2="43.520557"
       y2="21.921528"
       gradientUnits="userSpaceOnUse"
       gradientTransform="matrix(2,0,0,1.1034483,-43.950175,-2.0192126)" />
    <linearGradient
       inkscape:collect="always"
       xlink:href="#linearGradient4350"
       id="linearGradient4360"
       gradientUnits="userSpaceOnUse"
       gradientTransform="matrix(2,0,0,1.1034483,-82.012675,-2.0192126)"
       x1="43.520557"
       y1="25.411074"
       x2="43.520557"
       y2="21.921528" />
    <linearGradient
       inkscape:collect="always"
       xlink:href="#linearGradient4326"
       id="linearGradient4453"
       gradientUnits="userSpaceOnUse"
       gradientTransform="matrix(0.88937574,0,0,0.88937574,0.01441179,6.4310025)"
       x1="30.228815"
       y1="14.235651"
       x2="30.273008"
       y2="23.42804" />
    <linearGradient
       inkscape:collect="always"
       xlink:href="#linearGradient4250"
       id="linearGradient4248"
       x1="24.375"
       y1="9.375"
       x2="24.375"
       y2="5.875"
       gradientUnits="userSpaceOnUse" />
    <linearGradient
       inkscape:collect="always"
       xlink:href="#linearGradient4222"
       id="linearGradient4263"
       gradientUnits="userSpaceOnUse"
       gradientTransform="matrix(1.0045015,0,0,0.98882456,-0.10803451,0.18473021)"
       x1="23.30624"
       y1="38.232964"
       x2="23.30624"
       y2="16.600801" />
    <linearGradient
       inkscape:collect="always"
       xlink:href="#linearGradient4222"
       id="linearGradient4268"
       gradientUnits="userSpaceOnUse"
       gradientTransform="matrix(1.0048808,0,0,0.972408,-0.22762375,0.15263665)"
       x1="23.30624"
       y1="38.232964"
       x2="23.30624"
       y2="16.600801" />
  </defs>
  <sodipodi:namedview
     pagecolor="#383c4a"
     bordercolor="#666666"
     borderopacity="1"
     objecttolerance="4"
     gridtolerance="10"
     guidetolerance="4"
     inkscape:pageopacity="0"
     inkscape:pageshadow="2"
     inkscape:window-width="640"
     inkscape:window-height="480"
     id="namedview20"
     showgrid="false"
     inkscape:zoom="16"
     inkscape:cx="31.151189"
     inkscape:cy="22.123425"
     inkscape:current-layer="layer7"
     inkscape:snap-smooth-nodes="true"
     showguides="false"
     borderlayer="true"
     inkscape:showpageshadow="false"
     inkscape:guide-bbox="true"
     guidecolor="#38cf02"
     guideopacity="0.49803922"
     inkscape:snap-nodes="true"
     inkscape:lockguides="true"
     inkscape:snap-global="false">
    <inkscape:grid
       type="xygrid"
       id="grid4171"
       empspacing="4"
       dotted="false" />
    <sodipodi:guide
       position="4,0"
       orientation="1,0"
       id="guide4173"
       inkscape:locked="true"
       inkscape:label=""
       inkscape:color="rgb(56,207,2)" />
    <sodipodi:guide
       position="44,0"
       orientation="1,0"
       id="guide4175"
       inkscape:locked="true"
       inkscape:label=""
       inkscape:color="rgb(56,207,2)" />
    <sodipodi:guide
       position="0,44"
       orientation="0,1"
       id="guide4177"
       inkscape:locked="true"
       inkscape:label=""
       inkscape:color="rgb(56,207,2)" />
    <sodipodi:guide
       position="0,4"
       orientation="0,1"
       id="guide4179"
       inkscape:locked="true"
       inkscape:label=""
       inkscape:color="rgb(56,207,2)" />
    <sodipodi:guide
       position="8,0"
       orientation="1,0"
       id="guide4243"
       inkscape:locked="true"
       inkscape:label=""
       inkscape:color="rgb(56,207,2)" />
    <sodipodi:guide
       position="40,0"
       orientation="1,0"
       id="guide4251"
       inkscape:locked="true"
       inkscape:label=""
       inkscape:color="rgb(56,207,2)" />
    <sodipodi:guide
       position="0,40"
       orientation="0,1"
       id="guide4514"
       inkscape:locked="true"
       inkscape:label=""
       inkscape:color="rgb(56,207,2)" />
    <sodipodi:guide
       position="0,8"
       orientation="0,1"
       id="guide4516"
       inkscape:locked="true"
       inkscape:label=""
       inkscape:color="rgb(56,207,2)" />
    <sodipodi:guide
       position="0,0"
       orientation="-0.70710678,0.70710678"
       id="guide5275"
       inkscape:locked="true"
       inkscape:label=""
       inkscape:color="rgb(56,207,2)" />
    <sodipodi:guide
       position="0,48"
       orientation="-0.70710678,-0.70710678"
       id="guide5277"
       inkscape:locked="true"
       inkscape:label=""
       inkscape:color="rgb(56,207,2)" />
  </sodipodi:namedview>
  <g
     inkscape:groupmode="layer"
     id="layer6"
     inkscape:label="background-white"
     style="display:none;opacity:1"
     sodipodi:insensitive="true">
    <rect
       style="color:#000000;clip-rule:nonzero;display:inline;overflow:visible;visibility:visible;opacity:1;isolation:auto;mix-blend-mode:normal;color-interpolation:sRGB;color-interpolation-filters:linearRGB;solid-color:#000000;solid-opacity:1;fill:#ffffff;fill-opacity:1;fill-rule:nonzero;stroke:none;stroke-width:0.20080347;stroke-linecap:butt;stroke-linejoin:miter;stroke-miterlimit:4;stroke-dasharray:none;stroke-dashoffset:0;stroke-opacity:1;marker:none;marker-start:none;marker-mid:none;marker-end:none;paint-order:normal;color-rendering:auto;image-rendering:auto;shape-rendering:auto;text-rendering:auto;enable-background:accumulate"
       id="rect49905"
       width="60"
       height="60"
       x="-6"
       y="-6"
       rx="0"
       ry="2.4035539e-06" />
  </g>
  <g
     inkscape:groupmode="layer"
     id="layer7"
     inkscape:label="workbench"
     style="display:inline">
    <rect
       style="color:#000000;clip-rule:nonzero;display:inline;overflow:visible;visibility:visible;opacity:1;isolation:auto;mix-blend-mode:normal;color-interpolation:sRGB;color-interpolation-filters:linearRGB;solid-color:#000000;solid-opacity:1;fill:#000000;fill-opacity:0.07843137;fill-rule:nonzero;stroke:none;stroke-width:0.29800001;stroke-linecap:butt;stroke-linejoin:miter;stroke-miterlimit:4;stroke-dasharray:none;stroke-dashoffset:0;stroke-opacity:1;marker:none;marker-start:none;marker-mid:none;marker-end:none;paint-order:normal;color-rendering:auto;image-rendering:auto;shape-rendering:auto;text-rendering:auto;enable-background:accumulate"
       id="rect4455"
       width="46"
       height="46"
       x="1"
       y="1"
       ry="7.3828182" />
    <rect
       ry="7.0618262"
       y="2"
       x="2"
       height="44"
       width="44"
       id="rect4430"
       style="color:#000000;clip-rule:nonzero;display:inline;overflow:visible;visibility:visible;opacity:1;isolation:auto;mix-blend-mode:normal;color-interpolation:sRGB;color-interpolation-filters:linearRGB;solid-color:#000000;solid-opacity:1;fill:#ffffff;fill-opacity:0.2513089;fill-rule:nonzero;stroke:none;stroke-width:0.498;stroke-linecap:butt;stroke-linejoin:miter;stroke-miterlimit:4;stroke-dasharray:none;stroke-dashoffset:0;stroke-opacity:1;marker:none;marker-start:none;marker-mid:none;marker-end:none;paint-order:normal;color-rendering:auto;image-rendering:auto;shape-rendering:auto;text-rendering:auto;enable-background:accumulate" />
    <rect
       style="color:#000000;clip-rule:nonzero;display:inline;overflow:visible;visibility:visible;opacity:1;isolation:auto;mix-blend-mode:normal;color-interpolation:sRGB;color-interpolation-filters:linearRGB;solid-color:#000000;solid-opacity:1;fill:#ff0000;fill-opacity:1;fill-rule:nonzero;stroke:none;stroke-width:0.61812234;stroke-linecap:round;stroke-linejoin:miter;stroke-miterlimit:4;stroke-dasharray:none;stroke-dashoffset:0;stroke-opacity:0.77083333;marker:none;marker-start:none;marker-mid:none;marker-end:none;paint-order:normal;color-rendering:auto;image-rendering:auto;shape-rendering:auto;text-rendering:auto;enable-background:accumulate"
       id="rect4356"
       width="0"
       height="0"
       x="0"
       y="0" />
    <rect
       style="fill:none"
       y="35.163193"
       x="28.345093"
       height="25.71324"
       width="25.71324"
       id="rect49930" />
    <rect
       style="color:#000000;clip-rule:nonzero;display:inline;overflow:visible;visibility:visible;opacity:1;isolation:auto;mix-blend-mode:normal;color-interpolation:sRGB;color-interpolation-filters:linearRGB;solid-color:#000000;solid-opacity:1;fill:url(#linearGradient4228);fill-opacity:1;fill-rule:nonzero;stroke:none;stroke-width:0.29800001;stroke-linecap:butt;stroke-linejoin:miter;stroke-miterlimit:4;stroke-dasharray:none;stroke-dashoffset:0;stroke-opacity:1;marker:none;marker-start:none;marker-mid:none;marker-end:none;paint-order:normal;color-rendering:auto;image-rendering:auto;shape-rendering:auto;text-rendering:auto;enable-background:accumulate"
       id="rect4253"
       width="40"
       height="40"
       x="4"
       y="4"
       ry="6.4198422" />
    <g
       aria-label="JUL"
       style="font-style:normal;font-variant:normal;font-weight:bold;font-stretch:normal;line-height:0%;font-family:sans-serif;-inkscape-font-specification:'sans-serif Bold';letter-spacing:0px;word-spacing:0px;fill:url(#linearGradient4248);fill-opacity:1;stroke:none;stroke-width:1px;stroke-linecap:butt;stroke-linejoin:miter;stroke-opacity:1"
       id="text4203">
      <path
         d="m 20.918329,5.7066599 h 0.764823 v 2.6778744 q 0,0.5542484 -0.301956,0.8283928 -0.299969,0.2741444 -0.909841,0.2741444 H 20.316403 V 8.9089844 h 0.119194 q 0.238386,0 0.359566,-0.1330991 0.123166,-0.1330991 0.123166,-0.391351 z"
         style="font-size:4.06846189px;line-height:10;fill:url(#linearGradient4248);fill-opacity:1"
         id="path7766"
         inkscape:connector-curvature="0" />
      <path
         d="m 22.436056,5.7066599 h 0.764823 v 1.7779655 q 0,0.3675125 0.119194,0.5264368 0.121179,0.1569377 0.393337,0.1569377 0.274145,0 0.393338,-0.1569377 0.12118,-0.1589243 0.12118,-0.5264368 V 5.7066599 h 0.764823 v 1.7779655 q 0,0.6297376 -0.315862,0.9376534 -0.315862,0.3079158 -0.963479,0.3079158 -0.64563,0 -0.961492,-0.3079158 Q 22.436056,8.114363 22.436056,7.4846254 Z"
         style="font-size:4.06846189px;line-height:10;fill:url(#linearGradient4248);fill-opacity:1"
         id="path7768"
         inkscape:connector-curvature="0" />
      <path
         d="m 25.741681,5.7066599 h 0.764824 v 2.3878375 h 1.34291 v 0.5780871 h -2.107734 z"
         style="font-size:4.06846189px;line-height:10;fill:url(#linearGradient4248);fill-opacity:1"
         id="path7770"
         inkscape:connector-curvature="0" />
    </g>
    <path
       style="color:#000000;clip-rule:nonzero;display:inline;overflow:visible;visibility:visible;opacity:1;isolation:auto;mix-blend-mode:normal;color-interpolation:sRGB;color-interpolation-filters:linearRGB;solid-color:#000000;solid-opacity:1;fill:url(#linearGradient4263);fill-opacity:1;fill-rule:nonzero;stroke:#000000;stroke-width:0.29471934;stroke-linecap:butt;stroke-linejoin:miter;stroke-miterlimit:4;stroke-dasharray:none;stroke-dashoffset:0;stroke-opacity:0.2984293;marker:none;marker-start:none;marker-mid:none;marker-end:none;paint-order:normal;color-rendering:auto;image-rendering:auto;shape-rendering:auto;text-rendering:auto;enable-background:accumulate"
       d="m 43.935999,28.253459 v 8.988498 c 0,3.489882 -2.854087,6.299426 -6.399298,6.299426 H 10.463299 c -3.5452114,0 -6.3992986,-2.809544 -6.3992986,-6.299426 v -8.988498 z"
       id="rect4260"
       inkscape:connector-curvature="0"
       sodipodi:nodetypes="csssscc" />
    <path
       sodipodi:nodetypes="csssscc"
       inkscape:connector-curvature="0"
       id="path4265"
       d="m 43.833042,27.755364 v 8.839271 c 0,3.431941 -2.855165,6.194843 -6.401714,6.194843 H 10.347701 c -3.5465493,0 -6.4017144,-2.762902 -6.4017144,-6.194843 v -8.839271 z"
       style="color:#000000;clip-rule:nonzero;display:inline;overflow:visible;visibility:visible;opacity:1;isolation:auto;mix-blend-mode:normal;color-interpolation:sRGB;color-interpolation-filters:linearRGB;solid-color:#000000;solid-opacity:1;fill:url(#linearGradient4268);fill-opacity:1;fill-rule:nonzero;stroke:#000000;stroke-width:0.29231781;stroke-linecap:butt;stroke-linejoin:miter;stroke-miterlimit:4;stroke-dasharray:none;stroke-dashoffset:0;stroke-opacity:0.2984293;marker:none;marker-start:none;marker-mid:none;marker-end:none;paint-order:normal;color-rendering:auto;image-rendering:auto;shape-rendering:auto;text-rendering:auto;enable-background:accumulate" />
    <path
       sodipodi:nodetypes="csssscc"
       inkscape:connector-curvature="0"
       id="path4372"
       d="m 44.527532,24.4375 1.313494,9.216697 c 0.5059,3.549865 -3.126806,7.033303 -7.010775,7.033303 H 9.1698793 c -3.8839704,0 -7.5411188,-3.486004 -7.0107769,-7.033303 L 3.4725728,24.4375 Z"
       style="color:#000000;clip-rule:nonzero;display:inline;overflow:visible;visibility:visible;opacity:1;isolation:auto;mix-blend-mode:normal;color-interpolation:sRGB;color-interpolation-filters:linearRGB;solid-color:#000000;solid-opacity:1;fill:#000000;fill-opacity:0.22513087;fill-rule:nonzero;stroke:none;stroke-width:0.29800001;stroke-linecap:butt;stroke-linejoin:miter;stroke-miterlimit:4;stroke-dasharray:none;stroke-dashoffset:0;stroke-opacity:1;marker:none;marker-start:none;marker-mid:none;marker-end:none;paint-order:normal;color-rendering:auto;image-rendering:auto;shape-rendering:auto;text-rendering:auto;enable-background:accumulate" />
    <path
       style="color:#000000;clip-rule:nonzero;display:inline;overflow:visible;visibility:visible;opacity:1;isolation:auto;mix-blend-mode:normal;color-interpolation:sRGB;color-interpolation-filters:linearRGB;solid-color:#000000;solid-opacity:1;fill:url(#linearGradient4237);fill-opacity:1;fill-rule:nonzero;stroke:none;stroke-width:0.29800001;stroke-linecap:butt;stroke-linejoin:miter;stroke-miterlimit:4;stroke-dasharray:none;stroke-dashoffset:0;stroke-opacity:1;marker:none;marker-start:none;marker-mid:none;marker-end:none;paint-order:normal;color-rendering:auto;image-rendering:auto;shape-rendering:auto;text-rendering:auto;enable-background:accumulate"
       d="m 44,24 1.279742,9.074901 C 45.772642,36.570154 42.233283,40 38.449117,40 H 9.5509069 C 5.7667401,40 2.2035668,36.567626 2.7202809,33.074901 L 4,24 Z"
       id="rect4253-3"
       inkscape:connector-curvature="0"
       sodipodi:nodetypes="csssscc" />
    <rect
       style="color:#000000;clip-rule:nonzero;display:inline;overflow:visible;visibility:visible;opacity:1;isolation:auto;mix-blend-mode:normal;color-interpolation:sRGB;color-interpolation-filters:linearRGB;solid-color:#000000;solid-opacity:1;fill:#414752;fill-opacity:1;fill-rule:nonzero;stroke:none;stroke-width:0.29800001;stroke-linecap:butt;stroke-linejoin:miter;stroke-miterlimit:4;stroke-dasharray:none;stroke-dashoffset:0;stroke-opacity:1;marker:none;marker-start:none;marker-mid:none;marker-end:none;paint-order:normal;color-rendering:auto;image-rendering:auto;shape-rendering:auto;text-rendering:auto;enable-background:accumulate"
       id="rect4239"
       width="40"
       height="1"
       x="4"
       y="23.5"
       ry="0" />
    <g
       transform="matrix(1.3299679,0.0129071,0,0.75189784,0,0)"
       style="font-size:11.7755518px;line-height:1000%;font-family:sans-serif;letter-spacing:0px;word-spacing:0px;fill:none;stroke:#000000;stroke-width:0.73597199px;stroke-linecap:butt;stroke-linejoin:miter;stroke-opacity:1"
       id="text4250" />
    <path
       style="color:#000000;clip-rule:nonzero;display:inline;overflow:visible;visibility:visible;opacity:1;isolation:auto;mix-blend-mode:normal;color-interpolation:sRGB;color-interpolation-filters:linearRGB;solid-color:#000000;solid-opacity:1;fill:none;fill-opacity:1;fill-rule:nonzero;stroke:none;stroke-width:0.29800001;stroke-linecap:butt;stroke-linejoin:miter;stroke-miterlimit:4;stroke-dasharray:none;stroke-dashoffset:0;stroke-opacity:1;marker:none;marker-start:none;marker-mid:none;marker-end:none;paint-order:normal;color-rendering:auto;image-rendering:auto;shape-rendering:auto;text-rendering:auto;enable-background:accumulate"
       mask="none"
       clip-path="none"
       d="m 20.639394,23.496445 -7.382828,-1e-6"
       id="path4480"
       inkscape:connector-curvature="0" />
    <path
       style="color:#000000;clip-rule:nonzero;display:inline;overflow:visible;visibility:visible;opacity:1;isolation:auto;mix-blend-mode:normal;color-interpolation:sRGB;color-interpolation-filters:linearRGB;solid-color:#000000;solid-opacity:1;fill:none;fill-opacity:1;fill-rule:nonzero;stroke:none;stroke-width:0.29800001;stroke-linecap:butt;stroke-linejoin:miter;stroke-miterlimit:4;stroke-dasharray:none;stroke-dashoffset:0;stroke-opacity:1;marker:none;marker-start:none;marker-mid:none;marker-end:none;paint-order:normal;color-rendering:auto;image-rendering:auto;shape-rendering:auto;text-rendering:auto;enable-background:accumulate"
       mask="none"
       clip-path="none"
       d="m 25.563231,23.496444 -4.923837,1e-6"
       id="path4478"
       inkscape:connector-curvature="0" />
    <path
       style="color:#000000;clip-rule:nonzero;display:inline;overflow:visible;visibility:visible;opacity:1;isolation:auto;mix-blend-mode:normal;color-interpolation:sRGB;color-interpolation-filters:linearRGB;solid-color:#000000;solid-opacity:1;fill:none;fill-opacity:1;fill-rule:nonzero;stroke:none;stroke-width:0.29800001;stroke-linecap:butt;stroke-linejoin:miter;stroke-miterlimit:4;stroke-dasharray:none;stroke-dashoffset:0;stroke-opacity:1;marker:none;marker-start:none;marker-mid:none;marker-end:none;paint-order:normal;color-rendering:auto;image-rendering:auto;shape-rendering:auto;text-rendering:auto;enable-background:accumulate"
       mask="none"
       clip-path="none"
       d="M 29.615973,23.496444 H 25.563231"
       id="path4476"
       inkscape:connector-curvature="0" />
    <path
       style="color:#000000;clip-rule:nonzero;display:inline;overflow:visible;visibility:visible;opacity:1;isolation:auto;mix-blend-mode:normal;color-interpolation:sRGB;color-interpolation-filters:linearRGB;solid-color:#000000;solid-opacity:1;fill:none;fill-opacity:1;fill-rule:nonzero;stroke:none;stroke-width:0.29800001;stroke-linecap:butt;stroke-linejoin:miter;stroke-miterlimit:4;stroke-dasharray:none;stroke-dashoffset:0;stroke-opacity:1;marker:none;marker-start:none;marker-mid:none;marker-end:none;paint-order:normal;color-rendering:auto;image-rendering:auto;shape-rendering:auto;text-rendering:auto;enable-background:accumulate"
       mask="none"
       clip-path="none"
       d="m 35.307392,23.496445 -5.691419,-1e-6"
       id="path4474"
       inkscape:connector-curvature="0" />
    <path
       style="color:#000000;clip-rule:nonzero;display:inline;overflow:visible;visibility:visible;opacity:1;isolation:auto;mix-blend-mode:normal;color-interpolation:sRGB;color-interpolation-filters:linearRGB;solid-color:#000000;solid-opacity:1;fill:none;fill-opacity:1;fill-rule:nonzero;stroke:none;stroke-width:0.29800001;stroke-linecap:butt;stroke-linejoin:miter;stroke-miterlimit:4;stroke-dasharray:none;stroke-dashoffset:0;stroke-opacity:1;marker:none;marker-start:none;marker-mid:none;marker-end:none;paint-order:normal;color-rendering:auto;image-rendering:auto;shape-rendering:auto;text-rendering:auto;enable-background:accumulate"
       mask="none"
       clip-path="none"
       d="m 39.358181,23.496444 -4.050789,1e-6"
       id="rect4257"
       inkscape:connector-curvature="0" />
    <g
       style="font-style:normal;font-variant:normal;font-weight:normal;font-stretch:normal;font-size:28.709692px;line-height:1000%;font-family:Ubuntu;-inkscape-font-specification:Ubuntu;letter-spacing:0px;word-spacing:0px;fill:#ffffff;fill-opacity:1;stroke:none;stroke-width:1px;stroke-linecap:butt;stroke-linejoin:miter;stroke-opacity:1"
       id="g4312"
       transform="matrix(1,0,0,0.65872162,0,7.737557)" />
    <g
       aria-label="Day"
       style="font-style:normal;font-variant:normal;font-weight:normal;font-stretch:normal;line-height:0%;font-family:Ubuntu;-inkscape-font-specification:Ubuntu;letter-spacing:0px;word-spacing:0px;fill:#a3a3a3;fill-opacity:1;stroke:none;stroke-width:1px;stroke-linecap:butt;stroke-linejoin:miter;stroke-opacity:1"
       id="text4336">
      <path
         d="m 37.763246,37.049884 q 0,0.187216 -0.05824,0.326588 -0.05824,0.137292 -0.164334,0.228819 -0.106089,0.08945 -0.253781,0.135212 -0.147693,0.04368 -0.324508,0.04368 -0.08737,0 -0.193457,-0.0083 -0.104008,-0.0062 -0.189296,-0.02704 v -1.397879 q 0.08529,-0.0208 0.189296,-0.02704 0.10609,-0.0083 0.193457,-0.0083 0.176815,0 0.324508,0.04576 0.147692,0.04368 0.253781,0.135211 0.106089,0.08945 0.164334,0.22882 0.05824,0.137291 0.05824,0.324507 z m -0.784227,0.557488 q 0.287065,0 0.428517,-0.145613 0.141452,-0.147692 0.141452,-0.411875 0,-0.264182 -0.141452,-0.409795 -0.141452,-0.147692 -0.428517,-0.147692 -0.08529,0 -0.133131,0.0021 -0.04576,0.0021 -0.06449,0.0042 v 1.102494 q 0.01872,0.0021 0.06449,0.0042 0.04784,0.0021 0.133131,0.0021 z"
         style="font-size:2.08017707px;line-height:10"
         id="path7773"
         inkscape:connector-curvature="0" />
      <path
         d="m 38.387754,37.632334 q 0.06865,0 0.120651,-0.0021 0.05408,-0.0042 0.08945,-0.01248 v -0.322428 q -0.0208,-0.0104 -0.06865,-0.01664 -0.04576,-0.0083 -0.112329,-0.0083 -0.04368,0 -0.09361,0.0062 -0.04784,0.0062 -0.08945,0.02704 -0.03952,0.01872 -0.06657,0.05408 -0.02704,0.03328 -0.02704,0.08945 0,0.104009 0.06657,0.145612 0.06657,0.03952 0.180975,0.03952 z m -0.01664,-0.969363 q 0.11649,0 0.195536,0.0312 0.08113,0.02912 0.128971,0.08529 0.04993,0.05409 0.07073,0.131051 0.0208,0.07489 0.0208,0.166414 v 0.676058 q -0.02496,0.0042 -0.07073,0.01248 -0.04368,0.0062 -0.09985,0.01248 -0.05617,0.0062 -0.122731,0.0104 -0.06448,0.0062 -0.128971,0.0062 -0.09153,0 -0.168494,-0.01872 -0.07697,-0.01872 -0.133131,-0.05824 -0.05617,-0.0416 -0.08737,-0.108169 -0.0312,-0.06657 -0.0312,-0.160174 0,-0.08945 0.03536,-0.153933 0.03744,-0.06448 0.09985,-0.104009 0.06241,-0.03952 0.145612,-0.05824 0.08321,-0.01872 0.174735,-0.01872 0.02912,0 0.06032,0.0042 0.0312,0.0021 0.05824,0.0083 0.02912,0.0042 0.04993,0.0083 0.0208,0.0042 0.02912,0.0062 v -0.05409 q 0,-0.04784 -0.0104,-0.09361 -0.0104,-0.04784 -0.03744,-0.08321 -0.02704,-0.03744 -0.07489,-0.05824 -0.04576,-0.02288 -0.120651,-0.02288 -0.09569,0 -0.168494,0.01456 -0.07073,0.01248 -0.106089,0.02704 l -0.02288,-0.160174 q 0.03744,-0.01664 0.124811,-0.0312 0.08737,-0.01664 0.189296,-0.01664 z"
         style="font-size:2.08017707px;line-height:10"
         id="path7775"
         inkscape:connector-curvature="0" />
      <path
         d="m 38.947029,37.973483 q 0.02288,0.0104 0.05824,0.01872 0.03744,0.0104 0.07281,0.0104 0.114409,0 0.178895,-0.052 0.06448,-0.04992 0.11649,-0.164334 -0.131052,-0.249621 -0.245461,-0.528365 -0.11233,-0.280824 -0.187216,-0.567888 h 0.208018 q 0.02288,0.09361 0.05408,0.201777 0.03328,0.108169 0.07281,0.222579 0.03952,0.114409 0.08529,0.228819 0.04576,0.11441 0.09569,0.220499 0.07905,-0.218419 0.137291,-0.432677 0.05824,-0.214258 0.11025,-0.440997 h 0.199697 q -0.07489,0.305786 -0.166414,0.58869 -0.09153,0.280824 -0.197617,0.526284 -0.0416,0.09361 -0.08737,0.160174 -0.04368,0.06865 -0.09777,0.11233 -0.05408,0.04368 -0.12273,0.06448 -0.06657,0.0208 -0.151853,0.0208 -0.02288,0 -0.04784,-0.0042 -0.02496,-0.0021 -0.04993,-0.0083 -0.02288,-0.0042 -0.04368,-0.0104 -0.01872,-0.0062 -0.02704,-0.0104 z"
         style="font-size:2.08017707px;line-height:10"
         id="path7777"
         inkscape:connector-curvature="0" />
    </g>
    <rect
       style="color:#000000;clip-rule:nonzero;display:inline;overflow:visible;visibility:visible;opacity:1;isolation:auto;mix-blend-mode:normal;color-interpolation:sRGB;color-interpolation-filters:linearRGB;solid-color:#000000;solid-opacity:1;fill:url(#linearGradient4348);fill-opacity:1;fill-rule:nonzero;stroke:none;stroke-width:0.29800001;stroke-linecap:butt;stroke-linejoin:miter;stroke-miterlimit:4;stroke-dasharray:none;stroke-dashoffset:0;stroke-opacity:1;marker:none;marker-start:none;marker-mid:none;marker-end:none;paint-order:normal;color-rendering:auto;image-rendering:auto;shape-rendering:auto;text-rendering:auto;enable-background:accumulate"
       id="rect4340"
       width="2"
       height="4"
       x="42.049824"
       y="22.118717" />
    <rect
       y="22.118717"
       x="3.9873238"
       height="4"
       width="2"
       id="rect4358"
       style="color:#000000;clip-rule:nonzero;display:inline;overflow:visible;visibility:visible;opacity:1;isolation:auto;mix-blend-mode:normal;color-interpolation:sRGB;color-interpolation-filters:linearRGB;solid-color:#000000;solid-opacity:1;fill:url(#linearGradient4360);fill-opacity:1;fill-rule:nonzero;stroke:none;stroke-width:0.29800001;stroke-linecap:butt;stroke-linejoin:miter;stroke-miterlimit:4;stroke-dasharray:none;stroke-dashoffset:0;stroke-opacity:1;marker:none;marker-start:none;marker-mid:none;marker-end:none;paint-order:normal;color-rendering:auto;image-rendering:auto;shape-rendering:auto;text-rendering:auto;enable-background:accumulate" />
    <g
       aria-label="30"
       style="font-style:normal;font-variant:normal;font-weight:bold;font-stretch:normal;line-height:0%;font-family:roboto;-inkscape-font-specification:'roboto Bold';letter-spacing:0px;word-spacing:0px;fill:url(#linearGradient4332);fill-opacity:1;stroke:none;stroke-width:1.10000002;stroke-linecap:butt;stroke-linejoin:miter;stroke-miterlimit:4;stroke-dasharray:none;stroke-opacity:0.15706805"
       id="text4255">
      <path
         d="m 13.254893,21.900011 h 2.158834 q 1.542025,0 2.285,-0.771012 0.742976,-0.771013 0.742976,-2.046687 0,-1.23362 -0.742976,-1.920522 -0.728957,-0.686902 -2.01865,-0.686902 -1.163527,0 -1.948558,0.644847 -0.785031,0.630828 -0.785031,1.654172 H 8.8951695 q 0,-1.598098 0.8551226,-2.859755 0.8691409,-1.275674 2.4111659,-1.990613 1.556043,-0.714939 3.42049,-0.714939 3.238252,0 5.074663,1.556043 1.836411,1.542025 1.836411,4.261595 0,1.40184 -0.855123,2.579386 -0.855123,1.177546 -2.242945,1.808375 1.724264,0.616809 2.565368,1.850429 0.855123,1.23362 0.855123,2.915828 0,2.71957 -1.990613,4.359724 -1.976595,1.640153 -5.242884,1.640153 -3.056012,0 -5.00457,-1.612116 Q 8.6428382,30.9559 8.6428382,28.306422 h 4.0513188 q 0,1.149509 0.855123,1.878466 0.869141,0.728957 2.130797,0.728957 1.443896,0 2.256963,-0.756994 0.827086,-0.771012 0.827086,-2.032669 0,-3.056012 -3.364417,-3.056012 h -2.144816 z"
         style="font-style:normal;font-variant:normal;font-weight:bold;font-stretch:normal;font-size:28.709692px;line-height:10;font-family:roboto;-inkscape-font-specification:'roboto Bold';fill:url(#linearGradient4332);fill-opacity:1;stroke:none;stroke-width:1.10000002;stroke-miterlimit:4;stroke-dasharray:none;stroke-opacity:0.15706805"
         id="path7761"
         inkscape:connector-curvature="0" />
      <path
         d="m 39.357162,25.460686 q 0,4.233558 -1.752301,6.476502 -1.7523,2.242945 -5.130736,2.242945 -3.33638,0 -5.102699,-2.200889 -1.766319,-2.20089 -1.808374,-6.308282 v -3.756933 q 0,-4.275613 1.766319,-6.490521 1.780337,-2.214908 5.116718,-2.214908 3.33638,0 5.102699,2.20089 1.766319,2.186871 1.808374,6.294263 z m -4.051319,-4.121411 q 0,-2.537331 -0.70092,-3.686841 -0.686902,-1.163527 -2.158834,-1.163527 -1.429878,0 -2.116779,1.107454 -0.672884,1.093435 -0.714939,3.434509 v 4.962515 q 0,2.495276 0.672883,3.714877 0.686902,1.205583 2.186871,1.205583 1.485951,0 2.144816,-1.163528 0.658865,-1.163527 0.686902,-3.560674 z"
         style="font-style:normal;font-variant:normal;font-weight:bold;font-stretch:normal;font-size:28.709692px;line-height:10;font-family:roboto;-inkscape-font-specification:'roboto Bold';fill:url(#linearGradient4332);fill-opacity:1;stroke:none;stroke-width:1.10000002;stroke-miterlimit:4;stroke-dasharray:none;stroke-opacity:0.15706805"
         id="path7763"
         inkscape:connector-curvature="0" />
    </g>
  </g>
  <g
     inkscape:groupmode="layer"
     id="layer1"
     inkscape:label="circles"
     style="display:none">
    <rect
       rx="6.6500416"
       ry="6.6500416"
       y="4.0498753"
       x="4.0498753"
       height="39.900249"
       width="39.900249"
       id="rect5279-6"
       style="display:inline;opacity:1;fill:none;fill-opacity:0.95027627;stroke:#ff1300;stroke-width:0.09975062;stroke-linecap:square;stroke-linejoin:miter;stroke-miterlimit:4;stroke-dasharray:0.09975062, 0.19950125;stroke-dashoffset:0;stroke-opacity:1;paint-order:normal" />
    <circle
       r="15.950156"
       cy="24"
       cx="24"
       id="path5297-7"
       style="display:inline;opacity:1;fill:none;fill-opacity:0.95027627;stroke:#ff1300;stroke-width:0.09968847;stroke-linecap:square;stroke-linejoin:miter;stroke-miterlimit:4;stroke-dasharray:0.09968847, 0.19937695;stroke-dashoffset:0;stroke-opacity:1;paint-order:normal" />
    <circle
       style="display:inline;opacity:1;fill:none;fill-opacity:0.95027627;stroke:#ff1300;stroke-width:0.02492211;stroke-linecap:square;stroke-linejoin:miter;stroke-miterlimit:4;stroke-dasharray:0.02492211, 0.04984424;stroke-dashoffset:0;stroke-opacity:1;paint-order:normal"
       id="circle5299-5"
       cx="24"
       cy="24"
       r="3.9875391" />
    <circle
       style="display:inline;opacity:1;fill:none;fill-opacity:0.95027627;stroke:#ff00dc;stroke-width:0.14953269;stroke-linecap:square;stroke-linejoin:miter;stroke-miterlimit:4;stroke-dasharray:0.14953269, 0.2990654;stroke-dashoffset:0;stroke-opacity:1;paint-order:normal"
       id="circle5277"
       cx="24"
       cy="24"
       r="23.925234" />
  </g>
</svg>
