<?xml version="1.0" encoding="UTF-8" standalone="no"?>
<svg
   xmlns:dc="http://purl.org/dc/elements/1.1/"
   xmlns:cc="http://creativecommons.org/ns#"
   xmlns:rdf="http://www.w3.org/1999/02/22-rdf-syntax-ns#"
   xmlns:svg="http://www.w3.org/2000/svg"
   xmlns="http://www.w3.org/2000/svg"
   xmlns:xlink="http://www.w3.org/1999/xlink"
   xmlns:sodipodi="http://sodipodi.sourceforge.net/DTD/sodipodi-0.dtd"
   xmlns:inkscape="http://www.inkscape.org/namespaces/inkscape"
   height="48"
   viewBox="0 0 48 48"
   width="48"
   id="svg2"
   version="1.1"
   inkscape:version="0.92.1 r"
   sodipodi:docname="preferences-desktop-font.svg">
  <metadata
     id="metadata24">
    <rdf:RDF>
      <cc:Work
         rdf:about="">
        <dc:format>image/svg+xml</dc:format>
        <dc:type
           rdf:resource="http://purl.org/dc/dcmitype/StillImage" />
        <dc:title />
      </cc:Work>
    </rdf:RDF>
  </metadata>
  <defs
     id="defs22">
    <linearGradient
       id="linearGradient9368"
       inkscape:collect="always">
      <stop
         id="stop9364"
         offset="0"
         style="stop-color:#ffffff;stop-opacity:0.25520834" />
      <stop
         id="stop9366"
         offset="1"
         style="stop-color:#000000;stop-opacity:0.11458334" />
    </linearGradient>
    <pattern
       inkscape:collect="always"
       xlink:href="#Checkerboard"
       id="pattern9348"
       patternTransform="scale(1.9336857)" />
    <pattern
       inkscape:stockid="Checkerboard"
       id="Checkerboard"
       patternTransform="translate(0,0) scale(10,10)"
       height="2"
       width="2"
       patternUnits="userSpaceOnUse"
       inkscape:collect="always">
      <rect
         id="rect8702"
         height="1"
         width="1"
         y="0"
         x="0"
         style="fill:black;stroke:none" />
      <rect
         id="rect8704"
         height="1"
         width="1"
         y="1"
         x="1"
         style="fill:black;stroke:none" />
    </pattern>
    <linearGradient
       id="linearGradient7857">
      <stop
         id="stop7853"
         offset="0"
         style="stop-color:#ffffff;stop-opacity:1" />
      <stop
         id="stop7855"
         offset="1"
         style="stop-color:#c6c5cc;stop-opacity:1" />
    </linearGradient>
    <linearGradient
       id="linearGradient7829">
      <stop
         style="stop-color:#ffffff;stop-opacity:1;"
         offset="0"
         id="stop7825" />
      <stop
         style="stop-color:#a79ba7;stop-opacity:1;"
         offset="1"
         id="stop7827" />
    </linearGradient>
    <linearGradient
       inkscape:collect="always"
       id="linearGradient4291">
      <stop
         style="stop-color:#009bff;stop-opacity:1"
         offset="0"
         id="stop4293" />
      <stop
         style="stop-color:#00ce6a;stop-opacity:1"
         offset="1"
         id="stop4295" />
    </linearGradient>
    <linearGradient
       inkscape:collect="always"
       id="linearGradient4261">
      <stop
         style="stop-color:#000000;stop-opacity:1;"
         offset="0"
         id="stop4263" />
      <stop
         style="stop-color:#000000;stop-opacity:0;"
         offset="1"
         id="stop4265" />
    </linearGradient>
    <linearGradient
       inkscape:collect="always"
       id="linearGradient49897">
      <stop
         style="stop-color:#176875;stop-opacity:1"
         offset="0"
         id="stop49899" />
      <stop
         style="stop-color:#186a77;stop-opacity:1"
         offset="1"
         id="stop49901" />
    </linearGradient>
    <linearGradient
       inkscape:collect="always"
       id="linearGradient4536">
      <stop
         style="stop-color:#b6b6b6;stop-opacity:1"
         offset="0"
         id="stop4538" />
      <stop
         id="stop4544"
         offset="0.48217213"
         style="stop-color:#ffffff;stop-opacity:1;" />
      <stop
         style="stop-color:#cfcfcf;stop-opacity:1"
         offset="1"
         id="stop4540" />
    </linearGradient>
    <linearGradient
       inkscape:collect="always"
       id="linearGradient4492">
      <stop
         style="stop-color:#165dc2;stop-opacity:1;"
         offset="0"
         id="stop4494" />
      <stop
         style="stop-color:#1680c2;stop-opacity:1"
         offset="1"
         id="stop4496" />
    </linearGradient>
    <inkscape:perspective
       sodipodi:type="inkscape:persp3d"
       inkscape:vp_x="0 : 50 : 1"
       inkscape:vp_y="0 : 1000 : 0"
       inkscape:vp_z="100 : 50 : 1"
       inkscape:persp3d-origin="50 : 33.333333 : 1"
       id="perspective4380" />
    <filter
       style="color-interpolation-filters:sRGB"
       id="filter4672"
       inkscape:label="filtro0">
      <feGaussianBlur
         stdDeviation="19.539999999999999"
         id="feGaussianBlur4674" />
    </filter>
    <filter
       style="color-interpolation-filters:sRGB"
       id="filter4680"
       inkscape:label="filtro1">
      <feDiffuseLighting
         id="feDiffuseLighting4682" />
    </filter>
    <linearGradient
       gradientTransform="translate(-29.321003,-3.241)"
       inkscape:collect="always"
       xlink:href="#linearGradient4492"
       id="linearGradient4498-3"
       x1="32.94767"
       y1="16.16"
       x2="41.579502"
       y2="6.4204984"
       gradientUnits="userSpaceOnUse" />
    <linearGradient
       gradientTransform="translate(-29.321003,-3.241)"
       inkscape:collect="always"
       xlink:href="#linearGradient4536"
       id="linearGradient4542-0"
       x1="29.321003"
       y1="10.72"
       x2="44.279003"
       y2="10.72"
       gradientUnits="userSpaceOnUse" />
    <linearGradient
       id="linearGradient3244"
       inkscape:collect="always">
      <stop
         id="stop3246"
         offset="0"
         style="stop-color:#d0611f;stop-opacity:1" />
      <stop
         id="stop3248"
         offset="1"
         style="stop-color:#f77a2c;stop-opacity:1" />
    </linearGradient>
    <linearGradient
       inkscape:collect="always"
       xlink:href="#linearGradient3244"
       id="linearGradient3242-3"
       gradientUnits="userSpaceOnUse"
       gradientTransform="matrix(0.49438202,0,0,0.49438202,-34.11236,-485.66219)"
       x1="78.89711"
       y1="1042.14"
       x2="78.89711"
       y2="982.4278" />
    <symbol
       id="icon-refresh"
       viewBox="0 0 24 28">
      <title
         id="title9852">refresh</title>
      <path
         class="path1"
         d="M23.609 16.5c0 0.031 0 0.078-0.016 0.109-1.328 5.531-5.891 9.391-11.656 9.391-3.047 0-6-1.203-8.219-3.313l-2.016 2.016c-0.187 0.187-0.438 0.297-0.703 0.297-0.547 0-1-0.453-1-1v-7c0-0.547 0.453-1 1-1h7c0.547 0 1 0.453 1 1 0 0.266-0.109 0.516-0.297 0.703l-2.141 2.141c1.469 1.375 3.422 2.156 5.437 2.156 2.781 0 5.359-1.437 6.813-3.813 0.375-0.609 0.562-1.203 0.828-1.828 0.078-0.219 0.234-0.359 0.469-0.359h3c0.281 0 0.5 0.234 0.5 0.5zM24 4v7c0 0.547-0.453 1-1 1h-7c-0.547 0-1-0.453-1-1 0-0.266 0.109-0.516 0.297-0.703l2.156-2.156c-1.484-1.375-3.437-2.141-5.453-2.141-2.781 0-5.359 1.437-6.813 3.813-0.375 0.609-0.562 1.203-0.828 1.828-0.078 0.219-0.234 0.359-0.469 0.359h-3.109c-0.281 0-0.5-0.234-0.5-0.5v-0.109c1.344-5.547 5.953-9.391 11.719-9.391 3.063 0 6.047 1.219 8.266 3.313l2.031-2.016c0.187-0.187 0.438-0.297 0.703-0.297 0.547 0 1 0.453 1 1z"
         id="path9854" />
    </symbol>
    <symbol
       id="symbol5687">
      <title
         id="title5689">Replay</title>
      <path
         d="M24 10V2L14 12l10 10v-8c6.63 0 12 5.37 12 12s-5.37 12-12 12-12-5.37-12-12H8c0 8.84 7.16 16 16 16s16-7.16 16-16-7.16-16-16-16z"
         style="stroke:none"
         id="path5691" />
    </symbol>
    <symbol
       id="symbol20353">
      <title
         id="title20355">Refresh</title>
      <path
         d="M35.3 12.7C32.41 9.8 28.42 8 24 8 15.16 8 8.02 15.16 8.02 24S15.16 40 24 40c7.45 0 13.69-5.1 15.46-12H35.3c-1.65 4.66-6.07 8-11.3 8-6.63 0-12-5.37-12-12s5.37-12 12-12c3.31 0 6.28 1.38 8.45 3.55L26 22h14V8l-4.7 4.7z"
         style="stroke:none"
         id="path20357" />
    </symbol>
    <linearGradient
       inkscape:collect="always"
       xlink:href="#linearGradient49897"
       id="linearGradient49903-2"
       x1="24.333614"
       y1="44.351692"
       x2="24.333614"
       y2="-0.59979343"
       gradientUnits="userSpaceOnUse" />
    <linearGradient
       inkscape:collect="always"
       xlink:href="#linearGradient49897"
       id="linearGradient50365"
       gradientUnits="userSpaceOnUse"
       x1="24.333614"
       y1="44.351692"
       x2="24.333614"
       y2="-0.59979343"
       gradientTransform="matrix(1.0514827,0,0,1.0514827,-1.2359443,-1.105721)" />
    <linearGradient
       inkscape:collect="always"
       xlink:href="#linearGradient4261"
       id="linearGradient4267"
       x1="8.02"
       y1="24"
       x2="40"
       y2="24"
       gradientUnits="userSpaceOnUse" />
    <linearGradient
       inkscape:collect="always"
       xlink:href="#linearGradient7857"
       id="linearGradient4297"
       x1="-12.062357"
       y1="-18.509577"
       x2="9.9463406"
       y2="12.904525"
       gradientUnits="userSpaceOnUse"
       gradientTransform="translate(30.40559,30.759143)" />
    <linearGradient
       inkscape:collect="always"
       xlink:href="#linearGradient4291"
       id="linearGradient4297-3"
       x1="4"
       y1="44"
       x2="45.740971"
       y2="2.435807"
       gradientUnits="userSpaceOnUse"
       gradientTransform="translate(-2,-2)" />
    <linearGradient
       inkscape:collect="always"
       xlink:href="#linearGradient9368"
       id="linearGradient9362"
       gradientUnits="userSpaceOnUse"
       x1="22.712662"
       y1="46.338943"
       x2="22.712662"
       y2="2.5949619"
       gradientTransform="matrix(0.99695844,0,0,0.99695844,0.31760774,0.31022634)" />
  </defs>
  <sodipodi:namedview
     pagecolor="#383c4a"
     bordercolor="#666666"
     borderopacity="1"
     objecttolerance="4"
     gridtolerance="10"
     guidetolerance="4"
     inkscape:pageopacity="0"
     inkscape:pageshadow="2"
     inkscape:window-width="640"
     inkscape:window-height="480"
     id="namedview20"
     showgrid="false"
     inkscape:zoom="11.313709"
     inkscape:cx="34.60848"
     inkscape:cy="20.632602"
     inkscape:current-layer="layer4"
     inkscape:snap-smooth-nodes="true"
     showguides="false"
     borderlayer="true"
     inkscape:showpageshadow="false"
     inkscape:guide-bbox="true"
     guidecolor="#38cf02"
     guideopacity="0.49803922"
     inkscape:snap-nodes="true"
     inkscape:lockguides="true"
     inkscape:snap-global="false">
    <inkscape:grid
       type="xygrid"
       id="grid4171"
       empspacing="4"
       dotted="false" />
    <sodipodi:guide
       position="4,0"
       orientation="1,0"
       id="guide4173"
       inkscape:locked="true"
       inkscape:label=""
       inkscape:color="rgb(56,207,2)" />
    <sodipodi:guide
       position="44,0"
       orientation="1,0"
       id="guide4175"
       inkscape:locked="true"
       inkscape:label=""
       inkscape:color="rgb(56,207,2)" />
    <sodipodi:guide
       position="0,44"
       orientation="0,1"
       id="guide4177"
       inkscape:locked="true"
       inkscape:label=""
       inkscape:color="rgb(56,207,2)" />
    <sodipodi:guide
       position="0,4"
       orientation="0,1"
       id="guide4179"
       inkscape:locked="true"
       inkscape:label=""
       inkscape:color="rgb(56,207,2)" />
    <sodipodi:guide
       position="8,0"
       orientation="1,0"
       id="guide4243"
       inkscape:locked="true"
       inkscape:label=""
       inkscape:color="rgb(56,207,2)" />
    <sodipodi:guide
       position="40,0"
       orientation="1,0"
       id="guide4251"
       inkscape:locked="true"
       inkscape:label=""
       inkscape:color="rgb(56,207,2)" />
    <sodipodi:guide
       position="0,40"
       orientation="0,1"
       id="guide4514"
       inkscape:locked="true"
       inkscape:label=""
       inkscape:color="rgb(56,207,2)" />
    <sodipodi:guide
       position="0,8"
       orientation="0,1"
       id="guide4516"
       inkscape:locked="true"
       inkscape:label=""
       inkscape:color="rgb(56,207,2)" />
    <sodipodi:guide
       position="0,0"
       orientation="-0.70710678,0.70710678"
       id="guide5275"
       inkscape:locked="true"
       inkscape:label=""
       inkscape:color="rgb(56,207,2)" />
    <sodipodi:guide
       position="0,48"
       orientation="-0.70710678,-0.70710678"
       id="guide5277"
       inkscape:locked="true"
       inkscape:label=""
       inkscape:color="rgb(56,207,2)" />
    <sodipodi:guide
       position="46.845822,23.776464"
       orientation="0,1"
       id="guide5042"
       inkscape:locked="true" />
    <sodipodi:guide
       position="24.041629,5.7452423"
       orientation="1,0"
       id="guide5044"
       inkscape:locked="true" />
  </sodipodi:namedview>
  <g
     inkscape:groupmode="layer"
     id="layer4"
     inkscape:label="base"
     style="display:inline">
    <rect
       ry="7.577291"
       y="1"
       x="1"
       height="46"
       width="46"
       id="rect7788"
       style="color:#000000;clip-rule:nonzero;display:block;overflow:visible;visibility:visible;opacity:1;isolation:auto;mix-blend-mode:normal;color-interpolation:sRGB;color-interpolation-filters:linearRGB;solid-color:#000000;solid-opacity:1;vector-effect:none;fill:#000000;fill-opacity:0.078125;fill-rule:nonzero;stroke:none;stroke-width:0.52272725;stroke-linecap:butt;stroke-linejoin:miter;stroke-miterlimit:4;stroke-dasharray:none;stroke-dashoffset:0;stroke-opacity:1;marker:none;marker-start:none;marker-mid:none;marker-end:none;paint-order:normal;color-rendering:auto;image-rendering:auto;shape-rendering:auto;text-rendering:auto;enable-background:accumulate"
       inkscape:label="sombra" />
    <rect
       style="color:#000000;clip-rule:nonzero;display:inline;overflow:visible;visibility:visible;opacity:1;isolation:auto;mix-blend-mode:normal;color-interpolation:sRGB;color-interpolation-filters:linearRGB;solid-color:#000000;solid-opacity:1;vector-effect:none;fill:url(#linearGradient4297);fill-opacity:1;fill-rule:nonzero;stroke:none;stroke-width:0.5;stroke-linecap:butt;stroke-linejoin:miter;stroke-miterlimit:4;stroke-dasharray:none;stroke-dashoffset:0;stroke-opacity:1;marker:none;marker-start:none;marker-mid:none;marker-end:none;paint-order:normal;color-rendering:auto;image-rendering:auto;shape-rendering:auto;text-rendering:auto;enable-background:accumulate"
       id="rect7763"
       width="44"
       height="44"
       x="2"
       y="2"
       ry="7.2478437"
       inkscape:label="base" />
    <rect
       ry="7.2478437"
       y="2"
       x="2"
       height="44"
       width="44"
       id="rect7909"
       style="color:#000000;clip-rule:nonzero;display:inline;overflow:visible;visibility:visible;opacity:0.02000002;isolation:auto;mix-blend-mode:normal;color-interpolation:sRGB;color-interpolation-filters:linearRGB;solid-color:#000000;solid-opacity:1;vector-effect:none;fill:url(#pattern9348);fill-opacity:1;fill-rule:nonzero;stroke:none;stroke-width:0.5;stroke-linecap:butt;stroke-linejoin:miter;stroke-miterlimit:4;stroke-dasharray:none;stroke-dashoffset:0;stroke-opacity:1;marker:none;marker-start:none;marker-mid:none;marker-end:none;paint-order:normal;color-rendering:auto;image-rendering:auto;shape-rendering:auto;text-rendering:auto;enable-background:accumulate"
       inkscape:label="tablero" />
    <path
       style="font-size:medium;line-height:1000%;font-family:sans-serif;letter-spacing:0px;word-spacing:0px;display:inline;fill:#5e585f;fill-opacity:1;stroke:none;stroke-width:0.3802408px;stroke-linecap:butt;stroke-linejoin:miter;stroke-opacity:1"
       d="m 19.643281,34.876375 c -0.407968,0 -0.723935,0.08385 -0.945743,0.25417 -0.221806,0.170315 -0.33101,0.411176 -0.33101,0.724083 0,0.257455 0.0741,0.46029 0.224614,0.608821 0.150518,0.146553 0.3943,0.256765 0.732952,0.328055 l 0.192103,0.04433 c 0.33865,0.07327 0.557087,0.148352 0.656109,0.227567 0.101003,0.07921 0.150729,0.194302 0.150729,0.342833 0,0.160416 -0.06824,0.286225 -0.206881,0.375341 -0.138623,0.08714 -0.33659,0.130044 -0.594045,0.130044 -0.1921,0 -0.386161,-0.02534 -0.582221,-0.07684 -0.196062,-0.05348 -0.394997,-0.134432 -0.597002,-0.239392 v 0.564491 c 0.213887,0.06931 0.416721,0.122977 0.608822,0.156639 0.194082,0.03565 0.380342,0.05321 0.55858,0.05321 0.427771,0 0.761259,-0.09169 1.004851,-0.271903 0.245572,-0.180217 0.369431,-0.424004 0.369431,-0.73295 0,-0.271318 -0.08093,-0.481953 -0.245301,-0.632465 -0.162396,-0.152496 -0.439364,-0.271479 -0.827527,-0.354652 l -0.186192,-0.04136 c -0.293098,-0.06536 -0.488132,-0.132631 -0.585178,-0.203926 -0.09704,-0.07329 -0.144812,-0.174708 -0.144812,-0.301456 0,-0.166357 0.06631,-0.289211 0.20097,-0.372385 0.136655,-0.08319 0.340459,-0.127078 0.611777,-0.127078 0.178239,0 0.350848,0.02245 0.517203,0.06207 0.166355,0.03959 0.327264,0.0981 0.481737,0.177325 v -0.517201 c -0.150517,-0.05941 -0.315321,-0.103285 -0.493558,-0.132995 -0.178239,-0.02971 -0.368399,-0.04434 -0.570402,-0.04434 z m 3.2835,0 c -0.178237,0 -0.361572,0.01951 -0.549713,0.0591 -0.188139,0.03763 -0.382201,0.09418 -0.582223,0.171417 v 0.505381 c 0.166355,-0.0911 0.336985,-0.15838 0.517203,-0.203927 0.180219,-0.04555 0.365504,-0.07092 0.555624,-0.07092 0.299043,0 0.53311,0.07121 0.697484,0.209836 0.166356,0.136656 0.248259,0.33071 0.248259,0.582223 v 0.05321 h -0.765461 c -0.497085,0 -0.871556,0.09361 -1.123069,0.283723 -0.249532,0.190121 -0.375341,0.473913 -0.375341,0.848212 0,0.320827 0.101433,0.576314 0.301455,0.768416 0.202002,0.190121 0.472115,0.286679 0.812747,0.286679 0.269337,0 0.496549,-0.04975 0.682708,-0.144813 0.18616,-0.09704 0.342194,-0.244268 0.466961,-0.446271 v 0.50538 h 0.546757 v -1.900352 c 0,-0.506987 -0.11995,-0.885356 -0.357609,-1.13489 -0.23765,-0.249533 -0.59454,-0.372387 -1.075782,-0.372387 z m 4.167177,0 c -0.231709,0 -0.436494,0.04876 -0.614733,0.147779 -0.176256,0.09902 -0.33034,0.249205 -0.461049,0.449227 v -0.517203 h -0.549711 v 3.327831 h 0.549711 v -1.882618 c 0,-0.324789 0.08385,-0.580276 0.254169,-0.768416 0.170315,-0.188139 0.405358,-0.283722 0.70044,-0.283722 0.245572,0 0.426928,0.07998 0.549714,0.236435 0.12278,0.156453 0.186193,0.391465 0.186192,0.706353 v 1.991968 h 0.546758 v -2.009702 c 0,-0.459457 -0.09948,-0.8076 -0.295546,-1.043272 -0.196061,-0.23765 -0.483722,-0.354653 -0.865945,-0.354653 z m 3.313055,0 c -0.407968,0 -0.720981,0.08385 -0.942787,0.25417 -0.221808,0.170315 -0.333965,0.411176 -0.333965,0.724083 0,0.257455 0.07705,0.46029 0.227568,0.608821 0.150518,0.146553 0.394299,0.256765 0.732951,0.328055 l 0.189148,0.04433 c 0.33865,0.07327 0.557086,0.148352 0.656109,0.227567 0.101003,0.07921 0.153684,0.194302 0.153684,0.342833 -1e-6,0.160416 -0.07121,0.286225 -0.209837,0.375341 -0.138622,0.08714 -0.33659,0.130044 -0.594044,0.130044 -0.192101,0 -0.386161,-0.02534 -0.582223,-0.07684 -0.196062,-0.05348 -0.394997,-0.134432 -0.597,-0.239392 v 0.564491 c 0.213887,0.06931 0.416722,0.122977 0.608821,0.156639 0.194081,0.03565 0.380342,0.05321 0.558579,0.05321 0.427772,0 0.764215,-0.09169 1.007807,-0.271903 0.245573,-0.180217 0.369431,-0.424004 0.369431,-0.73295 0,-0.271318 -0.08387,-0.481953 -0.248256,-0.632465 -0.162397,-0.152496 -0.436407,-0.271479 -0.82457,-0.354652 l -0.189149,-0.04136 c -0.293096,-0.06536 -0.488133,-0.132631 -0.585178,-0.203926 -0.09704,-0.07329 -0.144813,-0.174708 -0.144813,-0.301456 0,-0.166357 0.06926,-0.289211 0.203927,-0.372385 0.136656,-0.08319 0.340459,-0.127078 0.611777,-0.127078 0.178237,0 0.347893,0.02245 0.514246,0.06207 0.166357,0.03959 0.327267,0.0981 0.481739,0.177325 v -0.517201 c -0.150517,-0.05941 -0.315322,-0.103285 -0.493559,-0.132995 -0.178239,-0.02971 -0.3684,-0.04434 -0.570401,-0.04434 z m -7.1374,1.734846 h 0.543802 v 0.121176 c 0,0.356477 -0.09067,0.641215 -0.274857,0.857081 -0.182199,0.213884 -0.426991,0.322142 -0.729996,0.322142 -0.219826,0 -0.394386,-0.05559 -0.523113,-0.16846 -0.126745,-0.114861 -0.189148,-0.269923 -0.189148,-0.464004 0,-0.243592 0.08681,-0.416202 0.257124,-0.517203 0.170316,-0.101003 0.474553,-0.150729 0.916188,-0.150729 z"
       id="path9374"
       inkscape:connector-curvature="0"
       inkscape:label="sans" />
    <path
       style="font-style:normal;font-variant:normal;font-weight:normal;font-stretch:normal;font-size:medium;line-height:1000%;font-family:'Nimbus Roman';-inkscape-font-specification:'Nimbus Roman, ';letter-spacing:0px;word-spacing:0px;fill:#000000;fill-opacity:0.13020833;stroke:none;stroke-width:1.73344016px;stroke-linecap:butt;stroke-linejoin:miter;stroke-opacity:1"
       d="M 17.166016,13.251953 11.396484,26.871094 C 9.6214418,30.92041 9.2883133,31.364452 7.9570312,31.419922 v 0.52539 h 5.4921878 v -0.52539 c -1.331282,0 -1.886719,-0.334356 -1.886719,-1.138672 0,-0.33282 0.08399,-0.719522 0.222656,-1.080078 l 1.275391,-3.246094 h 7.267578 l 1.136719,2.66211 c 0.33282,0.748847 0.527343,1.471084 0.527344,1.859374 0,0.693377 -0.471449,0.915625 -1.941407,0.94336 v 0.52539 h 7.072266 v -0.52539 c -1.248077,-0.0832 -1.525367,-0.36167 -2.496094,-2.414063 l -6.90625,-15.753906 z m -0.44336,3.939453 3.216797,7.626953 h -6.40625 z m 17.431641,1.625 c -2.648621,0 -4.734375,1.38111 -4.734375,3.15625 0,0.648067 0.534693,1.210938 1.210937,1.210938 0.676244,0 1.269532,-0.563704 1.269532,-1.183594 0,-0.112708 -0.02847,-0.251982 -0.05664,-0.449219 -0.05635,-0.253592 -0.08594,-0.480496 -0.08594,-0.677734 0,-0.760774 0.902224,-1.378906 2.029297,-1.378906 1.380664,0 2.142579,0.816342 2.142579,2.33789 v 1.71875 c -4.311054,1.718786 -4.819648,1.97225 -6.03125,3.042969 -0.619891,0.563537 -1.013672,1.521337 -1.013672,2.451172 0,1.77514 1.240198,3.015625 2.958984,3.015625 1.23978,0 2.394495,-0.591446 4.113281,-2.056641 0.140884,1.493372 0.647486,2.056641 1.802735,2.056641 0.958012,0 1.55092,-0.339437 2.537109,-1.410156 v -0.732422 c -0.479006,0.394475 -0.817582,0.535156 -1.240234,0.535156 -0.648067,0 -0.845704,-0.393032 -0.845703,-1.632813 v -5.49414 c 0,-1.465194 -0.139849,-2.28274 -0.5625,-2.958984 -0.61989,-1.014366 -1.831708,-1.550782 -3.49414,-1.550782 z m 1.775391,5.410156 V 28.3125 c 0,0.845305 -0.142663,1.15602 -0.734376,1.494141 -0.70442,0.394476 -1.464927,0.61914 -2.05664,0.61914 -0.986189,0 -1.775391,-0.958318 -1.775391,-2.169922 v -0.113281 c 0.02818,-1.690609 1.269718,-2.760765 4.566407,-3.916016 z"
       id="path9397"
       inkscape:connector-curvature="0"
       inkscape:label="a sombra" />
    <path
       style="font-style:normal;font-variant:normal;font-weight:normal;font-stretch:normal;font-size:medium;line-height:1000%;font-family:'Nimbus Roman';-inkscape-font-specification:'Nimbus Roman, ';letter-spacing:0px;word-spacing:0px;fill:#8c888f;fill-opacity:1;stroke:#000000;stroke-width:0.5;stroke-linecap:butt;stroke-linejoin:miter;stroke-miterlimit:4;stroke-dasharray:none;stroke-opacity:0.25520833"
       d="M 17.166016,12.251953 11.396484,25.871094 C 9.6214418,29.92041 9.2883133,30.364452 7.9570312,30.419922 v 0.52539 h 5.4921878 v -0.52539 c -1.331282,0 -1.886719,-0.334356 -1.886719,-1.138672 0,-0.33282 0.08399,-0.719522 0.222656,-1.080078 l 1.275391,-3.246094 h 7.267578 l 1.136719,2.66211 c 0.33282,0.748846 0.527343,1.471084 0.527344,1.859374 0,0.693377 -0.471449,0.915625 -1.941407,0.94336 v 0.52539 h 7.072266 v -0.52539 c -1.248077,-0.0832 -1.525367,-0.36167 -2.496094,-2.414063 l -6.90625,-15.753906 z m -0.44336,3.939453 3.216797,7.626953 h -6.40625 z M 34.154297,17.9375 c -2.648621,0 -4.734375,1.38111 -4.734375,3.15625 0,0.648067 0.534693,1.210938 1.210937,1.210938 0.676244,0 1.269532,-0.563704 1.269532,-1.183594 0,-0.112707 -0.02847,-0.251982 -0.05664,-0.449219 -0.05635,-0.253592 -0.08594,-0.480496 -0.08594,-0.677734 0,-0.760774 0.902224,-1.38086 2.029297,-1.38086 1.380664,0 2.142579,0.818296 2.142579,2.339844 v 1.71875 c -4.311054,1.718786 -4.819648,1.97225 -6.03125,3.042969 -0.619891,0.563537 -1.013672,1.521337 -1.013672,2.451172 0,1.775139 1.240198,3.015625 2.958984,3.015625 1.23978,0 2.394495,-0.591446 4.113281,-2.056641 0.140884,1.493372 0.647486,2.056641 1.802735,2.056641 0.958012,0 1.55092,-0.339438 2.537109,-1.410157 v -0.732422 c -0.479006,0.394475 -0.817582,0.535157 -1.240234,0.535157 -0.648067,0 -0.845704,-0.393033 -0.845703,-1.632813 v -5.496094 c 0,-1.465194 -0.139849,-2.280787 -0.5625,-2.957031 C 37.028548,18.473916 35.81673,17.9375 34.154297,17.9375 Z m 1.775391,5.410156 v 4.085938 c 0,0.845305 -0.142663,1.156018 -0.734376,1.49414 -0.70442,0.394475 -1.464927,0.619141 -2.05664,0.619141 -0.986189,0 -1.775391,-0.958319 -1.775391,-2.169922 v -0.113281 c 0.02818,-1.690609 1.269718,-2.760767 4.566407,-3.916016 z"
       id="path9391"
       inkscape:connector-curvature="0"
       inkscape:label="a" />
    <path
       style="color:#000000;clip-rule:nonzero;display:inline;overflow:visible;visibility:visible;opacity:1;isolation:auto;mix-blend-mode:normal;color-interpolation:sRGB;color-interpolation-filters:linearRGB;solid-color:#000000;solid-opacity:1;vector-effect:none;fill:#ffffff;fill-opacity:1;fill-rule:nonzero;stroke:none;stroke-width:0.5;stroke-linecap:butt;stroke-linejoin:miter;stroke-miterlimit:4;stroke-dasharray:none;stroke-dashoffset:0;stroke-opacity:1;marker:none;marker-start:none;marker-mid:none;marker-end:none;paint-order:normal;color-rendering:auto;image-rendering:auto;shape-rendering:auto;text-rendering:auto;enable-background:accumulate"
       d="m 2,9.9999992 v -1 C 2,4.9846932 5.2327414,1.7519522 9.2480469,1.7519522 H 38.751953 C 42.767259,1.7519522 46,4.9846932 46,8.9999992 v 1 c 0,-4.015306 -3.232741,-7.248047 -7.248047,-7.248047 H 9.2480469 C 5.2327414,2.7519522 2,5.9846932 2,9.9999992 Z"
       id="rect9410"
       inkscape:connector-curvature="0" />
    <path
       inkscape:connector-curvature="0"
       id="path9415"
       d="m 2,37.751952 v 1.000001 C 2,42.767259 5.2327414,46 9.2480469,46 H 38.751953 C 42.767259,46 46,42.767259 46,38.751953 V 37.751952 C 46,41.767259 42.767259,45 38.751953,45 H 9.2480469 C 5.2327414,45 2,41.767259 2,37.751952 Z"
       style="color:#000000;clip-rule:nonzero;display:inline;overflow:visible;visibility:visible;opacity:1;isolation:auto;mix-blend-mode:normal;color-interpolation:sRGB;color-interpolation-filters:linearRGB;solid-color:#000000;solid-opacity:1;vector-effect:none;fill:#ffffff;fill-opacity:0.34375;fill-rule:nonzero;stroke:none;stroke-width:0.5;stroke-linecap:butt;stroke-linejoin:miter;stroke-miterlimit:4;stroke-dasharray:none;stroke-dashoffset:0;stroke-opacity:1;marker:none;marker-start:none;marker-mid:none;marker-end:none;paint-order:normal;color-rendering:auto;image-rendering:auto;shape-rendering:auto;text-rendering:auto;enable-background:accumulate" />
    <circle
       style="color:#000000;clip-rule:nonzero;display:block;overflow:visible;visibility:visible;opacity:1;isolation:auto;mix-blend-mode:normal;color-interpolation:sRGB;color-interpolation-filters:linearRGB;solid-color:#000000;solid-opacity:1;vector-effect:none;fill:#000000;fill-opacity:0.19791667;fill-rule:nonzero;stroke:none;stroke-width:0.55008036;stroke-linecap:butt;stroke-linejoin:miter;stroke-miterlimit:4;stroke-dasharray:none;stroke-dashoffset:0;stroke-opacity:0.25520833;marker:none;marker-start:none;marker-mid:none;marker-end:none;paint-order:normal;color-rendering:auto;image-rendering:auto;shape-rendering:auto;text-rendering:auto;enable-background:accumulate"
       id="path9417"
       cx="41"
       cy="7"
       r="2" />
    <path
       style="color:#000000;clip-rule:nonzero;display:block;overflow:visible;visibility:visible;opacity:1;isolation:auto;mix-blend-mode:normal;color-interpolation:sRGB;color-interpolation-filters:linearRGB;solid-color:#000000;solid-opacity:1;vector-effect:none;fill:#000000;fill-opacity:0.40625;fill-rule:nonzero;stroke:none;stroke-width:0.55008036;stroke-linecap:butt;stroke-linejoin:miter;stroke-miterlimit:4;stroke-dasharray:none;stroke-dashoffset:0;stroke-opacity:0.25520833;marker:none;marker-start:none;marker-mid:none;marker-end:none;paint-order:normal;color-rendering:auto;image-rendering:auto;shape-rendering:auto;text-rendering:auto;enable-background:accumulate"
       d="M 41,5 A 2,2 0 0 0 39,7 2,2 0 0 0 39.0059,7.1464844 2,2 0 0 1 41,5.2832031 2,2 0 0 1 42.994141,7.1367188 2,2 0 0 0 43,7 2,2 0 0 0 41,5 Z"
       id="circle9419"
       inkscape:connector-curvature="0" />
    <circle
       r="2"
       cy="7"
       cx="8"
       id="circle9424"
       style="color:#000000;clip-rule:nonzero;display:block;overflow:visible;visibility:visible;opacity:1;isolation:auto;mix-blend-mode:normal;color-interpolation:sRGB;color-interpolation-filters:linearRGB;solid-color:#000000;solid-opacity:1;vector-effect:none;fill:#000000;fill-opacity:0.19791667;fill-rule:nonzero;stroke:none;stroke-width:0.55008036;stroke-linecap:butt;stroke-linejoin:miter;stroke-miterlimit:4;stroke-dasharray:none;stroke-dashoffset:0;stroke-opacity:0.25520833;marker:none;marker-start:none;marker-mid:none;marker-end:none;paint-order:normal;color-rendering:auto;image-rendering:auto;shape-rendering:auto;text-rendering:auto;enable-background:accumulate" />
    <path
       inkscape:connector-curvature="0"
       id="path9426"
       d="M 8,5 A 2,2 0 0 0 6,7 2,2 0 0 0 6.0059,7.1464844 2,2 0 0 1 8,5.2832031 2,2 0 0 1 9.994141,7.1367188 2,2 0 0 0 10,7 2,2 0 0 0 8,5 Z"
       style="color:#000000;clip-rule:nonzero;display:block;overflow:visible;visibility:visible;opacity:1;isolation:auto;mix-blend-mode:normal;color-interpolation:sRGB;color-interpolation-filters:linearRGB;solid-color:#000000;solid-opacity:1;vector-effect:none;fill:#000000;fill-opacity:0.40625;fill-rule:nonzero;stroke:none;stroke-width:0.55008036;stroke-linecap:butt;stroke-linejoin:miter;stroke-miterlimit:4;stroke-dasharray:none;stroke-dashoffset:0;stroke-opacity:0.25520833;marker:none;marker-start:none;marker-mid:none;marker-end:none;paint-order:normal;color-rendering:auto;image-rendering:auto;shape-rendering:auto;text-rendering:auto;enable-background:accumulate" />
    <circle
       r="2"
       cy="41"
       cx="41"
       id="circle9428"
       style="color:#000000;clip-rule:nonzero;display:block;overflow:visible;visibility:visible;opacity:1;isolation:auto;mix-blend-mode:normal;color-interpolation:sRGB;color-interpolation-filters:linearRGB;solid-color:#000000;solid-opacity:1;vector-effect:none;fill:#000000;fill-opacity:0.19791667;fill-rule:nonzero;stroke:none;stroke-width:0.55008036;stroke-linecap:butt;stroke-linejoin:miter;stroke-miterlimit:4;stroke-dasharray:none;stroke-dashoffset:0;stroke-opacity:0.25520833;marker:none;marker-start:none;marker-mid:none;marker-end:none;paint-order:normal;color-rendering:auto;image-rendering:auto;shape-rendering:auto;text-rendering:auto;enable-background:accumulate" />
    <path
       inkscape:connector-curvature="0"
       id="path9430"
       d="m 41,39 a 2,2 0 0 0 -2,2 2,2 0 0 0 0.0059,0.146484 A 2,2 0 0 1 41,39.283203 2,2 0 0 1 42.994141,41.136719 2,2 0 0 0 43,41 2,2 0 0 0 41,39 Z"
       style="color:#000000;clip-rule:nonzero;display:block;overflow:visible;visibility:visible;opacity:1;isolation:auto;mix-blend-mode:normal;color-interpolation:sRGB;color-interpolation-filters:linearRGB;solid-color:#000000;solid-opacity:1;vector-effect:none;fill:#000000;fill-opacity:0.40625;fill-rule:nonzero;stroke:none;stroke-width:0.55008036;stroke-linecap:butt;stroke-linejoin:miter;stroke-miterlimit:4;stroke-dasharray:none;stroke-dashoffset:0;stroke-opacity:0.25520833;marker:none;marker-start:none;marker-mid:none;marker-end:none;paint-order:normal;color-rendering:auto;image-rendering:auto;shape-rendering:auto;text-rendering:auto;enable-background:accumulate" />
    <circle
       style="color:#000000;clip-rule:nonzero;display:block;overflow:visible;visibility:visible;opacity:1;isolation:auto;mix-blend-mode:normal;color-interpolation:sRGB;color-interpolation-filters:linearRGB;solid-color:#000000;solid-opacity:1;vector-effect:none;fill:#000000;fill-opacity:0.19791667;fill-rule:nonzero;stroke:none;stroke-width:0.55008036;stroke-linecap:butt;stroke-linejoin:miter;stroke-miterlimit:4;stroke-dasharray:none;stroke-dashoffset:0;stroke-opacity:0.25520833;marker:none;marker-start:none;marker-mid:none;marker-end:none;paint-order:normal;color-rendering:auto;image-rendering:auto;shape-rendering:auto;text-rendering:auto;enable-background:accumulate"
       id="circle9432"
       cx="8"
       cy="41"
       r="2" />
    <path
       style="color:#000000;clip-rule:nonzero;display:block;overflow:visible;visibility:visible;opacity:1;isolation:auto;mix-blend-mode:normal;color-interpolation:sRGB;color-interpolation-filters:linearRGB;solid-color:#000000;solid-opacity:1;vector-effect:none;fill:#000000;fill-opacity:0.40625;fill-rule:nonzero;stroke:none;stroke-width:0.55008036;stroke-linecap:butt;stroke-linejoin:miter;stroke-miterlimit:4;stroke-dasharray:none;stroke-dashoffset:0;stroke-opacity:0.25520833;marker:none;marker-start:none;marker-mid:none;marker-end:none;paint-order:normal;color-rendering:auto;image-rendering:auto;shape-rendering:auto;text-rendering:auto;enable-background:accumulate"
       d="M 8,39 A 2,2 0 0 0 6,41 2,2 0 0 0 6.0059,41.146484 2,2 0 0 1 8,39.283203 2,2 0 0 1 9.994141,41.136719 2,2 0 0 0 10,41 2,2 0 0 0 8,39 Z"
       id="path9434"
       inkscape:connector-curvature="0" />
  </g>
</svg>
