<?xml version="1.0" encoding="UTF-8" standalone="no"?>
<!-- Created with Inkscape (http://www.inkscape.org/) -->

<svg
   xmlns:osb="http://www.openswatchbook.org/uri/2009/osb"
   xmlns:dc="http://purl.org/dc/elements/1.1/"
   xmlns:cc="http://creativecommons.org/ns#"
   xmlns:rdf="http://www.w3.org/1999/02/22-rdf-syntax-ns#"
   xmlns:svg="http://www.w3.org/2000/svg"
   xmlns="http://www.w3.org/2000/svg"
   xmlns:xlink="http://www.w3.org/1999/xlink"
   xmlns:sodipodi="http://sodipodi.sourceforge.net/DTD/sodipodi-0.dtd"
   xmlns:inkscape="http://www.inkscape.org/namespaces/inkscape"
   width="48"
   height="48"
   viewBox="0 0 48 48.000002"
   id="svg2"
   version="1.1"
   inkscape:version="0.92.1 r"
   sodipodi:docname="stremio.svg">
  <defs
     id="defs4">
    <linearGradient
       id="linearGradient4597"
       inkscape:collect="always">
      <stop
         id="stop4593"
         offset="0"
         style="stop-color:#36549f;stop-opacity:1" />
      <stop
         id="stop4595"
         offset="1"
         style="stop-color:#1b2b5e;stop-opacity:1" />
    </linearGradient>
    <linearGradient
       inkscape:collect="always"
       id="linearGradient4584">
      <stop
         style="stop-color:#915faf;stop-opacity:1"
         offset="0"
         id="stop4580" />
      <stop
         style="stop-color:#492f75;stop-opacity:1"
         offset="1"
         id="stop4582" />
    </linearGradient>
    <linearGradient
       inkscape:collect="always"
       id="linearGradient4654">
      <stop
         style="stop-color:#cbedff;stop-opacity:1"
         offset="0"
         id="stop4656" />
      <stop
         style="stop-color:#496883;stop-opacity:1"
         offset="1"
         id="stop4658" />
    </linearGradient>
    <linearGradient
       id="linearGradient6193"
       osb:paint="solid">
      <stop
         style="stop-color:#34495e;stop-opacity:1;"
         offset="0"
         id="stop6195" />
    </linearGradient>
    <linearGradient
       inkscape:collect="always"
       xlink:href="#linearGradient4654"
       id="linearGradient4660"
       x1="26.251337"
       y1="28.024233"
       x2="25.986174"
       y2="13.70532"
       gradientUnits="userSpaceOnUse"
       gradientTransform="matrix(1.417035,0,0,1.417035,-10.505929,-7.3037862)" />
    <linearGradient
       inkscape:collect="always"
       xlink:href="#linearGradient4584"
       id="linearGradient4586"
       x1="13.78858"
       y1="22.097086"
       x2="-11.402099"
       y2="47.287766"
       gradientUnits="userSpaceOnUse"
       gradientTransform="matrix(1.0202031,0,0,1.0202031,-0.99370033,-1.5874549)" />
    <linearGradient
       inkscape:collect="always"
       xlink:href="#linearGradient4597"
       id="linearGradient4590"
       gradientUnits="userSpaceOnUse"
       x1="14.053745"
       y1="22.892584"
       x2="-10.69499"
       y2="47.641319"
       gradientTransform="matrix(0.7213925,-0.7213925,0.7213925,0.7213925,-1.8251524,-0.4198479)" />
    <filter
       inkscape:collect="always"
       style="color-interpolation-filters:sRGB"
       id="filter5626"
       x="-0.43919998"
       width="1.8784"
       y="-0.16969091"
       height="1.3393818">
      <feGaussianBlur
         inkscape:collect="always"
         stdDeviation="0.23464632"
         id="feGaussianBlur5628" />
    </filter>
    <filter
       inkscape:collect="always"
       style="color-interpolation-filters:sRGB"
       id="filter5626-3"
       x="-0.43919998"
       width="1.8784"
       y="-0.16969091"
       height="1.3393818">
      <feGaussianBlur
         inkscape:collect="always"
         stdDeviation="0.23464632"
         id="feGaussianBlur5628-6" />
    </filter>
  </defs>
  <sodipodi:namedview
     id="base"
     pagecolor="#ffffff"
     bordercolor="#666666"
     borderopacity="1.0"
     inkscape:pageopacity="0.0"
     inkscape:pageshadow="2"
     inkscape:zoom="8"
     inkscape:cx="25.285246"
     inkscape:cy="-2.2957074"
     inkscape:document-units="px"
     inkscape:current-layer="g4638"
     showgrid="false"
     units="px"
     inkscape:showpageshadow="false"
     borderlayer="true"
     inkscape:window-width="1920"
     inkscape:window-height="1144"
     inkscape:window-x="0"
     inkscape:window-y="27"
     inkscape:window-maximized="1"
     showguides="true"
     inkscape:snap-global="false">
    <inkscape:grid
       type="xygrid"
       id="grid4136" />
    <sodipodi:guide
       position="5,59.000069"
       orientation="54,0"
       id="guide4142"
       inkscape:locked="false" />
    <sodipodi:guide
       position="5,5.0000688"
       orientation="0,54"
       id="guide4144"
       inkscape:locked="false" />
    <sodipodi:guide
       position="-1.5909903,43.000002"
       orientation="0,1"
       id="guide4156"
       inkscape:label=""
       inkscape:color="rgb(0,0,255)"
       inkscape:locked="false" />
    <sodipodi:guide
       position="43,46.895545"
       orientation="1,0"
       id="guide4200"
       inkscape:label=""
       inkscape:color="rgb(0,0,255)"
       inkscape:locked="false" />
  </sodipodi:namedview>
  <metadata
     id="metadata7">
    <rdf:RDF>
      <cc:Work
         rdf:about="">
        <dc:format>image/svg+xml</dc:format>
        <dc:type
           rdf:resource="http://purl.org/dc/dcmitype/StillImage" />
        <dc:title />
      </cc:Work>
    </rdf:RDF>
  </metadata>
  <g
     inkscape:groupmode="layer"
     id="layer1"
     inkscape:label="Layer 1"
     style="display:inline">
    <g
       inkscape:groupmode="layer"
       id="layer12"
       inkscape:label="Layer 10" />
    <g
       inkscape:groupmode="layer"
       id="layer11"
       inkscape:label="Layer 9" />
    <g
       inkscape:groupmode="layer"
       id="layer10"
       inkscape:label="Layer 8" />
    <g
       inkscape:groupmode="layer"
       id="layer9"
       inkscape:label="Layer 7"
       style="display:inline" />
    <g
       inkscape:groupmode="layer"
       id="layer6"
       inkscape:label="Layer 2"
       style="display:inline" />
    <g
       inkscape:groupmode="layer"
       id="layer8"
       inkscape:label="Layer 6" />
    <g
       inkscape:groupmode="layer"
       id="layer7"
       inkscape:label="llave"
       style="display:inline" />
  </g>
  <g
     inkscape:groupmode="layer"
     id="layer13"
     inkscape:label="Layer 3"
     style="display:none">
    <circle
       style="opacity:1;fill:url(#linearGradient4660);fill-opacity:1;stroke:none;stroke-width:1;stroke-linecap:butt;stroke-linejoin:round;stroke-miterlimit:4;stroke-dasharray:none;stroke-opacity:1"
       id="path4652"
       cx="25.440643"
       cy="22.137081"
       r="10.270449" />
    <path
       style="opacity:1;fill:#1d3142;fill-opacity:1;stroke:none;stroke-width:1;stroke-linecap:butt;stroke-linejoin:round;stroke-miterlimit:4;stroke-dasharray:none;stroke-opacity:1"
       d="m 23.301227,15.207207 4.099954,0 0,2.593796 -1.141272,2.075039 1.141272,2.178789 0,7.262628 -4.099954,0 0,-5.546686 1.468425,-1.520673 -1.468425,-2.534456 z"
       id="rect4662"
       inkscape:connector-curvature="0"
       sodipodi:nodetypes="ccccccccccc" />
  </g>
  <g
     inkscape:groupmode="layer"
     id="layer2"
     inkscape:label="Layer 5" />
  <g
     inkscape:groupmode="layer"
     id="layer3"
     inkscape:label="Layer 11">
    <g
       aria-label="3"
       transform="matrix(1.2556892,0,0,0.7963754,-16.440232,-0.13258251)"
       style="font-style:normal;font-variant:normal;font-weight:normal;font-stretch:normal;font-size:21.42173195px;line-height:13.38858318px;font-family:Verdana;-inkscape-font-specification:Verdana;letter-spacing:0px;word-spacing:0px;fill:#ffffff;fill-opacity:1;stroke:#1b2b5e;stroke-width:0.84441131;stroke-linecap:butt;stroke-linejoin:miter;stroke-miterlimit:4;stroke-dasharray:none;stroke-opacity:1"
       id="text4608" />
    <g
       id="g4638"
       transform="matrix(1.2706406,0,0,1.2706406,-6.5747887,-6.4159622)">
      <rect
         transform="rotate(-45)"
         ry="0"
         y="20.550961"
         x="-13.301777"
         height="26.780327"
         width="26.780327"
         id="rect4578"
         style="opacity:1;fill:url(#linearGradient4586);fill-opacity:1;stroke:none;stroke-width:10.20203018;stroke-linecap:butt;stroke-linejoin:miter;stroke-miterlimit:4;stroke-dasharray:none;stroke-opacity:1" />
      <path
         sodipodi:nodetypes="ccccccccccc"
         inkscape:connector-curvature="0"
         id="rect4588"
         d="M 24.062499,5.0009498 42.999051,23.937502 24.062498,42.874054 V 30.870969 l 4.463388,-1.163427 1.147729,-3.458884 -4.208338,-2.566207 3.379423,-1.418478 -0.765152,-3.58641 -4.017049,-0.589562 z"
         style="opacity:1;fill:url(#linearGradient4590);fill-opacity:1;stroke:none;stroke-width:10.20203018;stroke-linecap:butt;stroke-linejoin:miter;stroke-miterlimit:4;stroke-dasharray:none;stroke-opacity:1" />
      <path
         sodipodi:nodetypes="ccccccc"
         inkscape:connector-curvature="0"
         id="rect4599"
         d="M 42.999051,23.937502 24.062499,5.0009498 5.1259474,23.937501 6.5647455,25.384273 24.062499,7.8865196 41.556267,25.380288 Z"
         style="color:#000000;font-style:normal;font-variant:normal;font-weight:normal;font-stretch:normal;font-size:medium;line-height:normal;font-family:sans-serif;text-indent:0;text-align:start;text-decoration:none;text-decoration-line:none;text-decoration-style:solid;text-decoration-color:#000000;letter-spacing:normal;word-spacing:normal;text-transform:none;writing-mode:lr-tb;direction:ltr;baseline-shift:baseline;text-anchor:start;white-space:normal;clip-rule:nonzero;display:inline;overflow:visible;visibility:visible;opacity:1;isolation:auto;mix-blend-mode:normal;color-interpolation:sRGB;color-interpolation-filters:linearRGB;solid-color:#000000;solid-opacity:1;fill:#ffffff;fill-opacity:0.11351348;fill-rule:nonzero;stroke:none;stroke-width:2.04040623;stroke-linecap:square;stroke-linejoin:miter;stroke-miterlimit:4;stroke-dasharray:none;stroke-dashoffset:0;stroke-opacity:1;paint-order:normal;color-rendering:auto;image-rendering:auto;shape-rendering:auto;text-rendering:auto;enable-background:accumulate" />
      <path
         style="opacity:1;fill:#ffffff;fill-opacity:0.0918919;stroke:none;stroke-width:10.20203018;stroke-linecap:butt;stroke-linejoin:miter;stroke-miterlimit:4;stroke-dasharray:none;stroke-opacity:1"
         d="m 24.25,-0.0625 -11.125,11.125 v 25.875 l 11.125,11.125 11.125,-11.125 v -25.875 z"
         transform="matrix(0.78700465,0,0,0.78700465,5.1743875,5.0493918)"
         id="rect4224"
         inkscape:connector-curvature="0" />
      <text
         transform="scale(1.3312704,0.75116219)"
         id="text4628"
         y="40.347382"
         x="10.941637"
         style="font-style:normal;font-variant:normal;font-weight:normal;font-stretch:normal;line-height:0%;font-family:Verdana;-inkscape-font-specification:Verdana;letter-spacing:0px;word-spacing:0px;fill:#ffffff;fill-opacity:1;stroke:#6c409a;stroke-width:0.42611638;stroke-linecap:butt;stroke-linejoin:miter;stroke-miterlimit:4;stroke-dasharray:none;stroke-opacity:1;paint-order:normal"
         xml:space="preserve"><tspan
           style="font-style:normal;font-variant:normal;font-weight:normal;font-stretch:normal;font-size:22.44144058px;line-height:13.43226147;font-family:Verdana;-inkscape-font-specification:Verdana;fill:#ffffff;fill-opacity:1;stroke:#6c409a;stroke-width:0.42611638;stroke-miterlimit:4;stroke-dasharray:none;stroke-opacity:1;paint-order:normal"
           y="40.347382"
           x="10.941637"
           id="tspan4626"
           sodipodi:role="line">3</tspan></text>
      <g
         id="g5632"
         transform="matrix(0.60002164,0,0,0.3603542,-9.5253133,0.95686652)"
         style="opacity:0.98999999">
        <ellipse
           transform="matrix(0.37033535,0,0,0.93212608,35.10181,1.5043913)"
           ry="1.659344"
           rx="0.64111018"
           cy="19.942003"
           cx="55.927433"
           id="path5580"
           style="opacity:1;fill:#ffffff;fill-opacity:0.43939394;stroke:none;stroke-width:0.53100002;stroke-linecap:square;stroke-linejoin:miter;stroke-miterlimit:4;stroke-dasharray:none;stroke-opacity:0.61616163;paint-order:normal;filter:url(#filter5626)" />
        <ellipse
           style="opacity:1;fill:#ffffff;fill-opacity:0.43939394;stroke:none;stroke-width:0.53100002;stroke-linecap:square;stroke-linejoin:miter;stroke-miterlimit:4;stroke-dasharray:none;stroke-opacity:0.61616163;paint-order:normal;filter:url(#filter5626)"
           id="ellipse5630"
           cx="55.927433"
           cy="19.942003"
           rx="0.64111018"
           ry="1.659344"
           transform="matrix(0,0.28572369,-1.7651272,0,91.013888,4.1058368)" />
      </g>
      <g
         style="opacity:0.98999999"
         transform="matrix(0.35919577,0.30622305,-0.19336229,0.22681153,13.802183,-2.4332614)"
         id="g4218"
         inkscape:transform-center-y="0.62500003"
         inkscape:transform-center-x="0.37500002">
        <ellipse
           style="opacity:1;fill:#ffffff;fill-opacity:0.43939394;stroke:none;stroke-width:0.53100002;stroke-linecap:square;stroke-linejoin:miter;stroke-miterlimit:4;stroke-dasharray:none;stroke-opacity:0.61616163;paint-order:normal;filter:url(#filter5626-3)"
           id="ellipse4220"
           cx="55.927433"
           cy="19.942003"
           rx="0.64111018"
           ry="1.659344"
           transform="matrix(0.37033535,0,0,0.93212608,35.10181,1.5043913)" />
        <ellipse
           transform="matrix(0,0.28572369,-1.7651272,0,91.013888,4.1058368)"
           ry="1.659344"
           rx="0.64111018"
           cy="19.942003"
           cx="55.927433"
           id="ellipse4222"
           style="opacity:1;fill:#ffffff;fill-opacity:0.43939394;stroke:none;stroke-width:0.53100002;stroke-linecap:square;stroke-linejoin:miter;stroke-miterlimit:4;stroke-dasharray:none;stroke-opacity:0.61616163;paint-order:normal;filter:url(#filter5626-3)" />
      </g>
      <g
         aria-label="stremio"
         transform="matrix(0.88552744,-0.88552744,0.56463524,0.56463524,0,0)"
         style="font-style:normal;font-weight:normal;line-height:0%;font-family:sans-serif;letter-spacing:0px;word-spacing:0px;fill:#dddddd;fill-opacity:0.56216215;stroke:none;stroke-width:0.05587733;stroke-linecap:butt;stroke-linejoin:miter;stroke-miterlimit:4;stroke-dasharray:none;stroke-opacity:0.26486487"
         id="text4182">
        <path
           d="m -4.9897681,61.781515 v 0.294087 q -0.131832,-0.06761 -0.273805,-0.101409 -0.141973,-0.0338 -0.294087,-0.0338 -0.2315512,0 -0.3481719,0.07099 -0.1149305,0.07099 -0.1149305,0.21296 0,0.10817 0.082818,0.170705 0.082818,0.06085 0.3329605,0.116621 l 0.1064797,0.02366 q 0.3312704,0.07099 0.4698631,0.201129 0.1402828,0.128451 0.1402828,0.360003 0,0.263664 -0.2095792,0.417468 -0.207889,0.153804 -0.5729624,0.153804 -0.152114,0 -0.3177491,-0.03042 -0.1639451,-0.02873 -0.3464818,-0.08789 v -0.321129 q 0.1723958,0.08958 0.3397211,0.135212 0.1673254,0.04394 0.3312704,0.04394 0.2197201,0 0.3380309,-0.07437 0.1183109,-0.07606 0.1183109,-0.212959 0,-0.126762 -0.086198,-0.194368 -0.084508,-0.06761 -0.3735242,-0.130142 L -5.77569,62.770256 Q -6.0647065,62.70941 -6.1931583,62.584339 -6.32161,62.457577 -6.32161,62.237857 q 0,-0.267045 0.1892973,-0.412398 0.1892973,-0.145353 0.5374692,-0.145353 0.1723958,0 0.3245097,0.02535 0.152114,0.02535 0.2805657,0.07606 z"
           style="font-size:3.46143699px;line-height:10"
           id="path7700"
           inkscape:connector-curvature="0" />
        <path
           d="m -4.0838451,61.188271 v 0.537469 h 0.6405686 v 0.241692 h -0.6405686 v 1.027614 q 0,0.231551 0.062536,0.297468 0.064226,0.06592 0.2585937,0.06592 h 0.3194392 v 0.260283 h -0.3194392 q -0.360003,0 -0.4969055,-0.133522 -0.1369025,-0.135212 -0.1369025,-0.490145 V 61.967432 H -4.6246946 V 61.72574 h 0.2281709 v -0.537469 z"
           style="font-size:3.46143699px;line-height:10"
           id="path7702"
           inkscape:connector-curvature="0" />
        <path
           d="m -1.9356584,62.016447 q -0.052395,-0.03042 -0.1149305,-0.04394 -0.060846,-0.01521 -0.1352124,-0.01521 -0.2636641,0 -0.4056371,0.172396 -0.1402829,0.170706 -0.1402829,0.491835 v 0.997191 H -3.0443999 V 61.72574 h 0.3126786 v 0.294087 q 0.098029,-0.172396 0.2552134,-0.255213 0.1571844,-0.08451 0.381975,-0.08451 0.032113,0 0.070987,0.0051 0.038873,0.0034 0.086198,0.01183 z"
           style="font-size:3.46143699px;line-height:10"
           id="path7704"
           inkscape:connector-curvature="0" />
        <path
           d="m -0.06127658,62.59448 v 0.152114 H -1.4911475 q 0.020282,0.321129 0.1926776,0.490144 0.174086,0.167326 0.48338429,0.167326 0.17915641,0 0.34648173,-0.04394 0.16901548,-0.04394 0.33465065,-0.131832 v 0.294087 q -0.16732532,0.07099 -0.34310142,0.108169 -0.1757761,0.03718 -0.35662266,0.03718 -0.45296149,0 -0.71831579,-0.263664 -0.2636641,-0.263664 -0.2636641,-0.713246 0,-0.464792 0.2501429,-0.736907 0.251833,-0.273805 0.67775204,-0.273805 0.38197498,0 0.60338525,0.246762 0.22310043,0.245073 0.22310043,0.667612 z m -0.31098847,-0.09127 q -0.00338,-0.255213 -0.14366316,-0.407327 -0.13859269,-0.152114 -0.36845374,-0.152114 -0.26028385,0 -0.41746825,0.147043 -0.1554942,0.147044 -0.1791564,0.414088 z"
           style="font-size:3.46143699px;line-height:10"
           id="path7706"
           inkscape:connector-curvature="0" />
        <path
           d="m 1.9229649,62.089123 q 0.1166207,-0.209579 0.2788756,-0.309298 0.1622548,-0.09972 0.3819749,-0.09972 0.2957771,0 0.4563418,0.207889 0.1605647,0.206199 0.1605647,0.588174 v 1.142544 H 2.8880433 V 62.48631 q 0,-0.272115 -0.096339,-0.403947 -0.096339,-0.131832 -0.294087,-0.131832 -0.2416921,0 -0.3819749,0.160564 -0.1402829,0.160565 -0.1402829,0.43775 v 1.069868 H 1.6626811 V 62.48631 q 0,-0.273805 -0.096339,-0.403947 -0.096339,-0.131832 -0.2974673,-0.131832 -0.2383118,0 -0.37859465,0.162254 -0.14028285,0.160565 -0.14028285,0.43606 v 1.069868 H 0.43731887 V 61.72574 H 0.7499975 v 0.294087 q 0.10647975,-0.174086 0.2552134,-0.256904 0.1487336,-0.08282 0.3532423,-0.08282 0.2061989,0 0.3498621,0.104789 0.1453533,0.10479 0.2146496,0.304228 z"
           style="font-size:3.46143699px;line-height:10"
           id="path7708"
           inkscape:connector-curvature="0" />
        <path
           d="m 3.8226989,61.72574 h 0.3109885 v 1.892973 H 3.8226989 Z m 0,-0.736907 h 0.3109885 v 0.393806 H 3.8226989 Z"
           style="font-size:3.46143699px;line-height:10"
           id="path7710"
           inkscape:connector-curvature="0" />
        <path
           d="m 5.5162338,61.94377 q -0.2501429,0 -0.3954962,0.196058 -0.1453534,0.194368 -0.1453534,0.534089 0,0.339721 0.1436632,0.535779 0.1453533,0.194368 0.3971864,0.194368 0.2484527,0 0.393806,-0.196058 0.1453533,-0.196058 0.1453533,-0.534089 0,-0.336341 -0.1453533,-0.532399 Q 5.7646865,61.94377 5.5162338,61.94377 Z m 0,-0.263664 q 0.4056371,0 0.6371883,0.263664 0.2315512,0.263664 0.2315512,0.730147 0,0.464792 -0.2315512,0.730147 -0.2315512,0.263664 -0.6371883,0.263664 -0.4073273,0 -0.6388785,-0.263664 -0.2298611,-0.265355 -0.2298611,-0.730147 0,-0.466483 0.2298611,-0.730147 0.2315512,-0.263664 0.6388785,-0.263664 z"
           style="font-size:3.46143699px;line-height:10"
           id="path7712"
           inkscape:connector-curvature="0" />
      </g>
    </g>
  </g>
</svg>
