<?xml version="1.0" encoding="UTF-8" standalone="yes"?>
<svg xmlns:dc="http://purl.org/dc/elements/1.1/" xmlns:cc="http://creativecommons.org/ns#" xmlns:rdf="http://www.w3.org/1999/02/22-rdf-syntax-ns#" xmlns:svg="http://www.w3.org/2000/svg" xmlns="http://www.w3.org/2000/svg" xmlns:xlink="http://www.w3.org/1999/xlink" xmlns:sodipodi="http://sodipodi.sourceforge.net/DTD/sodipodi-0.dtd" xmlns:inkscape="http://www.inkscape.org/namespaces/inkscape" height="24" viewBox="0 0 24 24" width="24" id="svg2" version="1.1" inkscape:version="0.92.1 r" sodipodi:docname="atom.svg" enable-background="new" folder="24">
  <title id="title4675">Template icons dark</title>
  <metadata id="metadata24">
    <rdf:RDF>
      <cc:Work rdf:about="">
        <dc:format>image/svg+xml</dc:format>
        <dc:type rdf:resource="http://purl.org/dc/dcmitype/StillImage"/>
        <dc:title>Template icons dark</dc:title>
        <dc:date>17/05/13</dc:date>
        <dc:creator>
          <cc:Agent>
            <dc:title>wfpaisa</dc:title>
          </cc:Agent>
        </dc:creator>
        <dc:rights>
          <cc:Agent>
            <dc:title>License: GPLv3</dc:title>
          </cc:Agent>
        </dc:rights>
        <dc:language>es-en</dc:language>
        <dc:subject>
          <rdf:Bag>
            <rdf:li>plane-icon-theme</rdf:li>
          </rdf:Bag>
        </dc:subject>
        <dc:description>Template for create set icons</dc:description>
        <cc:license rdf:resource="https://www.gnu.org/licenses/gpl-3.0.en.html"/>
      </cc:Work>
    </rdf:RDF>
  </metadata>
  <defs id="defs22">
    <linearGradient inkscape:collect="always" id="linearGradient7774">
      <stop style="stop-color:#ff053c;stop-opacity:1" offset="0" id="stop7770"/>
      <stop style="stop-color:#0b31ff;stop-opacity:0.97395831" offset="1" id="stop7772"/>
    </linearGradient>
    <linearGradient inkscape:collect="always" xlink:href="#linearGradient5467" id="linearGradient5473" x1="24.53476" y1="7.9960122" x2="24.704725" y2="38.249725" gradientUnits="userSpaceOnUse" gradientTransform="matrix(2.1310889,0,0,2.1310889,108.68013,105.53144)"/>
    <linearGradient inkscape:collect="always" id="linearGradient5467">
      <stop style="stop-color:#20c686;stop-opacity:1" offset="0" id="stop5469"/>
      <stop style="stop-color:#259d68;stop-opacity:1" offset="1" id="stop5471"/>
    </linearGradient>
    <linearGradient inkscape:collect="always" xlink:href="#linearGradient7774" id="linearGradient7776" x1="122" y1="183" x2="196" y2="142" gradientUnits="userSpaceOnUse"/>
    <linearGradient gradientTransform="matrix(0.5106383,0,0,0.5106383,-57.702128,-57.702128)" inkscape:collect="always" xlink:href="#linearGradient7774" id="linearGradient7776-3" x1="122" y1="183" x2="196" y2="142" gradientUnits="userSpaceOnUse"/>
    <linearGradient inkscape:collect="always" xlink:href="#linearGradient5467" id="linearGradient5473-5" x1="24.53476" y1="7.9960122" x2="24.704725" y2="38.249725" gradientUnits="userSpaceOnUse" gradientTransform="matrix(1.0882156,0,0,1.0882156,-2.205891,-3.8137327)"/>
    <linearGradient inkscape:collect="always" xlink:href="#linearGradient5467" id="linearGradient7902" gradientUnits="userSpaceOnUse" gradientTransform="matrix(1.4056119,0,0,1.4056119,46.150729,44.073933)" x1="24.53476" y1="7.9960122" x2="24.704725" y2="38.249725"/>
    <linearGradient inkscape:collect="always" xlink:href="#linearGradient7774" id="linearGradient7904" gradientUnits="userSpaceOnUse" gradientTransform="matrix(0.65957449,0,0,0.65957449,-25.531913,-25.531913)" x1="122" y1="183" x2="196" y2="142"/>
    <linearGradient inkscape:collect="always" xlink:href="#linearGradient5467" id="linearGradient5473-7" x1="24.53476" y1="7.9960122" x2="24.704725" y2="38.249725" gradientUnits="userSpaceOnUse" gradientTransform="matrix(2.8112236,0,0,2.8112236,204.30144,200.14785)"/>
    <linearGradient gradientTransform="matrix(1.3191489,0,0,1.3191489,60.936166,60.936166)" inkscape:collect="always" xlink:href="#linearGradient7774" id="linearGradient7776-2" x1="122" y1="183" x2="196" y2="142" gradientUnits="userSpaceOnUse"/>
    <linearGradient inkscape:collect="always" xlink:href="#linearGradient5467" id="linearGradient5473-9" x1="24.53476" y1="7.9960122" x2="24.704725" y2="38.249725" gradientUnits="userSpaceOnUse" gradientTransform="matrix(0.72547707,0,0,0.72547707,-33.470593,-34.542488)"/>
    <linearGradient gradientTransform="matrix(0.34042553,0,0,0.34042553,-70.468084,-70.468084)" inkscape:collect="always" xlink:href="#linearGradient7774" id="linearGradient7776-8" x1="122" y1="183" x2="196" y2="142" gradientUnits="userSpaceOnUse"/>
    <linearGradient inkscape:collect="always" xlink:href="#linearGradient5467" id="linearGradient5473-9-1" x1="24.53476" y1="7.9960122" x2="24.704725" y2="38.249725" gradientUnits="userSpaceOnUse" gradientTransform="matrix(0.5441078,0,0,0.5441078,-57.102945,-57.906866)"/>
    <linearGradient gradientTransform="matrix(0.25531915,0,0,0.25531915,-84.851063,-84.851063)" inkscape:collect="always" xlink:href="#linearGradient7774" id="linearGradient7776-8-4" x1="122" y1="183" x2="196" y2="142" gradientUnits="userSpaceOnUse"/>
  </defs>
  <sodipodi:namedview pagecolor="#383c4a" bordercolor="#ffffff" borderopacity="0.62745098" objecttolerance="4" gridtolerance="10" guidetolerance="4" inkscape:pageopacity="0" inkscape:pageshadow="2" inkscape:window-width="640" inkscape:window-height="480" id="namedview20" showgrid="true" inkscape:zoom="16.386532" inkscape:cx="100.73209" inkscape:cy="-55.455318" inkscape:current-layer="g7905" inkscape:snap-smooth-nodes="false" showguides="true" borderlayer="true" inkscape:showpageshadow="false" inkscape:guide-bbox="true" guidecolor="#bd4fff" guideopacity="0.78431373" inkscape:snap-nodes="true" inkscape:lockguides="false" fit-margin-top="0" fit-margin-left="0" fit-margin-right="0" fit-margin-bottom="0" guidehicolor="#ff0101" guidehiopacity="0.78431373" inkscape:snap-page="true" inkscape:object-nodes="true" inkscape:snap-bbox="true" inkscape:snap-global="true" inkscape:snap-object-midpoints="false" inkscape:snap-bbox-edge-midpoints="false">
    <inkscape:grid type="xygrid" id="grid4171" empspacing="4" dotted="false" originx="2.7755576e-17" originy="0" spacingx="1" spacingy="1" color="#5a5a5a" opacity="0.23529412" empcolor="#5a5a5a" empopacity="0.47058824" visible="true"/>
    <inkscape:grid type="axonomgrid" id="grid4699" units="mm" empspacing="4" color="#5a5a5a" opacity="0.23529412" empcolor="#5a5a5a" empopacity="0.47058824" gridanglex="45" gridanglez="45" spacingy="3.7795276" visible="false" originx="1.3228346" originy="1.3228346"/>
    <sodipodi:guide position="48,0" orientation="1,0" id="guide4568" inkscape:locked="false" inkscape:label="" inkscape:color="rgb(189,79,255)"/>
    <sodipodi:guide position="111.99996,-3.9999999e-05" orientation="0,1" id="guide4570" inkscape:locked="false" inkscape:label="" inkscape:color="rgb(189,79,255)"/>
    <sodipodi:guide position="0,0" orientation="1,0" id="guide4572" inkscape:locked="false" inkscape:label="" inkscape:color="rgb(189,79,255)"/>
    <sodipodi:guide position="0,48" orientation="0,1" id="guide4574" inkscape:locked="false" inkscape:label="" inkscape:color="rgb(189,79,255)"/>
    <sodipodi:guide position="0,80" orientation="0,1" id="guide4576" inkscape:locked="false" inkscape:label="" inkscape:color="rgb(189,79,255)"/>
    <sodipodi:guide position="-32,48" orientation="1,0" id="guide4578" inkscape:locked="false" inkscape:label="" inkscape:color="rgb(189,79,255)"/>
    <sodipodi:guide position="-32,104" orientation="0,1" id="guide4580" inkscape:locked="false" inkscape:label="" inkscape:color="rgb(189,79,255)"/>
    <sodipodi:guide position="-56,80" orientation="1,0" id="guide4582" inkscape:locked="false" inkscape:label="" inkscape:color="rgb(189,79,255)"/>
    <sodipodi:guide position="48,-64" orientation="0,1" id="guide4584" inkscape:locked="false" inkscape:label="" inkscape:color="rgb(189,79,255)"/>
    <sodipodi:guide position="0,0" orientation="-0.70710678,0.70710678" id="guide4588" inkscape:locked="false" inkscape:label="" inkscape:color="rgb(189,79,255)"/>
    <sodipodi:guide position="-56,80" orientation="-0.70710678,0.70710678" id="guide4573" inkscape:locked="false" inkscape:label="" inkscape:color="rgb(189,79,255)"/>
    <sodipodi:guide position="-32,48" orientation="-0.70710678,0.70710678" id="guide4575" inkscape:locked="false" inkscape:label="" inkscape:color="rgb(189,79,255)"/>
    <sodipodi:guide position="48,-64" orientation="-0.70710678,0.70710678" id="guide4577" inkscape:locked="false" inkscape:label="" inkscape:color="rgb(189,79,255)"/>
    <sodipodi:guide position="47.999962,0" orientation="0.70710678,0.70710678" id="guide4697" inkscape:locked="false" inkscape:label="" inkscape:color="rgb(189,79,255)"/>
    <sodipodi:guide position="207.99995,-288" orientation="0,1" id="guide7833" inkscape:locked="false"/>
    <sodipodi:guide position="335.99994,-288" orientation="1,0" id="guide7835" inkscape:locked="false" inkscape:label="" inkscape:color="rgb(189,79,255)"/>
    <sodipodi:guide position="111.99996,-64" orientation="1,0" id="guide7915" inkscape:locked="false"/>
    <sodipodi:guide position="111.99996,-160" orientation="0,1" id="guide7917" inkscape:locked="false"/>
    <sodipodi:guide position="207.99996,-160" orientation="1,0" id="guide7919" inkscape:locked="false"/>
    <sodipodi:guide position="111.99996,-160" orientation="-0.70710678,0.70710678" id="guide7921" inkscape:locked="false" inkscape:label="" inkscape:color="rgb(189,79,255)"/>
    <sodipodi:guide position="207.99996,-288" orientation="-0.70710678,0.70710678" id="guide7923" inkscape:locked="false" inkscape:label="" inkscape:color="rgb(189,79,255)"/>
    <sodipodi:guide position="-72,104" orientation="1,0" id="guide7824" inkscape:locked="false"/>
    <sodipodi:guide position="-56,120" orientation="0,1" id="guide7826" inkscape:locked="false"/>
    <sodipodi:guide position="-72,104" orientation="-0.70710678,0.70710678" id="guide7828" inkscape:locked="false" inkscape:label="" inkscape:color="rgb(189,79,255)"/>
  </sodipodi:namedview>
  <g inkscape:groupmode="layer" id="layer2" inkscape:label="icon_24" style="display:inline" transform="translate(56,56)">
    <g inkscape:groupmode="layer" id="layer7" inkscape:label="frame" style="display:none">
      <rect style="color:#000000;clip-rule:nonzero;display:block;overflow:visible;visibility:visible;opacity:1;isolation:auto;mix-blend-mode:normal;color-interpolation:sRGB;color-interpolation-filters:linearRGB;solid-color:#000000;solid-opacity:1;vector-effect:none;fill:#000000;fill-opacity:0.99481865;fill-rule:nonzero;stroke:#ff24f7;stroke-width:0;stroke-linecap:square;stroke-linejoin:miter;stroke-miterlimit:4;stroke-dasharray:none;stroke-dashoffset:0;stroke-opacity:0.99481865;marker:none;marker-start:none;marker-mid:none;marker-end:none;paint-order:normal;color-rendering:auto;image-rendering:auto;shape-rendering:auto;text-rendering:auto;enable-background:accumulate" id="frame_24" width="24" height="24" x="-56" y="-56" inkscape:label="frame_24"/>
      <text id="txt_24" y="-40.041668" x="-50.880211" style="font-size:10.66666698px;line-height:1000%;font-family:sans-serif;letter-spacing:0px;word-spacing:0px;display:inline;opacity:1;fill:#ffffff;fill-opacity:1;stroke:none;stroke-width:0.11166908px;stroke-linecap:butt;stroke-linejoin:miter;stroke-opacity:1" xml:space="preserve" inkscape:label="txt_24">
        <tspan id="tspan4835-2-5" style="font-size:10.66666698px;fill:#ffffff;fill-opacity:1;stroke:none;stroke-width:0.11166908px" y="-40.041668" x="-50.880211" sodipodi:role="line">24</tspan>
      </text>
    </g>
    <g inkscape:groupmode="layer" id="layer8" inkscape:label="icon" style="display:inline">
      <circle style="color:#000000;clip-rule:nonzero;display:block;overflow:visible;visibility:visible;opacity:1;isolation:auto;mix-blend-mode:normal;color-interpolation:sRGB;color-interpolation-filters:linearRGB;solid-color:#000000;solid-opacity:1;fill:#000000;fill-opacity:0.15686275;fill-rule:nonzero;stroke:none;stroke-width:0.52084148;stroke-linecap:butt;stroke-linejoin:miter;stroke-miterlimit:4;stroke-dasharray:none;stroke-dashoffset:0;stroke-opacity:1;marker:none;marker-start:none;marker-mid:none;marker-end:none;color-rendering:auto;image-rendering:auto;shape-rendering:auto;text-rendering:auto;enable-background:accumulate" id="path5465-5-0-5" cx="-44" cy="-44" r="12" inkscape:label="sombra"/>
      <circle style="color:#000000;clip-rule:nonzero;display:inline;overflow:visible;visibility:visible;opacity:1;isolation:auto;mix-blend-mode:normal;color-interpolation:sRGB;color-interpolation-filters:linearRGB;solid-color:#000000;solid-opacity:1;fill:url(#linearGradient5473-9-1);fill-opacity:1;fill-rule:nonzero;stroke:#ffffff;stroke-width:0.63328731;stroke-linecap:butt;stroke-linejoin:miter;stroke-miterlimit:4;stroke-dasharray:none;stroke-dashoffset:0;stroke-opacity:1;marker:none;marker-start:none;marker-mid:none;marker-end:none;color-rendering:auto;image-rendering:auto;shape-rendering:auto;text-rendering:auto;enable-background:accumulate" id="path5465-3-6" cx="-44" cy="-43.999992" r="11.363655" inkscape:label="circle"/>
      <circle inkscape:label="circle" r="11.363655" cy="-43.999992" cx="-44" id="circle7768-6-9" style="color:#000000;clip-rule:nonzero;display:inline;overflow:visible;visibility:visible;opacity:0.10899999;isolation:auto;mix-blend-mode:normal;color-interpolation:sRGB;color-interpolation-filters:linearRGB;solid-color:#000000;solid-opacity:1;fill:url(#linearGradient7776-8-4);fill-opacity:1;fill-rule:nonzero;stroke:#ffffff;stroke-width:0.63328731;stroke-linecap:butt;stroke-linejoin:miter;stroke-miterlimit:4;stroke-dasharray:none;stroke-dashoffset:0;stroke-opacity:1;marker:none;marker-start:none;marker-mid:none;marker-end:none;color-rendering:auto;image-rendering:auto;shape-rendering:auto;text-rendering:auto;enable-background:accumulate"/>
      <path inkscape:connector-curvature="0" id="path7745-10-7" d="m -41.116587,-35.396886 c -1.286154,-0.213587 -2.95647,-1.685902 -4.48146,-3.950217 -0.639787,-0.949966 -1.294405,-2.123124 -1.72172,-3.085545 -0.08572,-0.19305 -0.117043,-0.239476 -0.14294,-0.21181 -0.05187,0.0554 -0.424146,0.864878 -0.620286,1.348672 -0.329925,0.813797 -0.562472,1.589706 -0.695729,2.32142 -0.08537,0.468755 -0.09271,1.377023 -0.01338,1.658407 0.184279,0.65384 0.583884,0.925598 1.207366,0.821086 0.449428,-0.07534 0.993472,-0.321495 1.570716,-0.710678 0.256355,-0.172836 0.323778,-0.205726 0.422926,-0.206306 0.151608,-0.001 0.264778,0.08159 0.317809,0.231611 0.03514,0.09946 0.03504,0.128318 -10e-4,0.223373 -0.03461,0.09123 -0.09457,0.145218 -0.365153,0.328696 -0.373706,0.253422 -1.013075,0.580074 -1.340173,0.684696 -0.857004,0.274139 -1.523724,0.173646 -1.993771,-0.300503 -0.431173,-0.434933 -0.616938,-1.138585 -0.559691,-2.120019 0.07451,-1.27723 0.636002,-3.02089 1.523198,-4.730121 l 0.222478,-0.428607 -0.168043,-0.454675 c -0.160821,-0.435132 -0.47889,-1.443916 -0.47889,-1.51885 0,-0.05519 -0.09732,-0.04385 -0.523953,0.06109 -0.977538,0.240467 -1.703855,0.546518 -2.224746,0.937453 -1.023871,0.768423 -0.752669,1.635183 0.781664,2.498254 0.244331,0.137435 0.300769,0.211448 0.300769,0.39443 0,0.09562 -0.01767,0.134865 -0.09602,0.213212 -0.167778,0.167788 -0.324007,0.132814 -0.842014,-0.188462 -0.749186,-0.464658 -1.222859,-0.993387 -1.389702,-1.551227 -0.06093,-0.203731 -0.06115,-0.614109 -2.56e-4,-0.819013 0.08852,-0.298743 0.237518,-0.536016 0.506441,-0.806499 0.602668,-0.606164 1.602092,-1.0716 2.972796,-1.384432 0.279189,-0.06372 0.343662,-0.08755 0.333145,-0.123134 -0.0072,-0.02428 -0.03908,-0.183921 -0.07091,-0.354783 -0.186233,-0.999799 -0.191898,-2.146116 -0.01374,-2.781812 0.20543,-0.732996 0.577363,-1.169267 1.170436,-1.372882 0.242153,-0.08314 0.726848,-0.06995 1.059067,0.02878 0.33412,0.09932 0.748969,0.303592 1.115551,0.549304 0.436878,0.29283 0.565702,0.415695 0.584193,0.557193 0.04247,0.325119 -0.293408,0.500448 -0.567626,0.296275 -0.859795,-0.64019 -1.473518,-0.88379 -1.965247,-0.780046 -0.357351,0.07539 -0.630516,0.442795 -0.768383,1.033435 -0.05482,0.234906 -0.06233,0.346399 -0.06259,0.930564 -2.56e-4,0.663041 0.0092,0.769678 0.130268,1.464869 l 0.06084,0.34932 0.143418,-0.01736 c 0.658236,-0.07957 1.225499,-0.134898 1.575299,-0.153656 l 0.41517,-0.02224 0.06475,-0.08324 c 0.701262,-0.901644 1.72117,-1.954573 2.493919,-2.574659 1.479873,-1.187505 2.749108,-1.599911 3.622246,-1.176958 0.493228,0.238926 0.804952,0.72718 0.925838,1.450131 0.07892,0.471984 0.01657,1.589178 -0.106253,1.90386 -0.04242,0.108729 -0.178507,0.187059 -0.325155,0.187187 -0.09229,9.4e-5 -0.140616,-0.01869 -0.211809,-0.08228 -0.08439,-0.07539 -0.09217,-0.09637 -0.09158,-0.247111 2.55e-4,-0.0906 0.0241,-0.349005 0.05282,-0.574236 0.08343,-0.654819 0.02608,-1.260111 -0.152584,-1.610302 -0.08672,-0.169987 -0.264145,-0.35147 -0.417585,-0.427114 -0.115102,-0.05674 -0.174375,-0.06536 -0.443515,-0.06448 -0.282814,10e-4 -0.338144,0.01042 -0.617264,0.105572 -0.863543,0.294523 -1.852996,1.002452 -2.915112,2.085676 -0.203116,0.207151 -0.507727,0.535499 -0.676912,0.729664 l -0.307616,0.35302 0.267406,0.0064 c 3.743089,0.08873 6.897883,0.948296 8.384987,2.284611 0.334637,0.300704 0.622984,0.748695 0.706764,1.098063 0.04247,0.17712 0.04328,0.52103 0.0015,0.705156 -0.153571,0.67943 -0.900559,1.34736 -1.989559,1.779015 -0.172136,0.06824 -0.208496,0.07377 -0.301516,0.04587 -0.15236,-0.04565 -0.251156,-0.174357 -0.251156,-0.327204 0,-0.179604 0.08654,-0.265872 0.397487,-0.396266 0.676429,-0.283659 1.200985,-0.681334 1.400157,-1.061494 0.06921,-0.132107 0.07964,-0.183472 0.0796,-0.392079 -2.5e-5,-0.216975 -0.0092,-0.257703 -0.09473,-0.423627 -0.120702,-0.233993 -0.519612,-0.634004 -0.850534,-0.852876 -1.625786,-1.075302 -4.689419,-1.77349 -7.782492,-1.77359 l -0.510238,-1.5e-5 -0.192286,0.261237 c -0.287638,0.390782 -0.911806,1.340699 -1.160181,1.765662 l -0.219033,0.374755 0.150501,0.345412 c 1.509788,3.465055 3.853728,6.39066 5.58255,6.967911 0.375858,0.125497 0.660268,0.131612 0.890163,0.01915 0.430212,-0.210477 0.655544,-0.756862 0.690153,-1.673425 0.05775,-1.529716 -0.493208,-3.643938 -1.520579,-5.834918 -0.106525,-0.227167 -0.170469,-0.400544 -0.170469,-0.462176 0,-0.1853 0.152162,-0.331013 0.342922,-0.328381 0.169386,0.002 0.243686,0.07016 0.372883,0.340397 0.83316,1.742658 1.388559,3.488438 1.595947,5.016535 0.06974,0.513853 0.07016,1.559717 10e-4,1.93346 -0.110967,0.597781 -0.308403,1.028439 -0.610519,1.331724 -0.368046,0.369465 -0.845712,0.510573 -1.410751,0.416742 z m -5.976862,-9.302031 c 0.105475,-0.17087 0.310777,-0.484769 0.456232,-0.697573 0.145455,-0.212798 0.264462,-0.395543 0.264462,-0.406088 0,-0.03632 -1.334438,0.09874 -1.374822,0.139124 -0.02428,0.0242 0.05572,0.321579 0.2334,0.867978 0.129219,0.397356 0.164196,0.47808 0.193356,0.446173 0.01958,-0.02145 0.121892,-0.178755 0.227372,-0.349614 z m 2.847296,2.533223 c -0.424287,-0.151494 -0.672232,-0.505494 -0.666585,-0.95169 0.0032,-0.233614 0.05623,-0.393821 0.192815,-0.579893 0.346121,-0.471508 1.052954,-0.525132 1.478481,-0.112172 0.488773,0.474338 0.344091,1.320689 -0.274156,1.603734 -0.212758,0.0974 -0.522355,0.11436 -0.730555,0.04004 z" style="display:inline;opacity:1;fill:#000000;fill-opacity:0.4375;stroke:none;stroke-width:0.1123644;stroke-miterlimit:4;stroke-dasharray:none;stroke-opacity:1" inkscape:label="sombra atom"/>
      <path style="display:inline;opacity:1;fill:#ffffff;fill-opacity:1;stroke:#ffffff;stroke-width:0.412;stroke-miterlimit:4;stroke-dasharray:none;stroke-opacity:1" d="m -41.116587,-36.297052 c -1.286154,-0.213587 -2.95647,-1.685903 -4.48146,-3.950219 -0.639787,-0.949966 -1.294405,-2.123124 -1.72172,-3.085544 -0.08572,-0.19305 -0.117043,-0.239477 -0.14294,-0.211811 -0.05187,0.0554 -0.424146,0.864879 -0.620286,1.348673 -0.329925,0.813797 -0.562472,1.589706 -0.695729,2.32142 -0.08537,0.468756 -0.09271,1.377023 -0.01338,1.658408 0.184279,0.653839 0.583884,0.925598 1.207366,0.821085 0.449428,-0.07534 0.993472,-0.321495 1.570716,-0.710678 0.256355,-0.172835 0.323778,-0.205726 0.422926,-0.206305 0.151608,-10e-4 0.264778,0.08159 0.317809,0.23161 0.03514,0.09947 0.03504,0.128318 -10e-4,0.223374 -0.03461,0.09123 -0.09457,0.145218 -0.365153,0.328695 -0.373706,0.253422 -1.013075,0.580075 -1.340173,0.684697 -0.857004,0.274139 -1.523724,0.173645 -1.993771,-0.300503 -0.431173,-0.434934 -0.616938,-1.138585 -0.559691,-2.120019 0.07451,-1.277232 0.636002,-3.020891 1.523198,-4.730122 l 0.222478,-0.428607 -0.168043,-0.454675 c -0.160821,-0.435133 -0.47889,-1.443916 -0.47889,-1.51885 0,-0.05519 -0.09732,-0.04386 -0.523953,0.0611 -0.977538,0.240467 -1.703855,0.546518 -2.224746,0.937452 -1.023871,0.768424 -0.752669,1.635184 0.781664,2.498255 0.244331,0.137435 0.300769,0.211448 0.300769,0.394429 0,0.09562 -0.01767,0.134865 -0.09602,0.213213 -0.167778,0.167787 -0.324007,0.132814 -0.842014,-0.188462 -0.749186,-0.464658 -1.222859,-0.993388 -1.389702,-1.551227 -0.06093,-0.203732 -0.06115,-0.614109 -2.56e-4,-0.819013 0.08852,-0.298744 0.237518,-0.536017 0.506441,-0.8065 0.602668,-0.606163 1.602092,-1.0716 2.972796,-1.384432 0.279189,-0.06372 0.343662,-0.08755 0.333145,-0.123133 -0.0072,-0.02428 -0.03908,-0.183922 -0.07091,-0.354784 -0.186233,-0.999798 -0.191898,-2.146115 -0.01374,-2.781811 0.20543,-0.732996 0.577363,-1.169267 1.170436,-1.372882 0.242153,-0.08314 0.726848,-0.06995 1.059067,0.02878 0.33412,0.09932 0.748969,0.303592 1.115551,0.549303 0.436878,0.292831 0.565702,0.415696 0.584193,0.557194 0.04247,0.325118 -0.293408,0.500448 -0.567626,0.296275 -0.859795,-0.64019 -1.473518,-0.88379 -1.965247,-0.780047 -0.357351,0.07539 -0.630516,0.442796 -0.768383,1.033436 -0.05482,0.234906 -0.06233,0.346399 -0.06259,0.930564 -2.56e-4,0.66304 0.0092,0.769678 0.130268,1.464868 l 0.06084,0.34932 0.143418,-0.01736 c 0.658236,-0.07956 1.225499,-0.134898 1.575299,-0.153656 l 0.41517,-0.02224 0.06475,-0.08324 c 0.701262,-0.901644 1.72117,-1.954573 2.493919,-2.574659 1.479873,-1.187505 2.749108,-1.599911 3.622246,-1.176958 0.493228,0.238926 0.804952,0.72718 0.925838,1.450131 0.07892,0.471984 0.01657,1.589178 -0.106253,1.90386 -0.04242,0.108729 -0.178507,0.187059 -0.325155,0.187187 -0.09229,9.4e-5 -0.140616,-0.01869 -0.211809,-0.08228 -0.08439,-0.07538 -0.09217,-0.09637 -0.09158,-0.247111 2.55e-4,-0.0906 0.0241,-0.349005 0.05282,-0.574236 0.08343,-0.654819 0.02608,-1.260112 -0.152584,-1.610302 -0.08672,-0.169987 -0.264145,-0.35147 -0.417585,-0.427114 -0.115102,-0.05674 -0.174375,-0.06536 -0.443515,-0.06448 -0.282814,0.001 -0.338144,0.01042 -0.617264,0.105572 -0.863543,0.294524 -1.852996,1.002453 -2.915112,2.085677 -0.203116,0.207151 -0.507727,0.535498 -0.676912,0.729664 l -0.307616,0.353019 0.267406,0.0064 c 3.743089,0.08873 6.897883,0.948297 8.384987,2.284611 0.334637,0.300705 0.622984,0.748695 0.706764,1.098064 0.04247,0.17712 0.04328,0.52103 0.0015,0.705156 -0.153571,0.67943 -0.900559,1.34736 -1.989559,1.779015 -0.172136,0.06824 -0.208496,0.07377 -0.301516,0.04587 -0.15236,-0.04566 -0.251156,-0.174358 -0.251156,-0.327205 0,-0.179604 0.08654,-0.265871 0.397487,-0.396265 0.676429,-0.283659 1.200985,-0.681335 1.400157,-1.061495 0.06921,-0.132107 0.07964,-0.183471 0.0796,-0.392078 -2.5e-5,-0.216975 -0.0092,-0.257704 -0.09473,-0.423628 -0.120702,-0.233992 -0.519612,-0.634003 -0.850534,-0.852876 -1.625753,-1.075302 -4.689386,-1.773489 -7.782459,-1.773589 l -0.510238,-1.6e-5 -0.192286,0.261238 c -0.287638,0.390781 -0.911806,1.340698 -1.160181,1.765662 l -0.219033,0.374755 0.150501,0.345411 c 1.509788,3.465056 3.853728,6.390661 5.58255,6.967912 0.375858,0.125498 0.660268,0.131612 0.890163,0.01915 0.430212,-0.210477 0.655544,-0.756863 0.690153,-1.673426 0.05775,-1.529716 -0.493208,-3.643938 -1.520579,-5.834918 -0.106525,-0.227168 -0.170469,-0.400544 -0.170469,-0.462176 0,-0.185301 0.152162,-0.331014 0.342922,-0.328381 0.169386,0.002 0.243686,0.07016 0.372883,0.340396 0.83316,1.742658 1.388559,3.488439 1.595947,5.016537 0.06974,0.513852 0.07016,1.559716 0.001,1.93346 -0.110967,0.597781 -0.308403,1.028438 -0.610519,1.331724 -0.368046,0.369465 -0.845712,0.510572 -1.410751,0.416742 z m -5.976862,-9.302032 c 0.105475,-0.17087 0.310777,-0.484769 0.456232,-0.697573 0.145455,-0.212798 0.264462,-0.395543 0.264462,-0.406088 0,-0.03632 -1.334438,0.09874 -1.374822,0.139124 -0.02428,0.0242 0.05572,0.321579 0.2334,0.867978 0.129219,0.397356 0.164196,0.47808 0.193356,0.446172 0.01958,-0.02145 0.121892,-0.178754 0.227372,-0.349613 z m 2.847296,2.533223 c -0.424287,-0.151494 -0.672232,-0.505494 -0.666585,-0.95169 0.0032,-0.233614 0.05623,-0.393822 0.192815,-0.579893 0.346121,-0.471508 1.052954,-0.525133 1.478481,-0.112172 0.488773,0.474337 0.344091,1.320689 -0.274156,1.603734 -0.212758,0.0974 -0.522355,0.11436 -0.730555,0.04004 z" id="path4662-3-4" inkscape:connector-curvature="0" inkscape:label="atom"/>
    </g>
  </g>
</svg>