<?xml version="1.0" encoding="UTF-8" standalone="yes"?>
<svg xmlns:dc="http://purl.org/dc/elements/1.1/" xmlns:cc="http://creativecommons.org/ns#" xmlns:rdf="http://www.w3.org/1999/02/22-rdf-syntax-ns#" xmlns:svg="http://www.w3.org/2000/svg" xmlns="http://www.w3.org/2000/svg" xmlns:xlink="http://www.w3.org/1999/xlink" xmlns:sodipodi="http://sodipodi.sourceforge.net/DTD/sodipodi-0.dtd" xmlns:inkscape="http://www.inkscape.org/namespaces/inkscape" height="24" viewBox="0 0 24 24" width="24" id="svg2" version="1.1" inkscape:version="0.92.2 5c3e80d, 2017-08-06" sodipodi:docname="hexchat.svg" enable-background="new" folder="24">
  <title id="title4675">Template icons dark</title>
  <metadata id="metadata24">
    <rdf:RDF>
      <cc:Work rdf:about="">
        <dc:format>image/svg+xml</dc:format>
        <dc:type rdf:resource="http://purl.org/dc/dcmitype/StillImage"/>
        <dc:title>Template icons dark</dc:title>
        <dc:date>17/05/13</dc:date>
        <dc:creator>
          <cc:Agent>
            <dc:title>wfpaisa</dc:title>
          </cc:Agent>
        </dc:creator>
        <dc:rights>
          <cc:Agent>
            <dc:title>License: GPLv3</dc:title>
          </cc:Agent>
        </dc:rights>
        <dc:language>es-en</dc:language>
        <dc:subject>
          <rdf:Bag>
            <rdf:li>plane-icon-theme</rdf:li>
          </rdf:Bag>
        </dc:subject>
        <dc:description>Template for create set icons</dc:description>
        <cc:license rdf:resource="https://www.gnu.org/licenses/gpl-3.0.en.html"/>
      </cc:Work>
    </rdf:RDF>
  </metadata>
  <defs id="defs22">
    <linearGradient inkscape:collect="always" id="linearGradient1062">
      <stop style="stop-color:#6e685c;stop-opacity:1" offset="0" id="stop1058"/>
      <stop style="stop-color:#7f6a7f;stop-opacity:1" offset="1" id="stop1060"/>
    </linearGradient>
    <linearGradient id="linearGradient1011">
      <stop style="stop-color:#fadd9a;stop-opacity:0.26373628" offset="0" id="stop1007"/>
      <stop style="stop-color:#ffffff;stop-opacity:0" offset="1" id="stop1009"/>
    </linearGradient>
    <linearGradient id="linearGradient1003">
      <stop id="stop999" offset="0" style="stop-color:#000000;stop-opacity:0.02197802"/>
      <stop id="stop1001" offset="1" style="stop-color:#ffffff;stop-opacity:0"/>
    </linearGradient>
    <linearGradient id="linearGradient951">
      <stop style="stop-color:#000000;stop-opacity:0.02197802" offset="0" id="stop947"/>
      <stop style="stop-color:#111111;stop-opacity:0.55128205;" offset="1" id="stop949"/>
    </linearGradient>
    <linearGradient inkscape:collect="always" id="linearGradient937">
      <stop style="stop-color:#262532;stop-opacity:1" offset="0" id="stop933"/>
      <stop style="stop-color:#39343d;stop-opacity:1" offset="1" id="stop935"/>
    </linearGradient>
    <linearGradient inkscape:collect="always" id="linearGradient919">
      <stop style="stop-color:#f75100;stop-opacity:1" offset="0" id="stop915"/>
      <stop style="stop-color:#ffae11;stop-opacity:1" offset="1" id="stop917"/>
    </linearGradient>
    <linearGradient inkscape:collect="always" id="linearGradient890">
      <stop style="stop-color:#23211d;stop-opacity:1" offset="0" id="stop886"/>
      <stop style="stop-color:#3f474b;stop-opacity:1" offset="1" id="stop888"/>
    </linearGradient>
    <linearGradient inkscape:collect="always" xlink:href="#linearGradient890" id="linearGradient892" x1="163.84251" y1="197.85826" x2="163.84251" y2="124" gradientUnits="userSpaceOnUse"/>
    <linearGradient inkscape:collect="always" xlink:href="#linearGradient919" id="linearGradient921" x1="160" y1="182.11389" x2="160" y2="138" gradientUnits="userSpaceOnUse"/>
    <linearGradient inkscape:collect="always" xlink:href="#linearGradient937" id="linearGradient939" x1="165.5748" y1="196.64023" x2="165.5748" y2="124" gradientUnits="userSpaceOnUse"/>
    <linearGradient inkscape:collect="always" xlink:href="#linearGradient951" id="linearGradient957" gradientUnits="userSpaceOnUse" x1="157.44095" y1="165" x2="152.50394" y2="178" gradientTransform="matrix(-1,0,0,1,319.97656,0)"/>
    <linearGradient inkscape:collect="always" xlink:href="#linearGradient951" id="linearGradient963" gradientUnits="userSpaceOnUse" x1="157.44095" y1="165" x2="152.50394" y2="178" gradientTransform="matrix(1,0,0,-1,0,321.42)"/>
    <linearGradient inkscape:collect="always" xlink:href="#linearGradient951" id="linearGradient965" gradientUnits="userSpaceOnUse" gradientTransform="rotate(-180,159.98828,160.71002)" x1="157.44095" y1="165" x2="152.50394" y2="178"/>
    <linearGradient inkscape:collect="always" xlink:href="#linearGradient951" id="linearGradient991" gradientUnits="userSpaceOnUse" x1="152.96036" y1="169.59766" x2="150.53516" y2="166.59766" gradientTransform="matrix(1,0,0,-1,-9.53516,354.59766)"/>
    <linearGradient inkscape:collect="always" xlink:href="#linearGradient951" id="linearGradient957-3" gradientUnits="userSpaceOnUse" x1="157.44095" y1="165" x2="152.50394" y2="178" gradientTransform="matrix(-1,0,0,1,159.98828,-160.75391)"/>
    <linearGradient inkscape:collect="always" xlink:href="#linearGradient951" id="linearGradient1036" gradientUnits="userSpaceOnUse" gradientTransform="matrix(-1,0,0,1,319.97656,0)" x1="162.53561" y1="165" x2="171.25215" y2="173"/>
    <linearGradient inkscape:collect="always" xlink:href="#linearGradient1062" id="linearGradient1064" x1="166.3307" y1="203.9016" x2="166.3307" y2="116" gradientUnits="userSpaceOnUse"/>
    <linearGradient inkscape:collect="always" xlink:href="#linearGradient937" id="linearGradient1073" gradientUnits="userSpaceOnUse" x1="165.5748" y1="196.64023" x2="165.5748" y2="124"/>
    <linearGradient gradientTransform="matrix(1.3333331,0,0,1.3333331,58.666708,58.666698)" inkscape:collect="always" xlink:href="#linearGradient937" id="linearGradient1073-3" gradientUnits="userSpaceOnUse" x1="165.5748" y1="196.64023" x2="165.5748" y2="124"/>
    <linearGradient gradientTransform="matrix(1.3333331,0,0,1.3333331,58.666708,58.666698)" inkscape:collect="always" xlink:href="#linearGradient919" id="linearGradient921-2" x1="160" y1="182.11389" x2="160" y2="138" gradientUnits="userSpaceOnUse"/>
    <linearGradient inkscape:collect="always" xlink:href="#linearGradient951" id="linearGradient1036-2" gradientUnits="userSpaceOnUse" gradientTransform="matrix(-1.3333331,0,0,1.3333331,485.30205,58.666698)" x1="162.53561" y1="165" x2="171.25215" y2="173"/>
    <linearGradient inkscape:collect="always" xlink:href="#linearGradient951" id="linearGradient957-9" gradientUnits="userSpaceOnUse" x1="157.44095" y1="165" x2="152.50394" y2="178" gradientTransform="matrix(-1.3333331,0,0,1.3333331,485.30205,58.666698)"/>
    <linearGradient inkscape:collect="always" xlink:href="#linearGradient951" id="linearGradient963-3" gradientUnits="userSpaceOnUse" x1="157.44095" y1="165" x2="152.50394" y2="178" gradientTransform="matrix(1.3333331,0,0,-1.3333331,58.666708,487.22662)"/>
    <linearGradient inkscape:collect="always" xlink:href="#linearGradient951" id="linearGradient965-6" gradientUnits="userSpaceOnUse" gradientTransform="matrix(-1.3333331,0,0,-1.3333331,485.30207,487.22668)" x1="157.44095" y1="165" x2="152.50394" y2="178"/>
    <linearGradient gradientTransform="matrix(0.66667093,0,0,0.66667093,-26.667364,-26.667346)" inkscape:collect="always" xlink:href="#linearGradient937" id="linearGradient1073-5" gradientUnits="userSpaceOnUse" x1="165.5748" y1="196.64023" x2="165.5748" y2="124"/>
    <linearGradient gradientTransform="matrix(0.66667093,0,0,0.66667093,-26.667364,-26.667346)" inkscape:collect="always" xlink:href="#linearGradient919" id="linearGradient921-28" x1="160" y1="182.11389" x2="160" y2="138" gradientUnits="userSpaceOnUse"/>
    <linearGradient inkscape:collect="always" xlink:href="#linearGradient951" id="linearGradient1036-3" gradientUnits="userSpaceOnUse" gradientTransform="matrix(-0.66667093,0,0,0.66667093,186.65171,-26.667346)" x1="162.53561" y1="165" x2="171.25215" y2="173"/>
    <linearGradient inkscape:collect="always" xlink:href="#linearGradient951" id="linearGradient957-2" gradientUnits="userSpaceOnUse" x1="157.44095" y1="165" x2="152.50394" y2="178" gradientTransform="matrix(-0.66667093,0,0,0.66667093,186.65171,-26.667346)"/>
    <linearGradient inkscape:collect="always" xlink:href="#linearGradient951" id="linearGradient963-9" gradientUnits="userSpaceOnUse" x1="157.44095" y1="165" x2="152.50394" y2="178" gradientTransform="matrix(0.66667093,0,0,-0.66667093,-26.667364,187.61402)"/>
    <linearGradient inkscape:collect="always" xlink:href="#linearGradient951" id="linearGradient965-3" gradientUnits="userSpaceOnUse" gradientTransform="matrix(-0.66667093,0,0,-0.66667093,186.65171,187.61405)" x1="157.44095" y1="165" x2="152.50394" y2="178"/>
    <linearGradient gradientTransform="matrix(0.49999736,0,0,0.49999736,-55.999599,-55.999578)" inkscape:collect="always" xlink:href="#linearGradient937" id="linearGradient1073-32" gradientUnits="userSpaceOnUse" x1="165.5748" y1="196.64023" x2="165.5748" y2="124"/>
    <linearGradient gradientTransform="matrix(0.49999736,0,0,0.49999736,-55.999599,-55.999578)" inkscape:collect="always" xlink:href="#linearGradient919" id="linearGradient921-1" x1="160" y1="182.11389" x2="160" y2="138" gradientUnits="userSpaceOnUse"/>
    <linearGradient inkscape:collect="always" xlink:href="#linearGradient951" id="linearGradient1036-4" gradientUnits="userSpaceOnUse" gradientTransform="matrix(-0.49999736,0,0,0.49999736,103.98784,-55.999578)" x1="162.53561" y1="165" x2="171.25215" y2="173"/>
    <linearGradient inkscape:collect="always" xlink:href="#linearGradient951" id="linearGradient957-5" gradientUnits="userSpaceOnUse" x1="157.44095" y1="165" x2="152.50394" y2="178" gradientTransform="matrix(-0.49999736,0,0,0.49999736,103.98784,-55.999578)"/>
    <linearGradient inkscape:collect="always" xlink:href="#linearGradient951" id="linearGradient963-6" gradientUnits="userSpaceOnUse" x1="157.44095" y1="165" x2="152.50394" y2="178" gradientTransform="matrix(0.49999736,0,0,-0.49999736,-55.999599,104.70957)"/>
    <linearGradient inkscape:collect="always" xlink:href="#linearGradient951" id="linearGradient965-9" gradientUnits="userSpaceOnUse" gradientTransform="matrix(-0.49999736,0,0,-0.49999736,103.98784,104.70959)" x1="157.44095" y1="165" x2="152.50394" y2="178"/>
    <linearGradient gradientTransform="matrix(0.33333546,0,0,0.33333546,-69.333702,-69.333674)" inkscape:collect="always" xlink:href="#linearGradient937" id="linearGradient1073-8" gradientUnits="userSpaceOnUse" x1="165.5748" y1="196.64023" x2="165.5748" y2="124"/>
    <linearGradient gradientTransform="matrix(0.33333546,0,0,0.33333546,-69.333702,-69.333674)" inkscape:collect="always" xlink:href="#linearGradient919" id="linearGradient921-14" x1="160" y1="182.11389" x2="160" y2="138" gradientUnits="userSpaceOnUse"/>
    <linearGradient gradientTransform="matrix(0.27426685,0,0,0.27426685,-87.882725,-87.943515)" inkscape:collect="always" xlink:href="#linearGradient919" id="linearGradient921-14-9" x1="160" y1="182.11389" x2="160" y2="138" gradientUnits="userSpaceOnUse"/>
    <linearGradient gradientTransform="matrix(0.24124709,0,0,0.24124709,-82.599567,-82.599535)" inkscape:collect="always" xlink:href="#linearGradient937" id="linearGradient1073-8-0" gradientUnits="userSpaceOnUse" x1="165.5748" y1="196.64023" x2="165.5748" y2="124"/>
    <linearGradient gradientTransform="matrix(0.14893698,0,0,0.14893698,-87.829957,-87.829915)" inkscape:collect="always" xlink:href="#linearGradient937" id="linearGradient1073-8-0-9" gradientUnits="userSpaceOnUse" x1="165.5748" y1="196.64023" x2="165.5748" y2="124"/>
    <linearGradient gradientTransform="matrix(0.19618943,0,0,0.19618943,-95.39034,-95.464324)" inkscape:collect="always" xlink:href="#linearGradient919" id="linearGradient921-14-9-6" x1="160" y1="182.11389" x2="160" y2="138" gradientUnits="userSpaceOnUse"/>
  </defs>
  <sodipodi:namedview pagecolor="#383c4a" bordercolor="#ffffff" borderopacity="0.62745098" objecttolerance="4" gridtolerance="10" guidetolerance="4" inkscape:pageopacity="0" inkscape:pageshadow="2" inkscape:window-width="640" inkscape:window-height="480" id="namedview20" showgrid="true" inkscape:zoom="32.578064" inkscape:cx="-61.617454" inkscape:cy="112.57787" inkscape:current-layer="layer6" inkscape:snap-smooth-nodes="false" showguides="true" borderlayer="true" inkscape:showpageshadow="false" inkscape:guide-bbox="true" guidecolor="#bd4fff" guideopacity="0.78431373" inkscape:snap-nodes="true" inkscape:lockguides="false" fit-margin-top="0" fit-margin-left="0" fit-margin-right="0" fit-margin-bottom="0" guidehicolor="#ff0101" guidehiopacity="0.78431373" inkscape:snap-page="true" inkscape:object-nodes="true" inkscape:snap-bbox="true" inkscape:snap-global="true" inkscape:snap-object-midpoints="false" inkscape:snap-bbox-edge-midpoints="false">
    <inkscape:grid type="xygrid" id="grid4171" empspacing="4" dotted="false" originx="2.7755576e-17" originy="0" spacingx="1" spacingy="1" color="#5a5a5a" opacity="0.23529412" empcolor="#5a5a5a" empopacity="0.47058824" visible="true"/>
    <inkscape:grid type="axonomgrid" id="grid4699" units="mm" empspacing="4" color="#5a5a5a" opacity="0.23529412" empcolor="#5a5a5a" empopacity="0.47058824" gridanglex="45" gridanglez="45" spacingy="3.7795276" visible="false" originx="1.3228346" originy="1.3228346"/>
    <sodipodi:guide position="48,0" orientation="1,0" id="guide4568" inkscape:locked="false" inkscape:label="" inkscape:color="rgb(189,79,255)"/>
    <sodipodi:guide position="111.99996,-3.9999999e-05" orientation="0,1" id="guide4570" inkscape:locked="false" inkscape:label="" inkscape:color="rgb(189,79,255)"/>
    <sodipodi:guide position="0,0" orientation="1,0" id="guide4572" inkscape:locked="false" inkscape:label="" inkscape:color="rgb(189,79,255)"/>
    <sodipodi:guide position="0,48" orientation="0,1" id="guide4574" inkscape:locked="false" inkscape:label="" inkscape:color="rgb(189,79,255)"/>
    <sodipodi:guide position="0,80" orientation="0,1" id="guide4576" inkscape:locked="false" inkscape:label="" inkscape:color="rgb(189,79,255)"/>
    <sodipodi:guide position="-32,48" orientation="1,0" id="guide4578" inkscape:locked="false" inkscape:label="" inkscape:color="rgb(189,79,255)"/>
    <sodipodi:guide position="-32,104" orientation="0,1" id="guide4580" inkscape:locked="false" inkscape:label="" inkscape:color="rgb(189,79,255)"/>
    <sodipodi:guide position="-56,80" orientation="1,0" id="guide4582" inkscape:locked="false" inkscape:label="" inkscape:color="rgb(189,79,255)"/>
    <sodipodi:guide position="48,-64" orientation="0,1" id="guide4584" inkscape:locked="false" inkscape:label="" inkscape:color="rgb(189,79,255)"/>
    <sodipodi:guide position="0,0" orientation="-0.70710678,0.70710678" id="guide4588" inkscape:locked="false" inkscape:label="" inkscape:color="rgb(189,79,255)"/>
    <sodipodi:guide position="-56,80" orientation="-0.70710678,0.70710678" id="guide4573" inkscape:locked="false" inkscape:label="" inkscape:color="rgb(189,79,255)"/>
    <sodipodi:guide position="-32,48" orientation="-0.70710678,0.70710678" id="guide4575" inkscape:locked="false" inkscape:label="" inkscape:color="rgb(189,79,255)"/>
    <sodipodi:guide position="48,-64" orientation="-0.70710678,0.70710678" id="guide4577" inkscape:locked="false" inkscape:label="" inkscape:color="rgb(189,79,255)"/>
    <sodipodi:guide position="47.999962,0" orientation="0.70710678,0.70710678" id="guide4697" inkscape:locked="false" inkscape:label="" inkscape:color="rgb(189,79,255)"/>
    <sodipodi:guide position="207.99995,-288" orientation="0,1" id="guide7833" inkscape:locked="false"/>
    <sodipodi:guide position="335.99994,-288" orientation="1,0" id="guide7835" inkscape:locked="false" inkscape:label="" inkscape:color="rgb(189,79,255)"/>
    <sodipodi:guide position="111.99996,-64" orientation="1,0" id="guide7915" inkscape:locked="false"/>
    <sodipodi:guide position="111.99996,-160" orientation="0,1" id="guide7917" inkscape:locked="false"/>
    <sodipodi:guide position="207.99996,-160" orientation="1,0" id="guide7919" inkscape:locked="false"/>
    <sodipodi:guide position="111.99996,-160" orientation="-0.70710678,0.70710678" id="guide7921" inkscape:locked="false" inkscape:label="" inkscape:color="rgb(189,79,255)"/>
    <sodipodi:guide position="207.99996,-288" orientation="-0.70710678,0.70710678" id="guide7923" inkscape:locked="false" inkscape:label="" inkscape:color="rgb(189,79,255)"/>
    <sodipodi:guide position="-72,104" orientation="1,0" id="guide7824" inkscape:locked="false"/>
    <sodipodi:guide position="-56,120" orientation="0,1" id="guide7826" inkscape:locked="false"/>
    <sodipodi:guide position="-72,104" orientation="-0.70710678,0.70710678" id="guide7828" inkscape:locked="false" inkscape:label="" inkscape:color="rgb(189,79,255)"/>
  </sodipodi:namedview>
  <g inkscape:groupmode="layer" id="layer2" inkscape:label="icon_24" style="display:inline" transform="translate(56,56)">
    <g inkscape:groupmode="layer" id="layer7" inkscape:label="frame" style="display:none">
      <rect style="color:#000000;clip-rule:nonzero;display:block;overflow:visible;visibility:visible;opacity:1;isolation:auto;mix-blend-mode:normal;color-interpolation:sRGB;color-interpolation-filters:linearRGB;solid-color:#000000;solid-opacity:1;vector-effect:none;fill:#000000;fill-opacity:0.99481865;fill-rule:nonzero;stroke:#ff24f7;stroke-width:0;stroke-linecap:square;stroke-linejoin:miter;stroke-miterlimit:4;stroke-dasharray:none;stroke-dashoffset:0;stroke-opacity:0.99481865;marker:none;marker-start:none;marker-mid:none;marker-end:none;paint-order:normal;color-rendering:auto;image-rendering:auto;shape-rendering:auto;text-rendering:auto;enable-background:accumulate" id="frame_24" width="24" height="24" x="-56" y="-56" inkscape:label="frame_24"/>
      <text id="txt_24" y="-40.041668" x="-50.880211" style="font-size:10.66666698px;line-height:1000%;font-family:sans-serif;letter-spacing:0px;word-spacing:0px;display:inline;opacity:1;fill:#ffffff;fill-opacity:1;stroke:none;stroke-width:0.11166908px;stroke-linecap:butt;stroke-linejoin:miter;stroke-opacity:1" xml:space="preserve" inkscape:label="txt_24">
        <tspan id="tspan4835-2-5" style="font-size:10.66666698px;fill:#ffffff;fill-opacity:1;stroke:none;stroke-width:0.11166908px" y="-40.041668" x="-50.880211" sodipodi:role="line">24</tspan>
      </text>
    </g>
    <g inkscape:groupmode="layer" id="layer8" inkscape:label="icon" style="display:inline">
      <path d="m -31.999823,-44 c 0,0.840015 -5.272635,9.972487 -6.000109,10.392495 -0.727475,0.420007 -11.272745,0.420007 -12.00022,0 -0.727474,-0.420008 -6.000109,-9.55248 -6.000109,-10.392495 0,-0.840015 5.272635,-9.972487 6.000109,-10.392495 0.727475,-0.420007 11.272745,-0.420007 12.00022,0 0.727474,0.420008 6.000109,9.55248 6.000109,10.392495 z" inkscape:randomized="0" inkscape:rounded="0.07" inkscape:flatsided="true" sodipodi:arg2="0.52359878" sodipodi:arg1="0" sodipodi:r2="10.392494" sodipodi:r1="12.000219" sodipodi:cy="-44" sodipodi:cx="-44.000042" sodipodi:sides="6" id="path941-9-7" style="color:#000000;clip-rule:nonzero;display:inline;overflow:visible;visibility:visible;opacity:1;isolation:auto;mix-blend-mode:normal;color-interpolation:sRGB;color-interpolation-filters:linearRGB;solid-color:#000000;solid-opacity:1;vector-effect:none;fill:#000000;fill-opacity:0.42307691;fill-rule:nonzero;stroke:none;stroke-width:2.23266315;stroke-linecap:butt;stroke-linejoin:miter;stroke-miterlimit:4;stroke-dasharray:none;stroke-dashoffset:0;stroke-opacity:1;marker:none;marker-start:none;marker-mid:none;marker-end:none;paint-order:fill markers stroke;color-rendering:auto;image-rendering:auto;shape-rendering:auto;text-rendering:auto;enable-background:accumulate" sodipodi:type="star"/>
      <path sodipodi:type="star" style="color:#000000;clip-rule:nonzero;display:block;overflow:visible;visibility:visible;opacity:1;isolation:auto;mix-blend-mode:normal;color-interpolation:sRGB;color-interpolation-filters:linearRGB;solid-color:#000000;solid-opacity:1;vector-effect:none;fill:url(#linearGradient1073-8-0);fill-opacity:1;fill-rule:nonzero;stroke:none;stroke-width:2.10957241;stroke-linecap:butt;stroke-linejoin:miter;stroke-miterlimit:4;stroke-dasharray:none;stroke-dashoffset:0;stroke-opacity:1;marker:none;marker-start:none;marker-mid:none;marker-end:none;paint-order:fill markers stroke;color-rendering:auto;image-rendering:auto;shape-rendering:auto;text-rendering:auto;enable-background:accumulate" id="path931-5-7" sodipodi:sides="6" sodipodi:cx="-44.000042" sodipodi:cy="-44" sodipodi:r1="11.338625" sodipodi:r2="9.8195381" sodipodi:arg1="0" sodipodi:arg2="0.52359878" inkscape:flatsided="true" inkscape:rounded="0.07" inkscape:randomized="0" d="m -32.661417,-44 c 0,0.793704 -4.981945,9.422685 -5.669312,9.819537 -0.687368,0.396852 -10.651258,0.396852 -11.338625,0 -0.687368,-0.396852 -5.669313,-9.025833 -5.669313,-9.819537 0,-0.793704 4.981945,-9.422685 5.669313,-9.819537 0.687367,-0.396852 10.651257,-0.396852 11.338625,0 0.687367,0.396852 5.669312,9.025833 5.669312,9.819537 z"/>
      <path sodipodi:type="star" style="color:#000000;clip-rule:nonzero;display:block;overflow:visible;visibility:visible;opacity:1;isolation:auto;mix-blend-mode:normal;color-interpolation:sRGB;color-interpolation-filters:linearRGB;solid-color:#000000;solid-opacity:1;vector-effect:none;fill:#f6f5f4;fill-opacity:0.09890113;fill-rule:nonzero;stroke:none;stroke-width:1.86052632;stroke-linecap:butt;stroke-linejoin:miter;stroke-miterlimit:4;stroke-dasharray:none;stroke-dashoffset:0;stroke-opacity:1;marker:none;marker-start:none;marker-mid:none;marker-end:none;paint-order:fill markers stroke;color-rendering:auto;image-rendering:auto;shape-rendering:auto;text-rendering:auto;enable-background:accumulate" id="path925-4-1" sodipodi:sides="6" sodipodi:cx="-44.000042" sodipodi:cy="-44" sodipodi:r1="10.000042" sodipodi:r2="8.6602888" sodipodi:arg1="0" sodipodi:arg2="0.52359878" inkscape:flatsided="true" inkscape:rounded="0.07" inkscape:randomized="0" d="m -34,-44 c 0,0.700003 -4.393801,8.310289 -5.000021,8.66029 -0.60622,0.350002 -9.393822,0.350002 -10.000042,0 -0.60622,-0.350001 -5.000021,-7.960287 -5.000021,-8.66029 0,-0.700003 4.393801,-8.310289 5.000021,-8.66029 0.60622,-0.350002 9.393822,-0.350002 10.000042,0 C -38.393801,-52.310289 -34,-44.700003 -34,-44 Z"/>
      <path style="color:#000000;font-style:normal;font-variant:normal;font-weight:normal;font-stretch:normal;font-size:medium;line-height:normal;font-family:sans-serif;font-variant-ligatures:normal;font-variant-position:normal;font-variant-caps:normal;font-variant-numeric:normal;font-variant-alternates:normal;font-feature-settings:normal;text-indent:0;text-align:start;text-decoration:none;text-decoration-line:none;text-decoration-style:solid;text-decoration-color:#000000;letter-spacing:normal;word-spacing:normal;text-transform:none;writing-mode:lr-tb;direction:ltr;text-orientation:mixed;dominant-baseline:auto;baseline-shift:baseline;text-anchor:start;white-space:normal;shape-padding:0;clip-rule:nonzero;display:block;overflow:visible;visibility:visible;opacity:1;isolation:auto;mix-blend-mode:normal;color-interpolation:sRGB;color-interpolation-filters:linearRGB;solid-color:#000000;solid-opacity:1;vector-effect:none;fill:url(#linearGradient921-14-9);fill-opacity:1;fill-rule:nonzero;stroke:none;stroke-width:0.27426684;stroke-linecap:butt;stroke-linejoin:miter;stroke-miterlimit:4;stroke-dasharray:none;stroke-dashoffset:0;stroke-opacity:0.28021982;marker:none;paint-order:fill markers stroke;color-rendering:auto;image-rendering:auto;shape-rendering:auto;text-rendering:auto;enable-background:accumulate" d="m -44.000031,-51.188011 c -0.866469,0 -1.731532,0.01522 -2.421798,0.04714 -0.345132,0.01596 -0.644924,0.03581 -0.892437,0.06214 -0.123758,0.01316 -0.233659,0.02767 -0.341764,0.0482 -0.108103,0.02055 -0.189829,0.01508 -0.406579,0.136599 -0.216754,0.121505 -0.253856,0.193635 -0.326226,0.274266 -0.07237,0.08063 -0.140115,0.165537 -0.213737,0.263017 -0.147242,0.194961 -0.314594,0.437187 -0.501395,0.719415 -0.373606,0.564461 -0.819712,1.284488 -1.252947,2.013076 -0.433234,0.728587 -0.851656,1.463298 -1.168314,2.059681 -0.158332,0.298194 -0.29131,0.560261 -0.391579,0.781554 -0.05014,0.110644 -0.0923,0.210055 -0.128028,0.311226 -0.03572,0.10117 -0.08142,0.167855 -0.08142,0.410866 0,0.243012 0.0457,0.309693 0.08142,0.410865 0.03573,0.10117 0.07789,0.200582 0.128028,0.311227 0.10027,0.221292 0.233247,0.483361 0.391579,0.781555 0.316658,0.596381 0.73508,1.331092 1.168314,2.05968 0.276826,0.465549 0.551842,0.910416 0.816907,1.330622 l -1.128672,3.608324 2.832126,-1.569537 c 0.06911,0.02038 0.121753,0.02578 0.180523,0.03696 0.108103,0.02055 0.218006,0.03504 0.341764,0.0482 0.247513,0.02633 0.547305,0.04617 0.892437,0.06214 0.690266,0.03192 1.555329,0.04714 2.421798,0.04714 0.866472,0 1.730997,-0.01523 2.421262,-0.04714 0.345131,-0.01596 0.645462,-0.03581 0.892974,-0.06214 0.123757,-0.01316 0.233656,-0.02767 0.341763,-0.0482 0.108103,-0.02055 0.189827,-0.01508 0.406579,-0.136598 0.216754,-0.121506 0.253856,-0.193635 0.326227,-0.274267 0.07237,-0.08063 0.140115,-0.165537 0.213737,-0.263017 0.14724,-0.19496 0.314594,-0.437186 0.501394,-0.719414 0.373608,-0.564461 0.81971,-1.284488 1.252947,-2.013076 0.433235,-0.728588 0.851655,-1.463299 1.168314,-2.059681 0.158332,-0.298194 0.290776,-0.560262 0.391045,-0.781554 0.05014,-0.110645 0.09283,-0.210055 0.128562,-0.311227 0.03573,-0.10117 0.08142,-0.167854 0.08142,-0.410865 0,-0.243012 -0.04569,-0.309695 -0.08142,-0.410867 -0.03573,-0.101169 -0.07843,-0.200582 -0.128562,-0.311225 -0.10027,-0.221294 -0.232713,-0.483361 -0.391045,-0.781555 -0.316659,-0.596382 -0.735079,-1.331094 -1.168314,-2.05968 -0.433237,-0.728588 -0.879346,-1.448615 -1.252947,-2.013076 -0.186802,-0.282229 -0.354154,-0.524455 -0.501394,-0.719415 -0.07362,-0.09748 -0.141364,-0.182385 -0.213737,-0.263018 -0.07237,-0.08063 -0.109474,-0.15276 -0.326227,-0.274266 -0.216752,-0.121504 -0.298476,-0.116055 -0.406579,-0.136599 -0.108103,-0.02055 -0.218006,-0.03504 -0.341763,-0.0482 -0.247512,-0.02633 -0.547839,-0.04617 -0.892974,-0.06214 -0.690265,-0.03192 -1.55479,-0.04714 -2.421262,-0.04714 z m 0,1.621496 c 0.845729,0 1.69339,0.01552 2.342519,0.04553 0.09396,0.0044 0.143778,0.01111 0.228734,0.01607 l -2.585715,3.84938 -2.617858,-3.84563 c 0.104165,-0.0065 0.170765,-0.01432 0.289802,-0.01984 0.649132,-0.03003 1.496792,-0.04554 2.342518,-0.04554 z m 4.088291,1.415262 c 0.264154,0.417392 0.541573,0.865535 0.822265,1.337585 0.422865,0.711146 0.833023,1.431341 1.130813,1.992184 0.148898,0.280425 0.269945,0.522417 0.346586,0.691561 0.01437,0.03173 0.01794,0.04317 0.02892,0.0691 -0.011,0.02595 -0.01457,0.03738 -0.02892,0.0691 -0.07664,0.169143 -0.197688,0.411136 -0.346586,0.691561 -0.29779,0.560843 -0.707948,1.281037 -1.130813,1.992183 -0.321722,0.541053 -0.64044,1.05344 -0.934759,1.513289 l -2.768915,-4.067398 z m -8.206578,0.0466 2.89373,4.250602 -2.739455,4.077575 c -0.297247,-0.463851 -0.620556,-0.983274 -0.946543,-1.531501 -0.422866,-0.711146 -0.833024,-1.43134 -1.130815,-1.992183 -0.148896,-0.280425 -0.269944,-0.522418 -0.346585,-0.691561 -0.01437,-0.03173 -0.01794,-0.04317 -0.02892,-0.0691 0.011,-0.02595 0.01457,-0.03738 0.02892,-0.0691 0.07664,-0.169144 0.197689,-0.411136 0.346585,-0.691562 0.297791,-0.560842 0.707949,-1.281037 1.130815,-1.992183 0.269793,-0.45372 0.536693,-0.886 0.792268,-1.290983 z m 4.115073,6.044049 2.354839,3.459405 c -0.0037,1.74e-4 -0.0054,2.6e-4 -0.0091,5.49e-4 -0.649129,0.03003 -1.49679,0.04554 -2.342519,0.04554 -0.840154,0 -1.680611,-0.01538 -2.328055,-0.045 z" id="path902-72-1" inkscape:connector-curvature="0" sodipodi:nodetypes="scccccscscccscccsccccccsccccccccscssscsccccscccsccccccccccscccscccccccsscccscccccscc"/>
    </g>
  </g>
</svg>