<?xml version="1.0" encoding="UTF-8" standalone="yes"?>
<svg xmlns:dc="http://purl.org/dc/elements/1.1/" xmlns:cc="http://creativecommons.org/ns#" xmlns:rdf="http://www.w3.org/1999/02/22-rdf-syntax-ns#" xmlns:svg="http://www.w3.org/2000/svg" xmlns="http://www.w3.org/2000/svg" xmlns:xlink="http://www.w3.org/1999/xlink" xmlns:sodipodi="http://sodipodi.sourceforge.net/DTD/sodipodi-0.dtd" xmlns:inkscape="http://www.inkscape.org/namespaces/inkscape" height="24" viewBox="0 0 24 24" width="24" id="svg2" version="1.1" inkscape:version="0.92.2 5c3e80d, 2017-08-06" sodipodi:docname="preferences-system.svg" enable-background="new" folder="24">
  <title id="title4675">Template icons dark</title>
  <metadata id="metadata24">
    <rdf:RDF>
      <cc:Work rdf:about="">
        <dc:format>image/svg+xml</dc:format>
        <dc:type rdf:resource="http://purl.org/dc/dcmitype/StillImage"/>
        <dc:title>Template icons dark</dc:title>
        <dc:date>17/05/13</dc:date>
        <dc:creator>
          <cc:Agent>
            <dc:title>wfpaisa</dc:title>
          </cc:Agent>
        </dc:creator>
        <dc:rights>
          <cc:Agent>
            <dc:title>License: GPLv3</dc:title>
          </cc:Agent>
        </dc:rights>
        <dc:language>es-en</dc:language>
        <dc:subject>
          <rdf:Bag>
            <rdf:li>plane-icon-theme</rdf:li>
          </rdf:Bag>
        </dc:subject>
        <dc:description>Template for create set icons</dc:description>
        <cc:license rdf:resource="https://www.gnu.org/licenses/gpl-3.0.en.html"/>
      </cc:Work>
    </rdf:RDF>
  </metadata>
  <defs id="defs22">
    <linearGradient inkscape:collect="always" id="linearGradient1388">
      <stop style="stop-color:#cfdde2;stop-opacity:1" offset="0" id="stop1384"/>
      <stop style="stop-color:#90a1b1;stop-opacity:1" offset="1" id="stop1386"/>
    </linearGradient>
    <linearGradient inkscape:collect="always" id="linearGradient1374">
      <stop style="stop-color:#ffffff;stop-opacity:0" offset="0" id="stop1370"/>
      <stop id="stop1378" offset="0.48049781" style="stop-color:#ffffff;stop-opacity:1"/>
      <stop style="stop-color:#f5f6f6;stop-opacity:0" offset="1" id="stop1372"/>
    </linearGradient>
    <linearGradient inkscape:collect="always" id="linearGradient1319">
      <stop style="stop-color:#eaf2f7;stop-opacity:1" offset="0" id="stop1315"/>
      <stop style="stop-color:#99b4c0;stop-opacity:1" offset="1" id="stop1317"/>
    </linearGradient>
    <linearGradient id="linearGradient1199" inkscape:collect="always">
      <stop id="stop1195" offset="0" style="stop-color:#c1dae3;stop-opacity:1"/>
      <stop id="stop1197" offset="1" style="stop-color:#8a98b4;stop-opacity:1"/>
    </linearGradient>
    <linearGradient inkscape:collect="always" id="linearGradient7891">
      <stop style="stop-color:#d2d2d2;stop-opacity:1" offset="0" id="stop7887"/>
      <stop style="stop-color:#939393;stop-opacity:1" offset="1" id="stop7889"/>
    </linearGradient>
    <linearGradient inkscape:collect="always" id="linearGradient7758">
      <stop style="stop-color:#671e1e;stop-opacity:1" offset="0" id="stop7754"/>
      <stop style="stop-color:#d04044;stop-opacity:1" offset="1" id="stop7756"/>
    </linearGradient>
    <linearGradient inkscape:collect="always" xlink:href="#linearGradient5419" id="linearGradient5425" x1="10.429825" y1="43.068272" x2="38.890873" y2="13.193013" gradientUnits="userSpaceOnUse" gradientTransform="matrix(0.9649266,0,0,0.9649266,-2.12316,-5.210928)"/>
    <linearGradient inkscape:collect="always" id="linearGradient5419">
      <stop style="stop-color:#0c528e;stop-opacity:1" offset="0" id="stop5421"/>
      <stop style="stop-color:#5fb19b;stop-opacity:1" offset="1" id="stop5423"/>
    </linearGradient>
    <linearGradient inkscape:collect="always" xlink:href="#linearGradient1388" id="linearGradient7893" x1="161.70172" y1="118.89846" x2="161.70172" y2="197.93216" gradientUnits="userSpaceOnUse"/>
    <linearGradient inkscape:collect="always" xlink:href="#linearGradient7758" id="linearGradient7760-3" x1="162.58794" y1="185.95032" x2="162.58794" y2="134.43561" gradientUnits="userSpaceOnUse" gradientTransform="matrix(0.93996715,0,0,0.93996715,-124.0425,-124.16093)"/>
    <linearGradient inkscape:collect="always" xlink:href="#linearGradient7758" id="linearGradient1166" gradientUnits="userSpaceOnUse" gradientTransform="matrix(0.93996715,0,0,0.93996715,9.6851028,9.9555173)" x1="162.58794" y1="185.95032" x2="162.58794" y2="134.43561"/>
    <linearGradient gradientTransform="translate(-115,-115.12599)" inkscape:collect="always" xlink:href="#linearGradient7891" id="linearGradient7893-5" x1="161.70172" y1="118.89846" x2="161.70172" y2="197.93216" gradientUnits="userSpaceOnUse"/>
    <linearGradient inkscape:collect="always" xlink:href="#linearGradient1319" id="linearGradient1321" x1="168.35246" y1="125.66496" x2="168.35246" y2="190.8166" gradientUnits="userSpaceOnUse"/>
    <linearGradient inkscape:collect="always" xlink:href="#linearGradient5419" id="linearGradient5425-62" x1="10.429825" y1="43.068272" x2="38.890873" y2="13.193013" gradientUnits="userSpaceOnUse" gradientTransform="matrix(0.9649266,0,0,0.9649266,-135.77092,-138.98468)"/>
    <linearGradient inkscape:collect="always" xlink:href="#linearGradient1199" id="linearGradient1348" gradientUnits="userSpaceOnUse" x1="161.70172" y1="118.89846" x2="161.70172" y2="197.93216"/>
    <linearGradient inkscape:collect="always" xlink:href="#linearGradient1374" id="linearGradient1376" x1="146.80354" y1="139.47923" x2="174.4657" y2="139.47923" gradientUnits="userSpaceOnUse" gradientTransform="matrix(0.43047969,0,0,0.70272293,90.79219,41.511806)"/>
    <linearGradient inkscape:collect="always" xlink:href="#linearGradient1374" id="linearGradient1382" gradientUnits="userSpaceOnUse" gradientTransform="matrix(0.46490125,0,0,0.70272293,85.782267,74.790085)" x1="146.80354" y1="139.47923" x2="174.4657" y2="139.47923"/>
    <linearGradient inkscape:collect="always" xlink:href="#linearGradient1374" id="linearGradient1376-7" x1="146.80354" y1="139.47923" x2="174.4657" y2="139.47923" gradientUnits="userSpaceOnUse" gradientTransform="matrix(0.29664256,0,0,0.48424473,32.30908,-1.6499335)"/>
    <linearGradient inkscape:collect="always" xlink:href="#linearGradient1374" id="linearGradient1382-2" gradientUnits="userSpaceOnUse" gradientTransform="matrix(0.32036237,0,0,0.48424473,28.856754,21.282051)" x1="146.80354" y1="139.47923" x2="174.4657" y2="139.47923"/>
    <linearGradient inkscape:collect="always" xlink:href="#linearGradient7758" id="linearGradient1166-3" gradientUnits="userSpaceOnUse" gradientTransform="matrix(0.64772918,0,0,0.64772918,-23.581627,-23.395297)" x1="162.58794" y1="185.95032" x2="162.58794" y2="134.43561"/>
    <linearGradient inkscape:collect="always" xlink:href="#linearGradient5419" id="linearGradient5425-9" x1="10.429825" y1="43.068272" x2="38.890873" y2="13.193013" gradientUnits="userSpaceOnUse" gradientTransform="matrix(0.66492867,0,0,0.66492867,-31.718672,-33.846462)"/>
    <linearGradient gradientTransform="matrix(0.68909768,0,0,0.68909768,-30.255607,-30.255622)" inkscape:collect="always" xlink:href="#linearGradient1319" id="linearGradient1321-8" x1="168.35246" y1="125.66496" x2="168.35246" y2="190.8166" gradientUnits="userSpaceOnUse"/>
    <linearGradient gradientTransform="matrix(0.68909768,0,0,0.68909768,-30.255607,-30.255622)" inkscape:collect="always" xlink:href="#linearGradient1388" id="linearGradient7893-361" x1="161.70172" y1="118.89846" x2="161.70172" y2="197.93216" gradientUnits="userSpaceOnUse"/>
    <linearGradient inkscape:collect="always" xlink:href="#linearGradient1388" id="linearGradient1506" gradientUnits="userSpaceOnUse" x1="161.70172" y1="118.89846" x2="161.70172" y2="197.93216"/>
    <linearGradient inkscape:collect="always" xlink:href="#linearGradient7758" id="linearGradient1508" gradientUnits="userSpaceOnUse" gradientTransform="matrix(0.93996715,0,0,0.93996715,9.6851028,9.9555173)" x1="162.58794" y1="185.95032" x2="162.58794" y2="134.43561"/>
    <linearGradient inkscape:collect="always" xlink:href="#linearGradient1388" id="linearGradient1523" gradientUnits="userSpaceOnUse" x1="161.70172" y1="118.89846" x2="161.70172" y2="197.93216"/>
    <linearGradient inkscape:collect="always" xlink:href="#linearGradient1374" id="linearGradient1376-3" x1="146.80354" y1="139.47923" x2="174.4657" y2="139.47923" gradientUnits="userSpaceOnUse" gradientTransform="matrix(0.55545785,0,0,0.90673956,182.4407,119.57893)"/>
    <linearGradient inkscape:collect="always" xlink:href="#linearGradient1374" id="linearGradient1382-1" gradientUnits="userSpaceOnUse" gradientTransform="matrix(0.59987278,0,0,0.90673956,175.97628,162.51866)" x1="146.80354" y1="139.47923" x2="174.4657" y2="139.47923"/>
    <linearGradient inkscape:collect="always" xlink:href="#linearGradient7758" id="linearGradient1508-5" gradientUnits="userSpaceOnUse" gradientTransform="matrix(1.2128612,0,0,1.2128612,77.786359,78.861138)" x1="162.58794" y1="185.95032" x2="162.58794" y2="134.43561"/>
    <linearGradient inkscape:collect="always" xlink:href="#linearGradient5419" id="linearGradient5425-7" x1="10.429825" y1="43.068272" x2="38.890873" y2="13.193013" gradientUnits="userSpaceOnUse" gradientTransform="matrix(1.245067,0,0,1.245067,62.54989,59.291519)"/>
    <linearGradient gradientTransform="matrix(1.290323,0,0,1.290323,65.289452,66.015302)" inkscape:collect="always" xlink:href="#linearGradient1319" id="linearGradient1321-6" x1="168.35246" y1="125.66496" x2="168.35246" y2="190.8166" gradientUnits="userSpaceOnUse"/>
    <linearGradient gradientTransform="matrix(1.290323,0,0,1.290323,65.289452,66.015302)" inkscape:collect="always" xlink:href="#linearGradient1388" id="linearGradient1523-7" gradientUnits="userSpaceOnUse" x1="161.70172" y1="118.89846" x2="161.70172" y2="197.93216"/>
    <linearGradient inkscape:collect="always" xlink:href="#linearGradient1374" id="linearGradient1376-1" x1="146.80354" y1="139.47923" x2="174.4657" y2="139.47923" gradientUnits="userSpaceOnUse" gradientTransform="matrix(0.22218314,0,0,0.36269582,-11.720143,-37.155215)"/>
    <linearGradient inkscape:collect="always" xlink:href="#linearGradient1374" id="linearGradient1382-0" gradientUnits="userSpaceOnUse" gradientTransform="matrix(0.23994911,0,0,0.36269582,-14.30591,-19.979323)" x1="146.80354" y1="139.47923" x2="174.4657" y2="139.47923"/>
    <linearGradient inkscape:collect="always" xlink:href="#linearGradient7758" id="linearGradient1508-6" gradientUnits="userSpaceOnUse" gradientTransform="matrix(0.48514449,0,0,0.48514449,-53.581882,-53.442336)" x1="162.58794" y1="185.95032" x2="162.58794" y2="134.43561"/>
    <linearGradient inkscape:collect="always" xlink:href="#linearGradient5419" id="linearGradient5425-2" x1="10.429825" y1="43.068272" x2="38.890873" y2="13.193013" gradientUnits="userSpaceOnUse" gradientTransform="matrix(0.49802679,0,0,0.49802679,-59.67647,-61.270184)"/>
    <linearGradient gradientTransform="matrix(0.5161292,0,0,0.5161292,-58.580645,-58.580671)" inkscape:collect="always" xlink:href="#linearGradient1319" id="linearGradient1321-4" x1="168.35246" y1="125.66496" x2="168.35246" y2="190.8166" gradientUnits="userSpaceOnUse"/>
    <linearGradient gradientTransform="matrix(0.5161292,0,0,0.5161292,-58.580645,-58.580671)" inkscape:collect="always" xlink:href="#linearGradient1388" id="linearGradient1523-0" gradientUnits="userSpaceOnUse" x1="161.70172" y1="118.89846" x2="161.70172" y2="197.93216"/>
    <linearGradient inkscape:collect="always" xlink:href="#linearGradient1374" id="linearGradient1376-9" x1="146.80354" y1="139.47923" x2="174.4657" y2="139.47923" gradientUnits="userSpaceOnUse" gradientTransform="matrix(0.14812209,0,0,0.24179721,-39.813426,-56.770143)"/>
    <linearGradient inkscape:collect="always" xlink:href="#linearGradient1374" id="linearGradient1382-11" gradientUnits="userSpaceOnUse" gradientTransform="matrix(0.15996607,0,0,0.24179721,-41.537271,-45.319548)" x1="146.80354" y1="139.47923" x2="174.4657" y2="139.47923"/>
    <linearGradient inkscape:collect="always" xlink:href="#linearGradient7758" id="linearGradient1508-59" gradientUnits="userSpaceOnUse" gradientTransform="matrix(0.32342966,0,0,0.32342966,-67.721252,-67.628221)" x1="162.58794" y1="185.95032" x2="162.58794" y2="134.43561"/>
    <linearGradient inkscape:collect="always" xlink:href="#linearGradient5419" id="linearGradient5425-6" x1="10.429825" y1="43.068272" x2="38.890873" y2="13.193013" gradientUnits="userSpaceOnUse" gradientTransform="matrix(0.33201786,0,0,0.33201786,-71.78431,-72.846786)"/>
    <linearGradient gradientTransform="matrix(0.34408613,0,0,0.34408613,-71.05376,-71.053778)" inkscape:collect="always" xlink:href="#linearGradient1319" id="linearGradient1321-65" x1="168.35246" y1="125.66496" x2="168.35246" y2="190.8166" gradientUnits="userSpaceOnUse"/>
    <linearGradient gradientTransform="matrix(0.34408613,0,0,0.34408613,-71.05376,-71.053778)" inkscape:collect="always" xlink:href="#linearGradient1388" id="linearGradient1523-9" gradientUnits="userSpaceOnUse" x1="161.70172" y1="118.89846" x2="161.70172" y2="197.93216"/>
    <linearGradient inkscape:collect="always" xlink:href="#linearGradient7758" id="linearGradient1508-1" gradientUnits="userSpaceOnUse" gradientTransform="matrix(0.24257225,0,0,0.24257225,-82.790939,-82.721173)" x1="162.58794" y1="185.95032" x2="162.58794" y2="134.43561"/>
    <linearGradient inkscape:collect="always" xlink:href="#linearGradient5419" id="linearGradient5425-0" x1="10.429825" y1="43.068272" x2="38.890873" y2="13.193013" gradientUnits="userSpaceOnUse" gradientTransform="matrix(0.2490134,0,0,0.2490134,-85.838233,-86.635097)"/>
    <linearGradient gradientTransform="matrix(0.2580646,0,0,0.2580646,-85.290321,-85.290341)" inkscape:collect="always" xlink:href="#linearGradient1319" id="linearGradient1321-44" x1="168.35246" y1="125.66496" x2="168.35246" y2="190.8166" gradientUnits="userSpaceOnUse"/>
    <linearGradient gradientTransform="matrix(0.2580646,0,0,0.2580646,-85.290321,-85.290341)" inkscape:collect="always" xlink:href="#linearGradient1388" id="linearGradient1523-3" gradientUnits="userSpaceOnUse" x1="161.70172" y1="118.89846" x2="161.70172" y2="197.93216"/>
    <linearGradient inkscape:collect="always" xlink:href="#linearGradient7758" id="linearGradient1508-64" gradientUnits="userSpaceOnUse" gradientTransform="matrix(0.16171483,0,0,0.16171483,-89.8606,-89.814148)" x1="162.58794" y1="185.95032" x2="162.58794" y2="134.43561"/>
    <linearGradient inkscape:collect="always" xlink:href="#linearGradient5419" id="linearGradient5425-3" x1="10.429825" y1="43.068272" x2="38.890873" y2="13.193013" gradientUnits="userSpaceOnUse" gradientTransform="matrix(0.16600893,0,0,0.16600893,-91.892129,-92.42343)"/>
    <linearGradient gradientTransform="matrix(0.17204307,0,0,0.17204307,-91.526854,-91.526926)" inkscape:collect="always" xlink:href="#linearGradient1388" id="linearGradient1523-8" gradientUnits="userSpaceOnUse" x1="161.70172" y1="118.89846" x2="161.70172" y2="197.93216"/>
  </defs>
  <sodipodi:namedview pagecolor="#383c4a" bordercolor="#ffffff" borderopacity="0.62745098" objecttolerance="4" gridtolerance="10" guidetolerance="4" inkscape:pageopacity="0" inkscape:pageshadow="2" inkscape:window-width="640" inkscape:window-height="480" id="namedview20" showgrid="true" inkscape:zoom="16.386532" inkscape:cx="170.91581" inkscape:cy="-116.3367" inkscape:current-layer="g8838" inkscape:snap-smooth-nodes="false" showguides="true" borderlayer="true" inkscape:showpageshadow="false" inkscape:guide-bbox="true" guidecolor="#bd4fff" guideopacity="0.78431373" inkscape:snap-nodes="true" inkscape:lockguides="false" fit-margin-top="0" fit-margin-left="0" fit-margin-right="0" fit-margin-bottom="0" guidehicolor="#ff0101" guidehiopacity="0.78431373" inkscape:snap-page="true" inkscape:object-nodes="true" inkscape:snap-bbox="true" inkscape:snap-global="true" inkscape:snap-object-midpoints="false" inkscape:snap-bbox-edge-midpoints="false">
    <inkscape:grid type="xygrid" id="grid4171" empspacing="4" dotted="false" originx="2.7755576e-17" originy="0" spacingx="1" spacingy="1" color="#5a5a5a" opacity="0.23529412" empcolor="#5a5a5a" empopacity="0.47058824" visible="true"/>
    <inkscape:grid type="axonomgrid" id="grid4699" units="mm" empspacing="4" color="#5a5a5a" opacity="0.23529412" empcolor="#5a5a5a" empopacity="0.47058824" gridanglex="45" gridanglez="45" spacingy="3.7795276" visible="false" originx="1.3228346" originy="1.3228346"/>
    <sodipodi:guide position="48,0" orientation="1,0" id="guide4568" inkscape:locked="false" inkscape:label="" inkscape:color="rgb(189,79,255)"/>
    <sodipodi:guide position="111.99996,-3.9999999e-05" orientation="0,1" id="guide4570" inkscape:locked="false" inkscape:label="" inkscape:color="rgb(189,79,255)"/>
    <sodipodi:guide position="0,0" orientation="1,0" id="guide4572" inkscape:locked="false" inkscape:label="" inkscape:color="rgb(189,79,255)"/>
    <sodipodi:guide position="0,48" orientation="0,1" id="guide4574" inkscape:locked="false" inkscape:label="" inkscape:color="rgb(189,79,255)"/>
    <sodipodi:guide position="0,80" orientation="0,1" id="guide4576" inkscape:locked="false" inkscape:label="" inkscape:color="rgb(189,79,255)"/>
    <sodipodi:guide position="-32,48" orientation="1,0" id="guide4578" inkscape:locked="false" inkscape:label="" inkscape:color="rgb(189,79,255)"/>
    <sodipodi:guide position="-32,104" orientation="0,1" id="guide4580" inkscape:locked="false" inkscape:label="" inkscape:color="rgb(189,79,255)"/>
    <sodipodi:guide position="-56,80" orientation="1,0" id="guide4582" inkscape:locked="false" inkscape:label="" inkscape:color="rgb(189,79,255)"/>
    <sodipodi:guide position="48,-64" orientation="0,1" id="guide4584" inkscape:locked="false" inkscape:label="" inkscape:color="rgb(189,79,255)"/>
    <sodipodi:guide position="0,0" orientation="-0.70710678,0.70710678" id="guide4588" inkscape:locked="false" inkscape:label="" inkscape:color="rgb(189,79,255)"/>
    <sodipodi:guide position="-56,80" orientation="-0.70710678,0.70710678" id="guide4573" inkscape:locked="false" inkscape:label="" inkscape:color="rgb(189,79,255)"/>
    <sodipodi:guide position="-32,48" orientation="-0.70710678,0.70710678" id="guide4575" inkscape:locked="false" inkscape:label="" inkscape:color="rgb(189,79,255)"/>
    <sodipodi:guide position="48,-64" orientation="-0.70710678,0.70710678" id="guide4577" inkscape:locked="false" inkscape:label="" inkscape:color="rgb(189,79,255)"/>
    <sodipodi:guide position="47.999962,0" orientation="0.70710678,0.70710678" id="guide4697" inkscape:locked="false" inkscape:label="" inkscape:color="rgb(189,79,255)"/>
    <sodipodi:guide position="207.99995,-288" orientation="0,1" id="guide7833" inkscape:locked="false"/>
    <sodipodi:guide position="335.99994,-288" orientation="1,0" id="guide7835" inkscape:locked="false" inkscape:label="" inkscape:color="rgb(189,79,255)"/>
    <sodipodi:guide position="111.99996,-64" orientation="1,0" id="guide7915" inkscape:locked="false"/>
    <sodipodi:guide position="111.99996,-160" orientation="0,1" id="guide7917" inkscape:locked="false"/>
    <sodipodi:guide position="207.99996,-160" orientation="1,0" id="guide7919" inkscape:locked="false"/>
    <sodipodi:guide position="111.99996,-160" orientation="-0.70710678,0.70710678" id="guide7921" inkscape:locked="false" inkscape:label="" inkscape:color="rgb(189,79,255)"/>
    <sodipodi:guide position="207.99996,-288" orientation="-0.70710678,0.70710678" id="guide7923" inkscape:locked="false" inkscape:label="" inkscape:color="rgb(189,79,255)"/>
    <sodipodi:guide position="-72,104" orientation="1,0" id="guide7824" inkscape:locked="false"/>
    <sodipodi:guide position="-56,120" orientation="0,1" id="guide7826" inkscape:locked="false"/>
    <sodipodi:guide position="-72,104" orientation="-0.70710678,0.70710678" id="guide7828" inkscape:locked="false" inkscape:label="" inkscape:color="rgb(189,79,255)"/>
  </sodipodi:namedview>
  <g inkscape:groupmode="layer" id="layer2" inkscape:label="icon_24" style="display:inline" transform="translate(56,56)">
    <g inkscape:groupmode="layer" id="layer7" inkscape:label="frame" style="display:none">
      <rect style="color:#000000;clip-rule:nonzero;display:block;overflow:visible;visibility:visible;opacity:1;isolation:auto;mix-blend-mode:normal;color-interpolation:sRGB;color-interpolation-filters:linearRGB;solid-color:#000000;solid-opacity:1;vector-effect:none;fill:#000000;fill-opacity:0.99481865;fill-rule:nonzero;stroke:#ff24f7;stroke-width:0;stroke-linecap:square;stroke-linejoin:miter;stroke-miterlimit:4;stroke-dasharray:none;stroke-dashoffset:0;stroke-opacity:0.99481865;marker:none;marker-start:none;marker-mid:none;marker-end:none;paint-order:normal;color-rendering:auto;image-rendering:auto;shape-rendering:auto;text-rendering:auto;enable-background:accumulate" id="frame_24" width="24" height="24" x="-56" y="-56" inkscape:label="frame_24"/>
      <text id="txt_24" y="-40.041668" x="-50.880211" style="font-size:10.66666698px;line-height:1000%;font-family:sans-serif;letter-spacing:0px;word-spacing:0px;display:inline;opacity:1;fill:#ffffff;fill-opacity:1;stroke:none;stroke-width:0.11166908px;stroke-linecap:butt;stroke-linejoin:miter;stroke-opacity:1" xml:space="preserve" inkscape:label="txt_24">
        <tspan id="tspan4835-2-5" style="font-size:10.66666698px;fill:#ffffff;fill-opacity:1;stroke:none;stroke-width:0.11166908px" y="-40.041668" x="-50.880211" sodipodi:role="line">24</tspan>
      </text>
    </g>
    <g inkscape:groupmode="layer" id="layer8" inkscape:label="icon" style="display:inline">
      <path inkscape:label="base sombra" sodipodi:nodetypes="cccccccccccssccccccccccsscccccsccccssccccccccccscccscsc" inkscape:connector-curvature="0" id="path1242-5" d="m -45.4241,-55.612908 c -0.197114,0 -0.307205,0.15591 -0.356284,0.336372 l -0.756343,2.782527 c -0.5164,0.184245 -1.194769,0.441641 -1.652052,0.680958 l -2.503906,-1.441023 c -0.162074,-0.0933 -0.35026,-0.12544 -0.489638,0.01394 l -2.036166,2.036142 c -0.139376,0.139368 -0.106836,0.325324 -0.01391,0.487636 l 1.407203,2.460094 c -0.303089,0.543513 -0.548576,1.117193 -0.732465,1.711712 l -2.718865,0.732454 c -0.180583,0.04861 -0.336377,0.159172 -0.336377,0.356274 v 2.880063 c 0,0.197099 0.15591,0.305202 0.336377,0.354284 l 2.659157,0.72449 c 0.178268,0.626731 0.42455,1.232083 0.734452,1.80526 l -1.371379,2.384458 c -0.09331,0.162067 -0.125442,0.350253 0.01394,0.489628 l 2.036163,2.036143 c 0.139373,0.139378 0.325334,0.106841 0.487644,0.01391 l 2.352638,-1.347471 c 0.584279,0.324971 1.203183,0.583342 1.84509,0.770271 l 0.706583,2.621322 c 0.04862,0.180584 0.159169,0.336367 0.356277,0.336367 h 2.880091 c 0.197107,0 0.30521,-0.155907 0.354289,-0.336367 l 0.714547,-2.623298 c 0.633526,-0.187327 1.244328,-0.444331 1.821203,-0.766292 l 2.378515,1.367376 c 0.162075,0.09331 0.350261,0.125442 0.489639,-0.01394 l 2.036166,-2.036142 c 0.139375,-0.139371 0.106836,-0.327322 0.01394,-0.489632 l -1.379345,-2.406349 c 0.299709,-0.561432 0.538586,-1.153272 0.712563,-1.765453 l 2.710901,-0.732449 c 0.180584,-0.04862 0.336372,-0.157182 0.336372,-0.354292 v -2.880055 c 0,-0.197108 -0.15591,-0.307195 -0.336372,-0.356277 l -2.756682,-0.748379 c -0.177151,-0.57832 -0.412563,-1.137159 -0.702606,-1.667923 l 1.437058,-2.495921 c 0.0933,-0.16207 0.125448,-0.350256 -0.01391,-0.489629 l -2.036163,-2.036142 c -0.139378,-0.139381 -0.327321,-0.106842 -0.489634,-0.01396 l -2.501915,1.433067 c -0.551595,-0.226455 -1.128888,-0.506011 -1.644047,-0.672826 l -0.758333,-2.804422 c -0.04862,-0.180583 -0.157188,-0.336374 -0.354295,-0.336374 h -2.880114 z m 1.42582,7.376449 c 2.346125,0 4.248025,1.901889 4.248025,4.24798 -3e-6,2.346089 -1.901905,4.247976 -4.248025,4.247976 -2.346117,0 -4.248019,-1.901887 -4.248019,-4.247976 0,-2.346091 1.9019,-4.24798 4.248019,-4.24798 z" style="color:#000000;clip-rule:nonzero;display:inline;overflow:visible;visibility:visible;opacity:1;isolation:auto;mix-blend-mode:normal;color-interpolation:sRGB;color-interpolation-filters:linearRGB;solid-color:#000000;solid-opacity:1;vector-effect:none;fill:none;fill-opacity:1;fill-rule:nonzero;stroke:#000000;stroke-width:0.77419382;stroke-linecap:butt;stroke-linejoin:miter;stroke-miterlimit:4;stroke-dasharray:none;stroke-dashoffset:0;stroke-opacity:0.16753929;marker:none;marker-start:none;marker-mid:none;marker-end:none;paint-order:fill markers stroke;color-rendering:auto;image-rendering:auto;shape-rendering:auto;text-rendering:auto;enable-background:accumulate"/>
      <path style="color:#000000;clip-rule:nonzero;display:inline;overflow:visible;visibility:visible;opacity:1;isolation:auto;mix-blend-mode:normal;color-interpolation:sRGB;color-interpolation-filters:linearRGB;solid-color:#000000;solid-opacity:1;vector-effect:none;fill:url(#linearGradient1523-3);fill-opacity:1;fill-rule:nonzero;stroke:none;stroke-width:0.48320392;stroke-linecap:butt;stroke-linejoin:miter;stroke-miterlimit:4;stroke-dasharray:none;stroke-dashoffset:0;stroke-opacity:0.14136125;marker:none;marker-start:none;marker-mid:none;marker-end:none;paint-order:fill markers stroke;color-rendering:auto;image-rendering:auto;shape-rendering:auto;text-rendering:auto;enable-background:accumulate" d="m -45.4241,-55.612908 c -0.197114,0 -0.307205,0.15591 -0.356284,0.336372 l -0.756343,2.782527 c -0.5164,0.184245 -1.194769,0.441641 -1.652052,0.680958 l -2.503906,-1.441023 c -0.162074,-0.0933 -0.35026,-0.12544 -0.489638,0.01394 l -2.036166,2.036142 c -0.139376,0.139368 -0.106836,0.325324 -0.01391,0.487636 l 1.407203,2.460094 c -0.303089,0.543513 -0.548576,1.117193 -0.732465,1.711712 l -2.718865,0.732454 c -0.180583,0.04861 -0.336377,0.159172 -0.336377,0.356274 v 2.880063 c 0,0.197099 0.15591,0.305202 0.336377,0.354284 l 2.659157,0.72449 c 0.178268,0.626731 0.42455,1.232083 0.734452,1.80526 l -1.371379,2.384458 c -0.09331,0.162067 -0.125442,0.350253 0.01394,0.489628 l 2.036163,2.036143 c 0.139373,0.139378 0.325334,0.106841 0.487644,0.01391 l 2.352638,-1.347471 c 0.584279,0.324971 1.203183,0.583342 1.84509,0.770271 l 0.706583,2.621322 c 0.04862,0.180584 0.159169,0.336367 0.356277,0.336367 h 2.880091 c 0.197107,0 0.30521,-0.155907 0.354289,-0.336367 l 0.714547,-2.623298 c 0.633526,-0.187327 1.244328,-0.444331 1.821203,-0.766292 l 2.378515,1.367376 c 0.162075,0.09331 0.350261,0.125442 0.489639,-0.01394 l 2.036166,-2.036142 c 0.139375,-0.139371 0.106836,-0.327322 0.01394,-0.489632 l -1.379345,-2.406349 c 0.299709,-0.561432 0.538586,-1.153272 0.712563,-1.765453 l 2.710901,-0.732449 c 0.180584,-0.04862 0.336372,-0.157182 0.336372,-0.354292 v -2.880055 c 0,-0.197108 -0.15591,-0.307195 -0.336372,-0.356277 l -2.756682,-0.748379 c -0.177151,-0.57832 -0.412563,-1.137159 -0.702606,-1.667923 l 1.437058,-2.495921 c 0.0933,-0.16207 0.125448,-0.350256 -0.01391,-0.489629 l -2.036163,-2.036142 c -0.139378,-0.139381 -0.327321,-0.106842 -0.489634,-0.01396 l -2.501915,1.433067 c -0.551595,-0.226455 -1.128888,-0.506011 -1.644047,-0.672826 l -0.758333,-2.804422 c -0.04862,-0.180583 -0.157188,-0.336374 -0.354295,-0.336374 h -2.880114 z m 1.42582,7.376449 c 2.346125,0 4.248025,1.901889 4.248025,4.24798 -3e-6,2.346089 -1.901905,4.247976 -4.248025,4.247976 -2.346117,0 -4.248019,-1.901887 -4.248019,-4.247976 0,-2.346091 1.9019,-4.24798 4.248019,-4.24798 z" id="path44247-9" inkscape:connector-curvature="0" sodipodi:nodetypes="cccccccccccssccccccccccsscccccsccccssccccccccccscccscsc" inkscape:label="base"/>
      <path style="color:#000000;font-style:normal;font-variant:normal;font-weight:normal;font-stretch:normal;font-size:medium;line-height:normal;font-family:sans-serif;text-indent:0;text-align:start;text-decoration:none;text-decoration-line:none;text-decoration-style:solid;text-decoration-color:#000000;letter-spacing:normal;word-spacing:normal;text-transform:none;writing-mode:lr-tb;direction:ltr;baseline-shift:baseline;text-anchor:start;white-space:normal;clip-rule:nonzero;display:inline;overflow:visible;visibility:visible;opacity:1;isolation:auto;mix-blend-mode:normal;color-interpolation:sRGB;color-interpolation-filters:linearRGB;solid-color:#000000;solid-opacity:1;vector-effect:none;fill:#000000;fill-opacity:0.17277485;fill-rule:nonzero;stroke:none;stroke-width:0.85011154;stroke-linecap:butt;stroke-linejoin:miter;stroke-miterlimit:4;stroke-dasharray:none;stroke-dashoffset:0;stroke-opacity:0.14136125;marker:none;marker-start:none;marker-mid:none;marker-end:none;paint-order:fill markers stroke;color-rendering:auto;image-rendering:auto;shape-rendering:auto;text-rendering:auto;enable-background:accumulate" d="m -43.998398,-53.164492 c -5.042763,0 -9.166089,4.120133 -9.166089,9.162886 0,5.042763 4.123326,9.16609 9.166089,9.16609 5.042755,0 9.162895,-4.123327 9.162895,-9.16609 0,-5.042753 -4.12014,-9.162886 -9.162895,-9.162886 z m 2.52e-4,1.944125 c 4.012345,0 7.218403,3.206068 7.218403,7.218402 0,4.012352 -3.206058,7.222325 -7.218403,7.222325 -4.012334,0 -7.22233,-3.209973 -7.22233,-7.222325 0,-4.012334 3.209996,-7.218402 7.22233,-7.218402 z" id="path1313-6" inkscape:connector-curvature="0" sodipodi:nodetypes="ssssssssss" inkscape:label="r"/>
      <path inkscape:label="r" sodipodi:nodetypes="ssssssssss" inkscape:connector-curvature="0" id="path1309-2" d="m -43.998448,-52.88708 c -4.890115,0 -8.888627,3.995415 -8.888627,8.885523 0,4.890115 3.998512,8.88863 8.888627,8.88863 4.89011,0 8.885534,-3.998515 8.885534,-8.88863 0,-4.890108 -3.995424,-8.885523 -8.885534,-8.885523 z m 2.56e-4,1.885278 c 3.890886,0 6.999896,3.109018 6.999896,6.999894 0,3.890899 -3.10901,7.003703 -6.999896,7.003703 -3.890881,0 -7.003706,-3.112804 -7.003706,-7.003703 0,-3.890876 3.112825,-6.999894 7.003706,-6.999894 z" style="color:#000000;font-style:normal;font-variant:normal;font-weight:normal;font-stretch:normal;font-size:medium;line-height:normal;font-family:sans-serif;text-indent:0;text-align:start;text-decoration:none;text-decoration-line:none;text-decoration-style:solid;text-decoration-color:#000000;letter-spacing:normal;word-spacing:normal;text-transform:none;writing-mode:lr-tb;direction:ltr;baseline-shift:baseline;text-anchor:start;white-space:normal;clip-rule:nonzero;display:inline;overflow:visible;visibility:visible;opacity:1;isolation:auto;mix-blend-mode:normal;color-interpolation:sRGB;color-interpolation-filters:linearRGB;solid-color:#000000;solid-opacity:1;vector-effect:none;fill:url(#linearGradient1321-44);fill-opacity:1;fill-rule:nonzero;stroke:none;stroke-width:0.82437813;stroke-linecap:butt;stroke-linejoin:miter;stroke-miterlimit:4;stroke-dasharray:none;stroke-dashoffset:0;stroke-opacity:0.14136125;marker:none;marker-start:none;marker-mid:none;marker-end:none;paint-order:fill markers stroke;color-rendering:auto;image-rendering:auto;shape-rendering:auto;text-rendering:auto;enable-background:accumulate"/>
      <path inkscape:label="azul" sodipodi:nodetypes="ssssssssss" inkscape:connector-curvature="0" id="path1323-1" d="m -43.998775,-51.004122 c -3.854017,0 -7.005342,3.148883 -7.005342,7.002892 0,3.85402 3.151325,7.005345 7.005342,7.005345 3.854011,0 7.002903,-3.151325 7.002903,-7.005345 0,-3.854009 -3.148892,-7.002892 -7.002903,-7.002892 z m 5.16e-4,1.767412 c 2.917221,0 5.248226,2.331007 5.248226,5.248224 0,2.917232 -2.331005,5.25108 -5.248226,5.25108 -2.917219,0 -5.251081,-2.333848 -5.251081,-5.25108 0,-2.917217 2.333862,-5.248224 5.251081,-5.248224 z" style="color:#000000;font-style:normal;font-variant:normal;font-weight:normal;font-stretch:normal;font-size:medium;line-height:normal;font-family:sans-serif;text-indent:0;text-align:start;text-decoration:none;text-decoration-line:none;text-decoration-style:solid;text-decoration-color:#000000;letter-spacing:normal;word-spacing:normal;text-transform:none;writing-mode:lr-tb;direction:ltr;baseline-shift:baseline;text-anchor:start;white-space:normal;clip-rule:nonzero;display:inline;overflow:visible;visibility:visible;opacity:1;isolation:auto;mix-blend-mode:normal;color-interpolation:sRGB;color-interpolation-filters:linearRGB;solid-color:#000000;solid-opacity:1;vector-effect:none;fill:url(#linearGradient5425-0);fill-opacity:1;fill-rule:nonzero;stroke:none;stroke-width:0.5161292;stroke-linecap:butt;stroke-linejoin:miter;stroke-miterlimit:4;stroke-dasharray:none;stroke-dashoffset:0;stroke-opacity:1;marker:none;marker-start:none;marker-mid:none;marker-end:none;paint-order:fill markers stroke;color-rendering:auto;image-rendering:auto;shape-rendering:auto;text-rendering:auto;enable-background:accumulate"/>
      <path style="color:#000000;font-style:normal;font-variant:normal;font-weight:normal;font-stretch:normal;font-size:medium;line-height:normal;font-family:sans-serif;text-indent:0;text-align:start;text-decoration:none;text-decoration-line:none;text-decoration-style:solid;text-decoration-color:#000000;letter-spacing:normal;word-spacing:normal;text-transform:none;writing-mode:lr-tb;direction:ltr;baseline-shift:baseline;text-anchor:start;white-space:normal;clip-rule:nonzero;display:inline;overflow:visible;visibility:visible;opacity:1;isolation:auto;mix-blend-mode:normal;color-interpolation:sRGB;color-interpolation-filters:linearRGB;solid-color:#000000;solid-opacity:1;vector-effect:none;fill:url(#linearGradient1508-1);fill-opacity:1;fill-rule:nonzero;stroke:none;stroke-width:0.6497122;stroke-linecap:butt;stroke-linejoin:miter;stroke-miterlimit:4;stroke-dasharray:none;stroke-dashoffset:0;stroke-opacity:0.14136125;marker:none;marker-start:none;marker-mid:none;marker-end:none;paint-order:fill markers stroke;color-rendering:auto;image-rendering:auto;shape-rendering:auto;text-rendering:auto;enable-background:accumulate" d="m -43.998775,-51.004122 c -3.854017,0 -7.005342,3.148883 -7.005342,7.002892 0,3.85402 3.151325,7.005345 7.005342,7.005345 3.854011,0 7.002903,-3.151325 7.002903,-7.005345 0,-3.854009 -3.148892,-7.002892 -7.002903,-7.002892 z m 5.16e-4,1.767412 c 2.917221,0 5.248226,2.331007 5.248226,5.248224 0,2.917232 -2.331005,5.25108 -5.248226,5.25108 -2.917219,0 -5.251081,-2.333848 -5.251081,-5.25108 0,-2.917217 2.333862,-5.248224 5.251081,-5.248224 z" id="path44309-7" inkscape:connector-curvature="0" sodipodi:nodetypes="ssssssssss" inkscape:label="rojo"/>
      <path style="color:#000000;font-style:normal;font-variant:normal;font-weight:normal;font-stretch:normal;font-size:medium;line-height:normal;font-family:sans-serif;text-indent:0;text-align:start;text-decoration:none;text-decoration-line:none;text-decoration-style:solid;text-decoration-color:#000000;letter-spacing:normal;word-spacing:normal;text-transform:none;writing-mode:lr-tb;direction:ltr;baseline-shift:baseline;text-anchor:start;white-space:normal;clip-rule:nonzero;display:inline;overflow:visible;visibility:visible;opacity:1;isolation:auto;mix-blend-mode:normal;color-interpolation:sRGB;color-interpolation-filters:linearRGB;solid-color:#000000;solid-opacity:1;vector-effect:none;fill:#000000;fill-opacity:0.2827225;fill-rule:nonzero;stroke:none;stroke-width:0.6497122;stroke-linecap:butt;stroke-linejoin:miter;stroke-miterlimit:4;stroke-dasharray:none;stroke-dashoffset:0;stroke-opacity:0.14136125;marker:none;marker-start:none;marker-mid:none;marker-end:none;paint-order:fill markers stroke;color-rendering:auto;image-rendering:auto;shape-rendering:auto;text-rendering:auto;enable-background:accumulate" d="m -43.998977,-51.004037 c -3.854016,0 -7.005042,3.149015 -7.005042,7.003024 0,0.0433 0.0023,0.08591 0.003,0.129032 0.06961,-3.794819 3.191242,-6.873991 7.00202,-6.873991 3.81077,0 6.930438,3.079172 7.000002,6.873991 7.74e-4,-0.04312 0.003,-0.08573 0.003,-0.129032 0,-3.854009 -3.149012,-7.003024 -7.003024,-7.003024 z" id="path1212-8" inkscape:connector-curvature="0" sodipodi:nodetypes="cscscscc" inkscape:label="rojo sombra sup"/>
      <path style="color:#000000;clip-rule:nonzero;display:inline;overflow:visible;visibility:visible;opacity:1;isolation:auto;mix-blend-mode:normal;color-interpolation:sRGB;color-interpolation-filters:linearRGB;solid-color:#000000;solid-opacity:1;vector-effect:none;fill:#ffffff;fill-opacity:0.67539266;fill-rule:nonzero;stroke:none;stroke-width:0.48320392;stroke-linecap:butt;stroke-linejoin:miter;stroke-miterlimit:4;stroke-dasharray:none;stroke-dashoffset:0;stroke-opacity:0.14136125;marker:none;marker-start:none;marker-mid:none;marker-end:none;paint-order:fill markers stroke;color-rendering:auto;image-rendering:auto;shape-rendering:auto;text-rendering:auto;enable-background:accumulate" d="m -45.423878,-55.612911 c -0.197115,0 -0.307272,0.155727 -0.356351,0.336189 l -0.756552,2.782764 c -0.5164,0.184246 -1.194935,0.441632 -1.652218,0.680948 l -2.503528,-1.44103 c -0.162075,-0.0933 -0.350542,-0.125262 -0.48992,0.01412 l -2.036293,2.035786 c -0.104531,0.104527 -0.111881,0.235595 -0.07006,0.362904 0.01523,-0.0368 0.03746,-0.07223 0.07006,-0.104839 l 2.036293,-2.035787 c 0.139378,-0.139375 0.327845,-0.107414 0.48992,-0.01412 l 2.503528,1.44103 c 0.457283,-0.239316 1.135818,-0.496702 1.652218,-0.680947 l 0.756552,-2.782765 c 0.04908,-0.180462 0.159236,-0.336188 0.356351,-0.336188 h 2.880043 c 0.197107,0 0.305718,0.156111 0.354333,0.336694 l 0.758064,2.804437 c 0.515162,0.166816 1.092561,0.445923 1.644156,0.672377 l 2.502016,-1.432963 c 0.162312,-0.09288 0.350039,-0.125267 0.489417,0.01412 l 2.03629,2.03629 c 0.03285,0.03285 0.05533,0.06855 0.07057,0.105848 0.04169,-0.127683 0.03382,-0.259515 -0.07057,-0.363913 l -2.03629,-2.036289 c -0.139378,-0.139381 -0.327105,-0.106994 -0.489417,-0.01412 l -2.502016,1.432963 c -0.551595,-0.226455 -1.128994,-0.505562 -1.644156,-0.672377 l -0.758064,-2.804437 c -0.04861,-0.180584 -0.157226,-0.336695 -0.354333,-0.336695 z m -6.471775,7.491435 c -0.269747,0.503685 -0.49289,1.031038 -0.661796,1.577115 l -2.719255,0.732362 c -0.180583,0.04861 -0.336189,0.159249 -0.336189,0.356351 v 0.258064 c 0,-0.197102 0.155606,-0.307736 0.336189,-0.356351 l 2.719255,-0.732361 c 0.183889,-0.594519 0.42927,-1.168181 0.732359,-1.711694 z m 15.782767,0.06099 -0.07006,0.121977 c 0.290044,0.530764 0.525469,1.089522 0.70262,1.667843 l 2.757059,0.748488 c 0.180462,0.04908 0.336188,0.159244 0.336188,0.356351 v -0.258065 c 0,-0.197107 -0.155726,-0.30727 -0.336188,-0.356351 l -2.757059,-0.748488 c -0.162204,-0.529528 -0.37545,-1.041489 -0.63256,-1.531755 z m -15.839724,8.489419 -1.301915,2.263609 c -0.07131,0.123866 -0.105861,0.263146 -0.05645,0.384075 0.01396,-0.04278 0.03304,-0.08534 0.05645,-0.126011 l 1.371471,-2.384073 c -0.02446,-0.04523 -0.04589,-0.09197 -0.06956,-0.1376 z m 15.874503,0 c -0.02338,0.04565 -0.04489,0.09234 -0.06905,0.1376 l 1.379536,2.406251 c 0.02323,0.04058 0.04251,0.08288 0.05645,0.125505 0.04933,-0.120875 0.01456,-0.259512 -0.05645,-0.383569 z" id="path1201-57" inkscape:connector-curvature="0" sodipodi:nodetypes="scccccccccccccsscccccccccccccsscccsccccccccccsccccccccccccccc" inkscape:label="brillo superior"/>
      <path style="color:#000000;font-style:normal;font-variant:normal;font-weight:normal;font-stretch:normal;font-size:medium;line-height:normal;font-family:sans-serif;text-indent:0;text-align:start;text-decoration:none;text-decoration-line:none;text-decoration-style:solid;text-decoration-color:#000000;letter-spacing:normal;word-spacing:normal;text-transform:none;writing-mode:lr-tb;direction:ltr;baseline-shift:baseline;text-anchor:start;white-space:normal;clip-rule:nonzero;display:inline;overflow:visible;visibility:visible;opacity:1;isolation:auto;mix-blend-mode:normal;color-interpolation:sRGB;color-interpolation-filters:linearRGB;solid-color:#000000;solid-opacity:1;vector-effect:none;fill:#000000;fill-opacity:0.16753929;fill-rule:nonzero;stroke:none;stroke-width:0.52685869;stroke-linecap:butt;stroke-linejoin:miter;stroke-miterlimit:4;stroke-dasharray:none;stroke-dashoffset:0;stroke-opacity:0.14136125;marker:none;marker-start:none;marker-mid:none;marker-end:none;paint-order:fill markers stroke;color-rendering:auto;image-rendering:auto;shape-rendering:auto;text-rendering:auto;enable-background:accumulate" d="m -43.998667,-48.899278 c -2.973126,0 -5.404169,2.42916 -5.404169,5.402278 0,2.973126 2.431043,5.40417 5.404169,5.40417 2.973121,0 5.402286,-2.431044 5.402286,-5.40417 0,-2.973118 -2.429165,-5.402278 -5.402286,-5.402278 z m -5.16e-4,2.220822 c 1.775224,0 3.193715,1.418493 3.193715,3.193712 0,1.775231 -1.418491,3.195451 -3.193715,3.195451 -1.775221,0 -3.195451,-1.42022 -3.195451,-3.195451 0,-1.775219 1.42023,-3.193712 3.195451,-3.193712 z" id="path1210-4" inkscape:connector-curvature="0" sodipodi:nodetypes="ssssssssss" inkscape:label="sombra"/>
      <path sodipodi:nodetypes="ssssssssss" inkscape:connector-curvature="0" id="path1206-1" d="m -43.983684,-49.375298 c -2.973126,0 -5.404169,2.429159 -5.404169,5.402277 0,2.973127 2.431043,5.40417 5.404169,5.40417 2.973121,0 5.402286,-2.431043 5.402286,-5.40417 0,-2.973118 -2.429165,-5.402277 -5.402286,-5.402277 z m 2.58e-4,2.196462 c 1.775224,0 3.193715,1.418494 3.193715,3.193712 0,1.775232 -1.418491,3.195452 -3.193715,3.195452 -1.775221,0 -3.195451,-1.42022 -3.195451,-3.195452 0,-1.775218 1.42023,-3.193712 3.195451,-3.193712 z" style="color:#000000;font-style:normal;font-variant:normal;font-weight:normal;font-stretch:normal;font-size:medium;line-height:normal;font-family:sans-serif;text-indent:0;text-align:start;text-decoration:none;text-decoration-line:none;text-decoration-style:solid;text-decoration-color:#000000;letter-spacing:normal;word-spacing:normal;text-transform:none;writing-mode:lr-tb;direction:ltr;baseline-shift:baseline;text-anchor:start;white-space:normal;clip-rule:nonzero;display:inline;overflow:visible;visibility:visible;opacity:1;isolation:auto;mix-blend-mode:normal;color-interpolation:sRGB;color-interpolation-filters:linearRGB;solid-color:#000000;solid-opacity:1;vector-effect:none;fill:#b1c7d0;fill-opacity:1;fill-rule:nonzero;stroke:none;stroke-width:0.52685869;stroke-linecap:butt;stroke-linejoin:miter;stroke-miterlimit:4;stroke-dasharray:none;stroke-dashoffset:0;stroke-opacity:0.14136125;marker:none;marker-start:none;marker-mid:none;marker-end:none;paint-order:fill markers stroke;color-rendering:auto;image-rendering:auto;shape-rendering:auto;text-rendering:auto;enable-background:accumulate" inkscape:label="aro interior"/>
    </g>
  </g>
</svg>