<?xml version="1.0" encoding="UTF-8" standalone="yes"?>
<svg xmlns:dc="http://purl.org/dc/elements/1.1/" xmlns:cc="http://creativecommons.org/ns#" xmlns:rdf="http://www.w3.org/1999/02/22-rdf-syntax-ns#" xmlns:svg="http://www.w3.org/2000/svg" xmlns="http://www.w3.org/2000/svg" xmlns:xlink="http://www.w3.org/1999/xlink" xmlns:sodipodi="http://sodipodi.sourceforge.net/DTD/sodipodi-0.dtd" xmlns:inkscape="http://www.inkscape.org/namespaces/inkscape" height="128" viewBox="0 0 128 128" width="128" id="svg2" version="1.1" inkscape:version="0.92.1 r" sodipodi:docname="atom.svg" enable-background="new" folder="128">
  <title id="title4675">Template icons dark</title>
  <metadata id="metadata24">
    <rdf:RDF>
      <cc:Work rdf:about="">
        <dc:format>image/svg+xml</dc:format>
        <dc:type rdf:resource="http://purl.org/dc/dcmitype/StillImage"/>
        <dc:title>Template icons dark</dc:title>
        <dc:date>17/05/13</dc:date>
        <dc:creator>
          <cc:Agent>
            <dc:title>wfpaisa</dc:title>
          </cc:Agent>
        </dc:creator>
        <dc:rights>
          <cc:Agent>
            <dc:title>License: GPLv3</dc:title>
          </cc:Agent>
        </dc:rights>
        <dc:language>es-en</dc:language>
        <dc:subject>
          <rdf:Bag>
            <rdf:li>plane-icon-theme</rdf:li>
          </rdf:Bag>
        </dc:subject>
        <dc:description>Template for create set icons</dc:description>
        <cc:license rdf:resource="https://www.gnu.org/licenses/gpl-3.0.en.html"/>
      </cc:Work>
    </rdf:RDF>
  </metadata>
  <defs id="defs22">
    <linearGradient inkscape:collect="always" id="linearGradient7774">
      <stop style="stop-color:#ff053c;stop-opacity:1" offset="0" id="stop7770"/>
      <stop style="stop-color:#0b31ff;stop-opacity:0.97395831" offset="1" id="stop7772"/>
    </linearGradient>
    <linearGradient inkscape:collect="always" xlink:href="#linearGradient5467" id="linearGradient5473" x1="24.53476" y1="7.9960122" x2="24.704725" y2="38.249725" gradientUnits="userSpaceOnUse" gradientTransform="matrix(2.1310889,0,0,2.1310889,108.68013,105.53144)"/>
    <linearGradient inkscape:collect="always" id="linearGradient5467">
      <stop style="stop-color:#20c686;stop-opacity:1" offset="0" id="stop5469"/>
      <stop style="stop-color:#259d68;stop-opacity:1" offset="1" id="stop5471"/>
    </linearGradient>
    <linearGradient inkscape:collect="always" xlink:href="#linearGradient7774" id="linearGradient7776" x1="122" y1="183" x2="196" y2="142" gradientUnits="userSpaceOnUse"/>
    <linearGradient gradientTransform="matrix(0.5106383,0,0,0.5106383,-57.702128,-57.702128)" inkscape:collect="always" xlink:href="#linearGradient7774" id="linearGradient7776-3" x1="122" y1="183" x2="196" y2="142" gradientUnits="userSpaceOnUse"/>
    <linearGradient inkscape:collect="always" xlink:href="#linearGradient5467" id="linearGradient5473-5" x1="24.53476" y1="7.9960122" x2="24.704725" y2="38.249725" gradientUnits="userSpaceOnUse" gradientTransform="matrix(1.0882156,0,0,1.0882156,-2.205891,-3.8137327)"/>
    <linearGradient inkscape:collect="always" xlink:href="#linearGradient5467" id="linearGradient7902" gradientUnits="userSpaceOnUse" gradientTransform="matrix(1.4056119,0,0,1.4056119,46.150729,44.073933)" x1="24.53476" y1="7.9960122" x2="24.704725" y2="38.249725"/>
    <linearGradient inkscape:collect="always" xlink:href="#linearGradient7774" id="linearGradient7904" gradientUnits="userSpaceOnUse" gradientTransform="matrix(0.65957449,0,0,0.65957449,-25.531913,-25.531913)" x1="122" y1="183" x2="196" y2="142"/>
    <linearGradient inkscape:collect="always" xlink:href="#linearGradient5467" id="linearGradient5473-7" x1="24.53476" y1="7.9960122" x2="24.704725" y2="38.249725" gradientUnits="userSpaceOnUse" gradientTransform="matrix(2.8112236,0,0,2.8112236,204.30144,200.14785)"/>
    <linearGradient gradientTransform="matrix(1.3191489,0,0,1.3191489,60.936166,60.936166)" inkscape:collect="always" xlink:href="#linearGradient7774" id="linearGradient7776-2" x1="122" y1="183" x2="196" y2="142" gradientUnits="userSpaceOnUse"/>
    <linearGradient inkscape:collect="always" xlink:href="#linearGradient5467" id="linearGradient5473-9" x1="24.53476" y1="7.9960122" x2="24.704725" y2="38.249725" gradientUnits="userSpaceOnUse" gradientTransform="matrix(0.72547707,0,0,0.72547707,-33.470593,-34.542488)"/>
    <linearGradient gradientTransform="matrix(0.34042553,0,0,0.34042553,-70.468084,-70.468084)" inkscape:collect="always" xlink:href="#linearGradient7774" id="linearGradient7776-8" x1="122" y1="183" x2="196" y2="142" gradientUnits="userSpaceOnUse"/>
    <linearGradient inkscape:collect="always" xlink:href="#linearGradient5467" id="linearGradient5473-9-1" x1="24.53476" y1="7.9960122" x2="24.704725" y2="38.249725" gradientUnits="userSpaceOnUse" gradientTransform="matrix(0.5441078,0,0,0.5441078,-57.102945,-57.906866)"/>
    <linearGradient gradientTransform="matrix(0.25531915,0,0,0.25531915,-84.851063,-84.851063)" inkscape:collect="always" xlink:href="#linearGradient7774" id="linearGradient7776-8-4" x1="122" y1="183" x2="196" y2="142" gradientUnits="userSpaceOnUse"/>
  </defs>
  <sodipodi:namedview pagecolor="#383c4a" bordercolor="#ffffff" borderopacity="0.62745098" objecttolerance="4" gridtolerance="10" guidetolerance="4" inkscape:pageopacity="0" inkscape:pageshadow="2" inkscape:window-width="640" inkscape:window-height="480" id="namedview20" showgrid="true" inkscape:zoom="16.386532" inkscape:cx="100.73209" inkscape:cy="-55.455318" inkscape:current-layer="g7905" inkscape:snap-smooth-nodes="false" showguides="true" borderlayer="true" inkscape:showpageshadow="false" inkscape:guide-bbox="true" guidecolor="#bd4fff" guideopacity="0.78431373" inkscape:snap-nodes="true" inkscape:lockguides="false" fit-margin-top="0" fit-margin-left="0" fit-margin-right="0" fit-margin-bottom="0" guidehicolor="#ff0101" guidehiopacity="0.78431373" inkscape:snap-page="true" inkscape:object-nodes="true" inkscape:snap-bbox="true" inkscape:snap-global="true" inkscape:snap-object-midpoints="false" inkscape:snap-bbox-edge-midpoints="false">
    <inkscape:grid type="xygrid" id="grid4171" empspacing="4" dotted="false" originx="2.7755576e-17" originy="0" spacingx="1" spacingy="1" color="#5a5a5a" opacity="0.23529412" empcolor="#5a5a5a" empopacity="0.47058824" visible="true"/>
    <inkscape:grid type="axonomgrid" id="grid4699" units="mm" empspacing="4" color="#5a5a5a" opacity="0.23529412" empcolor="#5a5a5a" empopacity="0.47058824" gridanglex="45" gridanglez="45" spacingy="3.7795276" visible="false" originx="1.3228346" originy="1.3228346"/>
    <sodipodi:guide position="48,0" orientation="1,0" id="guide4568" inkscape:locked="false" inkscape:label="" inkscape:color="rgb(189,79,255)"/>
    <sodipodi:guide position="111.99996,-3.9999999e-05" orientation="0,1" id="guide4570" inkscape:locked="false" inkscape:label="" inkscape:color="rgb(189,79,255)"/>
    <sodipodi:guide position="0,0" orientation="1,0" id="guide4572" inkscape:locked="false" inkscape:label="" inkscape:color="rgb(189,79,255)"/>
    <sodipodi:guide position="0,48" orientation="0,1" id="guide4574" inkscape:locked="false" inkscape:label="" inkscape:color="rgb(189,79,255)"/>
    <sodipodi:guide position="0,80" orientation="0,1" id="guide4576" inkscape:locked="false" inkscape:label="" inkscape:color="rgb(189,79,255)"/>
    <sodipodi:guide position="-32,48" orientation="1,0" id="guide4578" inkscape:locked="false" inkscape:label="" inkscape:color="rgb(189,79,255)"/>
    <sodipodi:guide position="-32,104" orientation="0,1" id="guide4580" inkscape:locked="false" inkscape:label="" inkscape:color="rgb(189,79,255)"/>
    <sodipodi:guide position="-56,80" orientation="1,0" id="guide4582" inkscape:locked="false" inkscape:label="" inkscape:color="rgb(189,79,255)"/>
    <sodipodi:guide position="48,-64" orientation="0,1" id="guide4584" inkscape:locked="false" inkscape:label="" inkscape:color="rgb(189,79,255)"/>
    <sodipodi:guide position="0,0" orientation="-0.70710678,0.70710678" id="guide4588" inkscape:locked="false" inkscape:label="" inkscape:color="rgb(189,79,255)"/>
    <sodipodi:guide position="-56,80" orientation="-0.70710678,0.70710678" id="guide4573" inkscape:locked="false" inkscape:label="" inkscape:color="rgb(189,79,255)"/>
    <sodipodi:guide position="-32,48" orientation="-0.70710678,0.70710678" id="guide4575" inkscape:locked="false" inkscape:label="" inkscape:color="rgb(189,79,255)"/>
    <sodipodi:guide position="48,-64" orientation="-0.70710678,0.70710678" id="guide4577" inkscape:locked="false" inkscape:label="" inkscape:color="rgb(189,79,255)"/>
    <sodipodi:guide position="47.999962,0" orientation="0.70710678,0.70710678" id="guide4697" inkscape:locked="false" inkscape:label="" inkscape:color="rgb(189,79,255)"/>
    <sodipodi:guide position="207.99995,-288" orientation="0,1" id="guide7833" inkscape:locked="false"/>
    <sodipodi:guide position="335.99994,-288" orientation="1,0" id="guide7835" inkscape:locked="false" inkscape:label="" inkscape:color="rgb(189,79,255)"/>
    <sodipodi:guide position="111.99996,-64" orientation="1,0" id="guide7915" inkscape:locked="false"/>
    <sodipodi:guide position="111.99996,-160" orientation="0,1" id="guide7917" inkscape:locked="false"/>
    <sodipodi:guide position="207.99996,-160" orientation="1,0" id="guide7919" inkscape:locked="false"/>
    <sodipodi:guide position="111.99996,-160" orientation="-0.70710678,0.70710678" id="guide7921" inkscape:locked="false" inkscape:label="" inkscape:color="rgb(189,79,255)"/>
    <sodipodi:guide position="207.99996,-288" orientation="-0.70710678,0.70710678" id="guide7923" inkscape:locked="false" inkscape:label="" inkscape:color="rgb(189,79,255)"/>
    <sodipodi:guide position="-72,104" orientation="1,0" id="guide7824" inkscape:locked="false"/>
    <sodipodi:guide position="-56,120" orientation="0,1" id="guide7826" inkscape:locked="false"/>
    <sodipodi:guide position="-72,104" orientation="-0.70710678,0.70710678" id="guide7828" inkscape:locked="false" inkscape:label="" inkscape:color="rgb(189,79,255)"/>
  </sodipodi:namedview>
  <g inkscape:groupmode="layer" id="layer4" inkscape:label="icon_128" style="display:inline" transform="translate(-207.99995,-208)">
    <g inkscape:groupmode="layer" id="layer11" inkscape:label="frame" style="display:none">
      <rect inkscape:label="frame_128" y="208" x="207.99995" height="128" width="128" id="frame_128" style="color:#000000;clip-rule:nonzero;display:inline;overflow:visible;visibility:visible;opacity:1;isolation:auto;mix-blend-mode:normal;color-interpolation:sRGB;color-interpolation-filters:linearRGB;solid-color:#000000;solid-opacity:1;vector-effect:none;fill:#000000;fill-opacity:1;fill-rule:nonzero;stroke:#ff24f7;stroke-width:0;stroke-linecap:square;stroke-linejoin:miter;stroke-miterlimit:4;stroke-dasharray:none;stroke-dashoffset:0;stroke-opacity:0.99481865;marker:none;marker-start:none;marker-mid:none;marker-end:none;paint-order:normal;color-rendering:auto;image-rendering:auto;shape-rendering:auto;text-rendering:auto;enable-background:accumulate"/>
      <text xml:space="preserve" style="font-size:38.46457672px;line-height:0%;font-family:sans-serif;letter-spacing:0px;word-spacing:0px;display:inline;opacity:1;fill:#ffffff;fill-opacity:1;stroke:none;stroke-width:0.07881754px;stroke-linecap:butt;stroke-linejoin:miter;stroke-opacity:1" x="236.17479" y="283.34512" id="txt_128" inkscape:label="txt_128">
        <tspan sodipodi:role="line" x="236.17479" y="283.34512" style="font-size:38.46457672px;line-height:0%;fill:#ffffff;fill-opacity:1;stroke:none;stroke-width:0.07881754px" id="tspan5069-6">128</tspan>
      </text>
      <text xml:space="preserve" style="font-size:7.43228436px;line-height:1000%;font-family:sans-serif;letter-spacing:0px;word-spacing:0px;display:inline;opacity:1;fill:#ffffff;fill-opacity:0.42156863;stroke:none;stroke-width:0.16398695px;stroke-linecap:butt;stroke-linejoin:miter;stroke-opacity:1" x="265.97781" y="330.1329" id="txt_scalable_64_512" inkscape:label="txt_scalable_64_512">
        <tspan sodipodi:role="line" x="265.97781" y="330.1329" style="font-size:8.08990479px;fill:#ffffff;fill-opacity:0.42156863;stroke:none;stroke-width:0.16398695px" id="tspan5049-1-6-6">Scalable:96-512</tspan>
      </text>
    </g>
    <g inkscape:groupmode="layer" id="layer12" inkscape:label="icon" style="display:inline">
      <circle style="color:#000000;clip-rule:nonzero;display:block;overflow:visible;visibility:visible;opacity:1;isolation:auto;mix-blend-mode:normal;color-interpolation:sRGB;color-interpolation-filters:linearRGB;solid-color:#000000;solid-opacity:1;fill:#000000;fill-opacity:0.15686275;fill-rule:nonzero;stroke:none;stroke-width:2.69101429;stroke-linecap:butt;stroke-linejoin:miter;stroke-miterlimit:4;stroke-dasharray:none;stroke-dashoffset:0;stroke-opacity:1;marker:none;marker-start:none;marker-mid:none;marker-end:none;color-rendering:auto;image-rendering:auto;shape-rendering:auto;text-rendering:auto;enable-background:accumulate" id="path5465-5-9" cx="272" cy="272" r="62" inkscape:label="sombra"/>
      <circle style="color:#000000;clip-rule:nonzero;display:inline;overflow:visible;visibility:visible;opacity:1;isolation:auto;mix-blend-mode:normal;color-interpolation:sRGB;color-interpolation-filters:linearRGB;solid-color:#000000;solid-opacity:1;fill:url(#linearGradient5473-7);fill-opacity:1;fill-rule:nonzero;stroke:#ffffff;stroke-width:3.27198434;stroke-linecap:butt;stroke-linejoin:miter;stroke-miterlimit:4;stroke-dasharray:none;stroke-dashoffset:0;stroke-opacity:1;marker:none;marker-start:none;marker-mid:none;marker-end:none;color-rendering:auto;image-rendering:auto;shape-rendering:auto;text-rendering:auto;enable-background:accumulate" id="path5465-7" cx="272" cy="272.00003" r="58.712223" inkscape:label="circle"/>
      <circle inkscape:label="circle" r="58.712223" cy="272.00003" cx="272" id="circle7768-3" style="color:#000000;clip-rule:nonzero;display:inline;overflow:visible;visibility:visible;opacity:0.10899999;isolation:auto;mix-blend-mode:normal;color-interpolation:sRGB;color-interpolation-filters:linearRGB;solid-color:#000000;solid-opacity:1;fill:url(#linearGradient7776-2);fill-opacity:1;fill-rule:nonzero;stroke:#ffffff;stroke-width:3.27198434;stroke-linecap:butt;stroke-linejoin:miter;stroke-miterlimit:4;stroke-dasharray:none;stroke-dashoffset:0;stroke-opacity:1;marker:none;marker-start:none;marker-mid:none;marker-end:none;color-rendering:auto;image-rendering:auto;shape-rendering:auto;text-rendering:auto;enable-background:accumulate"/>
      <circle inkscape:label="circle" r="9.991231" cy="272.00003" cx="272" id="circle7778-1" style="color:#000000;clip-rule:nonzero;display:inline;overflow:visible;visibility:visible;opacity:1;isolation:auto;mix-blend-mode:normal;color-interpolation:sRGB;color-interpolation-filters:linearRGB;solid-color:#000000;solid-opacity:1;fill:#efefef;fill-opacity:0.21354167;fill-rule:nonzero;stroke:none;stroke-width:0.55680317;stroke-linecap:butt;stroke-linejoin:miter;stroke-miterlimit:4;stroke-dasharray:none;stroke-dashoffset:0;stroke-opacity:1;marker:none;marker-start:none;marker-mid:none;marker-end:none;color-rendering:auto;image-rendering:auto;shape-rendering:auto;text-rendering:auto;enable-background:accumulate"/>
      <circle style="color:#000000;clip-rule:nonzero;display:inline;overflow:visible;visibility:visible;opacity:1;isolation:auto;mix-blend-mode:normal;color-interpolation:sRGB;color-interpolation-filters:linearRGB;solid-color:#000000;solid-opacity:1;fill:none;fill-opacity:0.21354167;fill-rule:nonzero;stroke:#ffffff;stroke-width:1.51143849;stroke-linecap:butt;stroke-linejoin:miter;stroke-miterlimit:4;stroke-dasharray:1.51143861, 12.09150892;stroke-dashoffset:0;stroke-opacity:0.29166667;marker:none;marker-start:none;marker-mid:none;marker-end:none;color-rendering:auto;image-rendering:auto;shape-rendering:auto;text-rendering:auto;enable-background:accumulate" id="circle7786-1" cx="272" cy="272.00003" r="48.306145" inkscape:label="circle"/>
      <path inkscape:connector-curvature="0" id="path7745-6" d="m 286.89764,314.43686 c -6.64514,-1.10353 -15.2751,-8.7105 -23.15422,-20.40946 -3.30556,-4.90816 -6.68775,-10.96948 -8.89555,-15.94198 -0.44286,-0.99742 -0.60472,-1.2373 -0.73852,-1.09435 -0.268,0.2862 -2.19143,4.46853 -3.20481,6.96814 -1.70462,4.20461 -2.90611,8.21348 -3.5946,11.994 -0.44109,2.42191 -0.47901,7.11462 -0.0691,8.56844 0.95211,3.37817 3.01674,4.78226 6.23806,4.24228 2.32205,-0.38926 5.13294,-1.66106 8.11537,-3.67184 1.3245,-0.89298 1.67285,-1.06292 2.18511,-1.06591 0.78331,-0.005 1.36803,0.42153 1.64201,1.19665 0.18157,0.5139 0.18103,0.66298 -0.005,1.1541 -0.17885,0.47136 -0.48863,0.75029 -1.88662,1.69826 -1.93081,1.30935 -5.23423,2.99705 -6.92423,3.5376 -4.42785,1.41638 -7.87257,0.89717 -10.30115,-1.5526 -2.22773,-2.24716 -3.18752,-5.88269 -2.89174,-10.95343 0.38496,-6.59903 3.28602,-15.60794 7.86986,-24.43897 l 1.14947,-2.21446 -0.86823,-2.34916 c -0.8309,-2.24818 -2.47426,-7.46023 -2.47426,-7.84739 0,-0.28517 -0.50279,-0.22659 -2.70709,0.31566 -5.05061,1.24241 -8.80325,2.82368 -11.49452,4.8435 -5.29,3.97019 -3.88879,8.44845 4.0386,12.90765 1.26237,0.71009 1.55397,1.09248 1.55397,2.03789 0,0.49405 -0.0913,0.6968 -0.49611,1.10159 -0.86685,0.86691 -1.67404,0.68621 -4.3504,-0.97371 -3.8708,-2.40073 -6.31811,-5.13251 -7.18013,-8.01468 -0.3148,-1.05261 -0.31592,-3.17289 -0.001,-4.23156 0.45737,-1.54351 1.22718,-2.76942 2.61661,-4.16692 3.11379,-3.13184 8.27748,-5.5366 15.35945,-7.1529 1.44247,-0.32923 1.77558,-0.45233 1.72125,-0.63618 -0.0371,-0.12545 -0.2019,-0.95027 -0.36637,-1.83305 -0.9622,-5.16563 -0.99147,-11.08827 -0.071,-14.3727 1.06139,-3.78714 2.98304,-6.04121 6.04726,-7.09322 1.25112,-0.42954 3.75537,-0.36142 5.47184,0.14868 1.72629,0.51315 3.86967,1.56856 5.76368,2.83807 2.25721,1.51296 2.9228,2.14776 3.01833,2.87883 0.21945,1.67978 -1.51594,2.58565 -2.93273,1.53076 -4.44228,-3.30765 -7.61318,-4.56625 -10.15378,-4.03024 -1.84631,0.38952 -3.25767,2.28777 -3.96998,5.33941 -0.28324,1.21369 -0.32201,1.78973 -0.32337,4.80792 -10e-4,3.42571 0.0476,3.97666 0.67306,7.56848 l 0.31434,1.80482 0.74099,-0.0897 c 3.40089,-0.41109 6.33175,-0.69697 8.13905,-0.79389 l 2.14504,-0.1149 0.33453,-0.43009 c 3.62319,-4.6585 8.89272,-10.09863 12.88525,-13.30241 7.64602,-6.13544 14.20373,-8.26621 18.71494,-6.08094 2.54835,1.23444 4.15892,3.75709 4.7835,7.49234 0.40777,2.43858 0.0856,8.21075 -0.54898,9.8366 -0.21917,0.56178 -0.92228,0.96648 -1.67996,0.96714 -0.47685,4.9e-4 -0.72652,-0.0966 -1.09435,-0.42512 -0.43603,-0.3895 -0.47623,-0.49792 -0.47318,-1.27674 10e-4,-0.46812 0.12453,-1.8032 0.27293,-2.96689 0.43103,-3.38323 0.13474,-6.51058 -0.78835,-8.3199 -0.44804,-0.87826 -1.36475,-1.81592 -2.15752,-2.20675 -0.5947,-0.29318 -0.90094,-0.3377 -2.29149,-0.33316 -1.46121,0.005 -1.74709,0.0538 -3.18921,0.54545 -4.46163,1.52171 -9.57381,5.17934 -15.0614,10.776 -1.04944,1.07028 -2.62326,2.76674 -3.49739,3.76993 l -1.58935,1.82393 1.3816,0.033 c 19.33929,0.45846 35.63907,4.89953 43.32244,11.80383 1.72895,1.55364 3.21875,3.86826 3.65161,5.67333 0.21944,0.91512 0.22357,2.69198 0.008,3.6433 -0.79346,3.51039 -4.65289,6.96136 -10.27939,9.19158 -0.88937,0.35254 -1.07723,0.38114 -1.55784,0.237 -0.78719,-0.23589 -1.29763,-0.90085 -1.29763,-1.69056 0,-0.92795 0.4471,-1.37367 2.05368,-2.04737 3.49488,-1.46557 6.20509,-3.52023 7.23414,-5.48439 0.35757,-0.68255 0.41147,-0.94794 0.41129,-2.02573 -1.4e-4,-1.12104 -0.0474,-1.33147 -0.48945,-2.18875 -0.62362,-1.20896 -2.68466,-3.27568 -4.39443,-4.40652 -8.39989,-5.55573 -24.22866,-9.16304 -40.20954,-9.16355 l -2.63623,-8e-5 -0.99348,1.34973 c -1.48612,2.01903 -4.71099,6.92694 -5.99426,9.12258 l -1.13167,1.93624 0.77758,1.78462 c 7.80058,17.90279 19.91093,33.01842 28.84318,36.00088 1.94193,0.6484 3.41139,0.68 4.59917,0.0989 2.22277,-1.08747 3.38699,-3.91046 3.5658,-8.64603 0.29839,-7.90354 -2.54824,-18.82702 -7.85633,-30.14708 -0.55037,-1.1737 -0.88075,-2.06948 -0.88075,-2.38791 0,-0.95739 0.78617,-1.71024 1.77176,-1.69664 0.87516,0.0106 1.25905,0.36253 1.92656,1.75872 4.30466,9.00373 7.17422,18.02359 8.24573,25.91877 0.36033,2.6549 0.3625,8.05853 0.005,9.98954 -0.57333,3.08854 -1.59341,5.3136 -3.15435,6.88058 -1.90156,1.9089 -4.36951,2.63795 -7.28887,2.15317 z m -30.88046,-48.0605 c 0.54495,-0.88282 1.60568,-2.50464 2.3572,-3.60412 0.75152,-1.09946 1.36639,-2.04364 1.36639,-2.09812 0,-0.18765 -6.8946,0.51015 -7.10325,0.7188 -0.12545,0.12506 0.28789,1.6615 1.2059,4.48455 0.66763,2.05301 0.84834,2.47008 0.999,2.30523 0.10118,-0.11081 0.62978,-0.92356 1.17476,-1.80634 z m 14.71103,13.08832 c -2.19215,-0.78272 -3.4732,-2.61172 -3.44402,-4.91706 0.0165,-1.20701 0.2905,-2.03475 0.99621,-2.99612 1.78829,-2.43612 5.44026,-2.71318 7.63882,-0.57955 2.52532,2.45074 1.7778,6.82356 -1.41648,8.28595 -1.09924,0.50326 -2.69883,0.59086 -3.77453,0.20685 z" style="display:inline;opacity:1;fill:#000000;fill-opacity:0.23529412;stroke:none;stroke-width:0.58054942;stroke-miterlimit:4;stroke-dasharray:none;stroke-opacity:1" inkscape:label="sombra atom"/>
      <path style="display:inline;opacity:1;fill:#ffffff;fill-opacity:1;stroke:#ffffff;stroke-width:0.58054942;stroke-miterlimit:4;stroke-dasharray:none;stroke-opacity:1" d="m 286.89764,311.79857 c -6.64514,-1.10354 -15.2751,-8.7105 -23.15422,-20.40947 -3.30556,-4.90816 -6.68775,-10.96947 -8.89555,-15.94198 -0.44286,-0.99742 -0.60472,-1.23729 -0.73852,-1.09435 -0.268,0.2862 -2.19143,4.46854 -3.20481,6.96814 -1.70462,4.20461 -2.90611,8.21348 -3.5946,11.994 -0.44109,2.42191 -0.47901,7.11462 -0.0691,8.56844 0.95211,3.37817 3.01674,4.78226 6.23806,4.24228 2.32205,-0.38925 5.13294,-1.66106 8.11537,-3.67184 1.3245,-0.89298 1.67285,-1.06291 2.18511,-1.06591 0.78331,-0.005 1.36803,0.42154 1.64201,1.19665 0.18157,0.5139 0.18103,0.66298 -0.005,1.1541 -0.17885,0.47136 -0.48863,0.75029 -1.88662,1.69826 -1.93081,1.30935 -5.23423,2.99705 -6.92423,3.5376 -4.42785,1.41638 -7.87257,0.89717 -10.30115,-1.5526 -2.22773,-2.24715 -3.18752,-5.88269 -2.89174,-10.95343 0.38496,-6.59903 3.28602,-15.60793 7.86986,-24.43896 l 1.14947,-2.21447 -0.86823,-2.34916 c -0.8309,-2.24818 -2.47426,-7.46023 -2.47426,-7.84739 0,-0.28517 -0.50279,-0.22659 -2.70709,0.31566 -5.05061,1.24241 -8.80325,2.82368 -11.49452,4.84351 -5.29,3.97019 -3.88879,8.44845 4.0386,12.90764 1.26237,0.71009 1.55397,1.09248 1.55397,2.03789 0,0.49405 -0.0913,0.6968 -0.49611,1.1016 -0.86685,0.8669 -1.67404,0.6862 -4.3504,-0.97372 -3.8708,-2.40073 -6.31811,-5.13251 -7.18013,-8.01467 -0.3148,-1.05262 -0.31592,-3.1729 -0.001,-4.23157 0.45737,-1.54351 1.22718,-2.76942 2.61661,-4.16691 3.11379,-3.13185 8.27748,-5.5366 15.35945,-7.1529 1.44247,-0.32924 1.77558,-0.45234 1.72125,-0.63619 -0.0371,-0.12545 -0.2019,-0.95026 -0.36637,-1.83305 -0.9622,-5.16563 -0.99147,-11.08827 -0.071,-14.3727 1.06139,-3.78714 2.98304,-6.04121 6.04726,-7.09322 1.25112,-0.42954 3.75537,-0.36142 5.47184,0.14868 1.72629,0.51315 3.86967,1.56856 5.76368,2.83807 2.25721,1.51296 2.9228,2.14776 3.01833,2.87883 0.21945,1.67978 -1.51594,2.58566 -2.93273,1.53076 -4.44228,-3.30765 -7.61318,-4.56625 -10.15378,-4.03024 -1.84631,0.38952 -3.25767,2.28777 -3.96998,5.33941 -0.28324,1.21369 -0.32201,1.78973 -0.32337,4.80792 -10e-4,3.42571 0.0476,3.97667 0.67306,7.56849 l 0.31434,1.80482 0.74099,-0.0897 c 3.40089,-0.41108 6.33175,-0.69697 8.13905,-0.79389 l 2.14504,-0.1149 0.33453,-0.43009 c 3.62319,-4.6585 8.89272,-10.09863 12.88525,-13.3024 7.64602,-6.13544 14.20373,-8.26621 18.71494,-6.08095 2.54835,1.23445 4.15892,3.75709 4.7835,7.49234 0.40777,2.43858 0.0856,8.21076 -0.54898,9.83661 -0.21917,0.56177 -0.92228,0.96647 -1.67996,0.96713 -0.47685,4.9e-4 -0.72652,-0.0966 -1.09435,-0.42512 -0.43603,-0.38949 -0.47623,-0.49791 -0.47318,-1.27674 10e-4,-0.46811 0.12453,-1.8032 0.27293,-2.96688 0.43103,-3.38324 0.13474,-6.51058 -0.78835,-8.3199 -0.44804,-0.87827 -1.36475,-1.81593 -2.15752,-2.20675 -0.5947,-0.29319 -0.90094,-0.33771 -2.29149,-0.33317 -1.46121,0.005 -1.74709,0.0538 -3.18921,0.54546 -4.46163,1.5217 -9.57381,5.17933 -15.0614,10.77599 -1.04944,1.07028 -2.62326,2.76675 -3.49739,3.76993 l -1.58935,1.82394 1.3816,0.033 c 19.33929,0.45846 35.63907,4.89953 43.32244,11.80383 1.72895,1.55364 3.21875,3.86826 3.65161,5.67333 0.21944,0.91512 0.22357,2.69199 0.008,3.6433 -0.79346,3.51039 -4.65289,6.96136 -10.27939,9.19158 -0.88937,0.35254 -1.07723,0.38114 -1.55784,0.237 -0.78719,-0.23589 -1.29763,-0.90085 -1.29763,-1.69055 0,-0.92796 0.4471,-1.37367 2.05368,-2.04738 3.49488,-1.46557 6.20509,-3.52022 7.23414,-5.48438 0.35757,-0.68256 0.41147,-0.94795 0.41129,-2.02574 -1.4e-4,-1.12104 -0.0474,-1.33147 -0.48945,-2.18875 -0.62362,-1.20896 -2.68466,-3.27568 -4.39443,-4.40652 -8.39989,-5.55573 -24.22866,-9.16304 -40.20954,-9.16355 l -2.63623,-8e-5 -0.99348,1.34973 c -1.48612,2.01903 -4.71099,6.92694 -5.99426,9.12259 l -1.13167,1.93623 0.77758,1.78462 c 7.80058,17.90279 19.91093,33.01842 28.84318,36.00088 1.94193,0.6484 3.41139,0.68 4.59917,0.0989 2.22277,-1.08747 3.38699,-3.91046 3.5658,-8.64603 0.29839,-7.90354 -2.54824,-18.82701 -7.85633,-30.14708 -0.55037,-1.1737 -0.88075,-2.06948 -0.88075,-2.38791 0,-0.95739 0.78617,-1.71024 1.77176,-1.69664 0.87516,0.0106 1.25905,0.36253 1.92656,1.75872 4.30466,9.00373 7.17422,18.0236 8.24573,25.91877 0.36033,2.6549 0.3625,8.05853 0.005,9.98954 -0.57333,3.08854 -1.59341,5.3136 -3.15435,6.88058 -1.90156,1.9089 -4.36951,2.63795 -7.28887,2.15317 z m -30.88046,-48.06051 c 0.54495,-0.88282 1.60568,-2.50464 2.3572,-3.60412 0.75152,-1.09946 1.36639,-2.04364 1.36639,-2.09812 0,-0.18765 -6.8946,0.51015 -7.10325,0.7188 -0.12545,0.12506 0.28789,1.6615 1.2059,4.48456 0.66763,2.053 0.84834,2.47008 0.999,2.30522 0.10118,-0.11081 0.62978,-0.92356 1.17476,-1.80634 z m 14.71103,13.08832 c -2.19215,-0.78271 -3.4732,-2.61171 -3.44402,-4.91706 0.0165,-1.20701 0.2905,-2.03475 0.99621,-2.99612 1.78829,-2.43612 5.44026,-2.71318 7.63882,-0.57955 2.52532,2.45074 1.7778,6.82356 -1.41648,8.28596 -1.09924,0.50325 -2.69883,0.59086 -3.77453,0.20684 z" id="path4662-2" inkscape:connector-curvature="0" inkscape:label="atom"/>
      <path style="color:#000000;clip-rule:nonzero;display:inline;overflow:visible;visibility:visible;opacity:1;isolation:auto;mix-blend-mode:normal;color-interpolation:sRGB;color-interpolation-filters:linearRGB;solid-color:#000000;solid-opacity:1;fill:#000000;fill-opacity:0.296875;fill-rule:nonzero;stroke:none;stroke-width:3.22756743;stroke-linecap:butt;stroke-linejoin:miter;stroke-miterlimit:4;stroke-dasharray:none;stroke-dashoffset:0;stroke-opacity:1;marker:none;marker-start:none;marker-mid:none;marker-end:none;color-rendering:auto;image-rendering:auto;shape-rendering:auto;text-rendering:auto;enable-background:accumulate" d="M 329.10164,269.90791 A 57.129014,58.712222 0 0 1 272,328.07413 a 57.129014,58.712222 0 0 1 -57.10164,-57.93949 57.129014,58.712222 0 0 0 -0.0276,0.54621 57.129014,58.712222 0 0 0 57.12921,58.71243 57.129014,58.712222 0 0 0 57.12921,-58.71243 57.129014,58.712222 0 0 0 -0.0276,-0.77294 z" id="circle7747-9" inkscape:connector-curvature="0"/>
      <path inkscape:connector-curvature="0" id="path7766-3" d="M 329.36608,274.46918 A 57.393574,58.712222 0 0 0 272,216.30296 57.393574,58.712222 0 0 0 214.63392,274.24245 57.393574,58.712222 0 0 1 214.60622,273.69624 57.393574,58.712222 0 0 1 272,214.98381 a 57.393574,58.712222 0 0 1 57.39378,58.71243 57.393574,58.712222 0 0 1 -0.0277,0.77294 z" style="color:#000000;clip-rule:nonzero;display:inline;overflow:visible;visibility:visible;opacity:1;isolation:auto;mix-blend-mode:normal;color-interpolation:sRGB;color-interpolation-filters:linearRGB;solid-color:#000000;solid-opacity:1;fill:#242424;fill-opacity:0.47058824;fill-rule:nonzero;stroke:none;stroke-width:3.23503208;stroke-linecap:butt;stroke-linejoin:miter;stroke-miterlimit:4;stroke-dasharray:none;stroke-dashoffset:0;stroke-opacity:1;marker:none;marker-start:none;marker-mid:none;marker-end:none;color-rendering:auto;image-rendering:auto;shape-rendering:auto;text-rendering:auto;enable-background:accumulate"/>
    </g>
  </g>
</svg>