<?xml version="1.0" encoding="UTF-8" standalone="yes"?>
<svg xmlns:dc="http://purl.org/dc/elements/1.1/" xmlns:cc="http://creativecommons.org/ns#" xmlns:rdf="http://www.w3.org/1999/02/22-rdf-syntax-ns#" xmlns:svg="http://www.w3.org/2000/svg" xmlns="http://www.w3.org/2000/svg" xmlns:xlink="http://www.w3.org/1999/xlink" xmlns:sodipodi="http://sodipodi.sourceforge.net/DTD/sodipodi-0.dtd" xmlns:inkscape="http://www.inkscape.org/namespaces/inkscape" height="24" viewBox="0 0 24 24" width="24" id="svg2" version="1.1" inkscape:version="0.92.2 5c3e80d, 2017-08-06" sodipodi:docname="gufw.svg" enable-background="new" folder="24">
  <title id="title4675">Template icons dark</title>
  <metadata id="metadata24">
    <rdf:RDF>
      <cc:Work rdf:about="">
        <dc:format>image/svg+xml</dc:format>
        <dc:type rdf:resource="http://purl.org/dc/dcmitype/StillImage"/>
        <dc:title>Template icons dark</dc:title>
        <dc:date>17/05/13</dc:date>
        <dc:creator>
          <cc:Agent>
            <dc:title>wfpaisa</dc:title>
          </cc:Agent>
        </dc:creator>
        <dc:rights>
          <cc:Agent>
            <dc:title>License: GPLv3</dc:title>
          </cc:Agent>
        </dc:rights>
        <dc:language>es-en</dc:language>
        <dc:subject>
          <rdf:Bag>
            <rdf:li>plane-icon-theme</rdf:li>
          </rdf:Bag>
        </dc:subject>
        <dc:description>Template for create set icons</dc:description>
        <cc:license rdf:resource="https://www.gnu.org/licenses/gpl-3.0.en.html"/>
      </cc:Work>
    </rdf:RDF>
  </metadata>
  <defs id="defs22">
    <linearGradient id="linearGradient39741">
      <stop id="stop39737" offset="0" style="stop-color:#1d6e99;stop-opacity:1;"/>
      <stop id="stop39739" offset="1" style="stop-color:#f93000;stop-opacity:1;"/>
    </linearGradient>
    <linearGradient inkscape:collect="always" id="linearGradient39682">
      <stop style="stop-color:#492f46;stop-opacity:0.70980394" offset="0" id="stop39678"/>
      <stop style="stop-color:#3c3543;stop-opacity:0.36813188" offset="1" id="stop39680"/>
    </linearGradient>
    <linearGradient inkscape:collect="always" id="linearGradient4208">
      <stop style="stop-color:#000000;stop-opacity:0.51098901" offset="0" id="stop4204"/>
      <stop style="stop-color:#000000;stop-opacity:0.26923078" offset="1" id="stop4206"/>
    </linearGradient>
    <linearGradient inkscape:collect="always" xlink:href="#linearGradient4722" id="linearGradient4720" gradientUnits="userSpaceOnUse" gradientTransform="matrix(0.87883305,0,0,0.87883305,117.72962,-726.32687)" x1="48.843494" y1="994.45337" x2="48.843494" y2="1014.9698"/>
    <linearGradient id="linearGradient4722" inkscape:collect="always">
      <stop id="stop4724" offset="0" style="stop-color:#313131;stop-opacity:0.50980395"/>
      <stop style="stop-color:#dfdfdf;stop-opacity:0.76078433" offset="0.60000002" id="stop4728"/>
      <stop id="stop4726" offset="1" style="stop-color:#ffffff;stop-opacity:1"/>
    </linearGradient>
    <linearGradient inkscape:collect="always" xlink:href="#linearGradient4145" id="linearGradient4147" x1="48.240433" y1="22.744709" x2="48.240433" y2="-17.955055" gradientUnits="userSpaceOnUse" gradientTransform="matrix(1.0633581,0,0,1.0633581,108.95881,153.77824)"/>
    <linearGradient inkscape:collect="always" id="linearGradient4145">
      <stop style="stop-color:#bcbcbc;stop-opacity:1" offset="0" id="stop4141"/>
      <stop style="stop-color:#ffffff;stop-opacity:1" offset="1" id="stop4143"/>
    </linearGradient>
    <linearGradient inkscape:collect="always" xlink:href="#linearGradient10165" id="linearGradient10167" x1="43.115879" y1="25.525976" x2="1.4625005" y2="25.525976" gradientUnits="userSpaceOnUse" gradientTransform="matrix(2.086771,0,0,2.086771,113.04765,106.78735)"/>
    <linearGradient inkscape:collect="always" id="linearGradient10165">
      <stop style="stop-color:#eeeeee;stop-opacity:1;" offset="0" id="stop10161"/>
      <stop id="stop4584" offset="0.41331291" style="stop-color:#a2a2a2;stop-opacity:1;"/>
      <stop id="stop4582" offset="0.49493894" style="stop-color:#707070;stop-opacity:1"/>
      <stop id="stop11618" offset="0.53019929" style="stop-color:#838383;stop-opacity:1"/>
      <stop style="stop-color:#d2d2d2;stop-opacity:1" offset="1" id="stop10163"/>
    </linearGradient>
    <linearGradient inkscape:collect="always" xlink:href="#linearGradient4247" id="linearGradient5819" gradientUnits="userSpaceOnUse" gradientTransform="matrix(1.771737,0,0,1.771737,73.572454,-1618.6902)" x1="50.10355" y1="1012.1684" x2="73.355255" y2="1012.1684"/>
    <linearGradient inkscape:collect="always" id="linearGradient4247">
      <stop style="stop-color:#353d5a;stop-opacity:0.81318682" offset="0" id="stop4243"/>
      <stop style="stop-color:#a33284;stop-opacity:0.58791208" offset="1" id="stop4245"/>
    </linearGradient>
    <linearGradient inkscape:collect="always" xlink:href="#linearGradient4241" id="linearGradient4235" gradientUnits="userSpaceOnUse" gradientTransform="matrix(1.771737,0,0,1.771737,73.572454,-1618.6902)" x1="49.679111" y1="1012.1684" x2="28.449266" y2="1012.1684"/>
    <linearGradient inkscape:collect="always" id="linearGradient4241">
      <stop style="stop-color:#54546a;stop-opacity:1" offset="0" id="stop4237"/>
      <stop style="stop-color:#5a6480;stop-opacity:1" offset="1" id="stop4239"/>
    </linearGradient>
    <linearGradient inkscape:collect="always" xlink:href="#linearGradient39682" id="linearGradient39684" x1="158.14174" y1="123.57748" x2="158.14174" y2="196" gradientUnits="userSpaceOnUse"/>
    <linearGradient inkscape:collect="always" xlink:href="#linearGradient39741" id="linearGradient39735" gradientUnits="userSpaceOnUse" gradientTransform="matrix(1.771737,0,0,1.771737,73.559604,-1618.6235)" x1="55.554264" y1="1018.5549" x2="6.8810019" y2="979.09015"/>
    <linearGradient inkscape:collect="always" xlink:href="#linearGradient10165" id="linearGradient10167-4" x1="43.115879" y1="25.525976" x2="1.4625005" y2="25.525976" gradientUnits="userSpaceOnUse" gradientTransform="matrix(0.52169801,0,0,0.52169801,-55.738177,-57.303381)"/>
    <linearGradient inkscape:collect="always" xlink:href="#linearGradient4247" id="linearGradient5819-75" gradientUnits="userSpaceOnUse" gradientTransform="matrix(0.44293871,0,0,0.44293871,-65.607075,-488.67712)" x1="50.10355" y1="1012.1684" x2="73.355255" y2="1012.1684"/>
    <linearGradient gradientTransform="matrix(0.25000252,0,0,0.25000252,-56.000092,-45.5001)" inkscape:collect="always" xlink:href="#linearGradient4208" id="linearGradient4210-21" x1="50.444756" y1="26.43075" x2="49.479927" y2="-19.018431" gradientUnits="userSpaceOnUse"/>
    <linearGradient inkscape:collect="always" xlink:href="#linearGradient4722" id="linearGradient4720-57" gradientUnits="userSpaceOnUse" gradientTransform="matrix(0.21971048,0,0,0.21971048,-54.567673,-265.58404)" x1="48.843494" y1="994.45337" x2="48.843494" y2="1014.9698"/>
    <linearGradient inkscape:collect="always" xlink:href="#linearGradient4145" id="linearGradient4147-5" x1="48.240433" y1="22.744709" x2="48.240433" y2="-17.955055" gradientUnits="userSpaceOnUse" gradientTransform="matrix(0.2658422,0,0,0.2658422,-56.760397,-45.555541)"/>
    <linearGradient inkscape:collect="always" xlink:href="#linearGradient39741" id="linearGradient39735-53" gradientUnits="userSpaceOnUse" gradientTransform="matrix(0.44293871,0,0,0.44293871,-65.610287,-488.66044)" x1="55.554264" y1="1018.5549" x2="6.8810019" y2="979.09015"/>
    <linearGradient inkscape:collect="always" xlink:href="#linearGradient4241" id="linearGradient4235-3" gradientUnits="userSpaceOnUse" gradientTransform="matrix(0.44293871,0,0,0.44293871,-65.607075,-488.67712)" x1="49.679111" y1="1012.1684" x2="28.449266" y2="1012.1684"/>
    <linearGradient inkscape:collect="always" xlink:href="#linearGradient10165" id="linearGradient10167-40" x1="43.115879" y1="25.525976" x2="1.4625005" y2="25.525976" gradientUnits="userSpaceOnUse" gradientTransform="matrix(0.34779866,0,0,0.34779866,-71.843043,-72.868933)"/>
    <linearGradient inkscape:collect="always" xlink:href="#linearGradient4247" id="linearGradient5819-2" gradientUnits="userSpaceOnUse" gradientTransform="matrix(0.29529246,0,0,0.29529246,-78.422309,-360.4514)" x1="50.10355" y1="1012.1684" x2="73.355255" y2="1012.1684"/>
    <linearGradient inkscape:collect="always" xlink:href="#linearGradient39741" id="linearGradient39735-0" gradientUnits="userSpaceOnUse" gradientTransform="matrix(0.29529246,0,0,0.29529246,-78.42445,-360.44029)" x1="55.554264" y1="1018.5549" x2="6.8810019" y2="979.09015"/>
    <linearGradient inkscape:collect="always" xlink:href="#linearGradient4241" id="linearGradient4235-0" gradientUnits="userSpaceOnUse" gradientTransform="matrix(0.29529246,0,0,0.29529246,-78.422309,-360.4514)" x1="49.679111" y1="1012.1684" x2="28.449266" y2="1012.1684"/>
    <linearGradient inkscape:collect="always" xlink:href="#linearGradient4241" id="linearGradient4235-7" gradientUnits="userSpaceOnUse" gradientTransform="matrix(2.2146743,0,0,2.2146743,165.35124,-1949.9798)" x1="49.679111" y1="1012.1684" x2="28.449266" y2="1012.1684"/>
    <linearGradient inkscape:collect="always" xlink:href="#linearGradient39741" id="linearGradient39735-50" gradientUnits="userSpaceOnUse" gradientTransform="matrix(2.2146743,0,0,2.2146743,165.33518,-1949.8965)" x1="55.554264" y1="1018.5549" x2="6.8810019" y2="979.09015"/>
    <linearGradient inkscape:collect="always" xlink:href="#linearGradient4145" id="linearGradient4147-1" x1="48.240433" y1="22.744709" x2="48.240433" y2="-17.955055" gradientUnits="userSpaceOnUse" gradientTransform="matrix(1.3291994,0,0,1.3291994,209.58425,265.60865)"/>
    <linearGradient inkscape:collect="always" xlink:href="#linearGradient4722" id="linearGradient4720-3" gradientUnits="userSpaceOnUse" gradientTransform="matrix(1.0985428,0,0,1.0985428,220.54778,-834.52423)" x1="48.843494" y1="994.45337" x2="48.843494" y2="1014.9698"/>
    <linearGradient inkscape:collect="always" xlink:href="#linearGradient4247" id="linearGradient5819-15" gradientUnits="userSpaceOnUse" gradientTransform="matrix(2.2146743,0,0,2.2146743,165.35124,-1949.9798)" x1="50.10355" y1="1012.1684" x2="73.355255" y2="1012.1684"/>
    <linearGradient inkscape:collect="always" xlink:href="#linearGradient10165" id="linearGradient10167-76" x1="43.115879" y1="25.525976" x2="1.4625005" y2="25.525976" gradientUnits="userSpaceOnUse" gradientTransform="matrix(2.6084673,0,0,2.6084673,214.6953,206.86996)"/>
    <linearGradient inkscape:collect="always" xlink:href="#linearGradient4241" id="linearGradient4235-4" gradientUnits="userSpaceOnUse" gradientTransform="matrix(1.1811507,0,0,1.1811507,22.317472,-1105.7858)" x1="49.679111" y1="1012.1684" x2="28.449266" y2="1012.1684"/>
    <linearGradient inkscape:collect="always" xlink:href="#linearGradient39741" id="linearGradient39735-06" gradientUnits="userSpaceOnUse" gradientTransform="matrix(1.1811507,0,0,1.1811507,22.308906,-1105.7413)" x1="55.554264" y1="1018.5549" x2="6.8810019" y2="979.09015"/>
    <linearGradient inkscape:collect="always" xlink:href="#linearGradient4145" id="linearGradient4147-2" x1="48.240433" y1="22.744709" x2="48.240433" y2="-17.955055" gradientUnits="userSpaceOnUse" gradientTransform="matrix(0.70890099,0,0,0.70890099,45.908229,75.852359)"/>
    <linearGradient inkscape:collect="always" xlink:href="#linearGradient4722" id="linearGradient4720-4" gradientUnits="userSpaceOnUse" gradientTransform="matrix(0.58588506,0,0,0.58588506,51.7554,-510.88073)" x1="48.843494" y1="994.45337" x2="48.843494" y2="1014.9698"/>
    <linearGradient inkscape:collect="always" xlink:href="#linearGradient4247" id="linearGradient5819-4" gradientUnits="userSpaceOnUse" gradientTransform="matrix(1.1811507,0,0,1.1811507,22.317472,-1105.7858)" x1="50.10355" y1="1012.1684" x2="73.355255" y2="1012.1684"/>
    <linearGradient inkscape:collect="always" xlink:href="#linearGradient10165" id="linearGradient10167-1" x1="43.115879" y1="25.525976" x2="1.4625005" y2="25.525976" gradientUnits="userSpaceOnUse" gradientTransform="matrix(1.391172,0,0,1.391172,48.634106,44.525295)"/>
    <linearGradient inkscape:collect="always" xlink:href="#linearGradient4241" id="linearGradient4235-77" gradientUnits="userSpaceOnUse" gradientTransform="matrix(0.88585814,0,0,0.88585814,-19.253977,-865.33475)" x1="49.679111" y1="1012.1684" x2="28.449266" y2="1012.1684"/>
    <linearGradient inkscape:collect="always" xlink:href="#linearGradient39741" id="linearGradient39735-3" gradientUnits="userSpaceOnUse" gradientTransform="matrix(0.88585814,0,0,0.88585814,-19.260402,-865.3014)" x1="55.554264" y1="1018.5549" x2="6.8810019" y2="979.09015"/>
    <linearGradient inkscape:collect="always" xlink:href="#linearGradient4145" id="linearGradient4147-6" x1="48.240433" y1="22.744709" x2="48.240433" y2="-17.955055" gradientUnits="userSpaceOnUse" gradientTransform="matrix(0.53167283,0,0,0.53167283,-1.5610053,20.8891)"/>
    <linearGradient inkscape:collect="always" xlink:href="#linearGradient4722" id="linearGradient4720-48" gradientUnits="userSpaceOnUse" gradientTransform="matrix(0.43941138,0,0,0.43941138,2.8243484,-419.15831)" x1="48.843494" y1="994.45337" x2="48.843494" y2="1014.9698"/>
    <linearGradient inkscape:collect="always" xlink:href="#linearGradient4247" id="linearGradient5819-3" gradientUnits="userSpaceOnUse" gradientTransform="matrix(0.88585814,0,0,0.88585814,-19.253977,-865.33475)" x1="50.10355" y1="1012.1684" x2="73.355255" y2="1012.1684"/>
    <linearGradient inkscape:collect="always" xlink:href="#linearGradient10165" id="linearGradient10167-8" x1="43.115879" y1="25.525976" x2="1.4625005" y2="25.525976" gradientUnits="userSpaceOnUse" gradientTransform="matrix(1.0433733,0,0,1.0433733,0.48339087,-2.6060701)"/>
    <linearGradient inkscape:collect="always" xlink:href="#linearGradient4241" id="linearGradient4235-1" gradientUnits="userSpaceOnUse" gradientTransform="matrix(0.59058495,0,0,0.59058495,-44.809445,-608.90278)" x1="49.679111" y1="1012.1684" x2="28.449266" y2="1012.1684"/>
    <linearGradient inkscape:collect="always" xlink:href="#linearGradient39741" id="linearGradient39735-9" gradientUnits="userSpaceOnUse" gradientTransform="matrix(0.59058495,0,0,0.59058495,-44.813729,-608.88055)" x1="55.554264" y1="1018.5549" x2="6.8810019" y2="979.09015"/>
    <linearGradient inkscape:collect="always" xlink:href="#linearGradient4145" id="linearGradient4147-17" x1="48.240433" y1="22.744709" x2="48.240433" y2="-17.955055" gradientUnits="userSpaceOnUse" gradientTransform="matrix(0.35445627,0,0,0.35445627,-33.013875,-18.074016)"/>
    <linearGradient inkscape:collect="always" xlink:href="#linearGradient4247" id="linearGradient5819-5" gradientUnits="userSpaceOnUse" gradientTransform="matrix(0.59058495,0,0,0.59058495,-44.809445,-608.90278)" x1="50.10355" y1="1012.1684" x2="73.355255" y2="1012.1684"/>
    <linearGradient inkscape:collect="always" xlink:href="#linearGradient10165" id="linearGradient10167-5" x1="43.115879" y1="25.525976" x2="1.4625005" y2="25.525976" gradientUnits="userSpaceOnUse" gradientTransform="matrix(0.69559734,0,0,0.69559734,-31.650915,-33.737804)"/>
    <symbol id="flame" viewBox="0 0 12 16">
      <title id="title13945">flame</title>
      <path d="M5.05.31c.81 2.17.41 3.38-.52 4.31C3.55 5.67 1.98 6.45.9 7.98c-1.45 2.05-1.7 6.53 3.53 7.7-2.2-1.16-2.67-4.52-.3-6.61-.61 2.03.53 3.33 1.94 2.86 1.39-.47 2.3.53 2.27 1.67-.02.78-.31 1.44-1.13 1.81 3.42-.59 4.78-3.42 4.78-5.56 0-2.84-2.53-3.22-1.25-5.61-1.52.13-2.03 1.13-1.89 2.75.09 1.08-1.02 1.8-1.86 1.33-.67-.41-.66-1.19-.06-1.78C8.18 5.31 8.68 2.45 5.05.32L5.03.3l.02.01z" id="path13947"/>
    </symbol>
    <symbol id="icon-space-shuttle" viewBox="0 0 34 28">
      <title id="title18373">space-shuttle</title>
      <path d="M9.688 17.5c-1.078 0.625-2.547 1-4.188 1h-2v-1h-1c-0.281 0-0.5-0.562-0.5-1.25 0-0.281 0.047-0.547 0.109-0.766-1.203-0.031-2.109-0.234-2.109-0.484s0.906-0.453 2.109-0.484c-0.063-0.219-0.109-0.484-0.109-0.766 0-0.688 0.219-1.25 0.5-1.25h1v-1h2c1.641 0 3.109 0.375 4.188 1h17.391c1.156 0.203 2.203 0.375 2.922 0.5 3 0.5 4 1.5 4 2s-1 1.5-4 2c-0.719 0.125-1.766 0.297-2.922 0.5h-17.391zM27.172 13.563c0.5 0.344 0.828 0.859 0.828 1.437s-0.328 1.094-0.828 1.437l1.266 0.469c0.641-0.453 1.062-1.141 1.062-1.906s-0.422-1.453-1.062-1.906zM9.766 17.75h15.859s-3.391 0.594-7.125 1.25c-2 0-3.5 1.5-3.5 1.5l-4.5 4.5s-1.516 1-2.5 1h-1.5l-1.453-7.25h0.453c1.594 0 3.109-0.359 4.266-1zM5.5 11.25h-0.453l1.453-7.25h1.5c1.016 0 2 0.5 2.5 1l4.5 4.5c0 0 1.5 1.5 3.5 1.5 3.734 0.656 7.125 1.25 7.125 1.25h-15.859c-1.156-0.641-2.672-1-4.266-1z" id="path18375"/>
    </symbol>
  </defs>
  <sodipodi:namedview pagecolor="#383c4a" bordercolor="#ffffff" borderopacity="0.62745098" objecttolerance="4" gridtolerance="10" guidetolerance="4" inkscape:pageopacity="0" inkscape:pageshadow="2" inkscape:window-width="640" inkscape:window-height="480" id="namedview20" showgrid="true" inkscape:zoom="15.622585" inkscape:cx="269.66731" inkscape:cy="-227.19515" inkscape:current-layer="layer12" inkscape:snap-smooth-nodes="false" showguides="true" borderlayer="true" inkscape:showpageshadow="false" inkscape:guide-bbox="true" guidecolor="#bd4fff" guideopacity="0.78431373" inkscape:snap-nodes="true" inkscape:lockguides="false" fit-margin-top="0" fit-margin-left="0" fit-margin-right="0" fit-margin-bottom="0" guidehicolor="#ff0101" guidehiopacity="0.78431373" inkscape:snap-page="true" inkscape:object-nodes="true" inkscape:snap-bbox="true" inkscape:snap-global="true" inkscape:snap-object-midpoints="false" inkscape:snap-bbox-edge-midpoints="false" inkscape:snap-bbox-midpoints="true">
    <inkscape:grid type="xygrid" id="grid4171" empspacing="4" dotted="false" originx="2.7755576e-17" originy="0" spacingx="1" spacingy="1" color="#5a5a5a" opacity="0.23529412" empcolor="#5a5a5a" empopacity="0.47058824" visible="true"/>
    <inkscape:grid type="axonomgrid" id="grid4699" units="mm" empspacing="4" color="#5a5a5a" opacity="0.23529412" empcolor="#5a5a5a" empopacity="0.47058824" gridanglex="45" gridanglez="45" spacingy="3.7795276" visible="false" originx="1.3228346" originy="1.3228346"/>
    <sodipodi:guide position="48,0" orientation="1,0" id="guide4568" inkscape:locked="false" inkscape:label="" inkscape:color="rgb(189,79,255)"/>
    <sodipodi:guide position="111.99996,-3.9999999e-05" orientation="0,1" id="guide4570" inkscape:locked="false" inkscape:label="" inkscape:color="rgb(189,79,255)"/>
    <sodipodi:guide position="0,0" orientation="1,0" id="guide4572" inkscape:locked="false" inkscape:label="" inkscape:color="rgb(189,79,255)"/>
    <sodipodi:guide position="0,48" orientation="0,1" id="guide4574" inkscape:locked="false" inkscape:label="" inkscape:color="rgb(189,79,255)"/>
    <sodipodi:guide position="0,80" orientation="0,1" id="guide4576" inkscape:locked="false" inkscape:label="" inkscape:color="rgb(189,79,255)"/>
    <sodipodi:guide position="-32,48" orientation="1,0" id="guide4578" inkscape:locked="false" inkscape:label="" inkscape:color="rgb(189,79,255)"/>
    <sodipodi:guide position="-32,104" orientation="0,1" id="guide4580" inkscape:locked="false" inkscape:label="" inkscape:color="rgb(189,79,255)"/>
    <sodipodi:guide position="-56,80" orientation="1,0" id="guide4582" inkscape:locked="false" inkscape:label="" inkscape:color="rgb(189,79,255)"/>
    <sodipodi:guide position="48,-64" orientation="0,1" id="guide4584" inkscape:locked="false" inkscape:label="" inkscape:color="rgb(189,79,255)"/>
    <sodipodi:guide position="0,0" orientation="-0.70710678,0.70710678" id="guide4588" inkscape:locked="false" inkscape:label="" inkscape:color="rgb(189,79,255)"/>
    <sodipodi:guide position="-56,80" orientation="-0.70710678,0.70710678" id="guide4573" inkscape:locked="false" inkscape:label="" inkscape:color="rgb(189,79,255)"/>
    <sodipodi:guide position="-32,48" orientation="-0.70710678,0.70710678" id="guide4575" inkscape:locked="false" inkscape:label="" inkscape:color="rgb(189,79,255)"/>
    <sodipodi:guide position="48,-64" orientation="-0.70710678,0.70710678" id="guide4577" inkscape:locked="false" inkscape:label="" inkscape:color="rgb(189,79,255)"/>
    <sodipodi:guide position="47.999962,0" orientation="0.70710678,0.70710678" id="guide4697" inkscape:locked="false" inkscape:label="" inkscape:color="rgb(189,79,255)"/>
    <sodipodi:guide position="207.99995,-288" orientation="0,1" id="guide7833" inkscape:locked="false"/>
    <sodipodi:guide position="335.99994,-288" orientation="1,0" id="guide7835" inkscape:locked="false" inkscape:label="" inkscape:color="rgb(189,79,255)"/>
    <sodipodi:guide position="111.99996,-64" orientation="1,0" id="guide7915" inkscape:locked="false"/>
    <sodipodi:guide position="111.99996,-160" orientation="0,1" id="guide7917" inkscape:locked="false"/>
    <sodipodi:guide position="207.99996,-160" orientation="1,0" id="guide7919" inkscape:locked="false"/>
    <sodipodi:guide position="111.99996,-160" orientation="-0.70710678,0.70710678" id="guide7921" inkscape:locked="false" inkscape:label="" inkscape:color="rgb(189,79,255)"/>
    <sodipodi:guide position="207.99996,-288" orientation="-0.70710678,0.70710678" id="guide7923" inkscape:locked="false" inkscape:label="" inkscape:color="rgb(189,79,255)"/>
    <sodipodi:guide position="-72,104" orientation="1,0" id="guide7824" inkscape:locked="false"/>
    <sodipodi:guide position="-56,120" orientation="0,1" id="guide7826" inkscape:locked="false"/>
    <sodipodi:guide position="-72,104" orientation="-0.70710678,0.70710678" id="guide7828" inkscape:locked="false" inkscape:label="" inkscape:color="rgb(189,79,255)"/>
  </sodipodi:namedview>
  <g inkscape:groupmode="layer" id="layer2" inkscape:label="icon_24" style="display:inline" transform="translate(56,56)">
    <g inkscape:groupmode="layer" id="layer7" inkscape:label="frame" style="display:none">
      <rect style="color:#000000;clip-rule:nonzero;display:block;overflow:visible;visibility:visible;opacity:1;isolation:auto;mix-blend-mode:normal;color-interpolation:sRGB;color-interpolation-filters:linearRGB;solid-color:#000000;solid-opacity:1;vector-effect:none;fill:#000000;fill-opacity:0.99481865;fill-rule:nonzero;stroke:#ff24f7;stroke-width:0;stroke-linecap:square;stroke-linejoin:miter;stroke-miterlimit:4;stroke-dasharray:none;stroke-dashoffset:0;stroke-opacity:0.99481865;marker:none;marker-start:none;marker-mid:none;marker-end:none;paint-order:normal;color-rendering:auto;image-rendering:auto;shape-rendering:auto;text-rendering:auto;enable-background:accumulate" id="frame_24" width="24" height="24" x="-56" y="-56" inkscape:label="frame_24"/>
      <text id="txt_24" y="-40.041668" x="-50.880211" style="font-size:10.66666698px;line-height:1000%;font-family:sans-serif;letter-spacing:0px;word-spacing:0px;display:inline;opacity:1;fill:#ffffff;fill-opacity:1;stroke:none;stroke-width:0.11166908px;stroke-linecap:butt;stroke-linejoin:miter;stroke-opacity:1" xml:space="preserve" inkscape:label="txt_24">
        <tspan id="tspan4835-2-5" style="font-size:10.66666698px;fill:#ffffff;fill-opacity:1;stroke:none;stroke-width:0.11166908px" y="-40.041668" x="-50.880211" sodipodi:role="line">24</tspan>
      </text>
    </g>
    <g inkscape:groupmode="layer" id="layer8" inkscape:label="icon" style="display:inline">
      <path sodipodi:nodetypes="ccccssccccsc" inkscape:connector-curvature="0" style="display:inline;fill:none;fill-opacity:1;stroke:#000000;stroke-width:1.00871646;stroke-miterlimit:4;stroke-dasharray:none;stroke-opacity:0.11538463" d="m -44.138132,-55.495405 c -3.93681,0.07076 -10.804521,2.809373 -10.804521,4.628531 l -0.04145,6.880632 c 0,4.736098 7.799171,11.372989 10.928868,11.481536 0.0046,2.2e-4 0.0092,0 0.01383,0 h 0.06908 c 0.0041,0 0.0095,1.32e-4 0.01382,0 3.129694,-0.108547 10.942683,-6.745438 10.942683,-11.481536 l -0.06908,-6.880632 c 0,-1.819646 -6.854414,-4.559178 -10.790702,-4.628531 -0.05075,-0.001 -0.116026,0 -0.165799,0 -0.03319,0 -0.06391,-5e-4 -0.09672,0 z" id="path4084-9" inkscape:label="base sombra"/>
      <path sodipodi:nodetypes="ccccssccccsc" inkscape:connector-curvature="0" style="display:inline;opacity:1;vector-effect:none;fill:url(#linearGradient4235-3);fill-opacity:1;stroke:none;stroke-width:0.44294837;stroke-linecap:butt;stroke-linejoin:miter;stroke-miterlimit:4;stroke-dasharray:none;stroke-dashoffset:0;stroke-opacity:0.07853406" d="m -44.138387,-55.516398 c -3.944025,0.07089 -10.824317,2.814521 -10.824317,4.637014 l -0.04153,6.893237 c 0,4.744775 7.813463,11.393827 10.948892,11.502571 0.0046,2.22e-4 0.0092,0 0.01385,0 h 0.06921 c 0.0041,0 0.0095,1.35e-4 0.01385,0 3.135436,-0.108744 10.962737,-6.757796 10.962737,-11.502571 l -0.06921,-6.893237 c 0,-1.822981 -6.866971,-4.567533 -10.810474,-4.637014 -0.05084,-10e-4 -0.116238,0 -0.166101,0 -0.03325,0 -0.06403,-5e-4 -0.09689,0 z" id="path3123-64" inkscape:label="base"/>
      <path inkscape:label="base" id="path39733-33" d="m -44.1416,-55.499713 c -3.944024,0.07089 -10.824316,2.814521 -10.824316,4.637014 l -0.04153,6.893237 c 0,4.744775 7.813464,11.393827 10.948893,11.502571 0.0046,2.22e-4 0.0092,0 0.01385,0 h 0.06921 c 0.0041,0 0.0095,1.35e-4 0.01385,0 3.135437,-0.108744 10.962738,-6.757796 10.962738,-11.502571 l -0.06921,-6.893237 c 0,-1.822981 -6.866972,-4.567533 -10.810474,-4.637014 -0.05084,-10e-4 -0.116239,0 -0.166102,0 -0.03325,0 -0.06403,-5e-4 -0.09689,0 z" style="display:inline;opacity:1;vector-effect:none;fill:url(#linearGradient39735-53);fill-opacity:1;stroke:none;stroke-width:0.44294837;stroke-linecap:butt;stroke-linejoin:miter;stroke-miterlimit:4;stroke-dasharray:none;stroke-dashoffset:0;stroke-opacity:0.07853406" inkscape:connector-curvature="0" sodipodi:nodetypes="ccccssccccsc"/>
      <path style="display:inline;opacity:1;vector-effect:none;fill:#a3eaf1;fill-opacity:0.18681317;stroke:none;stroke-width:0.44294837;stroke-linecap:butt;stroke-linejoin:miter;stroke-miterlimit:4;stroke-dasharray:none;stroke-dashoffset:0;stroke-opacity:0.07853406" d="m -44.138155,-55.516313 c -3.944024,0.07089 -10.824329,2.814271 -10.824329,4.636764 l -0.0415,6.893624 c 0,1.991568 1.378134,4.317449 3.207552,6.355534 a 21.027733,19.762908 0 0 1 18.646673,-13.613419 c -0.792678,-1.802493 -7.037306,-4.207517 -10.725693,-4.272503 -0.05084,-0.001 -0.116156,0 -0.166019,0 -0.03325,0 -0.06381,-5e-4 -0.09668,0 z" id="path4259-38" inkscape:connector-curvature="0"/>
      <path style="display:inline;fill:#000000;fill-opacity:0.17582421;stroke:none;stroke-width:1.95205045;stroke-miterlimit:4;stroke-dasharray:none;stroke-opacity:1" d="m -43.999971,-50.669822 c 3.422425,0 6.17766,2.755235 6.17766,6.17766 0,3.422422 -2.755235,6.17766 -6.17766,6.17766 -3.422424,0 -6.177659,-2.755238 -6.177659,-6.17766 0,-3.422425 2.755235,-6.17766 6.177659,-6.17766 z" id="rect4151-60" inkscape:connector-curvature="0"/>
      <path style="color:#000000;clip-rule:nonzero;display:inline;overflow:visible;visibility:visible;opacity:1;isolation:auto;mix-blend-mode:normal;color-interpolation:sRGB;color-interpolation-filters:linearRGB;solid-color:#000000;solid-opacity:1;vector-effect:none;fill:none;fill-opacity:0.57142861;fill-rule:nonzero;stroke:#000000;stroke-width:0.40000001;stroke-linecap:square;stroke-linejoin:miter;stroke-miterlimit:3.70000005;stroke-dasharray:none;stroke-dashoffset:0;stroke-opacity:0.2857143;marker:none;marker-start:none;marker-mid:none;marker-end:none;paint-order:markers stroke fill;color-rendering:auto;image-rendering:auto;shape-rendering:auto;text-rendering:auto;enable-background:accumulate" d="m -38.368962,-50.533503 c 2.992495,2.992495 0.262203,1.404582 0.262203,5.636609 0,4.232025 2.730292,2.644112 -0.262203,5.636607 -2.992497,2.992498 -1.404584,0.262205 -5.636611,0.262205 -4.232025,0 -2.644112,2.730293 -5.636607,-0.262202 -2.992498,-2.992498 -0.262205,-1.404585 -0.262205,-5.63661 2e-6,-4.23203 -2.730293,-2.644114 0.262205,-5.636611 2.992495,-2.992495 1.404582,-0.262203 5.636607,-0.262203 4.232027,0 2.644114,-2.730292 5.636611,0.262205 z" id="path4257-48" inkscape:connector-curvature="0"/>
      <path style="color:#000000;clip-rule:nonzero;display:inline;overflow:visible;visibility:visible;opacity:1;isolation:auto;mix-blend-mode:normal;color-interpolation:sRGB;color-interpolation-filters:linearRGB;solid-color:#000000;solid-opacity:1;vector-effect:none;fill:#d5d5d5;fill-opacity:1;fill-rule:nonzero;stroke:none;stroke-width:0.50000501;stroke-linecap:square;stroke-linejoin:miter;stroke-miterlimit:3.70000005;stroke-dasharray:none;stroke-dashoffset:0;stroke-opacity:0.98901098;marker:none;marker-start:none;marker-mid:none;marker-end:none;paint-order:markers stroke fill;color-rendering:auto;image-rendering:auto;shape-rendering:auto;text-rendering:auto;enable-background:accumulate" d="m -38.368962,-50.533503 c 2.992495,2.992495 0.262203,1.404582 0.262203,5.636609 0,4.232025 2.730292,2.644112 -0.262203,5.636607 -2.992497,2.992498 -1.404584,0.262205 -5.636611,0.262205 -4.232025,0 -2.644112,2.730293 -5.636607,-0.262202 -2.992498,-2.992498 -0.262205,-1.404585 -0.262205,-5.63661 2e-6,-4.23203 -2.730293,-2.644114 0.262205,-5.636611 2.992495,-2.992495 1.404582,-0.262203 5.636607,-0.262203 4.232027,0 2.644114,-2.730292 5.636611,0.262205 z" id="path4255-8" inkscape:connector-curvature="0"/>
      <path style="display:inline;fill:url(#linearGradient4147-5);fill-opacity:1;stroke:none;stroke-width:1.95205045;stroke-miterlimit:4;stroke-dasharray:none;stroke-opacity:1" d="m -43.999971,-50.935662 c 3.422425,0 6.17766,2.755235 6.17766,6.177657 0,3.422425 -2.755235,6.17766 -6.17766,6.17766 -3.422424,0 -6.177659,-2.755235 -6.177659,-6.17766 0,-3.422422 2.755235,-6.177657 6.177659,-6.177657 z" id="rect4086-8" inkscape:connector-curvature="0"/>
      <path style="color:#000000;clip-rule:nonzero;display:inline;overflow:visible;visibility:visible;opacity:1;isolation:auto;mix-blend-mode:normal;color-interpolation:sRGB;color-interpolation-filters:linearRGB;solid-color:#000000;solid-opacity:1;fill:url(#linearGradient4720-57);fill-opacity:1;fill-rule:nonzero;stroke:none;stroke-width:0.04742445;stroke-linecap:round;stroke-linejoin:miter;stroke-miterlimit:4;stroke-dasharray:none;stroke-dashoffset:0;stroke-opacity:1;marker:none;marker-start:none;marker-mid:none;marker-end:none;paint-order:normal;color-rendering:auto;image-rendering:auto;shape-rendering:auto;text-rendering:auto;enable-background:accumulate" d="m -41.543576,-44.750157 a 2.4563948,2.4563948 0 0 1 -2.456395,2.456395 2.4563948,2.4563948 0 0 1 -2.456394,-2.456395 2.4563948,2.4563948 0 0 1 2.456394,-2.456395 2.4563948,2.4563948 0 0 1 2.456395,2.456395 z" id="circle4718-9" inkscape:connector-curvature="0"/>
      <path style="color:#000000;clip-rule:nonzero;display:inline;overflow:visible;visibility:visible;opacity:1;isolation:auto;mix-blend-mode:normal;color-interpolation:sRGB;color-interpolation-filters:linearRGB;solid-color:#000000;solid-opacity:1;fill:#494949;fill-opacity:1;fill-rule:nonzero;stroke:none;stroke-width:0.30125305;stroke-linecap:round;stroke-linejoin:miter;stroke-miterlimit:4;stroke-dasharray:none;stroke-dashoffset:0;stroke-opacity:0.40659341;marker:none;marker-start:none;marker-mid:none;marker-end:none;paint-order:normal;color-rendering:auto;image-rendering:auto;shape-rendering:auto;text-rendering:auto;enable-background:accumulate" d="m -45,-48 h 2 v 4 l -1,1 1,1 v 1 h -2 l -3.8e-5,-4 1.000038,-1 -1,-1 z" id="rect5850-77" inkscape:connector-curvature="0" sodipodi:nodetypes="ccccccccccc" inkscape:label="llave ojo"/>
      <path style="display:inline;fill:none;fill-opacity:1;stroke:url(#linearGradient4210-21);stroke-width:0.56540787;stroke-miterlimit:4;stroke-dasharray:none;stroke-opacity:1" d="m -43.999971,-50.651352 c 3.264916,0 5.893347,2.628434 5.893347,5.89335 0,3.264913 -2.628431,5.893347 -5.893347,5.893347 -3.264913,0 -5.893347,-2.628434 -5.893347,-5.893347 0,-3.264916 2.628434,-5.89335 5.893347,-5.89335 z" id="rect4184-43" inkscape:connector-curvature="0"/>
      <path inkscape:connector-curvature="0" id="path5815-030" d="m -43.979911,-55.516613 v 23.033107 h 0.0077 c 0.0041,0 0.009,1.32e-4 0.01337,0 3.135436,-0.108744 10.962965,-6.757928 10.962965,-11.502701 l -0.06878,-6.893407 c 0,-1.822981 -6.867569,-4.567518 -10.811069,-4.636999 -0.03203,-5e-4 -0.06806,-1.85e-4 -0.104128,0 z" style="display:inline;opacity:0.43859648;fill:url(#linearGradient5819-75);fill-opacity:1;stroke:none;stroke-width:0.44294837;stroke-opacity:0.07853406" inkscape:label="base derecho"/>
      <path id="path4706-92" d="m -44.135255,-55.255885 c -3.854781,0.06929 -10.579394,2.750835 -10.579394,4.53209 l -0.04059,6.737265 c 0,4.637415 7.636664,11.13602 10.70115,11.242301 0.0045,2.18e-4 0.009,0 0.01353,0 h 0.06764 c 0.004,0 0.0093,1.3e-4 0.01353,0 3.064483,-0.106281 10.714677,-6.604886 10.714677,-11.242301 l -0.06764,-6.737265 c 0,-1.78173 -6.711592,-4.464182 -10.565864,-4.53209 -0.04969,-10e-4 -0.113608,0 -0.162341,0 -0.0325,0 -0.06258,-5e-4 -0.0947,0 z" style="display:inline;fill:none;fill-opacity:1;stroke:url(#linearGradient10167-4);stroke-width:0.98769861;stroke-miterlimit:4;stroke-dasharray:none;stroke-opacity:1" inkscape:connector-curvature="0" sodipodi:nodetypes="ccccssccccsc" inkscape:label="base borde blanco"/>
      <path style="color:#000000;font-style:normal;font-variant:normal;font-weight:normal;font-stretch:normal;font-size:medium;line-height:normal;font-family:sans-serif;font-variant-ligatures:normal;font-variant-position:normal;font-variant-caps:normal;font-variant-numeric:normal;font-variant-alternates:normal;font-feature-settings:normal;text-indent:0;text-align:start;text-decoration:none;text-decoration-line:none;text-decoration-style:solid;text-decoration-color:#000000;letter-spacing:normal;word-spacing:normal;text-transform:none;writing-mode:lr-tb;direction:ltr;text-orientation:mixed;dominant-baseline:auto;baseline-shift:baseline;text-anchor:start;white-space:normal;shape-padding:0;clip-rule:nonzero;display:inline;overflow:visible;visibility:visible;opacity:1;isolation:auto;mix-blend-mode:normal;color-interpolation:sRGB;color-interpolation-filters:linearRGB;solid-color:#000000;solid-opacity:1;vector-effect:none;fill:#060606;fill-opacity:0.45054985;fill-rule:nonzero;stroke:none;stroke-width:0.98769861;stroke-linecap:butt;stroke-linejoin:miter;stroke-miterlimit:4;stroke-dasharray:none;stroke-dashoffset:0;stroke-opacity:1;color-rendering:auto;image-rendering:auto;shape-rendering:auto;text-rendering:auto;enable-background:accumulate" d="m -44.141575,-55.499713 0.0064,0.7378 -0.0049,-0.7378 c -5e-4,0 -10e-4,-5e-6 -0.0015,0 z m 0.01318,0.7378 c -0.0029,5.3e-5 -0.0059,5e-4 -0.0088,5e-4 l 0.002,0.249515 -0.0025,-0.249515 c -1.817665,0.03514 -4.433874,0.706207 -6.543033,1.585466 -1.056673,0.440502 -1.990918,0.934267 -2.632351,1.401382 -0.641432,0.467114 -0.907725,0.916209 -0.907725,1.050793 v 0.0015 l -0.04053,6.735907 c 0,0.0083 0.0015,0.01708 0.0015,0.02539 l 0.03906,-6.511296 v -0.0015 c 0,-0.134584 0.266293,-0.583678 0.907725,-1.050793 0.641433,-0.467115 1.575678,-0.96088 2.632351,-1.401381 2.112659,-0.880719 4.73429,-1.552869 6.552311,-1.585954 5e-4,-7e-6 0.0015,8e-6 0.002,0 0.02287,-2.5e-4 0.04971,0 0.08594,0 0.05465,0 0.117369,-7.5e-4 0.153812,0 1.817668,0.03203 4.43653,0.703937 6.546453,1.584979 1.054961,0.440519 1.987763,0.934704 2.627954,1.401869 0.640194,0.467162 0.906259,0.915891 0.906259,1.05128 v 0.0025 l 0.06543,6.524968 c 1.47e-4,-0.01297 0.002,-0.02663 0.002,-0.03955 l -0.06736,-6.735428 v -0.0025 c 0,-0.135387 -0.266068,-0.584116 -0.906259,-1.051278 -0.640192,-0.467155 -1.572996,-0.961343 -2.627957,-1.401862 -2.109921,-0.881039 -4.728782,-1.552951 -6.546451,-1.584978 -0.03645,-7.5e-4 -0.09917,0 -0.153811,0 -0.03623,0 -0.06307,-2.5e-4 -0.08594,0 -5e-4,7e-6 -0.0015,-5e-6 -0.002,0 z" id="path4098-5" inkscape:connector-curvature="0" sodipodi:nodetypes="cccccccccsssccccsssccscsssccccscscsccc" inkscape:label="base borde blanco sombra"/>
    </g>
  </g>
</svg>