<?xml version="1.0" encoding="UTF-8" standalone="yes"?>
<svg xmlns:osb="http://www.openswatchbook.org/uri/2009/osb" xmlns:dc="http://purl.org/dc/elements/1.1/" xmlns:cc="http://creativecommons.org/ns#" xmlns:rdf="http://www.w3.org/1999/02/22-rdf-syntax-ns#" xmlns:svg="http://www.w3.org/2000/svg" xmlns="http://www.w3.org/2000/svg" xmlns:xlink="http://www.w3.org/1999/xlink" xmlns:sodipodi="http://sodipodi.sourceforge.net/DTD/sodipodi-0.dtd" xmlns:inkscape="http://www.inkscape.org/namespaces/inkscape" height="128" viewBox="0 0 128 128" width="128" id="svg2" version="1.1" inkscape:version="0.92.2 5c3e80d, 2017-08-06" sodipodi:docname="drive-harddisk.svg" enable-background="new" folder="128">
  <title id="title4675">Template icons dark</title>
  <metadata id="metadata24">
    <rdf:RDF>
      <cc:Work rdf:about="">
        <dc:format>image/svg+xml</dc:format>
        <dc:type rdf:resource="http://purl.org/dc/dcmitype/StillImage"/>
        <dc:title>Template icons dark</dc:title>
        <dc:date>17/05/13</dc:date>
        <dc:creator>
          <cc:Agent>
            <dc:title>wfpaisa</dc:title>
          </cc:Agent>
        </dc:creator>
        <dc:rights>
          <cc:Agent>
            <dc:title>License: GPLv3</dc:title>
          </cc:Agent>
        </dc:rights>
        <dc:language>es-en</dc:language>
        <dc:subject>
          <rdf:Bag>
            <rdf:li>plane-icon-theme</rdf:li>
          </rdf:Bag>
        </dc:subject>
        <dc:description>Template for create set icons</dc:description>
        <cc:license rdf:resource="https://www.gnu.org/licenses/gpl-3.0.en.html"/>
      </cc:Work>
    </rdf:RDF>
  </metadata>
  <defs id="defs22">
    <linearGradient inkscape:collect="always" xlink:href="#linearGradient8023" id="linearGradient8081" gradientUnits="userSpaceOnUse" x1="9.5855684" y1="4.484941" x2="37.77005" y2="43.886402" gradientTransform="matrix(0.66666642,0,0,0.66666642,-31.833331,-31.999993)"/>
    <linearGradient inkscape:collect="always" id="linearGradient8023">
      <stop style="stop-color:#e1e3e7;stop-opacity:1;" offset="0" id="stop8019"/>
      <stop id="stop8031" offset="0.21010877" style="stop-color:#dee1e4;stop-opacity:1"/>
      <stop id="stop8029" offset="0.37979186" style="stop-color:#f1f2f3;stop-opacity:1"/>
      <stop id="stop8027" offset="0.66977036" style="stop-color:#c2c6cd;stop-opacity:1"/>
      <stop style="stop-color:#d7dadf;stop-opacity:1" offset="1" id="stop8021"/>
    </linearGradient>
    <linearGradient inkscape:collect="always" xlink:href="#linearGradient8023" id="linearGradient8025" x1="9" y1="3.99999" x2="37.228348" y2="43.999989" gradientUnits="userSpaceOnUse"/>
    <linearGradient gradientTransform="matrix(2.0982376,0,0,2.0982376,109.7053,109.70531)" inkscape:collect="always" xlink:href="#linearGradient8023" id="linearGradient8025-5" x1="9.1956701" y1="4.4297605" x2="37.228348" y2="43.999989" gradientUnits="userSpaceOnUse"/>
    <linearGradient inkscape:collect="always" xlink:href="#linearGradient8023" id="linearGradient8081-1" gradientUnits="userSpaceOnUse" x1="9.5855684" y1="4.484941" x2="37.77005" y2="43.886402" gradientTransform="matrix(0.66666642,0,0,0.66666642,-59.833331,-59.999993)"/>
    <linearGradient gradientTransform="matrix(1.5259977,0,0,1.5259977,43.634553,43.421777)" inkscape:collect="always" xlink:href="#linearGradient8023" id="linearGradient8025-5-93" x1="9.1956701" y1="4.4297605" x2="37.228348" y2="43.999989" gradientUnits="userSpaceOnUse"/>
    <linearGradient inkscape:collect="always" xlink:href="#linearGradient1484" id="linearGradient1486" x1="160.06299" y1="200" x2="160" y2="196.53442" gradientUnits="userSpaceOnUse"/>
    <linearGradient inkscape:collect="always" id="linearGradient1484">
      <stop id="stop1482" offset="0" style="stop-color:#eeda60;stop-opacity:1"/>
      <stop id="stop1480" offset="1" style="stop-color:#db9918;stop-opacity:1"/>
    </linearGradient>
    <linearGradient gradientTransform="matrix(2.0982376,0,0,2.0982376,109.7053,109.70531)" inkscape:collect="always" xlink:href="#linearGradient8023" id="linearGradient8025-5-3" x1="9.1956701" y1="4.4297605" x2="37.228348" y2="43.999989" gradientUnits="userSpaceOnUse"/>
    <linearGradient gradientTransform="matrix(2.8612458,0,0,2.8612458,203.44353,204.4619)" inkscape:collect="always" xlink:href="#linearGradient8023" id="linearGradient8025-5-9" x1="9.1956701" y1="4.4297605" x2="37.228348" y2="43.999989" gradientUnits="userSpaceOnUse"/>
    <linearGradient gradientTransform="matrix(1.3636424,0,0,1.3636424,53.84472,54.86309)" inkscape:collect="always" xlink:href="#linearGradient1484" id="linearGradient1486-3" x1="160.06299" y1="200" x2="160" y2="196.53442" gradientUnits="userSpaceOnUse"/>
    <linearGradient gradientTransform="translate(-3,444.00001)" inkscape:collect="always" xlink:href="#default_color" id="linearGradient849" x1="3" y1="-436.5" x2="15.000001" y2="-436.5" gradientUnits="userSpaceOnUse"/>
    <linearGradient id="default_color" osb:paint="solid">
      <stop style="stop-color:#000000;stop-opacity:1;" offset="0" id="stop845"/>
    </linearGradient>
    <linearGradient gradientTransform="translate(-229,231.00001)" inkscape:collect="always" xlink:href="#default_color" id="linearGradient849-5" x1="3" y1="-436.5" x2="15.000001" y2="-436.5" gradientUnits="userSpaceOnUse"/>
    <linearGradient gradientTransform="translate(-10,442.00002)" inkscape:collect="always" xlink:href="#default_color" id="linearGradient849-9" x1="3" y1="-436.5" x2="15.000001" y2="-436.5" gradientUnits="userSpaceOnUse"/>
    <linearGradient inkscape:collect="always" xlink:href="#default_color" id="linearGradient944" x1="3" y1="-436.5" x2="15.000001" y2="-436.5" gradientUnits="userSpaceOnUse"/>
    <linearGradient inkscape:collect="always" xlink:href="#default_color" id="linearGradient1074" gradientUnits="userSpaceOnUse" gradientTransform="translate(-72.97638,373.00001)" x1="3" y1="-436.5" x2="15.000001" y2="-436.5"/>
    <linearGradient inkscape:collect="always" xlink:href="#default_color" id="linearGradient8185" gradientUnits="userSpaceOnUse" gradientTransform="matrix(0.66666663,0,0,0.66666667,34.847589,62.000001)" x1="-153.4238" y1="-84" x2="-129.4238" y2="-84"/>
  </defs>
  <sodipodi:namedview pagecolor="#ffffff" bordercolor="#ffffff" borderopacity="0.62745098" objecttolerance="4" gridtolerance="10" guidetolerance="4" inkscape:pageopacity="0" inkscape:pageshadow="2" inkscape:window-width="640" inkscape:window-height="480" id="namedview20" showgrid="true" inkscape:zoom="23.10501" inkscape:cx="11.197762" inkscape:cy="27.375777" inkscape:current-layer="layer9" inkscape:snap-smooth-nodes="false" showguides="true" borderlayer="true" inkscape:showpageshadow="false" inkscape:guide-bbox="true" guidecolor="#bd4fff" guideopacity="0.78431373" inkscape:snap-nodes="true" inkscape:lockguides="false" fit-margin-top="0" fit-margin-left="0" fit-margin-right="0" fit-margin-bottom="0" guidehicolor="#ff0101" guidehiopacity="0.78431373" inkscape:snap-page="true" inkscape:object-nodes="true" inkscape:snap-bbox="true" inkscape:snap-global="true" inkscape:snap-object-midpoints="false" inkscape:snap-bbox-edge-midpoints="false">
    <inkscape:grid type="xygrid" id="grid4171" empspacing="4" dotted="false" originx="2.7755576e-17" originy="0" spacingx="1" spacingy="1" color="#5a5a5a" opacity="0.23529412" empcolor="#5a5a5a" empopacity="0.47058824" visible="true"/>
    <inkscape:grid type="axonomgrid" id="grid4699" units="mm" empspacing="4" color="#5a5a5a" opacity="0.23529412" empcolor="#5a5a5a" empopacity="0.47058824" gridanglex="45" gridanglez="45" spacingy="3.7795276" visible="false" originx="1.3228346" originy="1.3228346"/>
    <sodipodi:guide position="48,0" orientation="1,0" id="guide4568" inkscape:locked="false" inkscape:label="" inkscape:color="rgb(189,79,255)"/>
    <sodipodi:guide position="111.99996,-3.9999999e-05" orientation="0,1" id="guide4570" inkscape:locked="false" inkscape:label="" inkscape:color="rgb(189,79,255)"/>
    <sodipodi:guide position="0,0" orientation="1,0" id="guide4572" inkscape:locked="false" inkscape:label="" inkscape:color="rgb(189,79,255)"/>
    <sodipodi:guide position="0,48" orientation="0,1" id="guide4574" inkscape:locked="false" inkscape:label="" inkscape:color="rgb(189,79,255)"/>
    <sodipodi:guide position="0,80" orientation="0,1" id="guide4576" inkscape:locked="false" inkscape:label="" inkscape:color="rgb(189,79,255)"/>
    <sodipodi:guide position="-32,48" orientation="1,0" id="guide4578" inkscape:locked="false" inkscape:label="" inkscape:color="rgb(189,79,255)"/>
    <sodipodi:guide position="-32,104" orientation="0,1" id="guide4580" inkscape:locked="false" inkscape:label="" inkscape:color="rgb(189,79,255)"/>
    <sodipodi:guide position="-56,80" orientation="1,0" id="guide4582" inkscape:locked="false" inkscape:label="" inkscape:color="rgb(189,79,255)"/>
    <sodipodi:guide position="48,-64" orientation="0,1" id="guide4584" inkscape:locked="false" inkscape:label="" inkscape:color="rgb(189,79,255)"/>
    <sodipodi:guide position="0,0" orientation="-0.70710678,0.70710678" id="guide4588" inkscape:locked="false" inkscape:label="" inkscape:color="rgb(189,79,255)"/>
    <sodipodi:guide position="-56,80" orientation="-0.70710678,0.70710678" id="guide4573" inkscape:locked="false" inkscape:label="" inkscape:color="rgb(189,79,255)"/>
    <sodipodi:guide position="-32,48" orientation="-0.70710678,0.70710678" id="guide4575" inkscape:locked="false" inkscape:label="" inkscape:color="rgb(189,79,255)"/>
    <sodipodi:guide position="48,-64" orientation="-0.70710678,0.70710678" id="guide4577" inkscape:locked="false" inkscape:label="" inkscape:color="rgb(189,79,255)"/>
    <sodipodi:guide position="47.999962,0" orientation="0.70710678,0.70710678" id="guide4697" inkscape:locked="false" inkscape:label="" inkscape:color="rgb(189,79,255)"/>
    <sodipodi:guide position="207.99995,-288" orientation="0,1" id="guide7833" inkscape:locked="false"/>
    <sodipodi:guide position="335.99994,-288" orientation="1,0" id="guide7835" inkscape:locked="false" inkscape:label="" inkscape:color="rgb(189,79,255)"/>
    <sodipodi:guide position="111.99996,-64" orientation="1,0" id="guide7915" inkscape:locked="false"/>
    <sodipodi:guide position="111.99996,-160" orientation="0,1" id="guide7917" inkscape:locked="false"/>
    <sodipodi:guide position="207.99996,-160" orientation="1,0" id="guide7919" inkscape:locked="false"/>
    <sodipodi:guide position="111.99996,-160" orientation="-0.70710678,0.70710678" id="guide7921" inkscape:locked="false" inkscape:label="" inkscape:color="rgb(189,79,255)"/>
    <sodipodi:guide position="207.99996,-288" orientation="-0.70710678,0.70710678" id="guide7923" inkscape:locked="false" inkscape:label="" inkscape:color="rgb(189,79,255)"/>
    <sodipodi:guide position="-72,104" orientation="1,0" id="guide7824" inkscape:locked="false"/>
    <sodipodi:guide position="-56,120" orientation="0,1" id="guide7826" inkscape:locked="false"/>
    <sodipodi:guide position="-72,104" orientation="-0.70710678,0.70710678" id="guide7828" inkscape:locked="false" inkscape:label="" inkscape:color="rgb(189,79,255)"/>
  </sodipodi:namedview>
  <g inkscape:groupmode="layer" id="layer4" inkscape:label="icon_128" style="display:inline" transform="translate(-207.99995,-208)">
    <g inkscape:groupmode="layer" id="layer11" inkscape:label="frame" style="display:none">
      <rect inkscape:label="frame_128" y="208" x="207.99995" height="128" width="128" id="frame_128" style="color:#000000;clip-rule:nonzero;display:inline;overflow:visible;visibility:visible;opacity:1;isolation:auto;mix-blend-mode:normal;color-interpolation:sRGB;color-interpolation-filters:linearRGB;solid-color:#000000;solid-opacity:1;vector-effect:none;fill:#000000;fill-opacity:1;fill-rule:nonzero;stroke:#ff24f7;stroke-width:0;stroke-linecap:square;stroke-linejoin:miter;stroke-miterlimit:4;stroke-dasharray:none;stroke-dashoffset:0;stroke-opacity:0.99481865;marker:none;marker-start:none;marker-mid:none;marker-end:none;paint-order:normal;color-rendering:auto;image-rendering:auto;shape-rendering:auto;text-rendering:auto;enable-background:accumulate"/>
      <text xml:space="preserve" style="font-size:38.46457672px;line-height:0%;font-family:sans-serif;letter-spacing:0px;word-spacing:0px;display:inline;opacity:1;fill:#ffffff;fill-opacity:1;stroke:none;stroke-width:0.07881754px;stroke-linecap:butt;stroke-linejoin:miter;stroke-opacity:1" x="236.17479" y="283.34512" id="txt_128" inkscape:label="txt_128">
        <tspan sodipodi:role="line" x="236.17479" y="283.34512" style="font-size:38.46457672px;line-height:0%;fill:#ffffff;fill-opacity:1;stroke:none;stroke-width:0.07881754px" id="tspan5069-6">128</tspan>
      </text>
      <text xml:space="preserve" style="font-size:7.43228436px;line-height:1000%;font-family:sans-serif;letter-spacing:0px;word-spacing:0px;display:inline;opacity:1;fill:#ffffff;fill-opacity:0.42156863;stroke:none;stroke-width:0.16398695px;stroke-linecap:butt;stroke-linejoin:miter;stroke-opacity:1" x="265.97781" y="330.1329" id="txt_scalable_64_512" inkscape:label="txt_scalable_64_512">
        <tspan sodipodi:role="line" x="265.97781" y="330.1329" style="font-size:8.08990479px;fill:#ffffff;fill-opacity:0.42156863;stroke:none;stroke-width:0.16398695px" id="tspan5049-1-6-6">Scalable:96-512</tspan>
      </text>
    </g>
    <g inkscape:groupmode="layer" id="layer12" inkscape:label="icon" style="display:inline">
      <path inkscape:connector-curvature="0" id="path946-6" d="m 226,213 v 120 h 23 l 4,-4 38.11862,-0.0448 L 295,333 h 23 V 213 Z" style="display:inline;opacity:0.05;vector-effect:none;fill:url(#linearGradient849);fill-opacity:1;stroke:none;stroke-width:0.12990442;stroke-linecap:round;stroke-linejoin:round;stroke-miterlimit:4;stroke-dasharray:none;stroke-dashoffset:0;stroke-opacity:0.96354167;marker:none;marker-start:none;marker-mid:none;marker-end:none;paint-order:normal" sodipodi:nodetypes="ccccccccc" inkscape:label="base sombra"/>
      <path sodipodi:nodetypes="ccccccccc" style="display:inline;opacity:1;vector-effect:none;fill:#8b93a1;fill-opacity:1;stroke:none;stroke-width:2.86124563;stroke-linecap:butt;stroke-linejoin:miter;stroke-miterlimit:4;stroke-dasharray:none;stroke-dashoffset:0;stroke-opacity:0.23979594" d="m 227,214 v 118 h 22 l 6.99999,-10 h 31.98426 L 295,332 h 22 V 214 Z" id="path8033-93-2" inkscape:connector-curvature="0" inkscape:label="borde negro"/>
      <path inkscape:connector-curvature="0" id="rect4517-7-2-7-6" d="m 228,215 0.0945,116 H 249 l 7.03558,-8.99996 L 287.98426,322 295,331 h 21 V 215 Z" style="display:inline;opacity:1;fill:url(#linearGradient8025-5-9);fill-opacity:1;stroke:none;stroke-width:2.86124563;stroke-linecap:butt;stroke-linejoin:miter;stroke-miterlimit:4;stroke-dasharray:none;stroke-dashoffset:0;stroke-opacity:0.23979594" sodipodi:nodetypes="ccccccccc" inkscape:label="base"/>
      <path style="display:inline;fill:#6c7587;fill-opacity:1;fill-rule:evenodd;stroke:none;stroke-width:2.86124611px;stroke-linecap:butt;stroke-linejoin:miter;stroke-opacity:1" d="m 256,322 -4.23947,6 H 293 l -5,-6 z" id="path8005-5-1" inkscape:connector-curvature="0" sodipodi:nodetypes="ccccc" inkscape:label="baquelita"/>
      <path style="color:#000000;clip-rule:nonzero;display:block;overflow:visible;visibility:visible;opacity:1;isolation:auto;mix-blend-mode:normal;color-interpolation:sRGB;color-interpolation-filters:linearRGB;solid-color:#000000;solid-opacity:1;vector-effect:none;fill:url(#linearGradient1486-3);fill-opacity:1;fill-rule:nonzero;stroke:none;stroke-width:0.37168846;stroke-linecap:round;stroke-linejoin:round;stroke-miterlimit:4;stroke-dasharray:none;stroke-dashoffset:0;stroke-opacity:0.96354167;marker:none;marker-start:none;marker-mid:none;marker-end:none;paint-order:normal;color-rendering:auto;image-rendering:auto;shape-rendering:auto;text-rendering:auto;enable-background:accumulate" d="M 256.03558,322.00004 256,328 h 2 v -6 z M 261,322 v 6 h 2 v -6 z m 5,0 v 6 h 2 v -6 z m 10,0 v 6 h 2 v -6 z m 5.00788,0 -0.008,6 h 2 v -6 z M 286,322 v 6 h 2 l -0.0158,-6 z" id="rect8007-2-8" inkscape:connector-curvature="0" inkscape:label="contactos" sodipodi:nodetypes="cccccccccccccccccccccccccccccc"/>
      <path sodipodi:nodetypes="ccccc" inkscape:connector-curvature="0" id="path8207-8-7" d="m 256,322 -2,3 h 36.4567 L 288,322 Z" style="display:inline;fill:#000000;fill-opacity:0.24725276;fill-rule:evenodd;stroke:none;stroke-width:2.01006174px;stroke-linecap:butt;stroke-linejoin:miter;stroke-opacity:1" inkscape:label="baquelita sombra"/>
      <path style="color:#000000;clip-rule:nonzero;display:block;overflow:visible;visibility:visible;opacity:1;isolation:auto;mix-blend-mode:normal;color-interpolation:sRGB;color-interpolation-filters:linearRGB;solid-color:#000000;solid-opacity:1;vector-effect:none;fill:#000000;fill-opacity:0.07843137;fill-rule:nonzero;stroke:none;stroke-width:0.25980884;stroke-linecap:round;stroke-linejoin:round;stroke-miterlimit:4;stroke-dasharray:none;stroke-dashoffset:0;stroke-opacity:0.96354167;marker:none;marker-start:none;marker-mid:none;marker-end:none;paint-order:normal;color-rendering:auto;image-rendering:auto;shape-rendering:auto;text-rendering:auto;enable-background:accumulate" d="m 249,239 h 46 v 68 h -46 z" id="rect8154-3-4-9" inkscape:connector-curvature="0" sodipodi:nodetypes="ccccc" inkscape:label="centro recuadro"/>
      <path style="color:#000000;clip-rule:nonzero;display:inline;overflow:visible;visibility:visible;opacity:1;isolation:auto;mix-blend-mode:normal;color-interpolation:sRGB;color-interpolation-filters:linearRGB;solid-color:#000000;solid-opacity:1;vector-effect:none;fill:#ffffff;fill-opacity:0.5;fill-rule:nonzero;stroke:none;stroke-width:1.36364233;stroke-linecap:square;stroke-linejoin:miter;stroke-miterlimit:4;stroke-dasharray:2.72728475, 2.72728475;stroke-dashoffset:9.73946476;stroke-opacity:1;marker:none;marker-start:none;marker-mid:none;marker-end:none;paint-order:markers stroke fill;color-rendering:auto;image-rendering:auto;shape-rendering:auto;text-rendering:auto;enable-background:accumulate" d="m 249,307 h 46 v 1 h -46 z" id="rect956-0" inkscape:connector-curvature="0" inkscape:label="centro recuadro brillo inf" sodipodi:nodetypes="ccccc"/>
      <path sodipodi:nodetypes="sssss" inkscape:connector-curvature="0" id="path936-2" d="m 233.84552,273.04587 c 1.51373,0 2.7324,1.21865 2.7324,2.7324 0,1.51373 -1.21867,2.73238 -2.7324,2.73238 -1.51374,0 -2.7324,-1.21865 -2.7324,-2.73238 0,-1.51375 1.21866,-2.7324 2.7324,-2.7324 z" style="display:inline;opacity:1;fill:#737373;fill-opacity:1;stroke:none;stroke-width:3.64319348;stroke-linecap:butt;stroke-linejoin:miter;stroke-miterlimit:4;stroke-dasharray:none;stroke-dashoffset:0;stroke-opacity:0.64313725" inkscape:label="tornillo"/>
      <path style="display:inline;opacity:1;fill:#737373;fill-opacity:1;stroke:none;stroke-width:3.64319348;stroke-linecap:butt;stroke-linejoin:miter;stroke-miterlimit:4;stroke-dasharray:none;stroke-dashoffset:0;stroke-opacity:0.64313725" d="m 233.84552,322.137 c 1.51373,0 2.7324,1.21865 2.7324,2.7324 0,1.51373 -1.21867,2.73238 -2.7324,2.73238 -1.51374,0 -2.7324,-1.21865 -2.7324,-2.73238 0,-1.51375 1.21866,-2.7324 2.7324,-2.7324 z" id="path938-3" inkscape:connector-curvature="0" sodipodi:nodetypes="sssss" inkscape:label="tornillo"/>
      <path sodipodi:nodetypes="sssss" inkscape:connector-curvature="0" id="path940-7" d="m 310.20949,218.50018 c 1.51374,0 2.7324,1.21864 2.7324,2.73239 0,1.51374 -1.21866,2.73239 -2.7324,2.73239 -1.51373,0 -2.7324,-1.21865 -2.7324,-2.73239 0,-1.51375 1.21867,-2.73239 2.7324,-2.73239 z" style="display:inline;opacity:1;fill:#737373;fill-opacity:1;stroke:none;stroke-width:3.64319348;stroke-linecap:butt;stroke-linejoin:miter;stroke-miterlimit:4;stroke-dasharray:none;stroke-dashoffset:0;stroke-opacity:0.64313725" inkscape:label="tornillo"/>
      <path style="display:inline;opacity:1;fill:#737373;fill-opacity:1;stroke:none;stroke-width:3.64319348;stroke-linecap:butt;stroke-linejoin:miter;stroke-miterlimit:4;stroke-dasharray:none;stroke-dashoffset:0;stroke-opacity:0.64313725" d="m 310.20949,273.04587 c 1.51374,0 2.7324,1.21865 2.7324,2.7324 0,1.51373 -1.21866,2.73238 -2.7324,2.73238 -1.51373,0 -2.7324,-1.21865 -2.7324,-2.73238 0,-1.51375 1.21867,-2.7324 2.7324,-2.7324 z" id="path942-5" inkscape:connector-curvature="0" sodipodi:nodetypes="sssss" inkscape:label="tornillo"/>
      <path sodipodi:nodetypes="sssss" inkscape:connector-curvature="0" id="path944-9" d="m 310.20949,322.137 c 1.51374,0 2.7324,1.21865 2.7324,2.7324 0,1.51373 -1.21866,2.73238 -2.7324,2.73238 -1.51373,0 -2.7324,-1.21865 -2.7324,-2.73238 0,-1.51375 1.21867,-2.7324 2.7324,-2.7324 z" style="display:inline;opacity:1;fill:#737373;fill-opacity:1;stroke:none;stroke-width:3.64319348;stroke-linecap:butt;stroke-linejoin:miter;stroke-miterlimit:4;stroke-dasharray:none;stroke-dashoffset:0;stroke-opacity:0.64313725" inkscape:label="tornillo"/>
      <path sodipodi:nodetypes="sssss" inkscape:connector-curvature="0" id="rect4617-5-3-9-68-2" d="m 233.84552,218.50018 c 1.51373,0 2.7324,1.21864 2.7324,2.73239 0,1.51374 -1.21867,2.73239 -2.7324,2.73239 -1.51374,0 -2.7324,-1.21865 -2.7324,-2.73239 0,-1.51375 1.21866,-2.73239 2.7324,-2.73239 z" style="display:inline;opacity:1;fill:#737373;fill-opacity:1;stroke:none;stroke-width:3.64319348;stroke-linecap:butt;stroke-linejoin:miter;stroke-miterlimit:4;stroke-dasharray:none;stroke-dashoffset:0;stroke-opacity:0.64313725" inkscape:label="tornillo"/>
      <path style="display:inline;opacity:1;fill:#000000;fill-opacity:0.46153846;stroke:none;stroke-width:3.64319348;stroke-linecap:butt;stroke-linejoin:miter;stroke-miterlimit:4;stroke-dasharray:none;stroke-dashoffset:0;stroke-opacity:0.64313725" d="m 233.84552,218.50018 c -1.51374,0 -2.73262,1.21886 -2.73262,2.73261 0,0.1335 0.0217,0.26059 0.0399,0.38884 0.19055,-1.32502 1.3133,-2.34109 2.69266,-2.34109 1.37936,0 2.5021,1.01607 2.69266,2.34109 0.0183,-0.12831 0.0399,-0.25536 0.0399,-0.38884 0,-1.51375 -1.21888,-2.73261 -2.73262,-2.73261 z m 76.36397,0 c -1.51373,0 -2.73262,1.21886 -2.73262,2.73261 0,0.1335 0.0217,0.26059 0.0399,0.38884 0.19056,-1.32502 1.3133,-2.34109 2.69266,-2.34109 1.37937,0 2.50211,1.01607 2.69267,2.34109 0.0183,-0.12831 0.0399,-0.25536 0.0399,-0.38884 0,-1.51375 -1.21887,-2.73261 -2.73262,-2.73261 z m -76.36397,54.54569 c -1.51374,0 -2.73262,1.21886 -2.73262,2.73262 0,0.1335 0.0217,0.26059 0.0399,0.38884 0.19055,-1.32502 1.3133,-2.34109 2.69266,-2.34109 1.37936,0 2.5021,1.01607 2.69266,2.34109 0.0183,-0.12832 0.0399,-0.25537 0.0399,-0.38884 0,-1.51376 -1.21888,-2.73262 -2.73262,-2.73262 z m 76.36397,0 c -1.51373,0 -2.73262,1.21886 -2.73262,2.73262 0,0.1335 0.0217,0.26059 0.0399,0.38884 0.19056,-1.32502 1.3133,-2.34109 2.69266,-2.34109 1.37937,0 2.50211,1.01607 2.69267,2.34109 0.0183,-0.12832 0.0399,-0.25537 0.0399,-0.38884 0,-1.51376 -1.21887,-2.73262 -2.73262,-2.73262 z M 233.84552,322.137 c -1.51374,0 -2.73262,1.21886 -2.73262,2.73261 0,0.1335 0.0217,0.26059 0.0399,0.38884 0.19055,-1.32502 1.3133,-2.34109 2.69266,-2.34109 1.37936,0 2.5021,1.01607 2.69266,2.34109 0.0183,-0.12831 0.0399,-0.25536 0.0399,-0.38884 0,-1.51375 -1.21888,-2.73261 -2.73262,-2.73261 z m 76.36397,0 c -1.51373,0 -2.73262,1.21886 -2.73262,2.73261 0,0.1335 0.0217,0.26059 0.0399,0.38884 0.19056,-1.32502 1.3133,-2.34109 2.69266,-2.34109 1.37937,0 2.50211,1.01607 2.69267,2.34109 0.0183,-0.12831 0.0399,-0.25536 0.0399,-0.38884 0,-1.51375 -1.21887,-2.73261 -2.73262,-2.73261 z" id="path958-2" inkscape:connector-curvature="0" inkscape:label="tornillos sombra"/>
      <path style="color:#000000;clip-rule:nonzero;display:block;overflow:visible;visibility:visible;opacity:1;isolation:auto;mix-blend-mode:normal;color-interpolation:sRGB;color-interpolation-filters:linearRGB;solid-color:#000000;solid-opacity:1;vector-effect:none;fill:#ffffff;fill-opacity:0.27472528;fill-rule:nonzero;stroke:none;stroke-width:0.51729918;stroke-linecap:butt;stroke-linejoin:miter;stroke-miterlimit:4;stroke-dasharray:none;stroke-dashoffset:0;stroke-opacity:0.28021982;marker:none;marker-start:none;marker-mid:none;marker-end:none;paint-order:fill markers stroke;color-rendering:auto;image-rendering:auto;shape-rendering:auto;text-rendering:auto;enable-background:accumulate" d="m 233.84552,219.86382 a 1.3636424,1.3636424 0 0 0 -1.36364,1.36364 1.3636424,1.3636424 0 0 0 1.36364,1.36364 1.3636424,1.3636424 0 0 0 1.36364,-1.36364 1.3636424,1.3636424 0 0 0 -1.36364,-1.36364 z m 76.36397,0 a 1.3636424,1.3636424 0 0 0 -1.36364,1.36364 1.3636424,1.3636424 0 0 0 1.36364,1.36364 1.3636424,1.3636424 0 0 0 1.36364,-1.36364 1.3636424,1.3636424 0 0 0 -1.36364,-1.36364 z m -76.36397,54.54569 a 1.3636424,1.3636424 0 0 0 -1.36364,1.36364 1.3636424,1.3636424 0 0 0 1.36364,1.36365 1.3636424,1.3636424 0 0 0 1.36364,-1.36365 1.3636424,1.3636424 0 0 0 -1.36364,-1.36364 z m 76.36397,0 a 1.3636424,1.3636424 0 0 0 -1.36364,1.36364 1.3636424,1.3636424 0 0 0 1.36364,1.36365 1.3636424,1.3636424 0 0 0 1.36364,-1.36365 1.3636424,1.3636424 0 0 0 -1.36364,-1.36364 z m -76.36397,49.09113 a 1.3636424,1.3636424 0 0 0 -1.36364,1.36364 1.3636424,1.3636424 0 0 0 1.36364,1.36364 1.3636424,1.3636424 0 0 0 1.36364,-1.36364 1.3636424,1.3636424 0 0 0 -1.36364,-1.36364 z m 76.36397,0.0506 a 1.3636424,1.3636424 0 0 0 -1.36364,1.36364 1.3636424,1.3636424 0 0 0 1.36364,1.36365 1.3636424,1.3636424 0 0 0 1.36364,-1.36365 1.3636424,1.3636424 0 0 0 -1.36364,-1.36364 z" id="path1490-8" inkscape:connector-curvature="0" inkscape:label="tornillo centro"/>
      <rect style="color:#000000;clip-rule:nonzero;display:block;overflow:visible;visibility:visible;opacity:1;isolation:auto;mix-blend-mode:normal;color-interpolation:sRGB;color-interpolation-filters:linearRGB;solid-color:#000000;solid-opacity:1;vector-effect:none;fill:#000000;fill-opacity:0.2857143;fill-rule:nonzero;stroke:none;stroke-width:1.36364233;stroke-linecap:square;stroke-linejoin:miter;stroke-miterlimit:4;stroke-dasharray:2.72728475, 2.72728475;stroke-dashoffset:9.73946476;stroke-opacity:1;marker:none;marker-start:none;marker-mid:none;marker-end:none;paint-order:markers stroke fill;color-rendering:auto;image-rendering:auto;shape-rendering:auto;text-rendering:auto;enable-background:accumulate" id="rect954-2" width="46" height="1" x="249" y="239" inkscape:label="centro recuadro sombra top"/>
    </g>
  </g>
</svg>