<?xml version="1.0" encoding="UTF-8" standalone="yes"?>
<svg xmlns:dc="http://purl.org/dc/elements/1.1/" xmlns:cc="http://creativecommons.org/ns#" xmlns:rdf="http://www.w3.org/1999/02/22-rdf-syntax-ns#" xmlns:svg="http://www.w3.org/2000/svg" xmlns="http://www.w3.org/2000/svg" xmlns:xlink="http://www.w3.org/1999/xlink" xmlns:sodipodi="http://sodipodi.sourceforge.net/DTD/sodipodi-0.dtd" xmlns:inkscape="http://www.inkscape.org/namespaces/inkscape" height="128" viewBox="0 0 128 128" width="128" id="svg2" version="1.1" inkscape:version="0.92.1 r" sodipodi:docname="blender.svg" enable-background="new" folder="128">
  <title id="title4675">Template icons dark</title>
  <metadata id="metadata24">
    <rdf:RDF>
      <cc:Work rdf:about="">
        <dc:format>image/svg+xml</dc:format>
        <dc:type rdf:resource="http://purl.org/dc/dcmitype/StillImage"/>
        <dc:title>Template icons dark</dc:title>
        <dc:date>17/05/13</dc:date>
        <dc:creator>
          <cc:Agent>
            <dc:title>wfpaisa</dc:title>
          </cc:Agent>
        </dc:creator>
        <dc:rights>
          <cc:Agent>
            <dc:title>License: GPLv3</dc:title>
          </cc:Agent>
        </dc:rights>
        <dc:language>es-en</dc:language>
        <dc:subject>
          <rdf:Bag>
            <rdf:li>plane-icon-theme</rdf:li>
          </rdf:Bag>
        </dc:subject>
        <dc:description>Template for create set icons</dc:description>
        <cc:license rdf:resource="https://www.gnu.org/licenses/gpl-3.0.en.html"/>
      </cc:Work>
    </rdf:RDF>
  </metadata>
  <defs id="defs22">
    <linearGradient inkscape:collect="always" xlink:href="#linearGradient8666" id="linearGradient8856-9" gradientUnits="userSpaceOnUse" x1="213.2054" y1="165.99998" x2="213.2054" y2="261.88123" gradientTransform="matrix(0.0851244,0,0,0.0851244,-58.753023,-59.09931)"/>
    <linearGradient inkscape:collect="always" id="linearGradient8666">
      <stop style="stop-color:#fbfbfb;stop-opacity:1" offset="0" id="stop8662"/>
      <stop style="stop-color:#cfcfcf;stop-opacity:1" offset="1" id="stop8664"/>
    </linearGradient>
    <linearGradient inkscape:collect="always" xlink:href="#linearGradient8633" id="linearGradient8858-4" gradientUnits="userSpaceOnUse" gradientTransform="matrix(0.49771961,0,0,0.49771961,-55.728848,-55.747898)" x1="2.133321" y1="1.424881" x2="45.916695" y2="45.208263"/>
    <linearGradient id="linearGradient8633">
      <stop id="stop8629" offset="0" style="stop-color:#ff8545;stop-opacity:1"/>
      <stop style="stop-color:#f47200;stop-opacity:1" offset="0.52534759" id="stop8672"/>
      <stop id="stop8631" offset="1" style="stop-color:#ffa04d;stop-opacity:1"/>
    </linearGradient>
    <linearGradient inkscape:collect="always" xlink:href="#linearGradient8633" id="linearGradient8858-9" gradientUnits="userSpaceOnUse" gradientTransform="matrix(1.0443701,0,0,1.0443701,-1.0115932,-0.51698865)" x1="2.133321" y1="1.424881" x2="45.916695" y2="45.208263"/>
    <linearGradient inkscape:collect="always" xlink:href="#linearGradient8666" id="linearGradient8856-4" gradientUnits="userSpaceOnUse" x1="213.2054" y1="165.99998" x2="213.2054" y2="261.88123" gradientTransform="matrix(0.17861737,0,0,0.17861737,-7.3572502,-7.5492915)"/>
    <linearGradient inkscape:collect="always" xlink:href="#linearGradient8782" id="linearGradient8784-0" x1="214" y1="191.32283" x2="214" y2="237.51836" gradientUnits="userSpaceOnUse" gradientTransform="matrix(0.18867359,0,0,0.18867359,-9.501418,-9.6916253)"/>
    <linearGradient inkscape:collect="always" id="linearGradient8782">
      <stop style="stop-color:#2c60d3;stop-opacity:0.609375" offset="0" id="stop8778"/>
      <stop style="stop-color:#2c60d3;stop-opacity:0;" offset="1" id="stop8780"/>
    </linearGradient>
    <linearGradient inkscape:collect="always" xlink:href="#linearGradient8807" id="linearGradient8809-7" x1="164.30165" y1="206.35252" x2="230" y2="226.22047" gradientUnits="userSpaceOnUse" gradientTransform="matrix(0.17861737,0,0,0.17861737,-7.3266944,-7.4270692)"/>
    <linearGradient id="linearGradient8807">
      <stop style="stop-color:#000000;stop-opacity:0.28947368;" offset="0" id="stop8803"/>
      <stop style="stop-color:#c1c1c1;stop-opacity:0;" offset="1" id="stop8805"/>
    </linearGradient>
    <linearGradient inkscape:collect="always" xlink:href="#linearGradient8807" id="linearGradient8813-2" gradientUnits="userSpaceOnUse" x1="164.30165" y1="206.35252" x2="230" y2="226.22047" gradientTransform="matrix(-0.12630154,-0.12630154,0.12630154,-0.12630154,30.59004,84.501919)"/>
    <linearGradient inkscape:collect="always" xlink:href="#linearGradient8807" id="linearGradient8817-7" gradientUnits="userSpaceOnUse" gradientTransform="matrix(-0.12630154,0.12630154,-0.12630154,-0.12630154,84.594033,30.596683)" x1="164.30165" y1="206.35252" x2="230" y2="226.22047"/>
    <linearGradient gradientTransform="matrix(0.18280347,0,0,0.18280347,-7.8761359,-8.0701603)" inkscape:collect="always" xlink:href="#linearGradient8930" id="linearGradient8884-2" x1="153.6378" y1="71.999992" x2="250.77165" y2="141.16536" gradientUnits="userSpaceOnUse"/>
    <linearGradient id="linearGradient8930">
      <stop id="stop8926" offset="0" style="stop-color:#da6607;stop-opacity:0.35526314;"/>
      <stop id="stop8928" offset="1" style="stop-color:#ffffff;stop-opacity:0.24342105;"/>
    </linearGradient>
    <linearGradient inkscape:collect="always" xlink:href="#linearGradient8971" id="linearGradient8973-1" x1="196" y1="124.12598" x2="156.07875" y2="61.999989" gradientUnits="userSpaceOnUse" gradientTransform="matrix(0.17226839,0,0,0.17226839,-6.0388642,-6.220389)"/>
    <linearGradient inkscape:collect="always" id="linearGradient8971">
      <stop style="stop-color:#763704;stop-opacity:1;" offset="0" id="stop8967"/>
      <stop style="stop-color:#763704;stop-opacity:0;" offset="1" id="stop8969"/>
    </linearGradient>
    <linearGradient inkscape:collect="always" xlink:href="#linearGradient8971" id="linearGradient8977-1" gradientUnits="userSpaceOnUse" x1="196" y1="124.12598" x2="156.07875" y2="61.999989" gradientTransform="matrix(0.12181216,-0.12181216,0.12181216,0.12181216,-21.499412,30.416447)"/>
    <linearGradient inkscape:collect="always" xlink:href="#linearGradient8971" id="linearGradient8981-5" gradientUnits="userSpaceOnUse" gradientTransform="matrix(0,-0.17226839,0.17226839,0,-6.0223935,66.782322)" x1="196" y1="124.12598" x2="156.07875" y2="61.999989"/>
    <linearGradient inkscape:collect="always" xlink:href="#linearGradient8633" id="linearGradient8858-4-5" gradientUnits="userSpaceOnUse" gradientTransform="matrix(0.69227462,0,0,0.69227462,-32.429545,-33.818398)" x1="2.133321" y1="1.424881" x2="45.916695" y2="45.208263"/>
    <linearGradient inkscape:collect="always" xlink:href="#linearGradient8666" id="linearGradient8856-9-1" gradientUnits="userSpaceOnUse" x1="213.2054" y1="165.99998" x2="213.2054" y2="261.88123" gradientTransform="matrix(0.11839891,0,0,0.11839891,-36.635848,-38.479853)"/>
    <linearGradient inkscape:collect="always" xlink:href="#linearGradient8633" id="linearGradient8858-9-0" gradientUnits="userSpaceOnUse" gradientTransform="matrix(1.3924931,0,0,1.3924931,46.454761,47.434085)" x1="2.133321" y1="1.424881" x2="45.916695" y2="45.208263"/>
    <linearGradient inkscape:collect="always" xlink:href="#linearGradient8666" id="linearGradient8856-4-1" gradientUnits="userSpaceOnUse" x1="213.2054" y1="165.99998" x2="213.2054" y2="261.88123" gradientTransform="matrix(0.23815643,0,0,0.23815643,37.993887,38.057684)"/>
    <linearGradient inkscape:collect="always" xlink:href="#linearGradient8782" id="linearGradient8784-0-9" x1="214" y1="191.32283" x2="214" y2="237.51836" gradientUnits="userSpaceOnUse" gradientTransform="matrix(0.25156472,0,0,0.25156472,35.134997,35.201239)"/>
    <linearGradient inkscape:collect="always" xlink:href="#linearGradient8807" id="linearGradient8809-7-2" x1="164.30165" y1="206.35252" x2="230" y2="226.22047" gradientUnits="userSpaceOnUse" gradientTransform="matrix(0.23815643,0,0,0.23815643,38.034629,38.220646)"/>
    <linearGradient inkscape:collect="always" xlink:href="#linearGradient8807" id="linearGradient8813-2-5" gradientUnits="userSpaceOnUse" x1="164.30165" y1="206.35252" x2="230" y2="226.22047" gradientTransform="matrix(-0.16840201,-0.16840201,0.16840201,-0.16840201,88.590261,160.7926)"/>
    <linearGradient inkscape:collect="always" xlink:href="#linearGradient8807" id="linearGradient8817-7-9" gradientUnits="userSpaceOnUse" gradientTransform="matrix(-0.16840201,0.16840201,-0.16840201,-0.16840201,160.59557,88.91897)" x1="164.30165" y1="206.35252" x2="230" y2="226.22047"/>
    <linearGradient gradientTransform="matrix(0.2437379,0,0,0.2437379,37.302041,37.363192)" inkscape:collect="always" xlink:href="#linearGradient8930" id="linearGradient8884-2-2" x1="153.6378" y1="71.999992" x2="250.77165" y2="141.16536" gradientUnits="userSpaceOnUse"/>
    <linearGradient inkscape:collect="always" xlink:href="#linearGradient8971" id="linearGradient8973-1-9" x1="196" y1="124.12598" x2="156.07875" y2="61.999989" gradientUnits="userSpaceOnUse" gradientTransform="matrix(0.22969113,0,0,0.22969113,39.751735,39.829553)"/>
    <linearGradient inkscape:collect="always" xlink:href="#linearGradient8971" id="linearGradient8977-1-6" gradientUnits="userSpaceOnUse" x1="196" y1="124.12598" x2="156.07875" y2="61.999989" gradientTransform="matrix(0.16241617,-0.16241617,0.16241617,0.16241617,19.137676,88.678655)"/>
    <linearGradient inkscape:collect="always" xlink:href="#linearGradient8971" id="linearGradient8981-5-1" gradientUnits="userSpaceOnUse" gradientTransform="matrix(0,-0.22969113,0.22969113,0,39.773696,137.16648)" x1="196" y1="124.12598" x2="156.07875" y2="61.999989"/>
    <linearGradient inkscape:collect="always" xlink:href="#linearGradient8633" id="linearGradient8858-9-0-5" gradientUnits="userSpaceOnUse" gradientTransform="matrix(2.0887397,0,0,2.0887397,109.9948,110.85959)" x1="2.133321" y1="1.424881" x2="45.916695" y2="45.208263"/>
    <linearGradient inkscape:collect="always" xlink:href="#linearGradient8666" id="linearGradient8856-4-1-5" gradientUnits="userSpaceOnUse" x1="213.2054" y1="165.99998" x2="213.2054" y2="261.88123" gradientTransform="matrix(0.35723465,0,0,0.35723465,97.303485,96.794988)"/>
    <linearGradient inkscape:collect="always" xlink:href="#linearGradient8782" id="linearGradient8784-0-9-3" x1="214" y1="191.32283" x2="214" y2="237.51836" gradientUnits="userSpaceOnUse" gradientTransform="matrix(0.37734708,0,0,0.37734708,93.01515,92.510328)"/>
    <linearGradient inkscape:collect="always" xlink:href="#linearGradient8807" id="linearGradient8809-7-2-5" x1="164.30165" y1="206.35252" x2="230" y2="226.22047" gradientUnits="userSpaceOnUse" gradientTransform="matrix(0.35723465,0,0,0.35723465,97.364595,97.039428)"/>
    <linearGradient inkscape:collect="always" xlink:href="#linearGradient8807" id="linearGradient8813-2-5-4" gradientUnits="userSpaceOnUse" x1="164.30165" y1="206.35252" x2="230" y2="226.22047" gradientTransform="matrix(-0.25260302,-0.25260302,0.25260302,-0.25260302,173.19805,280.89737)"/>
    <linearGradient inkscape:collect="always" xlink:href="#linearGradient8807" id="linearGradient8817-7-9-7" gradientUnits="userSpaceOnUse" gradientTransform="matrix(-0.25260302,0.25260302,-0.25260302,-0.25260302,281.206,173.08692)" x1="164.30165" y1="206.35252" x2="230" y2="226.22047"/>
    <linearGradient gradientTransform="matrix(0.36560685,0,0,0.36560685,96.265725,95.753253)" inkscape:collect="always" xlink:href="#linearGradient8930" id="linearGradient8884-2-2-4" x1="153.6378" y1="71.999992" x2="250.77165" y2="141.16536" gradientUnits="userSpaceOnUse"/>
    <linearGradient inkscape:collect="always" xlink:href="#linearGradient8971" id="linearGradient8973-1-9-0" x1="196" y1="124.12598" x2="156.07875" y2="61.999989" gradientUnits="userSpaceOnUse" gradientTransform="matrix(0.3445367,0,0,0.3445367,99.94026,99.45279)"/>
    <linearGradient inkscape:collect="always" xlink:href="#linearGradient8971" id="linearGradient8977-1-6-6" gradientUnits="userSpaceOnUse" x1="196" y1="124.12598" x2="156.07875" y2="61.999989" gradientTransform="matrix(0.24362425,-0.24362425,0.24362425,0.24362425,69.019172,172.72644)"/>
    <linearGradient inkscape:collect="always" xlink:href="#linearGradient8971" id="linearGradient8981-5-1-8" gradientUnits="userSpaceOnUse" gradientTransform="matrix(0,-0.3445367,0.3445367,0,99.9732,245.45819)" x1="196" y1="124.12598" x2="156.07875" y2="61.999989"/>
    <linearGradient inkscape:collect="always" xlink:href="#linearGradient8633" id="linearGradient8858-9-0-7" gradientUnits="userSpaceOnUse" gradientTransform="matrix(2.7849862,0,0,2.7849862,204.97078,206.15322)" x1="2.133321" y1="1.424881" x2="45.916695" y2="45.208263"/>
    <linearGradient inkscape:collect="always" xlink:href="#linearGradient8666" id="linearGradient8856-4-1-2" gradientUnits="userSpaceOnUse" x1="213.2054" y1="165.99998" x2="213.2054" y2="261.88123" gradientTransform="matrix(0.47631286,0,0,0.47631286,188.04904,187.4004)"/>
    <linearGradient inkscape:collect="always" xlink:href="#linearGradient8782" id="linearGradient8784-0-9-0" x1="214" y1="191.32283" x2="214" y2="237.51836" gradientUnits="userSpaceOnUse" gradientTransform="matrix(0.50312944,0,0,0.50312944,182.33126,181.68752)"/>
    <linearGradient inkscape:collect="always" xlink:href="#linearGradient8807" id="linearGradient8809-7-2-59" x1="164.30165" y1="206.35252" x2="230" y2="226.22047" gradientUnits="userSpaceOnUse" gradientTransform="matrix(0.47631286,0,0,0.47631286,188.13052,187.72634)"/>
    <linearGradient inkscape:collect="always" xlink:href="#linearGradient8807" id="linearGradient8813-2-5-0" gradientUnits="userSpaceOnUse" x1="164.30165" y1="206.35252" x2="230" y2="226.22047" gradientTransform="matrix(-0.33680402,-0.33680402,0.33680402,-0.33680402,289.24178,432.87024)"/>
    <linearGradient inkscape:collect="always" xlink:href="#linearGradient8807" id="linearGradient8817-7-9-9" gradientUnits="userSpaceOnUse" gradientTransform="matrix(-0.33680402,0.33680402,-0.33680402,-0.33680402,433.2524,289.12298)" x1="164.30165" y1="206.35252" x2="230" y2="226.22047"/>
    <linearGradient gradientTransform="matrix(0.4874758,0,0,0.4874758,186.66534,186.01142)" inkscape:collect="always" xlink:href="#linearGradient8930" id="linearGradient8884-2-2-1" x1="153.6378" y1="71.999992" x2="250.77165" y2="141.16536" gradientUnits="userSpaceOnUse"/>
    <linearGradient inkscape:collect="always" xlink:href="#linearGradient8971" id="linearGradient8973-1-9-1" x1="196" y1="124.12598" x2="156.07875" y2="61.999989" gradientUnits="userSpaceOnUse" gradientTransform="matrix(0.45938226,0,0,0.45938226,191.56472,190.94414)"/>
    <linearGradient inkscape:collect="always" xlink:href="#linearGradient8971" id="linearGradient8977-1-6-9" gradientUnits="userSpaceOnUse" x1="196" y1="124.12598" x2="156.07875" y2="61.999989" gradientTransform="matrix(0.32483234,-0.32483234,0.32483234,0.32483234,150.33662,288.64236)"/>
    <linearGradient inkscape:collect="always" xlink:href="#linearGradient8971" id="linearGradient8981-5-1-7" gradientUnits="userSpaceOnUse" gradientTransform="matrix(0,-0.45938226,0.45938226,0,191.60866,385.618)" x1="196" y1="124.12598" x2="156.07875" y2="61.999989"/>
    <filter inkscape:collect="always" style="color-interpolation-filters:sRGB" id="filter8868-6" x="-0.011991367" width="1.0239826" y="-0.012008646" height="1.0240173">
      <feGaussianBlur inkscape:collect="always" stdDeviation="1.2464968" id="feGaussianBlur8870-8"/>
    </filter>
    <filter inkscape:collect="always" style="color-interpolation-filters:sRGB" id="filter8868-6-3" x="-0.011991367" width="1.0239826" y="-0.012008646" height="1.0240173">
      <feGaussianBlur inkscape:collect="always" stdDeviation="1.2464968" id="feGaussianBlur8870-8-6"/>
    </filter>
    <filter inkscape:collect="always" style="color-interpolation-filters:sRGB" id="filter8868-6-3-1" x="-0.011991367" width="1.0239826" y="-0.012008646" height="1.0240173">
      <feGaussianBlur inkscape:collect="always" stdDeviation="1.2464968" id="feGaussianBlur8870-8-6-5"/>
    </filter>
    <filter inkscape:collect="always" style="color-interpolation-filters:sRGB" id="filter8868-6-3-7" x="-0.011991367" width="1.0239826" y="-0.012008646" height="1.0240173">
      <feGaussianBlur inkscape:collect="always" stdDeviation="1.2464968" id="feGaussianBlur8870-8-6-1"/>
    </filter>
  </defs>
  <sodipodi:namedview pagecolor="#383c4a" bordercolor="#ffffff" borderopacity="0.62745098" objecttolerance="4" gridtolerance="10" guidetolerance="4" inkscape:pageopacity="0" inkscape:pageshadow="2" inkscape:window-width="640" inkscape:window-height="480" id="namedview20" showgrid="true" inkscape:zoom="16.386532" inkscape:cx="-50.133191" inkscape:cy="102.20575" inkscape:current-layer="layer6" inkscape:snap-smooth-nodes="false" showguides="true" borderlayer="true" inkscape:showpageshadow="false" inkscape:guide-bbox="true" guidecolor="#bd4fff" guideopacity="0.78431373" inkscape:snap-nodes="true" inkscape:lockguides="false" fit-margin-top="0" fit-margin-left="0" fit-margin-right="0" fit-margin-bottom="0" guidehicolor="#ff0101" guidehiopacity="0.78431373" inkscape:snap-page="true" inkscape:object-nodes="true" inkscape:snap-bbox="true" inkscape:snap-global="true" inkscape:snap-object-midpoints="false" inkscape:snap-bbox-edge-midpoints="false">
    <inkscape:grid type="xygrid" id="grid4171" empspacing="4" dotted="false" originx="2.7755576e-17" originy="0" spacingx="1" spacingy="1" color="#5a5a5a" opacity="0.23529412" empcolor="#5a5a5a" empopacity="0.47058824" visible="true"/>
    <inkscape:grid type="axonomgrid" id="grid4699" units="mm" empspacing="4" color="#5a5a5a" opacity="0.23529412" empcolor="#5a5a5a" empopacity="0.47058824" gridanglex="45" gridanglez="45" spacingy="3.7795276" visible="false" originx="1.3228346" originy="1.3228346"/>
    <sodipodi:guide position="48,0" orientation="1,0" id="guide4568" inkscape:locked="false" inkscape:label="" inkscape:color="rgb(189,79,255)"/>
    <sodipodi:guide position="111.99996,-3.9999999e-05" orientation="0,1" id="guide4570" inkscape:locked="false" inkscape:label="" inkscape:color="rgb(189,79,255)"/>
    <sodipodi:guide position="0,0" orientation="1,0" id="guide4572" inkscape:locked="false" inkscape:label="" inkscape:color="rgb(189,79,255)"/>
    <sodipodi:guide position="0,48" orientation="0,1" id="guide4574" inkscape:locked="false" inkscape:label="" inkscape:color="rgb(189,79,255)"/>
    <sodipodi:guide position="0,80" orientation="0,1" id="guide4576" inkscape:locked="false" inkscape:label="" inkscape:color="rgb(189,79,255)"/>
    <sodipodi:guide position="-32,48" orientation="1,0" id="guide4578" inkscape:locked="false" inkscape:label="" inkscape:color="rgb(189,79,255)"/>
    <sodipodi:guide position="-32,104" orientation="0,1" id="guide4580" inkscape:locked="false" inkscape:label="" inkscape:color="rgb(189,79,255)"/>
    <sodipodi:guide position="-56,80" orientation="1,0" id="guide4582" inkscape:locked="false" inkscape:label="" inkscape:color="rgb(189,79,255)"/>
    <sodipodi:guide position="48,-64" orientation="0,1" id="guide4584" inkscape:locked="false" inkscape:label="" inkscape:color="rgb(189,79,255)"/>
    <sodipodi:guide position="0,0" orientation="-0.70710678,0.70710678" id="guide4588" inkscape:locked="false" inkscape:label="" inkscape:color="rgb(189,79,255)"/>
    <sodipodi:guide position="-56,80" orientation="-0.70710678,0.70710678" id="guide4573" inkscape:locked="false" inkscape:label="" inkscape:color="rgb(189,79,255)"/>
    <sodipodi:guide position="-32,48" orientation="-0.70710678,0.70710678" id="guide4575" inkscape:locked="false" inkscape:label="" inkscape:color="rgb(189,79,255)"/>
    <sodipodi:guide position="48,-64" orientation="-0.70710678,0.70710678" id="guide4577" inkscape:locked="false" inkscape:label="" inkscape:color="rgb(189,79,255)"/>
    <sodipodi:guide position="47.999962,0" orientation="0.70710678,0.70710678" id="guide4697" inkscape:locked="false" inkscape:label="" inkscape:color="rgb(189,79,255)"/>
    <sodipodi:guide position="207.99995,-288" orientation="0,1" id="guide7833" inkscape:locked="false"/>
    <sodipodi:guide position="335.99994,-288" orientation="1,0" id="guide7835" inkscape:locked="false" inkscape:label="" inkscape:color="rgb(189,79,255)"/>
    <sodipodi:guide position="111.99996,-64" orientation="1,0" id="guide7915" inkscape:locked="false"/>
    <sodipodi:guide position="111.99996,-160" orientation="0,1" id="guide7917" inkscape:locked="false"/>
    <sodipodi:guide position="207.99996,-160" orientation="1,0" id="guide7919" inkscape:locked="false"/>
    <sodipodi:guide position="111.99996,-160" orientation="-0.70710678,0.70710678" id="guide7921" inkscape:locked="false" inkscape:label="" inkscape:color="rgb(189,79,255)"/>
    <sodipodi:guide position="207.99996,-288" orientation="-0.70710678,0.70710678" id="guide7923" inkscape:locked="false" inkscape:label="" inkscape:color="rgb(189,79,255)"/>
    <sodipodi:guide position="-72,104" orientation="1,0" id="guide7824" inkscape:locked="false"/>
    <sodipodi:guide position="-56,120" orientation="0,1" id="guide7826" inkscape:locked="false"/>
    <sodipodi:guide position="-72,104" orientation="-0.70710678,0.70710678" id="guide7828" inkscape:locked="false" inkscape:label="" inkscape:color="rgb(189,79,255)"/>
  </sodipodi:namedview>
  <g inkscape:groupmode="layer" id="layer4" inkscape:label="icon_128" style="display:inline" transform="translate(-207.99995,-208)">
    <g inkscape:groupmode="layer" id="layer11" inkscape:label="frame" style="display:none">
      <rect inkscape:label="frame_128" y="208" x="207.99995" height="128" width="128" id="frame_128" style="color:#000000;clip-rule:nonzero;display:inline;overflow:visible;visibility:visible;opacity:1;isolation:auto;mix-blend-mode:normal;color-interpolation:sRGB;color-interpolation-filters:linearRGB;solid-color:#000000;solid-opacity:1;vector-effect:none;fill:#000000;fill-opacity:1;fill-rule:nonzero;stroke:#ff24f7;stroke-width:0;stroke-linecap:square;stroke-linejoin:miter;stroke-miterlimit:4;stroke-dasharray:none;stroke-dashoffset:0;stroke-opacity:0.99481865;marker:none;marker-start:none;marker-mid:none;marker-end:none;paint-order:normal;color-rendering:auto;image-rendering:auto;shape-rendering:auto;text-rendering:auto;enable-background:accumulate"/>
      <text xml:space="preserve" style="font-size:38.46457672px;line-height:0%;font-family:sans-serif;letter-spacing:0px;word-spacing:0px;display:inline;opacity:1;fill:#ffffff;fill-opacity:1;stroke:none;stroke-width:0.07881754px;stroke-linecap:butt;stroke-linejoin:miter;stroke-opacity:1" x="236.17479" y="283.34512" id="txt_128" inkscape:label="txt_128">
        <tspan sodipodi:role="line" x="236.17479" y="283.34512" style="font-size:38.46457672px;line-height:0%;fill:#ffffff;fill-opacity:1;stroke:none;stroke-width:0.07881754px" id="tspan5069-6">128</tspan>
      </text>
      <text xml:space="preserve" style="font-size:7.43228436px;line-height:1000%;font-family:sans-serif;letter-spacing:0px;word-spacing:0px;display:inline;opacity:1;fill:#ffffff;fill-opacity:0.42156863;stroke:none;stroke-width:0.16398695px;stroke-linecap:butt;stroke-linejoin:miter;stroke-opacity:1" x="265.97781" y="330.1329" id="txt_scalable_64_512" inkscape:label="txt_scalable_64_512">
        <tspan sodipodi:role="line" x="265.97781" y="330.1329" style="font-size:8.08990479px;fill:#ffffff;fill-opacity:0.42156863;stroke:none;stroke-width:0.16398695px" id="tspan5049-1-6-6">Scalable:96-512</tspan>
      </text>
    </g>
    <g inkscape:groupmode="layer" id="layer12" inkscape:label="icon" style="display:inline">
      <path sodipodi:nodetypes="scccsscccsccccccsccccc" inkscape:connector-curvature="0" id="path8866-9-2-7" d="m 164.15165,51.022459 c -4.39592,0 -8.79217,1.683765 -12.16054,5.052123 -6.7367,6.736779 -6.7367,17.584297 0,24.321065 L 199.76788,128.1724 H 75.214104 c -9.527177,0 -17.196172,7.66901 -17.196172,17.19617 0,9.52712 7.668995,17.19618 17.196172,17.19618 17.90524,-0.0494 43.298866,-0.0556 67.616436,-0.0495 l -88.121625,88.12161 c -6.736779,6.73671 -6.736716,17.58434 0,24.32108 6.736716,6.73671 17.584353,6.73671 24.321066,0 12.934463,-13.00792 31.461609,-31.5437 49.031539,-49.10366 5.84024,42.53217 42.15746,74.2395 85.08871,74.28803 47.48813,-1.4e-4 85.98482,-38.49685 85.98498,-85.98497 -0.0238,-24.81357 -10.76598,-48.40712 -29.46592,-64.71742 -6.36599,-6.34936 -63.54227,-63.379025 -93.35917,-93.365366 -3.36835,-3.368359 -7.76256,-5.052123 -12.15847,-5.052123 z m 50.00939,142.675061 c 11.08341,1.1e-4 20.06828,8.98497 20.06838,20.06839 -1e-4,11.0834 -8.98497,20.06827 -20.06838,20.06837 -11.08342,-1e-4 -20.06828,-8.98497 -20.06838,-20.06837 1e-4,-11.08342 8.98496,-20.06828 20.06838,-20.06839 z" style="display:inline;opacity:1;fill:#000000;fill-opacity:0.203125;stroke:none;stroke-width:0.53740788;stroke-linecap:round;stroke-linejoin:round;stroke-miterlimit:4;stroke-dasharray:none;stroke-opacity:1;filter:url(#filter8868-6-3-7);enable-background:new" transform="matrix(0.45938224,0,0,0.45938224,191.56474,190.94414)"/>
      <path style="display:inline;opacity:1;fill:url(#linearGradient8858-9-0-7);fill-opacity:1;stroke:none;stroke-width:0.24264592;stroke-linecap:round;stroke-linejoin:round;stroke-miterlimit:4;stroke-dasharray:none;stroke-opacity:1;enable-background:new" d="m 267.05372,215.36332 c -1.9848,0 -3.96976,0.76024 -5.49062,2.2811 -3.0417,3.04172 -3.0417,7.9395 0,10.98124 l 21.57176,21.57176 h -56.23748 c -4.30164,0 -7.76428,3.46264 -7.76428,7.76426 0,4.3016 3.46264,7.76428 7.76428,7.76428 8.08442,-0.0224 19.54994,-0.025 30.52962,-0.0224 l -39.78796,39.788 c -3.04172,3.0417 -3.0417,7.93954 0,10.98124 3.04172,3.04172 7.93954,3.04172 10.98124,0 5.84008,-5.87322 14.2053,-14.24234 22.13834,-22.17086 2.63692,19.20376 19.03458,33.51998 38.41852,33.5419 21.44146,-4e-5 38.82318,-17.38176 38.82324,-38.8232 -0.01,-11.20362 -4.86096,-21.85638 -13.3042,-29.22068 -2.87432,-2.8668 -28.69008,-28.61636 -42.15276,-42.15554 -1.52086,-1.52084 -3.5049,-2.28108 -5.4897,-2.28108 z m 22.57982,64.41944 c 5.0043,6e-5 9.06106,4.05682 9.06112,9.06112 -6e-5,5.00428 -4.05682,9.06106 -9.06112,9.0611 -5.0043,-4e-5 -9.06106,-4.05682 -9.0611,-9.0611 4e-5,-5.0043 4.0568,-9.06106 9.0611,-9.06112 z" id="circle4567-3-4-9-6" inkscape:connector-curvature="0" sodipodi:nodetypes="scccsscccsccccccsccccc"/>
      <path inkscape:connector-curvature="0" id="path8852-9-3-7" d="m 289.60138,259.04664 a 29.82722,29.82722 0 0 0 -29.8269,29.82688 29.82722,29.82722 0 0 0 29.8269,29.82688 29.82722,29.82722 0 0 0 29.82688,-29.82688 29.82722,29.82722 0 0 0 -29.82688,-29.82688 z m 0,18.1613 a 11.665408,11.665408 0 0 1 11.66558,11.66558 11.665408,11.665408 0 0 1 -11.66558,11.6656 11.665408,11.665408 0 0 1 -11.6656,-11.6656 11.665408,11.665408 0 0 1 11.6656,-11.66558 z" style="display:inline;opacity:1;fill:#000000;fill-opacity:0.09895833;stroke:none;stroke-width:0.31070027;stroke-linecap:round;stroke-linejoin:round;stroke-miterlimit:4;stroke-dasharray:none;stroke-opacity:1;enable-background:new"/>
      <path style="display:inline;opacity:1;fill:url(#linearGradient8856-4-1-2);fill-opacity:1;stroke:none;stroke-width:0.24264592;stroke-linecap:round;stroke-linejoin:round;stroke-miterlimit:4;stroke-dasharray:none;stroke-opacity:1;enable-background:new" d="m 289.60138,265.55014 a 23.294008,23.294008 0 0 0 -23.29376,23.29374 23.294008,23.294008 0 0 0 23.29376,23.29374 23.294008,23.294008 0 0 0 23.29376,-23.29374 23.294008,23.294008 0 0 0 -23.29376,-23.29374 z m 0,14.18332 a 9.1102722,9.1102722 0 0 1 9.1104,9.11042 9.1102722,9.1102722 0 0 1 -9.1104,9.1104 9.1102722,9.1102722 0 0 1 -9.11042,-9.1104 9.1102722,9.1102722 0 0 1 9.11042,-9.11042 z" id="circle4575-7-0-1-3" inkscape:connector-curvature="0"/>
      <path inkscape:connector-curvature="0" style="display:inline;opacity:0.88399999;fill:#f5eece;fill-opacity:0.671875;stroke:none;stroke-width:0.24264592;stroke-linecap:round;stroke-linejoin:round;stroke-miterlimit:4;stroke-dasharray:none;stroke-opacity:1;enable-background:new" d="m 266.90606,215.67082 c -1.98476,0 -3.96946,0.76058 -5.49032,2.28144 -1.58284,1.58284 -2.34028,3.66814 -2.27576,5.73298 0.0596,-1.9031 0.8169,-3.78884 2.27576,-5.2477 1.52086,-1.52084 3.50556,-2.28142 5.49032,-2.28142 1.98482,0 3.9695,0.76058 5.49036,2.28142 13.46264,13.53918 39.27782,39.28866 42.15214,42.15546 a 38.823348,38.823348 0 0 1 13.29434,29.0218 38.823348,38.823348 0 0 0 0.01,-0.28674 38.823348,38.823348 0 0 0 -13.3043,-29.22034 c -2.87328,-2.86684 -28.68846,-28.61628 -42.15112,-42.15546 -1.52084,-1.52086 -3.50554,-2.28144 -5.49032,-2.28144 z m -40.15552,34.8339 c -4.30164,0 -7.76468,3.46302 -7.76468,7.76466 0,0.0814 0.002,0.1618 0.006,0.24258 0.1276,-4.18822 3.53824,-7.52202 7.75852,-7.52202 h 56.237 l -0.4853,-0.48528 z m 30.04402,15.99234 -39.30248,39.30248 c -1.58286,1.58284 -2.34028,3.66812 -2.27576,5.733 0.0596,-1.90312 0.8169,-3.78884 2.27576,-5.24772 l 39.78776,-39.78776 c -0.163,-2e-5 -0.32212,6e-5 -0.48528,0 z" id="path4672-5-9-9-6"/>
      <path inkscape:connector-curvature="0" style="display:inline;opacity:1;fill:#000000;fill-opacity:0.55208333;stroke:none;stroke-width:0.24264592;stroke-linecap:round;stroke-linejoin:round;stroke-miterlimit:4;stroke-dasharray:none;stroke-opacity:1;enable-background:new" d="m 259.39058,223.12324 c -0.0646,2.06484 0.6929,4.15014 2.27574,5.73298 l 21.0865,21.08648 h 0.4853 l -21.5718,-21.57176 c -1.45886,-1.45886 -2.21626,-3.3446 -2.27574,-5.2477 z m -40.14796,34.82678 c -0.002,0.0808 -0.006,0.1612 -0.006,0.24258 0,4.30164 3.46306,7.76468 7.76468,7.76468 7.96446,-0.0224 19.21394,-0.025 30.04402,-0.0224 l 0.48528,-0.4853 c -10.97966,-0.002 -22.44488,-4.4e-4 -30.5293,0.0224 -4.22028,0 -7.63092,-3.3338 -7.75852,-7.52202 z m 108.85088,31.10274 a 38.823348,38.823348 0 0 1 -38.8134,38.53664 38.823348,38.823348 0 0 1 -38.41816,-33.54154 c -7.93304,7.92852 -16.29852,16.29712 -22.13858,22.17036 -3.0417,3.0417 -7.93896,3.0417 -10.98068,0 -1.45886,-1.45886 -2.21628,-3.3446 -2.27574,-5.2477 -0.0646,2.06484 0.6929,4.15014 2.27574,5.73298 3.04172,3.0417 7.93898,3.0417 10.98068,0 5.84006,-5.87324 14.20554,-14.24184 22.13858,-22.17032 a 38.823348,38.823348 0 0 0 38.41816,33.5415 38.823348,38.823348 0 0 0 38.82336,-38.82336 38.823348,38.823348 0 0 0 -0.01,-0.1986 z" id="path4677-2-1-4-5"/>
      <path style="display:inline;opacity:1;fill:#000000;fill-opacity:0.57291667;stroke:none;stroke-width:0.24264592;stroke-linecap:round;stroke-linejoin:round;stroke-miterlimit:4;stroke-dasharray:none;stroke-opacity:1;enable-background:new" d="m 289.60138,265.55014 a 23.294008,23.294008 0 0 0 -23.29376,23.29374 23.294008,23.294008 0 0 0 0.02,0.55632 23.294008,23.294008 0 0 1 23.2742,-22.89744 23.294008,23.294008 0 0 1 23.27422,22.7337 23.294008,23.294008 0 0 0 0.02,-0.39258 23.294008,23.294008 0 0 0 -23.29376,-23.29374 z" id="circle8657-7-7-6" inkscape:connector-curvature="0"/>
      <path inkscape:connector-curvature="0" id="path8670-7-8-3" d="m 289.49244,312.24688 a 23.294008,23.294008 0 0 0 23.29376,-23.29374 23.294008,23.294008 0 0 0 -0.02,-0.55632 23.294008,23.294008 0 0 1 -23.27422,22.89744 23.294008,23.294008 0 0 1 -23.2742,-22.7337 23.294008,23.294008 0 0 0 -0.02,0.39258 23.294008,23.294008 0 0 0 23.29374,23.29374 z" style="display:inline;opacity:1;fill:#f4f4f4;fill-opacity:1;stroke:none;stroke-width:0.24264592;stroke-linecap:round;stroke-linejoin:round;stroke-miterlimit:4;stroke-dasharray:none;stroke-opacity:1;enable-background:new"/>
      <path style="display:inline;opacity:1;fill:url(#linearGradient8809-7-2-59);fill-opacity:1;stroke:none;stroke-width:0.24264592;stroke-linecap:round;stroke-linejoin:round;stroke-miterlimit:4;stroke-dasharray:none;stroke-opacity:1;enable-background:new" d="m 289.68326,266.36354 a 23.294008,23.294008 0 0 0 -23.29374,23.29374 23.294008,23.294008 0 0 0 1.75174,8.83132 l 14.1759,-14.17588 a 9.1102722,9.1102722 0 0 1 7.3661,-3.76586 9.1102722,9.1102722 0 0 1 9.11042,9.11042 9.1102722,9.1102722 0 0 1 -2.24016,5.97438 l 10.0342,10.0342 a 23.294008,23.294008 0 0 0 6.3893,-16.00858 23.294008,23.294008 0 0 0 -23.29376,-23.29374 z" id="path8794-1-5-4" inkscape:connector-curvature="0"/>
      <path inkscape:connector-curvature="0" id="path8811-5-0-8" d="m 273.03804,305.45672 a 23.294008,23.294008 0 0 0 32.94232,0 23.294008,23.294008 0 0 0 5.00602,-7.48336 h -20.04772 a 9.1102722,9.1102722 0 0 1 -7.87148,-2.54576 9.1102722,9.1102722 0 0 1 0,-12.88408 9.1102722,9.1102722 0 0 1 5.80854,-2.64048 v -14.1905 a 23.294008,23.294008 0 0 0 -15.83768,6.80184 23.294008,23.294008 0 0 0 0,32.94234 z" style="display:inline;opacity:1;fill:url(#linearGradient8813-2-5-0);fill-opacity:1;stroke:none;stroke-width:0.24264592;stroke-linecap:round;stroke-linejoin:round;stroke-miterlimit:4;stroke-dasharray:none;stroke-opacity:1;enable-background:new"/>
      <path style="display:inline;opacity:1;fill:url(#linearGradient8817-7-9-9);fill-opacity:1;stroke:none;stroke-width:0.24264592;stroke-linecap:round;stroke-linejoin:round;stroke-miterlimit:4;stroke-dasharray:none;stroke-opacity:1;enable-background:new" d="m 305.8389,305.3267 a 23.294008,23.294008 0 0 0 0,-32.94232 23.294008,23.294008 0 0 0 -7.48336,-5.00602 v 20.04774 a 9.1102722,9.1102722 0 0 1 -2.54578,7.87148 9.1102722,9.1102722 0 0 1 -12.88406,0 9.1102722,9.1102722 0 0 1 -2.6405,-5.80856 h -14.1905 a 23.294008,23.294008 0 0 0 6.80186,15.83768 23.294008,23.294008 0 0 0 32.94234,0 z" id="path8815-9-3-1" inkscape:connector-curvature="0"/>
      <path style="display:inline;opacity:1;fill:#000000;fill-opacity:0.484375;stroke:none;stroke-width:0.97650462;stroke-linecap:round;stroke-linejoin:round;stroke-miterlimit:4;stroke-dasharray:none;stroke-opacity:0.203125;enable-background:new" d="m 289.60138,259.04664 a 29.771862,29.771862 0 0 0 -29.77196,29.77194 29.771862,29.771862 0 0 0 0.027,0.75702 29.771862,29.771862 0 0 1 29.74498,-29.23408 29.771862,29.771862 0 0 1 29.74496,29.01322 29.771862,29.771862 0 0 0 0.027,-0.53616 29.771862,29.771862 0 0 0 -29.77194,-29.77194 z" id="circle8736-7-6-2" inkscape:connector-curvature="0"/>
      <path inkscape:connector-curvature="0" id="path8850-7-1-9" d="m 289.49924,319.58986 a 29.723966,29.723966 0 0 0 29.72406,-29.72404 29.723966,29.723966 0 0 0 -0.027,-0.75582 29.723966,29.723966 0 0 1 -29.69712,29.18708 29.723966,29.723966 0 0 1 -29.6971,-28.96656 29.723966,29.723966 0 0 0 -0.027,0.5353 29.723966,29.723966 0 0 0 29.72404,29.72404 z" style="display:inline;opacity:1;fill:#ffffff;fill-opacity:0.38020833;stroke:none;stroke-width:0.9749338;stroke-linecap:round;stroke-linejoin:round;stroke-miterlimit:4;stroke-dasharray:none;stroke-opacity:0.203125;enable-background:new"/>
      <path sodipodi:nodetypes="ccccccsc" inkscape:connector-curvature="0" id="path8876-3-3-8" d="m 266.77086,211.92394 c -2.10618,0 -4.21254,0.80674 -5.8264,2.4206 -3.22772,3.22776 -3.22772,8.42506 0,11.6528 l 22.89098,22.89098 33.49146,10.1898 c 0,0 -30.44464,-30.3664 -44.73062,-44.73356 -1.61386,-1.61386 -3.71924,-2.4206 -5.82542,-2.4206 z" style="display:none;opacity:1;fill:url(#linearGradient8884-2-2-1);fill-opacity:1;stroke:none;stroke-width:0.25748488;stroke-linecap:round;stroke-linejoin:round;stroke-miterlimit:4;stroke-dasharray:none;stroke-opacity:1;enable-background:new" inkscape:label="x"/>
      <path inkscape:label="x" style="display:inline;opacity:1;fill:url(#linearGradient8973-1-9-1);fill-opacity:1;stroke:none;stroke-width:0.24264592;stroke-linecap:round;stroke-linejoin:round;stroke-miterlimit:4;stroke-dasharray:none;stroke-opacity:1;enable-background:new" d="m 267.05372,215.36332 c -1.9848,0 -3.96976,0.76024 -5.49062,2.2811 -3.0417,3.04172 -3.0417,7.9395 0,10.98124 l 21.57176,21.57176 -16.08114,-34.83408 z" id="path8965-6-2-8" inkscape:connector-curvature="0" sodipodi:nodetypes="cccccc"/>
      <path sodipodi:nodetypes="cccccc" inkscape:connector-curvature="0" id="path8975-5-0-5" d="m 220.98234,252.53054 c -1.40346,1.40348 -2.26946,3.34462 -2.26948,5.49544 4e-5,4.30164 3.4633,7.7649 7.76492,7.7649 h 30.5071 l -36.00252,-13.26032 z" style="display:inline;opacity:1;fill:url(#linearGradient8977-1-6-9);fill-opacity:1;stroke:none;stroke-width:0.24264592;stroke-linecap:round;stroke-linejoin:round;stroke-miterlimit:4;stroke-dasharray:none;stroke-opacity:1;enable-background:new" inkscape:label="x"/>
      <path inkscape:label="x" style="display:inline;opacity:1;fill:url(#linearGradient8981-5-1-7);fill-opacity:1;stroke:none;stroke-width:0.24264592;stroke-linecap:round;stroke-linejoin:round;stroke-miterlimit:4;stroke-dasharray:none;stroke-opacity:1;enable-background:new" d="m 216.02784,310.129 c 0,1.98482 0.76024,3.96978 2.28108,5.49064 3.04174,3.04168 7.93952,3.04168 10.98126,-2e-5 l 21.57176,-21.57176 z" id="path8979-6-6-0" inkscape:connector-curvature="0" sodipodi:nodetypes="cccccc"/>
      <circle style="color:#000000;clip-rule:nonzero;display:block;overflow:visible;visibility:visible;opacity:1;isolation:auto;mix-blend-mode:normal;color-interpolation:sRGB;color-interpolation-filters:linearRGB;solid-color:#000000;solid-opacity:1;vector-effect:none;fill:url(#linearGradient8784-0-9-0);fill-opacity:1;fill-rule:nonzero;stroke:none;stroke-width:1.00625885;stroke-linecap:butt;stroke-linejoin:miter;stroke-miterlimit:4;stroke-dasharray:none;stroke-dashoffset:0;stroke-opacity:0.203125;marker:none;marker-start:none;marker-mid:none;marker-end:none;paint-order:fill markers stroke;color-rendering:auto;image-rendering:auto;shape-rendering:auto;text-rendering:auto;enable-background:accumulate" id="path8776-1-4-9" cx="289.60736" cy="288.87173" r="11.924564"/>
      <circle r="18.893719" cy="288.87173" cx="289.60736" id="circle8860-6-0-3" style="color:#000000;clip-rule:nonzero;display:block;overflow:visible;visibility:visible;opacity:1;isolation:auto;mix-blend-mode:normal;color-interpolation:sRGB;color-interpolation-filters:linearRGB;solid-color:#000000;solid-opacity:1;vector-effect:none;fill:none;fill-opacity:1;fill-rule:nonzero;stroke:#f4f4f4;stroke-width:0.26230726;stroke-linecap:butt;stroke-linejoin:miter;stroke-miterlimit:4;stroke-dasharray:none;stroke-dashoffset:0;stroke-opacity:1;marker:none;marker-start:none;marker-mid:none;marker-end:none;paint-order:fill markers stroke;color-rendering:auto;image-rendering:auto;shape-rendering:auto;text-rendering:auto;enable-background:accumulate"/>
      <circle style="color:#000000;clip-rule:nonzero;display:block;overflow:visible;visibility:visible;opacity:1;isolation:auto;mix-blend-mode:normal;color-interpolation:sRGB;color-interpolation-filters:linearRGB;solid-color:#000000;solid-opacity:1;vector-effect:none;fill:none;fill-opacity:1;fill-rule:nonzero;stroke:#f4f4f4;stroke-width:0.21534801;stroke-linecap:butt;stroke-linejoin:miter;stroke-miterlimit:4;stroke-dasharray:none;stroke-dashoffset:0;stroke-opacity:1;marker:none;marker-start:none;marker-mid:none;marker-end:none;paint-order:fill markers stroke;color-rendering:auto;image-rendering:auto;shape-rendering:auto;text-rendering:auto;enable-background:accumulate" id="circle8864-7-6-90" cx="289.60736" cy="288.87173" r="15.511288"/>
    </g>
  </g>
</svg>