<?xml version="1.0" encoding="UTF-8" standalone="yes"?>
<svg xmlns:dc="http://purl.org/dc/elements/1.1/" xmlns:cc="http://creativecommons.org/ns#" xmlns:rdf="http://www.w3.org/1999/02/22-rdf-syntax-ns#" xmlns:svg="http://www.w3.org/2000/svg" xmlns="http://www.w3.org/2000/svg" xmlns:xlink="http://www.w3.org/1999/xlink" xmlns:sodipodi="http://sodipodi.sourceforge.net/DTD/sodipodi-0.dtd" xmlns:inkscape="http://www.inkscape.org/namespaces/inkscape" height="128" viewBox="0 0 128 128" width="128" id="svg2" version="1.1" inkscape:version="0.92.1 r" sodipodi:docname="evolution.svg" enable-background="new" folder="128">
  <title id="title4675">Template icons dark</title>
  <metadata id="metadata24">
    <rdf:RDF>
      <cc:Work rdf:about="">
        <dc:format>image/svg+xml</dc:format>
        <dc:type rdf:resource="http://purl.org/dc/dcmitype/StillImage"/>
        <dc:title>Template icons dark</dc:title>
        <dc:date>17/05/13</dc:date>
        <dc:creator>
          <cc:Agent>
            <dc:title>wfpaisa</dc:title>
          </cc:Agent>
        </dc:creator>
        <dc:rights>
          <cc:Agent>
            <dc:title>License: GPLv3</dc:title>
          </cc:Agent>
        </dc:rights>
        <dc:language>es-en</dc:language>
        <dc:subject>
          <rdf:Bag>
            <rdf:li>plane-icon-theme</rdf:li>
          </rdf:Bag>
        </dc:subject>
        <dc:description>Template for create set icons</dc:description>
        <cc:license rdf:resource="https://www.gnu.org/licenses/gpl-3.0.en.html"/>
      </cc:Work>
    </rdf:RDF>
  </metadata>
  <defs id="defs22">
    <linearGradient inkscape:collect="always" id="linearGradient8505">
      <stop style="stop-color:#030303;stop-opacity:0.15104167" offset="0" id="stop8501"/>
      <stop style="stop-color:#030303;stop-opacity:0.16145833" offset="1" id="stop8503"/>
    </linearGradient>
    <linearGradient inkscape:collect="always" id="linearGradient8499">
      <stop style="stop-color:#030303;stop-opacity:0.203125" offset="0" id="stop8495"/>
      <stop style="stop-color:#030303;stop-opacity:0.16145833" offset="1" id="stop8497"/>
    </linearGradient>
    <linearGradient id="linearGradient8493" inkscape:collect="always">
      <stop id="stop8489" offset="0" style="stop-color:#000000;stop-opacity:0"/>
      <stop id="stop8491" offset="1" style="stop-color:#000000;stop-opacity:0.09375"/>
    </linearGradient>
    <linearGradient inkscape:collect="always" id="linearGradient7974">
      <stop style="stop-color:#000000;stop-opacity:0" offset="0" id="stop7970"/>
      <stop style="stop-color:#000000;stop-opacity:0.05208333" offset="1" id="stop7972"/>
    </linearGradient>
    <linearGradient inkscape:collect="always" id="linearGradient7966">
      <stop style="stop-color:#e6e6e6;stop-opacity:1" offset="0" id="stop7962"/>
      <stop style="stop-color:#ffffff;stop-opacity:1" offset="1" id="stop7964"/>
    </linearGradient>
    <linearGradient inkscape:collect="always" id="linearGradient7947">
      <stop style="stop-color:#030303;stop-opacity:0.13541667" offset="0" id="stop7943"/>
      <stop id="stop7951" offset="0.40221724" style="stop-color:#030303;stop-opacity:0.25"/>
      <stop style="stop-color:#030303;stop-opacity:0;" offset="1" id="stop7945"/>
    </linearGradient>
    <linearGradient inkscape:collect="always" id="linearGradient7913">
      <stop style="stop-color:#000000;stop-opacity:0.078125" offset="0" id="stop7909"/>
      <stop style="stop-color:#000000;stop-opacity:0" offset="1" id="stop7911"/>
    </linearGradient>
    <linearGradient inkscape:collect="always" id="linearGradient7905">
      <stop style="stop-color:#ffffff;stop-opacity:1" offset="0" id="stop7901"/>
      <stop style="stop-color:#e7e7e7;stop-opacity:1" offset="1" id="stop7903"/>
    </linearGradient>
    <linearGradient id="linearGradient7803" inkscape:collect="always">
      <stop id="stop7799" offset="0" style="stop-color:#030303;stop-opacity:0.078125"/>
      <stop id="stop7801" offset="1" style="stop-color:#030303;stop-opacity:0.16145833"/>
    </linearGradient>
    <linearGradient inkscape:collect="always" id="linearGradient7734">
      <stop style="stop-color:#030303;stop-opacity:0.18229167" offset="0" id="stop7730"/>
      <stop style="stop-color:#030303;stop-opacity:0;" offset="1" id="stop7732"/>
    </linearGradient>
    <linearGradient gradientTransform="translate(-116,-133)" inkscape:collect="always" xlink:href="#linearGradient7734" id="linearGradient7736-3" x1="160" y1="162" x2="160" y2="131.26768" gradientUnits="userSpaceOnUse"/>
    <linearGradient inkscape:collect="always" xlink:href="#linearGradient7803" id="linearGradient7797" gradientUnits="userSpaceOnUse" x1="160" y1="162" x2="160" y2="124"/>
    <linearGradient inkscape:collect="always" xlink:href="#linearGradient7803" id="linearGradient7837" gradientUnits="userSpaceOnUse" x1="160" y1="162" x2="160" y2="124" gradientTransform="matrix(1,0,0,-1,0,321)"/>
    <linearGradient inkscape:collect="always" xlink:href="#linearGradient7905" id="linearGradient7907" x1="160.06299" y1="163" x2="160.06299" y2="136" gradientUnits="userSpaceOnUse"/>
    <linearGradient inkscape:collect="always" xlink:href="#linearGradient7913" id="linearGradient7915" x1="160.12599" y1="160" x2="160.12599" y2="136" gradientUnits="userSpaceOnUse"/>
    <linearGradient inkscape:collect="always" xlink:href="#linearGradient7947" id="linearGradient7949" x1="146" y1="146" x2="177.07086" y2="146" gradientUnits="userSpaceOnUse"/>
    <linearGradient inkscape:collect="always" xlink:href="#linearGradient7803" id="linearGradient7953" gradientUnits="userSpaceOnUse" x1="160" y1="162" x2="160" y2="124"/>
    <linearGradient inkscape:collect="always" xlink:href="#linearGradient7966" id="linearGradient7968" x1="161" y1="187.4567" x2="161" y2="165" gradientUnits="userSpaceOnUse"/>
    <linearGradient inkscape:collect="always" xlink:href="#linearGradient7974" id="linearGradient7976" x1="160.06299" y1="184" x2="160.06299" y2="166.00932" gradientUnits="userSpaceOnUse"/>
    <linearGradient inkscape:collect="always" xlink:href="#linearGradient7803" id="linearGradient7837-1" gradientUnits="userSpaceOnUse" x1="160" y1="162" x2="160" y2="124" gradientTransform="matrix(1.33,0,0,-1.33,59.2,485.965)"/>
    <linearGradient gradientTransform="matrix(1.33,0,0,1.33,59.2,59.035)" inkscape:collect="always" xlink:href="#linearGradient7966" id="linearGradient7968-0" x1="161" y1="187.4567" x2="161" y2="165" gradientUnits="userSpaceOnUse"/>
    <linearGradient gradientTransform="matrix(1.33,0,0,1.33,59.2,59.035)" inkscape:collect="always" xlink:href="#linearGradient7974" id="linearGradient7976-6" x1="160.06299" y1="184" x2="160.06299" y2="166.00932" gradientUnits="userSpaceOnUse"/>
    <linearGradient gradientTransform="matrix(1.33,0,0,1.33,59.2,59.035)" inkscape:collect="always" xlink:href="#linearGradient7803" id="linearGradient7953-2" gradientUnits="userSpaceOnUse" x1="160" y1="162" x2="160" y2="124"/>
    <linearGradient gradientTransform="matrix(1.33,0,0,1.33,59.2,59.035)" inkscape:collect="always" xlink:href="#linearGradient7905" id="linearGradient7907-1" x1="160.06299" y1="163" x2="160.06299" y2="136" gradientUnits="userSpaceOnUse"/>
    <linearGradient gradientTransform="matrix(1.33,0,0,1.33,59.2,59.035)" inkscape:collect="always" xlink:href="#linearGradient7913" id="linearGradient7915-9" x1="160.12599" y1="160" x2="160.12599" y2="136" gradientUnits="userSpaceOnUse"/>
    <linearGradient gradientTransform="matrix(1.33,0,0,1.33,59.2,59.035)" inkscape:collect="always" xlink:href="#linearGradient7947" id="linearGradient7949-2" x1="146" y1="146" x2="177.07086" y2="146" gradientUnits="userSpaceOnUse"/>
    <linearGradient inkscape:collect="always" xlink:href="#linearGradient7803" id="linearGradient8164" gradientUnits="userSpaceOnUse" gradientTransform="matrix(1.33,0,0,1.33,59.2,59.035)" x1="160" y1="162" x2="160" y2="124"/>
    <linearGradient inkscape:collect="always" xlink:href="#linearGradient7803" id="linearGradient7837-19" gradientUnits="userSpaceOnUse" x1="160" y1="162" x2="160" y2="124" gradientTransform="matrix(0.70373823,0,0,-0.69090809,-32.633634,189.8907)"/>
    <linearGradient gradientTransform="matrix(0.70373823,0,0,0.69090809,-32.633634,-31.890786)" inkscape:collect="always" xlink:href="#linearGradient7966" id="linearGradient7968-8" x1="161" y1="187.4567" x2="161" y2="165" gradientUnits="userSpaceOnUse"/>
    <linearGradient gradientTransform="matrix(0.70373823,0,0,0.69090809,-32.633634,-31.890786)" inkscape:collect="always" xlink:href="#linearGradient7974" id="linearGradient7976-0" x1="160.06299" y1="184" x2="160.06299" y2="166.00932" gradientUnits="userSpaceOnUse"/>
    <linearGradient gradientTransform="matrix(0.70373823,0,0,0.69090809,-32.633634,-31.890786)" inkscape:collect="always" xlink:href="#linearGradient7803" id="linearGradient7953-1" gradientUnits="userSpaceOnUse" x1="160" y1="162" x2="160" y2="124"/>
    <linearGradient gradientTransform="matrix(0.70373823,0,0,0.69090809,-32.633634,-31.890786)" inkscape:collect="always" xlink:href="#linearGradient7905" id="linearGradient7907-6" x1="160.06299" y1="163" x2="160.06299" y2="136" gradientUnits="userSpaceOnUse"/>
    <linearGradient gradientTransform="matrix(0.70373823,0,0,0.69090809,-32.633634,-31.890786)" inkscape:collect="always" xlink:href="#linearGradient7913" id="linearGradient7915-0" x1="160.12599" y1="160" x2="160.12599" y2="136" gradientUnits="userSpaceOnUse"/>
    <linearGradient gradientTransform="matrix(0.70373823,0,0,0.69090809,-32.633634,-31.890786)" inkscape:collect="always" xlink:href="#linearGradient7947" id="linearGradient7949-5" x1="146" y1="146" x2="177.07086" y2="146" gradientUnits="userSpaceOnUse"/>
    <linearGradient inkscape:collect="always" xlink:href="#linearGradient7803" id="linearGradient8234" gradientUnits="userSpaceOnUse" gradientTransform="matrix(0.70373823,0,0,0.69090809,-32.633634,-31.890786)" x1="160" y1="162" x2="160" y2="124"/>
    <linearGradient inkscape:collect="always" xlink:href="#linearGradient8499" id="linearGradient7837-4" gradientUnits="userSpaceOnUse" x1="160" y1="162" x2="160" y2="124" gradientTransform="matrix(0.5,0,0,-0.5,-56,104.75)"/>
    <linearGradient gradientTransform="matrix(0.5,0,0,0.5,-56,-55.75)" inkscape:collect="always" xlink:href="#linearGradient7966" id="linearGradient7968-7" x1="161" y1="187.4567" x2="161" y2="165" gradientUnits="userSpaceOnUse"/>
    <linearGradient gradientTransform="matrix(0.5,0,0,0.5,-56,-55.75)" inkscape:collect="always" xlink:href="#linearGradient8493" id="linearGradient7976-8" x1="160.06299" y1="184" x2="160.06299" y2="166.00932" gradientUnits="userSpaceOnUse"/>
    <linearGradient gradientTransform="matrix(0.5,0,0,0.5,-56,-55.75)" inkscape:collect="always" xlink:href="#linearGradient7905" id="linearGradient7907-4" x1="160.06299" y1="163" x2="160.06299" y2="136" gradientUnits="userSpaceOnUse"/>
    <linearGradient gradientTransform="matrix(0.5,0,0,0.5,-56,-55.75)" inkscape:collect="always" xlink:href="#linearGradient7913" id="linearGradient7915-06" x1="160.12599" y1="160" x2="160.12599" y2="136" gradientUnits="userSpaceOnUse"/>
    <linearGradient inkscape:collect="always" xlink:href="#linearGradient8505" id="linearGradient8304" gradientUnits="userSpaceOnUse" gradientTransform="matrix(0.5,0,0,0.5,-56,-55.75)" x1="160" y1="162" x2="160" y2="124"/>
    <linearGradient gradientTransform="matrix(0.33,0,0,0.33,-68.8,-68.465)" inkscape:collect="always" xlink:href="#linearGradient7966" id="linearGradient7968-9" x1="161" y1="187.4567" x2="161" y2="165" gradientUnits="userSpaceOnUse"/>
    <linearGradient gradientTransform="matrix(0.33,0,0,0.33,-68.8,-68.465)" inkscape:collect="always" xlink:href="#linearGradient7905" id="linearGradient7907-9" x1="160.06299" y1="163" x2="160.06299" y2="136" gradientUnits="userSpaceOnUse"/>
  </defs>
  <sodipodi:namedview pagecolor="#383c4a" bordercolor="#ffffff" borderopacity="0.62745098" objecttolerance="4" gridtolerance="10" guidetolerance="4" inkscape:pageopacity="0" inkscape:pageshadow="2" inkscape:window-width="640" inkscape:window-height="480" id="namedview20" showgrid="true" inkscape:zoom="16.386532" inkscape:cx="88.273341" inkscape:cy="-43.076466" inkscape:current-layer="g7905" inkscape:snap-smooth-nodes="false" showguides="true" borderlayer="true" inkscape:showpageshadow="false" inkscape:guide-bbox="true" guidecolor="#bd4fff" guideopacity="0.78431373" inkscape:snap-nodes="true" inkscape:lockguides="false" fit-margin-top="0" fit-margin-left="0" fit-margin-right="0" fit-margin-bottom="0" guidehicolor="#ff0101" guidehiopacity="0.78431373" inkscape:snap-page="true" inkscape:object-nodes="true" inkscape:snap-bbox="true" inkscape:snap-global="true" inkscape:snap-object-midpoints="false" inkscape:snap-bbox-edge-midpoints="false">
    <inkscape:grid type="xygrid" id="grid4171" empspacing="4" dotted="false" originx="2.7755576e-17" originy="0" spacingx="1" spacingy="1" color="#5a5a5a" opacity="0.23529412" empcolor="#5a5a5a" empopacity="0.47058824" visible="true"/>
    <inkscape:grid type="axonomgrid" id="grid4699" units="mm" empspacing="4" color="#5a5a5a" opacity="0.23529412" empcolor="#5a5a5a" empopacity="0.47058824" gridanglex="45" gridanglez="45" spacingy="3.7795276" visible="false" originx="1.3228346" originy="1.3228346"/>
    <sodipodi:guide position="48,0" orientation="1,0" id="guide4568" inkscape:locked="false" inkscape:label="" inkscape:color="rgb(189,79,255)"/>
    <sodipodi:guide position="111.99996,-3.9999999e-05" orientation="0,1" id="guide4570" inkscape:locked="false" inkscape:label="" inkscape:color="rgb(189,79,255)"/>
    <sodipodi:guide position="0,0" orientation="1,0" id="guide4572" inkscape:locked="false" inkscape:label="" inkscape:color="rgb(189,79,255)"/>
    <sodipodi:guide position="0,48" orientation="0,1" id="guide4574" inkscape:locked="false" inkscape:label="" inkscape:color="rgb(189,79,255)"/>
    <sodipodi:guide position="0,80" orientation="0,1" id="guide4576" inkscape:locked="false" inkscape:label="" inkscape:color="rgb(189,79,255)"/>
    <sodipodi:guide position="-32,48" orientation="1,0" id="guide4578" inkscape:locked="false" inkscape:label="" inkscape:color="rgb(189,79,255)"/>
    <sodipodi:guide position="-32,104" orientation="0,1" id="guide4580" inkscape:locked="false" inkscape:label="" inkscape:color="rgb(189,79,255)"/>
    <sodipodi:guide position="-56,80" orientation="1,0" id="guide4582" inkscape:locked="false" inkscape:label="" inkscape:color="rgb(189,79,255)"/>
    <sodipodi:guide position="48,-64" orientation="0,1" id="guide4584" inkscape:locked="false" inkscape:label="" inkscape:color="rgb(189,79,255)"/>
    <sodipodi:guide position="0,0" orientation="-0.70710678,0.70710678" id="guide4588" inkscape:locked="false" inkscape:label="" inkscape:color="rgb(189,79,255)"/>
    <sodipodi:guide position="-56,80" orientation="-0.70710678,0.70710678" id="guide4573" inkscape:locked="false" inkscape:label="" inkscape:color="rgb(189,79,255)"/>
    <sodipodi:guide position="-32,48" orientation="-0.70710678,0.70710678" id="guide4575" inkscape:locked="false" inkscape:label="" inkscape:color="rgb(189,79,255)"/>
    <sodipodi:guide position="48,-64" orientation="-0.70710678,0.70710678" id="guide4577" inkscape:locked="false" inkscape:label="" inkscape:color="rgb(189,79,255)"/>
    <sodipodi:guide position="47.999962,0" orientation="0.70710678,0.70710678" id="guide4697" inkscape:locked="false" inkscape:label="" inkscape:color="rgb(189,79,255)"/>
    <sodipodi:guide position="207.99995,-288" orientation="0,1" id="guide7833" inkscape:locked="false"/>
    <sodipodi:guide position="335.99994,-288" orientation="1,0" id="guide7835" inkscape:locked="false" inkscape:label="" inkscape:color="rgb(189,79,255)"/>
    <sodipodi:guide position="111.99996,-64" orientation="1,0" id="guide7915" inkscape:locked="false"/>
    <sodipodi:guide position="111.99996,-160" orientation="0,1" id="guide7917" inkscape:locked="false"/>
    <sodipodi:guide position="207.99996,-160" orientation="1,0" id="guide7919" inkscape:locked="false"/>
    <sodipodi:guide position="111.99996,-160" orientation="-0.70710678,0.70710678" id="guide7921" inkscape:locked="false" inkscape:label="" inkscape:color="rgb(189,79,255)"/>
    <sodipodi:guide position="207.99996,-288" orientation="-0.70710678,0.70710678" id="guide7923" inkscape:locked="false" inkscape:label="" inkscape:color="rgb(189,79,255)"/>
    <sodipodi:guide position="-72,104" orientation="1,0" id="guide7824" inkscape:locked="false"/>
    <sodipodi:guide position="-56,120" orientation="0,1" id="guide7826" inkscape:locked="false"/>
    <sodipodi:guide position="-72,104" orientation="-0.70710678,0.70710678" id="guide7828" inkscape:locked="false" inkscape:label="" inkscape:color="rgb(189,79,255)"/>
  </sodipodi:namedview>
  <g inkscape:groupmode="layer" id="layer4" inkscape:label="icon_128" style="display:inline" transform="translate(-207.99995,-208)">
    <g inkscape:groupmode="layer" id="layer11" inkscape:label="frame" style="display:none">
      <rect inkscape:label="frame_128" y="208" x="207.99995" height="128" width="128" id="frame_128" style="color:#000000;clip-rule:nonzero;display:inline;overflow:visible;visibility:visible;opacity:1;isolation:auto;mix-blend-mode:normal;color-interpolation:sRGB;color-interpolation-filters:linearRGB;solid-color:#000000;solid-opacity:1;vector-effect:none;fill:#000000;fill-opacity:1;fill-rule:nonzero;stroke:#ff24f7;stroke-width:0;stroke-linecap:square;stroke-linejoin:miter;stroke-miterlimit:4;stroke-dasharray:none;stroke-dashoffset:0;stroke-opacity:0.99481865;marker:none;marker-start:none;marker-mid:none;marker-end:none;paint-order:normal;color-rendering:auto;image-rendering:auto;shape-rendering:auto;text-rendering:auto;enable-background:accumulate"/>
      <text xml:space="preserve" style="font-size:38.46457672px;line-height:0%;font-family:sans-serif;letter-spacing:0px;word-spacing:0px;display:inline;opacity:1;fill:#ffffff;fill-opacity:1;stroke:none;stroke-width:0.07881754px;stroke-linecap:butt;stroke-linejoin:miter;stroke-opacity:1" x="236.17479" y="283.34512" id="txt_128" inkscape:label="txt_128">
        <tspan sodipodi:role="line" x="236.17479" y="283.34512" style="font-size:38.46457672px;line-height:0%;fill:#ffffff;fill-opacity:1;stroke:none;stroke-width:0.07881754px" id="tspan5069-6">128</tspan>
      </text>
      <text xml:space="preserve" style="font-size:7.43228436px;line-height:1000%;font-family:sans-serif;letter-spacing:0px;word-spacing:0px;display:inline;opacity:1;fill:#ffffff;fill-opacity:0.42156863;stroke:none;stroke-width:0.16398695px;stroke-linecap:butt;stroke-linejoin:miter;stroke-opacity:1" x="265.97781" y="330.1329" id="txt_scalable_64_512" inkscape:label="txt_scalable_64_512">
        <tspan sodipodi:role="line" x="265.97781" y="330.1329" style="font-size:8.08990479px;fill:#ffffff;fill-opacity:0.42156863;stroke:none;stroke-width:0.16398695px" id="tspan5049-1-6-6">Scalable:96-512</tspan>
      </text>
    </g>
    <g inkscape:groupmode="layer" id="layer12" inkscape:label="icon" style="display:inline">
      <path style="color:#000000;clip-rule:nonzero;display:block;overflow:visible;visibility:visible;opacity:1;isolation:auto;mix-blend-mode:normal;color-interpolation:sRGB;color-interpolation-filters:linearRGB;solid-color:#000000;solid-opacity:1;vector-effect:none;fill:#000000;fill-opacity:0.11458333;fill-rule:nonzero;stroke:none;stroke-width:4.69581985px;stroke-linecap:butt;stroke-linejoin:miter;stroke-miterlimit:4;stroke-dasharray:none;stroke-dashoffset:0;stroke-opacity:1;marker:none;marker-start:none;marker-mid:none;marker-end:none;paint-order:fill markers stroke;color-rendering:auto;image-rendering:auto;shape-rendering:auto;text-rendering:auto;enable-background:accumulate" d="m 212.15,234.595 h 119.7 v 75.81 h -119.7 z" id="rect7723-9" inkscape:connector-curvature="0" sodipodi:nodetypes="ccccc" inkscape:label="base sombra"/>
      <path style="color:#000000;clip-rule:nonzero;display:inline;overflow:visible;visibility:visible;opacity:1;isolation:auto;mix-blend-mode:normal;color-interpolation:sRGB;color-interpolation-filters:linearRGB;solid-color:#000000;solid-opacity:1;vector-effect:none;fill:#f2f2f2;fill-opacity:1;fill-rule:nonzero;stroke:none;stroke-width:4.69581985px;stroke-linecap:butt;stroke-linejoin:miter;stroke-miterlimit:4;stroke-dasharray:none;stroke-dashoffset:0;stroke-opacity:1;marker:none;marker-start:none;marker-mid:none;marker-end:none;paint-order:fill markers stroke;color-rendering:auto;image-rendering:auto;shape-rendering:auto;text-rendering:auto;enable-background:accumulate" d="m 213.48,235.925 c 0,0 78.02667,0 117.04,0 v 73.15 H 213.48 Z" id="rect7721-2" inkscape:connector-curvature="0" sodipodi:nodetypes="ccccc" inkscape:label="base"/>
      <path style="color:#000000;clip-rule:nonzero;display:inline;overflow:visible;visibility:visible;opacity:1;isolation:auto;mix-blend-mode:normal;color-interpolation:sRGB;color-interpolation-filters:linearRGB;solid-color:#000000;solid-opacity:1;vector-effect:none;fill:url(#linearGradient7837-1);fill-opacity:1;fill-rule:nonzero;stroke:none;stroke-width:4.69581985px;stroke-linecap:butt;stroke-linejoin:miter;stroke-miterlimit:4;stroke-dasharray:none;stroke-dashoffset:0;stroke-opacity:1;marker:none;marker-start:none;marker-mid:none;marker-end:none;paint-order:fill markers stroke;color-rendering:auto;image-rendering:auto;shape-rendering:auto;text-rendering:auto;enable-background:accumulate" d="m 213.48,309.075 h 117.04 v -2.69143 l -2.66,-6.61857 -50.52353,-33.23764 c 0,0 -3.71324,-2.67236 -5.33647,-2.67236 -1.82189,0 -5.30892,2.65169 -5.30892,2.65169 L 216.14,299.765 l -2.66,6.65 z" id="path7827-2" inkscape:connector-curvature="0" sodipodi:nodetypes="cccccscccc"/>
      <path sodipodi:nodetypes="ccccsccc" inkscape:connector-curvature="0" id="path7831-8" d="m 213.48,309.075 h 117.04 l -2.66,-9.31 -50.52353,-30.57764 c 0,0 -3.71324,-2.67236 -5.33647,-2.67236 -1.82189,0 -5.30892,2.65169 -5.30892,2.65169 L 216.14,299.765 Z" style="color:#000000;clip-rule:nonzero;display:block;overflow:visible;visibility:visible;opacity:1;isolation:auto;mix-blend-mode:normal;color-interpolation:sRGB;color-interpolation-filters:linearRGB;solid-color:#000000;solid-opacity:1;vector-effect:none;fill:url(#linearGradient7968-0);fill-opacity:1;fill-rule:nonzero;stroke:none;stroke-width:4.69581985px;stroke-linecap:butt;stroke-linejoin:miter;stroke-miterlimit:4;stroke-dasharray:none;stroke-dashoffset:0;stroke-opacity:1;marker:none;marker-start:none;marker-mid:none;marker-end:none;paint-order:fill markers stroke;color-rendering:auto;image-rendering:auto;shape-rendering:auto;text-rendering:auto;enable-background:accumulate"/>
      <path style="color:#000000;clip-rule:nonzero;display:inline;overflow:visible;visibility:visible;opacity:1;isolation:auto;mix-blend-mode:normal;color-interpolation:sRGB;color-interpolation-filters:linearRGB;solid-color:#000000;solid-opacity:1;vector-effect:none;fill:url(#linearGradient7976-6);fill-opacity:1;fill-rule:nonzero;stroke:none;stroke-width:4.69581985px;stroke-linecap:butt;stroke-linejoin:miter;stroke-miterlimit:4;stroke-dasharray:none;stroke-dashoffset:0;stroke-opacity:1;marker:none;marker-start:none;marker-mid:none;marker-end:none;paint-order:fill markers stroke;color-rendering:auto;image-rendering:auto;shape-rendering:auto;text-rendering:auto;enable-background:accumulate" d="m 218.8,306.415 h 106.4 l -2.66,-6.65 -45.20353,-25.25764 c 0,0 -3.71324,-2.67236 -5.33647,-2.67236 -1.82189,0 -5.30892,2.65169 -5.30892,2.65169 L 221.46,299.765 Z" id="path7833-9" inkscape:connector-curvature="0" sodipodi:nodetypes="ccccsccc"/>
      <path sodipodi:nodetypes="cccccscccc" inkscape:connector-curvature="0" id="path7773-7" d="m 213.48,235.925 h 117.04 v 2.69143 l -2.66,6.61857 -50.52353,34.56764 c 0,0 -3.71324,2.67236 -5.33647,2.67236 -1.82189,0 -5.30892,-2.65169 -5.30892,-2.65169 L 216.14,245.235 l -2.66,-6.65 z" style="color:#000000;clip-rule:nonzero;display:block;overflow:visible;visibility:visible;opacity:1;isolation:auto;mix-blend-mode:normal;color-interpolation:sRGB;color-interpolation-filters:linearRGB;solid-color:#000000;solid-opacity:1;vector-effect:none;fill:url(#linearGradient8164);fill-opacity:1;fill-rule:nonzero;stroke:none;stroke-width:4.69581985px;stroke-linecap:butt;stroke-linejoin:miter;stroke-miterlimit:4;stroke-dasharray:none;stroke-dashoffset:0;stroke-opacity:1;marker:none;marker-start:none;marker-mid:none;marker-end:none;paint-order:fill markers stroke;color-rendering:auto;image-rendering:auto;shape-rendering:auto;text-rendering:auto;enable-background:accumulate"/>
      <path style="color:#000000;clip-rule:nonzero;display:block;overflow:visible;visibility:visible;opacity:1;isolation:auto;mix-blend-mode:normal;color-interpolation:sRGB;color-interpolation-filters:linearRGB;solid-color:#000000;solid-opacity:1;vector-effect:none;fill:url(#linearGradient7953-2);fill-opacity:1;fill-rule:nonzero;stroke:none;stroke-width:4.69581985px;stroke-linecap:butt;stroke-linejoin:miter;stroke-miterlimit:4;stroke-dasharray:none;stroke-dashoffset:0;stroke-opacity:1;marker:none;marker-start:none;marker-mid:none;marker-end:none;paint-order:fill markers stroke;color-rendering:auto;image-rendering:auto;shape-rendering:auto;text-rendering:auto;enable-background:accumulate" d="m 213.48,235.925 h 117.04 v 2.69143 l -2.66,6.61857 -50.52353,31.90764 c 0,0 -3.71324,2.67236 -5.33647,2.67236 -1.82189,0 -5.30892,-2.65169 -5.30892,-2.65169 L 216.14,245.235 l -2.66,-6.65 z" id="path7809-3" inkscape:connector-curvature="0" sodipodi:nodetypes="cccccscccc"/>
      <path style="color:#000000;clip-rule:nonzero;display:block;overflow:visible;visibility:visible;opacity:1;isolation:auto;mix-blend-mode:normal;color-interpolation:sRGB;color-interpolation-filters:linearRGB;solid-color:#000000;solid-opacity:1;vector-effect:none;fill:url(#linearGradient7907-1);fill-opacity:1;fill-rule:nonzero;stroke:none;stroke-width:4.69581985px;stroke-linecap:butt;stroke-linejoin:miter;stroke-miterlimit:4;stroke-dasharray:none;stroke-dashoffset:0;stroke-opacity:1;marker:none;marker-start:none;marker-mid:none;marker-end:none;paint-order:fill markers stroke;color-rendering:auto;image-rendering:auto;shape-rendering:auto;text-rendering:auto;enable-background:accumulate" d="m 213.48,235.925 h 117.04 l -2.66,9.31 -50.52353,30.57764 c 0,0 -3.71324,2.67236 -5.33647,2.67236 -1.82189,0 -5.30892,-2.65169 -5.30892,-2.65169 L 216.14,245.235 Z" id="rect7725-6" inkscape:connector-curvature="0" sodipodi:nodetypes="ccccsccc"/>
      <path sodipodi:nodetypes="ccccsccc" inkscape:connector-curvature="0" id="path7811-1" d="m 218.8,238.585 h 106.4 l -2.66,6.65 -45.20353,25.25764 c 0,0 -3.71324,2.67236 -5.33647,2.67236 -1.82189,0 -5.30892,-2.65169 -5.30892,-2.65169 L 221.46,245.235 Z" style="color:#000000;clip-rule:nonzero;display:inline;overflow:visible;visibility:visible;opacity:1;isolation:auto;mix-blend-mode:normal;color-interpolation:sRGB;color-interpolation-filters:linearRGB;solid-color:#000000;solid-opacity:1;vector-effect:none;fill:url(#linearGradient7915-9);fill-opacity:1;fill-rule:nonzero;stroke:none;stroke-width:4.69581985px;stroke-linecap:butt;stroke-linejoin:miter;stroke-miterlimit:4;stroke-dasharray:none;stroke-dashoffset:0;stroke-opacity:1;marker:none;marker-start:none;marker-mid:none;marker-end:none;paint-order:fill markers stroke;color-rendering:auto;image-rendering:auto;shape-rendering:auto;text-rendering:auto;enable-background:accumulate"/>
      <path inkscape:connector-curvature="0" id="path7841-2" d="m 260.695,245.86103 c -5.00128,0 -9.06583,4.06455 -9.06583,9.06583 0,5.00128 4.06455,9.06582 9.06583,9.06582 3.14748,0 5.92035,-1.61233 7.54619,-4.05235 v 0.95074 c 0,0 5.00965,-1.18121 7.56697,-1.33 2.24412,-0.13061 3.8145,2.5883 6.79548,2.73794 1.79406,0.09 4.94911,-3.77542 6.67597,-3.64192 1.98322,0.15334 3.67462,2.41304 5.2135,2.80028 2.5078,0.63104 4.33808,-0.5663 4.33808,-0.5663 v -1.30921 c 0,0 -1.72257,1.13105 -4.29911,0.8832 -1.50453,-0.14473 -3.30091,-2.96637 -5.21611,-3.11458 -1.75182,-0.1356 -4.93222,3.73001 -6.7513,3.6393 -2.93743,-0.14643 -4.4606,-2.86441 -6.67338,-2.73792 -2.47012,0.1412 -6.98458,1.17979 -7.39813,1.27544 0.31848,-0.53809 0.58418,-1.10998 0.7871,-1.71186 0.44789,-0.10453 4.85901,-1.12871 7.29161,-1.27024 2.24413,-0.13061 3.81709,2.59088 6.79807,2.74052 1.79407,0.09 4.94653,-3.77801 6.67339,-3.64451 1.98321,0.15334 3.67461,2.41563 5.21349,2.80287 2.50781,0.63105 4.33809,-0.56888 4.33809,-0.56888 v -1.30923 c 0,0 -1.72257,1.13106 -4.29914,0.8832 -1.50452,-0.14473 -3.30088,-2.96633 -5.21608,-3.11458 -1.75183,-0.13558 -4.93223,3.73003 -6.75131,3.63931 -2.93742,-0.14642 -4.46059,-2.86441 -6.67338,-2.73793 -2.30325,0.13167 -6.12698,0.99175 -7.02926,1.19752 0.0826,-0.49111 0.13509,-0.9923 0.13509,-1.50663 0,-0.2564 -0.018,-0.50747 -0.039,-0.75852 0.59987,-0.13943 4.80321,-1.10814 7.18772,-1.24687 2.24412,-0.13061 3.81448,2.58829 6.79546,2.73792 1.79406,0.09 4.94652,-3.77541 6.67338,-3.64191 1.98321,0.15334 3.67721,2.41303 5.21609,2.80028 2.5078,0.63104 4.33549,-0.56629 4.33549,-0.56629 v -1.30923 c 0,0 -1.72258,1.13106 -4.29912,0.8832 -1.50452,-0.14473 -3.29829,-2.96634 -5.21349,-3.11458 -1.75182,-0.13558 -4.93483,3.73003 -6.75392,3.63932 -2.93742,-0.14643 -4.46059,-2.86442 -6.67338,-2.73794 -2.5008,0.14298 -7.15673,1.2194 -7.46566,1.29103 -0.20098,-0.87795 -0.52794,-1.70705 -0.96373,-2.46776 0.81767,-0.1888 4.71075,-1.07622 7.01888,-1.21051 2.24412,-0.13061 3.81448,2.58829 6.79546,2.73792 1.79406,0.09 4.94652,-3.77541 6.67338,-3.64191 1.98322,0.15334 3.67721,2.41303 5.21609,2.80028 2.5078,0.63104 4.33549,-0.56629 4.33549,-0.56629 v -1.30923 c 0,0 -1.72258,1.13108 -4.29912,0.88322 -1.50452,-0.14473 -3.29829,-2.96635 -5.21349,-3.1146 -1.75183,-0.13558 -4.93483,3.73003 -6.75392,3.63932 -2.93742,-0.14643 -4.46059,-2.86439 -6.67338,-2.73794 -2.58423,0.14775 -7.65009,1.33 -7.65009,1.33 v 0.34809 c -1.65004,-2.25765 -4.30891,-3.73283 -7.315,-3.73283 z m 0,0.84165 c 4.54772,0 8.22417,3.67645 8.22417,8.22418 0,4.54772 -3.67645,8.22417 -8.22417,8.22417 -4.54772,0 -8.22417,-3.67645 -8.22417,-8.22417 0,-4.54773 3.67645,-8.22418 8.22417,-8.22418 z m -0.14548,0.4494 a 0.80741701,0.80741701 0 0 0 -0.80786,0.80786 0.80741701,0.80741701 0 0 0 0.80786,0.80787 0.80741701,0.80741701 0 0 0 0.80789,-0.80787 0.80741701,0.80741701 0 0 0 -0.80789,-0.80786 z m 0.14548,2.10669 c -3.12792,0 -5.66809,2.54017 -5.66809,5.66809 0,3.12792 2.54017,5.66808 5.66809,5.66808 3.12792,0 5.66809,-2.54016 5.66809,-5.66808 0,-3.12792 -2.54017,-5.66809 -5.66809,-5.66809 z m 0,0.52472 c 2.84426,0 5.14336,2.29911 5.14336,5.14337 0,2.84425 -2.2991,5.14336 -5.14336,5.14336 -2.84426,0 -5.14336,-2.29911 -5.14336,-5.14336 0,-2.84426 2.2991,-5.14337 5.14336,-5.14337 z m 2.60285,3.50425 c -0.42634,0 -0.76768,0.14303 -1.02348,0.4286 -0.25444,0.28424 -0.38185,0.66644 -0.38185,1.14557 0,0.47912 0.12741,0.85874 0.38185,1.14298 0.2558,0.28422 0.59714,0.4286 1.02348,0.4286 0.42499,0 0.76383,-0.14438 1.01829,-0.4286 0.25445,-0.28558 0.38185,-0.6652 0.38185,-1.14298 0,-0.47913 -0.12741,-0.86133 -0.38185,-1.14557 -0.25446,-0.28557 -0.5933,-0.4286 -1.01829,-0.4286 z m -6.63182,0.0545 v 3.03147 h 1.95344 v -0.3455 h -1.543 v -1.0988 h 1.44429 v -0.34548 h -1.44429 v -0.8962 h 1.50664 v -0.34549 z m 2.25737,0 1.15596,3.03147 h 0.46498 l 1.15595,-3.03147 h -0.42601 l -0.96373,2.5509 -0.95854,-2.5509 z m 4.37445,0.27795 c 0.29776,0 0.53332,0.11053 0.70656,0.3325 0.17459,0.22197 0.26237,0.52615 0.26237,0.90918 0,0.38167 -0.0878,0.68202 -0.26237,0.90399 -0.17324,0.22196 -0.4088,0.3325 -0.70656,0.3325 -0.29776,0 -0.53583,-0.11053 -0.71175,-0.3325 -0.17463,-0.22197 -0.25978,-0.52232 -0.25978,-0.90399 0,-0.38303 0.0851,-0.68721 0.25978,-0.90918 0.17595,-0.22197 0.41399,-0.3325 0.71175,-0.3325 z m 4.5407,0.63642 a 0.80741701,0.80741701 0 0 0 -0.80528,0.80787 0.80741701,0.80741701 0 0 0 0.80528,0.80788 0.80741701,0.80741701 0 0 0 0.80788,-0.80788 0.80741701,0.80741701 0 0 0 -0.80788,-0.80787 z m -14.06631,0.0207 a 0.80741701,0.80741701 0 0 0 -0.80527,0.80787 0.80741701,0.80741701 0 0 0 0.80527,0.80787 0.80741701,0.80741701 0 0 0 0.80787,-0.80787 0.80741701,0.80741701 0 0 0 -0.80787,-0.80787 z m 7.33318,6.81625 a 0.80741701,0.80741701 0 0 0 -0.80786,0.80787 0.80741701,0.80741701 0 0 0 0.80786,0.80787 0.80741701,0.80741701 0 0 0 0.80528,-0.80787 0.80741701,0.80741701 0 0 0 -0.80528,-0.80787 z" style="color:#000000;font-style:normal;font-variant:normal;font-weight:normal;font-stretch:normal;font-size:medium;line-height:normal;font-family:sans-serif;font-variant-ligatures:normal;font-variant-position:normal;font-variant-caps:normal;font-variant-numeric:normal;font-variant-alternates:normal;font-feature-settings:normal;text-indent:0;text-align:start;text-decoration:none;text-decoration-line:none;text-decoration-style:solid;text-decoration-color:#000000;letter-spacing:normal;word-spacing:normal;text-transform:none;writing-mode:lr-tb;direction:ltr;text-orientation:mixed;dominant-baseline:auto;baseline-shift:baseline;text-anchor:start;white-space:normal;shape-padding:0;clip-rule:nonzero;display:inline;overflow:visible;visibility:visible;opacity:1;isolation:auto;mix-blend-mode:normal;color-interpolation:sRGB;color-interpolation-filters:linearRGB;solid-color:#000000;solid-opacity:1;vector-effect:none;fill:url(#linearGradient7949-2);fill-opacity:1;fill-rule:nonzero;stroke:none;stroke-width:0.83923;stroke-linecap:butt;stroke-linejoin:miter;stroke-miterlimit:4;stroke-dasharray:none;stroke-dashoffset:0;stroke-opacity:1;marker:none;paint-order:fill markers stroke;color-rendering:auto;image-rendering:auto;shape-rendering:auto;text-rendering:auto;enable-background:accumulate" inkscape:label="firm"/>
      <path style="display:inline;fill:#5477b0;fill-opacity:1;fill-rule:evenodd;stroke:none;stroke-width:1.33000004px;stroke-linecap:butt;stroke-linejoin:miter;stroke-opacity:1" d="m 233.43,235.91461 -19.95,0.0104 v 10.64 l 1.34039,-2.67039 V 237.255 h 15.93922 z m 42.56,0 -15.96,0.0106 -2.66,1.33 h 15.94961 z m 42.56,0 -15.96,0.0106 -2.66,1.33 h 15.94961 z m 11.98039,1.34039 -1.33,2.66 -0.0106,15.96 1.34038,-2.67039 z m -115.71,31.92 -1.33,2.66 -0.0106,15.96 1.34038,-2.67039 z m 115.71,10.64 -1.33,2.66 -0.0106,15.96 1.34038,-2.67039 z m -113.06039,27.93 -2.66,1.33 h 15.94961 l 2.67039,-1.33 z m 42.56,0 -2.66,1.33 h 15.94961 l 2.67039,-1.33 z m 42.56,0 -2.66,1.33 h 15.94961 l 2.67039,-1.33 z" id="path7980-9" inkscape:connector-curvature="0" inkscape:label="blue"/>
      <path style="display:inline;fill:#b05457;fill-opacity:1;fill-rule:evenodd;stroke:none;stroke-width:1.33000004px;stroke-linecap:butt;stroke-linejoin:miter;stroke-opacity:1" d="m 254.71,235.91461 -15.96,0.0106 -2.66,1.33 h 15.94961 z m 42.56,0 -15.96,0.0106 -2.66,1.33 h 15.94961 z m 33.25,0 -6.65,0.0106 -2.66,1.33 h 6.63961 z m -115.69961,11.98039 -1.33,2.66 -0.0106,15.96 1.34038,-2.67039 z m 115.71,10.64 -1.33,2.66 -0.0106,15.96 1.34038,-2.67039 z m -115.71,31.92 -1.33,2.66 -0.0106,15.96 1.34038,-2.67039 z m 115.71,10.64 -1.33,2.66 -0.008,3.98221 -5.32241,0.008 -2.66,1.33 h 7.98 1.33 z m -91.78039,6.65 -2.66,1.33 h 15.96 l 2.66,-1.33 z m 42.56,0 -2.66,1.33 h 15.96 l 2.66,-1.33 z" id="path7988-3" inkscape:connector-curvature="0" inkscape:label="red"/>
    </g>
  </g>
</svg>