<?xml version="1.0" encoding="UTF-8" standalone="yes"?>
<svg xmlns:dc="http://purl.org/dc/elements/1.1/" xmlns:cc="http://creativecommons.org/ns#" xmlns:rdf="http://www.w3.org/1999/02/22-rdf-syntax-ns#" xmlns:svg="http://www.w3.org/2000/svg" xmlns="http://www.w3.org/2000/svg" xmlns:xlink="http://www.w3.org/1999/xlink" xmlns:sodipodi="http://sodipodi.sourceforge.net/DTD/sodipodi-0.dtd" xmlns:inkscape="http://www.inkscape.org/namespaces/inkscape" height="64" viewBox="0 0 64 64" width="64" id="svg2" version="1.1" inkscape:version="0.92.2 5c3e80d, 2017-08-06" sodipodi:docname="preferences-system.svg" enable-background="new" folder="64">
  <title id="title4675">Template icons dark</title>
  <metadata id="metadata24">
    <rdf:RDF>
      <cc:Work rdf:about="">
        <dc:format>image/svg+xml</dc:format>
        <dc:type rdf:resource="http://purl.org/dc/dcmitype/StillImage"/>
        <dc:title>Template icons dark</dc:title>
        <dc:date>17/05/13</dc:date>
        <dc:creator>
          <cc:Agent>
            <dc:title>wfpaisa</dc:title>
          </cc:Agent>
        </dc:creator>
        <dc:rights>
          <cc:Agent>
            <dc:title>License: GPLv3</dc:title>
          </cc:Agent>
        </dc:rights>
        <dc:language>es-en</dc:language>
        <dc:subject>
          <rdf:Bag>
            <rdf:li>plane-icon-theme</rdf:li>
          </rdf:Bag>
        </dc:subject>
        <dc:description>Template for create set icons</dc:description>
        <cc:license rdf:resource="https://www.gnu.org/licenses/gpl-3.0.en.html"/>
      </cc:Work>
    </rdf:RDF>
  </metadata>
  <defs id="defs22">
    <linearGradient inkscape:collect="always" id="linearGradient1388">
      <stop style="stop-color:#cfdde2;stop-opacity:1" offset="0" id="stop1384"/>
      <stop style="stop-color:#90a1b1;stop-opacity:1" offset="1" id="stop1386"/>
    </linearGradient>
    <linearGradient inkscape:collect="always" id="linearGradient1374">
      <stop style="stop-color:#ffffff;stop-opacity:0" offset="0" id="stop1370"/>
      <stop id="stop1378" offset="0.48049781" style="stop-color:#ffffff;stop-opacity:1"/>
      <stop style="stop-color:#f5f6f6;stop-opacity:0" offset="1" id="stop1372"/>
    </linearGradient>
    <linearGradient inkscape:collect="always" id="linearGradient1319">
      <stop style="stop-color:#eaf2f7;stop-opacity:1" offset="0" id="stop1315"/>
      <stop style="stop-color:#99b4c0;stop-opacity:1" offset="1" id="stop1317"/>
    </linearGradient>
    <linearGradient id="linearGradient1199" inkscape:collect="always">
      <stop id="stop1195" offset="0" style="stop-color:#c1dae3;stop-opacity:1"/>
      <stop id="stop1197" offset="1" style="stop-color:#8a98b4;stop-opacity:1"/>
    </linearGradient>
    <linearGradient inkscape:collect="always" id="linearGradient7891">
      <stop style="stop-color:#d2d2d2;stop-opacity:1" offset="0" id="stop7887"/>
      <stop style="stop-color:#939393;stop-opacity:1" offset="1" id="stop7889"/>
    </linearGradient>
    <linearGradient inkscape:collect="always" id="linearGradient7758">
      <stop style="stop-color:#671e1e;stop-opacity:1" offset="0" id="stop7754"/>
      <stop style="stop-color:#d04044;stop-opacity:1" offset="1" id="stop7756"/>
    </linearGradient>
    <linearGradient inkscape:collect="always" xlink:href="#linearGradient5419" id="linearGradient5425" x1="10.429825" y1="43.068272" x2="38.890873" y2="13.193013" gradientUnits="userSpaceOnUse" gradientTransform="matrix(0.9649266,0,0,0.9649266,-2.12316,-5.210928)"/>
    <linearGradient inkscape:collect="always" id="linearGradient5419">
      <stop style="stop-color:#0c528e;stop-opacity:1" offset="0" id="stop5421"/>
      <stop style="stop-color:#5fb19b;stop-opacity:1" offset="1" id="stop5423"/>
    </linearGradient>
    <linearGradient inkscape:collect="always" xlink:href="#linearGradient1388" id="linearGradient7893" x1="161.70172" y1="118.89846" x2="161.70172" y2="197.93216" gradientUnits="userSpaceOnUse"/>
    <linearGradient inkscape:collect="always" xlink:href="#linearGradient7758" id="linearGradient7760-3" x1="162.58794" y1="185.95032" x2="162.58794" y2="134.43561" gradientUnits="userSpaceOnUse" gradientTransform="matrix(0.93996715,0,0,0.93996715,-124.0425,-124.16093)"/>
    <linearGradient inkscape:collect="always" xlink:href="#linearGradient7758" id="linearGradient1166" gradientUnits="userSpaceOnUse" gradientTransform="matrix(0.93996715,0,0,0.93996715,9.6851028,9.9555173)" x1="162.58794" y1="185.95032" x2="162.58794" y2="134.43561"/>
    <linearGradient gradientTransform="translate(-115,-115.12599)" inkscape:collect="always" xlink:href="#linearGradient7891" id="linearGradient7893-5" x1="161.70172" y1="118.89846" x2="161.70172" y2="197.93216" gradientUnits="userSpaceOnUse"/>
    <linearGradient inkscape:collect="always" xlink:href="#linearGradient1319" id="linearGradient1321" x1="168.35246" y1="125.66496" x2="168.35246" y2="190.8166" gradientUnits="userSpaceOnUse"/>
    <linearGradient inkscape:collect="always" xlink:href="#linearGradient5419" id="linearGradient5425-62" x1="10.429825" y1="43.068272" x2="38.890873" y2="13.193013" gradientUnits="userSpaceOnUse" gradientTransform="matrix(0.9649266,0,0,0.9649266,-135.77092,-138.98468)"/>
    <linearGradient inkscape:collect="always" xlink:href="#linearGradient1199" id="linearGradient1348" gradientUnits="userSpaceOnUse" x1="161.70172" y1="118.89846" x2="161.70172" y2="197.93216"/>
    <linearGradient inkscape:collect="always" xlink:href="#linearGradient1374" id="linearGradient1376" x1="146.80354" y1="139.47923" x2="174.4657" y2="139.47923" gradientUnits="userSpaceOnUse" gradientTransform="matrix(0.43047969,0,0,0.70272293,90.79219,41.511806)"/>
    <linearGradient inkscape:collect="always" xlink:href="#linearGradient1374" id="linearGradient1382" gradientUnits="userSpaceOnUse" gradientTransform="matrix(0.46490125,0,0,0.70272293,85.782267,74.790085)" x1="146.80354" y1="139.47923" x2="174.4657" y2="139.47923"/>
    <linearGradient inkscape:collect="always" xlink:href="#linearGradient1374" id="linearGradient1376-7" x1="146.80354" y1="139.47923" x2="174.4657" y2="139.47923" gradientUnits="userSpaceOnUse" gradientTransform="matrix(0.29664256,0,0,0.48424473,32.30908,-1.6499335)"/>
    <linearGradient inkscape:collect="always" xlink:href="#linearGradient1374" id="linearGradient1382-2" gradientUnits="userSpaceOnUse" gradientTransform="matrix(0.32036237,0,0,0.48424473,28.856754,21.282051)" x1="146.80354" y1="139.47923" x2="174.4657" y2="139.47923"/>
    <linearGradient inkscape:collect="always" xlink:href="#linearGradient7758" id="linearGradient1166-3" gradientUnits="userSpaceOnUse" gradientTransform="matrix(0.64772918,0,0,0.64772918,-23.581627,-23.395297)" x1="162.58794" y1="185.95032" x2="162.58794" y2="134.43561"/>
    <linearGradient inkscape:collect="always" xlink:href="#linearGradient5419" id="linearGradient5425-9" x1="10.429825" y1="43.068272" x2="38.890873" y2="13.193013" gradientUnits="userSpaceOnUse" gradientTransform="matrix(0.66492867,0,0,0.66492867,-31.718672,-33.846462)"/>
    <linearGradient gradientTransform="matrix(0.68909768,0,0,0.68909768,-30.255607,-30.255622)" inkscape:collect="always" xlink:href="#linearGradient1319" id="linearGradient1321-8" x1="168.35246" y1="125.66496" x2="168.35246" y2="190.8166" gradientUnits="userSpaceOnUse"/>
    <linearGradient gradientTransform="matrix(0.68909768,0,0,0.68909768,-30.255607,-30.255622)" inkscape:collect="always" xlink:href="#linearGradient1388" id="linearGradient7893-361" x1="161.70172" y1="118.89846" x2="161.70172" y2="197.93216" gradientUnits="userSpaceOnUse"/>
    <linearGradient inkscape:collect="always" xlink:href="#linearGradient1388" id="linearGradient1506" gradientUnits="userSpaceOnUse" x1="161.70172" y1="118.89846" x2="161.70172" y2="197.93216"/>
    <linearGradient inkscape:collect="always" xlink:href="#linearGradient7758" id="linearGradient1508" gradientUnits="userSpaceOnUse" gradientTransform="matrix(0.93996715,0,0,0.93996715,9.6851028,9.9555173)" x1="162.58794" y1="185.95032" x2="162.58794" y2="134.43561"/>
    <linearGradient inkscape:collect="always" xlink:href="#linearGradient1388" id="linearGradient1523" gradientUnits="userSpaceOnUse" x1="161.70172" y1="118.89846" x2="161.70172" y2="197.93216"/>
    <linearGradient inkscape:collect="always" xlink:href="#linearGradient1374" id="linearGradient1376-3" x1="146.80354" y1="139.47923" x2="174.4657" y2="139.47923" gradientUnits="userSpaceOnUse" gradientTransform="matrix(0.55545785,0,0,0.90673956,182.4407,119.57893)"/>
    <linearGradient inkscape:collect="always" xlink:href="#linearGradient1374" id="linearGradient1382-1" gradientUnits="userSpaceOnUse" gradientTransform="matrix(0.59987278,0,0,0.90673956,175.97628,162.51866)" x1="146.80354" y1="139.47923" x2="174.4657" y2="139.47923"/>
    <linearGradient inkscape:collect="always" xlink:href="#linearGradient7758" id="linearGradient1508-5" gradientUnits="userSpaceOnUse" gradientTransform="matrix(1.2128612,0,0,1.2128612,77.786359,78.861138)" x1="162.58794" y1="185.95032" x2="162.58794" y2="134.43561"/>
    <linearGradient inkscape:collect="always" xlink:href="#linearGradient5419" id="linearGradient5425-7" x1="10.429825" y1="43.068272" x2="38.890873" y2="13.193013" gradientUnits="userSpaceOnUse" gradientTransform="matrix(1.245067,0,0,1.245067,62.54989,59.291519)"/>
    <linearGradient gradientTransform="matrix(1.290323,0,0,1.290323,65.289452,66.015302)" inkscape:collect="always" xlink:href="#linearGradient1319" id="linearGradient1321-6" x1="168.35246" y1="125.66496" x2="168.35246" y2="190.8166" gradientUnits="userSpaceOnUse"/>
    <linearGradient gradientTransform="matrix(1.290323,0,0,1.290323,65.289452,66.015302)" inkscape:collect="always" xlink:href="#linearGradient1388" id="linearGradient1523-7" gradientUnits="userSpaceOnUse" x1="161.70172" y1="118.89846" x2="161.70172" y2="197.93216"/>
    <linearGradient inkscape:collect="always" xlink:href="#linearGradient1374" id="linearGradient1376-1" x1="146.80354" y1="139.47923" x2="174.4657" y2="139.47923" gradientUnits="userSpaceOnUse" gradientTransform="matrix(0.22218314,0,0,0.36269582,-11.720143,-37.155215)"/>
    <linearGradient inkscape:collect="always" xlink:href="#linearGradient1374" id="linearGradient1382-0" gradientUnits="userSpaceOnUse" gradientTransform="matrix(0.23994911,0,0,0.36269582,-14.30591,-19.979323)" x1="146.80354" y1="139.47923" x2="174.4657" y2="139.47923"/>
    <linearGradient inkscape:collect="always" xlink:href="#linearGradient7758" id="linearGradient1508-6" gradientUnits="userSpaceOnUse" gradientTransform="matrix(0.48514449,0,0,0.48514449,-53.581882,-53.442336)" x1="162.58794" y1="185.95032" x2="162.58794" y2="134.43561"/>
    <linearGradient inkscape:collect="always" xlink:href="#linearGradient5419" id="linearGradient5425-2" x1="10.429825" y1="43.068272" x2="38.890873" y2="13.193013" gradientUnits="userSpaceOnUse" gradientTransform="matrix(0.49802679,0,0,0.49802679,-59.67647,-61.270184)"/>
    <linearGradient gradientTransform="matrix(0.5161292,0,0,0.5161292,-58.580645,-58.580671)" inkscape:collect="always" xlink:href="#linearGradient1319" id="linearGradient1321-4" x1="168.35246" y1="125.66496" x2="168.35246" y2="190.8166" gradientUnits="userSpaceOnUse"/>
    <linearGradient gradientTransform="matrix(0.5161292,0,0,0.5161292,-58.580645,-58.580671)" inkscape:collect="always" xlink:href="#linearGradient1388" id="linearGradient1523-0" gradientUnits="userSpaceOnUse" x1="161.70172" y1="118.89846" x2="161.70172" y2="197.93216"/>
    <linearGradient inkscape:collect="always" xlink:href="#linearGradient1374" id="linearGradient1376-9" x1="146.80354" y1="139.47923" x2="174.4657" y2="139.47923" gradientUnits="userSpaceOnUse" gradientTransform="matrix(0.14812209,0,0,0.24179721,-39.813426,-56.770143)"/>
    <linearGradient inkscape:collect="always" xlink:href="#linearGradient1374" id="linearGradient1382-11" gradientUnits="userSpaceOnUse" gradientTransform="matrix(0.15996607,0,0,0.24179721,-41.537271,-45.319548)" x1="146.80354" y1="139.47923" x2="174.4657" y2="139.47923"/>
    <linearGradient inkscape:collect="always" xlink:href="#linearGradient7758" id="linearGradient1508-59" gradientUnits="userSpaceOnUse" gradientTransform="matrix(0.32342966,0,0,0.32342966,-67.721252,-67.628221)" x1="162.58794" y1="185.95032" x2="162.58794" y2="134.43561"/>
    <linearGradient inkscape:collect="always" xlink:href="#linearGradient5419" id="linearGradient5425-6" x1="10.429825" y1="43.068272" x2="38.890873" y2="13.193013" gradientUnits="userSpaceOnUse" gradientTransform="matrix(0.33201786,0,0,0.33201786,-71.78431,-72.846786)"/>
    <linearGradient gradientTransform="matrix(0.34408613,0,0,0.34408613,-71.05376,-71.053778)" inkscape:collect="always" xlink:href="#linearGradient1319" id="linearGradient1321-65" x1="168.35246" y1="125.66496" x2="168.35246" y2="190.8166" gradientUnits="userSpaceOnUse"/>
    <linearGradient gradientTransform="matrix(0.34408613,0,0,0.34408613,-71.05376,-71.053778)" inkscape:collect="always" xlink:href="#linearGradient1388" id="linearGradient1523-9" gradientUnits="userSpaceOnUse" x1="161.70172" y1="118.89846" x2="161.70172" y2="197.93216"/>
    <linearGradient inkscape:collect="always" xlink:href="#linearGradient7758" id="linearGradient1508-1" gradientUnits="userSpaceOnUse" gradientTransform="matrix(0.24257225,0,0,0.24257225,-82.790939,-82.721173)" x1="162.58794" y1="185.95032" x2="162.58794" y2="134.43561"/>
    <linearGradient inkscape:collect="always" xlink:href="#linearGradient5419" id="linearGradient5425-0" x1="10.429825" y1="43.068272" x2="38.890873" y2="13.193013" gradientUnits="userSpaceOnUse" gradientTransform="matrix(0.2490134,0,0,0.2490134,-85.838233,-86.635097)"/>
    <linearGradient gradientTransform="matrix(0.2580646,0,0,0.2580646,-85.290321,-85.290341)" inkscape:collect="always" xlink:href="#linearGradient1319" id="linearGradient1321-44" x1="168.35246" y1="125.66496" x2="168.35246" y2="190.8166" gradientUnits="userSpaceOnUse"/>
    <linearGradient gradientTransform="matrix(0.2580646,0,0,0.2580646,-85.290321,-85.290341)" inkscape:collect="always" xlink:href="#linearGradient1388" id="linearGradient1523-3" gradientUnits="userSpaceOnUse" x1="161.70172" y1="118.89846" x2="161.70172" y2="197.93216"/>
    <linearGradient inkscape:collect="always" xlink:href="#linearGradient7758" id="linearGradient1508-64" gradientUnits="userSpaceOnUse" gradientTransform="matrix(0.16171483,0,0,0.16171483,-89.8606,-89.814148)" x1="162.58794" y1="185.95032" x2="162.58794" y2="134.43561"/>
    <linearGradient inkscape:collect="always" xlink:href="#linearGradient5419" id="linearGradient5425-3" x1="10.429825" y1="43.068272" x2="38.890873" y2="13.193013" gradientUnits="userSpaceOnUse" gradientTransform="matrix(0.16600893,0,0,0.16600893,-91.892129,-92.42343)"/>
    <linearGradient gradientTransform="matrix(0.17204307,0,0,0.17204307,-91.526854,-91.526926)" inkscape:collect="always" xlink:href="#linearGradient1388" id="linearGradient1523-8" gradientUnits="userSpaceOnUse" x1="161.70172" y1="118.89846" x2="161.70172" y2="197.93216"/>
  </defs>
  <sodipodi:namedview pagecolor="#383c4a" bordercolor="#ffffff" borderopacity="0.62745098" objecttolerance="4" gridtolerance="10" guidetolerance="4" inkscape:pageopacity="0" inkscape:pageshadow="2" inkscape:window-width="640" inkscape:window-height="480" id="namedview20" showgrid="true" inkscape:zoom="16.386532" inkscape:cx="170.91581" inkscape:cy="-116.3367" inkscape:current-layer="g8838" inkscape:snap-smooth-nodes="false" showguides="true" borderlayer="true" inkscape:showpageshadow="false" inkscape:guide-bbox="true" guidecolor="#bd4fff" guideopacity="0.78431373" inkscape:snap-nodes="true" inkscape:lockguides="false" fit-margin-top="0" fit-margin-left="0" fit-margin-right="0" fit-margin-bottom="0" guidehicolor="#ff0101" guidehiopacity="0.78431373" inkscape:snap-page="true" inkscape:object-nodes="true" inkscape:snap-bbox="true" inkscape:snap-global="true" inkscape:snap-object-midpoints="false" inkscape:snap-bbox-edge-midpoints="false">
    <inkscape:grid type="xygrid" id="grid4171" empspacing="4" dotted="false" originx="2.7755576e-17" originy="0" spacingx="1" spacingy="1" color="#5a5a5a" opacity="0.23529412" empcolor="#5a5a5a" empopacity="0.47058824" visible="true"/>
    <inkscape:grid type="axonomgrid" id="grid4699" units="mm" empspacing="4" color="#5a5a5a" opacity="0.23529412" empcolor="#5a5a5a" empopacity="0.47058824" gridanglex="45" gridanglez="45" spacingy="3.7795276" visible="false" originx="1.3228346" originy="1.3228346"/>
    <sodipodi:guide position="48,0" orientation="1,0" id="guide4568" inkscape:locked="false" inkscape:label="" inkscape:color="rgb(189,79,255)"/>
    <sodipodi:guide position="111.99996,-3.9999999e-05" orientation="0,1" id="guide4570" inkscape:locked="false" inkscape:label="" inkscape:color="rgb(189,79,255)"/>
    <sodipodi:guide position="0,0" orientation="1,0" id="guide4572" inkscape:locked="false" inkscape:label="" inkscape:color="rgb(189,79,255)"/>
    <sodipodi:guide position="0,48" orientation="0,1" id="guide4574" inkscape:locked="false" inkscape:label="" inkscape:color="rgb(189,79,255)"/>
    <sodipodi:guide position="0,80" orientation="0,1" id="guide4576" inkscape:locked="false" inkscape:label="" inkscape:color="rgb(189,79,255)"/>
    <sodipodi:guide position="-32,48" orientation="1,0" id="guide4578" inkscape:locked="false" inkscape:label="" inkscape:color="rgb(189,79,255)"/>
    <sodipodi:guide position="-32,104" orientation="0,1" id="guide4580" inkscape:locked="false" inkscape:label="" inkscape:color="rgb(189,79,255)"/>
    <sodipodi:guide position="-56,80" orientation="1,0" id="guide4582" inkscape:locked="false" inkscape:label="" inkscape:color="rgb(189,79,255)"/>
    <sodipodi:guide position="48,-64" orientation="0,1" id="guide4584" inkscape:locked="false" inkscape:label="" inkscape:color="rgb(189,79,255)"/>
    <sodipodi:guide position="0,0" orientation="-0.70710678,0.70710678" id="guide4588" inkscape:locked="false" inkscape:label="" inkscape:color="rgb(189,79,255)"/>
    <sodipodi:guide position="-56,80" orientation="-0.70710678,0.70710678" id="guide4573" inkscape:locked="false" inkscape:label="" inkscape:color="rgb(189,79,255)"/>
    <sodipodi:guide position="-32,48" orientation="-0.70710678,0.70710678" id="guide4575" inkscape:locked="false" inkscape:label="" inkscape:color="rgb(189,79,255)"/>
    <sodipodi:guide position="48,-64" orientation="-0.70710678,0.70710678" id="guide4577" inkscape:locked="false" inkscape:label="" inkscape:color="rgb(189,79,255)"/>
    <sodipodi:guide position="47.999962,0" orientation="0.70710678,0.70710678" id="guide4697" inkscape:locked="false" inkscape:label="" inkscape:color="rgb(189,79,255)"/>
    <sodipodi:guide position="207.99995,-288" orientation="0,1" id="guide7833" inkscape:locked="false"/>
    <sodipodi:guide position="335.99994,-288" orientation="1,0" id="guide7835" inkscape:locked="false" inkscape:label="" inkscape:color="rgb(189,79,255)"/>
    <sodipodi:guide position="111.99996,-64" orientation="1,0" id="guide7915" inkscape:locked="false"/>
    <sodipodi:guide position="111.99996,-160" orientation="0,1" id="guide7917" inkscape:locked="false"/>
    <sodipodi:guide position="207.99996,-160" orientation="1,0" id="guide7919" inkscape:locked="false"/>
    <sodipodi:guide position="111.99996,-160" orientation="-0.70710678,0.70710678" id="guide7921" inkscape:locked="false" inkscape:label="" inkscape:color="rgb(189,79,255)"/>
    <sodipodi:guide position="207.99996,-288" orientation="-0.70710678,0.70710678" id="guide7923" inkscape:locked="false" inkscape:label="" inkscape:color="rgb(189,79,255)"/>
    <sodipodi:guide position="-72,104" orientation="1,0" id="guide7824" inkscape:locked="false"/>
    <sodipodi:guide position="-56,120" orientation="0,1" id="guide7826" inkscape:locked="false"/>
    <sodipodi:guide position="-72,104" orientation="-0.70710678,0.70710678" id="guide7828" inkscape:locked="false" inkscape:label="" inkscape:color="rgb(189,79,255)"/>
  </sodipodi:namedview>
  <g inkscape:groupmode="layer" id="g7907" inkscape:label="icon_64" style="display:inline" transform="translate(-48,-48)">
    <g inkscape:groupmode="layer" id="g7843" inkscape:label="frame" style="display:none">
      <rect inkscape:label="frame_64" y="48" x="48" height="64" width="64" id="rect7837" style="color:#000000;clip-rule:nonzero;display:inline;overflow:visible;visibility:visible;opacity:1;isolation:auto;mix-blend-mode:normal;color-interpolation:sRGB;color-interpolation-filters:linearRGB;solid-color:#000000;solid-opacity:1;vector-effect:none;fill:#000000;fill-opacity:1;fill-rule:nonzero;stroke:#ff24f7;stroke-width:0;stroke-linecap:square;stroke-linejoin:miter;stroke-miterlimit:4;stroke-dasharray:none;stroke-dashoffset:0;stroke-opacity:0.99481865;marker:none;marker-start:none;marker-mid:none;marker-end:none;paint-order:normal;color-rendering:auto;image-rendering:auto;shape-rendering:auto;text-rendering:auto;enable-background:accumulate"/>
      <text xml:space="preserve" style="font-size:16px;line-height:0%;font-family:sans-serif;letter-spacing:0px;word-spacing:0px;display:inline;opacity:1;fill:#ffffff;fill-opacity:1;stroke:none;stroke-width:0.03278551px;stroke-linecap:butt;stroke-linejoin:miter;stroke-opacity:1" x="69.816406" y="85.824219" id="text7841" inkscape:label="txt_64">
        <tspan sodipodi:role="line" x="69.816406" y="85.824219" style="font-size:16px;line-height:0%;fill:#ffffff;fill-opacity:1;stroke:none;stroke-width:0.03278551px" id="tspan7839">64</tspan>
      </text>
    </g>
    <g inkscape:groupmode="layer" id="g7905" inkscape:label="icon" style="display:inline">
      <path style="color:#000000;clip-rule:nonzero;display:inline;overflow:visible;visibility:visible;opacity:1;isolation:auto;mix-blend-mode:normal;color-interpolation:sRGB;color-interpolation-filters:linearRGB;solid-color:#000000;solid-opacity:1;vector-effect:none;fill:none;fill-opacity:1;fill-rule:nonzero;stroke:#000000;stroke-width:1.98115587;stroke-linecap:butt;stroke-linejoin:miter;stroke-miterlimit:4;stroke-dasharray:none;stroke-dashoffset:0;stroke-opacity:0.16753929;marker:none;marker-start:none;marker-mid:none;marker-end:none;paint-order:fill markers stroke;color-rendering:auto;image-rendering:auto;shape-rendering:auto;text-rendering:auto;enable-background:accumulate" d="m 76.197278,48.990617 c -0.526347,0 -0.820316,0.416319 -0.951368,0.898197 l -2.019628,7.430052 c -1.378919,0.49198 -3.190337,1.179294 -4.411397,1.818329 l -6.68606,-3.847894 c -0.43278,-0.249137 -0.935285,-0.334957 -1.30746,0.03722 l -5.437077,5.437015 c -0.372167,0.372148 -0.285279,0.868698 -0.03714,1.302112 l 3.757587,6.569072 c -0.809324,1.451316 -1.464835,2.983186 -1.955865,4.570702 l -7.260058,1.955839 c -0.482203,0.129812 -0.898211,0.425028 -0.898211,0.95134 v 7.690495 c 0,0.526305 0.416318,0.814969 0.898211,0.946028 l 7.100622,1.934573 c 0.476021,1.673529 1.133655,3.289973 1.961171,4.8205 l -3.661926,6.367105 c -0.249151,0.43276 -0.334964,0.935264 0.03722,1.307432 l 5.43707,5.437006 c 0.372161,0.37217 0.868725,0.2853 1.302132,0.0371 l 6.282139,-3.59809 c 1.560172,0.86776 3.212801,1.55768 4.926855,2.05682 l 1.886757,6.99959 c 0.129812,0.48221 0.425021,0.89819 0.951347,0.89819 h 7.690571 c 0.526326,0 0.81499,-0.41631 0.946042,-0.89819 l 1.908022,-7.00486 c 1.691673,-0.50021 3.32267,-1.18647 4.863073,-2.0462 l 6.351235,3.65124 c 0.432781,0.24916 0.935284,0.33497 1.307459,-0.0372 l 5.437079,-5.437008 c 0.37217,-0.372154 0.28528,-0.87403 0.0373,-1.307439 l -3.6832,-6.42556 c 0.8003,-1.499167 1.43816,-3.079529 1.90272,-4.714207 l 7.2388,-1.955824 c 0.4822,-0.12982 0.8982,-0.419716 0.8982,-0.946049 v -7.690475 c 0,-0.526325 -0.41632,-0.820288 -0.8982,-0.951348 l -7.36104,-1.998362 c -0.47304,-1.544261 -1.10164,-3.036502 -1.87614,-4.453776 l 3.83731,-6.664739 c 0.24914,-0.432768 0.33498,-0.935271 -0.0371,-1.307432 L 99.237165,55.384912 C 98.86499,55.01273 98.363134,55.099619 97.929719,55.347627 l -6.680797,3.826669 C 89.776024,58.569605 88.234505,57.82312 86.858901,57.377681 L 84.83396,49.889166 c -0.129819,-0.482203 -0.41973,-0.898205 -0.946055,-0.898205 h -7.690634 z m 3.807299,19.696982 c 6.264745,0 11.343299,5.078526 11.343299,11.343181 -7e-6,6.26465 -5.078567,11.343169 -11.343299,11.343169 -6.264725,0 -11.343285,-5.078519 -11.343285,-11.343169 0,-6.264655 5.078554,-11.343181 11.343285,-11.343181 z" id="path1242-3" inkscape:connector-curvature="0" sodipodi:nodetypes="cccccccccccssccccccccccsscccccsccccssccccccccccscccscsc" inkscape:label="base sombra"/>
      <path inkscape:label="base" sodipodi:nodetypes="cccccccccccssccccccccccsscccccsccccssccccccccccscccscsc" inkscape:connector-curvature="0" id="path44247-1" d="m 76.197278,48.990617 c -0.526347,0 -0.820316,0.416319 -0.951368,0.898197 l -2.019628,7.430052 c -1.378919,0.49198 -3.190337,1.179294 -4.411397,1.818329 l -6.68606,-3.847894 c -0.43278,-0.249137 -0.935285,-0.334957 -1.30746,0.03722 l -5.437077,5.437015 c -0.372167,0.372148 -0.285279,0.868698 -0.03714,1.302112 l 3.757587,6.569072 c -0.809324,1.451316 -1.464835,2.983186 -1.955865,4.570702 l -7.260058,1.955839 c -0.482203,0.129812 -0.898211,0.425028 -0.898211,0.95134 v 7.690495 c 0,0.526305 0.416318,0.814969 0.898211,0.946028 l 7.100622,1.934573 c 0.476021,1.673529 1.133655,3.289973 1.961171,4.8205 l -3.661926,6.367105 c -0.249151,0.43276 -0.334964,0.935264 0.03722,1.307432 l 5.43707,5.437006 c 0.372161,0.37217 0.868725,0.2853 1.302132,0.0371 l 6.282139,-3.59809 c 1.560172,0.86776 3.212801,1.55768 4.926855,2.05682 l 1.886757,6.99959 c 0.129812,0.48221 0.425021,0.89819 0.951347,0.89819 h 7.690571 c 0.526326,0 0.81499,-0.41631 0.946042,-0.89819 l 1.908022,-7.00486 c 1.691673,-0.50021 3.32267,-1.18647 4.863073,-2.0462 l 6.351235,3.65124 c 0.432781,0.24916 0.935284,0.33497 1.307459,-0.0372 l 5.437079,-5.437008 c 0.37217,-0.372154 0.28528,-0.87403 0.0373,-1.307439 l -3.6832,-6.42556 c 0.8003,-1.499167 1.43816,-3.079529 1.90272,-4.714207 l 7.2388,-1.955824 c 0.4822,-0.12982 0.8982,-0.419716 0.8982,-0.946049 v -7.690475 c 0,-0.526325 -0.41632,-0.820288 -0.8982,-0.951348 l -7.36104,-1.998362 c -0.47304,-1.544261 -1.10164,-3.036502 -1.87614,-4.453776 l 3.83731,-6.664739 c 0.24914,-0.432768 0.33498,-0.935271 -0.0371,-1.307432 L 99.237165,55.384912 C 98.86499,55.01273 98.363134,55.099619 97.929719,55.347627 l -6.680797,3.826669 C 89.776024,58.569605 88.234505,57.82312 86.858901,57.377681 L 84.83396,49.889166 c -0.129819,-0.482203 -0.41973,-0.898205 -0.946055,-0.898205 h -7.690634 z m 3.807299,19.696982 c 6.264745,0 11.343299,5.078526 11.343299,11.343181 -7e-6,6.26465 -5.078567,11.343169 -11.343299,11.343169 -6.264725,0 -11.343285,-5.078519 -11.343285,-11.343169 0,-6.264655 5.078554,-11.343181 11.343285,-11.343181 z" style="color:#000000;clip-rule:nonzero;display:inline;overflow:visible;visibility:visible;opacity:1;isolation:auto;mix-blend-mode:normal;color-interpolation:sRGB;color-interpolation-filters:linearRGB;solid-color:#000000;solid-opacity:1;vector-effect:none;fill:url(#linearGradient7893-361);fill-opacity:1;fill-rule:nonzero;stroke:none;stroke-width:1.29027653;stroke-linecap:butt;stroke-linejoin:miter;stroke-miterlimit:4;stroke-dasharray:none;stroke-dashoffset:0;stroke-opacity:0.14136125;marker:none;marker-start:none;marker-mid:none;marker-end:none;paint-order:fill markers stroke;color-rendering:auto;image-rendering:auto;shape-rendering:auto;text-rendering:auto;enable-background:accumulate"/>
      <path inkscape:label="r" sodipodi:nodetypes="ssssssssss" inkscape:connector-curvature="0" id="path1313-9" d="m 80.00426,55.528507 c -13.465451,0 -24.47577,11.001796 -24.47577,24.46722 0,13.465451 11.010319,24.475773 24.47577,24.475773 13.465431,0 24.46725,-11.010322 24.46725,-24.475773 0,-13.465424 -11.001819,-24.46722 -24.46725,-24.46722 z m 6.75e-4,5.191303 c 10.713974,0 19.27496,8.561013 19.27496,19.274959 0,10.713994 -8.560986,19.285433 -19.27496,19.285433 -10.713946,0 -19.285446,-8.571439 -19.285446,-19.285433 0,-10.713946 8.5715,-19.274959 19.285446,-19.274959 z" style="color:#000000;font-style:normal;font-variant:normal;font-weight:normal;font-stretch:normal;font-size:medium;line-height:normal;font-family:sans-serif;text-indent:0;text-align:start;text-decoration:none;text-decoration-line:none;text-decoration-style:solid;text-decoration-color:#000000;letter-spacing:normal;word-spacing:normal;text-transform:none;writing-mode:lr-tb;direction:ltr;baseline-shift:baseline;text-anchor:start;white-space:normal;clip-rule:nonzero;display:inline;overflow:visible;visibility:visible;opacity:1;isolation:auto;mix-blend-mode:normal;color-interpolation:sRGB;color-interpolation-filters:linearRGB;solid-color:#000000;solid-opacity:1;vector-effect:none;fill:#000000;fill-opacity:0.17277485;fill-rule:nonzero;stroke:none;stroke-width:2.27001262;stroke-linecap:butt;stroke-linejoin:miter;stroke-miterlimit:4;stroke-dasharray:none;stroke-dashoffset:0;stroke-opacity:0.14136125;marker:none;marker-start:none;marker-mid:none;marker-end:none;paint-order:fill markers stroke;color-rendering:auto;image-rendering:auto;shape-rendering:auto;text-rendering:auto;enable-background:accumulate"/>
      <path style="color:#000000;font-style:normal;font-variant:normal;font-weight:normal;font-stretch:normal;font-size:medium;line-height:normal;font-family:sans-serif;text-indent:0;text-align:start;text-decoration:none;text-decoration-line:none;text-decoration-style:solid;text-decoration-color:#000000;letter-spacing:normal;word-spacing:normal;text-transform:none;writing-mode:lr-tb;direction:ltr;baseline-shift:baseline;text-anchor:start;white-space:normal;clip-rule:nonzero;display:inline;overflow:visible;visibility:visible;opacity:1;isolation:auto;mix-blend-mode:normal;color-interpolation:sRGB;color-interpolation-filters:linearRGB;solid-color:#000000;solid-opacity:1;vector-effect:none;fill:url(#linearGradient1321-8);fill-opacity:1;fill-rule:nonzero;stroke:none;stroke-width:2.20129776;stroke-linecap:butt;stroke-linejoin:miter;stroke-miterlimit:4;stroke-dasharray:none;stroke-dashoffset:0;stroke-opacity:0.14136125;marker:none;marker-start:none;marker-mid:none;marker-end:none;paint-order:fill markers stroke;color-rendering:auto;image-rendering:auto;shape-rendering:auto;text-rendering:auto;enable-background:accumulate" d="m 80.004129,56.269266 c -13.057843,0 -23.73488,10.668769 -23.73488,23.726591 0,13.057843 10.677037,23.734893 23.73488,23.734893 13.057829,0 23.726621,-10.67705 23.726621,-23.734893 0,-13.057822 -10.668792,-23.726591 -23.726621,-23.726591 z m 6.82e-4,5.034169 c 10.38965,0 18.691494,8.301863 18.691494,18.691485 0,10.389684 -8.301844,18.701657 -18.691494,18.701657 -10.389636,0 -18.701663,-8.311973 -18.701663,-18.701657 0,-10.389622 8.312027,-18.691485 18.701663,-18.691485 z" id="path1309-4" inkscape:connector-curvature="0" sodipodi:nodetypes="ssssssssss" inkscape:label="r"/>
      <path style="color:#000000;font-style:normal;font-variant:normal;font-weight:normal;font-stretch:normal;font-size:medium;line-height:normal;font-family:sans-serif;text-indent:0;text-align:start;text-decoration:none;text-decoration-line:none;text-decoration-style:solid;text-decoration-color:#000000;letter-spacing:normal;word-spacing:normal;text-transform:none;writing-mode:lr-tb;direction:ltr;baseline-shift:baseline;text-anchor:start;white-space:normal;clip-rule:nonzero;display:inline;overflow:visible;visibility:visible;opacity:1;isolation:auto;mix-blend-mode:normal;color-interpolation:sRGB;color-interpolation-filters:linearRGB;solid-color:#000000;solid-opacity:1;vector-effect:none;fill:url(#linearGradient5425-9);fill-opacity:1;fill-rule:nonzero;stroke:none;stroke-width:1.37819541;stroke-linecap:butt;stroke-linejoin:miter;stroke-miterlimit:4;stroke-dasharray:none;stroke-dashoffset:0;stroke-opacity:1;marker:none;marker-start:none;marker-mid:none;marker-end:none;paint-order:fill markers stroke;color-rendering:auto;image-rendering:auto;shape-rendering:auto;text-rendering:auto;enable-background:accumulate" d="m 80.003254,61.29724 c -10.291198,0 -18.706032,8.408315 -18.706032,18.699492 0,10.291205 8.414834,18.70604 18.706032,18.70604 10.291185,0 18.699521,-8.414835 18.699521,-18.70604 0,-10.291177 -8.408336,-18.699492 -18.699521,-18.699492 z m 0.0014,4.719437 c 7.789719,0 14.014091,6.224378 14.014091,14.014083 0,7.789746 -6.224372,14.021712 -14.014091,14.021712 -7.789712,0 -14.021711,-6.231966 -14.021711,-14.021712 0,-7.789705 6.231999,-14.014083 14.021711,-14.014083 z" id="path1323-7" inkscape:connector-curvature="0" sodipodi:nodetypes="ssssssssss" inkscape:label="azul"/>
      <path inkscape:label="rojo" sodipodi:nodetypes="ssssssssss" inkscape:connector-curvature="0" id="path44309-8" d="m 80.003254,61.29724 c -10.291198,0 -18.706032,8.408315 -18.706032,18.699492 0,10.291205 8.414834,18.70604 18.706032,18.70604 10.291185,0 18.699521,-8.414835 18.699521,-18.70604 0,-10.291177 -8.408336,-18.699492 -18.699521,-18.699492 z m 0.0014,4.719437 c 7.789719,0 14.014091,6.224378 14.014091,14.014083 0,7.789746 -6.224372,14.021712 -14.014091,14.021712 -7.789712,0 -14.021711,-6.231966 -14.021711,-14.021712 0,-7.789705 6.231999,-14.014083 14.021711,-14.014083 z" style="color:#000000;font-style:normal;font-variant:normal;font-weight:normal;font-stretch:normal;font-size:medium;line-height:normal;font-family:sans-serif;text-indent:0;text-align:start;text-decoration:none;text-decoration-line:none;text-decoration-style:solid;text-decoration-color:#000000;letter-spacing:normal;word-spacing:normal;text-transform:none;writing-mode:lr-tb;direction:ltr;baseline-shift:baseline;text-anchor:start;white-space:normal;clip-rule:nonzero;display:inline;overflow:visible;visibility:visible;opacity:1;isolation:auto;mix-blend-mode:normal;color-interpolation:sRGB;color-interpolation-filters:linearRGB;solid-color:#000000;solid-opacity:1;vector-effect:none;fill:url(#linearGradient1166-3);fill-opacity:1;fill-rule:nonzero;stroke:none;stroke-width:1.73489571;stroke-linecap:butt;stroke-linejoin:miter;stroke-miterlimit:4;stroke-dasharray:none;stroke-dashoffset:0;stroke-opacity:0.14136125;marker:none;marker-start:none;marker-mid:none;marker-end:none;paint-order:fill markers stroke;color-rendering:auto;image-rendering:auto;shape-rendering:auto;text-rendering:auto;enable-background:accumulate"/>
      <path inkscape:label="rojo sombra sup" sodipodi:nodetypes="cscscscc" inkscape:connector-curvature="0" id="path1212-4" d="m 80.002716,61.297468 c -10.291198,0 -18.705232,8.408666 -18.705232,18.699844 0,0.11563 0.0062,0.229407 0.008,0.344548 0.185891,-10.133126 8.521424,-18.355295 18.697164,-18.355295 10.17572,0 18.506022,8.222169 18.691776,18.355295 0.0021,-0.115141 0.008,-0.228918 0.008,-0.344548 0,-10.291178 -8.408661,-18.699844 -18.699846,-18.699844 z" style="color:#000000;font-style:normal;font-variant:normal;font-weight:normal;font-stretch:normal;font-size:medium;line-height:normal;font-family:sans-serif;text-indent:0;text-align:start;text-decoration:none;text-decoration-line:none;text-decoration-style:solid;text-decoration-color:#000000;letter-spacing:normal;word-spacing:normal;text-transform:none;writing-mode:lr-tb;direction:ltr;baseline-shift:baseline;text-anchor:start;white-space:normal;clip-rule:nonzero;display:inline;overflow:visible;visibility:visible;opacity:1;isolation:auto;mix-blend-mode:normal;color-interpolation:sRGB;color-interpolation-filters:linearRGB;solid-color:#000000;solid-opacity:1;vector-effect:none;fill:#000000;fill-opacity:0.2827225;fill-rule:nonzero;stroke:none;stroke-width:1.73489571;stroke-linecap:butt;stroke-linejoin:miter;stroke-miterlimit:4;stroke-dasharray:none;stroke-dashoffset:0;stroke-opacity:0.14136125;marker:none;marker-start:none;marker-mid:none;marker-end:none;paint-order:fill markers stroke;color-rendering:auto;image-rendering:auto;shape-rendering:auto;text-rendering:auto;enable-background:accumulate"/>
      <path inkscape:label="brillo superior" sodipodi:nodetypes="scccccccccccccsscccccccccccccsscccsccccccccccsccccccccccccccc" inkscape:connector-curvature="0" id="path1201-5" d="m 76.197871,48.99061 c -0.526347,0 -0.820495,0.415829 -0.951548,0.897708 l -2.020186,7.430686 c -1.378919,0.491981 -3.190777,1.179266 -4.411838,1.818301 l -6.685054,-3.847914 c -0.43278,-0.249138 -0.936035,-0.334482 -1.30821,0.03769 l -5.437414,5.436064 c -0.279126,0.279112 -0.298752,0.629098 -0.187077,0.969044 0.04065,-0.09828 0.100016,-0.192879 0.187077,-0.279946 l 5.437414,-5.436064 c 0.372175,-0.372168 0.87543,-0.286823 1.30821,-0.03769 l 6.685054,3.847914 c 1.221061,-0.639035 3.032919,-1.326319 4.411838,-1.818301 l 2.020186,-7.430685 c 0.131053,-0.481879 0.425201,-0.897708 0.951548,-0.897708 h 7.69044 c 0.526326,0 0.816346,0.416856 0.946158,0.899059 l 2.024225,7.488555 c 1.375611,0.44544 2.917412,1.190726 4.39031,1.795416 l 6.681017,-3.826372 c 0.433415,-0.248014 0.934692,-0.334496 1.306867,0.03769 l 5.437412,5.437408 c 0.0877,0.08773 0.14774,0.183045 0.18842,0.28264 0.11133,-0.340945 0.0903,-0.692971 -0.18842,-0.971738 L 99.236888,55.38496 c -0.372175,-0.372182 -0.873452,-0.285701 -1.306867,-0.03769 l -6.681017,3.826374 c -1.472898,-0.604691 -3.014699,-1.349978 -4.39031,-1.795418 L 84.834469,49.889669 C 84.704657,49.407466 84.414637,48.99061 83.888311,48.99061 Z M 58.916596,68.994634 c -0.720293,1.344967 -1.316141,2.753131 -1.767163,4.211296 l -7.261098,1.95559 c -0.482203,0.129812 -0.897708,0.425235 -0.897708,0.951547 v 0.689098 c 0,-0.526312 0.415505,-0.821735 0.897708,-0.951547 l 7.261098,-1.95559 c 0.49103,-1.587516 1.146259,-3.119339 1.955584,-4.570655 z m 42.143984,0.162847 -0.18708,0.325709 c 0.77449,1.417274 1.40313,2.909301 1.87617,4.453563 l 7.36205,1.998651 c 0.48187,0.13106 0.8977,0.425222 0.8977,0.951547 v -0.689097 c 0,-0.526326 -0.41583,-0.820488 -0.8977,-0.951547 l -7.36205,-1.998653 c -0.43313,-1.413972 -1.00255,-2.781039 -1.68909,-4.090173 z m -42.296074,22.668895 -3.476444,6.044407 c -0.190417,0.330753 -0.282674,0.702666 -0.150739,1.025577 0.03728,-0.114225 0.08822,-0.227878 0.150739,-0.33648 l 3.662176,-6.366078 c -0.06533,-0.120771 -0.122549,-0.245594 -0.185732,-0.367426 z m 42.388944,0 c -0.0624,0.121901 -0.11987,0.246566 -0.18439,0.367426 l 3.6837,6.4253 c 0.062,0.108353 0.11353,0.221317 0.15075,0.335128 0.13171,-0.322766 0.0388,-0.692963 -0.15075,-1.024226 z" style="color:#000000;clip-rule:nonzero;display:inline;overflow:visible;visibility:visible;opacity:1;isolation:auto;mix-blend-mode:normal;color-interpolation:sRGB;color-interpolation-filters:linearRGB;solid-color:#000000;solid-opacity:1;vector-effect:none;fill:#ffffff;fill-opacity:0.67539266;fill-rule:nonzero;stroke:none;stroke-width:1.29027653;stroke-linecap:butt;stroke-linejoin:miter;stroke-miterlimit:4;stroke-dasharray:none;stroke-dashoffset:0;stroke-opacity:0.14136125;marker:none;marker-start:none;marker-mid:none;marker-end:none;paint-order:fill markers stroke;color-rendering:auto;image-rendering:auto;shape-rendering:auto;text-rendering:auto;enable-background:accumulate"/>
      <path inkscape:label="sombra" sodipodi:nodetypes="ssssssssss" inkscape:connector-curvature="0" id="path1210-0" d="m 80.003544,66.917707 c -7.938998,0 -14.430498,6.486469 -14.430498,14.425446 0,7.938998 6.4915,14.430499 14.430498,14.430499 7.938983,0 14.425468,-6.491501 14.425468,-14.430499 0,-7.938977 -6.486485,-14.425446 -14.425468,-14.425446 z m -0.0014,5.930154 c 4.740296,0 8.528024,3.787735 8.528024,8.528018 0,4.740317 -3.787728,8.532662 -8.528024,8.532662 -4.74029,0 -8.532663,-3.792345 -8.532663,-8.532662 0,-4.740283 3.792373,-8.528018 8.532663,-8.528018 z" style="color:#000000;font-style:normal;font-variant:normal;font-weight:normal;font-stretch:normal;font-size:medium;line-height:normal;font-family:sans-serif;text-indent:0;text-align:start;text-decoration:none;text-decoration-line:none;text-decoration-style:solid;text-decoration-color:#000000;letter-spacing:normal;word-spacing:normal;text-transform:none;writing-mode:lr-tb;direction:ltr;baseline-shift:baseline;text-anchor:start;white-space:normal;clip-rule:nonzero;display:inline;overflow:visible;visibility:visible;opacity:1;isolation:auto;mix-blend-mode:normal;color-interpolation:sRGB;color-interpolation-filters:linearRGB;solid-color:#000000;solid-opacity:1;vector-effect:none;fill:#000000;fill-opacity:0.16753929;fill-rule:nonzero;stroke:none;stroke-width:1.40684593;stroke-linecap:butt;stroke-linejoin:miter;stroke-miterlimit:4;stroke-dasharray:none;stroke-dashoffset:0;stroke-opacity:0.14136125;marker:none;marker-start:none;marker-mid:none;marker-end:none;paint-order:fill markers stroke;color-rendering:auto;image-rendering:auto;shape-rendering:auto;text-rendering:auto;enable-background:accumulate"/>
      <path inkscape:label="aro interior" style="color:#000000;font-style:normal;font-variant:normal;font-weight:normal;font-stretch:normal;font-size:medium;line-height:normal;font-family:sans-serif;text-indent:0;text-align:start;text-decoration:none;text-decoration-line:none;text-decoration-style:solid;text-decoration-color:#000000;letter-spacing:normal;word-spacing:normal;text-transform:none;writing-mode:lr-tb;direction:ltr;baseline-shift:baseline;text-anchor:start;white-space:normal;clip-rule:nonzero;display:inline;overflow:visible;visibility:visible;opacity:1;isolation:auto;mix-blend-mode:normal;color-interpolation:sRGB;color-interpolation-filters:linearRGB;solid-color:#000000;solid-opacity:1;vector-effect:none;fill:#b1c7d0;fill-opacity:1;fill-rule:nonzero;stroke:none;stroke-width:1.40684593;stroke-linecap:butt;stroke-linejoin:miter;stroke-miterlimit:4;stroke-dasharray:none;stroke-dashoffset:0;stroke-opacity:0.14136125;marker:none;marker-start:none;marker-mid:none;marker-end:none;paint-order:fill markers stroke;color-rendering:auto;image-rendering:auto;shape-rendering:auto;text-rendering:auto;enable-background:accumulate" d="m 80.043552,65.646611 c -7.938998,0 -14.430498,6.48647 -14.430498,14.425447 0,7.938997 6.4915,14.430498 14.430498,14.430498 7.938985,0 14.425469,-6.491501 14.425469,-14.430498 0,-7.938977 -6.486484,-14.425447 -14.425469,-14.425447 z m 6.89e-4,5.86511 c 4.740296,0 8.528026,3.787736 8.528026,8.528018 0,4.740317 -3.78773,8.532662 -8.528026,8.532662 -4.740288,0 -8.532662,-3.792345 -8.532662,-8.532662 0,-4.740282 3.792374,-8.528018 8.532662,-8.528018 z" id="path1206-3" inkscape:connector-curvature="0" sodipodi:nodetypes="ssssssssss"/>
      <path inkscape:label="aro interior filete" sodipodi:nodetypes="sscscsss" inkscape:connector-curvature="0" id="path1206-2-6" d="m 80.051278,88.587024 c -4.74029,0 -8.532974,-3.787301 -8.532974,-8.527583 0,-0.116341 0.01296,-0.229401 0.0175,-0.344549 0.180171,4.576421 3.891699,7.74625 8.515476,7.74625 4.623777,0 8.33013,-3.169829 8.510088,-7.74625 0.0049,0.115148 0.0175,0.228208 0.0175,0.344549 0,4.740282 -3.787288,8.527583 -8.527584,8.527583 z" style="color:#000000;font-style:normal;font-variant:normal;font-weight:normal;font-stretch:normal;font-size:medium;line-height:normal;font-family:sans-serif;text-indent:0;text-align:start;text-decoration:none;text-decoration-line:none;text-decoration-style:solid;text-decoration-color:#000000;letter-spacing:normal;word-spacing:normal;text-transform:none;writing-mode:lr-tb;direction:ltr;baseline-shift:baseline;text-anchor:start;white-space:normal;clip-rule:nonzero;display:inline;overflow:visible;visibility:visible;opacity:1;isolation:auto;mix-blend-mode:normal;color-interpolation:sRGB;color-interpolation-filters:linearRGB;solid-color:#000000;solid-opacity:1;vector-effect:none;fill:#718085;fill-opacity:1;fill-rule:nonzero;stroke:none;stroke-width:1.40684593;stroke-linecap:butt;stroke-linejoin:miter;stroke-miterlimit:4;stroke-dasharray:none;stroke-dashoffset:0;stroke-opacity:0.14136125;marker:none;marker-start:none;marker-mid:none;marker-end:none;paint-order:fill markers stroke;color-rendering:auto;image-rendering:auto;shape-rendering:auto;text-rendering:auto;enable-background:accumulate"/>
      <path inkscape:label="aro interior brillo" inkscape:connector-curvature="0" id="path1237-1" d="m 80.043304,65.646997 c -7.938997,0 -14.429829,6.485732 -14.429829,14.424709 0,0.109884 0.0055,0.218465 0.0076,0.327776 0.17625,-7.788499 6.593032,-14.096933 14.422146,-14.096933 7.829101,0 14.240894,6.308441 14.417021,14.096933 0.0028,-0.109318 0.0089,-0.217892 0.0089,-0.327776 0,-7.938977 -6.487001,-14.424709 -14.425986,-14.424709 z m -8.514339,14.737932 c -0.0049,0.115141 -0.0175,0.228222 -0.0175,0.344549 0,4.740316 3.792677,8.531621 8.532966,8.531621 4.740295,0 8.527583,-3.791305 8.527583,-8.531621 0,-0.116334 -0.01296,-0.229402 -0.0175,-0.344549 -0.179951,4.57667 -3.886304,8.187073 -8.510087,8.187073 -4.623783,0 -8.335312,-3.610389 -8.51547,-8.187073 z" style="color:#000000;font-style:normal;font-variant:normal;font-weight:normal;font-stretch:normal;font-size:medium;line-height:normal;font-family:sans-serif;text-indent:0;text-align:start;text-decoration:none;text-decoration-line:none;text-decoration-style:solid;text-decoration-color:#000000;letter-spacing:normal;word-spacing:normal;text-transform:none;writing-mode:lr-tb;direction:ltr;baseline-shift:baseline;text-anchor:start;white-space:normal;clip-rule:nonzero;display:inline;overflow:visible;visibility:visible;opacity:1;isolation:auto;mix-blend-mode:normal;color-interpolation:sRGB;color-interpolation-filters:linearRGB;solid-color:#000000;solid-opacity:1;vector-effect:none;fill:#ffffff;fill-opacity:0.69109946;fill-rule:nonzero;stroke:none;stroke-width:1.40684593;stroke-linecap:butt;stroke-linejoin:miter;stroke-miterlimit:4;stroke-dasharray:none;stroke-dashoffset:0;stroke-opacity:0.14136125;marker:none;marker-start:none;marker-mid:none;marker-end:none;paint-order:fill markers stroke;color-rendering:auto;image-rendering:auto;shape-rendering:auto;text-rendering:auto;enable-background:accumulate" sodipodi:nodetypes="sscscssscssscscc"/>
      <rect y="88.471642" x="75.887093" height="0.70501328" width="8.8619127" id="rect1380-0" style="color:#000000;clip-rule:nonzero;display:block;overflow:visible;visibility:visible;opacity:1;isolation:auto;mix-blend-mode:normal;color-interpolation:sRGB;color-interpolation-filters:linearRGB;solid-color:#000000;solid-opacity:1;vector-effect:none;fill:url(#linearGradient1382-2);fill-opacity:1;fill-rule:nonzero;stroke:none;stroke-width:0.78774053;stroke-linecap:butt;stroke-linejoin:miter;stroke-miterlimit:4;stroke-dasharray:none;stroke-dashoffset:0;stroke-opacity:1;marker:none;marker-start:none;marker-mid:none;marker-end:none;paint-order:fill markers stroke;color-rendering:auto;image-rendering:auto;shape-rendering:auto;text-rendering:auto;enable-background:accumulate" inkscape:label="brillo"/>
      <rect style="color:#000000;clip-rule:nonzero;display:block;overflow:visible;visibility:visible;opacity:1;isolation:auto;mix-blend-mode:normal;color-interpolation:sRGB;color-interpolation-filters:linearRGB;solid-color:#000000;solid-opacity:1;vector-effect:none;fill:url(#linearGradient1376-7);fill-opacity:1;fill-rule:nonzero;stroke:none;stroke-width:0.75801742;stroke-linecap:butt;stroke-linejoin:miter;stroke-miterlimit:4;stroke-dasharray:none;stroke-dashoffset:0;stroke-opacity:1;marker:none;marker-start:none;marker-mid:none;marker-end:none;paint-order:fill markers stroke;color-rendering:auto;image-rendering:auto;shape-rendering:auto;text-rendering:auto;enable-background:accumulate" id="rect1366-6" width="8.2057724" height="0.70501328" x="75.857254" y="65.53965" inkscape:label="brillo"/>
    </g>
  </g>
</svg>