<?xml version="1.0" encoding="UTF-8" standalone="yes"?>
<svg xmlns:dc="http://purl.org/dc/elements/1.1/" xmlns:cc="http://creativecommons.org/ns#" xmlns:rdf="http://www.w3.org/1999/02/22-rdf-syntax-ns#" xmlns:svg="http://www.w3.org/2000/svg" xmlns="http://www.w3.org/2000/svg" xmlns:xlink="http://www.w3.org/1999/xlink" xmlns:sodipodi="http://sodipodi.sourceforge.net/DTD/sodipodi-0.dtd" xmlns:inkscape="http://www.inkscape.org/namespaces/inkscape" height="16" viewBox="0 0 16 16" width="16" id="svg2" version="1.1" inkscape:version="0.92.2 5c3e80d, 2017-08-06" sodipodi:docname="gufw.svg" enable-background="new" folder="16">
  <title id="title4675">Template icons dark</title>
  <metadata id="metadata24">
    <rdf:RDF>
      <cc:Work rdf:about="">
        <dc:format>image/svg+xml</dc:format>
        <dc:type rdf:resource="http://purl.org/dc/dcmitype/StillImage"/>
        <dc:title>Template icons dark</dc:title>
        <dc:date>17/05/13</dc:date>
        <dc:creator>
          <cc:Agent>
            <dc:title>wfpaisa</dc:title>
          </cc:Agent>
        </dc:creator>
        <dc:rights>
          <cc:Agent>
            <dc:title>License: GPLv3</dc:title>
          </cc:Agent>
        </dc:rights>
        <dc:language>es-en</dc:language>
        <dc:subject>
          <rdf:Bag>
            <rdf:li>plane-icon-theme</rdf:li>
          </rdf:Bag>
        </dc:subject>
        <dc:description>Template for create set icons</dc:description>
        <cc:license rdf:resource="https://www.gnu.org/licenses/gpl-3.0.en.html"/>
      </cc:Work>
    </rdf:RDF>
  </metadata>
  <defs id="defs22">
    <linearGradient id="linearGradient39741">
      <stop id="stop39737" offset="0" style="stop-color:#1d6e99;stop-opacity:1;"/>
      <stop id="stop39739" offset="1" style="stop-color:#f93000;stop-opacity:1;"/>
    </linearGradient>
    <linearGradient inkscape:collect="always" id="linearGradient39682">
      <stop style="stop-color:#492f46;stop-opacity:0.70980394" offset="0" id="stop39678"/>
      <stop style="stop-color:#3c3543;stop-opacity:0.36813188" offset="1" id="stop39680"/>
    </linearGradient>
    <linearGradient inkscape:collect="always" id="linearGradient4208">
      <stop style="stop-color:#000000;stop-opacity:0.51098901" offset="0" id="stop4204"/>
      <stop style="stop-color:#000000;stop-opacity:0.26923078" offset="1" id="stop4206"/>
    </linearGradient>
    <linearGradient inkscape:collect="always" xlink:href="#linearGradient4722" id="linearGradient4720" gradientUnits="userSpaceOnUse" gradientTransform="matrix(0.87883305,0,0,0.87883305,117.72962,-726.32687)" x1="48.843494" y1="994.45337" x2="48.843494" y2="1014.9698"/>
    <linearGradient id="linearGradient4722" inkscape:collect="always">
      <stop id="stop4724" offset="0" style="stop-color:#313131;stop-opacity:0.50980395"/>
      <stop style="stop-color:#dfdfdf;stop-opacity:0.76078433" offset="0.60000002" id="stop4728"/>
      <stop id="stop4726" offset="1" style="stop-color:#ffffff;stop-opacity:1"/>
    </linearGradient>
    <linearGradient inkscape:collect="always" xlink:href="#linearGradient4145" id="linearGradient4147" x1="48.240433" y1="22.744709" x2="48.240433" y2="-17.955055" gradientUnits="userSpaceOnUse" gradientTransform="matrix(1.0633581,0,0,1.0633581,108.95881,153.77824)"/>
    <linearGradient inkscape:collect="always" id="linearGradient4145">
      <stop style="stop-color:#bcbcbc;stop-opacity:1" offset="0" id="stop4141"/>
      <stop style="stop-color:#ffffff;stop-opacity:1" offset="1" id="stop4143"/>
    </linearGradient>
    <linearGradient inkscape:collect="always" xlink:href="#linearGradient10165" id="linearGradient10167" x1="43.115879" y1="25.525976" x2="1.4625005" y2="25.525976" gradientUnits="userSpaceOnUse" gradientTransform="matrix(2.086771,0,0,2.086771,113.04765,106.78735)"/>
    <linearGradient inkscape:collect="always" id="linearGradient10165">
      <stop style="stop-color:#eeeeee;stop-opacity:1;" offset="0" id="stop10161"/>
      <stop id="stop4584" offset="0.41331291" style="stop-color:#a2a2a2;stop-opacity:1;"/>
      <stop id="stop4582" offset="0.49493894" style="stop-color:#707070;stop-opacity:1"/>
      <stop id="stop11618" offset="0.53019929" style="stop-color:#838383;stop-opacity:1"/>
      <stop style="stop-color:#d2d2d2;stop-opacity:1" offset="1" id="stop10163"/>
    </linearGradient>
    <linearGradient inkscape:collect="always" xlink:href="#linearGradient4247" id="linearGradient5819" gradientUnits="userSpaceOnUse" gradientTransform="matrix(1.771737,0,0,1.771737,73.572454,-1618.6902)" x1="50.10355" y1="1012.1684" x2="73.355255" y2="1012.1684"/>
    <linearGradient inkscape:collect="always" id="linearGradient4247">
      <stop style="stop-color:#353d5a;stop-opacity:0.81318682" offset="0" id="stop4243"/>
      <stop style="stop-color:#a33284;stop-opacity:0.58791208" offset="1" id="stop4245"/>
    </linearGradient>
    <linearGradient inkscape:collect="always" xlink:href="#linearGradient4241" id="linearGradient4235" gradientUnits="userSpaceOnUse" gradientTransform="matrix(1.771737,0,0,1.771737,73.572454,-1618.6902)" x1="49.679111" y1="1012.1684" x2="28.449266" y2="1012.1684"/>
    <linearGradient inkscape:collect="always" id="linearGradient4241">
      <stop style="stop-color:#54546a;stop-opacity:1" offset="0" id="stop4237"/>
      <stop style="stop-color:#5a6480;stop-opacity:1" offset="1" id="stop4239"/>
    </linearGradient>
    <linearGradient inkscape:collect="always" xlink:href="#linearGradient39682" id="linearGradient39684" x1="158.14174" y1="123.57748" x2="158.14174" y2="196" gradientUnits="userSpaceOnUse"/>
    <linearGradient inkscape:collect="always" xlink:href="#linearGradient39741" id="linearGradient39735" gradientUnits="userSpaceOnUse" gradientTransform="matrix(1.771737,0,0,1.771737,73.559604,-1618.6235)" x1="55.554264" y1="1018.5549" x2="6.8810019" y2="979.09015"/>
    <linearGradient inkscape:collect="always" xlink:href="#linearGradient10165" id="linearGradient10167-4" x1="43.115879" y1="25.525976" x2="1.4625005" y2="25.525976" gradientUnits="userSpaceOnUse" gradientTransform="matrix(0.52169801,0,0,0.52169801,-55.738177,-57.303381)"/>
    <linearGradient inkscape:collect="always" xlink:href="#linearGradient4247" id="linearGradient5819-75" gradientUnits="userSpaceOnUse" gradientTransform="matrix(0.44293871,0,0,0.44293871,-65.607075,-488.67712)" x1="50.10355" y1="1012.1684" x2="73.355255" y2="1012.1684"/>
    <linearGradient gradientTransform="matrix(0.25000252,0,0,0.25000252,-56.000092,-45.5001)" inkscape:collect="always" xlink:href="#linearGradient4208" id="linearGradient4210-21" x1="50.444756" y1="26.43075" x2="49.479927" y2="-19.018431" gradientUnits="userSpaceOnUse"/>
    <linearGradient inkscape:collect="always" xlink:href="#linearGradient4722" id="linearGradient4720-57" gradientUnits="userSpaceOnUse" gradientTransform="matrix(0.21971048,0,0,0.21971048,-54.567673,-265.58404)" x1="48.843494" y1="994.45337" x2="48.843494" y2="1014.9698"/>
    <linearGradient inkscape:collect="always" xlink:href="#linearGradient4145" id="linearGradient4147-5" x1="48.240433" y1="22.744709" x2="48.240433" y2="-17.955055" gradientUnits="userSpaceOnUse" gradientTransform="matrix(0.2658422,0,0,0.2658422,-56.760397,-45.555541)"/>
    <linearGradient inkscape:collect="always" xlink:href="#linearGradient39741" id="linearGradient39735-53" gradientUnits="userSpaceOnUse" gradientTransform="matrix(0.44293871,0,0,0.44293871,-65.610287,-488.66044)" x1="55.554264" y1="1018.5549" x2="6.8810019" y2="979.09015"/>
    <linearGradient inkscape:collect="always" xlink:href="#linearGradient4241" id="linearGradient4235-3" gradientUnits="userSpaceOnUse" gradientTransform="matrix(0.44293871,0,0,0.44293871,-65.607075,-488.67712)" x1="49.679111" y1="1012.1684" x2="28.449266" y2="1012.1684"/>
    <linearGradient inkscape:collect="always" xlink:href="#linearGradient10165" id="linearGradient10167-40" x1="43.115879" y1="25.525976" x2="1.4625005" y2="25.525976" gradientUnits="userSpaceOnUse" gradientTransform="matrix(0.34779866,0,0,0.34779866,-71.843043,-72.868933)"/>
    <linearGradient inkscape:collect="always" xlink:href="#linearGradient4247" id="linearGradient5819-2" gradientUnits="userSpaceOnUse" gradientTransform="matrix(0.29529246,0,0,0.29529246,-78.422309,-360.4514)" x1="50.10355" y1="1012.1684" x2="73.355255" y2="1012.1684"/>
    <linearGradient inkscape:collect="always" xlink:href="#linearGradient39741" id="linearGradient39735-0" gradientUnits="userSpaceOnUse" gradientTransform="matrix(0.29529246,0,0,0.29529246,-78.42445,-360.44029)" x1="55.554264" y1="1018.5549" x2="6.8810019" y2="979.09015"/>
    <linearGradient inkscape:collect="always" xlink:href="#linearGradient4241" id="linearGradient4235-0" gradientUnits="userSpaceOnUse" gradientTransform="matrix(0.29529246,0,0,0.29529246,-78.422309,-360.4514)" x1="49.679111" y1="1012.1684" x2="28.449266" y2="1012.1684"/>
    <linearGradient inkscape:collect="always" xlink:href="#linearGradient4241" id="linearGradient4235-7" gradientUnits="userSpaceOnUse" gradientTransform="matrix(2.2146743,0,0,2.2146743,165.35124,-1949.9798)" x1="49.679111" y1="1012.1684" x2="28.449266" y2="1012.1684"/>
    <linearGradient inkscape:collect="always" xlink:href="#linearGradient39741" id="linearGradient39735-50" gradientUnits="userSpaceOnUse" gradientTransform="matrix(2.2146743,0,0,2.2146743,165.33518,-1949.8965)" x1="55.554264" y1="1018.5549" x2="6.8810019" y2="979.09015"/>
    <linearGradient inkscape:collect="always" xlink:href="#linearGradient4145" id="linearGradient4147-1" x1="48.240433" y1="22.744709" x2="48.240433" y2="-17.955055" gradientUnits="userSpaceOnUse" gradientTransform="matrix(1.3291994,0,0,1.3291994,209.58425,265.60865)"/>
    <linearGradient inkscape:collect="always" xlink:href="#linearGradient4722" id="linearGradient4720-3" gradientUnits="userSpaceOnUse" gradientTransform="matrix(1.0985428,0,0,1.0985428,220.54778,-834.52423)" x1="48.843494" y1="994.45337" x2="48.843494" y2="1014.9698"/>
    <linearGradient inkscape:collect="always" xlink:href="#linearGradient4247" id="linearGradient5819-15" gradientUnits="userSpaceOnUse" gradientTransform="matrix(2.2146743,0,0,2.2146743,165.35124,-1949.9798)" x1="50.10355" y1="1012.1684" x2="73.355255" y2="1012.1684"/>
    <linearGradient inkscape:collect="always" xlink:href="#linearGradient10165" id="linearGradient10167-76" x1="43.115879" y1="25.525976" x2="1.4625005" y2="25.525976" gradientUnits="userSpaceOnUse" gradientTransform="matrix(2.6084673,0,0,2.6084673,214.6953,206.86996)"/>
    <linearGradient inkscape:collect="always" xlink:href="#linearGradient4241" id="linearGradient4235-4" gradientUnits="userSpaceOnUse" gradientTransform="matrix(1.1811507,0,0,1.1811507,22.317472,-1105.7858)" x1="49.679111" y1="1012.1684" x2="28.449266" y2="1012.1684"/>
    <linearGradient inkscape:collect="always" xlink:href="#linearGradient39741" id="linearGradient39735-06" gradientUnits="userSpaceOnUse" gradientTransform="matrix(1.1811507,0,0,1.1811507,22.308906,-1105.7413)" x1="55.554264" y1="1018.5549" x2="6.8810019" y2="979.09015"/>
    <linearGradient inkscape:collect="always" xlink:href="#linearGradient4145" id="linearGradient4147-2" x1="48.240433" y1="22.744709" x2="48.240433" y2="-17.955055" gradientUnits="userSpaceOnUse" gradientTransform="matrix(0.70890099,0,0,0.70890099,45.908229,75.852359)"/>
    <linearGradient inkscape:collect="always" xlink:href="#linearGradient4722" id="linearGradient4720-4" gradientUnits="userSpaceOnUse" gradientTransform="matrix(0.58588506,0,0,0.58588506,51.7554,-510.88073)" x1="48.843494" y1="994.45337" x2="48.843494" y2="1014.9698"/>
    <linearGradient inkscape:collect="always" xlink:href="#linearGradient4247" id="linearGradient5819-4" gradientUnits="userSpaceOnUse" gradientTransform="matrix(1.1811507,0,0,1.1811507,22.317472,-1105.7858)" x1="50.10355" y1="1012.1684" x2="73.355255" y2="1012.1684"/>
    <linearGradient inkscape:collect="always" xlink:href="#linearGradient10165" id="linearGradient10167-1" x1="43.115879" y1="25.525976" x2="1.4625005" y2="25.525976" gradientUnits="userSpaceOnUse" gradientTransform="matrix(1.391172,0,0,1.391172,48.634106,44.525295)"/>
    <linearGradient inkscape:collect="always" xlink:href="#linearGradient4241" id="linearGradient4235-77" gradientUnits="userSpaceOnUse" gradientTransform="matrix(0.88585814,0,0,0.88585814,-19.253977,-865.33475)" x1="49.679111" y1="1012.1684" x2="28.449266" y2="1012.1684"/>
    <linearGradient inkscape:collect="always" xlink:href="#linearGradient39741" id="linearGradient39735-3" gradientUnits="userSpaceOnUse" gradientTransform="matrix(0.88585814,0,0,0.88585814,-19.260402,-865.3014)" x1="55.554264" y1="1018.5549" x2="6.8810019" y2="979.09015"/>
    <linearGradient inkscape:collect="always" xlink:href="#linearGradient4145" id="linearGradient4147-6" x1="48.240433" y1="22.744709" x2="48.240433" y2="-17.955055" gradientUnits="userSpaceOnUse" gradientTransform="matrix(0.53167283,0,0,0.53167283,-1.5610053,20.8891)"/>
    <linearGradient inkscape:collect="always" xlink:href="#linearGradient4722" id="linearGradient4720-48" gradientUnits="userSpaceOnUse" gradientTransform="matrix(0.43941138,0,0,0.43941138,2.8243484,-419.15831)" x1="48.843494" y1="994.45337" x2="48.843494" y2="1014.9698"/>
    <linearGradient inkscape:collect="always" xlink:href="#linearGradient4247" id="linearGradient5819-3" gradientUnits="userSpaceOnUse" gradientTransform="matrix(0.88585814,0,0,0.88585814,-19.253977,-865.33475)" x1="50.10355" y1="1012.1684" x2="73.355255" y2="1012.1684"/>
    <linearGradient inkscape:collect="always" xlink:href="#linearGradient10165" id="linearGradient10167-8" x1="43.115879" y1="25.525976" x2="1.4625005" y2="25.525976" gradientUnits="userSpaceOnUse" gradientTransform="matrix(1.0433733,0,0,1.0433733,0.48339087,-2.6060701)"/>
    <linearGradient inkscape:collect="always" xlink:href="#linearGradient4241" id="linearGradient4235-1" gradientUnits="userSpaceOnUse" gradientTransform="matrix(0.59058495,0,0,0.59058495,-44.809445,-608.90278)" x1="49.679111" y1="1012.1684" x2="28.449266" y2="1012.1684"/>
    <linearGradient inkscape:collect="always" xlink:href="#linearGradient39741" id="linearGradient39735-9" gradientUnits="userSpaceOnUse" gradientTransform="matrix(0.59058495,0,0,0.59058495,-44.813729,-608.88055)" x1="55.554264" y1="1018.5549" x2="6.8810019" y2="979.09015"/>
    <linearGradient inkscape:collect="always" xlink:href="#linearGradient4145" id="linearGradient4147-17" x1="48.240433" y1="22.744709" x2="48.240433" y2="-17.955055" gradientUnits="userSpaceOnUse" gradientTransform="matrix(0.35445627,0,0,0.35445627,-33.013875,-18.074016)"/>
    <linearGradient inkscape:collect="always" xlink:href="#linearGradient4247" id="linearGradient5819-5" gradientUnits="userSpaceOnUse" gradientTransform="matrix(0.59058495,0,0,0.59058495,-44.809445,-608.90278)" x1="50.10355" y1="1012.1684" x2="73.355255" y2="1012.1684"/>
    <linearGradient inkscape:collect="always" xlink:href="#linearGradient10165" id="linearGradient10167-5" x1="43.115879" y1="25.525976" x2="1.4625005" y2="25.525976" gradientUnits="userSpaceOnUse" gradientTransform="matrix(0.69559734,0,0,0.69559734,-31.650915,-33.737804)"/>
    <symbol id="flame" viewBox="0 0 12 16">
      <title id="title13945">flame</title>
      <path d="M5.05.31c.81 2.17.41 3.38-.52 4.31C3.55 5.67 1.98 6.45.9 7.98c-1.45 2.05-1.7 6.53 3.53 7.7-2.2-1.16-2.67-4.52-.3-6.61-.61 2.03.53 3.33 1.94 2.86 1.39-.47 2.3.53 2.27 1.67-.02.78-.31 1.44-1.13 1.81 3.42-.59 4.78-3.42 4.78-5.56 0-2.84-2.53-3.22-1.25-5.61-1.52.13-2.03 1.13-1.89 2.75.09 1.08-1.02 1.8-1.86 1.33-.67-.41-.66-1.19-.06-1.78C8.18 5.31 8.68 2.45 5.05.32L5.03.3l.02.01z" id="path13947"/>
    </symbol>
    <symbol id="icon-space-shuttle" viewBox="0 0 34 28">
      <title id="title18373">space-shuttle</title>
      <path d="M9.688 17.5c-1.078 0.625-2.547 1-4.188 1h-2v-1h-1c-0.281 0-0.5-0.562-0.5-1.25 0-0.281 0.047-0.547 0.109-0.766-1.203-0.031-2.109-0.234-2.109-0.484s0.906-0.453 2.109-0.484c-0.063-0.219-0.109-0.484-0.109-0.766 0-0.688 0.219-1.25 0.5-1.25h1v-1h2c1.641 0 3.109 0.375 4.188 1h17.391c1.156 0.203 2.203 0.375 2.922 0.5 3 0.5 4 1.5 4 2s-1 1.5-4 2c-0.719 0.125-1.766 0.297-2.922 0.5h-17.391zM27.172 13.563c0.5 0.344 0.828 0.859 0.828 1.437s-0.328 1.094-0.828 1.437l1.266 0.469c0.641-0.453 1.062-1.141 1.062-1.906s-0.422-1.453-1.062-1.906zM9.766 17.75h15.859s-3.391 0.594-7.125 1.25c-2 0-3.5 1.5-3.5 1.5l-4.5 4.5s-1.516 1-2.5 1h-1.5l-1.453-7.25h0.453c1.594 0 3.109-0.359 4.266-1zM5.5 11.25h-0.453l1.453-7.25h1.5c1.016 0 2 0.5 2.5 1l4.5 4.5c0 0 1.5 1.5 3.5 1.5 3.734 0.656 7.125 1.25 7.125 1.25h-15.859c-1.156-0.641-2.672-1-4.266-1z" id="path18375"/>
    </symbol>
  </defs>
  <sodipodi:namedview pagecolor="#383c4a" bordercolor="#ffffff" borderopacity="0.62745098" objecttolerance="4" gridtolerance="10" guidetolerance="4" inkscape:pageopacity="0" inkscape:pageshadow="2" inkscape:window-width="640" inkscape:window-height="480" id="namedview20" showgrid="true" inkscape:zoom="15.622585" inkscape:cx="269.66731" inkscape:cy="-227.19515" inkscape:current-layer="layer12" inkscape:snap-smooth-nodes="false" showguides="true" borderlayer="true" inkscape:showpageshadow="false" inkscape:guide-bbox="true" guidecolor="#bd4fff" guideopacity="0.78431373" inkscape:snap-nodes="true" inkscape:lockguides="false" fit-margin-top="0" fit-margin-left="0" fit-margin-right="0" fit-margin-bottom="0" guidehicolor="#ff0101" guidehiopacity="0.78431373" inkscape:snap-page="true" inkscape:object-nodes="true" inkscape:snap-bbox="true" inkscape:snap-global="true" inkscape:snap-object-midpoints="false" inkscape:snap-bbox-edge-midpoints="false" inkscape:snap-bbox-midpoints="true">
    <inkscape:grid type="xygrid" id="grid4171" empspacing="4" dotted="false" originx="2.7755576e-17" originy="0" spacingx="1" spacingy="1" color="#5a5a5a" opacity="0.23529412" empcolor="#5a5a5a" empopacity="0.47058824" visible="true"/>
    <inkscape:grid type="axonomgrid" id="grid4699" units="mm" empspacing="4" color="#5a5a5a" opacity="0.23529412" empcolor="#5a5a5a" empopacity="0.47058824" gridanglex="45" gridanglez="45" spacingy="3.7795276" visible="false" originx="1.3228346" originy="1.3228346"/>
    <sodipodi:guide position="48,0" orientation="1,0" id="guide4568" inkscape:locked="false" inkscape:label="" inkscape:color="rgb(189,79,255)"/>
    <sodipodi:guide position="111.99996,-3.9999999e-05" orientation="0,1" id="guide4570" inkscape:locked="false" inkscape:label="" inkscape:color="rgb(189,79,255)"/>
    <sodipodi:guide position="0,0" orientation="1,0" id="guide4572" inkscape:locked="false" inkscape:label="" inkscape:color="rgb(189,79,255)"/>
    <sodipodi:guide position="0,48" orientation="0,1" id="guide4574" inkscape:locked="false" inkscape:label="" inkscape:color="rgb(189,79,255)"/>
    <sodipodi:guide position="0,80" orientation="0,1" id="guide4576" inkscape:locked="false" inkscape:label="" inkscape:color="rgb(189,79,255)"/>
    <sodipodi:guide position="-32,48" orientation="1,0" id="guide4578" inkscape:locked="false" inkscape:label="" inkscape:color="rgb(189,79,255)"/>
    <sodipodi:guide position="-32,104" orientation="0,1" id="guide4580" inkscape:locked="false" inkscape:label="" inkscape:color="rgb(189,79,255)"/>
    <sodipodi:guide position="-56,80" orientation="1,0" id="guide4582" inkscape:locked="false" inkscape:label="" inkscape:color="rgb(189,79,255)"/>
    <sodipodi:guide position="48,-64" orientation="0,1" id="guide4584" inkscape:locked="false" inkscape:label="" inkscape:color="rgb(189,79,255)"/>
    <sodipodi:guide position="0,0" orientation="-0.70710678,0.70710678" id="guide4588" inkscape:locked="false" inkscape:label="" inkscape:color="rgb(189,79,255)"/>
    <sodipodi:guide position="-56,80" orientation="-0.70710678,0.70710678" id="guide4573" inkscape:locked="false" inkscape:label="" inkscape:color="rgb(189,79,255)"/>
    <sodipodi:guide position="-32,48" orientation="-0.70710678,0.70710678" id="guide4575" inkscape:locked="false" inkscape:label="" inkscape:color="rgb(189,79,255)"/>
    <sodipodi:guide position="48,-64" orientation="-0.70710678,0.70710678" id="guide4577" inkscape:locked="false" inkscape:label="" inkscape:color="rgb(189,79,255)"/>
    <sodipodi:guide position="47.999962,0" orientation="0.70710678,0.70710678" id="guide4697" inkscape:locked="false" inkscape:label="" inkscape:color="rgb(189,79,255)"/>
    <sodipodi:guide position="207.99995,-288" orientation="0,1" id="guide7833" inkscape:locked="false"/>
    <sodipodi:guide position="335.99994,-288" orientation="1,0" id="guide7835" inkscape:locked="false" inkscape:label="" inkscape:color="rgb(189,79,255)"/>
    <sodipodi:guide position="111.99996,-64" orientation="1,0" id="guide7915" inkscape:locked="false"/>
    <sodipodi:guide position="111.99996,-160" orientation="0,1" id="guide7917" inkscape:locked="false"/>
    <sodipodi:guide position="207.99996,-160" orientation="1,0" id="guide7919" inkscape:locked="false"/>
    <sodipodi:guide position="111.99996,-160" orientation="-0.70710678,0.70710678" id="guide7921" inkscape:locked="false" inkscape:label="" inkscape:color="rgb(189,79,255)"/>
    <sodipodi:guide position="207.99996,-288" orientation="-0.70710678,0.70710678" id="guide7923" inkscape:locked="false" inkscape:label="" inkscape:color="rgb(189,79,255)"/>
    <sodipodi:guide position="-72,104" orientation="1,0" id="guide7824" inkscape:locked="false"/>
    <sodipodi:guide position="-56,120" orientation="0,1" id="guide7826" inkscape:locked="false"/>
    <sodipodi:guide position="-72,104" orientation="-0.70710678,0.70710678" id="guide7828" inkscape:locked="false" inkscape:label="" inkscape:color="rgb(189,79,255)"/>
  </sodipodi:namedview>
  <g inkscape:groupmode="layer" id="layer1" inkscape:label="icon_16" style="display:inline" transform="translate(72,72)">
    <g inkscape:groupmode="layer" id="layer5" inkscape:label="frame" style="display:none">
      <rect inkscape:label="frame_16" y="-72" x="-72" height="16" width="16" id="frame_16" style="color:#000000;clip-rule:nonzero;display:block;overflow:visible;visibility:visible;opacity:1;isolation:auto;mix-blend-mode:normal;color-interpolation:sRGB;color-interpolation-filters:linearRGB;solid-color:#000000;solid-opacity:1;vector-effect:none;fill:#000000;fill-opacity:1;fill-rule:nonzero;stroke:#ff24f7;stroke-width:0;stroke-linecap:square;stroke-linejoin:miter;stroke-miterlimit:4;stroke-dasharray:none;stroke-dashoffset:0;stroke-opacity:0.99481865;marker:none;marker-start:none;marker-mid:none;marker-end:none;paint-order:normal;color-rendering:auto;image-rendering:auto;shape-rendering:auto;text-rendering:auto;enable-background:accumulate"/>
      <text id="txt_16" y="-61.087891" x="-69.279297" style="font-size:8px;line-height:1000%;font-family:sans-serif;letter-spacing:0px;word-spacing:0px;display:inline;opacity:1;fill:#ffffff;fill-opacity:1;stroke:none;stroke-width:0.07214338px;stroke-linecap:butt;stroke-linejoin:miter;stroke-opacity:1" xml:space="preserve" inkscape:label="txt_16">
        <tspan style="font-size:8px;fill:#ffffff;fill-opacity:1;stroke:none;stroke-width:0.07214338px" y="-61.087891" x="-69.279297" id="tspan4768-6" sodipodi:role="line">16</tspan>
      </text>
    </g>
    <g inkscape:groupmode="layer" id="layer6" inkscape:label="icon" style="display:inline">
      <path sodipodi:nodetypes="ccccssccccsc" inkscape:connector-curvature="0" style="display:inline;fill:none;fill-opacity:1;stroke:#000000;stroke-width:0.67247766;stroke-miterlimit:4;stroke-dasharray:none;stroke-opacity:0.11538463" d="m -64.10968,-71.663616 c -2.62454,0.04717 -7.203015,1.872915 -7.203015,3.085687 l -0.02763,4.587088 c 0,3.157398 5.199447,7.581993 7.285911,7.654357 0.0031,1.46e-4 0.0061,0 0.0092,0 h 0.04606 c 0.0027,0 0.0063,8.8e-5 0.0092,0 2.086463,-0.07236 7.295122,-4.496959 7.295122,-7.654357 l -0.04605,-4.587088 c 0,-1.213097 -4.56961,-3.039452 -7.193801,-3.085687 -0.03383,-6.67e-4 -0.07735,0 -0.110533,0 -0.02213,0 -0.04261,-3.34e-4 -0.06448,0 z" id="path4084-1" inkscape:label="base sombra"/>
      <path sodipodi:nodetypes="ccccssccccsc" inkscape:connector-curvature="0" style="display:inline;opacity:1;vector-effect:none;fill:url(#linearGradient4235-0);fill-opacity:1;stroke:none;stroke-width:0.2952989;stroke-linecap:butt;stroke-linejoin:miter;stroke-miterlimit:4;stroke-dasharray:none;stroke-dashoffset:0;stroke-opacity:0.07853406" d="m -64.10985,-71.677612 c -2.62935,0.04726 -7.216211,1.876347 -7.216211,3.091343 l -0.02769,4.595491 c 0,3.163183 5.208976,7.595885 7.299262,7.66838 0.0031,1.49e-4 0.0061,0 0.0092,0 h 0.04614 c 0.0027,0 0.0063,9e-5 0.0092,0 2.090291,-0.07249 7.308492,-4.505197 7.308492,-7.66838 l -0.04614,-4.595491 c 0,-1.215321 -4.577981,-3.045022 -7.206983,-3.091343 -0.03389,-6.66e-4 -0.07749,0 -0.110734,0 -0.02217,0 -0.04268,-3.33e-4 -0.0646,0 z" id="path3123-0" inkscape:label="base"/>
      <path inkscape:label="base" id="path39733-8" d="m -64.111992,-71.666488 c -2.62935,0.04726 -7.216211,1.876347 -7.216211,3.091342 l -0.02768,4.595491 c 0,3.163184 5.208975,7.595885 7.299261,7.668381 0.0031,1.48e-4 0.0061,0 0.0092,0 h 0.04614 c 0.0027,0 0.0063,9e-5 0.0092,0 2.090291,-0.0725 7.308492,-4.505197 7.308492,-7.668381 l -0.04614,-4.595491 c 0,-1.21532 -4.577981,-3.045022 -7.206982,-3.091342 -0.03389,-6.67e-4 -0.07749,0 -0.110735,0 -0.02217,0 -0.04268,-3.33e-4 -0.0646,0 z" style="display:inline;opacity:1;vector-effect:none;fill:url(#linearGradient39735-0);fill-opacity:1;stroke:none;stroke-width:0.2952989;stroke-linecap:butt;stroke-linejoin:miter;stroke-miterlimit:4;stroke-dasharray:none;stroke-dashoffset:0;stroke-opacity:0.07853406" inkscape:connector-curvature="0" sodipodi:nodetypes="ccccssccccsc"/>
      <path style="display:inline;opacity:1;vector-effect:none;fill:#a3eaf1;fill-opacity:0.3021978;stroke:none;stroke-width:0.2952989;stroke-linecap:butt;stroke-linejoin:miter;stroke-miterlimit:4;stroke-dasharray:none;stroke-dashoffset:0;stroke-opacity:0.07853406" d="m -64.109695,-71.677555 c -2.62935,0.04726 -7.21622,1.87618 -7.21622,3.091176 l -0.02767,4.595749 c 0,1.327712 0.918756,2.878299 2.138368,4.237023 a 14.018489,13.175272 0 0 1 12.431115,-9.075613 c -0.528452,-1.201662 -4.691537,-2.805011 -7.150462,-2.848335 -0.03389,-6.67e-4 -0.07744,0 -0.110679,0 -0.02216,0 -0.04254,-3.33e-4 -0.06445,0 z" id="path4259-5" inkscape:connector-curvature="0"/>
      <path style="color:#000000;clip-rule:nonzero;display:inline;overflow:visible;visibility:visible;opacity:1;isolation:auto;mix-blend-mode:normal;color-interpolation:sRGB;color-interpolation-filters:linearRGB;solid-color:#000000;solid-opacity:1;vector-effect:none;fill:#f8f8f8;fill-opacity:1;fill-rule:nonzero;stroke:none;stroke-width:0.33333668;stroke-linecap:square;stroke-linejoin:miter;stroke-miterlimit:3.70000005;stroke-dasharray:none;stroke-dashoffset:0;stroke-opacity:0.98901098;marker:none;marker-start:none;marker-mid:none;marker-end:none;paint-order:markers stroke fill;color-rendering:auto;image-rendering:auto;shape-rendering:auto;text-rendering:auto;enable-background:accumulate" d="m -60.263567,-68.355682 c 1.994997,1.994997 0.174802,0.936388 0.174802,3.75774 0,2.82135 1.820195,1.762741 -0.174802,3.757737 -1.994998,1.994999 -0.936389,0.174804 -3.757741,0.174804 -2.82135,0 -1.762741,1.820195 -3.757738,-0.174802 -1.994998,-1.994998 -0.174803,-0.936389 -0.174803,-3.757739 2e-6,-2.821354 -1.820195,-1.762743 0.174803,-3.757742 1.994997,-1.994996 0.936388,-0.174801 3.757738,-0.174801 2.821352,0 1.762743,-1.820195 3.757741,0.174803 z" id="path4255-4" inkscape:connector-curvature="0"/>
      <path style="display:inline;fill:none;fill-opacity:0.1978022;stroke:#000000;stroke-width:0.801;stroke-miterlimit:4;stroke-dasharray:none;stroke-opacity:0.45604398" d="m -64.017573,-68.692129 c 2.281616,0 4.11844,1.836823 4.11844,4.11844 0,2.281614 -1.836824,4.118439 -4.11844,4.118439 -2.281616,0 -4.11844,-1.836825 -4.11844,-4.118439 0,-2.281617 1.836824,-4.11844 4.11844,-4.11844 z" id="rect4151-0" inkscape:connector-curvature="0"/>
      <path style="color:#000000;clip-rule:nonzero;display:inline;overflow:visible;visibility:visible;opacity:1;isolation:auto;mix-blend-mode:normal;color-interpolation:sRGB;color-interpolation-filters:linearRGB;solid-color:#000000;solid-opacity:1;fill:#2d2d2d;fill-opacity:1;fill-rule:nonzero;stroke:none;stroke-width:0.20083536;stroke-linecap:round;stroke-linejoin:miter;stroke-miterlimit:4;stroke-dasharray:none;stroke-dashoffset:0;stroke-opacity:0.40659341;marker:none;marker-start:none;marker-mid:none;marker-end:none;paint-order:normal;color-rendering:auto;image-rendering:auto;shape-rendering:auto;text-rendering:auto;enable-background:accumulate" d="m -65,-67 h 2 v 3 l -1,1 h 1 v 1 h -2 v -3 l 1,-1 z" id="rect5850-8" inkscape:connector-curvature="0" sodipodi:nodetypes="cccccccccc" inkscape:label="llave ojo"/>
      <path inkscape:connector-curvature="0" id="path5815-4" d="m -64.004199,-71.677755 v 15.355404 h 0.0051 c 0.0027,0 0.006,8.8e-5 0.0089,0 2.090291,-0.0725 7.308644,-4.505285 7.308644,-7.668467 l -0.04585,-4.595605 c 0,-1.21532 -4.578379,-3.045011 -7.207379,-3.091332 -0.02135,-3.33e-4 -0.04537,-1.23e-4 -0.06942,0 z" style="display:inline;opacity:0.43859648;fill:url(#linearGradient5819-2);fill-opacity:1;stroke:none;stroke-width:0.2952989;stroke-opacity:0.07853406" inkscape:label="base derecho"/>
      <path id="path4706-7" d="m -64.107762,-71.503936 c -2.569854,0.04619 -7.052929,1.833889 -7.052929,3.021393 l -0.02706,4.49151 c 0,3.091609 5.091109,7.424013 7.1341,7.494867 0.003,1.45e-4 0.006,0 0.009,0 h 0.04509 c 0.0027,0 0.0062,8.7e-5 0.009,0 2.042989,-0.07085 7.143118,-4.403258 7.143118,-7.494867 l -0.0451,-4.49151 c 0,-1.187821 -4.474395,-2.976121 -7.043909,-3.021393 -0.03313,-6.67e-4 -0.07574,0 -0.108228,0 -0.02166,0 -0.04172,-3.34e-4 -0.06313,0 z" style="display:inline;fill:none;fill-opacity:1;stroke:url(#linearGradient10167-40);stroke-width:0.65846574;stroke-miterlimit:4;stroke-dasharray:none;stroke-opacity:1" inkscape:connector-curvature="0" sodipodi:nodetypes="ccccssccccsc" inkscape:label="base borde blanco"/>
      <path style="color:#000000;font-style:normal;font-variant:normal;font-weight:normal;font-stretch:normal;font-size:medium;line-height:normal;font-family:sans-serif;font-variant-ligatures:normal;font-variant-position:normal;font-variant-caps:normal;font-variant-numeric:normal;font-variant-alternates:normal;font-feature-settings:normal;text-indent:0;text-align:start;text-decoration:none;text-decoration-line:none;text-decoration-style:solid;text-decoration-color:#000000;letter-spacing:normal;word-spacing:normal;text-transform:none;writing-mode:lr-tb;direction:ltr;text-orientation:mixed;dominant-baseline:auto;baseline-shift:baseline;text-anchor:start;white-space:normal;shape-padding:0;clip-rule:nonzero;display:inline;overflow:visible;visibility:visible;opacity:1;isolation:auto;mix-blend-mode:normal;color-interpolation:sRGB;color-interpolation-filters:linearRGB;solid-color:#000000;solid-opacity:1;vector-effect:none;fill:#060606;fill-opacity:0.45054985;fill-rule:nonzero;stroke:none;stroke-width:0.65846574;stroke-linecap:butt;stroke-linejoin:miter;stroke-miterlimit:4;stroke-dasharray:none;stroke-dashoffset:0;stroke-opacity:1;color-rendering:auto;image-rendering:auto;shape-rendering:auto;text-rendering:auto;enable-background:accumulate" d="m -64.111975,-71.666488 0.0042,0.491867 -0.0032,-0.491867 c -3.33e-4,0 -6.67e-4,-3e-6 -0.001,0 z m 0.0088,0.491867 c -0.0019,3.5e-5 -0.004,3.33e-4 -0.0059,3.33e-4 l 0.0013,0.166343 -0.0017,-0.166343 c -1.211777,0.02343 -2.955916,0.470805 -4.362022,1.056977 -0.704449,0.293668 -1.327279,0.622844 -1.754901,0.934254 -0.427621,0.31141 -0.60515,0.610806 -0.60515,0.700529 v 0.001 l -0.02702,4.490605 c 0,0.0055 0.001,0.01138 0.001,0.01693 l 0.02604,-4.340864 v -10e-4 c 0,-0.08972 0.177528,-0.389119 0.605149,-0.700529 0.427623,-0.311409 1.050452,-0.640586 1.754901,-0.934254 1.408439,-0.587145 3.156193,-1.035245 4.368207,-1.057302 3.34e-4,-5e-6 0.001,5e-6 0.0013,0 0.01525,-1.66e-4 0.03314,0 0.05729,0 0.03643,0 0.07825,-5e-4 0.102541,0 1.211779,0.02135 2.957686,0.469292 4.364302,1.056652 0.703307,0.29368 1.325175,0.623136 1.751969,0.934579 0.426796,0.311442 0.604173,0.610595 0.604173,0.700854 v 0.0017 l 0.04362,4.349979 c 9.8e-5,-0.0087 0.0013,-0.01776 0.0013,-0.02637 l -0.04491,-4.490285 v -0.0017 c 0,-0.09026 -0.177378,-0.38941 -0.604173,-0.700852 -0.426794,-0.311436 -1.048663,-0.640895 -1.75197,-0.934574 -1.406615,-0.587359 -3.152522,-1.0353 -4.364301,-1.056652 -0.0243,-5e-4 -0.06611,0 -0.102541,0 -0.02416,0 -0.04205,-1.67e-4 -0.05729,0 -3.34e-4,5e-6 -10e-4,-3e-6 -0.0013,0 z" id="path4098-24" inkscape:connector-curvature="0" sodipodi:nodetypes="cccccccccsssccccsssccscsssccccscscsccc" inkscape:label="base borde blanco sombra"/>
    </g>
  </g>
</svg>