<?xml version="1.0" encoding="UTF-8" standalone="yes"?>
<svg xmlns:dc="http://purl.org/dc/elements/1.1/" xmlns:cc="http://creativecommons.org/ns#" xmlns:rdf="http://www.w3.org/1999/02/22-rdf-syntax-ns#" xmlns:svg="http://www.w3.org/2000/svg" xmlns="http://www.w3.org/2000/svg" xmlns:xlink="http://www.w3.org/1999/xlink" xmlns:sodipodi="http://sodipodi.sourceforge.net/DTD/sodipodi-0.dtd" xmlns:inkscape="http://www.inkscape.org/namespaces/inkscape" height="128" viewBox="0 0 128 128" width="128" id="svg2" version="1.1" inkscape:version="0.92.2 5c3e80d, 2017-08-06" sodipodi:docname="filezilla.svg" enable-background="new" folder="128">
  <title id="title4675">Template icons dark</title>
  <metadata id="metadata24">
    <rdf:RDF>
      <cc:Work rdf:about="">
        <dc:format>image/svg+xml</dc:format>
        <dc:type rdf:resource="http://purl.org/dc/dcmitype/StillImage"/>
        <dc:title>Template icons dark</dc:title>
        <dc:date>17/05/13</dc:date>
        <dc:creator>
          <cc:Agent>
            <dc:title>wfpaisa</dc:title>
          </cc:Agent>
        </dc:creator>
        <dc:rights>
          <cc:Agent>
            <dc:title>License: GPLv3</dc:title>
          </cc:Agent>
        </dc:rights>
        <dc:language>es-en</dc:language>
        <dc:subject>
          <rdf:Bag>
            <rdf:li>plane-icon-theme</rdf:li>
          </rdf:Bag>
        </dc:subject>
        <dc:description>Template for create set icons</dc:description>
        <cc:license rdf:resource="https://www.gnu.org/licenses/gpl-3.0.en.html"/>
      </cc:Work>
    </rdf:RDF>
  </metadata>
  <defs id="defs22">
    <linearGradient id="linearGradient967" inkscape:collect="always">
      <stop id="stop963" offset="0" style="stop-color:#ffffff;stop-opacity:0.45604396"/>
      <stop id="stop965" offset="1" style="stop-color:#ffffff;stop-opacity:0"/>
    </linearGradient>
    <linearGradient inkscape:collect="always" id="linearGradient946">
      <stop style="stop-color:#c7c7c7;stop-opacity:1" offset="0" id="stop942"/>
      <stop style="stop-color:#ffffff;stop-opacity:0.98901099" offset="1" id="stop944"/>
    </linearGradient>
    <linearGradient inkscape:collect="always" id="linearGradient919">
      <stop style="stop-color:#a61f23;stop-opacity:1" offset="0" id="stop915"/>
      <stop style="stop-color:#ff4955;stop-opacity:1" offset="1" id="stop917"/>
    </linearGradient>
    <linearGradient inkscape:collect="always" id="linearGradient904">
      <stop style="stop-color:#88c1df;stop-opacity:1" offset="0" id="stop900"/>
      <stop style="stop-color:#f0f5f8;stop-opacity:1" offset="1" id="stop902"/>
    </linearGradient>
    <linearGradient inkscape:collect="always" xlink:href="#linearGradient904" id="linearGradient906" x1="170" y1="186" x2="170" y2="118" gradientUnits="userSpaceOnUse" gradientTransform="translate(-1,-1)"/>
    <linearGradient inkscape:collect="always" xlink:href="#linearGradient919" id="linearGradient921" x1="165.92126" y1="192" x2="159" y2="147.66142" gradientUnits="userSpaceOnUse" gradientTransform="matrix(1.5614379,0,0,1.5614379,-89.610624,-90.571879)"/>
    <linearGradient inkscape:collect="always" xlink:href="#linearGradient946" id="linearGradient948" x1="161" y1="192.39384" x2="161" y2="128.88977" gradientUnits="userSpaceOnUse"/>
    <linearGradient gradientUnits="userSpaceOnUse" y2="258.86499" y1="123.859" x2="187.94701" x1="187.94701" id="a" gradientTransform="matrix(0.26323921,0,0,0.26323073,141.52577,105.95773)">
      <stop id="stop2" stop-color="#BF0000" offset="0"/>
      <stop id="stop4" stop-color="#8F0000" offset="1"/>
    </linearGradient>
    <linearGradient inkscape:collect="always" xlink:href="#linearGradient904" id="linearGradient906-2-1" x1="170" y1="186" x2="170" y2="118" gradientUnits="userSpaceOnUse" gradientTransform="matrix(0.17631236,0,0,0.17631236,-92.513198,-91.862573)"/>
    <linearGradient inkscape:collect="always" xlink:href="#linearGradient919" id="linearGradient1101" gradientUnits="userSpaceOnUse" gradientTransform="matrix(1.8908949,0,0,1.8908949,-141.68152,-140.94084)" x1="165.92126" y1="192" x2="159" y2="147.66142"/>
    <linearGradient inkscape:collect="always" xlink:href="#linearGradient919" id="linearGradient1101-3" gradientUnits="userSpaceOnUse" gradientTransform="matrix(2.5148902,0,0,2.5148902,-129.84638,-129.25162)" x1="165.92126" y1="192" x2="159" y2="147.66142"/>
    <linearGradient inkscape:collect="always" xlink:href="#linearGradient904" id="linearGradient906-7" x1="170" y1="186" x2="170" y2="118" gradientUnits="userSpaceOnUse" gradientTransform="matrix(1.33,0,0,1.33,57.260035,56.869697)"/>
    <linearGradient inkscape:collect="always" xlink:href="#linearGradient919" id="linearGradient1101-2" gradientUnits="userSpaceOnUse" gradientTransform="matrix(1.3125166,0,0,1.3125166,-129.59549,-129.6902)" x1="165.92126" y1="192" x2="159" y2="147.66142"/>
    <linearGradient inkscape:collect="always" xlink:href="#linearGradient904" id="linearGradient906-76" x1="170" y1="186" x2="170" y2="118" gradientUnits="userSpaceOnUse" gradientTransform="matrix(0.69412459,0,0,0.69412459,-31.945027,-32.553825)"/>
    <linearGradient inkscape:collect="always" xlink:href="#linearGradient919" id="linearGradient1101-7" gradientUnits="userSpaceOnUse" gradientTransform="matrix(0.98439784,0,0,0.98439784,-133.17307,-133.22042)" x1="165.92126" y1="192" x2="159" y2="147.66142"/>
    <linearGradient inkscape:collect="always" xlink:href="#linearGradient904" id="linearGradient906-9" x1="170" y1="186" x2="170" y2="118" gradientUnits="userSpaceOnUse" gradientTransform="matrix(0.52059892,0,0,0.52059892,-59.934449,-60.367395)"/>
    <linearGradient inkscape:collect="always" xlink:href="#linearGradient919" id="linearGradient1101-27" gradientUnits="userSpaceOnUse" gradientTransform="matrix(0.65625833,0,0,0.65625833,-120.79765,-121.09694)" x1="165.92126" y1="192" x2="159" y2="147.66142"/>
    <linearGradient inkscape:collect="always" xlink:href="#linearGradient904" id="linearGradient906-1" x1="170" y1="186" x2="170" y2="118" gradientUnits="userSpaceOnUse" gradientTransform="matrix(0.3470623,0,0,0.3470623,-71.972378,-72.528771)"/>
    <linearGradient inkscape:collect="always" xlink:href="#linearGradient919" id="linearGradient1101-77" gradientUnits="userSpaceOnUse" gradientTransform="matrix(0.4921886,0,0,0.4921886,-122.62684,-122.69038)" x1="165.92126" y1="192" x2="159" y2="147.66142"/>
    <linearGradient inkscape:collect="always" xlink:href="#linearGradient904" id="linearGradient906-94" x1="170" y1="186" x2="170" y2="118" gradientUnits="userSpaceOnUse" gradientTransform="matrix(0.260294,0,0,0.260294,-86.008268,-86.264618)"/>
    <linearGradient inkscape:collect="always" xlink:href="#linearGradient919" id="linearGradient1101-77-6" gradientUnits="userSpaceOnUse" gradientTransform="matrix(0.25781096,0,0,0.25781096,-105.16377,-104.8453)" x1="165.92126" y1="192" x2="159" y2="147.66142"/>
    <radialGradient inkscape:collect="always" xlink:href="#linearGradient967" id="radialGradient961" cx="190.99977" cy="155.34175" fx="190.99977" fy="155.34175" r="45.37402" gradientTransform="matrix(0.75002159,0,0,0.58055928,45.746051,62.814905)" gradientUnits="userSpaceOnUse"/>
    <radialGradient inkscape:collect="always" xlink:href="#linearGradient967" id="radialGradient971" gradientUnits="userSpaceOnUse" gradientTransform="matrix(0.56451189,0,0,0.43696425,65.348655,86.110566)" cx="105.66889" cy="162.23166" fx="105.66889" fy="162.23166" r="45.37402"/>
    <radialGradient inkscape:collect="always" xlink:href="#linearGradient967" id="radialGradient971-2" gradientUnits="userSpaceOnUse" gradientTransform="matrix(0.75080081,0,0,0.58116245,145.50375,172.72675)" cx="105.66889" cy="162.23166" fx="105.66889" fy="162.23166" r="45.37402"/>
    <radialGradient inkscape:collect="always" xlink:href="#linearGradient967" id="radialGradient961-2" cx="190.99977" cy="155.34175" fx="190.99977" fy="155.34175" r="45.37402" gradientTransform="matrix(0.99752871,0,0,0.77214384,119.43229,141.74353)" gradientUnits="userSpaceOnUse"/>
    <radialGradient inkscape:collect="always" xlink:href="#linearGradient967" id="radialGradient971-1" gradientUnits="userSpaceOnUse" gradientTransform="matrix(0.39184158,0,0,0.30330763,14.109206,27.911761)" cx="105.66889" cy="162.23166" fx="105.66889" fy="162.23166" r="45.37402"/>
    <radialGradient inkscape:collect="always" xlink:href="#linearGradient967" id="radialGradient961-4" cx="190.99977" cy="155.34175" fx="190.99977" fy="155.34175" r="45.37402" gradientTransform="matrix(0.52060843,0,0,0.40298047,0.50255869,11.74167)" gradientUnits="userSpaceOnUse"/>
    <radialGradient inkscape:collect="always" xlink:href="#linearGradient967" id="radialGradient971-88" gradientUnits="userSpaceOnUse" gradientTransform="matrix(0.29388428,0,0,0.22748312,-25.393411,-15.017728)" cx="105.66889" cy="162.23166" fx="105.66889" fy="162.23166" r="45.37402"/>
    <radialGradient inkscape:collect="always" xlink:href="#linearGradient967" id="radialGradient961-14" cx="190.99977" cy="155.34175" fx="190.99977" fy="155.34175" r="45.37402" gradientTransform="matrix(0.39046043,0,0,0.30223853,-35.598505,-27.145424)" gradientUnits="userSpaceOnUse"/>
    <radialGradient inkscape:collect="always" xlink:href="#linearGradient967" id="radialGradient971-6" gradientUnits="userSpaceOnUse" gradientTransform="matrix(0.19592079,0,0,0.15165382,-48.94526,-42.295977)" cx="105.66889" cy="162.23166" fx="105.66889" fy="162.23166" r="45.37402"/>
    <radialGradient inkscape:collect="always" xlink:href="#linearGradient967" id="radialGradient961-6" cx="190.99977" cy="155.34175" fx="190.99977" fy="155.34175" r="45.37402" gradientTransform="matrix(0.26030422,0,0,0.20149024,-55.748586,-50.381025)" gradientUnits="userSpaceOnUse"/>
    <radialGradient inkscape:collect="always" xlink:href="#linearGradient967" id="radialGradient971-3" gradientUnits="userSpaceOnUse" gradientTransform="matrix(0.14693906,0,0,0.11373917,-68.738113,-63.590262)" cx="105.66889" cy="162.23166" fx="105.66889" fy="162.23166" r="45.37402"/>
    <radialGradient inkscape:collect="always" xlink:href="#linearGradient967" id="radialGradient961-63" cx="190.99977" cy="155.34175" fx="190.99977" fy="155.34175" r="45.37402" gradientTransform="matrix(0.19522612,0,0,0.1511161,-73.840552,-69.653983)" gradientUnits="userSpaceOnUse"/>
  </defs>
  <sodipodi:namedview pagecolor="#383c4a" bordercolor="#ffffff" borderopacity="0.62745098" objecttolerance="4" gridtolerance="10" guidetolerance="4" inkscape:pageopacity="0" inkscape:pageshadow="2" inkscape:window-width="640" inkscape:window-height="480" id="namedview20" showgrid="true" inkscape:zoom="16.386532" inkscape:cx="-45.388544" inkscape:cy="107.07527" inkscape:current-layer="layer6" inkscape:snap-smooth-nodes="false" showguides="true" borderlayer="true" inkscape:showpageshadow="false" inkscape:guide-bbox="true" guidecolor="#bd4fff" guideopacity="0.78431373" inkscape:snap-nodes="true" inkscape:lockguides="false" fit-margin-top="0" fit-margin-left="0" fit-margin-right="0" fit-margin-bottom="0" guidehicolor="#ff0101" guidehiopacity="0.78431373" inkscape:snap-page="true" inkscape:object-nodes="true" inkscape:snap-bbox="true" inkscape:snap-global="true" inkscape:snap-object-midpoints="false" inkscape:snap-bbox-edge-midpoints="false">
    <inkscape:grid type="xygrid" id="grid4171" empspacing="4" dotted="false" originx="2.7755576e-17" originy="0" spacingx="1" spacingy="1" color="#5a5a5a" opacity="0.23529412" empcolor="#5a5a5a" empopacity="0.47058824" visible="true"/>
    <inkscape:grid type="axonomgrid" id="grid4699" units="mm" empspacing="4" color="#5a5a5a" opacity="0.23529412" empcolor="#5a5a5a" empopacity="0.47058824" gridanglex="45" gridanglez="45" spacingy="3.7795276" visible="false" originx="1.3228346" originy="1.3228346"/>
    <sodipodi:guide position="48,0" orientation="1,0" id="guide4568" inkscape:locked="false" inkscape:label="" inkscape:color="rgb(189,79,255)"/>
    <sodipodi:guide position="111.99996,-3.9999999e-05" orientation="0,1" id="guide4570" inkscape:locked="false" inkscape:label="" inkscape:color="rgb(189,79,255)"/>
    <sodipodi:guide position="0,0" orientation="1,0" id="guide4572" inkscape:locked="false" inkscape:label="" inkscape:color="rgb(189,79,255)"/>
    <sodipodi:guide position="0,48" orientation="0,1" id="guide4574" inkscape:locked="false" inkscape:label="" inkscape:color="rgb(189,79,255)"/>
    <sodipodi:guide position="0,80" orientation="0,1" id="guide4576" inkscape:locked="false" inkscape:label="" inkscape:color="rgb(189,79,255)"/>
    <sodipodi:guide position="-32,48" orientation="1,0" id="guide4578" inkscape:locked="false" inkscape:label="" inkscape:color="rgb(189,79,255)"/>
    <sodipodi:guide position="-32,104" orientation="0,1" id="guide4580" inkscape:locked="false" inkscape:label="" inkscape:color="rgb(189,79,255)"/>
    <sodipodi:guide position="-56,80" orientation="1,0" id="guide4582" inkscape:locked="false" inkscape:label="" inkscape:color="rgb(189,79,255)"/>
    <sodipodi:guide position="48,-64" orientation="0,1" id="guide4584" inkscape:locked="false" inkscape:label="" inkscape:color="rgb(189,79,255)"/>
    <sodipodi:guide position="0,0" orientation="-0.70710678,0.70710678" id="guide4588" inkscape:locked="false" inkscape:label="" inkscape:color="rgb(189,79,255)"/>
    <sodipodi:guide position="-56,80" orientation="-0.70710678,0.70710678" id="guide4573" inkscape:locked="false" inkscape:label="" inkscape:color="rgb(189,79,255)"/>
    <sodipodi:guide position="-32,48" orientation="-0.70710678,0.70710678" id="guide4575" inkscape:locked="false" inkscape:label="" inkscape:color="rgb(189,79,255)"/>
    <sodipodi:guide position="48,-64" orientation="-0.70710678,0.70710678" id="guide4577" inkscape:locked="false" inkscape:label="" inkscape:color="rgb(189,79,255)"/>
    <sodipodi:guide position="47.999962,0" orientation="0.70710678,0.70710678" id="guide4697" inkscape:locked="false" inkscape:label="" inkscape:color="rgb(189,79,255)"/>
    <sodipodi:guide position="207.99995,-288" orientation="0,1" id="guide7833" inkscape:locked="false"/>
    <sodipodi:guide position="335.99994,-288" orientation="1,0" id="guide7835" inkscape:locked="false" inkscape:label="" inkscape:color="rgb(189,79,255)"/>
    <sodipodi:guide position="111.99996,-64" orientation="1,0" id="guide7915" inkscape:locked="false"/>
    <sodipodi:guide position="111.99996,-160" orientation="0,1" id="guide7917" inkscape:locked="false"/>
    <sodipodi:guide position="207.99996,-160" orientation="1,0" id="guide7919" inkscape:locked="false"/>
    <sodipodi:guide position="111.99996,-160" orientation="-0.70710678,0.70710678" id="guide7921" inkscape:locked="false" inkscape:label="" inkscape:color="rgb(189,79,255)"/>
    <sodipodi:guide position="207.99996,-288" orientation="-0.70710678,0.70710678" id="guide7923" inkscape:locked="false" inkscape:label="" inkscape:color="rgb(189,79,255)"/>
    <sodipodi:guide position="-72,104" orientation="1,0" id="guide7824" inkscape:locked="false"/>
    <sodipodi:guide position="-56,120" orientation="0,1" id="guide7826" inkscape:locked="false"/>
    <sodipodi:guide position="-72,104" orientation="-0.70710678,0.70710678" id="guide7828" inkscape:locked="false" inkscape:label="" inkscape:color="rgb(189,79,255)"/>
  </sodipodi:namedview>
  <g inkscape:groupmode="layer" id="layer4" inkscape:label="icon_128" style="display:inline" transform="translate(-207.99995,-208)">
    <g inkscape:groupmode="layer" id="layer11" inkscape:label="frame" style="display:none">
      <rect inkscape:label="frame_128" y="208" x="207.99995" height="128" width="128" id="frame_128" style="color:#000000;clip-rule:nonzero;display:inline;overflow:visible;visibility:visible;opacity:1;isolation:auto;mix-blend-mode:normal;color-interpolation:sRGB;color-interpolation-filters:linearRGB;solid-color:#000000;solid-opacity:1;vector-effect:none;fill:#000000;fill-opacity:1;fill-rule:nonzero;stroke:#ff24f7;stroke-width:0;stroke-linecap:square;stroke-linejoin:miter;stroke-miterlimit:4;stroke-dasharray:none;stroke-dashoffset:0;stroke-opacity:0.99481865;marker:none;marker-start:none;marker-mid:none;marker-end:none;paint-order:normal;color-rendering:auto;image-rendering:auto;shape-rendering:auto;text-rendering:auto;enable-background:accumulate"/>
      <text xml:space="preserve" style="font-size:38.46457672px;line-height:0%;font-family:sans-serif;letter-spacing:0px;word-spacing:0px;display:inline;opacity:1;fill:#ffffff;fill-opacity:1;stroke:none;stroke-width:0.07881754px;stroke-linecap:butt;stroke-linejoin:miter;stroke-opacity:1" x="236.17479" y="283.34512" id="txt_128" inkscape:label="txt_128">
        <tspan sodipodi:role="line" x="236.17479" y="283.34512" style="font-size:38.46457672px;line-height:0%;fill:#ffffff;fill-opacity:1;stroke:none;stroke-width:0.07881754px" id="tspan5069-6">128</tspan>
      </text>
      <text xml:space="preserve" style="font-size:7.43228436px;line-height:1000%;font-family:sans-serif;letter-spacing:0px;word-spacing:0px;display:inline;opacity:1;fill:#ffffff;fill-opacity:0.42156863;stroke:none;stroke-width:0.16398695px;stroke-linecap:butt;stroke-linejoin:miter;stroke-opacity:1" x="265.97781" y="330.1329" id="txt_scalable_64_512" inkscape:label="txt_scalable_64_512">
        <tspan sodipodi:role="line" x="265.97781" y="330.1329" style="font-size:8.08990479px;fill:#ffffff;fill-opacity:0.42156863;stroke:none;stroke-width:0.16398695px" id="tspan5049-1-6-6">Scalable:96-512</tspan>
      </text>
    </g>
    <g inkscape:groupmode="layer" id="layer12" inkscape:label="icon" style="display:inline">
      <path inkscape:connector-curvature="0" id="path908-3" d="m 273.14865,213.48499 a 34.683011,34.683011 0 0 0 -33.18507,24.63098 34.683011,34.683011 0 0 0 -28.49368,34.10983 34.683011,34.683011 0 0 0 14.01695,27.8027 c 4.6845,4.2655 10.89885,6.8812 17.76278,6.8812 h 2.90417 51.32969 2.04695 c 4.86465,0 9.39762,-1.32539 13.30261,-3.60295 A 34.683011,34.683011 0 0 0 332.1648,272.2258 34.683011,34.683011 0 0 0 306.53113,238.78617 34.683011,34.683011 0 0 0 273.14865,213.48499 Z" style="color:#000000;clip-rule:nonzero;display:block;overflow:visible;visibility:visible;opacity:1;isolation:auto;mix-blend-mode:normal;color-interpolation:sRGB;color-interpolation-filters:linearRGB;solid-color:#000000;solid-opacity:1;vector-effect:none;fill:none;fill-opacity:1;fill-rule:nonzero;stroke:#000000;stroke-width:1.93382001;stroke-linecap:round;stroke-linejoin:miter;stroke-miterlimit:4;stroke-dasharray:none;stroke-dashoffset:0;stroke-opacity:0.06593407;marker:none;marker-start:none;marker-mid:none;marker-end:none;paint-order:markers stroke fill;color-rendering:auto;image-rendering:auto;shape-rendering:auto;text-rendering:auto;enable-background:accumulate" inkscape:label="nube sombra"/>
      <path style="color:#000000;clip-rule:nonzero;display:inline;overflow:visible;visibility:visible;opacity:1;isolation:auto;mix-blend-mode:normal;color-interpolation:sRGB;color-interpolation-filters:linearRGB;solid-color:#000000;solid-opacity:1;vector-effect:none;fill:url(#linearGradient906-7);fill-opacity:1;fill-rule:nonzero;stroke:none;stroke-width:0.60318995;stroke-linecap:round;stroke-linejoin:miter;stroke-miterlimit:4;stroke-dasharray:none;stroke-dashoffset:0;stroke-opacity:1;marker:none;marker-start:none;marker-mid:none;marker-end:none;paint-order:markers stroke fill;color-rendering:auto;image-rendering:auto;shape-rendering:auto;text-rendering:auto;enable-background:accumulate" d="m 273.14865,212.15499 a 34.683011,34.683011 0 0 0 -33.18507,24.63098 34.683011,34.683011 0 0 0 -28.49368,34.10983 34.683011,34.683011 0 0 0 14.01695,27.8027 c 4.6845,4.2655 10.89885,6.8812 17.76278,6.8812 h 2.90417 51.32969 2.04695 c 4.86465,0 9.39762,-1.32539 13.30261,-3.60295 A 34.683011,34.683011 0 0 0 332.1648,270.8958 34.683011,34.683011 0 0 0 306.53113,237.45617 34.683011,34.683011 0 0 0 273.14865,212.15499 Z" id="circle886-60" inkscape:connector-curvature="0" inkscape:label="nube"/>
      <path style="color:#000000;clip-rule:nonzero;display:inline;overflow:visible;visibility:visible;opacity:1;isolation:auto;mix-blend-mode:normal;color-interpolation:sRGB;color-interpolation-filters:linearRGB;solid-color:#000000;solid-opacity:1;vector-effect:none;fill:#365a83;fill-opacity:0.21978024;fill-rule:nonzero;stroke:none;stroke-width:0.60318995;stroke-linecap:round;stroke-linejoin:miter;stroke-miterlimit:4;stroke-dasharray:none;stroke-dashoffset:0;stroke-opacity:1;marker:none;marker-start:none;marker-mid:none;marker-end:none;paint-order:markers stroke fill;color-rendering:auto;image-rendering:auto;shape-rendering:auto;text-rendering:auto;enable-background:accumulate" d="m 211.53483,269.49045 a 34.683011,34.683011 0 0 0 -0.0649,1.40535 34.683011,34.683011 0 0 0 14.01695,27.8027 c 4.68447,4.2655 10.89882,6.8812 17.76275,6.8812 h 2.90417 51.32969 2.04695 c 4.86465,0 9.39762,-1.32539 13.30261,-3.60295 a 34.683011,34.683011 0 0 0 19.33175,-31.08095 34.683011,34.683011 0 0 0 -0.0649,-1.26247 34.683011,34.683011 0 0 1 -19.2668,29.68342 c -3.90503,2.27756 -8.438,3.60295 -13.30265,3.60295 h -2.04695 -51.32969 -2.90417 c -6.86393,0 -13.07828,-2.6157 -17.76278,-6.8812 a 34.683011,34.683011 0 0 1 -13.95202,-26.54805 z" id="path952-6" inkscape:connector-curvature="0" inkscape:label="nube sombra"/>
      <path inkscape:connector-curvature="0" id="path959-2" d="m 273.14865,212.15499 a 34.683011,34.683011 0 0 0 -33.18507,24.63098 34.683011,34.683011 0 0 0 -28.49368,34.10983 34.683011,34.683011 0 0 0 14.01695,27.8027 c 4.6845,4.2655 10.89885,6.8812 17.76278,6.8812 h 2.90417 51.32969 2.04695 c 4.86465,0 9.39762,-1.32539 13.30261,-3.60295 A 34.683011,34.683011 0 0 0 332.1648,270.8958 34.683011,34.683011 0 0 0 306.53113,237.45617 34.683011,34.683011 0 0 0 273.14865,212.15499 Z" style="color:#000000;clip-rule:nonzero;display:inline;overflow:visible;visibility:visible;opacity:1;isolation:auto;mix-blend-mode:normal;color-interpolation:sRGB;color-interpolation-filters:linearRGB;solid-color:#000000;solid-opacity:1;vector-effect:none;fill:url(#radialGradient961-2);fill-opacity:1;fill-rule:nonzero;stroke:none;stroke-width:0.60318995;stroke-linecap:round;stroke-linejoin:miter;stroke-miterlimit:4;stroke-dasharray:none;stroke-dashoffset:0;stroke-opacity:1;marker:none;marker-start:none;marker-mid:none;marker-end:none;paint-order:markers stroke fill;color-rendering:auto;image-rendering:auto;shape-rendering:auto;text-rendering:auto;enable-background:accumulate" inkscape:label="nube brillo"/>
      <path inkscape:label="nube brillo" style="color:#000000;clip-rule:nonzero;display:inline;overflow:visible;visibility:visible;opacity:1;isolation:auto;mix-blend-mode:normal;color-interpolation:sRGB;color-interpolation-filters:linearRGB;solid-color:#000000;solid-opacity:1;vector-effect:none;fill:url(#radialGradient971-2);fill-opacity:1;fill-rule:nonzero;stroke:none;stroke-width:0.60318995;stroke-linecap:round;stroke-linejoin:miter;stroke-miterlimit:4;stroke-dasharray:none;stroke-dashoffset:0;stroke-opacity:1;marker:none;marker-start:none;marker-mid:none;marker-end:none;paint-order:markers stroke fill;color-rendering:auto;image-rendering:auto;shape-rendering:auto;text-rendering:auto;enable-background:accumulate" d="m 273.14865,212.15499 a 34.683011,34.683011 0 0 0 -33.18507,24.63098 34.683011,34.683011 0 0 0 -28.49368,34.10983 34.683011,34.683011 0 0 0 14.01695,27.8027 c 4.6845,4.2655 10.89885,6.8812 17.76278,6.8812 h 2.90417 51.32969 2.04695 c 4.86465,0 9.39762,-1.32539 13.30261,-3.60295 A 34.683011,34.683011 0 0 0 332.1648,270.8958 34.683011,34.683011 0 0 0 306.53113,237.45617 34.683011,34.683011 0 0 0 273.14865,212.15499 Z" id="path969-6" inkscape:connector-curvature="0"/>
      <path inkscape:connector-curvature="0" id="path913-1" d="m 272.99773,236.5068 c -2.10332,-9.9e-4 -4.25293,0.94979 -5.83531,2.84887 l -36.05334,47.82223 c -1.32329,2.70337 -0.27777,5.40799 3.50219,5.40799 h 26.28847 l 8.64795,35.24243 c 0.12276,3.32471 1.34812,6.01707 3.02293,6.01707 1.67483,0 2.90012,-2.69236 3.02293,-6.01707 l 8.65244,-35.24243 h 26.47016 c 3.76018,0 3.75809,-5.11618 2.79001,-6.39528 -11.64575,-15.6096 -23.29257,-31.21552 -34.93834,-46.82511 -1.41055,-1.90286 -3.46677,-2.8578 -5.57009,-2.8587 z" style="color:#000000;clip-rule:nonzero;display:inline;overflow:visible;visibility:visible;opacity:1;isolation:auto;mix-blend-mode:normal;color-interpolation:sRGB;color-interpolation-filters:linearRGB;solid-color:#000000;solid-opacity:1;vector-effect:none;fill:#000000;fill-opacity:0.17582421;fill-rule:nonzero;stroke:none;stroke-width:0.56608248;stroke-linecap:round;stroke-linejoin:miter;stroke-miterlimit:4;stroke-dasharray:none;stroke-dashoffset:0;stroke-opacity:1;marker:none;marker-start:none;marker-mid:none;marker-end:none;paint-order:markers stroke fill;color-rendering:auto;image-rendering:auto;shape-rendering:auto;text-rendering:auto;enable-background:accumulate" sodipodi:nodetypes="cccsccsccsccc" inkscape:label="flecha sombra"/>
      <path style="color:#000000;clip-rule:nonzero;display:inline;overflow:visible;visibility:visible;opacity:1;isolation:auto;mix-blend-mode:normal;color-interpolation:sRGB;color-interpolation-filters:linearRGB;solid-color:#000000;solid-opacity:1;vector-effect:none;fill:url(#linearGradient1101-3);fill-opacity:1;fill-rule:nonzero;stroke:none;stroke-width:0.56608248;stroke-linecap:round;stroke-linejoin:miter;stroke-miterlimit:4;stroke-dasharray:none;stroke-dashoffset:0;stroke-opacity:1;marker:none;marker-start:none;marker-mid:none;marker-end:none;paint-order:markers stroke fill;color-rendering:auto;image-rendering:auto;shape-rendering:auto;text-rendering:auto;enable-background:accumulate" d="m 272.99773,231.0997 c -2.10332,-9.5e-4 -4.25293,0.94983 -5.83531,2.84887 l -36.05334,47.82224 c -1.32329,2.70337 -0.27777,5.40799 3.50219,5.40799 h 26.28847 l 8.64795,35.24242 c 0.12276,3.32474 1.34812,6.01707 3.02293,6.01707 1.67483,0 2.90012,-2.69233 3.02293,-6.01707 l 8.65244,-35.24242 h 26.47016 c 3.76018,0 3.75809,-5.11618 2.79001,-6.39529 -11.64575,-15.6096 -23.29257,-31.21549 -34.93834,-46.8251 -1.41055,-1.90286 -3.46677,-2.85778 -5.57009,-2.85871 z" id="rect892-8" inkscape:connector-curvature="0" sodipodi:nodetypes="cccsccsccsccc" inkscape:label="flecha"/>
      <path style="color:#000000;clip-rule:nonzero;display:inline;overflow:visible;visibility:visible;opacity:1;isolation:auto;mix-blend-mode:normal;color-interpolation:sRGB;color-interpolation-filters:linearRGB;solid-color:#000000;solid-opacity:1;vector-effect:none;fill:#5d0a0a;fill-opacity:0.43406593;fill-rule:nonzero;stroke:none;stroke-width:0.56608248;stroke-linecap:round;stroke-linejoin:miter;stroke-miterlimit:4;stroke-dasharray:none;stroke-dashoffset:0;stroke-opacity:1;marker:none;marker-start:none;marker-mid:none;marker-end:none;paint-order:markers stroke fill;color-rendering:auto;image-rendering:auto;shape-rendering:auto;text-rendering:auto;enable-background:accumulate" d="m 313.95958,282.09305 c -0.23739,1.6361 -1.13994,3.24145 -3.24505,3.24145 h -26.46872 l -8.65167,35.23918 c -0.12276,3.32473 -1.34846,6.01776 -3.02328,6.01776 -1.67481,0 -2.90044,-2.69303 -3.02326,-6.01776 l -8.64806,-35.23918 h -26.28846 c -2.27932,0 -3.54833,-0.99168 -3.91929,-2.36527 -0.51623,2.24819 0.70436,4.21134 3.91929,4.21134 h 26.28846 l 8.64806,35.23917 c 0.12289,3.32473 1.34845,6.01779 3.02326,6.01779 1.67482,0 2.90047,-2.69306 3.02328,-6.01779 l 8.65167,-35.23917 h 26.46872 c 2.94079,0 3.56907,-3.11176 3.24505,-5.08752 z" id="path973-7" inkscape:connector-curvature="0" inkscape:label="flecha sombtop" sodipodi:nodetypes="csccsccscsccsccsc"/>
      <path style="color:#000000;clip-rule:nonzero;display:inline;overflow:visible;visibility:visible;opacity:1;isolation:auto;mix-blend-mode:normal;color-interpolation:sRGB;color-interpolation-filters:linearRGB;solid-color:#000000;solid-opacity:1;vector-effect:none;fill:#ff0000;fill-opacity:0.36263739;fill-rule:nonzero;stroke:none;stroke-width:0.56608248;stroke-linecap:round;stroke-linejoin:miter;stroke-miterlimit:4;stroke-dasharray:none;stroke-dashoffset:0;stroke-opacity:1;marker:none;marker-start:none;marker-mid:none;marker-end:none;paint-order:markers stroke fill;color-rendering:auto;image-rendering:auto;shape-rendering:auto;text-rendering:auto;enable-background:accumulate" d="m 272.99792,231.1014 c -2.10332,-9.3e-4 -4.25201,0.95009 -5.83441,2.84917 l -36.05355,47.82126 c -0.54231,1.10788 -0.66201,2.20336 -0.38347,3.12542 0.0908,-0.33533 0.21667,-0.67363 0.38347,-1.01433 l 36.05355,-47.82126 c 1.5824,-1.89908 3.73109,-2.85011 5.83441,-2.84915 2.10331,9.3e-4 4.15994,0.95454 5.57047,2.8574 11.64576,15.6096 23.29044,31.21386 34.93619,46.82346 0.19654,0.25968 0.33941,0.70292 0.43293,1.20395 0.2317,-1.33666 0.012,-2.72865 -0.43293,-3.31506 -11.64575,-15.6096 -23.29043,-31.21385 -34.93619,-46.82346 -1.41053,-1.90286 -3.46716,-2.85647 -5.57047,-2.8574 z" id="path1100-92" inkscape:connector-curvature="0" sodipodi:nodetypes="ccccccccccccc" inkscape:label="flecha brillo"/>
      <path style="display:inline;fill:#000000;fill-opacity:0.2857143;stroke-width:0.20651458" inkscape:connector-curvature="0" id="path1103-0" d="m 285.73555,261.55265 h -18.0092 l 0.93967,-4.39704 h 10.97641 l 1.007,-4.73283 h -15.77674 l -4.96799,23.42954 h 4.76644 l 2.18165,-10.23801 h 11.43284 l -9.93437,9.83509 1.7455,3.08798 c 0.80542,-0.53692 2.11476,-0.60425 3.02096,-0.60425 1.61145,0 3.18906,0.53732 4.83334,0.53732 1.50759,0 3.0513,-0.10081 5.56917,-1.30926 l 0.87976,-4.12859 c -1.71203,0.70464 -4.2456,1.37621 -6.44893,1.37621 -0.90579,0 -1.74508,-0.20137 -2.61783,-0.33559 l 9.62993,-9.3653 0.77239,-3.15547 z" inkscape:label="logo sombra"/>
      <path d="m 285.73555,260.17956 h -18.0092 l 0.93967,-4.39703 h 10.97641 l 1.007,-4.73283 h -15.77674 l -4.96799,23.42953 h 4.76644 l 2.18165,-10.23801 h 11.43284 l -9.93437,9.8351 1.7455,3.08798 c 0.80542,-0.53693 2.11476,-0.60426 3.02096,-0.60426 1.61145,0 3.18906,0.53733 4.83334,0.53733 1.50759,0 3.0513,-0.10081 5.56917,-1.30927 l 0.87976,-4.12859 c -1.71203,0.70462 -4.2456,1.3762 -6.44893,1.3762 -0.90579,0 -1.74508,-0.20136 -2.61783,-0.33557 l 9.62993,-9.3653 0.77239,-3.15548 z" id="path9-2" inkscape:connector-curvature="0" style="display:inline;fill:#ffffff;stroke-width:0.20651458" inkscape:label="logo"/>
    </g>
  </g>
</svg>