<?xml version="1.0" encoding="UTF-8" standalone="yes"?>
<svg xmlns:dc="http://purl.org/dc/elements/1.1/" xmlns:cc="http://creativecommons.org/ns#" xmlns:rdf="http://www.w3.org/1999/02/22-rdf-syntax-ns#" xmlns:svg="http://www.w3.org/2000/svg" xmlns="http://www.w3.org/2000/svg" xmlns:xlink="http://www.w3.org/1999/xlink" xmlns:sodipodi="http://sodipodi.sourceforge.net/DTD/sodipodi-0.dtd" xmlns:inkscape="http://www.inkscape.org/namespaces/inkscape" height="128" viewBox="0 0 128 128" width="128" id="svg2" version="1.1" inkscape:version="0.92.1 r" sodipodi:docname="flash-player-properties.svg" enable-background="new" folder="128">
  <title id="title4675">Template icons dark</title>
  <metadata id="metadata24">
    <rdf:RDF>
      <cc:Work rdf:about="">
        <dc:format>image/svg+xml</dc:format>
        <dc:type rdf:resource="http://purl.org/dc/dcmitype/StillImage"/>
        <dc:title>Template icons dark</dc:title>
        <dc:date>17/05/13</dc:date>
        <dc:creator>
          <cc:Agent>
            <dc:title>wfpaisa</dc:title>
          </cc:Agent>
        </dc:creator>
        <dc:rights>
          <cc:Agent>
            <dc:title>License: GPLv3</dc:title>
          </cc:Agent>
        </dc:rights>
        <dc:language>es-en</dc:language>
        <dc:subject>
          <rdf:Bag>
            <rdf:li>plane-icon-theme</rdf:li>
          </rdf:Bag>
        </dc:subject>
        <dc:description>Template for create set icons</dc:description>
        <cc:license rdf:resource="https://www.gnu.org/licenses/gpl-3.0.en.html"/>
      </cc:Work>
    </rdf:RDF>
  </metadata>
  <defs id="defs22">
    <linearGradient inkscape:collect="always" id="linearGradient7769">
      <stop style="stop-color:#ffffff;stop-opacity:0.171875" offset="0" id="stop7765"/>
      <stop style="stop-color:#000000;stop-opacity:0;" offset="1" id="stop7767"/>
    </linearGradient>
    <linearGradient id="linearGradient7744" inkscape:collect="always">
      <stop id="stop7740" offset="0" style="stop-color:#730216;stop-opacity:0.78125"/>
      <stop id="stop7742" offset="1" style="stop-color:#d9042a;stop-opacity:0.02745098"/>
    </linearGradient>
    <linearGradient inkscape:collect="always" id="linearGradient7748">
      <stop style="stop-color:#d40e0e;stop-opacity:1" offset="0" id="stop7744"/>
      <stop style="stop-color:#910404;stop-opacity:0.96470588" offset="1" id="stop7746"/>
    </linearGradient>
    <linearGradient inkscape:collect="always" xlink:href="#linearGradient7748" id="linearGradient7750" x1="160.85533" y1="121.50957" x2="160.85533" y2="200.85536" gradientUnits="userSpaceOnUse"/>
    <linearGradient inkscape:collect="always" xlink:href="#linearGradient7744" id="linearGradient7738" gradientUnits="userSpaceOnUse" x1="198.31935" y1="122.53598" x2="175.15457" y2="144.16115" gradientTransform="translate(1.9073486e-5,-319.99998)"/>
    <linearGradient inkscape:collect="always" xlink:href="#linearGradient7769" id="linearGradient7771" x1="160" y1="197.92126" x2="160" y2="120" gradientUnits="userSpaceOnUse"/>
    <linearGradient gradientTransform="matrix(1.3282359,0,0,1.3282359,59.610776,58.612616)" inkscape:collect="always" xlink:href="#linearGradient7769" id="linearGradient7771-3" x1="160" y1="197.92126" x2="160" y2="120" gradientUnits="userSpaceOnUse"/>
    <linearGradient inkscape:collect="always" xlink:href="#linearGradient7744" id="linearGradient7738-5" gradientUnits="userSpaceOnUse" x1="198.31935" y1="122.53598" x2="175.15457" y2="144.16115" gradientTransform="matrix(1.3282359,0,0,1.3282359,58.612642,-484.64619)"/>
    <linearGradient gradientTransform="matrix(1.3282359,0,0,1.3282359,59.610776,58.612616)" inkscape:collect="always" xlink:href="#linearGradient7748" id="linearGradient7750-6" x1="160.85533" y1="121.50957" x2="160.85533" y2="200.85536" gradientUnits="userSpaceOnUse"/>
    <linearGradient gradientTransform="matrix(0.67421035,0,0,0.67421035,-28.926023,-28.914299)" inkscape:collect="always" xlink:href="#linearGradient7769" id="linearGradient7771-6" x1="160" y1="197.92126" x2="160" y2="120" gradientUnits="userSpaceOnUse"/>
    <linearGradient inkscape:collect="always" xlink:href="#linearGradient7744" id="linearGradient7738-7" gradientUnits="userSpaceOnUse" x1="198.31935" y1="122.53598" x2="175.15457" y2="144.16115" gradientTransform="matrix(0.67421035,0,0,0.67421035,-28.914286,-186.82128)"/>
    <linearGradient gradientTransform="matrix(0.67421035,0,0,0.67421035,-28.926023,-28.914299)" inkscape:collect="always" xlink:href="#linearGradient7748" id="linearGradient7750-0" x1="160.85533" y1="121.50957" x2="160.85533" y2="200.85536" gradientUnits="userSpaceOnUse"/>
    <linearGradient gradientTransform="matrix(0.5,0,0,0.5,-56.999671,-57.000623)" inkscape:collect="always" xlink:href="#linearGradient7769" id="linearGradient7771-1" x1="160" y1="197.92126" x2="160" y2="120" gradientUnits="userSpaceOnUse"/>
    <linearGradient inkscape:collect="always" xlink:href="#linearGradient7744" id="linearGradient7738-3" gradientUnits="userSpaceOnUse" x1="198.31935" y1="122.53598" x2="175.15457" y2="144.16115" gradientTransform="matrix(0.5,0,0,0.5,-57.000613,-103.00032)"/>
    <linearGradient gradientTransform="matrix(0.5,0,0,0.5,-56.999671,-57.000623)" inkscape:collect="always" xlink:href="#linearGradient7748" id="linearGradient7750-4" x1="160.85533" y1="121.50957" x2="160.85533" y2="200.85536" gradientUnits="userSpaceOnUse"/>
    <linearGradient gradientTransform="matrix(0.36363218,0,0,0.36363218,-74.908599,-74.908229)" inkscape:collect="always" xlink:href="#linearGradient7769" id="linearGradient7771-5" x1="160" y1="197.92126" x2="160" y2="120" gradientUnits="userSpaceOnUse"/>
    <linearGradient inkscape:collect="always" xlink:href="#linearGradient7744" id="linearGradient7738-76" gradientUnits="userSpaceOnUse" x1="198.31935" y1="122.53598" x2="175.15457" y2="144.16115" gradientTransform="matrix(0.36363218,0,0,0.36363218,-74.908221,-41.453692)"/>
    <linearGradient gradientTransform="matrix(0.36363218,0,0,0.36363218,-74.908599,-74.908229)" inkscape:collect="always" xlink:href="#linearGradient7748" id="linearGradient7750-9" x1="160.85533" y1="121.50957" x2="160.85533" y2="200.85536" gradientUnits="userSpaceOnUse"/>
    <linearGradient gradientTransform="matrix(0.275,0,0,0.275,-87.999989,-88.000001)" inkscape:collect="always" xlink:href="#linearGradient7748" id="linearGradient7750-9-8" x1="160.85533" y1="121.50957" x2="160.85533" y2="200.85536" gradientUnits="userSpaceOnUse"/>
    <linearGradient gradientTransform="matrix(0.17499999,0,0,0.17499999,-91.999991,-91.999994)" inkscape:collect="always" xlink:href="#linearGradient7748" id="linearGradient7750-9-8-9" x1="160.85533" y1="199.99998" x2="160.85533" y2="211.42854" gradientUnits="userSpaceOnUse"/>
    <symbol id="icon-cog" viewBox="0 0 24 28">
      <title id="title12501">cog</title>
      <path d="M16 14c0-2.203-1.797-4-4-4s-4 1.797-4 4 1.797 4 4 4 4-1.797 4-4zM24 12.297v3.469c0 0.234-0.187 0.516-0.438 0.562l-2.891 0.438c-0.172 0.5-0.359 0.969-0.609 1.422 0.531 0.766 1.094 1.453 1.672 2.156 0.094 0.109 0.156 0.25 0.156 0.391s-0.047 0.25-0.141 0.359c-0.375 0.5-2.484 2.797-3.016 2.797-0.141 0-0.281-0.063-0.406-0.141l-2.156-1.687c-0.453 0.234-0.938 0.438-1.422 0.594-0.109 0.953-0.203 1.969-0.453 2.906-0.063 0.25-0.281 0.438-0.562 0.438h-3.469c-0.281 0-0.531-0.203-0.562-0.469l-0.438-2.875c-0.484-0.156-0.953-0.344-1.406-0.578l-2.203 1.672c-0.109 0.094-0.25 0.141-0.391 0.141s-0.281-0.063-0.391-0.172c-0.828-0.75-1.922-1.719-2.578-2.625-0.078-0.109-0.109-0.234-0.109-0.359 0-0.141 0.047-0.25 0.125-0.359 0.531-0.719 1.109-1.406 1.641-2.141-0.266-0.5-0.484-1.016-0.641-1.547l-2.859-0.422c-0.266-0.047-0.453-0.297-0.453-0.562v-3.469c0-0.234 0.187-0.516 0.422-0.562l2.906-0.438c0.156-0.5 0.359-0.969 0.609-1.437-0.531-0.75-1.094-1.453-1.672-2.156-0.094-0.109-0.156-0.234-0.156-0.375s0.063-0.25 0.141-0.359c0.375-0.516 2.484-2.797 3.016-2.797 0.141 0 0.281 0.063 0.406 0.156l2.156 1.672c0.453-0.234 0.938-0.438 1.422-0.594 0.109-0.953 0.203-1.969 0.453-2.906 0.063-0.25 0.281-0.438 0.562-0.438h3.469c0.281 0 0.531 0.203 0.562 0.469l0.438 2.875c0.484 0.156 0.953 0.344 1.406 0.578l2.219-1.672c0.094-0.094 0.234-0.141 0.375-0.141s0.281 0.063 0.391 0.156c0.828 0.766 1.922 1.734 2.578 2.656 0.078 0.094 0.109 0.219 0.109 0.344 0 0.141-0.047 0.25-0.125 0.359-0.531 0.719-1.109 1.406-1.641 2.141 0.266 0.5 0.484 1.016 0.641 1.531l2.859 0.438c0.266 0.047 0.453 0.297 0.453 0.562z" id="path12503"/>
    </symbol>
  </defs>
  <sodipodi:namedview pagecolor="#383c4a" bordercolor="#ffffff" borderopacity="0.62745098" objecttolerance="4" gridtolerance="10" guidetolerance="4" inkscape:pageopacity="0" inkscape:pageshadow="2" inkscape:window-width="640" inkscape:window-height="480" id="namedview20" showgrid="true" inkscape:zoom="11.621654" inkscape:cx="-73.27909" inkscape:cy="95.331744" inkscape:current-layer="layer6" inkscape:snap-smooth-nodes="false" showguides="true" borderlayer="true" inkscape:showpageshadow="false" inkscape:guide-bbox="true" guidecolor="#bd4fff" guideopacity="0.78431373" inkscape:snap-nodes="true" inkscape:lockguides="false" fit-margin-top="0" fit-margin-left="0" fit-margin-right="0" fit-margin-bottom="0" guidehicolor="#ff0101" guidehiopacity="0.78431373" inkscape:snap-page="true" inkscape:object-nodes="true" inkscape:snap-bbox="true" inkscape:snap-global="true" inkscape:snap-object-midpoints="false" inkscape:snap-bbox-edge-midpoints="false" inkscape:bbox-nodes="true">
    <inkscape:grid type="xygrid" id="grid4171" empspacing="4" dotted="false" originx="2.7755576e-17" originy="0" spacingx="1" spacingy="1" color="#5a5a5a" opacity="0.23529412" empcolor="#5a5a5a" empopacity="0.47058824" visible="true"/>
    <inkscape:grid type="axonomgrid" id="grid4699" units="mm" empspacing="4" color="#5a5a5a" opacity="0.23529412" empcolor="#5a5a5a" empopacity="0.47058824" gridanglex="45" gridanglez="45" spacingy="3.7795276" visible="false" originx="1.3228346" originy="1.3228346"/>
    <sodipodi:guide position="48,0" orientation="1,0" id="guide4568" inkscape:locked="false" inkscape:label="" inkscape:color="rgb(189,79,255)"/>
    <sodipodi:guide position="111.99996,-3.9999999e-05" orientation="0,1" id="guide4570" inkscape:locked="false" inkscape:label="" inkscape:color="rgb(189,79,255)"/>
    <sodipodi:guide position="0,0" orientation="1,0" id="guide4572" inkscape:locked="false" inkscape:label="" inkscape:color="rgb(189,79,255)"/>
    <sodipodi:guide position="0,48" orientation="0,1" id="guide4574" inkscape:locked="false" inkscape:label="" inkscape:color="rgb(189,79,255)"/>
    <sodipodi:guide position="0,80" orientation="0,1" id="guide4576" inkscape:locked="false" inkscape:label="" inkscape:color="rgb(189,79,255)"/>
    <sodipodi:guide position="-32,48" orientation="1,0" id="guide4578" inkscape:locked="false" inkscape:label="" inkscape:color="rgb(189,79,255)"/>
    <sodipodi:guide position="-32,104" orientation="0,1" id="guide4580" inkscape:locked="false" inkscape:label="" inkscape:color="rgb(189,79,255)"/>
    <sodipodi:guide position="-56,80" orientation="1,0" id="guide4582" inkscape:locked="false" inkscape:label="" inkscape:color="rgb(189,79,255)"/>
    <sodipodi:guide position="48,-64" orientation="0,1" id="guide4584" inkscape:locked="false" inkscape:label="" inkscape:color="rgb(189,79,255)"/>
    <sodipodi:guide position="0,0" orientation="-0.70710678,0.70710678" id="guide4588" inkscape:locked="false" inkscape:label="" inkscape:color="rgb(189,79,255)"/>
    <sodipodi:guide position="-56,80" orientation="-0.70710678,0.70710678" id="guide4573" inkscape:locked="false" inkscape:label="" inkscape:color="rgb(189,79,255)"/>
    <sodipodi:guide position="-32,48" orientation="-0.70710678,0.70710678" id="guide4575" inkscape:locked="false" inkscape:label="" inkscape:color="rgb(189,79,255)"/>
    <sodipodi:guide position="48,-64" orientation="-0.70710678,0.70710678" id="guide4577" inkscape:locked="false" inkscape:label="" inkscape:color="rgb(189,79,255)"/>
    <sodipodi:guide position="47.999962,0" orientation="0.70710678,0.70710678" id="guide4697" inkscape:locked="false" inkscape:label="" inkscape:color="rgb(189,79,255)"/>
    <sodipodi:guide position="207.99995,-288" orientation="0,1" id="guide7833" inkscape:locked="false"/>
    <sodipodi:guide position="335.99994,-288" orientation="1,0" id="guide7835" inkscape:locked="false" inkscape:label="" inkscape:color="rgb(189,79,255)"/>
    <sodipodi:guide position="111.99996,-64" orientation="1,0" id="guide7915" inkscape:locked="false"/>
    <sodipodi:guide position="111.99996,-160" orientation="0,1" id="guide7917" inkscape:locked="false"/>
    <sodipodi:guide position="207.99996,-160" orientation="1,0" id="guide7919" inkscape:locked="false"/>
    <sodipodi:guide position="111.99996,-160" orientation="-0.70710678,0.70710678" id="guide7921" inkscape:locked="false" inkscape:label="" inkscape:color="rgb(189,79,255)"/>
    <sodipodi:guide position="207.99996,-288" orientation="-0.70710678,0.70710678" id="guide7923" inkscape:locked="false" inkscape:label="" inkscape:color="rgb(189,79,255)"/>
    <sodipodi:guide position="-72,104" orientation="1,0" id="guide7824" inkscape:locked="false"/>
    <sodipodi:guide position="-56,120" orientation="0,1" id="guide7826" inkscape:locked="false"/>
    <sodipodi:guide position="-72,104" orientation="-0.70710678,0.70710678" id="guide7828" inkscape:locked="false" inkscape:label="" inkscape:color="rgb(189,79,255)"/>
  </sodipodi:namedview>
  <g inkscape:groupmode="layer" id="layer4" inkscape:label="icon_128" style="display:inline" transform="translate(-207.99995,-208)">
    <g inkscape:groupmode="layer" id="layer11" inkscape:label="frame" style="display:none">
      <rect inkscape:label="frame_128" y="208" x="207.99995" height="128" width="128" id="frame_128" style="color:#000000;clip-rule:nonzero;display:inline;overflow:visible;visibility:visible;opacity:1;isolation:auto;mix-blend-mode:normal;color-interpolation:sRGB;color-interpolation-filters:linearRGB;solid-color:#000000;solid-opacity:1;vector-effect:none;fill:#000000;fill-opacity:1;fill-rule:nonzero;stroke:#ff24f7;stroke-width:0;stroke-linecap:square;stroke-linejoin:miter;stroke-miterlimit:4;stroke-dasharray:none;stroke-dashoffset:0;stroke-opacity:0.99481865;marker:none;marker-start:none;marker-mid:none;marker-end:none;paint-order:normal;color-rendering:auto;image-rendering:auto;shape-rendering:auto;text-rendering:auto;enable-background:accumulate"/>
      <text xml:space="preserve" style="font-size:38.46457672px;line-height:0%;font-family:sans-serif;letter-spacing:0px;word-spacing:0px;display:inline;opacity:1;fill:#ffffff;fill-opacity:1;stroke:none;stroke-width:0.07881754px;stroke-linecap:butt;stroke-linejoin:miter;stroke-opacity:1" x="236.17479" y="283.34512" id="txt_128" inkscape:label="txt_128">
        <tspan sodipodi:role="line" x="236.17479" y="283.34512" style="font-size:38.46457672px;line-height:0%;fill:#ffffff;fill-opacity:1;stroke:none;stroke-width:0.07881754px" id="tspan5069-6">128</tspan>
      </text>
      <text xml:space="preserve" style="font-size:7.43228436px;line-height:1000%;font-family:sans-serif;letter-spacing:0px;word-spacing:0px;display:inline;opacity:1;fill:#ffffff;fill-opacity:0.42156863;stroke:none;stroke-width:0.16398695px;stroke-linecap:butt;stroke-linejoin:miter;stroke-opacity:1" x="265.97781" y="330.1329" id="txt_scalable_64_512" inkscape:label="txt_scalable_64_512">
        <tspan sodipodi:role="line" x="265.97781" y="330.1329" style="font-size:8.08990479px;fill:#ffffff;fill-opacity:0.42156863;stroke:none;stroke-width:0.16398695px" id="tspan5049-1-6-6">Scalable:96-512</tspan>
      </text>
    </g>
    <g inkscape:groupmode="layer" id="layer12" inkscape:label="icon" style="display:inline">
      <rect inkscape:label="sombra" style="color:#000000;clip-rule:nonzero;display:block;overflow:visible;visibility:visible;opacity:1;isolation:auto;mix-blend-mode:normal;color-interpolation:sRGB;color-interpolation-filters:linearRGB;solid-color:#000000;solid-opacity:1;vector-effect:none;fill:#000000;fill-opacity:0.07843137;fill-rule:nonzero;stroke:none;stroke-width:1.37771964px;stroke-linecap:butt;stroke-linejoin:miter;stroke-miterlimit:4;stroke-dasharray:none;stroke-dashoffset:0;stroke-opacity:1;marker:none;marker-start:none;marker-mid:none;marker-end:none;paint-order:fill markers stroke;color-rendering:auto;image-rendering:auto;shape-rendering:auto;text-rendering:auto;enable-background:accumulate" id="rect7759-1" width="110.24358" height="111.57182" x="216.34261" y="215.34442"/>
      <rect y="216.67265" x="217.67078" height="108.91534" width="108.9154" id="rect29472-2" style="color:#000000;clip-rule:nonzero;display:block;overflow:visible;visibility:visible;opacity:1;isolation:auto;mix-blend-mode:normal;color-interpolation:sRGB;color-interpolation-filters:linearRGB;solid-color:#000000;solid-opacity:1;vector-effect:none;fill:#000000;fill-opacity:0.07843137;fill-rule:nonzero;stroke:none;stroke-width:1.36144197px;stroke-linecap:butt;stroke-linejoin:miter;stroke-miterlimit:4;stroke-dasharray:none;stroke-dashoffset:0;stroke-opacity:1;marker:none;marker-start:none;marker-mid:none;marker-end:none;paint-order:fill markers stroke;color-rendering:auto;image-rendering:auto;shape-rendering:auto;text-rendering:auto;enable-background:accumulate" inkscape:label="sombra"/>
      <rect style="color:#000000;clip-rule:nonzero;display:inline;overflow:visible;visibility:visible;opacity:1;isolation:auto;mix-blend-mode:normal;color-interpolation:sRGB;color-interpolation-filters:linearRGB;solid-color:#000000;solid-opacity:1;vector-effect:none;fill:url(#linearGradient7750-6);fill-opacity:1;fill-rule:nonzero;stroke:none;stroke-width:1.32823598px;stroke-linecap:butt;stroke-linejoin:miter;stroke-miterlimit:4;stroke-dasharray:none;stroke-dashoffset:0;stroke-opacity:1;marker:none;marker-start:none;marker-mid:none;marker-end:none;paint-order:fill markers stroke;color-rendering:auto;image-rendering:auto;shape-rendering:auto;text-rendering:auto;enable-background:accumulate" id="rect7742-7" width="106.25892" height="106.25887" x="218.99902" y="218.0009" inkscape:label="base"/>
      <rect y="-325.25821" x="218.00089" height="106.25887" width="106.25892" id="rect7736-0" style="color:#000000;clip-rule:nonzero;display:block;overflow:visible;visibility:visible;opacity:1;isolation:auto;mix-blend-mode:normal;color-interpolation:sRGB;color-interpolation-filters:linearRGB;solid-color:#000000;solid-opacity:1;vector-effect:none;fill:url(#linearGradient7738-5);fill-opacity:1;fill-rule:nonzero;stroke:none;stroke-width:1.32823598px;stroke-linecap:butt;stroke-linejoin:miter;stroke-miterlimit:4;stroke-dasharray:none;stroke-dashoffset:0;stroke-opacity:1;marker:none;marker-start:none;marker-mid:none;marker-end:none;paint-order:fill markers stroke;color-rendering:auto;image-rendering:auto;shape-rendering:auto;text-rendering:auto;enable-background:accumulate" inkscape:label="brillo" transform="rotate(90)"/>
      <path sodipodi:nodetypes="cccccccccc" inkscape:connector-curvature="0" id="path29510-9" d="m 253.53317,284.41263 v 9.29765 c 7.14075,0.59524 16.15467,-2.13911 21.25178,-17.26707 h 10.62589 v -9.29765 h -6.64118 c 3.12112,-3.85242 7.49169,-7.03455 11.95412,-7.96942 v -9.29765 c -16.22537,1.61834 -18.30352,10.83309 -22.58001,18.59531 -5.87177,10.8896 -9.37007,13.01752 -14.6106,15.93883 z" style="display:inline;fill:#000000;fill-opacity:0.15104167;fill-rule:evenodd;stroke:none;stroke-width:1.32823598px;stroke-linecap:butt;stroke-linejoin:miter;stroke-opacity:1"/>
      <path style="display:inline;fill:#fefefe;fill-opacity:1;fill-rule:evenodd;stroke:none;stroke-width:1.32823598px;stroke-linecap:butt;stroke-linejoin:miter;stroke-opacity:1" d="m 253.53317,283.08439 v 9.29765 c 7.14075,0.59524 16.15467,-2.13911 21.25178,-17.26706 h 10.62589 v -9.29766 h -6.64118 c 3.12112,-3.85242 7.49169,-7.03454 11.95412,-7.96941 v -9.29765 c -16.22537,1.61834 -18.30352,10.83308 -22.58001,18.5953 -5.87177,10.88961 -9.37007,13.01752 -14.6106,15.93883 z" id="path7736-3" inkscape:connector-curvature="0" sodipodi:nodetypes="cccccccccc"/>
      <path style="font-style:normal;font-variant:normal;font-weight:bold;font-stretch:normal;font-size:medium;line-height:1000%;font-family:sans-serif;-inkscape-font-specification:'sans-serif Bold';letter-spacing:0px;word-spacing:0px;display:inline;fill:#ffffff;fill-opacity:1;stroke:none;stroke-width:0.26276964px;stroke-linecap:butt;stroke-linejoin:miter;stroke-opacity:1" d="m 272.12848,289.72557 v 0.59714 h 1.01719 v 2.46803 h 0.79238 v -2.46803 h 1.01491 v -0.59714 z m 3.23089,0 v 3.06517 h 0.74927 v -2.24098 l 0.70612,1.65292 h 0.50178 l 0.70613,-1.65292 v 2.24098 h 0.74699 v -3.06517 h -1.00355 l -0.7016,1.64157 -0.69931,-1.64157 z" id="path29502-6" inkscape:connector-curvature="0"/>
      <path style="color:#000000;font-style:normal;font-variant:normal;font-weight:normal;font-stretch:normal;font-size:medium;line-height:normal;font-family:sans-serif;font-variant-ligatures:normal;font-variant-position:normal;font-variant-caps:normal;font-variant-numeric:normal;font-variant-alternates:normal;font-feature-settings:normal;text-indent:0;text-align:start;text-decoration:none;text-decoration-line:none;text-decoration-style:solid;text-decoration-color:#000000;letter-spacing:normal;word-spacing:normal;text-transform:none;writing-mode:lr-tb;direction:ltr;text-orientation:mixed;dominant-baseline:auto;baseline-shift:baseline;text-anchor:start;white-space:normal;shape-padding:0;clip-rule:nonzero;display:inline;overflow:visible;visibility:visible;opacity:1;isolation:auto;mix-blend-mode:normal;color-interpolation:sRGB;color-interpolation-filters:linearRGB;solid-color:#000000;solid-opacity:1;vector-effect:none;fill:url(#linearGradient7771-3);fill-opacity:1;fill-rule:nonzero;stroke:none;stroke-width:1.32823598px;stroke-linecap:butt;stroke-linejoin:miter;stroke-miterlimit:4;stroke-dasharray:none;stroke-dashoffset:0;stroke-opacity:1;marker:none;paint-order:fill markers stroke;color-rendering:auto;image-rendering:auto;shape-rendering:auto;text-rendering:auto;enable-background:accumulate" d="M 325.25786,218.00083 H 218.99904 v 106.25882 l 106.25887,10e-5 z m -1.32818,1.32824 -5e-5,103.6024 h -103.6024 l 5e-5,-103.6024 z" id="rect7761-0" inkscape:connector-curvature="0" sodipodi:nodetypes="cccccccccc"/>
      <path id="path29517-6" d="m 320.80651,315.5883 c 0,-3.05469 -2.49166,-5.54646 -5.54627,-5.54646 -3.05459,0 -5.54623,2.49177 -5.54623,5.54646 0,3.05477 2.49164,5.5465 5.54623,5.5465 3.05461,0 5.54627,-2.49173 5.54627,-5.5465 z m 11.09258,-2.36142 v 4.8102 c 0,0.32434 -0.25932,0.71548 -0.60728,0.77928 l -4.00861,0.60736 c -0.23849,0.69327 -0.49777,1.34358 -0.84442,1.97174 0.73625,1.06212 1.51693,2.01478 2.31833,2.98957 0.1303,0.15079 0.21617,0.3466 0.21617,0.54213 0,0.19567 -0.0653,0.34663 -0.19543,0.49784 -0.52,0.69326 -3.44423,3.87832 -4.18191,3.87832 -0.19542,0 -0.38968,-0.0877 -0.56293,-0.19545 l -2.98947,-2.33918 c -0.6281,0.32431 -1.30062,0.60733 -1.97171,0.82363 -0.15078,1.32145 -0.28125,2.73028 -0.6281,4.02948 -0.0877,0.34659 -0.38961,0.60732 -0.77922,0.60732 h -4.81009 c -0.38959,0 -0.73625,-0.2816 -0.77918,-0.65029 l -0.60732,-3.98651 c -0.67115,-0.21619 -1.3214,-0.47703 -1.94955,-0.80147 l -3.05461,2.31841 c -0.1508,0.13031 -0.34661,0.19545 -0.54214,0.19545 -0.19543,0 -0.38963,-0.0878 -0.54214,-0.23851 -1.1481,-1.03997 -2.665,-2.38364 -3.57463,-3.6399 -0.10824,-0.15079 -0.15079,-0.32435 -0.15079,-0.49775 0,-0.19544 0.0653,-0.34664 0.1731,-0.49783 0.73627,-0.99693 1.53772,-1.94956 2.27539,-2.96875 -0.36882,-0.69326 -0.67114,-1.40879 -0.88877,-2.14506 l -3.9642,-0.58516 c -0.36889,-0.0653 -0.62812,-0.41183 -0.62812,-0.77927 v -4.81018 c 0,-0.32435 0.25931,-0.71549 0.58511,-0.77932 l 4.02934,-0.60728 c 0.21615,-0.69332 0.49782,-1.34369 0.84445,-1.99259 -0.73627,-1.03997 -1.51693,-2.01475 -2.31833,-2.98952 -0.1303,-0.15078 -0.21617,-0.32433 -0.21617,-0.52001 0,-0.19543 0.0877,-0.34664 0.19544,-0.4978 0.51995,-0.71548 3.44422,-3.87834 4.18187,-3.87834 0.19543,0 0.38964,0.0878 0.56295,0.21618 l 2.98945,2.31842 c 0.62814,-0.32434 1.30062,-0.60729 1.97176,-0.82362 0.1508,-1.32149 0.28157,-2.73024 0.62809,-4.02955 0.0877,-0.34663 0.38958,-0.60734 0.77926,-0.60734 h 4.81002 c 0.38963,0 0.73627,0.28123 0.77927,0.65036 l 0.60727,3.98653 c 0.67115,0.21617 1.32142,0.47694 1.94955,0.80142 l 3.07679,-2.31839 c 0.13056,-0.13029 0.32432,-0.19545 0.51995,-0.19545 0.19543,0 0.38963,0.0877 0.54221,0.21618 1.14805,1.06214 2.66492,2.40441 3.57453,3.68285 0.10826,0.1303 0.1508,0.3039 0.1508,0.47701 0,0.19545 -0.0653,0.34663 -0.17313,0.49781 -0.73622,0.99699 -1.53763,1.94956 -2.27531,2.96872 0.3688,0.69327 0.67106,1.40883 0.88877,2.12292 l 3.96423,0.6073 c 0.36881,0.0653 0.62806,0.41186 0.62806,0.77931 z" inkscape:connector-curvature="0" style="display:inline;fill:#000000;fill-opacity:0.27083333;stroke:none;stroke-width:1.38659322" inkscape:label="rueda"/>
      <path style="display:inline;fill:#fbfbfb;fill-opacity:1;stroke:none;stroke-width:1.38659322" inkscape:connector-curvature="0" d="m 319.55,314.33174 c 0,-3.05469 -2.49166,-5.54645 -5.54628,-5.54645 -3.05457,0 -5.54623,2.49176 -5.54623,5.54645 0,3.05477 2.49166,5.54651 5.54623,5.54651 3.05462,0 5.54628,-2.49174 5.54628,-5.54651 z m 11.09259,-2.3614 v 4.8102 c 0,0.32435 -0.25933,0.71548 -0.60729,0.77929 l -4.00859,0.60733 c -0.23852,0.69329 -0.49779,1.34361 -0.84444,1.97174 0.73623,1.06215 1.51691,2.01478 2.31834,2.98958 0.1303,0.15078 0.21616,0.34659 0.21616,0.54213 0,0.19566 -0.0653,0.34664 -0.19543,0.49781 -0.51998,0.69329 -3.44422,3.87836 -4.18189,3.87836 -0.19544,0 -0.38969,-0.0877 -0.56293,-0.19545 l -2.98949,-2.33921 c -0.62811,0.32435 -1.30061,0.60735 -1.9717,0.82365 -0.15079,1.32145 -0.28124,2.73028 -0.6281,4.02946 -0.0877,0.34663 -0.38962,0.60735 -0.77923,0.60735 h -4.81009 c -0.38959,0 -0.73623,-0.28161 -0.7792,-0.6503 l -0.60729,-3.98651 c -0.67115,-0.21618 -1.3214,-0.47703 -1.94954,-0.80146 l -3.05463,2.31842 c -0.1508,0.1303 -0.34661,0.19545 -0.54212,0.19545 -0.19544,0 -0.38965,-0.0877 -0.54216,-0.23854 -1.1481,-1.03996 -2.66502,-2.38363 -3.57463,-3.63989 -0.10824,-0.15078 -0.15079,-0.32434 -0.15079,-0.49775 0,-0.19545 0.0653,-0.34663 0.1731,-0.49783 0.73626,-0.99693 1.53772,-1.94957 2.27539,-2.96874 -0.36882,-0.69327 -0.67114,-1.4088 -0.88879,-2.14507 l -3.96416,-0.58517 c -0.36889,-0.0653 -0.62813,-0.41182 -0.62813,-0.77926 v -4.81018 c 0,-0.32435 0.25931,-0.71548 0.5851,-0.77932 l 4.02935,-0.60728 c 0.21615,-0.69331 0.49781,-1.34368 0.84444,-1.99257 -0.73628,-1.03997 -1.51694,-2.01476 -2.31833,-2.98954 -0.1303,-0.15078 -0.21617,-0.32436 -0.21617,-0.52001 0,-0.19545 0.0877,-0.34663 0.19544,-0.4978 0.51997,-0.71548 3.44422,-3.87834 4.18188,-3.87834 0.19543,0 0.38963,0.0878 0.56296,0.21618 l 2.98943,2.31842 c 0.62813,-0.32434 1.30063,-0.60729 1.97175,-0.82363 0.1508,-1.32148 0.28159,-2.73022 0.62812,-4.02954 0.0877,-0.34663 0.38956,-0.60733 0.77924,-0.60733 h 4.81003 c 0.38963,0 0.73626,0.28122 0.77924,0.65036 l 0.60731,3.98651 c 0.67112,0.21618 1.32141,0.47696 1.94954,0.80144 l 3.07678,-2.3184 c 0.13056,-0.1303 0.32432,-0.19545 0.51996,-0.19545 0.19544,0 0.38964,0.0878 0.5422,0.21617 1.14804,1.06217 2.6649,2.40443 3.57453,3.68286 0.10826,0.1303 0.1508,0.3039 0.1508,0.47701 0,0.19544 -0.0653,0.34664 -0.17313,0.49781 -0.73623,0.99699 -1.53763,1.94956 -2.27531,2.96871 0.3688,0.69327 0.67106,1.40884 0.88877,2.12291 l 3.96422,0.60733 c 0.36883,0.0653 0.62807,0.41185 0.62807,0.7793 z" id="path29458-2" inkscape:label="rueda"/>
    </g>
  </g>
</svg>