<?xml version="1.0" encoding="UTF-8" standalone="yes"?>
<svg xmlns:osb="http://www.openswatchbook.org/uri/2009/osb" xmlns:dc="http://purl.org/dc/elements/1.1/" xmlns:cc="http://creativecommons.org/ns#" xmlns:rdf="http://www.w3.org/1999/02/22-rdf-syntax-ns#" xmlns:svg="http://www.w3.org/2000/svg" xmlns="http://www.w3.org/2000/svg" xmlns:xlink="http://www.w3.org/1999/xlink" xmlns:sodipodi="http://sodipodi.sourceforge.net/DTD/sodipodi-0.dtd" xmlns:inkscape="http://www.inkscape.org/namespaces/inkscape" height="128" viewBox="0 0 128 128" width="128" id="svg2" version="1.1" inkscape:version="0.92.1 r" sodipodi:docname="gnome-tweak-tool.svg" enable-background="new" folder="128">
  <title id="title4675">Template icons dark</title>
  <metadata id="metadata24">
    <rdf:RDF>
      <cc:Work rdf:about="">
        <dc:format>image/svg+xml</dc:format>
        <dc:type rdf:resource="http://purl.org/dc/dcmitype/StillImage"/>
        <dc:title>Template icons dark</dc:title>
        <dc:date>17/05/13</dc:date>
        <dc:creator>
          <cc:Agent>
            <dc:title>wfpaisa</dc:title>
          </cc:Agent>
        </dc:creator>
        <dc:rights>
          <cc:Agent>
            <dc:title>License: GPLv3</dc:title>
          </cc:Agent>
        </dc:rights>
        <dc:language>es-en</dc:language>
        <dc:subject>
          <rdf:Bag>
            <rdf:li>plane-icon-theme</rdf:li>
          </rdf:Bag>
        </dc:subject>
        <dc:description>Template for create set icons</dc:description>
        <cc:license rdf:resource="https://www.gnu.org/licenses/gpl-3.0.en.html"/>
      </cc:Work>
    </rdf:RDF>
  </metadata>
  <defs id="defs22">
    <linearGradient inkscape:collect="always" id="linearGradient8106">
      <stop style="stop-color:#d6dee0;stop-opacity:1" offset="0" id="stop8102"/>
      <stop style="stop-color:#ffffff;stop-opacity:0.47395834" offset="1" id="stop8104"/>
    </linearGradient>
    <linearGradient inkscape:collect="always" id="linearGradient8067">
      <stop style="stop-color:#403d60;stop-opacity:0.39607844" offset="0" id="stop8063"/>
      <stop style="stop-color:#000000;stop-opacity:0.07291666" offset="1" id="stop8065"/>
    </linearGradient>
    <linearGradient inkscape:collect="always" id="linearGradient8024">
      <stop style="stop-color:#c3ced1;stop-opacity:1" offset="0" id="stop8020"/>
      <stop style="stop-color:#f6f6f6;stop-opacity:1" offset="1" id="stop8022"/>
    </linearGradient>
    <linearGradient y2="6.7686791" x2="35.035843" y1="56.762737" x1="35.035843" gradientTransform="matrix(1.6693351,0,0,1.6746213,105.59431,107.20584)" gradientUnits="userSpaceOnUse" id="linearGradient6333" xlink:href="#linearGradient4471" inkscape:collect="always"/>
    <linearGradient id="linearGradient4471" inkscape:collect="always">
      <stop id="stop4473" offset="0" style="stop-color:#c9cfd1;stop-opacity:1"/>
      <stop id="stop4475" offset="1" style="stop-color:#ffffff;stop-opacity:1"/>
    </linearGradient>
    <linearGradient inkscape:collect="always" xlink:href="#selected_bg_color-black-2" id="linearGradient5867" gradientUnits="userSpaceOnUse" gradientTransform="matrix(1.1171118,0,0,1.1171118,312.64102,226.92818)" x1="-49.095852" y1="1041.1797" x2="-9.0958519" y2="1041.1797"/>
    <linearGradient id="selected_bg_color-black-2" osb:paint="solid">
      <stop style="stop-color:#2d393e;stop-opacity:0.11731844;" offset="0" id="stop5669"/>
    </linearGradient>
    <linearGradient inkscape:collect="always" xlink:href="#linearGradient9158" id="linearGradient8839-2" gradientUnits="userSpaceOnUse" gradientTransform="matrix(1.1665482,0,0,1.1545765,-1043.0007,-286.56471)" x1="1031.269" y1="365.65402" x2="1031.269" y2="380.15897"/>
    <linearGradient id="linearGradient9158">
      <stop style="stop-color:#000000;stop-opacity:0.20394737;" offset="0" id="stop9154"/>
      <stop style="stop-color:#000000;stop-opacity:0;" offset="1" id="stop9156"/>
    </linearGradient>
    <linearGradient inkscape:collect="always" xlink:href="#linearGradient9037" id="linearGradient9139" gradientUnits="userSpaceOnUse" gradientTransform="matrix(2.2252964,0,0,2.2252964,1436.4683,606.64496)" x1="-578.64746" y1="-204.78363" x2="-578.64746" y2="-214.62181"/>
    <linearGradient id="linearGradient9037" inkscape:collect="always">
      <stop id="stop9033" offset="0" style="stop-color:#dce1e8;stop-opacity:1"/>
      <stop id="stop9035" offset="1" style="stop-color:#ffffff;stop-opacity:1"/>
    </linearGradient>
    <linearGradient inkscape:collect="always" xlink:href="#selected_bg_color-4" id="linearGradient9055" gradientUnits="userSpaceOnUse" gradientTransform="matrix(0.89368935,0,0,0.89882962,135.66773,-754.15356)"/>
    <linearGradient id="selected_bg_color-4" osb:paint="solid">
      <stop style="stop-color:#33d351;stop-opacity:1;" offset="0" id="stop5956-1"/>
    </linearGradient>
    <linearGradient inkscape:collect="always" xlink:href="#linearGradient9158" id="linearGradient9057" gradientUnits="userSpaceOnUse" gradientTransform="matrix(1.1665482,0,0,0.92897385,-1044.1175,-161.78384)" x1="1031.269" y1="365.65402" x2="1031.269" y2="380.15897"/>
    <linearGradient inkscape:collect="always" xlink:href="#linearGradient9037" id="linearGradient8841" gradientUnits="userSpaceOnUse" gradientTransform="matrix(1.9920088,0,0,1.9920088,135.67203,147.62388)" x1="17.92" y1="19.84" x2="17.92" y2="11.306667"/>
    <linearGradient inkscape:collect="always" xlink:href="#linearGradient8024" id="linearGradient8010" x1="162.55118" y1="202.92914" x2="162.55118" y2="116" gradientUnits="userSpaceOnUse"/>
    <linearGradient inkscape:collect="always" xlink:href="#linearGradient8067" id="linearGradient8069" x1="160.30061" y1="202.34253" x2="160.42194" y2="115.35233" gradientUnits="userSpaceOnUse"/>
    <linearGradient gradientTransform="translate(-123.99997,-124)" inkscape:collect="always" xlink:href="#linearGradient8106" id="linearGradient8108-3" x1="160" y1="126.11024" x2="160" y2="194.14174" gradientUnits="userSpaceOnUse"/>
    <linearGradient inkscape:collect="always" xlink:href="#linearGradient9037" id="linearGradient33841" gradientUnits="userSpaceOnUse" gradientTransform="matrix(2.2252964,0,0,2.2252964,131.77023,147.33947)" x1="17.92" y1="19.84" x2="17.92" y2="11.306667"/>
    <linearGradient gradientTransform="matrix(0.68884547,0,0,0.68884547,-30.217202,-30.213324)" inkscape:collect="always" xlink:href="#linearGradient8024" id="linearGradient8010-3" x1="162.55118" y1="202.92914" x2="162.55118" y2="116" gradientUnits="userSpaceOnUse"/>
    <linearGradient inkscape:collect="always" xlink:href="#selected_bg_color-4" id="linearGradient9055-2" gradientUnits="userSpaceOnUse" gradientTransform="matrix(0.70887596,0,0,0.71295325,61.343185,-647.94897)"/>
    <linearGradient inkscape:collect="always" xlink:href="#linearGradient9158" id="linearGradient9057-1" gradientUnits="userSpaceOnUse" gradientTransform="matrix(0.92530814,0,0,0.73686371,-874.46461,-178.08027)" x1="1031.269" y1="365.65402" x2="1031.269" y2="380.15897"/>
    <linearGradient inkscape:collect="always" xlink:href="#linearGradient9037" id="linearGradient33841-0" gradientUnits="userSpaceOnUse" gradientTransform="matrix(1.7651089,0,0,1.7651089,58.251688,67.116911)" x1="17.92" y1="19.84" x2="17.92" y2="11.306667"/>
    <linearGradient inkscape:collect="always" xlink:href="#selected_bg_color-black-2" id="linearGradient5867-6" gradientUnits="userSpaceOnUse" gradientTransform="matrix(0.88609498,0,0,0.88609498,201.71872,134.24116)" x1="-49.095852" y1="1041.1797" x2="-9.0958519" y2="1041.1797"/>
    <linearGradient inkscape:collect="always" xlink:href="#linearGradient9158" id="linearGradient8839-2-6" gradientUnits="userSpaceOnUse" gradientTransform="matrix(0.92530814,0,0,0.91581213,-873.57869,-273.0623)" x1="1031.269" y1="365.65402" x2="1031.269" y2="380.15897"/>
    <linearGradient inkscape:collect="always" xlink:href="#linearGradient9037" id="linearGradient9139-2" gradientUnits="userSpaceOnUse" gradientTransform="matrix(1.7651089,0,0,1.7651089,1093.1405,435.4332)" x1="-578.64746" y1="-204.78363" x2="-578.64746" y2="-214.62181"/>
    <linearGradient inkscape:collect="always" xlink:href="#linearGradient9037" id="linearGradient9139-2-6" gradientUnits="userSpaceOnUse" gradientTransform="matrix(1.1791557,0,0,1.1791557,700.88405,260.05192)" x1="-578.64746" y1="-204.78363" x2="-578.64746" y2="-214.62181"/>
    <linearGradient inkscape:collect="always" xlink:href="#linearGradient9158" id="linearGradient8839-2-6-7" gradientUnits="userSpaceOnUse" gradientTransform="matrix(0.61813885,0,0,0.61179518,-612.95454,-213.24836)" x1="1031.269" y1="365.65402" x2="1031.269" y2="380.15897"/>
    <linearGradient inkscape:collect="always" xlink:href="#selected_bg_color-black-2" id="linearGradient5867-6-0" gradientUnits="userSpaceOnUse" gradientTransform="matrix(0.59194306,0,0,0.59194306,105.3825,58.844884)" x1="-49.095852" y1="1041.1797" x2="-9.0958519" y2="1041.1797"/>
    <linearGradient inkscape:collect="always" xlink:href="#linearGradient9037" id="linearGradient33841-0-3" gradientUnits="userSpaceOnUse" gradientTransform="matrix(1.1791557,0,0,1.1791557,9.5414004,16.895052)" x1="17.92" y1="19.84" x2="17.92" y2="11.306667"/>
    <linearGradient inkscape:collect="always" xlink:href="#linearGradient9158" id="linearGradient9057-1-7" gradientUnits="userSpaceOnUse" gradientTransform="matrix(0.61813885,0,0,0.49225125,-613.54637,-146.9054)" x1="1031.269" y1="365.65402" x2="1031.269" y2="380.15897"/>
    <linearGradient inkscape:collect="always" xlink:href="#selected_bg_color-4" id="linearGradient9055-2-5" gradientUnits="userSpaceOnUse" gradientTransform="matrix(0.47355443,0,0,0.47627821,11.60663,-460.79445)"/>
    <linearGradient gradientTransform="matrix(0.5332996,0,0,0.5332996,-61.329426,-61.326426)" inkscape:collect="always" xlink:href="#linearGradient8024" id="linearGradient8010-3-2" x1="162.55118" y1="202.92914" x2="162.55118" y2="116" gradientUnits="userSpaceOnUse"/>
    <linearGradient inkscape:collect="always" xlink:href="#linearGradient9037" id="linearGradient9139-6" gradientUnits="userSpaceOnUse" gradientTransform="matrix(2.6558437,0,0,2.6558437,1796.6932,803.67182)" x1="-578.64746" y1="-204.78363" x2="-578.64746" y2="-214.62181"/>
    <linearGradient inkscape:collect="always" xlink:href="#linearGradient9158" id="linearGradient8839-2-0" gradientUnits="userSpaceOnUse" gradientTransform="matrix(1.3922505,0,0,1.3779624,-1162.5002,-262.35488)" x1="1031.269" y1="365.65402" x2="1031.269" y2="380.15897"/>
    <linearGradient inkscape:collect="always" xlink:href="#selected_bg_color-black-2" id="linearGradient5867-5" gradientUnits="userSpaceOnUse" gradientTransform="matrix(1.333249,0,0,1.333249,455.42926,350.48792)" x1="-49.095852" y1="1041.1797" x2="-9.0958519" y2="1041.1797"/>
    <linearGradient inkscape:collect="always" xlink:href="#linearGradient9037" id="linearGradient33841-4" gradientUnits="userSpaceOnUse" gradientTransform="matrix(2.6558437,0,0,2.6558437,239.56383,255.50051)" x1="17.92" y1="19.84" x2="17.92" y2="11.306667"/>
    <linearGradient inkscape:collect="always" xlink:href="#linearGradient9158" id="linearGradient9057-7" gradientUnits="userSpaceOnUse" gradientTransform="matrix(1.3922505,0,0,1.1087105,-1163.8332,-113.43158)" x1="1031.269" y1="365.65402" x2="1031.269" y2="380.15897"/>
    <linearGradient inkscape:collect="always" xlink:href="#selected_bg_color-4" id="linearGradient9055-6" gradientUnits="userSpaceOnUse" gradientTransform="matrix(1.0665992,0,0,1.072734,244.2154,-820.4122)"/>
    <linearGradient gradientTransform="matrix(1.333249,0,0,1.333249,58.679234,58.681115)" inkscape:collect="always" xlink:href="#linearGradient8024" id="linearGradient8010-6" x1="162.55118" y1="202.92914" x2="162.55118" y2="116" gradientUnits="userSpaceOnUse"/>
    <linearGradient inkscape:collect="always" xlink:href="#linearGradient9037" id="linearGradient9139-2-6-9" gradientUnits="userSpaceOnUse" gradientTransform="matrix(0.79897004,0,0,0.79897004,442.50704,144.34584)" x1="-578.64746" y1="-204.78363" x2="-578.64746" y2="-214.62181"/>
    <linearGradient inkscape:collect="always" xlink:href="#linearGradient9037" id="linearGradient33841-0-3-6" gradientUnits="userSpaceOnUse" gradientTransform="matrix(0.79533722,0,0,0.79533722,-25.858265,-21.322208)" x1="17.92" y1="19.84" x2="17.92" y2="11.306667"/>
    <linearGradient inkscape:collect="always" xlink:href="#selected_bg_color-4" id="linearGradient9055-2-5-9" gradientUnits="userSpaceOnUse" gradientTransform="matrix(0.31941113,0,0,0.32124832,-24.465273,-343.52246)"/>
    <linearGradient gradientTransform="matrix(0.35553307,0,0,0.35553307,-72.886291,-72.884281)" inkscape:collect="always" xlink:href="#linearGradient8024" id="linearGradient8010-3-2-0" x1="162.55118" y1="202.92914" x2="162.55118" y2="116" gradientUnits="userSpaceOnUse"/>
    <linearGradient inkscape:collect="always" xlink:href="#linearGradient9037" id="linearGradient9139-2-6-9-7" gradientUnits="userSpaceOnUse" gradientTransform="matrix(0.59922752,0,0,0.59922752,299.88027,76.259378)" x1="-578.64746" y1="-204.78363" x2="-578.64746" y2="-214.62181"/>
    <linearGradient inkscape:collect="always" xlink:href="#linearGradient9037" id="linearGradient33841-0-3-6-5" gradientUnits="userSpaceOnUse" gradientTransform="matrix(0.59650291,0,0,0.59650291,-51.393699,-47.991657)" x1="17.92" y1="19.84" x2="17.92" y2="11.306667"/>
    <linearGradient inkscape:collect="always" xlink:href="#selected_bg_color-4" id="linearGradient9055-2-5-9-9" gradientUnits="userSpaceOnUse" gradientTransform="matrix(0.23955834,0,0,0.24093624,-50.348955,-289.64187)"/>
    <linearGradient gradientTransform="matrix(0.2666498,0,0,0.2666498,-86.664717,-86.663211)" inkscape:collect="always" xlink:href="#linearGradient8024" id="linearGradient8010-3-2-0-7" x1="162.55118" y1="202.92914" x2="162.55118" y2="116" gradientUnits="userSpaceOnUse"/>
    <linearGradient gradientTransform="matrix(0.193927,0,0,0.193927,-95.028862,-95.027772)" inkscape:collect="always" xlink:href="#linearGradient8024" id="linearGradient8010-3-2-0-7-8" x1="162.55118" y1="202.92914" x2="162.55118" y2="116" gradientUnits="userSpaceOnUse"/>
    <linearGradient inkscape:collect="always" xlink:href="#selected_bg_color-4" id="linearGradient9055-2-5-9-9-0" gradientUnits="userSpaceOnUse" gradientTransform="matrix(0.19448357,0,0,0.19560221,-69.167343,-264.47742)"/>
    <symbol id="icon-search" viewBox="0 0 26 28">
      <title id="title12944">search</title>
      <path d="M18 13c0-3.859-3.141-7-7-7s-7 3.141-7 7 3.141 7 7 7 7-3.141 7-7zM26 26c0 1.094-0.906 2-2 2-0.531 0-1.047-0.219-1.406-0.594l-5.359-5.344c-1.828 1.266-4.016 1.937-6.234 1.937-6.078 0-11-4.922-11-11s4.922-11 11-11 11 4.922 11 11c0 2.219-0.672 4.406-1.937 6.234l5.359 5.359c0.359 0.359 0.578 0.875 0.578 1.406z" id="path12946"/>
    </symbol>
    <symbol id="icon-sliders" viewBox="0 0 24 28">
      <title id="title15089">sliders</title>
      <path d="M5.5 22v2h-5.5v-2h5.5zM11 20c0.547 0 1 0.453 1 1v4c0 0.547-0.453 1-1 1h-4c-0.547 0-1-0.453-1-1v-4c0-0.547 0.453-1 1-1h4zM13.5 14v2h-13.5v-2h13.5zM3.5 6v2h-3.5v-2h3.5zM24 22v2h-11.5v-2h11.5zM9 4c0.547 0 1 0.453 1 1v4c0 0.547-0.453 1-1 1h-4c-0.547 0-1-0.453-1-1v-4c0-0.547 0.453-1 1-1h4zM19 12c0.547 0 1 0.453 1 1v4c0 0.547-0.453 1-1 1h-4c-0.547 0-1-0.453-1-1v-4c0-0.547 0.453-1 1-1h4zM24 14v2h-3.5v-2h3.5zM24 6v2h-13.5v-2h13.5z" id="path15091"/>
    </symbol>
  </defs>
  <sodipodi:namedview pagecolor="#383c4a" bordercolor="#ffffff" borderopacity="0.62745098" objecttolerance="4" gridtolerance="10" guidetolerance="4" inkscape:pageopacity="0" inkscape:pageshadow="2" inkscape:window-width="640" inkscape:window-height="480" id="namedview20" showgrid="true" inkscape:zoom="1.4789492" inkscape:cx="185.69572" inkscape:cy="-120.06035" inkscape:current-layer="layer12" inkscape:snap-smooth-nodes="true" showguides="true" borderlayer="true" inkscape:showpageshadow="false" inkscape:guide-bbox="true" guidecolor="#bd4fff" guideopacity="0.78431373" inkscape:snap-nodes="true" inkscape:lockguides="false" fit-margin-top="0" fit-margin-left="0" fit-margin-right="0" fit-margin-bottom="0" guidehicolor="#ff0101" guidehiopacity="0.78431373" inkscape:snap-page="true" inkscape:object-nodes="true" inkscape:snap-bbox="true" inkscape:snap-global="true" inkscape:snap-object-midpoints="false" inkscape:snap-bbox-edge-midpoints="false">
    <inkscape:grid type="xygrid" id="grid4171" empspacing="4" dotted="false" originx="2.7755576e-17" originy="0" spacingx="1" spacingy="1" color="#5a5a5a" opacity="0.23529412" empcolor="#5a5a5a" empopacity="0.47058824" visible="true"/>
    <inkscape:grid type="axonomgrid" id="grid4699" units="mm" empspacing="4" color="#5a5a5a" opacity="0.23529412" empcolor="#5a5a5a" empopacity="0.47058824" gridanglex="45" gridanglez="45" spacingy="3.7795276" visible="false" originx="1.3228346" originy="1.3228346"/>
    <sodipodi:guide position="48,0" orientation="1,0" id="guide4568" inkscape:locked="false" inkscape:label="" inkscape:color="rgb(189,79,255)"/>
    <sodipodi:guide position="111.99996,-3.9999999e-05" orientation="0,1" id="guide4570" inkscape:locked="false" inkscape:label="" inkscape:color="rgb(189,79,255)"/>
    <sodipodi:guide position="0,0" orientation="1,0" id="guide4572" inkscape:locked="false" inkscape:label="" inkscape:color="rgb(189,79,255)"/>
    <sodipodi:guide position="0,48" orientation="0,1" id="guide4574" inkscape:locked="false" inkscape:label="" inkscape:color="rgb(189,79,255)"/>
    <sodipodi:guide position="0,80" orientation="0,1" id="guide4576" inkscape:locked="false" inkscape:label="" inkscape:color="rgb(189,79,255)"/>
    <sodipodi:guide position="-32,48" orientation="1,0" id="guide4578" inkscape:locked="false" inkscape:label="" inkscape:color="rgb(189,79,255)"/>
    <sodipodi:guide position="-32,104" orientation="0,1" id="guide4580" inkscape:locked="false" inkscape:label="" inkscape:color="rgb(189,79,255)"/>
    <sodipodi:guide position="-56,80" orientation="1,0" id="guide4582" inkscape:locked="false" inkscape:label="" inkscape:color="rgb(189,79,255)"/>
    <sodipodi:guide position="48,-64" orientation="0,1" id="guide4584" inkscape:locked="false" inkscape:label="" inkscape:color="rgb(189,79,255)"/>
    <sodipodi:guide position="0,0" orientation="-0.70710678,0.70710678" id="guide4588" inkscape:locked="false" inkscape:label="" inkscape:color="rgb(189,79,255)"/>
    <sodipodi:guide position="-56,80" orientation="-0.70710678,0.70710678" id="guide4573" inkscape:locked="false" inkscape:label="" inkscape:color="rgb(189,79,255)"/>
    <sodipodi:guide position="-32,48" orientation="-0.70710678,0.70710678" id="guide4575" inkscape:locked="false" inkscape:label="" inkscape:color="rgb(189,79,255)"/>
    <sodipodi:guide position="48,-64" orientation="-0.70710678,0.70710678" id="guide4577" inkscape:locked="false" inkscape:label="" inkscape:color="rgb(189,79,255)"/>
    <sodipodi:guide position="47.999962,0" orientation="0.70710678,0.70710678" id="guide4697" inkscape:locked="false" inkscape:label="" inkscape:color="rgb(189,79,255)"/>
    <sodipodi:guide position="207.99995,-288" orientation="0,1" id="guide7833" inkscape:locked="false"/>
    <sodipodi:guide position="335.99994,-288" orientation="1,0" id="guide7835" inkscape:locked="false" inkscape:label="" inkscape:color="rgb(189,79,255)"/>
    <sodipodi:guide position="111.99996,-64" orientation="1,0" id="guide7915" inkscape:locked="false"/>
    <sodipodi:guide position="111.99996,-160" orientation="0,1" id="guide7917" inkscape:locked="false"/>
    <sodipodi:guide position="207.99996,-160" orientation="1,0" id="guide7919" inkscape:locked="false"/>
    <sodipodi:guide position="111.99996,-160" orientation="-0.70710678,0.70710678" id="guide7921" inkscape:locked="false" inkscape:label="" inkscape:color="rgb(189,79,255)"/>
    <sodipodi:guide position="207.99996,-288" orientation="-0.70710678,0.70710678" id="guide7923" inkscape:locked="false" inkscape:label="" inkscape:color="rgb(189,79,255)"/>
    <sodipodi:guide position="-72,104" orientation="1,0" id="guide7824" inkscape:locked="false"/>
    <sodipodi:guide position="-56,120" orientation="0,1" id="guide7826" inkscape:locked="false"/>
    <sodipodi:guide position="-72,104" orientation="-0.70710678,0.70710678" id="guide7828" inkscape:locked="false" inkscape:label="" inkscape:color="rgb(189,79,255)"/>
  </sodipodi:namedview>
  <g inkscape:groupmode="layer" id="layer4" inkscape:label="icon_128" style="display:inline" transform="translate(-207.99995,-208)">
    <g inkscape:groupmode="layer" id="layer11" inkscape:label="frame" style="display:none">
      <rect inkscape:label="frame_128" y="208" x="207.99995" height="128" width="128" id="frame_128" style="color:#000000;clip-rule:nonzero;display:inline;overflow:visible;visibility:visible;opacity:1;isolation:auto;mix-blend-mode:normal;color-interpolation:sRGB;color-interpolation-filters:linearRGB;solid-color:#000000;solid-opacity:1;vector-effect:none;fill:#000000;fill-opacity:1;fill-rule:nonzero;stroke:#ff24f7;stroke-width:0;stroke-linecap:square;stroke-linejoin:miter;stroke-miterlimit:4;stroke-dasharray:none;stroke-dashoffset:0;stroke-opacity:0.99481865;marker:none;marker-start:none;marker-mid:none;marker-end:none;paint-order:normal;color-rendering:auto;image-rendering:auto;shape-rendering:auto;text-rendering:auto;enable-background:accumulate"/>
      <text xml:space="preserve" style="font-size:38.46457672px;line-height:0%;font-family:sans-serif;letter-spacing:0px;word-spacing:0px;display:inline;opacity:1;fill:#ffffff;fill-opacity:1;stroke:none;stroke-width:0.07881754px;stroke-linecap:butt;stroke-linejoin:miter;stroke-opacity:1" x="236.17479" y="283.34512" id="txt_128" inkscape:label="txt_128">
        <tspan sodipodi:role="line" x="236.17479" y="283.34512" style="font-size:38.46457672px;line-height:0%;fill:#ffffff;fill-opacity:1;stroke:none;stroke-width:0.07881754px" id="tspan5069-6">128</tspan>
      </text>
      <text xml:space="preserve" style="font-size:7.43228436px;line-height:1000%;font-family:sans-serif;letter-spacing:0px;word-spacing:0px;display:inline;opacity:1;fill:#ffffff;fill-opacity:0.42156863;stroke:none;stroke-width:0.16398695px;stroke-linecap:butt;stroke-linejoin:miter;stroke-opacity:1" x="265.97781" y="330.1329" id="txt_scalable_64_512" inkscape:label="txt_scalable_64_512">
        <tspan sodipodi:role="line" x="265.97781" y="330.1329" style="font-size:8.08990479px;fill:#ffffff;fill-opacity:0.42156863;stroke:none;stroke-width:0.16398695px" id="tspan5049-1-6-6">Scalable:96-512</tspan>
      </text>
    </g>
    <g inkscape:groupmode="layer" id="layer12" inkscape:label="icon" style="display:inline">
      <path sodipodi:nodetypes="ccccccccc" inkscape:connector-curvature="0" id="path8074-7" d="m 228.24892,218.00474 h 86.5002 c 5.67635,0 10.47016,4.5742 10.24611,10.24612 v 87.50018 c -10e-6,5.67635 -4.56976,10.24611 -10.24611,10.24611 h -86.5002 c -5.67634,0 -10.24612,-4.56976 -10.24611,-10.24611 v -87.50018 c -1e-5,-5.67635 4.57422,-10.47082 10.24611,-10.24612 z" style="color:#000000;clip-rule:nonzero;display:inline;overflow:visible;visibility:visible;opacity:1;isolation:auto;mix-blend-mode:normal;color-interpolation:sRGB;color-interpolation-filters:linearRGB;solid-color:#000000;solid-opacity:1;vector-effect:none;fill:#2e2e2e;fill-opacity:0.24479167;fill-rule:nonzero;stroke:none;stroke-width:1.33324897;stroke-linecap:butt;stroke-linejoin:miter;stroke-miterlimit:4;stroke-dasharray:none;stroke-dashoffset:0;stroke-opacity:0.45833333;marker:none;marker-start:none;marker-mid:none;marker-end:none;paint-order:fill markers stroke;color-rendering:auto;image-rendering:auto;shape-rendering:auto;text-rendering:auto;enable-background:accumulate" inkscape:label="base sombra"/>
      <path style="color:#000000;clip-rule:nonzero;display:inline;overflow:visible;visibility:visible;opacity:1;isolation:auto;mix-blend-mode:normal;color-interpolation:sRGB;color-interpolation-filters:linearRGB;solid-color:#000000;solid-opacity:1;vector-effect:none;fill:url(#linearGradient8010-6);fill-opacity:1;fill-rule:nonzero;stroke:none;stroke-width:1.33324897;stroke-linecap:butt;stroke-linejoin:miter;stroke-miterlimit:4;stroke-dasharray:none;stroke-dashoffset:0;stroke-opacity:0.45833333;marker:none;marker-start:none;marker-mid:none;marker-end:none;paint-order:fill markers stroke;color-rendering:auto;image-rendering:auto;shape-rendering:auto;text-rendering:auto;enable-background:accumulate" d="m 229.58217,219.33799 h 83.8337 c 5.67635,0 10.24611,4.56977 10.24611,10.24612 v 84.83368 c -1e-5,5.67635 -4.56976,10.24611 -10.24611,10.24611 h -83.8337 c -5.67635,0 -10.24611,-4.56976 -10.24611,-10.24611 v -84.83368 c -1e-5,-5.67635 4.56976,-10.24612 10.24611,-10.24612 z" id="rect8071-4" inkscape:connector-curvature="0" sodipodi:nodetypes="ccccccccc" inkscape:label="base"/>
      <path style="color:#000000;clip-rule:nonzero;display:inline;overflow:visible;visibility:visible;opacity:1;isolation:auto;mix-blend-mode:normal;color-interpolation:sRGB;color-interpolation-filters:linearRGB;solid-color:#000000;solid-opacity:1;vector-effect:none;fill:#ffffff;fill-opacity:0.54166667;fill-rule:nonzero;stroke:none;stroke-width:1.33324897;stroke-linecap:butt;stroke-linejoin:miter;stroke-miterlimit:4;stroke-dasharray:none;stroke-dashoffset:0;stroke-opacity:0.45833333;marker:none;marker-start:none;marker-mid:none;marker-end:none;paint-order:fill markers stroke;color-rendering:auto;image-rendering:auto;shape-rendering:auto;text-rendering:auto;enable-background:accumulate" d="m 219.33611,313.0839 v 1.33325 c 0,5.67635 4.57446,10.03225 10.24675,10.24675 h 26.44369 16.0565 15.91501 25.41721 c 5.67635,0 10.24675,-4.5704 10.24675,-10.24675 v -1.33325 c 0,5.67635 -4.57479,10.0236 -10.24675,10.24675 h -25.41721 -15.91501 -16.0565 -26.44369 c -5.67634,0 -10.24675,-4.5704 -10.24675,-10.24675 z" id="rect8026-5" inkscape:connector-curvature="0" sodipodi:nodetypes="csscccsscscccsc" inkscape:label="base brillo inferior"/>
      <path style="display:inline;opacity:1;vector-effect:none;fill:#ffffff;fill-opacity:0.36458333;fill-rule:nonzero;stroke:none;stroke-width:1.49981642;stroke-linecap:butt;stroke-linejoin:miter;stroke-miterlimit:4;stroke-dasharray:none;stroke-dashoffset:0;stroke-opacity:1" d="m 255.95752,285.29888 h 35.1749 c 6.08964,0 10.99212,5.06976 10.99212,11.36719 0,6.29743 -4.90248,11.3672 -10.99212,11.3672 h -35.1749 c -6.08964,0 -10.99213,-5.06977 -10.99213,-11.3672 0,-6.29743 4.90249,-11.36719 10.99213,-11.36719 z" id="path8212-2" inkscape:connector-curvature="0" sodipodi:nodetypes="sssssss"/>
      <path style="display:inline;opacity:1;fill:url(#linearGradient9055-6);fill-opacity:1;fill-rule:nonzero;stroke:none;stroke-width:1.20346391" d="m 256.61417,286.66669 h 31.99798 c 5.53965,0 9.99937,4.45972 9.99937,9.99936 0,5.53965 -4.45972,9.99937 -9.99937,9.99937 h -31.99798 c -5.53964,0 -9.99936,-4.45972 -9.99936,-9.99937 0,-5.53964 4.45972,-9.99936 9.99936,-9.99936 z" id="rect9025-5" inkscape:connector-curvature="0" sodipodi:nodetypes="sssssss"/>
      <path inkscape:label="base sombra" inkscape:connector-curvature="0" id="path9027-4" d="m 256.54675,286.68511 c -5.47165,0 -9.89524,4.42355 -9.89524,9.89522 v 0.15363 c 0,5.47165 4.42359,9.89781 9.89524,9.89781 h 32.19597 c 5.47165,0 9.8951,-4.42616 9.8951,-9.89781 v -0.15363 c 0,-5.47167 -4.42345,-9.89522 -9.8951,-9.89522 z m 0,1.33325 h 32.19597 c 4.75609,0 8.56185,3.80587 8.56185,8.56197 v 0.15363 c 0,4.7561 -3.80576,8.56456 -8.56185,8.56456 h -32.19597 c -4.7561,0 -8.56199,-3.80846 -8.56199,-8.56456 v -0.15363 c 0,-4.7561 3.80589,-8.56197 8.56199,-8.56197 z" style="color:#000000;font-style:normal;font-variant:normal;font-weight:normal;font-stretch:normal;font-size:medium;line-height:normal;font-family:sans-serif;font-variant-ligatures:normal;font-variant-position:normal;font-variant-caps:normal;font-variant-numeric:normal;font-variant-alternates:normal;font-feature-settings:normal;text-indent:0;text-align:start;text-decoration:none;text-decoration-line:none;text-decoration-style:solid;text-decoration-color:#000000;letter-spacing:normal;word-spacing:normal;text-transform:none;writing-mode:lr-tb;direction:ltr;text-orientation:mixed;dominant-baseline:auto;baseline-shift:baseline;text-anchor:start;white-space:normal;shape-padding:0;clip-rule:nonzero;display:inline;overflow:visible;visibility:visible;opacity:1;isolation:auto;mix-blend-mode:normal;color-interpolation:sRGB;color-interpolation-filters:linearRGB;solid-color:#000000;solid-opacity:1;vector-effect:none;fill:url(#linearGradient9057-7);fill-opacity:1;fill-rule:nonzero;stroke:none;stroke-width:1.19591868;stroke-linecap:butt;stroke-linejoin:miter;stroke-miterlimit:4;stroke-dasharray:none;stroke-dashoffset:0;stroke-opacity:1;paint-order:normal;color-rendering:auto;image-rendering:auto;shape-rendering:auto;text-rendering:auto;enable-background:accumulate" sodipodi:nodetypes="ssssssssssssssssss"/>
      <path inkscape:connector-curvature="0" id="path8208-3" d="m 255.10594,235.96867 h 35.38669 c 6.12631,0 11.0583,5.06976 11.0583,11.36719 0,6.29742 -4.93199,11.3672 -11.0583,11.3672 h -35.38669 c -6.12631,0 -11.05832,-5.06978 -11.05832,-11.3672 0,-6.29743 4.93201,-11.36719 11.05832,-11.36719 z" style="display:inline;opacity:1;vector-effect:none;fill:#ffffff;fill-opacity:0.58333333;fill-rule:nonzero;stroke:none;stroke-width:1.50432491;stroke-linecap:butt;stroke-linejoin:miter;stroke-miterlimit:4;stroke-dasharray:none;stroke-dashoffset:0;stroke-opacity:1" sodipodi:nodetypes="sssssss"/>
      <path style="display:inline;opacity:1;vector-effect:none;fill:url(#linearGradient5867-5);fill-opacity:1;fill-rule:nonzero;stroke:none;stroke-width:1.34166062;stroke-linecap:butt;stroke-linejoin:miter;stroke-miterlimit:4;stroke-dasharray:none;stroke-dashoffset:0;stroke-opacity:1" d="m 257.9475,237.3365 h 31.99799 c 5.53964,0 9.99936,4.45971 9.99936,9.99936 0,5.53965 -4.45972,9.99936 -9.99936,9.99936 H 257.9475 c -5.53965,0 -9.99936,-4.45971 -9.99936,-9.99936 0,-5.53965 4.45971,-9.99936 9.99936,-9.99936 z" id="rect9025-2-0" inkscape:connector-curvature="0" sodipodi:nodetypes="sssssss"/>
      <path inkscape:label="base sombra" inkscape:connector-curvature="0" id="path9027-3-7" d="m 257.88001,237.3549 c -5.47165,0 -9.89524,4.42355 -9.89524,9.89521 v 0.15364 c 0,5.47165 4.42359,9.89781 9.89524,9.89781 h 32.19597 c 5.47165,0 9.8951,-4.42616 9.8951,-9.89781 v -0.15364 c 0,-5.47166 -4.42345,-9.89521 -9.8951,-9.89521 z m 0,1.33325 h 32.19597 c 4.7561,0 8.56186,3.80587 8.56186,8.56196 v 0.15364 c 0,4.75609 -3.80576,8.56456 -8.56186,8.56456 h -32.19597 c -4.75609,0 -8.56199,-3.80847 -8.56199,-8.56456 v -0.15364 c 0,-4.75609 3.8059,-8.56196 8.56199,-8.56196 z" style="color:#000000;font-style:normal;font-variant:normal;font-weight:normal;font-stretch:normal;font-size:medium;line-height:normal;font-family:sans-serif;font-variant-ligatures:normal;font-variant-position:normal;font-variant-caps:normal;font-variant-numeric:normal;font-variant-alternates:normal;font-feature-settings:normal;text-indent:0;text-align:start;text-decoration:none;text-decoration-line:none;text-decoration-style:solid;text-decoration-color:#000000;letter-spacing:normal;word-spacing:normal;text-transform:none;writing-mode:lr-tb;direction:ltr;text-orientation:mixed;dominant-baseline:auto;baseline-shift:baseline;text-anchor:start;white-space:normal;shape-padding:0;clip-rule:nonzero;display:inline;overflow:visible;visibility:visible;opacity:1;isolation:auto;mix-blend-mode:normal;color-interpolation:sRGB;color-interpolation-filters:linearRGB;solid-color:#000000;solid-opacity:1;vector-effect:none;fill:url(#linearGradient8839-2-0);fill-opacity:1;fill-rule:nonzero;stroke:none;stroke-width:1.33324897;stroke-linecap:butt;stroke-linejoin:miter;stroke-miterlimit:4;stroke-dasharray:none;stroke-dashoffset:0;stroke-opacity:1;paint-order:normal;color-rendering:auto;image-rendering:auto;shape-rendering:auto;text-rendering:auto;enable-background:accumulate" sodipodi:nodetypes="ssssssssssssssssss"/>
      <path style="color:#000000;clip-rule:nonzero;display:inline;overflow:visible;visibility:visible;opacity:1;isolation:auto;mix-blend-mode:normal;color-interpolation:sRGB;color-interpolation-filters:linearRGB;solid-color:#000000;solid-opacity:1;vector-effect:none;fill:#000000;fill-opacity:0.1875;fill-rule:nonzero;stroke:none;stroke-width:0.76964462;stroke-linecap:butt;stroke-linejoin:miter;stroke-miterlimit:4;stroke-dasharray:none;stroke-dashoffset:0;stroke-opacity:0.19791667;marker:none;marker-start:none;marker-mid:none;marker-end:none;paint-order:fill markers stroke;color-rendering:auto;image-rendering:auto;shape-rendering:auto;text-rendering:auto;enable-background:accumulate" d="m 227.33561,224.67099 c -1.47267,0 -2.6665,1.19383 -2.6665,2.6665 0,1.47267 1.19383,2.6665 2.6665,2.6665 1.47266,0 2.66649,-1.19384 2.66649,-2.6665 0,-1.47266 -1.19383,-2.6665 -2.66649,-2.6665 z m 88.32692,0 c -1.47267,0 -2.6665,1.19383 -2.6665,2.6665 0,1.47267 1.19383,2.6665 2.6665,2.6665 1.47267,0 2.6665,-1.19383 2.6665,-2.6665 0,-1.47267 -1.19383,-2.6665 -2.6665,-2.6665 z m -88.32692,89.32692 c -1.47267,0 -2.6665,1.19383 -2.6665,2.6665 0,1.47267 1.19383,2.6665 2.6665,2.6665 1.47266,0 2.66649,-1.19384 2.66649,-2.6665 0,-1.47266 -1.19383,-2.6665 -2.66649,-2.6665 z m 88.32692,0 c -1.47267,0 -2.6665,1.19383 -2.6665,2.6665 0,1.47267 1.19383,2.6665 2.6665,2.6665 1.47267,0 2.6665,-1.19383 2.6665,-2.6665 0,-1.47267 -1.19383,-2.6665 -2.6665,-2.6665 z" id="path8076-8" inkscape:connector-curvature="0" sodipodi:nodetypes="cccccccccccccccccccc"/>
      <path style="color:#000000;clip-rule:nonzero;display:inline;overflow:visible;visibility:visible;opacity:1;isolation:auto;mix-blend-mode:normal;color-interpolation:sRGB;color-interpolation-filters:linearRGB;solid-color:#000000;solid-opacity:1;vector-effect:none;fill:#000000;fill-opacity:0.31770833;fill-rule:nonzero;stroke:none;stroke-width:0.76964462;stroke-linecap:butt;stroke-linejoin:miter;stroke-miterlimit:4;stroke-dasharray:none;stroke-dashoffset:0;stroke-opacity:0.19791667;marker:none;marker-start:none;marker-mid:none;marker-end:none;paint-order:fill markers stroke;color-rendering:auto;image-rendering:auto;shape-rendering:auto;text-rendering:auto;enable-background:accumulate" d="m 229.98388,316.96508 c -0.14246,-1.35595 -1.28486,-2.38601 -2.64827,-2.38787 -1.35539,5.4e-4 -2.49474,1.01777 -2.64828,2.36444 -0.0109,-0.0916 -0.017,-0.18377 -0.0183,-0.27603 0,-1.47266 1.19384,-2.66649 2.6665,-2.66649 1.47266,0 2.66649,1.19383 2.66649,2.66649 -4.8e-4,0.10008 -0.007,0.20006 -0.0183,0.29946 z m 88.32692,0 c -0.14246,-1.35595 -1.28486,-2.38601 -2.64827,-2.38787 -1.35539,5.4e-4 -2.49473,1.01778 -2.64827,2.36444 -0.0109,-0.0916 -0.017,-0.18377 -0.0183,-0.27603 0,-1.47266 1.19384,-2.66649 2.6665,-2.66649 1.47266,0 2.6665,1.19383 2.6665,2.66649 -4.8e-4,0.10008 -0.007,0.20006 -0.0183,0.29946 z m -88.32692,-89.32692 c -0.14246,-1.35595 -1.28486,-2.38601 -2.64827,-2.38787 -1.35539,5.4e-4 -2.49474,1.01777 -2.64828,2.36443 -0.0109,-0.0916 -0.017,-0.18376 -0.0183,-0.27602 0,-1.47267 1.19383,-2.6665 2.6665,-2.6665 1.47266,0 2.66649,1.19384 2.66649,2.6665 -4.8e-4,0.10008 -0.007,0.20006 -0.0183,0.29946 z m 88.32692,0 c -0.14246,-1.35595 -1.28486,-2.38601 -2.64827,-2.38787 -1.35538,5.4e-4 -2.49473,1.01777 -2.64827,2.36443 -0.0109,-0.0916 -0.017,-0.18376 -0.0183,-0.27602 0,-1.47267 1.19383,-2.6665 2.6665,-2.6665 1.47267,0 2.6665,1.19383 2.6665,2.6665 -4.8e-4,0.10008 -0.007,0.20006 -0.0183,0.29946 z" id="path8095-4" inkscape:connector-curvature="0" sodipodi:nodetypes="cccccccccccccccccccccccccccccccc"/>
      <path inkscape:connector-curvature="0" id="path8220-3" d="m 229.98388,227.57829 c -0.14246,1.35595 -1.28486,2.38601 -2.64827,2.38787 -1.35539,-5.4e-4 -2.49474,-1.01777 -2.64828,-2.36444 -0.0109,0.0916 -0.017,0.18377 -0.0183,0.27603 0,1.47266 1.19384,2.66649 2.6665,2.66649 1.47266,0 2.66649,-1.19383 2.66649,-2.66649 -4.8e-4,-0.10008 -0.007,-0.20006 -0.0183,-0.29946 z m 88.32692,0 c -0.14246,1.35595 -1.28486,2.38601 -2.64827,2.38787 -1.35539,-5.4e-4 -2.49473,-1.01778 -2.64827,-2.36444 -0.0109,0.0916 -0.017,0.18377 -0.0183,0.27603 0,1.47266 1.19384,2.66649 2.6665,2.66649 1.47266,0 2.6665,-1.19383 2.6665,-2.66649 -4.8e-4,-0.10008 -0.007,-0.20006 -0.0183,-0.29946 z m -88.32692,89.32692 c -0.14246,1.35595 -1.28486,2.38601 -2.64827,2.38787 -1.35539,-5.4e-4 -2.49474,-1.01777 -2.64828,-2.36443 -0.0109,0.0916 -0.017,0.18376 -0.0183,0.27602 0,1.47267 1.19383,2.6665 2.6665,2.6665 1.47266,0 2.66649,-1.19384 2.66649,-2.6665 -4.8e-4,-0.10008 -0.007,-0.20006 -0.0183,-0.29946 z m 88.32692,0 c -0.14246,1.35595 -1.28486,2.38601 -2.64827,2.38787 -1.35538,-5.4e-4 -2.49473,-1.01777 -2.64827,-2.36443 -0.0109,0.0916 -0.017,0.18376 -0.0183,0.27602 0,1.47267 1.19383,2.6665 2.6665,2.6665 1.47267,0 2.6665,-1.19383 2.6665,-2.6665 -4.8e-4,-0.10008 -0.007,-0.20006 -0.0183,-0.29946 z" style="color:#000000;clip-rule:nonzero;display:inline;overflow:visible;visibility:visible;opacity:1;isolation:auto;mix-blend-mode:normal;color-interpolation:sRGB;color-interpolation-filters:linearRGB;solid-color:#000000;solid-opacity:1;vector-effect:none;fill:#ffffff;fill-opacity:0.921875;fill-rule:nonzero;stroke:none;stroke-width:0.76964462;stroke-linecap:butt;stroke-linejoin:miter;stroke-miterlimit:4;stroke-dasharray:none;stroke-dashoffset:0;stroke-opacity:0.19791667;marker:none;marker-start:none;marker-mid:none;marker-end:none;paint-order:fill markers stroke;color-rendering:auto;image-rendering:auto;shape-rendering:auto;text-rendering:auto;enable-background:accumulate" sodipodi:nodetypes="cccccccccccccccccccccccccccccccc"/>
      <path style="color:#000000;clip-rule:nonzero;display:block;overflow:visible;visibility:visible;opacity:1;isolation:auto;mix-blend-mode:normal;color-interpolation:sRGB;color-interpolation-filters:linearRGB;solid-color:#000000;solid-opacity:1;vector-effect:none;fill:#000000;fill-opacity:0.11458333;fill-rule:nonzero;stroke:none;stroke-width:1.09799767;stroke-linecap:butt;stroke-linejoin:miter;stroke-miterlimit:4;stroke-dasharray:none;stroke-dashoffset:0;stroke-opacity:0.59375;marker:none;marker-start:none;marker-mid:none;marker-end:none;paint-order:fill markers stroke;color-rendering:auto;image-rendering:auto;shape-rendering:auto;text-rendering:auto;enable-background:accumulate" d="m 219.33612,272.00095 h 104.32591 v 1.33325 H 219.33612 Z" id="rect8273-1" inkscape:connector-curvature="0" sodipodi:nodetypes="ccccc"/>
      <path style="color:#000000;clip-rule:nonzero;display:block;overflow:visible;visibility:visible;opacity:1;isolation:auto;mix-blend-mode:normal;color-interpolation:sRGB;color-interpolation-filters:linearRGB;solid-color:#000000;solid-opacity:1;vector-effect:none;fill:#ffffff;fill-opacity:0.72395833;fill-rule:nonzero;stroke:none;stroke-width:1.09799767;stroke-linecap:butt;stroke-linejoin:miter;stroke-miterlimit:4;stroke-dasharray:none;stroke-dashoffset:0;stroke-opacity:0.59375;marker:none;marker-start:none;marker-mid:none;marker-end:none;paint-order:fill markers stroke;color-rendering:auto;image-rendering:auto;shape-rendering:auto;text-rendering:auto;enable-background:accumulate" d="m 219.33612,273.3342 h 104.32591 v 1.33325 H 219.33612 Z" id="rect8275-4" inkscape:connector-curvature="0" sodipodi:nodetypes="ccccc"/>
      <circle style="display:inline;opacity:1;fill:#000000;fill-opacity:0.15686275;stroke:none;stroke-width:0.6392619;stroke-linejoin:miter;stroke-miterlimit:4.5999999;stroke-dasharray:none;stroke-opacity:0.19696972" id="circle4554-2-3-27-7" cx="287.2789" cy="297.9993" inkscape:label="circulo sombra" r="15.332363"/>
      <circle r="13.999114" cy="296.66605" cx="287.2789" id="path4221-7-5-9-8-0-4" style="display:inline;opacity:1;fill:url(#linearGradient33841-4);fill-opacity:1;stroke:none;stroke-width:0.55522484;stroke-linejoin:miter;stroke-miterlimit:4.5999999;stroke-dasharray:none;stroke-opacity:1" inkscape:label="circulo"/>
      <circle inkscape:label="circulo brillo" style="display:inline;opacity:1;fill:none;fill-opacity:1;stroke:#ffffff;stroke-width:1.27264619;stroke-linejoin:miter;stroke-miterlimit:4.5999999;stroke-dasharray:none;stroke-opacity:0.23706898" id="circle8782-9-4" cx="287.2789" cy="296.66605" r="13.362785"/>
      <circle transform="scale(-1,1)" inkscape:label="circulo sombra" r="15.332363" cy="248.66911" cx="-259.28091" id="circle4554-2-3-4-0-8" style="display:inline;opacity:1;fill:#000000;fill-opacity:0.15686275;stroke:none;stroke-width:0.6392619;stroke-linejoin:miter;stroke-miterlimit:4.5999999;stroke-dasharray:none;stroke-opacity:0.19696972"/>
      <circle r="13.999114" cy="247.33586" cx="259.28076" id="path4221-7-5-9-8-0-1-6" style="display:inline;opacity:1;vector-effect:none;fill:url(#linearGradient9139-6);fill-opacity:1;stroke:none;stroke-width:0.55522484;stroke-linecap:butt;stroke-linejoin:miter;stroke-miterlimit:4.5999999;stroke-dasharray:none;stroke-dashoffset:0;stroke-opacity:1" inkscape:label="circulo"/>
      <circle inkscape:label="circulo brillo" style="display:inline;opacity:1;fill:none;fill-opacity:1;stroke:#ffffff;stroke-width:1.27264619;stroke-linejoin:miter;stroke-miterlimit:4.5999999;stroke-dasharray:none;stroke-opacity:0.23706898" id="circle8782-9-3-8" cx="259.28076" cy="247.33586" r="13.362785"/>
    </g>
  </g>
</svg>