<?xml version="1.0" encoding="UTF-8" standalone="yes"?>
<svg xmlns:osb="http://www.openswatchbook.org/uri/2009/osb" xmlns:dc="http://purl.org/dc/elements/1.1/" xmlns:cc="http://creativecommons.org/ns#" xmlns:rdf="http://www.w3.org/1999/02/22-rdf-syntax-ns#" xmlns:svg="http://www.w3.org/2000/svg" xmlns="http://www.w3.org/2000/svg" xmlns:xlink="http://www.w3.org/1999/xlink" xmlns:sodipodi="http://sodipodi.sourceforge.net/DTD/sodipodi-0.dtd" xmlns:inkscape="http://www.inkscape.org/namespaces/inkscape" height="64" viewBox="0 0 64 64" width="64" id="svg2" version="1.1" inkscape:version="0.92.2 5c3e80d, 2017-08-06" sodipodi:docname="text-x-script.svg" enable-background="new" folder="64">
  <title id="title4675">Template icons dark</title>
  <metadata id="metadata24">
    <rdf:RDF>
      <cc:Work rdf:about="">
        <dc:format>image/svg+xml</dc:format>
        <dc:type rdf:resource="http://purl.org/dc/dcmitype/StillImage"/>
        <dc:title>Template icons dark</dc:title>
        <dc:date>17/05/13</dc:date>
        <dc:creator>
          <cc:Agent>
            <dc:title>wfpaisa</dc:title>
          </cc:Agent>
        </dc:creator>
        <dc:rights>
          <cc:Agent>
            <dc:title>License: GPLv3</dc:title>
          </cc:Agent>
        </dc:rights>
        <dc:language>es-en</dc:language>
        <dc:subject>
          <rdf:Bag>
            <rdf:li>plane-icon-theme</rdf:li>
          </rdf:Bag>
        </dc:subject>
        <dc:description>Template for create set icons</dc:description>
        <cc:license rdf:resource="https://www.gnu.org/licenses/gpl-3.0.en.html"/>
      </cc:Work>
    </rdf:RDF>
  </metadata>
  <defs id="defs22">
    <linearGradient id="Pestana-sombra-3" osb:paint="solid">
      <stop style="stop-color:#000000;stop-opacity:0.19553073;" offset="0" id="stop8273"/>
    </linearGradient>
    <linearGradient id="Hoja-brillo-8" osb:paint="solid">
      <stop style="stop-color:#ffffff;stop-opacity:0.05208333;" offset="0" id="stop8267"/>
    </linearGradient>
    <linearGradient id="Hoja-sombra-2_-2" osb:paint="solid">
      <stop style="stop-color:#000000;stop-opacity:0.00877193;" offset="0" id="stop8261"/>
    </linearGradient>
    <linearGradient id="Hoja-sombra-1_-9" osb:paint="solid">
      <stop style="stop-color:#000000;stop-opacity:0.02192982;" offset="0" id="stop8255"/>
    </linearGradient>
    <linearGradient id="Pestana-6">
      <stop id="stop7875" offset="0" style="stop-color:#525764;stop-opacity:1;"/>
      <stop id="stop7879" offset="1" style="stop-color:#464c57;stop-opacity:1;"/>
    </linearGradient>
    <linearGradient id="Hoja_-5">
      <stop id="stop7831" offset="0" style="stop-color:#494f5a;stop-opacity:1;"/>
      <stop id="stop7833" offset="1" style="stop-color:#494e5a;stop-opacity:1;"/>
    </linearGradient>
    <linearGradient inkscape:collect="always" xlink:href="#Hoja_-5" id="linearGradient8848" gradientUnits="userSpaceOnUse" gradientTransform="matrix(2.1943448,0,0,2.19615,107.37835,109.17328)" x1="24.116938" y1="4.9307919" x2="24.058121" y2="42.556389"/>
    <linearGradient inkscape:collect="always" xlink:href="#Pestana-6" id="linearGradient8852" gradientUnits="userSpaceOnUse" gradientTransform="matrix(2.5078225,0,0,2.19615,97.006583,108.93197)" x1="33.093815" y1="10.50385" x2="29.903797" y2="14.146588"/>
    <linearGradient inkscape:collect="always" xlink:href="#Hoja_-5" id="linearGradient7823-7" gradientUnits="userSpaceOnUse" x1="24.116938" y1="4.9307919" x2="24.058121" y2="42.556389" gradientTransform="matrix(1.1194338,0,0,1.1203548,-2.9435792,-2.6942142)"/>
    <linearGradient inkscape:collect="always" xlink:href="#Hoja-sombra-2" id="linearGradient7865-3" gradientUnits="userSpaceOnUse" gradientTransform="matrix(1.1194338,0,0,1.1203548,-2.9435792,-2.6942142)" x1="26.072924" y1="18.962273" x2="34.373611" y2="10.815324"/>
    <linearGradient inkscape:collect="always" xlink:href="#Pestana-6" id="linearGradient7825-6" gradientUnits="userSpaceOnUse" x1="34.176132" y1="10.27618" x2="30.758255" y2="13.691247" gradientTransform="matrix(1.2793529,0,0,1.1203548,-8.2346867,-2.8173169)"/>
    <linearGradient id="Hoja-16_-2">
      <stop style="stop-color:#ffffff;stop-opacity:0.25;" offset="0" id="stop7714"/>
      <stop style="stop-color:#ffffff;stop-opacity:0.28289473;" offset="1" id="stop7716"/>
    </linearGradient>
    <linearGradient inkscape:collect="always" xlink:href="#Hoja_-5" id="linearGradient7909" gradientUnits="userSpaceOnUse" gradientTransform="matrix(1.4628966,0,0,1.4641001,44.91893,46.115528)" x1="24.116938" y1="4.9307919" x2="24.058121" y2="42.556389"/>
    <linearGradient inkscape:collect="always" xlink:href="#Hoja-sombra-2" id="linearGradient7911" gradientUnits="userSpaceOnUse" gradientTransform="matrix(1.4628966,0,0,1.4641001,44.91893,46.115528)" x1="26.072924" y1="18.962273" x2="34.373611" y2="10.815324"/>
    <linearGradient inkscape:collect="always" xlink:href="#Pestana-6" id="linearGradient7913" gradientUnits="userSpaceOnUse" gradientTransform="matrix(1.6718818,0,0,1.4641001,38.00441,45.954658)" x1="34.176132" y1="10.27618" x2="30.758255" y2="13.691247"/>
    <linearGradient inkscape:collect="always" xlink:href="#Hoja-sombra-2" id="linearGradient8850-3" gradientUnits="userSpaceOnUse" gradientTransform="matrix(2.1943448,0,0,2.19615,107.37835,109.17328)" x1="23.980556" y1="23.143555" x2="45.854969" y2="1.2871252"/>
    <linearGradient inkscape:collect="always" xlink:href="#Hoja-sombra-2" id="linearGradient4621" gradientUnits="userSpaceOnUse" gradientTransform="matrix(2.1943448,0,0,2.19615,107.37835,109.17328)" x1="23.980556" y1="23.143555" x2="2.1061459" y2="44.999985"/>
    <linearGradient inkscape:collect="always" xlink:href="#Hoja-sombra-2" id="linearGradient8301" gradientUnits="userSpaceOnUse" gradientTransform="matrix(2.1943448,0,0,2.19615,107.37835,109.17328)" x1="23.980556" y1="23.143555" x2="45.854969" y2="44.999985"/>
    <linearGradient id="Hoja-sombra-2">
      <stop id="stop8303" offset="0" style="stop-color:#000000;stop-opacity:0"/>
      <stop id="stop8305" offset="1" style="stop-color:#000000;stop-opacity:0.10196079"/>
    </linearGradient>
    <linearGradient inkscape:collect="always" xlink:href="#Hoja-sombra-2" id="linearGradient7895" gradientUnits="userSpaceOnUse" gradientTransform="matrix(2.1943448,0,0,2.19615,107.37835,109.17328)" x1="23.980556" y1="23.143555" x2="2.1061459" y2="1.2871252"/>
    <linearGradient inkscape:collect="always" xlink:href="#Hoja_-5" id="linearGradient7818" gradientUnits="userSpaceOnUse" gradientTransform="matrix(0.74628918,0,0,0.74690318,-33.962385,-33.796142)" x1="24.116938" y1="4.9307919" x2="24.058121" y2="42.556389"/>
    <linearGradient inkscape:collect="always" xlink:href="#Pestana-6" id="linearGradient7822" gradientUnits="userSpaceOnUse" gradientTransform="matrix(0.85290191,0,0,0.74690318,-37.489791,-33.878211)" x1="28.713491" y1="15.702977" x2="25.196087" y2="18.581003"/>
    <linearGradient inkscape:collect="always" xlink:href="#Hoja-sombra-1_-9" id="linearGradient8259" x1="125.99999" y1="161.5" x2="193.99999" y2="161.5" gradientUnits="userSpaceOnUse"/>
    <linearGradient inkscape:collect="always" xlink:href="#Hoja-sombra-2_-2" id="linearGradient8265" x1="125" y1="161.49999" x2="195" y2="161.49999" gradientUnits="userSpaceOnUse"/>
    <linearGradient inkscape:collect="always" xlink:href="#Hoja-brillo-8" id="linearGradient8271" x1="126.99999" y1="120.5" x2="168.99999" y2="120.5" gradientUnits="userSpaceOnUse"/>
    <linearGradient inkscape:collect="always" xlink:href="#Pestana-sombra-3" id="linearGradient8277" x1="165.99999" y1="133.47244" x2="192.99999" y2="133.47244" gradientUnits="userSpaceOnUse"/>
    <linearGradient gradientTransform="matrix(1.33333,0,0,1.33333,58.6672,56.167208)" inkscape:collect="always" xlink:href="#Hoja-sombra-2_-2" id="linearGradient8265-7" x1="125" y1="161.49998" x2="195" y2="161.49998" gradientUnits="userSpaceOnUse"/>
    <linearGradient gradientTransform="matrix(1.33333,0,0,1.33333,58.6672,56.167208)" inkscape:collect="always" xlink:href="#Hoja-sombra-1_-9" id="linearGradient8259-9" x1="125.99999" y1="161.5" x2="193.99998" y2="161.5" gradientUnits="userSpaceOnUse"/>
    <linearGradient inkscape:collect="always" xlink:href="#Hoja_-5" id="linearGradient8848-4" gradientUnits="userSpaceOnUse" gradientTransform="matrix(2.9257858,0,0,2.9281927,201.83798,201.73122)" x1="24.116938" y1="4.9307919" x2="24.058121" y2="42.556389"/>
    <linearGradient inkscape:collect="always" xlink:href="#Hoja-sombra-2" id="linearGradient8301-3" gradientUnits="userSpaceOnUse" gradientTransform="matrix(2.9257858,0,0,2.9281927,201.83798,201.73122)" x1="23.980556" y1="23.143555" x2="45.854969" y2="44.999985"/>
    <linearGradient inkscape:collect="always" xlink:href="#Hoja-sombra-2" id="linearGradient4621-0" gradientUnits="userSpaceOnUse" gradientTransform="matrix(2.9257858,0,0,2.9281927,201.83798,201.73122)" x1="23.980556" y1="23.143555" x2="2.1061459" y2="44.999985"/>
    <linearGradient inkscape:collect="always" xlink:href="#Hoja-sombra-2" id="linearGradient8850-3-8" gradientUnits="userSpaceOnUse" gradientTransform="matrix(2.9257858,0,0,2.9281927,201.83798,201.73122)" x1="23.980556" y1="23.143555" x2="45.854969" y2="1.2871252"/>
    <linearGradient inkscape:collect="always" xlink:href="#Hoja-sombra-2" id="linearGradient7895-1" gradientUnits="userSpaceOnUse" gradientTransform="matrix(2.9257858,0,0,2.9281927,201.83798,201.73122)" x1="23.980556" y1="23.143555" x2="2.1061459" y2="1.2871252"/>
    <linearGradient gradientTransform="matrix(1.33333,0,0,1.33333,58.6672,56.167208)" inkscape:collect="always" xlink:href="#Hoja-brillo-8" id="linearGradient8271-9" x1="126.99999" y1="120.5" x2="168.99998" y2="120.5" gradientUnits="userSpaceOnUse"/>
    <linearGradient gradientTransform="matrix(1.33333,0,0,1.33333,58.6672,56.167208)" inkscape:collect="always" xlink:href="#Pestana-sombra-3" id="linearGradient8277-7" x1="165.99998" y1="133.47244" x2="192.99998" y2="133.47244" gradientUnits="userSpaceOnUse"/>
    <linearGradient inkscape:collect="always" xlink:href="#Pestana-6" id="linearGradient8852-2" gradientUnits="userSpaceOnUse" gradientTransform="matrix(3.343755,0,0,2.9281927,188.00898,201.40947)" x1="33.093815" y1="10.50385" x2="29.903797" y2="14.146588"/>
  </defs>
  <sodipodi:namedview pagecolor="#ffffff" bordercolor="#ffffff" borderopacity="0.62745098" objecttolerance="4" gridtolerance="10" guidetolerance="4" inkscape:pageopacity="1" inkscape:pageshadow="2" inkscape:window-width="640" inkscape:window-height="480" id="namedview20" showgrid="true" inkscape:zoom="23.10501" inkscape:cx="-47.849288" inkscape:cy="92.692627" inkscape:current-layer="layer8" inkscape:snap-smooth-nodes="false" showguides="true" borderlayer="true" inkscape:showpageshadow="false" inkscape:guide-bbox="true" guidecolor="#bd4fff" guideopacity="0.78431373" inkscape:snap-nodes="true" inkscape:lockguides="false" fit-margin-top="0" fit-margin-left="0" fit-margin-right="0" fit-margin-bottom="0" guidehicolor="#ff0101" guidehiopacity="0.78431373" inkscape:snap-page="true" inkscape:object-nodes="true" inkscape:snap-bbox="true" inkscape:snap-global="true" inkscape:snap-object-midpoints="false" inkscape:snap-bbox-edge-midpoints="false">
    <inkscape:grid type="xygrid" id="grid4171" empspacing="4" dotted="false" originx="2.7755576e-17" originy="0" spacingx="1" spacingy="1" color="#000000" opacity="0.07843137" empcolor="#000000" empopacity="0.17254902" visible="true"/>
    <inkscape:grid type="axonomgrid" id="grid4699" units="mm" empspacing="4" color="#5a5a5a" opacity="0.23529412" empcolor="#5a5a5a" empopacity="0.47058824" gridanglex="45" gridanglez="45" spacingy="3.7795276" visible="false" originx="1.3228346" originy="1.3228346"/>
    <sodipodi:guide position="48,0" orientation="1,0" id="guide4568" inkscape:locked="false" inkscape:label="" inkscape:color="rgb(189,79,255)"/>
    <sodipodi:guide position="111.99996,-3.9999999e-05" orientation="0,1" id="guide4570" inkscape:locked="false" inkscape:label="" inkscape:color="rgb(189,79,255)"/>
    <sodipodi:guide position="0,0" orientation="1,0" id="guide4572" inkscape:locked="false" inkscape:label="" inkscape:color="rgb(189,79,255)"/>
    <sodipodi:guide position="0,48" orientation="0,1" id="guide4574" inkscape:locked="false" inkscape:label="" inkscape:color="rgb(189,79,255)"/>
    <sodipodi:guide position="0,80" orientation="0,1" id="guide4576" inkscape:locked="false" inkscape:label="" inkscape:color="rgb(189,79,255)"/>
    <sodipodi:guide position="-32,48" orientation="1,0" id="guide4578" inkscape:locked="false" inkscape:label="" inkscape:color="rgb(189,79,255)"/>
    <sodipodi:guide position="-32,104" orientation="0,1" id="guide4580" inkscape:locked="false" inkscape:label="" inkscape:color="rgb(189,79,255)"/>
    <sodipodi:guide position="-56,80" orientation="1,0" id="guide4582" inkscape:locked="false" inkscape:label="" inkscape:color="rgb(189,79,255)"/>
    <sodipodi:guide position="48,-64" orientation="0,1" id="guide4584" inkscape:locked="false" inkscape:label="" inkscape:color="rgb(189,79,255)"/>
    <sodipodi:guide position="0,0" orientation="-0.70710678,0.70710678" id="guide4588" inkscape:locked="false" inkscape:label="" inkscape:color="rgb(189,79,255)"/>
    <sodipodi:guide position="-56,80" orientation="-0.70710678,0.70710678" id="guide4573" inkscape:locked="false" inkscape:label="" inkscape:color="rgb(189,79,255)"/>
    <sodipodi:guide position="-32,48" orientation="-0.70710678,0.70710678" id="guide4575" inkscape:locked="false" inkscape:label="" inkscape:color="rgb(189,79,255)"/>
    <sodipodi:guide position="48,-64" orientation="-0.70710678,0.70710678" id="guide4577" inkscape:locked="false" inkscape:label="" inkscape:color="rgb(189,79,255)"/>
    <sodipodi:guide position="47.999962,0" orientation="0.70710678,0.70710678" id="guide4697" inkscape:locked="false" inkscape:label="" inkscape:color="rgb(189,79,255)"/>
    <sodipodi:guide position="207.99995,-288" orientation="0,1" id="guide7833" inkscape:locked="false"/>
    <sodipodi:guide position="335.99994,-288" orientation="1,0" id="guide7835" inkscape:locked="false" inkscape:label="" inkscape:color="rgb(189,79,255)"/>
    <sodipodi:guide position="111.99996,-64" orientation="1,0" id="guide7915" inkscape:locked="false"/>
    <sodipodi:guide position="111.99996,-160" orientation="0,1" id="guide7917" inkscape:locked="false"/>
    <sodipodi:guide position="207.99996,-160" orientation="1,0" id="guide7919" inkscape:locked="false"/>
    <sodipodi:guide position="111.99996,-160" orientation="-0.70710678,0.70710678" id="guide7921" inkscape:locked="false" inkscape:label="" inkscape:color="rgb(189,79,255)"/>
    <sodipodi:guide position="207.99996,-288" orientation="-0.70710678,0.70710678" id="guide7923" inkscape:locked="false" inkscape:label="" inkscape:color="rgb(189,79,255)"/>
    <sodipodi:guide position="-72,104" orientation="1,0" id="guide7824" inkscape:locked="false"/>
    <sodipodi:guide position="-56,120" orientation="0,1" id="guide7826" inkscape:locked="false"/>
    <sodipodi:guide position="-72,104" orientation="-0.70710678,0.70710678" id="guide7828" inkscape:locked="false" inkscape:label="" inkscape:color="rgb(189,79,255)"/>
  </sodipodi:namedview>
  <g inkscape:groupmode="layer" id="g7907" inkscape:label="icon_64" style="display:inline" transform="translate(-48,-48)">
    <g inkscape:groupmode="layer" id="g7843" inkscape:label="frame" style="display:none">
      <rect inkscape:label="frame_64" y="48" x="48" height="64" width="64" id="rect7837" style="color:#000000;clip-rule:nonzero;display:inline;overflow:visible;visibility:visible;opacity:1;isolation:auto;mix-blend-mode:normal;color-interpolation:sRGB;color-interpolation-filters:linearRGB;solid-color:#000000;solid-opacity:1;vector-effect:none;fill:#000000;fill-opacity:1;fill-rule:nonzero;stroke:#ff24f7;stroke-width:0;stroke-linecap:square;stroke-linejoin:miter;stroke-miterlimit:4;stroke-dasharray:none;stroke-dashoffset:0;stroke-opacity:0.99481865;marker:none;marker-start:none;marker-mid:none;marker-end:none;paint-order:normal;color-rendering:auto;image-rendering:auto;shape-rendering:auto;text-rendering:auto;enable-background:accumulate"/>
      <text xml:space="preserve" style="font-size:16px;line-height:0%;font-family:sans-serif;letter-spacing:0px;word-spacing:0px;display:inline;opacity:1;fill:#ffffff;fill-opacity:1;stroke:none;stroke-width:0.03278551px;stroke-linecap:butt;stroke-linejoin:miter;stroke-opacity:1" x="69.816406" y="85.824219" id="text7841" inkscape:label="txt_64">
        <tspan sodipodi:role="line" x="69.816406" y="85.824219" style="font-size:16px;line-height:0%;fill:#ffffff;fill-opacity:1;stroke:none;stroke-width:0.03278551px" id="tspan7839">64</tspan>
      </text>
    </g>
    <g inkscape:groupmode="layer" id="g7905" inkscape:label="icon" style="display:inline">
      <path inkscape:label="Hoja sombra" sodipodi:nodetypes="cccccc" inkscape:connector-curvature="0" id="path7845" d="m 57,51.999958 h 29.01574 l 16.98426,17 V 109.99996 H 57 Z" style="color:#000000;clip-rule:nonzero;display:inline;overflow:visible;visibility:visible;opacity:1;isolation:auto;mix-blend-mode:normal;color-interpolation:sRGB;color-interpolation-filters:linearRGB;solid-color:#000000;solid-opacity:1;vector-effect:none;fill:url(#linearGradient8259);fill-opacity:1;fill-rule:nonzero;stroke:none;stroke-width:0.85190946;stroke-linecap:butt;stroke-linejoin:miter;stroke-miterlimit:4;stroke-dasharray:none;stroke-dashoffset:0;stroke-opacity:1;marker:none;marker-start:none;marker-mid:none;marker-end:none;paint-order:fill markers stroke;color-rendering:auto;image-rendering:auto;shape-rendering:auto;text-rendering:auto;enable-background:accumulate"/>
      <path style="color:#000000;clip-rule:nonzero;display:inline;overflow:visible;visibility:visible;opacity:1;isolation:auto;mix-blend-mode:normal;color-interpolation:sRGB;color-interpolation-filters:linearRGB;solid-color:#000000;solid-opacity:1;vector-effect:none;fill:url(#linearGradient7909);fill-opacity:1;fill-rule:nonzero;stroke:none;stroke-width:0.55247194;stroke-linecap:butt;stroke-linejoin:miter;stroke-miterlimit:4;stroke-dasharray:none;stroke-dashoffset:0;stroke-opacity:1;marker:none;marker-start:none;marker-mid:none;marker-end:none;paint-order:fill markers stroke;color-rendering:auto;image-rendering:auto;shape-rendering:auto;text-rendering:auto;enable-background:accumulate" d="m 58,52.999958 h 28 l 16,16 c 1.7e-4,13.11112 0,40.000002 0,40.000002 H 58 c -3e-5,-18.444452 -1e-5,-37.555552 0,-56.000002 z" id="path7847" inkscape:connector-curvature="0" sodipodi:nodetypes="cccccc" inkscape:label="Hoja"/>
      <path inkscape:label="Hoja sombra sobre derecha" sodipodi:nodetypes="cccccc" inkscape:connector-curvature="0" id="path7849" d="m 58,52.999958 h 28 l 16,16 c 1.7e-4,13.11112 -2.6e-4,26.88888 0,40.000002 H 58 Z" style="color:#000000;clip-rule:nonzero;display:inline;overflow:visible;visibility:visible;opacity:1;isolation:auto;mix-blend-mode:normal;color-interpolation:sRGB;color-interpolation-filters:linearRGB;solid-color:#000000;solid-opacity:1;vector-effect:none;fill:url(#linearGradient7911);fill-opacity:1;fill-rule:nonzero;stroke:none;stroke-width:0.55247194;stroke-linecap:butt;stroke-linejoin:miter;stroke-miterlimit:4;stroke-dasharray:none;stroke-dashoffset:0;stroke-opacity:1;marker:none;marker-start:none;marker-mid:none;marker-end:none;paint-order:fill markers stroke;color-rendering:auto;image-rendering:auto;shape-rendering:auto;text-rendering:auto;enable-background:accumulate"/>
      <path sodipodi:nodetypes="cccc" inkscape:connector-curvature="0" id="path7901" d="m 86,52.999958 16,16 -18,2 z" style="display:inline;opacity:1;vector-effect:none;fill:url(#linearGradient8277);fill-opacity:1;fill-rule:evenodd;stroke:none;stroke-width:2.19524717px;stroke-linecap:butt;stroke-linejoin:miter;stroke-miterlimit:4;stroke-dasharray:none;stroke-dashoffset:0;stroke-opacity:1" inkscape:label="Pestaña sombra"/>
      <path style="fill:url(#linearGradient7913);fill-opacity:1;fill-rule:evenodd;stroke:none;stroke-width:1.56454539px;stroke-linecap:butt;stroke-linejoin:miter;stroke-opacity:1" d="m 86,52.999958 16,16 H 86 Z" id="path7903" inkscape:connector-curvature="0" sodipodi:nodetypes="cccc" inkscape:label="Pestaña"/>
      <rect inkscape:label="bordepagina" y="53" x="57.99329" height="56" width="7.0067101" id="rect9542-06-9" style="color:#000000;font-size:2.66666675px;line-height:120.00000477%;font-family:sans-serif;letter-spacing:0px;word-spacing:0px;clip-rule:nonzero;display:inline;overflow:visible;visibility:visible;opacity:1;isolation:auto;mix-blend-mode:normal;color-interpolation:sRGB;color-interpolation-filters:linearRGB;solid-color:#000000;solid-opacity:1;vector-effect:none;fill:#121823;fill-opacity:0.10994765;fill-rule:nonzero;stroke:none;stroke-width:0.43075848;stroke-linecap:butt;stroke-linejoin:miter;stroke-miterlimit:4;stroke-dasharray:none;stroke-dashoffset:0;stroke-opacity:1;marker:none;marker-start:none;marker-mid:none;marker-end:none;paint-order:fill markers stroke;color-rendering:auto;image-rendering:auto;shape-rendering:auto;text-rendering:auto;enable-background:accumulate"/>
      <text xml:space="preserve" style="font-size:2.69879508px;line-height:162.99999952%;font-family:sans-serif;text-align:end;letter-spacing:0px;word-spacing:0px;text-anchor:end;display:inline;fill:#ffffff;fill-opacity:0.96551723;stroke:none;stroke-width:0.33734939;stroke-linecap:butt;stroke-linejoin:miter;stroke-miterlimit:4;stroke-dasharray:none;stroke-opacity:1" x="63.018574" y="64.687073" id="text7972-0-2" inkscape:label="ident numeros">
        <tspan sodipodi:role="line" id="tspan7970-6-0" x="63.018574" y="64.687073" style="font-style:normal;font-variant:normal;font-weight:normal;font-stretch:normal;font-size:2.69879508px;line-height:162.99999952%;font-family:sans-serif;-inkscape-font-specification:sans-serif;text-align:end;text-anchor:end;fill:#ffffff;fill-opacity:0.96551723;stroke:none;stroke-width:0.33734939;stroke-miterlimit:4;stroke-dasharray:none;stroke-opacity:1">1.</tspan>
        <tspan sodipodi:role="line" x="63.018574" y="69.086105" style="font-style:normal;font-variant:normal;font-weight:normal;font-stretch:normal;font-size:2.69879508px;line-height:162.99999952%;font-family:sans-serif;-inkscape-font-specification:sans-serif;text-align:end;text-anchor:end;fill:#ffffff;fill-opacity:0.96551723;stroke:none;stroke-width:0.33734939;stroke-miterlimit:4;stroke-dasharray:none;stroke-opacity:1" id="tspan7978-1-2">2.</tspan>
        <tspan sodipodi:role="line" x="63.018574" y="73.485146" style="font-style:normal;font-variant:normal;font-weight:normal;font-stretch:normal;font-size:2.69879508px;line-height:162.99999952%;font-family:sans-serif;-inkscape-font-specification:sans-serif;text-align:end;text-anchor:end;fill:#ffffff;fill-opacity:0.96551723;stroke:none;stroke-width:0.33734939;stroke-miterlimit:4;stroke-dasharray:none;stroke-opacity:1" id="tspan7980-5-3">3.</tspan>
        <tspan sodipodi:role="line" x="63.018574" y="77.884178" style="font-style:normal;font-variant:normal;font-weight:normal;font-stretch:normal;font-size:2.69879508px;line-height:162.99999952%;font-family:sans-serif;-inkscape-font-specification:sans-serif;text-align:end;text-anchor:end;fill:#ffffff;fill-opacity:0.96551723;stroke:none;stroke-width:0.33734939;stroke-miterlimit:4;stroke-dasharray:none;stroke-opacity:1" id="tspan7982-5-7">4.</tspan>
        <tspan sodipodi:role="line" x="63.018574" y="82.283218" style="font-style:normal;font-variant:normal;font-weight:normal;font-stretch:normal;font-size:2.69879508px;line-height:162.99999952%;font-family:sans-serif;-inkscape-font-specification:sans-serif;text-align:end;text-anchor:end;fill:#ffffff;fill-opacity:0.96551723;stroke:none;stroke-width:0.33734939;stroke-miterlimit:4;stroke-dasharray:none;stroke-opacity:1" id="tspan7984-4-5">5.</tspan>
        <tspan sodipodi:role="line" x="63.018574" y="86.682251" style="font-style:normal;font-variant:normal;font-weight:normal;font-stretch:normal;font-size:2.69879508px;line-height:162.99999952%;font-family:sans-serif;-inkscape-font-specification:sans-serif;text-align:end;text-anchor:end;fill:#ffffff;fill-opacity:0.96551723;stroke:none;stroke-width:0.33734939;stroke-miterlimit:4;stroke-dasharray:none;stroke-opacity:1" id="tspan7986-7-9">6.</tspan>
        <tspan sodipodi:role="line" x="63.018574" y="91.081291" style="font-style:normal;font-variant:normal;font-weight:normal;font-stretch:normal;font-size:2.69879508px;line-height:162.99999952%;font-family:sans-serif;-inkscape-font-specification:sans-serif;text-align:end;text-anchor:end;fill:#ffffff;fill-opacity:0.96551723;stroke:none;stroke-width:0.33734939;stroke-miterlimit:4;stroke-dasharray:none;stroke-opacity:1" id="tspan7988-6-2">7.</tspan>
        <tspan sodipodi:role="line" x="63.018574" y="95.480324" style="font-style:normal;font-variant:normal;font-weight:normal;font-stretch:normal;font-size:2.69879508px;line-height:162.99999952%;font-family:sans-serif;-inkscape-font-specification:sans-serif;text-align:end;text-anchor:end;fill:#ffffff;fill-opacity:0.96551723;stroke:none;stroke-width:0.33734939;stroke-miterlimit:4;stroke-dasharray:none;stroke-opacity:1" id="tspan7990-5-2">8.</tspan>
        <tspan sodipodi:role="line" x="63.018574" y="99.879364" style="font-style:normal;font-variant:normal;font-weight:normal;font-stretch:normal;font-size:2.69879508px;line-height:162.99999952%;font-family:sans-serif;-inkscape-font-specification:sans-serif;text-align:end;text-anchor:end;fill:#ffffff;fill-opacity:0.96551723;stroke:none;stroke-width:0.33734939;stroke-miterlimit:4;stroke-dasharray:none;stroke-opacity:1" id="tspan9386-6-8">9.</tspan>
      </text>
      <g aria-label="&lt;!DOCTYPE html> &lt;html lang=&quot;en&quot;> &lt;head>   &lt;meta charset=&quot;UTF-8&quot;>   &lt;title>Document&lt;/title> &lt;/head> &lt;body>   &lt;/body> &lt;/html>" style="font-size:2.66666675px;line-height:120.00000477%;font-family:sans-serif;letter-spacing:0px;word-spacing:0px;display:inline;fill:#344f67;fill-opacity:0.89005283;stroke:none;stroke-width:1px;stroke-linecap:butt;stroke-linejoin:miter;stroke-opacity:1" id="text8684-9-9" transform="matrix(0.84381968,0,0,0.84381968,3.328365,-50.22073)" inkscape:label="code">
        <path style="font-size:2.66666675px;line-height:120.00000477%;fill:#c3f7fe;fill-opacity:0.89012164;stroke:none;stroke-width:1.25066125px" d="m 141.09961,135.89844 -2.08789,0.75781 v 0.26953 l 2.08789,0.75781 v -0.29687 l -1.68164,-0.59375 1.68164,-0.59766 z m 19.33594,5.50781 v 0.9043 h 0.27734 v -0.9043 z m 0.61523,0 v 0.9043 h 0.27734 v -0.9043 z m -19.95117,0.49414 -2.08789,0.75781 v 0.26953 l 2.08789,0.75782 v -0.29688 l -1.68164,-0.59375 1.68164,-0.59765 z m 16.57422,0.42383 v 0.27344 h 2.08789 v -0.27344 z m 0,0.66406 v 0.27734 h 2.08789 v -0.27734 z m -16.57422,4.91406 -2.08789,0.75782 v 0.26953 l 2.08789,0.75781 v -0.29688 l -1.68164,-0.59374 1.68164,-0.59766 z m 9.03711,0 v 0.29688 l 1.67773,0.59766 -1.67773,0.59374 v 0.29688 l 2.08789,-0.75781 v -0.26953 z m 19.41797,5.50977 v 0.90234 h 0.27734 v -0.90234 z m 0.61523,0 v 0.90234 h 0.27735 v -0.90234 z m 10.6543,0 v 0.90234 h 0.27734 v -0.90234 z m 0.61523,0 v 0.90234 h 0.27735 v -0.90234 z m -37.54492,0.49219 -2.08789,0.75781 v 0.26953 l 2.08789,0.75781 v -0.29687 l -1.68164,-0.59375 1.68164,-0.59766 z m 38.5,0 v 0.29687 l 1.67578,0.59766 -1.67578,0.59375 v 0.29687 l 2.08789,-0.75781 v -0.26953 z m -15.60156,0.42382 v 0.27344 h 2.08789 v -0.27344 z m 0,0.66407 v 0.27734 h 2.08789 v -0.27734 z m 7.69726,4.42187 -0.8457,2.74024 h 0.27539 l 0.84766,-2.74024 z m -30.5957,0.49219 -2.08789,0.75781 v 0.26953 l 2.08789,0.75782 v -0.29688 l -1.68164,-0.59375 1.68164,-0.59766 z m 7.22656,0 v 0.29687 l 1.67774,0.59766 -1.67774,0.59375 v 0.29688 l 2.08789,-0.75782 v -0.26953 z m 22.16993,0 -2.0879,0.75781 v 0.26953 l 2.0879,0.75782 v -0.29688 l -1.68164,-0.59375 1.68164,-0.59766 z m 8.35351,0 v 0.29687 l 1.67774,0.59766 -1.67774,0.59375 v 0.29688 l 2.08789,-0.75782 v -0.26953 z m -39.3457,5.50977 -0.84571,2.74023 h 0.2754 l 0.84765,-2.74023 z m -1.19922,0.49218 -2.08789,0.75782 v 0.26953 l 2.08789,0.75781 v -0.29688 l -1.68164,-0.59375 1.68164,-0.59765 z m 10.16406,0 v 0.29688 l 1.67774,0.59765 -1.67774,0.59375 v 0.29688 l 2.08789,-0.75781 v -0.26953 z m -10.16406,6.00196 -2.08789,0.75781 v 0.27148 l 2.08789,0.75586 v -0.29492 l -1.68164,-0.5957 1.68164,-0.59766 z m 8.95312,0 v 0.29687 l 1.67774,0.59766 -1.67774,0.5957 v 0.29492 l 2.08789,-0.75586 v -0.27148 z m -7.7539,7.51172 -0.84571,2.74023 h 0.2754 l 0.84765,-2.74023 z m -1.19922,0.49414 -2.08789,0.75586 v 0.27148 l 2.08789,0.75586 v -0.29492 l -1.68164,-0.59571 1.68164,-0.59765 z m 10.08008,0 v 0.29492 l 1.67773,0.59765 -1.67773,0.59571 v 0.29492 l 2.08789,-0.75586 v -0.27148 z m -8.88086,5.50781 -0.84571,2.74023 h 0.2754 l 0.84765,-2.74023 z m -1.19922,0.49414 -2.08789,0.75586 v 0.27148 l 2.08789,0.75781 v -0.29687 l -1.68164,-0.5957 1.68164,-0.59766 z m 9.43555,0 v 0.29492 l 1.67578,0.59766 -1.67578,0.5957 v 0.29687 l 2.08789,-0.75781 v -0.27148 z" transform="matrix(0.79957699,0,0,0.79957699,-36.763543,26.37634)" id="path9171-37-7" inkscape:connector-curvature="0"/>
        <path style="font-size:2.66666675px;line-height:120.00000477%;fill:#c382ff;fill-opacity:1;stroke:none;stroke-width:1.25066125px" d="m 146.66797,135.36133 c -0.34198,0 -0.61513,0.11468 -0.82031,0.34375 -0.2041,0.22799 -0.30664,0.53366 -0.30664,0.91797 0,0.38432 0.10254,0.68998 0.30664,0.91797 0.20518,0.22798 0.47833,0.34179 0.82031,0.34179 0.34089,0 0.61426,-0.11381 0.81836,-0.34179 0.20411,-0.22908 0.30664,-0.53474 0.30664,-0.91797 0,-0.38431 -0.10253,-0.68998 -0.30664,-0.91797 -0.2041,-0.22907 -0.47747,-0.34375 -0.81836,-0.34375 z m 2.68555,0 c -0.36803,0 -0.65744,0.11208 -0.86914,0.33789 -0.21171,0.22473 -0.31836,0.533 -0.31836,0.92383 0,0.38974 0.10665,0.69801 0.31836,0.92383 0.2117,0.22472 0.50111,0.33593 0.86914,0.33593 0.1433,0 0.2801,-0.0195 0.4082,-0.0586 0.12919,-0.0391 0.25016,-0.0977 0.36523,-0.17578 v -0.34375 c -0.11073,0.10313 -0.22953,0.18139 -0.35547,0.23242 -0.12484,0.051 -0.2573,0.0762 -0.39843,0.0762 -0.27793,0 -0.49103,-0.0846 -0.63867,-0.2539 -0.14765,-0.17045 -0.22071,-0.41606 -0.22071,-0.73633 0,-0.32135 0.0731,-0.56697 0.22071,-0.73633 0.14764,-0.17044 0.36074,-0.25586 0.63867,-0.25586 0.14113,0 0.27359,0.0251 0.39843,0.0762 0.12594,0.051 0.24474,0.12929 0.35547,0.23242 v -0.34765 c -0.1129,-0.0771 -0.23408,-0.13386 -0.36328,-0.17188 -0.12811,-0.0391 -0.26468,-0.0586 -0.41015,-0.0586 z m -7.39844,0.043 v 1.0664 l 0.0351,0.58203 h 0.26368 l 0.0332,-0.58203 v -1.0664 z m 1.16015,0 v 2.43164 h 0.67579 c 0.46899,0 0.81368,-0.0984 1.03515,-0.29492 0.22148,-0.19651 0.33203,-0.50478 0.33203,-0.92383 0,-0.41689 -0.10968,-0.72255 -0.33008,-0.91797 -0.22038,-0.1965 -0.56594,-0.29492 -1.0371,-0.29492 z m 7.18555,0 v 0.27734 h 0.86328 v 2.1543 h 0.33203 v -2.1543 h 0.86133 v -0.25781 l 0.8457,1.2539 v 1.15821 h 0.33008 v -1.15821 l 0.86133,-1.27343 h -0.35351 l -0.66993,1 -0.67382,-1 h -0.33985 z m 4.41602,0 v 2.43164 h 0.32812 v -0.97656 h 0.41406 c 0.27251,0 0.47824,-0.0609 0.61719,-0.1836 0.14005,-0.12267 0.21094,-0.30499 0.21094,-0.54492 0,-0.23775 -0.0709,-0.41833 -0.21094,-0.54102 -0.13895,-0.12375 -0.34468,-0.18554 -0.61719,-0.18554 z m 2.01172,0 v 2.43164 h 1.5664 v -0.27735 h -1.23633 v -0.88086 h 1.15821 v -0.27539 h -1.15821 v -0.7207 h 1.20703 v -0.27734 z m -10.06055,0.22461 c 0.23884,0 0.42745,0.0876 0.56641,0.26562 0.14004,0.17805 0.21093,0.42128 0.21093,0.72852 0,0.30615 -0.0709,0.54852 -0.21093,0.72656 -0.13896,0.17804 -0.32757,0.26758 -0.56641,0.26758 -0.23884,0 -0.42918,-0.0895 -0.57031,-0.26758 -0.14005,-0.17804 -0.20899,-0.42041 -0.20899,-0.72656 0,-0.30724 0.0689,-0.55047 0.20899,-0.72852 0.14113,-0.17804 0.33147,-0.26562 0.57031,-0.26562 z m -3.22461,0.0469 h 0.39844 c 0.33546,0 0.58108,0.0746 0.73632,0.22656 0.15634,0.15091 0.23438,0.38915 0.23438,0.71485 0,0.32786 -0.078,0.56871 -0.23438,0.7207 -0.15524,0.15199 -0.40086,0.22852 -0.73632,0.22852 h -0.39844 z m 11.60156,0 h 0.41406 c 0.15309,0 0.27188,0.0399 0.35547,0.11914 0.0836,0.0793 0.125,0.19047 0.125,0.33594 0,0.14661 -0.0414,0.26063 -0.125,0.33984 -0.0836,0.0793 -0.20238,0.11719 -0.35547,0.11719 h -0.41406 z m -13.08984,1.7461 v 0.41406 h 0.33203 v -0.41406 z" transform="matrix(0.79957699,0,0,0.79957699,-36.763543,26.37634)" id="path9173-45-3" inkscape:connector-curvature="0"/>
        <path style="font-size:2.66666675px;line-height:120.00000477%;fill:#f7fd93;fill-opacity:0.89012164;stroke:none;stroke-width:1.25066125px" d="m 159.87695,135.30273 v 2.53321 h 0.30078 v -1.03125 c 0,-0.17805 0.0473,-0.31874 0.14063,-0.42188 0.0934,-0.10314 0.22105,-0.15429 0.38281,-0.15429 0.13465,0 0.23545,0.0431 0.30274,0.1289 0.0673,0.0858 0.10156,0.21606 0.10156,0.38867 v 1.08985 h 0.29883 v -1.09961 c 0,-0.25188 -0.0527,-0.44308 -0.16016,-0.57227 -0.10747,-0.13027 -0.26703,-0.19531 -0.47656,-0.19531 -0.12703,0 -0.23823,0.0277 -0.33594,0.082 -0.0966,0.0543 -0.18228,0.13448 -0.25391,0.24414 V 135.3027 Z M 162,135.49414 v 0.51758 h -0.21875 v 0.23437 H 162 v 0.99024 c 0,0.22798 0.0449,0.38385 0.13281,0.4707 0.0879,0.0858 0.24728,0.12891 0.47852,0.12891 h 0.30859 v -0.25 h -0.30859 c -0.12483,0 -0.20873,-0.0221 -0.25,-0.0645 -0.0402,-0.0423 -0.0586,-0.13642 -0.0586,-0.28515 v -0.99024 h 0.61719 v -0.23437 h -0.61719 v -0.51758 z m 2.19141,0.47461 c -0.13137,0 -0.24627,0.0269 -0.3418,0.0801 -0.0956,0.0532 -0.17577,0.13427 -0.24414,0.24609 v -0.2832 h -0.30274 v 1.82422 h 0.30274 v -1.03125 c 0,-0.17696 0.0447,-0.31679 0.13476,-0.41992 0.0901,-0.10423 0.21217,-0.15625 0.36524,-0.15625 0.12921,0 0.22329,0.0423 0.28515,0.12695 0.0619,0.0836 0.0938,0.21475 0.0938,0.39062 v 1.08985 h 0.30078 v -1.03125 c 0,-0.17805 0.0447,-0.31874 0.13476,-0.42188 0.0901,-0.10314 0.21389,-0.15429 0.36914,-0.15429 0.12704,0 0.22134,0.0423 0.28321,0.12695 0.0619,0.0847 0.0918,0.21583 0.0918,0.39062 v 1.08985 h 0.30078 v -1.09961 c 0,-0.24536 -0.0512,-0.43591 -0.15429,-0.56836 -0.10314,-0.13353 -0.24947,-0.19922 -0.43946,-0.19922 -0.14114,0 -0.26296,0.0317 -0.36718,0.0957 -0.10426,0.0641 -0.19466,0.16421 -0.26953,0.29883 -0.0445,-0.12812 -0.11367,-0.22568 -0.20704,-0.29297 -0.0923,-0.0673 -0.20349,-0.10156 -0.33593,-0.10156 z m -13.76172,5.33594 v 2.5332 h 0.30078 v -2.5332 z m 1.5664,0.66601 c -0.0977,0 -0.1996,0.0115 -0.30273,0.0332 -0.10314,0.0206 -0.20871,0.0514 -0.31836,0.0937 v 0.27734 c 0.0912,-0.0499 0.18636,-0.0883 0.28516,-0.11328 0.0988,-0.025 0.20046,-0.0371 0.30468,-0.0371 0.16394,0 0.29076,0.0373 0.38086,0.11328 0.0912,0.0749 0.13672,0.18243 0.13672,0.32031 v 0.0293 h -0.41992 c -0.2725,0 -0.47736,0.052 -0.61523,0.15625 -0.13679,0.10422 -0.20508,0.2577 -0.20508,0.46289 0,0.17587 0.0544,0.31656 0.16406,0.42188 0.11073,0.10422 0.25858,0.15625 0.44531,0.15625 0.14765,0 0.27295,-0.026 0.375,-0.0781 0.10208,-0.0532 0.18749,-0.13536 0.25586,-0.24609 v 0.27734 h 0.29883 v -1.03906 c 0,0 0,-0.002 0,-0.002 -3.4e-4,-0.27684 -0.0654,-0.48467 -0.19531,-0.6211 -0.13028,-0.13679 -0.32603,-0.20508 -0.58985,-0.20508 z m 2.28321,0 c -0.12703,0 -0.23823,0.0278 -0.33594,0.082 -0.0967,0.0543 -0.18033,0.1345 -0.25195,0.24415 v -0.28321 h -0.30274 v 1.82422 h 0.30274 v -1.03125 c 0,-0.17804 0.0453,-0.31678 0.13867,-0.41992 0.0934,-0.10314 0.22105,-0.15625 0.38281,-0.15625 0.13465,0 0.23545,0.0431 0.30273,0.12891 0.0673,0.0858 0.10157,0.21605 0.10157,0.38867 v 1.08984 h 0.29883 v -1.09961 c 0,-0.25187 -0.0527,-0.44308 -0.16016,-0.57226 -0.10747,-0.13028 -0.26704,-0.19532 -0.47656,-0.19532 z m 1.85351,0 c -0.22364,0 -0.40422,0.0854 -0.54101,0.25586 -0.13679,0.17045 -0.20508,0.39742 -0.20508,0.67969 0,0.28118 0.0683,0.50533 0.20508,0.67578 0.13679,0.17045 0.31737,0.25586 0.54101,0.25586 0.13462,0 0.25103,-0.0269 0.34766,-0.0801 0.0966,-0.0532 0.17446,-0.13276 0.23633,-0.24023 v 0.14844 c 0,0.20735 -0.0488,0.36279 -0.14649,0.46484 -0.0977,0.10314 -0.2449,0.1543 -0.4414,0.1543 -0.089,0 -0.17596,-0.0123 -0.26172,-0.0352 -0.0858,-0.0228 -0.17183,-0.0577 -0.25977,-0.10547 v 0.29102 c 0.0879,0.0326 0.17812,0.0571 0.27149,0.0723 0.0934,0.0163 0.19352,0.0234 0.29882,0.0234 0.28445,0 0.49494,-0.0746 0.63282,-0.22656 0.13788,-0.15091 0.20703,-0.38287 0.20703,-0.69336 v -1.59766 h -0.30078 v 0.27735 c -0.0619,-0.10749 -0.13971,-0.18704 -0.23633,-0.24024 -0.0966,-0.0532 -0.21304,-0.0801 -0.34766,-0.0801 z m 0.0742,0.25 c 0.16176,0 0.28598,0.0603 0.375,0.17969 0.0901,0.11942 0.13477,0.28678 0.13477,0.50391 0,0.21604 -0.0447,0.38448 -0.13477,0.5039 -0.089,0.11942 -0.21324,0.17969 -0.375,0.17969 -0.16068,0 -0.28685,-0.0603 -0.37695,-0.17969 -0.089,-0.11942 -0.13281,-0.28786 -0.13281,-0.5039 0,-0.21713 0.0438,-0.38449 0.13281,-0.50391 0.0901,-0.11942 0.21627,-0.17969 0.37695,-0.17969 z m -4.02344,0.70118 h 0.29883 v 0.0664 c 0,0.19541 -0.0514,0.35237 -0.15234,0.4707 -0.0999,0.11726 -0.23233,0.17579 -0.39844,0.17579 -0.12054,0 -0.21657,-0.0319 -0.28711,-0.0937 -0.0694,-0.063 -0.10351,-0.14751 -0.10351,-0.25391 0,-0.13354 0.0472,-0.22784 0.14062,-0.2832 0.0934,-0.0554 0.25986,-0.082 0.50195,-0.082 z m 3.92188,10.38671 v 2.53321 h 0.30078 v -1.0293 c 0,-0.17804 0.0473,-0.31874 0.14063,-0.42188 0.0934,-0.10313 0.22105,-0.15624 0.38281,-0.15624 0.13464,0 0.23545,0.0431 0.30273,0.1289 0.0673,0.0858 0.10156,0.21606 0.10156,0.38867 v 1.08985 h 0.29883 v -1.09961 c 0,-0.25187 -0.0527,-0.44307 -0.16015,-0.57227 -0.10749,-0.13028 -0.26704,-0.19531 -0.47657,-0.19531 -0.12701,0 -0.24018,0.0277 -0.33789,0.082 -0.0966,0.0543 -0.18033,0.13644 -0.25195,0.24609 v -0.99414 z m 9.33398,0.19141 v 0.51953 h -0.21875 v 0.23242 h 0.21875 v 0.99024 c 0,0.22798 0.0449,0.38581 0.13282,0.47265 0.0879,0.0858 0.24727,0.12696 0.47851,0.12696 h 0.30664 v -0.25 h -0.30664 c -0.12482,0 -0.20873,-0.0221 -0.25,-0.0645 -0.0402,-0.0423 -0.0606,-0.13642 -0.0606,-0.28515 v -0.99024 h 0.61719 v -0.23242 h -0.61719 V 153.5 Z m -10.37304,0.47461 c -0.28444,0 -0.50794,0.0854 -0.67188,0.25586 -0.16284,0.17045 -0.24414,0.40371 -0.24414,0.70117 0,0.29312 0.0804,0.52659 0.24219,0.69922 0.16176,0.17262 0.37962,0.25976 0.6543,0.25976 0.10096,0 0.19613,-0.01 0.28515,-0.0293 0.0901,-0.0195 0.17617,-0.0488 0.25977,-0.0879 v -0.27735 c -0.0847,0.0467 -0.1701,0.0816 -0.25586,0.10547 -0.0847,0.0228 -0.16902,0.0352 -0.25586,0.0352 -0.19433,0 -0.34565,-0.0629 -0.45313,-0.18555 -0.10748,-0.12376 -0.16211,-0.29697 -0.16211,-0.51953 0,-0.22255 0.0546,-0.3949 0.16211,-0.51758 0.10748,-0.12376 0.2588,-0.18554 0.45313,-0.18554 0.0868,0 0.17117,0.0113 0.25586,0.0351 0.0858,0.0228 0.17118,0.0588 0.25586,0.10547 v -0.28125 c -0.0825,-0.038 -0.16792,-0.0656 -0.25586,-0.084 -0.0879,-0.0195 -0.17725,-0.0293 -0.26953,-0.0293 z m 3.80664,0 c -0.0977,0 -0.19765,0.0115 -0.30078,0.0332 -0.10314,0.0206 -0.20871,0.0514 -0.31836,0.0937 v 0.27735 c 0.0912,-0.0499 0.18636,-0.0884 0.28515,-0.11329 0.0988,-0.025 0.20047,-0.0371 0.30469,-0.0371 0.16394,0 0.29075,0.0373 0.38086,0.11328 0.0912,0.0749 0.13672,0.18243 0.13672,0.32031 v 0.0293 h -0.41992 c -0.27251,0 -0.47932,0.052 -0.61719,0.15625 -0.13679,0.10422 -0.20508,0.25965 -0.20508,0.46484 0,0.17588 0.0564,0.31657 0.16602,0.42188 0.11073,0.10422 0.25858,0.15624 0.44531,0.15624 0.14764,1e-5 0.27294,-0.026 0.375,-0.0781 0.10208,-0.0532 0.18749,-0.13535 0.25586,-0.24609 v 0.27539 h 0.29883 v -1.03907 c 0,-0.27793 -0.065,-0.48625 -0.19532,-0.62304 -0.13027,-0.13679 -0.32798,-0.20508 -0.59179,-0.20508 z m 2.31054,0 c -0.14439,0 -0.26818,0.0277 -0.36914,0.082 -0.10098,0.0532 -0.18314,0.13535 -0.24609,0.24609 v -0.2832 h -0.30078 v 1.82227 h 0.30078 v -0.96094 c 0,-0.20628 0.0466,-0.36301 0.13672,-0.47266 0.0912,-0.11073 0.22127,-0.16601 0.39062,-0.16601 0.0478,0 0.0898,0.004 0.12891,0.0137 0.0401,0.009 0.0776,0.0235 0.11133,0.043 l -0.002,-0.3086 c -0.0304,-0.005 -0.0571,-0.007 -0.082,-0.01 -0.025,-0.003 -0.0478,-0.006 -0.0684,-0.006 z m 1.04883,0 c -0.22364,0 -0.39599,0.0473 -0.51758,0.14062 -0.12159,0.0934 -0.18164,0.22496 -0.18164,0.39649 0,0.1411 0.0405,0.25252 0.12305,0.33398 0.0825,0.0803 0.2167,0.14059 0.40234,0.17969 l 0.10547,0.0234 c 0.18565,0.0401 0.3051,0.0835 0.35938,0.12695 0.0554,0.0435 0.082,0.10417 0.082,0.18555 0,0.0879 -0.0373,0.15817 -0.11328,0.20703 -0.076,0.0478 -0.18504,0.0703 -0.32617,0.0703 -0.10532,0 -0.21089,-0.0127 -0.31836,-0.041 -0.10749,-0.0293 -0.2174,-0.0733 -0.32813,-0.13086 v 0.30859 c 0.11725,0.038 0.22867,0.0675 0.33399,0.0859 0.10639,0.0195 0.20893,0.0293 0.30664,0.0293 0.2345,0 0.4192,-0.0496 0.55273,-0.14843 0.13462,-0.0988 0.20117,-0.23298 0.20117,-0.40235 0,-0.14869 -0.0447,-0.26511 -0.13476,-0.34765 -0.089,-0.0836 -0.24034,-0.14775 -0.45313,-0.19336 l -0.10156,-0.0234 c -0.16068,-0.0358 -0.26907,-0.0722 -0.32227,-0.11133 -0.0532,-0.0402 -0.0801,-0.0946 -0.0801,-0.16406 0,-0.0912 0.0375,-0.15947 0.11132,-0.20508 0.0749,-0.0456 0.1872,-0.0684 0.33594,-0.0684 0.0977,0 0.19201,0.01 0.2832,0.0312 0.0912,0.0217 0.17899,0.0542 0.26368,0.0977 v -0.2832 c -0.0825,-0.0326 -0.17183,-0.056 -0.26953,-0.0723 -0.0977,-0.0163 -0.20372,-0.0254 -0.31446,-0.0254 z m 1.92383,0 c -0.27358,0 -0.49058,0.0878 -0.65234,0.26367 -0.16068,0.17479 -0.24219,0.41239 -0.24219,0.71094 0,0.28878 0.0846,0.51619 0.2539,0.68555 0.17045,0.16936 0.40241,0.25585 0.69336,0.25585 0.11617,10e-6 0.23084,-0.0133 0.34375,-0.0371 0.11291,-0.0239 0.2226,-0.0579 0.33008,-0.10352 v -0.2832 c -0.10639,0.0564 -0.2137,0.0987 -0.32226,0.12695 -0.10748,0.0283 -0.21891,0.043 -0.33399,0.043 -0.19867,0 -0.35302,-0.0546 -0.46484,-0.16211 -0.11076,-0.10857 -0.17254,-0.26638 -0.18555,-0.47266 h 1.37695 v -0.14648 c 0,-0.27141 -0.0715,-0.48516 -0.21484,-0.64258 -0.14222,-0.1585 -0.33668,-0.23828 -0.58203,-0.23828 z m 0.004,0.25391 c 0.14764,0 0.26644,0.0488 0.35546,0.14648 0.0898,0.0977 0.13422,0.22865 0.13672,0.39258 l -1.0664,0.002 c 0.0152,-0.17153 0.072,-0.30399 0.17187,-0.39844 0.10096,-0.0945 0.23515,-0.14257 0.40235,-0.14257 z m -5.09766,0.69726 h 0.29883 v 0.0664 c 0,0.19541 -0.0514,0.35236 -0.15235,0.4707 -0.0999,0.11725 -0.23233,0.17578 -0.39843,0.17578 -0.12054,0 -0.21658,-0.0299 -0.28711,-0.0918 -0.0695,-0.063 -0.10352,-0.14751 -0.10352,-0.25391 0,-0.13354 0.0453,-0.22784 0.13867,-0.2832 0.0934,-0.0554 0.26182,-0.084 0.50391,-0.084 z" transform="matrix(0.79957699,0,0,0.79957699,-36.763543,26.37634)" id="path9189-2-61" inkscape:connector-curvature="0"/>
        <path style="font-size:2.66666675px;line-height:120.00000477%;fill:#66efff;fill-opacity:1;stroke:none;stroke-width:1.25066125px" d="m 141.75586,141.30469 v 2.5332 h 0.30078 v -1.03125 c 0,-0.17804 0.0473,-0.31678 0.14063,-0.41992 0.0934,-0.10314 0.22105,-0.15625 0.38281,-0.15625 0.13464,0 0.23545,0.0431 0.30273,0.12891 0.0673,0.0858 0.0996,0.21605 0.0996,0.38867 v 1.08984 h 0.30078 v -1.09961 c 0,-0.25187 -0.0546,-0.44308 -0.16211,-0.57226 -0.10748,-0.13028 -0.26508,-0.19532 -0.47461,-0.19532 -0.12701,0 -0.24018,0.0278 -0.33789,0.082 -0.0967,0.0543 -0.18033,0.1345 -0.25195,0.24415 v -0.99219 z m 6.6875,0 v 2.5332 h 0.29883 v -2.5332 z m -4.56445,0.1914 v 0.51758 h -0.22071 v 0.23438 h 0.22071 v 0.99023 c 0,0.22799 0.0449,0.38386 0.13281,0.4707 0.0879,0.0858 0.24728,0.12891 0.47851,0.12891 h 0.30665 v -0.25 h -0.30665 c -0.12483,0 -0.20872,-0.0221 -0.25,-0.0644 -0.0402,-0.0423 -0.0605,-0.13643 -0.0605,-0.28516 v -0.99023 h 0.61719 v -0.23438 h -0.61719 v -0.51758 z m 2.18945,0.47461 c -0.13136,0 -0.24431,0.0269 -0.33984,0.0801 -0.0956,0.0532 -0.17773,0.13622 -0.2461,0.24805 v -0.28516 h -0.30078 v 1.82422 h 0.30078 v -1.03125 c 0,-0.17696 0.0466,-0.31678 0.13672,-0.41992 0.0901,-0.10422 0.21021,-0.15625 0.36328,-0.15625 0.12921,0 0.22525,0.0423 0.28711,0.12695 0.0619,0.0836 0.0937,0.21475 0.0937,0.39063 v 1.08984 h 0.30078 v -1.03125 c 0,-0.17804 0.0447,-0.31678 0.13477,-0.41992 0.0901,-0.10314 0.21195,-0.15625 0.36719,-0.15625 0.12704,0 0.22133,0.0423 0.2832,0.12695 0.0619,0.0847 0.0937,0.21584 0.0937,0.39063 v 1.08984 h 0.30078 v -1.09961 c 0,-0.24535 -0.0512,-0.4359 -0.1543,-0.56836 -0.10313,-0.13353 -0.24946,-0.19922 -0.43945,-0.19922 -0.14113,0 -0.26492,0.0317 -0.36914,0.0957 -0.10426,0.0641 -0.19271,0.1642 -0.26758,0.29882 -0.0445,-0.12812 -0.11366,-0.22568 -0.20703,-0.29296 -0.0923,-0.0673 -0.20545,-0.10157 -0.33789,-0.10157 z m -4.3125,5.33594 v 2.5332 h 0.30078 v -1.02929 c 0,-0.17805 0.0473,-0.31874 0.14063,-0.42188 0.0934,-0.10314 0.22105,-0.15625 0.38281,-0.15625 0.13464,0 0.23545,0.0431 0.30273,0.12891 0.0673,0.0858 0.0996,0.21605 0.0996,0.38867 v 1.08984 h 0.30078 v -1.09961 c 0,-0.25187 -0.0546,-0.44308 -0.16211,-0.57226 -0.10748,-0.13028 -0.26508,-0.19531 -0.47461,-0.19531 -0.12701,0 -0.24018,0.0277 -0.33789,0.082 -0.0967,0.0543 -0.18033,0.13644 -0.25195,0.24609 v -0.99414 z m 7.42578,0 v 0.98633 c -0.063,-0.10857 -0.14362,-0.18812 -0.24023,-0.24024 -0.0956,-0.0532 -0.21109,-0.0801 -0.34571,-0.0801 -0.22038,0 -0.40009,0.0878 -0.53906,0.26367 -0.13787,0.17587 -0.20508,0.40675 -0.20508,0.69336 0,0.28661 0.0672,0.51748 0.20508,0.69336 0.13897,0.17587 0.31868,0.26562 0.53906,0.26562 0.13462,0 0.25016,-0.028 0.34571,-0.0801 0.0966,-0.0532 0.17728,-0.13363 0.24023,-0.24218 v 0.27343 h 0.29883 v -2.5332 z m -4.5332,0.66602 c -0.27358,0 -0.49254,0.0878 -0.6543,0.26367 -0.16068,0.17479 -0.24023,0.41043 -0.24023,0.70898 0,0.28879 0.0846,0.51815 0.2539,0.6875 0.17045,0.16937 0.40045,0.25391 0.69141,0.25391 0.11616,0 0.23084,-0.0113 0.34375,-0.0352 0.1129,-0.0238 0.2226,-0.0579 0.33008,-0.10351 v -0.28321 c -0.10639,0.0564 -0.2137,0.0987 -0.32227,0.12696 -0.10748,0.0283 -0.21891,0.041 -0.33398,0.041 -0.19867,0 -0.35303,-0.0527 -0.46485,-0.16015 -0.11076,-0.10857 -0.17254,-0.26638 -0.18554,-0.47266 h 1.37695 v -0.14648 c 0,-0.27141 -0.0715,-0.48517 -0.21484,-0.64258 -0.14223,-0.1585 -0.33473,-0.23828 -0.58008,-0.23828 z m 1.92773,0 c -0.0977,0 -0.19959,0.0115 -0.30273,0.0332 -0.10313,0.0206 -0.2087,0.0514 -0.31836,0.0937 v 0.27734 c 0.0912,-0.0499 0.18636,-0.0883 0.28515,-0.11328 0.0988,-0.0249 0.20047,-0.0371 0.30469,-0.0371 0.16393,0 0.29075,0.0373 0.38086,0.11328 0.0912,0.0749 0.13672,0.18244 0.13672,0.32032 v 0.0293 h -0.41992 c -0.2725,0 -0.47736,0.052 -0.61524,0.15625 -0.13679,0.10422 -0.20507,0.2577 -0.20507,0.46289 0,0.17587 0.0544,0.31656 0.16406,0.42188 0.11074,0.10422 0.25858,0.15625 0.44531,0.15625 0.14765,0 0.27296,-0.026 0.375,-0.0781 0.10208,-0.0532 0.18749,-0.1334 0.25586,-0.24414 v 0.27539 h 0.29883 v -1.03906 c 0,-0.27793 -0.065,-0.48626 -0.19531,-0.62305 -0.13028,-0.13678 -0.32604,-0.20507 -0.58985,-0.20507 z m 2.09375,0.25 c 0.1585,0 0.2838,0.0635 0.375,0.18945 0.0912,0.12485 0.13672,0.29719 0.13672,0.51758 0,0.22038 -0.0455,0.39359 -0.13672,0.51953 -0.0912,0.12485 -0.2165,0.1875 -0.375,0.1875 -0.15851,0 -0.28381,-0.0626 -0.375,-0.1875 -0.0901,-0.12594 -0.13476,-0.29915 -0.13476,-0.51953 0,-0.22039 0.0447,-0.39273 0.13476,-0.51758 0.0912,-0.12593 0.21649,-0.18945 0.375,-0.18945 z m -4.01953,0.004 c 0.14765,0 0.26645,0.0488 0.35547,0.14649 0.0898,0.0977 0.13617,0.22865 0.13867,0.39257 l -1.06836,0.002 c 0.0152,-0.17153 0.072,-0.30399 0.17188,-0.39844 0.10097,-0.0944 0.23515,-0.14258 0.40234,-0.14258 z m 2.11328,0.69727 h 0.29883 v 0.0664 c 0,0.19542 -0.0514,0.35237 -0.15234,0.47071 -0.0999,0.11725 -0.23234,0.17578 -0.39844,0.17578 -0.12054,0 -0.21657,-0.0299 -0.28711,-0.0918 -0.0695,-0.063 -0.10352,-0.14946 -0.10352,-0.25586 0,-0.13353 0.0473,-0.22784 0.14063,-0.2832 0.0934,-0.0554 0.25986,-0.082 0.50195,-0.082 z m 3.09571,4.57617 v 0.51953 h -0.22071 v 0.23242 h 0.22071 v 0.99024 c 0,0.22798 0.0429,0.38581 0.13085,0.47265 0.0879,0.0858 0.24728,0.12696 0.47852,0.12696 h 0.30859 v -0.25 h -0.30859 c -0.12483,0 -0.20678,-0.0221 -0.24805,-0.0645 -0.0402,-0.0423 -0.0605,-0.13642 -0.0605,-0.28515 v -0.99024 h 0.61718 v -0.23242 H 150.1602 V 153.5 Z m -4.42188,0.47461 c -0.13136,0 -0.24431,0.0269 -0.33984,0.0801 -0.0956,0.0532 -0.17773,0.13622 -0.2461,0.24804 v -0.2832 h -0.30078 v 1.82227 h 0.30078 v -1.0293 c 0,-0.17696 0.0446,-0.31678 0.13477,-0.41992 0.0901,-0.10422 0.21216,-0.1582 0.36523,-0.1582 0.12921,-1e-5 0.22525,0.0442 0.28711,0.1289 0.0619,0.0836 0.0918,0.2128 0.0918,0.38867 v 1.08985 h 0.30078 v -1.0293 c 0,-0.17804 0.0446,-0.31874 0.13477,-0.42188 0.0901,-0.10313 0.21389,-0.15624 0.36914,-0.15624 0.12703,-1e-5 0.22133,0.0442 0.2832,0.1289 0.0619,0.0847 0.0937,0.21389 0.0937,0.38867 v 1.08985 h 0.30078 v -1.09961 c 0,-0.24536 -0.0512,-0.43396 -0.1543,-0.56641 -0.10313,-0.13353 -0.25141,-0.20117 -0.4414,-0.20117 -0.14114,0 -0.26297,0.0317 -0.36719,0.0957 -0.10426,0.064 -0.19466,0.16421 -0.26953,0.29883 -0.0445,-0.12813 -0.11171,-0.22568 -0.20508,-0.29297 -0.0923,-0.0673 -0.20544,-0.10156 -0.33789,-0.10156 z m 3.13867,0 c -0.27358,0 -0.49253,0.0878 -0.65429,0.26367 -0.16068,0.17479 -0.24024,0.41239 -0.24024,0.71094 0,0.28878 0.0845,0.51619 0.25391,0.68555 0.17045,0.16936 0.40046,0.25585 0.6914,0.25585 0.11617,1e-5 0.23085,-0.0133 0.34375,-0.0371 0.11291,-0.0239 0.2226,-0.0579 0.33008,-0.10352 v -0.2832 c -0.1064,0.0564 -0.2137,0.0987 -0.32226,0.12695 -0.10748,0.0283 -0.21891,0.043 -0.33399,0.043 -0.19867,0 -0.35302,-0.0546 -0.46484,-0.16211 -0.11076,-0.10857 -0.17254,-0.26638 -0.18555,-0.47266 h 1.37695 v -0.14648 c 0,-0.27141 -0.0715,-0.48516 -0.21484,-0.64258 -0.14222,-0.1585 -0.33472,-0.23828 -0.58008,-0.23828 z m 3.23633,0 c -0.0977,0 -0.19764,0.0115 -0.30078,0.0332 -0.10313,0.0206 -0.21066,0.0514 -0.32031,0.0937 v 0.27735 c 0.0912,-0.0499 0.18636,-0.0884 0.28515,-0.11329 0.0988,-0.025 0.20047,-0.0371 0.30469,-0.0371 0.16393,0 0.29075,0.0373 0.38086,0.11328 0.0912,0.0749 0.13672,0.18243 0.13672,0.32031 v 0.0293 h -0.41992 c -0.2725,0 -0.47737,0.052 -0.61524,0.15625 -0.1368,0.10422 -0.20508,0.25965 -0.20508,0.46484 0,0.17588 0.0544,0.31657 0.16407,0.42188 0.11074,0.10422 0.26053,0.15624 0.44726,0.15624 0.14765,1e-5 0.27296,-0.026 0.375,-0.0781 0.10208,-0.0532 0.18554,-0.13535 0.25391,-0.24609 v 0.27539 h 0.30078 v -1.03907 c 0,-0.27793 -0.065,-0.48625 -0.19531,-0.62304 -0.13028,-0.13679 -0.32799,-0.20508 -0.5918,-0.20508 z m -3.23438,0.25391 c 0.14765,0 0.26644,0.0488 0.35547,0.14648 0.0898,0.0977 0.13617,0.22865 0.13868,0.39258 l -1.06836,0.002 c 0.0152,-0.17153 0.072,-0.30399 0.17187,-0.39844 0.10096,-0.0945 0.23516,-0.14257 0.40234,-0.14257 z m 3.42383,0.69726 h 0.29688 v 0.0664 c 0,0.19541 -0.0494,0.35236 -0.15039,0.4707 -0.0999,0.11725 -0.23234,0.17578 -0.39844,0.17578 -0.12054,0 -0.21657,-0.0299 -0.28711,-0.0918 -0.0694,-0.063 -0.10351,-0.14751 -0.10351,-0.25391 0,-0.13354 0.0453,-0.22784 0.13867,-0.2832 0.0934,-0.0554 0.26181,-0.084 0.5039,-0.084 z m -6.13086,4.38477 v 0.3789 h 0.29883 v -0.3789 z m 2.23438,0 v 2.5332 h 0.29883 v -2.5332 z m 28.28906,0 v 0.3789 h 0.29883 v -0.3789 z m 2.23438,0 v 2.5332 h 0.29882 v -2.5332 z m -34.07227,0.19336 v 0.51757 h -0.2207 v 0.23243 h 0.2207 v 0.99023 c 0,0.22799 0.0429,0.38581 0.13086,0.47266 0.0879,0.0858 0.24922,0.12695 0.48047,0.12695 h 0.30664 v -0.25 h -0.30664 c -0.12483,0 -0.20873,-0.0201 -0.25,-0.0625 -0.0402,-0.0423 -0.0606,-0.13838 -0.0606,-0.28711 v -0.99023 h 0.61719 v -0.23243 h -0.61719 v -0.51757 z m 2.23438,0 v 0.51757 h -0.22071 v 0.23243 h 0.22071 v 0.99023 c 0,0.22799 0.0429,0.38581 0.13086,0.47266 0.0879,0.0858 0.24727,0.12695 0.47851,0.12695 h 0.30859 v -0.25 h -0.30859 c -0.12482,0 -0.20677,-0.0201 -0.24805,-0.0625 -0.0402,-0.0423 -0.0605,-0.13838 -0.0605,-0.28711 v -0.99023 h 0.61718 v -0.23243 h -0.61718 v -0.51757 z m 28.28906,0 v 0.51757 h -0.21875 v 0.23243 h 0.21875 v 0.99023 c 0,0.22799 0.0449,0.38581 0.13281,0.47266 0.0879,0.0858 0.24727,0.12695 0.47852,0.12695 h 0.30664 v -0.25 h -0.30664 c -0.12484,0 -0.20873,-0.0201 -0.25,-0.0625 -0.0402,-0.0423 -0.0605,-0.13838 -0.0605,-0.28711 v -0.99023 h 0.61719 v -0.23243 h -0.61719 v -0.51757 z m 2.23437,0 v 0.51757 h -0.21875 v 0.23243 h 0.21875 v 0.99023 c 0,0.22799 0.0449,0.38581 0.13282,0.47266 0.0879,0.0858 0.24726,0.12695 0.47851,0.12695 h 0.30664 v -0.25 h -0.30664 c -0.12483,0 -0.20873,-0.0201 -0.25,-0.0625 -0.0402,-0.0423 -0.0606,-0.13838 -0.0606,-0.28711 v -0.99023 h 0.61719 v -0.23243 h -0.61719 v -0.51757 z m -27.52148,0.47265 c -0.27359,0 -0.49058,0.0878 -0.65235,0.26367 -0.16067,0.1748 -0.24023,0.41239 -0.24023,0.71094 0,0.28879 0.0845,0.51815 0.25391,0.6875 0.17044,0.16937 0.40045,0.25391 0.6914,0.25391 0.11617,0 0.23085,-0.0133 0.34375,-0.0371 0.11291,-0.0239 0.22261,-0.0579 0.33008,-0.10352 v -0.2832 c -0.10639,0.0564 -0.2137,0.0987 -0.32226,0.12695 -0.10748,0.0283 -0.21891,0.043 -0.33399,0.043 -0.19868,0 -0.35303,-0.0546 -0.46484,-0.16211 -0.11076,-0.10856 -0.17254,-0.26638 -0.18555,-0.47265 h 1.37695 v -0.14649 c 0,-0.27141 -0.0715,-0.48516 -0.21484,-0.64258 -0.14222,-0.1585 -0.33668,-0.23828 -0.58203,-0.23828 z m 30.52539,0 c -0.27359,0 -0.49254,0.0878 -0.6543,0.26367 -0.16067,0.1748 -0.24023,0.41239 -0.24023,0.71094 0,0.28879 0.0845,0.51815 0.2539,0.6875 0.17044,0.16937 0.40046,0.25391 0.69141,0.25391 0.11617,0 0.23085,-0.0133 0.34375,-0.0371 0.11291,-0.0239 0.2226,-0.0579 0.33008,-0.10352 v -0.2832 c -0.1064,0.0564 -0.2137,0.0987 -0.32227,0.12695 -0.10747,0.0283 -0.2189,0.043 -0.33398,0.043 -0.19868,0 -0.35303,-0.0546 -0.46484,-0.16211 -0.11076,-0.10856 -0.17254,-0.26638 -0.18555,-0.47265 h 1.37695 v -0.14649 c 0,-0.27141 -0.0715,-0.48516 -0.21484,-0.64258 -0.14222,-0.1585 -0.33473,-0.23828 -0.58008,-0.23828 z m -34.44727,0.0449 v 1.82227 h 0.29883 v -1.82227 z m 30.52344,0 v 1.82227 h 0.29883 v -1.82227 z m -26.59765,0.20899 c 0.14764,0 0.26644,0.0488 0.35546,0.14648 0.0898,0.0977 0.13617,0.22865 0.13868,0.39258 l -1.06836,0.002 c 0.0152,-0.17153 0.072,-0.30398 0.17187,-0.39843 0.10096,-0.0944 0.23516,-0.14258 0.40235,-0.14258 z m 30.52343,0 c 0.14765,0 0.26645,0.0488 0.35547,0.14648 0.0898,0.0977 0.13617,0.22865 0.13867,0.39258 l -1.06836,0.002 c 0.0152,-0.17153 0.072,-0.30398 0.17188,-0.39843 0.10096,-0.0944 0.23515,-0.14258 0.40234,-0.14258 z m -37.4375,5.08203 v 2.53516 h 0.30078 v -1.03125 c 0,-0.17805 0.0473,-0.31874 0.14063,-0.42188 0.0934,-0.10314 0.22105,-0.1543 0.38281,-0.1543 0.13465,0 0.23545,0.0431 0.30274,0.12891 0.0673,0.0858 0.0996,0.2141 0.0996,0.38672 v 1.0918 h 0.30078 v -1.10157 c 0,-0.25186 -0.0546,-0.44307 -0.16211,-0.57226 -0.10748,-0.13028 -0.26508,-0.19531 -0.47461,-0.19531 -0.12702,0 -0.24018,0.0277 -0.33789,0.082 -0.0967,0.0543 -0.18034,0.13644 -0.25196,0.24609 v -0.99414 z m 7.42578,0 v 0.98633 c -0.063,-0.10857 -0.14361,-0.18813 -0.24023,-0.24024 -0.0955,-0.0532 -0.21109,-0.0801 -0.3457,-0.0801 -0.2204,0 -0.40011,0.0878 -0.53907,0.26367 -0.13788,0.17587 -0.20507,0.40675 -0.20507,0.69336 0,0.28661 0.0672,0.51943 0.20507,0.69531 0.13896,0.17588 0.31867,0.26367 0.53907,0.26367 0.13461,0 0.25016,-0.026 0.3457,-0.0781 0.0966,-0.0532 0.17728,-0.13558 0.24023,-0.24414 v 0.27539 h 0.29883 v -2.53516 z m -4.5332,0.66602 c -0.27358,0 -0.49254,0.0878 -0.6543,0.26367 -0.16067,0.17478 -0.24023,0.41239 -0.24023,0.71093 0,0.28879 0.0845,0.51815 0.25391,0.6875 0.17044,0.16937 0.40045,0.25391 0.6914,0.25391 0.11616,0 0.23084,-0.0133 0.34375,-0.0371 0.11291,-0.0238 0.22261,-0.0579 0.33008,-0.10351 v -0.28321 c -0.10639,0.0564 -0.2137,0.0987 -0.32227,0.12696 -0.10748,0.0283 -0.2189,0.043 -0.33398,0.043 -0.19867,0 -0.35303,-0.0546 -0.46484,-0.1621 -0.11076,-0.10857 -0.17254,-0.26638 -0.18555,-0.47266 h 1.37695 v -0.14648 c 0,-0.27142 -0.0715,-0.48517 -0.21484,-0.64258 -0.14223,-0.1585 -0.33472,-0.23828 -0.58008,-0.23828 z m 1.92773,0 c -0.0977,0 -0.19959,0.0115 -0.30273,0.0332 -0.10313,0.0206 -0.20871,0.0514 -0.31836,0.0937 v 0.27734 c 0.0912,-0.0499 0.18636,-0.0883 0.28516,-0.11328 0.0988,-0.0249 0.20046,-0.0371 0.30469,-0.0371 0.16393,0 0.29075,0.0393 0.38085,0.11524 0.0912,0.0749 0.13672,0.18047 0.13672,0.31836 v 0.0293 h -0.41992 c -0.2725,0 -0.47736,0.052 -0.61523,0.15625 -0.13679,0.10422 -0.20508,0.25965 -0.20508,0.46485 0,0.17587 0.0544,0.31657 0.16406,0.42187 0.11073,0.10422 0.25858,0.15625 0.44531,0.15625 0.14765,0 0.27295,-0.026 0.375,-0.0781 0.10207,-0.0532 0.18749,-0.13536 0.25586,-0.2461 v 0.27735 h 0.29883 v -1.04102 c 0,-0.27793 -0.065,-0.48626 -0.19531,-0.62305 -0.13028,-0.13679 -0.32603,-0.20507 -0.58985,-0.20507 z m 2.09376,0.25195 c 0.1585,0 0.2838,0.0616 0.375,0.1875 0.0912,0.12485 0.13671,0.29719 0.13671,0.51758 0,0.22039 -0.0455,0.39359 -0.13671,0.51953 -0.0912,0.12485 -0.2165,0.1875 -0.375,0.1875 -0.15851,0 -0.28381,-0.0627 -0.375,-0.1875 -0.0901,-0.12594 -0.13477,-0.29914 -0.13477,-0.51953 0,-0.22039 0.0447,-0.39273 0.13477,-0.51758 0.0912,-0.12593 0.21649,-0.1875 0.375,-0.1875 z m -4.01954,0.002 c 0.14765,0 0.26645,0.0488 0.35547,0.14649 0.0898,0.0977 0.13617,0.22865 0.13867,0.39257 l -1.06836,0.002 c 0.0152,-0.17153 0.072,-0.30398 0.17188,-0.39844 0.10097,-0.0944 0.23516,-0.14258 0.40234,-0.14258 z m 2.11328,0.69727 h 0.29883 v 0.0664 c 0,0.19542 -0.0514,0.35237 -0.15234,0.47071 -0.0999,0.11725 -0.23233,0.17578 -0.39844,0.17578 -0.12054,0 -0.21657,-0.0299 -0.28711,-0.0918 -0.0695,-0.063 -0.10351,-0.14751 -0.10351,-0.2539 0,-0.13354 0.0473,-0.22785 0.14062,-0.28321 0.0934,-0.0554 0.25986,-0.084 0.50195,-0.084 z m -6.13476,4.38476 v 2.53516 h 0.30078 v -0.27344 c 0.063,0.10857 0.14275,0.18899 0.23828,0.24219 0.0966,0.0521 0.21219,0.0781 0.3457,0.0781 0.22148,0 0.39924,-0.0878 0.53711,-0.26367 0.13897,-0.17587 0.20899,-0.40675 0.20899,-0.69336 0,-0.28661 -0.07,-0.51944 -0.20899,-0.69531 -0.13787,-0.17588 -0.31563,-0.26367 -0.53711,-0.26367 -0.13351,0 -0.24907,0.0269 -0.3457,0.0801 -0.0956,0.0521 -0.17533,0.13362 -0.23828,0.24218 v -0.98828 z m 5.36719,0 v 0.98828 c -0.063,-0.10856 -0.14361,-0.19007 -0.24024,-0.24218 -0.0955,-0.0532 -0.20913,-0.0801 -0.34375,-0.0801 -0.22038,0 -0.40009,0.0878 -0.53906,0.26367 -0.13787,0.17587 -0.20703,0.4087 -0.20703,0.69531 0,0.28661 0.0692,0.51749 0.20703,0.69336 0.13897,0.17588 0.31868,0.26367 0.53906,0.26367 0.13462,0 0.24822,-0.026 0.34375,-0.0781 0.0966,-0.0532 0.17729,-0.13362 0.24024,-0.24219 v 0.27344 h 0.29883 v -2.53516 z m -2.53321,0.66602 c -0.26163,0 -0.46649,0.0846 -0.61523,0.25391 -0.14765,0.16935 -0.2207,0.40544 -0.2207,0.70507 0,0.29856 0.0731,0.53269 0.2207,0.70313 0.14874,0.16936 0.3536,0.2539 0.61523,0.2539 0.26056,0 0.46651,-0.0845 0.61524,-0.2539 0.14874,-0.17044 0.22265,-0.40457 0.22265,-0.70313 0,-0.29963 -0.0739,-0.53572 -0.22265,-0.70507 -0.14873,-0.16936 -0.35468,-0.25391 -0.61524,-0.25391 z m 3.23438,0.0449 0.73828,1.79492 -0.0547,0.13672 c -0.0554,0.14546 -0.10478,0.23629 -0.15039,0.27539 -0.0456,0.0391 -0.10886,0.0586 -0.1914,0.0586 h -0.17774 v 0.25195 h 0.24024 c 0.13458,0 0.24189,-0.0334 0.32226,-0.0996 0.0803,-0.0662 0.16337,-0.20865 0.24805,-0.42578 l 0.80078,-1.99219 h -0.31836 l -0.56836,1.42578 -0.57031,-1.42578 z m -5.25781,0.20703 c 0.1585,0 0.28293,0.0616 0.37304,0.1875 0.0912,0.12485 0.13672,0.29915 0.13672,0.51953 0,0.22039 -0.0455,0.3936 -0.13672,0.51953 -0.0901,0.12485 -0.21454,0.18555 -0.37304,0.18555 -0.1585,0 -0.28381,-0.0607 -0.375,-0.18555 -0.0901,-0.12593 -0.13477,-0.29914 -0.13477,-0.51953 0,-0.22038 0.0447,-0.39468 0.13477,-0.51953 0.0912,-0.12593 0.2165,-0.1875 0.375,-0.1875 z m 4.04492,0 c 0.15851,0 0.28381,0.0616 0.375,0.1875 0.0912,0.12485 0.13672,0.29915 0.13672,0.51953 0,0.22039 -0.0455,0.3936 -0.13672,0.51953 -0.0912,0.12485 -0.21649,0.18555 -0.375,0.18555 -0.1585,0 -0.28381,-0.0607 -0.375,-0.18555 -0.0901,-0.12593 -0.13477,-0.29914 -0.13477,-0.51953 0,-0.22038 0.0446,-0.39468 0.13477,-0.51953 0.0912,-0.12593 0.2165,-0.1875 0.375,-0.1875 z m -2.02149,0.002 c 0.1596,0 0.28751,0.0644 0.38086,0.1914 0.0934,0.12593 0.13868,0.29763 0.13868,0.51367 0,0.21713 -0.0453,0.38775 -0.13868,0.51367 -0.0933,0.12594 -0.22126,0.18946 -0.38086,0.18946 -0.16176,0 -0.28944,-0.0627 -0.38281,-0.1875 -0.0923,-0.12594 -0.13672,-0.29741 -0.13672,-0.51563 0,-0.21821 0.0453,-0.39077 0.13867,-0.51562 0.0934,-0.12594 0.22019,-0.18945 0.38086,-0.18945 z m -1.70703,7.08398 v 2.53516 h 0.30078 v -0.27344 c 0.063,0.10856 0.14275,0.18899 0.23829,0.24219 0.0966,0.0521 0.21023,0.0781 0.34374,0.0781 0.22148,0 0.40119,-0.0878 0.53907,-0.26367 0.13896,-0.17588 0.20898,-0.40675 0.20898,-0.69336 0,-0.28661 -0.07,-0.51749 -0.20898,-0.69336 -0.13788,-0.17588 -0.31759,-0.26563 -0.53907,-0.26562 -0.13351,-1e-5 -0.24713,0.0269 -0.34374,0.0801 -0.0956,0.0521 -0.17534,0.13362 -0.23829,0.24219 v -0.98828 z m 5.36719,0 v 0.98828 c -0.063,-0.10857 -0.14361,-0.19008 -0.24023,-0.24219 -0.0955,-0.0532 -0.20913,-0.0801 -0.34375,-0.0801 -0.22039,0 -0.4001,0.0897 -0.53907,0.26562 -0.13787,0.17587 -0.20703,0.40675 -0.20703,0.69336 0,0.28661 0.0692,0.51748 0.20703,0.69336 0.13897,0.17588 0.31868,0.26367 0.53907,0.26367 0.13462,0 0.24821,-0.026 0.34375,-0.0781 0.0966,-0.0532 0.17728,-0.13363 0.24023,-0.24219 v 0.27344 h 0.29883 v -2.53516 z m -2.5332,0.66602 c -0.26164,0 -0.4665,0.0865 -0.61524,0.25585 -0.14764,0.16937 -0.2207,0.4035 -0.2207,0.70313 0,0.29856 0.0731,0.53268 0.2207,0.70312 0.14874,0.16937 0.3536,0.25391 0.61524,0.25391 0.26055,0 0.46649,-0.0845 0.61523,-0.25391 0.14873,-0.17044 0.22266,-0.40456 0.22266,-0.70312 0,-0.29963 -0.0739,-0.53376 -0.22266,-0.70313 -0.14874,-0.16935 -0.35468,-0.25586 -0.61523,-0.25585 z m 3.23437,0.0449 0.73828,1.79492 -0.0547,0.13672 c -0.0554,0.14545 -0.1048,0.23824 -0.15039,0.27734 -0.0456,0.0391 -0.11082,0.0586 -0.19336,0.0586 h -0.17579 v 0.25 h 0.24024 c 0.13458,-1e-5 0.24189,-0.0334 0.32226,-0.0996 0.0803,-0.0662 0.16337,-0.2067 0.24805,-0.42383 l 0.80078,-1.99414 h -0.31836 l -0.56836,1.42578 -0.57031,-1.42578 z m -5.25781,0.20703 c 0.15851,0 0.28294,0.0635 0.37305,0.18945 0.0912,0.12485 0.13671,0.2972 0.13671,0.51758 0,0.22039 -0.0455,0.3936 -0.13671,0.51953 -0.0901,0.12485 -0.21454,0.1875 -0.37305,0.1875 -0.1585,0 -0.2838,-0.0626 -0.375,-0.1875 -0.0901,-0.12593 -0.13477,-0.29914 -0.13477,-0.51953 0,-0.22038 0.0447,-0.39273 0.13477,-0.51758 0.0912,-0.12593 0.2165,-0.18945 0.375,-0.18945 z m 4.04492,0 c 0.1585,0 0.2838,0.0635 0.375,0.18945 0.0912,0.12485 0.13672,0.2972 0.13672,0.51758 0,0.22039 -0.0455,0.3936 -0.13672,0.51953 -0.0912,0.12485 -0.2165,0.1875 -0.375,0.1875 -0.15851,0 -0.28381,-0.0626 -0.375,-0.1875 -0.0901,-0.12593 -0.13476,-0.29914 -0.13476,-0.51953 0,-0.22038 0.0446,-0.39273 0.13476,-0.51758 0.0912,-0.12593 0.21649,-0.18945 0.375,-0.18945 z m -2.02148,0.004 c 0.15959,0 0.28749,0.0624 0.38086,0.18946 0.0934,0.12593 0.13867,0.29763 0.13867,0.51367 0,0.21713 -0.0453,0.38774 -0.13867,0.51367 -0.0934,0.12593 -0.22127,0.18945 -0.38086,0.18945 -0.16176,0 -0.28945,-0.0626 -0.38282,-0.1875 -0.0923,-0.12593 -0.13671,-0.29741 -0.13671,-0.51562 0,-0.21822 0.0453,-0.39078 0.13867,-0.51563 0.0934,-0.12593 0.22018,-0.1875 0.38086,-0.1875 z m -2.83399,5.08204 v 2.5332 h 0.30078 v -1.03125 c 0,-0.17805 0.0473,-0.31874 0.14063,-0.42188 0.0934,-0.10313 0.22105,-0.15429 0.38281,-0.15429 0.13465,0 0.23545,0.0431 0.30274,0.1289 0.0673,0.0858 0.0996,0.21411 0.0996,0.38672 v 1.0918 h 0.30078 v -1.10156 c 0,-0.25187 -0.0546,-0.44112 -0.16211,-0.57032 -0.10748,-0.13027 -0.26508,-0.19531 -0.47461,-0.19531 -0.12702,0 -0.24018,0.0258 -0.33789,0.0801 -0.0967,0.0543 -0.18034,0.13644 -0.25196,0.24609 v -0.99218 z m 6.6875,0 v 2.5332 h 0.29883 v -2.5332 z m -4.56445,0.1914 v 0.51758 h -0.2207 v 0.23242 h 0.2207 v 0.99024 c 0,0.22798 0.0449,0.38581 0.13281,0.47265 0.0879,0.0858 0.24728,0.12891 0.47852,0.12891 h 0.30664 v -0.25 h -0.30664 c -0.12484,0 -0.20873,-0.0222 -0.25,-0.0644 -0.0402,-0.0423 -0.0606,-0.13839 -0.0606,-0.28711 v -0.99024 h 0.61719 v -0.23242 h -0.61719 v -0.51758 z m 2.18945,0.47461 c -0.13136,0 -0.24431,0.0249 -0.33984,0.0781 -0.0956,0.0532 -0.17774,0.13622 -0.24609,0.24804 v -0.2832 h -0.30079 v 1.82422 h 0.30079 v -1.03125 c -10e-6,-0.17696 0.0447,-0.31679 0.13476,-0.41992 0.0901,-0.10422 0.21216,-0.15625 0.36524,-0.15625 0.12919,0 0.22524,0.0423 0.2871,0.12695 0.0619,0.0836 0.0937,0.2128 0.0937,0.38867 v 1.0918 h 0.30079 v -1.03125 c 0,-0.17805 0.0446,-0.31874 0.13476,-0.42188 0.0901,-0.10313 0.21194,-0.15429 0.36719,-0.15429 0.12703,0 0.22134,0.0423 0.2832,0.12695 0.0619,0.0847 0.0937,0.21389 0.0937,0.38867 v 1.0918 h 0.30078 v -1.10156 c 0,-0.24536 -0.0512,-0.43396 -0.15429,-0.56641 -0.10314,-0.13353 -0.24946,-0.19922 -0.43946,-0.19922 -0.14113,0 -0.26492,0.0317 -0.36914,0.0957 -0.10425,0.0641 -0.1927,0.16226 -0.26758,0.29688 -0.0445,-0.12813 -0.11366,-0.22568 -0.20703,-0.29297 -0.0923,-0.0673 -0.20543,-0.0996 -0.33789,-0.0996 z" transform="matrix(0.79957699,0,0,0.79957699,-36.763543,26.37634)" id="path9201-5-2" inkscape:connector-curvature="0"/>
        <path style="font-size:2.66666675px;line-height:120.00000477%;fill:#f8bebe;fill-opacity:0.89012164;stroke:none;stroke-width:1.25066125px" d="m 162.73047,141.9707 c -0.27359,0 -0.49254,0.0878 -0.6543,0.26368 -0.16067,0.17479 -0.24023,0.41043 -0.24023,0.70898 0,0.28879 0.0845,0.51814 0.2539,0.6875 0.17044,0.16936 0.40046,0.25391 0.69141,0.25391 0.11617,0 0.23085,-0.0113 0.34375,-0.0352 0.11291,-0.0239 0.22455,-0.0579 0.33203,-0.10352 v -0.2832 c -0.1064,0.0564 -0.2137,0.0987 -0.32226,0.12695 -0.10748,0.0283 -0.21891,0.041 -0.33399,0.041 -0.19868,0 -0.35498,-0.0527 -0.4668,-0.16016 -0.11075,-0.10856 -0.17254,-0.26638 -0.18554,-0.47265 h 1.3789 v -0.14649 c 0,-0.27141 -0.0735,-0.48516 -0.21679,-0.64258 -0.14222,-0.1585 -0.33473,-0.23828 -0.58008,-0.23828 z m 2.16797,0 c -0.12702,0 -0.24018,0.0278 -0.33789,0.082 -0.0967,0.0543 -0.18034,0.1345 -0.25196,0.24415 v -0.28321 h -0.30273 v 1.82422 h 0.30273 v -1.03125 c 0,-0.17804 0.0453,-0.31678 0.13868,-0.41992 0.0934,-0.10314 0.22105,-0.15625 0.38281,-0.15625 0.13464,0 0.23545,0.0431 0.30273,0.12891 0.0673,0.0858 0.10157,0.21605 0.10157,0.38867 v 1.08984 h 0.30078 v -1.09961 c 0,-0.25187 -0.0546,-0.44308 -0.16211,-0.57226 -0.10748,-0.13028 -0.26509,-0.19532 -0.47461,-0.19532 z m -2.16602,0.25391 c 0.14765,0 0.26645,0.0488 0.35547,0.14648 0.0898,0.0977 0.13617,0.22865 0.13867,0.39258 l -1.06836,0.002 c 0.0152,-0.17153 0.0739,-0.30398 0.17383,-0.39843 0.10096,-0.0944 0.2332,-0.14258 0.40039,-0.14258 z m 16.70703,11.14258 c -0.24101,0 -0.43134,0.057 -0.57031,0.16992 -0.13787,0.1129 -0.20703,0.2666 -0.20703,0.46094 0,0.13895 0.0391,0.25689 0.11719,0.35351 0.0793,0.0966 0.1909,0.1625 0.33203,0.19727 -0.1585,0.0369 -0.28207,0.10736 -0.3711,0.21484 -0.089,0.10748 -0.13476,0.23928 -0.13476,0.39453 0,0.23559 0.0715,0.41703 0.21484,0.54297 0.1444,0.12594 0.35099,0.18945 0.61914,0.18945 0.26816,0 0.47389,-0.0635 0.61719,-0.18945 0.14439,-0.12594 0.2168,-0.30738 0.2168,-0.54297 0,-0.15525 -0.0438,-0.28705 -0.13282,-0.39453 -0.0879,-0.10745 -0.21259,-0.17791 -0.37109,-0.21484 0.14009,-0.0348 0.25,-0.10065 0.32813,-0.19727 0.0792,-0.0966 0.11914,-0.21456 0.11914,-0.35351 0,-0.19434 -0.0692,-0.34804 -0.20703,-0.46094 -0.13788,-0.11291 -0.32821,-0.16992 -0.57032,-0.16992 z m -8.3789,0.0449 v 1.51758 c 0,0.31701 0.078,0.55503 0.23437,0.71679 0.15743,0.16176 0.39003,0.24414 0.69727,0.24414 0.30614,0 0.53702,-0.0824 0.69336,-0.24414 0.15742,-0.16176 0.23633,-0.39978 0.23633,-0.71679 v -1.51758 h -0.33008 v 1.47656 c 0,0.26056 -0.0462,0.44742 -0.14063,0.5625 -0.0944,0.114 -0.24837,0.17188 -0.45898,0.17188 -0.21171,0 -0.36454,-0.0579 -0.45899,-0.17188 -0.0944,-0.11508 -0.14062,-0.30194 -0.14062,-0.5625 v -1.47656 z m 2.14453,0 v 0.27539 h 0.86328 v 2.1543 h 0.33008 v -2.1543 h 0.86328 v -0.27539 z m 2.375,0 v 2.42969 h 0.33008 v -1.16016 h 0.96289 v -0.27734 h -0.96289 v -0.7168 h 1.0664 v -0.27539 z m 3.85937,0.21484 c 0.1411,0 0.25079,0.0369 0.33008,0.10743 0.0804,0.0706 0.12109,0.16898 0.12109,0.29492 2e-5,0.12596 -0.0407,0.22243 -0.12109,0.29297 -0.0793,0.0705 -0.18894,0.10742 -0.33008,0.10742 -0.14217,0 -0.25274,-0.0369 -0.33203,-0.10742 -0.0781,-0.0706 -0.11719,-0.16704 -0.11719,-0.29297 0,-0.12597 0.0391,-0.2244 0.11719,-0.29492 0.0793,-0.0705 0.18982,-0.10743 0.33203,-0.10743 z m 0,1.06055 c 0.15743,0 0.28012,0.0414 0.36914,0.125 0.0901,0.0836 0.13672,0.19914 0.13672,0.3457 0,0.14548 -0.0466,0.26103 -0.13672,0.34571 -0.0901,0.0836 -0.2128,0.125 -0.36914,0.125 -0.15633,0 -0.27903,-0.0414 -0.36914,-0.125 -0.089,-0.0836 -0.13281,-0.19915 -0.13281,-0.34571 0,-0.14656 0.0438,-0.26211 0.13281,-0.3457 0.0901,-0.0836 0.21281,-0.125 0.36914,-0.125 z m -2.10156,0.10742 v 0.26758 h 0.87695 v -0.26758 z" transform="matrix(0.79957699,0,0,0.79957699,-36.763543,26.37634)" id="path9221-47-9" inkscape:connector-curvature="0"/>
        <path style="font-size:2.66666675px;line-height:120.00000477%;fill:#f8f8f8;fill-opacity:0.97382202;stroke:none;stroke-width:1.25066125px" d="m 153.88867,159.41406 v 2.42969 h 0.67578 c 0.469,0 0.81565,-0.0965 1.03711,-0.29297 0.22148,-0.1965 0.33203,-0.50477 0.33203,-0.92383 0,-0.41688 -0.11164,-0.72255 -0.33203,-0.91797 -0.22039,-0.19649 -0.56594,-0.29492 -1.03711,-0.29492 z m 15.96094,0.0898 v 0.51757 h -0.2207 v 0.23243 h 0.2207 v 0.99023 c 0,0.22799 0.0449,0.38581 0.13281,0.47266 0.0879,0.0858 0.24727,0.12695 0.47852,0.12695 h 0.30664 v -0.25 h -0.30664 c -0.12484,0 -0.20873,-0.0201 -0.25,-0.0625 -0.0402,-0.0423 -0.0606,-0.13838 -0.0606,-0.28711 v -0.99023 h 0.61719 v -0.23243 h -0.61719 v -0.51757 z m -15.63086,0.17968 h 0.39648 c 0.33547,0 0.58108,0.0765 0.73633,0.22852 0.15634,0.1509 0.23438,0.38915 0.23438,0.71484 0,0.32787 -0.078,0.56676 -0.23438,0.71875 -0.15525,0.15199 -0.40086,0.22852 -0.73633,0.22852 h -0.39648 z m 2.92969,0.29297 c -0.26165,0 -0.46651,0.0846 -0.61524,0.25391 -0.14765,0.16936 -0.2207,0.40349 -0.2207,0.70312 0,0.29856 0.073,0.53464 0.2207,0.70508 0.14873,0.16937 0.35359,0.25391 0.61524,0.25391 0.26055,0 0.4665,-0.0845 0.61523,-0.25391 0.14874,-0.17044 0.22266,-0.40652 0.22266,-0.70508 0,-0.29963 -0.0739,-0.53376 -0.22266,-0.70312 -0.14873,-0.16936 -0.35468,-0.25391 -0.61523,-0.25391 z m 2.11914,0 c -0.28444,0 -0.50795,0.0854 -0.67188,0.25586 -0.16285,0.17045 -0.24414,0.40371 -0.24414,0.70117 0,0.29313 0.0804,0.5266 0.24219,0.69922 0.16176,0.17262 0.37963,0.25977 0.6543,0.25977 0.10097,0 0.19613,-0.01 0.28515,-0.0293 0.0901,-0.0195 0.17617,-0.0488 0.25977,-0.0879 v -0.27734 c -0.0847,0.0467 -0.16814,0.0816 -0.25391,0.10547 -0.0847,0.0228 -0.17096,0.0351 -0.25781,0.0351 -0.19433,0 -0.34564,-0.0629 -0.45313,-0.18555 -0.10747,-0.12376 -0.16015,-0.29697 -0.16015,-0.51953 0,-0.22255 0.0527,-0.39489 0.16015,-0.51757 0.10749,-0.12377 0.2588,-0.18555 0.45313,-0.18555 0.0868,0 0.17313,0.0133 0.25781,0.0371 0.0858,0.0228 0.16923,0.0568 0.25391,0.10351 v -0.27929 c -0.0825,-0.038 -0.16597,-0.0675 -0.25391,-0.0859 -0.0879,-0.0195 -0.17921,-0.0293 -0.27148,-0.0293 z m 4.04297,0 c -0.13136,0 -0.2443,0.0269 -0.33985,0.0801 -0.0956,0.0532 -0.17772,0.13622 -0.24609,0.24805 v -0.28321 h -0.30078 v 1.82422 h 0.30078 v -1.03125 c 0,-0.17696 0.0466,-0.31678 0.13672,-0.41992 0.0901,-0.10422 0.21021,-0.15625 0.36328,-0.15625 0.12921,0 0.22524,0.0423 0.28711,0.12695 0.0619,0.0836 0.0937,0.2128 0.0937,0.38868 v 1.09179 h 0.30078 v -1.03125 c 0,-0.17804 0.0447,-0.31873 0.13477,-0.42187 0.0901,-0.10314 0.21194,-0.1543 0.36718,-0.1543 0.12705,0 0.22134,0.0423 0.28321,0.12695 0.0619,0.0847 0.0937,0.21389 0.0937,0.38868 v 1.09179 h 0.30078 v -1.10156 c 0,-0.24535 -0.0512,-0.43395 -0.1543,-0.56641 -0.10313,-0.13352 -0.24946,-0.20117 -0.43945,-0.20117 -0.14114,0 -0.26492,0.0317 -0.36914,0.0957 -0.10426,0.0641 -0.19271,0.1642 -0.26758,0.29882 -0.0445,-0.12812 -0.11367,-0.22568 -0.20703,-0.29297 -0.0923,-0.0673 -0.20545,-0.10156 -0.33789,-0.10156 z m 3.13867,0 c -0.27358,0 -0.49058,0.0878 -0.65234,0.26367 -0.16068,0.1748 -0.24219,0.41239 -0.24219,0.71094 0,0.28879 0.0846,0.51815 0.2539,0.6875 0.17045,0.16937 0.40241,0.25391 0.69336,0.25391 0.11616,0 0.23084,-0.0133 0.34375,-0.0371 0.11291,-0.0239 0.22261,-0.0579 0.33008,-0.10352 v -0.2832 c -0.10639,0.0564 -0.2137,0.0987 -0.32226,0.12695 -0.10749,0.0283 -0.21891,0.043 -0.33399,0.043 -0.19867,0 -0.35303,-0.0546 -0.46484,-0.16211 -0.11076,-0.10856 -0.1745,-0.26638 -0.1875,-0.47265 h 1.3789 v -0.14649 c 0,-0.27141 -0.0715,-0.48516 -0.21484,-0.64258 -0.14223,-0.1585 -0.33668,-0.23828 -0.58203,-0.23828 z m 2.16797,0 c -0.12703,0 -0.24019,0.0278 -0.33789,0.082 -0.0967,0.0543 -0.18034,0.13645 -0.25196,0.2461 v -0.28321 h -0.30078 v 1.82227 h 0.30078 v -1.0293 c 0,-0.17804 0.0473,-0.31873 0.14063,-0.42187 0.0934,-0.10314 0.22105,-0.1543 0.38281,-0.1543 0.13465,0 0.23545,0.0412 0.30274,0.12695 0.0673,0.0858 0.0996,0.21606 0.0996,0.38868 v 1.08984 h 0.30079 v -1.09961 c 0,-0.25187 -0.0546,-0.44307 -0.16211,-0.57226 -0.10748,-0.13028 -0.26509,-0.19532 -0.47461,-0.19532 z m -8.33008,0.0449 v 1.10352 c 0,0.25078 0.0535,0.44199 0.16211,0.57227 0.10856,0.13027 0.26899,0.19531 0.47851,0.19531 0.12702,0 0.23845,-0.0269 0.33399,-0.0801 0.0967,-0.0543 0.1812,-0.13731 0.2539,-0.24805 v 0.2793 h 0.29883 v -1.82227 h -0.29883 v 1.03321 c 0,0.17804 -0.0481,0.31873 -0.14257,0.42187 -0.0934,0.10313 -0.22106,0.1543 -0.38282,0.1543 -0.13464,0 -0.23544,-0.0431 -0.30273,-0.12891 -0.0673,-0.0868 -0.0996,-0.21605 -0.0996,-0.38867 v -1.0918 z m -3.13867,0.20899 c 0.15958,0 0.28749,0.0644 0.38086,0.19141 0.0934,0.12593 0.13867,0.29567 0.13867,0.51171 0,0.21714 -0.0453,0.3897 -0.13867,0.51563 -0.0934,0.12593 -0.22128,0.18945 -0.38086,0.18945 -0.16176,0 -0.2875,-0.0626 -0.38086,-0.1875 -0.0923,-0.12593 -0.13867,-0.29936 -0.13867,-0.51758 0,-0.21821 0.0453,-0.38882 0.13867,-0.51367 0.0934,-0.12593 0.22018,-0.18945 0.38086,-0.18945 z m 9.30468,0 c 0.14765,0 0.26645,0.0488 0.35547,0.14648 0.0898,0.0977 0.13422,0.22865 0.13672,0.39258 l -1.06836,0.002 c 0.0152,-0.17153 0.0739,-0.30398 0.17383,-0.39843 0.10097,-0.0944 0.23516,-0.14258 0.40234,-0.14258 z" transform="matrix(0.79957699,0,0,0.79957699,-36.763543,26.37634)" id="path9297-4-3" inkscape:connector-curvature="0"/>
      </g>
    </g>
  </g>
</svg>