<?xml version="1.0" encoding="UTF-8" standalone="yes"?>
<svg xmlns:osb="http://www.openswatchbook.org/uri/2009/osb" xmlns:dc="http://purl.org/dc/elements/1.1/" xmlns:cc="http://creativecommons.org/ns#" xmlns:rdf="http://www.w3.org/1999/02/22-rdf-syntax-ns#" xmlns:svg="http://www.w3.org/2000/svg" xmlns="http://www.w3.org/2000/svg" xmlns:xlink="http://www.w3.org/1999/xlink" xmlns:sodipodi="http://sodipodi.sourceforge.net/DTD/sodipodi-0.dtd" xmlns:inkscape="http://www.inkscape.org/namespaces/inkscape" height="96" viewBox="0 0 96 96" width="96" id="svg2" version="1.1" inkscape:version="0.92.2 5c3e80d, 2017-08-06" sodipodi:docname="drive-harddisk.svg" enable-background="new" folder="96">
  <title id="title4675">Template icons dark</title>
  <metadata id="metadata24">
    <rdf:RDF>
      <cc:Work rdf:about="">
        <dc:format>image/svg+xml</dc:format>
        <dc:type rdf:resource="http://purl.org/dc/dcmitype/StillImage"/>
        <dc:title>Template icons dark</dc:title>
        <dc:date>17/05/13</dc:date>
        <dc:creator>
          <cc:Agent>
            <dc:title>wfpaisa</dc:title>
          </cc:Agent>
        </dc:creator>
        <dc:rights>
          <cc:Agent>
            <dc:title>License: GPLv3</dc:title>
          </cc:Agent>
        </dc:rights>
        <dc:language>es-en</dc:language>
        <dc:subject>
          <rdf:Bag>
            <rdf:li>plane-icon-theme</rdf:li>
          </rdf:Bag>
        </dc:subject>
        <dc:description>Template for create set icons</dc:description>
        <cc:license rdf:resource="https://www.gnu.org/licenses/gpl-3.0.en.html"/>
      </cc:Work>
    </rdf:RDF>
  </metadata>
  <defs id="defs22">
    <linearGradient inkscape:collect="always" xlink:href="#linearGradient8023" id="linearGradient8081" gradientUnits="userSpaceOnUse" x1="9.5855684" y1="4.484941" x2="37.77005" y2="43.886402" gradientTransform="matrix(0.66666642,0,0,0.66666642,-31.833331,-31.999993)"/>
    <linearGradient inkscape:collect="always" id="linearGradient8023">
      <stop style="stop-color:#e1e3e7;stop-opacity:1;" offset="0" id="stop8019"/>
      <stop id="stop8031" offset="0.21010877" style="stop-color:#dee1e4;stop-opacity:1"/>
      <stop id="stop8029" offset="0.37979186" style="stop-color:#f1f2f3;stop-opacity:1"/>
      <stop id="stop8027" offset="0.66977036" style="stop-color:#c2c6cd;stop-opacity:1"/>
      <stop style="stop-color:#d7dadf;stop-opacity:1" offset="1" id="stop8021"/>
    </linearGradient>
    <linearGradient inkscape:collect="always" xlink:href="#linearGradient8023" id="linearGradient8025" x1="9" y1="3.99999" x2="37.228348" y2="43.999989" gradientUnits="userSpaceOnUse"/>
    <linearGradient gradientTransform="matrix(2.0982376,0,0,2.0982376,109.7053,109.70531)" inkscape:collect="always" xlink:href="#linearGradient8023" id="linearGradient8025-5" x1="9.1956701" y1="4.4297605" x2="37.228348" y2="43.999989" gradientUnits="userSpaceOnUse"/>
    <linearGradient inkscape:collect="always" xlink:href="#linearGradient8023" id="linearGradient8081-1" gradientUnits="userSpaceOnUse" x1="9.5855684" y1="4.484941" x2="37.77005" y2="43.886402" gradientTransform="matrix(0.66666642,0,0,0.66666642,-59.833331,-59.999993)"/>
    <linearGradient gradientTransform="matrix(1.5259977,0,0,1.5259977,43.634553,43.421777)" inkscape:collect="always" xlink:href="#linearGradient8023" id="linearGradient8025-5-93" x1="9.1956701" y1="4.4297605" x2="37.228348" y2="43.999989" gradientUnits="userSpaceOnUse"/>
    <linearGradient inkscape:collect="always" xlink:href="#linearGradient1484" id="linearGradient1486" x1="160.06299" y1="200" x2="160" y2="196.53442" gradientUnits="userSpaceOnUse"/>
    <linearGradient inkscape:collect="always" id="linearGradient1484">
      <stop id="stop1482" offset="0" style="stop-color:#eeda60;stop-opacity:1"/>
      <stop id="stop1480" offset="1" style="stop-color:#db9918;stop-opacity:1"/>
    </linearGradient>
    <linearGradient gradientTransform="matrix(2.0982376,0,0,2.0982376,109.7053,109.70531)" inkscape:collect="always" xlink:href="#linearGradient8023" id="linearGradient8025-5-3" x1="9.1956701" y1="4.4297605" x2="37.228348" y2="43.999989" gradientUnits="userSpaceOnUse"/>
    <linearGradient gradientTransform="matrix(2.8612458,0,0,2.8612458,203.44353,204.4619)" inkscape:collect="always" xlink:href="#linearGradient8023" id="linearGradient8025-5-9" x1="9.1956701" y1="4.4297605" x2="37.228348" y2="43.999989" gradientUnits="userSpaceOnUse"/>
    <linearGradient gradientTransform="matrix(1.3636424,0,0,1.3636424,53.84472,54.86309)" inkscape:collect="always" xlink:href="#linearGradient1484" id="linearGradient1486-3" x1="160.06299" y1="200" x2="160" y2="196.53442" gradientUnits="userSpaceOnUse"/>
    <linearGradient inkscape:collect="always" xlink:href="#default_color" id="linearGradient8185" gradientUnits="userSpaceOnUse" gradientTransform="matrix(0.66666663,0,0,0.66666667,34.84759,62)" x1="-153.4238" y1="-84" x2="-129.4238" y2="-84"/>
    <linearGradient id="default_color" osb:paint="solid">
      <stop style="stop-color:#ffffff;stop-opacity:1;" offset="0" id="stop845"/>
    </linearGradient>
    <linearGradient inkscape:collect="always" xlink:href="#default_color" id="linearGradient4192" gradientUnits="userSpaceOnUse" gradientTransform="matrix(0.66666663,0,0,0.66666667,34.847589,62.000001)" x1="-153.4238" y1="-84" x2="-129.4238" y2="-84"/>
    <linearGradient inkscape:collect="always" xlink:href="#default_color" id="linearGradient1074" gradientUnits="userSpaceOnUse" gradientTransform="translate(-72.97638,373.00001)" x1="3" y1="-436.5" x2="15.000001" y2="-436.5"/>
    <linearGradient inkscape:collect="always" xlink:href="#default_color" id="linearGradient1068" gradientUnits="userSpaceOnUse" gradientTransform="matrix(0.66666663,0,0,0.66666667,34.84759,62)" x1="-153.4238" y1="-84" x2="-129.4238" y2="-84"/>
    <linearGradient inkscape:collect="always" xlink:href="#default_color" id="linearGradient1070" gradientUnits="userSpaceOnUse" gradientTransform="matrix(0.66666663,0,0,0.66666667,34.84759,62)" x1="-153.4238" y1="-84" x2="-129.4238" y2="-84"/>
    <linearGradient inkscape:collect="always" xlink:href="#default_color" id="linearGradient1072" gradientUnits="userSpaceOnUse" gradientTransform="matrix(0.66666663,0,0,0.66666667,34.84759,62)" x1="-153.4238" y1="-84" x2="-129.4238" y2="-84"/>
    <linearGradient inkscape:collect="always" xlink:href="#default_color" id="linearGradient1075" gradientUnits="userSpaceOnUse" gradientTransform="matrix(0.66666663,0,0,0.66666667,34.84759,62)" x1="-153.4238" y1="-84" x2="-129.4238" y2="-84"/>
    <linearGradient inkscape:collect="always" xlink:href="#default_color" id="linearGradient1077" gradientUnits="userSpaceOnUse" gradientTransform="matrix(0.66666663,0,0,0.66666667,34.84759,62)" x1="-153.4238" y1="-84" x2="-129.4238" y2="-84"/>
    <linearGradient inkscape:collect="always" xlink:href="#default_color" id="linearGradient1079" gradientUnits="userSpaceOnUse" gradientTransform="matrix(0.66666663,0,0,0.66666667,34.84759,62)" x1="-153.4238" y1="-84" x2="-129.4238" y2="-84"/>
    <linearGradient inkscape:collect="always" xlink:href="#default_color" id="linearGradient1081" gradientUnits="userSpaceOnUse" gradientTransform="matrix(0.66666663,0,0,0.66666667,34.84759,62)" x1="-153.4238" y1="-84" x2="-129.4238" y2="-84"/>
  </defs>
  <sodipodi:namedview pagecolor="#383c4a" bordercolor="#ffffff" borderopacity="0.62745098" objecttolerance="4" gridtolerance="10" guidetolerance="4" inkscape:pageopacity="0" inkscape:pageshadow="2" inkscape:window-width="640" inkscape:window-height="480" id="namedview20" showgrid="true" inkscape:zoom="16.386532" inkscape:cx="-47.116068" inkscape:cy="102.46658" inkscape:current-layer="layer6" inkscape:snap-smooth-nodes="false" showguides="true" borderlayer="true" inkscape:showpageshadow="false" inkscape:guide-bbox="true" guidecolor="#bd4fff" guideopacity="0.78431373" inkscape:snap-nodes="true" inkscape:lockguides="false" fit-margin-top="0" fit-margin-left="0" fit-margin-right="0" fit-margin-bottom="0" guidehicolor="#ff0101" guidehiopacity="0.78431373" inkscape:snap-page="true" inkscape:object-nodes="true" inkscape:snap-bbox="true" inkscape:snap-global="true" inkscape:snap-object-midpoints="false" inkscape:snap-bbox-edge-midpoints="false">
    <inkscape:grid type="xygrid" id="grid4171" empspacing="4" dotted="false" originx="2.7755576e-17" originy="0" spacingx="1" spacingy="1" color="#5a5a5a" opacity="0.23529412" empcolor="#5a5a5a" empopacity="0.47058824" visible="true"/>
    <inkscape:grid type="axonomgrid" id="grid4699" units="mm" empspacing="4" color="#5a5a5a" opacity="0.23529412" empcolor="#5a5a5a" empopacity="0.47058824" gridanglex="45" gridanglez="45" spacingy="3.7795276" visible="false" originx="1.3228346" originy="1.3228346"/>
    <sodipodi:guide position="48,0" orientation="1,0" id="guide4568" inkscape:locked="false" inkscape:label="" inkscape:color="rgb(189,79,255)"/>
    <sodipodi:guide position="111.99996,-3.9999999e-05" orientation="0,1" id="guide4570" inkscape:locked="false" inkscape:label="" inkscape:color="rgb(189,79,255)"/>
    <sodipodi:guide position="0,0" orientation="1,0" id="guide4572" inkscape:locked="false" inkscape:label="" inkscape:color="rgb(189,79,255)"/>
    <sodipodi:guide position="0,48" orientation="0,1" id="guide4574" inkscape:locked="false" inkscape:label="" inkscape:color="rgb(189,79,255)"/>
    <sodipodi:guide position="0,80" orientation="0,1" id="guide4576" inkscape:locked="false" inkscape:label="" inkscape:color="rgb(189,79,255)"/>
    <sodipodi:guide position="-32,48" orientation="1,0" id="guide4578" inkscape:locked="false" inkscape:label="" inkscape:color="rgb(189,79,255)"/>
    <sodipodi:guide position="-32,104" orientation="0,1" id="guide4580" inkscape:locked="false" inkscape:label="" inkscape:color="rgb(189,79,255)"/>
    <sodipodi:guide position="-56,80" orientation="1,0" id="guide4582" inkscape:locked="false" inkscape:label="" inkscape:color="rgb(189,79,255)"/>
    <sodipodi:guide position="48,-64" orientation="0,1" id="guide4584" inkscape:locked="false" inkscape:label="" inkscape:color="rgb(189,79,255)"/>
    <sodipodi:guide position="0,0" orientation="-0.70710678,0.70710678" id="guide4588" inkscape:locked="false" inkscape:label="" inkscape:color="rgb(189,79,255)"/>
    <sodipodi:guide position="-56,80" orientation="-0.70710678,0.70710678" id="guide4573" inkscape:locked="false" inkscape:label="" inkscape:color="rgb(189,79,255)"/>
    <sodipodi:guide position="-32,48" orientation="-0.70710678,0.70710678" id="guide4575" inkscape:locked="false" inkscape:label="" inkscape:color="rgb(189,79,255)"/>
    <sodipodi:guide position="48,-64" orientation="-0.70710678,0.70710678" id="guide4577" inkscape:locked="false" inkscape:label="" inkscape:color="rgb(189,79,255)"/>
    <sodipodi:guide position="47.999962,0" orientation="0.70710678,0.70710678" id="guide4697" inkscape:locked="false" inkscape:label="" inkscape:color="rgb(189,79,255)"/>
    <sodipodi:guide position="207.99995,-288" orientation="0,1" id="guide7833" inkscape:locked="false"/>
    <sodipodi:guide position="335.99994,-288" orientation="1,0" id="guide7835" inkscape:locked="false" inkscape:label="" inkscape:color="rgb(189,79,255)"/>
    <sodipodi:guide position="111.99996,-64" orientation="1,0" id="guide7915" inkscape:locked="false"/>
    <sodipodi:guide position="111.99996,-160" orientation="0,1" id="guide7917" inkscape:locked="false"/>
    <sodipodi:guide position="207.99996,-160" orientation="1,0" id="guide7919" inkscape:locked="false"/>
    <sodipodi:guide position="111.99996,-160" orientation="-0.70710678,0.70710678" id="guide7921" inkscape:locked="false" inkscape:label="" inkscape:color="rgb(189,79,255)"/>
    <sodipodi:guide position="207.99996,-288" orientation="-0.70710678,0.70710678" id="guide7923" inkscape:locked="false" inkscape:label="" inkscape:color="rgb(189,79,255)"/>
    <sodipodi:guide position="-72,104" orientation="1,0" id="guide7824" inkscape:locked="false"/>
    <sodipodi:guide position="-56,120" orientation="0,1" id="guide7826" inkscape:locked="false"/>
    <sodipodi:guide position="-72,104" orientation="-0.70710678,0.70710678" id="guide7828" inkscape:locked="false" inkscape:label="" inkscape:color="rgb(189,79,255)"/>
  </sodipodi:namedview>
  <g style="display:inline" inkscape:label="icon_96" id="g8840" inkscape:groupmode="layer" transform="translate(-111.99996,-112)">
    <g style="display:none" inkscape:label="frame" id="g8776" inkscape:groupmode="layer">
      <rect style="color:#000000;clip-rule:nonzero;display:inline;overflow:visible;visibility:visible;opacity:1;isolation:auto;mix-blend-mode:normal;color-interpolation:sRGB;color-interpolation-filters:linearRGB;solid-color:#000000;solid-opacity:1;vector-effect:none;fill:#000000;fill-opacity:1;fill-rule:nonzero;stroke:#ff24f7;stroke-width:0;stroke-linecap:square;stroke-linejoin:miter;stroke-miterlimit:4;stroke-dasharray:none;stroke-dashoffset:0;stroke-opacity:0.99481865;marker:none;marker-start:none;marker-mid:none;marker-end:none;paint-order:normal;color-rendering:auto;image-rendering:auto;shape-rendering:auto;text-rendering:auto;enable-background:accumulate" id="rect_96" width="96" height="96" x="111.99996" y="112" inkscape:label="frame_96"/>
      <text inkscape:label="txt_96" id="text_96" y="168.73633" x="144.72458" style="font-size:24px;line-height:0%;font-family:sans-serif;letter-spacing:0px;word-spacing:0px;display:inline;opacity:1;fill:#ffffff;fill-opacity:1;stroke:none;stroke-width:0.04917826px;stroke-linecap:butt;stroke-linejoin:miter;stroke-opacity:1" xml:space="preserve">
        <tspan id="tspan8768" style="font-size:24px;line-height:0%;fill:#ffffff;fill-opacity:1;stroke:none;stroke-width:0.04917826px" y="168.73633" x="144.72458" sodipodi:role="line">96</tspan>
      </text>
    </g>
    <g style="display:inline" inkscape:label="icon" id="g8838" inkscape:groupmode="layer">
      <path inkscape:connector-curvature="0" id="path946" d="M 126.04725,116 126,204 h 17.05512 L 146,201 h 28 l 3,3 h 17 l 0.0787,-88 z" style="display:inline;opacity:1;fill:#000000;fill-opacity:0.10439561;stroke:none;stroke-width:2.19127989;stroke-linecap:butt;stroke-linejoin:miter;stroke-miterlimit:4;stroke-dasharray:none;stroke-dashoffset:0;stroke-opacity:0.23979594" sodipodi:nodetypes="ccccccccc" inkscape:label="base sombra"/>
      <path sodipodi:nodetypes="ccccccccc" style="display:inline;opacity:1;fill:#565e66;fill-opacity:1;stroke:none;stroke-width:2.09823751;stroke-linecap:butt;stroke-linejoin:miter;stroke-miterlimit:4;stroke-dasharray:none;stroke-dashoffset:0;stroke-opacity:0.23979594" d="m 127,117 v 86 h 16.05512 L 148,196 l 23.97713,3e-5 L 177,203 h 16 v -86 z" id="path8033-93" inkscape:connector-curvature="0" inkscape:label="borde negro"/>
      <path inkscape:connector-curvature="0" id="rect4517-7-2-7" d="m 128,118 v 84 h 15 l 5.02609,-5.99997 h 23.95104 L 177,202 h 15 v -84 z" style="display:inline;opacity:1;fill:url(#linearGradient8025-5-3);fill-opacity:1;stroke:none;stroke-width:2.09823751;stroke-linecap:butt;stroke-linejoin:miter;stroke-miterlimit:4;stroke-dasharray:none;stroke-dashoffset:0;stroke-opacity:0.23979594" sodipodi:nodetypes="ccccccccc" inkscape:label="base"/>
      <path style="display:inline;fill:#6c7587;fill-opacity:1;fill-rule:evenodd;stroke:none;stroke-width:2.09823775px;stroke-linecap:butt;stroke-linejoin:miter;stroke-opacity:1" d="m 148,196 -3.32886,4.00001 30.65186,-1e-5 -3.34587,-3.99997 z" id="path8005-5" inkscape:connector-curvature="0" sodipodi:nodetypes="ccccc" inkscape:label="baquelita"/>
      <path style="color:#000000;clip-rule:nonzero;display:block;overflow:visible;visibility:visible;opacity:1;isolation:auto;mix-blend-mode:normal;color-interpolation:sRGB;color-interpolation-filters:linearRGB;solid-color:#000000;solid-opacity:1;vector-effect:none;fill:url(#linearGradient1486);fill-opacity:1;fill-rule:nonzero;stroke:none;stroke-width:0.27257034;stroke-linecap:round;stroke-linejoin:round;stroke-miterlimit:4;stroke-dasharray:none;stroke-dashoffset:0;stroke-opacity:0.96354167;marker:none;marker-start:none;marker-mid:none;marker-end:none;paint-order:normal;color-rendering:auto;image-rendering:auto;shape-rendering:auto;text-rendering:auto;enable-background:accumulate" d="m 148,196 v 4 h 2 v -4 z m 4.00781,0 v 4 h 2.00586 v -4 z M 156,196 v 4 h 2 v -4 z m 6,0 v 4 h 2 v -4 z m 4,0 v 4.01562 L 168,200 v -4 z m 4,0 v 4 h 2 v -4 z" id="rect8007-2" inkscape:connector-curvature="0" inkscape:label="contactos"/>
      <path sodipodi:nodetypes="ccccc" inkscape:connector-curvature="0" id="path8207-8" d="m 148,196 -1.67926,2 h 27.32969 l -1.6733,-2 z" style="display:inline;fill:#000000;fill-opacity:0.24725276;fill-rule:evenodd;stroke:none;stroke-width:1.47403872px;stroke-linecap:butt;stroke-linejoin:miter;stroke-opacity:1" inkscape:label="baquelita sombra"/>
      <path style="color:#000000;clip-rule:nonzero;display:block;overflow:visible;visibility:visible;opacity:1;isolation:auto;mix-blend-mode:normal;color-interpolation:sRGB;color-interpolation-filters:linearRGB;solid-color:#000000;solid-opacity:1;vector-effect:none;fill:#000000;fill-opacity:0.07843137;fill-rule:nonzero;stroke:none;stroke-width:0.25980884;stroke-linecap:round;stroke-linejoin:round;stroke-miterlimit:4;stroke-dasharray:none;stroke-dashoffset:0;stroke-opacity:0.96354167;marker:none;marker-start:none;marker-mid:none;marker-end:none;paint-order:normal;color-rendering:auto;image-rendering:auto;shape-rendering:auto;text-rendering:auto;enable-background:accumulate" d="m 143,135 h 34 v 50 h -34 z" id="rect8154-3-4" inkscape:connector-curvature="0" sodipodi:nodetypes="ccccc" inkscape:label="centro recuadro"/>
      <path style="color:#000000;clip-rule:nonzero;display:inline;overflow:visible;visibility:visible;opacity:1;isolation:auto;mix-blend-mode:normal;color-interpolation:sRGB;color-interpolation-filters:linearRGB;solid-color:#000000;solid-opacity:1;vector-effect:none;fill:#ffffff;fill-opacity:0.5;fill-rule:nonzero;stroke:none;stroke-width:1;stroke-linecap:square;stroke-linejoin:miter;stroke-miterlimit:4;stroke-dasharray:2, 2;stroke-dashoffset:9.73946476;stroke-opacity:1;marker:none;marker-start:none;marker-mid:none;marker-end:none;paint-order:markers stroke fill;color-rendering:auto;image-rendering:auto;shape-rendering:auto;text-rendering:auto;enable-background:accumulate" d="m 143,185 h 34 v 1 h -34 z" id="rect956" inkscape:connector-curvature="0" inkscape:label="centro recuadro brillo inf"/>
      <path sodipodi:nodetypes="sssss" inkscape:connector-curvature="0" id="path936" d="m 132,160 c 1.11007,0 2.00375,0.89367 2.00375,2.00375 0,1.11007 -0.89368,2.00374 -2.00375,2.00374 -1.11007,0 -2.00375,-0.89367 -2.00375,-2.00374 C 129.99625,160.89367 130.88993,160 132,160 Z" style="display:inline;opacity:1;fill:#737373;fill-opacity:1;stroke:none;stroke-width:2.67166352;stroke-linecap:butt;stroke-linejoin:miter;stroke-miterlimit:4;stroke-dasharray:none;stroke-dashoffset:0;stroke-opacity:0.64313725" inkscape:label="tornillo"/>
      <path style="display:inline;opacity:1;fill:#737373;fill-opacity:1;stroke:none;stroke-width:2.67166352;stroke-linecap:butt;stroke-linejoin:miter;stroke-miterlimit:4;stroke-dasharray:none;stroke-dashoffset:0;stroke-opacity:0.64313725" d="m 132,196 c 1.11007,0 2.00375,0.89367 2.00375,2.00375 0,1.11007 -0.89368,2.00374 -2.00375,2.00374 -1.11007,0 -2.00375,-0.89367 -2.00375,-2.00374 C 129.99625,196.89367 130.88993,196 132,196 Z" id="path938" inkscape:connector-curvature="0" sodipodi:nodetypes="sssss" inkscape:label="tornillo"/>
      <path sodipodi:nodetypes="sssss" inkscape:connector-curvature="0" id="path940" d="m 188,120 c 1.11007,0 2.00375,0.89367 2.00375,2.00375 0,1.11007 -0.89368,2.00374 -2.00375,2.00374 -1.11007,0 -2.00375,-0.89367 -2.00375,-2.00374 C 185.99625,120.89367 186.88993,120 188,120 Z" style="display:inline;opacity:1;fill:#737373;fill-opacity:1;stroke:none;stroke-width:2.67166352;stroke-linecap:butt;stroke-linejoin:miter;stroke-miterlimit:4;stroke-dasharray:none;stroke-dashoffset:0;stroke-opacity:0.64313725" inkscape:label="tornillo"/>
      <path style="display:inline;opacity:1;fill:#737373;fill-opacity:1;stroke:none;stroke-width:2.67166352;stroke-linecap:butt;stroke-linejoin:miter;stroke-miterlimit:4;stroke-dasharray:none;stroke-dashoffset:0;stroke-opacity:0.64313725" d="m 188,160 c 1.11007,0 2.00375,0.89367 2.00375,2.00375 0,1.11007 -0.89368,2.00374 -2.00375,2.00374 -1.11007,0 -2.00375,-0.89367 -2.00375,-2.00374 C 185.99625,160.89367 186.88993,160 188,160 Z" id="path942" inkscape:connector-curvature="0" sodipodi:nodetypes="sssss" inkscape:label="tornillo"/>
      <path sodipodi:nodetypes="sssss" inkscape:connector-curvature="0" id="path944" d="m 188,196 c 1.11007,0 2.00375,0.89367 2.00375,2.00375 0,1.11007 -0.89368,2.00374 -2.00375,2.00374 -1.11007,0 -2.00375,-0.89367 -2.00375,-2.00374 C 185.99625,196.89367 186.88993,196 188,196 Z" style="display:inline;opacity:1;fill:#737373;fill-opacity:1;stroke:none;stroke-width:2.67166352;stroke-linecap:butt;stroke-linejoin:miter;stroke-miterlimit:4;stroke-dasharray:none;stroke-dashoffset:0;stroke-opacity:0.64313725" inkscape:label="tornillo"/>
      <path sodipodi:nodetypes="sssss" inkscape:connector-curvature="0" id="rect4617-5-3-9-68" d="m 132,120 c 1.11007,0 2.00375,0.89367 2.00375,2.00375 0,1.11007 -0.89368,2.00374 -2.00375,2.00374 -1.11007,0 -2.00375,-0.89367 -2.00375,-2.00374 C 129.99625,120.89367 130.88993,120 132,120 Z" style="display:inline;opacity:1;fill:#737373;fill-opacity:1;stroke:none;stroke-width:2.67166352;stroke-linecap:butt;stroke-linejoin:miter;stroke-miterlimit:4;stroke-dasharray:none;stroke-dashoffset:0;stroke-opacity:0.64313725" inkscape:label="tornillo"/>
      <path style="display:inline;opacity:1;fill:#000000;fill-opacity:0.46153846;stroke:none;stroke-width:2.67166352;stroke-linecap:butt;stroke-linejoin:miter;stroke-miterlimit:4;stroke-dasharray:none;stroke-dashoffset:0;stroke-opacity:0.64313725" d="m 132,120 c -1.11007,0 -2.00391,0.89383 -2.00391,2.00391 0,0.0979 0.0159,0.1911 0.0293,0.28515 0.13974,-0.97168 0.96308,-1.71679 1.97461,-1.71679 1.01153,0 1.83487,0.74511 1.97461,1.71679 0.0134,-0.0941 0.0293,-0.18727 0.0293,-0.28515 C 134.00391,120.89383 133.11007,120 132,120 Z m 56,0 c -1.11007,0 -2.00391,0.89383 -2.00391,2.00391 0,0.0979 0.0159,0.1911 0.0293,0.28515 0.13974,-0.97168 0.96308,-1.71679 1.97461,-1.71679 1.01153,0 1.83487,0.74511 1.97461,1.71679 0.0134,-0.0941 0.0293,-0.18727 0.0293,-0.28515 C 190.00391,120.89383 189.11007,120 188,120 Z m -56,40 c -1.11007,0 -2.00391,0.89383 -2.00391,2.00391 0,0.0979 0.0159,0.1911 0.0293,0.28515 0.13974,-0.97168 0.96308,-1.71679 1.97461,-1.71679 1.01153,0 1.83487,0.74511 1.97461,1.71679 0.0134,-0.0941 0.0293,-0.18727 0.0293,-0.28515 C 134.00391,160.89383 133.11007,160 132,160 Z m 56,0 c -1.11007,0 -2.00391,0.89383 -2.00391,2.00391 0,0.0979 0.0159,0.1911 0.0293,0.28515 0.13974,-0.97168 0.96308,-1.71679 1.97461,-1.71679 1.01153,0 1.83487,0.74511 1.97461,1.71679 0.0134,-0.0941 0.0293,-0.18727 0.0293,-0.28515 C 190.00391,160.89383 189.11007,160 188,160 Z m -56,36 c -1.11007,0 -2.00391,0.89383 -2.00391,2.00391 0,0.0979 0.0159,0.1911 0.0293,0.28515 0.13974,-0.97168 0.96308,-1.71679 1.97461,-1.71679 1.01153,0 1.83487,0.74511 1.97461,1.71679 0.0134,-0.0941 0.0293,-0.18727 0.0293,-0.28515 C 134.00391,196.89383 133.11007,196 132,196 Z m 56,0 c -1.11007,0 -2.00391,0.89383 -2.00391,2.00391 0,0.0979 0.0159,0.1911 0.0293,0.28515 0.13974,-0.97168 0.96308,-1.71679 1.97461,-1.71679 1.01153,0 1.83487,0.74511 1.97461,1.71679 0.0134,-0.0941 0.0293,-0.18727 0.0293,-0.28515 C 190.00391,196.89383 189.11007,196 188,196 Z" id="path958" inkscape:connector-curvature="0" inkscape:label="tornillos sombra"/>
      <path style="color:#000000;clip-rule:nonzero;display:block;overflow:visible;visibility:visible;opacity:1;isolation:auto;mix-blend-mode:normal;color-interpolation:sRGB;color-interpolation-filters:linearRGB;solid-color:#000000;solid-opacity:1;vector-effect:none;fill:#ffffff;fill-opacity:0.27472528;fill-rule:nonzero;stroke:none;stroke-width:0.37935105;stroke-linecap:butt;stroke-linejoin:miter;stroke-miterlimit:4;stroke-dasharray:none;stroke-dashoffset:0;stroke-opacity:0.28021982;marker:none;marker-start:none;marker-mid:none;marker-end:none;paint-order:fill markers stroke;color-rendering:auto;image-rendering:auto;shape-rendering:auto;text-rendering:auto;enable-background:accumulate" d="m 132,121 a 1,1 0 0 0 -1,1 1,1 0 0 0 1,1 1,1 0 0 0 1,-1 1,1 0 0 0 -1,-1 z m 56,0 a 1,1 0 0 0 -1,1 1,1 0 0 0 1,1 1,1 0 0 0 1,-1 1,1 0 0 0 -1,-1 z m -56,40 a 1,1 0 0 0 -1,1 1,1 0 0 0 1,1 1,1 0 0 0 1,-1 1,1 0 0 0 -1,-1 z m 56,0 a 1,1 0 0 0 -1,1 1,1 0 0 0 1,1 1,1 0 0 0 1,-1 1,1 0 0 0 -1,-1 z m -56,36 a 1,1 0 0 0 -1,1 1,1 0 0 0 1,1 1,1 0 0 0 1,-1 1,1 0 0 0 -1,-1 z m 56,0.0371 a 1,1 0 0 0 -1,1 1,1 0 0 0 1,1 1,1 0 0 0 1,-1 1,1 0 0 0 -1,-1 z" id="path1490" inkscape:connector-curvature="0" inkscape:label="tornillo centro"/>
      <rect style="color:#000000;clip-rule:nonzero;display:block;overflow:visible;visibility:visible;opacity:1;isolation:auto;mix-blend-mode:normal;color-interpolation:sRGB;color-interpolation-filters:linearRGB;solid-color:#000000;solid-opacity:1;vector-effect:none;fill:#000000;fill-opacity:0.2857143;fill-rule:nonzero;stroke:none;stroke-width:1;stroke-linecap:square;stroke-linejoin:miter;stroke-miterlimit:4;stroke-dasharray:2, 2;stroke-dashoffset:9.73946476;stroke-opacity:1;marker:none;marker-start:none;marker-mid:none;marker-end:none;paint-order:markers stroke fill;color-rendering:auto;image-rendering:auto;shape-rendering:auto;text-rendering:auto;enable-background:accumulate" id="rect954" width="34" height="1" x="143" y="135" inkscape:label="centro recuadro sombra top"/>
    </g>
  </g>
</svg>