<?xml version="1.0" encoding="UTF-8" standalone="no"?>
<svg
   xmlns:dc="http://purl.org/dc/elements/1.1/"
   xmlns:cc="http://creativecommons.org/ns#"
   xmlns:rdf="http://www.w3.org/1999/02/22-rdf-syntax-ns#"
   xmlns:svg="http://www.w3.org/2000/svg"
   xmlns="http://www.w3.org/2000/svg"
   xmlns:xlink="http://www.w3.org/1999/xlink"
   xmlns:sodipodi="http://sodipodi.sourceforge.net/DTD/sodipodi-0.dtd"
   xmlns:inkscape="http://www.inkscape.org/namespaces/inkscape"
   height="48"
   viewBox="0 0 48 48"
   width="48"
   id="svg2"
   version="1.1"
   inkscape:version="0.91 r13725"
   sodipodi:docname="docky.svg">
  <metadata
     id="metadata24">
    <rdf:RDF>
      <cc:Work
         rdf:about="">
        <dc:format>image/svg+xml</dc:format>
        <dc:type
           rdf:resource="http://purl.org/dc/dcmitype/StillImage" />
        <dc:title />
      </cc:Work>
    </rdf:RDF>
  </metadata>
  <defs
     id="defs22">
    <linearGradient
       inkscape:collect="always"
       id="linearGradient5318">
      <stop
         style="stop-color:#8dd4d4;stop-opacity:1"
         offset="0"
         id="stop5320" />
      <stop
         style="stop-color:#0b6b85;stop-opacity:1"
         offset="1"
         id="stop5322" />
    </linearGradient>
    <linearGradient
       inkscape:collect="always"
       id="linearGradient5286">
      <stop
         style="stop-color:#c21007;stop-opacity:1"
         offset="0"
         id="stop5288" />
      <stop
         style="stop-color:#f91c09;stop-opacity:1"
         offset="1"
         id="stop5290" />
    </linearGradient>
    <linearGradient
       id="linearGradient5270"
       inkscape:collect="always">
      <stop
         id="stop5272"
         offset="0"
         style="stop-color:#d51418;stop-opacity:1" />
      <stop
         id="stop5280"
         offset="1"
         style="stop-color:#ff5341;stop-opacity:1" />
    </linearGradient>
    <linearGradient
       id="linearGradient5196"
       inkscape:collect="always">
      <stop
         id="stop5198"
         offset="0"
         style="stop-color:#090909;stop-opacity:1" />
      <stop
         id="stop5202"
         offset="1"
         style="stop-color:#5b5b5b;stop-opacity:1" />
    </linearGradient>
    <linearGradient
       inkscape:collect="always"
       id="linearGradient5184">
      <stop
         style="stop-color:#ff2937;stop-opacity:1"
         offset="0"
         id="stop5186" />
      <stop
         id="stop5192"
         offset="0.50804758"
         style="stop-color:#b60009;stop-opacity:1" />
      <stop
         style="stop-color:#fa3e39;stop-opacity:1"
         offset="1"
         id="stop5188" />
    </linearGradient>
    <linearGradient
       inkscape:collect="always"
       id="linearGradient5170">
      <stop
         style="stop-color:#e6e5e0;stop-opacity:1"
         offset="0"
         id="stop5172" />
      <stop
         id="stop5182"
         offset="0.17514126"
         style="stop-color:#e9e6e0;stop-opacity:1" />
      <stop
         id="stop5180"
         offset="0.47457629"
         style="stop-color:#6b5c53;stop-opacity:1" />
      <stop
         style="stop-color:#7e7168;stop-opacity:1"
         offset="0.56601644"
         id="stop5388" />
      <stop
         id="stop5178"
         offset="0.81621462"
         style="stop-color:#faf5e6;stop-opacity:1" />
      <stop
         style="stop-color:#a49594;stop-opacity:1"
         offset="1"
         id="stop5174" />
    </linearGradient>
    <linearGradient
       inkscape:collect="always"
       id="linearGradient5058">
      <stop
         style="stop-color:#ef302e;stop-opacity:1"
         offset="0"
         id="stop5060" />
      <stop
         id="stop5292"
         offset="0.15807837"
         style="stop-color:#ee2d2d;stop-opacity:1" />
      <stop
         id="stop5066"
         offset="0.49468079"
         style="stop-color:#b10219;stop-opacity:1" />
      <stop
         style="stop-color:#e82829;stop-opacity:1"
         offset="0.72872335"
         id="stop5070" />
      <stop
         style="stop-color:#fe4c46;stop-opacity:1"
         offset="0.83510631"
         id="stop5068" />
      <stop
         style="stop-color:#e52530;stop-opacity:1"
         offset="1"
         id="stop5062" />
    </linearGradient>
    <linearGradient
       inkscape:collect="always"
       id="linearGradient4261">
      <stop
         style="stop-color:#000000;stop-opacity:1;"
         offset="0"
         id="stop4263" />
      <stop
         style="stop-color:#000000;stop-opacity:0;"
         offset="1"
         id="stop4265" />
    </linearGradient>
    <linearGradient
       inkscape:collect="always"
       id="linearGradient49897">
      <stop
         style="stop-color:#176875;stop-opacity:1"
         offset="0"
         id="stop49899" />
      <stop
         style="stop-color:#186a77;stop-opacity:1"
         offset="1"
         id="stop49901" />
    </linearGradient>
    <linearGradient
       inkscape:collect="always"
       id="linearGradient4536">
      <stop
         style="stop-color:#b6b6b6;stop-opacity:1"
         offset="0"
         id="stop4538" />
      <stop
         id="stop4544"
         offset="0.48217213"
         style="stop-color:#ffffff;stop-opacity:1;" />
      <stop
         style="stop-color:#cfcfcf;stop-opacity:1"
         offset="1"
         id="stop4540" />
    </linearGradient>
    <linearGradient
       inkscape:collect="always"
       id="linearGradient4492">
      <stop
         style="stop-color:#165dc2;stop-opacity:1;"
         offset="0"
         id="stop4494" />
      <stop
         style="stop-color:#1680c2;stop-opacity:1"
         offset="1"
         id="stop4496" />
    </linearGradient>
    <inkscape:perspective
       sodipodi:type="inkscape:persp3d"
       inkscape:vp_x="0 : 50 : 1"
       inkscape:vp_y="0 : 1000 : 0"
       inkscape:vp_z="100 : 50 : 1"
       inkscape:persp3d-origin="50 : 33.333333 : 1"
       id="perspective4380" />
    <filter
       style="color-interpolation-filters:sRGB"
       id="filter4672"
       inkscape:label="filtro0">
      <feGaussianBlur
         stdDeviation="19.539999999999999"
         id="feGaussianBlur4674" />
    </filter>
    <filter
       style="color-interpolation-filters:sRGB"
       id="filter4680"
       inkscape:label="filtro1">
      <feDiffuseLighting
         id="feDiffuseLighting4682" />
    </filter>
    <linearGradient
       gradientTransform="translate(-29.321003,-3.241)"
       inkscape:collect="always"
       xlink:href="#linearGradient4492"
       id="linearGradient4498-3"
       x1="32.94767"
       y1="16.16"
       x2="41.579502"
       y2="6.4204984"
       gradientUnits="userSpaceOnUse" />
    <linearGradient
       gradientTransform="translate(-29.321003,-3.241)"
       inkscape:collect="always"
       xlink:href="#linearGradient4536"
       id="linearGradient4542-0"
       x1="29.321003"
       y1="10.72"
       x2="44.279003"
       y2="10.72"
       gradientUnits="userSpaceOnUse" />
    <linearGradient
       id="linearGradient3244"
       inkscape:collect="always">
      <stop
         id="stop3246"
         offset="0"
         style="stop-color:#d0611f;stop-opacity:1" />
      <stop
         id="stop3248"
         offset="1"
         style="stop-color:#f77a2c;stop-opacity:1" />
    </linearGradient>
    <linearGradient
       inkscape:collect="always"
       xlink:href="#linearGradient3244"
       id="linearGradient3242-3"
       gradientUnits="userSpaceOnUse"
       gradientTransform="matrix(0.49438202,0,0,0.49438202,-34.11236,-485.66219)"
       x1="78.89711"
       y1="1042.14"
       x2="78.89711"
       y2="982.4278" />
    <symbol
       id="icon-refresh"
       viewBox="0 0 24 28">
      <title
         id="title9852">refresh</title>
      <path
         class="path1"
         d="M23.609 16.5c0 0.031 0 0.078-0.016 0.109-1.328 5.531-5.891 9.391-11.656 9.391-3.047 0-6-1.203-8.219-3.313l-2.016 2.016c-0.187 0.187-0.438 0.297-0.703 0.297-0.547 0-1-0.453-1-1v-7c0-0.547 0.453-1 1-1h7c0.547 0 1 0.453 1 1 0 0.266-0.109 0.516-0.297 0.703l-2.141 2.141c1.469 1.375 3.422 2.156 5.437 2.156 2.781 0 5.359-1.437 6.813-3.813 0.375-0.609 0.562-1.203 0.828-1.828 0.078-0.219 0.234-0.359 0.469-0.359h3c0.281 0 0.5 0.234 0.5 0.5zM24 4v7c0 0.547-0.453 1-1 1h-7c-0.547 0-1-0.453-1-1 0-0.266 0.109-0.516 0.297-0.703l2.156-2.156c-1.484-1.375-3.437-2.141-5.453-2.141-2.781 0-5.359 1.437-6.813 3.813-0.375 0.609-0.562 1.203-0.828 1.828-0.078 0.219-0.234 0.359-0.469 0.359h-3.109c-0.281 0-0.5-0.234-0.5-0.5v-0.109c1.344-5.547 5.953-9.391 11.719-9.391 3.063 0 6.047 1.219 8.266 3.313l2.031-2.016c0.187-0.187 0.438-0.297 0.703-0.297 0.547 0 1 0.453 1 1z"
         id="path9854" />
    </symbol>
    <symbol
       id="symbol5687">
      <title
         id="title5689">Replay</title>
      <path
         d="M24 10V2L14 12l10 10v-8c6.63 0 12 5.37 12 12s-5.37 12-12 12-12-5.37-12-12H8c0 8.84 7.16 16 16 16s16-7.16 16-16-7.16-16-16-16z"
         style="stroke:none"
         id="path5691" />
    </symbol>
    <symbol
       id="symbol20353">
      <title
         id="title20355">Refresh</title>
      <path
         d="M35.3 12.7C32.41 9.8 28.42 8 24 8 15.16 8 8.02 15.16 8.02 24S15.16 40 24 40c7.45 0 13.69-5.1 15.46-12H35.3c-1.65 4.66-6.07 8-11.3 8-6.63 0-12-5.37-12-12s5.37-12 12-12c3.31 0 6.28 1.38 8.45 3.55L26 22h14V8l-4.7 4.7z"
         style="stroke:none"
         id="path20357" />
    </symbol>
    <linearGradient
       inkscape:collect="always"
       xlink:href="#linearGradient49897"
       id="linearGradient49903-2"
       x1="24.333614"
       y1="44.351692"
       x2="24.333614"
       y2="-0.59979343"
       gradientUnits="userSpaceOnUse" />
    <linearGradient
       inkscape:collect="always"
       xlink:href="#linearGradient49897"
       id="linearGradient50365"
       gradientUnits="userSpaceOnUse"
       x1="24.333614"
       y1="44.351692"
       x2="24.333614"
       y2="-0.59979343"
       gradientTransform="matrix(1.0514827,0,0,1.0514827,-1.2359443,-1.105721)" />
    <linearGradient
       inkscape:collect="always"
       xlink:href="#linearGradient4261"
       id="linearGradient4267"
       x1="8.02"
       y1="24"
       x2="40"
       y2="24"
       gradientUnits="userSpaceOnUse" />
    <clipPath
       id="clipPath4346"
       clipPathUnits="userSpaceOnUse">
      <path
         inkscape:connector-curvature="0"
         id="path4348"
         d="M 7999.98,0 0,0 l 0,8000 7999.98,0 0,-8000 M 4024.8,2315.98 c -2018.37,0 -3631.265,-295.84 -3634.183,-674.02 -3,-387.98 1691.193,-715.679 3783.883,-731.851 53.65,-0.418 107.31,-0.621 160.41,-0.621 2018.44,-0.027 3631.23,295.892 3634.14,673.912 3.01,388.17 -1691.12,715.78 -3783.7,731.96 -53.77,0.42 -107.32,0.62 -160.55,0.62" />
    </clipPath>
    <clipPath
       id="clipPath4352"
       clipPathUnits="userSpaceOnUse">
      <path
         inkscape:connector-curvature="0"
         id="path4354"
         d="m 0,3819.2 4531.2,0 0,4185.6 -4531.2,0 0,-4185.6 z" />
    </clipPath>
    <clipPath
       id="clipPath4364"
       clipPathUnits="userSpaceOnUse">
      <path
         inkscape:connector-curvature="0"
         id="path4366"
         d="M 7999.98,0 0,0 l 0,8000 7999.98,0 0,-8000 M 4024.8,2315.98 c -2018.37,0 -3631.265,-295.84 -3634.183,-674.02 -3,-387.98 1691.193,-715.679 3783.883,-731.851 53.65,-0.418 107.31,-0.621 160.41,-0.621 2018.44,-0.027 3631.23,295.892 3634.14,673.912 3.01,388.17 -1691.12,715.78 -3783.7,731.96 -53.77,0.42 -107.32,0.62 -160.55,0.62" />
    </clipPath>
    <clipPath
       id="clipPath4370"
       clipPathUnits="userSpaceOnUse">
      <path
         inkscape:connector-curvature="0"
         id="path4372"
         d="m 4516.8,2777.6 3489.6,0 0,5227.2 -3489.6,0 0,-5227.2 z" />
    </clipPath>
    <clipPath
       id="clipPath4382"
       clipPathUnits="userSpaceOnUse">
      <path
         inkscape:connector-curvature="0"
         id="path4384"
         d="M 7999.98,0 0,0 l 0,8000 7999.98,0 0,-8000 M 4024.8,2315.98 c -2018.37,0 -3631.265,-295.84 -3634.183,-674.02 -3,-387.98 1691.193,-715.679 3783.883,-731.851 53.65,-0.418 107.31,-0.621 160.41,-0.621 2018.44,-0.027 3631.23,295.892 3634.14,673.912 3.01,388.17 -1691.12,715.78 -3783.7,731.96 -53.77,0.42 -107.32,0.62 -160.55,0.62" />
    </clipPath>
    <clipPath
       id="clipPath4388"
       clipPathUnits="userSpaceOnUse">
      <path
         inkscape:connector-curvature="0"
         id="path4390"
         d="m 0,2081.6 4531.2,0 0,1752 -4531.2,0 0,-1752 z" />
    </clipPath>
    <clipPath
       id="clipPath4400"
       clipPathUnits="userSpaceOnUse">
      <path
         inkscape:connector-curvature="0"
         id="path4402"
         d="M 7999.98,0 0,0 l 0,8000 7999.98,0 0,-8000 M 4024.8,2315.98 c -2018.37,0 -3631.265,-295.84 -3634.183,-674.02 -3,-387.98 1691.193,-715.679 3783.883,-731.851 53.65,-0.418 107.31,-0.621 160.41,-0.621 2018.44,-0.027 3631.23,295.892 3634.14,673.912 3.01,388.17 -1691.12,715.78 -3783.7,731.96 -53.77,0.42 -107.32,0.62 -160.55,0.62" />
    </clipPath>
    <clipPath
       id="clipPath4406"
       clipPathUnits="userSpaceOnUse">
      <path
         inkscape:connector-curvature="0"
         id="path4408"
         d="m 4516.8,2081.6 3489.6,0 0,710.398 -3489.6,0 0,-710.398 z" />
    </clipPath>
    <clipPath
       id="clipPath4418"
       clipPathUnits="userSpaceOnUse">
      <path
         inkscape:connector-curvature="0"
         id="path4420"
         d="M 7999.98,0 0,0 l 0,8000 7999.98,0 0,-8000 M 4024.8,2315.98 c -2018.37,0 -3631.265,-295.84 -3634.183,-674.02 -3,-387.98 1691.193,-715.679 3783.883,-731.851 53.65,-0.418 107.31,-0.621 160.41,-0.621 2018.44,-0.027 3631.23,295.892 3634.14,673.912 3.01,388.17 -1691.12,715.78 -3783.7,731.96 -53.77,0.42 -107.32,0.62 -160.55,0.62" />
    </clipPath>
    <clipPath
       id="clipPath4424"
       clipPathUnits="userSpaceOnUse">
      <path
         inkscape:connector-curvature="0"
         id="path4426"
         d="m 0,0 700.801,0 0,2096 L 0,2096 0,0 Z" />
    </clipPath>
    <clipPath
       id="clipPath4436"
       clipPathUnits="userSpaceOnUse">
      <path
         inkscape:connector-curvature="0"
         id="path4438"
         d="M 7999.98,0 0,0 l 0,8000 7999.98,0 0,-8000 M 4024.8,2315.98 c -2018.37,0 -3631.265,-295.84 -3634.183,-674.02 -3,-387.98 1691.193,-715.679 3783.883,-731.851 53.65,-0.418 107.31,-0.621 160.41,-0.621 2018.44,-0.027 3631.23,295.892 3634.14,673.912 3.01,388.17 -1691.12,715.78 -3783.7,731.96 -53.77,0.42 -107.32,0.62 -160.55,0.62" />
    </clipPath>
    <clipPath
       id="clipPath4442"
       clipPathUnits="userSpaceOnUse">
      <path
         inkscape:connector-curvature="0"
         id="path4444"
         d="m 686.398,1731.2 710.402,0 0,364.801 -710.402,0 0,-364.801 z" />
    </clipPath>
    <clipPath
       id="clipPath4454"
       clipPathUnits="userSpaceOnUse">
      <path
         inkscape:connector-curvature="0"
         id="path4456"
         d="M 7999.98,0 0,0 l 0,8000 7999.98,0 0,-8000 M 4024.8,2315.98 c -2018.37,0 -3631.265,-295.84 -3634.183,-674.02 -3,-387.98 1691.193,-715.679 3783.883,-731.851 53.65,-0.418 107.31,-0.621 160.41,-0.621 2018.44,-0.027 3631.23,295.892 3634.14,673.912 3.01,388.17 -1691.12,715.78 -3783.7,731.96 -53.77,0.42 -107.32,0.62 -160.55,0.62" />
    </clipPath>
    <clipPath
       id="clipPath4460"
       clipPathUnits="userSpaceOnUse">
      <path
         inkscape:connector-curvature="0"
         id="path4462"
         d="m 6600,1731.2 1406.4,0 0,364.801 -1406.4,0 0,-364.801 z" />
    </clipPath>
    <clipPath
       id="clipPath4472"
       clipPathUnits="userSpaceOnUse">
      <path
         inkscape:connector-curvature="0"
         id="path4474"
         d="M 7999.98,0 0,0 l 0,8000 7999.98,0 0,-8000 M 4024.8,2315.98 c -2018.37,0 -3631.265,-295.84 -3634.183,-674.02 -3,-387.98 1691.193,-715.679 3783.883,-731.851 53.65,-0.418 107.31,-0.621 160.41,-0.621 2018.44,-0.027 3631.23,295.892 3634.14,673.912 3.01,388.17 -1691.12,715.78 -3783.7,731.96 -53.77,0.42 -107.32,0.62 -160.55,0.62" />
    </clipPath>
    <clipPath
       id="clipPath4478"
       clipPathUnits="userSpaceOnUse">
      <path
         inkscape:connector-curvature="0"
         id="path4480"
         d="m 7646.4,0 360,0 0,1745.6 -360,0 0,-1745.6 z" />
    </clipPath>
    <clipPath
       id="clipPath4490"
       clipPathUnits="userSpaceOnUse">
      <path
         inkscape:connector-curvature="0"
         id="path4492"
         d="M 7999.98,0 0,0 l 0,8000 7999.98,0 0,-8000 M 4024.8,2315.98 c -2018.37,0 -3631.265,-295.84 -3634.183,-674.02 -3,-387.98 1691.193,-715.679 3783.883,-731.851 53.65,-0.418 107.31,-0.621 160.41,-0.621 2018.44,-0.027 3631.23,295.892 3634.14,673.912 3.01,388.17 -1691.12,715.78 -3783.7,731.96 -53.77,0.42 -107.32,0.62 -160.55,0.62" />
    </clipPath>
    <clipPath
       id="clipPath4496"
       clipPathUnits="userSpaceOnUse">
      <path
         inkscape:connector-curvature="0"
         id="path4498"
         d="m 686.398,0 1406.4,0 0,1400 -1406.4,0 0,-1400 z" />
    </clipPath>
    <clipPath
       id="clipPath4508"
       clipPathUnits="userSpaceOnUse">
      <path
         inkscape:connector-curvature="0"
         id="path4510"
         d="M 7999.98,0 0,0 l 0,8000 7999.98,0 0,-8000 M 4024.8,2315.98 c -2018.37,0 -3631.265,-295.84 -3634.183,-674.02 -3,-387.98 1691.193,-715.679 3783.883,-731.851 53.65,-0.418 107.31,-0.621 160.41,-0.621 2018.44,-0.027 3631.23,295.892 3634.14,673.912 3.01,388.17 -1691.12,715.78 -3783.7,731.96 -53.77,0.42 -107.32,0.62 -160.55,0.62" />
    </clipPath>
    <clipPath
       id="clipPath4514"
       clipPathUnits="userSpaceOnUse">
      <path
         inkscape:connector-curvature="0"
         id="path4516"
         d="m 6254.4,0 1406.4,0 0,1400 -1406.4,0 0,-1400 z" />
    </clipPath>
    <clipPath
       id="clipPath4526"
       clipPathUnits="userSpaceOnUse">
      <path
         inkscape:connector-curvature="0"
         id="path4528"
         d="M 7999.98,0 0,0 l 0,8000 7999.98,0 0,-8000 M 4024.8,2315.98 c -2018.37,0 -3631.265,-295.84 -3634.183,-674.02 -3,-387.98 1691.193,-715.679 3783.883,-731.851 53.65,-0.418 107.31,-0.621 160.41,-0.621 2018.44,-0.027 3631.23,295.892 3634.14,673.912 3.01,388.17 -1691.12,715.78 -3783.7,731.96 -53.77,0.42 -107.32,0.62 -160.55,0.62" />
    </clipPath>
    <clipPath
       id="clipPath4532"
       clipPathUnits="userSpaceOnUse">
      <path
         inkscape:connector-curvature="0"
         id="path4534"
         d="m 2078.4,0 4190.4,0 0,1049.6 -4190.4,0 0,-1049.6 z" />
    </clipPath>
    <clipPath
       id="clipPath4596"
       clipPathUnits="userSpaceOnUse">
      <path
         inkscape:connector-curvature="0"
         id="path4598"
         d="m 4334.91,909.488 c -53.1,0 -106.76,0.203 -160.41,0.621 -2092.69,16.172 -3786.883,343.871 -3783.883,731.851 2.918,378.18 1615.813,674.02 3634.183,674.02 53.23,0 106.78,-0.2 160.55,-0.62 2092.58,-16.18 3786.71,-343.79 3783.7,-731.96 -2.91,-378.02 -1615.7,-673.939 -3634.14,-673.912" />
    </clipPath>
    <clipPath
       id="clipPath4628"
       clipPathUnits="userSpaceOnUse">
      <path
         inkscape:connector-curvature="0"
         id="path4630"
         d="m 1470.27,4552.09 589.74,-2417.91 2754.89,303.3 -497.07,2106.18 -2847.56,8.43 z" />
    </clipPath>
    <linearGradient
       id="linearGradient4632"
       spreadMethod="pad"
       gradientTransform="matrix(584.97,-2114.89,-2114.89,-584.97,2664.31,5235.57)"
       gradientUnits="userSpaceOnUse"
       y2="0"
       x2="1"
       y1="0"
       x1="0">
      <stop
         id="stop4634"
         offset="0"
         style="stop-opacity:1;stop-color:#eef8e9" />
      <stop
         id="stop4636"
         offset="0.0042735"
         style="stop-opacity:1;stop-color:#eef8e9" />
      <stop
         id="stop4638"
         offset="1"
         style="stop-opacity:1;stop-color:#6acdc9" />
    </linearGradient>
    <clipPath
       id="clipPath4646"
       clipPathUnits="userSpaceOnUse">
      <path
         inkscape:connector-curvature="0"
         id="path4648"
         d="m 1470.27,4552.09 589.74,-2417.91 2754.89,303.3 -497.07,2106.18 -2847.56,8.43" />
    </clipPath>
    <linearGradient
       inkscape:collect="always"
       xlink:href="#linearGradient5058"
       id="linearGradient5064"
       x1="33.599903"
       y1="24.320095"
       x2="23.333273"
       y2="14.573387"
       gradientUnits="userSpaceOnUse"
       gradientTransform="matrix(1.1050183,0,0,1.1050183,-0.72089573,-3.7054154)" />
    <filter
       inkscape:collect="always"
       style="color-interpolation-filters:sRGB"
       id="filter5140"
       x="-0.10875785"
       width="1.2175157"
       y="-0.16745216"
       height="1.3349043">
      <feGaussianBlur
         inkscape:collect="always"
         stdDeviation="0.068494178"
         id="feGaussianBlur5142" />
    </filter>
    <filter
       inkscape:collect="always"
       style="color-interpolation-filters:sRGB"
       id="filter5156"
       x="-0.035629473"
       width="1.0712589"
       y="-0.036378315"
       height="1.0727566">
      <feGaussianBlur
         inkscape:collect="always"
         stdDeviation="0.092367098"
         id="feGaussianBlur5158" />
    </filter>
    <filter
       inkscape:collect="always"
       style="color-interpolation-filters:sRGB"
       id="filter5166"
       x="-0.023984155"
       width="1.0479683"
       y="-0.024015866"
       height="1.0480317">
      <feGaussianBlur
         inkscape:collect="always"
         stdDeviation="0.13673814"
         id="feGaussianBlur5168" />
    </filter>
    <linearGradient
       inkscape:collect="always"
       xlink:href="#linearGradient5170"
       id="linearGradient5176"
       x1="26.12048"
       y1="29.982056"
       x2="17.721865"
       y2="21.881243"
       gradientUnits="userSpaceOnUse"
       gradientTransform="matrix(1.1050183,0,0,1.1050183,-0.72089573,-3.7054154)" />
    <linearGradient
       inkscape:collect="always"
       xlink:href="#linearGradient5184"
       id="linearGradient5190"
       x1="19.84375"
       y1="29.0625"
       x2="18.375"
       y2="27.5625"
       gradientUnits="userSpaceOnUse"
       gradientTransform="matrix(1.3235573,0,0,1.3235573,-5.0645458,-9.6733102)" />
    <linearGradient
       inkscape:collect="always"
       xlink:href="#linearGradient5196"
       id="linearGradient5194"
       x1="17.78125"
       y1="29.4375"
       x2="16.5625"
       y2="30.8125"
       gradientUnits="userSpaceOnUse"
       gradientTransform="matrix(1.1050183,0,0,1.1050183,-0.72089573,-3.7054154)" />
    <filter
       inkscape:collect="always"
       style="color-interpolation-filters:sRGB"
       id="filter5242"
       x="-0.10996185"
       width="1.2199237"
       y="-0.16366565"
       height="1.3273313">
      <feGaussianBlur
         inkscape:collect="always"
         stdDeviation="0.068356247"
         id="feGaussianBlur5244" />
    </filter>
    <linearGradient
       inkscape:collect="always"
       xlink:href="#linearGradient5270"
       id="linearGradient5268"
       x1="16.25"
       y1="23.9375"
       x2="10.75"
       y2="22.3125"
       gradientUnits="userSpaceOnUse"
       gradientTransform="matrix(1.1050183,0,0,1.1050183,-0.72089573,-3.7054154)" />
    <linearGradient
       inkscape:collect="always"
       xlink:href="#linearGradient5286"
       id="linearGradient5284"
       gradientUnits="userSpaceOnUse"
       x1="16.25"
       y1="23.9375"
       x2="10.75"
       y2="22.3125"
       gradientTransform="matrix(0.16081334,-1.0932541,-1.0932541,-0.16081334,48.808386,51.596148)" />
    <linearGradient
       inkscape:collect="always"
       xlink:href="#linearGradient5318"
       id="linearGradient5324"
       x1="24.483572"
       y1="44.72963"
       x2="24.130018"
       y2="2.0380592"
       gradientUnits="userSpaceOnUse" />
    <filter
       inkscape:collect="always"
       style="color-interpolation-filters:sRGB"
       id="filter5384"
       x="-0.11690364"
       width="1.2338073"
       y="-0.18251354"
       height="1.3650271">
      <feGaussianBlur
         inkscape:collect="always"
         stdDeviation="0.075494681"
         id="feGaussianBlur5386" />
    </filter>
    <filter
       inkscape:collect="always"
       style="color-interpolation-filters:sRGB"
       id="filter5400"
       x="-0.012"
       width="1.024"
       y="-0.012"
       height="1.024">
      <feGaussianBlur
         inkscape:collect="always"
         stdDeviation="0.225"
         id="feGaussianBlur5402" />
    </filter>
  </defs>
  <sodipodi:namedview
     pagecolor="#383c4a"
     bordercolor="#666666"
     borderopacity="1"
     objecttolerance="4"
     gridtolerance="10"
     guidetolerance="4"
     inkscape:pageopacity="0"
     inkscape:pageshadow="2"
     inkscape:window-width="640"
     inkscape:window-height="480"
     id="namedview20"
     showgrid="false"
     inkscape:zoom="11.313709"
     inkscape:cx="31.041729"
     inkscape:cy="18.466779"
     inkscape:current-layer="layer7"
     inkscape:snap-smooth-nodes="true"
     showguides="true"
     borderlayer="true"
     inkscape:showpageshadow="false"
     inkscape:guide-bbox="true"
     guidecolor="#38cf02"
     guideopacity="0.49803922"
     inkscape:snap-nodes="true"
     inkscape:lockguides="true"
     inkscape:snap-global="false">
    <inkscape:grid
       type="xygrid"
       id="grid4171"
       empspacing="4"
       dotted="false" />
    <sodipodi:guide
       position="4,0"
       orientation="1,0"
       id="guide4173"
       inkscape:locked="true"
       inkscape:label=""
       inkscape:color="rgb(56,207,2)" />
    <sodipodi:guide
       position="44,0"
       orientation="1,0"
       id="guide4175"
       inkscape:locked="true"
       inkscape:label=""
       inkscape:color="rgb(56,207,2)" />
    <sodipodi:guide
       position="0,44"
       orientation="0,1"
       id="guide4177"
       inkscape:locked="true"
       inkscape:label=""
       inkscape:color="rgb(56,207,2)" />
    <sodipodi:guide
       position="0,4"
       orientation="0,1"
       id="guide4179"
       inkscape:locked="true"
       inkscape:label=""
       inkscape:color="rgb(56,207,2)" />
    <sodipodi:guide
       position="8,0"
       orientation="1,0"
       id="guide4243"
       inkscape:locked="true"
       inkscape:label=""
       inkscape:color="rgb(56,207,2)" />
    <sodipodi:guide
       position="40,0"
       orientation="1,0"
       id="guide4251"
       inkscape:locked="true"
       inkscape:label=""
       inkscape:color="rgb(56,207,2)" />
    <sodipodi:guide
       position="16,39.786667"
       orientation="0,1"
       id="guide4514"
       inkscape:locked="true"
       inkscape:label=""
       inkscape:color="rgb(56,207,2)" />
    <sodipodi:guide
       position="0,8"
       orientation="0,1"
       id="guide4516"
       inkscape:locked="true"
       inkscape:label=""
       inkscape:color="rgb(56,207,2)" />
    <sodipodi:guide
       position="41.100582,41.100582"
       orientation="-0.70710678,0.70710678"
       id="guide5275"
       inkscape:locked="true"
       inkscape:label=""
       inkscape:color="rgb(56,207,2)" />
    <sodipodi:guide
       position="0,48"
       orientation="-0.70710678,-0.70710678"
       id="guide5277"
       inkscape:locked="true"
       inkscape:label=""
       inkscape:color="rgb(56,207,2)" />
  </sodipodi:namedview>
  <g
     inkscape:groupmode="layer"
     id="layer6"
     inkscape:label="background-white"
     style="display:none;opacity:1"
     sodipodi:insensitive="true">
    <rect
       style="color:#000000;clip-rule:nonzero;display:inline;overflow:visible;visibility:visible;opacity:1;isolation:auto;mix-blend-mode:normal;color-interpolation:sRGB;color-interpolation-filters:linearRGB;solid-color:#000000;solid-opacity:1;fill:#ffffff;fill-opacity:1;fill-rule:nonzero;stroke:none;stroke-width:0.20080347;stroke-linecap:butt;stroke-linejoin:miter;stroke-miterlimit:4;stroke-dasharray:none;stroke-dashoffset:0;stroke-opacity:1;marker:none;marker-start:none;marker-mid:none;marker-end:none;paint-order:normal;color-rendering:auto;image-rendering:auto;shape-rendering:auto;text-rendering:auto;enable-background:accumulate"
       id="rect49905"
       width="60"
       height="60"
       x="-6"
       y="-6"
       rx="0"
       ry="2.4035539e-06" />
  </g>
  <g
     inkscape:groupmode="layer"
     id="layer7"
     inkscape:label="workbench"
     style="display:inline">
    <circle
       r="22.5"
       cy="24"
       cx="24"
       id="circle5398"
       style="color:#000000;clip-rule:nonzero;display:inline;overflow:visible;visibility:visible;opacity:1;isolation:auto;mix-blend-mode:normal;color-interpolation:sRGB;color-interpolation-filters:linearRGB;solid-color:#000000;solid-opacity:1;fill:#000000;fill-opacity:0.15686275;fill-rule:nonzero;stroke:none;stroke-width:0.5;stroke-linecap:butt;stroke-linejoin:miter;stroke-miterlimit:4;stroke-dasharray:none;stroke-dashoffset:0;stroke-opacity:0.7015707;marker:none;marker-start:none;marker-mid:none;marker-end:none;paint-order:normal;color-rendering:auto;image-rendering:auto;shape-rendering:auto;text-rendering:auto;enable-background:accumulate;filter:url(#filter5400)" />
    <rect
       style="color:#000000;clip-rule:nonzero;display:inline;overflow:visible;visibility:visible;opacity:1;isolation:auto;mix-blend-mode:normal;color-interpolation:sRGB;color-interpolation-filters:linearRGB;solid-color:#000000;solid-opacity:1;fill:#ff0000;fill-opacity:1;fill-rule:nonzero;stroke:none;stroke-width:0.61812234;stroke-linecap:round;stroke-linejoin:miter;stroke-miterlimit:4;stroke-dasharray:none;stroke-dashoffset:0;stroke-opacity:0.77083333;marker:none;marker-start:none;marker-mid:none;marker-end:none;paint-order:normal;color-rendering:auto;image-rendering:auto;shape-rendering:auto;text-rendering:auto;enable-background:accumulate"
       id="rect4356"
       width="0"
       height="0"
       x="0"
       y="0" />
    <circle
       style="color:#000000;clip-rule:nonzero;display:inline;overflow:visible;visibility:visible;opacity:1;isolation:auto;mix-blend-mode:normal;color-interpolation:sRGB;color-interpolation-filters:linearRGB;solid-color:#000000;solid-opacity:1;fill:url(#linearGradient5324);fill-opacity:1;fill-rule:nonzero;stroke:none;stroke-width:0.5;stroke-linecap:butt;stroke-linejoin:miter;stroke-miterlimit:4;stroke-dasharray:none;stroke-dashoffset:0;stroke-opacity:0.7015707;marker:none;marker-start:none;marker-mid:none;marker-end:none;paint-order:normal;color-rendering:auto;image-rendering:auto;shape-rendering:auto;text-rendering:auto;enable-background:accumulate"
       id="path46816"
       cx="24"
       cy="24"
       r="22" />
    <path
       sodipodi:nodetypes="ccccccc"
       d="M 21.030306,33.471372 C 20.349937,32.094279 19.449955,30.797845 18.32337,29.640226 17.197483,28.482187 15.927751,27.546558 14.56953,26.827746 16.265209,22.150299 17.676457,16.683901 22.197476,12.282262 29.378882,5.2909747 36.554345,5.2567172 42.960462,5.7387207 43.266328,12.159098 42.691429,18.609746 35.509883,25.601454 30.856356,30.232932 26.013577,31.797036 21.030306,33.471372 Z"
       style="display:inline;fill:#090909;fill-opacity:0.15686275;fill-rule:nonzero;stroke:none"
       id="path5248"
       inkscape:connector-curvature="0" />
    <rect
       style="fill:none"
       y="35.163193"
       x="28.345093"
       height="25.71324"
       width="25.71324"
       id="rect49930" />
    <path
       sodipodi:nodetypes="ccccc"
       d="m 22.927347,28.653114 c 0.213745,5.331433 0.12134,6.214413 -0.983345,11.607591 1.505385,-0.443085 4.980206,-3.030302 6.30642,-4.043905 5.411737,-4.551009 4.351265,-8.080121 2.194245,-13.311467 l -7.51732,5.747781"
       style="display:inline;fill:url(#linearGradient5284);fill-opacity:1;fill-rule:nonzero;stroke:none"
       id="path5282"
       inkscape:connector-curvature="0" />
    <path
       inkscape:connector-curvature="0"
       id="path4714"
       style="display:inline;fill:#ffc37f;fill-opacity:1;fill-rule:nonzero;stroke:none;filter:url(#filter5166)"
       d="M 5.0403441,42.429838 C 7.9442696,29.289369 14.901378,28.765058 14.901378,28.765058 l 1.901872,1.901873 0.01794,0.01794 1.901996,1.901996 c 0,0 -0.29908,6.731632 -13.4395477,9.635558 l -0.028999,0.029 0.00552,-0.02347 -0.023464,0.0055 -0.1963556,0.196356"
       transform="matrix(1.1050183,0,0,1.1050183,-0.72089573,-3.7054154)" />
    <path
       d="M 6.9015406,41.130278 C 9.674771,28.581214 16.318765,28.0805 16.318765,28.0805 l 1.816275,1.816277 0.01713,0.01713 1.816394,1.816394 c 0,0 -0.28562,6.428667 -12.8346823,9.201896 l -0.027693,0.02769 0.00527,-0.02242 -0.022407,0.0052 -0.1875183,0.187519"
       style="display:inline;fill:#ffdfaa;fill-opacity:1;fill-rule:nonzero;stroke:none"
       id="path5160"
       inkscape:connector-curvature="0" />
    <path
       inkscape:connector-curvature="0"
       id="path4716"
       style="display:inline;fill:#ffefb1;fill-opacity:1;fill-rule:nonzero;stroke:none"
       d="m 9.009486,38.93544 c 2.397468,-11.185157 7.682572,-9.805089 7.682572,-9.805089 l 1.185903,1.185904 0.01127,0.01127 c 0,0 1.220391,0.688404 1.185904,1.185902 -0.42988,6.168762 -10.0656489,7.422013 -10.0656489,7.422013" />
    <path
       inkscape:connector-curvature="0"
       id="path4722"
       style="display:inline;fill:url(#linearGradient5268);fill-opacity:1;fill-rule:nonzero;stroke:none"
       d="M 18.211415,25.23899 C 12.967848,24.251637 12.08082,24.214559 6.5842942,24.522614 c 0.6574472,-1.424877 3.7228108,-4.486186 4.9186268,-5.650772 5.290129,-4.691814 8.627338,-3.12904 13.48908,-0.233666 l -6.780586,6.600814"
       sodipodi:nodetypes="ccccc" />
    <path
       d="m 11.693502,35.759943 c 1.481826,-6.91331 4.748437,-6.060319 4.748437,-6.060319 l 0.732982,0.732982 0.007,0.007 c 0,0 0.754298,0.425488 0.732982,0.732981 -0.2657,3.812782 -6.221367,4.58739 -6.221367,4.58739"
       style="display:inline;fill:#ffffff;fill-opacity:0.87958117;fill-rule:nonzero;stroke:none;filter:url(#filter5156)"
       id="path5146"
       inkscape:connector-curvature="0"
       transform="matrix(1.1050183,0,0,1.1050183,-0.72089573,-3.7054154)" />
    <path
       inkscape:connector-curvature="0"
       id="path4718"
       style="display:inline;fill:url(#linearGradient5194);fill-opacity:1;fill-rule:nonzero;stroke:none"
       d="m 19.810855,32.993081 c 0,0 -0.311113,-1.654049 -1.579326,-3.032968 -1.338193,-1.45501 -3.029661,-1.755292 -3.029661,-1.755292 l 0.585493,-1.919786 6.681031,6.099519"
       sodipodi:nodetypes="csccc" />
    <path
       inkscape:connector-curvature="0"
       id="path4724"
       style="display:inline;fill:url(#linearGradient5064);fill-opacity:1;fill-rule:nonzero;stroke:none"
       d="m 21.661295,32.859163 c -0.660842,-1.33757 -1.534994,-2.596794 -2.629245,-3.721189 -1.093574,-1.124803 -2.326863,-2.033579 -3.646103,-2.73176 1.647012,-4.543202 3.275635,-9.190285 7.666898,-13.465593 C 30.02814,6.1499877 35.723318,5.4100927 42.387518,6.5411751 43.303323,11.05371 39.564027,21.255882 34.040579,26.138825 30.539126,29.234244 21.661295,32.859163 21.661295,32.859163 Z"
       sodipodi:nodetypes="cccccsc" />
    <path
       inkscape:connector-curvature="0"
       id="path4728"
       style="display:inline;fill:url(#linearGradient5176);fill-opacity:1;fill-rule:nonzero;stroke:none"
       d="m 27.689198,30.075203 c 0,0 -4.889547,-5.906138 -9.919441,-9.678266 l 0.956087,-1.917956 c 0,0 8.817093,6.878792 10.962917,10.598354"
       sodipodi:nodetypes="cccc" />
    <path
       inkscape:connector-curvature="0"
       id="path4730"
       style="display:inline;fill:url(#linearGradient5190);fill-opacity:1;fill-rule:nonzero;stroke:#000000;stroke-width:0.26471147;stroke-miterlimit:4;stroke-dasharray:none;stroke-opacity:0.17801047"
       d="m 21.599993,28.191907 c -2.198072,2.140049 -4.463837,3.61901 -5.928189,3.983812 0.404307,-1.45427 1.943862,-3.680633 4.141935,-5.820477 2.198173,-2.139948 4.464556,-3.618908 5.928394,-3.983813 -0.404409,1.454579 -1.943964,3.680737 -4.14214,5.820478" />
    <ellipse
       style="color:#000000;clip-rule:nonzero;display:inline;overflow:visible;visibility:visible;opacity:1;isolation:auto;mix-blend-mode:normal;color-interpolation:sRGB;color-interpolation-filters:linearRGB;solid-color:#000000;solid-opacity:1;fill:#f5c1c6;fill-opacity:0.75392669;fill-rule:nonzero;stroke:none;stroke-width:1;stroke-linecap:square;stroke-linejoin:miter;stroke-miterlimit:4;stroke-dasharray:none;stroke-dashoffset:0;stroke-opacity:1;marker:none;marker-start:none;marker-mid:none;marker-end:none;paint-order:normal;filter:url(#filter5384);color-rendering:auto;image-rendering:auto;shape-rendering:auto;text-rendering:auto;enable-background:accumulate"
       id="path5072"
       cx="37.71236"
       cy="9.4956779"
       rx="0.75424725"
       ry="0.49026072"
       transform="matrix(1.5806331,0.04461662,0.12376315,0.61186656,-19.81761,-0.72738067)" />
    <ellipse
       transform="matrix(1.4156871,-0.99646865,0.35390882,0.58327472,-26.750917,43.199947)"
       ry="0.49026072"
       rx="0.75424725"
       cy="9.4956779"
       cx="37.71236"
       id="ellipse5106"
       style="color:#000000;clip-rule:nonzero;display:inline;overflow:visible;visibility:visible;opacity:1;isolation:auto;mix-blend-mode:normal;color-interpolation:sRGB;color-interpolation-filters:linearRGB;solid-color:#000000;solid-opacity:1;fill:#ebec94;fill-opacity:0.73821992;fill-rule:nonzero;stroke:none;stroke-width:1;stroke-linecap:square;stroke-linejoin:miter;stroke-miterlimit:4;stroke-dasharray:none;stroke-dashoffset:0;stroke-opacity:1;marker:none;marker-start:none;marker-mid:none;marker-end:none;paint-order:normal;filter:url(#filter5140);color-rendering:auto;image-rendering:auto;shape-rendering:auto;text-rendering:auto;enable-background:accumulate" />
    <ellipse
       style="color:#000000;clip-rule:nonzero;display:inline;overflow:visible;visibility:visible;opacity:1;isolation:auto;mix-blend-mode:normal;color-interpolation:sRGB;color-interpolation-filters:linearRGB;solid-color:#000000;solid-opacity:1;fill:#f3f4c0;fill-opacity:0.6701571;fill-rule:nonzero;stroke:none;stroke-width:1;stroke-linecap:square;stroke-linejoin:miter;stroke-miterlimit:4;stroke-dasharray:none;stroke-dashoffset:0;stroke-opacity:1;marker:none;marker-start:none;marker-mid:none;marker-end:none;paint-order:normal;filter:url(#filter5140);color-rendering:auto;image-rendering:auto;shape-rendering:auto;text-rendering:auto;enable-background:accumulate"
       id="ellipse5144"
       cx="37.71236"
       cy="9.4956779"
       rx="0.75424725"
       ry="0.49026072"
       transform="matrix(0.58139799,-0.46379414,0.16679655,0.24100059,4.5093941,27.903556)" />
    <ellipse
       transform="matrix(0.7728286,-0.14768265,0.12709298,0.90403552,-12.965516,25.662085)"
       ry="0.49026072"
       rx="0.75424725"
       cy="9.4956779"
       cx="37.71236"
       id="ellipse5204"
       style="color:#000000;clip-rule:nonzero;display:inline;overflow:visible;visibility:visible;opacity:1;isolation:auto;mix-blend-mode:normal;color-interpolation:sRGB;color-interpolation-filters:linearRGB;solid-color:#000000;solid-opacity:1;fill:#ffffff;fill-opacity:0.41361258;fill-rule:nonzero;stroke:none;stroke-width:1;stroke-linecap:square;stroke-linejoin:miter;stroke-miterlimit:4;stroke-dasharray:none;stroke-dashoffset:0;stroke-opacity:1;marker:none;marker-start:none;marker-mid:none;marker-end:none;paint-order:normal;filter:url(#filter5242);color-rendering:auto;image-rendering:auto;shape-rendering:auto;text-rendering:auto;enable-background:accumulate" />
    <ellipse
       style="color:#000000;clip-rule:nonzero;display:inline;overflow:visible;visibility:visible;opacity:1;isolation:auto;mix-blend-mode:normal;color-interpolation:sRGB;color-interpolation-filters:linearRGB;solid-color:#000000;solid-opacity:1;fill:#ffffff;fill-opacity:0.75392671;fill-rule:nonzero;stroke:none;stroke-width:1;stroke-linecap:square;stroke-linejoin:miter;stroke-miterlimit:4;stroke-dasharray:none;stroke-dashoffset:0;stroke-opacity:1;marker:none;marker-start:none;marker-mid:none;marker-end:none;paint-order:normal;filter:url(#filter5242);color-rendering:auto;image-rendering:auto;shape-rendering:auto;text-rendering:auto;enable-background:accumulate"
       id="ellipse5246"
       cx="37.71236"
       cy="9.4956779"
       rx="0.75424725"
       ry="0.49026072"
       transform="matrix(0.3924683,-0.0749982,0.06454209,0.45909957,1.9727331,27.145951)" />
    <ellipse
       style="color:#000000;clip-rule:nonzero;display:inline;overflow:visible;visibility:visible;opacity:1;isolation:auto;mix-blend-mode:normal;color-interpolation:sRGB;color-interpolation-filters:linearRGB;solid-color:#000000;solid-opacity:1;fill:#ebec94;fill-opacity:0.73821992;fill-rule:nonzero;stroke:none;stroke-width:1;stroke-linecap:square;stroke-linejoin:miter;stroke-miterlimit:4;stroke-dasharray:none;stroke-dashoffset:0;stroke-opacity:1;marker:none;marker-start:none;marker-mid:none;marker-end:none;paint-order:normal;filter:url(#filter5140);color-rendering:auto;image-rendering:auto;shape-rendering:auto;text-rendering:auto;enable-background:accumulate"
       id="ellipse5294"
       cx="37.71236"
       cy="9.4956779"
       rx="0.75424725"
       ry="0.49026072"
       transform="matrix(1.8234085,-1.276684,0.45583541,0.74729646,-41.567728,66.492941)" />
    <ellipse
       transform="matrix(0.58139799,-0.46379414,0.16679655,0.24100059,6.476096,41.820199)"
       ry="0.49026072"
       rx="0.75424725"
       cy="9.4956779"
       cx="37.71236"
       id="ellipse5296"
       style="color:#000000;clip-rule:nonzero;display:inline;overflow:visible;visibility:visible;opacity:1;isolation:auto;mix-blend-mode:normal;color-interpolation:sRGB;color-interpolation-filters:linearRGB;solid-color:#000000;solid-opacity:1;fill:#f3f4c0;fill-opacity:0.6701571;fill-rule:nonzero;stroke:none;stroke-width:1;stroke-linecap:square;stroke-linejoin:miter;stroke-miterlimit:4;stroke-dasharray:none;stroke-dashoffset:0;stroke-opacity:1;marker:none;marker-start:none;marker-mid:none;marker-end:none;paint-order:normal;filter:url(#filter5140);color-rendering:auto;image-rendering:auto;shape-rendering:auto;text-rendering:auto;enable-background:accumulate" />
  </g>
  <g
     inkscape:groupmode="layer"
     id="layer1"
     inkscape:label="circles"
     style="display:none">
    <rect
       rx="6.6500416"
       ry="6.6500416"
       y="4.0498753"
       x="4.0498753"
       height="39.900249"
       width="39.900249"
       id="rect5279-6"
       style="display:inline;opacity:1;fill:none;fill-opacity:0.95027627;stroke:#ff1300;stroke-width:0.09975062;stroke-linecap:square;stroke-linejoin:miter;stroke-miterlimit:4;stroke-dasharray:0.09975062, 0.19950125;stroke-dashoffset:0;stroke-opacity:1;paint-order:normal" />
    <circle
       r="15.950156"
       cy="24"
       cx="24"
       id="path5297-7"
       style="display:inline;opacity:1;fill:none;fill-opacity:0.95027627;stroke:#ff1300;stroke-width:0.09968847;stroke-linecap:square;stroke-linejoin:miter;stroke-miterlimit:4;stroke-dasharray:0.09968847, 0.19937695;stroke-dashoffset:0;stroke-opacity:1;paint-order:normal" />
    <circle
       style="display:inline;opacity:1;fill:none;fill-opacity:0.95027627;stroke:#ff1300;stroke-width:0.02492211;stroke-linecap:square;stroke-linejoin:miter;stroke-miterlimit:4;stroke-dasharray:0.02492211, 0.04984424;stroke-dashoffset:0;stroke-opacity:1;paint-order:normal"
       id="circle5299-5"
       cx="24"
       cy="24"
       r="3.9875391" />
    <circle
       style="display:inline;opacity:1;fill:none;fill-opacity:0.95027627;stroke:#ff00dc;stroke-width:0.14953269;stroke-linecap:square;stroke-linejoin:miter;stroke-miterlimit:4;stroke-dasharray:0.14953269, 0.2990654;stroke-dashoffset:0;stroke-opacity:1;paint-order:normal"
       id="circle5277"
       cx="24"
       cy="24"
       r="23.925234" />
  </g>
</svg>
