<?xml version="1.0" encoding="UTF-8" standalone="yes"?>
<svg xmlns:dc="http://purl.org/dc/elements/1.1/" xmlns:cc="http://creativecommons.org/ns#" xmlns:rdf="http://www.w3.org/1999/02/22-rdf-syntax-ns#" xmlns:svg="http://www.w3.org/2000/svg" xmlns="http://www.w3.org/2000/svg" xmlns:xlink="http://www.w3.org/1999/xlink" xmlns:sodipodi="http://sodipodi.sourceforge.net/DTD/sodipodi-0.dtd" xmlns:inkscape="http://www.inkscape.org/namespaces/inkscape" height="16" viewBox="0 0 16 16" width="16" id="svg2" version="1.1" inkscape:version="0.92.2 5c3e80d, 2017-08-06" sodipodi:docname="accessories-character-map.svg" enable-background="new" folder="16">
  <title id="title4675">Template icons dark</title>
  <metadata id="metadata24">
    <rdf:RDF>
      <cc:Work rdf:about="">
        <dc:format>image/svg+xml</dc:format>
        <dc:type rdf:resource="http://purl.org/dc/dcmitype/StillImage"/>
        <dc:title>Template icons dark</dc:title>
        <dc:date>17/05/13</dc:date>
        <dc:creator>
          <cc:Agent>
            <dc:title>wfpaisa</dc:title>
          </cc:Agent>
        </dc:creator>
        <dc:rights>
          <cc:Agent>
            <dc:title>License: GPLv3</dc:title>
          </cc:Agent>
        </dc:rights>
        <dc:language>es-en</dc:language>
        <dc:subject>
          <rdf:Bag>
            <rdf:li>plane-icon-theme</rdf:li>
          </rdf:Bag>
        </dc:subject>
        <dc:description>Template for create set icons</dc:description>
        <cc:license rdf:resource="https://www.gnu.org/licenses/gpl-3.0.en.html"/>
      </cc:Work>
    </rdf:RDF>
  </metadata>
  <defs id="defs22">
    <linearGradient id="linearGradient7762">
      <stop style="stop-color:#003783;stop-opacity:1" offset="0" id="stop7758"/>
      <stop style="stop-color:#69e5ff;stop-opacity:1" offset="1" id="stop7760"/>
    </linearGradient>
    <linearGradient inkscape:collect="always" xlink:href="#linearGradient7762" id="linearGradient7994" gradientUnits="userSpaceOnUse" x1="120" y1="120" x2="203.05511" y2="204"/>
    <linearGradient inkscape:collect="always" xlink:href="#linearGradient7762" id="linearGradient8343" gradientUnits="userSpaceOnUse" x1="120" y1="120" x2="203.05511" y2="204"/>
    <clipPath clipPathUnits="userSpaceOnUse" id="clipPath8339-4">
      <path inkscape:label="base para recorte" style="color:#000000;clip-rule:nonzero;display:inline;overflow:visible;visibility:visible;opacity:1;isolation:auto;mix-blend-mode:normal;color-interpolation:sRGB;color-interpolation-filters:linearRGB;solid-color:#000000;solid-opacity:1;vector-effect:none;fill:url(#linearGradient8343);fill-opacity:1;fill-rule:nonzero;stroke:none;stroke-width:1;stroke-linecap:butt;stroke-linejoin:miter;stroke-miterlimit:4;stroke-dasharray:none;stroke-dashoffset:0;stroke-opacity:0.43455499;marker:none;marker-start:none;marker-mid:none;marker-end:none;paint-order:fill markers stroke;color-rendering:auto;image-rendering:auto;shape-rendering:auto;text-rendering:auto;enable-background:accumulate" d="M 128.55273,116 C 121.5982,116 116,121.5982 116,128.55273 v 30.89454 c 0,0.0936 0.0117,0.18419 0.0137,0.27734 -0.005,0.0918 -0.009,0.18358 -0.0137,0.27539 2e-5,24.30052 19.69948,43.99998 44,44 24.30052,-2e-5 43.99998,-19.69948 44,-44 -2e-5,-24.30052 -19.69948,-43.99998 -44,-44 -0.10809,0.004 -0.21616,0.007 -0.32422,0.0117 C 159.59898,116.0107 159.52444,116 159.44727,116 Z M 130,122 c 4.41828,-1e-5 8.00001,3.58172 8,8 1e-5,4.41828 -3.58172,8.00001 -8,8 -4.41828,1e-5 -8.00001,-3.58172 -8,-8 -1e-5,-4.41828 3.58172,-8.00001 8,-8 z" id="path8341-7" inkscape:connector-curvature="0" sodipodi:nodetypes="sssccccccssccccc" sodipodi:insensitive="true"/>
    </clipPath>
  </defs>
  <sodipodi:namedview pagecolor="#383c4a" bordercolor="#ffffff" borderopacity="0.62745098" objecttolerance="4" gridtolerance="10" guidetolerance="4" inkscape:pageopacity="0" inkscape:pageshadow="2" inkscape:window-width="640" inkscape:window-height="480" id="namedview20" showgrid="true" inkscape:zoom="2.9402989" inkscape:cx="281.78867" inkscape:cy="-216.80815" inkscape:current-layer="layer6" inkscape:snap-smooth-nodes="false" showguides="true" borderlayer="true" inkscape:showpageshadow="false" inkscape:guide-bbox="true" guidecolor="#bd4fff" guideopacity="0.78431373" inkscape:snap-nodes="true" inkscape:lockguides="false" fit-margin-top="0" fit-margin-left="0" fit-margin-right="0" fit-margin-bottom="0" guidehicolor="#ff0101" guidehiopacity="0.78431373" inkscape:snap-page="true" inkscape:object-nodes="true" inkscape:snap-bbox="true" inkscape:snap-global="true" inkscape:snap-object-midpoints="false" inkscape:snap-bbox-edge-midpoints="false">
    <inkscape:grid type="xygrid" id="grid4171" empspacing="4" dotted="false" originx="2.7755576e-17" originy="0" spacingx="1" spacingy="1" color="#5a5a5a" opacity="0.23529412" empcolor="#5a5a5a" empopacity="0.47058824" visible="true"/>
    <inkscape:grid type="axonomgrid" id="grid4699" units="mm" empspacing="4" color="#5a5a5a" opacity="0.23529412" empcolor="#5a5a5a" empopacity="0.47058824" gridanglex="45" gridanglez="45" spacingy="3.7795276" visible="false" originx="1.3228346" originy="1.3228346"/>
    <sodipodi:guide position="48,0" orientation="1,0" id="guide4568" inkscape:locked="false" inkscape:label="" inkscape:color="rgb(189,79,255)"/>
    <sodipodi:guide position="111.99996,-3.9999999e-05" orientation="0,1" id="guide4570" inkscape:locked="false" inkscape:label="" inkscape:color="rgb(189,79,255)"/>
    <sodipodi:guide position="0,0" orientation="1,0" id="guide4572" inkscape:locked="false" inkscape:label="" inkscape:color="rgb(189,79,255)"/>
    <sodipodi:guide position="0,48" orientation="0,1" id="guide4574" inkscape:locked="false" inkscape:label="" inkscape:color="rgb(189,79,255)"/>
    <sodipodi:guide position="0,80" orientation="0,1" id="guide4576" inkscape:locked="false" inkscape:label="" inkscape:color="rgb(189,79,255)"/>
    <sodipodi:guide position="-32,48" orientation="1,0" id="guide4578" inkscape:locked="false" inkscape:label="" inkscape:color="rgb(189,79,255)"/>
    <sodipodi:guide position="-32,104" orientation="0,1" id="guide4580" inkscape:locked="false" inkscape:label="" inkscape:color="rgb(189,79,255)"/>
    <sodipodi:guide position="-56,80" orientation="1,0" id="guide4582" inkscape:locked="false" inkscape:label="" inkscape:color="rgb(189,79,255)"/>
    <sodipodi:guide position="48,-64" orientation="0,1" id="guide4584" inkscape:locked="false" inkscape:label="" inkscape:color="rgb(189,79,255)"/>
    <sodipodi:guide position="0,0" orientation="-0.70710678,0.70710678" id="guide4588" inkscape:locked="false" inkscape:label="" inkscape:color="rgb(189,79,255)"/>
    <sodipodi:guide position="-56,80" orientation="-0.70710678,0.70710678" id="guide4573" inkscape:locked="false" inkscape:label="" inkscape:color="rgb(189,79,255)"/>
    <sodipodi:guide position="-32,48" orientation="-0.70710678,0.70710678" id="guide4575" inkscape:locked="false" inkscape:label="" inkscape:color="rgb(189,79,255)"/>
    <sodipodi:guide position="48,-64" orientation="-0.70710678,0.70710678" id="guide4577" inkscape:locked="false" inkscape:label="" inkscape:color="rgb(189,79,255)"/>
    <sodipodi:guide position="160,-112.12599" orientation="0.70710678,0.70710678" id="guide4697" inkscape:locked="false" inkscape:label="" inkscape:color="rgb(189,79,255)"/>
    <sodipodi:guide position="207.99995,-288" orientation="0,1" id="guide7833" inkscape:locked="false"/>
    <sodipodi:guide position="335.99994,-288" orientation="1,0" id="guide7835" inkscape:locked="false" inkscape:label="" inkscape:color="rgb(189,79,255)"/>
    <sodipodi:guide position="111.99996,-64" orientation="1,0" id="guide7915" inkscape:locked="false"/>
    <sodipodi:guide position="111.99996,-160" orientation="0,1" id="guide7917" inkscape:locked="false"/>
    <sodipodi:guide position="207.99996,-160" orientation="1,0" id="guide7919" inkscape:locked="false"/>
    <sodipodi:guide position="111.99996,-160" orientation="-0.70710678,0.70710678" id="guide7921" inkscape:locked="false" inkscape:label="" inkscape:color="rgb(189,79,255)"/>
    <sodipodi:guide position="207.99996,-288" orientation="-0.70710678,0.70710678" id="guide7923" inkscape:locked="false" inkscape:label="" inkscape:color="rgb(189,79,255)"/>
    <sodipodi:guide position="-72,104" orientation="1,0" id="guide7824" inkscape:locked="false"/>
    <sodipodi:guide position="-56,120" orientation="0,1" id="guide7826" inkscape:locked="false"/>
    <sodipodi:guide position="-72,104" orientation="-0.70710678,0.70710678" id="guide7828" inkscape:locked="false" inkscape:label="" inkscape:color="rgb(189,79,255)"/>
  </sodipodi:namedview>
  <g inkscape:groupmode="layer" id="layer1" inkscape:label="icon_16" style="display:inline" transform="translate(72,72)">
    <g inkscape:groupmode="layer" id="layer5" inkscape:label="frame" style="display:none">
      <rect inkscape:label="frame_16" y="-72" x="-72" height="16" width="16" id="frame_16" style="color:#000000;clip-rule:nonzero;display:block;overflow:visible;visibility:visible;opacity:1;isolation:auto;mix-blend-mode:normal;color-interpolation:sRGB;color-interpolation-filters:linearRGB;solid-color:#000000;solid-opacity:1;vector-effect:none;fill:#000000;fill-opacity:1;fill-rule:nonzero;stroke:#ff24f7;stroke-width:0;stroke-linecap:square;stroke-linejoin:miter;stroke-miterlimit:4;stroke-dasharray:none;stroke-dashoffset:0;stroke-opacity:0.99481865;marker:none;marker-start:none;marker-mid:none;marker-end:none;paint-order:normal;color-rendering:auto;image-rendering:auto;shape-rendering:auto;text-rendering:auto;enable-background:accumulate"/>
      <text id="txt_16" y="-61.087891" x="-69.279297" style="font-size:8px;line-height:1000%;font-family:sans-serif;letter-spacing:0px;word-spacing:0px;display:inline;opacity:1;fill:#ffffff;fill-opacity:1;stroke:none;stroke-width:0.07214338px;stroke-linecap:butt;stroke-linejoin:miter;stroke-opacity:1" xml:space="preserve" inkscape:label="txt_16">
        <tspan style="font-size:8px;fill:#ffffff;fill-opacity:1;stroke:none;stroke-width:0.07214338px" y="-61.087891" x="-69.279297" id="tspan4768-6" sodipodi:role="line">16</tspan>
      </text>
    </g>
    <g inkscape:groupmode="layer" id="layer6" inkscape:label="icon" style="display:inline">
      <path style="color:#000000;clip-rule:nonzero;display:block;overflow:visible;visibility:visible;opacity:1;isolation:auto;mix-blend-mode:normal;color-interpolation:sRGB;color-interpolation-filters:linearRGB;solid-color:#000000;solid-opacity:1;vector-effect:none;fill:#a3acc3;fill-opacity:1;fill-rule:nonzero;stroke:none;stroke-width:0.75;stroke-linecap:butt;stroke-linejoin:miter;stroke-miterlimit:4;stroke-dasharray:none;stroke-dashoffset:0;stroke-opacity:0.07853406;marker:none;marker-start:none;marker-mid:none;marker-end:none;paint-order:fill markers stroke;color-rendering:auto;image-rendering:auto;shape-rendering:auto;text-rendering:auto;enable-background:accumulate" d="m -72,-72 h 15.00133 v 15.001329 H -72 Z" id="rect7904-2-9-6-2-7" inkscape:connector-curvature="0" sodipodi:nodetypes="ccccc"/>
      <path style="color:#000000;clip-rule:nonzero;display:block;overflow:visible;visibility:visible;opacity:1;isolation:auto;mix-blend-mode:normal;color-interpolation:sRGB;color-interpolation-filters:linearRGB;solid-color:#000000;solid-opacity:1;vector-effect:none;fill:#79859c;fill-opacity:1;fill-rule:nonzero;stroke:none;stroke-width:0.75;stroke-linecap:butt;stroke-linejoin:miter;stroke-miterlimit:4;stroke-dasharray:none;stroke-dashoffset:0;stroke-opacity:0.07853406;marker:none;marker-start:none;marker-mid:none;marker-end:none;paint-order:fill markers stroke;color-rendering:auto;image-rendering:auto;shape-rendering:auto;text-rendering:auto;enable-background:accumulate" d="m -67,-67 h 5 v 5 h -5 z" id="rect7819-9-2-8-7-7" inkscape:connector-curvature="0" sodipodi:nodetypes="ccccc"/>
      <path style="color:#000000;clip-rule:nonzero;display:block;overflow:visible;visibility:visible;opacity:1;isolation:auto;mix-blend-mode:normal;color-interpolation:sRGB;color-interpolation-filters:linearRGB;solid-color:#000000;solid-opacity:1;vector-effect:none;fill:#696e82;fill-opacity:1;fill-rule:nonzero;stroke:none;stroke-width:0.75;stroke-linecap:butt;stroke-linejoin:miter;stroke-miterlimit:4;stroke-dasharray:none;stroke-dashoffset:0;stroke-opacity:0.07853406;marker:none;marker-start:none;marker-mid:none;marker-end:none;paint-order:fill markers stroke;color-rendering:auto;image-rendering:auto;shape-rendering:auto;text-rendering:auto;enable-background:accumulate" d="m -67,-72 h 5 v 5 h -5 z" id="rect7838-1-2-8-2-6" inkscape:connector-curvature="0" sodipodi:nodetypes="ccccc"/>
      <path style="color:#000000;clip-rule:nonzero;display:block;overflow:visible;visibility:visible;opacity:1;isolation:auto;mix-blend-mode:normal;color-interpolation:sRGB;color-interpolation-filters:linearRGB;solid-color:#000000;solid-opacity:1;vector-effect:none;fill:#565a68;fill-opacity:1;fill-rule:nonzero;stroke:none;stroke-width:0.75;stroke-linecap:butt;stroke-linejoin:miter;stroke-miterlimit:4;stroke-dasharray:none;stroke-dashoffset:0;stroke-opacity:0.07853406;marker:none;marker-start:none;marker-mid:none;marker-end:none;paint-order:fill markers stroke;color-rendering:auto;image-rendering:auto;shape-rendering:auto;text-rendering:auto;enable-background:accumulate" d="m -72,-72 h 5 v 5 h -5 z" id="rect7840-2-8-4-2-7" inkscape:connector-curvature="0" sodipodi:nodetypes="ccccc"/>
      <path style="color:#000000;clip-rule:nonzero;display:block;overflow:visible;visibility:visible;opacity:1;isolation:auto;mix-blend-mode:normal;color-interpolation:sRGB;color-interpolation-filters:linearRGB;solid-color:#000000;solid-opacity:1;vector-effect:none;fill:#777a8b;fill-opacity:1;fill-rule:nonzero;stroke:none;stroke-width:0.75;stroke-linecap:butt;stroke-linejoin:miter;stroke-miterlimit:4;stroke-dasharray:none;stroke-dashoffset:0;stroke-opacity:0.07853406;marker:none;marker-start:none;marker-mid:none;marker-end:none;paint-order:fill markers stroke;color-rendering:auto;image-rendering:auto;shape-rendering:auto;text-rendering:auto;enable-background:accumulate" d="m -72,-67 h 5 v 5 h -5 z" id="rect7842-7-9-3-6-3" inkscape:connector-curvature="0" sodipodi:nodetypes="ccccc"/>
      <path style="color:#000000;clip-rule:nonzero;display:block;overflow:visible;visibility:visible;opacity:1;isolation:auto;mix-blend-mode:normal;color-interpolation:sRGB;color-interpolation-filters:linearRGB;solid-color:#000000;solid-opacity:1;vector-effect:none;fill:#8d98b6;fill-opacity:1;fill-rule:nonzero;stroke:none;stroke-width:0.75;stroke-linecap:butt;stroke-linejoin:miter;stroke-miterlimit:4;stroke-dasharray:none;stroke-dashoffset:0;stroke-opacity:0.07853406;marker:none;marker-start:none;marker-mid:none;marker-end:none;paint-order:fill markers stroke;color-rendering:auto;image-rendering:auto;shape-rendering:auto;text-rendering:auto;enable-background:accumulate" d="m -62,-67 h 4.998671 v 5 H -62 Z" id="rect7844-0-7-1-1-6" inkscape:connector-curvature="0" sodipodi:nodetypes="ccccc"/>
      <path style="color:#000000;clip-rule:nonzero;display:block;overflow:visible;visibility:visible;opacity:1;isolation:auto;mix-blend-mode:normal;color-interpolation:sRGB;color-interpolation-filters:linearRGB;solid-color:#000000;solid-opacity:1;vector-effect:none;fill:#7a8399;fill-opacity:1;fill-rule:nonzero;stroke:none;stroke-width:0.75;stroke-linecap:butt;stroke-linejoin:miter;stroke-miterlimit:4;stroke-dasharray:none;stroke-dashoffset:0;stroke-opacity:0.07853406;marker:none;marker-start:none;marker-mid:none;marker-end:none;paint-order:fill markers stroke;color-rendering:auto;image-rendering:auto;shape-rendering:auto;text-rendering:auto;enable-background:accumulate" d="m -62,-72 h 4.998671 v 5 H -62 Z" id="rect7846-9-3-4-0-5" inkscape:connector-curvature="0" sodipodi:nodetypes="ccccc"/>
      <path style="color:#000000;clip-rule:nonzero;display:block;overflow:visible;visibility:visible;opacity:1;isolation:auto;mix-blend-mode:normal;color-interpolation:sRGB;color-interpolation-filters:linearRGB;solid-color:#000000;solid-opacity:1;vector-effect:none;fill:#9098b0;fill-opacity:1;fill-rule:nonzero;stroke:none;stroke-width:0.75;stroke-linecap:butt;stroke-linejoin:miter;stroke-miterlimit:4;stroke-dasharray:none;stroke-dashoffset:0;stroke-opacity:0.07853406;marker:none;marker-start:none;marker-mid:none;marker-end:none;paint-order:fill markers stroke;color-rendering:auto;image-rendering:auto;shape-rendering:auto;text-rendering:auto;enable-background:accumulate" d="m -67,-62 h 5 v 4.998671 h -5 z" id="rect7848-3-6-9-6-6" inkscape:connector-curvature="0" sodipodi:nodetypes="ccccc"/>
      <path style="color:#000000;clip-rule:nonzero;display:block;overflow:visible;visibility:visible;opacity:1;isolation:auto;mix-blend-mode:normal;color-interpolation:sRGB;color-interpolation-filters:linearRGB;solid-color:#000000;solid-opacity:1;vector-effect:none;fill:#818da2;fill-opacity:1;fill-rule:nonzero;stroke:none;stroke-width:0.75;stroke-linecap:butt;stroke-linejoin:miter;stroke-miterlimit:4;stroke-dasharray:none;stroke-dashoffset:0;stroke-opacity:0.07853406;marker:none;marker-start:none;marker-mid:none;marker-end:none;paint-order:fill markers stroke;color-rendering:auto;image-rendering:auto;shape-rendering:auto;text-rendering:auto;enable-background:accumulate" d="m -72,-62 h 5 v 4.998671 h -5 z" id="rect7850-6-1-2-1-3" inkscape:connector-curvature="0" sodipodi:nodetypes="ccccc"/>
      <path inkscape:connector-curvature="0" id="path1798" d="m -59.899763,-70.826094 c -0.445353,0 -0.796002,0.136475 -1.052178,0.40973 -0.256177,0.271942 -0.384444,0.644471 -0.384444,1.117414 0,0.471628 0.128267,0.844159 0.384444,1.117414 0.256176,0.271941 0.606825,0.407898 1.052178,0.407898 0.173414,0 0.337537,-0.0238 0.492557,-0.0711 0.156334,-0.04729 0.304193,-0.118339 0.443447,-0.212927 v -0.415595 c -0.134,0.124803 -0.277128,0.217885 -0.429521,0.27963 -0.151079,0.06174 -0.311877,0.09272 -0.48266,0.09272 -0.336315,0 -0.593883,-0.10254 -0.772551,-0.307483 -0.178667,-0.206254 -0.267902,-0.50301 -0.267902,-0.890558 0,-0.388864 0.08923,-0.685618 0.267902,-0.890558 0.178668,-0.206257 0.436236,-0.309681 0.772551,-0.309681 0.170783,0 0.331581,0.03097 0.48266,0.09272 0.152393,0.06175 0.295521,0.155189 0.429521,0.279994 v -0.419991 c -0.136627,-0.09327 -0.283083,-0.162914 -0.439415,-0.208896 -0.155021,-0.04729 -0.320548,-0.07073 -0.496589,-0.07073 z m -9.313123,0.05314 -1.123278,2.942144 h 0.419993 l 0.267901,-0.75496 h 1.325943 l 0.268268,0.75496 h 0.413762 l -1.121445,-2.942144 z m 3.744747,0 v 2.942144 h 1.056211 c 0.329744,0 0.583987,-0.07156 0.762655,-0.214761 0.178668,-0.143195 0.267902,-0.346352 0.267902,-0.609099 0,-0.199687 -0.05442,-0.365732 -0.163453,-0.498418 -0.107727,-0.134001 -0.259431,-0.222198 -0.455176,-0.264237 0.162903,-0.02627 0.286438,-0.09259 0.370517,-0.199002 0.08408,-0.106411 0.12607,-0.24954 0.12607,-0.42952 0,-0.232528 -0.08206,-0.411883 -0.246278,-0.537999 -0.164215,-0.126119 -0.398347,-0.189108 -0.701818,-0.189108 z m 0.398003,0.327271 h 0.589308 c 0.194431,0 0.338963,0.03675 0.433553,0.110312 0.0959,0.07357 0.143661,0.184317 0.143661,0.332769 0,0.149765 -0.04776,0.261398 -0.143661,0.334968 -0.09459,0.07225 -0.239122,0.108479 -0.433553,0.108479 h -0.589308 z m -3.918093,0.06487 0.542031,1.464107 h -1.081865 z m 3.918093,1.144899 h 0.638418 c 0.214136,0 0.372494,0.04392 0.474965,0.131934 0.103785,0.08671 0.155756,0.222146 0.155756,0.406068 0,0.182607 -0.05197,0.318562 -0.155756,0.407896 -0.102471,0.08802 -0.260829,0.131935 -0.474965,0.131935 h -0.638418 z m -4.14275,3.647995 c -0.118236,0 -0.239847,0.01331 -0.364652,0.03959 -0.124804,0.02496 -0.253589,0.06311 -0.386276,0.114345 v 0.334966 c 0.110352,-0.06043 0.225313,-0.10575 0.344863,-0.135966 0.119549,-0.03022 0.242565,-0.04544 0.368684,-0.04544 0.198371,0 0.351999,0.0462 0.461038,0.138165 0.110353,0.09065 0.165653,0.219067 0.165653,0.385909 v 0.03555 h -0.508317 c -0.329746,0 -0.578221,0.06299 -0.745064,0.189106 -0.16553,0.126118 -0.248111,0.313528 -0.248111,0.561821 0,0.212825 0.06632,0.383084 0.199002,0.510514 0.134,0.126119 0.313872,0.189108 0.539832,0.189108 0.178668,0 0.329854,-0.03149 0.453343,-0.09455 0.12349,-0.06438 0.22655,-0.163585 0.309315,-0.297587 v 0.334968 h 0.362454 v -1.259243 c 0,-0.336314 -0.07874,-0.587232 -0.236384,-0.752761 -0.157649,-0.165529 -0.396145,-0.248476 -0.71538,-0.248476 z m 0.228687,1.151129 h 0.360623 v 0.08063 c 0,0.236471 -0.06107,0.426321 -0.183245,0.569517 -0.120862,0.141883 -0.282027,0.212929 -0.483027,0.212929 -0.145823,0 -0.261303,-0.03763 -0.346694,-0.112511 -0.08408,-0.0762 -0.126072,-0.178735 -0.126072,-0.30748 0,-0.161589 0.05634,-0.275665 0.169317,-0.342664 0.112981,-0.067 0.316137,-0.100418 0.609098,-0.100418 z m -0.347795,2.906596 c -0.08367,0 -0.150974,0.02872 -0.201566,0.08612 -0.04962,0.0574 -0.0744,0.135186 -0.0744,0.233452 h 0.18251 v -0.0088 c 0,-0.04378 0.0095,-0.07793 0.02895,-0.102249 0.01946,-0.02433 0.0467,-0.03628 0.08173,-0.03628 0.01167,0 0.02499,0.0026 0.03959,0.0084 0.01558,0.0049 0.03541,0.01424 0.05973,0.02785 l 0.08319,0.04838 c 0.05059,0.02627 0.09016,0.04316 0.118374,0.05094 0.02918,0.0078 0.06037,0.01172 0.09345,0.01172 0.08173,0 0.147184,-0.02872 0.196803,-0.08612 0.05059,-0.05838 0.07684,-0.136157 0.07879,-0.233451 h -0.182143 v 0.0088 c 0,0.0399 -0.0099,0.07219 -0.02932,0.09749 -0.01946,0.02433 -0.04473,0.03665 -0.07586,0.03665 -0.0146,0 -0.03037,-0.003 -0.04691,-0.0088 -0.01653,-0.0058 -0.03589,-0.0152 -0.05827,-0.02785 l -0.08319,-0.04361 c -0.0467,-0.02627 -0.08492,-0.04317 -0.115077,-0.05094 -0.02918,-0.0078 -0.06136,-0.01172 -0.09639,-0.01172 z m 0.06267,0.385175 -0.307847,0.388108 h 0.202666 l 0.242247,-0.259839 0.242247,0.259839 h 0.203032 l -0.307847,-0.388108 z m 0.150259,0.555958 c -0.24518,0 -0.440311,0.07877 -0.585277,0.236385 -0.143992,0.156642 -0.215858,0.369026 -0.215858,0.636582 0,0.258802 0.07581,0.463917 0.227587,0.615696 0.15275,0.151778 0.359714,0.227587 0.620459,0.227587 0.104104,0 0.206663,-0.01047 0.307848,-0.03188 0.101186,-0.02141 0.1998,-0.05259 0.296119,-0.09345 v -0.253975 c -0.09534,0.05059 -0.191496,0.08831 -0.288789,0.11361 -0.09632,0.0253 -0.196289,0.03811 -0.29942,0.03811 -0.178047,0 -0.317214,-0.04807 -0.417427,-0.144395 -0.09924,-0.09729 -0.154711,-0.23843 -0.166383,-0.423287 h 1.234688 v -0.131203 c 0,-0.243233 -0.06397,-0.435405 -0.192406,-0.57648 -0.127454,-0.142048 -0.301257,-0.213295 -0.521141,-0.213295 z m 0.003,0.227588 c 0.132318,0 0.238328,0.044 0.318109,0.131567 0.08075,0.08756 0.122287,0.204548 0.124238,0.35146 l -0.957626,0.0015 c 0.01362,-0.153723 0.06515,-0.272677 0.154656,-0.357324 0.09048,-0.08464 0.21079,-0.127169 0.360623,-0.127169 z" style="font-size:medium;line-height:1000%;font-family:sans-serif;letter-spacing:0px;word-spacing:0px;display:inline;fill:#fefefe;fill-opacity:1;stroke:none;stroke-width:0.2522358px;stroke-linecap:butt;stroke-linejoin:miter;stroke-opacity:1"/>
    </g>
  </g>
</svg>