<?xml version="1.0" encoding="UTF-8" standalone="yes"?>
<svg xmlns:dc="http://purl.org/dc/elements/1.1/" xmlns:cc="http://creativecommons.org/ns#" xmlns:rdf="http://www.w3.org/1999/02/22-rdf-syntax-ns#" xmlns:svg="http://www.w3.org/2000/svg" xmlns="http://www.w3.org/2000/svg" xmlns:xlink="http://www.w3.org/1999/xlink" xmlns:sodipodi="http://sodipodi.sourceforge.net/DTD/sodipodi-0.dtd" xmlns:inkscape="http://www.inkscape.org/namespaces/inkscape" height="16" viewBox="0 0 16 16" width="16" id="svg2" version="1.1" inkscape:version="0.92.1 r" sodipodi:docname="atom.svg" enable-background="new" folder="16">
  <title id="title4675">Template icons dark</title>
  <metadata id="metadata24">
    <rdf:RDF>
      <cc:Work rdf:about="">
        <dc:format>image/svg+xml</dc:format>
        <dc:type rdf:resource="http://purl.org/dc/dcmitype/StillImage"/>
        <dc:title>Template icons dark</dc:title>
        <dc:date>17/05/13</dc:date>
        <dc:creator>
          <cc:Agent>
            <dc:title>wfpaisa</dc:title>
          </cc:Agent>
        </dc:creator>
        <dc:rights>
          <cc:Agent>
            <dc:title>License: GPLv3</dc:title>
          </cc:Agent>
        </dc:rights>
        <dc:language>es-en</dc:language>
        <dc:subject>
          <rdf:Bag>
            <rdf:li>plane-icon-theme</rdf:li>
          </rdf:Bag>
        </dc:subject>
        <dc:description>Template for create set icons</dc:description>
        <cc:license rdf:resource="https://www.gnu.org/licenses/gpl-3.0.en.html"/>
      </cc:Work>
    </rdf:RDF>
  </metadata>
  <defs id="defs22">
    <linearGradient inkscape:collect="always" id="linearGradient7774">
      <stop style="stop-color:#ff053c;stop-opacity:1" offset="0" id="stop7770"/>
      <stop style="stop-color:#0b31ff;stop-opacity:0.97395831" offset="1" id="stop7772"/>
    </linearGradient>
    <linearGradient inkscape:collect="always" xlink:href="#linearGradient5467" id="linearGradient5473" x1="24.53476" y1="7.9960122" x2="24.704725" y2="38.249725" gradientUnits="userSpaceOnUse" gradientTransform="matrix(2.1310889,0,0,2.1310889,108.68013,105.53144)"/>
    <linearGradient inkscape:collect="always" id="linearGradient5467">
      <stop style="stop-color:#20c686;stop-opacity:1" offset="0" id="stop5469"/>
      <stop style="stop-color:#259d68;stop-opacity:1" offset="1" id="stop5471"/>
    </linearGradient>
    <linearGradient inkscape:collect="always" xlink:href="#linearGradient7774" id="linearGradient7776" x1="122" y1="183" x2="196" y2="142" gradientUnits="userSpaceOnUse"/>
    <linearGradient gradientTransform="matrix(0.5106383,0,0,0.5106383,-57.702128,-57.702128)" inkscape:collect="always" xlink:href="#linearGradient7774" id="linearGradient7776-3" x1="122" y1="183" x2="196" y2="142" gradientUnits="userSpaceOnUse"/>
    <linearGradient inkscape:collect="always" xlink:href="#linearGradient5467" id="linearGradient5473-5" x1="24.53476" y1="7.9960122" x2="24.704725" y2="38.249725" gradientUnits="userSpaceOnUse" gradientTransform="matrix(1.0882156,0,0,1.0882156,-2.205891,-3.8137327)"/>
    <linearGradient inkscape:collect="always" xlink:href="#linearGradient5467" id="linearGradient7902" gradientUnits="userSpaceOnUse" gradientTransform="matrix(1.4056119,0,0,1.4056119,46.150729,44.073933)" x1="24.53476" y1="7.9960122" x2="24.704725" y2="38.249725"/>
    <linearGradient inkscape:collect="always" xlink:href="#linearGradient7774" id="linearGradient7904" gradientUnits="userSpaceOnUse" gradientTransform="matrix(0.65957449,0,0,0.65957449,-25.531913,-25.531913)" x1="122" y1="183" x2="196" y2="142"/>
    <linearGradient inkscape:collect="always" xlink:href="#linearGradient5467" id="linearGradient5473-7" x1="24.53476" y1="7.9960122" x2="24.704725" y2="38.249725" gradientUnits="userSpaceOnUse" gradientTransform="matrix(2.8112236,0,0,2.8112236,204.30144,200.14785)"/>
    <linearGradient gradientTransform="matrix(1.3191489,0,0,1.3191489,60.936166,60.936166)" inkscape:collect="always" xlink:href="#linearGradient7774" id="linearGradient7776-2" x1="122" y1="183" x2="196" y2="142" gradientUnits="userSpaceOnUse"/>
    <linearGradient inkscape:collect="always" xlink:href="#linearGradient5467" id="linearGradient5473-9" x1="24.53476" y1="7.9960122" x2="24.704725" y2="38.249725" gradientUnits="userSpaceOnUse" gradientTransform="matrix(0.72547707,0,0,0.72547707,-33.470593,-34.542488)"/>
    <linearGradient gradientTransform="matrix(0.34042553,0,0,0.34042553,-70.468084,-70.468084)" inkscape:collect="always" xlink:href="#linearGradient7774" id="linearGradient7776-8" x1="122" y1="183" x2="196" y2="142" gradientUnits="userSpaceOnUse"/>
    <linearGradient inkscape:collect="always" xlink:href="#linearGradient5467" id="linearGradient5473-9-1" x1="24.53476" y1="7.9960122" x2="24.704725" y2="38.249725" gradientUnits="userSpaceOnUse" gradientTransform="matrix(0.5441078,0,0,0.5441078,-57.102945,-57.906866)"/>
    <linearGradient gradientTransform="matrix(0.25531915,0,0,0.25531915,-84.851063,-84.851063)" inkscape:collect="always" xlink:href="#linearGradient7774" id="linearGradient7776-8-4" x1="122" y1="183" x2="196" y2="142" gradientUnits="userSpaceOnUse"/>
  </defs>
  <sodipodi:namedview pagecolor="#383c4a" bordercolor="#ffffff" borderopacity="0.62745098" objecttolerance="4" gridtolerance="10" guidetolerance="4" inkscape:pageopacity="0" inkscape:pageshadow="2" inkscape:window-width="640" inkscape:window-height="480" id="namedview20" showgrid="true" inkscape:zoom="16.386532" inkscape:cx="100.73209" inkscape:cy="-55.455318" inkscape:current-layer="g7905" inkscape:snap-smooth-nodes="false" showguides="true" borderlayer="true" inkscape:showpageshadow="false" inkscape:guide-bbox="true" guidecolor="#bd4fff" guideopacity="0.78431373" inkscape:snap-nodes="true" inkscape:lockguides="false" fit-margin-top="0" fit-margin-left="0" fit-margin-right="0" fit-margin-bottom="0" guidehicolor="#ff0101" guidehiopacity="0.78431373" inkscape:snap-page="true" inkscape:object-nodes="true" inkscape:snap-bbox="true" inkscape:snap-global="true" inkscape:snap-object-midpoints="false" inkscape:snap-bbox-edge-midpoints="false">
    <inkscape:grid type="xygrid" id="grid4171" empspacing="4" dotted="false" originx="2.7755576e-17" originy="0" spacingx="1" spacingy="1" color="#5a5a5a" opacity="0.23529412" empcolor="#5a5a5a" empopacity="0.47058824" visible="true"/>
    <inkscape:grid type="axonomgrid" id="grid4699" units="mm" empspacing="4" color="#5a5a5a" opacity="0.23529412" empcolor="#5a5a5a" empopacity="0.47058824" gridanglex="45" gridanglez="45" spacingy="3.7795276" visible="false" originx="1.3228346" originy="1.3228346"/>
    <sodipodi:guide position="48,0" orientation="1,0" id="guide4568" inkscape:locked="false" inkscape:label="" inkscape:color="rgb(189,79,255)"/>
    <sodipodi:guide position="111.99996,-3.9999999e-05" orientation="0,1" id="guide4570" inkscape:locked="false" inkscape:label="" inkscape:color="rgb(189,79,255)"/>
    <sodipodi:guide position="0,0" orientation="1,0" id="guide4572" inkscape:locked="false" inkscape:label="" inkscape:color="rgb(189,79,255)"/>
    <sodipodi:guide position="0,48" orientation="0,1" id="guide4574" inkscape:locked="false" inkscape:label="" inkscape:color="rgb(189,79,255)"/>
    <sodipodi:guide position="0,80" orientation="0,1" id="guide4576" inkscape:locked="false" inkscape:label="" inkscape:color="rgb(189,79,255)"/>
    <sodipodi:guide position="-32,48" orientation="1,0" id="guide4578" inkscape:locked="false" inkscape:label="" inkscape:color="rgb(189,79,255)"/>
    <sodipodi:guide position="-32,104" orientation="0,1" id="guide4580" inkscape:locked="false" inkscape:label="" inkscape:color="rgb(189,79,255)"/>
    <sodipodi:guide position="-56,80" orientation="1,0" id="guide4582" inkscape:locked="false" inkscape:label="" inkscape:color="rgb(189,79,255)"/>
    <sodipodi:guide position="48,-64" orientation="0,1" id="guide4584" inkscape:locked="false" inkscape:label="" inkscape:color="rgb(189,79,255)"/>
    <sodipodi:guide position="0,0" orientation="-0.70710678,0.70710678" id="guide4588" inkscape:locked="false" inkscape:label="" inkscape:color="rgb(189,79,255)"/>
    <sodipodi:guide position="-56,80" orientation="-0.70710678,0.70710678" id="guide4573" inkscape:locked="false" inkscape:label="" inkscape:color="rgb(189,79,255)"/>
    <sodipodi:guide position="-32,48" orientation="-0.70710678,0.70710678" id="guide4575" inkscape:locked="false" inkscape:label="" inkscape:color="rgb(189,79,255)"/>
    <sodipodi:guide position="48,-64" orientation="-0.70710678,0.70710678" id="guide4577" inkscape:locked="false" inkscape:label="" inkscape:color="rgb(189,79,255)"/>
    <sodipodi:guide position="47.999962,0" orientation="0.70710678,0.70710678" id="guide4697" inkscape:locked="false" inkscape:label="" inkscape:color="rgb(189,79,255)"/>
    <sodipodi:guide position="207.99995,-288" orientation="0,1" id="guide7833" inkscape:locked="false"/>
    <sodipodi:guide position="335.99994,-288" orientation="1,0" id="guide7835" inkscape:locked="false" inkscape:label="" inkscape:color="rgb(189,79,255)"/>
    <sodipodi:guide position="111.99996,-64" orientation="1,0" id="guide7915" inkscape:locked="false"/>
    <sodipodi:guide position="111.99996,-160" orientation="0,1" id="guide7917" inkscape:locked="false"/>
    <sodipodi:guide position="207.99996,-160" orientation="1,0" id="guide7919" inkscape:locked="false"/>
    <sodipodi:guide position="111.99996,-160" orientation="-0.70710678,0.70710678" id="guide7921" inkscape:locked="false" inkscape:label="" inkscape:color="rgb(189,79,255)"/>
    <sodipodi:guide position="207.99996,-288" orientation="-0.70710678,0.70710678" id="guide7923" inkscape:locked="false" inkscape:label="" inkscape:color="rgb(189,79,255)"/>
    <sodipodi:guide position="-72,104" orientation="1,0" id="guide7824" inkscape:locked="false"/>
    <sodipodi:guide position="-56,120" orientation="0,1" id="guide7826" inkscape:locked="false"/>
    <sodipodi:guide position="-72,104" orientation="-0.70710678,0.70710678" id="guide7828" inkscape:locked="false" inkscape:label="" inkscape:color="rgb(189,79,255)"/>
  </sodipodi:namedview>
  <g inkscape:groupmode="layer" id="layer1" inkscape:label="icon_16" style="display:inline" transform="translate(72,72)">
    <g inkscape:groupmode="layer" id="layer5" inkscape:label="frame" style="display:none">
      <rect inkscape:label="frame_16" y="-72" x="-72" height="16" width="16" id="frame_16" style="color:#000000;clip-rule:nonzero;display:block;overflow:visible;visibility:visible;opacity:1;isolation:auto;mix-blend-mode:normal;color-interpolation:sRGB;color-interpolation-filters:linearRGB;solid-color:#000000;solid-opacity:1;vector-effect:none;fill:#000000;fill-opacity:1;fill-rule:nonzero;stroke:#ff24f7;stroke-width:0;stroke-linecap:square;stroke-linejoin:miter;stroke-miterlimit:4;stroke-dasharray:none;stroke-dashoffset:0;stroke-opacity:0.99481865;marker:none;marker-start:none;marker-mid:none;marker-end:none;paint-order:normal;color-rendering:auto;image-rendering:auto;shape-rendering:auto;text-rendering:auto;enable-background:accumulate"/>
      <text id="txt_16" y="-61.087891" x="-69.279297" style="font-size:8px;line-height:1000%;font-family:sans-serif;letter-spacing:0px;word-spacing:0px;display:inline;opacity:1;fill:#ffffff;fill-opacity:1;stroke:none;stroke-width:0.07214338px;stroke-linecap:butt;stroke-linejoin:miter;stroke-opacity:1" xml:space="preserve" inkscape:label="txt_16">
        <tspan style="font-size:8px;fill:#ffffff;fill-opacity:1;stroke:none;stroke-width:0.07214338px" y="-61.087891" x="-69.279297" id="tspan4768-6" sodipodi:role="line">16</tspan>
      </text>
    </g>
    <g inkscape:groupmode="layer" id="layer6" inkscape:label="icon" style="display:inline">
      <circle style="color:#000000;clip-rule:nonzero;display:inline;overflow:visible;visibility:visible;opacity:1;isolation:auto;mix-blend-mode:normal;color-interpolation:sRGB;color-interpolation-filters:linearRGB;solid-color:#000000;solid-opacity:1;fill:#26c991;fill-opacity:0.75520831;fill-rule:nonzero;stroke:#ffffff;stroke-width:0.59382963;stroke-linecap:butt;stroke-linejoin:miter;stroke-miterlimit:4;stroke-dasharray:none;stroke-dashoffset:0;stroke-opacity:0.58333331;marker:none;marker-start:none;marker-mid:none;marker-end:none;color-rendering:auto;image-rendering:auto;shape-rendering:auto;text-rendering:auto;enable-background:accumulate" id="path5465-3-6-3" cx="-64" cy="-63.999996" r="7.7030849" inkscape:label="circle"/>
      <path inkscape:connector-curvature="0" id="path7745-10-7-7" d="m -61.941043,-57.727757 c -0.918382,-0.152513 -2.111076,-1.203823 -3.2,-2.820664 -0.456842,-0.678326 -0.924274,-1.516022 -1.229399,-2.203242 -0.06121,-0.137848 -0.08358,-0.170999 -0.102064,-0.151244 -0.03704,0.03956 -0.302862,0.617569 -0.442917,0.963024 -0.235584,0.581093 -0.401634,1.135134 -0.496787,1.657616 -0.06095,0.334716 -0.0662,0.983267 -0.0095,1.184191 0.131584,0.466876 0.416924,0.660925 0.862122,0.586298 0.320916,-0.0538 0.709392,-0.229565 1.121575,-0.507462 0.183051,-0.123414 0.231194,-0.146899 0.301991,-0.147313 0.108257,-7.14e-4 0.189066,0.05826 0.226933,0.165383 0.0251,0.07102 0.02502,0.09163 -7.14e-4,0.159499 -0.02471,0.06514 -0.06753,0.103692 -0.260738,0.234707 -0.266847,0.180957 -0.72339,0.414204 -0.956955,0.488909 -0.611946,0.19575 -1.08802,0.123993 -1.423658,-0.214575 -0.30788,-0.310565 -0.440527,-0.81301 -0.399649,-1.513805 0.0532,-0.91201 0.454139,-2.157076 1.087644,-3.377557 l 0.158861,-0.306048 -0.119992,-0.324662 c -0.114835,-0.310707 -0.341953,-1.031033 -0.341953,-1.08454 0,-0.03941 -0.06949,-0.03131 -0.37413,0.04362 -0.698014,0.171706 -1.216642,0.390243 -1.588586,0.669392 -0.731097,0.548694 -0.537445,1.167607 0.55815,1.783885 0.174465,0.09813 0.214764,0.150985 0.214764,0.281644 0,0.06828 -0.01262,0.0963 -0.06856,0.152244 -0.119802,0.11981 -0.231358,0.09483 -0.601242,-0.134571 -0.534958,-0.33179 -0.873186,-0.709331 -0.992321,-1.107659 -0.04351,-0.145474 -0.04367,-0.438506 -1.82e-4,-0.584818 0.0632,-0.213318 0.1696,-0.382744 0.361625,-0.575883 0.430337,-0.432834 1.143978,-0.765179 2.122734,-0.988558 0.199355,-0.0455 0.245392,-0.06252 0.237883,-0.08792 -0.0051,-0.01734 -0.0279,-0.131329 -0.05063,-0.253333 -0.13298,-0.71391 -0.137025,-1.532441 -0.0099,-1.986362 0.146689,-0.523398 0.412268,-0.834918 0.835754,-0.98031 0.172909,-0.05937 0.519007,-0.04994 0.75623,0.02055 0.238579,0.07092 0.534803,0.216782 0.796562,0.392233 0.311954,0.209096 0.403941,0.296828 0.417144,0.397865 0.03032,0.232152 -0.209508,0.357346 -0.405314,0.211557 -0.61394,-0.457131 -1.05217,-0.631074 -1.403291,-0.556995 -0.255167,0.05383 -0.450222,0.316179 -0.548666,0.737928 -0.03915,0.167735 -0.0445,0.247346 -0.0447,0.664472 -1.82e-4,0.473446 0.0065,0.54959 0.09302,1.045993 l 0.04344,0.249433 0.102406,-0.01239 c 0.470016,-0.05682 0.875071,-0.09632 1.124847,-0.10972 l 0.296453,-0.01588 0.04624,-0.05943 c 0.500738,-0.643821 1.229005,-1.395668 1.780789,-1.838442 1.056707,-0.847941 1.963009,-1.142421 2.586475,-0.840411 0.352192,0.170606 0.574779,0.519246 0.661097,1.03547 0.05635,0.337022 0.01184,1.134758 -0.07588,1.359457 -0.03029,0.07764 -0.127464,0.13357 -0.232178,0.133662 -0.0659,6.7e-5 -0.100403,-0.01334 -0.151243,-0.05875 -0.06026,-0.05383 -0.06582,-0.06882 -0.06539,-0.17645 1.82e-4,-0.06469 0.01721,-0.249208 0.03771,-0.410035 0.05957,-0.467575 0.01863,-0.899786 -0.108954,-1.149841 -0.06192,-0.12138 -0.188612,-0.250968 -0.298177,-0.304982 -0.08218,-0.04052 -0.124513,-0.04667 -0.316693,-0.04605 -0.201944,7.13e-4 -0.241453,0.0074 -0.44076,0.07538 -0.616615,0.210305 -1.323136,0.715803 -2.081544,1.489283 -0.145035,0.147916 -0.362543,0.382374 -0.48335,0.521018 l -0.219655,0.252075 0.190942,0.0046 c 2.672764,0.06335 4.925454,0.677133 5.987324,1.631333 0.238949,0.214718 0.444844,0.534608 0.504667,0.784075 0.03032,0.126473 0.0309,0.372042 0.0011,0.503518 -0.109657,0.485149 -0.643046,0.962087 -1.420649,1.270311 -0.122915,0.04872 -0.148878,0.05268 -0.215299,0.03275 -0.108793,-0.03259 -0.179339,-0.1245 -0.179339,-0.233641 0,-0.128247 0.06179,-0.189847 0.283827,-0.282956 0.483006,-0.202547 0.857567,-0.486507 0.999786,-0.757962 0.04942,-0.09433 0.05686,-0.131009 0.05684,-0.279965 -1.8e-5,-0.154932 -0.0065,-0.184014 -0.06764,-0.302492 -0.08619,-0.167084 -0.371031,-0.452713 -0.607326,-0.608999 -1.160898,-0.767822 -3.348494,-1.266366 -5.557111,-1.266437 l -0.364337,-1.1e-5 -0.137303,0.186537 c -0.205388,0.27904 -0.651077,0.957331 -0.82843,1.260776 l -0.156401,0.267595 0.107465,0.246643 c 1.078069,2.474232 2.751766,4.563269 3.986236,4.975457 0.268383,0.08961 0.471467,0.09398 0.635623,0.01368 0.307195,-0.150292 0.468094,-0.540439 0.492806,-1.194914 0.04124,-1.092298 -0.352176,-2.601964 -1.085773,-4.16644 -0.07607,-0.162209 -0.121724,-0.28601 -0.121724,-0.330018 0,-0.132314 0.108651,-0.23636 0.244865,-0.234482 0.12095,0.0014 0.174004,0.05009 0.266257,0.243062 0.59492,1.24435 0.991505,2.490929 1.139591,3.582071 0.04979,0.366918 0.05009,1.113721 7.14e-4,1.380593 -0.07924,0.426847 -0.220216,0.73436 -0.435943,0.950922 -0.262804,0.263817 -0.603883,0.364576 -1.007351,0.297575 z m -4.267796,-6.642142 c 0.07532,-0.122011 0.221911,-0.346151 0.325774,-0.498104 0.103863,-0.151949 0.18884,-0.282438 0.18884,-0.289968 0,-0.02593 -0.95286,0.07051 -0.981696,0.09934 -0.01734,0.01728 0.03979,0.229624 0.16666,0.619782 0.09227,0.283733 0.117245,0.341374 0.138067,0.318591 0.01398,-0.01532 0.08704,-0.12764 0.162355,-0.249644 z m 2.033119,1.808855 c -0.302963,-0.108175 -0.480008,-0.360949 -0.475977,-0.679557 0.0023,-0.166813 0.04015,-0.281209 0.137681,-0.414074 0.247149,-0.336682 0.751865,-0.374972 1.055714,-0.0801 0.349009,0.338703 0.245699,0.943042 -0.195762,1.145151 -0.151921,0.06954 -0.37299,0.08166 -0.521656,0.02859 z" style="display:inline;opacity:1;fill:#000000;fill-opacity:0.4375;stroke:none;stroke-width:0.08023412;stroke-miterlimit:4;stroke-dasharray:none;stroke-opacity:1" inkscape:label="sombra atom"/>
      <path style="display:inline;opacity:1;fill:#ffffff;fill-opacity:1;stroke:#ffffff;stroke-width:0.29418978;stroke-miterlimit:4;stroke-dasharray:none;stroke-opacity:1" d="m -61.941043,-58.521023 c -0.918382,-0.152512 -2.111076,-1.203823 -3.2,-2.820665 -0.456842,-0.678326 -0.924274,-1.516022 -1.229399,-2.203242 -0.06121,-0.137848 -0.08358,-0.170999 -0.102064,-0.151244 -0.03704,0.03956 -0.302862,0.61757 -0.442917,0.963024 -0.235584,0.581095 -0.401634,1.135134 -0.496787,1.657617 -0.06095,0.334717 -0.0662,0.983267 -0.0095,1.184191 0.131584,0.466876 0.416924,0.660925 0.862122,0.586298 0.320916,-0.0538 0.709392,-0.229565 1.121575,-0.507462 0.183051,-0.123414 0.231194,-0.146899 0.301991,-0.147313 0.108257,-7.14e-4 0.189066,0.05826 0.226933,0.165383 0.0251,0.07102 0.02502,0.09163 -7.14e-4,0.1595 -0.02471,0.06514 -0.06753,0.103692 -0.260738,0.234706 -0.266847,0.180957 -0.72339,0.414204 -0.956955,0.488909 -0.611946,0.195751 -1.08802,0.123993 -1.423658,-0.214574 -0.30788,-0.310566 -0.440527,-0.813011 -0.399649,-1.513806 0.0532,-0.912011 0.454139,-2.157076 1.087644,-3.377558 l 0.158861,-0.306048 -0.119992,-0.324661 c -0.114835,-0.310708 -0.341953,-1.031033 -0.341953,-1.08454 0,-0.03941 -0.06949,-0.03132 -0.37413,0.04362 -0.698014,0.171707 -1.216642,0.390244 -1.588586,0.669391 -0.731097,0.548695 -0.537445,1.167608 0.55815,1.783887 0.174465,0.09813 0.214764,0.150984 0.214764,0.281642 0,0.06828 -0.01262,0.0963 -0.06856,0.152245 -0.119802,0.119809 -0.231358,0.09483 -0.601242,-0.134571 -0.534958,-0.33179 -0.873186,-0.709332 -0.992321,-1.107658 -0.04351,-0.145476 -0.04367,-0.438506 -1.82e-4,-0.584819 0.0632,-0.213319 0.1696,-0.382745 0.361625,-0.575884 0.430337,-0.432831 1.143978,-0.765179 2.122734,-0.988557 0.199355,-0.0455 0.245392,-0.06252 0.237883,-0.08792 -0.0051,-0.01734 -0.0279,-0.13133 -0.05063,-0.253334 -0.13298,-0.713909 -0.137025,-1.53244 -0.0099,-1.98636 0.146689,-0.523398 0.412268,-0.834919 0.835754,-0.980311 0.172909,-0.05937 0.519007,-0.04994 0.75623,0.02055 0.238579,0.07092 0.534803,0.21678 0.796562,0.392232 0.311954,0.209096 0.403941,0.296828 0.417144,0.397865 0.03032,0.232152 -0.209508,0.357346 -0.405314,0.211556 -0.61394,-0.457129 -1.05217,-0.631072 -1.403291,-0.556994 -0.255167,0.05383 -0.450222,0.316179 -0.548666,0.737928 -0.03915,0.167735 -0.0445,0.247347 -0.0447,0.664472 -1.82e-4,0.473445 0.0065,0.549591 0.09302,1.045993 l 0.04344,0.249433 0.102406,-0.01239 c 0.470016,-0.05681 0.875071,-0.09632 1.124847,-0.109719 l 0.296453,-0.01588 0.04624,-0.05943 c 0.500738,-0.643821 1.229005,-1.395669 1.780789,-1.838442 1.056707,-0.847941 1.963009,-1.142422 2.586475,-0.840411 0.352192,0.170606 0.574779,0.519246 0.661097,1.035471 0.05635,0.337021 0.01184,1.134757 -0.07588,1.359456 -0.03029,0.07764 -0.127464,0.13357 -0.232178,0.133661 -0.0659,6.8e-5 -0.100403,-0.01334 -0.151243,-0.05875 -0.06026,-0.05382 -0.06582,-0.06882 -0.06539,-0.176451 1.82e-4,-0.06469 0.01721,-0.249208 0.03771,-0.410035 0.05957,-0.467575 0.01863,-0.899786 -0.108954,-1.14984 -0.06192,-0.12138 -0.188612,-0.250969 -0.298177,-0.304982 -0.08218,-0.04052 -0.124513,-0.04667 -0.316693,-0.04605 -0.201944,7.14e-4 -0.241453,0.0074 -0.44076,0.07538 -0.616615,0.210305 -1.323136,0.715804 -2.081544,1.489283 -0.145035,0.147917 -0.362543,0.382374 -0.48335,0.521019 l -0.219655,0.252074 0.190942,0.0046 c 2.672764,0.06335 4.925454,0.677134 5.987324,1.631333 0.238949,0.214719 0.444844,0.534608 0.504667,0.784076 0.03032,0.126473 0.0309,0.372042 0.0011,0.503519 -0.109657,0.485148 -0.643046,0.962086 -1.420649,1.27031 -0.122915,0.04872 -0.148878,0.05268 -0.215299,0.03275 -0.108793,-0.0326 -0.179339,-0.124501 -0.179339,-0.233642 0,-0.128247 0.06179,-0.189846 0.283827,-0.282954 0.483006,-0.202547 0.857567,-0.48651 0.999786,-0.757964 0.04942,-0.09433 0.05686,-0.131008 0.05684,-0.279964 -1.8e-5,-0.154932 -0.0065,-0.184015 -0.06764,-0.302493 -0.08619,-0.167082 -0.371031,-0.452711 -0.607326,-0.608999 -1.160874,-0.767822 -3.34847,-1.266365 -5.557087,-1.266435 l -0.36433,10e-7 -0.137303,0.186538 c -0.205388,0.279038 -0.651077,0.957329 -0.828431,1.260776 l -0.156401,0.267594 0.107466,0.246642 c 1.078069,2.474234 2.751765,4.56327 3.986236,4.975458 0.268382,0.08961 0.471466,0.09398 0.635623,0.01368 0.307194,-0.150292 0.468094,-0.540441 0.492806,-1.194916 0.04124,-1.092297 -0.352176,-2.601964 -1.085774,-4.166439 -0.07607,-0.16221 -0.121724,-0.28601 -0.121724,-0.330018 0,-0.132315 0.108652,-0.236362 0.244865,-0.234482 0.120951,0.0014 0.174005,0.05009 0.266258,0.243061 0.59492,1.24435 0.991504,2.49093 1.139591,3.582073 0.04979,0.366917 0.05009,1.113719 7.14e-4,1.380592 -0.07924,0.426848 -0.220216,0.734359 -0.435943,0.950922 -0.262804,0.263817 -0.603883,0.364575 -1.007351,0.297575 z m -4.267796,-6.642143 c 0.07532,-0.12201 0.221911,-0.34615 0.325774,-0.498103 0.103863,-0.15195 0.18884,-0.282439 0.18884,-0.289969 0,-0.02593 -0.95286,0.07051 -0.981696,0.09934 -0.01734,0.01728 0.03979,0.229624 0.16666,0.619782 0.09227,0.283733 0.117245,0.341374 0.138067,0.31859 0.01398,-0.01532 0.08704,-0.12764 0.162355,-0.249643 z m 2.033119,1.808856 c -0.302963,-0.108175 -0.480008,-0.360949 -0.475977,-0.679557 0.0023,-0.166813 0.04015,-0.28121 0.137681,-0.414075 0.247149,-0.336681 0.751865,-0.374972 1.055714,-0.0801 0.349009,0.338702 0.245699,0.943041 -0.195762,1.145151 -0.151921,0.06954 -0.37299,0.08166 -0.521656,0.02859 z" id="path4662-3-4-8" inkscape:connector-curvature="0" inkscape:label="atom"/>
    </g>
  </g>
</svg>