<?xml version="1.0" encoding="UTF-8" standalone="yes"?>
<svg xmlns:osb="http://www.openswatchbook.org/uri/2009/osb" xmlns:dc="http://purl.org/dc/elements/1.1/" xmlns:cc="http://creativecommons.org/ns#" xmlns:rdf="http://www.w3.org/1999/02/22-rdf-syntax-ns#" xmlns:svg="http://www.w3.org/2000/svg" xmlns="http://www.w3.org/2000/svg" xmlns:xlink="http://www.w3.org/1999/xlink" xmlns:sodipodi="http://sodipodi.sourceforge.net/DTD/sodipodi-0.dtd" xmlns:inkscape="http://www.inkscape.org/namespaces/inkscape" height="96" viewBox="0 0 96 96" width="96" id="svg2" version="1.1" inkscape:version="0.92.1 r" sodipodi:docname="accessories-calculator.svg" enable-background="new" folder="96">
  <title id="title4675">Template icons dark</title>
  <metadata id="metadata24">
    <rdf:RDF>
      <cc:Work rdf:about="">
        <dc:format>image/svg+xml</dc:format>
        <dc:type rdf:resource="http://purl.org/dc/dcmitype/StillImage"/>
        <dc:title>Template icons dark</dc:title>
        <dc:date>17/05/13</dc:date>
        <dc:creator>
          <cc:Agent>
            <dc:title>wfpaisa</dc:title>
          </cc:Agent>
        </dc:creator>
        <dc:rights>
          <cc:Agent>
            <dc:title>License: GPLv3</dc:title>
          </cc:Agent>
        </dc:rights>
        <dc:language>es-en</dc:language>
        <dc:subject>
          <rdf:Bag>
            <rdf:li>plane-icon-theme</rdf:li>
          </rdf:Bag>
        </dc:subject>
        <dc:description>Template for create set icons</dc:description>
        <cc:license rdf:resource="https://www.gnu.org/licenses/gpl-3.0.en.html"/>
      </cc:Work>
    </rdf:RDF>
  </metadata>
  <defs id="defs22">
    <linearGradient inkscape:collect="always" id="linearGradient8145">
      <stop style="stop-color:#a2f2e6;stop-opacity:1" offset="0" id="stop8141"/>
      <stop style="stop-color:#77d6f5;stop-opacity:1" offset="1" id="stop8143"/>
    </linearGradient>
    <linearGradient inkscape:collect="always" id="linearGradient8132">
      <stop style="stop-color:#2384a9;stop-opacity:1" offset="0" id="stop8128"/>
      <stop style="stop-color:#25ada9;stop-opacity:0.95294118" offset="1" id="stop8130"/>
    </linearGradient>
    <linearGradient id="linearGradient7980" osb:paint="solid">
      <stop style="stop-color:#000000;stop-opacity:0.13407822;" offset="0" id="stop7978"/>
    </linearGradient>
    <linearGradient id="linearGradient7908" osb:paint="solid">
      <stop style="stop-color:#ffffff;stop-opacity:0.02793296;" offset="0" id="stop7906"/>
    </linearGradient>
    <linearGradient inkscape:collect="always" id="linearGradient7736">
      <stop style="stop-color:#000000;stop-opacity:0.03645833" offset="0" id="stop7732"/>
      <stop style="stop-color:#afe4ff;stop-opacity:0.04166667" offset="1" id="stop7734"/>
    </linearGradient>
    <linearGradient inkscape:collect="always" xlink:href="#linearGradient7736" id="linearGradient7738" x1="133" y1="137.99213" x2="127" y2="125.09449" gradientUnits="userSpaceOnUse" gradientTransform="translate(0.04265)"/>
    <linearGradient inkscape:collect="always" xlink:href="#linearGradient7908" id="linearGradient7910" x1="124" y1="155.5" x2="196" y2="155.5" gradientUnits="userSpaceOnUse"/>
    <linearGradient gradientTransform="translate(-124,-155)" inkscape:collect="always" xlink:href="#linearGradient7908" id="linearGradient7910-5" x1="124" y1="155.5" x2="196" y2="155.5" gradientUnits="userSpaceOnUse"/>
    <linearGradient inkscape:collect="always" xlink:href="#linearGradient7980" id="linearGradient7982" x1="124" y1="154.5" x2="196" y2="154.5" gradientUnits="userSpaceOnUse"/>
    <linearGradient gradientTransform="translate(-124,-154)" inkscape:collect="always" xlink:href="#linearGradient7980" id="linearGradient7982-8" x1="124" y1="154.5" x2="196" y2="154.5" gradientUnits="userSpaceOnUse"/>
    <linearGradient inkscape:collect="always" xlink:href="#linearGradient7980" id="linearGradient8100" gradientUnits="userSpaceOnUse" x1="124" y1="154.5" x2="196" y2="154.5" gradientTransform="translate(0,-1)"/>
    <linearGradient inkscape:collect="always" xlink:href="#linearGradient7980" id="linearGradient8102" gradientUnits="userSpaceOnUse" x1="124" y1="154.5" x2="196" y2="154.5"/>
    <linearGradient inkscape:collect="always" xlink:href="#linearGradient7908" id="linearGradient8104" gradientUnits="userSpaceOnUse" x1="124" y1="155.5" x2="196" y2="155.5"/>
    <linearGradient inkscape:collect="always" xlink:href="#linearGradient7980" id="linearGradient8106" gradientUnits="userSpaceOnUse" x1="124" y1="154.5" x2="196" y2="154.5"/>
    <linearGradient inkscape:collect="always" xlink:href="#linearGradient7908" id="linearGradient8108" gradientUnits="userSpaceOnUse" x1="124" y1="155.5" x2="196" y2="155.5"/>
    <linearGradient inkscape:collect="always" xlink:href="#linearGradient7980" id="linearGradient8110" gradientUnits="userSpaceOnUse" x1="124" y1="154.5" x2="196" y2="154.5"/>
    <linearGradient inkscape:collect="always" xlink:href="#linearGradient7908" id="linearGradient8112" gradientUnits="userSpaceOnUse" x1="124" y1="155.5" x2="196" y2="155.5"/>
    <linearGradient inkscape:collect="always" xlink:href="#linearGradient7908" id="linearGradient8114" gradientUnits="userSpaceOnUse" x1="124" y1="155.5" x2="196" y2="155.5" gradientTransform="translate(0,-1)"/>
    <linearGradient inkscape:collect="always" xlink:href="#linearGradient7980" id="linearGradient8116" gradientUnits="userSpaceOnUse" x1="124" y1="154.5" x2="196" y2="154.5" gradientTransform="translate(0,-1)"/>
    <linearGradient inkscape:collect="always" xlink:href="#linearGradient8132" id="linearGradient8134" x1="191.62694" y1="198" x2="186" y2="177" gradientUnits="userSpaceOnUse"/>
    <linearGradient inkscape:collect="always" xlink:href="#linearGradient8145" id="linearGradient8147" x1="142" y1="130" x2="187" y2="140" gradientUnits="userSpaceOnUse" gradientTransform="translate(0,-1)"/>
    <linearGradient inkscape:collect="always" xlink:href="#linearGradient7908" id="linearGradient8171" gradientUnits="userSpaceOnUse" gradientTransform="translate(0,-14)" x1="124" y1="155.5" x2="196" y2="155.5"/>
    <linearGradient inkscape:collect="always" xlink:href="#linearGradient8145" id="linearGradient8147-7" x1="142" y1="130" x2="187" y2="140" gradientUnits="userSpaceOnUse" gradientTransform="matrix(1.3636364,0,0,1.3636364,53.636359,52.454537)"/>
    <linearGradient inkscape:collect="always" xlink:href="#linearGradient7980" id="linearGradient8102-7" gradientUnits="userSpaceOnUse" x1="124" y1="154.5" x2="196" y2="154.5"/>
    <linearGradient inkscape:collect="always" xlink:href="#linearGradient7908" id="linearGradient8104-9" gradientUnits="userSpaceOnUse" x1="124" y1="155.5" x2="196" y2="155.5"/>
    <linearGradient gradientTransform="matrix(1.3636364,0,0,1.3636364,53.636359,53.818174)" inkscape:collect="always" xlink:href="#linearGradient8132" id="linearGradient8134-7" x1="191.62694" y1="198" x2="186" y2="177" gradientUnits="userSpaceOnUse"/>
    <linearGradient inkscape:collect="always" xlink:href="#linearGradient7980" id="linearGradient8506" gradientUnits="userSpaceOnUse" gradientTransform="translate(0,-1)" x1="124" y1="154.5" x2="196" y2="154.5"/>
    <linearGradient inkscape:collect="always" xlink:href="#linearGradient7980" id="linearGradient8508" gradientUnits="userSpaceOnUse" x1="124" y1="154.5" x2="196" y2="154.5"/>
    <linearGradient inkscape:collect="always" xlink:href="#linearGradient7908" id="linearGradient8510" gradientUnits="userSpaceOnUse" x1="124" y1="155.5" x2="196" y2="155.5"/>
    <linearGradient inkscape:collect="always" xlink:href="#linearGradient7980" id="linearGradient8512" gradientUnits="userSpaceOnUse" x1="124" y1="154.5" x2="196" y2="154.5"/>
    <linearGradient inkscape:collect="always" xlink:href="#linearGradient7908" id="linearGradient8514" gradientUnits="userSpaceOnUse" x1="124" y1="155.5" x2="196" y2="155.5"/>
    <linearGradient inkscape:collect="always" xlink:href="#linearGradient7980" id="linearGradient8516" gradientUnits="userSpaceOnUse" x1="124" y1="154.5" x2="196" y2="154.5"/>
    <linearGradient inkscape:collect="always" xlink:href="#linearGradient7908" id="linearGradient8518" gradientUnits="userSpaceOnUse" x1="124" y1="155.5" x2="196" y2="155.5"/>
    <linearGradient inkscape:collect="always" xlink:href="#linearGradient7908" id="linearGradient8520" gradientUnits="userSpaceOnUse" gradientTransform="translate(0,-1)" x1="124" y1="155.5" x2="196" y2="155.5"/>
    <linearGradient inkscape:collect="always" xlink:href="#linearGradient7980" id="linearGradient8522" gradientUnits="userSpaceOnUse" gradientTransform="translate(0,-1)" x1="124" y1="154.5" x2="196" y2="154.5"/>
    <linearGradient inkscape:collect="always" xlink:href="#linearGradient7908" id="linearGradient8524" gradientUnits="userSpaceOnUse" gradientTransform="translate(0,-14)" x1="124" y1="155.5" x2="196" y2="155.5"/>
    <linearGradient inkscape:collect="always" xlink:href="#linearGradient8145" id="linearGradient8147-1" x1="142" y1="130" x2="187" y2="140" gradientUnits="userSpaceOnUse" gradientTransform="matrix(0.72727635,0,0,0.72727635,-36.743162,-37.091636)"/>
    <linearGradient inkscape:collect="always" xlink:href="#linearGradient7980" id="linearGradient8102-4" gradientUnits="userSpaceOnUse" x1="124" y1="154.5" x2="196" y2="154.5"/>
    <linearGradient inkscape:collect="always" xlink:href="#linearGradient7908" id="linearGradient8104-8" gradientUnits="userSpaceOnUse" x1="124" y1="155.5" x2="196" y2="155.5"/>
    <linearGradient gradientTransform="matrix(0.72727635,0,0,0.72727635,-36.743162,-36.36436)" inkscape:collect="always" xlink:href="#linearGradient8132" id="linearGradient8134-75" x1="191.62694" y1="198" x2="186" y2="177" gradientUnits="userSpaceOnUse"/>
    <linearGradient inkscape:collect="always" xlink:href="#linearGradient7980" id="linearGradient8814" gradientUnits="userSpaceOnUse" gradientTransform="translate(0,-1)" x1="124" y1="154.5" x2="196" y2="154.5"/>
    <linearGradient inkscape:collect="always" xlink:href="#linearGradient7980" id="linearGradient8816" gradientUnits="userSpaceOnUse" x1="124" y1="154.5" x2="196" y2="154.5"/>
    <linearGradient inkscape:collect="always" xlink:href="#linearGradient7908" id="linearGradient8818" gradientUnits="userSpaceOnUse" x1="124" y1="155.5" x2="196" y2="155.5"/>
    <linearGradient inkscape:collect="always" xlink:href="#linearGradient7980" id="linearGradient8820" gradientUnits="userSpaceOnUse" x1="124" y1="154.5" x2="196" y2="154.5"/>
    <linearGradient inkscape:collect="always" xlink:href="#linearGradient7908" id="linearGradient8822" gradientUnits="userSpaceOnUse" x1="124" y1="155.5" x2="196" y2="155.5"/>
    <linearGradient inkscape:collect="always" xlink:href="#linearGradient7980" id="linearGradient8824" gradientUnits="userSpaceOnUse" x1="124" y1="154.5" x2="196" y2="154.5"/>
    <linearGradient inkscape:collect="always" xlink:href="#linearGradient7908" id="linearGradient8826" gradientUnits="userSpaceOnUse" x1="124" y1="155.5" x2="196" y2="155.5"/>
    <linearGradient inkscape:collect="always" xlink:href="#linearGradient7908" id="linearGradient8828" gradientUnits="userSpaceOnUse" gradientTransform="translate(0,-1)" x1="124" y1="155.5" x2="196" y2="155.5"/>
    <linearGradient inkscape:collect="always" xlink:href="#linearGradient7980" id="linearGradient8830" gradientUnits="userSpaceOnUse" gradientTransform="translate(0,-1)" x1="124" y1="154.5" x2="196" y2="154.5"/>
    <linearGradient inkscape:collect="always" xlink:href="#linearGradient7908" id="linearGradient8832" gradientUnits="userSpaceOnUse" gradientTransform="translate(0,-14)" x1="124" y1="155.5" x2="196" y2="155.5"/>
    <linearGradient inkscape:collect="always" xlink:href="#linearGradient8145" id="linearGradient8147-5" x1="142" y1="130" x2="187" y2="140" gradientUnits="userSpaceOnUse" gradientTransform="matrix(0.54546053,0,0,0.54546053,-61.816992,-55.819146)"/>
    <linearGradient inkscape:collect="always" xlink:href="#linearGradient7980" id="linearGradient8102-0" gradientUnits="userSpaceOnUse" x1="124" y1="154.5" x2="196" y2="154.5"/>
    <linearGradient inkscape:collect="always" xlink:href="#linearGradient7908" id="linearGradient8104-82" gradientUnits="userSpaceOnUse" x1="124" y1="155.5" x2="196" y2="155.5"/>
    <linearGradient gradientTransform="matrix(0.54546053,0,0,0.54546053,-63.273685,-63.273685)" inkscape:collect="always" xlink:href="#linearGradient8132" id="linearGradient8134-71" x1="191.62694" y1="198" x2="186" y2="177" gradientUnits="userSpaceOnUse"/>
    <linearGradient inkscape:collect="always" xlink:href="#linearGradient7980" id="linearGradient8940" gradientUnits="userSpaceOnUse" gradientTransform="translate(0,-1)" x1="124" y1="154.5" x2="196" y2="154.5"/>
    <linearGradient inkscape:collect="always" xlink:href="#linearGradient7980" id="linearGradient8942" gradientUnits="userSpaceOnUse" x1="124" y1="154.5" x2="196" y2="154.5"/>
    <linearGradient inkscape:collect="always" xlink:href="#linearGradient7908" id="linearGradient8944" gradientUnits="userSpaceOnUse" x1="124" y1="155.5" x2="196" y2="155.5"/>
    <linearGradient inkscape:collect="always" xlink:href="#linearGradient7980" id="linearGradient8946" gradientUnits="userSpaceOnUse" x1="124" y1="154.5" x2="196" y2="154.5"/>
    <linearGradient inkscape:collect="always" xlink:href="#linearGradient7908" id="linearGradient8948" gradientUnits="userSpaceOnUse" x1="124" y1="155.5" x2="196" y2="155.5"/>
    <linearGradient inkscape:collect="always" xlink:href="#linearGradient7980" id="linearGradient8950" gradientUnits="userSpaceOnUse" x1="124" y1="154.5" x2="196" y2="154.5"/>
    <linearGradient inkscape:collect="always" xlink:href="#linearGradient7908" id="linearGradient8952" gradientUnits="userSpaceOnUse" x1="124" y1="155.5" x2="196" y2="155.5"/>
    <linearGradient inkscape:collect="always" xlink:href="#linearGradient7908" id="linearGradient8954" gradientUnits="userSpaceOnUse" gradientTransform="translate(0,-1)" x1="124" y1="155.5" x2="196" y2="155.5"/>
    <linearGradient inkscape:collect="always" xlink:href="#linearGradient7980" id="linearGradient8956" gradientUnits="userSpaceOnUse" gradientTransform="translate(0,-1)" x1="124" y1="154.5" x2="196" y2="154.5"/>
    <linearGradient inkscape:collect="always" xlink:href="#linearGradient7908" id="linearGradient8958" gradientUnits="userSpaceOnUse" gradientTransform="translate(0,-14)" x1="124" y1="155.5" x2="196" y2="155.5"/>
    <linearGradient gradientTransform="matrix(0.36363158,0,0,0.36363158,-74.18993,-74.180862)" inkscape:collect="always" xlink:href="#linearGradient8132" id="linearGradient8134-0" x1="191.62694" y1="198" x2="186" y2="177" gradientUnits="userSpaceOnUse"/>
    <linearGradient inkscape:collect="always" xlink:href="#linearGradient7980" id="linearGradient9068" gradientUnits="userSpaceOnUse" x1="124" y1="154.5" x2="196" y2="154.5" gradientTransform="translate(19.250254)"/>
    <linearGradient inkscape:collect="always" xlink:href="#linearGradient7908" id="linearGradient9070" gradientUnits="userSpaceOnUse" x1="124" y1="155.5" x2="196" y2="155.5" gradientTransform="translate(19.250254)"/>
    <linearGradient inkscape:collect="always" xlink:href="#linearGradient7908" id="linearGradient9080" gradientUnits="userSpaceOnUse" gradientTransform="translate(0,-1)" x1="124" y1="155.5" x2="196" y2="155.5"/>
    <linearGradient inkscape:collect="always" xlink:href="#linearGradient7980" id="linearGradient9082" gradientUnits="userSpaceOnUse" gradientTransform="translate(0,-1)" x1="124" y1="154.5" x2="196" y2="154.5"/>
    <linearGradient inkscape:collect="always" xlink:href="#linearGradient8145" id="linearGradient8147-5-3" x1="142" y1="130" x2="187" y2="140" gradientUnits="userSpaceOnUse" gradientTransform="matrix(0.54546053,0,0,0.54546053,-77.22954,-70.813989)"/>
    <linearGradient inkscape:collect="always" xlink:href="#linearGradient8145" id="linearGradient8147-5-1" x1="142" y1="130" x2="187" y2="140" gradientUnits="userSpaceOnUse" gradientTransform="matrix(0.54546053,0,0,0.54546053,-107.81699,-90.819146)"/>
    <linearGradient inkscape:collect="always" xlink:href="#linearGradient8145" id="linearGradient8147-5-1-9" x1="142" y1="130" x2="187" y2="140" gradientUnits="userSpaceOnUse" gradientTransform="matrix(0.54546053,0,0,0.54546053,-131.81699,-115.81915)"/>
    <linearGradient inkscape:collect="always" xlink:href="#linearGradient7980" id="linearGradient9082-0" gradientUnits="userSpaceOnUse" gradientTransform="matrix(0.36363158,0,0,0.36363158,-102.18993,-103.27176)" x1="124" y1="154.5" x2="196" y2="154.5"/>
    <linearGradient inkscape:collect="always" xlink:href="#linearGradient7908" id="linearGradient9080-2" gradientUnits="userSpaceOnUse" gradientTransform="matrix(0.36363158,0,0,0.36363158,-102.18993,-103.27176)" x1="124" y1="155.5" x2="196" y2="155.5"/>
    <linearGradient inkscape:collect="always" xlink:href="#linearGradient7908" id="linearGradient9070-1" gradientUnits="userSpaceOnUse" x1="124" y1="155.5" x2="196" y2="155.5" gradientTransform="matrix(0.36363158,0,0,0.36363158,-95.189929,-102.90812)"/>
    <linearGradient inkscape:collect="always" xlink:href="#linearGradient7980" id="linearGradient9068-8" gradientUnits="userSpaceOnUse" x1="124" y1="154.5" x2="196" y2="154.5" gradientTransform="matrix(0.36363158,0,0,0.36363158,-95.189929,-102.90812)"/>
    <linearGradient gradientTransform="matrix(0.36363158,0,0,0.36363158,-102.18993,-102.18086)" inkscape:collect="always" xlink:href="#linearGradient8132" id="linearGradient8134-0-7" x1="183.0826" y1="188.73724" x2="165.13472" y2="176.49968" gradientUnits="userSpaceOnUse"/>
    <linearGradient inkscape:collect="always" xlink:href="#linearGradient8145" id="linearGradient8147-5-1-9-9" x1="142" y1="130" x2="187" y2="140" gradientUnits="userSpaceOnUse" gradientTransform="matrix(0.54546053,0,0,0.54546053,-152.81699,-133.81915)"/>
    <linearGradient gradientTransform="matrix(0.36363158,0,0,0.36363158,-122.18993,-123.18086)" inkscape:collect="always" xlink:href="#linearGradient8132" id="linearGradient8134-0-7-0" x1="183.0826" y1="188.73724" x2="165.13472" y2="176.49968" gradientUnits="userSpaceOnUse"/>
  </defs>
  <sodipodi:namedview pagecolor="#383c4a" bordercolor="#ffffff" borderopacity="0.62745098" objecttolerance="4" gridtolerance="10" guidetolerance="4" inkscape:pageopacity="0" inkscape:pageshadow="2" inkscape:window-width="640" inkscape:window-height="480" id="namedview20" showgrid="true" inkscape:zoom="32.578064" inkscape:cx="-59.900381" inkscape:cy="108.10651" inkscape:current-layer="layer6" inkscape:snap-smooth-nodes="true" showguides="true" borderlayer="true" inkscape:showpageshadow="false" inkscape:guide-bbox="true" guidecolor="#bd4fff" guideopacity="0.78431373" inkscape:snap-nodes="true" inkscape:lockguides="false" fit-margin-top="0" fit-margin-left="0" fit-margin-right="0" fit-margin-bottom="0" guidehicolor="#ff0101" guidehiopacity="0.78431373" inkscape:snap-page="true" inkscape:object-nodes="true" inkscape:snap-bbox="true" inkscape:snap-global="true" inkscape:snap-object-midpoints="false" inkscape:snap-bbox-edge-midpoints="false">
    <inkscape:grid type="xygrid" id="grid4171" empspacing="4" dotted="false" originx="2.7755576e-17" originy="0" spacingx="1" spacingy="1" color="#6f4568" opacity="0.50196078" empcolor="#5a5a5a" empopacity="0.47058824" visible="true"/>
    <inkscape:grid type="axonomgrid" id="grid4699" units="mm" empspacing="4" color="#5a5a5a" opacity="0.23529412" empcolor="#5a5a5a" empopacity="0.47058824" gridanglex="45" gridanglez="45" spacingy="3.7795276" visible="false" originx="1.3228346" originy="1.3228346"/>
    <sodipodi:guide position="48,0" orientation="1,0" id="guide4568" inkscape:locked="false" inkscape:label="" inkscape:color="rgb(189,79,255)"/>
    <sodipodi:guide position="111.99996,-3.9999999e-05" orientation="0,1" id="guide4570" inkscape:locked="false" inkscape:label="" inkscape:color="rgb(189,79,255)"/>
    <sodipodi:guide position="0,0" orientation="1,0" id="guide4572" inkscape:locked="false" inkscape:label="" inkscape:color="rgb(189,79,255)"/>
    <sodipodi:guide position="0,48" orientation="0,1" id="guide4574" inkscape:locked="false" inkscape:label="" inkscape:color="rgb(189,79,255)"/>
    <sodipodi:guide position="-32,48" orientation="1,0" id="guide4578" inkscape:locked="false" inkscape:label="" inkscape:color="rgb(189,79,255)"/>
    <sodipodi:guide position="-32,104" orientation="0,1" id="guide4580" inkscape:locked="false" inkscape:label="" inkscape:color="rgb(189,79,255)"/>
    <sodipodi:guide position="-56,80" orientation="1,0" id="guide4582" inkscape:locked="false" inkscape:label="" inkscape:color="rgb(189,79,255)"/>
    <sodipodi:guide position="48,-64" orientation="0,1" id="guide4584" inkscape:locked="false" inkscape:label="" inkscape:color="rgb(189,79,255)"/>
    <sodipodi:guide position="-56,80" orientation="-0.70710678,0.70710678" id="guide4573" inkscape:locked="false" inkscape:label="" inkscape:color="rgb(189,79,255)"/>
    <sodipodi:guide position="-32,48" orientation="-0.70710678,0.70710678" id="guide4575" inkscape:locked="false" inkscape:label="" inkscape:color="rgb(189,79,255)"/>
    <sodipodi:guide position="48,-64" orientation="-0.70710678,0.70710678" id="guide4577" inkscape:locked="false" inkscape:label="" inkscape:color="rgb(189,79,255)"/>
    <sodipodi:guide position="207.99995,-288" orientation="0,1" id="guide7833" inkscape:locked="false"/>
    <sodipodi:guide position="335.99994,-288" orientation="1,0" id="guide7835" inkscape:locked="false" inkscape:label="" inkscape:color="rgb(189,79,255)"/>
    <sodipodi:guide position="111.99996,-64" orientation="1,0" id="guide7915" inkscape:locked="false"/>
    <sodipodi:guide position="111.99996,-160" orientation="0,1" id="guide7917" inkscape:locked="false"/>
    <sodipodi:guide position="207.99996,-160" orientation="1,0" id="guide7919" inkscape:locked="false"/>
    <sodipodi:guide position="111.99996,-160" orientation="-0.70710678,0.70710678" id="guide7921" inkscape:locked="false" inkscape:label="" inkscape:color="rgb(189,79,255)"/>
    <sodipodi:guide position="207.99996,-288" orientation="-0.70710678,0.70710678" id="guide7923" inkscape:locked="false" inkscape:label="" inkscape:color="rgb(189,79,255)"/>
    <sodipodi:guide position="-72,104" orientation="1,0" id="guide7824" inkscape:locked="false"/>
    <sodipodi:guide position="-56,120" orientation="0,1" id="guide7826" inkscape:locked="false"/>
    <sodipodi:guide position="-72,104" orientation="-0.70710678,0.70710678" id="guide7828" inkscape:locked="false" inkscape:label="" inkscape:color="rgb(189,79,255)"/>
    <sodipodi:guide position="-9.4274007,57.427401" orientation="0.70710678,0.70710678" id="guide8398" inkscape:locked="false" inkscape:label="" inkscape:color="rgb(189,79,255)"/>
  </sodipodi:namedview>
  <g style="display:inline" inkscape:label="icon_96" id="g8840" inkscape:groupmode="layer" transform="translate(-111.99996,-112)">
    <g style="display:none" inkscape:label="frame" id="g8776" inkscape:groupmode="layer">
      <rect style="color:#000000;clip-rule:nonzero;display:inline;overflow:visible;visibility:visible;opacity:1;isolation:auto;mix-blend-mode:normal;color-interpolation:sRGB;color-interpolation-filters:linearRGB;solid-color:#000000;solid-opacity:1;vector-effect:none;fill:#000000;fill-opacity:1;fill-rule:nonzero;stroke:#ff24f7;stroke-width:0;stroke-linecap:square;stroke-linejoin:miter;stroke-miterlimit:4;stroke-dasharray:none;stroke-dashoffset:0;stroke-opacity:0.99481865;marker:none;marker-start:none;marker-mid:none;marker-end:none;paint-order:normal;color-rendering:auto;image-rendering:auto;shape-rendering:auto;text-rendering:auto;enable-background:accumulate" id="rect_96" width="96" height="96" x="111.99996" y="112" inkscape:label="frame_96"/>
      <text inkscape:label="txt_96" id="text_96" y="168.73633" x="144.72458" style="font-size:24px;line-height:0%;font-family:sans-serif;letter-spacing:0px;word-spacing:0px;display:inline;opacity:1;fill:#ffffff;fill-opacity:1;stroke:none;stroke-width:0.04917826px;stroke-linecap:butt;stroke-linejoin:miter;stroke-opacity:1" xml:space="preserve">
        <tspan id="tspan8768" style="font-size:24px;line-height:0%;fill:#ffffff;fill-opacity:1;stroke:none;stroke-width:0.04917826px" y="168.73633" x="144.72458" sodipodi:role="line">96</tspan>
      </text>
    </g>
    <g style="display:inline" inkscape:label="icon" id="g8838" inkscape:groupmode="layer">
      <path style="color:#000000;clip-rule:nonzero;display:block;overflow:visible;visibility:visible;opacity:1;isolation:auto;mix-blend-mode:normal;color-interpolation:sRGB;color-interpolation-filters:linearRGB;solid-color:#000000;solid-opacity:1;vector-effect:none;fill:#000000;fill-opacity:0.046875;fill-rule:nonzero;stroke:none;stroke-width:2.2078104;stroke-linecap:butt;stroke-linejoin:miter;stroke-miterlimit:0;stroke-dasharray:none;stroke-dashoffset:0;stroke-opacity:1;marker:none;marker-start:none;marker-mid:none;marker-end:none;paint-order:fill markers stroke;color-rendering:auto;image-rendering:auto;shape-rendering:auto;text-rendering:auto;enable-background:accumulate" d="m 130,116 h 60 c 4.432,0 8,3.568 8,8 v 72 c 0,4.432 -3.568,8 -8,8 h -60 c -4.432,0 -8,-3.568 -8,-8 v -72 c 0,-4.432 3.568,-8 8,-8 z" id="rect7727" inkscape:connector-curvature="0" inkscape:label="base sombra"/>
      <path style="color:#000000;clip-rule:nonzero;display:block;overflow:visible;visibility:visible;opacity:1;isolation:auto;mix-blend-mode:normal;color-interpolation:sRGB;color-interpolation-filters:linearRGB;solid-color:#000000;solid-opacity:1;vector-effect:none;fill:#31353f;fill-opacity:1;fill-rule:nonzero;stroke:none;stroke-width:2.2078104;stroke-linecap:butt;stroke-linejoin:miter;stroke-miterlimit:0;stroke-dasharray:none;stroke-dashoffset:0;stroke-opacity:1;marker:none;marker-start:none;marker-mid:none;marker-end:none;paint-order:fill markers stroke;color-rendering:auto;image-rendering:auto;shape-rendering:auto;text-rendering:auto;enable-background:accumulate" d="m 132,118 h 56 c 4.432,0 8,3.568 8,8 v 68 c 0,4.432 -3.568,8 -8,8 h -56 c -4.432,0 -8,-3.568 -8,-8 v -68 c 0,-4.432 3.568,-8 8,-8 z" id="rect7721" inkscape:connector-curvature="0" inkscape:label="base"/>
      <path style="color:#000000;clip-rule:nonzero;display:inline;overflow:visible;visibility:visible;opacity:1;isolation:auto;mix-blend-mode:normal;color-interpolation:sRGB;color-interpolation-filters:linearRGB;solid-color:#000000;solid-opacity:1;vector-effect:none;fill:#333842;fill-opacity:1;fill-rule:nonzero;stroke:none;stroke-width:2.55767751;stroke-linecap:butt;stroke-linejoin:miter;stroke-miterlimit:0;stroke-dasharray:none;stroke-dashoffset:0;stroke-opacity:1;marker:none;marker-start:none;marker-mid:none;marker-end:none;paint-order:fill markers stroke;color-rendering:auto;image-rendering:auto;shape-rendering:auto;text-rendering:auto;enable-background:accumulate" d="m 124,150 h 72 v 44 c 0,4.432 -3.568,8 -8,8 h -56 c -4.432,0 -8,-3.568 -8,-8 z" id="rect7762" inkscape:connector-curvature="0" sodipodi:nodetypes="cccsscc" inkscape:label="fondo  signos"/>
      <path style="color:#000000;clip-rule:nonzero;display:block;overflow:visible;visibility:visible;opacity:1;isolation:auto;mix-blend-mode:normal;color-interpolation:sRGB;color-interpolation-filters:linearRGB;solid-color:#000000;solid-opacity:1;vector-effect:none;fill:url(#linearGradient8134);fill-opacity:1;fill-rule:nonzero;stroke:none;stroke-width:2.55767751;stroke-linecap:butt;stroke-linejoin:miter;stroke-miterlimit:0;stroke-dasharray:none;stroke-dashoffset:0;stroke-opacity:1;marker:none;marker-start:none;marker-mid:none;marker-end:none;paint-order:fill markers stroke;color-rendering:auto;image-rendering:auto;shape-rendering:auto;text-rendering:auto;enable-background:accumulate" d="m 181,176 v 25 h 6 c 4.432,0 8,-3.568 8,-8 v -17 z" id="rect7760" inkscape:connector-curvature="0" sodipodi:nodetypes="ccsscc" inkscape:label="fondo numeros"/>
      <path style="color:#000000;clip-rule:nonzero;display:block;overflow:visible;visibility:visible;opacity:1;isolation:auto;mix-blend-mode:normal;color-interpolation:sRGB;color-interpolation-filters:linearRGB;solid-color:#000000;solid-opacity:1;vector-effect:none;fill:#000000;fill-opacity:0.19791667;fill-rule:nonzero;stroke:none;stroke-width:2.2078104;stroke-linecap:butt;stroke-linejoin:miter;stroke-miterlimit:0;stroke-dasharray:none;stroke-dashoffset:0;stroke-opacity:1;marker:none;marker-start:none;marker-mid:none;marker-end:none;paint-order:fill markers stroke;color-rendering:auto;image-rendering:auto;shape-rendering:auto;text-rendering:auto;enable-background:accumulate" d="m 132,118 h 56.0853 c 4.40837,0 7.95735,3.54898 7.95735,7.95735 V 150 h -72 V 125.95735 C 124.04265,121.54898 127.59163,118 132,118 Z" id="rect7729" inkscape:connector-curvature="0" sodipodi:nodetypes="sssccss" inkscape:label="fondo total"/>
      <path style="font-style:normal;font-variant:normal;font-weight:normal;font-stretch:normal;font-size:2.85333848px;line-height:1.25;font-family:'Liberation Sans';-inkscape-font-specification:'Liberation Sans';text-align:center;letter-spacing:0px;word-spacing:0px;text-anchor:middle;display:inline;fill:#95d3e7;fill-opacity:0.69791667;stroke:none;stroke-width:2.44611692" d="m 170,153 v 3 h 3 v 2 h -3 v 1 h 4 v -3 -3 z m -21,0 v 2 l 1,1 -1,1 v 2 h 4 v -2 l -1,-1 1,-1 v -2 z m -18,0 v 1 h 3 l -2.5,5 h 1.5 l 2,-6 z m 42,2 h -2 v -1 h 2 z m -23,-1 h 2 v 1 h -2 z m 0,3 h 2 v 1 h -2 z m 20,9 v 6 h 4 v -4 h -3 v -1 l 2.94804,-0.0377 L 174,166 Z m -37,0 -2,3 v 1 h 2 v 2 h 1 v -6 z m 17,0 v 3 h 2 v 2 h -2 v 1 h 3 v -4 h -2 l -4e-5,-1 H 153 v -1 z m -17,1 v 2.00788 L 132,169 Z m 40,2 v 2 h -2 v -2 z m 1,11 v -1 h -4 v 1 h 3 l -2,2 2,2 h -3 v 1 h 4 v -2 l -1,-1 z m -24,1 h 1 v -1 h 1 v 1 l -2,3 v 1 h 3 v -1 l -2,0.0157 2,-2.0157 v -3 h -3 v 1.99995 z m -17,-2 -1,0.66031 V 180 h 1 v 4.5 h -1 v 0.5 h 3 v -0.5 h -1 V 179 Z m 15,15 h 3 v -3 h -3 z m 5,-3 -3,6 h 1 l 3,-6 z m -3,1 v 1 h -1 v -1 z m -18,4 h 3 v -5 h -3 z m 2,-4 v 3 h -1 v -3 z m 37,1 v 2 h 2 v -2 z m -18,4 h 3 v -3 h -3 z m 2,-2 v 1 h -1 v -1 z" id="path7899" inkscape:connector-curvature="0" sodipodi:nodetypes="cccccccccccccccccccccccccccccccccccccccccccccccccccccccccccccccccccccccccccccccccccccccccccccccccccccccccccccccccccccccccccccccccccccccccccccccccccccccccccccccccc" inkscape:label="numeros"/>
      <path inkscape:label="mas menos" style="font-style:normal;font-variant:normal;font-weight:normal;font-stretch:normal;font-size:2.85333848px;line-height:1.25;font-family:'Liberation Sans';-inkscape-font-specification:'Liberation Sans';text-align:center;letter-spacing:0px;word-spacing:0px;text-anchor:middle;display:inline;opacity:1;vector-effect:none;fill:#95e7c8;fill-opacity:0.69791667;stroke:none;stroke-width:2.44611692;stroke-linecap:butt;stroke-linejoin:miter;stroke-miterlimit:4;stroke-dasharray:none;stroke-dashoffset:0;stroke-opacity:1" d="m 188,154 v 2 h -2 v 1 h 2 v 2 h 1 v -2 h 2 v -1 h -2 v -2 z m -2,15 v 1 h 5 v -1 z" id="path8184" inkscape:connector-curvature="0" sodipodi:nodetypes="ccccccccccccczcccz"/>
      <path sodipodi:nodetypes="cccccccccc" inkscape:connector-curvature="0" id="path8075" d="m 186,187 v 1 h 5 v -1 z m 0,2 v 1 h 5 v -1 z" style="font-style:normal;font-variant:normal;font-weight:normal;font-stretch:normal;font-size:2.85333848px;line-height:1.25;font-family:'Liberation Sans';-inkscape-font-specification:'Liberation Sans';text-align:center;letter-spacing:0px;word-spacing:0px;text-anchor:middle;display:inline;fill:#ecf8fd;fill-opacity:0.84895833;stroke:none;stroke-width:2.44611692" inkscape:label="igual"/>
      <path style="color:#000000;font-style:normal;font-variant:normal;font-weight:normal;font-stretch:normal;font-size:medium;line-height:normal;font-family:sans-serif;font-variant-ligatures:normal;font-variant-position:normal;font-variant-caps:normal;font-variant-numeric:normal;font-variant-alternates:normal;font-feature-settings:normal;text-indent:0;text-align:start;text-decoration:none;text-decoration-line:none;text-decoration-style:solid;text-decoration-color:#000000;letter-spacing:normal;word-spacing:normal;text-transform:none;writing-mode:lr-tb;direction:ltr;text-orientation:mixed;dominant-baseline:auto;baseline-shift:baseline;text-anchor:start;white-space:normal;shape-padding:0;clip-rule:nonzero;display:block;overflow:visible;visibility:visible;opacity:1;isolation:auto;mix-blend-mode:normal;color-interpolation:sRGB;color-interpolation-filters:linearRGB;solid-color:#000000;solid-opacity:1;vector-effect:none;fill:#000000;fill-opacity:0.08854167;fill-rule:nonzero;stroke:none;stroke-width:2;stroke-linecap:butt;stroke-linejoin:miter;stroke-miterlimit:0;stroke-dasharray:none;stroke-dashoffset:0;stroke-opacity:1;marker:none;paint-order:fill markers stroke;color-rendering:auto;image-rendering:auto;shape-rendering:auto;text-rendering:auto;enable-background:accumulate" d="m 132,118 c -4.4147,0 -8,3.5853 -8,8 v 68 c 0,4.4147 3.5853,8 8,8 h 56 c 4.4147,0 8,-3.5853 8,-8 v -68 c 0,-4.4147 -3.5853,-8 -8,-8 z m 0,2 h 56 c 3.3413,0 6,2.6587 6,6 v 68 c 0,3.3413 -2.6587,6 -6,6 h -56 c -3.3413,0 -6,-2.6587 -6,-6 v -68 c 0,-3.3413 2.6587,-6 6,-6 z" id="rect8049" inkscape:connector-curvature="0" inkscape:label="border"/>
      <path style="color:#000000;clip-rule:nonzero;display:inline;overflow:visible;visibility:visible;opacity:1;isolation:auto;mix-blend-mode:normal;color-interpolation:sRGB;color-interpolation-filters:linearRGB;solid-color:#000000;solid-opacity:1;vector-effect:none;fill:#ffffff;fill-opacity:0.10416667;fill-rule:nonzero;stroke:none;stroke-width:2.2078104;stroke-linecap:butt;stroke-linejoin:miter;stroke-miterlimit:0;stroke-dasharray:none;stroke-dashoffset:0;stroke-opacity:1;marker:none;marker-start:none;marker-mid:none;marker-end:none;paint-order:fill markers stroke;color-rendering:auto;image-rendering:auto;shape-rendering:auto;text-rendering:auto;enable-background:accumulate" d="m 125,192 v 1 c 0,4.432 3.568,8 8,8 h 54 c 4.432,0 8,-3.568 8,-8 v -1 c 0,4.432 -3.568,8 -8,8 h -54 c -4.432,0 -8,-3.568 -8,-8 z" id="rect7776" inkscape:connector-curvature="0" inkscape:label="base brillo" sodipodi:nodetypes="csssscssc"/>
      <path style="font-style:normal;font-variant:normal;font-weight:normal;font-stretch:normal;font-size:medium;line-height:1000%;font-family:'Roboto Mono for Powerline';-inkscape-font-specification:'Roboto Mono for Powerline';letter-spacing:0px;word-spacing:0px;fill:url(#linearGradient8147);fill-opacity:1;stroke:none;stroke-width:1px;stroke-linecap:butt;stroke-linejoin:miter;stroke-opacity:1" sodipodi:nodetypes="cccccccccscscccsccscccscccscsccccccscccscccccccscccccccccccccccccccccccccccccccccccccccssccscccsccccccsccssccsscccccccccccscccscccscccscccs" inkscape:connector-curvature="0" id="path8081" d="m 145.1875,128.82422 c -0.52604,0 -1.00521,0.0833 -1.4375,0.25 -0.42709,0.16146 -0.79428,0.38542 -1.10156,0.67187 -0.3073,0.28126 -0.54688,0.61459 -0.71875,1 -0.16667,0.38022 -0.25,0.78647 -0.25,1.21875 h 1.45312 c 0,-0.29687 0.0495,-0.5651 0.14844,-0.80468 0.099,-0.23959 0.23698,-0.44532 0.41406,-0.61719 0.1823,-0.17187 0.39844,-0.30208 0.64844,-0.39063 0.25521,-0.0937 0.53646,-0.14062 0.84375,-0.14062 0.65104,0 1.14584,0.16927 1.48438,0.50781 0.33854,0.33333 0.50781,0.83073 0.50781,1.49219 0,0.28646 -0.0495,0.54948 -0.14844,0.78906 -0.099,0.23959 -0.24479,0.44532 -0.4375,0.61719 -0.1875,0.17187 -0.42187,0.30729 -0.70313,0.40625 -0.27603,0.099 -0.59635,0.14844 -0.96093,0.14844 h -1.03125 v 1.17187 h 1.03125 c 0.35937,0 0.6875,0.0417 0.98437,0.125 0.30209,0.0833 0.55729,0.21094 0.76563,0.38281 0.21354,0.17188 0.37761,0.38803 0.49219,0.64844 0.11979,0.25521 0.17968,0.5599 0.17968,0.91406 0,0.35938 -0.0521,0.67188 -0.15625,0.9375 -0.099,0.26042 -0.24219,0.47917 -0.42969,0.65625 -0.1875,0.17709 -0.41406,0.3099 -0.67968,0.39844 -0.26563,0.0833 -0.5625,0.125 -0.89063,0.125 -0.32812,0 -0.6276,-0.0469 -0.89843,-0.14062 -0.26562,-0.0938 -0.49219,-0.22657 -0.67969,-0.39844 -0.1875,-0.17187 -0.33334,-0.38021 -0.4375,-0.625 -0.099,-0.24479 -0.14844,-0.51563 -0.14844,-0.8125 h -1.44531 c 0,0.5 0.0937,0.94531 0.28125,1.33594 0.1927,0.39062 0.45052,0.72135 0.77343,0.99218 0.32293,0.27084 0.70313,0.47656 1.14063,0.61719 0.44271,0.14063 0.91406,0.21094 1.41406,0.21094 0.51042,0 0.98438,-0.0729 1.42188,-0.21875 0.4427,-0.15104 0.82552,-0.36719 1.14843,-0.64844 0.32292,-0.28646 0.57552,-0.63542 0.75782,-1.04687 0.18228,-0.41146 0.27344,-0.88281 0.27344,-1.41407 0,-0.26041 -0.0313,-0.52343 -0.0938,-0.78906 -0.0573,-0.26563 -0.16145,-0.51823 -0.3125,-0.75781 -0.14583,-0.23959 -0.34374,-0.45573 -0.59374,-0.64844 -0.24479,-0.19271 -0.55209,-0.34896 -0.92188,-0.46875 0.30729,-0.13021 0.57032,-0.29167 0.78906,-0.48437 0.22396,-0.19792 0.40625,-0.40626 0.54688,-0.625 0.14062,-0.22396 0.24478,-0.45313 0.3125,-0.6875 0.0677,-0.23438 0.10156,-0.46094 0.10156,-0.67969 0,-0.52604 -0.0833,-0.98958 -0.25,-1.39063 -0.16667,-0.40104 -0.40104,-0.73698 -0.70312,-1.00781 -0.30209,-0.27083 -0.66407,-0.47396 -1.08594,-0.60937 -0.42188,-0.14063 -0.88803,-0.21094 -1.39844,-0.21094 z m 16.78125,0.15625 -4.30469,1.65625 v 1.32031 l 2.97656,-1.13281 v 9.53125 h 1.44532 v -11.375 z m 8.34375,0 -5.09375,7.88281 v 0.85156 h 5.1875 v 2.64063 h 1.44531 v -2.64063 h 1.58594 v -1.17968 h -1.58594 v -7.55469 z m 8.84375,0 -4.30469,1.65625 v 1.32031 l 2.97656,-1.13281 v 9.53125 h 1.44532 v -11.375 z m 5.10937,0 -0.57031,5.67187 1.15625,0.29688 c 0.13021,-0.11459 0.25521,-0.21615 0.375,-0.30469 0.125,-0.0886 0.25781,-0.16409 0.39844,-0.22656 0.14063,-0.0625 0.29688,-0.10936 0.46875,-0.14063 0.17708,-0.0365 0.38541,-0.0547 0.625,-0.0547 0.36458,0 0.6875,0.0651 0.96875,0.19531 0.28125,0.13021 0.51822,0.30989 0.71094,0.53906 0.1927,0.22396 0.33854,0.48958 0.4375,0.79688 0.10416,0.30728 0.15625,0.63802 0.15625,0.99218 0,0.39063 -0.0469,0.7448 -0.14063,1.0625 -0.0885,0.31772 -0.22395,0.59115 -0.40625,0.82032 -0.17708,0.22395 -0.39843,0.39843 -0.66406,0.52343 -0.26563,0.1198 -0.57032,0.17969 -0.91406,0.17969 -0.60938,0 -1.10938,-0.16667 -1.5,-0.5 -0.38542,-0.33333 -0.6224,-0.82292 -0.71094,-1.46875 h -1.375 c 0.0521,0.52604 0.17969,0.98698 0.38281,1.38281 0.20834,0.39584 0.47136,0.72396 0.78906,0.98438 0.32293,0.26041 0.69011,0.45572 1.10157,0.58594 0.41145,0.1302 0.84895,0.19531 1.3125,0.19531 0.60416,0 1.13021,-0.0937 1.57812,-0.28125 0.44792,-0.19271 0.81771,-0.45573 1.10938,-0.78906 0.29687,-0.33855 0.51823,-0.73959 0.66406,-1.20313 0.14583,-0.46354 0.21875,-0.96614 0.21875,-1.50781 0,-0.57292 -0.0781,-1.09375 -0.23438,-1.5625 -0.15624,-0.46875 -0.3802,-0.86719 -0.67187,-1.19531 -0.29167,-0.33334 -0.64583,-0.59115 -1.0625,-0.77344 -0.41667,-0.18229 -0.88802,-0.27344 -1.41406,-0.27344 -0.41146,0 -0.77344,0.0495 -1.08594,0.14844 -0.3125,0.099 -0.58073,0.21354 -0.80469,0.34375 l 0.32032,-3.03125 h 4.61718 v -1.40625 z m -13.85937,1.92187 v 5.63282 h -3.58594 l 3.35157,-5.19532 z m -16.95313,7.39844 c -0.1875,0 -0.35156,0.0287 -0.49218,0.0859 -0.14063,0.0573 -0.25781,0.13802 -0.35156,0.24219 -0.0938,0.099 -0.16669,0.21614 -0.21876,0.35156 -0.0469,0.13541 -0.0703,0.28125 -0.0703,0.4375 0,0.15104 0.0234,0.29427 0.0703,0.42969 0.0521,0.1302 0.12501,0.24479 0.21876,0.34375 0.0937,0.099 0.21093,0.17449 0.35156,0.22656 0.14062,0.0573 0.30468,0.0859 0.49218,0.0859 0.1875,0 0.35157,-0.0287 0.49219,-0.0859 0.14584,-0.0521 0.26562,-0.12761 0.35938,-0.22656 0.099,-0.099 0.17188,-0.21355 0.21875,-0.34375 0.0521,-0.13542 0.0781,-0.27865 0.0781,-0.42969 0,-0.15625 -0.0261,-0.30209 -0.0781,-0.4375 -0.0469,-0.13542 -0.1198,-0.25261 -0.21875,-0.35156 -0.0938,-0.1042 -0.21354,-0.18492 -0.35938,-0.24219 -0.14062,-0.0573 -0.30469,-0.0859 -0.49219,-0.0859 z" inkscape:label="total"/>
      <path inkscape:label="fondo total brillo" sodipodi:nodetypes="sssccss" inkscape:connector-curvature="0" id="path8096" d="m 132,118 h 56.0853 c 4.40837,0 7.95735,3.54898 7.95735,7.95735 V 128 c -26.70954,2.57718 -63.29549,-14.59567 -72,24 V 125.95735 C 124.04265,121.54898 127.59163,118 132,118 Z" style="color:#000000;clip-rule:nonzero;display:inline;overflow:visible;visibility:visible;opacity:1;isolation:auto;mix-blend-mode:normal;color-interpolation:sRGB;color-interpolation-filters:linearRGB;solid-color:#000000;solid-opacity:1;vector-effect:none;fill:#ffffff;fill-opacity:0.03125;fill-rule:nonzero;stroke:none;stroke-width:2.2078104;stroke-linecap:butt;stroke-linejoin:miter;stroke-miterlimit:0;stroke-dasharray:none;stroke-dashoffset:0;stroke-opacity:1;marker:none;marker-start:none;marker-mid:none;marker-end:none;paint-order:fill markers stroke;color-rendering:auto;image-rendering:auto;shape-rendering:auto;text-rendering:auto;enable-background:accumulate"/>
      <path sodipodi:nodetypes="csssscssc" inkscape:label="fondo totall brillo 2" inkscape:connector-curvature="0" id="path8053" d="m 125,129 v -1 c 0,-4.432 3.568,-8 8,-8 h 54 c 4.432,0 8,3.568 8,8 v 1 c 0,-4.432 -3.568,-8 -8,-8 h -54 c -4.432,0 -8,3.568 -8,8 z" style="color:#000000;clip-rule:nonzero;display:inline;overflow:visible;visibility:visible;opacity:1;isolation:auto;mix-blend-mode:normal;color-interpolation:sRGB;color-interpolation-filters:linearRGB;solid-color:#000000;solid-opacity:1;vector-effect:none;fill:#ffffff;fill-opacity:0.04166667;fill-rule:nonzero;stroke:none;stroke-width:2.2078104;stroke-linecap:butt;stroke-linejoin:miter;stroke-miterlimit:0;stroke-dasharray:none;stroke-dashoffset:0;stroke-opacity:1;marker:none;marker-start:none;marker-mid:none;marker-end:none;paint-order:fill markers stroke;color-rendering:auto;image-rendering:auto;shape-rendering:auto;text-rendering:auto;enable-background:accumulate"/>
      <g id="g7873" inkscape:label="lineas" transform="translate(0,-2)">
        <path id="path3264-9" d="m 124,151 v 1 h 71.96851 L 196,151 Z" style="display:inline;opacity:1;vector-effect:none;fill:#d7fde9;fill-opacity:0.11458333;stroke:none;stroke-width:1.88152838;stroke-linecap:butt;stroke-linejoin:miter;stroke-miterlimit:4;stroke-dasharray:none;stroke-dashoffset:0;stroke-opacity:1;marker:none;marker-start:none;marker-mid:none;marker-end:none;paint-order:fill markers stroke" inkscape:connector-curvature="0" sodipodi:nodetypes="ccccc"/>
        <path id="path3250-7" d="m 124,163 v 1 h 71.96851 L 196,163 Z" style="display:inline;opacity:1;vector-effect:none;fill:url(#linearGradient8100);fill-opacity:1;stroke:none;stroke-width:1.88152838;stroke-linecap:butt;stroke-linejoin:miter;stroke-miterlimit:4;stroke-dasharray:none;stroke-dashoffset:0;stroke-opacity:1" inkscape:connector-curvature="0" sodipodi:nodetypes="ccccc"/>
        <path id="path7846" d="m 140,152 v 51 h 1 v -51 z" style="display:inline;opacity:1;vector-effect:none;fill:url(#linearGradient8102);fill-opacity:1;stroke:none;stroke-width:1.88152838;stroke-linecap:butt;stroke-linejoin:miter;stroke-miterlimit:4;stroke-dasharray:none;stroke-dashoffset:0;stroke-opacity:1" inkscape:connector-curvature="0" sodipodi:nodetypes="ccccc"/>
        <path inkscape:connector-curvature="0" style="display:inline;opacity:1;vector-effect:none;fill:url(#linearGradient8104);fill-opacity:1;stroke:none;stroke-width:1.88152838;stroke-linecap:butt;stroke-linejoin:miter;stroke-miterlimit:4;stroke-dasharray:none;stroke-dashoffset:0;stroke-opacity:1" d="m 141,152 v 51 h 1 v -51 z" id="path7848" sodipodi:nodetypes="ccccc"/>
        <path sodipodi:nodetypes="ccccc" inkscape:connector-curvature="0" style="display:inline;opacity:1;vector-effect:none;fill:url(#linearGradient8106);fill-opacity:1;stroke:none;stroke-width:1.88152838;stroke-linecap:butt;stroke-linejoin:miter;stroke-miterlimit:4;stroke-dasharray:none;stroke-dashoffset:0;stroke-opacity:1" d="m 161,152 v 51 h 1 v -51 z" id="path7889"/>
        <path sodipodi:nodetypes="ccccc" id="path7891" d="m 162,152 v 51 h 1 v -51 z" style="display:inline;opacity:1;vector-effect:none;fill:url(#linearGradient8108);fill-opacity:1;stroke:none;stroke-width:1.88152838;stroke-linecap:butt;stroke-linejoin:miter;stroke-miterlimit:4;stroke-dasharray:none;stroke-dashoffset:0;stroke-opacity:1" inkscape:connector-curvature="0"/>
        <path id="path7893" d="m 180,152 v 51 h 1 v -51 z" style="display:inline;opacity:1;vector-effect:none;fill:url(#linearGradient8110);fill-opacity:1;stroke:none;stroke-width:1.88152838;stroke-linecap:butt;stroke-linejoin:miter;stroke-miterlimit:4;stroke-dasharray:none;stroke-dashoffset:0;stroke-opacity:1" inkscape:connector-curvature="0" sodipodi:nodetypes="ccccc"/>
        <path inkscape:connector-curvature="0" style="display:inline;opacity:1;vector-effect:none;fill:url(#linearGradient8112);fill-opacity:1;stroke:none;stroke-width:1.88152838;stroke-linecap:butt;stroke-linejoin:miter;stroke-miterlimit:4;stroke-dasharray:none;stroke-dashoffset:0;stroke-opacity:1" d="m 181,152 v 51 h 1 v -51 z" id="path7895" sodipodi:nodetypes="ccccc"/>
        <path sodipodi:nodetypes="ccccc" inkscape:connector-curvature="0" style="display:inline;opacity:1;vector-effect:none;fill:url(#linearGradient8114);fill-opacity:1;stroke:none;stroke-width:1.88152838;stroke-linecap:butt;stroke-linejoin:miter;stroke-miterlimit:4;stroke-dasharray:none;stroke-dashoffset:0;stroke-opacity:1" d="m 124,177 v 1 h 71.96851 L 196,177 Z" id="path7897"/>
        <path sodipodi:nodetypes="ccccc" inkscape:connector-curvature="0" style="display:inline;opacity:1;vector-effect:none;fill:url(#linearGradient8116);fill-opacity:1;stroke:none;stroke-width:1.88152838;stroke-linecap:butt;stroke-linejoin:miter;stroke-miterlimit:4;stroke-dasharray:none;stroke-dashoffset:0;stroke-opacity:1" d="m 124,176 v 1 h 71.96851 L 196,176 Z" id="path7900"/>
        <path id="path7902" d="m 124,190 v 1 h 55.96851 L 180,190 Z" style="display:inline;opacity:1;vector-effect:none;fill:url(#linearGradient7910);fill-opacity:1;stroke:none;stroke-width:1.88152838;stroke-linecap:butt;stroke-linejoin:miter;stroke-miterlimit:4;stroke-dasharray:none;stroke-dashoffset:0;stroke-opacity:1" inkscape:connector-curvature="0" sodipodi:nodetypes="ccccc"/>
        <path id="path7904" d="m 124,189 v 1 h 55.96851 L 180,189 Z" style="display:inline;opacity:1;vector-effect:none;fill:url(#linearGradient7982);fill-opacity:1;stroke:none;stroke-width:1.88152838;stroke-linecap:butt;stroke-linejoin:miter;stroke-miterlimit:4;stroke-dasharray:none;stroke-dashoffset:0;stroke-opacity:1" inkscape:connector-curvature="0" sodipodi:nodetypes="ccccc"/>
        <path id="path8169" d="m 124,164 v 1 h 71.96851 L 196,164 Z" style="display:inline;opacity:1;vector-effect:none;fill:url(#linearGradient8171);fill-opacity:1;stroke:none;stroke-width:1.88152838;stroke-linecap:butt;stroke-linejoin:miter;stroke-miterlimit:4;stroke-dasharray:none;stroke-dashoffset:0;stroke-opacity:1" inkscape:connector-curvature="0" sodipodi:nodetypes="ccccc"/>
      </g>
    </g>
  </g>
</svg>