<?xml version="1.0" encoding="UTF-8" standalone="yes"?>
<svg xmlns:dc="http://purl.org/dc/elements/1.1/" xmlns:cc="http://creativecommons.org/ns#" xmlns:rdf="http://www.w3.org/1999/02/22-rdf-syntax-ns#" xmlns:svg="http://www.w3.org/2000/svg" xmlns="http://www.w3.org/2000/svg" xmlns:xlink="http://www.w3.org/1999/xlink" xmlns:sodipodi="http://sodipodi.sourceforge.net/DTD/sodipodi-0.dtd" xmlns:inkscape="http://www.inkscape.org/namespaces/inkscape" height="96" viewBox="0 0 96 96" width="96" id="svg2" version="1.1" inkscape:version="0.92.1 r" sodipodi:docname="flash-player-properties.svg" enable-background="new" folder="96">
  <title id="title4675">Template icons dark</title>
  <metadata id="metadata24">
    <rdf:RDF>
      <cc:Work rdf:about="">
        <dc:format>image/svg+xml</dc:format>
        <dc:type rdf:resource="http://purl.org/dc/dcmitype/StillImage"/>
        <dc:title>Template icons dark</dc:title>
        <dc:date>17/05/13</dc:date>
        <dc:creator>
          <cc:Agent>
            <dc:title>wfpaisa</dc:title>
          </cc:Agent>
        </dc:creator>
        <dc:rights>
          <cc:Agent>
            <dc:title>License: GPLv3</dc:title>
          </cc:Agent>
        </dc:rights>
        <dc:language>es-en</dc:language>
        <dc:subject>
          <rdf:Bag>
            <rdf:li>plane-icon-theme</rdf:li>
          </rdf:Bag>
        </dc:subject>
        <dc:description>Template for create set icons</dc:description>
        <cc:license rdf:resource="https://www.gnu.org/licenses/gpl-3.0.en.html"/>
      </cc:Work>
    </rdf:RDF>
  </metadata>
  <defs id="defs22">
    <linearGradient inkscape:collect="always" id="linearGradient7769">
      <stop style="stop-color:#ffffff;stop-opacity:0.171875" offset="0" id="stop7765"/>
      <stop style="stop-color:#000000;stop-opacity:0;" offset="1" id="stop7767"/>
    </linearGradient>
    <linearGradient id="linearGradient7744" inkscape:collect="always">
      <stop id="stop7740" offset="0" style="stop-color:#730216;stop-opacity:0.78125"/>
      <stop id="stop7742" offset="1" style="stop-color:#d9042a;stop-opacity:0.02745098"/>
    </linearGradient>
    <linearGradient inkscape:collect="always" id="linearGradient7748">
      <stop style="stop-color:#d40e0e;stop-opacity:1" offset="0" id="stop7744"/>
      <stop style="stop-color:#910404;stop-opacity:0.96470588" offset="1" id="stop7746"/>
    </linearGradient>
    <linearGradient inkscape:collect="always" xlink:href="#linearGradient7748" id="linearGradient7750" x1="160.85533" y1="121.50957" x2="160.85533" y2="200.85536" gradientUnits="userSpaceOnUse"/>
    <linearGradient inkscape:collect="always" xlink:href="#linearGradient7744" id="linearGradient7738" gradientUnits="userSpaceOnUse" x1="198.31935" y1="122.53598" x2="175.15457" y2="144.16115" gradientTransform="translate(1.9073486e-5,-319.99998)"/>
    <linearGradient inkscape:collect="always" xlink:href="#linearGradient7769" id="linearGradient7771" x1="160" y1="197.92126" x2="160" y2="120" gradientUnits="userSpaceOnUse"/>
    <linearGradient gradientTransform="matrix(1.3282359,0,0,1.3282359,59.610776,58.612616)" inkscape:collect="always" xlink:href="#linearGradient7769" id="linearGradient7771-3" x1="160" y1="197.92126" x2="160" y2="120" gradientUnits="userSpaceOnUse"/>
    <linearGradient inkscape:collect="always" xlink:href="#linearGradient7744" id="linearGradient7738-5" gradientUnits="userSpaceOnUse" x1="198.31935" y1="122.53598" x2="175.15457" y2="144.16115" gradientTransform="matrix(1.3282359,0,0,1.3282359,58.612642,-484.64619)"/>
    <linearGradient gradientTransform="matrix(1.3282359,0,0,1.3282359,59.610776,58.612616)" inkscape:collect="always" xlink:href="#linearGradient7748" id="linearGradient7750-6" x1="160.85533" y1="121.50957" x2="160.85533" y2="200.85536" gradientUnits="userSpaceOnUse"/>
    <linearGradient gradientTransform="matrix(0.67421035,0,0,0.67421035,-28.926023,-28.914299)" inkscape:collect="always" xlink:href="#linearGradient7769" id="linearGradient7771-6" x1="160" y1="197.92126" x2="160" y2="120" gradientUnits="userSpaceOnUse"/>
    <linearGradient inkscape:collect="always" xlink:href="#linearGradient7744" id="linearGradient7738-7" gradientUnits="userSpaceOnUse" x1="198.31935" y1="122.53598" x2="175.15457" y2="144.16115" gradientTransform="matrix(0.67421035,0,0,0.67421035,-28.914286,-186.82128)"/>
    <linearGradient gradientTransform="matrix(0.67421035,0,0,0.67421035,-28.926023,-28.914299)" inkscape:collect="always" xlink:href="#linearGradient7748" id="linearGradient7750-0" x1="160.85533" y1="121.50957" x2="160.85533" y2="200.85536" gradientUnits="userSpaceOnUse"/>
    <linearGradient gradientTransform="matrix(0.5,0,0,0.5,-56.999671,-57.000623)" inkscape:collect="always" xlink:href="#linearGradient7769" id="linearGradient7771-1" x1="160" y1="197.92126" x2="160" y2="120" gradientUnits="userSpaceOnUse"/>
    <linearGradient inkscape:collect="always" xlink:href="#linearGradient7744" id="linearGradient7738-3" gradientUnits="userSpaceOnUse" x1="198.31935" y1="122.53598" x2="175.15457" y2="144.16115" gradientTransform="matrix(0.5,0,0,0.5,-57.000613,-103.00032)"/>
    <linearGradient gradientTransform="matrix(0.5,0,0,0.5,-56.999671,-57.000623)" inkscape:collect="always" xlink:href="#linearGradient7748" id="linearGradient7750-4" x1="160.85533" y1="121.50957" x2="160.85533" y2="200.85536" gradientUnits="userSpaceOnUse"/>
    <linearGradient gradientTransform="matrix(0.36363218,0,0,0.36363218,-74.908599,-74.908229)" inkscape:collect="always" xlink:href="#linearGradient7769" id="linearGradient7771-5" x1="160" y1="197.92126" x2="160" y2="120" gradientUnits="userSpaceOnUse"/>
    <linearGradient inkscape:collect="always" xlink:href="#linearGradient7744" id="linearGradient7738-76" gradientUnits="userSpaceOnUse" x1="198.31935" y1="122.53598" x2="175.15457" y2="144.16115" gradientTransform="matrix(0.36363218,0,0,0.36363218,-74.908221,-41.453692)"/>
    <linearGradient gradientTransform="matrix(0.36363218,0,0,0.36363218,-74.908599,-74.908229)" inkscape:collect="always" xlink:href="#linearGradient7748" id="linearGradient7750-9" x1="160.85533" y1="121.50957" x2="160.85533" y2="200.85536" gradientUnits="userSpaceOnUse"/>
    <linearGradient gradientTransform="matrix(0.275,0,0,0.275,-87.999989,-88.000001)" inkscape:collect="always" xlink:href="#linearGradient7748" id="linearGradient7750-9-8" x1="160.85533" y1="121.50957" x2="160.85533" y2="200.85536" gradientUnits="userSpaceOnUse"/>
    <linearGradient gradientTransform="matrix(0.17499999,0,0,0.17499999,-91.999991,-91.999994)" inkscape:collect="always" xlink:href="#linearGradient7748" id="linearGradient7750-9-8-9" x1="160.85533" y1="199.99998" x2="160.85533" y2="211.42854" gradientUnits="userSpaceOnUse"/>
    <symbol id="icon-cog" viewBox="0 0 24 28">
      <title id="title12501">cog</title>
      <path d="M16 14c0-2.203-1.797-4-4-4s-4 1.797-4 4 1.797 4 4 4 4-1.797 4-4zM24 12.297v3.469c0 0.234-0.187 0.516-0.438 0.562l-2.891 0.438c-0.172 0.5-0.359 0.969-0.609 1.422 0.531 0.766 1.094 1.453 1.672 2.156 0.094 0.109 0.156 0.25 0.156 0.391s-0.047 0.25-0.141 0.359c-0.375 0.5-2.484 2.797-3.016 2.797-0.141 0-0.281-0.063-0.406-0.141l-2.156-1.687c-0.453 0.234-0.938 0.438-1.422 0.594-0.109 0.953-0.203 1.969-0.453 2.906-0.063 0.25-0.281 0.438-0.562 0.438h-3.469c-0.281 0-0.531-0.203-0.562-0.469l-0.438-2.875c-0.484-0.156-0.953-0.344-1.406-0.578l-2.203 1.672c-0.109 0.094-0.25 0.141-0.391 0.141s-0.281-0.063-0.391-0.172c-0.828-0.75-1.922-1.719-2.578-2.625-0.078-0.109-0.109-0.234-0.109-0.359 0-0.141 0.047-0.25 0.125-0.359 0.531-0.719 1.109-1.406 1.641-2.141-0.266-0.5-0.484-1.016-0.641-1.547l-2.859-0.422c-0.266-0.047-0.453-0.297-0.453-0.562v-3.469c0-0.234 0.187-0.516 0.422-0.562l2.906-0.438c0.156-0.5 0.359-0.969 0.609-1.437-0.531-0.75-1.094-1.453-1.672-2.156-0.094-0.109-0.156-0.234-0.156-0.375s0.063-0.25 0.141-0.359c0.375-0.516 2.484-2.797 3.016-2.797 0.141 0 0.281 0.063 0.406 0.156l2.156 1.672c0.453-0.234 0.938-0.438 1.422-0.594 0.109-0.953 0.203-1.969 0.453-2.906 0.063-0.25 0.281-0.438 0.562-0.438h3.469c0.281 0 0.531 0.203 0.562 0.469l0.438 2.875c0.484 0.156 0.953 0.344 1.406 0.578l2.219-1.672c0.094-0.094 0.234-0.141 0.375-0.141s0.281 0.063 0.391 0.156c0.828 0.766 1.922 1.734 2.578 2.656 0.078 0.094 0.109 0.219 0.109 0.344 0 0.141-0.047 0.25-0.125 0.359-0.531 0.719-1.109 1.406-1.641 2.141 0.266 0.5 0.484 1.016 0.641 1.531l2.859 0.438c0.266 0.047 0.453 0.297 0.453 0.562z" id="path12503"/>
    </symbol>
  </defs>
  <sodipodi:namedview pagecolor="#383c4a" bordercolor="#ffffff" borderopacity="0.62745098" objecttolerance="4" gridtolerance="10" guidetolerance="4" inkscape:pageopacity="0" inkscape:pageshadow="2" inkscape:window-width="640" inkscape:window-height="480" id="namedview20" showgrid="true" inkscape:zoom="11.621654" inkscape:cx="-73.27909" inkscape:cy="95.331744" inkscape:current-layer="layer6" inkscape:snap-smooth-nodes="false" showguides="true" borderlayer="true" inkscape:showpageshadow="false" inkscape:guide-bbox="true" guidecolor="#bd4fff" guideopacity="0.78431373" inkscape:snap-nodes="true" inkscape:lockguides="false" fit-margin-top="0" fit-margin-left="0" fit-margin-right="0" fit-margin-bottom="0" guidehicolor="#ff0101" guidehiopacity="0.78431373" inkscape:snap-page="true" inkscape:object-nodes="true" inkscape:snap-bbox="true" inkscape:snap-global="true" inkscape:snap-object-midpoints="false" inkscape:snap-bbox-edge-midpoints="false" inkscape:bbox-nodes="true">
    <inkscape:grid type="xygrid" id="grid4171" empspacing="4" dotted="false" originx="2.7755576e-17" originy="0" spacingx="1" spacingy="1" color="#5a5a5a" opacity="0.23529412" empcolor="#5a5a5a" empopacity="0.47058824" visible="true"/>
    <inkscape:grid type="axonomgrid" id="grid4699" units="mm" empspacing="4" color="#5a5a5a" opacity="0.23529412" empcolor="#5a5a5a" empopacity="0.47058824" gridanglex="45" gridanglez="45" spacingy="3.7795276" visible="false" originx="1.3228346" originy="1.3228346"/>
    <sodipodi:guide position="48,0" orientation="1,0" id="guide4568" inkscape:locked="false" inkscape:label="" inkscape:color="rgb(189,79,255)"/>
    <sodipodi:guide position="111.99996,-3.9999999e-05" orientation="0,1" id="guide4570" inkscape:locked="false" inkscape:label="" inkscape:color="rgb(189,79,255)"/>
    <sodipodi:guide position="0,0" orientation="1,0" id="guide4572" inkscape:locked="false" inkscape:label="" inkscape:color="rgb(189,79,255)"/>
    <sodipodi:guide position="0,48" orientation="0,1" id="guide4574" inkscape:locked="false" inkscape:label="" inkscape:color="rgb(189,79,255)"/>
    <sodipodi:guide position="0,80" orientation="0,1" id="guide4576" inkscape:locked="false" inkscape:label="" inkscape:color="rgb(189,79,255)"/>
    <sodipodi:guide position="-32,48" orientation="1,0" id="guide4578" inkscape:locked="false" inkscape:label="" inkscape:color="rgb(189,79,255)"/>
    <sodipodi:guide position="-32,104" orientation="0,1" id="guide4580" inkscape:locked="false" inkscape:label="" inkscape:color="rgb(189,79,255)"/>
    <sodipodi:guide position="-56,80" orientation="1,0" id="guide4582" inkscape:locked="false" inkscape:label="" inkscape:color="rgb(189,79,255)"/>
    <sodipodi:guide position="48,-64" orientation="0,1" id="guide4584" inkscape:locked="false" inkscape:label="" inkscape:color="rgb(189,79,255)"/>
    <sodipodi:guide position="0,0" orientation="-0.70710678,0.70710678" id="guide4588" inkscape:locked="false" inkscape:label="" inkscape:color="rgb(189,79,255)"/>
    <sodipodi:guide position="-56,80" orientation="-0.70710678,0.70710678" id="guide4573" inkscape:locked="false" inkscape:label="" inkscape:color="rgb(189,79,255)"/>
    <sodipodi:guide position="-32,48" orientation="-0.70710678,0.70710678" id="guide4575" inkscape:locked="false" inkscape:label="" inkscape:color="rgb(189,79,255)"/>
    <sodipodi:guide position="48,-64" orientation="-0.70710678,0.70710678" id="guide4577" inkscape:locked="false" inkscape:label="" inkscape:color="rgb(189,79,255)"/>
    <sodipodi:guide position="47.999962,0" orientation="0.70710678,0.70710678" id="guide4697" inkscape:locked="false" inkscape:label="" inkscape:color="rgb(189,79,255)"/>
    <sodipodi:guide position="207.99995,-288" orientation="0,1" id="guide7833" inkscape:locked="false"/>
    <sodipodi:guide position="335.99994,-288" orientation="1,0" id="guide7835" inkscape:locked="false" inkscape:label="" inkscape:color="rgb(189,79,255)"/>
    <sodipodi:guide position="111.99996,-64" orientation="1,0" id="guide7915" inkscape:locked="false"/>
    <sodipodi:guide position="111.99996,-160" orientation="0,1" id="guide7917" inkscape:locked="false"/>
    <sodipodi:guide position="207.99996,-160" orientation="1,0" id="guide7919" inkscape:locked="false"/>
    <sodipodi:guide position="111.99996,-160" orientation="-0.70710678,0.70710678" id="guide7921" inkscape:locked="false" inkscape:label="" inkscape:color="rgb(189,79,255)"/>
    <sodipodi:guide position="207.99996,-288" orientation="-0.70710678,0.70710678" id="guide7923" inkscape:locked="false" inkscape:label="" inkscape:color="rgb(189,79,255)"/>
    <sodipodi:guide position="-72,104" orientation="1,0" id="guide7824" inkscape:locked="false"/>
    <sodipodi:guide position="-56,120" orientation="0,1" id="guide7826" inkscape:locked="false"/>
    <sodipodi:guide position="-72,104" orientation="-0.70710678,0.70710678" id="guide7828" inkscape:locked="false" inkscape:label="" inkscape:color="rgb(189,79,255)"/>
  </sodipodi:namedview>
  <g style="display:inline" inkscape:label="icon_96" id="g8840" inkscape:groupmode="layer" transform="translate(-111.99996,-112)">
    <g style="display:none" inkscape:label="frame" id="g8776" inkscape:groupmode="layer">
      <rect style="color:#000000;clip-rule:nonzero;display:inline;overflow:visible;visibility:visible;opacity:1;isolation:auto;mix-blend-mode:normal;color-interpolation:sRGB;color-interpolation-filters:linearRGB;solid-color:#000000;solid-opacity:1;vector-effect:none;fill:#000000;fill-opacity:1;fill-rule:nonzero;stroke:#ff24f7;stroke-width:0;stroke-linecap:square;stroke-linejoin:miter;stroke-miterlimit:4;stroke-dasharray:none;stroke-dashoffset:0;stroke-opacity:0.99481865;marker:none;marker-start:none;marker-mid:none;marker-end:none;paint-order:normal;color-rendering:auto;image-rendering:auto;shape-rendering:auto;text-rendering:auto;enable-background:accumulate" id="rect_96" width="96" height="96" x="111.99996" y="112" inkscape:label="frame_96"/>
      <text inkscape:label="txt_96" id="text_96" y="168.73633" x="144.72458" style="font-size:24px;line-height:0%;font-family:sans-serif;letter-spacing:0px;word-spacing:0px;display:inline;opacity:1;fill:#ffffff;fill-opacity:1;stroke:none;stroke-width:0.04917826px;stroke-linecap:butt;stroke-linejoin:miter;stroke-opacity:1" xml:space="preserve">
        <tspan id="tspan8768" style="font-size:24px;line-height:0%;fill:#ffffff;fill-opacity:1;stroke:none;stroke-width:0.04917826px" y="168.73633" x="144.72458" sodipodi:role="line">96</tspan>
      </text>
    </g>
    <g style="display:inline" inkscape:label="icon" id="g8838" inkscape:groupmode="layer">
      <rect inkscape:label="sombra" style="color:#000000;clip-rule:nonzero;display:block;overflow:visible;visibility:visible;opacity:1;isolation:auto;mix-blend-mode:normal;color-interpolation:sRGB;color-interpolation-filters:linearRGB;solid-color:#000000;solid-opacity:1;vector-effect:none;fill:#000000;fill-opacity:0.07843137;fill-rule:nonzero;stroke:none;stroke-width:1.03725529px;stroke-linecap:butt;stroke-linejoin:miter;stroke-miterlimit:4;stroke-dasharray:none;stroke-dashoffset:0;stroke-opacity:1;marker:none;marker-start:none;marker-mid:none;marker-end:none;paint-order:fill markers stroke;color-rendering:auto;image-rendering:auto;shape-rendering:auto;text-rendering:auto;enable-background:accumulate" id="rect7759" width="83" height="84" x="118" y="118"/>
      <rect y="119" x="118.99996" height="82" width="82.000038" id="rect29472" style="color:#000000;clip-rule:nonzero;display:block;overflow:visible;visibility:visible;opacity:1;isolation:auto;mix-blend-mode:normal;color-interpolation:sRGB;color-interpolation-filters:linearRGB;solid-color:#000000;solid-opacity:1;vector-effect:none;fill:#000000;fill-opacity:0.07843137;fill-rule:nonzero;stroke:none;stroke-width:1.0250001px;stroke-linecap:butt;stroke-linejoin:miter;stroke-miterlimit:4;stroke-dasharray:none;stroke-dashoffset:0;stroke-opacity:1;marker:none;marker-start:none;marker-mid:none;marker-end:none;paint-order:fill markers stroke;color-rendering:auto;image-rendering:auto;shape-rendering:auto;text-rendering:auto;enable-background:accumulate" inkscape:label="sombra"/>
      <rect style="color:#000000;clip-rule:nonzero;display:inline;overflow:visible;visibility:visible;opacity:1;isolation:auto;mix-blend-mode:normal;color-interpolation:sRGB;color-interpolation-filters:linearRGB;solid-color:#000000;solid-opacity:1;vector-effect:none;fill:url(#linearGradient7750);fill-opacity:1;fill-rule:nonzero;stroke:none;stroke-width:1px;stroke-linecap:butt;stroke-linejoin:miter;stroke-miterlimit:4;stroke-dasharray:none;stroke-dashoffset:0;stroke-opacity:1;marker:none;marker-start:none;marker-mid:none;marker-end:none;paint-order:fill markers stroke;color-rendering:auto;image-rendering:auto;shape-rendering:auto;text-rendering:auto;enable-background:accumulate" id="rect7742" width="80.000038" height="80" x="119.99996" y="120" inkscape:label="base"/>
      <rect y="-199.99998" x="119.99998" height="80" width="80.000038" id="rect7736" style="color:#000000;clip-rule:nonzero;display:block;overflow:visible;visibility:visible;opacity:1;isolation:auto;mix-blend-mode:normal;color-interpolation:sRGB;color-interpolation-filters:linearRGB;solid-color:#000000;solid-opacity:1;vector-effect:none;fill:url(#linearGradient7738);fill-opacity:1;fill-rule:nonzero;stroke:none;stroke-width:1px;stroke-linecap:butt;stroke-linejoin:miter;stroke-miterlimit:4;stroke-dasharray:none;stroke-dashoffset:0;stroke-opacity:1;marker:none;marker-start:none;marker-mid:none;marker-end:none;paint-order:fill markers stroke;color-rendering:auto;image-rendering:auto;shape-rendering:auto;text-rendering:auto;enable-background:accumulate" inkscape:label="brillo" transform="rotate(90)"/>
      <path sodipodi:nodetypes="cccccccccc" inkscape:connector-curvature="0" id="path29510" d="m 146,170 v 7 c 5.37611,0.44814 12.1625,-1.61049 16,-13 h 8 v -7 h -5 c 2.34983,-2.90041 5.64033,-5.29616 9,-6 v -7 c -12.21573,1.21841 -13.78032,8.15599 -17,14 -4.42073,8.19855 -7.05452,9.80061 -11,12 z" style="fill:#000000;fill-opacity:0.15104167;fill-rule:evenodd;stroke:none;stroke-width:1px;stroke-linecap:butt;stroke-linejoin:miter;stroke-opacity:1"/>
      <path style="fill:#fefefe;fill-opacity:1;fill-rule:evenodd;stroke:none;stroke-width:1px;stroke-linecap:butt;stroke-linejoin:miter;stroke-opacity:1" d="m 146,169 v 7 c 5.37611,0.44814 12.1625,-1.61049 16,-13 h 8 v -7 h -5 c 2.34983,-2.90041 5.64033,-5.29616 9,-6 v -7 c -12.21573,1.21841 -13.78032,8.15599 -17,14 -4.42073,8.19855 -7.05452,9.80061 -11,12 z" id="path7736" inkscape:connector-curvature="0" sodipodi:nodetypes="cccccccccc"/>
      <path style="font-style:normal;font-variant:normal;font-weight:bold;font-stretch:normal;font-size:medium;line-height:1000%;font-family:sans-serif;-inkscape-font-specification:'sans-serif Bold';letter-spacing:0px;word-spacing:0px;fill:#ffffff;fill-opacity:1;stroke:none;stroke-width:0.19783358px;stroke-linecap:butt;stroke-linejoin:miter;stroke-opacity:1" d="m 160,174 v 0.44957 h 0.76582 v 1.85813 h 0.59657 v -1.85813 h 0.7641 V 174 Z m 2.43247,0 v 2.3077 h 0.56411 v -1.68719 l 0.53162,1.24445 h 0.37778 l 0.53163,-1.24445 v 1.68719 H 165 V 174 h -0.75555 l -0.52822,1.2359 L 163.18974,174 Z" id="path29502" inkscape:connector-curvature="0"/>
      <path style="color:#000000;font-style:normal;font-variant:normal;font-weight:normal;font-stretch:normal;font-size:medium;line-height:normal;font-family:sans-serif;font-variant-ligatures:normal;font-variant-position:normal;font-variant-caps:normal;font-variant-numeric:normal;font-variant-alternates:normal;font-feature-settings:normal;text-indent:0;text-align:start;text-decoration:none;text-decoration-line:none;text-decoration-style:solid;text-decoration-color:#000000;letter-spacing:normal;word-spacing:normal;text-transform:none;writing-mode:lr-tb;direction:ltr;text-orientation:mixed;dominant-baseline:auto;baseline-shift:baseline;text-anchor:start;white-space:normal;shape-padding:0;clip-rule:nonzero;display:inline;overflow:visible;visibility:visible;opacity:1;isolation:auto;mix-blend-mode:normal;color-interpolation:sRGB;color-interpolation-filters:linearRGB;solid-color:#000000;solid-opacity:1;vector-effect:none;fill:url(#linearGradient7771);fill-opacity:1;fill-rule:nonzero;stroke:none;stroke-width:1px;stroke-linecap:butt;stroke-linejoin:miter;stroke-miterlimit:4;stroke-dasharray:none;stroke-dashoffset:0;stroke-opacity:1;marker:none;paint-order:fill markers stroke;color-rendering:auto;image-rendering:auto;shape-rendering:auto;text-rendering:auto;enable-background:accumulate" d="M 199.99996,120 H 120 v 79.99996 l 80,8e-5 z M 199,121 l -4e-5,78 h -78 L 121,121 Z" id="rect7761" inkscape:connector-curvature="0" sodipodi:nodetypes="cccccccccc"/>
      <path id="path29517" d="m 196.64863,193.47149 c 0,-2.29981 -1.87591,-4.17581 -4.17566,-4.17581 -2.29974,0 -4.17564,1.876 -4.17564,4.17581 0,2.29987 1.8759,4.17584 4.17564,4.17584 2.29975,0 4.17566,-1.87597 4.17566,-4.17584 z M 205,191.69362 v 3.6215 c 0,0.24419 -0.19524,0.53867 -0.45721,0.58671 l -3.01799,0.45726 c -0.17956,0.52195 -0.37476,1.01156 -0.63575,1.48448 0.5543,0.79965 1.14206,1.51689 1.74542,2.25078 0.0981,0.11353 0.16275,0.26095 0.16275,0.40816 0,0.14732 -0.0492,0.26097 -0.14714,0.37481 -0.39149,0.52195 -2.59308,2.91991 -3.14846,2.91991 -0.14713,0 -0.29339,-0.066 -0.42382,-0.14715 l -2.25071,-1.76112 c -0.47288,0.24417 -0.97921,0.45725 -1.48446,0.62009 -0.11352,0.9949 -0.21174,2.05557 -0.47288,3.03371 -0.066,0.26095 -0.29333,0.45724 -0.58666,0.45724 h -3.62141 c -0.29331,0 -0.5543,-0.21201 -0.58663,-0.48959 l -0.45724,-3.00136 c -0.50529,-0.16276 -0.99485,-0.35914 -1.46777,-0.6034 l -2.29975,1.74548 c -0.11353,0.0981 -0.26096,0.14715 -0.40816,0.14715 -0.14714,0 -0.29335,-0.0661 -0.40817,-0.17957 -0.86438,-0.78297 -2.00642,-1.7946 -2.69126,-2.7404 -0.0815,-0.11353 -0.11353,-0.2442 -0.11353,-0.37475 0,-0.14714 0.0492,-0.26098 0.13033,-0.37481 0.55432,-0.75056 1.15771,-1.46778 1.71309,-2.2351 -0.27768,-0.52194 -0.50529,-1.06065 -0.66914,-1.61497 l -2.98456,-0.44056 c -0.27773,-0.0492 -0.4729,-0.31005 -0.4729,-0.58669 v -3.62148 c 0,-0.2442 0.19523,-0.53868 0.44052,-0.58673 l 3.0336,-0.45721 c 0.16274,-0.52199 0.3748,-1.01164 0.63577,-1.50018 -0.55432,-0.78297 -1.14206,-1.51686 -1.74542,-2.25075 -0.0981,-0.11352 -0.16275,-0.24418 -0.16275,-0.3915 0,-0.14714 0.066,-0.26098 0.14714,-0.37478 0.39146,-0.53867 2.59308,-2.91992 3.14844,-2.91992 0.14714,0 0.29335,0.0661 0.42384,0.16276 l 2.25069,1.74549 c 0.47291,-0.24419 0.9792,-0.45722 1.48449,-0.62009 0.11353,-0.99492 0.21199,-2.05554 0.47288,-3.03376 0.066,-0.26097 0.29331,-0.45726 0.58668,-0.45726 h 3.62136 c 0.29335,0 0.55433,0.21174 0.5867,0.48965 l 0.4572,3.00137 c 0.50529,0.16275 0.99487,0.35908 1.46777,0.60337 l 2.31645,-1.74546 c 0.0983,-0.0981 0.24418,-0.14715 0.39146,-0.14715 0.14714,0 0.29335,0.066 0.40822,0.16275 0.86434,0.79967 2.00636,1.81023 2.69119,2.77274 0.0815,0.0981 0.11353,0.2288 0.11353,0.35913 0,0.14715 -0.0492,0.26097 -0.13034,0.37479 -0.55429,0.75062 -1.15765,1.46778 -1.71303,2.23508 0.27766,0.52195 0.50522,1.06069 0.66913,1.5983 l 2.98458,0.45723 c 0.27767,0.0492 0.47286,0.31008 0.47286,0.58673 z" inkscape:connector-curvature="0" style="display:inline;fill:#000000;fill-opacity:0.27083333;stroke:none;stroke-width:1.04393601" inkscape:label="rueda"/>
      <path style="display:inline;fill:#fbfbfb;fill-opacity:1;stroke:none;stroke-width:1.04393601" inkscape:connector-curvature="0" d="m 195.70264,192.52545 c 0,-2.29981 -1.87592,-4.1758 -4.17568,-4.1758 -2.29972,0 -4.17564,1.87599 -4.17564,4.1758 0,2.29987 1.87592,4.17585 4.17564,4.17585 2.29976,0 4.17568,-1.87598 4.17568,-4.17585 z m 8.35137,-1.77785 v 3.6215 c 0,0.24419 -0.19525,0.53867 -0.45722,0.58671 l -3.01798,0.45725 c -0.17958,0.52196 -0.37477,1.01157 -0.63576,1.48447 0.55429,0.79967 1.14205,1.51689 1.74543,2.25079 0.0981,0.11352 0.16274,0.26094 0.16274,0.40816 0,0.14731 -0.0492,0.26098 -0.14714,0.3748 -0.39148,0.52196 -2.59307,2.91993 -3.14845,2.91993 -0.14714,0 -0.29339,-0.066 -0.42382,-0.14715 l -2.25072,-1.76114 c -0.47289,0.24419 -0.9792,0.45726 -1.48445,0.6201 -0.11353,0.9949 -0.21174,2.05557 -0.47288,3.0337 -0.066,0.26097 -0.29334,0.45726 -0.58667,0.45726 h -3.62141 c -0.29331,0 -0.55429,-0.21202 -0.58664,-0.4896 l -0.45722,-3.00136 c -0.50529,-0.16275 -0.99485,-0.35914 -1.46777,-0.6034 l -2.29976,1.74549 c -0.11353,0.0981 -0.26095,0.14715 -0.40815,0.14715 -0.14714,0 -0.29336,-0.066 -0.40818,-0.17959 -0.86438,-0.78296 -2.00643,-1.79458 -2.69126,-2.74039 -0.0815,-0.11352 -0.11353,-0.24419 -0.11353,-0.37475 0,-0.14715 0.0492,-0.26097 0.13033,-0.3748 0.55431,-0.75057 1.15771,-1.46779 1.71309,-2.23511 -0.27768,-0.52194 -0.50529,-1.06065 -0.66915,-1.61497 l -2.98454,-0.44056 C 179.19517,194.84289 179,194.58204 179,194.3054 v -3.62148 c 0,-0.2442 0.19523,-0.53867 0.44051,-0.58673 l 3.03361,-0.45721 c 0.16274,-0.52198 0.37479,-1.01163 0.63576,-1.50017 -0.55433,-0.78297 -1.14207,-1.51686 -1.74542,-2.25076 -0.0981,-0.11352 -0.16275,-0.2442 -0.16275,-0.3915 0,-0.14715 0.066,-0.26097 0.14714,-0.37478 0.39147,-0.53867 2.59308,-2.91992 3.14845,-2.91992 0.14714,0 0.29335,0.0661 0.42384,0.16276 l 2.25068,1.74549 c 0.4729,-0.24419 0.97921,-0.45722 1.48449,-0.6201 0.11353,-0.99491 0.212,-2.05552 0.47289,-3.03375 0.066,-0.26097 0.2933,-0.45725 0.58667,-0.45725 h 3.62137 c 0.29335,0 0.55432,0.21173 0.58668,0.48965 l 0.45722,3.00135 c 0.50528,0.16276 0.99487,0.3591 1.46777,0.60339 l 2.31644,-1.74547 c 0.0983,-0.0981 0.24418,-0.14715 0.39147,-0.14715 0.14714,0 0.29335,0.0661 0.40821,0.16275 0.86434,0.79968 2.00635,1.81024 2.69119,2.77274 0.0815,0.0981 0.11353,0.2288 0.11353,0.35913 0,0.14714 -0.0492,0.26098 -0.13034,0.37479 -0.5543,0.75062 -1.15765,1.46778 -1.71303,2.23508 0.27766,0.52195 0.50522,1.06069 0.66913,1.59829 l 2.98457,0.45725 c 0.27769,0.0492 0.47287,0.31007 0.47287,0.58672 z" id="path29458" inkscape:label="rueda"/>
    </g>
  </g>
</svg>