<?xml version="1.0" encoding="UTF-8" standalone="yes"?>
<svg xmlns:dc="http://purl.org/dc/elements/1.1/" xmlns:cc="http://creativecommons.org/ns#" xmlns:rdf="http://www.w3.org/1999/02/22-rdf-syntax-ns#" xmlns:svg="http://www.w3.org/2000/svg" xmlns="http://www.w3.org/2000/svg" xmlns:xlink="http://www.w3.org/1999/xlink" xmlns:sodipodi="http://sodipodi.sourceforge.net/DTD/sodipodi-0.dtd" xmlns:inkscape="http://www.inkscape.org/namespaces/inkscape" height="96" viewBox="0 0 96 96" width="96" id="svg2" version="1.1" inkscape:version="0.92.2 5c3e80d, 2017-08-06" sodipodi:docname="preferences-desktop.svg" enable-background="new" folder="96">
  <title id="title4675">Template icons dark</title>
  <metadata id="metadata24">
    <rdf:RDF>
      <cc:Work rdf:about="">
        <dc:format>image/svg+xml</dc:format>
        <dc:type rdf:resource="http://purl.org/dc/dcmitype/StillImage"/>
        <dc:title>Template icons dark</dc:title>
        <dc:date>17/05/13</dc:date>
        <dc:creator>
          <cc:Agent>
            <dc:title>wfpaisa</dc:title>
          </cc:Agent>
        </dc:creator>
        <dc:rights>
          <cc:Agent>
            <dc:title>License: GPLv3</dc:title>
          </cc:Agent>
        </dc:rights>
        <dc:language>es-en</dc:language>
        <dc:subject>
          <rdf:Bag>
            <rdf:li>plane-icon-theme</rdf:li>
          </rdf:Bag>
        </dc:subject>
        <dc:description>Template for create set icons</dc:description>
        <cc:license rdf:resource="https://www.gnu.org/licenses/gpl-3.0.en.html"/>
      </cc:Work>
    </rdf:RDF>
  </metadata>
  <defs id="defs22">
    <linearGradient inkscape:collect="always" id="linearGradient1388">
      <stop style="stop-color:#cfdde2;stop-opacity:1" offset="0" id="stop1384"/>
      <stop style="stop-color:#90a1b1;stop-opacity:1" offset="1" id="stop1386"/>
    </linearGradient>
    <linearGradient inkscape:collect="always" id="linearGradient1374">
      <stop style="stop-color:#ffffff;stop-opacity:0" offset="0" id="stop1370"/>
      <stop id="stop1378" offset="0.48049781" style="stop-color:#ffffff;stop-opacity:1"/>
      <stop style="stop-color:#f5f6f6;stop-opacity:0" offset="1" id="stop1372"/>
    </linearGradient>
    <linearGradient inkscape:collect="always" id="linearGradient1319">
      <stop style="stop-color:#eaf2f7;stop-opacity:1" offset="0" id="stop1315"/>
      <stop style="stop-color:#99b4c0;stop-opacity:1" offset="1" id="stop1317"/>
    </linearGradient>
    <linearGradient id="linearGradient1199" inkscape:collect="always">
      <stop id="stop1195" offset="0" style="stop-color:#c1dae3;stop-opacity:1"/>
      <stop id="stop1197" offset="1" style="stop-color:#8a98b4;stop-opacity:1"/>
    </linearGradient>
    <linearGradient inkscape:collect="always" id="linearGradient7891">
      <stop style="stop-color:#d2d2d2;stop-opacity:1" offset="0" id="stop7887"/>
      <stop style="stop-color:#939393;stop-opacity:1" offset="1" id="stop7889"/>
    </linearGradient>
    <linearGradient inkscape:collect="always" id="linearGradient7758">
      <stop style="stop-color:#671e1e;stop-opacity:1" offset="0" id="stop7754"/>
      <stop style="stop-color:#d04044;stop-opacity:1" offset="1" id="stop7756"/>
    </linearGradient>
    <linearGradient inkscape:collect="always" xlink:href="#linearGradient5419" id="linearGradient5425" x1="10.429825" y1="43.068272" x2="38.890873" y2="13.193013" gradientUnits="userSpaceOnUse" gradientTransform="matrix(0.9649266,0,0,0.9649266,-2.12316,-5.210928)"/>
    <linearGradient id="linearGradient5419">
      <stop style="stop-color:#0c708e;stop-opacity:1;" offset="0" id="stop5421"/>
      <stop style="stop-color:#4dc3a3;stop-opacity:1;" offset="1" id="stop5423"/>
    </linearGradient>
    <linearGradient inkscape:collect="always" xlink:href="#linearGradient1388" id="linearGradient7893" x1="161.70172" y1="118.89846" x2="161.70172" y2="197.93216" gradientUnits="userSpaceOnUse"/>
    <linearGradient inkscape:collect="always" xlink:href="#linearGradient7758" id="linearGradient7760-3" x1="162.58794" y1="185.95032" x2="162.58794" y2="134.43561" gradientUnits="userSpaceOnUse" gradientTransform="matrix(0.93996715,0,0,0.93996715,-124.0425,-124.16093)"/>
    <linearGradient inkscape:collect="always" xlink:href="#linearGradient7758" id="linearGradient1166" gradientUnits="userSpaceOnUse" gradientTransform="matrix(0.93996715,0,0,0.93996715,9.6851028,9.9555173)" x1="162.58794" y1="185.95032" x2="162.58794" y2="134.43561"/>
    <linearGradient gradientTransform="translate(-115,-115.12599)" inkscape:collect="always" xlink:href="#linearGradient7891" id="linearGradient7893-5" x1="161.70172" y1="118.89846" x2="161.70172" y2="197.93216" gradientUnits="userSpaceOnUse"/>
    <linearGradient inkscape:collect="always" xlink:href="#linearGradient1319" id="linearGradient1321" x1="168.35246" y1="125.66496" x2="168.35246" y2="190.8166" gradientUnits="userSpaceOnUse"/>
    <linearGradient inkscape:collect="always" xlink:href="#linearGradient5419" id="linearGradient5425-62" x1="10.429825" y1="43.068272" x2="38.890873" y2="13.193013" gradientUnits="userSpaceOnUse" gradientTransform="matrix(0.9649266,0,0,0.9649266,-135.77092,-138.98468)"/>
    <linearGradient inkscape:collect="always" xlink:href="#linearGradient1199" id="linearGradient1348" gradientUnits="userSpaceOnUse" x1="161.70172" y1="118.89846" x2="161.70172" y2="197.93216"/>
    <linearGradient inkscape:collect="always" xlink:href="#linearGradient1374" id="linearGradient1376" x1="146.80354" y1="139.47923" x2="174.4657" y2="139.47923" gradientUnits="userSpaceOnUse" gradientTransform="matrix(0.43047969,0,0,0.70272293,90.79219,41.511806)"/>
    <linearGradient inkscape:collect="always" xlink:href="#linearGradient1374" id="linearGradient1376-7" x1="146.80354" y1="139.47923" x2="174.4657" y2="139.47923" gradientUnits="userSpaceOnUse" gradientTransform="matrix(0.29664256,0,0,0.48424473,32.30908,-1.6499335)"/>
    <linearGradient inkscape:collect="always" xlink:href="#linearGradient5419" id="linearGradient5425-9" x1="10.429825" y1="43.068272" x2="38.890873" y2="13.193013" gradientUnits="userSpaceOnUse" gradientTransform="matrix(0.66492867,0,0,0.66492867,-31.718672,-33.846462)"/>
    <linearGradient gradientTransform="matrix(0.68909768,0,0,0.68909768,-30.255607,-30.255622)" inkscape:collect="always" xlink:href="#linearGradient1319" id="linearGradient1321-8" x1="168.35246" y1="125.66496" x2="168.35246" y2="190.8166" gradientUnits="userSpaceOnUse"/>
    <linearGradient gradientTransform="matrix(0.68909768,0,0,0.68909768,-30.255607,-30.255622)" inkscape:collect="always" xlink:href="#linearGradient1388" id="linearGradient7893-361" x1="161.70172" y1="118.89846" x2="161.70172" y2="197.93216" gradientUnits="userSpaceOnUse"/>
    <linearGradient inkscape:collect="always" xlink:href="#linearGradient1388" id="linearGradient1506" gradientUnits="userSpaceOnUse" x1="161.70172" y1="118.89846" x2="161.70172" y2="197.93216"/>
    <linearGradient inkscape:collect="always" xlink:href="#linearGradient7758" id="linearGradient1508" gradientUnits="userSpaceOnUse" gradientTransform="matrix(0.93996715,0,0,0.93996715,9.6851028,9.9555173)" x1="162.58794" y1="185.95032" x2="162.58794" y2="134.43561"/>
    <linearGradient inkscape:collect="always" xlink:href="#linearGradient1388" id="linearGradient1523" gradientUnits="userSpaceOnUse" x1="161.70172" y1="118.89846" x2="161.70172" y2="197.93216"/>
    <linearGradient inkscape:collect="always" xlink:href="#linearGradient1374" id="linearGradient1376-3" x1="146.80354" y1="139.47923" x2="174.4657" y2="139.47923" gradientUnits="userSpaceOnUse" gradientTransform="matrix(0.55545785,0,0,0.90673956,182.4407,119.57893)"/>
    <linearGradient inkscape:collect="always" xlink:href="#linearGradient5419" id="linearGradient5425-7" x1="10.429825" y1="43.068272" x2="38.890873" y2="13.193013" gradientUnits="userSpaceOnUse" gradientTransform="matrix(1.245067,0,0,1.245067,62.54989,59.291519)"/>
    <linearGradient gradientTransform="matrix(1.290323,0,0,1.290323,65.289452,66.015302)" inkscape:collect="always" xlink:href="#linearGradient1319" id="linearGradient1321-6" x1="168.35246" y1="125.66496" x2="168.35246" y2="190.8166" gradientUnits="userSpaceOnUse"/>
    <linearGradient gradientTransform="matrix(1.290323,0,0,1.290323,65.289452,66.015302)" inkscape:collect="always" xlink:href="#linearGradient1388" id="linearGradient1523-7" gradientUnits="userSpaceOnUse" x1="161.70172" y1="118.89846" x2="161.70172" y2="197.93216"/>
    <linearGradient inkscape:collect="always" xlink:href="#linearGradient1374" id="linearGradient1376-1" x1="146.80354" y1="139.47923" x2="174.4657" y2="139.47923" gradientUnits="userSpaceOnUse" gradientTransform="matrix(0.22218314,0,0,0.36269582,-11.720143,-37.155215)"/>
    <linearGradient inkscape:collect="always" xlink:href="#linearGradient5419" id="linearGradient5425-2" x1="10.429825" y1="43.068272" x2="38.890873" y2="13.193013" gradientUnits="userSpaceOnUse" gradientTransform="matrix(0.49802679,0,0,0.49802679,-59.67647,-61.270184)"/>
    <linearGradient gradientTransform="matrix(0.5161292,0,0,0.5161292,-58.580645,-58.580671)" inkscape:collect="always" xlink:href="#linearGradient1319" id="linearGradient1321-4" x1="168.35246" y1="125.66496" x2="168.35246" y2="190.8166" gradientUnits="userSpaceOnUse"/>
    <linearGradient gradientTransform="matrix(0.5161292,0,0,0.5161292,-58.580645,-58.580671)" inkscape:collect="always" xlink:href="#linearGradient1388" id="linearGradient1523-0" gradientUnits="userSpaceOnUse" x1="161.70172" y1="118.89846" x2="161.70172" y2="197.93216"/>
    <linearGradient inkscape:collect="always" xlink:href="#linearGradient1374" id="linearGradient1376-9" x1="146.80354" y1="139.47923" x2="174.4657" y2="139.47923" gradientUnits="userSpaceOnUse" gradientTransform="matrix(0.14812209,0,0,0.24179721,-39.813426,-56.770143)"/>
    <linearGradient inkscape:collect="always" xlink:href="#linearGradient5419" id="linearGradient5425-6" x1="10.429825" y1="43.068272" x2="38.890873" y2="13.193013" gradientUnits="userSpaceOnUse" gradientTransform="matrix(0.33201786,0,0,0.33201786,-71.78431,-72.846786)"/>
    <linearGradient gradientTransform="matrix(0.34408613,0,0,0.34408613,-71.05376,-71.053778)" inkscape:collect="always" xlink:href="#linearGradient1319" id="linearGradient1321-65" x1="168.35246" y1="125.66496" x2="168.35246" y2="190.8166" gradientUnits="userSpaceOnUse"/>
    <linearGradient gradientTransform="matrix(0.34408613,0,0,0.34408613,-71.05376,-71.053778)" inkscape:collect="always" xlink:href="#linearGradient1388" id="linearGradient1523-9" gradientUnits="userSpaceOnUse" x1="161.70172" y1="118.89846" x2="161.70172" y2="197.93216"/>
    <linearGradient inkscape:collect="always" xlink:href="#linearGradient5419" id="linearGradient5425-0" x1="10.429825" y1="43.068272" x2="38.890873" y2="13.193013" gradientUnits="userSpaceOnUse" gradientTransform="matrix(0.2490134,0,0,0.2490134,-85.838233,-86.635097)"/>
    <linearGradient gradientTransform="matrix(0.2580646,0,0,0.2580646,-85.290321,-85.290341)" inkscape:collect="always" xlink:href="#linearGradient1319" id="linearGradient1321-44" x1="168.35246" y1="125.66496" x2="168.35246" y2="190.8166" gradientUnits="userSpaceOnUse"/>
    <linearGradient gradientTransform="matrix(0.2580646,0,0,0.2580646,-85.290321,-85.290341)" inkscape:collect="always" xlink:href="#linearGradient1388" id="linearGradient1523-3" gradientUnits="userSpaceOnUse" x1="161.70172" y1="118.89846" x2="161.70172" y2="197.93216"/>
    <linearGradient inkscape:collect="always" xlink:href="#linearGradient5419" id="linearGradient5425-3" x1="10.429825" y1="43.068272" x2="38.890873" y2="13.193013" gradientUnits="userSpaceOnUse" gradientTransform="matrix(0.16600893,0,0,0.16600893,-91.892129,-92.42343)"/>
    <linearGradient gradientTransform="matrix(0.17204307,0,0,0.17204307,-91.526854,-91.526926)" inkscape:collect="always" xlink:href="#linearGradient1388" id="linearGradient1523-8" gradientUnits="userSpaceOnUse" x1="161.70172" y1="118.89846" x2="161.70172" y2="197.93216"/>
  </defs>
  <sodipodi:namedview pagecolor="#383c4a" bordercolor="#ffffff" borderopacity="0.62745098" objecttolerance="4" gridtolerance="10" guidetolerance="4" inkscape:pageopacity="0" inkscape:pageshadow="2" inkscape:window-width="640" inkscape:window-height="480" id="namedview20" showgrid="true" inkscape:zoom="2.0853184" inkscape:cx="213.96524" inkscape:cy="-120.9237" inkscape:current-layer="layer6" inkscape:snap-smooth-nodes="false" showguides="true" borderlayer="true" inkscape:showpageshadow="false" inkscape:guide-bbox="true" guidecolor="#bd4fff" guideopacity="0.78431373" inkscape:snap-nodes="true" inkscape:lockguides="false" fit-margin-top="0" fit-margin-left="0" fit-margin-right="0" fit-margin-bottom="0" guidehicolor="#ff0101" guidehiopacity="0.78431373" inkscape:snap-page="true" inkscape:object-nodes="true" inkscape:snap-bbox="true" inkscape:snap-global="true" inkscape:snap-object-midpoints="false" inkscape:snap-bbox-edge-midpoints="false">
    <inkscape:grid type="xygrid" id="grid4171" empspacing="4" dotted="false" originx="2.7755576e-17" originy="0" spacingx="1" spacingy="1" color="#5a5a5a" opacity="0.23529412" empcolor="#5a5a5a" empopacity="0.47058824" visible="true"/>
    <inkscape:grid type="axonomgrid" id="grid4699" units="mm" empspacing="4" color="#5a5a5a" opacity="0.23529412" empcolor="#5a5a5a" empopacity="0.47058824" gridanglex="45" gridanglez="45" spacingy="3.7795276" visible="false" originx="1.3228346" originy="1.3228346"/>
    <sodipodi:guide position="48,0" orientation="1,0" id="guide4568" inkscape:locked="false" inkscape:label="" inkscape:color="rgb(189,79,255)"/>
    <sodipodi:guide position="111.99996,-3.9999999e-05" orientation="0,1" id="guide4570" inkscape:locked="false" inkscape:label="" inkscape:color="rgb(189,79,255)"/>
    <sodipodi:guide position="0,0" orientation="1,0" id="guide4572" inkscape:locked="false" inkscape:label="" inkscape:color="rgb(189,79,255)"/>
    <sodipodi:guide position="0,48" orientation="0,1" id="guide4574" inkscape:locked="false" inkscape:label="" inkscape:color="rgb(189,79,255)"/>
    <sodipodi:guide position="0,80" orientation="0,1" id="guide4576" inkscape:locked="false" inkscape:label="" inkscape:color="rgb(189,79,255)"/>
    <sodipodi:guide position="-32,48" orientation="1,0" id="guide4578" inkscape:locked="false" inkscape:label="" inkscape:color="rgb(189,79,255)"/>
    <sodipodi:guide position="-32,104" orientation="0,1" id="guide4580" inkscape:locked="false" inkscape:label="" inkscape:color="rgb(189,79,255)"/>
    <sodipodi:guide position="-56,80" orientation="1,0" id="guide4582" inkscape:locked="false" inkscape:label="" inkscape:color="rgb(189,79,255)"/>
    <sodipodi:guide position="48,-64" orientation="0,1" id="guide4584" inkscape:locked="false" inkscape:label="" inkscape:color="rgb(189,79,255)"/>
    <sodipodi:guide position="0,0" orientation="-0.70710678,0.70710678" id="guide4588" inkscape:locked="false" inkscape:label="" inkscape:color="rgb(189,79,255)"/>
    <sodipodi:guide position="-56,80" orientation="-0.70710678,0.70710678" id="guide4573" inkscape:locked="false" inkscape:label="" inkscape:color="rgb(189,79,255)"/>
    <sodipodi:guide position="-32,48" orientation="-0.70710678,0.70710678" id="guide4575" inkscape:locked="false" inkscape:label="" inkscape:color="rgb(189,79,255)"/>
    <sodipodi:guide position="48,-64" orientation="-0.70710678,0.70710678" id="guide4577" inkscape:locked="false" inkscape:label="" inkscape:color="rgb(189,79,255)"/>
    <sodipodi:guide position="47.999962,0" orientation="0.70710678,0.70710678" id="guide4697" inkscape:locked="false" inkscape:label="" inkscape:color="rgb(189,79,255)"/>
    <sodipodi:guide position="207.99995,-288" orientation="0,1" id="guide7833" inkscape:locked="false"/>
    <sodipodi:guide position="335.99994,-288" orientation="1,0" id="guide7835" inkscape:locked="false" inkscape:label="" inkscape:color="rgb(189,79,255)"/>
    <sodipodi:guide position="111.99996,-64" orientation="1,0" id="guide7915" inkscape:locked="false"/>
    <sodipodi:guide position="111.99996,-160" orientation="0,1" id="guide7917" inkscape:locked="false"/>
    <sodipodi:guide position="207.99996,-160" orientation="1,0" id="guide7919" inkscape:locked="false"/>
    <sodipodi:guide position="111.99996,-160" orientation="-0.70710678,0.70710678" id="guide7921" inkscape:locked="false" inkscape:label="" inkscape:color="rgb(189,79,255)"/>
    <sodipodi:guide position="207.99996,-288" orientation="-0.70710678,0.70710678" id="guide7923" inkscape:locked="false" inkscape:label="" inkscape:color="rgb(189,79,255)"/>
    <sodipodi:guide position="-72,104" orientation="1,0" id="guide7824" inkscape:locked="false"/>
    <sodipodi:guide position="-56,120" orientation="0,1" id="guide7826" inkscape:locked="false"/>
    <sodipodi:guide position="-72,104" orientation="-0.70710678,0.70710678" id="guide7828" inkscape:locked="false" inkscape:label="" inkscape:color="rgb(189,79,255)"/>
  </sodipodi:namedview>
  <g style="display:inline" inkscape:label="icon_96" id="g8840" inkscape:groupmode="layer" transform="translate(-111.99996,-112)">
    <g style="display:none" inkscape:label="frame" id="g8776" inkscape:groupmode="layer">
      <rect style="color:#000000;clip-rule:nonzero;display:inline;overflow:visible;visibility:visible;opacity:1;isolation:auto;mix-blend-mode:normal;color-interpolation:sRGB;color-interpolation-filters:linearRGB;solid-color:#000000;solid-opacity:1;vector-effect:none;fill:#000000;fill-opacity:1;fill-rule:nonzero;stroke:#ff24f7;stroke-width:0;stroke-linecap:square;stroke-linejoin:miter;stroke-miterlimit:4;stroke-dasharray:none;stroke-dashoffset:0;stroke-opacity:0.99481865;marker:none;marker-start:none;marker-mid:none;marker-end:none;paint-order:normal;color-rendering:auto;image-rendering:auto;shape-rendering:auto;text-rendering:auto;enable-background:accumulate" id="rect_96" width="96" height="96" x="111.99996" y="112" inkscape:label="frame_96"/>
      <text inkscape:label="txt_96" id="text_96" y="168.73633" x="144.72458" style="font-size:24px;line-height:0%;font-family:sans-serif;letter-spacing:0px;word-spacing:0px;display:inline;opacity:1;fill:#ffffff;fill-opacity:1;stroke:none;stroke-width:0.04917826px;stroke-linecap:butt;stroke-linejoin:miter;stroke-opacity:1" xml:space="preserve">
        <tspan id="tspan8768" style="font-size:24px;line-height:0%;fill:#ffffff;fill-opacity:1;stroke:none;stroke-width:0.04917826px" y="168.73633" x="144.72458" sodipodi:role="line">96</tspan>
      </text>
    </g>
    <g style="display:inline" inkscape:label="icon" id="g8838" inkscape:groupmode="layer">
      <path inkscape:label="base sombra" sodipodi:nodetypes="cccccccccccssccccccccccsscccccsccccssccccccccccscccscsc" inkscape:connector-curvature="0" id="path1242" d="m 154.48156,115.00001 c -0.76382,0 -1.19042,0.60415 -1.3806,1.30344 l -2.93083,10.78229 c -2.00105,0.71395 -4.62973,1.71136 -6.4017,2.63871 l -9.70263,-5.58396 c -0.62804,-0.36154 -1.35726,-0.48608 -1.89735,0.054 l -7.89014,7.89005 c -0.54008,0.54005 -0.41399,1.26063 -0.0539,1.88959 l 5.45291,9.53286 c -1.17447,2.10611 -2.12573,4.32912 -2.8383,6.63288 l -10.5356,2.83826 c -0.69976,0.18838 -1.30346,0.61679 -1.30346,1.38056 v 11.16024 c 0,0.76376 0.60415,1.18266 1.30346,1.37285 l 10.30423,2.8074 c 0.69079,2.42858 1.64513,4.77432 2.846,6.99538 l -5.31409,9.23977 c -0.36156,0.62801 -0.48609,1.35723 0.054,1.89731 l 7.89013,7.89005 c 0.54007,0.54009 1.26067,0.41401 1.88962,0.0539 l 9.11647,-5.22145 c 2.26408,1.25926 4.66233,2.26045 7.14972,2.9848 l 2.73801,10.15762 c 0.18838,0.69976 0.61678,1.30342 1.38057,1.30342 h 11.16035 c 0.76379,0 1.18269,-0.60414 1.37287,-1.30342 l 2.76887,-10.16528 c 2.45491,-0.72589 4.82177,-1.72178 7.05716,-2.96938 l 9.21674,5.29858 c 0.62804,0.36157 1.35726,0.48609 1.89735,-0.054 l 7.89014,-7.89005 c 0.54008,-0.54006 0.41399,-1.26837 0.054,-1.89732 l -5.34496,-9.3246 c 1.16137,-2.17555 2.08702,-4.46893 2.76118,-6.84113 l 10.50474,-2.83824 c 0.69976,-0.18839 1.30344,-0.60908 1.30344,-1.37288 v -11.16021 c 0,-0.76379 -0.60415,-1.19038 -1.30344,-1.38057 l -10.68214,-2.89997 c -0.68646,-2.24099 -1.59868,-4.40649 -2.7226,-6.4632 l 5.5686,-9.67169 c 0.36155,-0.62802 0.48611,-1.35724 -0.0539,-1.89731 l -7.89013,-7.89005 c -0.54009,-0.5401 -1.26837,-0.41401 -1.89733,-0.0541 l -9.69492,5.55313 c -2.13743,-0.87751 -4.37444,-1.96079 -6.37068,-2.6072 l -2.93854,-10.86713 c -0.18839,-0.69976 -0.6091,-1.30345 -1.37289,-1.30345 h -11.16044 z m 5.52505,28.58373 c 9.09123,0 16.46109,7.36982 16.46109,16.46092 -1e-5,9.09109 -7.36988,16.4609 -16.46109,16.4609 -9.0912,0 -16.46107,-7.36981 -16.46107,-16.4609 0,-9.0911 7.36986,-16.46092 16.46107,-16.46092 z" style="color:#000000;clip-rule:nonzero;display:inline;overflow:visible;visibility:visible;opacity:1;isolation:auto;mix-blend-mode:normal;color-interpolation:sRGB;color-interpolation-filters:linearRGB;solid-color:#000000;solid-opacity:1;vector-effect:none;fill:none;fill-opacity:1;fill-rule:nonzero;stroke:#000000;stroke-width:3;stroke-linecap:butt;stroke-linejoin:miter;stroke-miterlimit:4;stroke-dasharray:none;stroke-dashoffset:0;stroke-opacity:0.16753929;marker:none;marker-start:none;marker-mid:none;marker-end:none;paint-order:fill markers stroke;color-rendering:auto;image-rendering:auto;shape-rendering:auto;text-rendering:auto;enable-background:accumulate"/>
      <path style="color:#000000;clip-rule:nonzero;display:inline;overflow:visible;visibility:visible;opacity:1;isolation:auto;mix-blend-mode:normal;color-interpolation:sRGB;color-interpolation-filters:linearRGB;solid-color:#000000;solid-opacity:1;vector-effect:none;fill:url(#linearGradient1523);fill-opacity:1;fill-rule:nonzero;stroke:none;stroke-width:1.87241459;stroke-linecap:butt;stroke-linejoin:miter;stroke-miterlimit:4;stroke-dasharray:none;stroke-dashoffset:0;stroke-opacity:0.14136125;marker:none;marker-start:none;marker-mid:none;marker-end:none;paint-order:fill markers stroke;color-rendering:auto;image-rendering:auto;shape-rendering:auto;text-rendering:auto;enable-background:accumulate" d="m 154.48156,115.00001 c -0.76382,0 -1.19042,0.60415 -1.3806,1.30344 l -2.93083,10.78229 c -2.00105,0.71395 -4.62973,1.71136 -6.4017,2.63871 l -9.70263,-5.58396 c -0.62804,-0.36154 -1.35726,-0.48608 -1.89735,0.054 l -7.89014,7.89005 c -0.54008,0.54005 -0.41399,1.26063 -0.0539,1.88959 l 5.45291,9.53286 c -1.17447,2.10611 -2.12573,4.32912 -2.8383,6.63288 l -10.5356,2.83826 c -0.69976,0.18838 -1.30346,0.61679 -1.30346,1.38056 v 11.16024 c 0,0.76376 0.60415,1.18266 1.30346,1.37285 l 10.30423,2.8074 c 0.69079,2.42858 1.64513,4.77432 2.846,6.99538 l -5.31409,9.23977 c -0.36156,0.62801 -0.48609,1.35723 0.054,1.89731 l 7.89013,7.89005 c 0.54007,0.54009 1.26067,0.41401 1.88962,0.0539 l 9.11647,-5.22145 c 2.26408,1.25926 4.66233,2.26045 7.14972,2.9848 l 2.73801,10.15762 c 0.18838,0.69976 0.61678,1.30342 1.38057,1.30342 h 11.16035 c 0.76379,0 1.18269,-0.60414 1.37287,-1.30342 l 2.76887,-10.16528 c 2.45491,-0.72589 4.82177,-1.72178 7.05716,-2.96938 l 9.21674,5.29858 c 0.62804,0.36157 1.35726,0.48609 1.89735,-0.054 l 7.89014,-7.89005 c 0.54008,-0.54006 0.41399,-1.26837 0.054,-1.89732 l -5.34496,-9.3246 c 1.16137,-2.17555 2.08702,-4.46893 2.76118,-6.84113 l 10.50474,-2.83824 c 0.69976,-0.18839 1.30344,-0.60908 1.30344,-1.37288 v -11.16021 c 0,-0.76379 -0.60415,-1.19038 -1.30344,-1.38057 l -10.68214,-2.89997 c -0.68646,-2.24099 -1.59868,-4.40649 -2.7226,-6.4632 l 5.5686,-9.67169 c 0.36155,-0.62802 0.48611,-1.35724 -0.0539,-1.89731 l -7.89013,-7.89005 c -0.54009,-0.5401 -1.26837,-0.41401 -1.89733,-0.0541 l -9.69492,5.55313 c -2.13743,-0.87751 -4.37444,-1.96079 -6.37068,-2.6072 l -2.93854,-10.86713 c -0.18839,-0.69976 -0.6091,-1.30345 -1.37289,-1.30345 h -11.16044 z m 5.52505,28.58373 c 9.09123,0 16.46109,7.36982 16.46109,16.46092 -1e-5,9.09109 -7.36988,16.4609 -16.46109,16.4609 -9.0912,0 -16.46107,-7.36981 -16.46107,-16.4609 0,-9.0911 7.36986,-16.46092 16.46107,-16.46092 z" id="path44247" inkscape:connector-curvature="0" sodipodi:nodetypes="cccccccccccssccccccccccsscccccsccccssccccccccccscccscsc" inkscape:label="base"/>
      <path style="color:#000000;font-style:normal;font-variant:normal;font-weight:normal;font-stretch:normal;font-size:medium;line-height:normal;font-family:sans-serif;text-indent:0;text-align:start;text-decoration:none;text-decoration-line:none;text-decoration-style:solid;text-decoration-color:#000000;letter-spacing:normal;word-spacing:normal;text-transform:none;writing-mode:lr-tb;direction:ltr;baseline-shift:baseline;text-anchor:start;white-space:normal;clip-rule:nonzero;display:inline;overflow:visible;visibility:visible;opacity:1;isolation:auto;mix-blend-mode:normal;color-interpolation:sRGB;color-interpolation-filters:linearRGB;solid-color:#000000;solid-opacity:1;vector-effect:none;fill:#000000;fill-opacity:0.17277485;fill-rule:nonzero;stroke:none;stroke-width:3.29418111;stroke-linecap:butt;stroke-linejoin:miter;stroke-miterlimit:4;stroke-dasharray:none;stroke-dashoffset:0;stroke-opacity:0.14136125;marker:none;marker-start:none;marker-mid:none;marker-end:none;paint-order:fill markers stroke;color-rendering:auto;image-rendering:auto;shape-rendering:auto;text-rendering:auto;enable-background:accumulate" d="m 160.00615,124.48762 c -19.5407,0 -35.51858,15.96551 -35.51858,35.50617 0,19.5407 15.97788,35.51859 35.51858,35.51859 19.54067,0 35.50621,-15.97789 35.50621,-35.51859 0,-19.54066 -15.96554,-35.50617 -35.50621,-35.50617 z m 9.8e-4,7.53348 c 15.54783,0 27.9713,12.42351 27.9713,27.9713 0,15.54786 -12.42347,27.9865 -27.9713,27.9865 -15.54779,0 -27.98652,-12.43864 -27.98652,-27.9865 0,-15.54779 12.43873,-27.9713 27.98652,-27.9713 z" id="path1313" inkscape:connector-curvature="0" sodipodi:nodetypes="ssssssssss" inkscape:label="r"/>
      <path inkscape:label="r" sodipodi:nodetypes="ssssssssss" inkscape:connector-curvature="0" id="path1309" d="m 160.00596,125.56259 c -18.94919,0 -34.44342,15.48223 -34.44342,34.43139 0,18.94919 15.49423,34.44343 34.44342,34.44343 18.94917,0 34.43143,-15.49424 34.43143,-34.44343 0,-18.94916 -15.48226,-34.43139 -34.43143,-34.43139 z m 9.9e-4,7.30545 c 15.07718,0 27.12459,12.04744 27.12459,27.12458 0,15.07723 -12.04741,27.13934 -27.12459,27.13934 -15.07716,0 -27.13935,-12.06211 -27.13935,-27.13934 0,-15.07714 12.06219,-27.12458 27.13935,-27.12458 z" style="color:#000000;font-style:normal;font-variant:normal;font-weight:normal;font-stretch:normal;font-size:medium;line-height:normal;font-family:sans-serif;text-indent:0;text-align:start;text-decoration:none;text-decoration-line:none;text-decoration-style:solid;text-decoration-color:#000000;letter-spacing:normal;word-spacing:normal;text-transform:none;writing-mode:lr-tb;direction:ltr;baseline-shift:baseline;text-anchor:start;white-space:normal;clip-rule:nonzero;display:inline;overflow:visible;visibility:visible;opacity:1;isolation:auto;mix-blend-mode:normal;color-interpolation:sRGB;color-interpolation-filters:linearRGB;solid-color:#000000;solid-opacity:1;vector-effect:none;fill:url(#linearGradient1321);fill-opacity:1;fill-rule:nonzero;stroke:none;stroke-width:3.19446421;stroke-linecap:butt;stroke-linejoin:miter;stroke-miterlimit:4;stroke-dasharray:none;stroke-dashoffset:0;stroke-opacity:0.14136125;marker:none;marker-start:none;marker-mid:none;marker-end:none;paint-order:fill markers stroke;color-rendering:auto;image-rendering:auto;shape-rendering:auto;text-rendering:auto;enable-background:accumulate"/>
      <path inkscape:label="azul" sodipodi:nodetypes="ssssssssss" inkscape:connector-curvature="0" id="path1323" d="m 160.00469,132.85905 c -14.93431,0 -27.14569,12.20192 -27.14569,27.1362 0,14.93432 12.21138,27.1457 27.14569,27.1457 14.93429,0 27.13624,-12.21138 27.13624,-27.1457 0,-14.93428 -12.20195,-27.1362 -27.13624,-27.1362 z m 0.002,6.84872 c 11.30423,0 20.33687,9.03265 20.33687,20.33686 0,11.30427 -9.03264,20.34793 -20.33687,20.34793 -11.30422,0 -20.34793,-9.04366 -20.34793,-20.34793 0,-11.30421 9.04371,-20.33686 20.34793,-20.33686 z" style="color:#000000;font-style:normal;font-variant:normal;font-weight:normal;font-stretch:normal;font-size:medium;line-height:normal;font-family:sans-serif;text-indent:0;text-align:start;text-decoration:none;text-decoration-line:none;text-decoration-style:solid;text-decoration-color:#000000;letter-spacing:normal;word-spacing:normal;text-transform:none;writing-mode:lr-tb;direction:ltr;baseline-shift:baseline;text-anchor:start;white-space:normal;clip-rule:nonzero;display:inline;overflow:visible;visibility:visible;opacity:1;isolation:auto;mix-blend-mode:normal;color-interpolation:sRGB;color-interpolation-filters:linearRGB;solid-color:#000000;solid-opacity:1;vector-effect:none;fill:url(#linearGradient5425);fill-opacity:1;fill-rule:nonzero;stroke:none;stroke-width:2;stroke-linecap:butt;stroke-linejoin:miter;stroke-miterlimit:4;stroke-dasharray:none;stroke-dashoffset:0;stroke-opacity:1;marker:none;marker-start:none;marker-mid:none;marker-end:none;paint-order:fill markers stroke;color-rendering:auto;image-rendering:auto;shape-rendering:auto;text-rendering:auto;enable-background:accumulate"/>
      <path style="color:#000000;font-style:normal;font-variant:normal;font-weight:normal;font-stretch:normal;font-size:medium;line-height:normal;font-family:sans-serif;text-indent:0;text-align:start;text-decoration:none;text-decoration-line:none;text-decoration-style:solid;text-decoration-color:#000000;letter-spacing:normal;word-spacing:normal;text-transform:none;writing-mode:lr-tb;direction:ltr;baseline-shift:baseline;text-anchor:start;white-space:normal;clip-rule:nonzero;display:inline;overflow:visible;visibility:visible;opacity:1;isolation:auto;mix-blend-mode:normal;color-interpolation:sRGB;color-interpolation-filters:linearRGB;solid-color:#000000;solid-opacity:1;vector-effect:none;fill:#000000;fill-opacity:0.2827225;fill-rule:nonzero;stroke:none;stroke-width:2.51763391;stroke-linecap:butt;stroke-linejoin:miter;stroke-miterlimit:4;stroke-dasharray:none;stroke-dashoffset:0;stroke-opacity:0.14136125;marker:none;marker-start:none;marker-mid:none;marker-end:none;paint-order:fill markers stroke;color-rendering:auto;image-rendering:auto;shape-rendering:auto;text-rendering:auto;enable-background:accumulate" d="m 160.00391,132.85938 c -14.93431,0 -27.14453,12.20243 -27.14453,27.13671 0,0.1678 0.009,0.33291 0.0117,0.5 0.26976,-14.70492 12.36606,-26.63671 27.13282,-26.63671 14.76673,0 26.85544,11.93179 27.125,26.63671 0.003,-0.16709 0.0117,-0.3322 0.0117,-0.5 0,-14.93428 -12.20242,-27.13671 -27.13671,-27.13671 z" id="path1212" inkscape:connector-curvature="0" sodipodi:nodetypes="cscscscc" inkscape:label="rojo sombra sup"/>
      <path style="color:#000000;clip-rule:nonzero;display:inline;overflow:visible;visibility:visible;opacity:1;isolation:auto;mix-blend-mode:normal;color-interpolation:sRGB;color-interpolation-filters:linearRGB;solid-color:#000000;solid-opacity:1;vector-effect:none;fill:#ffffff;fill-opacity:0.67539266;fill-rule:nonzero;stroke:none;stroke-width:1.87241459;stroke-linecap:butt;stroke-linejoin:miter;stroke-miterlimit:4;stroke-dasharray:none;stroke-dashoffset:0;stroke-opacity:0.14136125;marker:none;marker-start:none;marker-mid:none;marker-end:none;paint-order:fill markers stroke;color-rendering:auto;image-rendering:auto;shape-rendering:auto;text-rendering:auto;enable-background:accumulate" d="m 154.48242,115 c -0.76382,0 -1.19068,0.60344 -1.38086,1.30273 l -2.93164,10.78321 c -2.00105,0.71395 -4.63037,1.71132 -6.40234,2.63867 l -9.70117,-5.58399 c -0.62804,-0.36154 -1.35835,-0.48539 -1.89844,0.0547 l -7.89063,7.88867 c -0.40506,0.40504 -0.43354,0.91293 -0.27148,1.40625 0.059,-0.14261 0.14514,-0.2799 0.27148,-0.40625 l 7.89063,-7.88867 c 0.54009,-0.54008 1.2704,-0.41623 1.89844,-0.0547 l 9.70117,5.58399 c 1.77197,-0.92735 4.40129,-1.92472 6.40234,-2.63867 l 2.93164,-10.78321 C 153.29174,116.60344 153.7186,116 154.48242,116 h 11.16016 c 0.76379,0 1.18466,0.60493 1.37304,1.30469 l 2.9375,10.86719 c 1.99625,0.64641 4.23367,1.72795 6.3711,2.60546 l 9.69531,-5.55273 c 0.62896,-0.35991 1.3564,-0.48541 1.89649,0.0547 l 7.89062,7.89062 c 0.12729,0.12731 0.2144,0.26563 0.27344,0.41016 0.16155,-0.49477 0.13105,-1.00562 -0.27344,-1.41016 l -7.89062,-7.89062 c -0.54009,-0.5401 -1.26753,-0.4146 -1.89649,-0.0547 l -9.69531,5.55273 c -2.13743,-0.87751 -4.37485,-1.95905 -6.3711,-2.60546 l -2.9375,-10.86719 C 166.82724,115.60493 166.40637,115 165.64258,115 Z m -25.07812,29.0293 c -1.04527,1.95178 -1.90995,3.99527 -2.56446,6.11132 l -10.53711,2.8379 C 115.60297,153.1669 115,153.59561 115,154.35938 v 1 c 0,-0.76377 0.60297,-1.19248 1.30273,-1.38086 l 10.53711,-2.8379 c 0.71257,-2.30376 1.66342,-4.5267 2.83789,-6.63281 z m 61.1582,0.23632 -0.27148,0.47266 c 1.12392,2.05671 2.03619,4.2219 2.72265,6.46289 l 10.6836,2.90039 c 0.69929,0.19019 1.30273,0.61707 1.30273,1.38086 v -1 c 0,-0.76379 -0.60344,-1.19067 -1.30273,-1.38086 l -10.6836,-2.90039 c -0.62854,-2.05192 -1.45487,-4.03577 -2.45117,-5.93555 z m -61.37891,32.89649 -5.04492,8.77148 c -0.27633,0.47998 -0.41021,1.01969 -0.21875,1.48829 0.0541,-0.16576 0.12802,-0.33069 0.21875,-0.48829 l 5.31445,-9.23828 c -0.0948,-0.17526 -0.17784,-0.3564 -0.26953,-0.5332 z m 61.51368,0 c -0.0906,0.1769 -0.17395,0.35781 -0.26758,0.5332 l 5.3457,9.32422 c 0.09,0.15724 0.16474,0.32117 0.21875,0.48633 0.19115,-0.46839 0.0564,-1.00561 -0.21875,-1.48633 z" id="path1201" inkscape:connector-curvature="0" sodipodi:nodetypes="scccccccccccccsscccccccccccccsscccsccccccccccsccccccccccccccc" inkscape:label="brillo superior"/>
      <path style="color:#000000;font-style:normal;font-variant:normal;font-weight:normal;font-stretch:normal;font-size:medium;line-height:normal;font-family:sans-serif;text-indent:0;text-align:start;text-decoration:none;text-decoration-line:none;text-decoration-style:solid;text-decoration-color:#000000;letter-spacing:normal;word-spacing:normal;text-transform:none;writing-mode:lr-tb;direction:ltr;baseline-shift:baseline;text-anchor:start;white-space:normal;clip-rule:nonzero;display:inline;overflow:visible;visibility:visible;opacity:1;isolation:auto;mix-blend-mode:normal;color-interpolation:sRGB;color-interpolation-filters:linearRGB;solid-color:#000000;solid-opacity:1;vector-effect:none;fill:#000000;fill-opacity:0.12087911;fill-rule:nonzero;stroke:none;stroke-width:2.04157686;stroke-linecap:butt;stroke-linejoin:miter;stroke-miterlimit:4;stroke-dasharray:none;stroke-dashoffset:0;stroke-opacity:0.14136125;marker:none;marker-start:none;marker-mid:none;marker-end:none;paint-order:fill markers stroke;color-rendering:auto;image-rendering:auto;shape-rendering:auto;text-rendering:auto;enable-background:accumulate" d="m 160.00511,141.01532 c -11.52086,0 -20.94115,9.41299 -20.94115,20.93382 0,11.52086 9.42029,20.94115 20.94115,20.94115 11.52084,0 20.93385,-9.42029 20.93385,-20.94115 0,-11.52083 -9.41301,-20.93382 -20.93385,-20.93382 z m -0.002,8.60568 c 6.87899,0 12.37564,5.49666 12.37564,12.37563 0,6.87902 -5.49665,12.38237 -12.37564,12.38237 -6.87898,0 -12.38237,-5.50335 -12.38237,-12.38237 0,-6.87897 5.50339,-12.37563 12.38237,-12.37563 z" id="path1210" inkscape:connector-curvature="0" sodipodi:nodetypes="ssssssssss" inkscape:label="sombra"/>
      <path sodipodi:nodetypes="sssss" inkscape:connector-curvature="0" id="path1206" d="m 160.06317,139.17074 c -11.52086,0 -20.94115,9.41299 -20.94115,20.93382 0,11.52086 9.42029,20.94115 20.94115,20.94115 11.52084,0 20.93385,-9.42029 20.93385,-20.94115 0,-11.52083 -9.41301,-20.93382 -20.93385,-20.93382 z" style="color:#000000;font-style:normal;font-variant:normal;font-weight:normal;font-stretch:normal;font-size:medium;line-height:normal;font-family:sans-serif;text-indent:0;text-align:start;text-decoration:none;text-decoration-line:none;text-decoration-style:solid;text-decoration-color:#000000;letter-spacing:normal;word-spacing:normal;text-transform:none;writing-mode:lr-tb;direction:ltr;baseline-shift:baseline;text-anchor:start;white-space:normal;clip-rule:nonzero;display:inline;overflow:visible;visibility:visible;opacity:1;isolation:auto;mix-blend-mode:normal;color-interpolation:sRGB;color-interpolation-filters:linearRGB;solid-color:#000000;solid-opacity:1;vector-effect:none;fill:#b9d3db;fill-opacity:1;fill-rule:nonzero;stroke:none;stroke-width:2.04157686;stroke-linecap:butt;stroke-linejoin:miter;stroke-miterlimit:4;stroke-dasharray:none;stroke-dashoffset:0;stroke-opacity:0.14136125;marker:none;marker-start:none;marker-mid:none;marker-end:none;paint-order:fill markers stroke;color-rendering:auto;image-rendering:auto;shape-rendering:auto;text-rendering:auto;enable-background:accumulate" inkscape:label="aro interior"/>
      <path sodipodi:nodetypes="sscscsss" style="color:#000000;font-style:normal;font-variant:normal;font-weight:normal;font-stretch:normal;font-size:medium;line-height:normal;font-family:sans-serif;text-indent:0;text-align:start;text-decoration:none;text-decoration-line:none;text-decoration-style:solid;text-decoration-color:#000000;letter-spacing:normal;word-spacing:normal;text-transform:none;writing-mode:lr-tb;direction:ltr;baseline-shift:baseline;text-anchor:start;white-space:normal;clip-rule:nonzero;display:inline;overflow:visible;visibility:visible;opacity:1;isolation:auto;mix-blend-mode:normal;color-interpolation:sRGB;color-interpolation-filters:linearRGB;solid-color:#000000;solid-opacity:1;vector-effect:none;fill:#ffffff;fill-opacity:0.24725276;fill-rule:nonzero;stroke:none;stroke-width:2.04157686;stroke-linecap:butt;stroke-linejoin:miter;stroke-miterlimit:4;stroke-dasharray:none;stroke-dashoffset:0;stroke-opacity:0.14136125;marker:none;marker-start:none;marker-mid:none;marker-end:none;paint-order:fill markers stroke;color-rendering:auto;image-rendering:auto;shape-rendering:auto;text-rendering:auto;enable-background:accumulate" d="m 160.06281,139.1713 c -11.52086,0 -20.94018,9.41192 -20.94018,20.93275 0,0.15946 0.008,0.31703 0.0111,0.47566 0.25577,-11.30246 9.56763,-20.45709 20.92903,-20.45709 11.36138,0 20.666,9.15464 20.92159,20.45709 0.004,-0.15864 0.013,-0.3162 0.013,-0.47566 0,-11.52083 -9.41376,-20.93275 -20.9346,-20.93275 z" id="path1237" inkscape:connector-curvature="0" inkscape:label="aro interior brillo"/>
      <path style="color:#000000;clip-rule:nonzero;display:inline;overflow:visible;visibility:visible;opacity:0.33734939;isolation:auto;mix-blend-mode:normal;color-interpolation:sRGB;color-interpolation-filters:linearRGB;solid-color:#000000;solid-opacity:1;vector-effect:none;fill:url(#linearGradient1376);fill-opacity:1;fill-rule:nonzero;stroke:none;stroke-width:1.10001445;stroke-linecap:butt;stroke-linejoin:miter;stroke-miterlimit:4;stroke-dasharray:none;stroke-dashoffset:0;stroke-opacity:1;marker:none;marker-start:none;marker-mid:none;marker-end:none;paint-order:fill markers stroke;color-rendering:auto;image-rendering:auto;shape-rendering:auto;text-rendering:auto;enable-background:accumulate" d="m 153.98813,139.01552 h 11.90799 v 1.02309 h -11.90799 z" id="rect1366" inkscape:connector-curvature="0"/>
      <path sodipodi:nodetypes="ccccccccccccccccc" inkscape:connector-curvature="0" id="path1117" d="M 149,149.00004 163,149 v 7 h -8 v 16 h -6 z M 157,158 h 6 v 14 h -6 z m 8,-9 h 6 v 23 h -6 z" style="display:inline;fill:#000000;fill-opacity:0.23626374;stroke-width:0.11256246"/>
      <path style="display:inline;fill:#000000;fill-opacity:0.23076926;stroke-width:0.11256246" d="m 149,149 v 1 h 14 v -1 z m 16,0 v 1 h 6 v -1 z m -8,9 v 1 h 6 v -1 z" id="path1121" inkscape:connector-curvature="0"/>
      <path inkscape:connector-curvature="0" id="path1126" d="m 149,173 v -1 h 6 v 1 z m 16,0 v -1 h 6 v 1 z m -8,0 v -1 h 6 v 1 z" style="display:inline;fill:#ffffff;fill-opacity:0.43406593;stroke-width:0.11256246" sodipodi:nodetypes="ccccccccccccccc"/>
    </g>
  </g>
</svg>